<?xml version="1.0" encoding="utf-8" standalone="no"?>
<!DOCTYPE svg PUBLIC "-//W3C//DTD SVG 1.1//EN"
  "http://www.w3.org/Graphics/SVG/1.1/DTD/svg11.dtd">
<!-- Created with matplotlib (https://matplotlib.org/) -->
<svg height="237.3pt" version="1.1" viewBox="0 0 407.1 237.3" width="407.1pt" xmlns="http://www.w3.org/2000/svg" xmlns:xlink="http://www.w3.org/1999/xlink">
 <defs>
  <style type="text/css">
*{stroke-linecap:butt;stroke-linejoin:round;}
  </style>
 </defs>
 <g id="figure_1">
  <g id="patch_1">
   <path d="M 0 237.3 
L 407.1 237.3 
L 407.1 0 
L 0 0 
z
" style="fill:#f2f2f2;"/>
  </g>
  <g id="axes_1">
   <g id="patch_2">
    <path d="M 34.7 172.9 
L 178.7 172.9 
L 178.7 28.9 
L 34.7 28.9 
z
" style="fill:#ffffff;"/>
   </g>
   <g id="matplotlib.axis_1">
    <g id="xtick_1">
     <g id="line2d_1">
      <path clip-path="url(#p63b3ca67b0)" d="M 34.7 172.9 
L 34.7 28.9 
" style="fill:none;stroke:#000000;stroke-linecap:square;stroke-opacity:0.1;stroke-width:0.6;"/>
     </g>
     <g id="line2d_2">
      <defs>
       <path d="M 0 0 
L 0 4 
" id="ma969a6eb72" style="stroke:#000000;stroke-width:0.6;"/>
      </defs>
      <g>
       <use style="stroke:#000000;stroke-width:0.6;" x="34.7" xlink:href="#ma969a6eb72" y="172.9"/>
      </g>
     </g>
     <g id="text_1">
      <!-- 0 -->
      <defs>
       <path d="M 13.203125 34.90625 
Q 13.203125 37.5 13.25 40.640625 
Q 13.296875 43.796875 13.75 46.9375 
Q 14.203125 50.09375 15.046875 53.09375 
Q 15.90625 56.09375 17.546875 58.34375 
Q 19.203125 60.59375 21.703125 62 
Q 24.203125 63.40625 27.796875 63.40625 
Q 31.40625 63.40625 33.90625 62 
Q 36.40625 60.59375 38.046875 58.34375 
Q 39.703125 56.09375 40.546875 53.09375 
Q 41.40625 50.09375 41.84375 46.9375 
Q 42.296875 43.796875 42.34375 40.640625 
Q 42.40625 37.5 42.40625 34.90625 
Q 42.40625 30.90625 42.15625 25.953125 
Q 41.90625 21 40.546875 16.640625 
Q 39.203125 12.296875 36.203125 9.296875 
Q 33.203125 6.296875 27.796875 6.296875 
Q 22.40625 6.296875 19.40625 9.296875 
Q 16.40625 12.296875 15.046875 16.640625 
Q 13.703125 21 13.453125 25.953125 
Q 13.203125 30.90625 13.203125 34.90625 
z
M 4.203125 34.796875 
Q 4.203125 30.90625 4.390625 26.703125 
Q 4.59375 22.5 5.390625 18.5 
Q 6.203125 14.5 7.703125 10.953125 
Q 9.203125 7.40625 11.796875 4.703125 
Q 14.40625 2 18.34375 0.453125 
Q 22.296875 -1.09375 27.796875 -1.09375 
Q 33.40625 -1.09375 37.296875 0.453125 
Q 41.203125 2 43.796875 4.703125 
Q 46.40625 7.40625 47.90625 10.953125 
Q 49.40625 14.5 50.203125 18.5 
Q 51 22.5 51.203125 26.703125 
Q 51.40625 30.90625 51.40625 34.796875 
Q 51.40625 38.703125 51.203125 42.890625 
Q 51 47.09375 50.203125 51.09375 
Q 49.40625 55.09375 47.90625 58.6875 
Q 46.40625 62.296875 43.796875 65 
Q 41.203125 67.703125 37.25 69.296875 
Q 33.296875 70.90625 27.796875 70.90625 
Q 22.296875 70.90625 18.34375 69.296875 
Q 14.40625 67.703125 11.796875 65 
Q 9.203125 62.296875 7.703125 58.6875 
Q 6.203125 55.09375 5.390625 51.09375 
Q 4.59375 47.09375 4.390625 42.890625 
Q 4.203125 38.703125 4.203125 34.796875 
z
" id="HelveticaNeue-48"/>
      </defs>
      <g transform="translate(32.47625 184.6125)scale(0.08 -0.08)">
       <use xlink:href="#HelveticaNeue-48"/>
      </g>
     </g>
    </g>
    <g id="xtick_2">
     <g id="line2d_3">
      <path clip-path="url(#p63b3ca67b0)" d="M 72.594737 172.9 
L 72.594737 28.9 
" style="fill:none;stroke:#000000;stroke-linecap:square;stroke-opacity:0.1;stroke-width:0.6;"/>
     </g>
     <g id="line2d_4">
      <g>
       <use style="stroke:#000000;stroke-width:0.6;" x="72.594737" xlink:href="#ma969a6eb72" y="172.9"/>
      </g>
     </g>
     <g id="text_2">
      <!-- 5 -->
      <defs>
       <path d="M 47 62.203125 
L 47 69.703125 
L 12 69.703125 
L 5.40625 32.90625 
L 12.703125 32.5 
Q 15.203125 35.5 18.453125 37.34375 
Q 21.703125 39.203125 25.90625 39.203125 
Q 29.5 39.203125 32.453125 38 
Q 35.40625 36.796875 37.5 34.640625 
Q 39.59375 32.5 40.75 29.546875 
Q 41.90625 26.59375 41.90625 23.09375 
Q 41.90625 18.90625 40.703125 15.75 
Q 39.5 12.59375 37.453125 10.5 
Q 35.40625 8.40625 32.65625 7.34375 
Q 29.90625 6.296875 26.90625 6.296875 
Q 23.703125 6.296875 21.046875 7.25 
Q 18.40625 8.203125 16.453125 9.953125 
Q 14.5 11.703125 13.34375 14.046875 
Q 12.203125 16.40625 12 19.09375 
L 3.5 19.09375 
Q 3.59375 14.296875 5.390625 10.5 
Q 7.203125 6.703125 10.296875 4.140625 
Q 13.40625 1.59375 17.453125 0.25 
Q 21.5 -1.09375 26.09375 -1.09375 
Q 32.296875 -1.09375 36.9375 0.84375 
Q 41.59375 2.796875 44.6875 6.09375 
Q 47.796875 9.40625 49.34375 13.65625 
Q 50.90625 17.90625 50.90625 22.40625 
Q 50.90625 28.5 49.09375 33.046875 
Q 47.296875 37.59375 44.1875 40.640625 
Q 41.09375 43.703125 36.890625 45.203125 
Q 32.703125 46.703125 28 46.703125 
Q 24.40625 46.703125 20.75 45.453125 
Q 17.09375 44.203125 14.796875 41.59375 
L 14.59375 41.796875 
L 18.40625 62.203125 
z
" id="HelveticaNeue-53"/>
      </defs>
      <g transform="translate(70.370987 184.6125)scale(0.08 -0.08)">
       <use xlink:href="#HelveticaNeue-53"/>
      </g>
     </g>
    </g>
    <g id="xtick_3">
     <g id="line2d_5">
      <path clip-path="url(#p63b3ca67b0)" d="M 110.489474 172.9 
L 110.489474 28.9 
" style="fill:none;stroke:#000000;stroke-linecap:square;stroke-opacity:0.1;stroke-width:0.6;"/>
     </g>
     <g id="line2d_6">
      <g>
       <use style="stroke:#000000;stroke-width:0.6;" x="110.489474" xlink:href="#ma969a6eb72" y="172.9"/>
      </g>
     </g>
     <g id="text_3">
      <!-- 10 -->
      <defs>
       <path d="M 35.59375 0 
L 35.59375 70.90625 
L 29.09375 70.90625 
Q 28.40625 66.90625 26.5 64.296875 
Q 24.59375 61.703125 21.84375 60.203125 
Q 19.09375 58.703125 15.6875 58.140625 
Q 12.296875 57.59375 8.703125 57.59375 
L 8.703125 50.796875 
L 27.09375 50.796875 
L 27.09375 0 
z
" id="HelveticaNeue-49"/>
      </defs>
      <g transform="translate(106.041974 184.6125)scale(0.08 -0.08)">
       <use xlink:href="#HelveticaNeue-49"/>
       <use x="55.599991" xlink:href="#HelveticaNeue-48"/>
      </g>
     </g>
    </g>
    <g id="xtick_4">
     <g id="line2d_7">
      <path clip-path="url(#p63b3ca67b0)" d="M 148.384211 172.9 
L 148.384211 28.9 
" style="fill:none;stroke:#000000;stroke-linecap:square;stroke-opacity:0.1;stroke-width:0.6;"/>
     </g>
     <g id="line2d_8">
      <g>
       <use style="stroke:#000000;stroke-width:0.6;" x="148.384211" xlink:href="#ma969a6eb72" y="172.9"/>
      </g>
     </g>
     <g id="text_4">
      <!-- 15 -->
      <g transform="translate(143.936711 184.6125)scale(0.08 -0.08)">
       <use xlink:href="#HelveticaNeue-49"/>
       <use x="55.599991" xlink:href="#HelveticaNeue-53"/>
      </g>
     </g>
    </g>
    <g id="xtick_5">
     <g id="line2d_9">
      <defs>
       <path d="M 0 0 
L 0 2 
" id="ma41c93e17f" style="stroke:#000000;stroke-width:0.48;"/>
      </defs>
      <g>
       <use style="stroke:#000000;stroke-width:0.48;" x="42.278947" xlink:href="#ma41c93e17f" y="172.9"/>
      </g>
     </g>
    </g>
    <g id="xtick_6">
     <g id="line2d_10">
      <g>
       <use style="stroke:#000000;stroke-width:0.48;" x="49.857895" xlink:href="#ma41c93e17f" y="172.9"/>
      </g>
     </g>
    </g>
    <g id="xtick_7">
     <g id="line2d_11">
      <g>
       <use style="stroke:#000000;stroke-width:0.48;" x="57.436842" xlink:href="#ma41c93e17f" y="172.9"/>
      </g>
     </g>
    </g>
    <g id="xtick_8">
     <g id="line2d_12">
      <g>
       <use style="stroke:#000000;stroke-width:0.48;" x="65.015789" xlink:href="#ma41c93e17f" y="172.9"/>
      </g>
     </g>
    </g>
    <g id="xtick_9">
     <g id="line2d_13">
      <g>
       <use style="stroke:#000000;stroke-width:0.48;" x="80.173684" xlink:href="#ma41c93e17f" y="172.9"/>
      </g>
     </g>
    </g>
    <g id="xtick_10">
     <g id="line2d_14">
      <g>
       <use style="stroke:#000000;stroke-width:0.48;" x="87.752632" xlink:href="#ma41c93e17f" y="172.9"/>
      </g>
     </g>
    </g>
    <g id="xtick_11">
     <g id="line2d_15">
      <g>
       <use style="stroke:#000000;stroke-width:0.48;" x="95.331579" xlink:href="#ma41c93e17f" y="172.9"/>
      </g>
     </g>
    </g>
    <g id="xtick_12">
     <g id="line2d_16">
      <g>
       <use style="stroke:#000000;stroke-width:0.48;" x="102.910526" xlink:href="#ma41c93e17f" y="172.9"/>
      </g>
     </g>
    </g>
    <g id="xtick_13">
     <g id="line2d_17">
      <g>
       <use style="stroke:#000000;stroke-width:0.48;" x="118.068421" xlink:href="#ma41c93e17f" y="172.9"/>
      </g>
     </g>
    </g>
    <g id="xtick_14">
     <g id="line2d_18">
      <g>
       <use style="stroke:#000000;stroke-width:0.48;" x="125.647368" xlink:href="#ma41c93e17f" y="172.9"/>
      </g>
     </g>
    </g>
    <g id="xtick_15">
     <g id="line2d_19">
      <g>
       <use style="stroke:#000000;stroke-width:0.48;" x="133.226316" xlink:href="#ma41c93e17f" y="172.9"/>
      </g>
     </g>
    </g>
    <g id="xtick_16">
     <g id="line2d_20">
      <g>
       <use style="stroke:#000000;stroke-width:0.48;" x="140.805263" xlink:href="#ma41c93e17f" y="172.9"/>
      </g>
     </g>
    </g>
    <g id="xtick_17">
     <g id="line2d_21">
      <g>
       <use style="stroke:#000000;stroke-width:0.48;" x="155.963158" xlink:href="#ma41c93e17f" y="172.9"/>
      </g>
     </g>
    </g>
    <g id="xtick_18">
     <g id="line2d_22">
      <g>
       <use style="stroke:#000000;stroke-width:0.48;" x="163.542105" xlink:href="#ma41c93e17f" y="172.9"/>
      </g>
     </g>
    </g>
    <g id="xtick_19">
     <g id="line2d_23">
      <g>
       <use style="stroke:#000000;stroke-width:0.48;" x="171.121053" xlink:href="#ma41c93e17f" y="172.9"/>
      </g>
     </g>
    </g>
    <g id="xtick_20">
     <g id="line2d_24">
      <g>
       <use style="stroke:#000000;stroke-width:0.48;" x="178.7" xlink:href="#ma41c93e17f" y="172.9"/>
      </g>
     </g>
    </g>
    <g id="text_5">
     <!-- xlabel -->
     <defs>
      <path d="M 20.296875 27.203125 
L 0.90625 0 
L 11.203125 0 
L 25.59375 21.40625 
L 40 0 
L 50.90625 0 
L 30.90625 27.90625 
L 48.703125 51.703125 
L 38.5 51.703125 
L 25.59375 33.59375 
L 13.203125 51.703125 
L 2.296875 51.703125 
z
" id="HelveticaNeue-120"/>
      <path d="M 6.90625 71.40625 
L 6.90625 0 
L 15.40625 0 
L 15.40625 71.40625 
z
" id="HelveticaNeue-108"/>
      <path d="M 52.203125 0.203125 
Q 50 -1.09375 46.09375 -1.09375 
Q 42.796875 -1.09375 40.84375 0.75 
Q 38.90625 2.59375 38.90625 6.796875 
Q 35.40625 2.59375 30.75 0.75 
Q 26.09375 -1.09375 20.703125 -1.09375 
Q 17.203125 -1.09375 14.046875 -0.296875 
Q 10.90625 0.5 8.59375 2.203125 
Q 6.296875 3.90625 4.9375 6.65625 
Q 3.59375 9.40625 3.59375 13.296875 
Q 3.59375 17.703125 5.09375 20.5 
Q 6.59375 23.296875 9.046875 25.046875 
Q 11.5 26.796875 14.640625 27.6875 
Q 17.796875 28.59375 21.09375 29.203125 
Q 24.59375 29.90625 27.75 30.25 
Q 30.90625 30.59375 33.296875 31.25 
Q 35.703125 31.90625 37.09375 33.15625 
Q 38.5 34.40625 38.5 36.796875 
Q 38.5 39.59375 37.453125 41.296875 
Q 36.40625 43 34.75 43.890625 
Q 33.09375 44.796875 31.046875 45.09375 
Q 29 45.40625 27 45.40625 
Q 21.59375 45.40625 18 43.34375 
Q 14.40625 41.296875 14.09375 35.59375 
L 5.59375 35.59375 
Q 5.796875 40.40625 7.59375 43.703125 
Q 9.40625 47 12.40625 49.046875 
Q 15.40625 51.09375 19.25 52 
Q 23.09375 52.90625 27.5 52.90625 
Q 31 52.90625 34.453125 52.40625 
Q 37.90625 51.90625 40.703125 50.34375 
Q 43.5 48.796875 45.203125 46 
Q 46.90625 43.203125 46.90625 38.703125 
L 46.90625 12.09375 
Q 46.90625 9.09375 47.25 7.6875 
Q 47.59375 6.296875 49.59375 6.296875 
Q 50.703125 6.296875 52.203125 6.796875 
z
M 38.40625 26.703125 
Q 36.796875 25.5 34.1875 24.953125 
Q 31.59375 24.40625 28.75 24.046875 
Q 25.90625 23.703125 23 23.25 
Q 20.09375 22.796875 17.796875 21.796875 
Q 15.5 20.796875 14.046875 18.9375 
Q 12.59375 17.09375 12.59375 13.90625 
Q 12.59375 11.796875 13.4375 10.34375 
Q 14.296875 8.90625 15.640625 8 
Q 17 7.09375 18.796875 6.6875 
Q 20.59375 6.296875 22.59375 6.296875 
Q 26.796875 6.296875 29.796875 7.4375 
Q 32.796875 8.59375 34.6875 10.34375 
Q 36.59375 12.09375 37.5 14.140625 
Q 38.40625 16.203125 38.40625 18 
z
" id="HelveticaNeue-97"/>
      <path d="M 6.703125 71.40625 
L 6.703125 0 
L 15.203125 0 
L 15.203125 6.90625 
L 15.40625 6.90625 
Q 16.796875 4.59375 18.84375 3.046875 
Q 20.90625 1.5 23.203125 0.59375 
Q 25.5 -0.296875 27.84375 -0.6875 
Q 30.203125 -1.09375 32.09375 -1.09375 
Q 38 -1.09375 42.453125 1 
Q 46.90625 3.09375 49.84375 6.75 
Q 52.796875 10.40625 54.25 15.296875 
Q 55.703125 20.203125 55.703125 25.703125 
Q 55.703125 31.203125 54.203125 36.09375 
Q 52.703125 41 49.75 44.75 
Q 46.796875 48.5 42.34375 50.703125 
Q 37.90625 52.90625 31.90625 52.90625 
Q 26.5 52.90625 22 50.953125 
Q 17.5 49 15.40625 44.703125 
L 15.203125 44.703125 
L 15.203125 71.40625 
z
M 46.703125 26.296875 
Q 46.703125 22.5 45.890625 18.890625 
Q 45.09375 15.296875 43.296875 12.5 
Q 41.5 9.703125 38.546875 8 
Q 35.59375 6.296875 31.203125 6.296875 
Q 26.796875 6.296875 23.6875 7.9375 
Q 20.59375 9.59375 18.640625 12.296875 
Q 16.703125 15 15.796875 18.546875 
Q 14.90625 22.09375 14.90625 25.90625 
Q 14.90625 29.5 15.75 33 
Q 16.59375 36.5 18.5 39.25 
Q 20.40625 42 23.40625 43.703125 
Q 26.40625 45.40625 30.703125 45.40625 
Q 34.796875 45.40625 37.84375 43.796875 
Q 40.90625 42.203125 42.84375 39.5 
Q 44.796875 36.796875 45.75 33.34375 
Q 46.703125 29.90625 46.703125 26.296875 
z
" id="HelveticaNeue-98"/>
      <path d="M 42.296875 30.796875 
L 12.59375 30.796875 
Q 12.796875 33.796875 13.890625 36.4375 
Q 15 39.09375 16.890625 41.09375 
Q 18.796875 43.09375 21.4375 44.25 
Q 24.09375 45.40625 27.40625 45.40625 
Q 30.59375 45.40625 33.25 44.25 
Q 35.90625 43.09375 37.84375 41.140625 
Q 39.796875 39.203125 40.9375 36.5 
Q 42.09375 33.796875 42.296875 30.796875 
z
M 50.5 16.40625 
L 42.09375 16.40625 
Q 41 11.296875 37.546875 8.796875 
Q 34.09375 6.296875 28.703125 6.296875 
Q 24.5 6.296875 21.390625 7.6875 
Q 18.296875 9.09375 16.296875 11.4375 
Q 14.296875 13.796875 13.390625 16.84375 
Q 12.5 19.90625 12.59375 23.296875 
L 51.296875 23.296875 
Q 51.5 28 50.453125 33.203125 
Q 49.40625 38.40625 46.65625 42.796875 
Q 43.90625 47.203125 39.34375 50.046875 
Q 34.796875 52.90625 27.90625 52.90625 
Q 22.59375 52.90625 18.140625 50.90625 
Q 13.703125 48.90625 10.453125 45.296875 
Q 7.203125 41.703125 5.390625 36.796875 
Q 3.59375 31.90625 3.59375 26 
Q 3.796875 20.09375 5.34375 15.09375 
Q 6.90625 10.09375 10 6.5 
Q 13.09375 2.90625 17.640625 0.90625 
Q 22.203125 -1.09375 28.40625 -1.09375 
Q 37.203125 -1.09375 43 3.296875 
Q 48.796875 7.703125 50.5 16.40625 
z
" id="HelveticaNeue-101"/>
     </defs>
     <g transform="translate(96.18375 194.90125)scale(0.08 -0.08)">
      <use xlink:href="#HelveticaNeue-120"/>
      <use x="51.799988" xlink:href="#HelveticaNeue-108"/>
      <use x="73.999985" xlink:href="#HelveticaNeue-97"/>
      <use x="127.699982" xlink:href="#HelveticaNeue-98"/>
      <use x="186.999969" xlink:href="#HelveticaNeue-101"/>
      <use x="240.699966" xlink:href="#HelveticaNeue-108"/>
     </g>
    </g>
   </g>
   <g id="matplotlib.axis_2">
    <g id="ytick_1">
     <g id="line2d_25">
      <path clip-path="url(#p63b3ca67b0)" d="M 34.7 159.078053 
L 178.7 159.078053 
" style="fill:none;stroke:#000000;stroke-linecap:square;stroke-opacity:0.1;stroke-width:0.6;"/>
     </g>
     <g id="line2d_26">
      <defs>
       <path d="M 0 0 
L -4 0 
" id="m1176b8188f" style="stroke:#000000;stroke-width:0.6;"/>
      </defs>
      <g>
       <use style="stroke:#000000;stroke-width:0.6;" x="34.7" xlink:href="#m1176b8188f" y="159.078053"/>
      </g>
     </g>
     <g id="text_6">
      <!-- 0 -->
      <g transform="translate(24.2525 161.934303)scale(0.08 -0.08)">
       <use xlink:href="#HelveticaNeue-48"/>
      </g>
     </g>
    </g>
    <g id="ytick_2">
     <g id="line2d_27">
      <path clip-path="url(#p63b3ca67b0)" d="M 34.7 134.280876 
L 178.7 134.280876 
" style="fill:none;stroke:#000000;stroke-linecap:square;stroke-opacity:0.1;stroke-width:0.6;"/>
     </g>
     <g id="line2d_28">
      <g>
       <use style="stroke:#000000;stroke-width:0.6;" x="34.7" xlink:href="#m1176b8188f" y="134.280876"/>
      </g>
     </g>
     <g id="text_7">
      <!-- 0.5 -->
      <defs>
       <path d="M 8.296875 11.09375 
L 8.296875 0 
L 19.40625 0 
L 19.40625 11.09375 
z
" id="HelveticaNeue-46"/>
      </defs>
      <g transform="translate(17.58125 137.137126)scale(0.08 -0.08)">
       <use xlink:href="#HelveticaNeue-48"/>
       <use x="55.599991" xlink:href="#HelveticaNeue-46"/>
       <use x="83.399979" xlink:href="#HelveticaNeue-53"/>
      </g>
     </g>
    </g>
    <g id="ytick_3">
     <g id="line2d_29">
      <path clip-path="url(#p63b3ca67b0)" d="M 34.7 109.483699 
L 178.7 109.483699 
" style="fill:none;stroke:#000000;stroke-linecap:square;stroke-opacity:0.1;stroke-width:0.6;"/>
     </g>
     <g id="line2d_30">
      <g>
       <use style="stroke:#000000;stroke-width:0.6;" x="34.7" xlink:href="#m1176b8188f" y="109.483699"/>
      </g>
     </g>
     <g id="text_8">
      <!-- 1 -->
      <g transform="translate(24.2525 112.339949)scale(0.08 -0.08)">
       <use xlink:href="#HelveticaNeue-49"/>
      </g>
     </g>
    </g>
    <g id="ytick_4">
     <g id="line2d_31">
      <path clip-path="url(#p63b3ca67b0)" d="M 34.7 84.686521 
L 178.7 84.686521 
" style="fill:none;stroke:#000000;stroke-linecap:square;stroke-opacity:0.1;stroke-width:0.6;"/>
     </g>
     <g id="line2d_32">
      <g>
       <use style="stroke:#000000;stroke-width:0.6;" x="34.7" xlink:href="#m1176b8188f" y="84.686521"/>
      </g>
     </g>
     <g id="text_9">
      <!-- 1.5 -->
      <g transform="translate(17.58125 87.542771)scale(0.08 -0.08)">
       <use xlink:href="#HelveticaNeue-49"/>
       <use x="55.599991" xlink:href="#HelveticaNeue-46"/>
       <use x="83.399979" xlink:href="#HelveticaNeue-53"/>
      </g>
     </g>
    </g>
    <g id="ytick_5">
     <g id="line2d_33">
      <path clip-path="url(#p63b3ca67b0)" d="M 34.7 59.889344 
L 178.7 59.889344 
" style="fill:none;stroke:#000000;stroke-linecap:square;stroke-opacity:0.1;stroke-width:0.6;"/>
     </g>
     <g id="line2d_34">
      <g>
       <use style="stroke:#000000;stroke-width:0.6;" x="34.7" xlink:href="#m1176b8188f" y="59.889344"/>
      </g>
     </g>
     <g id="text_10">
      <!-- 2 -->
      <defs>
       <path d="M 4.40625 45.796875 
L 12.90625 45.796875 
Q 12.796875 49 13.546875 52.140625 
Q 14.296875 55.296875 16 57.796875 
Q 17.703125 60.296875 20.34375 61.84375 
Q 23 63.40625 26.703125 63.40625 
Q 29.5 63.40625 32 62.5 
Q 34.5 61.59375 36.34375 59.890625 
Q 38.203125 58.203125 39.296875 55.84375 
Q 40.40625 53.5 40.40625 50.59375 
Q 40.40625 46.90625 39.25 44.09375 
Q 38.09375 41.296875 35.84375 38.890625 
Q 33.59375 36.5 30.1875 34.140625 
Q 26.796875 31.796875 22.296875 29 
Q 18.59375 26.796875 15.1875 24.296875 
Q 11.796875 21.796875 9.09375 18.5 
Q 6.40625 15.203125 4.65625 10.75 
Q 2.90625 6.296875 2.40625 0 
L 48.703125 0 
L 48.703125 7.5 
L 12.296875 7.5 
Q 12.90625 10.796875 14.84375 13.34375 
Q 16.796875 15.90625 19.546875 18.09375 
Q 22.296875 20.296875 25.59375 22.25 
Q 28.90625 24.203125 32.203125 26.203125 
Q 35.5 28.296875 38.59375 30.59375 
Q 41.703125 32.90625 44.09375 35.75 
Q 46.5 38.59375 47.953125 42.1875 
Q 49.40625 45.796875 49.40625 50.5 
Q 49.40625 55.5 47.65625 59.296875 
Q 45.90625 63.09375 42.90625 65.640625 
Q 39.90625 68.203125 35.84375 69.546875 
Q 31.796875 70.90625 27.203125 70.90625 
Q 21.59375 70.90625 17.1875 69 
Q 12.796875 67.09375 9.84375 63.75 
Q 6.90625 60.40625 5.5 55.796875 
Q 4.09375 51.203125 4.40625 45.796875 
z
" id="HelveticaNeue-50"/>
      </defs>
      <g transform="translate(24.2525 62.745594)scale(0.08 -0.08)">
       <use xlink:href="#HelveticaNeue-50"/>
      </g>
     </g>
    </g>
    <g id="ytick_6">
     <g id="line2d_35">
      <path clip-path="url(#p63b3ca67b0)" d="M 34.7 35.092167 
L 178.7 35.092167 
" style="fill:none;stroke:#000000;stroke-linecap:square;stroke-opacity:0.1;stroke-width:0.6;"/>
     </g>
     <g id="line2d_36">
      <g>
       <use style="stroke:#000000;stroke-width:0.6;" x="34.7" xlink:href="#m1176b8188f" y="35.092167"/>
      </g>
     </g>
     <g id="text_11">
      <!-- 2.5 -->
      <g transform="translate(17.58125 37.948417)scale(0.08 -0.08)">
       <use xlink:href="#HelveticaNeue-50"/>
       <use x="55.599991" xlink:href="#HelveticaNeue-46"/>
       <use x="83.399979" xlink:href="#HelveticaNeue-53"/>
      </g>
     </g>
    </g>
    <g id="ytick_7">
     <g id="line2d_37">
      <defs>
       <path d="M 0 0 
L -2 0 
" id="mb574af699c" style="stroke:#000000;stroke-width:0.48;"/>
      </defs>
      <g>
       <use style="stroke:#000000;stroke-width:0.48;" x="34.7" xlink:href="#mb574af699c" y="168.996924"/>
      </g>
     </g>
    </g>
    <g id="ytick_8">
     <g id="line2d_38">
      <g>
       <use style="stroke:#000000;stroke-width:0.48;" x="34.7" xlink:href="#mb574af699c" y="164.037489"/>
      </g>
     </g>
    </g>
    <g id="ytick_9">
     <g id="line2d_39">
      <g>
       <use style="stroke:#000000;stroke-width:0.48;" x="34.7" xlink:href="#mb574af699c" y="154.118618"/>
      </g>
     </g>
    </g>
    <g id="ytick_10">
     <g id="line2d_40">
      <g>
       <use style="stroke:#000000;stroke-width:0.48;" x="34.7" xlink:href="#mb574af699c" y="149.159182"/>
      </g>
     </g>
    </g>
    <g id="ytick_11">
     <g id="line2d_41">
      <g>
       <use style="stroke:#000000;stroke-width:0.48;" x="34.7" xlink:href="#mb574af699c" y="144.199747"/>
      </g>
     </g>
    </g>
    <g id="ytick_12">
     <g id="line2d_42">
      <g>
       <use style="stroke:#000000;stroke-width:0.48;" x="34.7" xlink:href="#mb574af699c" y="139.240311"/>
      </g>
     </g>
    </g>
    <g id="ytick_13">
     <g id="line2d_43">
      <g>
       <use style="stroke:#000000;stroke-width:0.48;" x="34.7" xlink:href="#mb574af699c" y="129.32144"/>
      </g>
     </g>
    </g>
    <g id="ytick_14">
     <g id="line2d_44">
      <g>
       <use style="stroke:#000000;stroke-width:0.48;" x="34.7" xlink:href="#mb574af699c" y="124.362005"/>
      </g>
     </g>
    </g>
    <g id="ytick_15">
     <g id="line2d_45">
      <g>
       <use style="stroke:#000000;stroke-width:0.48;" x="34.7" xlink:href="#mb574af699c" y="119.402569"/>
      </g>
     </g>
    </g>
    <g id="ytick_16">
     <g id="line2d_46">
      <g>
       <use style="stroke:#000000;stroke-width:0.48;" x="34.7" xlink:href="#mb574af699c" y="114.443134"/>
      </g>
     </g>
    </g>
    <g id="ytick_17">
     <g id="line2d_47">
      <g>
       <use style="stroke:#000000;stroke-width:0.48;" x="34.7" xlink:href="#mb574af699c" y="104.524263"/>
      </g>
     </g>
    </g>
    <g id="ytick_18">
     <g id="line2d_48">
      <g>
       <use style="stroke:#000000;stroke-width:0.48;" x="34.7" xlink:href="#mb574af699c" y="99.564828"/>
      </g>
     </g>
    </g>
    <g id="ytick_19">
     <g id="line2d_49">
      <g>
       <use style="stroke:#000000;stroke-width:0.48;" x="34.7" xlink:href="#mb574af699c" y="94.605392"/>
      </g>
     </g>
    </g>
    <g id="ytick_20">
     <g id="line2d_50">
      <g>
       <use style="stroke:#000000;stroke-width:0.48;" x="34.7" xlink:href="#mb574af699c" y="89.645957"/>
      </g>
     </g>
    </g>
    <g id="ytick_21">
     <g id="line2d_51">
      <g>
       <use style="stroke:#000000;stroke-width:0.48;" x="34.7" xlink:href="#mb574af699c" y="79.727086"/>
      </g>
     </g>
    </g>
    <g id="ytick_22">
     <g id="line2d_52">
      <g>
       <use style="stroke:#000000;stroke-width:0.48;" x="34.7" xlink:href="#mb574af699c" y="74.76765"/>
      </g>
     </g>
    </g>
    <g id="ytick_23">
     <g id="line2d_53">
      <g>
       <use style="stroke:#000000;stroke-width:0.48;" x="34.7" xlink:href="#mb574af699c" y="69.808215"/>
      </g>
     </g>
    </g>
    <g id="ytick_24">
     <g id="line2d_54">
      <g>
       <use style="stroke:#000000;stroke-width:0.48;" x="34.7" xlink:href="#mb574af699c" y="64.848779"/>
      </g>
     </g>
    </g>
    <g id="ytick_25">
     <g id="line2d_55">
      <g>
       <use style="stroke:#000000;stroke-width:0.48;" x="34.7" xlink:href="#mb574af699c" y="54.929908"/>
      </g>
     </g>
    </g>
    <g id="ytick_26">
     <g id="line2d_56">
      <g>
       <use style="stroke:#000000;stroke-width:0.48;" x="34.7" xlink:href="#mb574af699c" y="49.970473"/>
      </g>
     </g>
    </g>
    <g id="ytick_27">
     <g id="line2d_57">
      <g>
       <use style="stroke:#000000;stroke-width:0.48;" x="34.7" xlink:href="#mb574af699c" y="45.011037"/>
      </g>
     </g>
    </g>
    <g id="ytick_28">
     <g id="line2d_58">
      <g>
       <use style="stroke:#000000;stroke-width:0.48;" x="34.7" xlink:href="#mb574af699c" y="40.051602"/>
      </g>
     </g>
    </g>
    <g id="ytick_29">
     <g id="line2d_59">
      <g>
       <use style="stroke:#000000;stroke-width:0.48;" x="34.7" xlink:href="#mb574af699c" y="30.132731"/>
      </g>
     </g>
    </g>
    <g id="text_12">
     <!-- ylabel -->
     <defs>
      <path d="M 26.703125 -6.90625 
Q 25.203125 -10.703125 23.75 -13.296875 
Q 22.296875 -15.90625 20.546875 -17.546875 
Q 18.796875 -19.203125 16.640625 -19.953125 
Q 14.5 -20.703125 11.703125 -20.703125 
Q 10.203125 -20.703125 8.703125 -20.5 
Q 7.203125 -20.296875 5.796875 -19.796875 
L 5.796875 -12 
Q 6.90625 -12.5 8.34375 -12.84375 
Q 9.796875 -13.203125 10.796875 -13.203125 
Q 13.40625 -13.203125 15.15625 -11.953125 
Q 16.90625 -10.703125 17.796875 -8.40625 
L 21.296875 0.296875 
L 0.796875 51.703125 
L 10.40625 51.703125 
L 25.5 9.40625 
L 25.703125 9.40625 
L 40.203125 51.703125 
L 49.203125 51.703125 
z
" id="HelveticaNeue-121"/>
     </defs>
     <g transform="translate(12.925 111.344375)rotate(-90)scale(0.08 -0.08)">
      <use xlink:href="#HelveticaNeue-121"/>
      <use x="49.999985" xlink:href="#HelveticaNeue-108"/>
      <use x="72.199982" xlink:href="#HelveticaNeue-97"/>
      <use x="125.899979" xlink:href="#HelveticaNeue-98"/>
      <use x="185.199966" xlink:href="#HelveticaNeue-101"/>
      <use x="238.899963" xlink:href="#HelveticaNeue-108"/>
     </g>
    </g>
   </g>
   <g id="line2d_60">
    <path clip-path="url(#p63b3ca67b0)" d="M 34.7 171.080497 
L 42.278947 143.833354 
L 49.857895 152.318789 
L 57.436842 137.352212 
L 65.015789 133.897777 
L 72.594737 109.747697 
L 80.173684 92.18372 
L 87.752632 91.474668 
L 95.331579 90.7971 
L 102.910526 106.682467 
L 110.489474 127.326084 
L 118.068421 149.459363 
L 125.647368 154.268961 
L 133.226316 162.315227 
L 140.805263 172.9 
L 148.384211 163.57972 
L 155.963158 168.356919 
L 163.542105 157.371211 
L 171.121053 157.391935 
L 178.7 170.49992 
" style="fill:none;stroke:#2b4162;stroke-linecap:square;stroke-width:4;"/>
   </g>
   <g id="line2d_61">
    <path clip-path="url(#p63b3ca67b0)" d="M 34.7 133.98798 
L 42.278947 120.813087 
L 49.857895 108.868773 
L 57.436842 122.424065 
L 65.015789 144.017656 
L 72.594737 145.169807 
L 80.173684 127.145169 
L 87.752632 115.002631 
L 95.331579 98.570392 
L 102.910526 76.91072 
L 110.489474 94.269151 
L 118.068421 101.987117 
L 125.647368 85.404294 
L 133.226316 94.309818 
L 140.805263 113.400427 
L 148.384211 135.178665 
L 155.963158 110.556034 
L 163.542105 84.11183 
L 171.121053 89.024284 
L 178.7 85.489678 
" style="fill:none;stroke:#fa9f42;stroke-linecap:square;stroke-width:4;"/>
   </g>
   <g id="line2d_62">
    <path clip-path="url(#p63b3ca67b0)" d="M 34.7 139.721327 
L 42.278947 131.411284 
L 49.857895 123.567136 
L 57.436842 125.741015 
L 65.015789 117.834902 
L 72.594737 124.660558 
L 80.173684 123.855304 
L 87.752632 98.599998 
L 95.331579 71.939688 
L 102.910526 80.989574 
L 110.489474 98.662439 
L 118.068421 97.456648 
L 125.647368 104.07931 
L 133.226316 79.447807 
L 140.805263 94.889924 
L 148.384211 73.364361 
L 155.963158 61.598323 
L 163.542105 52.192037 
L 171.121053 68.189649 
L 178.7 43.105927 
" style="fill:none;stroke:#e0e0e2;stroke-linecap:square;stroke-width:4;"/>
   </g>
   <g id="line2d_63">
    <path clip-path="url(#p63b3ca67b0)" d="M 34.7 152.750611 
L 42.278947 171.262107 
L 49.857895 167.779411 
L 57.436842 156.900203 
L 65.015789 133.800617 
L 72.594737 124.61722 
L 80.173684 137.188556 
L 87.752632 156.069702 
L 95.331579 131.277027 
L 102.910526 118.594998 
L 110.489474 117.309978 
L 118.068421 110.106415 
L 125.647368 89.66877 
L 133.226316 107.498179 
L 140.805263 80.795083 
L 148.384211 64.41118 
L 155.963158 52.46759 
L 163.542105 36.666192 
L 171.121053 28.9 
L 178.7 32.611576 
" style="fill:none;stroke:#a21817;stroke-linecap:square;stroke-width:4;"/>
   </g>
   <g id="line2d_64">
    <path clip-path="url(#p63b3ca67b0)" d="M 34.7 134.87499 
L 42.278947 138.7149 
L 49.857895 139.403391 
L 57.436842 127.937544 
L 65.015789 100.970923 
L 72.594737 112.599766 
L 80.173684 118.506088 
L 87.752632 93.704008 
L 95.331579 100.95458 
L 102.910526 86.21001 
L 110.489474 73.229126 
L 118.068421 80.924184 
L 125.647368 64.743581 
L 133.226316 47.050385 
L 140.805263 53.710138 
L 148.384211 38.687239 
L 155.963158 60.961707 
L 163.542105 72.571824 
L 171.121053 89.786413 
L 178.7 65.914227 
" style="fill:none;stroke:#0b6e4f;stroke-linecap:square;stroke-width:4;"/>
   </g>
   <g id="patch_3">
    <path d="M 34.7 172.9 
L 34.7 28.9 
" style="fill:none;stroke:#000000;stroke-linecap:square;stroke-linejoin:miter;stroke-width:0.6;"/>
   </g>
   <g id="patch_4">
    <path d="M 178.7 172.9 
L 178.7 28.9 
" style="fill:none;stroke:#000000;stroke-linecap:square;stroke-linejoin:miter;stroke-width:0.6;"/>
   </g>
   <g id="patch_5">
    <path d="M 34.7 172.9 
L 178.7 172.9 
" style="fill:none;stroke:#000000;stroke-linecap:square;stroke-linejoin:miter;stroke-width:0.6;"/>
   </g>
   <g id="patch_6">
    <path d="M 34.7 28.9 
L 178.7 28.9 
" style="fill:none;stroke:#000000;stroke-linecap:square;stroke-linejoin:miter;stroke-width:0.6;"/>
   </g>
   <g id="text_13">
    <!-- Inset and panel legends -->
    <defs>
     <path d="M 8.203125 71.40625 
L 8.203125 0 
L 17.703125 0 
L 17.703125 71.40625 
z
" id="HelveticaNeue-73"/>
     <path d="M 6.40625 51.703125 
L 6.40625 0 
L 14.90625 0 
L 14.90625 29.203125 
Q 14.90625 32.703125 15.84375 35.640625 
Q 16.796875 38.59375 18.6875 40.796875 
Q 20.59375 43 23.4375 44.203125 
Q 26.296875 45.40625 30.203125 45.40625 
Q 35.09375 45.40625 37.890625 42.59375 
Q 40.703125 39.796875 40.703125 35 
L 40.703125 0 
L 49.203125 0 
L 49.203125 34 
Q 49.203125 38.203125 48.34375 41.640625 
Q 47.5 45.09375 45.390625 47.59375 
Q 43.296875 50.09375 39.890625 51.5 
Q 36.5 52.90625 31.40625 52.90625 
Q 19.90625 52.90625 14.59375 43.5 
L 14.40625 43.5 
L 14.40625 51.703125 
z
" id="HelveticaNeue-110"/>
     <path d="M 11.59375 16.296875 
L 3.09375 16.296875 
Q 3.296875 11.5 5.09375 8.140625 
Q 6.90625 4.796875 9.90625 2.75 
Q 12.90625 0.703125 16.796875 -0.1875 
Q 20.703125 -1.09375 25 -1.09375 
Q 28.90625 -1.09375 32.84375 -0.34375 
Q 36.796875 0.40625 39.9375 2.296875 
Q 43.09375 4.203125 45.046875 7.296875 
Q 47 10.40625 47 15.09375 
Q 47 18.796875 45.546875 21.296875 
Q 44.09375 23.796875 41.75 25.4375 
Q 39.40625 27.09375 36.34375 28.09375 
Q 33.296875 29.09375 30.09375 29.796875 
Q 27.09375 30.5 24.09375 31.140625 
Q 21.09375 31.796875 18.6875 32.75 
Q 16.296875 33.703125 14.75 35.140625 
Q 13.203125 36.59375 13.203125 38.796875 
Q 13.203125 40.796875 14.203125 42.046875 
Q 15.203125 43.296875 16.796875 44.046875 
Q 18.40625 44.796875 20.34375 45.09375 
Q 22.296875 45.40625 24.203125 45.40625 
Q 26.296875 45.40625 28.34375 44.953125 
Q 30.40625 44.5 32.09375 43.5 
Q 33.796875 42.5 34.890625 40.84375 
Q 36 39.203125 36.203125 36.703125 
L 44.703125 36.703125 
Q 44.40625 41.40625 42.703125 44.546875 
Q 41 47.703125 38.140625 49.546875 
Q 35.296875 51.40625 31.59375 52.15625 
Q 27.90625 52.90625 23.5 52.90625 
Q 20.09375 52.90625 16.640625 52.046875 
Q 13.203125 51.203125 10.453125 49.453125 
Q 7.703125 47.703125 5.953125 44.890625 
Q 4.203125 42.09375 4.203125 38.203125 
Q 4.203125 33.203125 6.703125 30.390625 
Q 9.203125 27.59375 12.953125 26.046875 
Q 16.703125 24.5 21.09375 23.640625 
Q 25.5 22.796875 29.25 21.75 
Q 33 20.703125 35.5 19 
Q 38 17.296875 38 14 
Q 38 11.59375 36.796875 10.046875 
Q 35.59375 8.5 33.75 7.703125 
Q 31.90625 6.90625 29.703125 6.59375 
Q 27.5 6.296875 25.5 6.296875 
Q 22.90625 6.296875 20.453125 6.796875 
Q 18 7.296875 16.046875 8.4375 
Q 14.09375 9.59375 12.890625 11.546875 
Q 11.703125 13.5 11.59375 16.296875 
z
" id="HelveticaNeue-115"/>
     <path d="M 18.203125 51.703125 
L 18.203125 67.203125 
L 9.703125 67.203125 
L 9.703125 51.703125 
L 0.90625 51.703125 
L 0.90625 44.203125 
L 9.703125 44.203125 
L 9.703125 11.296875 
Q 9.703125 7.703125 10.390625 5.5 
Q 11.09375 3.296875 12.546875 2.09375 
Q 14 0.90625 16.34375 0.453125 
Q 18.703125 0 22 0 
L 28.5 0 
L 28.5 7.5 
L 24.59375 7.5 
Q 22.59375 7.5 21.34375 7.640625 
Q 20.09375 7.796875 19.390625 8.296875 
Q 18.703125 8.796875 18.453125 9.6875 
Q 18.203125 10.59375 18.203125 12.09375 
L 18.203125 44.203125 
L 28.5 44.203125 
L 28.5 51.703125 
z
" id="HelveticaNeue-116"/>
     <path id="HelveticaNeue-32"/>
     <path d="M 12.59375 25.40625 
Q 12.59375 29.203125 13.390625 32.796875 
Q 14.203125 36.40625 16 39.203125 
Q 17.796875 42 20.796875 43.703125 
Q 23.796875 45.40625 28.09375 45.40625 
Q 32.5 45.40625 35.59375 43.75 
Q 38.703125 42.09375 40.640625 39.390625 
Q 42.59375 36.703125 43.5 33.140625 
Q 44.40625 29.59375 44.40625 25.796875 
Q 44.40625 22.203125 43.546875 18.703125 
Q 42.703125 15.203125 40.796875 12.453125 
Q 38.90625 9.703125 35.90625 8 
Q 32.90625 6.296875 28.59375 6.296875 
Q 24.5 6.296875 21.453125 7.890625 
Q 18.40625 9.5 16.453125 12.203125 
Q 14.5 14.90625 13.546875 18.34375 
Q 12.59375 21.796875 12.59375 25.40625 
z
M 52.59375 0 
L 52.59375 71.40625 
L 44.09375 71.40625 
L 44.09375 44.796875 
L 43.90625 44.796875 
Q 42.5 47.09375 40.453125 48.640625 
Q 38.40625 50.203125 36.09375 51.140625 
Q 33.796875 52.09375 31.5 52.5 
Q 29.203125 52.90625 27.203125 52.90625 
Q 21.296875 52.90625 16.84375 50.75 
Q 12.40625 48.59375 9.453125 44.9375 
Q 6.5 41.296875 5.046875 36.390625 
Q 3.59375 31.5 3.59375 26 
Q 3.59375 20.5 5.09375 15.59375 
Q 6.59375 10.703125 9.546875 7 
Q 12.5 3.296875 16.953125 1.09375 
Q 21.40625 -1.09375 27.40625 -1.09375 
Q 32.796875 -1.09375 37.296875 0.796875 
Q 41.796875 2.703125 43.90625 7 
L 44.09375 7 
L 44.09375 0 
z
" id="HelveticaNeue-100"/>
     <path d="M 6.703125 51.703125 
L 6.703125 -19.703125 
L 15.203125 -19.703125 
L 15.203125 6.90625 
L 15.40625 6.90625 
Q 16.796875 4.59375 18.84375 3.046875 
Q 20.90625 1.5 23.203125 0.59375 
Q 25.5 -0.296875 27.84375 -0.6875 
Q 30.203125 -1.09375 32.09375 -1.09375 
Q 38 -1.09375 42.453125 1 
Q 46.90625 3.09375 49.84375 6.75 
Q 52.796875 10.40625 54.25 15.296875 
Q 55.703125 20.203125 55.703125 25.703125 
Q 55.703125 31.203125 54.203125 36.09375 
Q 52.703125 41 49.75 44.75 
Q 46.796875 48.5 42.34375 50.703125 
Q 37.90625 52.90625 31.90625 52.90625 
Q 26.5 52.90625 22 50.953125 
Q 17.5 49 15.40625 44.703125 
L 15.203125 44.703125 
L 15.203125 51.703125 
z
M 46.703125 26.296875 
Q 46.703125 22.5 45.890625 18.890625 
Q 45.09375 15.296875 43.296875 12.5 
Q 41.5 9.703125 38.546875 8 
Q 35.59375 6.296875 31.203125 6.296875 
Q 26.796875 6.296875 23.6875 7.9375 
Q 20.59375 9.59375 18.640625 12.296875 
Q 16.703125 15 15.796875 18.546875 
Q 14.90625 22.09375 14.90625 25.90625 
Q 14.90625 29.5 15.75 33 
Q 16.59375 36.5 18.5 39.25 
Q 20.40625 42 23.40625 43.703125 
Q 26.40625 45.40625 30.703125 45.40625 
Q 34.796875 45.40625 37.84375 43.796875 
Q 40.90625 42.203125 42.84375 39.5 
Q 44.796875 36.796875 45.75 33.34375 
Q 46.703125 29.90625 46.703125 26.296875 
z
" id="HelveticaNeue-112"/>
     <path d="M 51 4.40625 
L 51 51.703125 
L 43 51.703125 
L 43 44.296875 
L 42.90625 44.296875 
Q 40.59375 48.59375 36.5 50.75 
Q 32.40625 52.90625 27.5 52.90625 
Q 20.796875 52.90625 16.1875 50.34375 
Q 11.59375 47.796875 8.796875 43.84375 
Q 6 39.90625 4.796875 35.046875 
Q 3.59375 30.203125 3.59375 25.59375 
Q 3.59375 20.296875 5.046875 15.546875 
Q 6.5 10.796875 9.390625 7.25 
Q 12.296875 3.703125 16.59375 1.59375 
Q 20.90625 -0.5 26.703125 -0.5 
Q 31.703125 -0.5 36.140625 1.75 
Q 40.59375 4 42.796875 8.796875 
L 43 8.796875 
L 43 5.40625 
Q 43 1.09375 42.140625 -2.5 
Q 41.296875 -6.09375 39.390625 -8.640625 
Q 37.5 -11.203125 34.59375 -12.640625 
Q 31.703125 -14.09375 27.5 -14.09375 
Q 25.40625 -14.09375 23.09375 -13.640625 
Q 20.796875 -13.203125 18.84375 -12.203125 
Q 16.90625 -11.203125 15.546875 -9.59375 
Q 14.203125 -8 14.09375 -5.703125 
L 5.59375 -5.703125 
Q 5.796875 -9.90625 7.796875 -12.796875 
Q 9.796875 -15.703125 12.84375 -17.5 
Q 15.90625 -19.296875 19.65625 -20.09375 
Q 23.40625 -20.90625 27 -20.90625 
Q 39.40625 -20.90625 45.203125 -14.59375 
Q 51 -8.296875 51 4.40625 
z
M 27.203125 6.90625 
Q 23 6.90625 20.203125 8.65625 
Q 17.40625 10.40625 15.703125 13.25 
Q 14 16.09375 13.296875 19.59375 
Q 12.59375 23.09375 12.59375 26.59375 
Q 12.59375 30.296875 13.4375 33.6875 
Q 14.296875 37.09375 16.140625 39.6875 
Q 18 42.296875 20.890625 43.84375 
Q 23.796875 45.40625 27.90625 45.40625 
Q 31.90625 45.40625 34.703125 43.796875 
Q 37.5 42.203125 39.25 39.546875 
Q 41 36.90625 41.796875 33.59375 
Q 42.59375 30.296875 42.59375 26.90625 
Q 42.59375 23.296875 41.75 19.6875 
Q 40.90625 16.09375 39.09375 13.25 
Q 37.296875 10.40625 34.34375 8.65625 
Q 31.40625 6.90625 27.203125 6.90625 
z
" id="HelveticaNeue-103"/>
    </defs>
    <g transform="translate(58.770781 24.018438)scale(0.09 -0.09)">
     <use xlink:href="#HelveticaNeue-73"/>
     <use x="25.899994" xlink:href="#HelveticaNeue-110"/>
     <use x="81.499985" xlink:href="#HelveticaNeue-115"/>
     <use x="131.499969" xlink:href="#HelveticaNeue-101"/>
     <use x="185.199966" xlink:href="#HelveticaNeue-116"/>
     <use x="216.699951" xlink:href="#HelveticaNeue-32"/>
     <use x="244.499939" xlink:href="#HelveticaNeue-97"/>
     <use x="298.199936" xlink:href="#HelveticaNeue-110"/>
     <use x="353.799927" xlink:href="#HelveticaNeue-100"/>
     <use x="413.099915" xlink:href="#HelveticaNeue-32"/>
     <use x="440.899902" xlink:href="#HelveticaNeue-112"/>
     <use x="500.19989" xlink:href="#HelveticaNeue-97"/>
     <use x="553.899887" xlink:href="#HelveticaNeue-110"/>
     <use x="609.499878" xlink:href="#HelveticaNeue-101"/>
     <use x="663.199875" xlink:href="#HelveticaNeue-108"/>
     <use x="685.399872" xlink:href="#HelveticaNeue-32"/>
     <use x="713.19986" xlink:href="#HelveticaNeue-108"/>
     <use x="735.399857" xlink:href="#HelveticaNeue-101"/>
     <use x="789.099854" xlink:href="#HelveticaNeue-103"/>
     <use x="846.499847" xlink:href="#HelveticaNeue-101"/>
     <use x="900.199844" xlink:href="#HelveticaNeue-110"/>
     <use x="955.799835" xlink:href="#HelveticaNeue-100"/>
     <use x="1015.099823" xlink:href="#HelveticaNeue-115"/>
    </g>
   </g>
   <g id="text_14">
    <!-- Inset and panel legends -->
    <g transform="translate(58.770781 24.018438)scale(0.09 -0.09)">
     <use xlink:href="#HelveticaNeue-73"/>
     <use x="25.899994" xlink:href="#HelveticaNeue-110"/>
     <use x="81.499985" xlink:href="#HelveticaNeue-115"/>
     <use x="131.499969" xlink:href="#HelveticaNeue-101"/>
     <use x="185.199966" xlink:href="#HelveticaNeue-116"/>
     <use x="216.699951" xlink:href="#HelveticaNeue-32"/>
     <use x="244.499939" xlink:href="#HelveticaNeue-97"/>
     <use x="298.199936" xlink:href="#HelveticaNeue-110"/>
     <use x="353.799927" xlink:href="#HelveticaNeue-100"/>
     <use x="413.099915" xlink:href="#HelveticaNeue-32"/>
     <use x="440.899902" xlink:href="#HelveticaNeue-112"/>
     <use x="500.19989" xlink:href="#HelveticaNeue-97"/>
     <use x="553.899887" xlink:href="#HelveticaNeue-110"/>
     <use x="609.499878" xlink:href="#HelveticaNeue-101"/>
     <use x="663.199875" xlink:href="#HelveticaNeue-108"/>
     <use x="685.399872" xlink:href="#HelveticaNeue-32"/>
     <use x="713.19986" xlink:href="#HelveticaNeue-108"/>
     <use x="735.399857" xlink:href="#HelveticaNeue-101"/>
     <use x="789.099854" xlink:href="#HelveticaNeue-103"/>
     <use x="846.499847" xlink:href="#HelveticaNeue-101"/>
     <use x="900.199844" xlink:href="#HelveticaNeue-110"/>
     <use x="955.799835" xlink:href="#HelveticaNeue-100"/>
     <use x="1015.099823" xlink:href="#HelveticaNeue-115"/>
    </g>
   </g>
   <g id="legend_1">
    <g id="patch_7">
     <path d="M 34.7 55.4775 
L 156.64375 55.4775 
L 156.64375 28.9 
L 34.7 28.9 
z
" style="fill:#ffffff;opacity:0.8;stroke:#000000;stroke-linejoin:miter;stroke-width:0.6;"/>
    </g>
    <g id="line2d_65">
     <path d="M 38.7 35.8125 
L 50.7 35.8125 
" style="fill:none;stroke:#2b4162;stroke-linecap:square;stroke-width:4;"/>
    </g>
    <g id="line2d_66"/>
    <g id="text_15">
     <!-- a -->
     <g transform="translate(54.7 38.6125)scale(0.08 -0.08)">
      <use xlink:href="#HelveticaNeue-97"/>
     </g>
    </g>
    <g id="line2d_67">
     <path d="M 38.7 47.10125 
L 50.7 47.10125 
" style="fill:none;stroke:#fa9f42;stroke-linecap:square;stroke-width:4;"/>
    </g>
    <g id="line2d_68"/>
    <g id="text_16">
     <!-- bb -->
     <g transform="translate(54.7 49.90125)scale(0.08 -0.08)">
      <use xlink:href="#HelveticaNeue-98"/>
      <use x="59.299988" xlink:href="#HelveticaNeue-98"/>
     </g>
    </g>
    <g id="line2d_69">
     <path d="M 72.1875 35.8125 
L 84.1875 35.8125 
" style="fill:none;stroke:#e0e0e2;stroke-linecap:square;stroke-width:4;"/>
    </g>
    <g id="line2d_70"/>
    <g id="text_17">
     <!-- ccc -->
     <defs>
      <path d="M 41.5 35.09375 
L 50.296875 35.09375 
Q 49.796875 39.703125 47.890625 43.046875 
Q 46 46.40625 43.046875 48.59375 
Q 40.09375 50.796875 36.25 51.84375 
Q 32.40625 52.90625 28 52.90625 
Q 21.90625 52.90625 17.296875 50.75 
Q 12.703125 48.59375 9.640625 44.84375 
Q 6.59375 41.09375 5.09375 36.046875 
Q 3.59375 31 3.59375 25.203125 
Q 3.59375 19.40625 5.140625 14.546875 
Q 6.703125 9.703125 9.75 6.203125 
Q 12.796875 2.703125 17.34375 0.796875 
Q 21.90625 -1.09375 27.796875 -1.09375 
Q 37.703125 -1.09375 43.453125 4.09375 
Q 49.203125 9.296875 50.59375 18.90625 
L 41.90625 18.90625 
Q 41.09375 12.90625 37.546875 9.59375 
Q 34 6.296875 27.703125 6.296875 
Q 23.703125 6.296875 20.796875 7.890625 
Q 17.90625 9.5 16.09375 12.140625 
Q 14.296875 14.796875 13.4375 18.1875 
Q 12.59375 21.59375 12.59375 25.203125 
Q 12.59375 29.09375 13.390625 32.75 
Q 14.203125 36.40625 16.046875 39.203125 
Q 17.90625 42 21 43.703125 
Q 24.09375 45.40625 28.703125 45.40625 
Q 34.09375 45.40625 37.296875 42.703125 
Q 40.5 40 41.5 35.09375 
z
" id="HelveticaNeue-99"/>
     </defs>
     <g transform="translate(88.1875 38.6125)scale(0.08 -0.08)">
      <use xlink:href="#HelveticaNeue-99"/>
      <use x="53.699997" xlink:href="#HelveticaNeue-99"/>
      <use x="107.399994" xlink:href="#HelveticaNeue-99"/>
     </g>
    </g>
    <g id="line2d_71">
     <path d="M 72.1875 47.10125 
L 84.1875 47.10125 
" style="fill:none;stroke:#a21817;stroke-linecap:square;stroke-width:4;"/>
    </g>
    <g id="line2d_72"/>
    <g id="text_18">
     <!-- dddd -->
     <g transform="translate(88.1875 49.90125)scale(0.08 -0.08)">
      <use xlink:href="#HelveticaNeue-100"/>
      <use x="59.299988" xlink:href="#HelveticaNeue-100"/>
      <use x="118.599976" xlink:href="#HelveticaNeue-100"/>
      <use x="177.899963" xlink:href="#HelveticaNeue-100"/>
     </g>
    </g>
    <g id="line2d_73">
     <path d="M 115.1625 35.8125 
L 127.1625 35.8125 
" style="fill:none;stroke:#0b6e4f;stroke-linecap:square;stroke-width:4;"/>
    </g>
    <g id="line2d_74"/>
    <g id="text_19">
     <!-- eeeee -->
     <g transform="translate(131.1625 38.6125)scale(0.08 -0.08)">
      <use xlink:href="#HelveticaNeue-101"/>
      <use x="53.699997" xlink:href="#HelveticaNeue-101"/>
      <use x="107.399994" xlink:href="#HelveticaNeue-101"/>
      <use x="161.099991" xlink:href="#HelveticaNeue-101"/>
      <use x="214.799988" xlink:href="#HelveticaNeue-101"/>
     </g>
    </g>
   </g>
  </g>
  <g id="axes_2">
   <g id="patch_8">
    <path d="M 203.2 172.9 
L 347.2 172.9 
L 347.2 28.9 
L 203.2 28.9 
z
" style="fill:#ffffff;"/>
   </g>
   <g id="matplotlib.axis_3">
    <g id="xtick_21">
     <g id="line2d_75">
      <path clip-path="url(#pe9d6ac0f7a)" d="M 203.2 172.9 
L 203.2 28.9 
" style="fill:none;stroke:#000000;stroke-linecap:square;stroke-opacity:0.1;stroke-width:0.6;"/>
     </g>
     <g id="line2d_76">
      <g>
       <use style="stroke:#000000;stroke-width:0.6;" x="203.2" xlink:href="#ma969a6eb72" y="172.9"/>
      </g>
     </g>
     <g id="text_20">
      <!-- 0 -->
      <g transform="translate(200.97625 184.6125)scale(0.08 -0.08)">
       <use xlink:href="#HelveticaNeue-48"/>
      </g>
     </g>
    </g>
    <g id="xtick_22">
     <g id="line2d_77">
      <path clip-path="url(#pe9d6ac0f7a)" d="M 241.094737 172.9 
L 241.094737 28.9 
" style="fill:none;stroke:#000000;stroke-linecap:square;stroke-opacity:0.1;stroke-width:0.6;"/>
     </g>
     <g id="line2d_78">
      <g>
       <use style="stroke:#000000;stroke-width:0.6;" x="241.094737" xlink:href="#ma969a6eb72" y="172.9"/>
      </g>
     </g>
     <g id="text_21">
      <!-- 5 -->
      <g transform="translate(238.870987 184.6125)scale(0.08 -0.08)">
       <use xlink:href="#HelveticaNeue-53"/>
      </g>
     </g>
    </g>
    <g id="xtick_23">
     <g id="line2d_79">
      <path clip-path="url(#pe9d6ac0f7a)" d="M 278.989474 172.9 
L 278.989474 28.9 
" style="fill:none;stroke:#000000;stroke-linecap:square;stroke-opacity:0.1;stroke-width:0.6;"/>
     </g>
     <g id="line2d_80">
      <g>
       <use style="stroke:#000000;stroke-width:0.6;" x="278.989474" xlink:href="#ma969a6eb72" y="172.9"/>
      </g>
     </g>
     <g id="text_22">
      <!-- 10 -->
      <g transform="translate(274.541974 184.6125)scale(0.08 -0.08)">
       <use xlink:href="#HelveticaNeue-49"/>
       <use x="55.599991" xlink:href="#HelveticaNeue-48"/>
      </g>
     </g>
    </g>
    <g id="xtick_24">
     <g id="line2d_81">
      <path clip-path="url(#pe9d6ac0f7a)" d="M 316.884211 172.9 
L 316.884211 28.9 
" style="fill:none;stroke:#000000;stroke-linecap:square;stroke-opacity:0.1;stroke-width:0.6;"/>
     </g>
     <g id="line2d_82">
      <g>
       <use style="stroke:#000000;stroke-width:0.6;" x="316.884211" xlink:href="#ma969a6eb72" y="172.9"/>
      </g>
     </g>
     <g id="text_23">
      <!-- 15 -->
      <g transform="translate(312.436711 184.6125)scale(0.08 -0.08)">
       <use xlink:href="#HelveticaNeue-49"/>
       <use x="55.599991" xlink:href="#HelveticaNeue-53"/>
      </g>
     </g>
    </g>
    <g id="xtick_25">
     <g id="line2d_83">
      <g>
       <use style="stroke:#000000;stroke-width:0.48;" x="210.778947" xlink:href="#ma41c93e17f" y="172.9"/>
      </g>
     </g>
    </g>
    <g id="xtick_26">
     <g id="line2d_84">
      <g>
       <use style="stroke:#000000;stroke-width:0.48;" x="218.357895" xlink:href="#ma41c93e17f" y="172.9"/>
      </g>
     </g>
    </g>
    <g id="xtick_27">
     <g id="line2d_85">
      <g>
       <use style="stroke:#000000;stroke-width:0.48;" x="225.936842" xlink:href="#ma41c93e17f" y="172.9"/>
      </g>
     </g>
    </g>
    <g id="xtick_28">
     <g id="line2d_86">
      <g>
       <use style="stroke:#000000;stroke-width:0.48;" x="233.515789" xlink:href="#ma41c93e17f" y="172.9"/>
      </g>
     </g>
    </g>
    <g id="xtick_29">
     <g id="line2d_87">
      <g>
       <use style="stroke:#000000;stroke-width:0.48;" x="248.673684" xlink:href="#ma41c93e17f" y="172.9"/>
      </g>
     </g>
    </g>
    <g id="xtick_30">
     <g id="line2d_88">
      <g>
       <use style="stroke:#000000;stroke-width:0.48;" x="256.252632" xlink:href="#ma41c93e17f" y="172.9"/>
      </g>
     </g>
    </g>
    <g id="xtick_31">
     <g id="line2d_89">
      <g>
       <use style="stroke:#000000;stroke-width:0.48;" x="263.831579" xlink:href="#ma41c93e17f" y="172.9"/>
      </g>
     </g>
    </g>
    <g id="xtick_32">
     <g id="line2d_90">
      <g>
       <use style="stroke:#000000;stroke-width:0.48;" x="271.410526" xlink:href="#ma41c93e17f" y="172.9"/>
      </g>
     </g>
    </g>
    <g id="xtick_33">
     <g id="line2d_91">
      <g>
       <use style="stroke:#000000;stroke-width:0.48;" x="286.568421" xlink:href="#ma41c93e17f" y="172.9"/>
      </g>
     </g>
    </g>
    <g id="xtick_34">
     <g id="line2d_92">
      <g>
       <use style="stroke:#000000;stroke-width:0.48;" x="294.147368" xlink:href="#ma41c93e17f" y="172.9"/>
      </g>
     </g>
    </g>
    <g id="xtick_35">
     <g id="line2d_93">
      <g>
       <use style="stroke:#000000;stroke-width:0.48;" x="301.726316" xlink:href="#ma41c93e17f" y="172.9"/>
      </g>
     </g>
    </g>
    <g id="xtick_36">
     <g id="line2d_94">
      <g>
       <use style="stroke:#000000;stroke-width:0.48;" x="309.305263" xlink:href="#ma41c93e17f" y="172.9"/>
      </g>
     </g>
    </g>
    <g id="xtick_37">
     <g id="line2d_95">
      <g>
       <use style="stroke:#000000;stroke-width:0.48;" x="324.463158" xlink:href="#ma41c93e17f" y="172.9"/>
      </g>
     </g>
    </g>
    <g id="xtick_38">
     <g id="line2d_96">
      <g>
       <use style="stroke:#000000;stroke-width:0.48;" x="332.042105" xlink:href="#ma41c93e17f" y="172.9"/>
      </g>
     </g>
    </g>
    <g id="xtick_39">
     <g id="line2d_97">
      <g>
       <use style="stroke:#000000;stroke-width:0.48;" x="339.621053" xlink:href="#ma41c93e17f" y="172.9"/>
      </g>
     </g>
    </g>
    <g id="xtick_40">
     <g id="line2d_98">
      <g>
       <use style="stroke:#000000;stroke-width:0.48;" x="347.2" xlink:href="#ma41c93e17f" y="172.9"/>
      </g>
     </g>
    </g>
    <g id="text_24">
     <!-- xlabel -->
     <g transform="translate(264.68375 194.90125)scale(0.08 -0.08)">
      <use xlink:href="#HelveticaNeue-120"/>
      <use x="51.799988" xlink:href="#HelveticaNeue-108"/>
      <use x="73.999985" xlink:href="#HelveticaNeue-97"/>
      <use x="127.699982" xlink:href="#HelveticaNeue-98"/>
      <use x="186.999969" xlink:href="#HelveticaNeue-101"/>
      <use x="240.699966" xlink:href="#HelveticaNeue-108"/>
     </g>
    </g>
   </g>
   <g id="matplotlib.axis_4">
    <g id="ytick_30">
     <g id="line2d_99">
      <path clip-path="url(#pe9d6ac0f7a)" d="M 203.2 159.078053 
L 347.2 159.078053 
" style="fill:none;stroke:#000000;stroke-linecap:square;stroke-opacity:0.1;stroke-width:0.6;"/>
     </g>
     <g id="line2d_100">
      <g>
       <use style="stroke:#000000;stroke-width:0.6;" x="203.2" xlink:href="#m1176b8188f" y="159.078053"/>
      </g>
     </g>
     <g id="text_25">
      <!-- 0 -->
      <g transform="translate(192.7525 161.934303)scale(0.08 -0.08)">
       <use xlink:href="#HelveticaNeue-48"/>
      </g>
     </g>
    </g>
    <g id="ytick_31">
     <g id="line2d_101">
      <path clip-path="url(#pe9d6ac0f7a)" d="M 203.2 134.280876 
L 347.2 134.280876 
" style="fill:none;stroke:#000000;stroke-linecap:square;stroke-opacity:0.1;stroke-width:0.6;"/>
     </g>
     <g id="line2d_102">
      <g>
       <use style="stroke:#000000;stroke-width:0.6;" x="203.2" xlink:href="#m1176b8188f" y="134.280876"/>
      </g>
     </g>
     <g id="text_26">
      <!-- 0.5 -->
      <g transform="translate(186.08125 137.137126)scale(0.08 -0.08)">
       <use xlink:href="#HelveticaNeue-48"/>
       <use x="55.599991" xlink:href="#HelveticaNeue-46"/>
       <use x="83.399979" xlink:href="#HelveticaNeue-53"/>
      </g>
     </g>
    </g>
    <g id="ytick_32">
     <g id="line2d_103">
      <path clip-path="url(#pe9d6ac0f7a)" d="M 203.2 109.483699 
L 347.2 109.483699 
" style="fill:none;stroke:#000000;stroke-linecap:square;stroke-opacity:0.1;stroke-width:0.6;"/>
     </g>
     <g id="line2d_104">
      <g>
       <use style="stroke:#000000;stroke-width:0.6;" x="203.2" xlink:href="#m1176b8188f" y="109.483699"/>
      </g>
     </g>
     <g id="text_27">
      <!-- 1 -->
      <g transform="translate(192.7525 112.339949)scale(0.08 -0.08)">
       <use xlink:href="#HelveticaNeue-49"/>
      </g>
     </g>
    </g>
    <g id="ytick_33">
     <g id="line2d_105">
      <path clip-path="url(#pe9d6ac0f7a)" d="M 203.2 84.686521 
L 347.2 84.686521 
" style="fill:none;stroke:#000000;stroke-linecap:square;stroke-opacity:0.1;stroke-width:0.6;"/>
     </g>
     <g id="line2d_106">
      <g>
       <use style="stroke:#000000;stroke-width:0.6;" x="203.2" xlink:href="#m1176b8188f" y="84.686521"/>
      </g>
     </g>
     <g id="text_28">
      <!-- 1.5 -->
      <g transform="translate(186.08125 87.542771)scale(0.08 -0.08)">
       <use xlink:href="#HelveticaNeue-49"/>
       <use x="55.599991" xlink:href="#HelveticaNeue-46"/>
       <use x="83.399979" xlink:href="#HelveticaNeue-53"/>
      </g>
     </g>
    </g>
    <g id="ytick_34">
     <g id="line2d_107">
      <path clip-path="url(#pe9d6ac0f7a)" d="M 203.2 59.889344 
L 347.2 59.889344 
" style="fill:none;stroke:#000000;stroke-linecap:square;stroke-opacity:0.1;stroke-width:0.6;"/>
     </g>
     <g id="line2d_108">
      <g>
       <use style="stroke:#000000;stroke-width:0.6;" x="203.2" xlink:href="#m1176b8188f" y="59.889344"/>
      </g>
     </g>
     <g id="text_29">
      <!-- 2 -->
      <g transform="translate(192.7525 62.745594)scale(0.08 -0.08)">
       <use xlink:href="#HelveticaNeue-50"/>
      </g>
     </g>
    </g>
    <g id="ytick_35">
     <g id="line2d_109">
      <path clip-path="url(#pe9d6ac0f7a)" d="M 203.2 35.092167 
L 347.2 35.092167 
" style="fill:none;stroke:#000000;stroke-linecap:square;stroke-opacity:0.1;stroke-width:0.6;"/>
     </g>
     <g id="line2d_110">
      <g>
       <use style="stroke:#000000;stroke-width:0.6;" x="203.2" xlink:href="#m1176b8188f" y="35.092167"/>
      </g>
     </g>
     <g id="text_30">
      <!-- 2.5 -->
      <g transform="translate(186.08125 37.948417)scale(0.08 -0.08)">
       <use xlink:href="#HelveticaNeue-50"/>
       <use x="55.599991" xlink:href="#HelveticaNeue-46"/>
       <use x="83.399979" xlink:href="#HelveticaNeue-53"/>
      </g>
     </g>
    </g>
    <g id="ytick_36">
     <g id="line2d_111">
      <g>
       <use style="stroke:#000000;stroke-width:0.48;" x="203.2" xlink:href="#mb574af699c" y="168.996924"/>
      </g>
     </g>
    </g>
    <g id="ytick_37">
     <g id="line2d_112">
      <g>
       <use style="stroke:#000000;stroke-width:0.48;" x="203.2" xlink:href="#mb574af699c" y="164.037489"/>
      </g>
     </g>
    </g>
    <g id="ytick_38">
     <g id="line2d_113">
      <g>
       <use style="stroke:#000000;stroke-width:0.48;" x="203.2" xlink:href="#mb574af699c" y="154.118618"/>
      </g>
     </g>
    </g>
    <g id="ytick_39">
     <g id="line2d_114">
      <g>
       <use style="stroke:#000000;stroke-width:0.48;" x="203.2" xlink:href="#mb574af699c" y="149.159182"/>
      </g>
     </g>
    </g>
    <g id="ytick_40">
     <g id="line2d_115">
      <g>
       <use style="stroke:#000000;stroke-width:0.48;" x="203.2" xlink:href="#mb574af699c" y="144.199747"/>
      </g>
     </g>
    </g>
    <g id="ytick_41">
     <g id="line2d_116">
      <g>
       <use style="stroke:#000000;stroke-width:0.48;" x="203.2" xlink:href="#mb574af699c" y="139.240311"/>
      </g>
     </g>
    </g>
    <g id="ytick_42">
     <g id="line2d_117">
      <g>
       <use style="stroke:#000000;stroke-width:0.48;" x="203.2" xlink:href="#mb574af699c" y="129.32144"/>
      </g>
     </g>
    </g>
    <g id="ytick_43">
     <g id="line2d_118">
      <g>
       <use style="stroke:#000000;stroke-width:0.48;" x="203.2" xlink:href="#mb574af699c" y="124.362005"/>
      </g>
     </g>
    </g>
    <g id="ytick_44">
     <g id="line2d_119">
      <g>
       <use style="stroke:#000000;stroke-width:0.48;" x="203.2" xlink:href="#mb574af699c" y="119.402569"/>
      </g>
     </g>
    </g>
    <g id="ytick_45">
     <g id="line2d_120">
      <g>
       <use style="stroke:#000000;stroke-width:0.48;" x="203.2" xlink:href="#mb574af699c" y="114.443134"/>
      </g>
     </g>
    </g>
    <g id="ytick_46">
     <g id="line2d_121">
      <g>
       <use style="stroke:#000000;stroke-width:0.48;" x="203.2" xlink:href="#mb574af699c" y="104.524263"/>
      </g>
     </g>
    </g>
    <g id="ytick_47">
     <g id="line2d_122">
      <g>
       <use style="stroke:#000000;stroke-width:0.48;" x="203.2" xlink:href="#mb574af699c" y="99.564828"/>
      </g>
     </g>
    </g>
    <g id="ytick_48">
     <g id="line2d_123">
      <g>
       <use style="stroke:#000000;stroke-width:0.48;" x="203.2" xlink:href="#mb574af699c" y="94.605392"/>
      </g>
     </g>
    </g>
    <g id="ytick_49">
     <g id="line2d_124">
      <g>
       <use style="stroke:#000000;stroke-width:0.48;" x="203.2" xlink:href="#mb574af699c" y="89.645957"/>
      </g>
     </g>
    </g>
    <g id="ytick_50">
     <g id="line2d_125">
      <g>
       <use style="stroke:#000000;stroke-width:0.48;" x="203.2" xlink:href="#mb574af699c" y="79.727086"/>
      </g>
     </g>
    </g>
    <g id="ytick_51">
     <g id="line2d_126">
      <g>
       <use style="stroke:#000000;stroke-width:0.48;" x="203.2" xlink:href="#mb574af699c" y="74.76765"/>
      </g>
     </g>
    </g>
    <g id="ytick_52">
     <g id="line2d_127">
      <g>
       <use style="stroke:#000000;stroke-width:0.48;" x="203.2" xlink:href="#mb574af699c" y="69.808215"/>
      </g>
     </g>
    </g>
    <g id="ytick_53">
     <g id="line2d_128">
      <g>
       <use style="stroke:#000000;stroke-width:0.48;" x="203.2" xlink:href="#mb574af699c" y="64.848779"/>
      </g>
     </g>
    </g>
    <g id="ytick_54">
     <g id="line2d_129">
      <g>
       <use style="stroke:#000000;stroke-width:0.48;" x="203.2" xlink:href="#mb574af699c" y="54.929908"/>
      </g>
     </g>
    </g>
    <g id="ytick_55">
     <g id="line2d_130">
      <g>
       <use style="stroke:#000000;stroke-width:0.48;" x="203.2" xlink:href="#mb574af699c" y="49.970473"/>
      </g>
     </g>
    </g>
    <g id="ytick_56">
     <g id="line2d_131">
      <g>
       <use style="stroke:#000000;stroke-width:0.48;" x="203.2" xlink:href="#mb574af699c" y="45.011037"/>
      </g>
     </g>
    </g>
    <g id="ytick_57">
     <g id="line2d_132">
      <g>
       <use style="stroke:#000000;stroke-width:0.48;" x="203.2" xlink:href="#mb574af699c" y="40.051602"/>
      </g>
     </g>
    </g>
    <g id="ytick_58">
     <g id="line2d_133">
      <g>
       <use style="stroke:#000000;stroke-width:0.48;" x="203.2" xlink:href="#mb574af699c" y="30.132731"/>
      </g>
     </g>
    </g>
   </g>
   <g id="line2d_134">
    <path clip-path="url(#pe9d6ac0f7a)" d="M 203.2 171.080497 
L 210.778947 143.833354 
L 218.357895 152.318789 
L 225.936842 137.352212 
L 233.515789 133.897777 
L 241.094737 109.747697 
L 248.673684 92.18372 
L 256.252632 91.474668 
L 263.831579 90.7971 
L 271.410526 106.682467 
L 278.989474 127.326084 
L 286.568421 149.459363 
L 294.147368 154.268961 
L 301.726316 162.315227 
L 309.305263 172.9 
L 316.884211 163.57972 
L 324.463158 168.356919 
L 332.042105 157.371211 
L 339.621053 157.391935 
L 347.2 170.49992 
" style="fill:none;stroke:#23395b;stroke-linecap:square;stroke-width:4;"/>
   </g>
   <g id="line2d_135">
    <path clip-path="url(#pe9d6ac0f7a)" d="M 203.2 133.98798 
L 210.778947 120.813087 
L 218.357895 108.868773 
L 225.936842 122.424065 
L 233.515789 144.017656 
L 241.094737 145.169807 
L 248.673684 127.145169 
L 256.252632 115.002631 
L 263.831579 98.570392 
L 271.410526 76.91072 
L 278.989474 94.269151 
L 286.568421 101.987117 
L 294.147368 85.404294 
L 301.726316 94.309818 
L 309.305263 113.400427 
L 316.884211 135.178665 
L 324.463158 110.556034 
L 332.042105 84.11183 
L 339.621053 89.024284 
L 347.2 85.489678 
" style="fill:none;stroke:#d81e5b;stroke-linecap:square;stroke-width:4;"/>
   </g>
   <g id="line2d_136">
    <path clip-path="url(#pe9d6ac0f7a)" d="M 203.2 139.721327 
L 210.778947 131.411284 
L 218.357895 123.567136 
L 225.936842 125.741015 
L 233.515789 117.834902 
L 241.094737 124.660558 
L 248.673684 123.855304 
L 256.252632 98.599998 
L 263.831579 71.939688 
L 271.410526 80.989574 
L 278.989474 98.662439 
L 286.568421 97.456648 
L 294.147368 104.07931 
L 301.726316 79.447807 
L 309.305263 94.889924 
L 316.884211 73.364361 
L 324.463158 61.598323 
L 332.042105 52.192037 
L 339.621053 68.189649 
L 347.2 43.105927 
" style="fill:none;stroke:#fffd98;stroke-linecap:square;stroke-width:4;"/>
   </g>
   <g id="line2d_137">
    <path clip-path="url(#pe9d6ac0f7a)" d="M 203.2 152.750611 
L 210.778947 171.262107 
L 218.357895 167.779411 
L 225.936842 156.900203 
L 233.515789 133.800617 
L 241.094737 124.61722 
L 248.673684 137.188556 
L 256.252632 156.069702 
L 263.831579 131.277027 
L 271.410526 118.594998 
L 278.989474 117.309978 
L 286.568421 110.106415 
L 294.147368 89.66877 
L 301.726316 107.498179 
L 309.305263 80.795083 
L 316.884211 64.41118 
L 324.463158 52.46759 
L 332.042105 36.666192 
L 339.621053 28.9 
L 347.2 32.611576 
" style="fill:none;stroke:#b9e3c6;stroke-linecap:square;stroke-width:4;"/>
   </g>
   <g id="line2d_138">
    <path clip-path="url(#pe9d6ac0f7a)" d="M 203.2 134.87499 
L 210.778947 138.7149 
L 218.357895 139.403391 
L 225.936842 127.937544 
L 233.515789 100.970923 
L 241.094737 112.599766 
L 248.673684 118.506088 
L 256.252632 93.704008 
L 263.831579 100.95458 
L 271.410526 86.21001 
L 278.989474 73.229126 
L 286.568421 80.924184 
L 294.147368 64.743581 
L 301.726316 47.050385 
L 309.305263 53.710138 
L 316.884211 38.687239 
L 324.463158 60.961707 
L 332.042105 72.571824 
L 339.621053 89.786413 
L 347.2 65.914227 
" style="fill:none;stroke:#59c9a5;stroke-linecap:square;stroke-width:4;"/>
   </g>
   <g id="patch_9">
    <path d="M 203.2 172.9 
L 203.2 28.9 
" style="fill:none;stroke:#000000;stroke-linecap:square;stroke-linejoin:miter;stroke-width:0.6;"/>
   </g>
   <g id="patch_10">
    <path d="M 347.2 172.9 
L 347.2 28.9 
" style="fill:none;stroke:#000000;stroke-linecap:square;stroke-linejoin:miter;stroke-width:0.6;"/>
   </g>
   <g id="patch_11">
    <path d="M 203.2 172.9 
L 347.2 172.9 
" style="fill:none;stroke:#000000;stroke-linecap:square;stroke-linejoin:miter;stroke-width:0.6;"/>
   </g>
   <g id="patch_12">
    <path d="M 203.2 28.9 
L 347.2 28.9 
" style="fill:none;stroke:#000000;stroke-linecap:square;stroke-linejoin:miter;stroke-width:0.6;"/>
   </g>
   <g id="text_31">
    <!-- Row-centered legends -->
    <defs>
     <path d="M 7.796875 71.40625 
L 7.796875 0 
L 17.296875 0 
L 17.296875 30.5 
L 40.5 30.5 
Q 44 30.5 46.09375 29.453125 
Q 48.203125 28.40625 49.5 26.65625 
Q 50.796875 24.90625 51.390625 22.546875 
Q 52 20.203125 52.40625 17.59375 
Q 52.90625 15 53 12.296875 
Q 53.09375 9.59375 53.1875 7.25 
Q 53.296875 4.90625 53.640625 3 
Q 54 1.09375 55 0 
L 65.59375 0 
Q 64.09375 1.796875 63.34375 4.140625 
Q 62.59375 6.5 62.1875 9.09375 
Q 61.796875 11.703125 61.6875 14.390625 
Q 61.59375 17.09375 61.40625 19.703125 
Q 61.09375 22.296875 60.546875 24.6875 
Q 60 27.09375 58.84375 29.046875 
Q 57.703125 31 55.75 32.390625 
Q 53.796875 33.796875 50.703125 34.40625 
L 50.703125 34.59375 
Q 57.203125 36.40625 60.140625 41.296875 
Q 63.09375 46.203125 63.09375 52.703125 
Q 63.09375 61.40625 57.34375 66.40625 
Q 51.59375 71.40625 41.40625 71.40625 
z
M 37.09375 38.5 
L 17.296875 38.5 
L 17.296875 63.40625 
L 40.90625 63.40625 
Q 47.59375 63.40625 50.59375 60 
Q 53.59375 56.59375 53.59375 51.203125 
Q 53.59375 47.296875 52.25 44.84375 
Q 50.90625 42.40625 48.65625 40.953125 
Q 46.40625 39.5 43.40625 39 
Q 40.40625 38.5 37.09375 38.5 
z
" id="HelveticaNeue-82"/>
     <path d="M 12.59375 25.796875 
Q 12.59375 30.5 13.84375 34.140625 
Q 15.09375 37.796875 17.296875 40.296875 
Q 19.5 42.796875 22.453125 44.09375 
Q 25.40625 45.40625 28.703125 45.40625 
Q 32 45.40625 34.953125 44.09375 
Q 37.90625 42.796875 40.09375 40.296875 
Q 42.296875 37.796875 43.546875 34.140625 
Q 44.796875 30.5 44.796875 25.796875 
Q 44.796875 21.09375 43.546875 17.4375 
Q 42.296875 13.796875 40.09375 11.34375 
Q 37.90625 8.90625 34.953125 7.59375 
Q 32 6.296875 28.703125 6.296875 
Q 25.40625 6.296875 22.453125 7.59375 
Q 19.5 8.90625 17.296875 11.34375 
Q 15.09375 13.796875 13.84375 17.4375 
Q 12.59375 21.09375 12.59375 25.796875 
z
M 3.59375 25.796875 
Q 3.59375 20.09375 5.1875 15.1875 
Q 6.796875 10.296875 10 6.640625 
Q 13.203125 3 17.890625 0.953125 
Q 22.59375 -1.09375 28.703125 -1.09375 
Q 34.90625 -1.09375 39.546875 0.953125 
Q 44.203125 3 47.390625 6.640625 
Q 50.59375 10.296875 52.1875 15.1875 
Q 53.796875 20.09375 53.796875 25.796875 
Q 53.796875 31.5 52.1875 36.453125 
Q 50.59375 41.40625 47.390625 45.046875 
Q 44.203125 48.703125 39.546875 50.796875 
Q 34.90625 52.90625 28.703125 52.90625 
Q 22.59375 52.90625 17.890625 50.796875 
Q 13.203125 48.703125 10 45.046875 
Q 6.796875 41.40625 5.1875 36.453125 
Q 3.59375 31.5 3.59375 25.796875 
z
" id="HelveticaNeue-111"/>
     <path d="M 57.59375 0 
L 74.09375 51.703125 
L 65.296875 51.703125 
L 53.703125 9.40625 
L 53.5 9.40625 
L 42.703125 51.703125 
L 33.40625 51.703125 
L 23 9.40625 
L 22.796875 9.40625 
L 11.09375 51.703125 
L 1.703125 51.703125 
L 18.296875 0 
L 27.5 0 
L 37.90625 41.09375 
L 38.09375 41.09375 
L 48.59375 0 
z
" id="HelveticaNeue-119"/>
     <path d="M 5 31.796875 
L 5 23.796875 
L 33.90625 23.796875 
L 33.90625 31.796875 
z
" id="HelveticaNeue-45"/>
     <path d="M 6.09375 51.703125 
L 6.09375 0 
L 14.59375 0 
L 14.59375 23 
Q 14.59375 28 15.59375 31.84375 
Q 16.59375 35.703125 18.796875 38.390625 
Q 21 41.09375 24.59375 42.5 
Q 28.203125 43.90625 33.296875 43.90625 
L 33.296875 52.90625 
Q 26.40625 53.09375 21.90625 50.09375 
Q 17.40625 47.09375 14.296875 40.796875 
L 14.09375 40.796875 
L 14.09375 51.703125 
z
" id="HelveticaNeue-114"/>
    </defs>
    <g transform="translate(229.534141 24.018438)scale(0.09 -0.09)">
     <use xlink:href="#HelveticaNeue-82"/>
     <use x="68.499985" xlink:href="#HelveticaNeue-111"/>
     <use x="125.899979" xlink:href="#HelveticaNeue-119"/>
     <use x="201.699966" xlink:href="#HelveticaNeue-45"/>
     <use x="240.59996" xlink:href="#HelveticaNeue-99"/>
     <use x="294.299957" xlink:href="#HelveticaNeue-101"/>
     <use x="347.999954" xlink:href="#HelveticaNeue-110"/>
     <use x="403.599945" xlink:href="#HelveticaNeue-116"/>
     <use x="435.09993" xlink:href="#HelveticaNeue-101"/>
     <use x="488.799927" xlink:href="#HelveticaNeue-114"/>
     <use x="522.08429" xlink:href="#HelveticaNeue-101"/>
     <use x="575.784286" xlink:href="#HelveticaNeue-100"/>
     <use x="635.084274" xlink:href="#HelveticaNeue-32"/>
     <use x="662.884262" xlink:href="#HelveticaNeue-108"/>
     <use x="685.084259" xlink:href="#HelveticaNeue-101"/>
     <use x="738.784256" xlink:href="#HelveticaNeue-103"/>
     <use x="796.18425" xlink:href="#HelveticaNeue-101"/>
     <use x="849.884247" xlink:href="#HelveticaNeue-110"/>
     <use x="905.484238" xlink:href="#HelveticaNeue-100"/>
     <use x="964.784225" xlink:href="#HelveticaNeue-115"/>
    </g>
   </g>
   <g id="text_32">
    <!-- Row-centered legends -->
    <g transform="translate(229.534141 24.018438)scale(0.09 -0.09)">
     <use xlink:href="#HelveticaNeue-82"/>
     <use x="68.499985" xlink:href="#HelveticaNeue-111"/>
     <use x="125.899979" xlink:href="#HelveticaNeue-119"/>
     <use x="201.699966" xlink:href="#HelveticaNeue-45"/>
     <use x="240.59996" xlink:href="#HelveticaNeue-99"/>
     <use x="294.299957" xlink:href="#HelveticaNeue-101"/>
     <use x="347.999954" xlink:href="#HelveticaNeue-110"/>
     <use x="403.599945" xlink:href="#HelveticaNeue-116"/>
     <use x="435.09993" xlink:href="#HelveticaNeue-101"/>
     <use x="488.799927" xlink:href="#HelveticaNeue-114"/>
     <use x="522.08429" xlink:href="#HelveticaNeue-101"/>
     <use x="575.784286" xlink:href="#HelveticaNeue-100"/>
     <use x="635.084274" xlink:href="#HelveticaNeue-32"/>
     <use x="662.884262" xlink:href="#HelveticaNeue-108"/>
     <use x="685.084259" xlink:href="#HelveticaNeue-101"/>
     <use x="738.784256" xlink:href="#HelveticaNeue-103"/>
     <use x="796.18425" xlink:href="#HelveticaNeue-101"/>
     <use x="849.884247" xlink:href="#HelveticaNeue-110"/>
     <use x="905.484238" xlink:href="#HelveticaNeue-100"/>
     <use x="964.784225" xlink:href="#HelveticaNeue-115"/>
    </g>
   </g>
  </g>
  <g id="axes_3">
   <g id="patch_13">
    <path d="M 34.7 221.5 
L 178.7 221.5 
L 178.7 203.5 
L 34.7 203.5 
z
" style="fill:none;opacity:0;"/>
   </g>
   <g id="legend_2">
    <g id="patch_14">
     <path d="M 44.0275 230.0775 
L 169.3725 230.0775 
L 169.3725 203.5 
L 44.0275 203.5 
z
" style="fill:#ffffff;opacity:0.8;stroke:#000000;stroke-linejoin:miter;stroke-width:0.6;"/>
    </g>
    <g id="line2d_139">
     <path d="M 48.0275 210.4125 
L 60.0275 210.4125 
" style="fill:none;stroke:#2b4162;stroke-linecap:square;stroke-width:4;"/>
    </g>
    <g id="line2d_140"/>
    <g id="text_33">
     <!-- a -->
     <g transform="translate(64.0275 213.2125)scale(0.08 -0.08)">
      <use xlink:href="#HelveticaNeue-97"/>
     </g>
    </g>
    <g id="line2d_141">
     <path d="M 48.0275 221.70125 
L 60.0275 221.70125 
" style="fill:none;stroke:#a21817;stroke-linecap:square;stroke-width:4;"/>
    </g>
    <g id="line2d_142"/>
    <g id="text_34">
     <!-- dddd -->
     <g transform="translate(64.0275 224.50125)scale(0.08 -0.08)">
      <use xlink:href="#HelveticaNeue-100"/>
      <use x="59.299988" xlink:href="#HelveticaNeue-100"/>
      <use x="118.599976" xlink:href="#HelveticaNeue-100"/>
      <use x="177.899963" xlink:href="#HelveticaNeue-100"/>
     </g>
    </g>
    <g id="line2d_143">
     <path d="M 91.0025 210.4125 
L 103.0025 210.4125 
" style="fill:none;stroke:#fa9f42;stroke-linecap:square;stroke-width:4;"/>
    </g>
    <g id="line2d_144"/>
    <g id="text_35">
     <!-- bb -->
     <g transform="translate(107.0025 213.2125)scale(0.08 -0.08)">
      <use xlink:href="#HelveticaNeue-98"/>
      <use x="59.299988" xlink:href="#HelveticaNeue-98"/>
     </g>
    </g>
    <g id="line2d_145">
     <path d="M 91.0025 221.70125 
L 103.0025 221.70125 
" style="fill:none;stroke:#0b6e4f;stroke-linecap:square;stroke-width:4;"/>
    </g>
    <g id="line2d_146"/>
    <g id="text_36">
     <!-- eeeee -->
     <g transform="translate(107.0025 224.50125)scale(0.08 -0.08)">
      <use xlink:href="#HelveticaNeue-101"/>
      <use x="53.699997" xlink:href="#HelveticaNeue-101"/>
      <use x="107.399994" xlink:href="#HelveticaNeue-101"/>
      <use x="161.099991" xlink:href="#HelveticaNeue-101"/>
      <use x="214.799988" xlink:href="#HelveticaNeue-101"/>
     </g>
    </g>
    <g id="line2d_147">
     <path d="M 136.48375 210.4125 
L 148.48375 210.4125 
" style="fill:none;stroke:#e0e0e2;stroke-linecap:square;stroke-width:4;"/>
    </g>
    <g id="line2d_148"/>
    <g id="text_37">
     <!-- ccc -->
     <g transform="translate(152.48375 213.2125)scale(0.08 -0.08)">
      <use xlink:href="#HelveticaNeue-99"/>
      <use x="53.699997" xlink:href="#HelveticaNeue-99"/>
      <use x="107.399994" xlink:href="#HelveticaNeue-99"/>
     </g>
    </g>
   </g>
  </g>
  <g id="axes_4">
   <g id="patch_15">
    <path d="M 203.2 221.5 
L 347.2 221.5 
L 347.2 203.5 
L 203.2 203.5 
z
" style="fill:none;opacity:0;"/>
   </g>
   <g id="patch_16">
    <path d="M 225.85 230.1 
L 324.55 230.1 
L 324.55 203.5 
L 225.85 203.5 
z
" style="fill:#ffffff;opacity:0.8;stroke:#000000;stroke-linejoin:miter;stroke-width:0.6;"/>
   </g>
   <g id="legend_3">
    <g id="line2d_149">
     <path d="M 229.86375 210.4125 
L 241.86375 210.4125 
" style="fill:none;stroke:#23395b;stroke-linecap:square;stroke-width:4;"/>
    </g>
    <g id="line2d_150"/>
    <g id="text_38">
     <!-- a -->
     <g transform="translate(245.86375 213.2125)scale(0.08 -0.08)">
      <use xlink:href="#HelveticaNeue-97"/>
     </g>
    </g>
    <g id="line2d_151">
     <path d="M 258.16 210.4125 
L 270.16 210.4125 
" style="fill:none;stroke:#d81e5b;stroke-linecap:square;stroke-width:4;"/>
    </g>
    <g id="line2d_152"/>
    <g id="text_39">
     <!-- bb -->
     <g transform="translate(274.16 213.2125)scale(0.08 -0.08)">
      <use xlink:href="#HelveticaNeue-98"/>
      <use x="59.299988" xlink:href="#HelveticaNeue-98"/>
     </g>
    </g>
    <g id="line2d_153">
     <path d="M 291.6475 210.4125 
L 303.6475 210.4125 
" style="fill:none;stroke:#fffd98;stroke-linecap:square;stroke-width:4;"/>
    </g>
    <g id="line2d_154"/>
    <g id="text_40">
     <!-- ccc -->
     <g transform="translate(307.6475 213.2125)scale(0.08 -0.08)">
      <use xlink:href="#HelveticaNeue-99"/>
      <use x="53.699997" xlink:href="#HelveticaNeue-99"/>
      <use x="107.399994" xlink:href="#HelveticaNeue-99"/>
     </g>
    </g>
   </g>
   <g id="legend_4">
    <g id="line2d_155">
     <path d="M 234.971875 221.8125 
L 246.971875 221.8125 
" style="fill:none;stroke:#b9e3c6;stroke-linecap:square;stroke-width:4;"/>
    </g>
    <g id="line2d_156"/>
    <g id="text_41">
     <!-- dddd -->
     <g transform="translate(250.971875 224.6125)scale(0.08 -0.08)">
      <use xlink:href="#HelveticaNeue-100"/>
      <use x="59.299988" xlink:href="#HelveticaNeue-100"/>
      <use x="118.599976" xlink:href="#HelveticaNeue-100"/>
      <use x="177.899963" xlink:href="#HelveticaNeue-100"/>
     </g>
    </g>
    <g id="line2d_157">
     <path d="M 277.946875 221.8125 
L 289.946875 221.8125 
" style="fill:none;stroke:#59c9a5;stroke-linecap:square;stroke-width:4;"/>
    </g>
    <g id="line2d_158"/>
    <g id="text_42">
     <!-- eeeee -->
     <g transform="translate(293.946875 224.6125)scale(0.08 -0.08)">
      <use xlink:href="#HelveticaNeue-101"/>
      <use x="53.699997" xlink:href="#HelveticaNeue-101"/>
      <use x="107.399994" xlink:href="#HelveticaNeue-101"/>
      <use x="161.099991" xlink:href="#HelveticaNeue-101"/>
      <use x="214.799988" xlink:href="#HelveticaNeue-101"/>
     </g>
    </g>
   </g>
  </g>
  <g id="axes_5">
   <g id="patch_17">
    <path d="M 354.4 172.9 
L 386.8 172.9 
L 386.8 28.9 
L 354.4 28.9 
z
" style="fill:none;opacity:0;"/>
   </g>
   <g id="legend_5">
    <g id="line2d_159">
     <path d="M 358.4 77.368125 
L 370.4 77.368125 
" style="fill:none;stroke:#23395b;stroke-linecap:square;stroke-width:4;"/>
    </g>
    <g id="line2d_160"/>
    <g id="text_43">
     <!-- a -->
     <g transform="translate(374.4 80.168125)scale(0.08 -0.08)">
      <use xlink:href="#HelveticaNeue-97"/>
     </g>
    </g>
   </g>
   <g id="legend_6">
    <g id="line2d_161">
     <path d="M 358.4 88.768125 
L 370.4 88.768125 
" style="fill:none;stroke:#d81e5b;stroke-linecap:square;stroke-width:4;"/>
    </g>
    <g id="line2d_162"/>
    <g id="text_44">
     <!-- bb -->
     <g transform="translate(374.4 91.568125)scale(0.08 -0.08)">
      <use xlink:href="#HelveticaNeue-98"/>
      <use x="59.299988" xlink:href="#HelveticaNeue-98"/>
     </g>
    </g>
   </g>
   <g id="legend_7">
    <g id="line2d_163">
     <path d="M 358.4 100.168125 
L 370.4 100.168125 
" style="fill:none;stroke:#fffd98;stroke-linecap:square;stroke-width:4;"/>
    </g>
    <g id="line2d_164"/>
    <g id="text_45">
     <!-- ccc -->
     <g transform="translate(374.4 102.968125)scale(0.08 -0.08)">
      <use xlink:href="#HelveticaNeue-99"/>
      <use x="53.699997" xlink:href="#HelveticaNeue-99"/>
      <use x="107.399994" xlink:href="#HelveticaNeue-99"/>
     </g>
    </g>
   </g>
   <g id="legend_8">
    <g id="line2d_165">
     <path d="M 358.4 111.568125 
L 370.4 111.568125 
" style="fill:none;stroke:#b9e3c6;stroke-linecap:square;stroke-width:4;"/>
    </g>
    <g id="line2d_166"/>
    <g id="text_46">
     <!-- dddd -->
     <g transform="translate(374.4 114.368125)scale(0.08 -0.08)">
      <use xlink:href="#HelveticaNeue-100"/>
      <use x="59.299988" xlink:href="#HelveticaNeue-100"/>
      <use x="118.599976" xlink:href="#HelveticaNeue-100"/>
      <use x="177.899963" xlink:href="#HelveticaNeue-100"/>
     </g>
    </g>
   </g>
   <g id="legend_9">
    <g id="line2d_167">
     <path d="M 358.4 122.968125 
L 370.4 122.968125 
" style="fill:none;stroke:#59c9a5;stroke-linecap:square;stroke-width:4;"/>
    </g>
    <g id="line2d_168"/>
    <g id="text_47">
     <!-- eeeee -->
     <g transform="translate(374.4 125.768125)scale(0.08 -0.08)">
      <use xlink:href="#HelveticaNeue-101"/>
      <use x="53.699997" xlink:href="#HelveticaNeue-101"/>
      <use x="107.399994" xlink:href="#HelveticaNeue-101"/>
      <use x="161.099991" xlink:href="#HelveticaNeue-101"/>
      <use x="214.799988" xlink:href="#HelveticaNeue-101"/>
     </g>
    </g>
   </g>
  </g>
  <g id="text_48">
   <!-- ProPlot legends -->
   <defs>
    <path d="M 22.59375 37.796875 
L 22.59375 59.203125 
L 34.796875 59.203125 
Q 37.5 59.203125 40 58.796875 
Q 42.5 58.40625 44.390625 57.25 
Q 46.296875 56.09375 47.4375 54 
Q 48.59375 51.90625 48.59375 48.5 
Q 48.59375 45.09375 47.4375 43 
Q 46.296875 40.90625 44.390625 39.75 
Q 42.5 38.59375 40 38.1875 
Q 37.5 37.796875 34.796875 37.796875 
z
M 6.90625 71.40625 
L 6.90625 0 
L 22.59375 0 
L 22.59375 25.59375 
L 39.09375 25.59375 
Q 45.796875 25.59375 50.5 27.546875 
Q 55.203125 29.5 58.140625 32.703125 
Q 61.09375 35.90625 62.4375 40.046875 
Q 63.796875 44.203125 63.796875 48.5 
Q 63.796875 52.90625 62.4375 57 
Q 61.09375 61.09375 58.140625 64.296875 
Q 55.203125 67.5 50.5 69.453125 
Q 45.796875 71.40625 39.09375 71.40625 
z
" id="HelveticaNeue-Bold-80"/>
    <path d="M 5.40625 51.703125 
L 5.40625 0 
L 19.59375 0 
L 19.59375 23.296875 
Q 19.59375 26.796875 20.296875 29.796875 
Q 21 32.796875 22.640625 35.046875 
Q 24.296875 37.296875 27 38.59375 
Q 29.703125 39.90625 33.59375 39.90625 
Q 34.90625 39.90625 36.296875 39.75 
Q 37.703125 39.59375 38.703125 39.40625 
L 38.703125 52.59375 
Q 37 53.09375 35.59375 53.09375 
Q 32.90625 53.09375 30.40625 52.296875 
Q 27.90625 51.5 25.703125 50.046875 
Q 23.5 48.59375 21.796875 46.546875 
Q 20.09375 44.5 19.09375 42.09375 
L 18.90625 42.09375 
L 18.90625 51.703125 
z
" id="HelveticaNeue-Bold-114"/>
    <path d="M 18 25.796875 
Q 18 28.90625 18.59375 31.90625 
Q 19.203125 34.90625 20.640625 37.203125 
Q 22.09375 39.5 24.5 40.953125 
Q 26.90625 42.40625 30.5 42.40625 
Q 34.09375 42.40625 36.546875 40.953125 
Q 39 39.5 40.453125 37.203125 
Q 41.90625 34.90625 42.5 31.90625 
Q 43.09375 28.90625 43.09375 25.796875 
Q 43.09375 22.703125 42.5 19.75 
Q 41.90625 16.796875 40.453125 14.4375 
Q 39 12.09375 36.546875 10.6875 
Q 34.09375 9.296875 30.5 9.296875 
Q 26.90625 9.296875 24.5 10.6875 
Q 22.09375 12.09375 20.640625 14.4375 
Q 19.203125 16.796875 18.59375 19.75 
Q 18 22.703125 18 25.796875 
z
M 3.796875 25.796875 
Q 3.796875 19.59375 5.6875 14.59375 
Q 7.59375 9.59375 11.09375 6.046875 
Q 14.59375 2.5 19.5 0.59375 
Q 24.40625 -1.296875 30.5 -1.296875 
Q 36.59375 -1.296875 41.546875 0.59375 
Q 46.5 2.5 50 6.046875 
Q 53.5 9.59375 55.390625 14.59375 
Q 57.296875 19.59375 57.296875 25.796875 
Q 57.296875 32 55.390625 37.046875 
Q 53.5 42.09375 50 45.640625 
Q 46.5 49.203125 41.546875 51.140625 
Q 36.59375 53.09375 30.5 53.09375 
Q 24.40625 53.09375 19.5 51.140625 
Q 14.59375 49.203125 11.09375 45.640625 
Q 7.59375 42.09375 5.6875 37.046875 
Q 3.796875 32 3.796875 25.796875 
z
" id="HelveticaNeue-Bold-111"/>
    <path d="M 5.796875 71.40625 
L 5.796875 0 
L 20 0 
L 20 71.40625 
z
" id="HelveticaNeue-Bold-108"/>
    <path d="M 23.40625 51.703125 
L 23.40625 67.203125 
L 9.203125 67.203125 
L 9.203125 51.703125 
L 0.59375 51.703125 
L 0.59375 42.203125 
L 9.203125 42.203125 
L 9.203125 11.703125 
Q 9.203125 7.796875 10.5 5.390625 
Q 11.796875 3 14.046875 1.703125 
Q 16.296875 0.40625 19.25 -0.046875 
Q 22.203125 -0.5 25.5 -0.5 
Q 27.59375 -0.5 29.796875 -0.390625 
Q 32 -0.296875 33.796875 0 
L 33.796875 11 
Q 32.796875 10.796875 31.6875 10.6875 
Q 30.59375 10.59375 29.40625 10.59375 
Q 25.796875 10.59375 24.59375 11.796875 
Q 23.40625 13 23.40625 16.59375 
L 23.40625 42.203125 
L 33.796875 42.203125 
L 33.796875 51.703125 
z
" id="HelveticaNeue-Bold-116"/>
    <path id="HelveticaNeue-Bold-32"/>
    <path d="M 40.203125 31.40625 
L 17.09375 31.40625 
Q 17.203125 32.90625 17.75 34.796875 
Q 18.296875 36.703125 19.640625 38.390625 
Q 21 40.09375 23.25 41.25 
Q 25.5 42.40625 28.90625 42.40625 
Q 34.09375 42.40625 36.640625 39.59375 
Q 39.203125 36.796875 40.203125 31.40625 
z
M 17.09375 22.40625 
L 54.40625 22.40625 
Q 54.796875 28.40625 53.390625 33.90625 
Q 52 39.40625 48.84375 43.703125 
Q 45.703125 48 40.796875 50.546875 
Q 35.90625 53.09375 29.296875 53.09375 
Q 23.40625 53.09375 18.546875 51 
Q 13.703125 48.90625 10.203125 45.25 
Q 6.703125 41.59375 4.796875 36.59375 
Q 2.90625 31.59375 2.90625 25.796875 
Q 2.90625 19.796875 4.75 14.796875 
Q 6.59375 9.796875 10 6.1875 
Q 13.40625 2.59375 18.296875 0.640625 
Q 23.203125 -1.296875 29.296875 -1.296875 
Q 38.09375 -1.296875 44.296875 2.703125 
Q 50.5 6.703125 53.5 16 
L 41 16 
Q 40.296875 13.59375 37.1875 11.4375 
Q 34.09375 9.296875 29.796875 9.296875 
Q 23.796875 9.296875 20.59375 12.390625 
Q 17.40625 15.5 17.09375 22.40625 
z
" id="HelveticaNeue-Bold-101"/>
    <path d="M 29.5 12.203125 
Q 26.203125 12.203125 24 13.59375 
Q 21.796875 15 20.4375 17.203125 
Q 19.09375 19.40625 18.546875 22.15625 
Q 18 24.90625 18 27.703125 
Q 18 30.59375 18.640625 33.25 
Q 19.296875 35.90625 20.75 37.953125 
Q 22.203125 40 24.34375 41.203125 
Q 26.5 42.40625 29.5 42.40625 
Q 33 42.40625 35.296875 41.09375 
Q 37.59375 39.796875 39 37.59375 
Q 40.40625 35.40625 41 32.546875 
Q 41.59375 29.703125 41.59375 26.5 
Q 41.59375 23.703125 40.84375 21.140625 
Q 40.09375 18.59375 38.59375 16.59375 
Q 37.09375 14.59375 34.796875 13.390625 
Q 32.5 12.203125 29.5 12.203125 
z
M 55.09375 3.296875 
L 55.09375 51.703125 
L 41.59375 51.703125 
L 41.59375 44.796875 
L 41.40625 44.796875 
Q 38.796875 49.296875 34.9375 51.1875 
Q 31.09375 53.09375 26 53.09375 
Q 20.59375 53.09375 16.4375 51 
Q 12.296875 48.90625 9.5 45.34375 
Q 6.703125 41.796875 5.25 37.140625 
Q 3.796875 32.5 3.796875 27.5 
Q 3.796875 22.203125 5.046875 17.453125 
Q 6.296875 12.703125 9 9.140625 
Q 11.703125 5.59375 15.890625 3.546875 
Q 20.09375 1.5 25.90625 1.5 
Q 30.59375 1.5 34.84375 3.453125 
Q 39.09375 5.40625 41.40625 9.5 
L 41.59375 9.5 
L 41.59375 2.703125 
Q 41.703125 -2.796875 38.953125 -6.390625 
Q 36.203125 -10 30.203125 -10 
Q 26.40625 -10 23.5 -8.453125 
Q 20.59375 -6.90625 19.59375 -2.90625 
L 5.5 -2.90625 
Q 5.796875 -7.296875 7.9375 -10.4375 
Q 10.09375 -13.59375 13.34375 -15.59375 
Q 16.59375 -17.59375 20.546875 -18.546875 
Q 24.5 -19.5 28.296875 -19.5 
Q 37.203125 -19.5 42.5 -17.09375 
Q 47.796875 -14.703125 50.59375 -11.25 
Q 53.40625 -7.796875 54.25 -3.796875 
Q 55.09375 0.203125 55.09375 3.296875 
z
" id="HelveticaNeue-Bold-103"/>
    <path d="M 5.40625 51.703125 
L 5.40625 0 
L 19.59375 0 
L 19.59375 27.09375 
Q 19.59375 35 22.1875 38.453125 
Q 24.796875 41.90625 30.59375 41.90625 
Q 35.703125 41.90625 37.703125 38.75 
Q 39.703125 35.59375 39.703125 29.203125 
L 39.703125 0 
L 53.90625 0 
L 53.90625 31.796875 
Q 53.90625 36.59375 53.046875 40.546875 
Q 52.203125 44.5 50.09375 47.25 
Q 48 50 44.34375 51.546875 
Q 40.703125 53.09375 35 53.09375 
Q 30.5 53.09375 26.203125 51.046875 
Q 21.90625 49 19.203125 44.5 
L 18.90625 44.5 
L 18.90625 51.703125 
z
" id="HelveticaNeue-Bold-110"/>
    <path d="M 42.09375 26 
Q 42.09375 22.796875 41.5 19.796875 
Q 40.90625 16.796875 39.5 14.4375 
Q 38.09375 12.09375 35.75 10.6875 
Q 33.40625 9.296875 29.90625 9.296875 
Q 26.59375 9.296875 24.25 10.75 
Q 21.90625 12.203125 20.34375 14.546875 
Q 18.796875 16.90625 18.09375 19.90625 
Q 17.40625 22.90625 17.40625 25.90625 
Q 17.40625 29.09375 18.046875 32.046875 
Q 18.703125 35 20.140625 37.296875 
Q 21.59375 39.59375 24 41 
Q 26.40625 42.40625 29.90625 42.40625 
Q 33.40625 42.40625 35.703125 41 
Q 38 39.59375 39.453125 37.34375 
Q 40.90625 35.09375 41.5 32.140625 
Q 42.09375 29.203125 42.09375 26 
z
M 42.296875 6.59375 
L 42.296875 0 
L 55.796875 0 
L 55.796875 71.40625 
L 41.59375 71.40625 
L 41.59375 45.40625 
L 41.40625 45.40625 
Q 39 49.203125 34.84375 51.140625 
Q 30.703125 53.09375 26.09375 53.09375 
Q 20.40625 53.09375 16.09375 50.84375 
Q 11.796875 48.59375 8.9375 44.890625 
Q 6.09375 41.203125 4.640625 36.34375 
Q 3.203125 31.5 3.203125 26.296875 
Q 3.203125 20.90625 4.640625 15.90625 
Q 6.09375 10.90625 8.9375 7.046875 
Q 11.796875 3.203125 16.1875 0.953125 
Q 20.59375 -1.296875 26.40625 -1.296875 
Q 31.5 -1.296875 35.546875 0.546875 
Q 39.59375 2.40625 42.09375 6.59375 
z
" id="HelveticaNeue-Bold-100"/>
    <path d="M 16.40625 16.796875 
L 2.90625 16.796875 
Q 3.09375 11.59375 5.25 8.140625 
Q 7.40625 4.703125 10.75 2.59375 
Q 14.09375 0.5 18.390625 -0.390625 
Q 22.703125 -1.296875 27.203125 -1.296875 
Q 31.59375 -1.296875 35.84375 -0.4375 
Q 40.09375 0.40625 43.390625 2.5 
Q 46.703125 4.59375 48.75 8.046875 
Q 50.796875 11.5 50.796875 16.59375 
Q 50.796875 20.203125 49.390625 22.640625 
Q 48 25.09375 45.703125 26.75 
Q 43.40625 28.40625 40.453125 29.40625 
Q 37.5 30.40625 34.40625 31.09375 
Q 31.40625 31.796875 28.5 32.390625 
Q 25.59375 33 23.34375 33.75 
Q 21.09375 34.5 19.6875 35.703125 
Q 18.296875 36.90625 18.296875 38.796875 
Q 18.296875 40.40625 19.09375 41.34375 
Q 19.90625 42.296875 21.046875 42.796875 
Q 22.203125 43.296875 23.59375 43.4375 
Q 25 43.59375 26.203125 43.59375 
Q 30 43.59375 32.796875 42.140625 
Q 35.59375 40.703125 35.90625 36.59375 
L 49.40625 36.59375 
Q 49 41.40625 46.953125 44.546875 
Q 44.90625 47.703125 41.796875 49.59375 
Q 38.703125 51.5 34.75 52.296875 
Q 30.796875 53.09375 26.59375 53.09375 
Q 22.40625 53.09375 18.40625 52.34375 
Q 14.40625 51.59375 11.203125 49.75 
Q 8 47.90625 6.046875 44.703125 
Q 4.09375 41.5 4.09375 36.5 
Q 4.09375 33.09375 5.5 30.75 
Q 6.90625 28.40625 9.203125 26.84375 
Q 11.5 25.296875 14.453125 24.34375 
Q 17.40625 23.40625 20.5 22.703125 
Q 28.09375 21.09375 32.34375 19.5 
Q 36.59375 17.90625 36.59375 14.703125 
Q 36.59375 12.796875 35.6875 11.546875 
Q 34.796875 10.296875 33.4375 9.546875 
Q 32.09375 8.796875 30.4375 8.4375 
Q 28.796875 8.09375 27.296875 8.09375 
Q 25.203125 8.09375 23.25 8.59375 
Q 21.296875 9.09375 19.796875 10.140625 
Q 18.296875 11.203125 17.34375 12.84375 
Q 16.40625 14.5 16.40625 16.796875 
z
" id="HelveticaNeue-Bold-115"/>
   </defs>
   <g transform="translate(156.791484 13.136875)scale(0.09 -0.09)">
    <use xlink:href="#HelveticaNeue-Bold-80"/>
    <use x="66.699997" xlink:href="#HelveticaNeue-Bold-114"/>
    <use x="105.584366" xlink:href="#HelveticaNeue-Bold-111"/>
    <use x="166.684357" xlink:href="#HelveticaNeue-Bold-80"/>
    <use x="233.384354" xlink:href="#HelveticaNeue-Bold-108"/>
    <use x="259.184341" xlink:href="#HelveticaNeue-Bold-111"/>
    <use x="320.284332" xlink:href="#HelveticaNeue-Bold-116"/>
    <use x="355.484329" xlink:href="#HelveticaNeue-Bold-32"/>
    <use x="383.284317" xlink:href="#HelveticaNeue-Bold-108"/>
    <use x="409.084305" xlink:href="#HelveticaNeue-Bold-101"/>
    <use x="466.484299" xlink:href="#HelveticaNeue-Bold-103"/>
    <use x="527.58429" xlink:href="#HelveticaNeue-Bold-101"/>
    <use x="584.984283" xlink:href="#HelveticaNeue-Bold-110"/>
    <use x="644.284271" xlink:href="#HelveticaNeue-Bold-100"/>
    <use x="705.384262" xlink:href="#HelveticaNeue-Bold-115"/>
   </g>
  </g>
 </g>
 <defs>
  <clipPath id="p63b3ca67b0">
   <rect height="144" width="144" x="34.7" y="28.9"/>
  </clipPath>
  <clipPath id="pe9d6ac0f7a">
   <rect height="144" width="144" x="203.2" y="28.9"/>
  </clipPath>
 </defs>
</svg>
