STARTFONT 2.1
FONT -Fondu-Courier-Medium-R-Normal--24-230-75-75-P-141-MacRoman-1
SIZE 23 75 75
FONTBOUNDINGBOX 21 22 0 -5
COMMENT Created by Fondu from a mac NFNT/FONT resource
STARTPROPERTIES 17
FOUNDRY "Fondu"
FAMILY_NAME "Courier"
WEIGHT_NAME "Medium"
SLANT "R"
SETWIDTH_NAME "Normal"
ADD_STYLE_NAME ""
PIXEL_SIZE 24
POINT_SIZE 230
RESOLUTION_X 75
RESOLUTION_Y 75
SPACING "P"
AVERAGE_WIDTH 141
CHARSET_REGISTRY "MacRoman"
CHARSET_ENCODING "1"
FONT_ASCENT 17
FONT_DESCENT 5
FACE_NAME "Courier"
ENDPROPERTIES
CHARS 223
STARTCHAR space
ENCODING 32
SWIDTH 600 0
DWIDTH 14 0
BBX 0 0 0 -5
BITMAP
ENDCHAR
STARTCHAR exclam
ENCODING 33
SWIDTH 600 0
DWIDTH 14 0
BBX 4 15 5 0
BITMAP
60
60
60
60
60
60
60
60
60
60
00
60
F0
F0
60
ENDCHAR
STARTCHAR quotedbl
ENCODING 34
SWIDTH 600 0
DWIDTH 14 0
BBX 6 4 4 11
BITMAP
CC
CC
CC
CC
ENDCHAR
STARTCHAR numbersign
ENCODING 35
SWIDTH 600 0
DWIDTH 14 0
BBX 14 16 0 0
BITMAP
00CC
0198
0198
0110
0330
7FFC
0660
0660
0CC0
0CC0
FFF8
1980
1100
3300
3300
6600
ENDCHAR
STARTCHAR dollar
ENCODING 36
SWIDTH 600 0
DWIDTH 14 0
BBX 9 20 2 -3
BITMAP
0C00
0C00
3E80
7F80
E180
C180
C000
E000
7800
3E00
0F00
0380
0180
C180
C380
FF00
BE00
0C00
0C00
0C00
ENDCHAR
STARTCHAR percent
ENCODING 37
SWIDTH 600 0
DWIDTH 14 0
BBX 13 16 0 0
BITMAP
3800
7C00
C618
C630
C660
7CC0
3980
0300
0600
0CE0
19F0
3318
6318
C318
01F0
00E0
ENDCHAR
STARTCHAR ampersand
ENCODING 38
SWIDTH 600 0
DWIDTH 14 0
BBX 13 15 0 0
BITMAP
1C00
3E00
6300
6300
6000
3000
1800
3C00
6630
C330
C1E0
C0C0
C1E0
7F30
3E18
ENDCHAR
STARTCHAR quotesingle
ENCODING 39
SWIDTH 600 0
DWIDTH 14 0
BBX 2 4 6 11
BITMAP
C0
C0
C0
C0
ENDCHAR
STARTCHAR parenleft
ENCODING 40
SWIDTH 600 0
DWIDTH 14 0
BBX 4 20 5 -5
BITMAP
10
20
20
60
60
60
C0
C0
C0
C0
C0
C0
C0
C0
60
60
60
20
20
10
ENDCHAR
STARTCHAR parenright
ENCODING 41
SWIDTH 600 0
DWIDTH 14 0
BBX 4 20 5 -5
BITMAP
80
40
40
60
60
60
30
30
30
30
30
30
30
30
60
60
60
40
40
80
ENDCHAR
STARTCHAR asterisk
ENCODING 42
SWIDTH 600 0
DWIDTH 14 0
BBX 10 9 2 6
BITMAP
0C00
0C00
CCC0
FFC0
3F00
1E00
3300
7380
2100
ENDCHAR
STARTCHAR plus
ENCODING 43
SWIDTH 600 0
DWIDTH 14 0
BBX 10 10 2 1
BITMAP
0C00
0C00
0C00
0C00
FFC0
FFC0
0C00
0C00
0C00
0C00
ENDCHAR
STARTCHAR comma
ENCODING 44
SWIDTH 600 0
DWIDTH 14 0
BBX 5 8 4 -4
BITMAP
38
38
70
70
60
E0
C0
80
ENDCHAR
STARTCHAR hyphen
ENCODING 45
SWIDTH 600 0
DWIDTH 14 0
BBX 10 2 2 5
BITMAP
FFC0
FFC0
ENDCHAR
STARTCHAR period
ENCODING 46
SWIDTH 600 0
DWIDTH 14 0
BBX 4 4 5 0
BITMAP
60
F0
F0
60
ENDCHAR
STARTCHAR slash
ENCODING 47
SWIDTH 600 0
DWIDTH 14 0
BBX 6 15 4 0
BITMAP
0C
0C
0C
18
18
18
30
30
30
60
60
60
C0
C0
C0
ENDCHAR
STARTCHAR zero
ENCODING 48
SWIDTH 600 0
DWIDTH 14 0
BBX 10 15 2 0
BITMAP
1E00
3F00
7380
6180
C0C0
C0C0
C0C0
C0C0
C0C0
C0C0
C0C0
6180
7380
3F00
1E00
ENDCHAR
STARTCHAR one
ENCODING 49
SWIDTH 600 0
DWIDTH 14 0
BBX 9 15 2 0
BITMAP
1C00
7C00
6C00
0C00
0C00
0C00
0C00
0C00
0C00
0C00
0C00
0C00
0C00
FF80
FF80
ENDCHAR
STARTCHAR two
ENCODING 50
SWIDTH 600 0
DWIDTH 14 0
BBX 9 15 2 0
BITMAP
1C00
7F00
6300
C180
C180
0180
0300
0700
0E00
1C00
3800
7180
C180
FF80
FF80
ENDCHAR
STARTCHAR three
ENCODING 51
SWIDTH 600 0
DWIDTH 14 0
BBX 9 15 2 0
BITMAP
3C00
FE00
C300
0300
0300
0200
0E00
0F00
0180
0180
0180
0180
C300
FF00
3C00
ENDCHAR
STARTCHAR four
ENCODING 52
SWIDTH 600 0
DWIDTH 14 0
BBX 11 15 1 0
BITMAP
0180
0380
0780
0580
0D80
1980
3180
2180
6180
FFE0
FFE0
0180
0180
07E0
07E0
ENDCHAR
STARTCHAR five
ENCODING 53
SWIDTH 600 0
DWIDTH 14 0
BBX 10 15 2 0
BITMAP
7F80
7F80
6000
6000
6000
7E00
7F80
0180
00C0
00C0
00C0
C0C0
E180
7F80
1E00
ENDCHAR
STARTCHAR six
ENCODING 54
SWIDTH 600 0
DWIDTH 14 0
BBX 9 15 2 0
BITMAP
0F00
1F00
3000
6000
4000
DC00
FF00
E300
C180
C180
C180
C180
6300
7F00
1C00
ENDCHAR
STARTCHAR seven
ENCODING 55
SWIDTH 600 0
DWIDTH 14 0
BBX 8 15 3 0
BITMAP
FF
FF
C3
C3
06
06
06
0C
0C
0C
0C
18
18
18
18
ENDCHAR
STARTCHAR eight
ENCODING 56
SWIDTH 600 0
DWIDTH 14 0
BBX 9 15 2 0
BITMAP
3E00
7F00
E380
C180
C180
E380
7F00
3E00
6300
C180
C180
C180
E380
7F00
3E00
ENDCHAR
STARTCHAR nine
ENCODING 57
SWIDTH 600 0
DWIDTH 14 0
BBX 9 15 2 0
BITMAP
1C00
7F00
6300
C180
C180
C180
C180
6380
7F80
1D80
0300
0300
0E00
7C00
7000
ENDCHAR
STARTCHAR colon
ENCODING 58
SWIDTH 600 0
DWIDTH 14 0
BBX 4 11 5 0
BITMAP
60
F0
F0
60
00
00
00
60
F0
F0
60
ENDCHAR
STARTCHAR semicolon
ENCODING 59
SWIDTH 600 0
DWIDTH 14 0
BBX 5 15 4 -4
BITMAP
30
78
78
30
00
00
00
38
38
70
70
60
E0
C0
80
ENDCHAR
STARTCHAR less
ENCODING 60
SWIDTH 600 0
DWIDTH 14 0
BBX 11 11 1 0
BITMAP
0060
01E0
0780
1E00
7800
E000
7800
1E00
0780
01E0
0060
ENDCHAR
STARTCHAR equal
ENCODING 61
SWIDTH 600 0
DWIDTH 14 0
BBX 10 6 2 3
BITMAP
FFC0
FFC0
0000
0000
FFC0
FFC0
ENDCHAR
STARTCHAR greater
ENCODING 62
SWIDTH 600 0
DWIDTH 14 0
BBX 11 11 1 0
BITMAP
C000
F000
3C00
0F00
03C0
00E0
03C0
0F00
3C00
F000
C000
ENDCHAR
STARTCHAR question
ENCODING 63
SWIDTH 600 0
DWIDTH 14 0
BBX 9 15 2 0
BITMAP
3E00
7F00
E380
C180
0180
0380
0700
0E00
1C00
1800
0000
1800
3C00
3C00
1800
ENDCHAR
STARTCHAR at
ENCODING 64
SWIDTH 600 0
DWIDTH 14 0
BBX 11 17 1 -2
BITMAP
0F00
3FC0
70C0
6060
C3E0
C7E0
CC60
CC60
CC60
CC60
C7E0
C3E0
C000
6000
70C0
3FC0
0F00
ENDCHAR
STARTCHAR A
ENCODING 65
SWIDTH 600 0
DWIDTH 14 0
BBX 14 15 0 0
BITMAP
7F00
7F00
0F80
0D80
0D80
18C0
18C0
38C0
3060
3FE0
7FF0
6030
6030
F8FC
F8FC
ENDCHAR
STARTCHAR B
ENCODING 66
SWIDTH 600 0
DWIDTH 14 0
BBX 12 15 1 0
BITMAP
FF80
FFC0
30E0
3060
3060
30E0
3FC0
3FC0
3060
3030
3030
3030
3070
FFE0
FFC0
ENDCHAR
STARTCHAR C
ENCODING 67
SWIDTH 600 0
DWIDTH 14 0
BBX 12 15 1 0
BITMAP
0FB0
3FF0
7870
6030
E030
C000
C000
C000
C000
C000
E000
6030
78F0
3FE0
0F80
ENDCHAR
STARTCHAR D
ENCODING 68
SWIDTH 600 0
DWIDTH 14 0
BBX 13 15 0 0
BITMAP
FF80
FFE0
3070
3030
3018
3018
3018
3018
3018
3018
3018
3030
3070
FFE0
FF80
ENDCHAR
STARTCHAR E
ENCODING 69
SWIDTH 600 0
DWIDTH 14 0
BBX 12 15 1 0
BITMAP
FFF0
FFF0
3030
3030
3330
3300
3F00
3F00
3300
3300
3030
3030
3030
FFF0
FFF0
ENDCHAR
STARTCHAR F
ENCODING 70
SWIDTH 600 0
DWIDTH 14 0
BBX 13 15 0 0
BITMAP
FFF8
FFF8
3018
3018
3318
3300
3F00
3F00
3300
3300
3000
3000
3000
FF00
FF00
ENDCHAR
STARTCHAR G
ENCODING 71
SWIDTH 600 0
DWIDTH 14 0
BBX 14 15 0 0
BITMAP
0FD8
3FF8
7838
6018
E018
C000
C000
C000
C1FC
C1FC
E018
6018
7838
3FF0
0FC0
ENDCHAR
STARTCHAR H
ENCODING 72
SWIDTH 600 0
DWIDTH 14 0
BBX 14 15 0 0
BITMAP
FCFC
FCFC
3030
3030
3030
3030
3FF0
3FF0
3030
3030
3030
3030
3030
FCFC
FCFC
ENDCHAR
STARTCHAR I
ENCODING 73
SWIDTH 600 0
DWIDTH 14 0
BBX 10 15 2 0
BITMAP
FFC0
FFC0
0C00
0C00
0C00
0C00
0C00
0C00
0C00
0C00
0C00
0C00
0C00
FFC0
FFC0
ENDCHAR
STARTCHAR J
ENCODING 74
SWIDTH 600 0
DWIDTH 14 0
BBX 12 15 1 0
BITMAP
1FF0
1FF0
00C0
00C0
00C0
00C0
00C0
00C0
00C0
00C0
C0C0
C1C0
E180
7F80
3F00
ENDCHAR
STARTCHAR K
ENCODING 75
SWIDTH 600 0
DWIDTH 14 0
BBX 14 15 0 0
BITMAP
FCFC
FCFC
3070
30E0
31C0
3380
3700
3E00
3F00
3380
31C0
30E0
3070
FC3C
FC1C
ENDCHAR
STARTCHAR L
ENCODING 76
SWIDTH 600 0
DWIDTH 14 0
BBX 12 15 1 0
BITMAP
FE00
FE00
3000
3000
3000
3000
3000
3000
3000
3000
3030
3030
3030
FFF0
FFF0
ENDCHAR
STARTCHAR M
ENCODING 77
SWIDTH 600 0
DWIDTH 14 0
BBX 14 15 0 0
BITMAP
F03C
F87C
3870
3CF0
3CF0
34B0
37B0
37B0
3330
3330
3030
3030
3030
FCFC
FCFC
ENDCHAR
STARTCHAR N
ENCODING 78
SWIDTH 600 0
DWIDTH 14 0
BBX 14 15 0 0
BITMAP
F0FC
F8FC
3830
3C30
3C30
3630
3630
3330
3330
31B0
31B0
30F0
30F0
FC70
FC70
ENDCHAR
STARTCHAR O
ENCODING 79
SWIDTH 600 0
DWIDTH 14 0
BBX 12 15 1 0
BITMAP
0F00
3FC0
70E0
6060
C030
C030
C030
C030
C030
C030
C030
6060
70E0
3FC0
0F00
ENDCHAR
STARTCHAR P
ENCODING 80
SWIDTH 600 0
DWIDTH 14 0
BBX 11 15 1 0
BITMAP
FF00
FFC0
30C0
3060
3060
3060
30C0
3FC0
3F00
3000
3000
3000
3000
FE00
FE00
ENDCHAR
STARTCHAR Q
ENCODING 81
SWIDTH 600 0
DWIDTH 14 0
BBX 12 19 1 -4
BITMAP
0F00
3FC0
70E0
6060
C030
C030
C030
C030
C030
C030
C030
6060
70E0
3FC0
1F00
0800
1F30
3FF0
31E0
ENDCHAR
STARTCHAR R
ENCODING 82
SWIDTH 600 0
DWIDTH 14 0
BBX 13 15 0 0
BITMAP
FF00
FFC0
30C0
3060
3060
3060
30C0
3FC0
3F80
31C0
30E0
3060
3070
FC38
FC38
ENDCHAR
STARTCHAR S
ENCODING 83
SWIDTH 600 0
DWIDTH 14 0
BBX 10 15 2 0
BITMAP
1EC0
7FC0
E1C0
C0C0
C000
E000
7C00
1F00
0380
01C0
00C0
C0C0
E1C0
FF80
DE00
ENDCHAR
STARTCHAR T
ENCODING 84
SWIDTH 600 0
DWIDTH 14 0
BBX 12 15 1 0
BITMAP
FFF0
FFF0
C630
C630
C630
0600
0600
0600
0600
0600
0600
0600
0600
3FC0
3FC0
ENDCHAR
STARTCHAR U
ENCODING 85
SWIDTH 600 0
DWIDTH 14 0
BBX 14 15 0 0
BITMAP
FCFC
FCFC
3030
3030
3030
3030
3030
3030
3030
3030
3030
3030
1860
1FE0
0780
ENDCHAR
STARTCHAR V
ENCODING 86
SWIDTH 600 0
DWIDTH 14 0
BBX 14 15 0 0
BITMAP
FCFC
FCFC
3030
3030
1860
1860
1860
0CC0
0CC0
0CC0
0780
0780
0300
0300
0300
ENDCHAR
STARTCHAR W
ENCODING 87
SWIDTH 600 0
DWIDTH 14 0
BBX 14 15 0 0
BITMAP
F8FC
F8FC
6030
6030
6230
6730
3760
3760
3DE0
3DE0
3DE0
18C0
18C0
18C0
18C0
ENDCHAR
STARTCHAR X
ENCODING 88
SWIDTH 600 0
DWIDTH 14 0
BBX 13 15 0 0
BITMAP
FDF8
FDF8
3060
18C0
18C0
0D80
0700
0700
0700
0D80
18C0
18C0
3060
FDF8
FDF8
ENDCHAR
STARTCHAR Y
ENCODING 89
SWIDTH 600 0
DWIDTH 14 0
BBX 14 15 0 0
BITMAP
FCFC
FCFC
3030
3030
1860
0CC0
0FC0
0780
0300
0300
0300
0300
0300
1FE0
1FE0
ENDCHAR
STARTCHAR Z
ENCODING 90
SWIDTH 600 0
DWIDTH 14 0
BBX 11 15 1 0
BITMAP
FFE0
FFE0
C1C0
C180
C300
0300
0600
0E00
0C00
1800
1860
3060
7060
FFE0
FFE0
ENDCHAR
STARTCHAR bracketleft
ENCODING 91
SWIDTH 600 0
DWIDTH 14 0
BBX 5 20 4 -5
BITMAP
F8
F8
C0
C0
C0
C0
C0
C0
C0
C0
C0
C0
C0
C0
C0
C0
C0
C0
F8
F8
ENDCHAR
STARTCHAR backslash
ENCODING 92
SWIDTH 600 0
DWIDTH 14 0
BBX 6 15 4 0
BITMAP
C0
C0
C0
60
60
60
30
30
30
18
18
18
0C
0C
0C
ENDCHAR
STARTCHAR bracketright
ENCODING 93
SWIDTH 600 0
DWIDTH 14 0
BBX 5 20 4 -5
BITMAP
F8
F8
18
18
18
18
18
18
18
18
18
18
18
18
18
18
18
18
F8
F8
ENDCHAR
STARTCHAR asciicircum
ENCODING 94
SWIDTH 600 0
DWIDTH 14 0
BBX 9 6 2 9
BITMAP
0800
1C00
3600
6300
C180
8080
ENDCHAR
STARTCHAR underscore
ENCODING 95
SWIDTH 600 0
DWIDTH 14 0
BBX 14 2 0 -4
BITMAP
FFFC
FFFC
ENDCHAR
STARTCHAR grave
ENCODING 96
SWIDTH 600 0
DWIDTH 14 0
BBX 5 4 4 11
BITMAP
C0
60
30
18
ENDCHAR
STARTCHAR a
ENCODING 97
SWIDTH 600 0
DWIDTH 14 0
BBX 11 10 1 0
BITMAP
3F00
7F80
6180
0180
3F80
7F80
C180
C380
FFE0
7DE0
ENDCHAR
STARTCHAR b
ENCODING 98
SWIDTH 600 0
DWIDTH 14 0
BBX 12 15 1 0
BITMAP
F000
F000
3000
3000
3000
3780
3FE0
3860
3030
3030
3030
3030
3860
FFE0
F780
ENDCHAR
STARTCHAR c
ENCODING 99
SWIDTH 600 0
DWIDTH 14 0
BBX 10 10 2 0
BITMAP
1EC0
7FC0
61C0
C0C0
C000
C000
C0C0
6180
7F80
1E00
ENDCHAR
STARTCHAR d
ENCODING 100
SWIDTH 600 0
DWIDTH 14 0
BBX 12 15 1 0
BITMAP
03C0
03C0
00C0
00C0
00C0
1EC0
7FC0
61C0
C0C0
C0C0
C0C0
C0C0
61C0
7FF0
1E70
ENDCHAR
STARTCHAR e
ENCODING 101
SWIDTH 600 0
DWIDTH 14 0
BBX 10 10 2 0
BITMAP
1E00
7F80
6180
C0C0
FFC0
FFC0
C000
61C0
7F80
1E00
ENDCHAR
STARTCHAR f
ENCODING 102
SWIDTH 600 0
DWIDTH 14 0
BBX 9 15 2 0
BITMAP
0780
0F80
1800
1800
1800
FF80
FF80
1800
1800
1800
1800
1800
1800
FF80
FF80
ENDCHAR
STARTCHAR g
ENCODING 103
SWIDTH 600 0
DWIDTH 14 0
BBX 12 15 1 -5
BITMAP
1EF0
7FF0
61C0
C0C0
C0C0
C0C0
C0C0
61C0
7FC0
1EC0
00C0
00C0
0180
7F80
7E00
ENDCHAR
STARTCHAR h
ENCODING 104
SWIDTH 600 0
DWIDTH 14 0
BBX 13 15 0 0
BITMAP
F000
F000
3000
3000
3000
3780
3FC0
38E0
3060
3060
3060
3060
3060
FDF8
FDF8
ENDCHAR
STARTCHAR i
ENCODING 105
SWIDTH 600 0
DWIDTH 14 0
BBX 10 15 2 0
BITMAP
0C00
0C00
0C00
0000
0000
7C00
7C00
0C00
0C00
0C00
0C00
0C00
0C00
FFC0
FFC0
ENDCHAR
STARTCHAR j
ENCODING 106
SWIDTH 600 0
DWIDTH 14 0
BBX 8 20 3 -5
BITMAP
03
03
03
00
00
FF
FF
03
03
03
03
03
03
03
03
03
03
06
FE
F8
ENDCHAR
STARTCHAR k
ENCODING 107
SWIDTH 600 0
DWIDTH 14 0
BBX 12 15 1 0
BITMAP
F000
F000
3000
3000
33F0
33F0
31C0
3380
3700
3E00
3F00
3380
31C0
FBF0
FBF0
ENDCHAR
STARTCHAR l
ENCODING 108
SWIDTH 600 0
DWIDTH 14 0
BBX 10 15 2 0
BITMAP
7C00
7C00
0C00
0C00
0C00
0C00
0C00
0C00
0C00
0C00
0C00
0C00
0C00
FFC0
FFC0
ENDCHAR
STARTCHAR m
ENCODING 109
SWIDTH 600 0
DWIDTH 14 0
BBX 14 10 0 0
BITMAP
EE70
FFF8
7398
6318
6318
6318
6318
6318
F7BC
F7BC
ENDCHAR
STARTCHAR n
ENCODING 110
SWIDTH 600 0
DWIDTH 14 0
BBX 13 10 0 0
BITMAP
F780
FFC0
38E0
3060
3060
3060
3060
3060
FDF8
FDF8
ENDCHAR
STARTCHAR o
ENCODING 111
SWIDTH 600 0
DWIDTH 14 0
BBX 10 10 2 0
BITMAP
1E00
7F80
6180
C0C0
C0C0
C0C0
C0C0
6180
7F80
1E00
ENDCHAR
STARTCHAR p
ENCODING 112
SWIDTH 600 0
DWIDTH 14 0
BBX 12 15 0 -5
BITMAP
F7C0
FFE0
3870
3030
3030
3030
3030
3870
3FE0
37C0
3000
3000
3000
FE00
FE00
ENDCHAR
STARTCHAR q
ENCODING 113
SWIDTH 600 0
DWIDTH 14 0
BBX 12 15 1 -5
BITMAP
1EF0
7FF0
61C0
C0C0
C0C0
C0C0
C0C0
61C0
7FC0
1EC0
00C0
00C0
00C0
07F0
07F0
ENDCHAR
STARTCHAR r
ENCODING 114
SWIDTH 600 0
DWIDTH 14 0
BBX 11 10 1 0
BITMAP
79C0
7FE0
1C60
1800
1800
1800
1800
1800
FF80
FF80
ENDCHAR
STARTCHAR s
ENCODING 115
SWIDTH 600 0
DWIDTH 14 0
BBX 9 10 2 0
BITMAP
3E80
7F80
C180
E000
7E00
1F00
C180
C180
FF00
BE00
ENDCHAR
STARTCHAR t
ENCODING 116
SWIDTH 600 0
DWIDTH 14 0
BBX 10 13 2 0
BITMAP
3000
3000
3000
FF80
FF80
3000
3000
3000
3000
3000
30C0
3FC0
1F00
ENDCHAR
STARTCHAR u
ENCODING 117
SWIDTH 600 0
DWIDTH 14 0
BBX 13 10 0 0
BITMAP
F1E0
F1E0
3060
3060
3060
3060
3060
30E0
3FF8
1F78
ENDCHAR
STARTCHAR v
ENCODING 118
SWIDTH 600 0
DWIDTH 14 0
BBX 12 10 1 0
BITMAP
F9F0
F9F0
30C0
30C0
1980
1980
0F00
0F00
0600
0600
ENDCHAR
STARTCHAR w
ENCODING 119
SWIDTH 600 0
DWIDTH 14 0
BBX 14 10 0 0
BITMAP
FCFC
FCFC
3030
3330
3330
1B60
1FE0
0CC0
0CC0
0CC0
ENDCHAR
STARTCHAR x
ENCODING 120
SWIDTH 600 0
DWIDTH 14 0
BBX 11 10 1 0
BITMAP
F1E0
F1E0
3180
1B00
0E00
0E00
1B00
3180
F1E0
F1E0
ENDCHAR
STARTCHAR y
ENCODING 121
SWIDTH 600 0
DWIDTH 14 0
BBX 13 15 0 -5
BITMAP
F9F8
F9F8
3060
18C0
18C0
0D80
0D80
0700
0300
0600
0600
0C00
0C00
7E00
7E00
ENDCHAR
STARTCHAR z
ENCODING 122
SWIDTH 600 0
DWIDTH 14 0
BBX 10 10 1 0
BITMAP
FFC0
FFC0
C180
C300
0E00
1C00
30C0
60C0
FFC0
FFC0
ENDCHAR
STARTCHAR braceleft
ENCODING 123
SWIDTH 600 0
DWIDTH 14 0
BBX 8 20 3 -5
BITMAP
0F
1C
18
18
18
18
18
18
18
10
E0
10
18
18
18
18
18
18
1C
0F
ENDCHAR
STARTCHAR bar
ENCODING 124
SWIDTH 600 0
DWIDTH 14 0
BBX 2 20 6 -5
BITMAP
C0
C0
C0
C0
C0
C0
C0
C0
C0
C0
C0
C0
C0
C0
C0
C0
C0
C0
C0
C0
ENDCHAR
STARTCHAR braceright
ENCODING 125
SWIDTH 600 0
DWIDTH 14 0
BBX 8 20 3 -5
BITMAP
F0
38
18
18
18
18
18
18
18
08
07
08
18
18
18
18
18
18
38
F0
ENDCHAR
STARTCHAR asciitilde
ENCODING 126
SWIDTH 600 0
DWIDTH 14 0
BBX 11 4 1 4
BITMAP
3820
7C60
C7C0
8380
ENDCHAR
STARTCHAR Adieresis
ENCODING 128
SWIDTH 600 0
DWIDTH 14 0
BBX 14 17 0 0
BITMAP
18C0
18C0
0000
7F00
7F00
0F80
0D80
1DC0
18C0
38C0
3060
3FE0
7FF0
6030
6030
F8FC
F8FC
ENDCHAR
STARTCHAR Aring
ENCODING 129
SWIDTH 600 0
DWIDTH 14 0
BBX 14 17 0 0
BITMAP
0700
0D80
0D80
0700
0700
0F80
0D80
18C0
18C0
38C0
3060
3FE0
7FF0
6030
6030
F8FC
F8FC
ENDCHAR
STARTCHAR Ccedilla
ENCODING 130
SWIDTH 600 0
DWIDTH 14 0
BBX 12 20 1 -5
BITMAP
0FB0
3FF0
7870
6030
C030
C000
C000
C000
C000
C000
C000
6030
7870
3FE0
0FC0
0200
0300
0980
0F80
0700
ENDCHAR
STARTCHAR Eacute
ENCODING 131
SWIDTH 600 0
DWIDTH 14 0
BBX 12 17 1 0
BITMAP
0180
0300
0600
FFF0
FFF0
3030
3330
3330
3F00
3F00
3300
3300
3030
3030
3030
FFF0
FFF0
ENDCHAR
STARTCHAR Ntilde
ENCODING 132
SWIDTH 600 0
DWIDTH 14 0
BBX 14 17 0 0
BITMAP
0E40
1FC0
1380
F0FC
F8FC
3830
3C30
3630
3630
3330
3330
31B0
31B0
30F0
30F0
FC70
FC70
ENDCHAR
STARTCHAR Odieresis
ENCODING 133
SWIDTH 600 0
DWIDTH 14 0
BBX 12 17 1 0
BITMAP
1980
1980
0000
0F00
3FC0
70E0
6060
C030
C030
C030
C030
C030
C030
6060
70E0
3FC0
0F00
ENDCHAR
STARTCHAR Udieresis
ENCODING 134
SWIDTH 600 0
DWIDTH 14 0
BBX 14 17 0 0
BITMAP
0CC0
0CC0
0000
FCFC
FCFC
3030
3030
3030
3030
3030
3030
3030
3030
3030
1860
1FE0
0780
ENDCHAR
STARTCHAR aacute
ENCODING 135
SWIDTH 600 0
DWIDTH 14 0
BBX 11 15 1 0
BITMAP
0180
0300
0600
0C00
0000
3F00
7F80
6180
0180
3F80
7F80
C180
C380
FFE0
7DE0
ENDCHAR
STARTCHAR agrave
ENCODING 136
SWIDTH 600 0
DWIDTH 14 0
BBX 11 15 1 0
BITMAP
3000
1800
0C00
0600
0000
3F00
7F80
6180
0180
3F80
7F80
C180
C380
FFE0
7DE0
ENDCHAR
STARTCHAR acircumflex
ENCODING 137
SWIDTH 600 0
DWIDTH 14 0
BBX 11 15 1 0
BITMAP
0C00
1E00
3300
2100
0000
3F00
7F80
6180
0180
3F80
7F80
C180
C380
FFE0
7DE0
ENDCHAR
STARTCHAR adieresis
ENCODING 138
SWIDTH 600 0
DWIDTH 14 0
BBX 11 15 1 0
BITMAP
3300
3300
3300
0000
0000
3F00
7F80
6180
0180
3F80
7F80
C180
C380
FFE0
7DE0
ENDCHAR
STARTCHAR atilde
ENCODING 139
SWIDTH 600 0
DWIDTH 14 0
BBX 11 15 1 0
BITMAP
1C80
3F80
2700
0000
0000
3F00
7F80
6180
0180
3F80
7F80
C180
C380
FFE0
7DE0
ENDCHAR
STARTCHAR aring
ENCODING 140
SWIDTH 600 0
DWIDTH 14 0
BBX 11 16 1 0
BITMAP
0E00
1B00
1100
1B00
0E00
0000
3F00
7F80
6180
0180
3F80
7F80
C180
C380
FFE0
7DE0
ENDCHAR
STARTCHAR ccedilla
ENCODING 141
SWIDTH 600 0
DWIDTH 14 0
BBX 10 14 2 -4
BITMAP
1EC0
7FC0
61C0
C0C0
C000
C000
C0C0
6180
7F80
1E00
0600
1300
1F00
0E00
ENDCHAR
STARTCHAR eacute
ENCODING 142
SWIDTH 600 0
DWIDTH 14 0
BBX 10 15 2 0
BITMAP
0180
0300
0600
0C00
0000
1E00
7F80
6180
C0C0
FFC0
FFC0
C000
61C0
7F80
1E00
ENDCHAR
STARTCHAR egrave
ENCODING 143
SWIDTH 600 0
DWIDTH 14 0
BBX 10 15 2 0
BITMAP
6000
3000
1800
0C00
0000
1E00
7F80
6180
C0C0
FFC0
FFC0
C000
61C0
7F80
1E00
ENDCHAR
STARTCHAR ecircumflex
ENCODING 144
SWIDTH 600 0
DWIDTH 14 0
BBX 10 15 2 0
BITMAP
0C00
1E00
3300
2100
0000
1E00
7F80
6180
C0C0
FFC0
FFC0
C000
61C0
7F80
1E00
ENDCHAR
STARTCHAR edieresis
ENCODING 145
SWIDTH 600 0
DWIDTH 14 0
BBX 10 15 2 0
BITMAP
3300
3300
3300
0000
0000
1E00
7F80
6180
C0C0
FFC0
FFC0
C000
61C0
7F80
1E00
ENDCHAR
STARTCHAR iacute
ENCODING 146
SWIDTH 600 0
DWIDTH 14 0
BBX 10 15 2 0
BITMAP
0180
0300
0600
0C00
0000
7C00
7C00
0C00
0C00
0C00
0C00
0C00
0C00
FFC0
FFC0
ENDCHAR
STARTCHAR igrave
ENCODING 147
SWIDTH 600 0
DWIDTH 14 0
BBX 10 15 2 0
BITMAP
6000
3000
1800
0C00
0000
7C00
7C00
0C00
0C00
0C00
0C00
0C00
0C00
FFC0
FFC0
ENDCHAR
STARTCHAR icircumflex
ENCODING 148
SWIDTH 600 0
DWIDTH 14 0
BBX 10 16 2 0
BITMAP
0C00
1E00
3300
2100
0000
0000
7C00
7C00
0C00
0C00
0C00
0C00
0C00
0C00
FFC0
FFC0
ENDCHAR
STARTCHAR idieresis
ENCODING 149
SWIDTH 600 0
DWIDTH 14 0
BBX 10 15 2 0
BITMAP
3300
3300
3300
0000
0000
7C00
7C00
0C00
0C00
0C00
0C00
0C00
0C00
FFC0
FFC0
ENDCHAR
STARTCHAR ntilde
ENCODING 150
SWIDTH 600 0
DWIDTH 14 0
BBX 13 15 0 0
BITMAP
1C80
3F80
2700
0000
0000
F780
FFC0
38E0
3060
3060
3060
3060
3060
FDF8
FDF8
ENDCHAR
STARTCHAR oacute
ENCODING 151
SWIDTH 600 0
DWIDTH 14 0
BBX 10 15 2 0
BITMAP
0180
0300
0600
0C00
0000
1E00
7F80
6180
C0C0
C0C0
C0C0
C0C0
6180
7F80
1E00
ENDCHAR
STARTCHAR ograve
ENCODING 152
SWIDTH 600 0
DWIDTH 14 0
BBX 10 15 2 0
BITMAP
3000
1800
0C00
0600
0000
1E00
7F80
6180
C0C0
C0C0
C0C0
C0C0
6180
7F80
1E00
ENDCHAR
STARTCHAR ocircumflex
ENCODING 153
SWIDTH 600 0
DWIDTH 14 0
BBX 10 15 2 0
BITMAP
0C00
1E00
3300
2100
0000
1E00
7F80
6180
C0C0
C0C0
C0C0
C0C0
6180
7F80
1E00
ENDCHAR
STARTCHAR odieresis
ENCODING 154
SWIDTH 600 0
DWIDTH 14 0
BBX 10 14 2 0
BITMAP
3300
3300
3300
0000
1E00
7F80
6180
C0C0
C0C0
C0C0
C0C0
6180
7F80
1E00
ENDCHAR
STARTCHAR otilde
ENCODING 155
SWIDTH 600 0
DWIDTH 14 0
BBX 10 14 2 0
BITMAP
3900
7F00
4E00
0000
1E00
7F80
6180
C0C0
C0C0
C0C0
C0C0
6180
7F80
1E00
ENDCHAR
STARTCHAR uacute
ENCODING 156
SWIDTH 600 0
DWIDTH 14 0
BBX 13 15 0 0
BITMAP
00C0
0180
0300
0600
0000
F1E0
F1E0
3060
3060
3060
3060
3060
30E0
3FF8
1F78
ENDCHAR
STARTCHAR ugrave
ENCODING 157
SWIDTH 600 0
DWIDTH 14 0
BBX 13 15 0 0
BITMAP
3000
1800
0C00
0600
0000
F1E0
F1E0
3060
3060
3060
3060
3060
30E0
3FF8
1F78
ENDCHAR
STARTCHAR ucircumflex
ENCODING 158
SWIDTH 600 0
DWIDTH 14 0
BBX 13 15 0 0
BITMAP
0600
0F00
1980
1080
0000
F1E0
F1E0
3060
3060
3060
3060
3060
30E0
3FF8
1F78
ENDCHAR
STARTCHAR udieresis
ENCODING 159
SWIDTH 600 0
DWIDTH 14 0
BBX 13 15 0 0
BITMAP
1980
1980
1980
0000
0000
F1E0
F1E0
3060
3060
3060
3060
3060
30E0
3FF8
1F78
ENDCHAR
STARTCHAR dagger
ENCODING 160
SWIDTH 600 0
DWIDTH 14 0
BBX 10 15 2 0
BITMAP
0C00
0C00
0C00
0C00
FFC0
FFC0
0C00
0C00
0C00
0C00
0C00
0C00
0C00
0C00
0C00
ENDCHAR
STARTCHAR degree
ENCODING 161
SWIDTH 400 0
DWIDTH 10 0
BBX 6 6 2 10
BITMAP
78
CC
84
84
CC
78
ENDCHAR
STARTCHAR cent
ENCODING 162
SWIDTH 600 0
DWIDTH 14 0
BBX 9 15 2 0
BITMAP
0C00
0C00
0C00
1E00
7F80
6180
C000
C000
C000
6180
7F80
1E00
0C00
0C00
0C00
ENDCHAR
STARTCHAR sterling
ENCODING 163
SWIDTH 600 0
DWIDTH 14 0
BBX 9 15 2 0
BITMAP
3C00
7F00
E300
C000
C000
C000
6000
FE00
FE00
3000
3000
3000
3000
FF80
FF80
ENDCHAR
STARTCHAR section
ENCODING 164
SWIDTH 600 0
DWIDTH 14 0
BBX 9 18 2 -3
BITMAP
3E00
7F00
E380
C180
E000
7800
DE00
C700
C180
E180
7980
1F80
0700
0180
C180
E380
7F00
3E00
ENDCHAR
STARTCHAR bullet
ENCODING 165
SWIDTH 600 0
DWIDTH 14 0
BBX 6 6 4 4
BITMAP
78
FC
FC
FC
FC
78
ENDCHAR
STARTCHAR paragraph
ENCODING 166
SWIDTH 600 0
DWIDTH 14 0
BBX 10 15 2 0
BITMAP
3FC0
7D00
FD00
FD00
FD00
7D00
3D00
0500
0500
0500
0500
0500
0500
0500
0500
ENDCHAR
STARTCHAR germandbls
ENCODING 167
SWIDTH 600 0
DWIDTH 14 0
BBX 12 15 1 0
BITMAP
0F80
1FC0
30E0
3060
3060
3060
33C0
33E0
3070
3030
3030
3030
3030
F3E0
F3C0
ENDCHAR
STARTCHAR registered
ENCODING 168
SWIDTH 600 0
DWIDTH 19 0
BBX 16 16 1 0
BITMAP
07E0
1818
2004
5FE2
4C72
8C31
8C31
8FE1
8CC1
8C61
8C61
4C32
5F3A
2004
1818
07E0
ENDCHAR
STARTCHAR copyright
ENCODING 169
SWIDTH 600 0
DWIDTH 19 0
BBX 16 16 1 0
BITMAP
07E0
1818
2004
43B2
47F2
8C71
9831
9801
9801
9801
8C31
47F2
43C2
2004
1818
07E0
ENDCHAR
STARTCHAR trademark
ENCODING 170
SWIDTH 600 0
DWIDTH 21 0
BBX 21 7 0 8
BITMAP
FF7038
993870
9934B0
183330
183330
183030
7E7878
ENDCHAR
STARTCHAR acute
ENCODING 171
SWIDTH 600 0
DWIDTH 14 0
BBX 5 4 4 11
BITMAP
18
30
60
C0
ENDCHAR
STARTCHAR dieresis
ENCODING 172
SWIDTH 600 0
DWIDTH 14 0
BBX 7 3 3 12
BITMAP
C6
C6
C6
ENDCHAR
STARTCHAR notequal
ENCODING 173
SWIDTH 549 0
DWIDTH 13 0
BBX 11 10 1 1
BITMAP
0060
00C0
FFE0
FFE0
0600
0C00
FFE0
FFE0
6000
C000
ENDCHAR
STARTCHAR AE
ENCODING 174
SWIDTH 600 0
DWIDTH 14 0
BBX 14 15 0 0
BITMAP
07FC
07FC
078C
0D8C
0DB0
19B0
19F0
31F0
3FB0
7FB0
6180
E18C
C18C
F1FC
F1FC
ENDCHAR
STARTCHAR Oslash
ENCODING 175
SWIDTH 600 0
DWIDTH 14 0
BBX 12 17 1 -1
BITMAP
0030
0F70
3FE0
70E0
61A0
C1B0
C330
C730
C630
CC30
CC30
D830
5860
70E0
7FC0
EF00
C000
ENDCHAR
STARTCHAR infinity
ENCODING 176
SWIDTH 713 0
DWIDTH 17 0
BBX 14 8 1 3
BITMAP
3870
7CF8
C78C
C30C
C30C
C78C
7CF8
3870
ENDCHAR
STARTCHAR plusminus
ENCODING 177
SWIDTH 549 0
DWIDTH 14 0
BBX 10 13 2 0
BITMAP
0C00
0C00
0C00
0C00
FFC0
FFC0
0C00
0C00
0C00
0C00
0000
FFC0
FFC0
ENDCHAR
STARTCHAR lessequal
ENCODING 178
SWIDTH 549 0
DWIDTH 14 0
BBX 10 12 2 0
BITMAP
00C0
03C0
0F00
3C00
F000
3C00
0F00
03C0
00C0
0000
FFC0
FFC0
ENDCHAR
STARTCHAR greaterequal
ENCODING 179
SWIDTH 549 0
DWIDTH 14 0
BBX 10 12 2 0
BITMAP
C000
F000
3C00
0F00
03C0
0F00
3C00
F000
C000
0000
FFC0
FFC0
ENDCHAR
STARTCHAR yen
ENCODING 180
SWIDTH 600 0
DWIDTH 14 0
BBX 14 15 0 0
BITMAP
FCFC
FCFC
3030
3030
1860
7CF8
7FF8
0780
0300
7FF8
7FF8
0300
0300
1FE0
1FE0
ENDCHAR
STARTCHAR mu
ENCODING 181
SWIDTH 576 0
DWIDTH 14 0
BBX 13 15 0 -5
BITMAP
0C18
0C18
0C18
1830
1830
1830
3060
3860
3FF8
6FB8
6000
6000
C000
C000
C000
ENDCHAR
STARTCHAR partialdiff
ENCODING 182
SWIDTH 494 0
DWIDTH 12 0
BBX 12 16 0 0
BITMAP
07C0
1FE0
1870
0030
0030
0030
0F30
3FB0
70F0
E060
C060
C060
C0C0
E1C0
7F80
3E00
ENDCHAR
STARTCHAR summation
ENCODING 183
SWIDTH 713 0
DWIDTH 17 0
BBX 12 21 1 -5
BITMAP
FFF0
FFF0
C030
E030
7030
3800
1C00
0E00
0700
0380
0180
0380
0700
0E00
1C00
3800
7030
E030
C030
FFF0
FFF0
ENDCHAR
STARTCHAR product
ENCODING 184
SWIDTH 823 0
DWIDTH 20 0
BBX 18 21 1 -5
BITMAP
FFFFC0
FFFFC0
180600
180600
180600
180600
180600
180600
180600
180600
180600
180600
180600
180600
180600
180600
180600
180600
180600
FF3FC0
FF3FC0
ENDCHAR
STARTCHAR pi
ENCODING 185
SWIDTH 549 0
DWIDTH 14 0
BBX 13 10 1 0
BITMAP
FFF8
FFF8
3060
3060
60C0
60C0
60C0
C180
C1E0
C1E0
ENDCHAR
STARTCHAR integral
ENCODING 186
SWIDTH 274 0
DWIDTH 7 0
BBX 7 21 0 -5
BITMAP
06
0E
1C
18
18
18
18
18
18
18
18
18
18
18
18
18
18
38
30
F0
E0
ENDCHAR
STARTCHAR ordfeminine
ENCODING 187
SWIDTH 600 0
DWIDTH 14 0
BBX 10 13 2 3
BITMAP
3E00
FF00
C300
3F00
7F00
C300
C300
7FC0
3DC0
0000
0000
FFC0
FFC0
ENDCHAR
STARTCHAR ordmasculine
ENCODING 188
SWIDTH 600 0
DWIDTH 14 0
BBX 10 13 2 3
BITMAP
1E00
7F80
6180
C0C0
C0C0
C0C0
6180
7F80
1E00
0000
0000
FFC0
FFC0
ENDCHAR
STARTCHAR Omega
ENCODING 189
SWIDTH 768 0
DWIDTH 18 0
BBX 15 15 1 0
BITMAP
07C0
1FF0
3838
3018
600C
600C
600C
600C
600C
701C
3838
1C70
CC66
FC7E
FC7E
ENDCHAR
STARTCHAR ae
ENCODING 190
SWIDTH 600 0
DWIDTH 14 0
BBX 14 10 0 0
BITMAP
3CE0
7FF8
6318
030C
3FFC
7FFC
C300
C79C
FFF8
7CF0
ENDCHAR
STARTCHAR oslash
ENCODING 191
SWIDTH 600 0
DWIDTH 14 0
BBX 12 12 1 -1
BITMAP
0020
0F70
3FE0
31C0
63E0
6760
6E60
7C60
38C0
7FC0
EF00
4000
ENDCHAR
STARTCHAR questiondown
ENCODING 192
SWIDTH 600 0
DWIDTH 14 0
BBX 9 15 2 0
BITMAP
0C00
1E00
1E00
0C00
0000
0C00
1C00
3800
7000
E000
C000
C180
E380
7F00
3E00
ENDCHAR
STARTCHAR exclamdown
ENCODING 193
SWIDTH 600 0
DWIDTH 14 0
BBX 4 15 5 0
BITMAP
60
F0
F0
60
00
60
60
60
60
60
60
60
60
60
60
ENDCHAR
STARTCHAR logicalnot
ENCODING 194
SWIDTH 600 0
DWIDTH 17 0
BBX 10 6 3 1
BITMAP
FFC0
FFC0
00C0
00C0
00C0
00C0
ENDCHAR
STARTCHAR radical
ENCODING 195
SWIDTH 549 0
DWIDTH 13 0
BBX 13 16 0 0
BITMAP
0018
0018
0030
0030
0060
0060
00C0
00C0
6180
E180
B300
3300
1E00
1E00
0C00
0C00
ENDCHAR
STARTCHAR florin
ENCODING 196
SWIDTH 600 0
DWIDTH 14 0
BBX 13 19 0 -4
BITMAP
0078
01F8
0180
0300
0300
0300
1FC0
1FC0
0300
0300
0300
0300
0700
0600
0600
0600
0C00
FC00
F000
ENDCHAR
STARTCHAR approxequal
ENCODING 197
SWIDTH 549 0
DWIDTH 13 0
BBX 10 7 1 3
BITMAP
7840
FFC0
8780
0000
7840
FFC0
8780
ENDCHAR
STARTCHAR Delta
ENCODING 198
SWIDTH 612 0
DWIDTH 15 0
BBX 13 15 1 0
BITMAP
0200
0200
0700
0700
0D80
0D80
18C0
18C0
18C0
3060
3060
3070
6030
FFF8
FFF8
ENDCHAR
STARTCHAR guillemotleft
ENCODING 199
SWIDTH 600 0
DWIDTH 14 0
BBX 11 9 1 1
BITMAP
0C60
18C0
3180
6300
C600
6300
3180
18C0
0C60
ENDCHAR
STARTCHAR guillemotright
ENCODING 200
SWIDTH 600 0
DWIDTH 14 0
BBX 11 9 1 1
BITMAP
C600
6300
3180
18C0
0C60
18C0
3180
6300
C600
ENDCHAR
STARTCHAR ellipsis
ENCODING 201
SWIDTH 600 0
DWIDTH 14 0
BBX 12 3 1 0
BITMAP
C630
C630
C630
ENDCHAR
STARTCHAR nbspace
ENCODING 202
SWIDTH 600 0
DWIDTH 14 0
BBX 0 0 0 -5
BITMAP
ENDCHAR
STARTCHAR Agrave
ENCODING 203
SWIDTH 600 0
DWIDTH 14 0
BBX 14 17 0 0
BITMAP
1800
0C00
0600
7F00
7F00
0F80
0D80
18C0
18C0
38C0
3060
3FE0
7FF0
6030
6030
F8FC
F8FC
ENDCHAR
STARTCHAR Atilde
ENCODING 204
SWIDTH 600 0
DWIDTH 14 0
BBX 14 17 0 0
BITMAP
0E40
1FC0
1380
7F00
7F00
0F80
0D80
18C0
18C0
38C0
3060
3FE0
7FF0
6030
6030
F8FC
F8FC
ENDCHAR
STARTCHAR Otilde
ENCODING 205
SWIDTH 600 0
DWIDTH 14 0
BBX 12 17 1 0
BITMAP
0E40
1FC0
1380
0F00
3FC0
70E0
6060
C030
C030
C030
C030
C030
C030
6060
70E0
3FC0
0F00
ENDCHAR
STARTCHAR OE
ENCODING 206
SWIDTH 600 0
DWIDTH 14 0
BBX 14 15 0 0
BITMAP
0FFC
3FFC
718C
618C
C1B0
C1B0
C1F0
C1F0
C1B0
C1B0
C180
618C
718C
3FFC
0FFC
ENDCHAR
STARTCHAR oe
ENCODING 207
SWIDTH 600 0
DWIDTH 14 0
BBX 14 10 0 0
BITMAP
3CE0
7FF8
6718
C30C
C3FC
C3FC
C300
679C
7FF8
3DF0
ENDCHAR
STARTCHAR endash
ENCODING 208
SWIDTH 600 0
DWIDTH 14 0
BBX 10 2 2 5
BITMAP
FFC0
FFC0
ENDCHAR
STARTCHAR emdash
ENCODING 209
SWIDTH 600 0
DWIDTH 14 0
BBX 13 2 0 5
BITMAP
FFF8
FFF8
ENDCHAR
STARTCHAR quotedblleft
ENCODING 210
SWIDTH 600 0
DWIDTH 14 0
BBX 10 5 2 10
BITMAP
18C0
3180
7380
E700
E700
ENDCHAR
STARTCHAR quotedblright
ENCODING 211
SWIDTH 600 0
DWIDTH 14 0
BBX 10 5 2 10
BITMAP
39C0
39C0
7380
6300
C600
ENDCHAR
STARTCHAR quoteleft
ENCODING 212
SWIDTH 600 0
DWIDTH 14 0
BBX 5 5 4 10
BITMAP
18
30
70
E0
E0
ENDCHAR
STARTCHAR quoteright
ENCODING 213
SWIDTH 600 0
DWIDTH 14 0
BBX 5 5 4 10
BITMAP
38
38
70
60
C0
ENDCHAR
STARTCHAR divide
ENCODING 214
SWIDTH 549 0
DWIDTH 13 0
BBX 10 10 1 0
BITMAP
0C00
0C00
0C00
0000
FFC0
FFC0
0000
0C00
0C00
0C00
ENDCHAR
STARTCHAR lozenge
ENCODING 215
SWIDTH 494 0
DWIDTH 12 0
BBX 11 19 0 -3
BITMAP
0400
0400
0E00
1B00
1100
3180
2080
60C0
4040
C060
4040
60C0
2080
3180
1100
1B00
0E00
0400
0400
ENDCHAR
STARTCHAR ydieresis
ENCODING 216
SWIDTH 600 0
DWIDTH 14 0
BBX 13 20 0 -5
BITMAP
1980
1980
1980
0000
0000
F9F8
F9F8
3060
18C0
18C0
0D80
0D80
0700
0300
0600
0600
0C00
0C00
7E00
7E00
ENDCHAR
STARTCHAR Ydieresis
ENCODING 217
SWIDTH 600 0
DWIDTH 14 0
BBX 14 17 0 0
BITMAP
0CC0
0CC0
0000
FCFC
FCFC
3030
3030
1860
1CE0
0FC0
0780
0300
0300
0300
0300
1FE0
1FE0
ENDCHAR
STARTCHAR fraction
ENCODING 218
SWIDTH 600 0
DWIDTH 14 0
BBX 6 15 4 0
BITMAP
0C
0C
0C
18
18
18
30
30
30
60
60
60
C0
C0
C0
ENDCHAR
STARTCHAR currency
ENCODING 219
SWIDTH 600 0
DWIDTH 16 0
BBX 16 15 0 0
BITMAP
01F8
07FE
0F07
1C02
3800
7FFC
FFF8
3000
3000
7FF0
FFE0
1C02
0F06
07FC
01F8
ENDCHAR
STARTCHAR guilsinglleft
ENCODING 220
SWIDTH 600 0
DWIDTH 14 0
BBX 6 9 4 1
BITMAP
0C
18
30
60
C0
60
30
18
0C
ENDCHAR
STARTCHAR guilsinglright
ENCODING 221
SWIDTH 600 0
DWIDTH 14 0
BBX 6 9 4 1
BITMAP
C0
60
30
18
0C
18
30
60
C0
ENDCHAR
STARTCHAR fi
ENCODING 222
SWIDTH 600 0
DWIDTH 14 0
BBX 14 15 0 0
BITMAP
07E0
0FE0
1C60
1800
1800
FFE0
FFE0
1860
1860
1860
1860
1860
1860
FFFC
FFFC
ENDCHAR
STARTCHAR fl
ENCODING 223
SWIDTH 600 0
DWIDTH 14 0
BBX 14 15 0 0
BITMAP
07E0
0FE0
1C60
1860
1860
FF60
FF60
1860
1860
1860
1860
1860
1860
FFFC
FFFC
ENDCHAR
STARTCHAR daggerdbl
ENCODING 224
SWIDTH 600 0
DWIDTH 14 0
BBX 10 15 2 0
BITMAP
0C00
0C00
0C00
0C00
FFC0
FFC0
0C00
0C00
0C00
FFC0
FFC0
0C00
0C00
0C00
0C00
ENDCHAR
STARTCHAR periodcentered
ENCODING 225
SWIDTH 600 0
DWIDTH 14 0
BBX 4 4 5 5
BITMAP
60
F0
F0
60
ENDCHAR
STARTCHAR quotesinglbase
ENCODING 226
SWIDTH 600 0
DWIDTH 14 0
BBX 5 5 4 -3
BITMAP
38
38
70
60
C0
ENDCHAR
STARTCHAR quotedblbase
ENCODING 227
SWIDTH 600 0
DWIDTH 14 0
BBX 10 5 2 -3
BITMAP
39C0
39C0
7380
6300
C600
ENDCHAR
STARTCHAR perthousand
ENCODING 228
SWIDTH 600 0
DWIDTH 14 0
BBX 14 15 0 0
BITMAP
3800
6C18
4430
6C60
38C0
0180
0300
0600
0C00
1800
3738
6DEC
C8C4
0DEC
0738
ENDCHAR
STARTCHAR Acircumflex
ENCODING 229
SWIDTH 600 0
DWIDTH 14 0
BBX 14 17 0 0
BITMAP
0600
0F00
1980
7F00
7F00
0F80
0D80
18C0
18C0
38C0
3060
3FE0
7FF0
6030
6030
F8FC
F8FC
ENDCHAR
STARTCHAR Ecircumflex
ENCODING 230
SWIDTH 600 0
DWIDTH 14 0
BBX 12 17 1 0
BITMAP
0600
0F00
1980
FFF0
FFF0
3030
3330
3330
3F00
3F00
3300
3300
3030
3030
3030
FFF0
FFF0
ENDCHAR
STARTCHAR Aacute
ENCODING 231
SWIDTH 600 0
DWIDTH 14 0
BBX 14 17 0 0
BITMAP
0180
0300
0600
7F00
7F00
0F80
0D80
18C0
18C0
38C0
3060
3FE0
7FF0
6030
6030
F8FC
F8FC
ENDCHAR
STARTCHAR Edieresis
ENCODING 232
SWIDTH 600 0
DWIDTH 14 0
BBX 12 17 1 0
BITMAP
1980
1980
0000
FFF0
FFF0
3030
3330
3330
3F00
3F00
3300
3300
3030
3030
3030
FFF0
FFF0
ENDCHAR
STARTCHAR Egrave
ENCODING 233
SWIDTH 600 0
DWIDTH 14 0
BBX 12 17 1 0
BITMAP
1800
0C00
0600
FFF0
FFF0
3030
3330
3300
3F00
3F00
3300
3300
3030
3030
3030
FFF0
FFF0
ENDCHAR
STARTCHAR Iacute
ENCODING 234
SWIDTH 600 0
DWIDTH 14 0
BBX 10 17 2 0
BITMAP
0300
0600
0C00
FFC0
FFC0
0C00
0C00
0C00
0C00
0C00
0C00
0C00
0C00
0C00
0C00
FFC0
FFC0
ENDCHAR
STARTCHAR Icircumflex
ENCODING 235
SWIDTH 600 0
DWIDTH 14 0
BBX 10 17 2 0
BITMAP
0C00
1E00
3300
FFC0
FFC0
0C00
0C00
0C00
0C00
0C00
0C00
0C00
0C00
0C00
0C00
FFC0
FFC0
ENDCHAR
STARTCHAR Idieresis
ENCODING 236
SWIDTH 600 0
DWIDTH 14 0
BBX 10 17 2 0
BITMAP
3300
3300
0000
FFC0
FFC0
0C00
0C00
0C00
0C00
0C00
0C00
0C00
0C00
0C00
0C00
FFC0
FFC0
ENDCHAR
STARTCHAR Igrave
ENCODING 237
SWIDTH 600 0
DWIDTH 14 0
BBX 10 17 2 0
BITMAP
3000
1800
0C00
FFC0
FFC0
0C00
0C00
0C00
0C00
0C00
0C00
0C00
0C00
0C00
0C00
FFC0
FFC0
ENDCHAR
STARTCHAR Oacute
ENCODING 238
SWIDTH 600 0
DWIDTH 14 0
BBX 12 17 1 0
BITMAP
0180
0300
0600
0F00
3FC0
70E0
6060
C030
C030
C030
C030
C030
C030
6060
70E0
3FC0
0F00
ENDCHAR
STARTCHAR Ocircumflex
ENCODING 239
SWIDTH 600 0
DWIDTH 14 0
BBX 12 17 1 0
BITMAP
0600
0F00
1980
1F80
3FC0
70E0
6060
C030
C030
C030
C030
C030
C030
6060
70E0
3FC0
0F00
ENDCHAR
STARTCHAR apple
ENCODING 240
SWIDTH 790 0
DWIDTH 19 0
BBX 15 17 2 0
BITMAP
00E0
01C0
0180
1D38
7EFC
7FFE
FFF8
FFF0
FFF0
FFF0
FFF0
FFF8
7FFE
7FFE
3FFC
1FF8
0E70
ENDCHAR
STARTCHAR Ograve
ENCODING 241
SWIDTH 600 0
DWIDTH 14 0
BBX 12 17 1 0
BITMAP
1800
0C00
0600
0F00
3FC0
70E0
6060
C030
C030
C030
C030
C030
C030
6060
70E0
3FC0
0F00
ENDCHAR
STARTCHAR Uacute
ENCODING 242
SWIDTH 600 0
DWIDTH 14 0
BBX 14 17 0 0
BITMAP
00C0
0180
0300
FCFC
FCFC
3030
3030
3030
3030
3030
3030
3030
3030
3030
1860
1FE0
0780
ENDCHAR
STARTCHAR Ucircumflex
ENCODING 243
SWIDTH 600 0
DWIDTH 14 0
BBX 14 17 0 0
BITMAP
0300
0780
0CC0
FCFC
FCFC
3030
3030
3030
3030
3030
3030
3030
3030
3030
1860
1FE0
0780
ENDCHAR
STARTCHAR Ugrave
ENCODING 244
SWIDTH 600 0
DWIDTH 14 0
BBX 14 17 0 0
BITMAP
0C00
0600
0300
FCFC
FCFC
3030
3030
3030
3030
3030
3030
3030
3030
3030
1860
1FE0
0780
ENDCHAR
STARTCHAR dotlessi
ENCODING 245
SWIDTH 600 0
DWIDTH 14 0
BBX 10 10 2 0
BITMAP
7C00
7C00
0C00
0C00
0C00
0C00
0C00
0C00
FFC0
FFC0
ENDCHAR
STARTCHAR circumflex
ENCODING 246
SWIDTH 600 0
DWIDTH 14 0
BBX 6 4 4 12
BITMAP
30
78
CC
84
ENDCHAR
STARTCHAR tilde
ENCODING 247
SWIDTH 600 0
DWIDTH 14 0
BBX 7 3 3 12
BITMAP
72
FE
9C
ENDCHAR
STARTCHAR macron
ENCODING 248
SWIDTH 600 0
DWIDTH 14 0
BBX 7 2 3 13
BITMAP
FE
FE
ENDCHAR
STARTCHAR breve
ENCODING 249
SWIDTH 600 0
DWIDTH 14 0
BBX 6 3 4 12
BITMAP
84
FC
78
ENDCHAR
STARTCHAR dotaccent
ENCODING 250
SWIDTH 600 0
DWIDTH 14 0
BBX 2 3 6 12
BITMAP
C0
C0
C0
ENDCHAR
STARTCHAR ring
ENCODING 251
SWIDTH 600 0
DWIDTH 14 0
BBX 5 5 4 10
BITMAP
70
D8
88
D8
70
ENDCHAR
STARTCHAR cedilla
ENCODING 252
SWIDTH 600 0
DWIDTH 14 0
BBX 5 5 4 -5
BITMAP
20
30
98
F8
70
ENDCHAR
STARTCHAR hungarumlaut
ENCODING 253
SWIDTH 600 0
DWIDTH 14 0
BBX 9 4 2 11
BITMAP
1980
3300
6600
CC00
ENDCHAR
STARTCHAR ogonek
ENCODING 254
SWIDTH 600 0
DWIDTH 14 0
BBX 5 5 4 -5
BITMAP
20
60
C8
F8
70
ENDCHAR
STARTCHAR caron
ENCODING 255
SWIDTH 600 0
DWIDTH 14 0
BBX 6 4 4 12
BITMAP
84
CC
78
30
ENDCHAR
ENDFONT
