<?xml version="1.0" encoding="utf-8" standalone="no"?>
<!DOCTYPE svg PUBLIC "-//W3C//DTD SVG 1.1//EN"
  "http://www.w3.org/Graphics/SVG/1.1/DTD/svg11.dtd">
<!-- Created with matplotlib (https://matplotlib.org/) -->
<svg height="162.081818pt" version="1.1" viewBox="0 0 474.4 162.081818" width="474.4pt" xmlns="http://www.w3.org/2000/svg" xmlns:xlink="http://www.w3.org/1999/xlink">
 <defs>
  <style type="text/css">
*{stroke-linecap:butt;stroke-linejoin:round;}
  </style>
 </defs>
 <g id="figure_1">
  <g id="patch_1">
   <path d="M 0 162.081818 
L 474.2375 162.081818 
L 474.2375 -0.70375 
L 0 -0.70375 
z
" style="fill:#f2f2f2;"/>
  </g>
  <g id="axes_1">
   <g id="patch_2">
    <path d="M 8 134.369318 
L 224 134.369318 
L 224 36.1875 
L 8 36.1875 
z
" style="fill:#ffffff;"/>
   </g>
   <g id="axes_2">
    <g id="matplotlib.axis_1">
     <g id="xtick_1">
      <g id="line2d_1">
       <path clip-path="url(#p3daacefe0c)" d="M 8 134.369318 
L 8 36.1875 
" style="fill:none;stroke:#000000;stroke-linecap:square;stroke-opacity:0.4;"/>
      </g>
      <g id="line2d_2">
       <defs>
        <path d="M 0 0 
L 0 -4 
" id="m6b6cf78cfe" style="stroke:#024268;"/>
       </defs>
       <g>
        <use style="fill:#024268;stroke:#024268;" x="8" xlink:href="#m6b6cf78cfe" y="36.1875"/>
       </g>
      </g>
      <g id="text_1">
       <!-- 0 -->
       <defs>
        <path d="M 13.203125 34.90625 
Q 13.203125 37.5 13.25 40.640625 
Q 13.296875 43.796875 13.75 46.9375 
Q 14.203125 50.09375 15.046875 53.09375 
Q 15.90625 56.09375 17.546875 58.34375 
Q 19.203125 60.59375 21.703125 62 
Q 24.203125 63.40625 27.796875 63.40625 
Q 31.40625 63.40625 33.90625 62 
Q 36.40625 60.59375 38.046875 58.34375 
Q 39.703125 56.09375 40.546875 53.09375 
Q 41.40625 50.09375 41.84375 46.9375 
Q 42.296875 43.796875 42.34375 40.640625 
Q 42.40625 37.5 42.40625 34.90625 
Q 42.40625 30.90625 42.15625 25.953125 
Q 41.90625 21 40.546875 16.640625 
Q 39.203125 12.296875 36.203125 9.296875 
Q 33.203125 6.296875 27.796875 6.296875 
Q 22.40625 6.296875 19.40625 9.296875 
Q 16.40625 12.296875 15.046875 16.640625 
Q 13.703125 21 13.453125 25.953125 
Q 13.203125 30.90625 13.203125 34.90625 
z
M 4.203125 34.796875 
Q 4.203125 30.90625 4.390625 26.703125 
Q 4.59375 22.5 5.390625 18.5 
Q 6.203125 14.5 7.703125 10.953125 
Q 9.203125 7.40625 11.796875 4.703125 
Q 14.40625 2 18.34375 0.453125 
Q 22.296875 -1.09375 27.796875 -1.09375 
Q 33.40625 -1.09375 37.296875 0.453125 
Q 41.203125 2 43.796875 4.703125 
Q 46.40625 7.40625 47.90625 10.953125 
Q 49.40625 14.5 50.203125 18.5 
Q 51 22.5 51.203125 26.703125 
Q 51.40625 30.90625 51.40625 34.796875 
Q 51.40625 38.703125 51.203125 42.890625 
Q 51 47.09375 50.203125 51.09375 
Q 49.40625 55.09375 47.90625 58.6875 
Q 46.40625 62.296875 43.796875 65 
Q 41.203125 67.703125 37.25 69.296875 
Q 33.296875 70.90625 27.796875 70.90625 
Q 22.296875 70.90625 18.34375 69.296875 
Q 14.40625 67.703125 11.796875 65 
Q 9.203125 62.296875 7.703125 58.6875 
Q 6.203125 55.09375 5.390625 51.09375 
Q 4.59375 47.09375 4.390625 42.890625 
Q 4.203125 38.703125 4.203125 34.796875 
z
" id="HelveticaNeue-48"/>
       </defs>
       <g style="fill:#024268;" transform="translate(5.77625 28.61125)scale(0.08 -0.08)">
        <use xlink:href="#HelveticaNeue-48"/>
       </g>
      </g>
     </g>
     <g id="xtick_2">
      <g id="line2d_3">
       <path clip-path="url(#p3daacefe0c)" d="M 51.2 134.369318 
L 51.2 36.1875 
" style="fill:none;stroke:#000000;stroke-linecap:square;stroke-opacity:0.4;"/>
      </g>
      <g id="line2d_4">
       <g>
        <use style="fill:#024268;stroke:#024268;" x="51.2" xlink:href="#m6b6cf78cfe" y="36.1875"/>
       </g>
      </g>
      <g id="text_2">
       <!-- 1 -->
       <defs>
        <path d="M 35.59375 0 
L 35.59375 70.90625 
L 29.09375 70.90625 
Q 28.40625 66.90625 26.5 64.296875 
Q 24.59375 61.703125 21.84375 60.203125 
Q 19.09375 58.703125 15.6875 58.140625 
Q 12.296875 57.59375 8.703125 57.59375 
L 8.703125 50.796875 
L 27.09375 50.796875 
L 27.09375 0 
z
" id="HelveticaNeue-49"/>
       </defs>
       <g style="fill:#024268;" transform="translate(48.97625 28.61125)scale(0.08 -0.08)">
        <use xlink:href="#HelveticaNeue-49"/>
       </g>
      </g>
     </g>
     <g id="xtick_3">
      <g id="line2d_5">
       <path clip-path="url(#p3daacefe0c)" d="M 94.4 134.369318 
L 94.4 36.1875 
" style="fill:none;stroke:#000000;stroke-linecap:square;stroke-opacity:0.4;"/>
      </g>
      <g id="line2d_6">
       <g>
        <use style="fill:#024268;stroke:#024268;" x="94.4" xlink:href="#m6b6cf78cfe" y="36.1875"/>
       </g>
      </g>
      <g id="text_3">
       <!-- 2 -->
       <defs>
        <path d="M 4.40625 45.796875 
L 12.90625 45.796875 
Q 12.796875 49 13.546875 52.140625 
Q 14.296875 55.296875 16 57.796875 
Q 17.703125 60.296875 20.34375 61.84375 
Q 23 63.40625 26.703125 63.40625 
Q 29.5 63.40625 32 62.5 
Q 34.5 61.59375 36.34375 59.890625 
Q 38.203125 58.203125 39.296875 55.84375 
Q 40.40625 53.5 40.40625 50.59375 
Q 40.40625 46.90625 39.25 44.09375 
Q 38.09375 41.296875 35.84375 38.890625 
Q 33.59375 36.5 30.1875 34.140625 
Q 26.796875 31.796875 22.296875 29 
Q 18.59375 26.796875 15.1875 24.296875 
Q 11.796875 21.796875 9.09375 18.5 
Q 6.40625 15.203125 4.65625 10.75 
Q 2.90625 6.296875 2.40625 0 
L 48.703125 0 
L 48.703125 7.5 
L 12.296875 7.5 
Q 12.90625 10.796875 14.84375 13.34375 
Q 16.796875 15.90625 19.546875 18.09375 
Q 22.296875 20.296875 25.59375 22.25 
Q 28.90625 24.203125 32.203125 26.203125 
Q 35.5 28.296875 38.59375 30.59375 
Q 41.703125 32.90625 44.09375 35.75 
Q 46.5 38.59375 47.953125 42.1875 
Q 49.40625 45.796875 49.40625 50.5 
Q 49.40625 55.5 47.65625 59.296875 
Q 45.90625 63.09375 42.90625 65.640625 
Q 39.90625 68.203125 35.84375 69.546875 
Q 31.796875 70.90625 27.203125 70.90625 
Q 21.59375 70.90625 17.1875 69 
Q 12.796875 67.09375 9.84375 63.75 
Q 6.90625 60.40625 5.5 55.796875 
Q 4.09375 51.203125 4.40625 45.796875 
z
" id="HelveticaNeue-50"/>
       </defs>
       <g style="fill:#024268;" transform="translate(92.17625 28.61125)scale(0.08 -0.08)">
        <use xlink:href="#HelveticaNeue-50"/>
       </g>
      </g>
     </g>
     <g id="xtick_4">
      <g id="line2d_7">
       <path clip-path="url(#p3daacefe0c)" d="M 137.6 134.369318 
L 137.6 36.1875 
" style="fill:none;stroke:#000000;stroke-linecap:square;stroke-opacity:0.4;"/>
      </g>
      <g id="line2d_8">
       <g>
        <use style="fill:#024268;stroke:#024268;" x="137.6" xlink:href="#m6b6cf78cfe" y="36.1875"/>
       </g>
      </g>
      <g id="text_4">
       <!-- 3 -->
       <defs>
        <path d="M 21.796875 40.5 
L 21.796875 33.296875 
Q 24.203125 33.59375 26.90625 33.59375 
Q 30.09375 33.59375 32.84375 32.75 
Q 35.59375 31.90625 37.59375 30.15625 
Q 39.59375 28.40625 40.796875 25.84375 
Q 42 23.296875 42 20 
Q 42 16.796875 40.75 14.25 
Q 39.5 11.703125 37.390625 9.953125 
Q 35.296875 8.203125 32.5 7.25 
Q 29.703125 6.296875 26.59375 6.296875 
Q 19.296875 6.296875 15.5 10.640625 
Q 11.703125 15 11.5 21.90625 
L 3 21.90625 
Q 2.90625 16.40625 4.546875 12.09375 
Q 6.203125 7.796875 9.296875 4.84375 
Q 12.40625 1.90625 16.796875 0.40625 
Q 21.203125 -1.09375 26.59375 -1.09375 
Q 31.59375 -1.09375 36.046875 0.25 
Q 40.5 1.59375 43.796875 4.296875 
Q 47.09375 7 49.046875 11.046875 
Q 51 15.09375 51 20.40625 
Q 51 26.796875 47.84375 31.5 
Q 44.703125 36.203125 38.203125 37.59375 
L 38.203125 37.796875 
Q 42.40625 39.703125 45.203125 43.390625 
Q 48 47.09375 48 51.90625 
Q 48 56.796875 46.34375 60.390625 
Q 44.703125 64 41.796875 66.296875 
Q 38.90625 68.59375 34.953125 69.75 
Q 31 70.90625 26.40625 70.90625 
Q 21.09375 70.90625 17.046875 69.203125 
Q 13 67.5 10.296875 64.5 
Q 7.59375 61.5 6.140625 57.296875 
Q 4.703125 53.09375 4.5 48 
L 13 48 
Q 13 51.09375 13.796875 53.890625 
Q 14.59375 56.703125 16.25 58.796875 
Q 17.90625 60.90625 20.453125 62.15625 
Q 23 63.40625 26.40625 63.40625 
Q 31.796875 63.40625 35.390625 60.546875 
Q 39 57.703125 39 52 
Q 39 49.203125 37.890625 47 
Q 36.796875 44.796875 34.9375 43.34375 
Q 33.09375 41.90625 30.640625 41.15625 
Q 28.203125 40.40625 25.5 40.40625 
L 23.703125 40.40625 
Q 23.203125 40.40625 22.703125 40.40625 
Q 22.296875 40.40625 21.796875 40.5 
z
" id="HelveticaNeue-51"/>
       </defs>
       <g style="fill:#024268;" transform="translate(135.37625 28.61125)scale(0.08 -0.08)">
        <use xlink:href="#HelveticaNeue-51"/>
       </g>
      </g>
     </g>
     <g id="xtick_5">
      <g id="line2d_9">
       <path clip-path="url(#p3daacefe0c)" d="M 180.8 134.369318 
L 180.8 36.1875 
" style="fill:none;stroke:#000000;stroke-linecap:square;stroke-opacity:0.4;"/>
      </g>
      <g id="line2d_10">
       <g>
        <use style="fill:#024268;stroke:#024268;" x="180.8" xlink:href="#m6b6cf78cfe" y="36.1875"/>
       </g>
      </g>
      <g id="text_5">
       <!-- 4 -->
       <defs>
        <path d="M 33.90625 24.09375 
L 10.09375 24.09375 
L 33.703125 58.796875 
L 33.90625 58.796875 
z
M 41.90625 24.09375 
L 41.90625 70.90625 
L 35.09375 70.90625 
L 2.796875 24.796875 
L 2.796875 16.59375 
L 33.90625 16.59375 
L 33.90625 0 
L 41.90625 0 
L 41.90625 16.59375 
L 51.5 16.59375 
L 51.5 24.09375 
z
" id="HelveticaNeue-52"/>
       </defs>
       <g style="fill:#024268;" transform="translate(178.57625 28.61125)scale(0.08 -0.08)">
        <use xlink:href="#HelveticaNeue-52"/>
       </g>
      </g>
     </g>
     <g id="xtick_6">
      <g id="line2d_11">
       <path clip-path="url(#p3daacefe0c)" d="M 224 134.369318 
L 224 36.1875 
" style="fill:none;stroke:#000000;stroke-linecap:square;stroke-opacity:0.4;"/>
      </g>
      <g id="line2d_12">
       <g>
        <use style="fill:#024268;stroke:#024268;" x="224" xlink:href="#m6b6cf78cfe" y="36.1875"/>
       </g>
      </g>
      <g id="text_6">
       <!-- 5 -->
       <defs>
        <path d="M 47 62.203125 
L 47 69.703125 
L 12 69.703125 
L 5.40625 32.90625 
L 12.703125 32.5 
Q 15.203125 35.5 18.453125 37.34375 
Q 21.703125 39.203125 25.90625 39.203125 
Q 29.5 39.203125 32.453125 38 
Q 35.40625 36.796875 37.5 34.640625 
Q 39.59375 32.5 40.75 29.546875 
Q 41.90625 26.59375 41.90625 23.09375 
Q 41.90625 18.90625 40.703125 15.75 
Q 39.5 12.59375 37.453125 10.5 
Q 35.40625 8.40625 32.65625 7.34375 
Q 29.90625 6.296875 26.90625 6.296875 
Q 23.703125 6.296875 21.046875 7.25 
Q 18.40625 8.203125 16.453125 9.953125 
Q 14.5 11.703125 13.34375 14.046875 
Q 12.203125 16.40625 12 19.09375 
L 3.5 19.09375 
Q 3.59375 14.296875 5.390625 10.5 
Q 7.203125 6.703125 10.296875 4.140625 
Q 13.40625 1.59375 17.453125 0.25 
Q 21.5 -1.09375 26.09375 -1.09375 
Q 32.296875 -1.09375 36.9375 0.84375 
Q 41.59375 2.796875 44.6875 6.09375 
Q 47.796875 9.40625 49.34375 13.65625 
Q 50.90625 17.90625 50.90625 22.40625 
Q 50.90625 28.5 49.09375 33.046875 
Q 47.296875 37.59375 44.1875 40.640625 
Q 41.09375 43.703125 36.890625 45.203125 
Q 32.703125 46.703125 28 46.703125 
Q 24.40625 46.703125 20.75 45.453125 
Q 17.09375 44.203125 14.796875 41.59375 
L 14.59375 41.796875 
L 18.40625 62.203125 
z
" id="HelveticaNeue-53"/>
       </defs>
       <g style="fill:#024268;" transform="translate(221.77625 28.61125)scale(0.08 -0.08)">
        <use xlink:href="#HelveticaNeue-53"/>
       </g>
      </g>
     </g>
     <g id="xtick_7">
      <g id="line2d_13">
       <defs>
        <path d="M 0 0 
L 0 -2 
" id="m7072d11e43" style="stroke:#024268;stroke-width:0.8;"/>
       </defs>
       <g>
        <use style="fill:#024268;stroke:#024268;stroke-width:0.8;" x="16.64" xlink:href="#m7072d11e43" y="36.1875"/>
       </g>
      </g>
     </g>
     <g id="xtick_8">
      <g id="line2d_14">
       <g>
        <use style="fill:#024268;stroke:#024268;stroke-width:0.8;" x="25.28" xlink:href="#m7072d11e43" y="36.1875"/>
       </g>
      </g>
     </g>
     <g id="xtick_9">
      <g id="line2d_15">
       <g>
        <use style="fill:#024268;stroke:#024268;stroke-width:0.8;" x="33.92" xlink:href="#m7072d11e43" y="36.1875"/>
       </g>
      </g>
     </g>
     <g id="xtick_10">
      <g id="line2d_16">
       <g>
        <use style="fill:#024268;stroke:#024268;stroke-width:0.8;" x="42.56" xlink:href="#m7072d11e43" y="36.1875"/>
       </g>
      </g>
     </g>
     <g id="xtick_11">
      <g id="line2d_17">
       <g>
        <use style="fill:#024268;stroke:#024268;stroke-width:0.8;" x="59.84" xlink:href="#m7072d11e43" y="36.1875"/>
       </g>
      </g>
     </g>
     <g id="xtick_12">
      <g id="line2d_18">
       <g>
        <use style="fill:#024268;stroke:#024268;stroke-width:0.8;" x="68.48" xlink:href="#m7072d11e43" y="36.1875"/>
       </g>
      </g>
     </g>
     <g id="xtick_13">
      <g id="line2d_19">
       <g>
        <use style="fill:#024268;stroke:#024268;stroke-width:0.8;" x="77.12" xlink:href="#m7072d11e43" y="36.1875"/>
       </g>
      </g>
     </g>
     <g id="xtick_14">
      <g id="line2d_20">
       <g>
        <use style="fill:#024268;stroke:#024268;stroke-width:0.8;" x="85.76" xlink:href="#m7072d11e43" y="36.1875"/>
       </g>
      </g>
     </g>
     <g id="xtick_15">
      <g id="line2d_21">
       <g>
        <use style="fill:#024268;stroke:#024268;stroke-width:0.8;" x="103.04" xlink:href="#m7072d11e43" y="36.1875"/>
       </g>
      </g>
     </g>
     <g id="xtick_16">
      <g id="line2d_22">
       <g>
        <use style="fill:#024268;stroke:#024268;stroke-width:0.8;" x="111.68" xlink:href="#m7072d11e43" y="36.1875"/>
       </g>
      </g>
     </g>
     <g id="xtick_17">
      <g id="line2d_23">
       <g>
        <use style="fill:#024268;stroke:#024268;stroke-width:0.8;" x="120.32" xlink:href="#m7072d11e43" y="36.1875"/>
       </g>
      </g>
     </g>
     <g id="xtick_18">
      <g id="line2d_24">
       <g>
        <use style="fill:#024268;stroke:#024268;stroke-width:0.8;" x="128.96" xlink:href="#m7072d11e43" y="36.1875"/>
       </g>
      </g>
     </g>
     <g id="xtick_19">
      <g id="line2d_25">
       <g>
        <use style="fill:#024268;stroke:#024268;stroke-width:0.8;" x="146.24" xlink:href="#m7072d11e43" y="36.1875"/>
       </g>
      </g>
     </g>
     <g id="xtick_20">
      <g id="line2d_26">
       <g>
        <use style="fill:#024268;stroke:#024268;stroke-width:0.8;" x="154.88" xlink:href="#m7072d11e43" y="36.1875"/>
       </g>
      </g>
     </g>
     <g id="xtick_21">
      <g id="line2d_27">
       <g>
        <use style="fill:#024268;stroke:#024268;stroke-width:0.8;" x="163.52" xlink:href="#m7072d11e43" y="36.1875"/>
       </g>
      </g>
     </g>
     <g id="xtick_22">
      <g id="line2d_28">
       <g>
        <use style="fill:#024268;stroke:#024268;stroke-width:0.8;" x="172.16" xlink:href="#m7072d11e43" y="36.1875"/>
       </g>
      </g>
     </g>
     <g id="xtick_23">
      <g id="line2d_29">
       <g>
        <use style="fill:#024268;stroke:#024268;stroke-width:0.8;" x="189.44" xlink:href="#m7072d11e43" y="36.1875"/>
       </g>
      </g>
     </g>
     <g id="xtick_24">
      <g id="line2d_30">
       <g>
        <use style="fill:#024268;stroke:#024268;stroke-width:0.8;" x="198.08" xlink:href="#m7072d11e43" y="36.1875"/>
       </g>
      </g>
     </g>
     <g id="xtick_25">
      <g id="line2d_31">
       <g>
        <use style="fill:#024268;stroke:#024268;stroke-width:0.8;" x="206.72" xlink:href="#m7072d11e43" y="36.1875"/>
       </g>
      </g>
     </g>
     <g id="xtick_26">
      <g id="line2d_32">
       <g>
        <use style="fill:#024268;stroke:#024268;stroke-width:0.8;" x="215.36" xlink:href="#m7072d11e43" y="36.1875"/>
       </g>
      </g>
     </g>
     <g id="text_7">
      <!-- kilometers -->
      <defs>
       <path d="M 6.90625 71.40625 
L 6.90625 0 
L 15.40625 0 
L 15.40625 19.59375 
L 23.40625 27 
L 41.09375 0 
L 51.90625 0 
L 29.90625 32.90625 
L 50.40625 51.703125 
L 39 51.703125 
L 15.40625 29.09375 
L 15.40625 71.40625 
z
" id="HelveticaNeue-107"/>
       <path d="M 15.40625 61 
L 15.40625 71.40625 
L 6.90625 71.40625 
L 6.90625 61 
z
M 6.90625 51.703125 
L 6.90625 0 
L 15.40625 0 
L 15.40625 51.703125 
z
" id="HelveticaNeue-105"/>
       <path d="M 6.90625 71.40625 
L 6.90625 0 
L 15.40625 0 
L 15.40625 71.40625 
z
" id="HelveticaNeue-108"/>
       <path d="M 12.59375 25.796875 
Q 12.59375 30.5 13.84375 34.140625 
Q 15.09375 37.796875 17.296875 40.296875 
Q 19.5 42.796875 22.453125 44.09375 
Q 25.40625 45.40625 28.703125 45.40625 
Q 32 45.40625 34.953125 44.09375 
Q 37.90625 42.796875 40.09375 40.296875 
Q 42.296875 37.796875 43.546875 34.140625 
Q 44.796875 30.5 44.796875 25.796875 
Q 44.796875 21.09375 43.546875 17.4375 
Q 42.296875 13.796875 40.09375 11.34375 
Q 37.90625 8.90625 34.953125 7.59375 
Q 32 6.296875 28.703125 6.296875 
Q 25.40625 6.296875 22.453125 7.59375 
Q 19.5 8.90625 17.296875 11.34375 
Q 15.09375 13.796875 13.84375 17.4375 
Q 12.59375 21.09375 12.59375 25.796875 
z
M 3.59375 25.796875 
Q 3.59375 20.09375 5.1875 15.1875 
Q 6.796875 10.296875 10 6.640625 
Q 13.203125 3 17.890625 0.953125 
Q 22.59375 -1.09375 28.703125 -1.09375 
Q 34.90625 -1.09375 39.546875 0.953125 
Q 44.203125 3 47.390625 6.640625 
Q 50.59375 10.296875 52.1875 15.1875 
Q 53.796875 20.09375 53.796875 25.796875 
Q 53.796875 31.5 52.1875 36.453125 
Q 50.59375 41.40625 47.390625 45.046875 
Q 44.203125 48.703125 39.546875 50.796875 
Q 34.90625 52.90625 28.703125 52.90625 
Q 22.59375 52.90625 17.890625 50.796875 
Q 13.203125 48.703125 10 45.046875 
Q 6.796875 41.40625 5.1875 36.453125 
Q 3.59375 31.5 3.59375 25.796875 
z
" id="HelveticaNeue-111"/>
       <path d="M 6.40625 51.703125 
L 6.40625 0 
L 14.90625 0 
L 14.90625 32.203125 
Q 14.90625 33.703125 15.65625 35.953125 
Q 16.40625 38.203125 18.046875 40.296875 
Q 19.703125 42.40625 22.34375 43.90625 
Q 25 45.40625 28.703125 45.40625 
Q 31.59375 45.40625 33.4375 44.546875 
Q 35.296875 43.703125 36.390625 42.140625 
Q 37.5 40.59375 37.953125 38.5 
Q 38.40625 36.40625 38.40625 33.90625 
L 38.40625 0 
L 46.90625 0 
L 46.90625 32.203125 
Q 46.90625 38.203125 50.5 41.796875 
Q 54.09375 45.40625 60.40625 45.40625 
Q 63.5 45.40625 65.453125 44.5 
Q 67.40625 43.59375 68.5 42.046875 
Q 69.59375 40.5 70 38.390625 
Q 70.40625 36.296875 70.40625 33.90625 
L 70.40625 0 
L 78.90625 0 
L 78.90625 37.90625 
Q 78.90625 41.90625 77.65625 44.75 
Q 76.40625 47.59375 74.15625 49.390625 
Q 71.90625 51.203125 68.75 52.046875 
Q 65.59375 52.90625 61.703125 52.90625 
Q 56.59375 52.90625 52.34375 50.59375 
Q 48.09375 48.296875 45.5 44.09375 
Q 43.90625 48.90625 40 50.90625 
Q 36.09375 52.90625 31.296875 52.90625 
Q 20.40625 52.90625 14.59375 44.09375 
L 14.40625 44.09375 
L 14.40625 51.703125 
z
" id="HelveticaNeue-109"/>
       <path d="M 42.296875 30.796875 
L 12.59375 30.796875 
Q 12.796875 33.796875 13.890625 36.4375 
Q 15 39.09375 16.890625 41.09375 
Q 18.796875 43.09375 21.4375 44.25 
Q 24.09375 45.40625 27.40625 45.40625 
Q 30.59375 45.40625 33.25 44.25 
Q 35.90625 43.09375 37.84375 41.140625 
Q 39.796875 39.203125 40.9375 36.5 
Q 42.09375 33.796875 42.296875 30.796875 
z
M 50.5 16.40625 
L 42.09375 16.40625 
Q 41 11.296875 37.546875 8.796875 
Q 34.09375 6.296875 28.703125 6.296875 
Q 24.5 6.296875 21.390625 7.6875 
Q 18.296875 9.09375 16.296875 11.4375 
Q 14.296875 13.796875 13.390625 16.84375 
Q 12.5 19.90625 12.59375 23.296875 
L 51.296875 23.296875 
Q 51.5 28 50.453125 33.203125 
Q 49.40625 38.40625 46.65625 42.796875 
Q 43.90625 47.203125 39.34375 50.046875 
Q 34.796875 52.90625 27.90625 52.90625 
Q 22.59375 52.90625 18.140625 50.90625 
Q 13.703125 48.90625 10.453125 45.296875 
Q 7.203125 41.703125 5.390625 36.796875 
Q 3.59375 31.90625 3.59375 26 
Q 3.796875 20.09375 5.34375 15.09375 
Q 6.90625 10.09375 10 6.5 
Q 13.09375 2.90625 17.640625 0.90625 
Q 22.203125 -1.09375 28.40625 -1.09375 
Q 37.203125 -1.09375 43 3.296875 
Q 48.796875 7.703125 50.5 16.40625 
z
" id="HelveticaNeue-101"/>
       <path d="M 18.203125 51.703125 
L 18.203125 67.203125 
L 9.703125 67.203125 
L 9.703125 51.703125 
L 0.90625 51.703125 
L 0.90625 44.203125 
L 9.703125 44.203125 
L 9.703125 11.296875 
Q 9.703125 7.703125 10.390625 5.5 
Q 11.09375 3.296875 12.546875 2.09375 
Q 14 0.90625 16.34375 0.453125 
Q 18.703125 0 22 0 
L 28.5 0 
L 28.5 7.5 
L 24.59375 7.5 
Q 22.59375 7.5 21.34375 7.640625 
Q 20.09375 7.796875 19.390625 8.296875 
Q 18.703125 8.796875 18.453125 9.6875 
Q 18.203125 10.59375 18.203125 12.09375 
L 18.203125 44.203125 
L 28.5 44.203125 
L 28.5 51.703125 
z
" id="HelveticaNeue-116"/>
       <path d="M 6.09375 51.703125 
L 6.09375 0 
L 14.59375 0 
L 14.59375 23 
Q 14.59375 28 15.59375 31.84375 
Q 16.59375 35.703125 18.796875 38.390625 
Q 21 41.09375 24.59375 42.5 
Q 28.203125 43.90625 33.296875 43.90625 
L 33.296875 52.90625 
Q 26.40625 53.09375 21.90625 50.09375 
Q 17.40625 47.09375 14.296875 40.796875 
L 14.09375 40.796875 
L 14.09375 51.703125 
z
" id="HelveticaNeue-114"/>
       <path d="M 11.59375 16.296875 
L 3.09375 16.296875 
Q 3.296875 11.5 5.09375 8.140625 
Q 6.90625 4.796875 9.90625 2.75 
Q 12.90625 0.703125 16.796875 -0.1875 
Q 20.703125 -1.09375 25 -1.09375 
Q 28.90625 -1.09375 32.84375 -0.34375 
Q 36.796875 0.40625 39.9375 2.296875 
Q 43.09375 4.203125 45.046875 7.296875 
Q 47 10.40625 47 15.09375 
Q 47 18.796875 45.546875 21.296875 
Q 44.09375 23.796875 41.75 25.4375 
Q 39.40625 27.09375 36.34375 28.09375 
Q 33.296875 29.09375 30.09375 29.796875 
Q 27.09375 30.5 24.09375 31.140625 
Q 21.09375 31.796875 18.6875 32.75 
Q 16.296875 33.703125 14.75 35.140625 
Q 13.203125 36.59375 13.203125 38.796875 
Q 13.203125 40.796875 14.203125 42.046875 
Q 15.203125 43.296875 16.796875 44.046875 
Q 18.40625 44.796875 20.34375 45.09375 
Q 22.296875 45.40625 24.203125 45.40625 
Q 26.296875 45.40625 28.34375 44.953125 
Q 30.40625 44.5 32.09375 43.5 
Q 33.796875 42.5 34.890625 40.84375 
Q 36 39.203125 36.203125 36.703125 
L 44.703125 36.703125 
Q 44.40625 41.40625 42.703125 44.546875 
Q 41 47.703125 38.140625 49.546875 
Q 35.296875 51.40625 31.59375 52.15625 
Q 27.90625 52.90625 23.5 52.90625 
Q 20.09375 52.90625 16.640625 52.046875 
Q 13.203125 51.203125 10.453125 49.453125 
Q 7.703125 47.703125 5.953125 44.890625 
Q 4.203125 42.09375 4.203125 38.203125 
Q 4.203125 33.203125 6.703125 30.390625 
Q 9.203125 27.59375 12.953125 26.046875 
Q 16.703125 24.5 21.09375 23.640625 
Q 25.5 22.796875 29.25 21.75 
Q 33 20.703125 35.5 19 
Q 38 17.296875 38 14 
Q 38 11.59375 36.796875 10.046875 
Q 35.59375 8.5 33.75 7.703125 
Q 31.90625 6.90625 29.703125 6.59375 
Q 27.5 6.296875 25.5 6.296875 
Q 22.90625 6.296875 20.453125 6.796875 
Q 18 7.296875 16.046875 8.4375 
Q 14.09375 9.59375 12.890625 11.546875 
Q 11.703125 13.5 11.59375 16.296875 
z
" id="HelveticaNeue-115"/>
      </defs>
      <g style="fill:#024268;" transform="translate(97.55125 19.89875)scale(0.08 -0.08)">
       <use xlink:href="#HelveticaNeue-107"/>
       <use x="51.899994" xlink:href="#HelveticaNeue-105"/>
       <use x="74.099991" xlink:href="#HelveticaNeue-108"/>
       <use x="96.299988" xlink:href="#HelveticaNeue-111"/>
       <use x="153.699982" xlink:href="#HelveticaNeue-109"/>
       <use x="238.999969" xlink:href="#HelveticaNeue-101"/>
       <use x="292.699966" xlink:href="#HelveticaNeue-116"/>
       <use x="324.199951" xlink:href="#HelveticaNeue-101"/>
       <use x="377.899948" xlink:href="#HelveticaNeue-114"/>
       <use x="411.199936" xlink:href="#HelveticaNeue-115"/>
      </g>
     </g>
    </g>
    <g id="patch_3">
     <path d="M 8 36.1875 
L 224 36.1875 
" style="fill:none;stroke:#024268;stroke-linecap:square;stroke-linejoin:miter;"/>
    </g>
   </g>
   <g id="matplotlib.axis_2">
    <g id="xtick_27">
     <g id="line2d_33">
      <path clip-path="url(#p3daacefe0c)" d="M 8 134.369318 
L 8 36.1875 
" style="fill:none;stroke:#800000;stroke-linecap:square;stroke-opacity:0.4;"/>
     </g>
     <g id="line2d_34">
      <defs>
       <path d="M 0 0 
L 0 4 
" id="ma0d0b06e86" style="stroke:#800000;"/>
      </defs>
      <g>
       <use style="fill:#800000;stroke:#800000;" x="8" xlink:href="#ma0d0b06e86" y="134.369318"/>
      </g>
     </g>
     <g id="text_8">
      <!-- 0 -->
      <g style="fill:#800000;" transform="translate(5.77625 146.081818)scale(0.08 -0.08)">
       <use xlink:href="#HelveticaNeue-48"/>
      </g>
     </g>
    </g>
    <g id="xtick_28">
     <g id="line2d_35">
      <path clip-path="url(#p3daacefe0c)" d="M 51.2 134.369318 
L 51.2 36.1875 
" style="fill:none;stroke:#800000;stroke-linecap:square;stroke-opacity:0.4;"/>
     </g>
     <g id="line2d_36">
      <g>
       <use style="fill:#800000;stroke:#800000;" x="51.2" xlink:href="#ma0d0b06e86" y="134.369318"/>
      </g>
     </g>
     <g id="text_9">
      <!-- 1000 -->
      <g style="fill:#800000;" transform="translate(42.305 146.081818)scale(0.08 -0.08)">
       <use xlink:href="#HelveticaNeue-49"/>
       <use x="55.599991" xlink:href="#HelveticaNeue-48"/>
       <use x="111.199982" xlink:href="#HelveticaNeue-48"/>
       <use x="166.799973" xlink:href="#HelveticaNeue-48"/>
      </g>
     </g>
    </g>
    <g id="xtick_29">
     <g id="line2d_37">
      <path clip-path="url(#p3daacefe0c)" d="M 94.4 134.369318 
L 94.4 36.1875 
" style="fill:none;stroke:#800000;stroke-linecap:square;stroke-opacity:0.4;"/>
     </g>
     <g id="line2d_38">
      <g>
       <use style="fill:#800000;stroke:#800000;" x="94.4" xlink:href="#ma0d0b06e86" y="134.369318"/>
      </g>
     </g>
     <g id="text_10">
      <!-- 2000 -->
      <g style="fill:#800000;" transform="translate(85.505 146.081818)scale(0.08 -0.08)">
       <use xlink:href="#HelveticaNeue-50"/>
       <use x="55.599991" xlink:href="#HelveticaNeue-48"/>
       <use x="111.199982" xlink:href="#HelveticaNeue-48"/>
       <use x="166.799973" xlink:href="#HelveticaNeue-48"/>
      </g>
     </g>
    </g>
    <g id="xtick_30">
     <g id="line2d_39">
      <path clip-path="url(#p3daacefe0c)" d="M 137.6 134.369318 
L 137.6 36.1875 
" style="fill:none;stroke:#800000;stroke-linecap:square;stroke-opacity:0.4;"/>
     </g>
     <g id="line2d_40">
      <g>
       <use style="fill:#800000;stroke:#800000;" x="137.6" xlink:href="#ma0d0b06e86" y="134.369318"/>
      </g>
     </g>
     <g id="text_11">
      <!-- 3000 -->
      <g style="fill:#800000;" transform="translate(128.705 146.081818)scale(0.08 -0.08)">
       <use xlink:href="#HelveticaNeue-51"/>
       <use x="55.599991" xlink:href="#HelveticaNeue-48"/>
       <use x="111.199982" xlink:href="#HelveticaNeue-48"/>
       <use x="166.799973" xlink:href="#HelveticaNeue-48"/>
      </g>
     </g>
    </g>
    <g id="xtick_31">
     <g id="line2d_41">
      <path clip-path="url(#p3daacefe0c)" d="M 180.8 134.369318 
L 180.8 36.1875 
" style="fill:none;stroke:#800000;stroke-linecap:square;stroke-opacity:0.4;"/>
     </g>
     <g id="line2d_42">
      <g>
       <use style="fill:#800000;stroke:#800000;" x="180.8" xlink:href="#ma0d0b06e86" y="134.369318"/>
      </g>
     </g>
     <g id="text_12">
      <!-- 4000 -->
      <g style="fill:#800000;" transform="translate(171.905 146.081818)scale(0.08 -0.08)">
       <use xlink:href="#HelveticaNeue-52"/>
       <use x="55.599991" xlink:href="#HelveticaNeue-48"/>
       <use x="111.199982" xlink:href="#HelveticaNeue-48"/>
       <use x="166.799973" xlink:href="#HelveticaNeue-48"/>
      </g>
     </g>
    </g>
    <g id="xtick_32">
     <g id="line2d_43">
      <path clip-path="url(#p3daacefe0c)" d="M 224 134.369318 
L 224 36.1875 
" style="fill:none;stroke:#800000;stroke-linecap:square;stroke-opacity:0.4;"/>
     </g>
     <g id="line2d_44">
      <g>
       <use style="fill:#800000;stroke:#800000;" x="224" xlink:href="#ma0d0b06e86" y="134.369318"/>
      </g>
     </g>
     <g id="text_13">
      <!-- 5000 -->
      <g style="fill:#800000;" transform="translate(215.105 146.081818)scale(0.08 -0.08)">
       <use xlink:href="#HelveticaNeue-53"/>
       <use x="55.599991" xlink:href="#HelveticaNeue-48"/>
       <use x="111.199982" xlink:href="#HelveticaNeue-48"/>
       <use x="166.799973" xlink:href="#HelveticaNeue-48"/>
      </g>
     </g>
    </g>
    <g id="xtick_33">
     <g id="line2d_45">
      <defs>
       <path d="M 0 0 
L 0 2 
" id="m5bc6088ad4" style="stroke:#800000;stroke-width:0.8;"/>
      </defs>
      <g>
       <use style="fill:#800000;stroke:#800000;stroke-width:0.8;" x="16.64" xlink:href="#m5bc6088ad4" y="134.369318"/>
      </g>
     </g>
    </g>
    <g id="xtick_34">
     <g id="line2d_46">
      <g>
       <use style="fill:#800000;stroke:#800000;stroke-width:0.8;" x="25.28" xlink:href="#m5bc6088ad4" y="134.369318"/>
      </g>
     </g>
    </g>
    <g id="xtick_35">
     <g id="line2d_47">
      <g>
       <use style="fill:#800000;stroke:#800000;stroke-width:0.8;" x="33.92" xlink:href="#m5bc6088ad4" y="134.369318"/>
      </g>
     </g>
    </g>
    <g id="xtick_36">
     <g id="line2d_48">
      <g>
       <use style="fill:#800000;stroke:#800000;stroke-width:0.8;" x="42.56" xlink:href="#m5bc6088ad4" y="134.369318"/>
      </g>
     </g>
    </g>
    <g id="xtick_37">
     <g id="line2d_49">
      <g>
       <use style="fill:#800000;stroke:#800000;stroke-width:0.8;" x="59.84" xlink:href="#m5bc6088ad4" y="134.369318"/>
      </g>
     </g>
    </g>
    <g id="xtick_38">
     <g id="line2d_50">
      <g>
       <use style="fill:#800000;stroke:#800000;stroke-width:0.8;" x="68.48" xlink:href="#m5bc6088ad4" y="134.369318"/>
      </g>
     </g>
    </g>
    <g id="xtick_39">
     <g id="line2d_51">
      <g>
       <use style="fill:#800000;stroke:#800000;stroke-width:0.8;" x="77.12" xlink:href="#m5bc6088ad4" y="134.369318"/>
      </g>
     </g>
    </g>
    <g id="xtick_40">
     <g id="line2d_52">
      <g>
       <use style="fill:#800000;stroke:#800000;stroke-width:0.8;" x="85.76" xlink:href="#m5bc6088ad4" y="134.369318"/>
      </g>
     </g>
    </g>
    <g id="xtick_41">
     <g id="line2d_53">
      <g>
       <use style="fill:#800000;stroke:#800000;stroke-width:0.8;" x="103.04" xlink:href="#m5bc6088ad4" y="134.369318"/>
      </g>
     </g>
    </g>
    <g id="xtick_42">
     <g id="line2d_54">
      <g>
       <use style="fill:#800000;stroke:#800000;stroke-width:0.8;" x="111.68" xlink:href="#m5bc6088ad4" y="134.369318"/>
      </g>
     </g>
    </g>
    <g id="xtick_43">
     <g id="line2d_55">
      <g>
       <use style="fill:#800000;stroke:#800000;stroke-width:0.8;" x="120.32" xlink:href="#m5bc6088ad4" y="134.369318"/>
      </g>
     </g>
    </g>
    <g id="xtick_44">
     <g id="line2d_56">
      <g>
       <use style="fill:#800000;stroke:#800000;stroke-width:0.8;" x="128.96" xlink:href="#m5bc6088ad4" y="134.369318"/>
      </g>
     </g>
    </g>
    <g id="xtick_45">
     <g id="line2d_57">
      <g>
       <use style="fill:#800000;stroke:#800000;stroke-width:0.8;" x="146.24" xlink:href="#m5bc6088ad4" y="134.369318"/>
      </g>
     </g>
    </g>
    <g id="xtick_46">
     <g id="line2d_58">
      <g>
       <use style="fill:#800000;stroke:#800000;stroke-width:0.8;" x="154.88" xlink:href="#m5bc6088ad4" y="134.369318"/>
      </g>
     </g>
    </g>
    <g id="xtick_47">
     <g id="line2d_59">
      <g>
       <use style="fill:#800000;stroke:#800000;stroke-width:0.8;" x="163.52" xlink:href="#m5bc6088ad4" y="134.369318"/>
      </g>
     </g>
    </g>
    <g id="xtick_48">
     <g id="line2d_60">
      <g>
       <use style="fill:#800000;stroke:#800000;stroke-width:0.8;" x="172.16" xlink:href="#m5bc6088ad4" y="134.369318"/>
      </g>
     </g>
    </g>
    <g id="xtick_49">
     <g id="line2d_61">
      <g>
       <use style="fill:#800000;stroke:#800000;stroke-width:0.8;" x="189.44" xlink:href="#m5bc6088ad4" y="134.369318"/>
      </g>
     </g>
    </g>
    <g id="xtick_50">
     <g id="line2d_62">
      <g>
       <use style="fill:#800000;stroke:#800000;stroke-width:0.8;" x="198.08" xlink:href="#m5bc6088ad4" y="134.369318"/>
      </g>
     </g>
    </g>
    <g id="xtick_51">
     <g id="line2d_63">
      <g>
       <use style="fill:#800000;stroke:#800000;stroke-width:0.8;" x="206.72" xlink:href="#m5bc6088ad4" y="134.369318"/>
      </g>
     </g>
    </g>
    <g id="xtick_52">
     <g id="line2d_64">
      <g>
       <use style="fill:#800000;stroke:#800000;stroke-width:0.8;" x="215.36" xlink:href="#m5bc6088ad4" y="134.369318"/>
      </g>
     </g>
    </g>
    <g id="text_14">
     <!-- meters -->
     <g style="fill:#800000;" transform="translate(103.7 156.370568)scale(0.08 -0.08)">
      <use xlink:href="#HelveticaNeue-109"/>
      <use x="85.299988" xlink:href="#HelveticaNeue-101"/>
      <use x="138.999985" xlink:href="#HelveticaNeue-116"/>
      <use x="170.499969" xlink:href="#HelveticaNeue-101"/>
      <use x="224.199966" xlink:href="#HelveticaNeue-114"/>
      <use x="257.499954" xlink:href="#HelveticaNeue-115"/>
     </g>
    </g>
   </g>
   <g id="matplotlib.axis_3"/>
   <g id="patch_4">
    <path d="M 8 134.369318 
L 8 36.1875 
" style="fill:none;stroke:#000000;stroke-linecap:square;stroke-linejoin:miter;"/>
   </g>
   <g id="patch_5">
    <path d="M 224 134.369318 
L 224 36.1875 
" style="fill:none;stroke:#000000;stroke-linecap:square;stroke-linejoin:miter;"/>
   </g>
   <g id="patch_6">
    <path d="M 8 134.369318 
L 224 134.369318 
" style="fill:none;stroke:#800000;stroke-linecap:square;stroke-linejoin:miter;"/>
   </g>
  </g>
  <g id="axes_3">
   <g id="patch_7">
    <path d="M 247.56625 134.369318 
L 463.56625 134.369318 
L 463.56625 36.1875 
L 247.56625 36.1875 
z
" style="fill:#ffffff;"/>
   </g>
   <g id="axes_4">
    <g id="matplotlib.axis_4">
     <g id="xtick_53">
      <g id="line2d_65">
       <path clip-path="url(#pe7355ca03d)" d="M 275.97025 134.369318 
L 275.97025 36.1875 
" style="fill:none;stroke:#000000;stroke-linecap:square;stroke-opacity:0.4;"/>
      </g>
      <g id="line2d_66">
       <g>
        <use style="fill:#024268;stroke:#024268;" x="275.97025" xlink:href="#m6b6cf78cfe" y="36.1875"/>
       </g>
      </g>
      <g id="text_15">
       <!-- −60 -->
       <defs>
        <path d="M 4.796875 28.703125 
L 4.796875 21.90625 
L 55.203125 21.90625 
L 55.203125 28.703125 
z
" id="HelveticaNeue-8722"/>
        <path d="M 41.40625 52.796875 
L 49.90625 52.796875 
Q 49.09375 61.59375 43.890625 66.25 
Q 38.703125 70.90625 29.90625 70.90625 
Q 22.296875 70.90625 17.296875 67.703125 
Q 12.296875 64.5 9.296875 59.203125 
Q 6.296875 53.90625 5.046875 47.046875 
Q 3.796875 40.203125 3.796875 32.90625 
Q 3.796875 27.296875 4.640625 21.296875 
Q 5.5 15.296875 8.09375 10.296875 
Q 10.703125 5.296875 15.5 2.09375 
Q 20.296875 -1.09375 28.203125 -1.09375 
Q 34.90625 -1.09375 39.453125 1.15625 
Q 44 3.40625 46.75 6.84375 
Q 49.5 10.296875 50.703125 14.5 
Q 51.90625 18.703125 51.90625 22.59375 
Q 51.90625 27.5 50.40625 31.703125 
Q 48.90625 35.90625 46.15625 39 
Q 43.40625 42.09375 39.34375 43.84375 
Q 35.296875 45.59375 30.203125 45.59375 
Q 24.40625 45.59375 19.953125 43.390625 
Q 15.5 41.203125 12.5 36.296875 
L 12.296875 36.5 
Q 12.40625 40.59375 13.09375 45.296875 
Q 13.796875 50 15.640625 54.046875 
Q 17.5 58.09375 20.796875 60.75 
Q 24.09375 63.40625 29.5 63.40625 
Q 34.59375 63.40625 37.6875 60.5 
Q 40.796875 57.59375 41.40625 52.796875 
z
M 28.59375 38.09375 
Q 32.203125 38.09375 34.890625 36.796875 
Q 37.59375 35.5 39.390625 33.34375 
Q 41.203125 31.203125 42.046875 28.25 
Q 42.90625 25.296875 42.90625 22 
Q 42.90625 18.90625 41.953125 16.046875 
Q 41 13.203125 39.203125 11 
Q 37.40625 8.796875 34.75 7.546875 
Q 32.09375 6.296875 28.59375 6.296875 
Q 25.09375 6.296875 22.34375 7.546875 
Q 19.59375 8.796875 17.75 10.890625 
Q 15.90625 13 14.90625 15.890625 
Q 13.90625 18.796875 13.90625 22.09375 
Q 13.90625 25.40625 14.84375 28.34375 
Q 15.796875 31.296875 17.6875 33.4375 
Q 19.59375 35.59375 22.296875 36.84375 
Q 25 38.09375 28.59375 38.09375 
z
" id="HelveticaNeue-54"/>
       </defs>
       <g style="fill:#024268;" transform="translate(269.12275 28.61125)scale(0.08 -0.08)">
        <use xlink:href="#HelveticaNeue-8722"/>
        <use x="59.999985" xlink:href="#HelveticaNeue-54"/>
        <use x="115.599976" xlink:href="#HelveticaNeue-48"/>
       </g>
      </g>
     </g>
     <g id="xtick_54">
      <g id="line2d_67">
       <path clip-path="url(#pe7355ca03d)" d="M 319.17025 134.369318 
L 319.17025 36.1875 
" style="fill:none;stroke:#000000;stroke-linecap:square;stroke-opacity:0.4;"/>
      </g>
      <g id="line2d_68">
       <g>
        <use style="fill:#024268;stroke:#024268;" x="319.17025" xlink:href="#m6b6cf78cfe" y="36.1875"/>
       </g>
      </g>
      <g id="text_16">
       <!-- −40 -->
       <g style="fill:#024268;" transform="translate(312.32275 28.61125)scale(0.08 -0.08)">
        <use xlink:href="#HelveticaNeue-8722"/>
        <use x="59.999985" xlink:href="#HelveticaNeue-52"/>
        <use x="115.599976" xlink:href="#HelveticaNeue-48"/>
       </g>
      </g>
     </g>
     <g id="xtick_55">
      <g id="line2d_69">
       <path clip-path="url(#pe7355ca03d)" d="M 362.37025 134.369318 
L 362.37025 36.1875 
" style="fill:none;stroke:#000000;stroke-linecap:square;stroke-opacity:0.4;"/>
      </g>
      <g id="line2d_70">
       <g>
        <use style="fill:#024268;stroke:#024268;" x="362.37025" xlink:href="#m6b6cf78cfe" y="36.1875"/>
       </g>
      </g>
      <g id="text_17">
       <!-- −20 -->
       <g style="fill:#024268;" transform="translate(355.52275 28.61125)scale(0.08 -0.08)">
        <use xlink:href="#HelveticaNeue-8722"/>
        <use x="59.999985" xlink:href="#HelveticaNeue-50"/>
        <use x="115.599976" xlink:href="#HelveticaNeue-48"/>
       </g>
      </g>
     </g>
     <g id="xtick_56">
      <g id="line2d_71">
       <path clip-path="url(#pe7355ca03d)" d="M 405.57025 134.369318 
L 405.57025 36.1875 
" style="fill:none;stroke:#000000;stroke-linecap:square;stroke-opacity:0.4;"/>
      </g>
      <g id="line2d_72">
       <g>
        <use style="fill:#024268;stroke:#024268;" x="405.57025" xlink:href="#m6b6cf78cfe" y="36.1875"/>
       </g>
      </g>
      <g id="text_18">
       <!-- 0 -->
       <g style="fill:#024268;" transform="translate(403.3465 28.61125)scale(0.08 -0.08)">
        <use xlink:href="#HelveticaNeue-48"/>
       </g>
      </g>
     </g>
     <g id="xtick_57">
      <g id="line2d_73">
       <path clip-path="url(#pe7355ca03d)" d="M 448.77025 134.369318 
L 448.77025 36.1875 
" style="fill:none;stroke:#000000;stroke-linecap:square;stroke-opacity:0.4;"/>
      </g>
      <g id="line2d_74">
       <g>
        <use style="fill:#024268;stroke:#024268;" x="448.77025" xlink:href="#m6b6cf78cfe" y="36.1875"/>
       </g>
      </g>
      <g id="text_19">
       <!-- 20 -->
       <g style="fill:#024268;" transform="translate(444.32275 28.61125)scale(0.08 -0.08)">
        <use xlink:href="#HelveticaNeue-50"/>
        <use x="55.599991" xlink:href="#HelveticaNeue-48"/>
       </g>
      </g>
     </g>
     <g id="xtick_58">
      <g id="line2d_75">
       <g>
        <use style="fill:#024268;stroke:#024268;stroke-width:0.8;" x="254.37025" xlink:href="#m7072d11e43" y="36.1875"/>
       </g>
      </g>
     </g>
     <g id="xtick_59">
      <g id="line2d_76">
       <g>
        <use style="fill:#024268;stroke:#024268;stroke-width:0.8;" x="265.17025" xlink:href="#m7072d11e43" y="36.1875"/>
       </g>
      </g>
     </g>
     <g id="xtick_60">
      <g id="line2d_77">
       <g>
        <use style="fill:#024268;stroke:#024268;stroke-width:0.8;" x="286.77025" xlink:href="#m7072d11e43" y="36.1875"/>
       </g>
      </g>
     </g>
     <g id="xtick_61">
      <g id="line2d_78">
       <g>
        <use style="fill:#024268;stroke:#024268;stroke-width:0.8;" x="297.57025" xlink:href="#m7072d11e43" y="36.1875"/>
       </g>
      </g>
     </g>
     <g id="xtick_62">
      <g id="line2d_79">
       <g>
        <use style="fill:#024268;stroke:#024268;stroke-width:0.8;" x="308.37025" xlink:href="#m7072d11e43" y="36.1875"/>
       </g>
      </g>
     </g>
     <g id="xtick_63">
      <g id="line2d_80">
       <g>
        <use style="fill:#024268;stroke:#024268;stroke-width:0.8;" x="329.97025" xlink:href="#m7072d11e43" y="36.1875"/>
       </g>
      </g>
     </g>
     <g id="xtick_64">
      <g id="line2d_81">
       <g>
        <use style="fill:#024268;stroke:#024268;stroke-width:0.8;" x="340.77025" xlink:href="#m7072d11e43" y="36.1875"/>
       </g>
      </g>
     </g>
     <g id="xtick_65">
      <g id="line2d_82">
       <g>
        <use style="fill:#024268;stroke:#024268;stroke-width:0.8;" x="351.57025" xlink:href="#m7072d11e43" y="36.1875"/>
       </g>
      </g>
     </g>
     <g id="xtick_66">
      <g id="line2d_83">
       <g>
        <use style="fill:#024268;stroke:#024268;stroke-width:0.8;" x="373.17025" xlink:href="#m7072d11e43" y="36.1875"/>
       </g>
      </g>
     </g>
     <g id="xtick_67">
      <g id="line2d_84">
       <g>
        <use style="fill:#024268;stroke:#024268;stroke-width:0.8;" x="383.97025" xlink:href="#m7072d11e43" y="36.1875"/>
       </g>
      </g>
     </g>
     <g id="xtick_68">
      <g id="line2d_85">
       <g>
        <use style="fill:#024268;stroke:#024268;stroke-width:0.8;" x="394.77025" xlink:href="#m7072d11e43" y="36.1875"/>
       </g>
      </g>
     </g>
     <g id="xtick_69">
      <g id="line2d_86">
       <g>
        <use style="fill:#024268;stroke:#024268;stroke-width:0.8;" x="416.37025" xlink:href="#m7072d11e43" y="36.1875"/>
       </g>
      </g>
     </g>
     <g id="xtick_70">
      <g id="line2d_87">
       <g>
        <use style="fill:#024268;stroke:#024268;stroke-width:0.8;" x="427.17025" xlink:href="#m7072d11e43" y="36.1875"/>
       </g>
      </g>
     </g>
     <g id="xtick_71">
      <g id="line2d_88">
       <g>
        <use style="fill:#024268;stroke:#024268;stroke-width:0.8;" x="437.97025" xlink:href="#m7072d11e43" y="36.1875"/>
       </g>
      </g>
     </g>
     <g id="xtick_72">
      <g id="line2d_89">
       <g>
        <use style="fill:#024268;stroke:#024268;stroke-width:0.8;" x="459.57025" xlink:href="#m7072d11e43" y="36.1875"/>
       </g>
      </g>
     </g>
     <g id="text_20">
      <!-- temperature (°C) -->
      <defs>
       <path d="M 6.703125 51.703125 
L 6.703125 -19.703125 
L 15.203125 -19.703125 
L 15.203125 6.90625 
L 15.40625 6.90625 
Q 16.796875 4.59375 18.84375 3.046875 
Q 20.90625 1.5 23.203125 0.59375 
Q 25.5 -0.296875 27.84375 -0.6875 
Q 30.203125 -1.09375 32.09375 -1.09375 
Q 38 -1.09375 42.453125 1 
Q 46.90625 3.09375 49.84375 6.75 
Q 52.796875 10.40625 54.25 15.296875 
Q 55.703125 20.203125 55.703125 25.703125 
Q 55.703125 31.203125 54.203125 36.09375 
Q 52.703125 41 49.75 44.75 
Q 46.796875 48.5 42.34375 50.703125 
Q 37.90625 52.90625 31.90625 52.90625 
Q 26.5 52.90625 22 50.953125 
Q 17.5 49 15.40625 44.703125 
L 15.203125 44.703125 
L 15.203125 51.703125 
z
M 46.703125 26.296875 
Q 46.703125 22.5 45.890625 18.890625 
Q 45.09375 15.296875 43.296875 12.5 
Q 41.5 9.703125 38.546875 8 
Q 35.59375 6.296875 31.203125 6.296875 
Q 26.796875 6.296875 23.6875 7.9375 
Q 20.59375 9.59375 18.640625 12.296875 
Q 16.703125 15 15.796875 18.546875 
Q 14.90625 22.09375 14.90625 25.90625 
Q 14.90625 29.5 15.75 33 
Q 16.59375 36.5 18.5 39.25 
Q 20.40625 42 23.40625 43.703125 
Q 26.40625 45.40625 30.703125 45.40625 
Q 34.796875 45.40625 37.84375 43.796875 
Q 40.90625 42.203125 42.84375 39.5 
Q 44.796875 36.796875 45.75 33.34375 
Q 46.703125 29.90625 46.703125 26.296875 
z
" id="HelveticaNeue-112"/>
       <path d="M 52.203125 0.203125 
Q 50 -1.09375 46.09375 -1.09375 
Q 42.796875 -1.09375 40.84375 0.75 
Q 38.90625 2.59375 38.90625 6.796875 
Q 35.40625 2.59375 30.75 0.75 
Q 26.09375 -1.09375 20.703125 -1.09375 
Q 17.203125 -1.09375 14.046875 -0.296875 
Q 10.90625 0.5 8.59375 2.203125 
Q 6.296875 3.90625 4.9375 6.65625 
Q 3.59375 9.40625 3.59375 13.296875 
Q 3.59375 17.703125 5.09375 20.5 
Q 6.59375 23.296875 9.046875 25.046875 
Q 11.5 26.796875 14.640625 27.6875 
Q 17.796875 28.59375 21.09375 29.203125 
Q 24.59375 29.90625 27.75 30.25 
Q 30.90625 30.59375 33.296875 31.25 
Q 35.703125 31.90625 37.09375 33.15625 
Q 38.5 34.40625 38.5 36.796875 
Q 38.5 39.59375 37.453125 41.296875 
Q 36.40625 43 34.75 43.890625 
Q 33.09375 44.796875 31.046875 45.09375 
Q 29 45.40625 27 45.40625 
Q 21.59375 45.40625 18 43.34375 
Q 14.40625 41.296875 14.09375 35.59375 
L 5.59375 35.59375 
Q 5.796875 40.40625 7.59375 43.703125 
Q 9.40625 47 12.40625 49.046875 
Q 15.40625 51.09375 19.25 52 
Q 23.09375 52.90625 27.5 52.90625 
Q 31 52.90625 34.453125 52.40625 
Q 37.90625 51.90625 40.703125 50.34375 
Q 43.5 48.796875 45.203125 46 
Q 46.90625 43.203125 46.90625 38.703125 
L 46.90625 12.09375 
Q 46.90625 9.09375 47.25 7.6875 
Q 47.59375 6.296875 49.59375 6.296875 
Q 50.703125 6.296875 52.203125 6.796875 
z
M 38.40625 26.703125 
Q 36.796875 25.5 34.1875 24.953125 
Q 31.59375 24.40625 28.75 24.046875 
Q 25.90625 23.703125 23 23.25 
Q 20.09375 22.796875 17.796875 21.796875 
Q 15.5 20.796875 14.046875 18.9375 
Q 12.59375 17.09375 12.59375 13.90625 
Q 12.59375 11.796875 13.4375 10.34375 
Q 14.296875 8.90625 15.640625 8 
Q 17 7.09375 18.796875 6.6875 
Q 20.59375 6.296875 22.59375 6.296875 
Q 26.796875 6.296875 29.796875 7.4375 
Q 32.796875 8.59375 34.6875 10.34375 
Q 36.59375 12.09375 37.5 14.140625 
Q 38.40625 16.203125 38.40625 18 
z
" id="HelveticaNeue-97"/>
       <path d="M 49.203125 0 
L 49.203125 51.703125 
L 40.703125 51.703125 
L 40.703125 22.5 
Q 40.703125 19 39.75 16.046875 
Q 38.796875 13.09375 36.890625 10.890625 
Q 35 8.703125 32.140625 7.5 
Q 29.296875 6.296875 25.40625 6.296875 
Q 20.5 6.296875 17.703125 9.09375 
Q 14.90625 11.90625 14.90625 16.703125 
L 14.90625 51.703125 
L 6.40625 51.703125 
L 6.40625 17.703125 
Q 6.40625 13.5 7.25 10.046875 
Q 8.09375 6.59375 10.1875 4.09375 
Q 12.296875 1.59375 15.6875 0.25 
Q 19.09375 -1.09375 24.203125 -1.09375 
Q 29.90625 -1.09375 34.09375 1.15625 
Q 38.296875 3.40625 41 8.203125 
L 41.203125 8.203125 
L 41.203125 0 
z
" id="HelveticaNeue-117"/>
       <path id="HelveticaNeue-32"/>
       <path d="M 20.40625 -19.703125 
L 26.90625 -19.703125 
Q 19.796875 -8.203125 16.75 3.09375 
Q 13.703125 14.40625 13.703125 27 
Q 13.703125 39.296875 16.703125 50.5 
Q 19.703125 61.703125 26.90625 73.09375 
L 20.40625 73.09375 
Q 12.59375 62.796875 8.640625 50.796875 
Q 4.703125 38.796875 4.703125 27 
Q 4.703125 20.40625 5.796875 14.40625 
Q 6.90625 8.40625 8.953125 2.703125 
Q 11 -3 13.890625 -8.546875 
Q 16.796875 -14.09375 20.40625 -19.703125 
z
" id="HelveticaNeue-40"/>
       <path d="M 10.59375 56.5 
Q 10.59375 58.296875 11.25 59.9375 
Q 11.90625 61.59375 13.09375 62.9375 
Q 14.296875 64.296875 16.046875 65.09375 
Q 17.796875 65.90625 20 65.90625 
Q 22.203125 65.90625 23.953125 65.09375 
Q 25.703125 64.296875 26.890625 62.9375 
Q 28.09375 61.59375 28.75 59.9375 
Q 29.40625 58.296875 29.40625 56.5 
Q 29.40625 54.703125 28.75 53.046875 
Q 28.09375 51.40625 26.890625 50.046875 
Q 25.703125 48.703125 23.953125 47.890625 
Q 22.203125 47.09375 20 47.09375 
Q 17.796875 47.09375 16.046875 47.890625 
Q 14.296875 48.703125 13.09375 50.046875 
Q 11.90625 51.40625 11.25 53.046875 
Q 10.59375 54.703125 10.59375 56.5 
z
M 5.59375 56.5 
Q 5.59375 53.5 6.6875 50.84375 
Q 7.796875 48.203125 9.75 46.25 
Q 11.703125 44.296875 14.34375 43.1875 
Q 17 42.09375 20 42.09375 
Q 23 42.09375 25.59375 43.1875 
Q 28.203125 44.296875 30.140625 46.25 
Q 32.09375 48.203125 33.25 50.84375 
Q 34.40625 53.5 34.40625 56.5 
Q 34.40625 59.5 33.25 62.09375 
Q 32.09375 64.703125 30.140625 66.640625 
Q 28.203125 68.59375 25.59375 69.75 
Q 23 70.90625 20 70.90625 
Q 17 70.90625 14.34375 69.75 
Q 11.703125 68.59375 9.75 66.640625 
Q 7.796875 64.703125 6.6875 62.09375 
Q 5.59375 59.5 5.59375 56.5 
z
" id="HelveticaNeue-176"/>
       <path d="M 58 49.90625 
L 67.5 49.90625 
Q 66.703125 55.59375 64.09375 59.9375 
Q 61.5 64.296875 57.59375 67.1875 
Q 53.703125 70.09375 48.703125 71.59375 
Q 43.703125 73.09375 38.09375 73.09375 
Q 29.90625 73.09375 23.546875 70.140625 
Q 17.203125 67.203125 12.953125 62.09375 
Q 8.703125 57 6.5 50.140625 
Q 4.296875 43.296875 4.296875 35.5 
Q 4.296875 27.703125 6.34375 20.890625 
Q 8.40625 14.09375 12.5 9.09375 
Q 16.59375 4.09375 22.796875 1.25 
Q 29 -1.59375 37.296875 -1.59375 
Q 51 -1.59375 58.890625 5.90625 
Q 66.796875 13.40625 68.203125 26.90625 
L 58.703125 26.90625 
Q 58.40625 22.5 56.90625 18.703125 
Q 55.40625 14.90625 52.75 12.15625 
Q 50.09375 9.40625 46.4375 7.84375 
Q 42.796875 6.296875 38.09375 6.296875 
Q 31.703125 6.296875 27.09375 8.6875 
Q 22.5 11.09375 19.546875 15.140625 
Q 16.59375 19.203125 15.1875 24.640625 
Q 13.796875 30.09375 13.796875 36.203125 
Q 13.796875 41.796875 15.1875 47 
Q 16.59375 52.203125 19.546875 56.25 
Q 22.5 60.296875 27.046875 62.6875 
Q 31.59375 65.09375 38 65.09375 
Q 45.5 65.09375 50.953125 61.296875 
Q 56.40625 57.5 58 49.90625 
z
" id="HelveticaNeue-67"/>
       <path d="M -0.90625 -19.703125 
L 5.5 -19.703125 
Q 13.296875 -9.40625 17.25 2.546875 
Q 21.203125 14.5 21.203125 26.296875 
Q 21.203125 32.90625 20.09375 38.90625 
Q 19 44.90625 16.953125 50.65625 
Q 14.90625 56.40625 12 61.953125 
Q 9.09375 67.5 5.5 73.09375 
L -0.90625 73.09375 
Q 6.09375 61.59375 9.140625 50.25 
Q 12.203125 38.90625 12.203125 26.296875 
Q 12.203125 14.09375 9.203125 2.84375 
Q 6.203125 -8.40625 -0.90625 -19.703125 
z
" id="HelveticaNeue-41"/>
      </defs>
      <g style="fill:#024268;" transform="translate(326.110625 19.89875)scale(0.08 -0.08)">
       <use xlink:href="#HelveticaNeue-116"/>
       <use x="31.499985" xlink:href="#HelveticaNeue-101"/>
       <use x="85.199982" xlink:href="#HelveticaNeue-109"/>
       <use x="170.499969" xlink:href="#HelveticaNeue-112"/>
       <use x="229.799957" xlink:href="#HelveticaNeue-101"/>
       <use x="283.499954" xlink:href="#HelveticaNeue-114"/>
       <use x="316.799942" xlink:href="#HelveticaNeue-97"/>
       <use x="370.499939" xlink:href="#HelveticaNeue-116"/>
       <use x="401.999924" xlink:href="#HelveticaNeue-117"/>
       <use x="457.599915" xlink:href="#HelveticaNeue-114"/>
       <use x="490.884277" xlink:href="#HelveticaNeue-101"/>
       <use x="544.584274" xlink:href="#HelveticaNeue-32"/>
       <use x="572.384262" xlink:href="#HelveticaNeue-40"/>
       <use x="598.284256" xlink:href="#HelveticaNeue-176"/>
       <use x="638.284241" xlink:href="#HelveticaNeue-67"/>
       <use x="710.484222" xlink:href="#HelveticaNeue-41"/>
      </g>
     </g>
    </g>
    <g id="patch_8">
     <path d="M 247.56625 36.1875 
L 463.56625 36.1875 
" style="fill:none;stroke:#024268;stroke-linecap:square;stroke-linejoin:miter;"/>
    </g>
   </g>
   <g id="matplotlib.axis_5">
    <g id="xtick_73">
     <g id="line2d_90">
      <path clip-path="url(#pe7355ca03d)" d="M 247.56625 134.369318 
L 247.56625 36.1875 
" style="fill:none;stroke:#800000;stroke-linecap:square;stroke-opacity:0.4;"/>
     </g>
     <g id="line2d_91">
      <g>
       <use style="fill:#800000;stroke:#800000;" x="247.56625" xlink:href="#ma0d0b06e86" y="134.369318"/>
      </g>
     </g>
     <g id="text_21">
      <!-- 200 -->
      <g style="fill:#800000;" transform="translate(240.895 146.081818)scale(0.08 -0.08)">
       <use xlink:href="#HelveticaNeue-50"/>
       <use x="55.599991" xlink:href="#HelveticaNeue-48"/>
       <use x="111.199982" xlink:href="#HelveticaNeue-48"/>
      </g>
     </g>
    </g>
    <g id="xtick_74">
     <g id="line2d_92">
      <path clip-path="url(#pe7355ca03d)" d="M 290.76625 134.369318 
L 290.76625 36.1875 
" style="fill:none;stroke:#800000;stroke-linecap:square;stroke-opacity:0.4;"/>
     </g>
     <g id="line2d_93">
      <g>
       <use style="fill:#800000;stroke:#800000;" x="290.76625" xlink:href="#ma0d0b06e86" y="134.369318"/>
      </g>
     </g>
     <g id="text_22">
      <!-- 220 -->
      <g style="fill:#800000;" transform="translate(284.095 146.081818)scale(0.08 -0.08)">
       <use xlink:href="#HelveticaNeue-50"/>
       <use x="55.599991" xlink:href="#HelveticaNeue-50"/>
       <use x="111.199982" xlink:href="#HelveticaNeue-48"/>
      </g>
     </g>
    </g>
    <g id="xtick_75">
     <g id="line2d_94">
      <path clip-path="url(#pe7355ca03d)" d="M 333.96625 134.369318 
L 333.96625 36.1875 
" style="fill:none;stroke:#800000;stroke-linecap:square;stroke-opacity:0.4;"/>
     </g>
     <g id="line2d_95">
      <g>
       <use style="fill:#800000;stroke:#800000;" x="333.96625" xlink:href="#ma0d0b06e86" y="134.369318"/>
      </g>
     </g>
     <g id="text_23">
      <!-- 240 -->
      <g style="fill:#800000;" transform="translate(327.295 146.081818)scale(0.08 -0.08)">
       <use xlink:href="#HelveticaNeue-50"/>
       <use x="55.599991" xlink:href="#HelveticaNeue-52"/>
       <use x="111.199982" xlink:href="#HelveticaNeue-48"/>
      </g>
     </g>
    </g>
    <g id="xtick_76">
     <g id="line2d_96">
      <path clip-path="url(#pe7355ca03d)" d="M 377.16625 134.369318 
L 377.16625 36.1875 
" style="fill:none;stroke:#800000;stroke-linecap:square;stroke-opacity:0.4;"/>
     </g>
     <g id="line2d_97">
      <g>
       <use style="fill:#800000;stroke:#800000;" x="377.16625" xlink:href="#ma0d0b06e86" y="134.369318"/>
      </g>
     </g>
     <g id="text_24">
      <!-- 260 -->
      <g style="fill:#800000;" transform="translate(370.495 146.081818)scale(0.08 -0.08)">
       <use xlink:href="#HelveticaNeue-50"/>
       <use x="55.599991" xlink:href="#HelveticaNeue-54"/>
       <use x="111.199982" xlink:href="#HelveticaNeue-48"/>
      </g>
     </g>
    </g>
    <g id="xtick_77">
     <g id="line2d_98">
      <path clip-path="url(#pe7355ca03d)" d="M 420.36625 134.369318 
L 420.36625 36.1875 
" style="fill:none;stroke:#800000;stroke-linecap:square;stroke-opacity:0.4;"/>
     </g>
     <g id="line2d_99">
      <g>
       <use style="fill:#800000;stroke:#800000;" x="420.36625" xlink:href="#ma0d0b06e86" y="134.369318"/>
      </g>
     </g>
     <g id="text_25">
      <!-- 280 -->
      <defs>
       <path d="M 15.5 52.5 
Q 15.5 55.203125 16.5 57.203125 
Q 17.5 59.203125 19.140625 60.59375 
Q 20.796875 62 23.09375 62.703125 
Q 25.40625 63.40625 27.90625 63.40625 
Q 33.09375 63.40625 36.4375 60.65625 
Q 39.796875 57.90625 39.796875 52.5 
Q 39.796875 47.09375 36.5 44.09375 
Q 33.203125 41.09375 28.09375 41.09375 
Q 25.5 41.09375 23.203125 41.796875 
Q 20.90625 42.5 19.203125 43.890625 
Q 17.5 45.296875 16.5 47.4375 
Q 15.5 49.59375 15.5 52.5 
z
M 6.5 52.796875 
Q 6.5 48 9.203125 43.953125 
Q 11.90625 39.90625 16.40625 38.09375 
Q 10.40625 36 7.203125 31.34375 
Q 4 26.703125 4 20.40625 
Q 4 15 5.84375 10.953125 
Q 7.703125 6.90625 10.953125 4.203125 
Q 14.203125 1.5 18.59375 0.203125 
Q 23 -1.09375 28.09375 -1.09375 
Q 33 -1.09375 37.296875 0.296875 
Q 41.59375 1.703125 44.75 4.453125 
Q 47.90625 7.203125 49.75 11.203125 
Q 51.59375 15.203125 51.59375 20.40625 
Q 51.59375 27 48.5 31.546875 
Q 45.40625 36.09375 39 38.09375 
Q 43.5 40.09375 46.140625 44.046875 
Q 48.796875 48 48.796875 52.796875 
Q 48.796875 56.203125 47.59375 59.453125 
Q 46.40625 62.703125 43.84375 65.25 
Q 41.296875 67.796875 37.1875 69.34375 
Q 33.09375 70.90625 27.296875 70.90625 
Q 23.203125 70.90625 19.453125 69.703125 
Q 15.703125 68.5 12.796875 66.203125 
Q 9.90625 63.90625 8.203125 60.546875 
Q 6.5 57.203125 6.5 52.796875 
z
M 13 20 
Q 13 23.09375 14.140625 25.59375 
Q 15.296875 28.09375 17.34375 29.890625 
Q 19.40625 31.703125 22.15625 32.640625 
Q 24.90625 33.59375 28 33.59375 
Q 31 33.59375 33.640625 32.546875 
Q 36.296875 31.5 38.296875 29.703125 
Q 40.296875 27.90625 41.4375 25.453125 
Q 42.59375 23 42.59375 20.09375 
Q 42.59375 17.09375 41.546875 14.59375 
Q 40.5 12.09375 38.546875 10.25 
Q 36.59375 8.40625 33.9375 7.34375 
Q 31.296875 6.296875 28.09375 6.296875 
Q 21.5 6.296875 17.25 9.9375 
Q 13 13.59375 13 20 
z
" id="HelveticaNeue-56"/>
      </defs>
      <g style="fill:#800000;" transform="translate(413.695 146.081818)scale(0.08 -0.08)">
       <use xlink:href="#HelveticaNeue-50"/>
       <use x="55.599991" xlink:href="#HelveticaNeue-56"/>
       <use x="111.199982" xlink:href="#HelveticaNeue-48"/>
      </g>
     </g>
    </g>
    <g id="xtick_78">
     <g id="line2d_100">
      <path clip-path="url(#pe7355ca03d)" d="M 463.56625 134.369318 
L 463.56625 36.1875 
" style="fill:none;stroke:#800000;stroke-linecap:square;stroke-opacity:0.4;"/>
     </g>
     <g id="line2d_101">
      <g>
       <use style="fill:#800000;stroke:#800000;" x="463.56625" xlink:href="#ma0d0b06e86" y="134.369318"/>
      </g>
     </g>
     <g id="text_26">
      <!-- 300 -->
      <g style="fill:#800000;" transform="translate(456.895 146.081818)scale(0.08 -0.08)">
       <use xlink:href="#HelveticaNeue-51"/>
       <use x="55.599991" xlink:href="#HelveticaNeue-48"/>
       <use x="111.199982" xlink:href="#HelveticaNeue-48"/>
      </g>
     </g>
    </g>
    <g id="xtick_79">
     <g id="line2d_102">
      <g>
       <use style="fill:#800000;stroke:#800000;stroke-width:0.8;" x="258.36625" xlink:href="#m5bc6088ad4" y="134.369318"/>
      </g>
     </g>
    </g>
    <g id="xtick_80">
     <g id="line2d_103">
      <g>
       <use style="fill:#800000;stroke:#800000;stroke-width:0.8;" x="269.16625" xlink:href="#m5bc6088ad4" y="134.369318"/>
      </g>
     </g>
    </g>
    <g id="xtick_81">
     <g id="line2d_104">
      <g>
       <use style="fill:#800000;stroke:#800000;stroke-width:0.8;" x="279.96625" xlink:href="#m5bc6088ad4" y="134.369318"/>
      </g>
     </g>
    </g>
    <g id="xtick_82">
     <g id="line2d_105">
      <g>
       <use style="fill:#800000;stroke:#800000;stroke-width:0.8;" x="301.56625" xlink:href="#m5bc6088ad4" y="134.369318"/>
      </g>
     </g>
    </g>
    <g id="xtick_83">
     <g id="line2d_106">
      <g>
       <use style="fill:#800000;stroke:#800000;stroke-width:0.8;" x="312.36625" xlink:href="#m5bc6088ad4" y="134.369318"/>
      </g>
     </g>
    </g>
    <g id="xtick_84">
     <g id="line2d_107">
      <g>
       <use style="fill:#800000;stroke:#800000;stroke-width:0.8;" x="323.16625" xlink:href="#m5bc6088ad4" y="134.369318"/>
      </g>
     </g>
    </g>
    <g id="xtick_85">
     <g id="line2d_108">
      <g>
       <use style="fill:#800000;stroke:#800000;stroke-width:0.8;" x="344.76625" xlink:href="#m5bc6088ad4" y="134.369318"/>
      </g>
     </g>
    </g>
    <g id="xtick_86">
     <g id="line2d_109">
      <g>
       <use style="fill:#800000;stroke:#800000;stroke-width:0.8;" x="355.56625" xlink:href="#m5bc6088ad4" y="134.369318"/>
      </g>
     </g>
    </g>
    <g id="xtick_87">
     <g id="line2d_110">
      <g>
       <use style="fill:#800000;stroke:#800000;stroke-width:0.8;" x="366.36625" xlink:href="#m5bc6088ad4" y="134.369318"/>
      </g>
     </g>
    </g>
    <g id="xtick_88">
     <g id="line2d_111">
      <g>
       <use style="fill:#800000;stroke:#800000;stroke-width:0.8;" x="387.96625" xlink:href="#m5bc6088ad4" y="134.369318"/>
      </g>
     </g>
    </g>
    <g id="xtick_89">
     <g id="line2d_112">
      <g>
       <use style="fill:#800000;stroke:#800000;stroke-width:0.8;" x="398.76625" xlink:href="#m5bc6088ad4" y="134.369318"/>
      </g>
     </g>
    </g>
    <g id="xtick_90">
     <g id="line2d_113">
      <g>
       <use style="fill:#800000;stroke:#800000;stroke-width:0.8;" x="409.56625" xlink:href="#m5bc6088ad4" y="134.369318"/>
      </g>
     </g>
    </g>
    <g id="xtick_91">
     <g id="line2d_114">
      <g>
       <use style="fill:#800000;stroke:#800000;stroke-width:0.8;" x="431.16625" xlink:href="#m5bc6088ad4" y="134.369318"/>
      </g>
     </g>
    </g>
    <g id="xtick_92">
     <g id="line2d_115">
      <g>
       <use style="fill:#800000;stroke:#800000;stroke-width:0.8;" x="441.96625" xlink:href="#m5bc6088ad4" y="134.369318"/>
      </g>
     </g>
    </g>
    <g id="xtick_93">
     <g id="line2d_116">
      <g>
       <use style="fill:#800000;stroke:#800000;stroke-width:0.8;" x="452.76625" xlink:href="#m5bc6088ad4" y="134.369318"/>
      </g>
     </g>
    </g>
    <g id="text_27">
     <!-- temperature (K) -->
     <defs>
      <path d="M 7.796875 71.40625 
L 7.796875 0 
L 17.296875 0 
L 17.296875 25 
L 29.203125 36.09375 
L 55 0 
L 67 0 
L 35.703125 42.59375 
L 65.796875 71.40625 
L 53.5 71.40625 
L 17.296875 35.796875 
L 17.296875 71.40625 
z
" id="HelveticaNeue-75"/>
     </defs>
     <g style="fill:#800000;" transform="translate(327.930625 156.505568)scale(0.08 -0.08)">
      <use xlink:href="#HelveticaNeue-116"/>
      <use x="31.499985" xlink:href="#HelveticaNeue-101"/>
      <use x="85.199982" xlink:href="#HelveticaNeue-109"/>
      <use x="170.499969" xlink:href="#HelveticaNeue-112"/>
      <use x="229.799957" xlink:href="#HelveticaNeue-101"/>
      <use x="283.499954" xlink:href="#HelveticaNeue-114"/>
      <use x="316.799942" xlink:href="#HelveticaNeue-97"/>
      <use x="370.499939" xlink:href="#HelveticaNeue-116"/>
      <use x="401.999924" xlink:href="#HelveticaNeue-117"/>
      <use x="457.599915" xlink:href="#HelveticaNeue-114"/>
      <use x="490.884277" xlink:href="#HelveticaNeue-101"/>
      <use x="544.584274" xlink:href="#HelveticaNeue-32"/>
      <use x="572.384262" xlink:href="#HelveticaNeue-40"/>
      <use x="598.284256" xlink:href="#HelveticaNeue-75"/>
      <use x="664.984253" xlink:href="#HelveticaNeue-41"/>
     </g>
    </g>
   </g>
   <g id="matplotlib.axis_6"/>
   <g id="patch_9">
    <path d="M 247.56625 134.369318 
L 247.56625 36.1875 
" style="fill:none;stroke:#000000;stroke-linecap:square;stroke-linejoin:miter;"/>
   </g>
   <g id="patch_10">
    <path d="M 463.56625 134.369318 
L 463.56625 36.1875 
" style="fill:none;stroke:#000000;stroke-linecap:square;stroke-linejoin:miter;"/>
   </g>
   <g id="patch_11">
    <path d="M 247.56625 134.369318 
L 463.56625 134.369318 
" style="fill:none;stroke:#800000;stroke-linecap:square;stroke-linejoin:miter;"/>
   </g>
  </g>
  <g id="axes_5">
   <g id="matplotlib.axis_7">
    <g id="xtick_94">
     <g id="line2d_117">
      <path clip-path="url(#p3daacefe0c)" d="M 8 134.369318 
L 8 36.1875 
" style="fill:none;stroke:#000000;stroke-linecap:square;stroke-opacity:0.4;"/>
     </g>
     <g id="line2d_118">
      <g>
       <use style="fill:#024268;stroke:#024268;" x="8" xlink:href="#m6b6cf78cfe" y="36.1875"/>
      </g>
     </g>
     <g id="text_28">
      <!-- 0 -->
      <g style="fill:#024268;" transform="translate(5.77625 28.61125)scale(0.08 -0.08)">
       <use xlink:href="#HelveticaNeue-48"/>
      </g>
     </g>
    </g>
    <g id="xtick_95">
     <g id="line2d_119">
      <path clip-path="url(#p3daacefe0c)" d="M 51.2 134.369318 
L 51.2 36.1875 
" style="fill:none;stroke:#000000;stroke-linecap:square;stroke-opacity:0.4;"/>
     </g>
     <g id="line2d_120">
      <g>
       <use style="fill:#024268;stroke:#024268;" x="51.2" xlink:href="#m6b6cf78cfe" y="36.1875"/>
      </g>
     </g>
     <g id="text_29">
      <!-- 1 -->
      <g style="fill:#024268;" transform="translate(48.97625 28.61125)scale(0.08 -0.08)">
       <use xlink:href="#HelveticaNeue-49"/>
      </g>
     </g>
    </g>
    <g id="xtick_96">
     <g id="line2d_121">
      <path clip-path="url(#p3daacefe0c)" d="M 94.4 134.369318 
L 94.4 36.1875 
" style="fill:none;stroke:#000000;stroke-linecap:square;stroke-opacity:0.4;"/>
     </g>
     <g id="line2d_122">
      <g>
       <use style="fill:#024268;stroke:#024268;" x="94.4" xlink:href="#m6b6cf78cfe" y="36.1875"/>
      </g>
     </g>
     <g id="text_30">
      <!-- 2 -->
      <g style="fill:#024268;" transform="translate(92.17625 28.61125)scale(0.08 -0.08)">
       <use xlink:href="#HelveticaNeue-50"/>
      </g>
     </g>
    </g>
    <g id="xtick_97">
     <g id="line2d_123">
      <path clip-path="url(#p3daacefe0c)" d="M 137.6 134.369318 
L 137.6 36.1875 
" style="fill:none;stroke:#000000;stroke-linecap:square;stroke-opacity:0.4;"/>
     </g>
     <g id="line2d_124">
      <g>
       <use style="fill:#024268;stroke:#024268;" x="137.6" xlink:href="#m6b6cf78cfe" y="36.1875"/>
      </g>
     </g>
     <g id="text_31">
      <!-- 3 -->
      <g style="fill:#024268;" transform="translate(135.37625 28.61125)scale(0.08 -0.08)">
       <use xlink:href="#HelveticaNeue-51"/>
      </g>
     </g>
    </g>
    <g id="xtick_98">
     <g id="line2d_125">
      <path clip-path="url(#p3daacefe0c)" d="M 180.8 134.369318 
L 180.8 36.1875 
" style="fill:none;stroke:#000000;stroke-linecap:square;stroke-opacity:0.4;"/>
     </g>
     <g id="line2d_126">
      <g>
       <use style="fill:#024268;stroke:#024268;" x="180.8" xlink:href="#m6b6cf78cfe" y="36.1875"/>
      </g>
     </g>
     <g id="text_32">
      <!-- 4 -->
      <g style="fill:#024268;" transform="translate(178.57625 28.61125)scale(0.08 -0.08)">
       <use xlink:href="#HelveticaNeue-52"/>
      </g>
     </g>
    </g>
    <g id="xtick_99">
     <g id="line2d_127">
      <path clip-path="url(#p3daacefe0c)" d="M 224 134.369318 
L 224 36.1875 
" style="fill:none;stroke:#000000;stroke-linecap:square;stroke-opacity:0.4;"/>
     </g>
     <g id="line2d_128">
      <g>
       <use style="fill:#024268;stroke:#024268;" x="224" xlink:href="#m6b6cf78cfe" y="36.1875"/>
      </g>
     </g>
     <g id="text_33">
      <!-- 5 -->
      <g style="fill:#024268;" transform="translate(221.77625 28.61125)scale(0.08 -0.08)">
       <use xlink:href="#HelveticaNeue-53"/>
      </g>
     </g>
    </g>
    <g id="xtick_100">
     <g id="line2d_129">
      <g>
       <use style="fill:#024268;stroke:#024268;stroke-width:0.8;" x="16.64" xlink:href="#m7072d11e43" y="36.1875"/>
      </g>
     </g>
    </g>
    <g id="xtick_101">
     <g id="line2d_130">
      <g>
       <use style="fill:#024268;stroke:#024268;stroke-width:0.8;" x="25.28" xlink:href="#m7072d11e43" y="36.1875"/>
      </g>
     </g>
    </g>
    <g id="xtick_102">
     <g id="line2d_131">
      <g>
       <use style="fill:#024268;stroke:#024268;stroke-width:0.8;" x="33.92" xlink:href="#m7072d11e43" y="36.1875"/>
      </g>
     </g>
    </g>
    <g id="xtick_103">
     <g id="line2d_132">
      <g>
       <use style="fill:#024268;stroke:#024268;stroke-width:0.8;" x="42.56" xlink:href="#m7072d11e43" y="36.1875"/>
      </g>
     </g>
    </g>
    <g id="xtick_104">
     <g id="line2d_133">
      <g>
       <use style="fill:#024268;stroke:#024268;stroke-width:0.8;" x="59.84" xlink:href="#m7072d11e43" y="36.1875"/>
      </g>
     </g>
    </g>
    <g id="xtick_105">
     <g id="line2d_134">
      <g>
       <use style="fill:#024268;stroke:#024268;stroke-width:0.8;" x="68.48" xlink:href="#m7072d11e43" y="36.1875"/>
      </g>
     </g>
    </g>
    <g id="xtick_106">
     <g id="line2d_135">
      <g>
       <use style="fill:#024268;stroke:#024268;stroke-width:0.8;" x="77.12" xlink:href="#m7072d11e43" y="36.1875"/>
      </g>
     </g>
    </g>
    <g id="xtick_107">
     <g id="line2d_136">
      <g>
       <use style="fill:#024268;stroke:#024268;stroke-width:0.8;" x="85.76" xlink:href="#m7072d11e43" y="36.1875"/>
      </g>
     </g>
    </g>
    <g id="xtick_108">
     <g id="line2d_137">
      <g>
       <use style="fill:#024268;stroke:#024268;stroke-width:0.8;" x="103.04" xlink:href="#m7072d11e43" y="36.1875"/>
      </g>
     </g>
    </g>
    <g id="xtick_109">
     <g id="line2d_138">
      <g>
       <use style="fill:#024268;stroke:#024268;stroke-width:0.8;" x="111.68" xlink:href="#m7072d11e43" y="36.1875"/>
      </g>
     </g>
    </g>
    <g id="xtick_110">
     <g id="line2d_139">
      <g>
       <use style="fill:#024268;stroke:#024268;stroke-width:0.8;" x="120.32" xlink:href="#m7072d11e43" y="36.1875"/>
      </g>
     </g>
    </g>
    <g id="xtick_111">
     <g id="line2d_140">
      <g>
       <use style="fill:#024268;stroke:#024268;stroke-width:0.8;" x="128.96" xlink:href="#m7072d11e43" y="36.1875"/>
      </g>
     </g>
    </g>
    <g id="xtick_112">
     <g id="line2d_141">
      <g>
       <use style="fill:#024268;stroke:#024268;stroke-width:0.8;" x="146.24" xlink:href="#m7072d11e43" y="36.1875"/>
      </g>
     </g>
    </g>
    <g id="xtick_113">
     <g id="line2d_142">
      <g>
       <use style="fill:#024268;stroke:#024268;stroke-width:0.8;" x="154.88" xlink:href="#m7072d11e43" y="36.1875"/>
      </g>
     </g>
    </g>
    <g id="xtick_114">
     <g id="line2d_143">
      <g>
       <use style="fill:#024268;stroke:#024268;stroke-width:0.8;" x="163.52" xlink:href="#m7072d11e43" y="36.1875"/>
      </g>
     </g>
    </g>
    <g id="xtick_115">
     <g id="line2d_144">
      <g>
       <use style="fill:#024268;stroke:#024268;stroke-width:0.8;" x="172.16" xlink:href="#m7072d11e43" y="36.1875"/>
      </g>
     </g>
    </g>
    <g id="xtick_116">
     <g id="line2d_145">
      <g>
       <use style="fill:#024268;stroke:#024268;stroke-width:0.8;" x="189.44" xlink:href="#m7072d11e43" y="36.1875"/>
      </g>
     </g>
    </g>
    <g id="xtick_117">
     <g id="line2d_146">
      <g>
       <use style="fill:#024268;stroke:#024268;stroke-width:0.8;" x="198.08" xlink:href="#m7072d11e43" y="36.1875"/>
      </g>
     </g>
    </g>
    <g id="xtick_118">
     <g id="line2d_147">
      <g>
       <use style="fill:#024268;stroke:#024268;stroke-width:0.8;" x="206.72" xlink:href="#m7072d11e43" y="36.1875"/>
      </g>
     </g>
    </g>
    <g id="xtick_119">
     <g id="line2d_148">
      <g>
       <use style="fill:#024268;stroke:#024268;stroke-width:0.8;" x="215.36" xlink:href="#m7072d11e43" y="36.1875"/>
      </g>
     </g>
    </g>
    <g id="text_34">
     <!-- kilometers -->
     <g style="fill:#024268;" transform="translate(97.55125 19.89875)scale(0.08 -0.08)">
      <use xlink:href="#HelveticaNeue-107"/>
      <use x="51.899994" xlink:href="#HelveticaNeue-105"/>
      <use x="74.099991" xlink:href="#HelveticaNeue-108"/>
      <use x="96.299988" xlink:href="#HelveticaNeue-111"/>
      <use x="153.699982" xlink:href="#HelveticaNeue-109"/>
      <use x="238.999969" xlink:href="#HelveticaNeue-101"/>
      <use x="292.699966" xlink:href="#HelveticaNeue-116"/>
      <use x="324.199951" xlink:href="#HelveticaNeue-101"/>
      <use x="377.899948" xlink:href="#HelveticaNeue-114"/>
      <use x="411.199936" xlink:href="#HelveticaNeue-115"/>
     </g>
    </g>
   </g>
   <g id="patch_12">
    <path d="M 8 36.1875 
L 224 36.1875 
" style="fill:none;stroke:#024268;stroke-linecap:square;stroke-linejoin:miter;"/>
   </g>
  </g>
  <g id="axes_6">
   <g id="matplotlib.axis_8">
    <g id="xtick_120">
     <g id="line2d_149">
      <path clip-path="url(#pe7355ca03d)" d="M 275.97025 134.369318 
L 275.97025 36.1875 
" style="fill:none;stroke:#000000;stroke-linecap:square;stroke-opacity:0.4;"/>
     </g>
     <g id="line2d_150">
      <g>
       <use style="fill:#024268;stroke:#024268;" x="275.97025" xlink:href="#m6b6cf78cfe" y="36.1875"/>
      </g>
     </g>
     <g id="text_35">
      <!-- −60 -->
      <g style="fill:#024268;" transform="translate(269.12275 28.61125)scale(0.08 -0.08)">
       <use xlink:href="#HelveticaNeue-8722"/>
       <use x="59.999985" xlink:href="#HelveticaNeue-54"/>
       <use x="115.599976" xlink:href="#HelveticaNeue-48"/>
      </g>
     </g>
    </g>
    <g id="xtick_121">
     <g id="line2d_151">
      <path clip-path="url(#pe7355ca03d)" d="M 319.17025 134.369318 
L 319.17025 36.1875 
" style="fill:none;stroke:#000000;stroke-linecap:square;stroke-opacity:0.4;"/>
     </g>
     <g id="line2d_152">
      <g>
       <use style="fill:#024268;stroke:#024268;" x="319.17025" xlink:href="#m6b6cf78cfe" y="36.1875"/>
      </g>
     </g>
     <g id="text_36">
      <!-- −40 -->
      <g style="fill:#024268;" transform="translate(312.32275 28.61125)scale(0.08 -0.08)">
       <use xlink:href="#HelveticaNeue-8722"/>
       <use x="59.999985" xlink:href="#HelveticaNeue-52"/>
       <use x="115.599976" xlink:href="#HelveticaNeue-48"/>
      </g>
     </g>
    </g>
    <g id="xtick_122">
     <g id="line2d_153">
      <path clip-path="url(#pe7355ca03d)" d="M 362.37025 134.369318 
L 362.37025 36.1875 
" style="fill:none;stroke:#000000;stroke-linecap:square;stroke-opacity:0.4;"/>
     </g>
     <g id="line2d_154">
      <g>
       <use style="fill:#024268;stroke:#024268;" x="362.37025" xlink:href="#m6b6cf78cfe" y="36.1875"/>
      </g>
     </g>
     <g id="text_37">
      <!-- −20 -->
      <g style="fill:#024268;" transform="translate(355.52275 28.61125)scale(0.08 -0.08)">
       <use xlink:href="#HelveticaNeue-8722"/>
       <use x="59.999985" xlink:href="#HelveticaNeue-50"/>
       <use x="115.599976" xlink:href="#HelveticaNeue-48"/>
      </g>
     </g>
    </g>
    <g id="xtick_123">
     <g id="line2d_155">
      <path clip-path="url(#pe7355ca03d)" d="M 405.57025 134.369318 
L 405.57025 36.1875 
" style="fill:none;stroke:#000000;stroke-linecap:square;stroke-opacity:0.4;"/>
     </g>
     <g id="line2d_156">
      <g>
       <use style="fill:#024268;stroke:#024268;" x="405.57025" xlink:href="#m6b6cf78cfe" y="36.1875"/>
      </g>
     </g>
     <g id="text_38">
      <!-- 0 -->
      <g style="fill:#024268;" transform="translate(403.3465 28.61125)scale(0.08 -0.08)">
       <use xlink:href="#HelveticaNeue-48"/>
      </g>
     </g>
    </g>
    <g id="xtick_124">
     <g id="line2d_157">
      <path clip-path="url(#pe7355ca03d)" d="M 448.77025 134.369318 
L 448.77025 36.1875 
" style="fill:none;stroke:#000000;stroke-linecap:square;stroke-opacity:0.4;"/>
     </g>
     <g id="line2d_158">
      <g>
       <use style="fill:#024268;stroke:#024268;" x="448.77025" xlink:href="#m6b6cf78cfe" y="36.1875"/>
      </g>
     </g>
     <g id="text_39">
      <!-- 20 -->
      <g style="fill:#024268;" transform="translate(444.32275 28.61125)scale(0.08 -0.08)">
       <use xlink:href="#HelveticaNeue-50"/>
       <use x="55.599991" xlink:href="#HelveticaNeue-48"/>
      </g>
     </g>
    </g>
    <g id="xtick_125">
     <g id="line2d_159">
      <g>
       <use style="fill:#024268;stroke:#024268;stroke-width:0.8;" x="254.37025" xlink:href="#m7072d11e43" y="36.1875"/>
      </g>
     </g>
    </g>
    <g id="xtick_126">
     <g id="line2d_160">
      <g>
       <use style="fill:#024268;stroke:#024268;stroke-width:0.8;" x="265.17025" xlink:href="#m7072d11e43" y="36.1875"/>
      </g>
     </g>
    </g>
    <g id="xtick_127">
     <g id="line2d_161">
      <g>
       <use style="fill:#024268;stroke:#024268;stroke-width:0.8;" x="286.77025" xlink:href="#m7072d11e43" y="36.1875"/>
      </g>
     </g>
    </g>
    <g id="xtick_128">
     <g id="line2d_162">
      <g>
       <use style="fill:#024268;stroke:#024268;stroke-width:0.8;" x="297.57025" xlink:href="#m7072d11e43" y="36.1875"/>
      </g>
     </g>
    </g>
    <g id="xtick_129">
     <g id="line2d_163">
      <g>
       <use style="fill:#024268;stroke:#024268;stroke-width:0.8;" x="308.37025" xlink:href="#m7072d11e43" y="36.1875"/>
      </g>
     </g>
    </g>
    <g id="xtick_130">
     <g id="line2d_164">
      <g>
       <use style="fill:#024268;stroke:#024268;stroke-width:0.8;" x="329.97025" xlink:href="#m7072d11e43" y="36.1875"/>
      </g>
     </g>
    </g>
    <g id="xtick_131">
     <g id="line2d_165">
      <g>
       <use style="fill:#024268;stroke:#024268;stroke-width:0.8;" x="340.77025" xlink:href="#m7072d11e43" y="36.1875"/>
      </g>
     </g>
    </g>
    <g id="xtick_132">
     <g id="line2d_166">
      <g>
       <use style="fill:#024268;stroke:#024268;stroke-width:0.8;" x="351.57025" xlink:href="#m7072d11e43" y="36.1875"/>
      </g>
     </g>
    </g>
    <g id="xtick_133">
     <g id="line2d_167">
      <g>
       <use style="fill:#024268;stroke:#024268;stroke-width:0.8;" x="373.17025" xlink:href="#m7072d11e43" y="36.1875"/>
      </g>
     </g>
    </g>
    <g id="xtick_134">
     <g id="line2d_168">
      <g>
       <use style="fill:#024268;stroke:#024268;stroke-width:0.8;" x="383.97025" xlink:href="#m7072d11e43" y="36.1875"/>
      </g>
     </g>
    </g>
    <g id="xtick_135">
     <g id="line2d_169">
      <g>
       <use style="fill:#024268;stroke:#024268;stroke-width:0.8;" x="394.77025" xlink:href="#m7072d11e43" y="36.1875"/>
      </g>
     </g>
    </g>
    <g id="xtick_136">
     <g id="line2d_170">
      <g>
       <use style="fill:#024268;stroke:#024268;stroke-width:0.8;" x="416.37025" xlink:href="#m7072d11e43" y="36.1875"/>
      </g>
     </g>
    </g>
    <g id="xtick_137">
     <g id="line2d_171">
      <g>
       <use style="fill:#024268;stroke:#024268;stroke-width:0.8;" x="427.17025" xlink:href="#m7072d11e43" y="36.1875"/>
      </g>
     </g>
    </g>
    <g id="xtick_138">
     <g id="line2d_172">
      <g>
       <use style="fill:#024268;stroke:#024268;stroke-width:0.8;" x="437.97025" xlink:href="#m7072d11e43" y="36.1875"/>
      </g>
     </g>
    </g>
    <g id="xtick_139">
     <g id="line2d_173">
      <g>
       <use style="fill:#024268;stroke:#024268;stroke-width:0.8;" x="459.57025" xlink:href="#m7072d11e43" y="36.1875"/>
      </g>
     </g>
    </g>
    <g id="text_40">
     <!-- temperature (°C) -->
     <g style="fill:#024268;" transform="translate(326.110625 19.89875)scale(0.08 -0.08)">
      <use xlink:href="#HelveticaNeue-116"/>
      <use x="31.499985" xlink:href="#HelveticaNeue-101"/>
      <use x="85.199982" xlink:href="#HelveticaNeue-109"/>
      <use x="170.499969" xlink:href="#HelveticaNeue-112"/>
      <use x="229.799957" xlink:href="#HelveticaNeue-101"/>
      <use x="283.499954" xlink:href="#HelveticaNeue-114"/>
      <use x="316.799942" xlink:href="#HelveticaNeue-97"/>
      <use x="370.499939" xlink:href="#HelveticaNeue-116"/>
      <use x="401.999924" xlink:href="#HelveticaNeue-117"/>
      <use x="457.599915" xlink:href="#HelveticaNeue-114"/>
      <use x="490.884277" xlink:href="#HelveticaNeue-101"/>
      <use x="544.584274" xlink:href="#HelveticaNeue-32"/>
      <use x="572.384262" xlink:href="#HelveticaNeue-40"/>
      <use x="598.284256" xlink:href="#HelveticaNeue-176"/>
      <use x="638.284241" xlink:href="#HelveticaNeue-67"/>
      <use x="710.484222" xlink:href="#HelveticaNeue-41"/>
     </g>
    </g>
   </g>
   <g id="patch_13">
    <path d="M 247.56625 36.1875 
L 463.56625 36.1875 
" style="fill:none;stroke:#024268;stroke-linecap:square;stroke-linejoin:miter;"/>
   </g>
  </g>
  <g id="text_41">
   <!-- Duplicate x-axes with simple, custom transformations -->
   <defs>
    <path d="M 22.59375 13.203125 
L 22.59375 58.203125 
L 33.796875 58.203125 
Q 39.59375 58.203125 43.546875 56.546875 
Q 47.5 54.90625 49.890625 51.796875 
Q 52.296875 48.703125 53.34375 44.34375 
Q 54.40625 40 54.40625 34.59375 
Q 54.40625 28.703125 52.90625 24.59375 
Q 51.40625 20.5 48.90625 17.953125 
Q 46.40625 15.40625 43.203125 14.296875 
Q 40 13.203125 36.59375 13.203125 
z
M 6.90625 71.40625 
L 6.90625 0 
L 37.703125 0 
Q 45.90625 0 51.953125 2.75 
Q 58 5.5 62.046875 10.296875 
Q 66.09375 15.09375 68.09375 21.6875 
Q 70.09375 28.296875 70.09375 36.09375 
Q 70.09375 45 67.640625 51.59375 
Q 65.203125 58.203125 60.84375 62.59375 
Q 56.5 67 50.546875 69.203125 
Q 44.59375 71.40625 37.703125 71.40625 
z
" id="HelveticaNeue-Bold-68"/>
    <path d="M 53.90625 0 
L 53.90625 51.703125 
L 39.703125 51.703125 
L 39.703125 24.59375 
Q 39.703125 16.703125 37.09375 13.25 
Q 34.5 9.796875 28.703125 9.796875 
Q 23.59375 9.796875 21.59375 12.9375 
Q 19.59375 16.09375 19.59375 22.5 
L 19.59375 51.703125 
L 5.40625 51.703125 
L 5.40625 19.90625 
Q 5.40625 15.09375 6.25 11.140625 
Q 7.09375 7.203125 9.1875 4.453125 
Q 11.296875 1.703125 14.9375 0.203125 
Q 18.59375 -1.296875 24.296875 -1.296875 
Q 28.796875 -1.296875 33.09375 0.703125 
Q 37.40625 2.703125 40.09375 7.203125 
L 40.40625 7.203125 
L 40.40625 0 
z
" id="HelveticaNeue-Bold-117"/>
    <path d="M 31.5 9.296875 
Q 28.09375 9.296875 25.6875 10.6875 
Q 23.296875 12.09375 21.84375 14.34375 
Q 20.40625 16.59375 19.75 19.59375 
Q 19.09375 22.59375 19.09375 25.703125 
Q 19.09375 28.90625 19.6875 31.90625 
Q 20.296875 34.90625 21.75 37.203125 
Q 23.203125 39.5 25.546875 40.953125 
Q 27.90625 42.40625 31.40625 42.40625 
Q 34.796875 42.40625 37.140625 40.953125 
Q 39.5 39.5 41 37.140625 
Q 42.5 34.796875 43.140625 31.796875 
Q 43.796875 28.796875 43.796875 25.703125 
Q 43.796875 22.59375 43.1875 19.59375 
Q 42.59375 16.59375 41.140625 14.34375 
Q 39.703125 12.09375 37.34375 10.6875 
Q 35 9.296875 31.5 9.296875 
z
M 5.40625 51.703125 
L 5.40625 -18.09375 
L 19.59375 -18.09375 
L 19.59375 6.40625 
L 19.796875 6.40625 
Q 22.40625 2.59375 26.453125 0.640625 
Q 30.5 -1.296875 35.296875 -1.296875 
Q 41 -1.296875 45.25 0.890625 
Q 49.5 3.09375 52.34375 6.796875 
Q 55.203125 10.5 56.59375 15.296875 
Q 58 20.09375 58 25.296875 
Q 58 30.796875 56.59375 35.84375 
Q 55.203125 40.90625 52.296875 44.703125 
Q 49.40625 48.5 45 50.796875 
Q 40.59375 53.09375 34.5 53.09375 
Q 29.703125 53.09375 25.703125 51.1875 
Q 21.703125 49.296875 19.09375 45.09375 
L 18.90625 45.09375 
L 18.90625 51.703125 
z
" id="HelveticaNeue-Bold-112"/>
    <path d="M 5.796875 71.40625 
L 5.796875 0 
L 20 0 
L 20 71.40625 
z
" id="HelveticaNeue-Bold-108"/>
    <path d="M 20 59.703125 
L 20 71.40625 
L 5.796875 71.40625 
L 5.796875 59.703125 
z
M 5.796875 51.703125 
L 5.796875 0 
L 20 0 
L 20 51.703125 
z
" id="HelveticaNeue-Bold-105"/>
    <path d="M 40.59375 33.5 
L 54.5 33.5 
Q 54.203125 38.5 52.09375 42.140625 
Q 50 45.796875 46.640625 48.25 
Q 43.296875 50.703125 39.046875 51.890625 
Q 34.796875 53.09375 30.203125 53.09375 
Q 23.90625 53.09375 19 51 
Q 14.09375 48.90625 10.6875 45.15625 
Q 7.296875 41.40625 5.546875 36.25 
Q 3.796875 31.09375 3.796875 25.09375 
Q 3.796875 19.296875 5.6875 14.4375 
Q 7.59375 9.59375 11 6.09375 
Q 14.40625 2.59375 19.25 0.640625 
Q 24.09375 -1.296875 29.90625 -1.296875 
Q 40.203125 -1.296875 46.796875 4.09375 
Q 53.40625 9.5 54.796875 19.796875 
L 41.09375 19.796875 
Q 40.40625 15 37.65625 12.140625 
Q 34.90625 9.296875 29.796875 9.296875 
Q 26.5 9.296875 24.203125 10.796875 
Q 21.90625 12.296875 20.546875 14.640625 
Q 19.203125 17 18.59375 19.890625 
Q 18 22.796875 18 25.59375 
Q 18 28.5 18.59375 31.453125 
Q 19.203125 34.40625 20.640625 36.84375 
Q 22.09375 39.296875 24.390625 40.84375 
Q 26.703125 42.40625 30.09375 42.40625 
Q 39.203125 42.40625 40.59375 33.5 
z
" id="HelveticaNeue-Bold-99"/>
    <path d="M 4.796875 35.796875 
Q 5.09375 40.796875 7.296875 44.09375 
Q 9.5 47.40625 12.890625 49.40625 
Q 16.296875 51.40625 20.546875 52.25 
Q 24.796875 53.09375 29.09375 53.09375 
Q 33 53.09375 37 52.546875 
Q 41 52 44.296875 50.390625 
Q 47.59375 48.796875 49.6875 45.9375 
Q 51.796875 43.09375 51.796875 38.40625 
L 51.796875 11.5 
Q 51.796875 8 52.1875 4.796875 
Q 52.59375 1.59375 53.59375 0 
L 39.203125 0 
Q 38.796875 1.203125 38.546875 2.453125 
Q 38.296875 3.703125 38.203125 5 
Q 34.796875 1.5 30.1875 0.09375 
Q 25.59375 -1.296875 20.796875 -1.296875 
Q 17.09375 -1.296875 13.890625 -0.390625 
Q 10.703125 0.5 8.296875 2.390625 
Q 5.90625 4.296875 4.546875 7.1875 
Q 3.203125 10.09375 3.203125 14.09375 
Q 3.203125 18.5 4.75 21.34375 
Q 6.296875 24.203125 8.75 25.890625 
Q 11.203125 27.59375 14.34375 28.4375 
Q 17.5 29.296875 20.703125 29.796875 
Q 23.90625 30.296875 27 30.59375 
Q 30.09375 30.90625 32.5 31.5 
Q 34.90625 32.09375 36.296875 33.25 
Q 37.703125 34.40625 37.59375 36.59375 
Q 37.59375 38.90625 36.84375 40.25 
Q 36.09375 41.59375 34.84375 42.34375 
Q 33.59375 43.09375 31.9375 43.34375 
Q 30.296875 43.59375 28.40625 43.59375 
Q 24.203125 43.59375 21.796875 41.796875 
Q 19.40625 40 19 35.796875 
z
M 37.59375 25.296875 
Q 36.703125 24.5 35.34375 24.046875 
Q 34 23.59375 32.453125 23.296875 
Q 30.90625 23 29.203125 22.796875 
Q 27.5 22.59375 25.796875 22.296875 
Q 24.203125 22 22.640625 21.5 
Q 21.09375 21 19.9375 20.140625 
Q 18.796875 19.296875 18.09375 18 
Q 17.40625 16.703125 17.40625 14.703125 
Q 17.40625 12.796875 18.09375 11.5 
Q 18.796875 10.203125 20 9.453125 
Q 21.203125 8.703125 22.796875 8.390625 
Q 24.40625 8.09375 26.09375 8.09375 
Q 30.296875 8.09375 32.59375 9.5 
Q 34.90625 10.90625 36 12.84375 
Q 37.09375 14.796875 37.34375 16.796875 
Q 37.59375 18.796875 37.59375 20 
z
" id="HelveticaNeue-Bold-97"/>
    <path d="M 23.40625 51.703125 
L 23.40625 67.203125 
L 9.203125 67.203125 
L 9.203125 51.703125 
L 0.59375 51.703125 
L 0.59375 42.203125 
L 9.203125 42.203125 
L 9.203125 11.703125 
Q 9.203125 7.796875 10.5 5.390625 
Q 11.796875 3 14.046875 1.703125 
Q 16.296875 0.40625 19.25 -0.046875 
Q 22.203125 -0.5 25.5 -0.5 
Q 27.59375 -0.5 29.796875 -0.390625 
Q 32 -0.296875 33.796875 0 
L 33.796875 11 
Q 32.796875 10.796875 31.6875 10.6875 
Q 30.59375 10.59375 29.40625 10.59375 
Q 25.796875 10.59375 24.59375 11.796875 
Q 23.40625 13 23.40625 16.59375 
L 23.40625 42.203125 
L 33.796875 42.203125 
L 33.796875 51.703125 
z
" id="HelveticaNeue-Bold-116"/>
    <path d="M 40.203125 31.40625 
L 17.09375 31.40625 
Q 17.203125 32.90625 17.75 34.796875 
Q 18.296875 36.703125 19.640625 38.390625 
Q 21 40.09375 23.25 41.25 
Q 25.5 42.40625 28.90625 42.40625 
Q 34.09375 42.40625 36.640625 39.59375 
Q 39.203125 36.796875 40.203125 31.40625 
z
M 17.09375 22.40625 
L 54.40625 22.40625 
Q 54.796875 28.40625 53.390625 33.90625 
Q 52 39.40625 48.84375 43.703125 
Q 45.703125 48 40.796875 50.546875 
Q 35.90625 53.09375 29.296875 53.09375 
Q 23.40625 53.09375 18.546875 51 
Q 13.703125 48.90625 10.203125 45.25 
Q 6.703125 41.59375 4.796875 36.59375 
Q 2.90625 31.59375 2.90625 25.796875 
Q 2.90625 19.796875 4.75 14.796875 
Q 6.59375 9.796875 10 6.1875 
Q 13.40625 2.59375 18.296875 0.640625 
Q 23.203125 -1.296875 29.296875 -1.296875 
Q 38.09375 -1.296875 44.296875 2.703125 
Q 50.5 6.703125 53.5 16 
L 41 16 
Q 40.296875 13.59375 37.1875 11.4375 
Q 34.09375 9.296875 29.796875 9.296875 
Q 23.796875 9.296875 20.59375 12.390625 
Q 17.40625 15.5 17.09375 22.40625 
z
" id="HelveticaNeue-Bold-101"/>
    <path id="HelveticaNeue-Bold-32"/>
    <path d="M 18.59375 27.203125 
L 0 0 
L 15.90625 0 
L 26.703125 16.296875 
L 37.5 0 
L 53.703125 0 
L 34.59375 27.5 
L 51.59375 51.703125 
L 35.90625 51.703125 
L 26.90625 38.203125 
L 17.796875 51.703125 
L 1.59375 51.703125 
z
" id="HelveticaNeue-Bold-120"/>
    <path d="M 5.296875 33.40625 
L 5.296875 21.203125 
L 35.40625 21.203125 
L 35.40625 33.40625 
z
" id="HelveticaNeue-Bold-45"/>
    <path d="M 16.40625 16.796875 
L 2.90625 16.796875 
Q 3.09375 11.59375 5.25 8.140625 
Q 7.40625 4.703125 10.75 2.59375 
Q 14.09375 0.5 18.390625 -0.390625 
Q 22.703125 -1.296875 27.203125 -1.296875 
Q 31.59375 -1.296875 35.84375 -0.4375 
Q 40.09375 0.40625 43.390625 2.5 
Q 46.703125 4.59375 48.75 8.046875 
Q 50.796875 11.5 50.796875 16.59375 
Q 50.796875 20.203125 49.390625 22.640625 
Q 48 25.09375 45.703125 26.75 
Q 43.40625 28.40625 40.453125 29.40625 
Q 37.5 30.40625 34.40625 31.09375 
Q 31.40625 31.796875 28.5 32.390625 
Q 25.59375 33 23.34375 33.75 
Q 21.09375 34.5 19.6875 35.703125 
Q 18.296875 36.90625 18.296875 38.796875 
Q 18.296875 40.40625 19.09375 41.34375 
Q 19.90625 42.296875 21.046875 42.796875 
Q 22.203125 43.296875 23.59375 43.4375 
Q 25 43.59375 26.203125 43.59375 
Q 30 43.59375 32.796875 42.140625 
Q 35.59375 40.703125 35.90625 36.59375 
L 49.40625 36.59375 
Q 49 41.40625 46.953125 44.546875 
Q 44.90625 47.703125 41.796875 49.59375 
Q 38.703125 51.5 34.75 52.296875 
Q 30.796875 53.09375 26.59375 53.09375 
Q 22.40625 53.09375 18.40625 52.34375 
Q 14.40625 51.59375 11.203125 49.75 
Q 8 47.90625 6.046875 44.703125 
Q 4.09375 41.5 4.09375 36.5 
Q 4.09375 33.09375 5.5 30.75 
Q 6.90625 28.40625 9.203125 26.84375 
Q 11.5 25.296875 14.453125 24.34375 
Q 17.40625 23.40625 20.5 22.703125 
Q 28.09375 21.09375 32.34375 19.5 
Q 36.59375 17.90625 36.59375 14.703125 
Q 36.59375 12.796875 35.6875 11.546875 
Q 34.796875 10.296875 33.4375 9.546875 
Q 32.09375 8.796875 30.4375 8.4375 
Q 28.796875 8.09375 27.296875 8.09375 
Q 25.203125 8.09375 23.25 8.59375 
Q 21.296875 9.09375 19.796875 10.140625 
Q 18.296875 11.203125 17.34375 12.84375 
Q 16.40625 14.5 16.40625 16.796875 
z
" id="HelveticaNeue-Bold-115"/>
    <path d="M 64.5 0 
L 80.796875 51.703125 
L 66.203125 51.703125 
L 56.703125 16.703125 
L 56.5 16.703125 
L 47.703125 51.703125 
L 33.90625 51.703125 
L 25.296875 16.59375 
L 25.09375 16.59375 
L 15.59375 51.703125 
L 0.59375 51.703125 
L 17 0 
L 31.703125 0 
L 40.5 34.703125 
L 40.703125 34.703125 
L 49.90625 0 
z
" id="HelveticaNeue-Bold-119"/>
    <path d="M 5.40625 71.40625 
L 5.40625 0 
L 19.59375 0 
L 19.59375 27.09375 
Q 19.59375 35 22.1875 38.453125 
Q 24.796875 41.90625 30.59375 41.90625 
Q 35.703125 41.90625 37.703125 38.75 
Q 39.703125 35.59375 39.703125 29.203125 
L 39.703125 0 
L 53.90625 0 
L 53.90625 31.796875 
Q 53.90625 36.59375 53.046875 40.546875 
Q 52.203125 44.5 50.09375 47.25 
Q 48 50 44.34375 51.546875 
Q 40.703125 53.09375 35 53.09375 
Q 31 53.09375 26.796875 51.046875 
Q 22.59375 49 19.90625 44.5 
L 19.59375 44.5 
L 19.59375 71.40625 
z
" id="HelveticaNeue-Bold-104"/>
    <path d="M 5.796875 51.703125 
L 5.796875 0 
L 20 0 
L 20 30 
Q 20 33.796875 21.09375 36.140625 
Q 22.203125 38.5 23.75 39.75 
Q 25.296875 41 26.9375 41.453125 
Q 28.59375 41.90625 29.59375 41.90625 
Q 33 41.90625 34.75 40.75 
Q 36.5 39.59375 37.25 37.6875 
Q 38 35.796875 38.09375 33.546875 
Q 38.203125 31.296875 38.203125 29 
L 38.203125 0 
L 52.40625 0 
L 52.40625 28.796875 
Q 52.40625 31.203125 52.75 33.546875 
Q 53.09375 35.90625 54.140625 37.75 
Q 55.203125 39.59375 57.046875 40.75 
Q 58.90625 41.90625 61.90625 41.90625 
Q 64.90625 41.90625 66.65625 40.90625 
Q 68.40625 39.90625 69.296875 38.203125 
Q 70.203125 36.5 70.390625 34.203125 
Q 70.59375 31.90625 70.59375 29.296875 
L 70.59375 0 
L 84.796875 0 
L 84.796875 34.59375 
Q 84.796875 39.59375 83.390625 43.140625 
Q 82 46.703125 79.5 48.890625 
Q 77 51.09375 73.5 52.09375 
Q 70 53.09375 65.90625 53.09375 
Q 60.5 53.09375 56.546875 50.5 
Q 52.59375 47.90625 50.296875 44.5 
Q 48.203125 49.296875 44.140625 51.1875 
Q 40.09375 53.09375 35.203125 53.09375 
Q 30.09375 53.09375 26.140625 50.890625 
Q 22.203125 48.703125 19.40625 44.703125 
L 19.203125 44.703125 
L 19.203125 51.703125 
z
" id="HelveticaNeue-Bold-109"/>
    <path d="M 6.09375 15.40625 
L 6.09375 0 
L 13.296875 0 
Q 13.40625 -1.59375 12.90625 -3.140625 
Q 12.40625 -4.703125 11.40625 -5.953125 
Q 10.40625 -7.203125 9.046875 -8.09375 
Q 7.703125 -9 6.203125 -9.296875 
L 6.203125 -16.5 
Q 9.40625 -16 12.25 -14.640625 
Q 15.09375 -13.296875 17.1875 -11.1875 
Q 19.296875 -9.09375 20.546875 -6.25 
Q 21.796875 -3.40625 21.796875 0 
L 21.796875 15.40625 
z
" id="HelveticaNeue-Bold-44"/>
    <path d="M 18 25.796875 
Q 18 28.90625 18.59375 31.90625 
Q 19.203125 34.90625 20.640625 37.203125 
Q 22.09375 39.5 24.5 40.953125 
Q 26.90625 42.40625 30.5 42.40625 
Q 34.09375 42.40625 36.546875 40.953125 
Q 39 39.5 40.453125 37.203125 
Q 41.90625 34.90625 42.5 31.90625 
Q 43.09375 28.90625 43.09375 25.796875 
Q 43.09375 22.703125 42.5 19.75 
Q 41.90625 16.796875 40.453125 14.4375 
Q 39 12.09375 36.546875 10.6875 
Q 34.09375 9.296875 30.5 9.296875 
Q 26.90625 9.296875 24.5 10.6875 
Q 22.09375 12.09375 20.640625 14.4375 
Q 19.203125 16.796875 18.59375 19.75 
Q 18 22.703125 18 25.796875 
z
M 3.796875 25.796875 
Q 3.796875 19.59375 5.6875 14.59375 
Q 7.59375 9.59375 11.09375 6.046875 
Q 14.59375 2.5 19.5 0.59375 
Q 24.40625 -1.296875 30.5 -1.296875 
Q 36.59375 -1.296875 41.546875 0.59375 
Q 46.5 2.5 50 6.046875 
Q 53.5 9.59375 55.390625 14.59375 
Q 57.296875 19.59375 57.296875 25.796875 
Q 57.296875 32 55.390625 37.046875 
Q 53.5 42.09375 50 45.640625 
Q 46.5 49.203125 41.546875 51.140625 
Q 36.59375 53.09375 30.5 53.09375 
Q 24.40625 53.09375 19.5 51.140625 
Q 14.59375 49.203125 11.09375 45.640625 
Q 7.59375 42.09375 5.6875 37.046875 
Q 3.796875 32 3.796875 25.796875 
z
" id="HelveticaNeue-Bold-111"/>
    <path d="M 5.40625 51.703125 
L 5.40625 0 
L 19.59375 0 
L 19.59375 23.296875 
Q 19.59375 26.796875 20.296875 29.796875 
Q 21 32.796875 22.640625 35.046875 
Q 24.296875 37.296875 27 38.59375 
Q 29.703125 39.90625 33.59375 39.90625 
Q 34.90625 39.90625 36.296875 39.75 
Q 37.703125 39.59375 38.703125 39.40625 
L 38.703125 52.59375 
Q 37 53.09375 35.59375 53.09375 
Q 32.90625 53.09375 30.40625 52.296875 
Q 27.90625 51.5 25.703125 50.046875 
Q 23.5 48.59375 21.796875 46.546875 
Q 20.09375 44.5 19.09375 42.09375 
L 18.90625 42.09375 
L 18.90625 51.703125 
z
" id="HelveticaNeue-Bold-114"/>
    <path d="M 5.40625 51.703125 
L 5.40625 0 
L 19.59375 0 
L 19.59375 27.09375 
Q 19.59375 35 22.1875 38.453125 
Q 24.796875 41.90625 30.59375 41.90625 
Q 35.703125 41.90625 37.703125 38.75 
Q 39.703125 35.59375 39.703125 29.203125 
L 39.703125 0 
L 53.90625 0 
L 53.90625 31.796875 
Q 53.90625 36.59375 53.046875 40.546875 
Q 52.203125 44.5 50.09375 47.25 
Q 48 50 44.34375 51.546875 
Q 40.703125 53.09375 35 53.09375 
Q 30.5 53.09375 26.203125 51.046875 
Q 21.90625 49 19.203125 44.5 
L 18.90625 44.5 
L 18.90625 51.703125 
z
" id="HelveticaNeue-Bold-110"/>
    <path d="M 8.5 42.203125 
L 8.5 0 
L 22.703125 0 
L 22.703125 42.203125 
L 32.5 42.203125 
L 32.5 51.703125 
L 22.703125 51.703125 
L 22.703125 54.796875 
Q 22.703125 58 23.953125 59.34375 
Q 25.203125 60.703125 28.09375 60.703125 
Q 30.796875 60.703125 33.296875 60.40625 
L 33.296875 71 
Q 31.5 71.09375 29.59375 71.25 
Q 27.703125 71.40625 25.796875 71.40625 
Q 17.09375 71.40625 12.796875 67 
Q 8.5 62.59375 8.5 55.703125 
L 8.5 51.703125 
L 0 51.703125 
L 0 42.203125 
z
" id="HelveticaNeue-Bold-102"/>
   </defs>
   <g transform="translate(120.065072 9.382206)scale(0.09 -0.09)">
    <use xlink:href="#HelveticaNeue-Bold-68"/>
    <use x="74.099991" xlink:href="#HelveticaNeue-Bold-117"/>
    <use x="133.399979" xlink:href="#HelveticaNeue-Bold-112"/>
    <use x="194.499969" xlink:href="#HelveticaNeue-Bold-108"/>
    <use x="220.299957" xlink:href="#HelveticaNeue-Bold-105"/>
    <use x="246.099945" xlink:href="#HelveticaNeue-Bold-99"/>
    <use x="303.499939" xlink:href="#HelveticaNeue-Bold-97"/>
    <use x="360.899933" xlink:href="#HelveticaNeue-Bold-116"/>
    <use x="396.09993" xlink:href="#HelveticaNeue-Bold-101"/>
    <use x="453.499924" xlink:href="#HelveticaNeue-Bold-32"/>
    <use x="481.299911" xlink:href="#HelveticaNeue-Bold-120"/>
    <use x="534.999908" xlink:href="#HelveticaNeue-Bold-45"/>
    <use x="575.699905" xlink:href="#HelveticaNeue-Bold-97"/>
    <use x="633.099899" xlink:href="#HelveticaNeue-Bold-120"/>
    <use x="686.799896" xlink:href="#HelveticaNeue-Bold-101"/>
    <use x="744.19989" xlink:href="#HelveticaNeue-Bold-115"/>
    <use x="797.899887" xlink:href="#HelveticaNeue-Bold-32"/>
    <use x="825.699875" xlink:href="#HelveticaNeue-Bold-119"/>
    <use x="907.099869" xlink:href="#HelveticaNeue-Bold-105"/>
    <use x="932.899857" xlink:href="#HelveticaNeue-Bold-116"/>
    <use x="968.099854" xlink:href="#HelveticaNeue-Bold-104"/>
    <use x="1027.399841" xlink:href="#HelveticaNeue-Bold-32"/>
    <use x="1055.199829" xlink:href="#HelveticaNeue-Bold-115"/>
    <use x="1108.899826" xlink:href="#HelveticaNeue-Bold-105"/>
    <use x="1134.699814" xlink:href="#HelveticaNeue-Bold-109"/>
    <use x="1225.299805" xlink:href="#HelveticaNeue-Bold-112"/>
    <use x="1286.399796" xlink:href="#HelveticaNeue-Bold-108"/>
    <use x="1312.199783" xlink:href="#HelveticaNeue-Bold-101"/>
    <use x="1369.599777" xlink:href="#HelveticaNeue-Bold-44"/>
    <use x="1397.399765" xlink:href="#HelveticaNeue-Bold-32"/>
    <use x="1425.199753" xlink:href="#HelveticaNeue-Bold-99"/>
    <use x="1482.599747" xlink:href="#HelveticaNeue-Bold-117"/>
    <use x="1541.899734" xlink:href="#HelveticaNeue-Bold-115"/>
    <use x="1595.599731" xlink:href="#HelveticaNeue-Bold-116"/>
    <use x="1630.799728" xlink:href="#HelveticaNeue-Bold-111"/>
    <use x="1691.899719" xlink:href="#HelveticaNeue-Bold-109"/>
    <use x="1782.49971" xlink:href="#HelveticaNeue-Bold-32"/>
    <use x="1810.299698" xlink:href="#HelveticaNeue-Bold-116"/>
    <use x="1845.499695" xlink:href="#HelveticaNeue-Bold-114"/>
    <use x="1884.399689" xlink:href="#HelveticaNeue-Bold-97"/>
    <use x="1941.799683" xlink:href="#HelveticaNeue-Bold-110"/>
    <use x="2001.09967" xlink:href="#HelveticaNeue-Bold-115"/>
    <use x="2054.799667" xlink:href="#HelveticaNeue-Bold-102"/>
    <use x="2088.099655" xlink:href="#HelveticaNeue-Bold-111"/>
    <use x="2149.199646" xlink:href="#HelveticaNeue-Bold-114"/>
    <use x="2188.09964" xlink:href="#HelveticaNeue-Bold-109"/>
    <use x="2278.699631" xlink:href="#HelveticaNeue-Bold-97"/>
    <use x="2336.099625" xlink:href="#HelveticaNeue-Bold-116"/>
    <use x="2371.299622" xlink:href="#HelveticaNeue-Bold-105"/>
    <use x="2397.099609" xlink:href="#HelveticaNeue-Bold-111"/>
    <use x="2458.1996" xlink:href="#HelveticaNeue-Bold-110"/>
    <use x="2517.499588" xlink:href="#HelveticaNeue-Bold-115"/>
   </g>
  </g>
 </g>
 <defs>
  <clipPath id="p3daacefe0c">
   <rect height="98.181818" width="216" x="8" y="36.1875"/>
  </clipPath>
  <clipPath id="pe7355ca03d">
   <rect height="98.181818" width="216" x="247.56625" y="36.1875"/>
  </clipPath>
 </defs>
</svg>
