STARTFONT 2.1
FONT -Fondu-Helvetica-Medium-R-Normal--18-170-75-75-P-97-MacRoman-1
SIZE 17 75 75
FONTBOUNDINGBOX 17 18 -1 -4
COMMENT Created by Fondu from a mac NFNT/FONT resource
STARTPROPERTIES 17
FOUNDRY "Fondu"
FAMILY_NAME "Helvetica"
WEIGHT_NAME "Medium"
SLANT "R"
SETWIDTH_NAME "Normal"
ADD_STYLE_NAME ""
PIXEL_SIZE 18
POINT_SIZE 170
RESOLUTION_X 75
RESOLUTION_Y 75
SPACING "P"
AVERAGE_WIDTH 97
CHARSET_REGISTRY "MacRoman"
CHARSET_ENCODING "1"
FONT_ASCENT 14
FONT_DESCENT 4
FACE_NAME "Helvetica"
ENDPROPERTIES
CHARS 223
STARTCHAR space
ENCODING 32
SWIDTH 278 0
DWIDTH 4 0
BBX 0 0 0 -4
BITMAP
ENDCHAR
STARTCHAR exclam
ENCODING 33
SWIDTH 278 0
DWIDTH 5 0
BBX 2 13 2 0
BITMAP
C0
C0
C0
C0
C0
C0
C0
C0
C0
C0
00
C0
C0
ENDCHAR
STARTCHAR quotedbl
ENCODING 34
SWIDTH 355 0
DWIDTH 6 0
BBX 3 4 1 9
BITMAP
A0
A0
A0
A0
ENDCHAR
STARTCHAR numbersign
ENCODING 35
SWIDTH 556 0
DWIDTH 10 0
BBX 8 11 1 2
BITMAP
12
12
12
7F
24
24
24
FE
48
48
48
ENDCHAR
STARTCHAR dollar
ENCODING 36
SWIDTH 556 0
DWIDTH 10 0
BBX 9 16 0 -2
BITMAP
0800
3E00
7F00
EB80
C980
E800
7C00
1F00
0B80
C980
C980
EB80
7F00
3E00
0800
0800
ENDCHAR
STARTCHAR percent
ENCODING 37
SWIDTH 889 0
DWIDTH 16 0
BBX 14 13 0 0
BITMAP
7860
CC40
84C0
8480
CD80
7900
0300
0278
06CC
0484
0C84
08CC
1878
ENDCHAR
STARTCHAR ampersand
ENCODING 38
SWIDTH 667 0
DWIDTH 12 0
BBX 12 13 0 0
BITMAP
3C00
7E00
6600
6600
3C00
1860
7C60
66C0
C3C0
C180
63C0
7E60
1C30
ENDCHAR
STARTCHAR quotesingle
ENCODING 39
SWIDTH 191 0
DWIDTH 4 0
BBX 1 4 1 9
BITMAP
80
80
80
80
ENDCHAR
STARTCHAR parenleft
ENCODING 40
SWIDTH 333 0
DWIDTH 6 0
BBX 4 17 1 -4
BITMAP
10
20
60
40
C0
C0
C0
C0
C0
C0
C0
C0
C0
40
60
20
10
ENDCHAR
STARTCHAR parenright
ENCODING 41
SWIDTH 333 0
DWIDTH 6 0
BBX 4 17 1 -4
BITMAP
80
40
60
20
30
30
30
30
30
30
30
30
30
20
60
40
80
ENDCHAR
STARTCHAR asterisk
ENCODING 42
SWIDTH 389 0
DWIDTH 7 0
BBX 5 6 0 7
BITMAP
20
20
F8
70
D8
88
ENDCHAR
STARTCHAR plus
ENCODING 43
SWIDTH 584 0
DWIDTH 11 0
BBX 8 8 1 1
BITMAP
18
18
18
FF
FF
18
18
18
ENDCHAR
STARTCHAR comma
ENCODING 44
SWIDTH 278 0
DWIDTH 5 0
BBX 2 5 1 -3
BITMAP
C0
C0
40
40
80
ENDCHAR
STARTCHAR hyphen
ENCODING 45
SWIDTH 333 0
DWIDTH 6 0
BBX 5 2 0 4
BITMAP
F8
F8
ENDCHAR
STARTCHAR period
ENCODING 46
SWIDTH 278 0
DWIDTH 5 0
BBX 2 2 1 0
BITMAP
C0
C0
ENDCHAR
STARTCHAR slash
ENCODING 47
SWIDTH 278 0
DWIDTH 5 0
BBX 4 13 0 0
BITMAP
30
30
30
30
60
60
60
60
60
C0
C0
C0
C0
ENDCHAR
STARTCHAR zero
ENCODING 48
SWIDTH 556 0
DWIDTH 10 0
BBX 8 13 1 0
BITMAP
18
7E
66
C3
C3
C3
C3
C3
C3
C3
66
7E
18
ENDCHAR
STARTCHAR one
ENCODING 49
SWIDTH 556 0
DWIDTH 10 0
BBX 5 13 1 0
BITMAP
18
38
78
D8
18
18
18
18
18
18
18
18
18
ENDCHAR
STARTCHAR two
ENCODING 50
SWIDTH 556 0
DWIDTH 10 0
BBX 8 13 0 0
BITMAP
18
7E
66
C3
C3
03
06
0E
1C
38
70
FF
FF
ENDCHAR
STARTCHAR three
ENCODING 51
SWIDTH 556 0
DWIDTH 10 0
BBX 8 13 0 0
BITMAP
38
FE
C6
03
07
1E
1E
07
03
03
C6
FE
38
ENDCHAR
STARTCHAR four
ENCODING 52
SWIDTH 556 0
DWIDTH 10 0
BBX 9 13 0 0
BITMAP
0200
0600
0E00
1E00
3600
6600
C600
FF80
FF80
0600
0600
0600
0600
ENDCHAR
STARTCHAR five
ENCODING 53
SWIDTH 556 0
DWIDTH 10 0
BBX 9 13 0 0
BITMAP
7F00
7F00
6000
6000
7C00
7F00
0300
0180
C180
C180
6300
7F00
1C00
ENDCHAR
STARTCHAR six
ENCODING 54
SWIDTH 556 0
DWIDTH 10 0
BBX 9 13 0 0
BITMAP
1E00
7F00
6300
C000
DC00
FF00
E300
C180
C180
C180
6300
7F00
1C00
ENDCHAR
STARTCHAR seven
ENCODING 55
SWIDTH 556 0
DWIDTH 10 0
BBX 8 13 1 0
BITMAP
FF
FF
03
03
06
06
0C
0C
18
18
30
30
30
ENDCHAR
STARTCHAR eight
ENCODING 56
SWIDTH 556 0
DWIDTH 10 0
BBX 9 13 0 0
BITMAP
1C00
3E00
6300
6300
6300
3E00
7F00
6300
C180
C180
6300
7F00
1C00
ENDCHAR
STARTCHAR nine
ENCODING 57
SWIDTH 556 0
DWIDTH 10 0
BBX 9 13 0 0
BITMAP
1C00
7F00
6300
C180
C180
C180
6380
7F80
1D80
0180
6300
7F00
1C00
ENDCHAR
STARTCHAR colon
ENCODING 58
SWIDTH 278 0
DWIDTH 5 0
BBX 2 10 2 0
BITMAP
C0
C0
00
00
00
00
00
00
C0
C0
ENDCHAR
STARTCHAR semicolon
ENCODING 59
SWIDTH 278 0
DWIDTH 5 0
BBX 2 13 2 -3
BITMAP
C0
C0
00
00
00
00
00
00
C0
C0
40
40
80
ENDCHAR
STARTCHAR less
ENCODING 60
SWIDTH 584 0
DWIDTH 11 0
BBX 10 9 0 1
BITMAP
00C0
03C0
0F00
3C00
F000
3C00
0F00
03C0
00C0
ENDCHAR
STARTCHAR equal
ENCODING 61
SWIDTH 584 0
DWIDTH 11 0
BBX 9 6 1 2
BITMAP
FF80
FF80
0000
0000
FF80
FF80
ENDCHAR
STARTCHAR greater
ENCODING 62
SWIDTH 584 0
DWIDTH 11 0
BBX 10 9 0 1
BITMAP
C000
F000
3C00
0F00
03C0
0F00
3C00
F000
C000
ENDCHAR
STARTCHAR question
ENCODING 63
SWIDTH 556 0
DWIDTH 10 0
BBX 8 13 1 0
BITMAP
18
7E
66
C3
C3
06
0C
18
18
18
00
18
18
ENDCHAR
STARTCHAR at
ENCODING 64
SWIDTH 1015 0
DWIDTH 18 0
BBX 16 15 1 -2
BITMAP
07F0
1FFC
380E
71E6
67F3
C633
CC33
CC33
CC73
CCF6
67DE
739C
3800
1FE0
07E0
ENDCHAR
STARTCHAR A
ENCODING 65
SWIDTH 667 0
DWIDTH 12 0
BBX 11 13 0 0
BITMAP
0400
0400
0E00
0E00
1B00
1B00
3180
3F80
3F80
60C0
60C0
C060
C060
ENDCHAR
STARTCHAR B
ENCODING 66
SWIDTH 667 0
DWIDTH 12 0
BBX 10 13 1 0
BITMAP
FE00
FF00
C380
C180
C380
FF00
FF80
C180
C0C0
C0C0
C180
FF80
FE00
ENDCHAR
STARTCHAR C
ENCODING 67
SWIDTH 722 0
DWIDTH 13 0
BBX 11 13 1 0
BITMAP
0F00
3FC0
70E0
6060
C000
C000
C000
C000
C000
6060
70E0
3FC0
0F00
ENDCHAR
STARTCHAR D
ENCODING 68
SWIDTH 722 0
DWIDTH 13 0
BBX 11 13 1 0
BITMAP
FE00
FF80
C1C0
C0C0
C060
C060
C060
C060
C060
C0C0
C1C0
FF80
FE00
ENDCHAR
STARTCHAR E
ENCODING 69
SWIDTH 667 0
DWIDTH 12 0
BBX 9 13 1 0
BITMAP
FF80
FF80
C000
C000
C000
FF80
FF80
C000
C000
C000
C000
FF80
FF80
ENDCHAR
STARTCHAR F
ENCODING 70
SWIDTH 611 0
DWIDTH 11 0
BBX 9 13 1 0
BITMAP
FF80
FF80
C000
C000
C000
FF00
FF00
C000
C000
C000
C000
C000
C000
ENDCHAR
STARTCHAR G
ENCODING 71
SWIDTH 778 0
DWIDTH 14 0
BBX 11 13 1 0
BITMAP
0F00
3FC0
70E0
6060
C000
C000
C7E0
C7E0
C060
6060
70E0
3FE0
0F60
ENDCHAR
STARTCHAR H
ENCODING 72
SWIDTH 722 0
DWIDTH 13 0
BBX 11 13 1 0
BITMAP
C060
C060
C060
C060
C060
FFE0
FFE0
C060
C060
C060
C060
C060
C060
ENDCHAR
STARTCHAR I
ENCODING 73
SWIDTH 278 0
DWIDTH 5 0
BBX 2 13 1 0
BITMAP
C0
C0
C0
C0
C0
C0
C0
C0
C0
C0
C0
C0
C0
ENDCHAR
STARTCHAR J
ENCODING 74
SWIDTH 500 0
DWIDTH 9 0
BBX 8 13 0 0
BITMAP
03
03
03
03
03
03
03
03
C3
C3
E7
7E
3C
ENDCHAR
STARTCHAR K
ENCODING 75
SWIDTH 667 0
DWIDTH 12 0
BBX 10 13 1 0
BITMAP
C1C0
C380
C700
CE00
DC00
F800
F000
F800
DC00
CE00
C700
C380
C1C0
ENDCHAR
STARTCHAR L
ENCODING 76
SWIDTH 556 0
DWIDTH 10 0
BBX 8 13 1 0
BITMAP
C0
C0
C0
C0
C0
C0
C0
C0
C0
C0
C0
FF
FF
ENDCHAR
STARTCHAR M
ENCODING 77
SWIDTH 833 0
DWIDTH 15 0
BBX 13 13 1 0
BITMAP
C018
C018
E038
E038
F078
F078
D8D8
D8D8
CD98
CD98
C718
C718
C218
ENDCHAR
STARTCHAR N
ENCODING 78
SWIDTH 722 0
DWIDTH 13 0
BBX 11 13 1 0
BITMAP
C060
E060
F060
F060
D860
CC60
CE60
C660
C360
C1E0
C1E0
C0E0
C060
ENDCHAR
STARTCHAR O
ENCODING 79
SWIDTH 778 0
DWIDTH 14 0
BBX 12 13 1 0
BITMAP
0F00
3FC0
70E0
6060
C030
C030
C030
C030
C030
6060
70E0
3FC0
0F00
ENDCHAR
STARTCHAR P
ENCODING 80
SWIDTH 667 0
DWIDTH 12 0
BBX 10 13 1 0
BITMAP
FF00
FF80
C1C0
C0C0
C0C0
C1C0
FF80
FF00
C000
C000
C000
C000
C000
ENDCHAR
STARTCHAR Q
ENCODING 81
SWIDTH 778 0
DWIDTH 14 0
BBX 12 13 1 0
BITMAP
0F00
3FC0
70E0
6060
C030
C030
C030
C030
C1B0
61E0
70E0
3FF0
0F30
ENDCHAR
STARTCHAR R
ENCODING 82
SWIDTH 722 0
DWIDTH 13 0
BBX 10 13 2 0
BITMAP
FF00
FF80
C1C0
C0C0
C0C0
C1C0
FF80
FF80
C1C0
C0C0
C0C0
C0C0
C0C0
ENDCHAR
STARTCHAR S
ENCODING 83
SWIDTH 667 0
DWIDTH 12 0
BBX 9 13 1 0
BITMAP
3E00
7F00
E380
C180
E000
7C00
1F00
0380
C180
C180
E380
7F00
3E00
ENDCHAR
STARTCHAR T
ENCODING 84
SWIDTH 611 0
DWIDTH 11 0
BBX 10 13 0 0
BITMAP
FFC0
FFC0
0C00
0C00
0C00
0C00
0C00
0C00
0C00
0C00
0C00
0C00
0C00
ENDCHAR
STARTCHAR U
ENCODING 85
SWIDTH 722 0
DWIDTH 13 0
BBX 10 13 1 0
BITMAP
C0C0
C0C0
C0C0
C0C0
C0C0
C0C0
C0C0
C0C0
C0C0
C0C0
6180
7F80
1E00
ENDCHAR
STARTCHAR V
ENCODING 86
SWIDTH 667 0
DWIDTH 12 0
BBX 9 13 1 0
BITMAP
C180
C180
C180
6300
6300
6300
3600
3600
3600
1C00
1C00
0800
0800
ENDCHAR
STARTCHAR W
ENCODING 87
SWIDTH 944 0
DWIDTH 17 0
BBX 15 13 1 0
BITMAP
C106
C386
C386
C386
67CC
66CC
66CC
3C78
3C78
3C78
1830
1830
1830
ENDCHAR
STARTCHAR X
ENCODING 88
SWIDTH 667 0
DWIDTH 12 0
BBX 11 13 0 0
BITMAP
C060
E0E0
60C0
3180
3B80
1F00
0E00
1F00
3B80
3180
60C0
E0E0
C060
ENDCHAR
STARTCHAR Y
ENCODING 89
SWIDTH 667 0
DWIDTH 12 0
BBX 10 13 1 0
BITMAP
C0C0
C0C0
6180
6180
3300
3300
1E00
1E00
0C00
0C00
0C00
0C00
0C00
ENDCHAR
STARTCHAR Z
ENCODING 90
SWIDTH 611 0
DWIDTH 11 0
BBX 9 13 1 0
BITMAP
FF80
FF80
0300
0700
0600
0C00
1C00
1800
3000
7000
6000
FF80
FF80
ENDCHAR
STARTCHAR bracketleft
ENCODING 91
SWIDTH 278 0
DWIDTH 5 0
BBX 3 17 1 -4
BITMAP
E0
C0
C0
C0
C0
C0
C0
C0
C0
C0
C0
C0
C0
C0
C0
C0
E0
ENDCHAR
STARTCHAR backslash
ENCODING 92
SWIDTH 278 0
DWIDTH 5 0
BBX 4 13 0 0
BITMAP
C0
C0
C0
C0
60
60
60
60
60
30
30
30
30
ENDCHAR
STARTCHAR bracketright
ENCODING 93
SWIDTH 278 0
DWIDTH 5 0
BBX 4 17 0 -4
BITMAP
F0
30
30
30
30
30
30
30
30
30
30
30
30
30
30
30
F0
ENDCHAR
STARTCHAR asciicircum
ENCODING 94
SWIDTH 469 0
DWIDTH 8 0
BBX 7 4 0 9
BITMAP
10
38
6C
C6
ENDCHAR
STARTCHAR underscore
ENCODING 95
SWIDTH 556 0
DWIDTH 10 0
BBX 10 1 0 -4
BITMAP
FFC0
ENDCHAR
STARTCHAR grave
ENCODING 96
SWIDTH 333 0
DWIDTH 6 0
BBX 3 4 2 9
BITMAP
80
C0
60
20
ENDCHAR
STARTCHAR a
ENCODING 97
SWIDTH 556 0
DWIDTH 10 0
BBX 9 10 0 0
BITMAP
3C00
FE00
C300
0F00
3F00
7300
C300
C700
FF80
7980
ENDCHAR
STARTCHAR b
ENCODING 98
SWIDTH 556 0
DWIDTH 10 0
BBX 9 13 0 0
BITMAP
C000
C000
C000
DC00
FF00
E300
C180
C180
C180
C180
E300
FF00
DC00
ENDCHAR
STARTCHAR c
ENCODING 99
SWIDTH 500 0
DWIDTH 9 0
BBX 8 10 0 0
BITMAP
1C
7F
63
C0
C0
C0
C0
63
7F
1C
ENDCHAR
STARTCHAR d
ENCODING 100
SWIDTH 556 0
DWIDTH 10 0
BBX 9 13 0 0
BITMAP
0180
0180
0180
1D80
7F80
6380
C180
C180
C180
C180
6380
7F80
1D80
ENDCHAR
STARTCHAR e
ENCODING 101
SWIDTH 556 0
DWIDTH 10 0
BBX 9 10 0 0
BITMAP
1C00
7F00
6300
C180
FF80
FF80
C000
6300
7F00
1C00
ENDCHAR
STARTCHAR f
ENCODING 102
SWIDTH 278 0
DWIDTH 5 0
BBX 5 13 0 0
BITMAP
38
78
60
F8
F8
60
60
60
60
60
60
60
60
ENDCHAR
STARTCHAR g
ENCODING 103
SWIDTH 556 0
DWIDTH 10 0
BBX 9 14 0 -4
BITMAP
1D80
7F80
6380
C180
C180
C180
C180
6380
7F80
1D80
0180
6300
7F00
1C00
ENDCHAR
STARTCHAR h
ENCODING 104
SWIDTH 556 0
DWIDTH 10 0
BBX 8 13 1 0
BITMAP
C0
C0
C0
DC
FE
E7
C3
C3
C3
C3
C3
C3
C3
ENDCHAR
STARTCHAR i
ENCODING 105
SWIDTH 222 0
DWIDTH 4 0
BBX 2 13 1 0
BITMAP
C0
C0
00
C0
C0
C0
C0
C0
C0
C0
C0
C0
C0
ENDCHAR
STARTCHAR j
ENCODING 106
SWIDTH 222 0
DWIDTH 4 0
BBX 3 17 0 -4
BITMAP
60
60
00
60
60
60
60
60
60
60
60
60
60
60
60
E0
C0
ENDCHAR
STARTCHAR k
ENCODING 107
SWIDTH 500 0
DWIDTH 9 0
BBX 8 13 1 0
BITMAP
C0
C0
C0
C3
C6
CC
D8
F0
F0
D8
CC
C6
C3
ENDCHAR
STARTCHAR l
ENCODING 108
SWIDTH 222 0
DWIDTH 4 0
BBX 2 13 1 0
BITMAP
C0
C0
C0
C0
C0
C0
C0
C0
C0
C0
C0
C0
C0
ENDCHAR
STARTCHAR m
ENCODING 109
SWIDTH 833 0
DWIDTH 15 0
BBX 12 10 1 0
BITMAP
D9C0
FFE0
EF70
C630
C630
C630
C630
C630
C630
C630
ENDCHAR
STARTCHAR n
ENCODING 110
SWIDTH 556 0
DWIDTH 10 0
BBX 8 10 1 0
BITMAP
DC
FE
E7
C3
C3
C3
C3
C3
C3
C3
ENDCHAR
STARTCHAR o
ENCODING 111
SWIDTH 556 0
DWIDTH 10 0
BBX 9 10 0 0
BITMAP
1C00
7F00
6300
C180
C180
C180
C180
6300
7F00
1C00
ENDCHAR
STARTCHAR p
ENCODING 112
SWIDTH 556 0
DWIDTH 10 0
BBX 9 13 0 -3
BITMAP
DC00
FF00
E300
C180
C180
C180
C180
E300
FF00
DC00
C000
C000
C000
ENDCHAR
STARTCHAR q
ENCODING 113
SWIDTH 556 0
DWIDTH 10 0
BBX 9 13 0 -3
BITMAP
1D80
7F80
6380
C180
C180
C180
C180
6380
7F80
1D80
0180
0180
0180
ENDCHAR
STARTCHAR r
ENCODING 114
SWIDTH 333 0
DWIDTH 6 0
BBX 5 10 1 0
BITMAP
D8
F8
E0
C0
C0
C0
C0
C0
C0
C0
ENDCHAR
STARTCHAR s
ENCODING 115
SWIDTH 500 0
DWIDTH 9 0
BBX 7 10 1 0
BITMAP
78
FE
C6
F0
7C
1E
06
C6
FC
38
ENDCHAR
STARTCHAR t
ENCODING 116
SWIDTH 278 0
DWIDTH 5 0
BBX 4 12 0 0
BITMAP
60
60
F0
F0
60
60
60
60
60
60
70
30
ENDCHAR
STARTCHAR u
ENCODING 117
SWIDTH 556 0
DWIDTH 10 0
BBX 8 10 1 0
BITMAP
C3
C3
C3
C3
C3
C3
C3
E7
7F
3B
ENDCHAR
STARTCHAR v
ENCODING 118
SWIDTH 500 0
DWIDTH 9 0
BBX 7 10 1 0
BITMAP
C6
C6
C6
6C
6C
6C
38
38
10
10
ENDCHAR
STARTCHAR w
ENCODING 119
SWIDTH 722 0
DWIDTH 13 0
BBX 12 10 0 0
BITMAP
C630
C630
C630
6F60
6F60
6F60
39C0
39C0
1080
1080
ENDCHAR
STARTCHAR x
ENCODING 120
SWIDTH 500 0
DWIDTH 9 0
BBX 7 10 1 0
BITMAP
C6
C6
6C
6C
38
38
6C
6C
C6
C6
ENDCHAR
STARTCHAR y
ENCODING 121
SWIDTH 500 0
DWIDTH 9 0
BBX 9 14 0 -4
BITMAP
C180
C180
6300
6300
6300
3600
3600
1E00
1C00
0C00
1800
1800
7000
6000
ENDCHAR
STARTCHAR z
ENCODING 122
SWIDTH 500 0
DWIDTH 9 0
BBX 7 10 1 0
BITMAP
FE
FE
0C
18
18
30
30
60
FE
FE
ENDCHAR
STARTCHAR braceleft
ENCODING 123
SWIDTH 334 0
DWIDTH 6 0
BBX 4 17 1 -4
BITMAP
30
60
60
60
60
60
60
60
C0
60
60
60
60
60
60
60
30
ENDCHAR
STARTCHAR bar
ENCODING 124
SWIDTH 260 0
DWIDTH 5 0
BBX 2 17 1 -4
BITMAP
C0
C0
C0
C0
C0
C0
C0
C0
C0
C0
C0
C0
C0
C0
C0
C0
C0
ENDCHAR
STARTCHAR braceright
ENCODING 125
SWIDTH 334 0
DWIDTH 6 0
BBX 4 17 1 -4
BITMAP
C0
60
60
60
60
60
60
60
30
60
60
60
60
60
60
60
C0
ENDCHAR
STARTCHAR asciitilde
ENCODING 126
SWIDTH 584 0
DWIDTH 11 0
BBX 8 3 1 5
BITMAP
71
FF
8E
ENDCHAR
STARTCHAR Adieresis
ENCODING 128
SWIDTH 667 0
DWIDTH 12 0
BBX 11 14 0 0
BITMAP
3180
3580
0400
0E00
0E00
1B00
1B00
3180
3F80
3F80
60C0
60C0
C060
C060
ENDCHAR
STARTCHAR Aring
ENCODING 129
SWIDTH 667 0
DWIDTH 12 0
BBX 11 14 0 0
BITMAP
0E00
1100
1100
0E00
0E00
1B00
1B00
3180
3F80
3F80
60C0
60C0
C060
C060
ENDCHAR
STARTCHAR Ccedilla
ENCODING 130
SWIDTH 722 0
DWIDTH 13 0
BBX 11 16 1 -3
BITMAP
0F00
3FC0
70E0
6060
C000
C000
C000
C000
C000
6060
70E0
3FC0
0F00
0600
0600
0C00
ENDCHAR
STARTCHAR Eacute
ENCODING 131
SWIDTH 667 0
DWIDTH 12 0
BBX 9 14 1 0
BITMAP
0C00
1800
FF80
FF80
C000
C000
C000
FF80
FF80
C000
C000
C000
FF80
FF80
ENDCHAR
STARTCHAR Ntilde
ENCODING 132
SWIDTH 722 0
DWIDTH 13 0
BBX 11 14 1 0
BITMAP
0E80
D760
E060
F060
F060
D860
CC60
CE60
C660
C360
C1E0
C1E0
C0E0
C060
ENDCHAR
STARTCHAR Odieresis
ENCODING 133
SWIDTH 778 0
DWIDTH 14 0
BBX 12 14 1 0
BITMAP
30C0
0F00
3FC0
70E0
6060
C030
C030
C030
C030
C030
6060
70E0
3FC0
0F00
ENDCHAR
STARTCHAR Udieresis
ENCODING 134
SWIDTH 722 0
DWIDTH 13 0
BBX 10 14 1 0
BITMAP
3300
F3C0
C0C0
C0C0
C0C0
C0C0
C0C0
C0C0
C0C0
C0C0
C0C0
6180
7F80
1E00
ENDCHAR
STARTCHAR aacute
ENCODING 135
SWIDTH 556 0
DWIDTH 10 0
BBX 9 14 0 0
BITMAP
0600
0C00
1800
0000
3C00
FE00
C300
0700
1F00
7B00
E300
C700
FF80
7980
ENDCHAR
STARTCHAR agrave
ENCODING 136
SWIDTH 556 0
DWIDTH 10 0
BBX 9 14 0 0
BITMAP
3000
1800
0C00
0000
3C00
FE00
C300
0700
1F00
7B00
E300
C700
FF80
7980
ENDCHAR
STARTCHAR acircumflex
ENCODING 137
SWIDTH 556 0
DWIDTH 10 0
BBX 9 14 0 0
BITMAP
1000
3800
6C00
C600
3C00
FE00
C300
0700
1F00
7B00
E300
C700
FF80
7980
ENDCHAR
STARTCHAR adieresis
ENCODING 138
SWIDTH 556 0
DWIDTH 10 0
BBX 9 13 0 0
BITMAP
6600
6600
0000
3C00
FE00
C300
0700
1F00
7B00
E300
C700
FF80
7980
ENDCHAR
STARTCHAR atilde
ENCODING 139
SWIDTH 556 0
DWIDTH 10 0
BBX 9 13 0 0
BITMAP
3A00
5C00
0000
3C00
FE00
C300
0700
1F00
7B00
E300
C700
FF80
7980
ENDCHAR
STARTCHAR aring
ENCODING 140
SWIDTH 556 0
DWIDTH 10 0
BBX 9 14 0 0
BITMAP
1800
2400
1800
0000
3C00
FE00
C300
0700
1F00
7B00
E300
C700
FF80
7980
ENDCHAR
STARTCHAR ccedilla
ENCODING 141
SWIDTH 500 0
DWIDTH 9 0
BBX 8 13 0 -3
BITMAP
1C
7F
63
C0
C0
C0
C0
63
7F
1C
0C
0C
18
ENDCHAR
STARTCHAR eacute
ENCODING 142
SWIDTH 556 0
DWIDTH 10 0
BBX 9 14 0 0
BITMAP
0600
0C00
1800
0000
1C00
7F00
6300
C180
FF80
FF80
C000
6300
7F00
1C00
ENDCHAR
STARTCHAR egrave
ENCODING 143
SWIDTH 556 0
DWIDTH 10 0
BBX 9 14 0 0
BITMAP
3000
1800
0C00
0000
1C00
7F00
6300
C180
FF80
FF80
C000
6300
7F00
1C00
ENDCHAR
STARTCHAR ecircumflex
ENCODING 144
SWIDTH 556 0
DWIDTH 10 0
BBX 9 14 0 0
BITMAP
0800
1C00
3600
6300
1C00
7F00
6300
C180
FF80
FF80
C000
6300
7F00
1C00
ENDCHAR
STARTCHAR edieresis
ENCODING 145
SWIDTH 556 0
DWIDTH 10 0
BBX 9 13 0 0
BITMAP
3300
3300
0000
1C00
7F00
6300
C180
FF80
FF80
C000
6300
7F00
1C00
ENDCHAR
STARTCHAR iacute
ENCODING 146
SWIDTH 278 0
DWIDTH 5 0
BBX 4 14 0 0
BITMAP
30
60
C0
00
60
60
60
60
60
60
60
60
60
60
ENDCHAR
STARTCHAR igrave
ENCODING 147
SWIDTH 278 0
DWIDTH 5 0
BBX 4 14 0 0
BITMAP
C0
60
30
00
60
60
60
60
60
60
60
60
60
60
ENDCHAR
STARTCHAR icircumflex
ENCODING 148
SWIDTH 278 0
DWIDTH 6 0
BBX 5 14 0 0
BITMAP
20
70
D8
88
60
60
60
60
60
60
60
60
60
60
ENDCHAR
STARTCHAR idieresis
ENCODING 149
SWIDTH 278 0
DWIDTH 5 0
BBX 5 13 0 0
BITMAP
D8
D8
00
60
60
60
60
60
60
60
60
60
60
ENDCHAR
STARTCHAR ntilde
ENCODING 150
SWIDTH 556 0
DWIDTH 10 0
BBX 8 13 1 0
BITMAP
3A
5C
00
D8
FE
E6
C3
C3
C3
C3
C3
C3
C3
ENDCHAR
STARTCHAR oacute
ENCODING 151
SWIDTH 556 0
DWIDTH 10 0
BBX 9 14 0 0
BITMAP
0600
0C00
1800
0000
1C00
7F00
6300
C180
C180
C180
C180
6300
7F00
1C00
ENDCHAR
STARTCHAR ograve
ENCODING 152
SWIDTH 556 0
DWIDTH 10 0
BBX 9 14 0 0
BITMAP
3000
1800
0C00
0000
1C00
7F00
6300
C180
C180
C180
C180
6300
7F00
1C00
ENDCHAR
STARTCHAR ocircumflex
ENCODING 153
SWIDTH 556 0
DWIDTH 10 0
BBX 9 14 0 0
BITMAP
0800
1C00
3600
6300
1C00
7F00
6300
C180
C180
C180
C180
6300
7F00
1C00
ENDCHAR
STARTCHAR odieresis
ENCODING 154
SWIDTH 556 0
DWIDTH 10 0
BBX 9 13 0 0
BITMAP
6600
6600
0000
1C00
7F00
6300
C180
C180
C180
C180
6300
7F00
1C00
ENDCHAR
STARTCHAR otilde
ENCODING 155
SWIDTH 556 0
DWIDTH 10 0
BBX 9 13 0 0
BITMAP
3A00
5C00
0000
1C00
7F00
6300
C180
C180
C180
C180
6300
7F00
1C00
ENDCHAR
STARTCHAR uacute
ENCODING 156
SWIDTH 556 0
DWIDTH 10 0
BBX 8 14 1 0
BITMAP
06
0C
18
00
C3
C3
C3
C3
C3
C3
C3
67
7F
1B
ENDCHAR
STARTCHAR ugrave
ENCODING 157
SWIDTH 556 0
DWIDTH 10 0
BBX 8 14 1 0
BITMAP
60
30
18
00
C3
C3
C3
C3
C3
C3
C3
67
7F
1B
ENDCHAR
STARTCHAR ucircumflex
ENCODING 158
SWIDTH 556 0
DWIDTH 10 0
BBX 8 14 1 0
BITMAP
10
38
6C
00
C3
C3
C3
C3
C3
C3
C3
67
7F
1B
ENDCHAR
STARTCHAR udieresis
ENCODING 159
SWIDTH 556 0
DWIDTH 10 0
BBX 8 13 1 0
BITMAP
66
66
00
C3
C3
C3
C3
C3
C3
C3
67
7F
1B
ENDCHAR
STARTCHAR dagger
ENCODING 160
SWIDTH 556 0
DWIDTH 10 0
BBX 8 16 1 -3
BITMAP
18
18
18
18
FF
FF
18
18
18
18
18
18
18
18
18
18
ENDCHAR
STARTCHAR degree
ENCODING 161
SWIDTH 400 0
DWIDTH 6 0
BBX 4 4 0 9
BITMAP
60
90
90
60
ENDCHAR
STARTCHAR cent
ENCODING 162
SWIDTH 556 0
DWIDTH 10 0
BBX 8 12 0 -1
BITMAP
04
1C
7F
6B
C8
D0
D0
D0
63
7F
5C
40
ENDCHAR
STARTCHAR sterling
ENCODING 163
SWIDTH 556 0
DWIDTH 10 0
BBX 9 13 0 0
BITMAP
0C00
3F00
3300
6000
6000
6000
FC00
FC00
3000
3000
6180
FF80
FF00
ENDCHAR
STARTCHAR section
ENCODING 164
SWIDTH 556 0
DWIDTH 10 0
BBX 8 17 0 -4
BITMAP
3C
7E
66
60
30
7C
CE
C7
C3
E3
73
3E
0C
06
66
7E
3C
ENDCHAR
STARTCHAR bullet
ENCODING 165
SWIDTH 350 0
DWIDTH 6 0
BBX 5 5 0 3
BITMAP
70
F8
F8
F8
70
ENDCHAR
STARTCHAR paragraph
ENCODING 166
SWIDTH 537 0
DWIDTH 10 0
BBX 9 16 0 -3
BITMAP
1F80
7900
7900
F900
F900
F900
7900
7900
1900
0900
0900
0900
0900
0900
0900
0900
ENDCHAR
STARTCHAR germandbls
ENCODING 167
SWIDTH 611 0
DWIDTH 11 0
BBX 9 13 1 0
BITMAP
3E00
7F00
E300
C300
C300
CE00
CF00
C180
C180
C180
C380
CF00
CE00
ENDCHAR
STARTCHAR registered
ENCODING 168
SWIDTH 737 0
DWIDTH 14 0
BBX 12 12 1 0
BITMAP
0F00
30C0
4020
5E20
8910
8910
8E10
8910
5C90
4020
30C0
0F00
ENDCHAR
STARTCHAR copyright
ENCODING 169
SWIDTH 737 0
DWIDTH 14 0
BBX 12 12 1 0
BITMAP
0F00
30C0
6060
4720
8910
9010
9010
8910
4620
6060
30C0
0F00
ENDCHAR
STARTCHAR trademark
ENCODING 170
SWIDTH 1000 0
DWIDTH 16 0
BBX 15 6 0 6
BITMAP
FB06
A98C
21DC
2174
2124
738E
ENDCHAR
STARTCHAR acute
ENCODING 171
SWIDTH 333 0
DWIDTH 6 0
BBX 4 3 0 10
BITMAP
30
60
C0
ENDCHAR
STARTCHAR dieresis
ENCODING 172
SWIDTH 333 0
DWIDTH 6 0
BBX 5 2 0 11
BITMAP
D8
D8
ENDCHAR
STARTCHAR notequal
ENCODING 173
SWIDTH 549 0
DWIDTH 10 0
BBX 9 9 0 0
BITMAP
0300
0600
FF80
FF80
1800
FF80
FF80
6000
C000
ENDCHAR
STARTCHAR AE
ENCODING 174
SWIDTH 1000 0
DWIDTH 18 0
BBX 17 13 0 0
BITMAP
03FF80
07FF80
06C000
0CC000
0CC000
18FF00
18FF00
3FC000
3FC000
60C000
60C000
C0FF80
C0FF80
ENDCHAR
STARTCHAR Oslash
ENCODING 175
SWIDTH 778 0
DWIDTH 14 0
BBX 13 13 0 0
BITMAP
0F98
3FF8
7070
60F0
C1D8
C398
C718
CE18
DC18
7830
7070
FFE0
CF80
ENDCHAR
STARTCHAR infinity
ENCODING 176
SWIDTH 713 0
DWIDTH 13 0
BBX 12 5 0 3
BITMAP
70E0
D9B0
8F10
D9B0
70E0
ENDCHAR
STARTCHAR plusminus
ENCODING 177
SWIDTH 549 0
DWIDTH 10 0
BBX 8 9 0 0
BITMAP
18
18
18
FF
18
18
18
00
FF
ENDCHAR
STARTCHAR lessequal
ENCODING 178
SWIDTH 549 0
DWIDTH 10 0
BBX 8 8 1 0
BITMAP
03
0E
38
E0
38
0E
03
FF
ENDCHAR
STARTCHAR greaterequal
ENCODING 179
SWIDTH 549 0
DWIDTH 10 0
BBX 8 8 1 0
BITMAP
C0
70
1C
07
1C
70
C0
FF
ENDCHAR
STARTCHAR yen
ENCODING 180
SWIDTH 556 0
DWIDTH 11 0
BBX 10 13 0 0
BITMAP
C0C0
E1C0
7380
3F00
1E00
0C00
3F00
3F00
0C00
3F00
3F00
0C00
0C00
ENDCHAR
STARTCHAR mu
ENCODING 181
SWIDTH 576 0
DWIDTH 10 0
BBX 9 11 0 -3
BITMAP
C600
C600
C600
C600
C600
C680
C780
FB00
C000
C000
8000
ENDCHAR
STARTCHAR partialdiff
ENCODING 182
SWIDTH 494 0
DWIDTH 9 0
BBX 7 12 1 0
BITMAP
38
4C
06
06
06
3E
7E
E6
C6
C6
4C
38
ENDCHAR
STARTCHAR summation
ENCODING 183
SWIDTH 713 0
DWIDTH 13 0
BBX 10 13 1 -1
BITMAP
FF80
6040
3000
1800
0C00
0600
0C00
1800
3000
6000
C040
FF80
FF00
ENDCHAR
STARTCHAR product
ENCODING 184
SWIDTH 823 0
DWIDTH 15 0
BBX 13 13 1 -1
BITMAP
FFF8
3060
3060
3060
3060
3060
3060
3060
3060
3060
3060
3060
FDF8
ENDCHAR
STARTCHAR pi
ENCODING 185
SWIDTH 549 0
DWIDTH 9 0
BBX 9 8 0 0
BITMAP
7F00
E600
6600
6600
6600
6600
6680
C300
ENDCHAR
STARTCHAR integral
ENCODING 186
SWIDTH 274 0
DWIDTH 5 0
BBX 6 17 -1 -4
BITMAP
0C
14
30
30
30
30
30
30
30
30
30
30
30
30
30
B0
60
ENDCHAR
STARTCHAR ordfeminine
ENCODING 187
SWIDTH 370 0
DWIDTH 6 0
BBX 4 7 0 6
BITMAP
60
90
70
90
70
00
F0
ENDCHAR
STARTCHAR ordmasculine
ENCODING 188
SWIDTH 365 0
DWIDTH 6 0
BBX 4 7 0 6
BITMAP
60
90
90
90
60
00
F0
ENDCHAR
STARTCHAR Omega
ENCODING 189
SWIDTH 768 0
DWIDTH 14 0
BBX 12 12 1 0
BITMAP
0F00
30C0
6060
C030
C030
C030
4020
6060
30C0
1080
4920
79E0
ENDCHAR
STARTCHAR ae
ENCODING 190
SWIDTH 889 0
DWIDTH 16 0
BBX 14 10 1 0
BITMAP
7CE0
FFF8
C398
070C
1FFC
7BFC
E300
C78C
FFFC
78F0
ENDCHAR
STARTCHAR oslash
ENCODING 191
SWIDTH 611 0
DWIDTH 11 0
BBX 9 10 0 0
BITMAP
1C80
7F80
6300
C780
CD80
D980
F180
6300
FF00
9C00
ENDCHAR
STARTCHAR questiondown
ENCODING 192
SWIDTH 611 0
DWIDTH 11 0
BBX 8 14 1 -4
BITMAP
18
18
00
00
18
18
18
30
60
C3
C3
66
7E
18
ENDCHAR
STARTCHAR exclamdown
ENCODING 193
SWIDTH 333 0
DWIDTH 6 0
BBX 2 14 2 -4
BITMAP
C0
C0
00
C0
C0
C0
C0
C0
C0
C0
C0
C0
C0
C0
ENDCHAR
STARTCHAR logicalnot
ENCODING 194
SWIDTH 584 0
DWIDTH 13 0
BBX 10 5 1 1
BITMAP
FFC0
FFC0
0040
0040
0040
ENDCHAR
STARTCHAR radical
ENCODING 195
SWIDTH 549 0
DWIDTH 10 0
BBX 9 12 0 0
BITMAP
0080
0080
0180
0100
0300
0200
C600
6400
2C00
3800
1800
1800
ENDCHAR
STARTCHAR florin
ENCODING 196
SWIDTH 556 0
DWIDTH 9 0
BBX 7 17 1 -4
BITMAP
1C
32
30
30
30
FC
30
30
30
30
30
30
30
30
30
B0
E0
ENDCHAR
STARTCHAR approxequal
ENCODING 197
SWIDTH 549 0
DWIDTH 10 0
BBX 8 5 1 1
BITMAP
7B
CE
00
7B
CE
ENDCHAR
STARTCHAR Delta
ENCODING 198
SWIDTH 612 0
DWIDTH 11 0
BBX 11 12 0 0
BITMAP
0400
0400
0E00
0A00
1B00
1100
3180
2080
60C0
4040
C060
FFE0
ENDCHAR
STARTCHAR guillemotleft
ENCODING 199
SWIDTH 556 0
DWIDTH 10 0
BBX 8 5 1 2
BITMAP
33
66
CC
66
33
ENDCHAR
STARTCHAR guillemotright
ENCODING 200
SWIDTH 556 0
DWIDTH 10 0
BBX 8 5 1 2
BITMAP
CC
66
33
66
CC
ENDCHAR
STARTCHAR ellipsis
ENCODING 201
SWIDTH 1000 0
DWIDTH 18 0
BBX 14 2 2 0
BITMAP
C30C
C30C
ENDCHAR
STARTCHAR nbspace
ENCODING 202
SWIDTH 278 0
DWIDTH 10 0
BBX 0 0 0 -4
BITMAP
ENDCHAR
STARTCHAR Agrave
ENCODING 203
SWIDTH 667 0
DWIDTH 12 0
BBX 11 14 0 0
BITMAP
0800
0400
0600
0E00
0E00
1B00
1B00
3180
3F80
3F80
60C0
60C0
C060
C060
ENDCHAR
STARTCHAR Atilde
ENCODING 204
SWIDTH 667 0
DWIDTH 12 0
BBX 11 14 0 0
BITMAP
1E80
2F00
0400
0E00
0E00
1B00
1B00
3180
3F80
3F80
60C0
60C0
C060
C060
ENDCHAR
STARTCHAR Otilde
ENCODING 205
SWIDTH 778 0
DWIDTH 14 0
BBX 12 14 1 0
BITMAP
1E80
2F00
3FC0
70E0
6060
C030
C030
C030
C030
C030
6060
70E0
3FC0
0F00
ENDCHAR
STARTCHAR OE
ENCODING 206
SWIDTH 1000 0
DWIDTH 18 0
BBX 16 13 1 0
BITMAP
0EFF
3FFF
71C0
60C0
C0C0
C0FF
C0FF
C0C0
C0C0
60C0
71C0
3FFF
0EFF
ENDCHAR
STARTCHAR oe
ENCODING 207
SWIDTH 944 0
DWIDTH 17 0
BBX 15 10 0 0
BITMAP
1C70
7FFC
63CC
C186
C1FE
C1FE
C180
63CC
7FFC
1C70
ENDCHAR
STARTCHAR endash
ENCODING 208
SWIDTH 556 0
DWIDTH 10 0
BBX 8 2 0 4
BITMAP
FF
FF
ENDCHAR
STARTCHAR emdash
ENCODING 209
SWIDTH 1000 0
DWIDTH 18 0
BBX 16 2 1 4
BITMAP
FFFF
FFFF
ENDCHAR
STARTCHAR quotedblleft
ENCODING 210
SWIDTH 333 0
DWIDTH 6 0
BBX 5 5 0 8
BITMAP
48
90
90
D8
D8
ENDCHAR
STARTCHAR quotedblright
ENCODING 211
SWIDTH 333 0
DWIDTH 6 0
BBX 5 5 0 8
BITMAP
D8
D8
48
48
90
ENDCHAR
STARTCHAR quoteleft
ENCODING 212
SWIDTH 222 0
DWIDTH 4 0
BBX 2 5 0 8
BITMAP
40
80
80
C0
C0
ENDCHAR
STARTCHAR quoteright
ENCODING 213
SWIDTH 222 0
DWIDTH 4 0
BBX 2 5 0 8
BITMAP
C0
C0
40
40
80
ENDCHAR
STARTCHAR divide
ENCODING 214
SWIDTH 549 0
DWIDTH 10 0
BBX 10 8 0 1
BITMAP
0C00
0C00
0000
FFC0
FFC0
0000
0C00
0C00
ENDCHAR
STARTCHAR lozenge
ENCODING 215
SWIDTH 494 0
DWIDTH 9 0
BBX 9 12 0 0
BITMAP
0800
0800
1C00
3600
6300
C180
C180
6300
3600
1C00
0800
0800
ENDCHAR
STARTCHAR ydieresis
ENCODING 216
SWIDTH 500 0
DWIDTH 9 0
BBX 9 17 0 -4
BITMAP
3600
3600
0000
C180
C180
6300
6300
6300
3600
3600
1E00
1C00
0C00
1800
1800
7000
6000
ENDCHAR
STARTCHAR Ydieresis
ENCODING 217
SWIDTH 667 0
DWIDTH 12 0
BBX 10 14 1 0
BITMAP
1B00
DBC0
C0C0
6180
6180
3300
3300
1E00
1E00
0C00
0C00
0C00
0C00
0C00
ENDCHAR
STARTCHAR fraction
ENCODING 218
SWIDTH 167 0
DWIDTH 3 0
BBX 2 13 0 0
BITMAP
C0
C0
C0
C0
C0
C0
C0
C0
C0
C0
C0
C0
C0
ENDCHAR
STARTCHAR currency
ENCODING 219
SWIDTH 744 0
DWIDTH 10 0
BBX 8 8 0 1
BITMAP
1E
21
40
FE
40
FC
21
1E
ENDCHAR
STARTCHAR guilsinglleft
ENCODING 220
SWIDTH 333 0
DWIDTH 6 0
BBX 4 5 1 2
BITMAP
30
60
C0
60
30
ENDCHAR
STARTCHAR guilsinglright
ENCODING 221
SWIDTH 333 0
DWIDTH 6 0
BBX 4 5 1 2
BITMAP
C0
60
30
60
C0
ENDCHAR
STARTCHAR fi
ENCODING 222
SWIDTH 500 0
DWIDTH 10 0
BBX 8 13 1 0
BITMAP
3B
7B
60
FB
FB
63
63
63
63
63
63
63
63
ENDCHAR
STARTCHAR fl
ENCODING 223
SWIDTH 500 0
DWIDTH 10 0
BBX 8 13 1 0
BITMAP
3B
7B
63
FB
FB
63
63
63
63
63
63
63
63
ENDCHAR
STARTCHAR daggerdbl
ENCODING 224
SWIDTH 556 0
DWIDTH 10 0
BBX 8 17 1 -4
BITMAP
18
18
18
18
FF
FF
18
18
18
18
18
FF
FF
18
18
18
18
ENDCHAR
STARTCHAR periodcentered
ENCODING 225
SWIDTH 278 0
DWIDTH 6 0
BBX 2 2 1 5
BITMAP
C0
C0
ENDCHAR
STARTCHAR quotesinglbase
ENCODING 226
SWIDTH 222 0
DWIDTH 4 0
BBX 2 5 1 -3
BITMAP
C0
C0
40
40
80
ENDCHAR
STARTCHAR quotedblbase
ENCODING 227
SWIDTH 333 0
DWIDTH 8 0
BBX 5 5 1 -3
BITMAP
D8
D8
48
48
90
ENDCHAR
STARTCHAR perthousand
ENCODING 228
SWIDTH 1000 0
DWIDTH 18 0
BBX 16 13 0 0
BITMAP
7100
D900
8B00
8A00
DE00
7400
0C00
0B8E
1EDB
1451
3451
26DB
238E
ENDCHAR
STARTCHAR Acircumflex
ENCODING 229
SWIDTH 667 0
DWIDTH 12 0
BBX 11 14 0 0
BITMAP
0E00
1B00
3580
0E00
0E00
1B00
1B00
3180
3F80
3F80
60C0
60C0
C060
C060
ENDCHAR
STARTCHAR Ecircumflex
ENCODING 230
SWIDTH 667 0
DWIDTH 12 0
BBX 9 14 1 0
BITMAP
1C00
3600
FF80
FF80
C000
C000
C000
FF80
FF80
C000
C000
C000
FF80
FF80
ENDCHAR
STARTCHAR Aacute
ENCODING 231
SWIDTH 667 0
DWIDTH 12 0
BBX 11 14 0 0
BITMAP
0300
0600
0400
0E00
0E00
1B00
1B00
3180
3F80
3F80
60C0
60C0
C060
C060
ENDCHAR
STARTCHAR Edieresis
ENCODING 232
SWIDTH 667 0
DWIDTH 12 0
BBX 9 14 1 0
BITMAP
3300
3300
FF80
FF80
C000
C000
C000
FF80
FF80
C000
C000
C000
FF80
FF80
ENDCHAR
STARTCHAR Egrave
ENCODING 233
SWIDTH 667 0
DWIDTH 12 0
BBX 9 14 1 0
BITMAP
3000
1800
FF80
FF80
C000
C000
C000
FF80
FF80
C000
C000
C000
FF80
FF80
ENDCHAR
STARTCHAR Iacute
ENCODING 234
SWIDTH 278 0
DWIDTH 5 0
BBX 4 14 1 0
BITMAP
30
60
C0
C0
C0
C0
C0
C0
C0
C0
C0
C0
C0
C0
ENDCHAR
STARTCHAR Icircumflex
ENCODING 235
SWIDTH 278 0
DWIDTH 5 0
BBX 5 14 0 0
BITMAP
20
50
E8
60
60
60
60
60
60
60
60
60
60
60
ENDCHAR
STARTCHAR Idieresis
ENCODING 236
SWIDTH 278 0
DWIDTH 5 0
BBX 5 14 0 0
BITMAP
D8
D8
60
60
60
60
60
60
60
60
60
60
60
60
ENDCHAR
STARTCHAR Igrave
ENCODING 237
SWIDTH 278 0
DWIDTH 5 0
BBX 4 14 0 0
BITMAP
C0
60
30
30
30
30
30
30
30
30
30
30
30
30
ENDCHAR
STARTCHAR Oacute
ENCODING 238
SWIDTH 778 0
DWIDTH 14 0
BBX 12 14 1 0
BITMAP
0180
0F00
3FC0
70E0
6060
C030
C030
C030
C030
C030
6060
70E0
3FC0
0F00
ENDCHAR
STARTCHAR Ocircumflex
ENCODING 239
SWIDTH 778 0
DWIDTH 14 0
BBX 12 14 1 0
BITMAP
0600
0900
3FC0
70E0
6060
C030
C030
C030
C030
C030
6060
70E0
3FC0
0F00
ENDCHAR
STARTCHAR apple
ENCODING 240
SWIDTH 790 0
DWIDTH 14 0
BBX 11 13 1 0
BITMAP
0300
0600
0400
31C0
7FE0
FFC0
FF80
FF80
FF80
7FC0
7FE0
3FC0
1980
ENDCHAR
STARTCHAR Ograve
ENCODING 241
SWIDTH 778 0
DWIDTH 14 0
BBX 12 14 1 0
BITMAP
1800
0F00
3FC0
70E0
6060
C030
C030
C030
C030
C030
6060
70E0
3FC0
0F00
ENDCHAR
STARTCHAR Uacute
ENCODING 242
SWIDTH 722 0
DWIDTH 13 0
BBX 10 14 1 0
BITMAP
0600
CCC0
C0C0
C0C0
C0C0
C0C0
C0C0
C0C0
C0C0
C0C0
C0C0
6180
7F80
1E00
ENDCHAR
STARTCHAR Ucircumflex
ENCODING 243
SWIDTH 722 0
DWIDTH 13 0
BBX 10 14 1 0
BITMAP
0C00
D2C0
C0C0
C0C0
C0C0
C0C0
C0C0
C0C0
C0C0
C0C0
C0C0
6180
7F80
1E00
ENDCHAR
STARTCHAR Ugrave
ENCODING 244
SWIDTH 722 0
DWIDTH 13 0
BBX 10 14 1 0
BITMAP
1800
CCC0
C0C0
C0C0
C0C0
C0C0
C0C0
C0C0
C0C0
C0C0
C0C0
6180
7F80
1E00
ENDCHAR
STARTCHAR dotlessi
ENCODING 245
SWIDTH 278 0
DWIDTH 4 0
BBX 2 10 1 0
BITMAP
C0
C0
C0
C0
C0
C0
C0
C0
C0
C0
ENDCHAR
STARTCHAR circumflex
ENCODING 246
SWIDTH 333 0
DWIDTH 6 0
BBX 5 3 0 10
BITMAP
20
70
D8
ENDCHAR
STARTCHAR tilde
ENCODING 247
SWIDTH 333 0
DWIDTH 6 0
BBX 6 2 0 11
BITMAP
74
B8
ENDCHAR
STARTCHAR macron
ENCODING 248
SWIDTH 333 0
DWIDTH 6 0
BBX 4 2 1 11
BITMAP
F0
F0
ENDCHAR
STARTCHAR breve
ENCODING 249
SWIDTH 333 0
DWIDTH 6 0
BBX 5 3 0 10
BITMAP
88
F8
70
ENDCHAR
STARTCHAR dotaccent
ENCODING 250
SWIDTH 333 0
DWIDTH 6 0
BBX 2 2 2 11
BITMAP
C0
C0
ENDCHAR
STARTCHAR ring
ENCODING 251
SWIDTH 333 0
DWIDTH 6 0
BBX 4 4 1 9
BITMAP
60
90
90
60
ENDCHAR
STARTCHAR cedilla
ENCODING 252
SWIDTH 333 0
DWIDTH 6 0
BBX 5 6 0 -4
BITMAP
20
30
18
98
F8
70
ENDCHAR
STARTCHAR hungarumlaut
ENCODING 253
SWIDTH 333 0
DWIDTH 6 0
BBX 6 3 0 10
BITMAP
6C
D8
B0
ENDCHAR
STARTCHAR ogonek
ENCODING 254
SWIDTH 333 0
DWIDTH 6 0
BBX 4 5 0 -4
BITMAP
60
C0
C0
F0
70
ENDCHAR
STARTCHAR caron
ENCODING 255
SWIDTH 333 0
DWIDTH 6 0
BBX 5 3 0 10
BITMAP
88
50
20
ENDCHAR
ENDFONT
