<?xml version="1.0" encoding="utf-8" standalone="no"?>
<!DOCTYPE svg PUBLIC "-//W3C//DTD SVG 1.1//EN"
  "http://www.w3.org/Graphics/SVG/1.1/DTD/svg11.dtd">
<!-- Created with matplotlib (https://matplotlib.org/) -->
<svg height="151.5pt" version="1.1" viewBox="0 0 408 151.5" width="408pt" xmlns="http://www.w3.org/2000/svg" xmlns:xlink="http://www.w3.org/1999/xlink">
 <defs>
  <style type="text/css">
*{stroke-linecap:butt;stroke-linejoin:round;}
  </style>
 </defs>
 <g id="figure_1">
  <g id="patch_1">
   <path d="M 0 151.5 
L 408 151.5 
L 408 0 
L 0 0 
z
" style="fill:#f2f2f2;"/>
  </g>
  <g id="axes_1">
   <g id="patch_2">
    <path d="M 11.2 140.3 
L 133.6 140.3 
L 133.6 17.9 
L 11.2 17.9 
z
" style="fill:#ffffff;"/>
   </g>
   <g id="matplotlib.axis_1">
    <g id="xtick_1">
     <g id="line2d_1">
      <path clip-path="url(#p528b3135d8)" d="M 11.2 140.3 
L 11.2 17.9 
" style="fill:none;stroke:#000000;stroke-linecap:square;stroke-opacity:0.1;stroke-width:0.6;"/>
     </g>
     <g id="line2d_2">
      <defs>
       <path d="M 0 0 
L 0 4 
" id="m662eebaa2c" style="stroke:#000000;stroke-width:0.6;"/>
      </defs>
      <g>
       <use style="stroke:#000000;stroke-width:0.6;" x="11.2" xlink:href="#m662eebaa2c" y="140.3"/>
      </g>
     </g>
    </g>
    <g id="xtick_2">
     <g id="line2d_3">
      <path clip-path="url(#p528b3135d8)" d="M 39.018182 140.3 
L 39.018182 17.9 
" style="fill:none;stroke:#000000;stroke-linecap:square;stroke-opacity:0.1;stroke-width:0.6;"/>
     </g>
     <g id="line2d_4">
      <g>
       <use style="stroke:#000000;stroke-width:0.6;" x="39.018182" xlink:href="#m662eebaa2c" y="140.3"/>
      </g>
     </g>
    </g>
    <g id="xtick_3">
     <g id="line2d_5">
      <path clip-path="url(#p528b3135d8)" d="M 66.836364 140.3 
L 66.836364 17.9 
" style="fill:none;stroke:#000000;stroke-linecap:square;stroke-opacity:0.1;stroke-width:0.6;"/>
     </g>
     <g id="line2d_6">
      <g>
       <use style="stroke:#000000;stroke-width:0.6;" x="66.836364" xlink:href="#m662eebaa2c" y="140.3"/>
      </g>
     </g>
    </g>
    <g id="xtick_4">
     <g id="line2d_7">
      <path clip-path="url(#p528b3135d8)" d="M 94.654545 140.3 
L 94.654545 17.9 
" style="fill:none;stroke:#000000;stroke-linecap:square;stroke-opacity:0.1;stroke-width:0.6;"/>
     </g>
     <g id="line2d_8">
      <g>
       <use style="stroke:#000000;stroke-width:0.6;" x="94.654545" xlink:href="#m662eebaa2c" y="140.3"/>
      </g>
     </g>
    </g>
    <g id="xtick_5">
     <g id="line2d_9">
      <path clip-path="url(#p528b3135d8)" d="M 122.472727 140.3 
L 122.472727 17.9 
" style="fill:none;stroke:#000000;stroke-linecap:square;stroke-opacity:0.1;stroke-width:0.6;"/>
     </g>
     <g id="line2d_10">
      <g>
       <use style="stroke:#000000;stroke-width:0.6;" x="122.472727" xlink:href="#m662eebaa2c" y="140.3"/>
      </g>
     </g>
    </g>
    <g id="xtick_6">
     <g id="line2d_11">
      <defs>
       <path d="M 0 0 
L 0 2 
" id="mc20ca9cee2" style="stroke:#000000;stroke-width:0.48;"/>
      </defs>
      <g>
       <use style="stroke:#000000;stroke-width:0.48;" x="16.763636" xlink:href="#mc20ca9cee2" y="140.3"/>
      </g>
     </g>
    </g>
    <g id="xtick_7">
     <g id="line2d_12">
      <g>
       <use style="stroke:#000000;stroke-width:0.48;" x="22.327273" xlink:href="#mc20ca9cee2" y="140.3"/>
      </g>
     </g>
    </g>
    <g id="xtick_8">
     <g id="line2d_13">
      <g>
       <use style="stroke:#000000;stroke-width:0.48;" x="27.890909" xlink:href="#mc20ca9cee2" y="140.3"/>
      </g>
     </g>
    </g>
    <g id="xtick_9">
     <g id="line2d_14">
      <g>
       <use style="stroke:#000000;stroke-width:0.48;" x="33.454545" xlink:href="#mc20ca9cee2" y="140.3"/>
      </g>
     </g>
    </g>
    <g id="xtick_10">
     <g id="line2d_15">
      <g>
       <use style="stroke:#000000;stroke-width:0.48;" x="44.581818" xlink:href="#mc20ca9cee2" y="140.3"/>
      </g>
     </g>
    </g>
    <g id="xtick_11">
     <g id="line2d_16">
      <g>
       <use style="stroke:#000000;stroke-width:0.48;" x="50.145455" xlink:href="#mc20ca9cee2" y="140.3"/>
      </g>
     </g>
    </g>
    <g id="xtick_12">
     <g id="line2d_17">
      <g>
       <use style="stroke:#000000;stroke-width:0.48;" x="55.709091" xlink:href="#mc20ca9cee2" y="140.3"/>
      </g>
     </g>
    </g>
    <g id="xtick_13">
     <g id="line2d_18">
      <g>
       <use style="stroke:#000000;stroke-width:0.48;" x="61.272727" xlink:href="#mc20ca9cee2" y="140.3"/>
      </g>
     </g>
    </g>
    <g id="xtick_14">
     <g id="line2d_19">
      <g>
       <use style="stroke:#000000;stroke-width:0.48;" x="72.4" xlink:href="#mc20ca9cee2" y="140.3"/>
      </g>
     </g>
    </g>
    <g id="xtick_15">
     <g id="line2d_20">
      <g>
       <use style="stroke:#000000;stroke-width:0.48;" x="77.963636" xlink:href="#mc20ca9cee2" y="140.3"/>
      </g>
     </g>
    </g>
    <g id="xtick_16">
     <g id="line2d_21">
      <g>
       <use style="stroke:#000000;stroke-width:0.48;" x="83.527273" xlink:href="#mc20ca9cee2" y="140.3"/>
      </g>
     </g>
    </g>
    <g id="xtick_17">
     <g id="line2d_22">
      <g>
       <use style="stroke:#000000;stroke-width:0.48;" x="89.090909" xlink:href="#mc20ca9cee2" y="140.3"/>
      </g>
     </g>
    </g>
    <g id="xtick_18">
     <g id="line2d_23">
      <g>
       <use style="stroke:#000000;stroke-width:0.48;" x="100.218182" xlink:href="#mc20ca9cee2" y="140.3"/>
      </g>
     </g>
    </g>
    <g id="xtick_19">
     <g id="line2d_24">
      <g>
       <use style="stroke:#000000;stroke-width:0.48;" x="105.781818" xlink:href="#mc20ca9cee2" y="140.3"/>
      </g>
     </g>
    </g>
    <g id="xtick_20">
     <g id="line2d_25">
      <g>
       <use style="stroke:#000000;stroke-width:0.48;" x="111.345455" xlink:href="#mc20ca9cee2" y="140.3"/>
      </g>
     </g>
    </g>
    <g id="xtick_21">
     <g id="line2d_26">
      <g>
       <use style="stroke:#000000;stroke-width:0.48;" x="116.909091" xlink:href="#mc20ca9cee2" y="140.3"/>
      </g>
     </g>
    </g>
    <g id="xtick_22">
     <g id="line2d_27">
      <g>
       <use style="stroke:#000000;stroke-width:0.48;" x="128.036364" xlink:href="#mc20ca9cee2" y="140.3"/>
      </g>
     </g>
    </g>
    <g id="xtick_23">
     <g id="line2d_28">
      <g>
       <use style="stroke:#000000;stroke-width:0.48;" x="133.6" xlink:href="#mc20ca9cee2" y="140.3"/>
      </g>
     </g>
    </g>
   </g>
   <g id="matplotlib.axis_2">
    <g id="ytick_1">
     <g id="line2d_29">
      <path clip-path="url(#p528b3135d8)" d="M 11.2 131.857863 
L 133.6 131.857863 
" style="fill:none;stroke:#000000;stroke-linecap:square;stroke-opacity:0.1;stroke-width:0.6;"/>
     </g>
     <g id="line2d_30">
      <defs>
       <path d="M 0 0 
L -4 0 
" id="m2dc6f60c68" style="stroke:#000000;stroke-width:0.6;"/>
      </defs>
      <g>
       <use style="stroke:#000000;stroke-width:0.6;" x="11.2" xlink:href="#m2dc6f60c68" y="131.857863"/>
      </g>
     </g>
    </g>
    <g id="ytick_2">
     <g id="line2d_31">
      <path clip-path="url(#p528b3135d8)" d="M 11.2 105.922669 
L 133.6 105.922669 
" style="fill:none;stroke:#000000;stroke-linecap:square;stroke-opacity:0.1;stroke-width:0.6;"/>
     </g>
     <g id="line2d_32">
      <g>
       <use style="stroke:#000000;stroke-width:0.6;" x="11.2" xlink:href="#m2dc6f60c68" y="105.922669"/>
      </g>
     </g>
    </g>
    <g id="ytick_3">
     <g id="line2d_33">
      <path clip-path="url(#p528b3135d8)" d="M 11.2 79.987475 
L 133.6 79.987475 
" style="fill:none;stroke:#000000;stroke-linecap:square;stroke-opacity:0.1;stroke-width:0.6;"/>
     </g>
     <g id="line2d_34">
      <g>
       <use style="stroke:#000000;stroke-width:0.6;" x="11.2" xlink:href="#m2dc6f60c68" y="79.987475"/>
      </g>
     </g>
    </g>
    <g id="ytick_4">
     <g id="line2d_35">
      <path clip-path="url(#p528b3135d8)" d="M 11.2 54.052281 
L 133.6 54.052281 
" style="fill:none;stroke:#000000;stroke-linecap:square;stroke-opacity:0.1;stroke-width:0.6;"/>
     </g>
     <g id="line2d_36">
      <g>
       <use style="stroke:#000000;stroke-width:0.6;" x="11.2" xlink:href="#m2dc6f60c68" y="54.052281"/>
      </g>
     </g>
    </g>
    <g id="ytick_5">
     <g id="line2d_37">
      <path clip-path="url(#p528b3135d8)" d="M 11.2 28.117087 
L 133.6 28.117087 
" style="fill:none;stroke:#000000;stroke-linecap:square;stroke-opacity:0.1;stroke-width:0.6;"/>
     </g>
     <g id="line2d_38">
      <g>
       <use style="stroke:#000000;stroke-width:0.6;" x="11.2" xlink:href="#m2dc6f60c68" y="28.117087"/>
      </g>
     </g>
    </g>
    <g id="ytick_6">
     <g id="line2d_39">
      <defs>
       <path d="M 0 0 
L -2 0 
" id="m745e9dfe2a" style="stroke:#000000;stroke-width:0.48;"/>
      </defs>
      <g>
       <use style="stroke:#000000;stroke-width:0.48;" x="11.2" xlink:href="#m745e9dfe2a" y="137.044901"/>
      </g>
     </g>
    </g>
    <g id="ytick_7">
     <g id="line2d_40">
      <g>
       <use style="stroke:#000000;stroke-width:0.48;" x="11.2" xlink:href="#m745e9dfe2a" y="126.670824"/>
      </g>
     </g>
    </g>
    <g id="ytick_8">
     <g id="line2d_41">
      <g>
       <use style="stroke:#000000;stroke-width:0.48;" x="11.2" xlink:href="#m745e9dfe2a" y="121.483785"/>
      </g>
     </g>
    </g>
    <g id="ytick_9">
     <g id="line2d_42">
      <g>
       <use style="stroke:#000000;stroke-width:0.48;" x="11.2" xlink:href="#m745e9dfe2a" y="116.296746"/>
      </g>
     </g>
    </g>
    <g id="ytick_10">
     <g id="line2d_43">
      <g>
       <use style="stroke:#000000;stroke-width:0.48;" x="11.2" xlink:href="#m745e9dfe2a" y="111.109708"/>
      </g>
     </g>
    </g>
    <g id="ytick_11">
     <g id="line2d_44">
      <g>
       <use style="stroke:#000000;stroke-width:0.48;" x="11.2" xlink:href="#m745e9dfe2a" y="100.73563"/>
      </g>
     </g>
    </g>
    <g id="ytick_12">
     <g id="line2d_45">
      <g>
       <use style="stroke:#000000;stroke-width:0.48;" x="11.2" xlink:href="#m745e9dfe2a" y="95.548591"/>
      </g>
     </g>
    </g>
    <g id="ytick_13">
     <g id="line2d_46">
      <g>
       <use style="stroke:#000000;stroke-width:0.48;" x="11.2" xlink:href="#m745e9dfe2a" y="90.361552"/>
      </g>
     </g>
    </g>
    <g id="ytick_14">
     <g id="line2d_47">
      <g>
       <use style="stroke:#000000;stroke-width:0.48;" x="11.2" xlink:href="#m745e9dfe2a" y="85.174514"/>
      </g>
     </g>
    </g>
    <g id="ytick_15">
     <g id="line2d_48">
      <g>
       <use style="stroke:#000000;stroke-width:0.48;" x="11.2" xlink:href="#m745e9dfe2a" y="74.800436"/>
      </g>
     </g>
    </g>
    <g id="ytick_16">
     <g id="line2d_49">
      <g>
       <use style="stroke:#000000;stroke-width:0.48;" x="11.2" xlink:href="#m745e9dfe2a" y="69.613397"/>
      </g>
     </g>
    </g>
    <g id="ytick_17">
     <g id="line2d_50">
      <g>
       <use style="stroke:#000000;stroke-width:0.48;" x="11.2" xlink:href="#m745e9dfe2a" y="64.426359"/>
      </g>
     </g>
    </g>
    <g id="ytick_18">
     <g id="line2d_51">
      <g>
       <use style="stroke:#000000;stroke-width:0.48;" x="11.2" xlink:href="#m745e9dfe2a" y="59.23932"/>
      </g>
     </g>
    </g>
    <g id="ytick_19">
     <g id="line2d_52">
      <g>
       <use style="stroke:#000000;stroke-width:0.48;" x="11.2" xlink:href="#m745e9dfe2a" y="48.865242"/>
      </g>
     </g>
    </g>
    <g id="ytick_20">
     <g id="line2d_53">
      <g>
       <use style="stroke:#000000;stroke-width:0.48;" x="11.2" xlink:href="#m745e9dfe2a" y="43.678204"/>
      </g>
     </g>
    </g>
    <g id="ytick_21">
     <g id="line2d_54">
      <g>
       <use style="stroke:#000000;stroke-width:0.48;" x="11.2" xlink:href="#m745e9dfe2a" y="38.491165"/>
      </g>
     </g>
    </g>
    <g id="ytick_22">
     <g id="line2d_55">
      <g>
       <use style="stroke:#000000;stroke-width:0.48;" x="11.2" xlink:href="#m745e9dfe2a" y="33.304126"/>
      </g>
     </g>
    </g>
    <g id="ytick_23">
     <g id="line2d_56">
      <g>
       <use style="stroke:#000000;stroke-width:0.48;" x="11.2" xlink:href="#m745e9dfe2a" y="22.930049"/>
      </g>
     </g>
    </g>
   </g>
   <g id="line2d_57">
    <path clip-path="url(#p528b3135d8)" d="M 11.2 90.030413 
L 22.327273 95.012662 
L 33.454545 95.511806 
L 44.581818 84.928674 
L 55.709091 73.050322 
L 66.836364 71.147313 
L 77.963636 67.957114 
L 89.090909 54.286986 
L 100.218182 58.752045 
L 111.345455 64.954197 
L 122.472727 53.526281 
L 133.6 60.159297 
" style="fill:none;stroke:#2b4162;stroke-linecap:square;stroke-width:5;"/>
   </g>
   <g id="line2d_58">
    <path clip-path="url(#p528b3135d8)" d="M 11.2 78.958934 
L 22.327273 78.684342 
L 33.454545 69.001644 
L 44.581818 63.501488 
L 55.709091 52.851762 
L 66.836364 52.555276 
L 77.963636 43.361961 
L 89.090909 42.765459 
L 100.218182 38.609323 
L 111.345455 24.414888 
L 122.472727 30.313228 
L 133.6 17.9 
" style="fill:none;stroke:#fa9f42;stroke-linecap:square;stroke-width:5;"/>
   </g>
   <g id="line2d_59">
    <path clip-path="url(#p528b3135d8)" d="M 11.2 85.69245 
L 22.327273 79.440967 
L 33.454545 84.711709 
L 44.581818 71.528623 
L 55.709091 70.120831 
L 66.836364 81.416281 
L 77.963636 82.751468 
L 89.090909 91.310611 
L 100.218182 82.702141 
L 111.345455 70.474997 
L 122.472727 69.447072 
L 133.6 63.681252 
" style="fill:none;stroke:#e0e0e2;stroke-linecap:square;stroke-width:5;"/>
   </g>
   <g id="line2d_60">
    <path clip-path="url(#p528b3135d8)" d="M 11.2 88.025914 
L 22.327273 97.030053 
L 33.454545 95.208473 
L 44.581818 105.068693 
L 55.709091 115.279944 
L 66.836364 106.544022 
L 77.963636 116.057335 
L 89.090909 110.387088 
L 100.218182 110.433253 
L 111.345455 117.873554 
L 122.472727 120.171418 
L 133.6 125.65093 
" style="fill:none;stroke:#a21817;stroke-linecap:square;stroke-width:5;"/>
   </g>
   <g id="line2d_61">
    <path clip-path="url(#p528b3135d8)" d="M 11.2 79.000595 
L 22.327273 71.212794 
L 33.454545 77.436484 
L 44.581818 74.76314 
L 55.709091 65.270288 
L 66.836364 66.81326 
L 77.963636 72.012887 
L 89.090909 73.050197 
L 100.218182 71.338285 
L 111.345455 81.0873 
L 122.472727 68.315848 
L 133.6 75.696209 
" style="fill:none;stroke:#0b6e4f;stroke-linecap:square;stroke-width:5;"/>
   </g>
   <g id="line2d_62">
    <path clip-path="url(#p528b3135d8)" d="M 11.2 77.693603 
L 22.327273 76.491122 
L 33.454545 79.496785 
L 44.581818 90.068129 
L 55.709091 79.520264 
L 66.836364 90.002623 
L 77.963636 92.109078 
L 89.090909 102.208144 
L 100.218182 111.674825 
L 111.345455 121.587979 
L 122.472727 132.617014 
L 133.6 140.3 
" style="fill:none;stroke:#2b4162;stroke-linecap:square;stroke-width:5;"/>
   </g>
   <g id="line2d_63">
    <path clip-path="url(#p528b3135d8)" d="M 11.2 77.228918 
L 22.327273 75.392581 
L 33.454545 79.342658 
L 44.581818 68.727315 
L 55.709091 76.946407 
L 66.836364 79.409977 
L 77.963636 80.384177 
L 89.090909 72.572161 
L 100.218182 80.013277 
L 111.345455 89.158335 
L 122.472727 82.506438 
L 133.6 81.983838 
" style="fill:none;stroke:#fa9f42;stroke-linecap:square;stroke-width:5;"/>
   </g>
   <g id="line2d_64">
    <path clip-path="url(#p528b3135d8)" d="M 11.2 84.03975 
L 22.327273 84.030124 
L 33.454545 91.0333 
L 44.581818 86.178567 
L 55.709091 78.64893 
L 66.836364 70.336169 
L 77.963636 56.666391 
L 89.090909 42.57423 
L 100.218182 39.283433 
L 111.345455 36.767293 
L 122.472727 37.68678 
L 133.6 47.750135 
" style="fill:none;stroke:#e0e0e2;stroke-linecap:square;stroke-width:5;"/>
   </g>
   <g id="line2d_65">
    <path clip-path="url(#p528b3135d8)" d="M 11.2 70.938378 
L 22.327273 61.197882 
L 33.454545 49.506828 
L 44.581818 56.258084 
L 55.709091 51.08131 
L 66.836364 44.305531 
L 77.963636 41.370888 
L 89.090909 43.86367 
L 100.218182 40.681745 
L 111.345455 44.409154 
L 122.472727 44.439656 
L 133.6 38.662412 
" style="fill:none;stroke:#a21817;stroke-linecap:square;stroke-width:5;"/>
   </g>
   <g id="line2d_66">
    <path clip-path="url(#p528b3135d8)" d="M 11.2 74.656634 
L 22.327273 61.998872 
L 33.454545 64.805326 
L 44.581818 58.418866 
L 55.709091 63.069431 
L 66.836364 65.548517 
L 77.963636 75.941948 
L 89.090909 79.800786 
L 100.218182 82.914474 
L 111.345455 74.363496 
L 122.472727 78.52848 
L 133.6 66.295068 
" style="fill:none;stroke:#0b6e4f;stroke-linecap:square;stroke-width:5;"/>
   </g>
   <g id="line2d_67">
    <path clip-path="url(#p528b3135d8)" d="M 11.2 81.147347 
L 22.327273 84.181565 
L 33.454545 81.663313 
L 44.581818 74.977343 
L 55.709091 73.729752 
L 66.836364 62.743664 
L 77.963636 71.066823 
L 89.090909 68.832058 
L 100.218182 69.465778 
L 111.345455 56.592643 
L 122.472727 61.9607 
L 133.6 65.947642 
" style="fill:none;stroke:#2b4162;stroke-linecap:square;stroke-width:5;"/>
   </g>
   <g id="line2d_68">
    <path clip-path="url(#p528b3135d8)" d="M 11.2 82.887404 
L 22.327273 83.84291 
L 33.454545 71.272369 
L 44.581818 72.057815 
L 55.709091 62.127928 
L 66.836364 50.065951 
L 77.963636 44.616716 
L 89.090909 53.437896 
L 100.218182 44.830908 
L 111.345455 51.92493 
L 122.472727 42.297389 
L 133.6 36.04653 
" style="fill:none;stroke:#fa9f42;stroke-linecap:square;stroke-width:5;"/>
   </g>
   <g id="patch_3">
    <path d="M 11.2 140.3 
L 11.2 17.9 
" style="fill:none;stroke:#000000;stroke-linecap:square;stroke-linejoin:miter;stroke-width:0.6;"/>
   </g>
   <g id="patch_4">
    <path d="M 133.6 140.3 
L 133.6 17.9 
" style="fill:none;stroke:#000000;stroke-linecap:square;stroke-linejoin:miter;stroke-width:0.6;"/>
   </g>
   <g id="patch_5">
    <path d="M 11.2 140.3 
L 133.6 140.3 
" style="fill:none;stroke:#000000;stroke-linecap:square;stroke-linejoin:miter;stroke-width:0.6;"/>
   </g>
   <g id="patch_6">
    <path d="M 11.2 17.9 
L 133.6 17.9 
" style="fill:none;stroke:#000000;stroke-linecap:square;stroke-linejoin:miter;stroke-width:0.6;"/>
   </g>
  </g>
  <g id="axes_2">
   <g id="patch_7">
    <path d="M 144.8 140.3 
L 267.2 140.3 
L 267.2 17.9 
L 144.8 17.9 
z
" style="fill:#ffffff;"/>
   </g>
   <g id="matplotlib.axis_3">
    <g id="xtick_24">
     <g id="line2d_69">
      <path clip-path="url(#p28415560aa)" d="M 144.8 140.3 
L 144.8 17.9 
" style="fill:none;stroke:#000000;stroke-linecap:square;stroke-opacity:0.1;stroke-width:0.6;"/>
     </g>
     <g id="line2d_70">
      <g>
       <use style="stroke:#000000;stroke-width:0.6;" x="144.8" xlink:href="#m662eebaa2c" y="140.3"/>
      </g>
     </g>
    </g>
    <g id="xtick_25">
     <g id="line2d_71">
      <path clip-path="url(#p28415560aa)" d="M 172.618182 140.3 
L 172.618182 17.9 
" style="fill:none;stroke:#000000;stroke-linecap:square;stroke-opacity:0.1;stroke-width:0.6;"/>
     </g>
     <g id="line2d_72">
      <g>
       <use style="stroke:#000000;stroke-width:0.6;" x="172.618182" xlink:href="#m662eebaa2c" y="140.3"/>
      </g>
     </g>
    </g>
    <g id="xtick_26">
     <g id="line2d_73">
      <path clip-path="url(#p28415560aa)" d="M 200.436364 140.3 
L 200.436364 17.9 
" style="fill:none;stroke:#000000;stroke-linecap:square;stroke-opacity:0.1;stroke-width:0.6;"/>
     </g>
     <g id="line2d_74">
      <g>
       <use style="stroke:#000000;stroke-width:0.6;" x="200.436364" xlink:href="#m662eebaa2c" y="140.3"/>
      </g>
     </g>
    </g>
    <g id="xtick_27">
     <g id="line2d_75">
      <path clip-path="url(#p28415560aa)" d="M 228.254545 140.3 
L 228.254545 17.9 
" style="fill:none;stroke:#000000;stroke-linecap:square;stroke-opacity:0.1;stroke-width:0.6;"/>
     </g>
     <g id="line2d_76">
      <g>
       <use style="stroke:#000000;stroke-width:0.6;" x="228.254545" xlink:href="#m662eebaa2c" y="140.3"/>
      </g>
     </g>
    </g>
    <g id="xtick_28">
     <g id="line2d_77">
      <path clip-path="url(#p28415560aa)" d="M 256.072727 140.3 
L 256.072727 17.9 
" style="fill:none;stroke:#000000;stroke-linecap:square;stroke-opacity:0.1;stroke-width:0.6;"/>
     </g>
     <g id="line2d_78">
      <g>
       <use style="stroke:#000000;stroke-width:0.6;" x="256.072727" xlink:href="#m662eebaa2c" y="140.3"/>
      </g>
     </g>
    </g>
    <g id="xtick_29">
     <g id="line2d_79">
      <g>
       <use style="stroke:#000000;stroke-width:0.48;" x="150.363636" xlink:href="#mc20ca9cee2" y="140.3"/>
      </g>
     </g>
    </g>
    <g id="xtick_30">
     <g id="line2d_80">
      <g>
       <use style="stroke:#000000;stroke-width:0.48;" x="155.927273" xlink:href="#mc20ca9cee2" y="140.3"/>
      </g>
     </g>
    </g>
    <g id="xtick_31">
     <g id="line2d_81">
      <g>
       <use style="stroke:#000000;stroke-width:0.48;" x="161.490909" xlink:href="#mc20ca9cee2" y="140.3"/>
      </g>
     </g>
    </g>
    <g id="xtick_32">
     <g id="line2d_82">
      <g>
       <use style="stroke:#000000;stroke-width:0.48;" x="167.054545" xlink:href="#mc20ca9cee2" y="140.3"/>
      </g>
     </g>
    </g>
    <g id="xtick_33">
     <g id="line2d_83">
      <g>
       <use style="stroke:#000000;stroke-width:0.48;" x="178.181818" xlink:href="#mc20ca9cee2" y="140.3"/>
      </g>
     </g>
    </g>
    <g id="xtick_34">
     <g id="line2d_84">
      <g>
       <use style="stroke:#000000;stroke-width:0.48;" x="183.745455" xlink:href="#mc20ca9cee2" y="140.3"/>
      </g>
     </g>
    </g>
    <g id="xtick_35">
     <g id="line2d_85">
      <g>
       <use style="stroke:#000000;stroke-width:0.48;" x="189.309091" xlink:href="#mc20ca9cee2" y="140.3"/>
      </g>
     </g>
    </g>
    <g id="xtick_36">
     <g id="line2d_86">
      <g>
       <use style="stroke:#000000;stroke-width:0.48;" x="194.872727" xlink:href="#mc20ca9cee2" y="140.3"/>
      </g>
     </g>
    </g>
    <g id="xtick_37">
     <g id="line2d_87">
      <g>
       <use style="stroke:#000000;stroke-width:0.48;" x="206" xlink:href="#mc20ca9cee2" y="140.3"/>
      </g>
     </g>
    </g>
    <g id="xtick_38">
     <g id="line2d_88">
      <g>
       <use style="stroke:#000000;stroke-width:0.48;" x="211.563636" xlink:href="#mc20ca9cee2" y="140.3"/>
      </g>
     </g>
    </g>
    <g id="xtick_39">
     <g id="line2d_89">
      <g>
       <use style="stroke:#000000;stroke-width:0.48;" x="217.127273" xlink:href="#mc20ca9cee2" y="140.3"/>
      </g>
     </g>
    </g>
    <g id="xtick_40">
     <g id="line2d_90">
      <g>
       <use style="stroke:#000000;stroke-width:0.48;" x="222.690909" xlink:href="#mc20ca9cee2" y="140.3"/>
      </g>
     </g>
    </g>
    <g id="xtick_41">
     <g id="line2d_91">
      <g>
       <use style="stroke:#000000;stroke-width:0.48;" x="233.818182" xlink:href="#mc20ca9cee2" y="140.3"/>
      </g>
     </g>
    </g>
    <g id="xtick_42">
     <g id="line2d_92">
      <g>
       <use style="stroke:#000000;stroke-width:0.48;" x="239.381818" xlink:href="#mc20ca9cee2" y="140.3"/>
      </g>
     </g>
    </g>
    <g id="xtick_43">
     <g id="line2d_93">
      <g>
       <use style="stroke:#000000;stroke-width:0.48;" x="244.945455" xlink:href="#mc20ca9cee2" y="140.3"/>
      </g>
     </g>
    </g>
    <g id="xtick_44">
     <g id="line2d_94">
      <g>
       <use style="stroke:#000000;stroke-width:0.48;" x="250.509091" xlink:href="#mc20ca9cee2" y="140.3"/>
      </g>
     </g>
    </g>
    <g id="xtick_45">
     <g id="line2d_95">
      <g>
       <use style="stroke:#000000;stroke-width:0.48;" x="261.636364" xlink:href="#mc20ca9cee2" y="140.3"/>
      </g>
     </g>
    </g>
    <g id="xtick_46">
     <g id="line2d_96">
      <g>
       <use style="stroke:#000000;stroke-width:0.48;" x="267.2" xlink:href="#mc20ca9cee2" y="140.3"/>
      </g>
     </g>
    </g>
   </g>
   <g id="matplotlib.axis_4">
    <g id="ytick_24">
     <g id="line2d_97">
      <path clip-path="url(#p28415560aa)" d="M 144.8 131.857863 
L 267.2 131.857863 
" style="fill:none;stroke:#000000;stroke-linecap:square;stroke-opacity:0.1;stroke-width:0.6;"/>
     </g>
     <g id="line2d_98">
      <g>
       <use style="stroke:#000000;stroke-width:0.6;" x="144.8" xlink:href="#m2dc6f60c68" y="131.857863"/>
      </g>
     </g>
    </g>
    <g id="ytick_25">
     <g id="line2d_99">
      <path clip-path="url(#p28415560aa)" d="M 144.8 105.922669 
L 267.2 105.922669 
" style="fill:none;stroke:#000000;stroke-linecap:square;stroke-opacity:0.1;stroke-width:0.6;"/>
     </g>
     <g id="line2d_100">
      <g>
       <use style="stroke:#000000;stroke-width:0.6;" x="144.8" xlink:href="#m2dc6f60c68" y="105.922669"/>
      </g>
     </g>
    </g>
    <g id="ytick_26">
     <g id="line2d_101">
      <path clip-path="url(#p28415560aa)" d="M 144.8 79.987475 
L 267.2 79.987475 
" style="fill:none;stroke:#000000;stroke-linecap:square;stroke-opacity:0.1;stroke-width:0.6;"/>
     </g>
     <g id="line2d_102">
      <g>
       <use style="stroke:#000000;stroke-width:0.6;" x="144.8" xlink:href="#m2dc6f60c68" y="79.987475"/>
      </g>
     </g>
    </g>
    <g id="ytick_27">
     <g id="line2d_103">
      <path clip-path="url(#p28415560aa)" d="M 144.8 54.052281 
L 267.2 54.052281 
" style="fill:none;stroke:#000000;stroke-linecap:square;stroke-opacity:0.1;stroke-width:0.6;"/>
     </g>
     <g id="line2d_104">
      <g>
       <use style="stroke:#000000;stroke-width:0.6;" x="144.8" xlink:href="#m2dc6f60c68" y="54.052281"/>
      </g>
     </g>
    </g>
    <g id="ytick_28">
     <g id="line2d_105">
      <path clip-path="url(#p28415560aa)" d="M 144.8 28.117087 
L 267.2 28.117087 
" style="fill:none;stroke:#000000;stroke-linecap:square;stroke-opacity:0.1;stroke-width:0.6;"/>
     </g>
     <g id="line2d_106">
      <g>
       <use style="stroke:#000000;stroke-width:0.6;" x="144.8" xlink:href="#m2dc6f60c68" y="28.117087"/>
      </g>
     </g>
    </g>
    <g id="ytick_29">
     <g id="line2d_107">
      <g>
       <use style="stroke:#000000;stroke-width:0.48;" x="144.8" xlink:href="#m745e9dfe2a" y="137.044901"/>
      </g>
     </g>
    </g>
    <g id="ytick_30">
     <g id="line2d_108">
      <g>
       <use style="stroke:#000000;stroke-width:0.48;" x="144.8" xlink:href="#m745e9dfe2a" y="126.670824"/>
      </g>
     </g>
    </g>
    <g id="ytick_31">
     <g id="line2d_109">
      <g>
       <use style="stroke:#000000;stroke-width:0.48;" x="144.8" xlink:href="#m745e9dfe2a" y="121.483785"/>
      </g>
     </g>
    </g>
    <g id="ytick_32">
     <g id="line2d_110">
      <g>
       <use style="stroke:#000000;stroke-width:0.48;" x="144.8" xlink:href="#m745e9dfe2a" y="116.296746"/>
      </g>
     </g>
    </g>
    <g id="ytick_33">
     <g id="line2d_111">
      <g>
       <use style="stroke:#000000;stroke-width:0.48;" x="144.8" xlink:href="#m745e9dfe2a" y="111.109708"/>
      </g>
     </g>
    </g>
    <g id="ytick_34">
     <g id="line2d_112">
      <g>
       <use style="stroke:#000000;stroke-width:0.48;" x="144.8" xlink:href="#m745e9dfe2a" y="100.73563"/>
      </g>
     </g>
    </g>
    <g id="ytick_35">
     <g id="line2d_113">
      <g>
       <use style="stroke:#000000;stroke-width:0.48;" x="144.8" xlink:href="#m745e9dfe2a" y="95.548591"/>
      </g>
     </g>
    </g>
    <g id="ytick_36">
     <g id="line2d_114">
      <g>
       <use style="stroke:#000000;stroke-width:0.48;" x="144.8" xlink:href="#m745e9dfe2a" y="90.361552"/>
      </g>
     </g>
    </g>
    <g id="ytick_37">
     <g id="line2d_115">
      <g>
       <use style="stroke:#000000;stroke-width:0.48;" x="144.8" xlink:href="#m745e9dfe2a" y="85.174514"/>
      </g>
     </g>
    </g>
    <g id="ytick_38">
     <g id="line2d_116">
      <g>
       <use style="stroke:#000000;stroke-width:0.48;" x="144.8" xlink:href="#m745e9dfe2a" y="74.800436"/>
      </g>
     </g>
    </g>
    <g id="ytick_39">
     <g id="line2d_117">
      <g>
       <use style="stroke:#000000;stroke-width:0.48;" x="144.8" xlink:href="#m745e9dfe2a" y="69.613397"/>
      </g>
     </g>
    </g>
    <g id="ytick_40">
     <g id="line2d_118">
      <g>
       <use style="stroke:#000000;stroke-width:0.48;" x="144.8" xlink:href="#m745e9dfe2a" y="64.426359"/>
      </g>
     </g>
    </g>
    <g id="ytick_41">
     <g id="line2d_119">
      <g>
       <use style="stroke:#000000;stroke-width:0.48;" x="144.8" xlink:href="#m745e9dfe2a" y="59.23932"/>
      </g>
     </g>
    </g>
    <g id="ytick_42">
     <g id="line2d_120">
      <g>
       <use style="stroke:#000000;stroke-width:0.48;" x="144.8" xlink:href="#m745e9dfe2a" y="48.865242"/>
      </g>
     </g>
    </g>
    <g id="ytick_43">
     <g id="line2d_121">
      <g>
       <use style="stroke:#000000;stroke-width:0.48;" x="144.8" xlink:href="#m745e9dfe2a" y="43.678204"/>
      </g>
     </g>
    </g>
    <g id="ytick_44">
     <g id="line2d_122">
      <g>
       <use style="stroke:#000000;stroke-width:0.48;" x="144.8" xlink:href="#m745e9dfe2a" y="38.491165"/>
      </g>
     </g>
    </g>
    <g id="ytick_45">
     <g id="line2d_123">
      <g>
       <use style="stroke:#000000;stroke-width:0.48;" x="144.8" xlink:href="#m745e9dfe2a" y="33.304126"/>
      </g>
     </g>
    </g>
    <g id="ytick_46">
     <g id="line2d_124">
      <g>
       <use style="stroke:#000000;stroke-width:0.48;" x="144.8" xlink:href="#m745e9dfe2a" y="22.930049"/>
      </g>
     </g>
    </g>
   </g>
   <g id="line2d_125">
    <path clip-path="url(#p28415560aa)" d="M 144.8 90.030413 
L 155.927273 95.012662 
L 167.054545 95.511806 
L 178.181818 84.928674 
L 189.309091 73.050322 
L 200.436364 71.147313 
L 211.563636 67.957114 
L 222.690909 54.286986 
L 233.818182 58.752045 
L 244.945455 64.954197 
L 256.072727 53.526281 
L 267.2 60.159297 
" style="fill:none;stroke:#5bbe94;stroke-linecap:square;stroke-width:5;"/>
   </g>
   <g id="line2d_126">
    <path clip-path="url(#p28415560aa)" d="M 144.8 78.958934 
L 155.927273 78.684342 
L 167.054545 69.001644 
L 178.181818 63.501488 
L 189.309091 52.851762 
L 200.436364 52.555276 
L 211.563636 43.361961 
L 222.690909 42.765459 
L 233.818182 38.609323 
L 244.945455 24.414888 
L 256.072727 30.313228 
L 267.2 17.9 
" style="fill:none;stroke:#b6e3d1;stroke-linecap:square;stroke-width:5;"/>
   </g>
   <g id="line2d_127">
    <path clip-path="url(#p28415560aa)" d="M 144.8 85.69245 
L 155.927273 79.440967 
L 167.054545 84.711709 
L 178.181818 71.528623 
L 189.309091 70.120831 
L 200.436364 81.416281 
L 211.563636 82.751468 
L 222.690909 91.310611 
L 233.818182 82.702141 
L 244.945455 70.474997 
L 256.072727 69.447072 
L 267.2 63.681252 
" style="fill:none;stroke:#91be64;stroke-linecap:square;stroke-width:5;"/>
   </g>
   <g id="line2d_128">
    <path clip-path="url(#p28415560aa)" d="M 144.8 88.025914 
L 155.927273 97.030053 
L 167.054545 95.208473 
L 178.181818 105.068693 
L 189.309091 115.279944 
L 200.436364 106.544022 
L 211.563636 116.057335 
L 222.690909 110.387088 
L 233.818182 110.433253 
L 244.945455 117.873554 
L 256.072727 120.171418 
L 267.2 125.65093 
" style="fill:none;stroke:#cce5b5;stroke-linecap:square;stroke-width:5;"/>
   </g>
   <g id="line2d_129">
    <path clip-path="url(#p28415560aa)" d="M 144.8 79.000595 
L 155.927273 71.212794 
L 167.054545 77.436484 
L 178.181818 74.76314 
L 189.309091 65.270288 
L 200.436364 66.81326 
L 211.563636 72.012887 
L 222.690909 73.050197 
L 233.818182 71.338285 
L 244.945455 81.0873 
L 256.072727 68.315848 
L 267.2 75.696209 
" style="fill:none;stroke:#e5cf6c;stroke-linecap:square;stroke-width:5;"/>
   </g>
   <g id="line2d_130">
    <path clip-path="url(#p28415560aa)" d="M 144.8 77.693603 
L 155.927273 76.491122 
L 167.054545 79.496785 
L 178.181818 90.068129 
L 189.309091 79.520264 
L 200.436364 90.002623 
L 211.563636 92.109078 
L 222.690909 102.208144 
L 233.818182 111.674825 
L 244.945455 121.587979 
L 256.072727 132.617014 
L 267.2 140.3 
" style="fill:none;stroke:#f9ebaa;stroke-linecap:square;stroke-width:5;"/>
   </g>
   <g id="line2d_131">
    <path clip-path="url(#p28415560aa)" d="M 144.8 77.228918 
L 155.927273 75.392581 
L 167.054545 79.342658 
L 178.181818 68.727315 
L 189.309091 76.946407 
L 200.436364 79.409977 
L 211.563636 80.384177 
L 222.690909 72.572161 
L 233.818182 80.013277 
L 244.945455 89.158335 
L 256.072727 82.506438 
L 267.2 81.983838 
" style="fill:none;stroke:#e87b70;stroke-linecap:square;stroke-width:5;"/>
   </g>
   <g id="line2d_132">
    <path clip-path="url(#p28415560aa)" d="M 144.8 84.03975 
L 155.927273 84.030124 
L 167.054545 91.0333 
L 178.181818 86.178567 
L 189.309091 78.64893 
L 200.436364 70.336169 
L 211.563636 56.666391 
L 222.690909 42.57423 
L 233.818182 39.283433 
L 244.945455 36.767293 
L 256.072727 37.68678 
L 267.2 47.750135 
" style="fill:none;stroke:#f2cec1;stroke-linecap:square;stroke-width:5;"/>
   </g>
   <g id="line2d_133">
    <path clip-path="url(#p28415560aa)" d="M 144.8 70.938378 
L 155.927273 61.197882 
L 167.054545 49.506828 
L 178.181818 56.258084 
L 189.309091 51.08131 
L 200.436364 44.305531 
L 211.563636 41.370888 
L 222.690909 43.86367 
L 233.818182 40.681745 
L 244.945455 44.409154 
L 256.072727 44.439656 
L 267.2 38.662412 
" style="fill:none;stroke:#cc6686;stroke-linecap:square;stroke-width:5;"/>
   </g>
   <g id="line2d_134">
    <path clip-path="url(#p28415560aa)" d="M 144.8 74.656634 
L 155.927273 61.998872 
L 167.054545 64.805326 
L 178.181818 58.418866 
L 189.309091 63.069431 
L 200.436364 65.548517 
L 211.563636 75.941948 
L 222.690909 79.800786 
L 233.818182 82.914474 
L 244.945455 74.363496 
L 256.072727 78.52848 
L 267.2 66.295068 
" style="fill:none;stroke:#e5b5c5;stroke-linecap:square;stroke-width:5;"/>
   </g>
   <g id="line2d_135">
    <path clip-path="url(#p28415560aa)" d="M 144.8 81.147347 
L 155.927273 84.181565 
L 167.054545 81.663313 
L 178.181818 74.977343 
L 189.309091 73.729752 
L 200.436364 62.743664 
L 211.563636 71.066823 
L 222.690909 68.832058 
L 233.818182 69.465778 
L 244.945455 56.592643 
L 256.072727 61.9607 
L 267.2 65.947642 
" style="fill:none;stroke:#5884b3;stroke-linecap:square;stroke-width:5;"/>
   </g>
   <g id="line2d_136">
    <path clip-path="url(#p28415560aa)" d="M 144.8 82.887404 
L 155.927273 83.84291 
L 167.054545 71.272369 
L 178.181818 72.057815 
L 189.309091 62.127928 
L 200.436364 50.065951 
L 211.563636 44.616716 
L 222.690909 53.437896 
L 233.818182 44.830908 
L 244.945455 51.92493 
L 256.072727 42.297389 
L 267.2 36.04653 
" style="fill:none;stroke:#b6cee5;stroke-linecap:square;stroke-width:5;"/>
   </g>
   <g id="patch_8">
    <path d="M 144.8 140.3 
L 144.8 17.9 
" style="fill:none;stroke:#000000;stroke-linecap:square;stroke-linejoin:miter;stroke-width:0.6;"/>
   </g>
   <g id="patch_9">
    <path d="M 267.2 140.3 
L 267.2 17.9 
" style="fill:none;stroke:#000000;stroke-linecap:square;stroke-linejoin:miter;stroke-width:0.6;"/>
   </g>
   <g id="patch_10">
    <path d="M 144.8 140.3 
L 267.2 140.3 
" style="fill:none;stroke:#000000;stroke-linecap:square;stroke-linejoin:miter;stroke-width:0.6;"/>
   </g>
   <g id="patch_11">
    <path d="M 144.8 17.9 
L 267.2 17.9 
" style="fill:none;stroke:#000000;stroke-linecap:square;stroke-linejoin:miter;stroke-width:0.6;"/>
   </g>
  </g>
  <g id="axes_3">
   <g id="patch_12">
    <path d="M 278.4 140.3 
L 400.8 140.3 
L 400.8 17.9 
L 278.4 17.9 
z
" style="fill:#ffffff;"/>
   </g>
   <g id="matplotlib.axis_5">
    <g id="xtick_47">
     <g id="line2d_137">
      <path clip-path="url(#p6c49658361)" d="M 278.4 140.3 
L 278.4 17.9 
" style="fill:none;stroke:#000000;stroke-linecap:square;stroke-opacity:0.1;stroke-width:0.6;"/>
     </g>
     <g id="line2d_138">
      <g>
       <use style="stroke:#000000;stroke-width:0.6;" x="278.4" xlink:href="#m662eebaa2c" y="140.3"/>
      </g>
     </g>
    </g>
    <g id="xtick_48">
     <g id="line2d_139">
      <path clip-path="url(#p6c49658361)" d="M 306.218182 140.3 
L 306.218182 17.9 
" style="fill:none;stroke:#000000;stroke-linecap:square;stroke-opacity:0.1;stroke-width:0.6;"/>
     </g>
     <g id="line2d_140">
      <g>
       <use style="stroke:#000000;stroke-width:0.6;" x="306.218182" xlink:href="#m662eebaa2c" y="140.3"/>
      </g>
     </g>
    </g>
    <g id="xtick_49">
     <g id="line2d_141">
      <path clip-path="url(#p6c49658361)" d="M 334.036364 140.3 
L 334.036364 17.9 
" style="fill:none;stroke:#000000;stroke-linecap:square;stroke-opacity:0.1;stroke-width:0.6;"/>
     </g>
     <g id="line2d_142">
      <g>
       <use style="stroke:#000000;stroke-width:0.6;" x="334.036364" xlink:href="#m662eebaa2c" y="140.3"/>
      </g>
     </g>
    </g>
    <g id="xtick_50">
     <g id="line2d_143">
      <path clip-path="url(#p6c49658361)" d="M 361.854545 140.3 
L 361.854545 17.9 
" style="fill:none;stroke:#000000;stroke-linecap:square;stroke-opacity:0.1;stroke-width:0.6;"/>
     </g>
     <g id="line2d_144">
      <g>
       <use style="stroke:#000000;stroke-width:0.6;" x="361.854545" xlink:href="#m662eebaa2c" y="140.3"/>
      </g>
     </g>
    </g>
    <g id="xtick_51">
     <g id="line2d_145">
      <path clip-path="url(#p6c49658361)" d="M 389.672727 140.3 
L 389.672727 17.9 
" style="fill:none;stroke:#000000;stroke-linecap:square;stroke-opacity:0.1;stroke-width:0.6;"/>
     </g>
     <g id="line2d_146">
      <g>
       <use style="stroke:#000000;stroke-width:0.6;" x="389.672727" xlink:href="#m662eebaa2c" y="140.3"/>
      </g>
     </g>
    </g>
    <g id="xtick_52">
     <g id="line2d_147">
      <g>
       <use style="stroke:#000000;stroke-width:0.48;" x="283.963636" xlink:href="#mc20ca9cee2" y="140.3"/>
      </g>
     </g>
    </g>
    <g id="xtick_53">
     <g id="line2d_148">
      <g>
       <use style="stroke:#000000;stroke-width:0.48;" x="289.527273" xlink:href="#mc20ca9cee2" y="140.3"/>
      </g>
     </g>
    </g>
    <g id="xtick_54">
     <g id="line2d_149">
      <g>
       <use style="stroke:#000000;stroke-width:0.48;" x="295.090909" xlink:href="#mc20ca9cee2" y="140.3"/>
      </g>
     </g>
    </g>
    <g id="xtick_55">
     <g id="line2d_150">
      <g>
       <use style="stroke:#000000;stroke-width:0.48;" x="300.654545" xlink:href="#mc20ca9cee2" y="140.3"/>
      </g>
     </g>
    </g>
    <g id="xtick_56">
     <g id="line2d_151">
      <g>
       <use style="stroke:#000000;stroke-width:0.48;" x="311.781818" xlink:href="#mc20ca9cee2" y="140.3"/>
      </g>
     </g>
    </g>
    <g id="xtick_57">
     <g id="line2d_152">
      <g>
       <use style="stroke:#000000;stroke-width:0.48;" x="317.345455" xlink:href="#mc20ca9cee2" y="140.3"/>
      </g>
     </g>
    </g>
    <g id="xtick_58">
     <g id="line2d_153">
      <g>
       <use style="stroke:#000000;stroke-width:0.48;" x="322.909091" xlink:href="#mc20ca9cee2" y="140.3"/>
      </g>
     </g>
    </g>
    <g id="xtick_59">
     <g id="line2d_154">
      <g>
       <use style="stroke:#000000;stroke-width:0.48;" x="328.472727" xlink:href="#mc20ca9cee2" y="140.3"/>
      </g>
     </g>
    </g>
    <g id="xtick_60">
     <g id="line2d_155">
      <g>
       <use style="stroke:#000000;stroke-width:0.48;" x="339.6" xlink:href="#mc20ca9cee2" y="140.3"/>
      </g>
     </g>
    </g>
    <g id="xtick_61">
     <g id="line2d_156">
      <g>
       <use style="stroke:#000000;stroke-width:0.48;" x="345.163636" xlink:href="#mc20ca9cee2" y="140.3"/>
      </g>
     </g>
    </g>
    <g id="xtick_62">
     <g id="line2d_157">
      <g>
       <use style="stroke:#000000;stroke-width:0.48;" x="350.727273" xlink:href="#mc20ca9cee2" y="140.3"/>
      </g>
     </g>
    </g>
    <g id="xtick_63">
     <g id="line2d_158">
      <g>
       <use style="stroke:#000000;stroke-width:0.48;" x="356.290909" xlink:href="#mc20ca9cee2" y="140.3"/>
      </g>
     </g>
    </g>
    <g id="xtick_64">
     <g id="line2d_159">
      <g>
       <use style="stroke:#000000;stroke-width:0.48;" x="367.418182" xlink:href="#mc20ca9cee2" y="140.3"/>
      </g>
     </g>
    </g>
    <g id="xtick_65">
     <g id="line2d_160">
      <g>
       <use style="stroke:#000000;stroke-width:0.48;" x="372.981818" xlink:href="#mc20ca9cee2" y="140.3"/>
      </g>
     </g>
    </g>
    <g id="xtick_66">
     <g id="line2d_161">
      <g>
       <use style="stroke:#000000;stroke-width:0.48;" x="378.545455" xlink:href="#mc20ca9cee2" y="140.3"/>
      </g>
     </g>
    </g>
    <g id="xtick_67">
     <g id="line2d_162">
      <g>
       <use style="stroke:#000000;stroke-width:0.48;" x="384.109091" xlink:href="#mc20ca9cee2" y="140.3"/>
      </g>
     </g>
    </g>
    <g id="xtick_68">
     <g id="line2d_163">
      <g>
       <use style="stroke:#000000;stroke-width:0.48;" x="395.236364" xlink:href="#mc20ca9cee2" y="140.3"/>
      </g>
     </g>
    </g>
    <g id="xtick_69">
     <g id="line2d_164">
      <g>
       <use style="stroke:#000000;stroke-width:0.48;" x="400.8" xlink:href="#mc20ca9cee2" y="140.3"/>
      </g>
     </g>
    </g>
   </g>
   <g id="matplotlib.axis_6">
    <g id="ytick_47">
     <g id="line2d_165">
      <path clip-path="url(#p6c49658361)" d="M 278.4 131.857863 
L 400.8 131.857863 
" style="fill:none;stroke:#000000;stroke-linecap:square;stroke-opacity:0.1;stroke-width:0.6;"/>
     </g>
     <g id="line2d_166">
      <g>
       <use style="stroke:#000000;stroke-width:0.6;" x="278.4" xlink:href="#m2dc6f60c68" y="131.857863"/>
      </g>
     </g>
    </g>
    <g id="ytick_48">
     <g id="line2d_167">
      <path clip-path="url(#p6c49658361)" d="M 278.4 105.922669 
L 400.8 105.922669 
" style="fill:none;stroke:#000000;stroke-linecap:square;stroke-opacity:0.1;stroke-width:0.6;"/>
     </g>
     <g id="line2d_168">
      <g>
       <use style="stroke:#000000;stroke-width:0.6;" x="278.4" xlink:href="#m2dc6f60c68" y="105.922669"/>
      </g>
     </g>
    </g>
    <g id="ytick_49">
     <g id="line2d_169">
      <path clip-path="url(#p6c49658361)" d="M 278.4 79.987475 
L 400.8 79.987475 
" style="fill:none;stroke:#000000;stroke-linecap:square;stroke-opacity:0.1;stroke-width:0.6;"/>
     </g>
     <g id="line2d_170">
      <g>
       <use style="stroke:#000000;stroke-width:0.6;" x="278.4" xlink:href="#m2dc6f60c68" y="79.987475"/>
      </g>
     </g>
    </g>
    <g id="ytick_50">
     <g id="line2d_171">
      <path clip-path="url(#p6c49658361)" d="M 278.4 54.052281 
L 400.8 54.052281 
" style="fill:none;stroke:#000000;stroke-linecap:square;stroke-opacity:0.1;stroke-width:0.6;"/>
     </g>
     <g id="line2d_172">
      <g>
       <use style="stroke:#000000;stroke-width:0.6;" x="278.4" xlink:href="#m2dc6f60c68" y="54.052281"/>
      </g>
     </g>
    </g>
    <g id="ytick_51">
     <g id="line2d_173">
      <path clip-path="url(#p6c49658361)" d="M 278.4 28.117087 
L 400.8 28.117087 
" style="fill:none;stroke:#000000;stroke-linecap:square;stroke-opacity:0.1;stroke-width:0.6;"/>
     </g>
     <g id="line2d_174">
      <g>
       <use style="stroke:#000000;stroke-width:0.6;" x="278.4" xlink:href="#m2dc6f60c68" y="28.117087"/>
      </g>
     </g>
    </g>
    <g id="ytick_52">
     <g id="line2d_175">
      <g>
       <use style="stroke:#000000;stroke-width:0.48;" x="278.4" xlink:href="#m745e9dfe2a" y="137.044901"/>
      </g>
     </g>
    </g>
    <g id="ytick_53">
     <g id="line2d_176">
      <g>
       <use style="stroke:#000000;stroke-width:0.48;" x="278.4" xlink:href="#m745e9dfe2a" y="126.670824"/>
      </g>
     </g>
    </g>
    <g id="ytick_54">
     <g id="line2d_177">
      <g>
       <use style="stroke:#000000;stroke-width:0.48;" x="278.4" xlink:href="#m745e9dfe2a" y="121.483785"/>
      </g>
     </g>
    </g>
    <g id="ytick_55">
     <g id="line2d_178">
      <g>
       <use style="stroke:#000000;stroke-width:0.48;" x="278.4" xlink:href="#m745e9dfe2a" y="116.296746"/>
      </g>
     </g>
    </g>
    <g id="ytick_56">
     <g id="line2d_179">
      <g>
       <use style="stroke:#000000;stroke-width:0.48;" x="278.4" xlink:href="#m745e9dfe2a" y="111.109708"/>
      </g>
     </g>
    </g>
    <g id="ytick_57">
     <g id="line2d_180">
      <g>
       <use style="stroke:#000000;stroke-width:0.48;" x="278.4" xlink:href="#m745e9dfe2a" y="100.73563"/>
      </g>
     </g>
    </g>
    <g id="ytick_58">
     <g id="line2d_181">
      <g>
       <use style="stroke:#000000;stroke-width:0.48;" x="278.4" xlink:href="#m745e9dfe2a" y="95.548591"/>
      </g>
     </g>
    </g>
    <g id="ytick_59">
     <g id="line2d_182">
      <g>
       <use style="stroke:#000000;stroke-width:0.48;" x="278.4" xlink:href="#m745e9dfe2a" y="90.361552"/>
      </g>
     </g>
    </g>
    <g id="ytick_60">
     <g id="line2d_183">
      <g>
       <use style="stroke:#000000;stroke-width:0.48;" x="278.4" xlink:href="#m745e9dfe2a" y="85.174514"/>
      </g>
     </g>
    </g>
    <g id="ytick_61">
     <g id="line2d_184">
      <g>
       <use style="stroke:#000000;stroke-width:0.48;" x="278.4" xlink:href="#m745e9dfe2a" y="74.800436"/>
      </g>
     </g>
    </g>
    <g id="ytick_62">
     <g id="line2d_185">
      <g>
       <use style="stroke:#000000;stroke-width:0.48;" x="278.4" xlink:href="#m745e9dfe2a" y="69.613397"/>
      </g>
     </g>
    </g>
    <g id="ytick_63">
     <g id="line2d_186">
      <g>
       <use style="stroke:#000000;stroke-width:0.48;" x="278.4" xlink:href="#m745e9dfe2a" y="64.426359"/>
      </g>
     </g>
    </g>
    <g id="ytick_64">
     <g id="line2d_187">
      <g>
       <use style="stroke:#000000;stroke-width:0.48;" x="278.4" xlink:href="#m745e9dfe2a" y="59.23932"/>
      </g>
     </g>
    </g>
    <g id="ytick_65">
     <g id="line2d_188">
      <g>
       <use style="stroke:#000000;stroke-width:0.48;" x="278.4" xlink:href="#m745e9dfe2a" y="48.865242"/>
      </g>
     </g>
    </g>
    <g id="ytick_66">
     <g id="line2d_189">
      <g>
       <use style="stroke:#000000;stroke-width:0.48;" x="278.4" xlink:href="#m745e9dfe2a" y="43.678204"/>
      </g>
     </g>
    </g>
    <g id="ytick_67">
     <g id="line2d_190">
      <g>
       <use style="stroke:#000000;stroke-width:0.48;" x="278.4" xlink:href="#m745e9dfe2a" y="38.491165"/>
      </g>
     </g>
    </g>
    <g id="ytick_68">
     <g id="line2d_191">
      <g>
       <use style="stroke:#000000;stroke-width:0.48;" x="278.4" xlink:href="#m745e9dfe2a" y="33.304126"/>
      </g>
     </g>
    </g>
    <g id="ytick_69">
     <g id="line2d_192">
      <g>
       <use style="stroke:#000000;stroke-width:0.48;" x="278.4" xlink:href="#m745e9dfe2a" y="22.930049"/>
      </g>
     </g>
    </g>
   </g>
   <g id="line2d_193">
    <path clip-path="url(#p6c49658361)" d="M 278.4 90.030413 
L 289.527273 95.012662 
L 300.654545 95.511806 
L 311.781818 84.928674 
L 322.909091 73.050322 
L 334.036364 71.147313 
L 345.163636 67.957114 
L 356.290909 54.286986 
L 367.418182 58.752045 
L 378.545455 64.954197 
L 389.672727 53.526281 
L 400.8 60.159297 
" style="fill:none;stroke:#5bbe94;stroke-linecap:square;stroke-width:5;"/>
   </g>
   <g id="line2d_194">
    <path clip-path="url(#p6c49658361)" d="M 278.4 78.958934 
L 289.527273 78.684342 
L 300.654545 69.001644 
L 311.781818 63.501488 
L 322.909091 52.851762 
L 334.036364 52.555276 
L 345.163636 43.361961 
L 356.290909 42.765459 
L 367.418182 38.609323 
L 378.545455 24.414888 
L 389.672727 30.313228 
L 400.8 17.9 
" style="fill:none;stroke:#b6e3d1;stroke-linecap:square;stroke-width:5;"/>
   </g>
   <g id="line2d_195">
    <path clip-path="url(#p6c49658361)" d="M 278.4 85.69245 
L 289.527273 79.440967 
L 300.654545 84.711709 
L 311.781818 71.528623 
L 322.909091 70.120831 
L 334.036364 81.416281 
L 345.163636 82.751468 
L 356.290909 91.310611 
L 367.418182 82.702141 
L 378.545455 70.474997 
L 389.672727 69.447072 
L 400.8 63.681252 
" style="fill:none;stroke:#91be64;stroke-linecap:square;stroke-width:5;"/>
   </g>
   <g id="line2d_196">
    <path clip-path="url(#p6c49658361)" d="M 278.4 88.025914 
L 289.527273 97.030053 
L 300.654545 95.208473 
L 311.781818 105.068693 
L 322.909091 115.279944 
L 334.036364 106.544022 
L 345.163636 116.057335 
L 356.290909 110.387088 
L 367.418182 110.433253 
L 378.545455 117.873554 
L 389.672727 120.171418 
L 400.8 125.65093 
" style="fill:none;stroke:#cce5b5;stroke-linecap:square;stroke-width:5;"/>
   </g>
   <g id="line2d_197">
    <path clip-path="url(#p6c49658361)" d="M 278.4 79.000595 
L 289.527273 71.212794 
L 300.654545 77.436484 
L 311.781818 74.76314 
L 322.909091 65.270288 
L 334.036364 66.81326 
L 345.163636 72.012887 
L 356.290909 73.050197 
L 367.418182 71.338285 
L 378.545455 81.0873 
L 389.672727 68.315848 
L 400.8 75.696209 
" style="fill:none;stroke:#e5cf6c;stroke-linecap:square;stroke-width:5;"/>
   </g>
   <g id="line2d_198">
    <path clip-path="url(#p6c49658361)" d="M 278.4 77.693603 
L 289.527273 76.491122 
L 300.654545 79.496785 
L 311.781818 90.068129 
L 322.909091 79.520264 
L 334.036364 90.002623 
L 345.163636 92.109078 
L 356.290909 102.208144 
L 367.418182 111.674825 
L 378.545455 121.587979 
L 389.672727 132.617014 
L 400.8 140.3 
" style="fill:none;stroke:#f9ebaa;stroke-linecap:square;stroke-width:5;"/>
   </g>
   <g id="line2d_199">
    <path clip-path="url(#p6c49658361)" d="M 278.4 77.228918 
L 289.527273 75.392581 
L 300.654545 79.342658 
L 311.781818 68.727315 
L 322.909091 76.946407 
L 334.036364 79.409977 
L 345.163636 80.384177 
L 356.290909 72.572161 
L 367.418182 80.013277 
L 378.545455 89.158335 
L 389.672727 82.506438 
L 400.8 81.983838 
" style="fill:none;stroke:#e87b70;stroke-linecap:square;stroke-width:5;"/>
   </g>
   <g id="line2d_200">
    <path clip-path="url(#p6c49658361)" d="M 278.4 84.03975 
L 289.527273 84.030124 
L 300.654545 91.0333 
L 311.781818 86.178567 
L 322.909091 78.64893 
L 334.036364 70.336169 
L 345.163636 56.666391 
L 356.290909 42.57423 
L 367.418182 39.283433 
L 378.545455 36.767293 
L 389.672727 37.68678 
L 400.8 47.750135 
" style="fill:none;stroke:#f2cec1;stroke-linecap:square;stroke-width:5;"/>
   </g>
   <g id="line2d_201">
    <path clip-path="url(#p6c49658361)" d="M 278.4 70.938378 
L 289.527273 61.197882 
L 300.654545 49.506828 
L 311.781818 56.258084 
L 322.909091 51.08131 
L 334.036364 44.305531 
L 345.163636 41.370888 
L 356.290909 43.86367 
L 367.418182 40.681745 
L 378.545455 44.409154 
L 389.672727 44.439656 
L 400.8 38.662412 
" style="fill:none;stroke:#cc6686;stroke-linecap:square;stroke-width:5;"/>
   </g>
   <g id="line2d_202">
    <path clip-path="url(#p6c49658361)" d="M 278.4 74.656634 
L 289.527273 61.998872 
L 300.654545 64.805326 
L 311.781818 58.418866 
L 322.909091 63.069431 
L 334.036364 65.548517 
L 345.163636 75.941948 
L 356.290909 79.800786 
L 367.418182 82.914474 
L 378.545455 74.363496 
L 389.672727 78.52848 
L 400.8 66.295068 
" style="fill:none;stroke:#e5b5c5;stroke-linecap:square;stroke-width:5;"/>
   </g>
   <g id="line2d_203">
    <path clip-path="url(#p6c49658361)" d="M 278.4 81.147347 
L 289.527273 84.181565 
L 300.654545 81.663313 
L 311.781818 74.977343 
L 322.909091 73.729752 
L 334.036364 62.743664 
L 345.163636 71.066823 
L 356.290909 68.832058 
L 367.418182 69.465778 
L 378.545455 56.592643 
L 389.672727 61.9607 
L 400.8 65.947642 
" style="fill:none;stroke:#5884b3;stroke-linecap:square;stroke-width:5;"/>
   </g>
   <g id="line2d_204">
    <path clip-path="url(#p6c49658361)" d="M 278.4 82.887404 
L 289.527273 83.84291 
L 300.654545 71.272369 
L 311.781818 72.057815 
L 322.909091 62.127928 
L 334.036364 50.065951 
L 345.163636 44.616716 
L 356.290909 53.437896 
L 367.418182 44.830908 
L 378.545455 51.92493 
L 389.672727 42.297389 
L 400.8 36.04653 
" style="fill:none;stroke:#b6cee5;stroke-linecap:square;stroke-width:5;"/>
   </g>
   <g id="patch_13">
    <path d="M 278.4 140.3 
L 278.4 17.9 
" style="fill:none;stroke:#000000;stroke-linecap:square;stroke-linejoin:miter;stroke-width:0.6;"/>
   </g>
   <g id="patch_14">
    <path d="M 400.8 140.3 
L 400.8 17.9 
" style="fill:none;stroke:#000000;stroke-linecap:square;stroke-linejoin:miter;stroke-width:0.6;"/>
   </g>
   <g id="patch_15">
    <path d="M 278.4 140.3 
L 400.8 140.3 
" style="fill:none;stroke:#000000;stroke-linecap:square;stroke-linejoin:miter;stroke-width:0.6;"/>
   </g>
   <g id="patch_16">
    <path d="M 278.4 17.9 
L 400.8 17.9 
" style="fill:none;stroke:#000000;stroke-linecap:square;stroke-linejoin:miter;stroke-width:0.6;"/>
   </g>
  </g>
  <g id="text_1">
   <!-- Local and global color cycles demo -->
   <defs>
    <path d="M 6.90625 71.40625 
L 6.90625 0 
L 57.40625 0 
L 57.40625 13.203125 
L 22.59375 13.203125 
L 22.59375 71.40625 
z
" id="HelveticaNeue-Bold-76"/>
    <path d="M 18 25.796875 
Q 18 28.90625 18.59375 31.90625 
Q 19.203125 34.90625 20.640625 37.203125 
Q 22.09375 39.5 24.5 40.953125 
Q 26.90625 42.40625 30.5 42.40625 
Q 34.09375 42.40625 36.546875 40.953125 
Q 39 39.5 40.453125 37.203125 
Q 41.90625 34.90625 42.5 31.90625 
Q 43.09375 28.90625 43.09375 25.796875 
Q 43.09375 22.703125 42.5 19.75 
Q 41.90625 16.796875 40.453125 14.4375 
Q 39 12.09375 36.546875 10.6875 
Q 34.09375 9.296875 30.5 9.296875 
Q 26.90625 9.296875 24.5 10.6875 
Q 22.09375 12.09375 20.640625 14.4375 
Q 19.203125 16.796875 18.59375 19.75 
Q 18 22.703125 18 25.796875 
z
M 3.796875 25.796875 
Q 3.796875 19.59375 5.6875 14.59375 
Q 7.59375 9.59375 11.09375 6.046875 
Q 14.59375 2.5 19.5 0.59375 
Q 24.40625 -1.296875 30.5 -1.296875 
Q 36.59375 -1.296875 41.546875 0.59375 
Q 46.5 2.5 50 6.046875 
Q 53.5 9.59375 55.390625 14.59375 
Q 57.296875 19.59375 57.296875 25.796875 
Q 57.296875 32 55.390625 37.046875 
Q 53.5 42.09375 50 45.640625 
Q 46.5 49.203125 41.546875 51.140625 
Q 36.59375 53.09375 30.5 53.09375 
Q 24.40625 53.09375 19.5 51.140625 
Q 14.59375 49.203125 11.09375 45.640625 
Q 7.59375 42.09375 5.6875 37.046875 
Q 3.796875 32 3.796875 25.796875 
z
" id="HelveticaNeue-Bold-111"/>
    <path d="M 40.59375 33.5 
L 54.5 33.5 
Q 54.203125 38.5 52.09375 42.140625 
Q 50 45.796875 46.640625 48.25 
Q 43.296875 50.703125 39.046875 51.890625 
Q 34.796875 53.09375 30.203125 53.09375 
Q 23.90625 53.09375 19 51 
Q 14.09375 48.90625 10.6875 45.15625 
Q 7.296875 41.40625 5.546875 36.25 
Q 3.796875 31.09375 3.796875 25.09375 
Q 3.796875 19.296875 5.6875 14.4375 
Q 7.59375 9.59375 11 6.09375 
Q 14.40625 2.59375 19.25 0.640625 
Q 24.09375 -1.296875 29.90625 -1.296875 
Q 40.203125 -1.296875 46.796875 4.09375 
Q 53.40625 9.5 54.796875 19.796875 
L 41.09375 19.796875 
Q 40.40625 15 37.65625 12.140625 
Q 34.90625 9.296875 29.796875 9.296875 
Q 26.5 9.296875 24.203125 10.796875 
Q 21.90625 12.296875 20.546875 14.640625 
Q 19.203125 17 18.59375 19.890625 
Q 18 22.796875 18 25.59375 
Q 18 28.5 18.59375 31.453125 
Q 19.203125 34.40625 20.640625 36.84375 
Q 22.09375 39.296875 24.390625 40.84375 
Q 26.703125 42.40625 30.09375 42.40625 
Q 39.203125 42.40625 40.59375 33.5 
z
" id="HelveticaNeue-Bold-99"/>
    <path d="M 4.796875 35.796875 
Q 5.09375 40.796875 7.296875 44.09375 
Q 9.5 47.40625 12.890625 49.40625 
Q 16.296875 51.40625 20.546875 52.25 
Q 24.796875 53.09375 29.09375 53.09375 
Q 33 53.09375 37 52.546875 
Q 41 52 44.296875 50.390625 
Q 47.59375 48.796875 49.6875 45.9375 
Q 51.796875 43.09375 51.796875 38.40625 
L 51.796875 11.5 
Q 51.796875 8 52.1875 4.796875 
Q 52.59375 1.59375 53.59375 0 
L 39.203125 0 
Q 38.796875 1.203125 38.546875 2.453125 
Q 38.296875 3.703125 38.203125 5 
Q 34.796875 1.5 30.1875 0.09375 
Q 25.59375 -1.296875 20.796875 -1.296875 
Q 17.09375 -1.296875 13.890625 -0.390625 
Q 10.703125 0.5 8.296875 2.390625 
Q 5.90625 4.296875 4.546875 7.1875 
Q 3.203125 10.09375 3.203125 14.09375 
Q 3.203125 18.5 4.75 21.34375 
Q 6.296875 24.203125 8.75 25.890625 
Q 11.203125 27.59375 14.34375 28.4375 
Q 17.5 29.296875 20.703125 29.796875 
Q 23.90625 30.296875 27 30.59375 
Q 30.09375 30.90625 32.5 31.5 
Q 34.90625 32.09375 36.296875 33.25 
Q 37.703125 34.40625 37.59375 36.59375 
Q 37.59375 38.90625 36.84375 40.25 
Q 36.09375 41.59375 34.84375 42.34375 
Q 33.59375 43.09375 31.9375 43.34375 
Q 30.296875 43.59375 28.40625 43.59375 
Q 24.203125 43.59375 21.796875 41.796875 
Q 19.40625 40 19 35.796875 
z
M 37.59375 25.296875 
Q 36.703125 24.5 35.34375 24.046875 
Q 34 23.59375 32.453125 23.296875 
Q 30.90625 23 29.203125 22.796875 
Q 27.5 22.59375 25.796875 22.296875 
Q 24.203125 22 22.640625 21.5 
Q 21.09375 21 19.9375 20.140625 
Q 18.796875 19.296875 18.09375 18 
Q 17.40625 16.703125 17.40625 14.703125 
Q 17.40625 12.796875 18.09375 11.5 
Q 18.796875 10.203125 20 9.453125 
Q 21.203125 8.703125 22.796875 8.390625 
Q 24.40625 8.09375 26.09375 8.09375 
Q 30.296875 8.09375 32.59375 9.5 
Q 34.90625 10.90625 36 12.84375 
Q 37.09375 14.796875 37.34375 16.796875 
Q 37.59375 18.796875 37.59375 20 
z
" id="HelveticaNeue-Bold-97"/>
    <path d="M 5.796875 71.40625 
L 5.796875 0 
L 20 0 
L 20 71.40625 
z
" id="HelveticaNeue-Bold-108"/>
    <path id="HelveticaNeue-Bold-32"/>
    <path d="M 5.40625 51.703125 
L 5.40625 0 
L 19.59375 0 
L 19.59375 27.09375 
Q 19.59375 35 22.1875 38.453125 
Q 24.796875 41.90625 30.59375 41.90625 
Q 35.703125 41.90625 37.703125 38.75 
Q 39.703125 35.59375 39.703125 29.203125 
L 39.703125 0 
L 53.90625 0 
L 53.90625 31.796875 
Q 53.90625 36.59375 53.046875 40.546875 
Q 52.203125 44.5 50.09375 47.25 
Q 48 50 44.34375 51.546875 
Q 40.703125 53.09375 35 53.09375 
Q 30.5 53.09375 26.203125 51.046875 
Q 21.90625 49 19.203125 44.5 
L 18.90625 44.5 
L 18.90625 51.703125 
z
" id="HelveticaNeue-Bold-110"/>
    <path d="M 42.09375 26 
Q 42.09375 22.796875 41.5 19.796875 
Q 40.90625 16.796875 39.5 14.4375 
Q 38.09375 12.09375 35.75 10.6875 
Q 33.40625 9.296875 29.90625 9.296875 
Q 26.59375 9.296875 24.25 10.75 
Q 21.90625 12.203125 20.34375 14.546875 
Q 18.796875 16.90625 18.09375 19.90625 
Q 17.40625 22.90625 17.40625 25.90625 
Q 17.40625 29.09375 18.046875 32.046875 
Q 18.703125 35 20.140625 37.296875 
Q 21.59375 39.59375 24 41 
Q 26.40625 42.40625 29.90625 42.40625 
Q 33.40625 42.40625 35.703125 41 
Q 38 39.59375 39.453125 37.34375 
Q 40.90625 35.09375 41.5 32.140625 
Q 42.09375 29.203125 42.09375 26 
z
M 42.296875 6.59375 
L 42.296875 0 
L 55.796875 0 
L 55.796875 71.40625 
L 41.59375 71.40625 
L 41.59375 45.40625 
L 41.40625 45.40625 
Q 39 49.203125 34.84375 51.140625 
Q 30.703125 53.09375 26.09375 53.09375 
Q 20.40625 53.09375 16.09375 50.84375 
Q 11.796875 48.59375 8.9375 44.890625 
Q 6.09375 41.203125 4.640625 36.34375 
Q 3.203125 31.5 3.203125 26.296875 
Q 3.203125 20.90625 4.640625 15.90625 
Q 6.09375 10.90625 8.9375 7.046875 
Q 11.796875 3.203125 16.1875 0.953125 
Q 20.59375 -1.296875 26.40625 -1.296875 
Q 31.5 -1.296875 35.546875 0.546875 
Q 39.59375 2.40625 42.09375 6.59375 
z
" id="HelveticaNeue-Bold-100"/>
    <path d="M 29.5 12.203125 
Q 26.203125 12.203125 24 13.59375 
Q 21.796875 15 20.4375 17.203125 
Q 19.09375 19.40625 18.546875 22.15625 
Q 18 24.90625 18 27.703125 
Q 18 30.59375 18.640625 33.25 
Q 19.296875 35.90625 20.75 37.953125 
Q 22.203125 40 24.34375 41.203125 
Q 26.5 42.40625 29.5 42.40625 
Q 33 42.40625 35.296875 41.09375 
Q 37.59375 39.796875 39 37.59375 
Q 40.40625 35.40625 41 32.546875 
Q 41.59375 29.703125 41.59375 26.5 
Q 41.59375 23.703125 40.84375 21.140625 
Q 40.09375 18.59375 38.59375 16.59375 
Q 37.09375 14.59375 34.796875 13.390625 
Q 32.5 12.203125 29.5 12.203125 
z
M 55.09375 3.296875 
L 55.09375 51.703125 
L 41.59375 51.703125 
L 41.59375 44.796875 
L 41.40625 44.796875 
Q 38.796875 49.296875 34.9375 51.1875 
Q 31.09375 53.09375 26 53.09375 
Q 20.59375 53.09375 16.4375 51 
Q 12.296875 48.90625 9.5 45.34375 
Q 6.703125 41.796875 5.25 37.140625 
Q 3.796875 32.5 3.796875 27.5 
Q 3.796875 22.203125 5.046875 17.453125 
Q 6.296875 12.703125 9 9.140625 
Q 11.703125 5.59375 15.890625 3.546875 
Q 20.09375 1.5 25.90625 1.5 
Q 30.59375 1.5 34.84375 3.453125 
Q 39.09375 5.40625 41.40625 9.5 
L 41.59375 9.5 
L 41.59375 2.703125 
Q 41.703125 -2.796875 38.953125 -6.390625 
Q 36.203125 -10 30.203125 -10 
Q 26.40625 -10 23.5 -8.453125 
Q 20.59375 -6.90625 19.59375 -2.90625 
L 5.5 -2.90625 
Q 5.796875 -7.296875 7.9375 -10.4375 
Q 10.09375 -13.59375 13.34375 -15.59375 
Q 16.59375 -17.59375 20.546875 -18.546875 
Q 24.5 -19.5 28.296875 -19.5 
Q 37.203125 -19.5 42.5 -17.09375 
Q 47.796875 -14.703125 50.59375 -11.25 
Q 53.40625 -7.796875 54.25 -3.796875 
Q 55.09375 0.203125 55.09375 3.296875 
z
" id="HelveticaNeue-Bold-103"/>
    <path d="M 43.296875 25.796875 
Q 43.296875 22.59375 42.59375 19.59375 
Q 41.90625 16.59375 40.40625 14.296875 
Q 38.90625 12 36.65625 10.640625 
Q 34.40625 9.296875 31.203125 9.296875 
Q 28.09375 9.296875 25.796875 10.640625 
Q 23.5 12 22 14.296875 
Q 20.5 16.59375 19.796875 19.59375 
Q 19.09375 22.59375 19.09375 25.796875 
Q 19.09375 29.09375 19.796875 32.09375 
Q 20.5 35.09375 22 37.390625 
Q 23.5 39.703125 25.796875 41.046875 
Q 28.09375 42.40625 31.203125 42.40625 
Q 34.40625 42.40625 36.65625 41.046875 
Q 38.90625 39.703125 40.40625 37.390625 
Q 41.90625 35.09375 42.59375 32.09375 
Q 43.296875 29.09375 43.296875 25.796875 
z
M 5.40625 71.40625 
L 5.40625 0 
L 18.90625 0 
L 18.90625 6.59375 
L 19.09375 6.59375 
Q 21.40625 2.296875 25.90625 0.5 
Q 30.40625 -1.296875 36.09375 -1.296875 
Q 40 -1.296875 43.796875 0.296875 
Q 47.59375 1.90625 50.640625 5.203125 
Q 53.703125 8.5 55.59375 13.640625 
Q 57.5 18.796875 57.5 25.90625 
Q 57.5 33 55.59375 38.140625 
Q 53.703125 43.296875 50.640625 46.59375 
Q 47.59375 49.90625 43.796875 51.5 
Q 40 53.09375 36.09375 53.09375 
Q 31.296875 53.09375 26.84375 51.25 
Q 22.40625 49.40625 19.796875 45.40625 
L 19.59375 45.40625 
L 19.59375 71.40625 
z
" id="HelveticaNeue-Bold-98"/>
    <path d="M 5.40625 51.703125 
L 5.40625 0 
L 19.59375 0 
L 19.59375 23.296875 
Q 19.59375 26.796875 20.296875 29.796875 
Q 21 32.796875 22.640625 35.046875 
Q 24.296875 37.296875 27 38.59375 
Q 29.703125 39.90625 33.59375 39.90625 
Q 34.90625 39.90625 36.296875 39.75 
Q 37.703125 39.59375 38.703125 39.40625 
L 38.703125 52.59375 
Q 37 53.09375 35.59375 53.09375 
Q 32.90625 53.09375 30.40625 52.296875 
Q 27.90625 51.5 25.703125 50.046875 
Q 23.5 48.59375 21.796875 46.546875 
Q 20.09375 44.5 19.09375 42.09375 
L 18.90625 42.09375 
L 18.90625 51.703125 
z
" id="HelveticaNeue-Bold-114"/>
    <path d="M 30.90625 -6.40625 
L 52.5 51.703125 
L 37.796875 51.703125 
L 26.5 16.296875 
L 26.296875 16.296875 
L 14.59375 51.703125 
L -0.5 51.703125 
L 17.59375 3.203125 
Q 18.203125 1.703125 18.203125 0 
Q 18.203125 -2.296875 16.84375 -4.1875 
Q 15.5 -6.09375 12.703125 -6.40625 
Q 10.59375 -6.5 8.5 -6.296875 
Q 6.40625 -6.09375 4.40625 -5.90625 
L 4.40625 -17.59375 
Q 6.59375 -17.796875 8.75 -17.9375 
Q 10.90625 -18.09375 13.09375 -18.09375 
Q 20.40625 -18.09375 24.5 -15.390625 
Q 28.59375 -12.703125 30.90625 -6.40625 
z
" id="HelveticaNeue-Bold-121"/>
    <path d="M 40.203125 31.40625 
L 17.09375 31.40625 
Q 17.203125 32.90625 17.75 34.796875 
Q 18.296875 36.703125 19.640625 38.390625 
Q 21 40.09375 23.25 41.25 
Q 25.5 42.40625 28.90625 42.40625 
Q 34.09375 42.40625 36.640625 39.59375 
Q 39.203125 36.796875 40.203125 31.40625 
z
M 17.09375 22.40625 
L 54.40625 22.40625 
Q 54.796875 28.40625 53.390625 33.90625 
Q 52 39.40625 48.84375 43.703125 
Q 45.703125 48 40.796875 50.546875 
Q 35.90625 53.09375 29.296875 53.09375 
Q 23.40625 53.09375 18.546875 51 
Q 13.703125 48.90625 10.203125 45.25 
Q 6.703125 41.59375 4.796875 36.59375 
Q 2.90625 31.59375 2.90625 25.796875 
Q 2.90625 19.796875 4.75 14.796875 
Q 6.59375 9.796875 10 6.1875 
Q 13.40625 2.59375 18.296875 0.640625 
Q 23.203125 -1.296875 29.296875 -1.296875 
Q 38.09375 -1.296875 44.296875 2.703125 
Q 50.5 6.703125 53.5 16 
L 41 16 
Q 40.296875 13.59375 37.1875 11.4375 
Q 34.09375 9.296875 29.796875 9.296875 
Q 23.796875 9.296875 20.59375 12.390625 
Q 17.40625 15.5 17.09375 22.40625 
z
" id="HelveticaNeue-Bold-101"/>
    <path d="M 16.40625 16.796875 
L 2.90625 16.796875 
Q 3.09375 11.59375 5.25 8.140625 
Q 7.40625 4.703125 10.75 2.59375 
Q 14.09375 0.5 18.390625 -0.390625 
Q 22.703125 -1.296875 27.203125 -1.296875 
Q 31.59375 -1.296875 35.84375 -0.4375 
Q 40.09375 0.40625 43.390625 2.5 
Q 46.703125 4.59375 48.75 8.046875 
Q 50.796875 11.5 50.796875 16.59375 
Q 50.796875 20.203125 49.390625 22.640625 
Q 48 25.09375 45.703125 26.75 
Q 43.40625 28.40625 40.453125 29.40625 
Q 37.5 30.40625 34.40625 31.09375 
Q 31.40625 31.796875 28.5 32.390625 
Q 25.59375 33 23.34375 33.75 
Q 21.09375 34.5 19.6875 35.703125 
Q 18.296875 36.90625 18.296875 38.796875 
Q 18.296875 40.40625 19.09375 41.34375 
Q 19.90625 42.296875 21.046875 42.796875 
Q 22.203125 43.296875 23.59375 43.4375 
Q 25 43.59375 26.203125 43.59375 
Q 30 43.59375 32.796875 42.140625 
Q 35.59375 40.703125 35.90625 36.59375 
L 49.40625 36.59375 
Q 49 41.40625 46.953125 44.546875 
Q 44.90625 47.703125 41.796875 49.59375 
Q 38.703125 51.5 34.75 52.296875 
Q 30.796875 53.09375 26.59375 53.09375 
Q 22.40625 53.09375 18.40625 52.34375 
Q 14.40625 51.59375 11.203125 49.75 
Q 8 47.90625 6.046875 44.703125 
Q 4.09375 41.5 4.09375 36.5 
Q 4.09375 33.09375 5.5 30.75 
Q 6.90625 28.40625 9.203125 26.84375 
Q 11.5 25.296875 14.453125 24.34375 
Q 17.40625 23.40625 20.5 22.703125 
Q 28.09375 21.09375 32.34375 19.5 
Q 36.59375 17.90625 36.59375 14.703125 
Q 36.59375 12.796875 35.6875 11.546875 
Q 34.796875 10.296875 33.4375 9.546875 
Q 32.09375 8.796875 30.4375 8.4375 
Q 28.796875 8.09375 27.296875 8.09375 
Q 25.203125 8.09375 23.25 8.59375 
Q 21.296875 9.09375 19.796875 10.140625 
Q 18.296875 11.203125 17.34375 12.84375 
Q 16.40625 14.5 16.40625 16.796875 
z
" id="HelveticaNeue-Bold-115"/>
    <path d="M 5.796875 51.703125 
L 5.796875 0 
L 20 0 
L 20 30 
Q 20 33.796875 21.09375 36.140625 
Q 22.203125 38.5 23.75 39.75 
Q 25.296875 41 26.9375 41.453125 
Q 28.59375 41.90625 29.59375 41.90625 
Q 33 41.90625 34.75 40.75 
Q 36.5 39.59375 37.25 37.6875 
Q 38 35.796875 38.09375 33.546875 
Q 38.203125 31.296875 38.203125 29 
L 38.203125 0 
L 52.40625 0 
L 52.40625 28.796875 
Q 52.40625 31.203125 52.75 33.546875 
Q 53.09375 35.90625 54.140625 37.75 
Q 55.203125 39.59375 57.046875 40.75 
Q 58.90625 41.90625 61.90625 41.90625 
Q 64.90625 41.90625 66.65625 40.90625 
Q 68.40625 39.90625 69.296875 38.203125 
Q 70.203125 36.5 70.390625 34.203125 
Q 70.59375 31.90625 70.59375 29.296875 
L 70.59375 0 
L 84.796875 0 
L 84.796875 34.59375 
Q 84.796875 39.59375 83.390625 43.140625 
Q 82 46.703125 79.5 48.890625 
Q 77 51.09375 73.5 52.09375 
Q 70 53.09375 65.90625 53.09375 
Q 60.5 53.09375 56.546875 50.5 
Q 52.59375 47.90625 50.296875 44.5 
Q 48.203125 49.296875 44.140625 51.1875 
Q 40.09375 53.09375 35.203125 53.09375 
Q 30.09375 53.09375 26.140625 50.890625 
Q 22.203125 48.703125 19.40625 44.703125 
L 19.203125 44.703125 
L 19.203125 51.703125 
z
" id="HelveticaNeue-Bold-109"/>
   </defs>
   <g transform="translate(130.032266 13.445)scale(0.09 -0.09)">
    <use xlink:href="#HelveticaNeue-Bold-76"/>
    <use x="59.299988" xlink:href="#HelveticaNeue-Bold-111"/>
    <use x="120.399979" xlink:href="#HelveticaNeue-Bold-99"/>
    <use x="177.799973" xlink:href="#HelveticaNeue-Bold-97"/>
    <use x="235.199966" xlink:href="#HelveticaNeue-Bold-108"/>
    <use x="260.999954" xlink:href="#HelveticaNeue-Bold-32"/>
    <use x="288.799942" xlink:href="#HelveticaNeue-Bold-97"/>
    <use x="346.199936" xlink:href="#HelveticaNeue-Bold-110"/>
    <use x="405.499924" xlink:href="#HelveticaNeue-Bold-100"/>
    <use x="466.599915" xlink:href="#HelveticaNeue-Bold-32"/>
    <use x="494.399902" xlink:href="#HelveticaNeue-Bold-103"/>
    <use x="555.499893" xlink:href="#HelveticaNeue-Bold-108"/>
    <use x="581.299881" xlink:href="#HelveticaNeue-Bold-111"/>
    <use x="642.399872" xlink:href="#HelveticaNeue-Bold-98"/>
    <use x="703.499863" xlink:href="#HelveticaNeue-Bold-97"/>
    <use x="760.899857" xlink:href="#HelveticaNeue-Bold-108"/>
    <use x="786.699844" xlink:href="#HelveticaNeue-Bold-32"/>
    <use x="814.499832" xlink:href="#HelveticaNeue-Bold-99"/>
    <use x="871.899826" xlink:href="#HelveticaNeue-Bold-111"/>
    <use x="932.999817" xlink:href="#HelveticaNeue-Bold-108"/>
    <use x="958.799805" xlink:href="#HelveticaNeue-Bold-111"/>
    <use x="1019.899796" xlink:href="#HelveticaNeue-Bold-114"/>
    <use x="1058.799789" xlink:href="#HelveticaNeue-Bold-32"/>
    <use x="1086.599777" xlink:href="#HelveticaNeue-Bold-99"/>
    <use x="1143.999771" xlink:href="#HelveticaNeue-Bold-121"/>
    <use x="1195.899765" xlink:href="#HelveticaNeue-Bold-99"/>
    <use x="1253.299759" xlink:href="#HelveticaNeue-Bold-108"/>
    <use x="1279.099747" xlink:href="#HelveticaNeue-Bold-101"/>
    <use x="1336.499741" xlink:href="#HelveticaNeue-Bold-115"/>
    <use x="1390.199738" xlink:href="#HelveticaNeue-Bold-32"/>
    <use x="1417.999725" xlink:href="#HelveticaNeue-Bold-100"/>
    <use x="1479.099716" xlink:href="#HelveticaNeue-Bold-101"/>
    <use x="1536.49971" xlink:href="#HelveticaNeue-Bold-109"/>
    <use x="1627.099701" xlink:href="#HelveticaNeue-Bold-111"/>
   </g>
  </g>
 </g>
 <defs>
  <clipPath id="p528b3135d8">
   <rect height="122.4" width="122.4" x="11.2" y="17.9"/>
  </clipPath>
  <clipPath id="p28415560aa">
   <rect height="122.4" width="122.4" x="144.8" y="17.9"/>
  </clipPath>
  <clipPath id="p6c49658361">
   <rect height="122.4" width="122.4" x="278.4" y="17.9"/>
  </clipPath>
 </defs>
</svg>
