<?xml version="1.0" encoding="utf-8" standalone="no"?>
<!DOCTYPE svg PUBLIC "-//W3C//DTD SVG 1.1//EN"
  "http://www.w3.org/Graphics/SVG/1.1/DTD/svg11.dtd">
<!-- Created with matplotlib (https://matplotlib.org/) -->
<svg height="209.5pt" version="1.1" viewBox="0 0 432 209.5" width="432pt" xmlns="http://www.w3.org/2000/svg" xmlns:xlink="http://www.w3.org/1999/xlink">
 <defs>
  <style type="text/css">
*{stroke-linecap:butt;stroke-linejoin:round;}
  </style>
 </defs>
 <g id="figure_1">
  <g id="patch_1">
   <path d="M 0 209.5 
L 432 209.5 
L 432 0 
L 0 0 
z
" style="fill:#dee2e6;"/>
  </g>
  <g id="axes_1">
   <g id="patch_2">
    <path d="M 36 177.3 
L 195.4 177.3 
L 195.4 17.9 
L 36 17.9 
z
" style="fill:url(#hf2f0d75546);"/>
   </g>
   <g id="matplotlib.axis_1">
    <g id="xtick_1">
     <g id="line2d_1">
      <path clip-path="url(#pcd1821b1fb)" d="M 36 177.3 
L 36 17.9 
" style="fill:none;stroke:#000000;stroke-linecap:square;stroke-opacity:0.1;stroke-width:0.6;"/>
     </g>
     <g id="line2d_2">
      <defs>
       <path d="M 0 0 
L 0 4 
" id="m4489c0c2c2" style="stroke:#000000;stroke-width:1.5;"/>
      </defs>
      <g>
       <use style="stroke:#000000;stroke-width:1.5;" x="36" xlink:href="#m4489c0c2c2" y="177.3"/>
      </g>
     </g>
     <g id="text_1">
      <!-- 0 -->
      <defs>
       <path d="M 31.78125 66.40625 
Q 24.171875 66.40625 20.328125 58.90625 
Q 16.5 51.421875 16.5 36.375 
Q 16.5 21.390625 20.328125 13.890625 
Q 24.171875 6.390625 31.78125 6.390625 
Q 39.453125 6.390625 43.28125 13.890625 
Q 47.125 21.390625 47.125 36.375 
Q 47.125 51.421875 43.28125 58.90625 
Q 39.453125 66.40625 31.78125 66.40625 
z
M 31.78125 74.21875 
Q 44.046875 74.21875 50.515625 64.515625 
Q 56.984375 54.828125 56.984375 36.375 
Q 56.984375 17.96875 50.515625 8.265625 
Q 44.046875 -1.421875 31.78125 -1.421875 
Q 19.53125 -1.421875 13.0625 8.265625 
Q 6.59375 17.96875 6.59375 36.375 
Q 6.59375 54.828125 13.0625 64.515625 
Q 19.53125 74.21875 31.78125 74.21875 
z
" id="DejaVuSans-48"/>
      </defs>
      <g transform="translate(33.455 189.37875)scale(0.08 -0.08)">
       <use xlink:href="#DejaVuSans-48"/>
      </g>
     </g>
    </g>
    <g id="xtick_2">
     <g id="line2d_3">
      <path clip-path="url(#pcd1821b1fb)" d="M 68.20202 177.3 
L 68.20202 17.9 
" style="fill:none;stroke:#000000;stroke-linecap:square;stroke-opacity:0.1;stroke-width:0.6;"/>
     </g>
     <g id="line2d_4">
      <g>
       <use style="stroke:#000000;stroke-width:1.5;" x="68.20202" xlink:href="#m4489c0c2c2" y="177.3"/>
      </g>
     </g>
     <g id="text_2">
      <!-- 20 -->
      <defs>
       <path d="M 19.1875 8.296875 
L 53.609375 8.296875 
L 53.609375 0 
L 7.328125 0 
L 7.328125 8.296875 
Q 12.9375 14.109375 22.625 23.890625 
Q 32.328125 33.6875 34.8125 36.53125 
Q 39.546875 41.84375 41.421875 45.53125 
Q 43.3125 49.21875 43.3125 52.78125 
Q 43.3125 58.59375 39.234375 62.25 
Q 35.15625 65.921875 28.609375 65.921875 
Q 23.96875 65.921875 18.8125 64.3125 
Q 13.671875 62.703125 7.8125 59.421875 
L 7.8125 69.390625 
Q 13.765625 71.78125 18.9375 73 
Q 24.125 74.21875 28.421875 74.21875 
Q 39.75 74.21875 46.484375 68.546875 
Q 53.21875 62.890625 53.21875 53.421875 
Q 53.21875 48.921875 51.53125 44.890625 
Q 49.859375 40.875 45.40625 35.40625 
Q 44.1875 33.984375 37.640625 27.21875 
Q 31.109375 20.453125 19.1875 8.296875 
z
" id="DejaVuSans-50"/>
      </defs>
      <g transform="translate(63.11202 189.37875)scale(0.08 -0.08)">
       <use xlink:href="#DejaVuSans-50"/>
       <use x="63.623047" xlink:href="#DejaVuSans-48"/>
      </g>
     </g>
    </g>
    <g id="xtick_3">
     <g id="line2d_5">
      <path clip-path="url(#pcd1821b1fb)" d="M 100.40404 177.3 
L 100.40404 17.9 
" style="fill:none;stroke:#000000;stroke-linecap:square;stroke-opacity:0.1;stroke-width:0.6;"/>
     </g>
     <g id="line2d_6">
      <g>
       <use style="stroke:#000000;stroke-width:1.5;" x="100.40404" xlink:href="#m4489c0c2c2" y="177.3"/>
      </g>
     </g>
     <g id="text_3">
      <!-- 40 -->
      <defs>
       <path d="M 37.796875 64.3125 
L 12.890625 25.390625 
L 37.796875 25.390625 
z
M 35.203125 72.90625 
L 47.609375 72.90625 
L 47.609375 25.390625 
L 58.015625 25.390625 
L 58.015625 17.1875 
L 47.609375 17.1875 
L 47.609375 0 
L 37.796875 0 
L 37.796875 17.1875 
L 4.890625 17.1875 
L 4.890625 26.703125 
z
" id="DejaVuSans-52"/>
      </defs>
      <g transform="translate(95.31404 189.37875)scale(0.08 -0.08)">
       <use xlink:href="#DejaVuSans-52"/>
       <use x="63.623047" xlink:href="#DejaVuSans-48"/>
      </g>
     </g>
    </g>
    <g id="xtick_4">
     <g id="line2d_7">
      <path clip-path="url(#pcd1821b1fb)" d="M 132.606061 177.3 
L 132.606061 17.9 
" style="fill:none;stroke:#000000;stroke-linecap:square;stroke-opacity:0.1;stroke-width:0.6;"/>
     </g>
     <g id="line2d_8">
      <g>
       <use style="stroke:#000000;stroke-width:1.5;" x="132.606061" xlink:href="#m4489c0c2c2" y="177.3"/>
      </g>
     </g>
     <g id="text_4">
      <!-- 60 -->
      <defs>
       <path d="M 33.015625 40.375 
Q 26.375 40.375 22.484375 35.828125 
Q 18.609375 31.296875 18.609375 23.390625 
Q 18.609375 15.53125 22.484375 10.953125 
Q 26.375 6.390625 33.015625 6.390625 
Q 39.65625 6.390625 43.53125 10.953125 
Q 47.40625 15.53125 47.40625 23.390625 
Q 47.40625 31.296875 43.53125 35.828125 
Q 39.65625 40.375 33.015625 40.375 
z
M 52.59375 71.296875 
L 52.59375 62.3125 
Q 48.875 64.0625 45.09375 64.984375 
Q 41.3125 65.921875 37.59375 65.921875 
Q 27.828125 65.921875 22.671875 59.328125 
Q 17.53125 52.734375 16.796875 39.40625 
Q 19.671875 43.65625 24.015625 45.921875 
Q 28.375 48.1875 33.59375 48.1875 
Q 44.578125 48.1875 50.953125 41.515625 
Q 57.328125 34.859375 57.328125 23.390625 
Q 57.328125 12.15625 50.6875 5.359375 
Q 44.046875 -1.421875 33.015625 -1.421875 
Q 20.359375 -1.421875 13.671875 8.265625 
Q 6.984375 17.96875 6.984375 36.375 
Q 6.984375 53.65625 15.1875 63.9375 
Q 23.390625 74.21875 37.203125 74.21875 
Q 40.921875 74.21875 44.703125 73.484375 
Q 48.484375 72.75 52.59375 71.296875 
z
" id="DejaVuSans-54"/>
      </defs>
      <g transform="translate(127.516061 189.37875)scale(0.08 -0.08)">
       <use xlink:href="#DejaVuSans-54"/>
       <use x="63.623047" xlink:href="#DejaVuSans-48"/>
      </g>
     </g>
    </g>
    <g id="xtick_5">
     <g id="line2d_9">
      <path clip-path="url(#pcd1821b1fb)" d="M 164.808081 177.3 
L 164.808081 17.9 
" style="fill:none;stroke:#000000;stroke-linecap:square;stroke-opacity:0.1;stroke-width:0.6;"/>
     </g>
     <g id="line2d_10">
      <g>
       <use style="stroke:#000000;stroke-width:1.5;" x="164.808081" xlink:href="#m4489c0c2c2" y="177.3"/>
      </g>
     </g>
     <g id="text_5">
      <!-- 80 -->
      <defs>
       <path d="M 31.78125 34.625 
Q 24.75 34.625 20.71875 30.859375 
Q 16.703125 27.09375 16.703125 20.515625 
Q 16.703125 13.921875 20.71875 10.15625 
Q 24.75 6.390625 31.78125 6.390625 
Q 38.8125 6.390625 42.859375 10.171875 
Q 46.921875 13.96875 46.921875 20.515625 
Q 46.921875 27.09375 42.890625 30.859375 
Q 38.875 34.625 31.78125 34.625 
z
M 21.921875 38.8125 
Q 15.578125 40.375 12.03125 44.71875 
Q 8.5 49.078125 8.5 55.328125 
Q 8.5 64.0625 14.71875 69.140625 
Q 20.953125 74.21875 31.78125 74.21875 
Q 42.671875 74.21875 48.875 69.140625 
Q 55.078125 64.0625 55.078125 55.328125 
Q 55.078125 49.078125 51.53125 44.71875 
Q 48 40.375 41.703125 38.8125 
Q 48.828125 37.15625 52.796875 32.3125 
Q 56.78125 27.484375 56.78125 20.515625 
Q 56.78125 9.90625 50.3125 4.234375 
Q 43.84375 -1.421875 31.78125 -1.421875 
Q 19.734375 -1.421875 13.25 4.234375 
Q 6.78125 9.90625 6.78125 20.515625 
Q 6.78125 27.484375 10.78125 32.3125 
Q 14.796875 37.15625 21.921875 38.8125 
z
M 18.3125 54.390625 
Q 18.3125 48.734375 21.84375 45.5625 
Q 25.390625 42.390625 31.78125 42.390625 
Q 38.140625 42.390625 41.71875 45.5625 
Q 45.3125 48.734375 45.3125 54.390625 
Q 45.3125 60.0625 41.71875 63.234375 
Q 38.140625 66.40625 31.78125 66.40625 
Q 25.390625 66.40625 21.84375 63.234375 
Q 18.3125 60.0625 18.3125 54.390625 
z
" id="DejaVuSans-56"/>
      </defs>
      <g transform="translate(159.718081 189.37875)scale(0.08 -0.08)">
       <use xlink:href="#DejaVuSans-56"/>
       <use x="63.623047" xlink:href="#DejaVuSans-48"/>
      </g>
     </g>
    </g>
    <g id="xtick_6">
     <g id="line2d_11">
      <defs>
       <path d="M 0 0 
L 0 2 
" id="m53f5edf832" style="stroke:#000000;stroke-width:1.2;"/>
      </defs>
      <g>
       <use style="stroke:#000000;stroke-width:1.2;" x="44.050505" xlink:href="#m53f5edf832" y="177.3"/>
      </g>
     </g>
    </g>
    <g id="xtick_7">
     <g id="line2d_12">
      <g>
       <use style="stroke:#000000;stroke-width:1.2;" x="52.10101" xlink:href="#m53f5edf832" y="177.3"/>
      </g>
     </g>
    </g>
    <g id="xtick_8">
     <g id="line2d_13">
      <g>
       <use style="stroke:#000000;stroke-width:1.2;" x="60.151515" xlink:href="#m53f5edf832" y="177.3"/>
      </g>
     </g>
    </g>
    <g id="xtick_9">
     <g id="line2d_14">
      <g>
       <use style="stroke:#000000;stroke-width:1.2;" x="76.252525" xlink:href="#m53f5edf832" y="177.3"/>
      </g>
     </g>
    </g>
    <g id="xtick_10">
     <g id="line2d_15">
      <g>
       <use style="stroke:#000000;stroke-width:1.2;" x="84.30303" xlink:href="#m53f5edf832" y="177.3"/>
      </g>
     </g>
    </g>
    <g id="xtick_11">
     <g id="line2d_16">
      <g>
       <use style="stroke:#000000;stroke-width:1.2;" x="92.353535" xlink:href="#m53f5edf832" y="177.3"/>
      </g>
     </g>
    </g>
    <g id="xtick_12">
     <g id="line2d_17">
      <g>
       <use style="stroke:#000000;stroke-width:1.2;" x="108.454545" xlink:href="#m53f5edf832" y="177.3"/>
      </g>
     </g>
    </g>
    <g id="xtick_13">
     <g id="line2d_18">
      <g>
       <use style="stroke:#000000;stroke-width:1.2;" x="116.505051" xlink:href="#m53f5edf832" y="177.3"/>
      </g>
     </g>
    </g>
    <g id="xtick_14">
     <g id="line2d_19">
      <g>
       <use style="stroke:#000000;stroke-width:1.2;" x="124.555556" xlink:href="#m53f5edf832" y="177.3"/>
      </g>
     </g>
    </g>
    <g id="xtick_15">
     <g id="line2d_20">
      <g>
       <use style="stroke:#000000;stroke-width:1.2;" x="140.656566" xlink:href="#m53f5edf832" y="177.3"/>
      </g>
     </g>
    </g>
    <g id="xtick_16">
     <g id="line2d_21">
      <g>
       <use style="stroke:#000000;stroke-width:1.2;" x="148.707071" xlink:href="#m53f5edf832" y="177.3"/>
      </g>
     </g>
    </g>
    <g id="xtick_17">
     <g id="line2d_22">
      <g>
       <use style="stroke:#000000;stroke-width:1.2;" x="156.757576" xlink:href="#m53f5edf832" y="177.3"/>
      </g>
     </g>
    </g>
    <g id="xtick_18">
     <g id="line2d_23">
      <g>
       <use style="stroke:#000000;stroke-width:1.2;" x="172.858586" xlink:href="#m53f5edf832" y="177.3"/>
      </g>
     </g>
    </g>
    <g id="xtick_19">
     <g id="line2d_24">
      <g>
       <use style="stroke:#000000;stroke-width:1.2;" x="180.909091" xlink:href="#m53f5edf832" y="177.3"/>
      </g>
     </g>
    </g>
    <g id="xtick_20">
     <g id="line2d_25">
      <g>
       <use style="stroke:#000000;stroke-width:1.2;" x="188.959596" xlink:href="#m53f5edf832" y="177.3"/>
      </g>
     </g>
    </g>
    <g id="text_6">
     <!-- x label -->
     <defs>
      <path d="M 54.890625 54.6875 
L 35.109375 28.078125 
L 55.90625 0 
L 45.3125 0 
L 29.390625 21.484375 
L 13.484375 0 
L 2.875 0 
L 24.125 28.609375 
L 4.6875 54.6875 
L 15.28125 54.6875 
L 29.78125 35.203125 
L 44.28125 54.6875 
z
" id="DejaVuSans-120"/>
      <path id="DejaVuSans-32"/>
      <path d="M 9.421875 75.984375 
L 18.40625 75.984375 
L 18.40625 0 
L 9.421875 0 
z
" id="DejaVuSans-108"/>
      <path d="M 34.28125 27.484375 
Q 23.390625 27.484375 19.1875 25 
Q 14.984375 22.515625 14.984375 16.5 
Q 14.984375 11.71875 18.140625 8.90625 
Q 21.296875 6.109375 26.703125 6.109375 
Q 34.1875 6.109375 38.703125 11.40625 
Q 43.21875 16.703125 43.21875 25.484375 
L 43.21875 27.484375 
z
M 52.203125 31.203125 
L 52.203125 0 
L 43.21875 0 
L 43.21875 8.296875 
Q 40.140625 3.328125 35.546875 0.953125 
Q 30.953125 -1.421875 24.3125 -1.421875 
Q 15.921875 -1.421875 10.953125 3.296875 
Q 6 8.015625 6 15.921875 
Q 6 25.140625 12.171875 29.828125 
Q 18.359375 34.515625 30.609375 34.515625 
L 43.21875 34.515625 
L 43.21875 35.40625 
Q 43.21875 41.609375 39.140625 45 
Q 35.0625 48.390625 27.6875 48.390625 
Q 23 48.390625 18.546875 47.265625 
Q 14.109375 46.140625 10.015625 43.890625 
L 10.015625 52.203125 
Q 14.9375 54.109375 19.578125 55.046875 
Q 24.21875 56 28.609375 56 
Q 40.484375 56 46.34375 49.84375 
Q 52.203125 43.703125 52.203125 31.203125 
z
" id="DejaVuSans-97"/>
      <path d="M 48.6875 27.296875 
Q 48.6875 37.203125 44.609375 42.84375 
Q 40.53125 48.484375 33.40625 48.484375 
Q 26.265625 48.484375 22.1875 42.84375 
Q 18.109375 37.203125 18.109375 27.296875 
Q 18.109375 17.390625 22.1875 11.75 
Q 26.265625 6.109375 33.40625 6.109375 
Q 40.53125 6.109375 44.609375 11.75 
Q 48.6875 17.390625 48.6875 27.296875 
z
M 18.109375 46.390625 
Q 20.953125 51.265625 25.265625 53.625 
Q 29.59375 56 35.59375 56 
Q 45.5625 56 51.78125 48.09375 
Q 58.015625 40.1875 58.015625 27.296875 
Q 58.015625 14.40625 51.78125 6.484375 
Q 45.5625 -1.421875 35.59375 -1.421875 
Q 29.59375 -1.421875 25.265625 0.953125 
Q 20.953125 3.328125 18.109375 8.203125 
L 18.109375 0 
L 9.078125 0 
L 9.078125 75.984375 
L 18.109375 75.984375 
z
" id="DejaVuSans-98"/>
      <path d="M 56.203125 29.59375 
L 56.203125 25.203125 
L 14.890625 25.203125 
Q 15.484375 15.921875 20.484375 11.0625 
Q 25.484375 6.203125 34.421875 6.203125 
Q 39.59375 6.203125 44.453125 7.46875 
Q 49.3125 8.734375 54.109375 11.28125 
L 54.109375 2.78125 
Q 49.265625 0.734375 44.1875 -0.34375 
Q 39.109375 -1.421875 33.890625 -1.421875 
Q 20.796875 -1.421875 13.15625 6.1875 
Q 5.515625 13.8125 5.515625 26.8125 
Q 5.515625 40.234375 12.765625 48.109375 
Q 20.015625 56 32.328125 56 
Q 43.359375 56 49.78125 48.890625 
Q 56.203125 41.796875 56.203125 29.59375 
z
M 47.21875 32.234375 
Q 47.125 39.59375 43.09375 43.984375 
Q 39.0625 48.390625 32.421875 48.390625 
Q 24.90625 48.390625 20.390625 44.140625 
Q 15.875 39.890625 15.1875 32.171875 
z
" id="DejaVuSans-101"/>
     </defs>
     <g transform="translate(102.386875 200.12125)scale(0.08 -0.08)">
      <use xlink:href="#DejaVuSans-120"/>
      <use x="59.179688" xlink:href="#DejaVuSans-32"/>
      <use x="90.966797" xlink:href="#DejaVuSans-108"/>
      <use x="118.75" xlink:href="#DejaVuSans-97"/>
      <use x="180.029297" xlink:href="#DejaVuSans-98"/>
      <use x="243.505859" xlink:href="#DejaVuSans-101"/>
      <use x="305.029297" xlink:href="#DejaVuSans-108"/>
     </g>
    </g>
   </g>
   <g id="matplotlib.axis_2">
    <g id="ytick_1">
     <g id="line2d_26">
      <path clip-path="url(#pcd1821b1fb)" d="M 36 148.771952 
L 195.4 148.771952 
" style="fill:none;stroke:#000000;stroke-linecap:square;stroke-opacity:0.1;stroke-width:0.6;"/>
     </g>
     <g id="line2d_27">
      <defs>
       <path d="M 0 0 
L -4 0 
" id="me877ec58b7" style="stroke:#1c7ed6;stroke-width:1.5;"/>
      </defs>
      <g>
       <use style="fill:#1c7ed6;stroke:#1c7ed6;stroke-width:1.5;" x="36" xlink:href="#me877ec58b7" y="148.771952"/>
      </g>
     </g>
     <g id="line2d_28">
      <defs>
       <path d="M 0 0 
L 4 0 
" id="m4768e32c8b" style="stroke:#1c7ed6;stroke-width:1.5;"/>
      </defs>
      <g>
       <use style="fill:#1c7ed6;stroke:#1c7ed6;stroke-width:1.5;" x="195.4" xlink:href="#m4768e32c8b" y="148.771952"/>
      </g>
     </g>
     <g id="text_7">
      <!-- −4 -->
      <defs>
       <path d="M 10.59375 35.5 
L 73.1875 35.5 
L 73.1875 27.203125 
L 10.59375 27.203125 
z
" id="DejaVuSans-8722"/>
      </defs>
      <g style="fill:#1c7ed6;" transform="translate(18.20625 151.811327)scale(0.08 -0.08)">
       <use xlink:href="#DejaVuSans-8722"/>
       <use x="83.789062" xlink:href="#DejaVuSans-52"/>
      </g>
     </g>
     <g id="text_8">
      <!-- −4 -->
      <g style="fill:#1c7ed6;" transform="translate(201.4 151.811327)scale(0.08 -0.08)">
       <use xlink:href="#DejaVuSans-8722"/>
       <use x="83.789062" xlink:href="#DejaVuSans-52"/>
      </g>
     </g>
    </g>
    <g id="ytick_2">
     <g id="line2d_29">
      <path clip-path="url(#pcd1821b1fb)" d="M 36 120.193991 
L 195.4 120.193991 
" style="fill:none;stroke:#000000;stroke-linecap:square;stroke-opacity:0.1;stroke-width:0.6;"/>
     </g>
     <g id="line2d_30">
      <g>
       <use style="fill:#1c7ed6;stroke:#1c7ed6;stroke-width:1.5;" x="36" xlink:href="#me877ec58b7" y="120.193991"/>
      </g>
     </g>
     <g id="line2d_31">
      <g>
       <use style="fill:#1c7ed6;stroke:#1c7ed6;stroke-width:1.5;" x="195.4" xlink:href="#m4768e32c8b" y="120.193991"/>
      </g>
     </g>
     <g id="text_9">
      <!-- −2 -->
      <g style="fill:#1c7ed6;" transform="translate(18.20625 123.233366)scale(0.08 -0.08)">
       <use xlink:href="#DejaVuSans-8722"/>
       <use x="83.789062" xlink:href="#DejaVuSans-50"/>
      </g>
     </g>
     <g id="text_10">
      <!-- −2 -->
      <g style="fill:#1c7ed6;" transform="translate(201.4 123.233366)scale(0.08 -0.08)">
       <use xlink:href="#DejaVuSans-8722"/>
       <use x="83.789062" xlink:href="#DejaVuSans-50"/>
      </g>
     </g>
    </g>
    <g id="ytick_3">
     <g id="line2d_32">
      <path clip-path="url(#pcd1821b1fb)" d="M 36 91.61603 
L 195.4 91.61603 
" style="fill:none;stroke:#000000;stroke-linecap:square;stroke-opacity:0.1;stroke-width:0.6;"/>
     </g>
     <g id="line2d_33">
      <g>
       <use style="fill:#1c7ed6;stroke:#1c7ed6;stroke-width:1.5;" x="36" xlink:href="#me877ec58b7" y="91.61603"/>
      </g>
     </g>
     <g id="line2d_34">
      <g>
       <use style="fill:#1c7ed6;stroke:#1c7ed6;stroke-width:1.5;" x="195.4" xlink:href="#m4768e32c8b" y="91.61603"/>
      </g>
     </g>
     <g id="text_11">
      <!-- 0 -->
      <g style="fill:#1c7ed6;" transform="translate(24.91 94.655405)scale(0.08 -0.08)">
       <use xlink:href="#DejaVuSans-48"/>
      </g>
     </g>
     <g id="text_12">
      <!-- 0 -->
      <g style="fill:#1c7ed6;" transform="translate(201.4 94.655405)scale(0.08 -0.08)">
       <use xlink:href="#DejaVuSans-48"/>
      </g>
     </g>
    </g>
    <g id="ytick_4">
     <g id="line2d_35">
      <path clip-path="url(#pcd1821b1fb)" d="M 36 63.038069 
L 195.4 63.038069 
" style="fill:none;stroke:#000000;stroke-linecap:square;stroke-opacity:0.1;stroke-width:0.6;"/>
     </g>
     <g id="line2d_36">
      <g>
       <use style="fill:#1c7ed6;stroke:#1c7ed6;stroke-width:1.5;" x="36" xlink:href="#me877ec58b7" y="63.038069"/>
      </g>
     </g>
     <g id="line2d_37">
      <g>
       <use style="fill:#1c7ed6;stroke:#1c7ed6;stroke-width:1.5;" x="195.4" xlink:href="#m4768e32c8b" y="63.038069"/>
      </g>
     </g>
     <g id="text_13">
      <!-- 2 -->
      <g style="fill:#1c7ed6;" transform="translate(24.91 66.077444)scale(0.08 -0.08)">
       <use xlink:href="#DejaVuSans-50"/>
      </g>
     </g>
     <g id="text_14">
      <!-- 2 -->
      <g style="fill:#1c7ed6;" transform="translate(201.4 66.077444)scale(0.08 -0.08)">
       <use xlink:href="#DejaVuSans-50"/>
      </g>
     </g>
    </g>
    <g id="ytick_5">
     <g id="line2d_38">
      <path clip-path="url(#pcd1821b1fb)" d="M 36 34.460108 
L 195.4 34.460108 
" style="fill:none;stroke:#000000;stroke-linecap:square;stroke-opacity:0.1;stroke-width:0.6;"/>
     </g>
     <g id="line2d_39">
      <g>
       <use style="fill:#1c7ed6;stroke:#1c7ed6;stroke-width:1.5;" x="36" xlink:href="#me877ec58b7" y="34.460108"/>
      </g>
     </g>
     <g id="line2d_40">
      <g>
       <use style="fill:#1c7ed6;stroke:#1c7ed6;stroke-width:1.5;" x="195.4" xlink:href="#m4768e32c8b" y="34.460108"/>
      </g>
     </g>
     <g id="text_15">
      <!-- 4 -->
      <g style="fill:#1c7ed6;" transform="translate(24.91 37.499483)scale(0.08 -0.08)">
       <use xlink:href="#DejaVuSans-52"/>
      </g>
     </g>
     <g id="text_16">
      <!-- 4 -->
      <g style="fill:#1c7ed6;" transform="translate(201.4 37.499483)scale(0.08 -0.08)">
       <use xlink:href="#DejaVuSans-52"/>
      </g>
     </g>
    </g>
    <g id="ytick_6">
     <g id="line2d_41">
      <defs>
       <path d="M 0 0 
L -2 0 
" id="mf2bc5b3eeb" style="stroke:#1c7ed6;stroke-width:1.2;"/>
      </defs>
      <g>
       <use style="fill:#1c7ed6;stroke:#1c7ed6;stroke-width:1.2;" x="36" xlink:href="#mf2bc5b3eeb" y="170.205423"/>
      </g>
     </g>
     <g id="line2d_42">
      <defs>
       <path d="M 0 0 
L 2 0 
" id="mc36e5d6ee4" style="stroke:#1c7ed6;stroke-width:1.2;"/>
      </defs>
      <g>
       <use style="fill:#1c7ed6;stroke:#1c7ed6;stroke-width:1.2;" x="195.4" xlink:href="#mc36e5d6ee4" y="170.205423"/>
      </g>
     </g>
    </g>
    <g id="ytick_7">
     <g id="line2d_43">
      <g>
       <use style="fill:#1c7ed6;stroke:#1c7ed6;stroke-width:1.2;" x="36" xlink:href="#mf2bc5b3eeb" y="163.060932"/>
      </g>
     </g>
     <g id="line2d_44">
      <g>
       <use style="fill:#1c7ed6;stroke:#1c7ed6;stroke-width:1.2;" x="195.4" xlink:href="#mc36e5d6ee4" y="163.060932"/>
      </g>
     </g>
    </g>
    <g id="ytick_8">
     <g id="line2d_45">
      <g>
       <use style="fill:#1c7ed6;stroke:#1c7ed6;stroke-width:1.2;" x="36" xlink:href="#mf2bc5b3eeb" y="155.916442"/>
      </g>
     </g>
     <g id="line2d_46">
      <g>
       <use style="fill:#1c7ed6;stroke:#1c7ed6;stroke-width:1.2;" x="195.4" xlink:href="#mc36e5d6ee4" y="155.916442"/>
      </g>
     </g>
    </g>
    <g id="ytick_9">
     <g id="line2d_47">
      <g>
       <use style="fill:#1c7ed6;stroke:#1c7ed6;stroke-width:1.2;" x="36" xlink:href="#mf2bc5b3eeb" y="141.627462"/>
      </g>
     </g>
     <g id="line2d_48">
      <g>
       <use style="fill:#1c7ed6;stroke:#1c7ed6;stroke-width:1.2;" x="195.4" xlink:href="#mc36e5d6ee4" y="141.627462"/>
      </g>
     </g>
    </g>
    <g id="ytick_10">
     <g id="line2d_49">
      <g>
       <use style="fill:#1c7ed6;stroke:#1c7ed6;stroke-width:1.2;" x="36" xlink:href="#mf2bc5b3eeb" y="134.482971"/>
      </g>
     </g>
     <g id="line2d_50">
      <g>
       <use style="fill:#1c7ed6;stroke:#1c7ed6;stroke-width:1.2;" x="195.4" xlink:href="#mc36e5d6ee4" y="134.482971"/>
      </g>
     </g>
    </g>
    <g id="ytick_11">
     <g id="line2d_51">
      <g>
       <use style="fill:#1c7ed6;stroke:#1c7ed6;stroke-width:1.2;" x="36" xlink:href="#mf2bc5b3eeb" y="127.338481"/>
      </g>
     </g>
     <g id="line2d_52">
      <g>
       <use style="fill:#1c7ed6;stroke:#1c7ed6;stroke-width:1.2;" x="195.4" xlink:href="#mc36e5d6ee4" y="127.338481"/>
      </g>
     </g>
    </g>
    <g id="ytick_12">
     <g id="line2d_53">
      <g>
       <use style="fill:#1c7ed6;stroke:#1c7ed6;stroke-width:1.2;" x="36" xlink:href="#mf2bc5b3eeb" y="113.049501"/>
      </g>
     </g>
     <g id="line2d_54">
      <g>
       <use style="fill:#1c7ed6;stroke:#1c7ed6;stroke-width:1.2;" x="195.4" xlink:href="#mc36e5d6ee4" y="113.049501"/>
      </g>
     </g>
    </g>
    <g id="ytick_13">
     <g id="line2d_55">
      <g>
       <use style="fill:#1c7ed6;stroke:#1c7ed6;stroke-width:1.2;" x="36" xlink:href="#mf2bc5b3eeb" y="105.905011"/>
      </g>
     </g>
     <g id="line2d_56">
      <g>
       <use style="fill:#1c7ed6;stroke:#1c7ed6;stroke-width:1.2;" x="195.4" xlink:href="#mc36e5d6ee4" y="105.905011"/>
      </g>
     </g>
    </g>
    <g id="ytick_14">
     <g id="line2d_57">
      <g>
       <use style="fill:#1c7ed6;stroke:#1c7ed6;stroke-width:1.2;" x="36" xlink:href="#mf2bc5b3eeb" y="98.76052"/>
      </g>
     </g>
     <g id="line2d_58">
      <g>
       <use style="fill:#1c7ed6;stroke:#1c7ed6;stroke-width:1.2;" x="195.4" xlink:href="#mc36e5d6ee4" y="98.76052"/>
      </g>
     </g>
    </g>
    <g id="ytick_15">
     <g id="line2d_59">
      <g>
       <use style="fill:#1c7ed6;stroke:#1c7ed6;stroke-width:1.2;" x="36" xlink:href="#mf2bc5b3eeb" y="84.47154"/>
      </g>
     </g>
     <g id="line2d_60">
      <g>
       <use style="fill:#1c7ed6;stroke:#1c7ed6;stroke-width:1.2;" x="195.4" xlink:href="#mc36e5d6ee4" y="84.47154"/>
      </g>
     </g>
    </g>
    <g id="ytick_16">
     <g id="line2d_61">
      <g>
       <use style="fill:#1c7ed6;stroke:#1c7ed6;stroke-width:1.2;" x="36" xlink:href="#mf2bc5b3eeb" y="77.32705"/>
      </g>
     </g>
     <g id="line2d_62">
      <g>
       <use style="fill:#1c7ed6;stroke:#1c7ed6;stroke-width:1.2;" x="195.4" xlink:href="#mc36e5d6ee4" y="77.32705"/>
      </g>
     </g>
    </g>
    <g id="ytick_17">
     <g id="line2d_63">
      <g>
       <use style="fill:#1c7ed6;stroke:#1c7ed6;stroke-width:1.2;" x="36" xlink:href="#mf2bc5b3eeb" y="70.182559"/>
      </g>
     </g>
     <g id="line2d_64">
      <g>
       <use style="fill:#1c7ed6;stroke:#1c7ed6;stroke-width:1.2;" x="195.4" xlink:href="#mc36e5d6ee4" y="70.182559"/>
      </g>
     </g>
    </g>
    <g id="ytick_18">
     <g id="line2d_65">
      <g>
       <use style="fill:#1c7ed6;stroke:#1c7ed6;stroke-width:1.2;" x="36" xlink:href="#mf2bc5b3eeb" y="55.893579"/>
      </g>
     </g>
     <g id="line2d_66">
      <g>
       <use style="fill:#1c7ed6;stroke:#1c7ed6;stroke-width:1.2;" x="195.4" xlink:href="#mc36e5d6ee4" y="55.893579"/>
      </g>
     </g>
    </g>
    <g id="ytick_19">
     <g id="line2d_67">
      <g>
       <use style="fill:#1c7ed6;stroke:#1c7ed6;stroke-width:1.2;" x="36" xlink:href="#mf2bc5b3eeb" y="48.749089"/>
      </g>
     </g>
     <g id="line2d_68">
      <g>
       <use style="fill:#1c7ed6;stroke:#1c7ed6;stroke-width:1.2;" x="195.4" xlink:href="#mc36e5d6ee4" y="48.749089"/>
      </g>
     </g>
    </g>
    <g id="ytick_20">
     <g id="line2d_69">
      <g>
       <use style="fill:#1c7ed6;stroke:#1c7ed6;stroke-width:1.2;" x="36" xlink:href="#mf2bc5b3eeb" y="41.604598"/>
      </g>
     </g>
     <g id="line2d_70">
      <g>
       <use style="fill:#1c7ed6;stroke:#1c7ed6;stroke-width:1.2;" x="195.4" xlink:href="#mc36e5d6ee4" y="41.604598"/>
      </g>
     </g>
    </g>
    <g id="ytick_21">
     <g id="line2d_71">
      <g>
       <use style="fill:#1c7ed6;stroke:#1c7ed6;stroke-width:1.2;" x="36" xlink:href="#mf2bc5b3eeb" y="27.315618"/>
      </g>
     </g>
     <g id="line2d_72">
      <g>
       <use style="fill:#1c7ed6;stroke:#1c7ed6;stroke-width:1.2;" x="195.4" xlink:href="#mc36e5d6ee4" y="27.315618"/>
      </g>
     </g>
    </g>
    <g id="ytick_22">
     <g id="line2d_73">
      <g>
       <use style="fill:#1c7ed6;stroke:#1c7ed6;stroke-width:1.2;" x="36" xlink:href="#mf2bc5b3eeb" y="20.171128"/>
      </g>
     </g>
     <g id="line2d_74">
      <g>
       <use style="fill:#1c7ed6;stroke:#1c7ed6;stroke-width:1.2;" x="195.4" xlink:href="#mc36e5d6ee4" y="20.171128"/>
      </g>
     </g>
    </g>
    <g id="text_17">
     <!-- y label -->
     <defs>
      <path d="M 32.171875 -5.078125 
Q 28.375 -14.84375 24.75 -17.8125 
Q 21.140625 -20.796875 15.09375 -20.796875 
L 7.90625 -20.796875 
L 7.90625 -13.28125 
L 13.1875 -13.28125 
Q 16.890625 -13.28125 18.9375 -11.515625 
Q 21 -9.765625 23.484375 -3.21875 
L 25.09375 0.875 
L 2.984375 54.6875 
L 12.5 54.6875 
L 29.59375 11.921875 
L 46.6875 54.6875 
L 56.203125 54.6875 
z
" id="DejaVuSans-121"/>
     </defs>
     <g style="fill:#1c7ed6;" transform="translate(13.5425 110.913125)rotate(-90)scale(0.08 -0.08)">
      <use xlink:href="#DejaVuSans-121"/>
      <use x="59.179688" xlink:href="#DejaVuSans-32"/>
      <use x="90.966797" xlink:href="#DejaVuSans-108"/>
      <use x="118.75" xlink:href="#DejaVuSans-97"/>
      <use x="180.029297" xlink:href="#DejaVuSans-98"/>
      <use x="243.505859" xlink:href="#DejaVuSans-101"/>
      <use x="305.029297" xlink:href="#DejaVuSans-108"/>
     </g>
    </g>
   </g>
   <g id="line2d_75">
    <path clip-path="url(#pcd1821b1fb)" d="M 36 90.357633 
L 37.610101 83.487356 
L 39.220202 84.865927 
L 40.830303 79.466883 
L 42.440404 79.701941 
L 44.050505 80.37356 
L 45.660606 87.041603 
L 47.270707 82.90355 
L 48.880808 78.762326 
L 50.490909 79.457018 
L 52.10101 76.593083 
L 53.711111 75.707375 
L 55.321212 70.167938 
L 56.931313 64.564752 
L 58.541414 69.969563 
L 60.151515 63.131976 
L 61.761616 63.796773 
L 63.371717 59.12365 
L 64.981818 62.391599 
L 66.591919 61.447905 
L 68.20202 63.384623 
L 69.812121 56.422274 
L 71.422222 58.690793 
L 73.032323 56.248488 
L 74.642424 61.852518 
L 76.252525 67.342249 
L 77.862626 65.672393 
L 79.472727 63.228256 
L 81.082828 64.981558 
L 82.692929 66.735399 
L 84.30303 73.39425 
L 85.913131 71.053737 
L 87.523232 72.25699 
L 89.133333 72.455726 
L 90.743434 75.713683 
L 92.353535 70.244939 
L 93.963636 69.337379 
L 95.573737 65.382701 
L 97.183838 66.084031 
L 98.793939 60.939651 
L 100.40404 64.606118 
L 102.014141 69.764231 
L 103.624242 72.39393 
L 105.234343 78.481097 
L 106.844444 79.53166 
L 108.454545 75.729901 
L 110.064646 75.445698 
L 111.674747 68.876707 
L 113.284848 66.025038 
L 114.894949 67.898523 
L 116.505051 67.530851 
L 118.115152 64.948701 
L 119.725253 68.207825 
L 121.335354 66.681503 
L 122.945455 65.253763 
L 124.555556 71.347049 
L 126.165657 64.554884 
L 127.775758 60.345445 
L 129.385859 53.708079 
L 130.99596 52.036404 
L 132.606061 52.474355 
L 134.216162 51.707309 
L 135.826263 48.700064 
L 137.436364 42.426469 
L 139.046465 43.744743 
L 140.656566 50.695274 
L 142.266667 57.687766 
L 143.876768 58.003953 
L 145.486869 56.388198 
L 147.09697 54.696038 
L 148.707071 48.850537 
L 150.317172 44.936367 
L 151.927273 44.060928 
L 153.537374 47.575647 
L 155.147475 48.595912 
L 156.757576 54.865 
L 158.367677 49.796616 
L 159.977778 44.950595 
L 161.587879 48.536201 
L 163.19798 45.347827 
L 164.808081 43.993537 
L 166.418182 40.438387 
L 168.028283 34.702713 
L 169.638384 27.763123 
L 171.248485 31.34754 
L 172.858586 36.141248 
L 174.468687 35.667425 
L 176.078788 36.737856 
L 177.688889 34.197374 
L 179.29899 28.534489 
L 180.909091 25.15026 
L 182.519192 19.198871 
L 184.129293 25.871392 
L 185.739394 31.777425 
L 187.349495 26.695714 
L 188.959596 24.001041 
L 190.569697 22.54053 
L 192.179798 28.619501 
L 193.789899 31 
L 195.4 28.254419 
" style="fill:none;stroke:#9ecaff;stroke-linecap:square;stroke-width:3;"/>
   </g>
   <g id="line2d_76">
    <path clip-path="url(#pcd1821b1fb)" d="M 36 89.988166 
L 37.610101 86.897032 
L 39.220202 91.474193 
L 40.830303 87.98219 
L 42.440404 92.11083 
L 44.050505 85.215342 
L 45.660606 83.171363 
L 47.270707 77.454774 
L 48.880808 81.34263 
L 50.490909 84.500824 
L 52.10101 83.668896 
L 53.711111 82.459833 
L 55.321212 82.683285 
L 56.931313 88.73976 
L 58.541414 86.084675 
L 60.151515 92.806914 
L 61.761616 91.445646 
L 63.371717 86.623098 
L 64.981818 89.536652 
L 66.591919 96.036698 
L 68.20202 102.833175 
L 69.812121 99.905924 
L 71.422222 100.731622 
L 73.032323 96.786892 
L 74.642424 98.987898 
L 76.252525 103.509902 
L 77.862626 107.620616 
L 79.472727 105.925036 
L 81.082828 104.591464 
L 82.692929 103.391934 
L 84.30303 99.19732 
L 85.913131 93.326827 
L 87.523232 89.040821 
L 89.133333 89.682638 
L 90.743434 87.360549 
L 92.353535 81.812555 
L 93.963636 78.348401 
L 95.573737 79.666899 
L 97.183838 78.040906 
L 98.793939 71.065433 
L 100.40404 75.421357 
L 102.014141 70.280806 
L 103.624242 69.023394 
L 105.234343 75.534898 
L 106.844444 79.760836 
L 108.454545 78.433962 
L 110.064646 84.95365 
L 111.674747 90.891369 
L 113.284848 92.105778 
L 114.894949 90.68005 
L 116.505051 88.384542 
L 118.115152 94.304642 
L 119.725253 96.023009 
L 121.335354 93.980095 
L 122.945455 92.860994 
L 124.555556 87.651436 
L 126.165657 87.205678 
L 127.775758 88.242007 
L 129.385859 89.434355 
L 130.99596 91.48208 
L 132.606061 84.415178 
L 134.216162 78.567049 
L 135.826263 82.959498 
L 137.436364 83.695573 
L 139.046465 87.080582 
L 140.656566 84.830839 
L 142.266667 88.726146 
L 143.876768 86.62741 
L 145.486869 81.115129 
L 147.09697 78.287127 
L 148.707071 76.842482 
L 150.317172 74.71624 
L 151.927273 69.341048 
L 153.537374 73.971301 
L 155.147475 80.687621 
L 156.757576 80.787174 
L 158.367677 77.779623 
L 159.977778 79.683301 
L 161.587879 73.178406 
L 163.19798 75.938392 
L 164.808081 75.145205 
L 166.418182 73.195571 
L 168.028283 73.208376 
L 169.638384 67.878595 
L 171.248485 70.233715 
L 172.858586 73.37868 
L 174.468687 75.849398 
L 176.078788 80.681955 
L 177.688889 79.215088 
L 179.29899 81.524211 
L 180.909091 88.453231 
L 182.519192 84.322065 
L 184.129293 77.391175 
L 185.739394 84.027923 
L 187.349495 87.496706 
L 188.959596 80.600383 
L 190.569697 75.324117 
L 192.179798 79.102807 
L 193.789899 73.407769 
L 195.4 80.216733 
" style="fill:none;stroke:#2ba8ff;stroke-linecap:square;stroke-width:3;"/>
   </g>
   <g id="line2d_77">
    <path clip-path="url(#pcd1821b1fb)" d="M 36 86.402701 
L 37.610101 91.881909 
L 39.220202 90.012419 
L 40.830303 94.698186 
L 42.440404 89.614692 
L 44.050505 86.371424 
L 45.660606 89.478268 
L 47.270707 87.94614 
L 48.880808 94.203447 
L 50.490909 94.813351 
L 52.10101 89.437282 
L 53.711111 83.731219 
L 55.321212 83.014116 
L 56.931313 76.100694 
L 58.541414 76.859122 
L 60.151515 75.304416 
L 61.761616 75.129689 
L 63.371717 75.657096 
L 64.981818 78.151109 
L 66.591919 74.175787 
L 68.20202 71.70569 
L 69.812121 71.612056 
L 71.422222 67.190505 
L 73.032323 66.506792 
L 74.642424 65.650674 
L 76.252525 69.028249 
L 77.862626 62.843036 
L 79.472727 59.380672 
L 81.082828 64.521516 
L 82.692929 70.994783 
L 84.30303 66.824173 
L 85.913131 73.646799 
L 87.523232 80.279762 
L 89.133333 76.824002 
L 90.743434 71.307699 
L 92.353535 65.399724 
L 93.963636 72.063958 
L 95.573737 75.214645 
L 97.183838 78.96829 
L 98.793939 80.120628 
L 100.40404 83.663391 
L 102.014141 88.700099 
L 103.624242 83.308169 
L 105.234343 84.0732 
L 106.844444 87.142822 
L 108.454545 83.751562 
L 110.064646 80.504703 
L 111.674747 74.169995 
L 113.284848 73.588049 
L 114.894949 66.888524 
L 116.505051 62.360256 
L 118.115152 55.592951 
L 119.725253 55.223946 
L 121.335354 60.631973 
L 122.945455 63.958265 
L 124.555556 67.085381 
L 126.165657 60.079742 
L 127.775758 54.239772 
L 129.385859 55.789986 
L 130.99596 53.976469 
L 132.606061 56.069253 
L 134.216162 52.528304 
L 135.826263 55.350381 
L 137.436364 59.935328 
L 139.046465 61.830156 
L 140.656566 61.946876 
L 142.266667 58.02723 
L 143.876768 57.565358 
L 145.486869 62.720553 
L 147.09697 62.867033 
L 148.707071 59.4469 
L 150.317172 59.783456 
L 151.927273 59.840829 
L 153.537374 60.086223 
L 155.147475 66.941757 
L 156.757576 61.620057 
L 158.367677 55.240148 
L 159.977778 58.572955 
L 161.587879 64.036422 
L 163.19798 62.356846 
L 164.808081 65.747236 
L 166.418182 62.117756 
L 168.028283 67.220579 
L 169.638384 65.32996 
L 171.248485 68.056893 
L 172.858586 66.24646 
L 174.468687 66.23933 
L 176.078788 68.420435 
L 177.688889 63.946311 
L 179.29899 70.518507 
L 180.909091 67.587911 
L 182.519192 73.774 
L 184.129293 77.789055 
L 185.739394 81.933634 
L 187.349495 79.837558 
L 188.959596 77.099105 
L 190.569697 82.833735 
L 192.179798 89.251278 
L 193.789899 91.030545 
L 195.4 85.408565 
" style="fill:none;stroke:#0084cd;stroke-linecap:square;stroke-width:3;"/>
   </g>
   <g id="line2d_78">
    <path clip-path="url(#pcd1821b1fb)" d="M 36 88.075674 
L 37.610101 89.087849 
L 39.220202 83.324178 
L 40.830303 80.243896 
L 42.440404 77.199611 
L 44.050505 79.723276 
L 45.660606 82.046245 
L 47.270707 77.611747 
L 48.880808 75.353449 
L 50.490909 70.733291 
L 52.10101 66.452894 
L 53.711111 70.271551 
L 55.321212 70.95914 
L 56.931313 66.879683 
L 58.541414 63.384949 
L 60.151515 64.674165 
L 61.761616 66.58119 
L 63.371717 61.776248 
L 64.981818 57.264339 
L 66.591919 55.069035 
L 68.20202 51.816549 
L 69.812121 55.032533 
L 71.422222 62.124186 
L 73.032323 63.20107 
L 74.642424 64.02807 
L 76.252525 60.982086 
L 77.862626 63.239587 
L 79.472727 62.423564 
L 81.082828 68.960972 
L 82.692929 67.408513 
L 84.30303 70.125785 
L 85.913131 77.13163 
L 87.523232 78.682914 
L 89.133333 79.414871 
L 90.743434 84.119819 
L 92.353535 82.624554 
L 93.963636 82.440422 
L 95.573737 80.731378 
L 97.183838 77.881125 
L 98.793939 81.960535 
L 100.40404 78.846198 
L 102.014141 85.229172 
L 103.624242 78.663913 
L 105.234343 71.858697 
L 106.844444 76.35708 
L 108.454545 74.885145 
L 110.064646 77.047979 
L 111.674747 80.774588 
L 113.284848 87.008872 
L 114.894949 89.730023 
L 116.505051 86.203139 
L 118.115152 81.819847 
L 119.725253 88.290126 
L 121.335354 92.148909 
L 122.945455 88.386512 
L 124.555556 86.21516 
L 126.165657 90.656551 
L 127.775758 89.747346 
L 129.385859 90.886382 
L 130.99596 89.620522 
L 132.606061 93.748554 
L 134.216162 87.730886 
L 135.826263 81.423359 
L 137.436364 80.645513 
L 139.046465 86.895023 
L 140.656566 87.223107 
L 142.266667 84.387969 
L 143.876768 79.918516 
L 145.486869 78.676841 
L 147.09697 77.15474 
L 148.707071 72.087146 
L 150.317172 68.782151 
L 151.927273 73.157752 
L 153.537374 80.13562 
L 155.147475 84.923463 
L 156.757576 84.369224 
L 158.367677 84.853114 
L 159.977778 82.313204 
L 161.587879 88.502522 
L 163.19798 85.090918 
L 164.808081 88.802225 
L 166.418182 92.707436 
L 168.028283 92.46412 
L 169.638384 88.546147 
L 171.248485 94.076002 
L 172.858586 98.076053 
L 174.468687 97.379748 
L 176.078788 98.587979 
L 177.688889 104.372216 
L 179.29899 106.177333 
L 180.909091 101.271789 
L 182.519192 104.679691 
L 184.129293 107.756933 
L 185.739394 103.00112 
L 187.349495 99.56721 
L 188.959596 94.799635 
L 190.569697 88.523208 
L 192.179798 90.095366 
L 193.789899 95.386212 
L 195.4 95.6681 
" style="fill:none;stroke:#ffa081;stroke-linecap:square;stroke-width:3;"/>
   </g>
   <g id="line2d_79">
    <path clip-path="url(#pcd1821b1fb)" d="M 36 91.435335 
L 37.610101 86.066633 
L 39.220202 84.894342 
L 40.830303 85.166252 
L 42.440404 87.777491 
L 44.050505 87.784528 
L 45.660606 88.11135 
L 47.270707 92.474399 
L 48.880808 90.392208 
L 50.490909 95.66601 
L 52.10101 98.691729 
L 53.711111 99.722505 
L 55.321212 100.114756 
L 56.931313 107.189745 
L 58.541414 110.262142 
L 60.151515 104.41069 
L 61.761616 100.387774 
L 63.371717 97.218393 
L 64.981818 104.158128 
L 66.591919 101.249465 
L 68.20202 103.771493 
L 69.812121 107.358268 
L 71.422222 114.428305 
L 73.032323 116.402285 
L 74.642424 114.846844 
L 76.252525 118.483821 
L 77.862626 119.945115 
L 79.472727 117.430273 
L 81.082828 113.69468 
L 82.692929 106.7904 
L 84.30303 107.728816 
L 85.913131 113.68795 
L 87.523232 110.993496 
L 89.133333 115.360816 
L 90.743434 112.670171 
L 92.353535 113.992732 
L 93.963636 111.932751 
L 95.573737 107.49586 
L 97.183838 107.820026 
L 98.793939 113.36104 
L 100.40404 120.424996 
L 102.014141 126.435692 
L 103.624242 125.797393 
L 105.234343 132.841515 
L 106.844444 138.996748 
L 108.454545 134.904152 
L 110.064646 141.411847 
L 111.674747 137.628516 
L 113.284848 144.271718 
L 114.894949 145.502561 
L 116.505051 147.492499 
L 118.115152 146.558139 
L 119.725253 142.938261 
L 121.335354 148.252346 
L 122.945455 152.715466 
L 124.555556 151.077605 
L 126.165657 156.595488 
L 127.775758 157.430303 
L 129.385859 163.077855 
L 130.99596 162.375128 
L 132.606061 158.149368 
L 134.216162 158.86938 
L 135.826263 163.93165 
L 137.436364 170.306784 
L 139.046465 169.458645 
L 140.656566 167.864744 
L 142.266667 174.424373 
L 143.876768 169.191467 
L 145.486869 162.333264 
L 147.09697 162.98677 
L 148.707071 165.38097 
L 150.317172 170.373542 
L 151.927273 174.902741 
L 153.537374 171.603058 
L 155.147475 168.293581 
L 156.757576 166.915868 
L 158.367677 161.610157 
L 159.977778 157.928299 
L 161.587879 164.638964 
L 163.19798 169.425716 
L 164.808081 162.744263 
L 166.418182 155.993337 
L 168.028283 161.111764 
L 169.638384 159.357707 
L 171.248485 161.66598 
L 172.858586 155.838524 
L 174.468687 155.867843 
L 176.078788 157.379985 
L 177.688889 164.486622 
L 179.29899 168.362088 
L 180.909091 162.525063 
L 182.519192 160.428299 
L 184.129293 164.539873 
L 185.739394 163.931466 
L 187.349495 157.73818 
L 188.959596 162.193318 
L 190.569697 167.573859 
L 192.179798 162.754562 
L 193.789899 167.233574 
L 195.4 165.849075 
" style="fill:none;stroke:#ff7206;stroke-linecap:square;stroke-width:3;"/>
   </g>
   <g id="line2d_80">
    <path clip-path="url(#pcd1821b1fb)" d="M 36 93.562727 
L 37.610101 90.739249 
L 39.220202 84.545276 
L 40.830303 89.236166 
L 42.440404 91.592079 
L 44.050505 87.45823 
L 45.660606 90.769676 
L 47.270707 89.723119 
L 48.880808 86.44531 
L 50.490909 91.186263 
L 52.10101 96.237704 
L 53.711111 98.949112 
L 55.321212 105.800933 
L 56.931313 106.529798 
L 58.541414 108.935387 
L 60.151515 112.409104 
L 61.761616 118.721192 
L 63.371717 121.523211 
L 64.981818 126.014403 
L 66.591919 128.40408 
L 68.20202 121.55445 
L 69.812121 119.706886 
L 71.422222 119.729331 
L 73.032323 124.174466 
L 74.642424 129.736391 
L 76.252525 130.169632 
L 77.862626 137.030752 
L 79.472727 140.43413 
L 81.082828 136.424472 
L 82.692929 138.111014 
L 84.30303 138.463781 
L 85.913131 136.597316 
L 87.523232 133.951668 
L 89.133333 133.575218 
L 90.743434 139.738992 
L 92.353535 140.847152 
L 93.963636 136.452997 
L 95.573737 136.147381 
L 97.183838 142.648363 
L 98.793939 140.794367 
L 100.40404 134.764127 
L 102.014141 141.633032 
L 103.624242 148.607654 
L 105.234343 153.945426 
L 106.844444 148.399462 
L 108.454545 151.513789 
L 110.064646 149.885085 
L 111.674747 148.634336 
L 113.284848 145.8362 
L 114.894949 148.532187 
L 116.505051 142.499568 
L 118.115152 139.860938 
L 119.725253 141.102703 
L 121.335354 138.291326 
L 122.945455 142.007072 
L 124.555556 142.984004 
L 126.165657 137.689657 
L 127.775758 137.26287 
L 129.385859 130.548807 
L 130.99596 130.475974 
L 132.606061 123.367877 
L 134.216162 120.721448 
L 135.826263 121.787269 
L 137.436364 118.110972 
L 139.046465 119.531363 
L 140.656566 122.982219 
L 142.266667 126.490179 
L 143.876768 132.204084 
L 145.486869 126.111397 
L 147.09697 132.167894 
L 148.707071 133.468061 
L 150.317172 131.437781 
L 151.927273 130.984345 
L 153.537374 125.170577 
L 155.147475 126.168309 
L 156.757576 130.179969 
L 158.367677 126.490675 
L 159.977778 129.787567 
L 161.587879 136.48326 
L 163.19798 129.797455 
L 164.808081 135.71175 
L 166.418182 142.174293 
L 168.028283 143.370944 
L 169.638384 144.647667 
L 171.248485 143.955626 
L 172.858586 138.144801 
L 174.468687 132.02391 
L 176.078788 135.835361 
L 177.688889 129.070196 
L 179.29899 132.41438 
L 180.909091 138.797309 
L 182.519192 143.129268 
L 184.129293 149.046338 
L 185.739394 151.974868 
L 187.349495 149.227899 
L 188.959596 145.15593 
L 190.569697 151.252668 
L 192.179798 149.779583 
L 193.789899 145.534858 
L 195.4 152.103928 
" style="fill:none;stroke:#d55e00;stroke-linecap:square;stroke-width:3;"/>
   </g>
   <g id="patch_3">
    <path d="M 36 177.3 
L 36 17.9 
" style="fill:none;stroke:#1c7ed6;stroke-linecap:square;stroke-linejoin:miter;stroke-width:1.5;"/>
   </g>
   <g id="patch_4">
    <path d="M 195.4 177.3 
L 195.4 17.9 
" style="fill:none;stroke:#1c7ed6;stroke-linecap:square;stroke-linejoin:miter;stroke-width:1.5;"/>
   </g>
   <g id="patch_5">
    <path d="M 36 177.3 
L 195.4 177.3 
" style="fill:none;stroke:#000000;stroke-linecap:square;stroke-linejoin:miter;stroke-width:1.5;"/>
   </g>
   <g id="patch_6">
    <path d="M 36 17.9 
L 195.4 17.9 
" style="fill:none;stroke:#000000;stroke-linecap:square;stroke-linejoin:miter;stroke-width:1.5;"/>
   </g>
  </g>
  <g id="axes_2">
   <g id="patch_7">
    <path d="M 238.2 177.3 
L 397.6 177.3 
L 397.6 17.9 
L 238.2 17.9 
z
" style="fill:url(#hf2f0d75546);"/>
   </g>
   <g id="matplotlib.axis_3">
    <g id="xtick_21">
     <g id="line2d_81">
      <path clip-path="url(#p73be3f35c2)" d="M 238.2 177.3 
L 238.2 17.9 
" style="fill:none;stroke:#000000;stroke-linecap:square;stroke-opacity:0.1;stroke-width:0.6;"/>
     </g>
     <g id="line2d_82">
      <g>
       <use style="stroke:#000000;stroke-width:1.5;" x="238.2" xlink:href="#m4489c0c2c2" y="177.3"/>
      </g>
     </g>
     <g id="text_18">
      <!-- 0 -->
      <g transform="translate(235.655 189.37875)scale(0.08 -0.08)">
       <use xlink:href="#DejaVuSans-48"/>
      </g>
     </g>
    </g>
    <g id="xtick_22">
     <g id="line2d_83">
      <path clip-path="url(#p73be3f35c2)" d="M 270.40202 177.3 
L 270.40202 17.9 
" style="fill:none;stroke:#000000;stroke-linecap:square;stroke-opacity:0.1;stroke-width:0.6;"/>
     </g>
     <g id="line2d_84">
      <g>
       <use style="stroke:#000000;stroke-width:1.5;" x="270.40202" xlink:href="#m4489c0c2c2" y="177.3"/>
      </g>
     </g>
     <g id="text_19">
      <!-- 20 -->
      <g transform="translate(265.31202 189.37875)scale(0.08 -0.08)">
       <use xlink:href="#DejaVuSans-50"/>
       <use x="63.623047" xlink:href="#DejaVuSans-48"/>
      </g>
     </g>
    </g>
    <g id="xtick_23">
     <g id="line2d_85">
      <path clip-path="url(#p73be3f35c2)" d="M 302.60404 177.3 
L 302.60404 17.9 
" style="fill:none;stroke:#000000;stroke-linecap:square;stroke-opacity:0.1;stroke-width:0.6;"/>
     </g>
     <g id="line2d_86">
      <g>
       <use style="stroke:#000000;stroke-width:1.5;" x="302.60404" xlink:href="#m4489c0c2c2" y="177.3"/>
      </g>
     </g>
     <g id="text_20">
      <!-- 40 -->
      <g transform="translate(297.51404 189.37875)scale(0.08 -0.08)">
       <use xlink:href="#DejaVuSans-52"/>
       <use x="63.623047" xlink:href="#DejaVuSans-48"/>
      </g>
     </g>
    </g>
    <g id="xtick_24">
     <g id="line2d_87">
      <path clip-path="url(#p73be3f35c2)" d="M 334.806061 177.3 
L 334.806061 17.9 
" style="fill:none;stroke:#000000;stroke-linecap:square;stroke-opacity:0.1;stroke-width:0.6;"/>
     </g>
     <g id="line2d_88">
      <g>
       <use style="stroke:#000000;stroke-width:1.5;" x="334.806061" xlink:href="#m4489c0c2c2" y="177.3"/>
      </g>
     </g>
     <g id="text_21">
      <!-- 60 -->
      <g transform="translate(329.716061 189.37875)scale(0.08 -0.08)">
       <use xlink:href="#DejaVuSans-54"/>
       <use x="63.623047" xlink:href="#DejaVuSans-48"/>
      </g>
     </g>
    </g>
    <g id="xtick_25">
     <g id="line2d_89">
      <path clip-path="url(#p73be3f35c2)" d="M 367.008081 177.3 
L 367.008081 17.9 
" style="fill:none;stroke:#000000;stroke-linecap:square;stroke-opacity:0.1;stroke-width:0.6;"/>
     </g>
     <g id="line2d_90">
      <g>
       <use style="stroke:#000000;stroke-width:1.5;" x="367.008081" xlink:href="#m4489c0c2c2" y="177.3"/>
      </g>
     </g>
     <g id="text_22">
      <!-- 80 -->
      <g transform="translate(361.918081 189.37875)scale(0.08 -0.08)">
       <use xlink:href="#DejaVuSans-56"/>
       <use x="63.623047" xlink:href="#DejaVuSans-48"/>
      </g>
     </g>
    </g>
    <g id="xtick_26">
     <g id="line2d_91">
      <g>
       <use style="stroke:#000000;stroke-width:1.2;" x="246.250505" xlink:href="#m53f5edf832" y="177.3"/>
      </g>
     </g>
    </g>
    <g id="xtick_27">
     <g id="line2d_92">
      <g>
       <use style="stroke:#000000;stroke-width:1.2;" x="254.30101" xlink:href="#m53f5edf832" y="177.3"/>
      </g>
     </g>
    </g>
    <g id="xtick_28">
     <g id="line2d_93">
      <g>
       <use style="stroke:#000000;stroke-width:1.2;" x="262.351515" xlink:href="#m53f5edf832" y="177.3"/>
      </g>
     </g>
    </g>
    <g id="xtick_29">
     <g id="line2d_94">
      <g>
       <use style="stroke:#000000;stroke-width:1.2;" x="278.452525" xlink:href="#m53f5edf832" y="177.3"/>
      </g>
     </g>
    </g>
    <g id="xtick_30">
     <g id="line2d_95">
      <g>
       <use style="stroke:#000000;stroke-width:1.2;" x="286.50303" xlink:href="#m53f5edf832" y="177.3"/>
      </g>
     </g>
    </g>
    <g id="xtick_31">
     <g id="line2d_96">
      <g>
       <use style="stroke:#000000;stroke-width:1.2;" x="294.553535" xlink:href="#m53f5edf832" y="177.3"/>
      </g>
     </g>
    </g>
    <g id="xtick_32">
     <g id="line2d_97">
      <g>
       <use style="stroke:#000000;stroke-width:1.2;" x="310.654545" xlink:href="#m53f5edf832" y="177.3"/>
      </g>
     </g>
    </g>
    <g id="xtick_33">
     <g id="line2d_98">
      <g>
       <use style="stroke:#000000;stroke-width:1.2;" x="318.705051" xlink:href="#m53f5edf832" y="177.3"/>
      </g>
     </g>
    </g>
    <g id="xtick_34">
     <g id="line2d_99">
      <g>
       <use style="stroke:#000000;stroke-width:1.2;" x="326.755556" xlink:href="#m53f5edf832" y="177.3"/>
      </g>
     </g>
    </g>
    <g id="xtick_35">
     <g id="line2d_100">
      <g>
       <use style="stroke:#000000;stroke-width:1.2;" x="342.856566" xlink:href="#m53f5edf832" y="177.3"/>
      </g>
     </g>
    </g>
    <g id="xtick_36">
     <g id="line2d_101">
      <g>
       <use style="stroke:#000000;stroke-width:1.2;" x="350.907071" xlink:href="#m53f5edf832" y="177.3"/>
      </g>
     </g>
    </g>
    <g id="xtick_37">
     <g id="line2d_102">
      <g>
       <use style="stroke:#000000;stroke-width:1.2;" x="358.957576" xlink:href="#m53f5edf832" y="177.3"/>
      </g>
     </g>
    </g>
    <g id="xtick_38">
     <g id="line2d_103">
      <g>
       <use style="stroke:#000000;stroke-width:1.2;" x="375.058586" xlink:href="#m53f5edf832" y="177.3"/>
      </g>
     </g>
    </g>
    <g id="xtick_39">
     <g id="line2d_104">
      <g>
       <use style="stroke:#000000;stroke-width:1.2;" x="383.109091" xlink:href="#m53f5edf832" y="177.3"/>
      </g>
     </g>
    </g>
    <g id="xtick_40">
     <g id="line2d_105">
      <g>
       <use style="stroke:#000000;stroke-width:1.2;" x="391.159596" xlink:href="#m53f5edf832" y="177.3"/>
      </g>
     </g>
    </g>
    <g id="text_23">
     <!-- x label -->
     <g transform="translate(304.586875 200.12125)scale(0.08 -0.08)">
      <use xlink:href="#DejaVuSans-120"/>
      <use x="59.179688" xlink:href="#DejaVuSans-32"/>
      <use x="90.966797" xlink:href="#DejaVuSans-108"/>
      <use x="118.75" xlink:href="#DejaVuSans-97"/>
      <use x="180.029297" xlink:href="#DejaVuSans-98"/>
      <use x="243.505859" xlink:href="#DejaVuSans-101"/>
      <use x="305.029297" xlink:href="#DejaVuSans-108"/>
     </g>
    </g>
   </g>
   <g id="matplotlib.axis_4">
    <g id="ytick_23">
     <g id="line2d_106">
      <path clip-path="url(#p73be3f35c2)" d="M 238.2 148.771952 
L 397.6 148.771952 
" style="fill:none;stroke:#000000;stroke-linecap:square;stroke-opacity:0.1;stroke-width:0.6;"/>
     </g>
     <g id="line2d_107">
      <g>
       <use style="fill:#1c7ed6;stroke:#1c7ed6;stroke-width:1.5;" x="238.2" xlink:href="#me877ec58b7" y="148.771952"/>
      </g>
     </g>
     <g id="text_24">
      <!-- −4 -->
      <g style="fill:#1c7ed6;" transform="translate(220.40625 151.811327)scale(0.08 -0.08)">
       <use xlink:href="#DejaVuSans-8722"/>
       <use x="83.789062" xlink:href="#DejaVuSans-52"/>
      </g>
     </g>
    </g>
    <g id="ytick_24">
     <g id="line2d_108">
      <path clip-path="url(#p73be3f35c2)" d="M 238.2 120.193991 
L 397.6 120.193991 
" style="fill:none;stroke:#000000;stroke-linecap:square;stroke-opacity:0.1;stroke-width:0.6;"/>
     </g>
     <g id="line2d_109">
      <g>
       <use style="fill:#1c7ed6;stroke:#1c7ed6;stroke-width:1.5;" x="238.2" xlink:href="#me877ec58b7" y="120.193991"/>
      </g>
     </g>
     <g id="text_25">
      <!-- −2 -->
      <g style="fill:#1c7ed6;" transform="translate(220.40625 123.233366)scale(0.08 -0.08)">
       <use xlink:href="#DejaVuSans-8722"/>
       <use x="83.789062" xlink:href="#DejaVuSans-50"/>
      </g>
     </g>
    </g>
    <g id="ytick_25">
     <g id="line2d_110">
      <path clip-path="url(#p73be3f35c2)" d="M 238.2 91.61603 
L 397.6 91.61603 
" style="fill:none;stroke:#000000;stroke-linecap:square;stroke-opacity:0.1;stroke-width:0.6;"/>
     </g>
     <g id="line2d_111">
      <g>
       <use style="fill:#1c7ed6;stroke:#1c7ed6;stroke-width:1.5;" x="238.2" xlink:href="#me877ec58b7" y="91.61603"/>
      </g>
     </g>
     <g id="text_26">
      <!-- 0 -->
      <g style="fill:#1c7ed6;" transform="translate(227.11 94.655405)scale(0.08 -0.08)">
       <use xlink:href="#DejaVuSans-48"/>
      </g>
     </g>
    </g>
    <g id="ytick_26">
     <g id="line2d_112">
      <path clip-path="url(#p73be3f35c2)" d="M 238.2 63.038069 
L 397.6 63.038069 
" style="fill:none;stroke:#000000;stroke-linecap:square;stroke-opacity:0.1;stroke-width:0.6;"/>
     </g>
     <g id="line2d_113">
      <g>
       <use style="fill:#1c7ed6;stroke:#1c7ed6;stroke-width:1.5;" x="238.2" xlink:href="#me877ec58b7" y="63.038069"/>
      </g>
     </g>
     <g id="text_27">
      <!-- 2 -->
      <g style="fill:#1c7ed6;" transform="translate(227.11 66.077444)scale(0.08 -0.08)">
       <use xlink:href="#DejaVuSans-50"/>
      </g>
     </g>
    </g>
    <g id="ytick_27">
     <g id="line2d_114">
      <path clip-path="url(#p73be3f35c2)" d="M 238.2 34.460108 
L 397.6 34.460108 
" style="fill:none;stroke:#000000;stroke-linecap:square;stroke-opacity:0.1;stroke-width:0.6;"/>
     </g>
     <g id="line2d_115">
      <g>
       <use style="fill:#1c7ed6;stroke:#1c7ed6;stroke-width:1.5;" x="238.2" xlink:href="#me877ec58b7" y="34.460108"/>
      </g>
     </g>
     <g id="text_28">
      <!-- 4 -->
      <g style="fill:#1c7ed6;" transform="translate(227.11 37.499483)scale(0.08 -0.08)">
       <use xlink:href="#DejaVuSans-52"/>
      </g>
     </g>
    </g>
    <g id="ytick_28">
     <g id="line2d_116">
      <g>
       <use style="fill:#1c7ed6;stroke:#1c7ed6;stroke-width:1.2;" x="238.2" xlink:href="#mf2bc5b3eeb" y="170.205423"/>
      </g>
     </g>
    </g>
    <g id="ytick_29">
     <g id="line2d_117">
      <g>
       <use style="fill:#1c7ed6;stroke:#1c7ed6;stroke-width:1.2;" x="238.2" xlink:href="#mf2bc5b3eeb" y="163.060932"/>
      </g>
     </g>
    </g>
    <g id="ytick_30">
     <g id="line2d_118">
      <g>
       <use style="fill:#1c7ed6;stroke:#1c7ed6;stroke-width:1.2;" x="238.2" xlink:href="#mf2bc5b3eeb" y="155.916442"/>
      </g>
     </g>
    </g>
    <g id="ytick_31">
     <g id="line2d_119">
      <g>
       <use style="fill:#1c7ed6;stroke:#1c7ed6;stroke-width:1.2;" x="238.2" xlink:href="#mf2bc5b3eeb" y="141.627462"/>
      </g>
     </g>
    </g>
    <g id="ytick_32">
     <g id="line2d_120">
      <g>
       <use style="fill:#1c7ed6;stroke:#1c7ed6;stroke-width:1.2;" x="238.2" xlink:href="#mf2bc5b3eeb" y="134.482971"/>
      </g>
     </g>
    </g>
    <g id="ytick_33">
     <g id="line2d_121">
      <g>
       <use style="fill:#1c7ed6;stroke:#1c7ed6;stroke-width:1.2;" x="238.2" xlink:href="#mf2bc5b3eeb" y="127.338481"/>
      </g>
     </g>
    </g>
    <g id="ytick_34">
     <g id="line2d_122">
      <g>
       <use style="fill:#1c7ed6;stroke:#1c7ed6;stroke-width:1.2;" x="238.2" xlink:href="#mf2bc5b3eeb" y="113.049501"/>
      </g>
     </g>
    </g>
    <g id="ytick_35">
     <g id="line2d_123">
      <g>
       <use style="fill:#1c7ed6;stroke:#1c7ed6;stroke-width:1.2;" x="238.2" xlink:href="#mf2bc5b3eeb" y="105.905011"/>
      </g>
     </g>
    </g>
    <g id="ytick_36">
     <g id="line2d_124">
      <g>
       <use style="fill:#1c7ed6;stroke:#1c7ed6;stroke-width:1.2;" x="238.2" xlink:href="#mf2bc5b3eeb" y="98.76052"/>
      </g>
     </g>
    </g>
    <g id="ytick_37">
     <g id="line2d_125">
      <g>
       <use style="fill:#1c7ed6;stroke:#1c7ed6;stroke-width:1.2;" x="238.2" xlink:href="#mf2bc5b3eeb" y="84.47154"/>
      </g>
     </g>
    </g>
    <g id="ytick_38">
     <g id="line2d_126">
      <g>
       <use style="fill:#1c7ed6;stroke:#1c7ed6;stroke-width:1.2;" x="238.2" xlink:href="#mf2bc5b3eeb" y="77.32705"/>
      </g>
     </g>
    </g>
    <g id="ytick_39">
     <g id="line2d_127">
      <g>
       <use style="fill:#1c7ed6;stroke:#1c7ed6;stroke-width:1.2;" x="238.2" xlink:href="#mf2bc5b3eeb" y="70.182559"/>
      </g>
     </g>
    </g>
    <g id="ytick_40">
     <g id="line2d_128">
      <g>
       <use style="fill:#1c7ed6;stroke:#1c7ed6;stroke-width:1.2;" x="238.2" xlink:href="#mf2bc5b3eeb" y="55.893579"/>
      </g>
     </g>
    </g>
    <g id="ytick_41">
     <g id="line2d_129">
      <g>
       <use style="fill:#1c7ed6;stroke:#1c7ed6;stroke-width:1.2;" x="238.2" xlink:href="#mf2bc5b3eeb" y="48.749089"/>
      </g>
     </g>
    </g>
    <g id="ytick_42">
     <g id="line2d_130">
      <g>
       <use style="fill:#1c7ed6;stroke:#1c7ed6;stroke-width:1.2;" x="238.2" xlink:href="#mf2bc5b3eeb" y="41.604598"/>
      </g>
     </g>
    </g>
    <g id="ytick_43">
     <g id="line2d_131">
      <g>
       <use style="fill:#1c7ed6;stroke:#1c7ed6;stroke-width:1.2;" x="238.2" xlink:href="#mf2bc5b3eeb" y="27.315618"/>
      </g>
     </g>
    </g>
    <g id="ytick_44">
     <g id="line2d_132">
      <g>
       <use style="fill:#1c7ed6;stroke:#1c7ed6;stroke-width:1.2;" x="238.2" xlink:href="#mf2bc5b3eeb" y="20.171128"/>
      </g>
     </g>
    </g>
   </g>
   <g id="line2d_133">
    <path clip-path="url(#p73be3f35c2)" d="M 238.2 95.841668 
L 239.810101 102.108391 
L 241.420202 105.410827 
L 243.030303 99.497512 
L 244.640404 97.713204 
L 246.250505 97.778367 
L 247.860606 93.500498 
L 249.470707 100.070778 
L 251.080808 102.940492 
L 252.690909 107.934536 
L 254.30101 112.4059 
L 255.911111 105.695677 
L 257.521212 104.589065 
L 259.131313 105.021984 
L 260.741414 103.910142 
L 262.351515 106.165901 
L 263.961616 112.224123 
L 265.571717 117.50047 
L 267.181818 112.517506 
L 268.791919 117.06164 
L 270.40202 117.720625 
L 272.012121 111.181409 
L 273.622222 116.238212 
L 275.232323 117.08166 
L 276.842424 122.316266 
L 278.452525 120.136731 
L 280.062626 120.664762 
L 281.672727 116.221001 
L 283.282828 122.043132 
L 284.892929 125.404563 
L 286.50303 120.054953 
L 288.113131 118.500055 
L 289.723232 122.660763 
L 291.333333 126.689273 
L 292.943434 123.92915 
L 294.553535 124.640689 
L 296.163636 127.841485 
L 297.773737 124.387296 
L 299.383838 124.976883 
L 300.993939 131.478127 
L 302.60404 128.752602 
L 304.214141 130.574513 
L 305.824242 126.570065 
L 307.434343 128.108514 
L 309.044444 128.879719 
L 310.654545 134.689542 
L 312.264646 134.869218 
L 313.874747 128.078528 
L 315.484848 124.678428 
L 317.094949 129.60302 
L 318.705051 132.436157 
L 320.315152 135.330757 
L 321.925253 136.231253 
L 323.535354 140.163666 
L 325.145455 135.694174 
L 326.755556 139.079444 
L 328.365657 142.622364 
L 329.975758 144.826947 
L 331.585859 149.693982 
L 333.19596 143.577459 
L 334.806061 148.172096 
L 336.416162 149.35628 
L 338.026263 153.872814 
L 339.636364 149.483976 
L 341.246465 155.776491 
L 342.856566 158.996524 
L 344.466667 158.11666 
L 346.076768 152.388957 
L 347.686869 158.790889 
L 349.29697 156.923734 
L 350.907071 152.232511 
L 352.517172 149.587479 
L 354.127273 156.063944 
L 355.737374 158.415162 
L 357.347475 164.439388 
L 358.957576 166.90343 
L 360.567677 159.890782 
L 362.177778 160.041476 
L 363.787879 162.897627 
L 365.39798 160.197523 
L 367.008081 165.011495 
L 368.618182 160.331602 
L 370.228283 157.493546 
L 371.838384 155.168742 
L 373.448485 153.504853 
L 375.058586 154.911465 
L 376.668687 160.46681 
L 378.278788 163.385109 
L 379.888889 170.428501 
L 381.49899 177.3 
L 383.109091 173.457943 
L 384.719192 167.008121 
L 386.329293 168.140177 
L 387.939394 167.918388 
L 389.549495 172.78989 
L 391.159596 165.709562 
L 392.769697 166.744591 
L 394.379798 160.229935 
L 395.989899 155.028035 
L 397.6 154.696379 
" style="fill:none;stroke:#9ecaff;stroke-linecap:square;stroke-width:3;"/>
   </g>
   <g id="line2d_134">
    <path clip-path="url(#p73be3f35c2)" d="M 238.2 93.86457 
L 239.810101 86.916538 
L 241.420202 86.172863 
L 243.030303 87.280198 
L 244.640404 81.715106 
L 246.250505 86.845134 
L 247.860606 87.712512 
L 249.470707 93.808208 
L 251.080808 94.688104 
L 252.690909 91.05572 
L 254.30101 91.351756 
L 255.911111 86.458586 
L 257.521212 85.234197 
L 259.131313 79.827985 
L 260.741414 80.437248 
L 262.351515 74.032787 
L 263.961616 75.616188 
L 265.571717 80.837598 
L 267.181818 81.621471 
L 268.791919 81.181657 
L 270.40202 78.413574 
L 272.012121 77.955963 
L 273.622222 77.511851 
L 275.232323 76.289337 
L 276.842424 69.2422 
L 278.452525 73.811528 
L 280.062626 77.910751 
L 281.672727 74.125596 
L 283.282828 79.229611 
L 284.892929 86.294671 
L 286.50303 90.027322 
L 288.113131 94.025306 
L 289.723232 93.916741 
L 291.333333 87.737486 
L 292.943434 87.946118 
L 294.553535 88.035838 
L 296.163636 94.27497 
L 297.773737 89.22572 
L 299.383838 92.396798 
L 300.993939 86.833104 
L 302.60404 79.996197 
L 304.214141 78.25391 
L 305.824242 74.315721 
L 307.434343 72.653481 
L 309.044444 72.282544 
L 310.654545 69.679024 
L 312.264646 72.967828 
L 313.874747 68.121483 
L 315.484848 72.252163 
L 317.094949 71.232577 
L 318.705051 65.129389 
L 320.315152 70.81182 
L 321.925253 69.957793 
L 323.535354 67.154209 
L 325.145455 73.548419 
L 326.755556 76.175153 
L 328.365657 74.213227 
L 329.975758 68.206002 
L 331.585859 70.24301 
L 333.19596 67.292926 
L 334.806061 73.073236 
L 336.416162 79.58347 
L 338.026263 78.747925 
L 339.636364 81.31016 
L 341.246465 85.530021 
L 342.856566 88.653226 
L 344.466667 81.606378 
L 346.076768 87.306545 
L 347.686869 84.424553 
L 349.29697 90.064182 
L 350.907071 83.625988 
L 352.517172 80.869177 
L 354.127273 75.69542 
L 355.737374 76.771054 
L 357.347475 73.801656 
L 358.957576 74.213617 
L 360.567677 78.377744 
L 362.177778 84.557807 
L 363.787879 79.675254 
L 365.39798 85.994038 
L 367.008081 86.119744 
L 368.618182 79.001433 
L 370.228283 85.326239 
L 371.838384 87.929338 
L 373.448485 91.093706 
L 375.058586 84.680445 
L 376.668687 87.698804 
L 378.278788 85.513118 
L 379.888889 92.198195 
L 381.49899 93.949098 
L 383.109091 98.410503 
L 384.719192 100.125606 
L 386.329293 93.884251 
L 387.939394 89.967154 
L 389.549495 87.366814 
L 391.159596 84.456827 
L 392.769697 79.447113 
L 394.379798 81.093321 
L 395.989899 82.63385 
L 397.6 79.879136 
" style="fill:none;stroke:#2ba8ff;stroke-linecap:square;stroke-width:3;"/>
   </g>
   <g id="line2d_135">
    <path clip-path="url(#p73be3f35c2)" d="M 238.2 91.145297 
L 239.810101 98.131792 
L 241.420202 97.186863 
L 243.030303 102.46536 
L 244.640404 104.375359 
L 246.250505 98.26647 
L 247.860606 103.688308 
L 249.470707 105.90199 
L 251.080808 104.208477 
L 252.690909 102.140956 
L 254.30101 102.180829 
L 255.911111 105.356666 
L 257.521212 103.974994 
L 259.131313 97.172241 
L 260.741414 100.501899 
L 262.351515 106.935387 
L 263.961616 101.991682 
L 265.571717 109.091899 
L 267.181818 111.400664 
L 268.791919 112.794471 
L 270.40202 118.051176 
L 272.012121 124.256131 
L 273.622222 124.346757 
L 275.232323 129.350982 
L 276.842424 123.96022 
L 278.452525 121.210615 
L 280.062626 127.852951 
L 281.672727 121.869339 
L 283.282828 122.337201 
L 284.892929 115.403294 
L 286.50303 120.754672 
L 288.113131 127.074039 
L 289.723232 133.561566 
L 291.333333 133.63441 
L 292.943434 132.82504 
L 294.553535 133.758233 
L 296.163636 134.608407 
L 297.773737 134.829046 
L 299.383838 138.366469 
L 300.993939 139.882953 
L 302.60404 136.608403 
L 304.214141 139.218485 
L 305.824242 140.487891 
L 307.434343 146.718487 
L 309.044444 147.201027 
L 310.654545 145.004053 
L 312.264646 141.810015 
L 313.874747 145.440771 
L 315.484848 142.704883 
L 317.094949 147.951628 
L 318.705051 145.95611 
L 320.315152 145.008076 
L 321.925253 139.218791 
L 323.535354 137.847237 
L 325.145455 136.541961 
L 326.755556 136.006795 
L 328.365657 134.800928 
L 329.975758 134.229326 
L 331.585859 136.364506 
L 333.19596 131.753643 
L 334.806061 125.864314 
L 336.416162 119.839409 
L 338.026263 118.427981 
L 339.636364 118.40764 
L 341.246465 114.404284 
L 342.856566 114.398541 
L 344.466667 110.128106 
L 346.076768 114.678725 
L 347.686869 121.078261 
L 349.29697 121.741952 
L 350.907071 128.312915 
L 352.517172 125.315291 
L 354.127273 119.846227 
L 355.737374 125.79173 
L 357.347475 127.477452 
L 358.957576 128.251936 
L 360.567677 126.776692 
L 362.177778 128.319993 
L 363.787879 125.599534 
L 365.39798 126.533 
L 367.008081 124.653457 
L 368.618182 124.122652 
L 370.228283 123.896439 
L 371.838384 127.900815 
L 373.448485 131.272084 
L 375.058586 132.653114 
L 376.668687 131.928481 
L 378.278788 129.027561 
L 379.888889 125.726546 
L 381.49899 122.157935 
L 383.109091 125.371257 
L 384.719192 126.348961 
L 386.329293 124.08808 
L 387.939394 120.467512 
L 389.549495 116.497515 
L 391.159596 118.975841 
L 392.769697 115.324153 
L 394.379798 110.361686 
L 395.989899 115.98396 
L 397.6 115.76167 
" style="fill:none;stroke:#0084cd;stroke-linecap:square;stroke-width:3;"/>
   </g>
   <g id="line2d_136">
    <path clip-path="url(#p73be3f35c2)" d="M 238.2 89.542713 
L 239.810101 84.994741 
L 241.420202 79.949951 
L 243.030303 77.990047 
L 244.640404 78.880916 
L 246.250505 82.579589 
L 247.860606 77.482424 
L 249.470707 77.028812 
L 251.080808 77.541313 
L 252.690909 73.156406 
L 254.30101 67.147301 
L 255.911111 61.236676 
L 257.521212 56.011425 
L 259.131313 52.270482 
L 260.741414 45.207734 
L 262.351515 38.662465 
L 263.961616 42.886332 
L 265.571717 43.089851 
L 267.181818 41.691906 
L 268.791919 44.724264 
L 270.40202 47.530602 
L 272.012121 53.405269 
L 273.622222 53.555071 
L 275.232323 60.080862 
L 276.842424 61.310419 
L 278.452525 59.893385 
L 280.062626 60.507248 
L 281.672727 58.033682 
L 283.282828 54.314878 
L 284.892929 48.401798 
L 286.50303 48.220081 
L 288.113131 45.517351 
L 289.723232 49.349898 
L 291.333333 50.332976 
L 292.943434 53.696682 
L 294.553535 49.114646 
L 296.163636 52.581224 
L 297.773737 59.107369 
L 299.383838 57.328826 
L 300.993939 58.139641 
L 302.60404 63.274283 
L 304.214141 70.030712 
L 305.824242 70.91326 
L 307.434343 73.157096 
L 309.044444 72.100798 
L 310.654545 79.194136 
L 312.264646 76.578076 
L 313.874747 83.106725 
L 315.484848 76.539587 
L 317.094949 74.53804 
L 318.705051 79.513666 
L 320.315152 82.771668 
L 321.925253 84.091909 
L 323.535354 87.50377 
L 325.145455 83.634232 
L 326.755556 84.411372 
L 328.365657 86.014032 
L 329.975758 86.662928 
L 331.585859 90.349759 
L 333.19596 87.842123 
L 334.806061 82.877883 
L 336.416162 81.915196 
L 338.026263 81.212181 
L 339.636364 79.823607 
L 341.246465 81.160798 
L 342.856566 84.939528 
L 344.466667 91.276324 
L 346.076768 98.191046 
L 347.686869 99.256938 
L 349.29697 93.773383 
L 350.907071 87.301315 
L 352.517172 83.347157 
L 354.127273 88.22427 
L 355.737374 84.655896 
L 357.347475 86.644638 
L 358.957576 88.488399 
L 360.567677 94.69949 
L 362.177778 90.137628 
L 363.787879 88.026288 
L 365.39798 91.510439 
L 367.008081 84.782073 
L 368.618182 81.731101 
L 370.228283 80.5641 
L 371.838384 78.235717 
L 373.448485 80.647814 
L 375.058586 87.382204 
L 376.668687 89.296516 
L 378.278788 85.964229 
L 379.888889 88.093536 
L 381.49899 86.023507 
L 383.109091 80.836789 
L 384.719192 80.726355 
L 386.329293 81.535196 
L 387.939394 84.359322 
L 389.549495 87.606399 
L 391.159596 82.220558 
L 392.769697 87.289724 
L 394.379798 84.490589 
L 395.989899 82.773714 
L 397.6 78.073961 
" style="fill:none;stroke:#ffa081;stroke-linecap:square;stroke-width:3;"/>
   </g>
   <g id="line2d_137">
    <path clip-path="url(#p73be3f35c2)" d="M 238.2 87.989414 
L 239.810101 94.478518 
L 241.420202 92.941839 
L 243.030303 88.151103 
L 244.640404 83.54609 
L 246.250505 86.415897 
L 247.860606 87.090143 
L 249.470707 86.437027 
L 251.080808 80.652279 
L 252.690909 80.714524 
L 254.30101 84.084135 
L 255.911111 78.843026 
L 257.521212 83.377652 
L 259.131313 84.924964 
L 260.741414 87.695214 
L 262.351515 90.410279 
L 263.961616 93.600065 
L 265.571717 90.802847 
L 267.181818 94.248253 
L 268.791919 88.881788 
L 270.40202 83.463564 
L 272.012121 81.801766 
L 273.622222 75.373667 
L 275.232323 68.641728 
L 276.842424 73.50025 
L 278.452525 70.945624 
L 280.062626 75.93464 
L 281.672727 82.474723 
L 283.282828 89.391177 
L 284.892929 85.372048 
L 286.50303 85.219301 
L 288.113131 82.810119 
L 289.723232 79.369791 
L 291.333333 76.075698 
L 292.943434 70.564962 
L 294.553535 74.228688 
L 296.163636 76.878384 
L 297.773737 78.05688 
L 299.383838 71.354991 
L 300.993939 73.913218 
L 302.60404 76.028383 
L 304.214141 74.553425 
L 305.824242 68.313249 
L 307.434343 69.255496 
L 309.044444 70.934808 
L 310.654545 71.760046 
L 312.264646 70.507378 
L 313.874747 76.256606 
L 315.484848 80.591069 
L 317.094949 78.564377 
L 318.705051 80.450872 
L 320.315152 74.998758 
L 321.925253 81.743948 
L 323.535354 81.721299 
L 325.145455 74.926892 
L 326.755556 78.156282 
L 328.365657 79.920966 
L 329.975758 77.294009 
L 331.585859 71.87381 
L 333.19596 68.843997 
L 334.806061 69.615207 
L 336.416162 75.238803 
L 338.026263 80.988835 
L 339.636364 74.535315 
L 341.246465 74.392223 
L 342.856566 72.894766 
L 344.466667 70.256595 
L 346.076768 75.790132 
L 347.686869 76.144308 
L 349.29697 70.588656 
L 350.907071 68.15146 
L 352.517172 64.911981 
L 354.127273 69.501413 
L 355.737374 63.895882 
L 357.347475 65.926113 
L 358.957576 70.176523 
L 360.567677 76.844561 
L 362.177778 70.283047 
L 363.787879 70.779325 
L 365.39798 66.835921 
L 367.008081 69.32451 
L 368.618182 69.851885 
L 370.228283 67.284797 
L 371.838384 68.173599 
L 373.448485 71.638487 
L 375.058586 71.868846 
L 376.668687 75.466704 
L 378.278788 69.333885 
L 379.888889 73.321504 
L 381.49899 72.363851 
L 383.109091 70.241593 
L 384.719192 64.10989 
L 386.329293 67.432423 
L 387.939394 73.829344 
L 389.549495 68.507948 
L 391.159596 62.334411 
L 392.769697 56.047005 
L 394.379798 54.186372 
L 395.989899 58.94467 
L 397.6 62.362689 
" style="fill:none;stroke:#ff7206;stroke-linecap:square;stroke-width:3;"/>
   </g>
   <g id="line2d_138">
    <path clip-path="url(#p73be3f35c2)" d="M 238.2 91.545649 
L 239.810101 94.419349 
L 241.420202 88.816671 
L 243.030303 82.723321 
L 244.640404 78.910169 
L 246.250505 81.929816 
L 247.860606 81.010266 
L 249.470707 83.709137 
L 251.080808 87.572075 
L 252.690909 84.932541 
L 254.30101 86.115135 
L 255.911111 80.932439 
L 257.521212 79.011077 
L 259.131313 81.284362 
L 260.741414 75.746507 
L 262.351515 76.039878 
L 263.961616 69.692444 
L 265.571717 71.608314 
L 267.181818 69.377886 
L 268.791919 63.629857 
L 270.40202 63.466632 
L 272.012121 57.998609 
L 273.622222 55.633792 
L 275.232323 51.996159 
L 276.842424 54.688082 
L 278.452525 59.44631 
L 280.062626 64.102145 
L 281.672727 62.426837 
L 283.282828 58.532167 
L 284.892929 56.618903 
L 286.50303 59.136785 
L 288.113131 61.824247 
L 289.723232 66.871884 
L 291.333333 67.953272 
L 292.943434 61.664474 
L 294.553535 65.899484 
L 296.163636 62.728313 
L 297.773737 65.596499 
L 299.383838 65.99168 
L 300.993939 61.809685 
L 302.60404 62.8146 
L 304.214141 68.999677 
L 305.824242 67.320941 
L 307.434343 71.105211 
L 309.044444 70.283784 
L 310.654545 64.165258 
L 312.264646 58.236011 
L 313.874747 54.259058 
L 315.484848 52.606845 
L 317.094949 46.908572 
L 318.705051 51.20791 
L 320.315152 55.086757 
L 321.925253 50.14386 
L 323.535354 49.404217 
L 325.145455 44.797245 
L 326.755556 48.972829 
L 328.365657 50.88003 
L 329.975758 47.474495 
L 331.585859 53.598754 
L 333.19596 48.544761 
L 334.806061 54.127623 
L 336.416162 47.713027 
L 338.026263 44.527548 
L 339.636364 40.417841 
L 341.246465 36.712487 
L 342.856566 36.157488 
L 344.466667 30.675678 
L 346.076768 28.943648 
L 347.686869 33.738209 
L 349.29697 32.705945 
L 350.907071 26.133016 
L 352.517172 24.576309 
L 354.127273 26.546123 
L 355.737374 24.138933 
L 357.347475 22.741995 
L 358.957576 19.414912 
L 360.567677 25.030103 
L 362.177778 24.493798 
L 363.787879 26.83562 
L 365.39798 22.527925 
L 367.008081 17.9 
L 368.618182 23.134617 
L 370.228283 23.123537 
L 371.838384 26.066171 
L 373.448485 28.846064 
L 375.058586 29.121387 
L 376.668687 29.870401 
L 378.278788 34.30815 
L 379.888889 37.507504 
L 381.49899 32.63692 
L 383.109091 28.733504 
L 384.719192 30.013474 
L 386.329293 35.716083 
L 387.939394 31.43852 
L 389.549495 28.174412 
L 391.159596 30.563485 
L 392.769697 27.920579 
L 394.379798 32.425234 
L 395.989899 28.113713 
L 397.6 23.646853 
" style="fill:none;stroke:#d55e00;stroke-linecap:square;stroke-width:3;"/>
   </g>
   <g id="patch_8">
    <path d="M 238.2 177.3 
L 238.2 17.9 
" style="fill:none;stroke:#1c7ed6;stroke-linecap:square;stroke-linejoin:miter;stroke-width:1.5;"/>
   </g>
   <g id="patch_9">
    <path d="M 397.6 177.3 
L 397.6 17.9 
" style="fill:none;stroke:#1c7ed6;stroke-linecap:square;stroke-linejoin:miter;stroke-width:1.5;"/>
   </g>
   <g id="patch_10">
    <path d="M 238.2 177.3 
L 397.6 177.3 
" style="fill:none;stroke:#000000;stroke-linecap:square;stroke-linejoin:miter;stroke-width:1.5;"/>
   </g>
   <g id="patch_11">
    <path d="M 238.2 17.9 
L 397.6 17.9 
" style="fill:none;stroke:#000000;stroke-linecap:square;stroke-linejoin:miter;stroke-width:1.5;"/>
   </g>
  </g>
  <g id="axes_3">
   <g id="matplotlib.axis_5">
    <g id="ytick_45">
     <g id="line2d_139">
      <defs>
       <path d="M 0 0 
L 4 0 
" id="mc225154b9b" style="stroke:#ff0000;stroke-width:1.5;"/>
      </defs>
      <g>
       <use style="fill:#ff0000;stroke:#ff0000;stroke-width:1.5;" x="397.6" xlink:href="#mc225154b9b" y="150.005797"/>
      </g>
     </g>
     <g id="text_29">
      <!-- 5 -->
      <defs>
       <path d="M 10.796875 72.90625 
L 49.515625 72.90625 
L 49.515625 64.59375 
L 19.828125 64.59375 
L 19.828125 46.734375 
Q 21.96875 47.46875 24.109375 47.828125 
Q 26.265625 48.1875 28.421875 48.1875 
Q 40.625 48.1875 47.75 41.5 
Q 54.890625 34.8125 54.890625 23.390625 
Q 54.890625 11.625 47.5625 5.09375 
Q 40.234375 -1.421875 26.90625 -1.421875 
Q 22.3125 -1.421875 17.546875 -0.640625 
Q 12.796875 0.140625 7.71875 1.703125 
L 7.71875 11.625 
Q 12.109375 9.234375 16.796875 8.0625 
Q 21.484375 6.890625 26.703125 6.890625 
Q 35.15625 6.890625 40.078125 11.328125 
Q 45.015625 15.765625 45.015625 23.390625 
Q 45.015625 31 40.078125 35.4375 
Q 35.15625 39.890625 26.703125 39.890625 
Q 22.75 39.890625 18.8125 39.015625 
Q 14.890625 38.140625 10.796875 36.28125 
z
" id="DejaVuSans-53"/>
      </defs>
      <g style="fill:#ff0000;" transform="translate(403.6 153.045172)scale(0.08 -0.08)">
       <use xlink:href="#DejaVuSans-53"/>
      </g>
     </g>
    </g>
    <g id="ytick_46">
     <g id="line2d_140">
      <g>
       <use style="fill:#ff0000;stroke:#ff0000;stroke-width:1.5;" x="397.6" xlink:href="#mc225154b9b" y="121.250125"/>
      </g>
     </g>
     <g id="text_30">
      <!-- 10 -->
      <defs>
       <path d="M 12.40625 8.296875 
L 28.515625 8.296875 
L 28.515625 63.921875 
L 10.984375 60.40625 
L 10.984375 69.390625 
L 28.421875 72.90625 
L 38.28125 72.90625 
L 38.28125 8.296875 
L 54.390625 8.296875 
L 54.390625 0 
L 12.40625 0 
z
" id="DejaVuSans-49"/>
      </defs>
      <g style="fill:#ff0000;" transform="translate(403.6 124.2895)scale(0.08 -0.08)">
       <use xlink:href="#DejaVuSans-49"/>
       <use x="63.623047" xlink:href="#DejaVuSans-48"/>
      </g>
     </g>
    </g>
    <g id="ytick_47">
     <g id="line2d_141">
      <g>
       <use style="fill:#ff0000;stroke:#ff0000;stroke-width:1.5;" x="397.6" xlink:href="#mc225154b9b" y="92.494452"/>
      </g>
     </g>
     <g id="text_31">
      <!-- 15 -->
      <g style="fill:#ff0000;" transform="translate(403.6 95.533827)scale(0.08 -0.08)">
       <use xlink:href="#DejaVuSans-49"/>
       <use x="63.623047" xlink:href="#DejaVuSans-53"/>
      </g>
     </g>
    </g>
    <g id="ytick_48">
     <g id="line2d_142">
      <g>
       <use style="fill:#ff0000;stroke:#ff0000;stroke-width:1.5;" x="397.6" xlink:href="#mc225154b9b" y="63.738779"/>
      </g>
     </g>
     <g id="text_32">
      <!-- 20 -->
      <g style="fill:#ff0000;" transform="translate(403.6 66.778154)scale(0.08 -0.08)">
       <use xlink:href="#DejaVuSans-50"/>
       <use x="63.623047" xlink:href="#DejaVuSans-48"/>
      </g>
     </g>
    </g>
    <g id="ytick_49">
     <g id="line2d_143">
      <g>
       <use style="fill:#ff0000;stroke:#ff0000;stroke-width:1.5;" x="397.6" xlink:href="#mc225154b9b" y="34.983106"/>
      </g>
     </g>
     <g id="text_33">
      <!-- 25 -->
      <g style="fill:#ff0000;" transform="translate(403.6 38.022481)scale(0.08 -0.08)">
       <use xlink:href="#DejaVuSans-50"/>
       <use x="63.623047" xlink:href="#DejaVuSans-53"/>
      </g>
     </g>
    </g>
    <g id="ytick_50">
     <g id="line2d_144">
      <defs>
       <path d="M 0 0 
L 2 0 
" id="me4a926a54e" style="stroke:#ff0000;stroke-width:1.2;"/>
      </defs>
      <g>
       <use style="fill:#ff0000;stroke:#ff0000;stroke-width:1.2;" x="397.6" xlink:href="#me4a926a54e" y="173.010336"/>
      </g>
     </g>
    </g>
    <g id="ytick_51">
     <g id="line2d_145">
      <g>
       <use style="fill:#ff0000;stroke:#ff0000;stroke-width:1.2;" x="397.6" xlink:href="#me4a926a54e" y="167.259201"/>
      </g>
     </g>
    </g>
    <g id="ytick_52">
     <g id="line2d_146">
      <g>
       <use style="fill:#ff0000;stroke:#ff0000;stroke-width:1.2;" x="397.6" xlink:href="#me4a926a54e" y="161.508067"/>
      </g>
     </g>
    </g>
    <g id="ytick_53">
     <g id="line2d_147">
      <g>
       <use style="fill:#ff0000;stroke:#ff0000;stroke-width:1.2;" x="397.6" xlink:href="#me4a926a54e" y="155.756932"/>
      </g>
     </g>
    </g>
    <g id="ytick_54">
     <g id="line2d_148">
      <g>
       <use style="fill:#ff0000;stroke:#ff0000;stroke-width:1.2;" x="397.6" xlink:href="#me4a926a54e" y="144.254663"/>
      </g>
     </g>
    </g>
    <g id="ytick_55">
     <g id="line2d_149">
      <g>
       <use style="fill:#ff0000;stroke:#ff0000;stroke-width:1.2;" x="397.6" xlink:href="#me4a926a54e" y="138.503528"/>
      </g>
     </g>
    </g>
    <g id="ytick_56">
     <g id="line2d_150">
      <g>
       <use style="fill:#ff0000;stroke:#ff0000;stroke-width:1.2;" x="397.6" xlink:href="#me4a926a54e" y="132.752394"/>
      </g>
     </g>
    </g>
    <g id="ytick_57">
     <g id="line2d_151">
      <g>
       <use style="fill:#ff0000;stroke:#ff0000;stroke-width:1.2;" x="397.6" xlink:href="#me4a926a54e" y="127.001259"/>
      </g>
     </g>
    </g>
    <g id="ytick_58">
     <g id="line2d_152">
      <g>
       <use style="fill:#ff0000;stroke:#ff0000;stroke-width:1.2;" x="397.6" xlink:href="#me4a926a54e" y="115.49899"/>
      </g>
     </g>
    </g>
    <g id="ytick_59">
     <g id="line2d_153">
      <g>
       <use style="fill:#ff0000;stroke:#ff0000;stroke-width:1.2;" x="397.6" xlink:href="#me4a926a54e" y="109.747855"/>
      </g>
     </g>
    </g>
    <g id="ytick_60">
     <g id="line2d_154">
      <g>
       <use style="fill:#ff0000;stroke:#ff0000;stroke-width:1.2;" x="397.6" xlink:href="#me4a926a54e" y="103.996721"/>
      </g>
     </g>
    </g>
    <g id="ytick_61">
     <g id="line2d_155">
      <g>
       <use style="fill:#ff0000;stroke:#ff0000;stroke-width:1.2;" x="397.6" xlink:href="#me4a926a54e" y="98.245586"/>
      </g>
     </g>
    </g>
    <g id="ytick_62">
     <g id="line2d_156">
      <g>
       <use style="fill:#ff0000;stroke:#ff0000;stroke-width:1.2;" x="397.6" xlink:href="#me4a926a54e" y="86.743317"/>
      </g>
     </g>
    </g>
    <g id="ytick_63">
     <g id="line2d_157">
      <g>
       <use style="fill:#ff0000;stroke:#ff0000;stroke-width:1.2;" x="397.6" xlink:href="#me4a926a54e" y="80.992183"/>
      </g>
     </g>
    </g>
    <g id="ytick_64">
     <g id="line2d_158">
      <g>
       <use style="fill:#ff0000;stroke:#ff0000;stroke-width:1.2;" x="397.6" xlink:href="#me4a926a54e" y="75.241048"/>
      </g>
     </g>
    </g>
    <g id="ytick_65">
     <g id="line2d_159">
      <g>
       <use style="fill:#ff0000;stroke:#ff0000;stroke-width:1.2;" x="397.6" xlink:href="#me4a926a54e" y="69.489913"/>
      </g>
     </g>
    </g>
    <g id="ytick_66">
     <g id="line2d_160">
      <g>
       <use style="fill:#ff0000;stroke:#ff0000;stroke-width:1.2;" x="397.6" xlink:href="#me4a926a54e" y="57.987644"/>
      </g>
     </g>
    </g>
    <g id="ytick_67">
     <g id="line2d_161">
      <g>
       <use style="fill:#ff0000;stroke:#ff0000;stroke-width:1.2;" x="397.6" xlink:href="#me4a926a54e" y="52.23651"/>
      </g>
     </g>
    </g>
    <g id="ytick_68">
     <g id="line2d_162">
      <g>
       <use style="fill:#ff0000;stroke:#ff0000;stroke-width:1.2;" x="397.6" xlink:href="#me4a926a54e" y="46.485375"/>
      </g>
     </g>
    </g>
    <g id="ytick_69">
     <g id="line2d_163">
      <g>
       <use style="fill:#ff0000;stroke:#ff0000;stroke-width:1.2;" x="397.6" xlink:href="#me4a926a54e" y="40.73424"/>
      </g>
     </g>
    </g>
    <g id="ytick_70">
     <g id="line2d_164">
      <g>
       <use style="fill:#ff0000;stroke:#ff0000;stroke-width:1.2;" x="397.6" xlink:href="#me4a926a54e" y="29.231971"/>
      </g>
     </g>
    </g>
    <g id="ytick_71">
     <g id="line2d_165">
      <g>
       <use style="fill:#ff0000;stroke:#ff0000;stroke-width:1.2;" x="397.6" xlink:href="#me4a926a54e" y="23.480837"/>
      </g>
     </g>
    </g>
    <g id="text_34">
     <!-- secondary axis -->
     <defs>
      <path d="M 44.28125 53.078125 
L 44.28125 44.578125 
Q 40.484375 46.53125 36.375 47.5 
Q 32.28125 48.484375 27.875 48.484375 
Q 21.1875 48.484375 17.84375 46.4375 
Q 14.5 44.390625 14.5 40.28125 
Q 14.5 37.15625 16.890625 35.375 
Q 19.28125 33.59375 26.515625 31.984375 
L 29.59375 31.296875 
Q 39.15625 29.25 43.1875 25.515625 
Q 47.21875 21.78125 47.21875 15.09375 
Q 47.21875 7.46875 41.1875 3.015625 
Q 35.15625 -1.421875 24.609375 -1.421875 
Q 20.21875 -1.421875 15.453125 -0.5625 
Q 10.6875 0.296875 5.421875 2 
L 5.421875 11.28125 
Q 10.40625 8.6875 15.234375 7.390625 
Q 20.0625 6.109375 24.8125 6.109375 
Q 31.15625 6.109375 34.5625 8.28125 
Q 37.984375 10.453125 37.984375 14.40625 
Q 37.984375 18.0625 35.515625 20.015625 
Q 33.0625 21.96875 24.703125 23.78125 
L 21.578125 24.515625 
Q 13.234375 26.265625 9.515625 29.90625 
Q 5.8125 33.546875 5.8125 39.890625 
Q 5.8125 47.609375 11.28125 51.796875 
Q 16.75 56 26.8125 56 
Q 31.78125 56 36.171875 55.265625 
Q 40.578125 54.546875 44.28125 53.078125 
z
" id="DejaVuSans-115"/>
      <path d="M 48.78125 52.59375 
L 48.78125 44.1875 
Q 44.96875 46.296875 41.140625 47.34375 
Q 37.3125 48.390625 33.40625 48.390625 
Q 24.65625 48.390625 19.8125 42.84375 
Q 14.984375 37.3125 14.984375 27.296875 
Q 14.984375 17.28125 19.8125 11.734375 
Q 24.65625 6.203125 33.40625 6.203125 
Q 37.3125 6.203125 41.140625 7.25 
Q 44.96875 8.296875 48.78125 10.40625 
L 48.78125 2.09375 
Q 45.015625 0.34375 40.984375 -0.53125 
Q 36.96875 -1.421875 32.421875 -1.421875 
Q 20.0625 -1.421875 12.78125 6.34375 
Q 5.515625 14.109375 5.515625 27.296875 
Q 5.515625 40.671875 12.859375 48.328125 
Q 20.21875 56 33.015625 56 
Q 37.15625 56 41.109375 55.140625 
Q 45.0625 54.296875 48.78125 52.59375 
z
" id="DejaVuSans-99"/>
      <path d="M 30.609375 48.390625 
Q 23.390625 48.390625 19.1875 42.75 
Q 14.984375 37.109375 14.984375 27.296875 
Q 14.984375 17.484375 19.15625 11.84375 
Q 23.34375 6.203125 30.609375 6.203125 
Q 37.796875 6.203125 41.984375 11.859375 
Q 46.1875 17.53125 46.1875 27.296875 
Q 46.1875 37.015625 41.984375 42.703125 
Q 37.796875 48.390625 30.609375 48.390625 
z
M 30.609375 56 
Q 42.328125 56 49.015625 48.375 
Q 55.71875 40.765625 55.71875 27.296875 
Q 55.71875 13.875 49.015625 6.21875 
Q 42.328125 -1.421875 30.609375 -1.421875 
Q 18.84375 -1.421875 12.171875 6.21875 
Q 5.515625 13.875 5.515625 27.296875 
Q 5.515625 40.765625 12.171875 48.375 
Q 18.84375 56 30.609375 56 
z
" id="DejaVuSans-111"/>
      <path d="M 54.890625 33.015625 
L 54.890625 0 
L 45.90625 0 
L 45.90625 32.71875 
Q 45.90625 40.484375 42.875 44.328125 
Q 39.84375 48.1875 33.796875 48.1875 
Q 26.515625 48.1875 22.3125 43.546875 
Q 18.109375 38.921875 18.109375 30.90625 
L 18.109375 0 
L 9.078125 0 
L 9.078125 54.6875 
L 18.109375 54.6875 
L 18.109375 46.1875 
Q 21.34375 51.125 25.703125 53.5625 
Q 30.078125 56 35.796875 56 
Q 45.21875 56 50.046875 50.171875 
Q 54.890625 44.34375 54.890625 33.015625 
z
" id="DejaVuSans-110"/>
      <path d="M 45.40625 46.390625 
L 45.40625 75.984375 
L 54.390625 75.984375 
L 54.390625 0 
L 45.40625 0 
L 45.40625 8.203125 
Q 42.578125 3.328125 38.25 0.953125 
Q 33.9375 -1.421875 27.875 -1.421875 
Q 17.96875 -1.421875 11.734375 6.484375 
Q 5.515625 14.40625 5.515625 27.296875 
Q 5.515625 40.1875 11.734375 48.09375 
Q 17.96875 56 27.875 56 
Q 33.9375 56 38.25 53.625 
Q 42.578125 51.265625 45.40625 46.390625 
z
M 14.796875 27.296875 
Q 14.796875 17.390625 18.875 11.75 
Q 22.953125 6.109375 30.078125 6.109375 
Q 37.203125 6.109375 41.296875 11.75 
Q 45.40625 17.390625 45.40625 27.296875 
Q 45.40625 37.203125 41.296875 42.84375 
Q 37.203125 48.484375 30.078125 48.484375 
Q 22.953125 48.484375 18.875 42.84375 
Q 14.796875 37.203125 14.796875 27.296875 
z
" id="DejaVuSans-100"/>
      <path d="M 41.109375 46.296875 
Q 39.59375 47.171875 37.8125 47.578125 
Q 36.03125 48 33.890625 48 
Q 26.265625 48 22.1875 43.046875 
Q 18.109375 38.09375 18.109375 28.8125 
L 18.109375 0 
L 9.078125 0 
L 9.078125 54.6875 
L 18.109375 54.6875 
L 18.109375 46.1875 
Q 20.953125 51.171875 25.484375 53.578125 
Q 30.03125 56 36.53125 56 
Q 37.453125 56 38.578125 55.875 
Q 39.703125 55.765625 41.0625 55.515625 
z
" id="DejaVuSans-114"/>
      <path d="M 9.421875 54.6875 
L 18.40625 54.6875 
L 18.40625 0 
L 9.421875 0 
z
M 9.421875 75.984375 
L 18.40625 75.984375 
L 18.40625 64.59375 
L 9.421875 64.59375 
z
" id="DejaVuSans-105"/>
     </defs>
     <g style="fill:#ff0000;" transform="translate(422.85875 127.614375)rotate(-90)scale(0.08 -0.08)">
      <use xlink:href="#DejaVuSans-115"/>
      <use x="52.099609" xlink:href="#DejaVuSans-101"/>
      <use x="113.623047" xlink:href="#DejaVuSans-99"/>
      <use x="168.603516" xlink:href="#DejaVuSans-111"/>
      <use x="229.785156" xlink:href="#DejaVuSans-110"/>
      <use x="293.164062" xlink:href="#DejaVuSans-100"/>
      <use x="356.640625" xlink:href="#DejaVuSans-97"/>
      <use x="417.919922" xlink:href="#DejaVuSans-114"/>
      <use x="459.033203" xlink:href="#DejaVuSans-121"/>
      <use x="518.212891" xlink:href="#DejaVuSans-32"/>
      <use x="550" xlink:href="#DejaVuSans-97"/>
      <use x="611.279297" xlink:href="#DejaVuSans-120"/>
      <use x="670.458984" xlink:href="#DejaVuSans-105"/>
      <use x="698.242188" xlink:href="#DejaVuSans-115"/>
     </g>
    </g>
   </g>
   <g id="line2d_166">
    <path clip-path="url(#p73be3f35c2)" d="M 238.2 177.3 
L 239.810101 176.657755 
L 241.420202 174.988266 
L 243.030303 176.121516 
L 244.640404 177.214295 
L 246.250505 172.660931 
L 247.860606 169.839018 
L 249.470707 170.416115 
L 251.080808 169.940801 
L 252.690909 169.331738 
L 254.30101 168.793512 
L 255.911111 166.405106 
L 257.521212 163.470793 
L 259.131313 161.938478 
L 260.741414 158.010234 
L 262.351515 154.552972 
L 263.961616 153.339348 
L 265.571717 148.972819 
L 267.181818 148.567783 
L 268.791919 146.822166 
L 270.40202 146.84904 
L 272.012121 147.349086 
L 273.622222 146.731405 
L 275.232323 147.403136 
L 276.842424 148.254928 
L 278.452525 143.890045 
L 280.062626 142.344341 
L 281.672727 137.770353 
L 283.282828 133.651699 
L 284.892929 131.39693 
L 286.50303 128.095852 
L 288.113131 127.403341 
L 289.723232 124.686197 
L 291.333333 124.186581 
L 292.943434 121.316422 
L 294.553535 122.36339 
L 296.163636 118.450262 
L 297.773737 115.238554 
L 299.383838 114.972683 
L 300.993939 111.259105 
L 302.60404 110.477695 
L 304.214141 108.327124 
L 305.824242 104.404195 
L 307.434343 103.719676 
L 309.044444 100.876031 
L 310.654545 98.332902 
L 312.264646 96.179768 
L 313.874747 94.24771 
L 315.484848 91.665784 
L 317.094949 89.19095 
L 318.705051 87.491974 
L 320.315152 86.475685 
L 321.925253 86.228841 
L 323.535354 86.973727 
L 325.145455 86.161382 
L 326.755556 87.201308 
L 328.365657 86.463909 
L 329.975758 84.822218 
L 331.585859 83.684184 
L 333.19596 79.48328 
L 334.806061 80.569549 
L 336.416162 80.320413 
L 338.026263 81.151118 
L 339.636364 81.056469 
L 341.246465 78.235535 
L 342.856566 76.319946 
L 344.466667 72.963079 
L 346.076768 70.529099 
L 347.686869 66.783701 
L 349.29697 62.881319 
L 350.907071 61.686656 
L 352.517172 58.172455 
L 354.127273 55.526531 
L 355.737374 55.663101 
L 357.347475 56.041965 
L 358.957576 56.631016 
L 360.567677 55.42544 
L 362.177778 54.418245 
L 363.787879 54.26597 
L 365.39798 50.53616 
L 367.008081 50.095893 
L 368.618182 50.561616 
L 370.228283 49.720042 
L 371.838384 46.73918 
L 373.448485 44.331044 
L 375.058586 40.043629 
L 376.668687 38.26927 
L 378.278788 37.117946 
L 379.888889 36.70904 
L 381.49899 37.166781 
L 383.109091 34.193934 
L 384.719192 35.341596 
L 386.329293 33.007746 
L 387.939394 33.382433 
L 389.549495 29.936657 
L 391.159596 27.407487 
L 392.769697 23.057775 
L 394.379798 21.172616 
L 395.989899 21.039339 
L 397.6 17.9 
" style="fill:none;stroke:#ff0000;stroke-linecap:square;stroke-width:3;"/>
   </g>
   <g id="patch_12">
    <path d="M 397.6 177.3 
L 397.6 17.9 
" style="fill:none;stroke:#ff0000;stroke-linecap:square;stroke-linejoin:miter;stroke-width:1.5;"/>
   </g>
  </g>
  <g id="text_35">
   <!-- Applying new rc settings -->
   <defs>
    <path d="M 53.421875 13.28125 
L 24.03125 13.28125 
L 19.390625 0 
L 0.484375 0 
L 27.484375 72.90625 
L 49.90625 72.90625 
L 76.90625 0 
L 58.015625 0 
z
M 28.71875 26.8125 
L 48.6875 26.8125 
L 38.71875 55.8125 
z
" id="DejaVuSans-Bold-65"/>
    <path d="M 25.875 7.90625 
L 25.875 -20.796875 
L 8.40625 -20.796875 
L 8.40625 54.6875 
L 25.875 54.6875 
L 25.875 46.6875 
Q 29.5 51.46875 33.890625 53.734375 
Q 38.28125 56 44 56 
Q 54.109375 56 60.59375 47.96875 
Q 67.09375 39.9375 67.09375 27.296875 
Q 67.09375 14.65625 60.59375 6.609375 
Q 54.109375 -1.421875 44 -1.421875 
Q 38.28125 -1.421875 33.890625 0.84375 
Q 29.5 3.125 25.875 7.90625 
z
M 37.5 43.3125 
Q 31.890625 43.3125 28.875 39.1875 
Q 25.875 35.0625 25.875 27.296875 
Q 25.875 19.53125 28.875 15.40625 
Q 31.890625 11.28125 37.5 11.28125 
Q 43.109375 11.28125 46.0625 15.375 
Q 49.03125 19.484375 49.03125 27.296875 
Q 49.03125 35.109375 46.0625 39.203125 
Q 43.109375 43.3125 37.5 43.3125 
z
" id="DejaVuSans-Bold-112"/>
    <path d="M 8.40625 75.984375 
L 25.875 75.984375 
L 25.875 0 
L 8.40625 0 
z
" id="DejaVuSans-Bold-108"/>
    <path d="M 1.21875 54.6875 
L 18.703125 54.6875 
L 33.40625 17.578125 
L 45.90625 54.6875 
L 63.375 54.6875 
L 40.375 -5.171875 
Q 36.921875 -14.3125 32.296875 -17.9375 
Q 27.6875 -21.578125 20.125 -21.578125 
L 10.015625 -21.578125 
L 10.015625 -10.109375 
L 15.484375 -10.109375 
Q 19.921875 -10.109375 21.9375 -8.6875 
Q 23.96875 -7.28125 25.09375 -3.609375 
L 25.59375 -2.09375 
z
" id="DejaVuSans-Bold-121"/>
    <path d="M 8.40625 54.6875 
L 25.875 54.6875 
L 25.875 0 
L 8.40625 0 
z
M 8.40625 75.984375 
L 25.875 75.984375 
L 25.875 61.71875 
L 8.40625 61.71875 
z
" id="DejaVuSans-Bold-105"/>
    <path d="M 63.375 33.296875 
L 63.375 0 
L 45.796875 0 
L 45.796875 5.421875 
L 45.796875 25.484375 
Q 45.796875 32.5625 45.484375 35.25 
Q 45.171875 37.9375 44.390625 39.203125 
Q 43.359375 40.921875 41.59375 41.875 
Q 39.84375 42.828125 37.59375 42.828125 
Q 32.125 42.828125 29 38.59375 
Q 25.875 34.375 25.875 26.90625 
L 25.875 0 
L 8.40625 0 
L 8.40625 54.6875 
L 25.875 54.6875 
L 25.875 46.6875 
Q 29.828125 51.46875 34.265625 53.734375 
Q 38.71875 56 44.09375 56 
Q 53.5625 56 58.46875 50.1875 
Q 63.375 44.390625 63.375 33.296875 
z
" id="DejaVuSans-Bold-110"/>
    <path d="M 45.609375 9.28125 
Q 42 4.5 37.640625 2.25 
Q 33.296875 0 27.59375 0 
Q 17.578125 0 11.03125 7.875 
Q 4.5 15.765625 4.5 27.984375 
Q 4.5 40.234375 11.03125 48.0625 
Q 17.578125 55.90625 27.59375 55.90625 
Q 33.296875 55.90625 37.640625 53.65625 
Q 42 51.421875 45.609375 46.578125 
L 45.609375 54.6875 
L 63.1875 54.6875 
L 63.1875 5.515625 
Q 63.1875 -7.671875 54.859375 -14.625 
Q 46.53125 -21.578125 30.71875 -21.578125 
Q 25.59375 -21.578125 20.796875 -20.796875 
Q 16.015625 -20.015625 11.1875 -18.40625 
L 11.1875 -4.78125 
Q 15.765625 -7.421875 20.15625 -8.71875 
Q 24.5625 -10.015625 29 -10.015625 
Q 37.59375 -10.015625 41.59375 -6.25 
Q 45.609375 -2.484375 45.609375 5.515625 
z
M 34.078125 43.3125 
Q 28.65625 43.3125 25.625 39.296875 
Q 22.609375 35.296875 22.609375 27.984375 
Q 22.609375 20.453125 25.53125 16.578125 
Q 28.46875 12.703125 34.078125 12.703125 
Q 39.546875 12.703125 42.578125 16.703125 
Q 45.609375 20.703125 45.609375 27.984375 
Q 45.609375 35.296875 42.578125 39.296875 
Q 39.546875 43.3125 34.078125 43.3125 
z
" id="DejaVuSans-Bold-103"/>
    <path id="DejaVuSans-Bold-32"/>
    <path d="M 62.984375 27.484375 
L 62.984375 22.515625 
L 22.125 22.515625 
Q 22.75 16.359375 26.5625 13.28125 
Q 30.375 10.203125 37.203125 10.203125 
Q 42.71875 10.203125 48.5 11.84375 
Q 54.296875 13.484375 60.40625 16.796875 
L 60.40625 3.328125 
Q 54.203125 0.984375 48 -0.21875 
Q 41.796875 -1.421875 35.59375 -1.421875 
Q 20.75 -1.421875 12.515625 6.125 
Q 4.296875 13.671875 4.296875 27.296875 
Q 4.296875 40.671875 12.375 48.328125 
Q 20.453125 56 34.625 56 
Q 47.515625 56 55.25 48.234375 
Q 62.984375 40.484375 62.984375 27.484375 
z
M 45.015625 33.296875 
Q 45.015625 38.28125 42.109375 41.328125 
Q 39.203125 44.390625 34.515625 44.390625 
Q 29.4375 44.390625 26.265625 41.53125 
Q 23.09375 38.671875 22.3125 33.296875 
z
" id="DejaVuSans-Bold-101"/>
    <path d="M 3.515625 54.6875 
L 20.515625 54.6875 
L 29.6875 17 
L 38.921875 54.6875 
L 53.515625 54.6875 
L 62.703125 17.390625 
L 71.921875 54.6875 
L 88.921875 54.6875 
L 74.515625 0 
L 55.421875 0 
L 46.1875 37.59375 
L 37.015625 0 
L 17.921875 0 
z
" id="DejaVuSans-Bold-119"/>
    <path d="M 49.03125 39.796875 
Q 46.734375 40.875 44.453125 41.375 
Q 42.1875 41.890625 39.890625 41.890625 
Q 33.15625 41.890625 29.515625 37.5625 
Q 25.875 33.25 25.875 25.203125 
L 25.875 0 
L 8.40625 0 
L 8.40625 54.6875 
L 25.875 54.6875 
L 25.875 45.703125 
Q 29.25 51.078125 33.609375 53.53125 
Q 37.984375 56 44.09375 56 
Q 44.96875 56 45.984375 55.921875 
Q 47.015625 55.859375 48.96875 55.609375 
z
" id="DejaVuSans-Bold-114"/>
    <path d="M 52.59375 52.984375 
L 52.59375 38.71875 
Q 49.03125 41.15625 45.4375 42.328125 
Q 41.84375 43.5 37.984375 43.5 
Q 30.671875 43.5 26.59375 39.234375 
Q 22.515625 34.96875 22.515625 27.296875 
Q 22.515625 19.625 26.59375 15.34375 
Q 30.671875 11.078125 37.984375 11.078125 
Q 42.09375 11.078125 45.78125 12.296875 
Q 49.46875 13.53125 52.59375 15.921875 
L 52.59375 1.609375 
Q 48.484375 0.09375 44.265625 -0.65625 
Q 40.046875 -1.421875 35.796875 -1.421875 
Q 21 -1.421875 12.640625 6.171875 
Q 4.296875 13.765625 4.296875 27.296875 
Q 4.296875 40.828125 12.640625 48.40625 
Q 21 56 35.796875 56 
Q 40.09375 56 44.265625 55.25 
Q 48.4375 54.5 52.59375 52.984375 
z
" id="DejaVuSans-Bold-99"/>
    <path d="M 51.125 52.984375 
L 51.125 39.703125 
Q 45.515625 42.046875 40.28125 43.21875 
Q 35.0625 44.390625 30.421875 44.390625 
Q 25.4375 44.390625 23.015625 43.140625 
Q 20.609375 41.890625 20.609375 39.3125 
Q 20.609375 37.203125 22.4375 36.078125 
Q 24.265625 34.96875 29 34.421875 
L 32.078125 33.984375 
Q 45.515625 32.28125 50.140625 28.375 
Q 54.78125 24.46875 54.78125 16.109375 
Q 54.78125 7.375 48.328125 2.96875 
Q 41.890625 -1.421875 29.109375 -1.421875 
Q 23.6875 -1.421875 17.890625 -0.5625 
Q 12.109375 0.296875 6 2 
L 6 15.28125 
Q 11.234375 12.75 16.71875 11.46875 
Q 22.21875 10.203125 27.875 10.203125 
Q 33.015625 10.203125 35.59375 11.609375 
Q 38.1875 13.03125 38.1875 15.828125 
Q 38.1875 18.171875 36.40625 19.3125 
Q 34.625 20.453125 29.296875 21.09375 
L 26.21875 21.484375 
Q 14.546875 22.953125 9.859375 26.90625 
Q 5.171875 30.859375 5.171875 38.921875 
Q 5.171875 47.609375 11.125 51.796875 
Q 17.09375 56 29.390625 56 
Q 34.234375 56 39.546875 55.265625 
Q 44.875 54.546875 51.125 52.984375 
z
" id="DejaVuSans-Bold-115"/>
    <path d="M 27.484375 70.21875 
L 27.484375 54.6875 
L 45.515625 54.6875 
L 45.515625 42.1875 
L 27.484375 42.1875 
L 27.484375 19 
Q 27.484375 15.1875 29 13.84375 
Q 30.515625 12.5 35.015625 12.5 
L 44 12.5 
L 44 0 
L 29 0 
Q 18.65625 0 14.328125 4.3125 
Q 10.015625 8.640625 10.015625 19 
L 10.015625 42.1875 
L 1.3125 42.1875 
L 1.3125 54.6875 
L 10.015625 54.6875 
L 10.015625 70.21875 
z
" id="DejaVuSans-Bold-116"/>
   </defs>
   <g transform="translate(153.755 13.257969)scale(0.09 -0.09)">
    <use xlink:href="#DejaVuSans-Bold-65"/>
    <use x="77.392578" xlink:href="#DejaVuSans-Bold-112"/>
    <use x="148.974609" xlink:href="#DejaVuSans-Bold-112"/>
    <use x="220.556641" xlink:href="#DejaVuSans-Bold-108"/>
    <use x="254.833984" xlink:href="#DejaVuSans-Bold-121"/>
    <use x="320.019531" xlink:href="#DejaVuSans-Bold-105"/>
    <use x="354.296875" xlink:href="#DejaVuSans-Bold-110"/>
    <use x="425.488281" xlink:href="#DejaVuSans-Bold-103"/>
    <use x="497.070312" xlink:href="#DejaVuSans-Bold-32"/>
    <use x="531.884766" xlink:href="#DejaVuSans-Bold-110"/>
    <use x="603.076172" xlink:href="#DejaVuSans-Bold-101"/>
    <use x="670.898438" xlink:href="#DejaVuSans-Bold-119"/>
    <use x="763.28125" xlink:href="#DejaVuSans-Bold-32"/>
    <use x="798.095703" xlink:href="#DejaVuSans-Bold-114"/>
    <use x="847.412109" xlink:href="#DejaVuSans-Bold-99"/>
    <use x="906.689453" xlink:href="#DejaVuSans-Bold-32"/>
    <use x="941.503906" xlink:href="#DejaVuSans-Bold-115"/>
    <use x="1001.025391" xlink:href="#DejaVuSans-Bold-101"/>
    <use x="1068.847656" xlink:href="#DejaVuSans-Bold-116"/>
    <use x="1116.650391" xlink:href="#DejaVuSans-Bold-116"/>
    <use x="1164.453125" xlink:href="#DejaVuSans-Bold-105"/>
    <use x="1198.730469" xlink:href="#DejaVuSans-Bold-110"/>
    <use x="1269.921875" xlink:href="#DejaVuSans-Bold-103"/>
    <use x="1341.503906" xlink:href="#DejaVuSans-Bold-115"/>
   </g>
  </g>
 </g>
 <defs>
  <clipPath id="pcd1821b1fb">
   <rect height="159.4" width="159.4" x="36" y="17.9"/>
  </clipPath>
  <clipPath id="p73be3f35c2">
   <rect height="159.4" width="159.4" x="238.2" y="17.9"/>
  </clipPath>
 </defs>
 <defs>
  <pattern height="72" id="hf2f0d75546" patternUnits="userSpaceOnUse" width="72" x="0" y="0">
   <rect fill="#adb5bd" height="73" width="73" x="0" y="0"/>
   <path d="M -36 36 
L 36 -36 
M -32 40 
L 40 -32 
M -28 44 
L 44 -28 
M -24 48 
L 48 -24 
M -20 52 
L 52 -20 
M -16 56 
L 56 -16 
M -12 60 
L 60 -12 
M -8 64 
L 64 -8 
M -4 68 
L 68 -4 
M 0 72 
L 72 0 
M 4 76 
L 76 4 
M 8 80 
L 80 8 
M 12 84 
L 84 12 
M 16 88 
L 88 16 
M 20 92 
L 92 20 
M 24 96 
L 96 24 
M 28 100 
L 100 28 
M 32 104 
L 104 32 
M 36 108 
L 108 36 
M -36 36 
L 36 108 
M -32 32 
L 40 104 
M -28 28 
L 44 100 
M -24 24 
L 48 96 
M -20 20 
L 52 92 
M -16 16 
L 56 88 
M -12 12 
L 60 84 
M -8 8 
L 64 80 
M -4 4 
L 68 76 
M 0 0 
L 72 72 
M 4 -4 
L 76 68 
M 8 -8 
L 80 64 
M 12 -12 
L 84 60 
M 16 -16 
L 88 56 
M 20 -20 
L 92 52 
M 24 -24 
L 96 48 
M 28 -28 
L 100 44 
M 32 -32 
L 104 40 
M 36 -36 
L 108 36 
" style="fill:#ffffff;stroke:#ffffff;stroke-linecap:butt;stroke-linejoin:miter;stroke-width:1.5;"/>
  </pattern>
 </defs>
</svg>
