<?xml version="1.0" encoding="utf-8" standalone="no"?>
<!DOCTYPE svg PUBLIC "-//W3C//DTD SVG 1.1//EN"
  "http://www.w3.org/Graphics/SVG/1.1/DTD/svg11.dtd">
<!-- Created with matplotlib (https://matplotlib.org/) -->
<svg height="197.74pt" version="1.1" viewBox="0 0 373.778571 197.74" width="373.778571pt" xmlns="http://www.w3.org/2000/svg" xmlns:xlink="http://www.w3.org/1999/xlink">
 <defs>
  <style type="text/css">
*{stroke-linecap:butt;stroke-linejoin:round;}
  </style>
 </defs>
 <g id="figure_1">
  <g id="patch_1">
   <path d="M 0 197.74 
L 373.778571 197.74 
L 373.778571 0 
L 0 0 
z
" style="fill:#f2f2f2;"/>
  </g>
  <g id="axes_1">
   <g id="patch_2">
    <path d="M 22.2 134.5 
L 180.6 134.5 
L 180.6 28.9 
L 22.2 28.9 
z
" style="fill:#ffffff;"/>
   </g>
   <g id="matplotlib.axis_1">
    <g id="xtick_1">
     <g id="line2d_1">
      <path clip-path="url(#p81a68b8fc9)" d="M 22.2 134.5 
L 22.2 28.9 
" style="fill:none;stroke:#000000;stroke-linecap:square;stroke-opacity:0.1;stroke-width:0.6;"/>
     </g>
     <g id="line2d_2">
      <defs>
       <path d="M 0 0 
L 0 4 
" id="mc03d0e0ff8" style="stroke:#000000;stroke-width:0.6;"/>
      </defs>
      <g>
       <use style="stroke:#000000;stroke-width:0.6;" x="22.2" xlink:href="#mc03d0e0ff8" y="134.5"/>
      </g>
     </g>
     <g id="text_1">
      <!-- 0 -->
      <defs>
       <path d="M 13.203125 34.90625 
Q 13.203125 37.5 13.25 40.640625 
Q 13.296875 43.796875 13.75 46.9375 
Q 14.203125 50.09375 15.046875 53.09375 
Q 15.90625 56.09375 17.546875 58.34375 
Q 19.203125 60.59375 21.703125 62 
Q 24.203125 63.40625 27.796875 63.40625 
Q 31.40625 63.40625 33.90625 62 
Q 36.40625 60.59375 38.046875 58.34375 
Q 39.703125 56.09375 40.546875 53.09375 
Q 41.40625 50.09375 41.84375 46.9375 
Q 42.296875 43.796875 42.34375 40.640625 
Q 42.40625 37.5 42.40625 34.90625 
Q 42.40625 30.90625 42.15625 25.953125 
Q 41.90625 21 40.546875 16.640625 
Q 39.203125 12.296875 36.203125 9.296875 
Q 33.203125 6.296875 27.796875 6.296875 
Q 22.40625 6.296875 19.40625 9.296875 
Q 16.40625 12.296875 15.046875 16.640625 
Q 13.703125 21 13.453125 25.953125 
Q 13.203125 30.90625 13.203125 34.90625 
z
M 4.203125 34.796875 
Q 4.203125 30.90625 4.390625 26.703125 
Q 4.59375 22.5 5.390625 18.5 
Q 6.203125 14.5 7.703125 10.953125 
Q 9.203125 7.40625 11.796875 4.703125 
Q 14.40625 2 18.34375 0.453125 
Q 22.296875 -1.09375 27.796875 -1.09375 
Q 33.40625 -1.09375 37.296875 0.453125 
Q 41.203125 2 43.796875 4.703125 
Q 46.40625 7.40625 47.90625 10.953125 
Q 49.40625 14.5 50.203125 18.5 
Q 51 22.5 51.203125 26.703125 
Q 51.40625 30.90625 51.40625 34.796875 
Q 51.40625 38.703125 51.203125 42.890625 
Q 51 47.09375 50.203125 51.09375 
Q 49.40625 55.09375 47.90625 58.6875 
Q 46.40625 62.296875 43.796875 65 
Q 41.203125 67.703125 37.25 69.296875 
Q 33.296875 70.90625 27.796875 70.90625 
Q 22.296875 70.90625 18.34375 69.296875 
Q 14.40625 67.703125 11.796875 65 
Q 9.203125 62.296875 7.703125 58.6875 
Q 6.203125 55.09375 5.390625 51.09375 
Q 4.59375 47.09375 4.390625 42.890625 
Q 4.203125 38.703125 4.203125 34.796875 
z
" id="HelveticaNeue-48"/>
      </defs>
      <g transform="translate(19.97625 146.2125)scale(0.08 -0.08)">
       <use xlink:href="#HelveticaNeue-48"/>
      </g>
     </g>
    </g>
    <g id="xtick_2">
     <g id="line2d_3">
      <path clip-path="url(#p81a68b8fc9)" d="M 57.4 134.5 
L 57.4 28.9 
" style="fill:none;stroke:#000000;stroke-linecap:square;stroke-opacity:0.1;stroke-width:0.6;"/>
     </g>
     <g id="line2d_4">
      <g>
       <use style="stroke:#000000;stroke-width:0.6;" x="57.4" xlink:href="#mc03d0e0ff8" y="134.5"/>
      </g>
     </g>
     <g id="text_2">
      <!-- 2 -->
      <defs>
       <path d="M 4.40625 45.796875 
L 12.90625 45.796875 
Q 12.796875 49 13.546875 52.140625 
Q 14.296875 55.296875 16 57.796875 
Q 17.703125 60.296875 20.34375 61.84375 
Q 23 63.40625 26.703125 63.40625 
Q 29.5 63.40625 32 62.5 
Q 34.5 61.59375 36.34375 59.890625 
Q 38.203125 58.203125 39.296875 55.84375 
Q 40.40625 53.5 40.40625 50.59375 
Q 40.40625 46.90625 39.25 44.09375 
Q 38.09375 41.296875 35.84375 38.890625 
Q 33.59375 36.5 30.1875 34.140625 
Q 26.796875 31.796875 22.296875 29 
Q 18.59375 26.796875 15.1875 24.296875 
Q 11.796875 21.796875 9.09375 18.5 
Q 6.40625 15.203125 4.65625 10.75 
Q 2.90625 6.296875 2.40625 0 
L 48.703125 0 
L 48.703125 7.5 
L 12.296875 7.5 
Q 12.90625 10.796875 14.84375 13.34375 
Q 16.796875 15.90625 19.546875 18.09375 
Q 22.296875 20.296875 25.59375 22.25 
Q 28.90625 24.203125 32.203125 26.203125 
Q 35.5 28.296875 38.59375 30.59375 
Q 41.703125 32.90625 44.09375 35.75 
Q 46.5 38.59375 47.953125 42.1875 
Q 49.40625 45.796875 49.40625 50.5 
Q 49.40625 55.5 47.65625 59.296875 
Q 45.90625 63.09375 42.90625 65.640625 
Q 39.90625 68.203125 35.84375 69.546875 
Q 31.796875 70.90625 27.203125 70.90625 
Q 21.59375 70.90625 17.1875 69 
Q 12.796875 67.09375 9.84375 63.75 
Q 6.90625 60.40625 5.5 55.796875 
Q 4.09375 51.203125 4.40625 45.796875 
z
" id="HelveticaNeue-50"/>
      </defs>
      <g transform="translate(55.17625 146.2125)scale(0.08 -0.08)">
       <use xlink:href="#HelveticaNeue-50"/>
      </g>
     </g>
    </g>
    <g id="xtick_3">
     <g id="line2d_5">
      <path clip-path="url(#p81a68b8fc9)" d="M 92.6 134.5 
L 92.6 28.9 
" style="fill:none;stroke:#000000;stroke-linecap:square;stroke-opacity:0.1;stroke-width:0.6;"/>
     </g>
     <g id="line2d_6">
      <g>
       <use style="stroke:#000000;stroke-width:0.6;" x="92.6" xlink:href="#mc03d0e0ff8" y="134.5"/>
      </g>
     </g>
     <g id="text_3">
      <!-- 4 -->
      <defs>
       <path d="M 33.90625 24.09375 
L 10.09375 24.09375 
L 33.703125 58.796875 
L 33.90625 58.796875 
z
M 41.90625 24.09375 
L 41.90625 70.90625 
L 35.09375 70.90625 
L 2.796875 24.796875 
L 2.796875 16.59375 
L 33.90625 16.59375 
L 33.90625 0 
L 41.90625 0 
L 41.90625 16.59375 
L 51.5 16.59375 
L 51.5 24.09375 
z
" id="HelveticaNeue-52"/>
      </defs>
      <g transform="translate(90.37625 146.2125)scale(0.08 -0.08)">
       <use xlink:href="#HelveticaNeue-52"/>
      </g>
     </g>
    </g>
    <g id="xtick_4">
     <g id="line2d_7">
      <path clip-path="url(#p81a68b8fc9)" d="M 127.8 134.5 
L 127.8 28.9 
" style="fill:none;stroke:#000000;stroke-linecap:square;stroke-opacity:0.1;stroke-width:0.6;"/>
     </g>
     <g id="line2d_8">
      <g>
       <use style="stroke:#000000;stroke-width:0.6;" x="127.8" xlink:href="#mc03d0e0ff8" y="134.5"/>
      </g>
     </g>
     <g id="text_4">
      <!-- 6 -->
      <defs>
       <path d="M 41.40625 52.796875 
L 49.90625 52.796875 
Q 49.09375 61.59375 43.890625 66.25 
Q 38.703125 70.90625 29.90625 70.90625 
Q 22.296875 70.90625 17.296875 67.703125 
Q 12.296875 64.5 9.296875 59.203125 
Q 6.296875 53.90625 5.046875 47.046875 
Q 3.796875 40.203125 3.796875 32.90625 
Q 3.796875 27.296875 4.640625 21.296875 
Q 5.5 15.296875 8.09375 10.296875 
Q 10.703125 5.296875 15.5 2.09375 
Q 20.296875 -1.09375 28.203125 -1.09375 
Q 34.90625 -1.09375 39.453125 1.15625 
Q 44 3.40625 46.75 6.84375 
Q 49.5 10.296875 50.703125 14.5 
Q 51.90625 18.703125 51.90625 22.59375 
Q 51.90625 27.5 50.40625 31.703125 
Q 48.90625 35.90625 46.15625 39 
Q 43.40625 42.09375 39.34375 43.84375 
Q 35.296875 45.59375 30.203125 45.59375 
Q 24.40625 45.59375 19.953125 43.390625 
Q 15.5 41.203125 12.5 36.296875 
L 12.296875 36.5 
Q 12.40625 40.59375 13.09375 45.296875 
Q 13.796875 50 15.640625 54.046875 
Q 17.5 58.09375 20.796875 60.75 
Q 24.09375 63.40625 29.5 63.40625 
Q 34.59375 63.40625 37.6875 60.5 
Q 40.796875 57.59375 41.40625 52.796875 
z
M 28.59375 38.09375 
Q 32.203125 38.09375 34.890625 36.796875 
Q 37.59375 35.5 39.390625 33.34375 
Q 41.203125 31.203125 42.046875 28.25 
Q 42.90625 25.296875 42.90625 22 
Q 42.90625 18.90625 41.953125 16.046875 
Q 41 13.203125 39.203125 11 
Q 37.40625 8.796875 34.75 7.546875 
Q 32.09375 6.296875 28.59375 6.296875 
Q 25.09375 6.296875 22.34375 7.546875 
Q 19.59375 8.796875 17.75 10.890625 
Q 15.90625 13 14.90625 15.890625 
Q 13.90625 18.796875 13.90625 22.09375 
Q 13.90625 25.40625 14.84375 28.34375 
Q 15.796875 31.296875 17.6875 33.4375 
Q 19.59375 35.59375 22.296875 36.84375 
Q 25 38.09375 28.59375 38.09375 
z
" id="HelveticaNeue-54"/>
      </defs>
      <g transform="translate(125.57625 146.2125)scale(0.08 -0.08)">
       <use xlink:href="#HelveticaNeue-54"/>
      </g>
     </g>
    </g>
    <g id="xtick_5">
     <g id="line2d_9">
      <path clip-path="url(#p81a68b8fc9)" d="M 163 134.5 
L 163 28.9 
" style="fill:none;stroke:#000000;stroke-linecap:square;stroke-opacity:0.1;stroke-width:0.6;"/>
     </g>
     <g id="line2d_10">
      <g>
       <use style="stroke:#000000;stroke-width:0.6;" x="163" xlink:href="#mc03d0e0ff8" y="134.5"/>
      </g>
     </g>
     <g id="text_5">
      <!-- 8 -->
      <defs>
       <path d="M 15.5 52.5 
Q 15.5 55.203125 16.5 57.203125 
Q 17.5 59.203125 19.140625 60.59375 
Q 20.796875 62 23.09375 62.703125 
Q 25.40625 63.40625 27.90625 63.40625 
Q 33.09375 63.40625 36.4375 60.65625 
Q 39.796875 57.90625 39.796875 52.5 
Q 39.796875 47.09375 36.5 44.09375 
Q 33.203125 41.09375 28.09375 41.09375 
Q 25.5 41.09375 23.203125 41.796875 
Q 20.90625 42.5 19.203125 43.890625 
Q 17.5 45.296875 16.5 47.4375 
Q 15.5 49.59375 15.5 52.5 
z
M 6.5 52.796875 
Q 6.5 48 9.203125 43.953125 
Q 11.90625 39.90625 16.40625 38.09375 
Q 10.40625 36 7.203125 31.34375 
Q 4 26.703125 4 20.40625 
Q 4 15 5.84375 10.953125 
Q 7.703125 6.90625 10.953125 4.203125 
Q 14.203125 1.5 18.59375 0.203125 
Q 23 -1.09375 28.09375 -1.09375 
Q 33 -1.09375 37.296875 0.296875 
Q 41.59375 1.703125 44.75 4.453125 
Q 47.90625 7.203125 49.75 11.203125 
Q 51.59375 15.203125 51.59375 20.40625 
Q 51.59375 27 48.5 31.546875 
Q 45.40625 36.09375 39 38.09375 
Q 43.5 40.09375 46.140625 44.046875 
Q 48.796875 48 48.796875 52.796875 
Q 48.796875 56.203125 47.59375 59.453125 
Q 46.40625 62.703125 43.84375 65.25 
Q 41.296875 67.796875 37.1875 69.34375 
Q 33.09375 70.90625 27.296875 70.90625 
Q 23.203125 70.90625 19.453125 69.703125 
Q 15.703125 68.5 12.796875 66.203125 
Q 9.90625 63.90625 8.203125 60.546875 
Q 6.5 57.203125 6.5 52.796875 
z
M 13 20 
Q 13 23.09375 14.140625 25.59375 
Q 15.296875 28.09375 17.34375 29.890625 
Q 19.40625 31.703125 22.15625 32.640625 
Q 24.90625 33.59375 28 33.59375 
Q 31 33.59375 33.640625 32.546875 
Q 36.296875 31.5 38.296875 29.703125 
Q 40.296875 27.90625 41.4375 25.453125 
Q 42.59375 23 42.59375 20.09375 
Q 42.59375 17.09375 41.546875 14.59375 
Q 40.5 12.09375 38.546875 10.25 
Q 36.59375 8.40625 33.9375 7.34375 
Q 31.296875 6.296875 28.09375 6.296875 
Q 21.5 6.296875 17.25 9.9375 
Q 13 13.59375 13 20 
z
" id="HelveticaNeue-56"/>
      </defs>
      <g transform="translate(160.77625 146.2125)scale(0.08 -0.08)">
       <use xlink:href="#HelveticaNeue-56"/>
      </g>
     </g>
    </g>
    <g id="xtick_6">
     <g id="line2d_11">
      <defs>
       <path d="M 0 0 
L 0 2 
" id="me359ca3f0d" style="stroke:#000000;stroke-width:0.48;"/>
      </defs>
      <g>
       <use style="stroke:#000000;stroke-width:0.48;" x="31" xlink:href="#me359ca3f0d" y="134.5"/>
      </g>
     </g>
    </g>
    <g id="xtick_7">
     <g id="line2d_12">
      <g>
       <use style="stroke:#000000;stroke-width:0.48;" x="39.8" xlink:href="#me359ca3f0d" y="134.5"/>
      </g>
     </g>
    </g>
    <g id="xtick_8">
     <g id="line2d_13">
      <g>
       <use style="stroke:#000000;stroke-width:0.48;" x="48.6" xlink:href="#me359ca3f0d" y="134.5"/>
      </g>
     </g>
    </g>
    <g id="xtick_9">
     <g id="line2d_14">
      <g>
       <use style="stroke:#000000;stroke-width:0.48;" x="66.2" xlink:href="#me359ca3f0d" y="134.5"/>
      </g>
     </g>
    </g>
    <g id="xtick_10">
     <g id="line2d_15">
      <g>
       <use style="stroke:#000000;stroke-width:0.48;" x="75" xlink:href="#me359ca3f0d" y="134.5"/>
      </g>
     </g>
    </g>
    <g id="xtick_11">
     <g id="line2d_16">
      <g>
       <use style="stroke:#000000;stroke-width:0.48;" x="83.8" xlink:href="#me359ca3f0d" y="134.5"/>
      </g>
     </g>
    </g>
    <g id="xtick_12">
     <g id="line2d_17">
      <g>
       <use style="stroke:#000000;stroke-width:0.48;" x="101.4" xlink:href="#me359ca3f0d" y="134.5"/>
      </g>
     </g>
    </g>
    <g id="xtick_13">
     <g id="line2d_18">
      <g>
       <use style="stroke:#000000;stroke-width:0.48;" x="110.2" xlink:href="#me359ca3f0d" y="134.5"/>
      </g>
     </g>
    </g>
    <g id="xtick_14">
     <g id="line2d_19">
      <g>
       <use style="stroke:#000000;stroke-width:0.48;" x="119" xlink:href="#me359ca3f0d" y="134.5"/>
      </g>
     </g>
    </g>
    <g id="xtick_15">
     <g id="line2d_20">
      <g>
       <use style="stroke:#000000;stroke-width:0.48;" x="136.6" xlink:href="#me359ca3f0d" y="134.5"/>
      </g>
     </g>
    </g>
    <g id="xtick_16">
     <g id="line2d_21">
      <g>
       <use style="stroke:#000000;stroke-width:0.48;" x="145.4" xlink:href="#me359ca3f0d" y="134.5"/>
      </g>
     </g>
    </g>
    <g id="xtick_17">
     <g id="line2d_22">
      <g>
       <use style="stroke:#000000;stroke-width:0.48;" x="154.2" xlink:href="#me359ca3f0d" y="134.5"/>
      </g>
     </g>
    </g>
    <g id="xtick_18">
     <g id="line2d_23">
      <g>
       <use style="stroke:#000000;stroke-width:0.48;" x="171.8" xlink:href="#me359ca3f0d" y="134.5"/>
      </g>
     </g>
    </g>
    <g id="xtick_19">
     <g id="line2d_24">
      <g>
       <use style="stroke:#000000;stroke-width:0.48;" x="180.6" xlink:href="#me359ca3f0d" y="134.5"/>
      </g>
     </g>
    </g>
   </g>
   <g id="matplotlib.axis_2">
    <g id="ytick_1">
     <g id="line2d_25">
      <path clip-path="url(#p81a68b8fc9)" d="M 22.2 113.455181 
L 180.6 113.455181 
" style="fill:none;stroke:#000000;stroke-linecap:square;stroke-opacity:0.1;stroke-width:0.6;"/>
     </g>
     <g id="line2d_26">
      <defs>
       <path d="M 0 0 
L -4 0 
" id="m74ad94728c" style="stroke:#000000;stroke-width:0.6;"/>
      </defs>
      <g>
       <use style="stroke:#000000;stroke-width:0.6;" x="22.2" xlink:href="#m74ad94728c" y="113.455181"/>
      </g>
     </g>
     <g id="text_6">
      <!-- 0 -->
      <g transform="translate(11.7525 116.311431)scale(0.08 -0.08)">
       <use xlink:href="#HelveticaNeue-48"/>
      </g>
     </g>
    </g>
    <g id="ytick_2">
     <g id="line2d_27">
      <path clip-path="url(#p81a68b8fc9)" d="M 22.2 92.046497 
L 180.6 92.046497 
" style="fill:none;stroke:#000000;stroke-linecap:square;stroke-opacity:0.1;stroke-width:0.6;"/>
     </g>
     <g id="line2d_28">
      <g>
       <use style="stroke:#000000;stroke-width:0.6;" x="22.2" xlink:href="#m74ad94728c" y="92.046497"/>
      </g>
     </g>
     <g id="text_7">
      <!-- 5 -->
      <defs>
       <path d="M 47 62.203125 
L 47 69.703125 
L 12 69.703125 
L 5.40625 32.90625 
L 12.703125 32.5 
Q 15.203125 35.5 18.453125 37.34375 
Q 21.703125 39.203125 25.90625 39.203125 
Q 29.5 39.203125 32.453125 38 
Q 35.40625 36.796875 37.5 34.640625 
Q 39.59375 32.5 40.75 29.546875 
Q 41.90625 26.59375 41.90625 23.09375 
Q 41.90625 18.90625 40.703125 15.75 
Q 39.5 12.59375 37.453125 10.5 
Q 35.40625 8.40625 32.65625 7.34375 
Q 29.90625 6.296875 26.90625 6.296875 
Q 23.703125 6.296875 21.046875 7.25 
Q 18.40625 8.203125 16.453125 9.953125 
Q 14.5 11.703125 13.34375 14.046875 
Q 12.203125 16.40625 12 19.09375 
L 3.5 19.09375 
Q 3.59375 14.296875 5.390625 10.5 
Q 7.203125 6.703125 10.296875 4.140625 
Q 13.40625 1.59375 17.453125 0.25 
Q 21.5 -1.09375 26.09375 -1.09375 
Q 32.296875 -1.09375 36.9375 0.84375 
Q 41.59375 2.796875 44.6875 6.09375 
Q 47.796875 9.40625 49.34375 13.65625 
Q 50.90625 17.90625 50.90625 22.40625 
Q 50.90625 28.5 49.09375 33.046875 
Q 47.296875 37.59375 44.1875 40.640625 
Q 41.09375 43.703125 36.890625 45.203125 
Q 32.703125 46.703125 28 46.703125 
Q 24.40625 46.703125 20.75 45.453125 
Q 17.09375 44.203125 14.796875 41.59375 
L 14.59375 41.796875 
L 18.40625 62.203125 
z
" id="HelveticaNeue-53"/>
      </defs>
      <g transform="translate(11.7525 94.902747)scale(0.08 -0.08)">
       <use xlink:href="#HelveticaNeue-53"/>
      </g>
     </g>
    </g>
    <g id="ytick_3">
     <g id="line2d_29">
      <path clip-path="url(#p81a68b8fc9)" d="M 22.2 70.637812 
L 180.6 70.637812 
" style="fill:none;stroke:#000000;stroke-linecap:square;stroke-opacity:0.1;stroke-width:0.6;"/>
     </g>
     <g id="line2d_30">
      <g>
       <use style="stroke:#000000;stroke-width:0.6;" x="22.2" xlink:href="#m74ad94728c" y="70.637812"/>
      </g>
     </g>
     <g id="text_8">
      <!-- 10 -->
      <defs>
       <path d="M 35.59375 0 
L 35.59375 70.90625 
L 29.09375 70.90625 
Q 28.40625 66.90625 26.5 64.296875 
Q 24.59375 61.703125 21.84375 60.203125 
Q 19.09375 58.703125 15.6875 58.140625 
Q 12.296875 57.59375 8.703125 57.59375 
L 8.703125 50.796875 
L 27.09375 50.796875 
L 27.09375 0 
z
" id="HelveticaNeue-49"/>
      </defs>
      <g transform="translate(7.305 73.494062)scale(0.08 -0.08)">
       <use xlink:href="#HelveticaNeue-49"/>
       <use x="55.599991" xlink:href="#HelveticaNeue-48"/>
      </g>
     </g>
    </g>
    <g id="ytick_4">
     <g id="line2d_31">
      <path clip-path="url(#p81a68b8fc9)" d="M 22.2 49.229128 
L 180.6 49.229128 
" style="fill:none;stroke:#000000;stroke-linecap:square;stroke-opacity:0.1;stroke-width:0.6;"/>
     </g>
     <g id="line2d_32">
      <g>
       <use style="stroke:#000000;stroke-width:0.6;" x="22.2" xlink:href="#m74ad94728c" y="49.229128"/>
      </g>
     </g>
     <g id="text_9">
      <!-- 15 -->
      <g transform="translate(7.305 52.085378)scale(0.08 -0.08)">
       <use xlink:href="#HelveticaNeue-49"/>
       <use x="55.599991" xlink:href="#HelveticaNeue-53"/>
      </g>
     </g>
    </g>
    <g id="ytick_5">
     <g id="line2d_33">
      <defs>
       <path d="M 0 0 
L -2 0 
" id="m0224e69bf1" style="stroke:#000000;stroke-width:0.48;"/>
      </defs>
      <g>
       <use style="stroke:#000000;stroke-width:0.48;" x="22.2" xlink:href="#m0224e69bf1" y="130.582129"/>
      </g>
     </g>
    </g>
    <g id="ytick_6">
     <g id="line2d_34">
      <g>
       <use style="stroke:#000000;stroke-width:0.48;" x="22.2" xlink:href="#m0224e69bf1" y="126.300392"/>
      </g>
     </g>
    </g>
    <g id="ytick_7">
     <g id="line2d_35">
      <g>
       <use style="stroke:#000000;stroke-width:0.48;" x="22.2" xlink:href="#m0224e69bf1" y="122.018655"/>
      </g>
     </g>
    </g>
    <g id="ytick_8">
     <g id="line2d_36">
      <g>
       <use style="stroke:#000000;stroke-width:0.48;" x="22.2" xlink:href="#m0224e69bf1" y="117.736918"/>
      </g>
     </g>
    </g>
    <g id="ytick_9">
     <g id="line2d_37">
      <g>
       <use style="stroke:#000000;stroke-width:0.48;" x="22.2" xlink:href="#m0224e69bf1" y="109.173444"/>
      </g>
     </g>
    </g>
    <g id="ytick_10">
     <g id="line2d_38">
      <g>
       <use style="stroke:#000000;stroke-width:0.48;" x="22.2" xlink:href="#m0224e69bf1" y="104.891707"/>
      </g>
     </g>
    </g>
    <g id="ytick_11">
     <g id="line2d_39">
      <g>
       <use style="stroke:#000000;stroke-width:0.48;" x="22.2" xlink:href="#m0224e69bf1" y="100.609971"/>
      </g>
     </g>
    </g>
    <g id="ytick_12">
     <g id="line2d_40">
      <g>
       <use style="stroke:#000000;stroke-width:0.48;" x="22.2" xlink:href="#m0224e69bf1" y="96.328234"/>
      </g>
     </g>
    </g>
    <g id="ytick_13">
     <g id="line2d_41">
      <g>
       <use style="stroke:#000000;stroke-width:0.48;" x="22.2" xlink:href="#m0224e69bf1" y="87.76476"/>
      </g>
     </g>
    </g>
    <g id="ytick_14">
     <g id="line2d_42">
      <g>
       <use style="stroke:#000000;stroke-width:0.48;" x="22.2" xlink:href="#m0224e69bf1" y="83.483023"/>
      </g>
     </g>
    </g>
    <g id="ytick_15">
     <g id="line2d_43">
      <g>
       <use style="stroke:#000000;stroke-width:0.48;" x="22.2" xlink:href="#m0224e69bf1" y="79.201286"/>
      </g>
     </g>
    </g>
    <g id="ytick_16">
     <g id="line2d_44">
      <g>
       <use style="stroke:#000000;stroke-width:0.48;" x="22.2" xlink:href="#m0224e69bf1" y="74.919549"/>
      </g>
     </g>
    </g>
    <g id="ytick_17">
     <g id="line2d_45">
      <g>
       <use style="stroke:#000000;stroke-width:0.48;" x="22.2" xlink:href="#m0224e69bf1" y="66.356076"/>
      </g>
     </g>
    </g>
    <g id="ytick_18">
     <g id="line2d_46">
      <g>
       <use style="stroke:#000000;stroke-width:0.48;" x="22.2" xlink:href="#m0224e69bf1" y="62.074339"/>
      </g>
     </g>
    </g>
    <g id="ytick_19">
     <g id="line2d_47">
      <g>
       <use style="stroke:#000000;stroke-width:0.48;" x="22.2" xlink:href="#m0224e69bf1" y="57.792602"/>
      </g>
     </g>
    </g>
    <g id="ytick_20">
     <g id="line2d_48">
      <g>
       <use style="stroke:#000000;stroke-width:0.48;" x="22.2" xlink:href="#m0224e69bf1" y="53.510865"/>
      </g>
     </g>
    </g>
    <g id="ytick_21">
     <g id="line2d_49">
      <g>
       <use style="stroke:#000000;stroke-width:0.48;" x="22.2" xlink:href="#m0224e69bf1" y="44.947391"/>
      </g>
     </g>
    </g>
    <g id="ytick_22">
     <g id="line2d_50">
      <g>
       <use style="stroke:#000000;stroke-width:0.48;" x="22.2" xlink:href="#m0224e69bf1" y="40.665654"/>
      </g>
     </g>
    </g>
    <g id="ytick_23">
     <g id="line2d_51">
      <g>
       <use style="stroke:#000000;stroke-width:0.48;" x="22.2" xlink:href="#m0224e69bf1" y="36.383917"/>
      </g>
     </g>
    </g>
    <g id="ytick_24">
     <g id="line2d_52">
      <g>
       <use style="stroke:#000000;stroke-width:0.48;" x="22.2" xlink:href="#m0224e69bf1" y="32.102181"/>
      </g>
     </g>
    </g>
   </g>
   <g id="line2d_53">
    <path clip-path="url(#p81a68b8fc9)" d="M 22.2 112.272492 
L 39.8 118.979119 
L 57.4 94.034239 
L 75 63.741183 
L 92.6 29.119181 
L 110.2 58.861145 
L 127.8 53.243106 
L 145.4 90.914283 
L 163 126.093515 
L 180.6 83.966391 
" style="fill:none;stroke:#cecee5;stroke-linecap:square;stroke-width:5;"/>
   </g>
   <g id="line2d_54">
    <path clip-path="url(#p81a68b8fc9)" d="M 22.2 96.547553 
L 39.8 134.321212 
L 57.4 122.71397 
L 75 122.134934 
L 92.6 113.055009 
L 110.2 86.494669 
L 127.8 46.503452 
L 145.4 62.395296 
L 163 88.623786 
L 180.6 50.261984 
" style="fill:none;stroke:#a4a1cc;stroke-linecap:square;stroke-width:5;"/>
   </g>
   <g id="line2d_55">
    <path clip-path="url(#p81a68b8fc9)" d="M 22.2 111.574884 
L 39.8 108.608092 
L 57.4 134.5 
L 75 116.404472 
L 92.6 97.51104 
L 110.2 57.630367 
L 127.8 70.530685 
L 145.4 69.745753 
L 163 28.9 
L 180.6 51.899813 
" style="fill:none;stroke:#7b74b5;stroke-linecap:square;stroke-width:5;"/>
   </g>
   <g id="line2d_56">
    <path clip-path="url(#p81a68b8fc9)" d="M 22.2 101.352518 
L 39.8 93.739696 
L 57.4 60.208817 
L 75 40.399957 
L 92.6 78.084699 
L 110.2 118.156438 
L 127.8 75.561717 
L 145.4 115.728242 
L 163 117.167269 
L 180.6 125.575478 
" style="fill:none;stroke:#5c3797;stroke-linecap:square;stroke-width:5;"/>
   </g>
   <g id="line2d_57">
    <path clip-path="url(#p81a68b8fc9)" d="M 22.2 93.053859 
L 39.8 52.572269 
L 57.4 84.771261 
L 75 124.641236 
L 92.6 107.902164 
L 110.2 84.271967 
L 127.8 98.759508 
L 145.4 94.615059 
L 163 69.795235 
L 180.6 35.394103 
" style="fill:none;stroke:#3f007d;stroke-linecap:square;stroke-width:5;"/>
   </g>
   <g id="patch_3">
    <path d="M 22.2 134.5 
L 22.2 28.9 
" style="fill:none;stroke:#000000;stroke-linecap:square;stroke-linejoin:miter;stroke-width:0.6;"/>
   </g>
   <g id="patch_4">
    <path d="M 180.6 134.5 
L 180.6 28.9 
" style="fill:none;stroke:#000000;stroke-linecap:square;stroke-linejoin:miter;stroke-width:0.6;"/>
   </g>
   <g id="patch_5">
    <path d="M 22.2 134.5 
L 180.6 134.5 
" style="fill:none;stroke:#000000;stroke-linecap:square;stroke-linejoin:miter;stroke-width:0.6;"/>
   </g>
   <g id="patch_6">
    <path d="M 22.2 28.9 
L 180.6 28.9 
" style="fill:none;stroke:#000000;stroke-linecap:square;stroke-linejoin:miter;stroke-width:0.6;"/>
   </g>
   <g id="text_10">
    <!-- Simple cycle -->
    <defs>
     <path d="M 49.09375 50.5 
L 58.09375 50.5 
Q 57.90625 56.40625 55.84375 60.65625 
Q 53.796875 64.90625 50.25 67.703125 
Q 46.703125 70.5 42 71.796875 
Q 37.296875 73.09375 31.796875 73.09375 
Q 26.90625 73.09375 22.25 71.84375 
Q 17.59375 70.59375 13.9375 68.046875 
Q 10.296875 65.5 8.09375 61.546875 
Q 5.90625 57.59375 5.90625 52.203125 
Q 5.90625 47.296875 7.84375 44.046875 
Q 9.796875 40.796875 13.046875 38.75 
Q 16.296875 36.703125 20.390625 35.453125 
Q 24.5 34.203125 28.75 33.25 
Q 33 32.296875 37.09375 31.390625 
Q 41.203125 30.5 44.453125 29.046875 
Q 47.703125 27.59375 49.640625 25.296875 
Q 51.59375 23 51.59375 19.296875 
Q 51.59375 15.40625 50 12.90625 
Q 48.40625 10.40625 45.796875 8.953125 
Q 43.203125 7.5 39.953125 6.890625 
Q 36.703125 6.296875 33.5 6.296875 
Q 29.5 6.296875 25.703125 7.296875 
Q 21.90625 8.296875 19.046875 10.390625 
Q 16.203125 12.5 14.453125 15.75 
Q 12.703125 19 12.703125 23.5 
L 3.703125 23.5 
Q 3.703125 17 6.046875 12.25 
Q 8.40625 7.5 12.453125 4.453125 
Q 16.5 1.40625 21.84375 -0.09375 
Q 27.203125 -1.59375 33.203125 -1.59375 
Q 38.09375 -1.59375 43.046875 -0.4375 
Q 48 0.703125 52 3.25 
Q 56 5.796875 58.546875 9.84375 
Q 61.09375 13.90625 61.09375 19.59375 
Q 61.09375 24.90625 59.140625 28.40625 
Q 57.203125 31.90625 53.953125 34.203125 
Q 50.703125 36.5 46.59375 37.84375 
Q 42.5 39.203125 38.25 40.203125 
Q 34 41.203125 29.890625 42.046875 
Q 25.796875 42.90625 22.546875 44.203125 
Q 19.296875 45.5 17.34375 47.546875 
Q 15.40625 49.59375 15.40625 52.90625 
Q 15.40625 56.40625 16.75 58.75 
Q 18.09375 61.09375 20.34375 62.5 
Q 22.59375 63.90625 25.5 64.5 
Q 28.40625 65.09375 31.40625 65.09375 
Q 38.796875 65.09375 43.546875 61.640625 
Q 48.296875 58.203125 49.09375 50.5 
z
" id="HelveticaNeue-83"/>
     <path d="M 15.40625 61 
L 15.40625 71.40625 
L 6.90625 71.40625 
L 6.90625 61 
z
M 6.90625 51.703125 
L 6.90625 0 
L 15.40625 0 
L 15.40625 51.703125 
z
" id="HelveticaNeue-105"/>
     <path d="M 6.40625 51.703125 
L 6.40625 0 
L 14.90625 0 
L 14.90625 32.203125 
Q 14.90625 33.703125 15.65625 35.953125 
Q 16.40625 38.203125 18.046875 40.296875 
Q 19.703125 42.40625 22.34375 43.90625 
Q 25 45.40625 28.703125 45.40625 
Q 31.59375 45.40625 33.4375 44.546875 
Q 35.296875 43.703125 36.390625 42.140625 
Q 37.5 40.59375 37.953125 38.5 
Q 38.40625 36.40625 38.40625 33.90625 
L 38.40625 0 
L 46.90625 0 
L 46.90625 32.203125 
Q 46.90625 38.203125 50.5 41.796875 
Q 54.09375 45.40625 60.40625 45.40625 
Q 63.5 45.40625 65.453125 44.5 
Q 67.40625 43.59375 68.5 42.046875 
Q 69.59375 40.5 70 38.390625 
Q 70.40625 36.296875 70.40625 33.90625 
L 70.40625 0 
L 78.90625 0 
L 78.90625 37.90625 
Q 78.90625 41.90625 77.65625 44.75 
Q 76.40625 47.59375 74.15625 49.390625 
Q 71.90625 51.203125 68.75 52.046875 
Q 65.59375 52.90625 61.703125 52.90625 
Q 56.59375 52.90625 52.34375 50.59375 
Q 48.09375 48.296875 45.5 44.09375 
Q 43.90625 48.90625 40 50.90625 
Q 36.09375 52.90625 31.296875 52.90625 
Q 20.40625 52.90625 14.59375 44.09375 
L 14.40625 44.09375 
L 14.40625 51.703125 
z
" id="HelveticaNeue-109"/>
     <path d="M 6.703125 51.703125 
L 6.703125 -19.703125 
L 15.203125 -19.703125 
L 15.203125 6.90625 
L 15.40625 6.90625 
Q 16.796875 4.59375 18.84375 3.046875 
Q 20.90625 1.5 23.203125 0.59375 
Q 25.5 -0.296875 27.84375 -0.6875 
Q 30.203125 -1.09375 32.09375 -1.09375 
Q 38 -1.09375 42.453125 1 
Q 46.90625 3.09375 49.84375 6.75 
Q 52.796875 10.40625 54.25 15.296875 
Q 55.703125 20.203125 55.703125 25.703125 
Q 55.703125 31.203125 54.203125 36.09375 
Q 52.703125 41 49.75 44.75 
Q 46.796875 48.5 42.34375 50.703125 
Q 37.90625 52.90625 31.90625 52.90625 
Q 26.5 52.90625 22 50.953125 
Q 17.5 49 15.40625 44.703125 
L 15.203125 44.703125 
L 15.203125 51.703125 
z
M 46.703125 26.296875 
Q 46.703125 22.5 45.890625 18.890625 
Q 45.09375 15.296875 43.296875 12.5 
Q 41.5 9.703125 38.546875 8 
Q 35.59375 6.296875 31.203125 6.296875 
Q 26.796875 6.296875 23.6875 7.9375 
Q 20.59375 9.59375 18.640625 12.296875 
Q 16.703125 15 15.796875 18.546875 
Q 14.90625 22.09375 14.90625 25.90625 
Q 14.90625 29.5 15.75 33 
Q 16.59375 36.5 18.5 39.25 
Q 20.40625 42 23.40625 43.703125 
Q 26.40625 45.40625 30.703125 45.40625 
Q 34.796875 45.40625 37.84375 43.796875 
Q 40.90625 42.203125 42.84375 39.5 
Q 44.796875 36.796875 45.75 33.34375 
Q 46.703125 29.90625 46.703125 26.296875 
z
" id="HelveticaNeue-112"/>
     <path d="M 6.90625 71.40625 
L 6.90625 0 
L 15.40625 0 
L 15.40625 71.40625 
z
" id="HelveticaNeue-108"/>
     <path d="M 42.296875 30.796875 
L 12.59375 30.796875 
Q 12.796875 33.796875 13.890625 36.4375 
Q 15 39.09375 16.890625 41.09375 
Q 18.796875 43.09375 21.4375 44.25 
Q 24.09375 45.40625 27.40625 45.40625 
Q 30.59375 45.40625 33.25 44.25 
Q 35.90625 43.09375 37.84375 41.140625 
Q 39.796875 39.203125 40.9375 36.5 
Q 42.09375 33.796875 42.296875 30.796875 
z
M 50.5 16.40625 
L 42.09375 16.40625 
Q 41 11.296875 37.546875 8.796875 
Q 34.09375 6.296875 28.703125 6.296875 
Q 24.5 6.296875 21.390625 7.6875 
Q 18.296875 9.09375 16.296875 11.4375 
Q 14.296875 13.796875 13.390625 16.84375 
Q 12.5 19.90625 12.59375 23.296875 
L 51.296875 23.296875 
Q 51.5 28 50.453125 33.203125 
Q 49.40625 38.40625 46.65625 42.796875 
Q 43.90625 47.203125 39.34375 50.046875 
Q 34.796875 52.90625 27.90625 52.90625 
Q 22.59375 52.90625 18.140625 50.90625 
Q 13.703125 48.90625 10.453125 45.296875 
Q 7.203125 41.703125 5.390625 36.796875 
Q 3.59375 31.90625 3.59375 26 
Q 3.796875 20.09375 5.34375 15.09375 
Q 6.90625 10.09375 10 6.5 
Q 13.09375 2.90625 17.640625 0.90625 
Q 22.203125 -1.09375 28.40625 -1.09375 
Q 37.203125 -1.09375 43 3.296875 
Q 48.796875 7.703125 50.5 16.40625 
z
" id="HelveticaNeue-101"/>
     <path id="HelveticaNeue-32"/>
     <path d="M 41.5 35.09375 
L 50.296875 35.09375 
Q 49.796875 39.703125 47.890625 43.046875 
Q 46 46.40625 43.046875 48.59375 
Q 40.09375 50.796875 36.25 51.84375 
Q 32.40625 52.90625 28 52.90625 
Q 21.90625 52.90625 17.296875 50.75 
Q 12.703125 48.59375 9.640625 44.84375 
Q 6.59375 41.09375 5.09375 36.046875 
Q 3.59375 31 3.59375 25.203125 
Q 3.59375 19.40625 5.140625 14.546875 
Q 6.703125 9.703125 9.75 6.203125 
Q 12.796875 2.703125 17.34375 0.796875 
Q 21.90625 -1.09375 27.796875 -1.09375 
Q 37.703125 -1.09375 43.453125 4.09375 
Q 49.203125 9.296875 50.59375 18.90625 
L 41.90625 18.90625 
Q 41.09375 12.90625 37.546875 9.59375 
Q 34 6.296875 27.703125 6.296875 
Q 23.703125 6.296875 20.796875 7.890625 
Q 17.90625 9.5 16.09375 12.140625 
Q 14.296875 14.796875 13.4375 18.1875 
Q 12.59375 21.59375 12.59375 25.203125 
Q 12.59375 29.09375 13.390625 32.75 
Q 14.203125 36.40625 16.046875 39.203125 
Q 17.90625 42 21 43.703125 
Q 24.09375 45.40625 28.703125 45.40625 
Q 34.09375 45.40625 37.296875 42.703125 
Q 40.5 40 41.5 35.09375 
z
" id="HelveticaNeue-99"/>
     <path d="M 26.703125 -6.90625 
Q 25.203125 -10.703125 23.75 -13.296875 
Q 22.296875 -15.90625 20.546875 -17.546875 
Q 18.796875 -19.203125 16.640625 -19.953125 
Q 14.5 -20.703125 11.703125 -20.703125 
Q 10.203125 -20.703125 8.703125 -20.5 
Q 7.203125 -20.296875 5.796875 -19.796875 
L 5.796875 -12 
Q 6.90625 -12.5 8.34375 -12.84375 
Q 9.796875 -13.203125 10.796875 -13.203125 
Q 13.40625 -13.203125 15.15625 -11.953125 
Q 16.90625 -10.703125 17.796875 -8.40625 
L 21.296875 0.296875 
L 0.796875 51.703125 
L 10.40625 51.703125 
L 25.5 9.40625 
L 25.703125 9.40625 
L 40.203125 51.703125 
L 49.203125 51.703125 
z
" id="HelveticaNeue-121"/>
    </defs>
    <g transform="translate(75.812578 24.036719)scale(0.09 -0.09)">
     <use xlink:href="#HelveticaNeue-83"/>
     <use x="64.799988" xlink:href="#HelveticaNeue-105"/>
     <use x="86.999985" xlink:href="#HelveticaNeue-109"/>
     <use x="172.299973" xlink:href="#HelveticaNeue-112"/>
     <use x="231.59996" xlink:href="#HelveticaNeue-108"/>
     <use x="253.799957" xlink:href="#HelveticaNeue-101"/>
     <use x="307.499954" xlink:href="#HelveticaNeue-32"/>
     <use x="335.299942" xlink:href="#HelveticaNeue-99"/>
     <use x="388.999939" xlink:href="#HelveticaNeue-121"/>
     <use x="438.999924" xlink:href="#HelveticaNeue-99"/>
     <use x="492.699921" xlink:href="#HelveticaNeue-108"/>
     <use x="514.899918" xlink:href="#HelveticaNeue-101"/>
    </g>
   </g>
   <g id="text_11">
    <!-- Simple cycle -->
    <g transform="translate(75.812578 24.036719)scale(0.09 -0.09)">
     <use xlink:href="#HelveticaNeue-83"/>
     <use x="64.799988" xlink:href="#HelveticaNeue-105"/>
     <use x="86.999985" xlink:href="#HelveticaNeue-109"/>
     <use x="172.299973" xlink:href="#HelveticaNeue-112"/>
     <use x="231.59996" xlink:href="#HelveticaNeue-108"/>
     <use x="253.799957" xlink:href="#HelveticaNeue-101"/>
     <use x="307.499954" xlink:href="#HelveticaNeue-32"/>
     <use x="335.299942" xlink:href="#HelveticaNeue-99"/>
     <use x="388.999939" xlink:href="#HelveticaNeue-121"/>
     <use x="438.999924" xlink:href="#HelveticaNeue-99"/>
     <use x="492.699921" xlink:href="#HelveticaNeue-108"/>
     <use x="514.899918" xlink:href="#HelveticaNeue-101"/>
    </g>
   </g>
  </g>
  <g id="axes_2">
   <g id="patch_7">
    <path d="M 207.5 134.5 
L 365.9 134.5 
L 365.9 28.9 
L 207.5 28.9 
z
" style="fill:#ffffff;"/>
   </g>
   <g id="matplotlib.axis_3">
    <g id="xtick_20">
     <g id="line2d_58">
      <path clip-path="url(#p931a205ea9)" d="M 207.5 134.5 
L 207.5 28.9 
" style="fill:none;stroke:#000000;stroke-linecap:square;stroke-opacity:0.1;stroke-width:0.6;"/>
     </g>
     <g id="line2d_59">
      <g>
       <use style="stroke:#000000;stroke-width:0.6;" x="207.5" xlink:href="#mc03d0e0ff8" y="134.5"/>
      </g>
     </g>
     <g id="text_12">
      <!-- 0 -->
      <g transform="translate(205.27625 146.2125)scale(0.08 -0.08)">
       <use xlink:href="#HelveticaNeue-48"/>
      </g>
     </g>
    </g>
    <g id="xtick_21">
     <g id="line2d_60">
      <path clip-path="url(#p931a205ea9)" d="M 242.7 134.5 
L 242.7 28.9 
" style="fill:none;stroke:#000000;stroke-linecap:square;stroke-opacity:0.1;stroke-width:0.6;"/>
     </g>
     <g id="line2d_61">
      <g>
       <use style="stroke:#000000;stroke-width:0.6;" x="242.7" xlink:href="#mc03d0e0ff8" y="134.5"/>
      </g>
     </g>
     <g id="text_13">
      <!-- 2 -->
      <g transform="translate(240.47625 146.2125)scale(0.08 -0.08)">
       <use xlink:href="#HelveticaNeue-50"/>
      </g>
     </g>
    </g>
    <g id="xtick_22">
     <g id="line2d_62">
      <path clip-path="url(#p931a205ea9)" d="M 277.9 134.5 
L 277.9 28.9 
" style="fill:none;stroke:#000000;stroke-linecap:square;stroke-opacity:0.1;stroke-width:0.6;"/>
     </g>
     <g id="line2d_63">
      <g>
       <use style="stroke:#000000;stroke-width:0.6;" x="277.9" xlink:href="#mc03d0e0ff8" y="134.5"/>
      </g>
     </g>
     <g id="text_14">
      <!-- 4 -->
      <g transform="translate(275.67625 146.2125)scale(0.08 -0.08)">
       <use xlink:href="#HelveticaNeue-52"/>
      </g>
     </g>
    </g>
    <g id="xtick_23">
     <g id="line2d_64">
      <path clip-path="url(#p931a205ea9)" d="M 313.1 134.5 
L 313.1 28.9 
" style="fill:none;stroke:#000000;stroke-linecap:square;stroke-opacity:0.1;stroke-width:0.6;"/>
     </g>
     <g id="line2d_65">
      <g>
       <use style="stroke:#000000;stroke-width:0.6;" x="313.1" xlink:href="#mc03d0e0ff8" y="134.5"/>
      </g>
     </g>
     <g id="text_15">
      <!-- 6 -->
      <g transform="translate(310.87625 146.2125)scale(0.08 -0.08)">
       <use xlink:href="#HelveticaNeue-54"/>
      </g>
     </g>
    </g>
    <g id="xtick_24">
     <g id="line2d_66">
      <path clip-path="url(#p931a205ea9)" d="M 348.3 134.5 
L 348.3 28.9 
" style="fill:none;stroke:#000000;stroke-linecap:square;stroke-opacity:0.1;stroke-width:0.6;"/>
     </g>
     <g id="line2d_67">
      <g>
       <use style="stroke:#000000;stroke-width:0.6;" x="348.3" xlink:href="#mc03d0e0ff8" y="134.5"/>
      </g>
     </g>
     <g id="text_16">
      <!-- 8 -->
      <g transform="translate(346.07625 146.2125)scale(0.08 -0.08)">
       <use xlink:href="#HelveticaNeue-56"/>
      </g>
     </g>
    </g>
    <g id="xtick_25">
     <g id="line2d_68">
      <g>
       <use style="stroke:#000000;stroke-width:0.48;" x="216.3" xlink:href="#me359ca3f0d" y="134.5"/>
      </g>
     </g>
    </g>
    <g id="xtick_26">
     <g id="line2d_69">
      <g>
       <use style="stroke:#000000;stroke-width:0.48;" x="225.1" xlink:href="#me359ca3f0d" y="134.5"/>
      </g>
     </g>
    </g>
    <g id="xtick_27">
     <g id="line2d_70">
      <g>
       <use style="stroke:#000000;stroke-width:0.48;" x="233.9" xlink:href="#me359ca3f0d" y="134.5"/>
      </g>
     </g>
    </g>
    <g id="xtick_28">
     <g id="line2d_71">
      <g>
       <use style="stroke:#000000;stroke-width:0.48;" x="251.5" xlink:href="#me359ca3f0d" y="134.5"/>
      </g>
     </g>
    </g>
    <g id="xtick_29">
     <g id="line2d_72">
      <g>
       <use style="stroke:#000000;stroke-width:0.48;" x="260.3" xlink:href="#me359ca3f0d" y="134.5"/>
      </g>
     </g>
    </g>
    <g id="xtick_30">
     <g id="line2d_73">
      <g>
       <use style="stroke:#000000;stroke-width:0.48;" x="269.1" xlink:href="#me359ca3f0d" y="134.5"/>
      </g>
     </g>
    </g>
    <g id="xtick_31">
     <g id="line2d_74">
      <g>
       <use style="stroke:#000000;stroke-width:0.48;" x="286.7" xlink:href="#me359ca3f0d" y="134.5"/>
      </g>
     </g>
    </g>
    <g id="xtick_32">
     <g id="line2d_75">
      <g>
       <use style="stroke:#000000;stroke-width:0.48;" x="295.5" xlink:href="#me359ca3f0d" y="134.5"/>
      </g>
     </g>
    </g>
    <g id="xtick_33">
     <g id="line2d_76">
      <g>
       <use style="stroke:#000000;stroke-width:0.48;" x="304.3" xlink:href="#me359ca3f0d" y="134.5"/>
      </g>
     </g>
    </g>
    <g id="xtick_34">
     <g id="line2d_77">
      <g>
       <use style="stroke:#000000;stroke-width:0.48;" x="321.9" xlink:href="#me359ca3f0d" y="134.5"/>
      </g>
     </g>
    </g>
    <g id="xtick_35">
     <g id="line2d_78">
      <g>
       <use style="stroke:#000000;stroke-width:0.48;" x="330.7" xlink:href="#me359ca3f0d" y="134.5"/>
      </g>
     </g>
    </g>
    <g id="xtick_36">
     <g id="line2d_79">
      <g>
       <use style="stroke:#000000;stroke-width:0.48;" x="339.5" xlink:href="#me359ca3f0d" y="134.5"/>
      </g>
     </g>
    </g>
    <g id="xtick_37">
     <g id="line2d_80">
      <g>
       <use style="stroke:#000000;stroke-width:0.48;" x="357.1" xlink:href="#me359ca3f0d" y="134.5"/>
      </g>
     </g>
    </g>
    <g id="xtick_38">
     <g id="line2d_81">
      <g>
       <use style="stroke:#000000;stroke-width:0.48;" x="365.9" xlink:href="#me359ca3f0d" y="134.5"/>
      </g>
     </g>
    </g>
   </g>
   <g id="matplotlib.axis_4">
    <g id="ytick_25">
     <g id="line2d_82">
      <path clip-path="url(#p931a205ea9)" d="M 207.5 110.384686 
L 365.9 110.384686 
" style="fill:none;stroke:#000000;stroke-linecap:square;stroke-opacity:0.1;stroke-width:0.6;"/>
     </g>
     <g id="line2d_83">
      <g>
       <use style="stroke:#000000;stroke-width:0.6;" x="207.5" xlink:href="#m74ad94728c" y="110.384686"/>
      </g>
     </g>
     <g id="text_17">
      <!-- −20 -->
      <defs>
       <path d="M 4.796875 28.703125 
L 4.796875 21.90625 
L 55.203125 21.90625 
L 55.203125 28.703125 
z
" id="HelveticaNeue-8722"/>
      </defs>
      <g transform="translate(187.805 113.240936)scale(0.08 -0.08)">
       <use xlink:href="#HelveticaNeue-8722"/>
       <use x="59.999985" xlink:href="#HelveticaNeue-50"/>
       <use x="115.599976" xlink:href="#HelveticaNeue-48"/>
      </g>
     </g>
    </g>
    <g id="ytick_26">
     <g id="line2d_84">
      <path clip-path="url(#p931a205ea9)" d="M 207.5 78.425895 
L 365.9 78.425895 
" style="fill:none;stroke:#000000;stroke-linecap:square;stroke-opacity:0.1;stroke-width:0.6;"/>
     </g>
     <g id="line2d_85">
      <g>
       <use style="stroke:#000000;stroke-width:0.6;" x="207.5" xlink:href="#m74ad94728c" y="78.425895"/>
      </g>
     </g>
     <g id="text_18">
      <!-- 0 -->
      <g transform="translate(197.0525 81.282145)scale(0.08 -0.08)">
       <use xlink:href="#HelveticaNeue-48"/>
      </g>
     </g>
    </g>
    <g id="ytick_27">
     <g id="line2d_86">
      <path clip-path="url(#p931a205ea9)" d="M 207.5 46.467103 
L 365.9 46.467103 
" style="fill:none;stroke:#000000;stroke-linecap:square;stroke-opacity:0.1;stroke-width:0.6;"/>
     </g>
     <g id="line2d_87">
      <g>
       <use style="stroke:#000000;stroke-width:0.6;" x="207.5" xlink:href="#m74ad94728c" y="46.467103"/>
      </g>
     </g>
     <g id="text_19">
      <!-- 20 -->
      <g transform="translate(192.605 49.323353)scale(0.08 -0.08)">
       <use xlink:href="#HelveticaNeue-50"/>
       <use x="55.599991" xlink:href="#HelveticaNeue-48"/>
      </g>
     </g>
    </g>
    <g id="ytick_28">
     <g id="line2d_88">
      <g>
       <use style="stroke:#000000;stroke-width:0.48;" x="207.5" xlink:href="#m0224e69bf1" y="134.35378"/>
      </g>
     </g>
    </g>
    <g id="ytick_29">
     <g id="line2d_89">
      <g>
       <use style="stroke:#000000;stroke-width:0.48;" x="207.5" xlink:href="#m0224e69bf1" y="126.364082"/>
      </g>
     </g>
    </g>
    <g id="ytick_30">
     <g id="line2d_90">
      <g>
       <use style="stroke:#000000;stroke-width:0.48;" x="207.5" xlink:href="#m0224e69bf1" y="118.374384"/>
      </g>
     </g>
    </g>
    <g id="ytick_31">
     <g id="line2d_91">
      <g>
       <use style="stroke:#000000;stroke-width:0.48;" x="207.5" xlink:href="#m0224e69bf1" y="102.394988"/>
      </g>
     </g>
    </g>
    <g id="ytick_32">
     <g id="line2d_92">
      <g>
       <use style="stroke:#000000;stroke-width:0.48;" x="207.5" xlink:href="#m0224e69bf1" y="94.405291"/>
      </g>
     </g>
    </g>
    <g id="ytick_33">
     <g id="line2d_93">
      <g>
       <use style="stroke:#000000;stroke-width:0.48;" x="207.5" xlink:href="#m0224e69bf1" y="86.415593"/>
      </g>
     </g>
    </g>
    <g id="ytick_34">
     <g id="line2d_94">
      <g>
       <use style="stroke:#000000;stroke-width:0.48;" x="207.5" xlink:href="#m0224e69bf1" y="70.436197"/>
      </g>
     </g>
    </g>
    <g id="ytick_35">
     <g id="line2d_95">
      <g>
       <use style="stroke:#000000;stroke-width:0.48;" x="207.5" xlink:href="#m0224e69bf1" y="62.446499"/>
      </g>
     </g>
    </g>
    <g id="ytick_36">
     <g id="line2d_96">
      <g>
       <use style="stroke:#000000;stroke-width:0.48;" x="207.5" xlink:href="#m0224e69bf1" y="54.456801"/>
      </g>
     </g>
    </g>
    <g id="ytick_37">
     <g id="line2d_97">
      <g>
       <use style="stroke:#000000;stroke-width:0.48;" x="207.5" xlink:href="#m0224e69bf1" y="38.477405"/>
      </g>
     </g>
    </g>
    <g id="ytick_38">
     <g id="line2d_98">
      <g>
       <use style="stroke:#000000;stroke-width:0.48;" x="207.5" xlink:href="#m0224e69bf1" y="30.487707"/>
      </g>
     </g>
    </g>
   </g>
   <g id="line2d_99">
    <path clip-path="url(#p931a205ea9)" d="M 207.5 77.984517 
L 225.1 80.487422 
L 242.7 71.17802 
L 260.3 59.872684 
L 277.9 46.95179 
L 295.5 58.05146 
L 313.1 55.954813 
L 330.7 70.013656 
L 348.3 83.142507 
L 365.9 67.42071 
" style="fill:none;stroke:#e3eef9;stroke-linecap:square;stroke-width:5;"/>
   </g>
   <g id="line2d_100">
    <path clip-path="url(#p931a205ea9)" d="M 207.5 72.115986 
L 225.1 86.213075 
L 242.7 81.881265 
L 260.3 81.665169 
L 277.9 78.276551 
L 295.5 68.364261 
L 313.1 53.439582 
L 330.7 59.370401 
L 348.3 69.158845 
L 365.9 54.842262 
" style="fill:none;stroke:#c9ddf0;stroke-linecap:square;stroke-width:5;"/>
   </g>
   <g id="line2d_101">
    <path clip-path="url(#p931a205ea9)" d="M 207.5 77.72417 
L 225.1 76.616966 
L 242.7 86.279798 
L 260.3 79.526567 
L 277.9 72.475558 
L 295.5 57.592134 
L 313.1 62.406519 
L 330.7 62.113583 
L 348.3 46.869992 
L 365.9 55.453498 
" style="fill:none;stroke:#a0cbe2;stroke-linecap:square;stroke-width:5;"/>
   </g>
   <g id="line2d_102">
    <path clip-path="url(#p931a205ea9)" d="M 207.5 73.909194 
L 225.1 71.068097 
L 242.7 58.554409 
L 260.3 51.161764 
L 277.9 65.225669 
L 295.5 80.180399 
L 313.1 64.284095 
L 330.7 79.274199 
L 348.3 79.811242 
L 365.9 82.949177 
" style="fill:none;stroke:#69add5;stroke-linecap:square;stroke-width:5;"/>
   </g>
   <g id="line2d_103">
    <path clip-path="url(#p931a205ea9)" d="M 207.5 70.812143 
L 225.1 55.704458 
L 242.7 67.721087 
L 260.3 82.600518 
L 277.9 76.353515 
L 295.5 67.534751 
L 313.1 72.941485 
L 330.7 71.394781 
L 348.3 62.13205 
L 365.9 49.293585 
" style="fill:none;stroke:#3e8ec4;stroke-linecap:square;stroke-width:5;"/>
   </g>
   <g id="line2d_104">
    <path clip-path="url(#p931a205ea9)" d="M 207.5 83.469476 
L 225.1 68.2669 
L 242.7 53.201643 
L 260.3 49.481122 
L 277.9 47.64627 
L 295.5 38.881469 
L 313.1 53.592698 
L 330.7 41.236388 
L 348.3 31.636129 
L 365.9 28.9 
" style="fill:none;stroke:#1c6ab0;stroke-linecap:square;stroke-width:5;"/>
   </g>
   <g id="line2d_105">
    <path clip-path="url(#p931a205ea9)" d="M 207.5 77.964434 
L 225.1 76.980355 
L 242.7 65.990596 
L 260.3 60.507518 
L 277.9 66.016862 
L 295.5 71.029244 
L 313.1 61.550695 
L 330.7 62.368442 
L 348.3 53.412995 
L 365.9 50.973139 
" style="fill:none;stroke:#08488e;stroke-linecap:square;stroke-width:5;"/>
   </g>
   <g id="line2d_106">
    <path clip-path="url(#p931a205ea9)" d="M 207.5 82.139855 
L 225.1 92.597898 
L 242.7 89.950582 
L 260.3 92.913145 
L 277.9 108.388821 
L 295.5 108.840503 
L 313.1 105.881047 
L 330.7 105.469797 
L 348.3 105.777654 
L 365.9 97.99216 
" style="fill:none;stroke:#fedbcb;stroke-linecap:square;stroke-width:5;"/>
   </g>
   <g id="line2d_107">
    <path clip-path="url(#p931a205ea9)" d="M 207.5 64.025859 
L 225.1 79.462898 
L 242.7 95.132948 
L 260.3 83.480899 
L 277.9 79.90779 
L 295.5 72.210531 
L 313.1 60.383089 
L 330.7 75.441552 
L 348.3 75.080719 
L 365.9 86.090111 
" style="fill:none;stroke:#fcb195;stroke-linecap:square;stroke-width:5;"/>
   </g>
   <g id="line2d_108">
    <path clip-path="url(#p931a205ea9)" d="M 207.5 77.290524 
L 225.1 92.952794 
L 242.7 92.228516 
L 260.3 85.356308 
L 277.9 76.980079 
L 295.5 80.115423 
L 313.1 74.075584 
L 330.7 83.192805 
L 348.3 70.660613 
L 365.9 72.351675 
" style="fill:none;stroke:#fc8565;stroke-linecap:square;stroke-width:5;"/>
   </g>
   <g id="line2d_109">
    <path clip-path="url(#p931a205ea9)" d="M 207.5 66.806773 
L 225.1 79.503513 
L 242.7 79.642443 
L 260.3 79.097707 
L 277.9 73.857087 
L 295.5 71.632685 
L 313.1 75.640562 
L 330.7 75.861476 
L 348.3 70.637511 
L 365.9 80.902219 
" style="fill:none;stroke:#f6573e;stroke-linecap:square;stroke-width:5;"/>
   </g>
   <g id="line2d_110">
    <path clip-path="url(#p931a205ea9)" d="M 207.5 82.381357 
L 225.1 74.78712 
L 242.7 60.156999 
L 260.3 68.356665 
L 277.9 80.830383 
L 295.5 78.461868 
L 313.1 74.124879 
L 330.7 80.012703 
L 348.3 73.606323 
L 365.9 89.296459 
" style="fill:none;stroke:#de2a25;stroke-linecap:square;stroke-width:5;"/>
   </g>
   <g id="line2d_111">
    <path clip-path="url(#p931a205ea9)" d="M 207.5 78.771026 
L 225.1 79.398994 
L 242.7 80.249806 
L 260.3 65.146733 
L 277.9 68.416167 
L 295.5 81.360818 
L 313.1 80.425213 
L 330.7 77.730627 
L 348.3 89.998946 
L 365.9 102.130346 
" style="fill:none;stroke:#b61319;stroke-linecap:square;stroke-width:5;"/>
   </g>
   <g id="line2d_112">
    <path clip-path="url(#p931a205ea9)" d="M 207.5 90.114935 
L 225.1 100.580244 
L 242.7 88.985531 
L 260.3 103.258974 
L 277.9 116.226546 
L 295.5 121.251468 
L 313.1 122.801019 
L 330.7 113.916264 
L 348.3 111.039111 
L 365.9 102.497739 
" style="fill:none;stroke:#7d0510;stroke-linecap:square;stroke-width:5;"/>
   </g>
   <g id="line2d_113">
    <path clip-path="url(#p931a205ea9)" d="M 207.5 89.73719 
L 225.1 99.05961 
L 242.7 112.455699 
L 260.3 124.803616 
L 277.9 113.947755 
L 295.5 107.659013 
L 313.1 115.845123 
L 330.7 124.863456 
L 348.3 124.954059 
L 365.9 134.5 
" style="fill:none;stroke:#fddab7;stroke-linecap:square;stroke-width:5;"/>
   </g>
   <g id="line2d_114">
    <path clip-path="url(#p931a205ea9)" d="M 207.5 87.461496 
L 225.1 103.323927 
L 242.7 111.670758 
L 260.3 122.541973 
L 277.9 127.432791 
L 295.5 131.132633 
L 313.1 117.115733 
L 330.7 109.231226 
L 348.3 104.317085 
L 365.9 110.940725 
" style="fill:none;stroke:#fdbb80;stroke-linecap:square;stroke-width:5;"/>
   </g>
   <g id="line2d_115">
    <path clip-path="url(#p931a205ea9)" d="M 207.5 77.591575 
L 225.1 87.123485 
L 242.7 99.962318 
L 260.3 91.501748 
L 277.9 77.778575 
L 295.5 63.512329 
L 313.1 49.733148 
L 330.7 39.535371 
L 348.3 42.132034 
L 365.9 46.143692 
" style="fill:none;stroke:#fd974b;stroke-linecap:square;stroke-width:5;"/>
   </g>
   <g id="line2d_116">
    <path clip-path="url(#p931a205ea9)" d="M 207.5 68.823367 
L 225.1 63.732472 
L 242.7 70.916076 
L 260.3 65.748831 
L 277.9 72.352923 
L 295.5 74.226297 
L 313.1 77.531836 
L 330.7 88.134318 
L 348.3 82.384285 
L 365.9 75.623971 
" style="fill:none;stroke:#f4721d;stroke-linecap:square;stroke-width:5;"/>
   </g>
   <g id="line2d_117">
    <path clip-path="url(#p931a205ea9)" d="M 207.5 63.566868 
L 225.1 74.740162 
L 242.7 89.358899 
L 260.3 79.50308 
L 277.9 81.753353 
L 295.5 82.637541 
L 313.1 79.399913 
L 330.7 90.241848 
L 348.3 90.14529 
L 365.9 86.154589 
" style="fill:none;stroke:#dc4d04;stroke-linecap:square;stroke-width:5;"/>
   </g>
   <g id="line2d_118">
    <path clip-path="url(#p931a205ea9)" d="M 207.5 73.746529 
L 225.1 65.403331 
L 242.7 51.394257 
L 260.3 48.447763 
L 277.9 60.005546 
L 295.5 64.320059 
L 313.1 60.013885 
L 330.7 45.911827 
L 348.3 54.936127 
L 365.9 50.009334 
" style="fill:none;stroke:#aa3703;stroke-linecap:square;stroke-width:5;"/>
   </g>
   <g id="line2d_119">
    <path clip-path="url(#p931a205ea9)" d="M 207.5 87.024559 
L 225.1 98.551103 
L 242.7 85.150589 
L 260.3 88.95129 
L 277.9 91.100133 
L 295.5 90.965683 
L 313.1 93.761217 
L 330.7 95.974182 
L 348.3 103.147822 
L 365.9 108.955134 
" style="fill:none;stroke:#7f2704;stroke-linecap:square;stroke-width:5;"/>
   </g>
   <g id="patch_8">
    <path d="M 207.5 134.5 
L 207.5 28.9 
" style="fill:none;stroke:#000000;stroke-linecap:square;stroke-linejoin:miter;stroke-width:0.6;"/>
   </g>
   <g id="patch_9">
    <path d="M 365.9 134.5 
L 365.9 28.9 
" style="fill:none;stroke:#000000;stroke-linecap:square;stroke-linejoin:miter;stroke-width:0.6;"/>
   </g>
   <g id="patch_10">
    <path d="M 207.5 134.5 
L 365.9 134.5 
" style="fill:none;stroke:#000000;stroke-linecap:square;stroke-linejoin:miter;stroke-width:0.6;"/>
   </g>
   <g id="patch_11">
    <path d="M 207.5 28.9 
L 365.9 28.9 
" style="fill:none;stroke:#000000;stroke-linecap:square;stroke-linejoin:miter;stroke-width:0.6;"/>
   </g>
   <g id="text_20">
    <!-- Complex cycle -->
    <defs>
     <path d="M 58 49.90625 
L 67.5 49.90625 
Q 66.703125 55.59375 64.09375 59.9375 
Q 61.5 64.296875 57.59375 67.1875 
Q 53.703125 70.09375 48.703125 71.59375 
Q 43.703125 73.09375 38.09375 73.09375 
Q 29.90625 73.09375 23.546875 70.140625 
Q 17.203125 67.203125 12.953125 62.09375 
Q 8.703125 57 6.5 50.140625 
Q 4.296875 43.296875 4.296875 35.5 
Q 4.296875 27.703125 6.34375 20.890625 
Q 8.40625 14.09375 12.5 9.09375 
Q 16.59375 4.09375 22.796875 1.25 
Q 29 -1.59375 37.296875 -1.59375 
Q 51 -1.59375 58.890625 5.90625 
Q 66.796875 13.40625 68.203125 26.90625 
L 58.703125 26.90625 
Q 58.40625 22.5 56.90625 18.703125 
Q 55.40625 14.90625 52.75 12.15625 
Q 50.09375 9.40625 46.4375 7.84375 
Q 42.796875 6.296875 38.09375 6.296875 
Q 31.703125 6.296875 27.09375 8.6875 
Q 22.5 11.09375 19.546875 15.140625 
Q 16.59375 19.203125 15.1875 24.640625 
Q 13.796875 30.09375 13.796875 36.203125 
Q 13.796875 41.796875 15.1875 47 
Q 16.59375 52.203125 19.546875 56.25 
Q 22.5 60.296875 27.046875 62.6875 
Q 31.59375 65.09375 38 65.09375 
Q 45.5 65.09375 50.953125 61.296875 
Q 56.40625 57.5 58 49.90625 
z
" id="HelveticaNeue-67"/>
     <path d="M 12.59375 25.796875 
Q 12.59375 30.5 13.84375 34.140625 
Q 15.09375 37.796875 17.296875 40.296875 
Q 19.5 42.796875 22.453125 44.09375 
Q 25.40625 45.40625 28.703125 45.40625 
Q 32 45.40625 34.953125 44.09375 
Q 37.90625 42.796875 40.09375 40.296875 
Q 42.296875 37.796875 43.546875 34.140625 
Q 44.796875 30.5 44.796875 25.796875 
Q 44.796875 21.09375 43.546875 17.4375 
Q 42.296875 13.796875 40.09375 11.34375 
Q 37.90625 8.90625 34.953125 7.59375 
Q 32 6.296875 28.703125 6.296875 
Q 25.40625 6.296875 22.453125 7.59375 
Q 19.5 8.90625 17.296875 11.34375 
Q 15.09375 13.796875 13.84375 17.4375 
Q 12.59375 21.09375 12.59375 25.796875 
z
M 3.59375 25.796875 
Q 3.59375 20.09375 5.1875 15.1875 
Q 6.796875 10.296875 10 6.640625 
Q 13.203125 3 17.890625 0.953125 
Q 22.59375 -1.09375 28.703125 -1.09375 
Q 34.90625 -1.09375 39.546875 0.953125 
Q 44.203125 3 47.390625 6.640625 
Q 50.59375 10.296875 52.1875 15.1875 
Q 53.796875 20.09375 53.796875 25.796875 
Q 53.796875 31.5 52.1875 36.453125 
Q 50.59375 41.40625 47.390625 45.046875 
Q 44.203125 48.703125 39.546875 50.796875 
Q 34.90625 52.90625 28.703125 52.90625 
Q 22.59375 52.90625 17.890625 50.796875 
Q 13.203125 48.703125 10 45.046875 
Q 6.796875 41.40625 5.1875 36.453125 
Q 3.59375 31.5 3.59375 25.796875 
z
" id="HelveticaNeue-111"/>
     <path d="M 20.296875 27.203125 
L 0.90625 0 
L 11.203125 0 
L 25.59375 21.40625 
L 40 0 
L 50.90625 0 
L 30.90625 27.90625 
L 48.703125 51.703125 
L 38.5 51.703125 
L 25.59375 33.59375 
L 13.203125 51.703125 
L 2.296875 51.703125 
z
" id="HelveticaNeue-120"/>
    </defs>
    <g transform="translate(256.864297 24.036719)scale(0.09 -0.09)">
     <use xlink:href="#HelveticaNeue-67"/>
     <use x="72.199982" xlink:href="#HelveticaNeue-111"/>
     <use x="129.599976" xlink:href="#HelveticaNeue-109"/>
     <use x="214.899963" xlink:href="#HelveticaNeue-112"/>
     <use x="274.199951" xlink:href="#HelveticaNeue-108"/>
     <use x="296.399948" xlink:href="#HelveticaNeue-101"/>
     <use x="350.099945" xlink:href="#HelveticaNeue-120"/>
     <use x="401.899933" xlink:href="#HelveticaNeue-32"/>
     <use x="429.699921" xlink:href="#HelveticaNeue-99"/>
     <use x="483.399918" xlink:href="#HelveticaNeue-121"/>
     <use x="533.399902" xlink:href="#HelveticaNeue-99"/>
     <use x="587.099899" xlink:href="#HelveticaNeue-108"/>
     <use x="609.299896" xlink:href="#HelveticaNeue-101"/>
    </g>
   </g>
   <g id="text_21">
    <!-- Complex cycle -->
    <g transform="translate(256.864297 24.036719)scale(0.09 -0.09)">
     <use xlink:href="#HelveticaNeue-67"/>
     <use x="72.199982" xlink:href="#HelveticaNeue-111"/>
     <use x="129.599976" xlink:href="#HelveticaNeue-109"/>
     <use x="214.899963" xlink:href="#HelveticaNeue-112"/>
     <use x="274.199951" xlink:href="#HelveticaNeue-108"/>
     <use x="296.399948" xlink:href="#HelveticaNeue-101"/>
     <use x="350.099945" xlink:href="#HelveticaNeue-120"/>
     <use x="401.899933" xlink:href="#HelveticaNeue-32"/>
     <use x="429.699921" xlink:href="#HelveticaNeue-99"/>
     <use x="483.399918" xlink:href="#HelveticaNeue-121"/>
     <use x="533.399902" xlink:href="#HelveticaNeue-99"/>
     <use x="587.099899" xlink:href="#HelveticaNeue-108"/>
     <use x="609.299896" xlink:href="#HelveticaNeue-101"/>
    </g>
   </g>
  </g>
  <g id="axes_3">
   <g id="patch_12">
    <path d="M 22.2 167.14 
L 180.6 167.14 
L 180.6 154.9 
L 22.2 154.9 
z
" style="fill:none;opacity:0;"/>
   </g>
  </g>
  <g id="axes_4">
   <g id="patch_13">
    <path d="M 207.5 167.14 
L 365.9 167.14 
L 365.9 154.9 
L 207.5 154.9 
z
" style="fill:none;opacity:0;"/>
   </g>
  </g>
  <g id="axes_5">
   <g id="patch_14">
    <path clip-path="url(#p1a11840e48)" d="M 22.2 167.14 
L 53.88 167.14 
L 148.92 167.14 
L 180.6 167.14 
L 180.6 154.9 
L 148.92 154.9 
L 53.88 154.9 
L 22.2 154.9 
z
" style="fill:#ffffff;stroke:#ffffff;stroke-linejoin:miter;stroke-width:0.01;"/>
   </g>
   <g id="PathCollection_1">
    <defs>
     <path d="M 180.6 -30.6 
L 180.6 -42.84 
L 22.2 -42.84 
L 22.2 -30.6 
z
" id="mb48e702dfd" style="stroke:#cecee5;stroke-width:0.4;"/>
    </defs>
    <g clip-path="url(#p1a11840e48)">
     <use style="fill:#cecee5;stroke:#cecee5;stroke-width:0.4;" x="0" xlink:href="#mb48e702dfd" y="197.74"/>
    </g>
   </g>
   <g id="PathCollection_2"/>
   <g id="PathCollection_3"/>
   <g id="PathCollection_4"/>
   <g id="PathCollection_5"/>
   <g id="QuadMesh_1">
    <path clip-path="url(#p1a11840e48)" d="M 22.2 167.14 
L 53.88 167.14 
L 53.88 154.9 
L 22.2 154.9 
L 22.2 167.14 
" style="fill:#cecee5;stroke:#cecee5;stroke-width:0.4;"/>
    <path clip-path="url(#p1a11840e48)" d="M 53.88 167.14 
L 85.56 167.14 
L 85.56 154.9 
L 53.88 154.9 
L 53.88 167.14 
" style="fill:#a4a1cc;stroke:#a4a1cc;stroke-width:0.4;"/>
    <path clip-path="url(#p1a11840e48)" d="M 85.56 167.14 
L 117.24 167.14 
L 117.24 154.9 
L 85.56 154.9 
L 85.56 167.14 
" style="fill:#7b74b5;stroke:#7b74b5;stroke-width:0.4;"/>
    <path clip-path="url(#p1a11840e48)" d="M 117.24 167.14 
L 148.92 167.14 
L 148.92 154.9 
L 117.24 154.9 
L 117.24 167.14 
" style="fill:#5c3797;stroke:#5c3797;stroke-width:0.4;"/>
    <path clip-path="url(#p1a11840e48)" d="M 148.92 167.14 
L 180.6 167.14 
L 180.6 154.9 
L 148.92 154.9 
L 148.92 167.14 
" style="fill:#3f007d;stroke:#3f007d;stroke-width:0.4;"/>
   </g>
   <g id="matplotlib.axis_5">
    <g id="xtick_39">
     <g id="line2d_120">
      <g>
       <use style="stroke:#000000;stroke-width:0.6;" x="38.04" xlink:href="#mc03d0e0ff8" y="167.14"/>
      </g>
     </g>
     <g id="text_22">
      <!-- 0 -->
      <g transform="translate(35.81625 178.8525)scale(0.08 -0.08)">
       <use xlink:href="#HelveticaNeue-48"/>
      </g>
     </g>
    </g>
    <g id="xtick_40">
     <g id="line2d_121">
      <g>
       <use style="stroke:#000000;stroke-width:0.6;" x="69.72" xlink:href="#mc03d0e0ff8" y="167.14"/>
      </g>
     </g>
     <g id="text_23">
      <!-- 1 -->
      <g transform="translate(67.49625 178.8525)scale(0.08 -0.08)">
       <use xlink:href="#HelveticaNeue-49"/>
      </g>
     </g>
    </g>
    <g id="xtick_41">
     <g id="line2d_122">
      <g>
       <use style="stroke:#000000;stroke-width:0.6;" x="101.4" xlink:href="#mc03d0e0ff8" y="167.14"/>
      </g>
     </g>
     <g id="text_24">
      <!-- 2 -->
      <g transform="translate(99.17625 178.8525)scale(0.08 -0.08)">
       <use xlink:href="#HelveticaNeue-50"/>
      </g>
     </g>
    </g>
    <g id="xtick_42">
     <g id="line2d_123">
      <g>
       <use style="stroke:#000000;stroke-width:0.6;" x="133.08" xlink:href="#mc03d0e0ff8" y="167.14"/>
      </g>
     </g>
     <g id="text_25">
      <!-- 3 -->
      <defs>
       <path d="M 21.796875 40.5 
L 21.796875 33.296875 
Q 24.203125 33.59375 26.90625 33.59375 
Q 30.09375 33.59375 32.84375 32.75 
Q 35.59375 31.90625 37.59375 30.15625 
Q 39.59375 28.40625 40.796875 25.84375 
Q 42 23.296875 42 20 
Q 42 16.796875 40.75 14.25 
Q 39.5 11.703125 37.390625 9.953125 
Q 35.296875 8.203125 32.5 7.25 
Q 29.703125 6.296875 26.59375 6.296875 
Q 19.296875 6.296875 15.5 10.640625 
Q 11.703125 15 11.5 21.90625 
L 3 21.90625 
Q 2.90625 16.40625 4.546875 12.09375 
Q 6.203125 7.796875 9.296875 4.84375 
Q 12.40625 1.90625 16.796875 0.40625 
Q 21.203125 -1.09375 26.59375 -1.09375 
Q 31.59375 -1.09375 36.046875 0.25 
Q 40.5 1.59375 43.796875 4.296875 
Q 47.09375 7 49.046875 11.046875 
Q 51 15.09375 51 20.40625 
Q 51 26.796875 47.84375 31.5 
Q 44.703125 36.203125 38.203125 37.59375 
L 38.203125 37.796875 
Q 42.40625 39.703125 45.203125 43.390625 
Q 48 47.09375 48 51.90625 
Q 48 56.796875 46.34375 60.390625 
Q 44.703125 64 41.796875 66.296875 
Q 38.90625 68.59375 34.953125 69.75 
Q 31 70.90625 26.40625 70.90625 
Q 21.09375 70.90625 17.046875 69.203125 
Q 13 67.5 10.296875 64.5 
Q 7.59375 61.5 6.140625 57.296875 
Q 4.703125 53.09375 4.5 48 
L 13 48 
Q 13 51.09375 13.796875 53.890625 
Q 14.59375 56.703125 16.25 58.796875 
Q 17.90625 60.90625 20.453125 62.15625 
Q 23 63.40625 26.40625 63.40625 
Q 31.796875 63.40625 35.390625 60.546875 
Q 39 57.703125 39 52 
Q 39 49.203125 37.890625 47 
Q 36.796875 44.796875 34.9375 43.34375 
Q 33.09375 41.90625 30.640625 41.15625 
Q 28.203125 40.40625 25.5 40.40625 
L 23.703125 40.40625 
Q 23.203125 40.40625 22.703125 40.40625 
Q 22.296875 40.40625 21.796875 40.5 
z
" id="HelveticaNeue-51"/>
      </defs>
      <g transform="translate(130.85625 178.8525)scale(0.08 -0.08)">
       <use xlink:href="#HelveticaNeue-51"/>
      </g>
     </g>
    </g>
    <g id="xtick_43">
     <g id="line2d_124">
      <g>
       <use style="stroke:#000000;stroke-width:0.6;" x="164.76" xlink:href="#mc03d0e0ff8" y="167.14"/>
      </g>
     </g>
     <g id="text_26">
      <!-- 4 -->
      <g transform="translate(162.53625 178.8525)scale(0.08 -0.08)">
       <use xlink:href="#HelveticaNeue-52"/>
      </g>
     </g>
    </g>
    <g id="text_27">
     <!-- clabel -->
     <defs>
      <path d="M 52.203125 0.203125 
Q 50 -1.09375 46.09375 -1.09375 
Q 42.796875 -1.09375 40.84375 0.75 
Q 38.90625 2.59375 38.90625 6.796875 
Q 35.40625 2.59375 30.75 0.75 
Q 26.09375 -1.09375 20.703125 -1.09375 
Q 17.203125 -1.09375 14.046875 -0.296875 
Q 10.90625 0.5 8.59375 2.203125 
Q 6.296875 3.90625 4.9375 6.65625 
Q 3.59375 9.40625 3.59375 13.296875 
Q 3.59375 17.703125 5.09375 20.5 
Q 6.59375 23.296875 9.046875 25.046875 
Q 11.5 26.796875 14.640625 27.6875 
Q 17.796875 28.59375 21.09375 29.203125 
Q 24.59375 29.90625 27.75 30.25 
Q 30.90625 30.59375 33.296875 31.25 
Q 35.703125 31.90625 37.09375 33.15625 
Q 38.5 34.40625 38.5 36.796875 
Q 38.5 39.59375 37.453125 41.296875 
Q 36.40625 43 34.75 43.890625 
Q 33.09375 44.796875 31.046875 45.09375 
Q 29 45.40625 27 45.40625 
Q 21.59375 45.40625 18 43.34375 
Q 14.40625 41.296875 14.09375 35.59375 
L 5.59375 35.59375 
Q 5.796875 40.40625 7.59375 43.703125 
Q 9.40625 47 12.40625 49.046875 
Q 15.40625 51.09375 19.25 52 
Q 23.09375 52.90625 27.5 52.90625 
Q 31 52.90625 34.453125 52.40625 
Q 37.90625 51.90625 40.703125 50.34375 
Q 43.5 48.796875 45.203125 46 
Q 46.90625 43.203125 46.90625 38.703125 
L 46.90625 12.09375 
Q 46.90625 9.09375 47.25 7.6875 
Q 47.59375 6.296875 49.59375 6.296875 
Q 50.703125 6.296875 52.203125 6.796875 
z
M 38.40625 26.703125 
Q 36.796875 25.5 34.1875 24.953125 
Q 31.59375 24.40625 28.75 24.046875 
Q 25.90625 23.703125 23 23.25 
Q 20.09375 22.796875 17.796875 21.796875 
Q 15.5 20.796875 14.046875 18.9375 
Q 12.59375 17.09375 12.59375 13.90625 
Q 12.59375 11.796875 13.4375 10.34375 
Q 14.296875 8.90625 15.640625 8 
Q 17 7.09375 18.796875 6.6875 
Q 20.59375 6.296875 22.59375 6.296875 
Q 26.796875 6.296875 29.796875 7.4375 
Q 32.796875 8.59375 34.6875 10.34375 
Q 36.59375 12.09375 37.5 14.140625 
Q 38.40625 16.203125 38.40625 18 
z
" id="HelveticaNeue-97"/>
      <path d="M 6.703125 71.40625 
L 6.703125 0 
L 15.203125 0 
L 15.203125 6.90625 
L 15.40625 6.90625 
Q 16.796875 4.59375 18.84375 3.046875 
Q 20.90625 1.5 23.203125 0.59375 
Q 25.5 -0.296875 27.84375 -0.6875 
Q 30.203125 -1.09375 32.09375 -1.09375 
Q 38 -1.09375 42.453125 1 
Q 46.90625 3.09375 49.84375 6.75 
Q 52.796875 10.40625 54.25 15.296875 
Q 55.703125 20.203125 55.703125 25.703125 
Q 55.703125 31.203125 54.203125 36.09375 
Q 52.703125 41 49.75 44.75 
Q 46.796875 48.5 42.34375 50.703125 
Q 37.90625 52.90625 31.90625 52.90625 
Q 26.5 52.90625 22 50.953125 
Q 17.5 49 15.40625 44.703125 
L 15.203125 44.703125 
L 15.203125 71.40625 
z
M 46.703125 26.296875 
Q 46.703125 22.5 45.890625 18.890625 
Q 45.09375 15.296875 43.296875 12.5 
Q 41.5 9.703125 38.546875 8 
Q 35.59375 6.296875 31.203125 6.296875 
Q 26.796875 6.296875 23.6875 7.9375 
Q 20.59375 9.59375 18.640625 12.296875 
Q 16.703125 15 15.796875 18.546875 
Q 14.90625 22.09375 14.90625 25.90625 
Q 14.90625 29.5 15.75 33 
Q 16.59375 36.5 18.5 39.25 
Q 20.40625 42 23.40625 43.703125 
Q 26.40625 45.40625 30.703125 45.40625 
Q 34.796875 45.40625 37.84375 43.796875 
Q 40.90625 42.203125 42.84375 39.5 
Q 44.796875 36.796875 45.75 33.34375 
Q 46.703125 29.90625 46.703125 26.296875 
z
" id="HelveticaNeue-98"/>
     </defs>
     <g transform="translate(90.8075 189.14125)scale(0.08 -0.08)">
      <use xlink:href="#HelveticaNeue-99"/>
      <use x="53.699997" xlink:href="#HelveticaNeue-108"/>
      <use x="75.899994" xlink:href="#HelveticaNeue-97"/>
      <use x="129.599991" xlink:href="#HelveticaNeue-98"/>
      <use x="188.899979" xlink:href="#HelveticaNeue-101"/>
      <use x="242.599976" xlink:href="#HelveticaNeue-108"/>
     </g>
    </g>
   </g>
   <g id="matplotlib.axis_6"/>
   <g id="patch_15">
    <path d="M 22.2 167.14 
L 53.88 167.14 
L 148.92 167.14 
L 180.6 167.14 
L 180.6 154.9 
L 148.92 154.9 
L 53.88 154.9 
L 22.2 154.9 
z
" style="fill:none;stroke:#000000;stroke-linejoin:miter;stroke-width:0.6;"/>
   </g>
  </g>
  <g id="axes_6">
   <g id="patch_16">
    <path clip-path="url(#p703b5db5c9)" d="M 207.5 167.14 
L 215.042857 167.14 
L 358.357143 167.14 
L 365.9 167.14 
L 365.9 154.9 
L 358.357143 154.9 
L 215.042857 154.9 
L 207.5 154.9 
z
" style="fill:#ffffff;stroke:#ffffff;stroke-linejoin:miter;stroke-width:0.01;"/>
   </g>
   <g id="PathCollection_6">
    <defs>
     <path d="M 365.9 -30.6 
L 365.9 -42.84 
L 207.5 -42.84 
L 207.5 -30.6 
z
" id="m2f75385e0f" style="stroke:#e3eef9;stroke-width:0.4;"/>
    </defs>
    <g clip-path="url(#p703b5db5c9)">
     <use style="fill:#e3eef9;stroke:#e3eef9;stroke-width:0.4;" x="0" xlink:href="#m2f75385e0f" y="197.74"/>
    </g>
   </g>
   <g id="PathCollection_7"/>
   <g id="PathCollection_8"/>
   <g id="PathCollection_9"/>
   <g id="PathCollection_10"/>
   <g id="PathCollection_11"/>
   <g id="PathCollection_12"/>
   <g id="PathCollection_13"/>
   <g id="PathCollection_14"/>
   <g id="PathCollection_15"/>
   <g id="PathCollection_16"/>
   <g id="PathCollection_17"/>
   <g id="PathCollection_18"/>
   <g id="PathCollection_19"/>
   <g id="PathCollection_20"/>
   <g id="PathCollection_21"/>
   <g id="PathCollection_22"/>
   <g id="PathCollection_23"/>
   <g id="PathCollection_24"/>
   <g id="PathCollection_25"/>
   <g id="PathCollection_26"/>
   <g id="QuadMesh_2">
    <path clip-path="url(#p703b5db5c9)" d="M 207.5 167.14 
L 215.042857 167.14 
L 215.042857 154.9 
L 207.5 154.9 
L 207.5 167.14 
" style="fill:#e3eef9;stroke:#e3eef9;stroke-width:0.4;"/>
    <path clip-path="url(#p703b5db5c9)" d="M 215.042857 167.14 
L 222.585714 167.14 
L 222.585714 154.9 
L 215.042857 154.9 
L 215.042857 167.14 
" style="fill:#c9ddf0;stroke:#c9ddf0;stroke-width:0.4;"/>
    <path clip-path="url(#p703b5db5c9)" d="M 222.585714 167.14 
L 230.128571 167.14 
L 230.128571 154.9 
L 222.585714 154.9 
L 222.585714 167.14 
" style="fill:#a0cbe2;stroke:#a0cbe2;stroke-width:0.4;"/>
    <path clip-path="url(#p703b5db5c9)" d="M 230.128571 167.14 
L 237.671429 167.14 
L 237.671429 154.9 
L 230.128571 154.9 
L 230.128571 167.14 
" style="fill:#69add5;stroke:#69add5;stroke-width:0.4;"/>
    <path clip-path="url(#p703b5db5c9)" d="M 237.671429 167.14 
L 245.214286 167.14 
L 245.214286 154.9 
L 237.671429 154.9 
L 237.671429 167.14 
" style="fill:#3e8ec4;stroke:#3e8ec4;stroke-width:0.4;"/>
    <path clip-path="url(#p703b5db5c9)" d="M 245.214286 167.14 
L 252.757143 167.14 
L 252.757143 154.9 
L 245.214286 154.9 
L 245.214286 167.14 
" style="fill:#1c6ab0;stroke:#1c6ab0;stroke-width:0.4;"/>
    <path clip-path="url(#p703b5db5c9)" d="M 252.757143 167.14 
L 260.3 167.14 
L 260.3 154.9 
L 252.757143 154.9 
L 252.757143 167.14 
" style="fill:#08488e;stroke:#08488e;stroke-width:0.4;"/>
    <path clip-path="url(#p703b5db5c9)" d="M 260.3 167.14 
L 267.842857 167.14 
L 267.842857 154.9 
L 260.3 154.9 
L 260.3 167.14 
" style="fill:#fedbcb;stroke:#fedbcb;stroke-width:0.4;"/>
    <path clip-path="url(#p703b5db5c9)" d="M 267.842857 167.14 
L 275.385714 167.14 
L 275.385714 154.9 
L 267.842857 154.9 
L 267.842857 167.14 
" style="fill:#fcb195;stroke:#fcb195;stroke-width:0.4;"/>
    <path clip-path="url(#p703b5db5c9)" d="M 275.385714 167.14 
L 282.928571 167.14 
L 282.928571 154.9 
L 275.385714 154.9 
L 275.385714 167.14 
" style="fill:#fc8565;stroke:#fc8565;stroke-width:0.4;"/>
    <path clip-path="url(#p703b5db5c9)" d="M 282.928571 167.14 
L 290.471429 167.14 
L 290.471429 154.9 
L 282.928571 154.9 
L 282.928571 167.14 
" style="fill:#f6573e;stroke:#f6573e;stroke-width:0.4;"/>
    <path clip-path="url(#p703b5db5c9)" d="M 290.471429 167.14 
L 298.014286 167.14 
L 298.014286 154.9 
L 290.471429 154.9 
L 290.471429 167.14 
" style="fill:#de2a25;stroke:#de2a25;stroke-width:0.4;"/>
    <path clip-path="url(#p703b5db5c9)" d="M 298.014286 167.14 
L 305.557143 167.14 
L 305.557143 154.9 
L 298.014286 154.9 
L 298.014286 167.14 
" style="fill:#b61319;stroke:#b61319;stroke-width:0.4;"/>
    <path clip-path="url(#p703b5db5c9)" d="M 305.557143 167.14 
L 313.1 167.14 
L 313.1 154.9 
L 305.557143 154.9 
L 305.557143 167.14 
" style="fill:#7d0510;stroke:#7d0510;stroke-width:0.4;"/>
    <path clip-path="url(#p703b5db5c9)" d="M 313.1 167.14 
L 320.642857 167.14 
L 320.642857 154.9 
L 313.1 154.9 
L 313.1 167.14 
" style="fill:#fddab7;stroke:#fddab7;stroke-width:0.4;"/>
    <path clip-path="url(#p703b5db5c9)" d="M 320.642857 167.14 
L 328.185714 167.14 
L 328.185714 154.9 
L 320.642857 154.9 
L 320.642857 167.14 
" style="fill:#fdbb80;stroke:#fdbb80;stroke-width:0.4;"/>
    <path clip-path="url(#p703b5db5c9)" d="M 328.185714 167.14 
L 335.728571 167.14 
L 335.728571 154.9 
L 328.185714 154.9 
L 328.185714 167.14 
" style="fill:#fd974b;stroke:#fd974b;stroke-width:0.4;"/>
    <path clip-path="url(#p703b5db5c9)" d="M 335.728571 167.14 
L 343.271429 167.14 
L 343.271429 154.9 
L 335.728571 154.9 
L 335.728571 167.14 
" style="fill:#f4721d;stroke:#f4721d;stroke-width:0.4;"/>
    <path clip-path="url(#p703b5db5c9)" d="M 343.271429 167.14 
L 350.814286 167.14 
L 350.814286 154.9 
L 343.271429 154.9 
L 343.271429 167.14 
" style="fill:#dc4d04;stroke:#dc4d04;stroke-width:0.4;"/>
    <path clip-path="url(#p703b5db5c9)" d="M 350.814286 167.14 
L 358.357143 167.14 
L 358.357143 154.9 
L 350.814286 154.9 
L 350.814286 167.14 
" style="fill:#aa3703;stroke:#aa3703;stroke-width:0.4;"/>
    <path clip-path="url(#p703b5db5c9)" d="M 358.357143 167.14 
L 365.9 167.14 
L 365.9 154.9 
L 358.357143 154.9 
L 358.357143 167.14 
" style="fill:#7f2704;stroke:#7f2704;stroke-width:0.4;"/>
   </g>
   <g id="matplotlib.axis_7">
    <g id="xtick_44">
     <g id="line2d_125">
      <g>
       <use style="stroke:#000000;stroke-width:0.6;" x="211.271429" xlink:href="#mc03d0e0ff8" y="167.14"/>
      </g>
     </g>
     <g id="text_28">
      <!-- 0 -->
      <g transform="translate(209.047679 178.8525)scale(0.08 -0.08)">
       <use xlink:href="#HelveticaNeue-48"/>
      </g>
     </g>
    </g>
    <g id="xtick_45">
     <g id="line2d_126">
      <g>
       <use style="stroke:#000000;stroke-width:0.6;" x="226.357143" xlink:href="#mc03d0e0ff8" y="167.14"/>
      </g>
     </g>
     <g id="text_29">
      <!-- 2 -->
      <g transform="translate(224.133393 178.8525)scale(0.08 -0.08)">
       <use xlink:href="#HelveticaNeue-50"/>
      </g>
     </g>
    </g>
    <g id="xtick_46">
     <g id="line2d_127">
      <g>
       <use style="stroke:#000000;stroke-width:0.6;" x="241.442857" xlink:href="#mc03d0e0ff8" y="167.14"/>
      </g>
     </g>
     <g id="text_30">
      <!-- 4 -->
      <g transform="translate(239.219107 178.8525)scale(0.08 -0.08)">
       <use xlink:href="#HelveticaNeue-52"/>
      </g>
     </g>
    </g>
    <g id="xtick_47">
     <g id="line2d_128">
      <g>
       <use style="stroke:#000000;stroke-width:0.6;" x="256.528571" xlink:href="#mc03d0e0ff8" y="167.14"/>
      </g>
     </g>
     <g id="text_31">
      <!-- 6 -->
      <g transform="translate(254.304821 178.8525)scale(0.08 -0.08)">
       <use xlink:href="#HelveticaNeue-54"/>
      </g>
     </g>
    </g>
    <g id="xtick_48">
     <g id="line2d_129">
      <g>
       <use style="stroke:#000000;stroke-width:0.6;" x="271.614286" xlink:href="#mc03d0e0ff8" y="167.14"/>
      </g>
     </g>
     <g id="text_32">
      <!-- 8 -->
      <g transform="translate(269.390536 178.8525)scale(0.08 -0.08)">
       <use xlink:href="#HelveticaNeue-56"/>
      </g>
     </g>
    </g>
    <g id="xtick_49">
     <g id="line2d_130">
      <g>
       <use style="stroke:#000000;stroke-width:0.6;" x="286.7" xlink:href="#mc03d0e0ff8" y="167.14"/>
      </g>
     </g>
     <g id="text_33">
      <!-- 10 -->
      <g transform="translate(282.2525 178.8525)scale(0.08 -0.08)">
       <use xlink:href="#HelveticaNeue-49"/>
       <use x="55.599991" xlink:href="#HelveticaNeue-48"/>
      </g>
     </g>
    </g>
    <g id="xtick_50">
     <g id="line2d_131">
      <g>
       <use style="stroke:#000000;stroke-width:0.6;" x="301.785714" xlink:href="#mc03d0e0ff8" y="167.14"/>
      </g>
     </g>
     <g id="text_34">
      <!-- 12 -->
      <g transform="translate(297.338214 178.8525)scale(0.08 -0.08)">
       <use xlink:href="#HelveticaNeue-49"/>
       <use x="55.599991" xlink:href="#HelveticaNeue-50"/>
      </g>
     </g>
    </g>
    <g id="xtick_51">
     <g id="line2d_132">
      <g>
       <use style="stroke:#000000;stroke-width:0.6;" x="316.871429" xlink:href="#mc03d0e0ff8" y="167.14"/>
      </g>
     </g>
     <g id="text_35">
      <!-- 14 -->
      <g transform="translate(312.423929 178.8525)scale(0.08 -0.08)">
       <use xlink:href="#HelveticaNeue-49"/>
       <use x="55.599991" xlink:href="#HelveticaNeue-52"/>
      </g>
     </g>
    </g>
    <g id="xtick_52">
     <g id="line2d_133">
      <g>
       <use style="stroke:#000000;stroke-width:0.6;" x="331.957143" xlink:href="#mc03d0e0ff8" y="167.14"/>
      </g>
     </g>
     <g id="text_36">
      <!-- 16 -->
      <g transform="translate(327.509643 178.8525)scale(0.08 -0.08)">
       <use xlink:href="#HelveticaNeue-49"/>
       <use x="55.599991" xlink:href="#HelveticaNeue-54"/>
      </g>
     </g>
    </g>
    <g id="xtick_53">
     <g id="line2d_134">
      <g>
       <use style="stroke:#000000;stroke-width:0.6;" x="347.042857" xlink:href="#mc03d0e0ff8" y="167.14"/>
      </g>
     </g>
     <g id="text_37">
      <!-- 18 -->
      <g transform="translate(342.595357 178.8525)scale(0.08 -0.08)">
       <use xlink:href="#HelveticaNeue-49"/>
       <use x="55.599991" xlink:href="#HelveticaNeue-56"/>
      </g>
     </g>
    </g>
    <g id="xtick_54">
     <g id="line2d_135">
      <g>
       <use style="stroke:#000000;stroke-width:0.6;" x="362.128571" xlink:href="#mc03d0e0ff8" y="167.14"/>
      </g>
     </g>
     <g id="text_38">
      <!-- 20 -->
      <g transform="translate(357.681071 178.8525)scale(0.08 -0.08)">
       <use xlink:href="#HelveticaNeue-50"/>
       <use x="55.599991" xlink:href="#HelveticaNeue-48"/>
      </g>
     </g>
    </g>
    <g id="text_39">
     <!-- clabel -->
     <g transform="translate(276.1075 189.14125)scale(0.08 -0.08)">
      <use xlink:href="#HelveticaNeue-99"/>
      <use x="53.699997" xlink:href="#HelveticaNeue-108"/>
      <use x="75.899994" xlink:href="#HelveticaNeue-97"/>
      <use x="129.599991" xlink:href="#HelveticaNeue-98"/>
      <use x="188.899979" xlink:href="#HelveticaNeue-101"/>
      <use x="242.599976" xlink:href="#HelveticaNeue-108"/>
     </g>
    </g>
   </g>
   <g id="matplotlib.axis_8"/>
   <g id="patch_17">
    <path d="M 207.5 167.14 
L 215.042857 167.14 
L 358.357143 167.14 
L 365.9 167.14 
L 365.9 154.9 
L 358.357143 154.9 
L 215.042857 154.9 
L 207.5 154.9 
z
" style="fill:none;stroke:#000000;stroke-linejoin:miter;stroke-width:0.6;"/>
   </g>
  </g>
  <g id="text_40">
   <!-- Color cycles from colormaps demo -->
   <defs>
    <path d="M 54.5 47.40625 
L 69.703125 47.40625 
Q 69 53.59375 66.296875 58.390625 
Q 63.59375 63.203125 59.4375 66.453125 
Q 55.296875 69.703125 50.046875 71.390625 
Q 44.796875 73.09375 38.90625 73.09375 
Q 30.703125 73.09375 24.140625 70.1875 
Q 17.59375 67.296875 13.09375 62.1875 
Q 8.59375 57.09375 6.1875 50.25 
Q 3.796875 43.40625 3.796875 35.40625 
Q 3.796875 27.59375 6.1875 20.84375 
Q 8.59375 14.09375 13.09375 9.09375 
Q 17.59375 4.09375 24.140625 1.25 
Q 30.703125 -1.59375 38.90625 -1.59375 
Q 45.5 -1.59375 51 0.40625 
Q 56.5 2.40625 60.59375 6.203125 
Q 64.703125 10 67.203125 15.390625 
Q 69.703125 20.796875 70.296875 27.5 
L 55.09375 27.5 
Q 54.203125 20.296875 50.140625 15.890625 
Q 46.09375 11.5 38.90625 11.5 
Q 33.59375 11.5 29.890625 13.546875 
Q 26.203125 15.59375 23.890625 19 
Q 21.59375 22.40625 20.546875 26.65625 
Q 19.5 30.90625 19.5 35.40625 
Q 19.5 40.09375 20.546875 44.5 
Q 21.59375 48.90625 23.890625 52.34375 
Q 26.203125 55.796875 29.890625 57.84375 
Q 33.59375 59.90625 38.90625 59.90625 
Q 41.796875 59.90625 44.4375 58.953125 
Q 47.09375 58 49.1875 56.296875 
Q 51.296875 54.59375 52.6875 52.34375 
Q 54.09375 50.09375 54.5 47.40625 
z
" id="HelveticaNeue-Bold-67"/>
    <path d="M 18 25.796875 
Q 18 28.90625 18.59375 31.90625 
Q 19.203125 34.90625 20.640625 37.203125 
Q 22.09375 39.5 24.5 40.953125 
Q 26.90625 42.40625 30.5 42.40625 
Q 34.09375 42.40625 36.546875 40.953125 
Q 39 39.5 40.453125 37.203125 
Q 41.90625 34.90625 42.5 31.90625 
Q 43.09375 28.90625 43.09375 25.796875 
Q 43.09375 22.703125 42.5 19.75 
Q 41.90625 16.796875 40.453125 14.4375 
Q 39 12.09375 36.546875 10.6875 
Q 34.09375 9.296875 30.5 9.296875 
Q 26.90625 9.296875 24.5 10.6875 
Q 22.09375 12.09375 20.640625 14.4375 
Q 19.203125 16.796875 18.59375 19.75 
Q 18 22.703125 18 25.796875 
z
M 3.796875 25.796875 
Q 3.796875 19.59375 5.6875 14.59375 
Q 7.59375 9.59375 11.09375 6.046875 
Q 14.59375 2.5 19.5 0.59375 
Q 24.40625 -1.296875 30.5 -1.296875 
Q 36.59375 -1.296875 41.546875 0.59375 
Q 46.5 2.5 50 6.046875 
Q 53.5 9.59375 55.390625 14.59375 
Q 57.296875 19.59375 57.296875 25.796875 
Q 57.296875 32 55.390625 37.046875 
Q 53.5 42.09375 50 45.640625 
Q 46.5 49.203125 41.546875 51.140625 
Q 36.59375 53.09375 30.5 53.09375 
Q 24.40625 53.09375 19.5 51.140625 
Q 14.59375 49.203125 11.09375 45.640625 
Q 7.59375 42.09375 5.6875 37.046875 
Q 3.796875 32 3.796875 25.796875 
z
" id="HelveticaNeue-Bold-111"/>
    <path d="M 5.796875 71.40625 
L 5.796875 0 
L 20 0 
L 20 71.40625 
z
" id="HelveticaNeue-Bold-108"/>
    <path d="M 5.40625 51.703125 
L 5.40625 0 
L 19.59375 0 
L 19.59375 23.296875 
Q 19.59375 26.796875 20.296875 29.796875 
Q 21 32.796875 22.640625 35.046875 
Q 24.296875 37.296875 27 38.59375 
Q 29.703125 39.90625 33.59375 39.90625 
Q 34.90625 39.90625 36.296875 39.75 
Q 37.703125 39.59375 38.703125 39.40625 
L 38.703125 52.59375 
Q 37 53.09375 35.59375 53.09375 
Q 32.90625 53.09375 30.40625 52.296875 
Q 27.90625 51.5 25.703125 50.046875 
Q 23.5 48.59375 21.796875 46.546875 
Q 20.09375 44.5 19.09375 42.09375 
L 18.90625 42.09375 
L 18.90625 51.703125 
z
" id="HelveticaNeue-Bold-114"/>
    <path id="HelveticaNeue-Bold-32"/>
    <path d="M 40.59375 33.5 
L 54.5 33.5 
Q 54.203125 38.5 52.09375 42.140625 
Q 50 45.796875 46.640625 48.25 
Q 43.296875 50.703125 39.046875 51.890625 
Q 34.796875 53.09375 30.203125 53.09375 
Q 23.90625 53.09375 19 51 
Q 14.09375 48.90625 10.6875 45.15625 
Q 7.296875 41.40625 5.546875 36.25 
Q 3.796875 31.09375 3.796875 25.09375 
Q 3.796875 19.296875 5.6875 14.4375 
Q 7.59375 9.59375 11 6.09375 
Q 14.40625 2.59375 19.25 0.640625 
Q 24.09375 -1.296875 29.90625 -1.296875 
Q 40.203125 -1.296875 46.796875 4.09375 
Q 53.40625 9.5 54.796875 19.796875 
L 41.09375 19.796875 
Q 40.40625 15 37.65625 12.140625 
Q 34.90625 9.296875 29.796875 9.296875 
Q 26.5 9.296875 24.203125 10.796875 
Q 21.90625 12.296875 20.546875 14.640625 
Q 19.203125 17 18.59375 19.890625 
Q 18 22.796875 18 25.59375 
Q 18 28.5 18.59375 31.453125 
Q 19.203125 34.40625 20.640625 36.84375 
Q 22.09375 39.296875 24.390625 40.84375 
Q 26.703125 42.40625 30.09375 42.40625 
Q 39.203125 42.40625 40.59375 33.5 
z
" id="HelveticaNeue-Bold-99"/>
    <path d="M 30.90625 -6.40625 
L 52.5 51.703125 
L 37.796875 51.703125 
L 26.5 16.296875 
L 26.296875 16.296875 
L 14.59375 51.703125 
L -0.5 51.703125 
L 17.59375 3.203125 
Q 18.203125 1.703125 18.203125 0 
Q 18.203125 -2.296875 16.84375 -4.1875 
Q 15.5 -6.09375 12.703125 -6.40625 
Q 10.59375 -6.5 8.5 -6.296875 
Q 6.40625 -6.09375 4.40625 -5.90625 
L 4.40625 -17.59375 
Q 6.59375 -17.796875 8.75 -17.9375 
Q 10.90625 -18.09375 13.09375 -18.09375 
Q 20.40625 -18.09375 24.5 -15.390625 
Q 28.59375 -12.703125 30.90625 -6.40625 
z
" id="HelveticaNeue-Bold-121"/>
    <path d="M 40.203125 31.40625 
L 17.09375 31.40625 
Q 17.203125 32.90625 17.75 34.796875 
Q 18.296875 36.703125 19.640625 38.390625 
Q 21 40.09375 23.25 41.25 
Q 25.5 42.40625 28.90625 42.40625 
Q 34.09375 42.40625 36.640625 39.59375 
Q 39.203125 36.796875 40.203125 31.40625 
z
M 17.09375 22.40625 
L 54.40625 22.40625 
Q 54.796875 28.40625 53.390625 33.90625 
Q 52 39.40625 48.84375 43.703125 
Q 45.703125 48 40.796875 50.546875 
Q 35.90625 53.09375 29.296875 53.09375 
Q 23.40625 53.09375 18.546875 51 
Q 13.703125 48.90625 10.203125 45.25 
Q 6.703125 41.59375 4.796875 36.59375 
Q 2.90625 31.59375 2.90625 25.796875 
Q 2.90625 19.796875 4.75 14.796875 
Q 6.59375 9.796875 10 6.1875 
Q 13.40625 2.59375 18.296875 0.640625 
Q 23.203125 -1.296875 29.296875 -1.296875 
Q 38.09375 -1.296875 44.296875 2.703125 
Q 50.5 6.703125 53.5 16 
L 41 16 
Q 40.296875 13.59375 37.1875 11.4375 
Q 34.09375 9.296875 29.796875 9.296875 
Q 23.796875 9.296875 20.59375 12.390625 
Q 17.40625 15.5 17.09375 22.40625 
z
" id="HelveticaNeue-Bold-101"/>
    <path d="M 16.40625 16.796875 
L 2.90625 16.796875 
Q 3.09375 11.59375 5.25 8.140625 
Q 7.40625 4.703125 10.75 2.59375 
Q 14.09375 0.5 18.390625 -0.390625 
Q 22.703125 -1.296875 27.203125 -1.296875 
Q 31.59375 -1.296875 35.84375 -0.4375 
Q 40.09375 0.40625 43.390625 2.5 
Q 46.703125 4.59375 48.75 8.046875 
Q 50.796875 11.5 50.796875 16.59375 
Q 50.796875 20.203125 49.390625 22.640625 
Q 48 25.09375 45.703125 26.75 
Q 43.40625 28.40625 40.453125 29.40625 
Q 37.5 30.40625 34.40625 31.09375 
Q 31.40625 31.796875 28.5 32.390625 
Q 25.59375 33 23.34375 33.75 
Q 21.09375 34.5 19.6875 35.703125 
Q 18.296875 36.90625 18.296875 38.796875 
Q 18.296875 40.40625 19.09375 41.34375 
Q 19.90625 42.296875 21.046875 42.796875 
Q 22.203125 43.296875 23.59375 43.4375 
Q 25 43.59375 26.203125 43.59375 
Q 30 43.59375 32.796875 42.140625 
Q 35.59375 40.703125 35.90625 36.59375 
L 49.40625 36.59375 
Q 49 41.40625 46.953125 44.546875 
Q 44.90625 47.703125 41.796875 49.59375 
Q 38.703125 51.5 34.75 52.296875 
Q 30.796875 53.09375 26.59375 53.09375 
Q 22.40625 53.09375 18.40625 52.34375 
Q 14.40625 51.59375 11.203125 49.75 
Q 8 47.90625 6.046875 44.703125 
Q 4.09375 41.5 4.09375 36.5 
Q 4.09375 33.09375 5.5 30.75 
Q 6.90625 28.40625 9.203125 26.84375 
Q 11.5 25.296875 14.453125 24.34375 
Q 17.40625 23.40625 20.5 22.703125 
Q 28.09375 21.09375 32.34375 19.5 
Q 36.59375 17.90625 36.59375 14.703125 
Q 36.59375 12.796875 35.6875 11.546875 
Q 34.796875 10.296875 33.4375 9.546875 
Q 32.09375 8.796875 30.4375 8.4375 
Q 28.796875 8.09375 27.296875 8.09375 
Q 25.203125 8.09375 23.25 8.59375 
Q 21.296875 9.09375 19.796875 10.140625 
Q 18.296875 11.203125 17.34375 12.84375 
Q 16.40625 14.5 16.40625 16.796875 
z
" id="HelveticaNeue-Bold-115"/>
    <path d="M 8.5 42.203125 
L 8.5 0 
L 22.703125 0 
L 22.703125 42.203125 
L 32.5 42.203125 
L 32.5 51.703125 
L 22.703125 51.703125 
L 22.703125 54.796875 
Q 22.703125 58 23.953125 59.34375 
Q 25.203125 60.703125 28.09375 60.703125 
Q 30.796875 60.703125 33.296875 60.40625 
L 33.296875 71 
Q 31.5 71.09375 29.59375 71.25 
Q 27.703125 71.40625 25.796875 71.40625 
Q 17.09375 71.40625 12.796875 67 
Q 8.5 62.59375 8.5 55.703125 
L 8.5 51.703125 
L 0 51.703125 
L 0 42.203125 
z
" id="HelveticaNeue-Bold-102"/>
    <path d="M 5.796875 51.703125 
L 5.796875 0 
L 20 0 
L 20 30 
Q 20 33.796875 21.09375 36.140625 
Q 22.203125 38.5 23.75 39.75 
Q 25.296875 41 26.9375 41.453125 
Q 28.59375 41.90625 29.59375 41.90625 
Q 33 41.90625 34.75 40.75 
Q 36.5 39.59375 37.25 37.6875 
Q 38 35.796875 38.09375 33.546875 
Q 38.203125 31.296875 38.203125 29 
L 38.203125 0 
L 52.40625 0 
L 52.40625 28.796875 
Q 52.40625 31.203125 52.75 33.546875 
Q 53.09375 35.90625 54.140625 37.75 
Q 55.203125 39.59375 57.046875 40.75 
Q 58.90625 41.90625 61.90625 41.90625 
Q 64.90625 41.90625 66.65625 40.90625 
Q 68.40625 39.90625 69.296875 38.203125 
Q 70.203125 36.5 70.390625 34.203125 
Q 70.59375 31.90625 70.59375 29.296875 
L 70.59375 0 
L 84.796875 0 
L 84.796875 34.59375 
Q 84.796875 39.59375 83.390625 43.140625 
Q 82 46.703125 79.5 48.890625 
Q 77 51.09375 73.5 52.09375 
Q 70 53.09375 65.90625 53.09375 
Q 60.5 53.09375 56.546875 50.5 
Q 52.59375 47.90625 50.296875 44.5 
Q 48.203125 49.296875 44.140625 51.1875 
Q 40.09375 53.09375 35.203125 53.09375 
Q 30.09375 53.09375 26.140625 50.890625 
Q 22.203125 48.703125 19.40625 44.703125 
L 19.203125 44.703125 
L 19.203125 51.703125 
z
" id="HelveticaNeue-Bold-109"/>
    <path d="M 4.796875 35.796875 
Q 5.09375 40.796875 7.296875 44.09375 
Q 9.5 47.40625 12.890625 49.40625 
Q 16.296875 51.40625 20.546875 52.25 
Q 24.796875 53.09375 29.09375 53.09375 
Q 33 53.09375 37 52.546875 
Q 41 52 44.296875 50.390625 
Q 47.59375 48.796875 49.6875 45.9375 
Q 51.796875 43.09375 51.796875 38.40625 
L 51.796875 11.5 
Q 51.796875 8 52.1875 4.796875 
Q 52.59375 1.59375 53.59375 0 
L 39.203125 0 
Q 38.796875 1.203125 38.546875 2.453125 
Q 38.296875 3.703125 38.203125 5 
Q 34.796875 1.5 30.1875 0.09375 
Q 25.59375 -1.296875 20.796875 -1.296875 
Q 17.09375 -1.296875 13.890625 -0.390625 
Q 10.703125 0.5 8.296875 2.390625 
Q 5.90625 4.296875 4.546875 7.1875 
Q 3.203125 10.09375 3.203125 14.09375 
Q 3.203125 18.5 4.75 21.34375 
Q 6.296875 24.203125 8.75 25.890625 
Q 11.203125 27.59375 14.34375 28.4375 
Q 17.5 29.296875 20.703125 29.796875 
Q 23.90625 30.296875 27 30.59375 
Q 30.09375 30.90625 32.5 31.5 
Q 34.90625 32.09375 36.296875 33.25 
Q 37.703125 34.40625 37.59375 36.59375 
Q 37.59375 38.90625 36.84375 40.25 
Q 36.09375 41.59375 34.84375 42.34375 
Q 33.59375 43.09375 31.9375 43.34375 
Q 30.296875 43.59375 28.40625 43.59375 
Q 24.203125 43.59375 21.796875 41.796875 
Q 19.40625 40 19 35.796875 
z
M 37.59375 25.296875 
Q 36.703125 24.5 35.34375 24.046875 
Q 34 23.59375 32.453125 23.296875 
Q 30.90625 23 29.203125 22.796875 
Q 27.5 22.59375 25.796875 22.296875 
Q 24.203125 22 22.640625 21.5 
Q 21.09375 21 19.9375 20.140625 
Q 18.796875 19.296875 18.09375 18 
Q 17.40625 16.703125 17.40625 14.703125 
Q 17.40625 12.796875 18.09375 11.5 
Q 18.796875 10.203125 20 9.453125 
Q 21.203125 8.703125 22.796875 8.390625 
Q 24.40625 8.09375 26.09375 8.09375 
Q 30.296875 8.09375 32.59375 9.5 
Q 34.90625 10.90625 36 12.84375 
Q 37.09375 14.796875 37.34375 16.796875 
Q 37.59375 18.796875 37.59375 20 
z
" id="HelveticaNeue-Bold-97"/>
    <path d="M 31.5 9.296875 
Q 28.09375 9.296875 25.6875 10.6875 
Q 23.296875 12.09375 21.84375 14.34375 
Q 20.40625 16.59375 19.75 19.59375 
Q 19.09375 22.59375 19.09375 25.703125 
Q 19.09375 28.90625 19.6875 31.90625 
Q 20.296875 34.90625 21.75 37.203125 
Q 23.203125 39.5 25.546875 40.953125 
Q 27.90625 42.40625 31.40625 42.40625 
Q 34.796875 42.40625 37.140625 40.953125 
Q 39.5 39.5 41 37.140625 
Q 42.5 34.796875 43.140625 31.796875 
Q 43.796875 28.796875 43.796875 25.703125 
Q 43.796875 22.59375 43.1875 19.59375 
Q 42.59375 16.59375 41.140625 14.34375 
Q 39.703125 12.09375 37.34375 10.6875 
Q 35 9.296875 31.5 9.296875 
z
M 5.40625 51.703125 
L 5.40625 -18.09375 
L 19.59375 -18.09375 
L 19.59375 6.40625 
L 19.796875 6.40625 
Q 22.40625 2.59375 26.453125 0.640625 
Q 30.5 -1.296875 35.296875 -1.296875 
Q 41 -1.296875 45.25 0.890625 
Q 49.5 3.09375 52.34375 6.796875 
Q 55.203125 10.5 56.59375 15.296875 
Q 58 20.09375 58 25.296875 
Q 58 30.796875 56.59375 35.84375 
Q 55.203125 40.90625 52.296875 44.703125 
Q 49.40625 48.5 45 50.796875 
Q 40.59375 53.09375 34.5 53.09375 
Q 29.703125 53.09375 25.703125 51.1875 
Q 21.703125 49.296875 19.09375 45.09375 
L 18.90625 45.09375 
L 18.90625 51.703125 
z
" id="HelveticaNeue-Bold-112"/>
    <path d="M 42.09375 26 
Q 42.09375 22.796875 41.5 19.796875 
Q 40.90625 16.796875 39.5 14.4375 
Q 38.09375 12.09375 35.75 10.6875 
Q 33.40625 9.296875 29.90625 9.296875 
Q 26.59375 9.296875 24.25 10.75 
Q 21.90625 12.203125 20.34375 14.546875 
Q 18.796875 16.90625 18.09375 19.90625 
Q 17.40625 22.90625 17.40625 25.90625 
Q 17.40625 29.09375 18.046875 32.046875 
Q 18.703125 35 20.140625 37.296875 
Q 21.59375 39.59375 24 41 
Q 26.40625 42.40625 29.90625 42.40625 
Q 33.40625 42.40625 35.703125 41 
Q 38 39.59375 39.453125 37.34375 
Q 40.90625 35.09375 41.5 32.140625 
Q 42.09375 29.203125 42.09375 26 
z
M 42.296875 6.59375 
L 42.296875 0 
L 55.796875 0 
L 55.796875 71.40625 
L 41.59375 71.40625 
L 41.59375 45.40625 
L 41.40625 45.40625 
Q 39 49.203125 34.84375 51.140625 
Q 30.703125 53.09375 26.09375 53.09375 
Q 20.40625 53.09375 16.09375 50.84375 
Q 11.796875 48.59375 8.9375 44.890625 
Q 6.09375 41.203125 4.640625 36.34375 
Q 3.203125 31.5 3.203125 26.296875 
Q 3.203125 20.90625 4.640625 15.90625 
Q 6.09375 10.90625 8.9375 7.046875 
Q 11.796875 3.203125 16.1875 0.953125 
Q 20.59375 -1.296875 26.40625 -1.296875 
Q 31.5 -1.296875 35.546875 0.546875 
Q 39.59375 2.40625 42.09375 6.59375 
z
" id="HelveticaNeue-Bold-100"/>
   </defs>
   <g transform="translate(118.587109 13.129844)scale(0.09 -0.09)">
    <use xlink:href="#HelveticaNeue-Bold-67"/>
    <use x="74.099991" xlink:href="#HelveticaNeue-Bold-111"/>
    <use x="135.199982" xlink:href="#HelveticaNeue-Bold-108"/>
    <use x="160.999969" xlink:href="#HelveticaNeue-Bold-111"/>
    <use x="222.09996" xlink:href="#HelveticaNeue-Bold-114"/>
    <use x="260.999954" xlink:href="#HelveticaNeue-Bold-32"/>
    <use x="288.799942" xlink:href="#HelveticaNeue-Bold-99"/>
    <use x="346.199936" xlink:href="#HelveticaNeue-Bold-121"/>
    <use x="398.09993" xlink:href="#HelveticaNeue-Bold-99"/>
    <use x="455.499924" xlink:href="#HelveticaNeue-Bold-108"/>
    <use x="481.299911" xlink:href="#HelveticaNeue-Bold-101"/>
    <use x="538.699905" xlink:href="#HelveticaNeue-Bold-115"/>
    <use x="592.399902" xlink:href="#HelveticaNeue-Bold-32"/>
    <use x="620.19989" xlink:href="#HelveticaNeue-Bold-102"/>
    <use x="653.499878" xlink:href="#HelveticaNeue-Bold-114"/>
    <use x="692.384247" xlink:href="#HelveticaNeue-Bold-111"/>
    <use x="753.484238" xlink:href="#HelveticaNeue-Bold-109"/>
    <use x="844.084229" xlink:href="#HelveticaNeue-Bold-32"/>
    <use x="871.884216" xlink:href="#HelveticaNeue-Bold-99"/>
    <use x="929.28421" xlink:href="#HelveticaNeue-Bold-111"/>
    <use x="990.384201" xlink:href="#HelveticaNeue-Bold-108"/>
    <use x="1016.184189" xlink:href="#HelveticaNeue-Bold-111"/>
    <use x="1077.28418" xlink:href="#HelveticaNeue-Bold-114"/>
    <use x="1116.184174" xlink:href="#HelveticaNeue-Bold-109"/>
    <use x="1206.784164" xlink:href="#HelveticaNeue-Bold-97"/>
    <use x="1264.184158" xlink:href="#HelveticaNeue-Bold-112"/>
    <use x="1325.284149" xlink:href="#HelveticaNeue-Bold-115"/>
    <use x="1378.984146" xlink:href="#HelveticaNeue-Bold-32"/>
    <use x="1406.784134" xlink:href="#HelveticaNeue-Bold-100"/>
    <use x="1467.884125" xlink:href="#HelveticaNeue-Bold-101"/>
    <use x="1525.284119" xlink:href="#HelveticaNeue-Bold-109"/>
    <use x="1615.884109" xlink:href="#HelveticaNeue-Bold-111"/>
   </g>
  </g>
 </g>
 <defs>
  <clipPath id="p81a68b8fc9">
   <rect height="105.6" width="158.4" x="22.2" y="28.9"/>
  </clipPath>
  <clipPath id="p931a205ea9">
   <rect height="105.6" width="158.4" x="207.5" y="28.9"/>
  </clipPath>
  <clipPath id="p1a11840e48">
   <rect height="12.24" width="158.4" x="22.2" y="154.9"/>
  </clipPath>
  <clipPath id="p703b5db5c9">
   <rect height="12.24" width="158.4" x="207.5" y="154.9"/>
  </clipPath>
 </defs>
</svg>
