<?xml version="1.0" encoding="utf-8" standalone="no"?>
<!DOCTYPE svg PUBLIC "-//W3C//DTD SVG 1.1//EN"
  "http://www.w3.org/Graphics/SVG/1.1/DTD/svg11.dtd">
<!-- Created with matplotlib (https://matplotlib.org/) -->
<svg height="182.3pt" version="1.1" viewBox="0 0 252.5 182.3" width="252.5pt" xmlns="http://www.w3.org/2000/svg" xmlns:xlink="http://www.w3.org/1999/xlink">
 <defs>
  <style type="text/css">
*{stroke-linecap:butt;stroke-linejoin:round;}
  </style>
 </defs>
 <g id="figure_1">
  <g id="patch_1">
   <path d="M 0 182.3 
L 252.5 182.3 
L 252.5 0 
L 0 0 
z
" style="fill:#f2f2f2;"/>
  </g>
  <g id="axes_1">
   <g id="patch_2">
    <path d="M 29.3 161.9 
L 245.3 161.9 
L 245.3 17.9 
L 29.3 17.9 
z
" style="fill:#ffffff;"/>
   </g>
   <g id="matplotlib.axis_1">
    <g id="xtick_1">
     <g id="line2d_1">
      <path clip-path="url(#peda99c5502)" d="M 29.3 161.9 
L 29.3 17.9 
" style="fill:none;stroke:#000000;stroke-linecap:square;stroke-opacity:0.1;stroke-width:0.6;"/>
     </g>
     <g id="line2d_2">
      <defs>
       <path d="M 0 0 
L 0 4 
" id="m3e3344d1aa" style="stroke:#000000;stroke-width:0.6;"/>
      </defs>
      <g>
       <use style="stroke:#000000;stroke-width:0.6;" x="29.3" xlink:href="#m3e3344d1aa" y="161.9"/>
      </g>
     </g>
     <g id="text_1">
      <!-- 0 -->
      <defs>
       <path d="M 13.203125 34.90625 
Q 13.203125 37.5 13.25 40.640625 
Q 13.296875 43.796875 13.75 46.9375 
Q 14.203125 50.09375 15.046875 53.09375 
Q 15.90625 56.09375 17.546875 58.34375 
Q 19.203125 60.59375 21.703125 62 
Q 24.203125 63.40625 27.796875 63.40625 
Q 31.40625 63.40625 33.90625 62 
Q 36.40625 60.59375 38.046875 58.34375 
Q 39.703125 56.09375 40.546875 53.09375 
Q 41.40625 50.09375 41.84375 46.9375 
Q 42.296875 43.796875 42.34375 40.640625 
Q 42.40625 37.5 42.40625 34.90625 
Q 42.40625 30.90625 42.15625 25.953125 
Q 41.90625 21 40.546875 16.640625 
Q 39.203125 12.296875 36.203125 9.296875 
Q 33.203125 6.296875 27.796875 6.296875 
Q 22.40625 6.296875 19.40625 9.296875 
Q 16.40625 12.296875 15.046875 16.640625 
Q 13.703125 21 13.453125 25.953125 
Q 13.203125 30.90625 13.203125 34.90625 
z
M 4.203125 34.796875 
Q 4.203125 30.90625 4.390625 26.703125 
Q 4.59375 22.5 5.390625 18.5 
Q 6.203125 14.5 7.703125 10.953125 
Q 9.203125 7.40625 11.796875 4.703125 
Q 14.40625 2 18.34375 0.453125 
Q 22.296875 -1.09375 27.796875 -1.09375 
Q 33.40625 -1.09375 37.296875 0.453125 
Q 41.203125 2 43.796875 4.703125 
Q 46.40625 7.40625 47.90625 10.953125 
Q 49.40625 14.5 50.203125 18.5 
Q 51 22.5 51.203125 26.703125 
Q 51.40625 30.90625 51.40625 34.796875 
Q 51.40625 38.703125 51.203125 42.890625 
Q 51 47.09375 50.203125 51.09375 
Q 49.40625 55.09375 47.90625 58.6875 
Q 46.40625 62.296875 43.796875 65 
Q 41.203125 67.703125 37.25 69.296875 
Q 33.296875 70.90625 27.796875 70.90625 
Q 22.296875 70.90625 18.34375 69.296875 
Q 14.40625 67.703125 11.796875 65 
Q 9.203125 62.296875 7.703125 58.6875 
Q 6.203125 55.09375 5.390625 51.09375 
Q 4.59375 47.09375 4.390625 42.890625 
Q 4.203125 38.703125 4.203125 34.796875 
z
" id="HelveticaNeue-48"/>
      </defs>
      <g transform="translate(27.07625 173.6125)scale(0.08 -0.08)">
       <use xlink:href="#HelveticaNeue-48"/>
      </g>
     </g>
    </g>
    <g id="xtick_2">
     <g id="line2d_3">
      <path clip-path="url(#peda99c5502)" d="M 57.721053 161.9 
L 57.721053 17.9 
" style="fill:none;stroke:#000000;stroke-linecap:square;stroke-opacity:0.1;stroke-width:0.6;"/>
     </g>
     <g id="line2d_4">
      <g>
       <use style="stroke:#000000;stroke-width:0.6;" x="57.721053" xlink:href="#m3e3344d1aa" y="161.9"/>
      </g>
     </g>
     <g id="text_2">
      <!-- 2.5 -->
      <defs>
       <path d="M 4.40625 45.796875 
L 12.90625 45.796875 
Q 12.796875 49 13.546875 52.140625 
Q 14.296875 55.296875 16 57.796875 
Q 17.703125 60.296875 20.34375 61.84375 
Q 23 63.40625 26.703125 63.40625 
Q 29.5 63.40625 32 62.5 
Q 34.5 61.59375 36.34375 59.890625 
Q 38.203125 58.203125 39.296875 55.84375 
Q 40.40625 53.5 40.40625 50.59375 
Q 40.40625 46.90625 39.25 44.09375 
Q 38.09375 41.296875 35.84375 38.890625 
Q 33.59375 36.5 30.1875 34.140625 
Q 26.796875 31.796875 22.296875 29 
Q 18.59375 26.796875 15.1875 24.296875 
Q 11.796875 21.796875 9.09375 18.5 
Q 6.40625 15.203125 4.65625 10.75 
Q 2.90625 6.296875 2.40625 0 
L 48.703125 0 
L 48.703125 7.5 
L 12.296875 7.5 
Q 12.90625 10.796875 14.84375 13.34375 
Q 16.796875 15.90625 19.546875 18.09375 
Q 22.296875 20.296875 25.59375 22.25 
Q 28.90625 24.203125 32.203125 26.203125 
Q 35.5 28.296875 38.59375 30.59375 
Q 41.703125 32.90625 44.09375 35.75 
Q 46.5 38.59375 47.953125 42.1875 
Q 49.40625 45.796875 49.40625 50.5 
Q 49.40625 55.5 47.65625 59.296875 
Q 45.90625 63.09375 42.90625 65.640625 
Q 39.90625 68.203125 35.84375 69.546875 
Q 31.796875 70.90625 27.203125 70.90625 
Q 21.59375 70.90625 17.1875 69 
Q 12.796875 67.09375 9.84375 63.75 
Q 6.90625 60.40625 5.5 55.796875 
Q 4.09375 51.203125 4.40625 45.796875 
z
" id="HelveticaNeue-50"/>
       <path d="M 8.296875 11.09375 
L 8.296875 0 
L 19.40625 0 
L 19.40625 11.09375 
z
" id="HelveticaNeue-46"/>
       <path d="M 47 62.203125 
L 47 69.703125 
L 12 69.703125 
L 5.40625 32.90625 
L 12.703125 32.5 
Q 15.203125 35.5 18.453125 37.34375 
Q 21.703125 39.203125 25.90625 39.203125 
Q 29.5 39.203125 32.453125 38 
Q 35.40625 36.796875 37.5 34.640625 
Q 39.59375 32.5 40.75 29.546875 
Q 41.90625 26.59375 41.90625 23.09375 
Q 41.90625 18.90625 40.703125 15.75 
Q 39.5 12.59375 37.453125 10.5 
Q 35.40625 8.40625 32.65625 7.34375 
Q 29.90625 6.296875 26.90625 6.296875 
Q 23.703125 6.296875 21.046875 7.25 
Q 18.40625 8.203125 16.453125 9.953125 
Q 14.5 11.703125 13.34375 14.046875 
Q 12.203125 16.40625 12 19.09375 
L 3.5 19.09375 
Q 3.59375 14.296875 5.390625 10.5 
Q 7.203125 6.703125 10.296875 4.140625 
Q 13.40625 1.59375 17.453125 0.25 
Q 21.5 -1.09375 26.09375 -1.09375 
Q 32.296875 -1.09375 36.9375 0.84375 
Q 41.59375 2.796875 44.6875 6.09375 
Q 47.796875 9.40625 49.34375 13.65625 
Q 50.90625 17.90625 50.90625 22.40625 
Q 50.90625 28.5 49.09375 33.046875 
Q 47.296875 37.59375 44.1875 40.640625 
Q 41.09375 43.703125 36.890625 45.203125 
Q 32.703125 46.703125 28 46.703125 
Q 24.40625 46.703125 20.75 45.453125 
Q 17.09375 44.203125 14.796875 41.59375 
L 14.59375 41.796875 
L 18.40625 62.203125 
z
" id="HelveticaNeue-53"/>
      </defs>
      <g transform="translate(52.161678 173.6125)scale(0.08 -0.08)">
       <use xlink:href="#HelveticaNeue-50"/>
       <use x="55.599991" xlink:href="#HelveticaNeue-46"/>
       <use x="83.399979" xlink:href="#HelveticaNeue-53"/>
      </g>
     </g>
    </g>
    <g id="xtick_3">
     <g id="line2d_5">
      <path clip-path="url(#peda99c5502)" d="M 86.142105 161.9 
L 86.142105 17.9 
" style="fill:none;stroke:#000000;stroke-linecap:square;stroke-opacity:0.1;stroke-width:0.6;"/>
     </g>
     <g id="line2d_6">
      <g>
       <use style="stroke:#000000;stroke-width:0.6;" x="86.142105" xlink:href="#m3e3344d1aa" y="161.9"/>
      </g>
     </g>
     <g id="text_3">
      <!-- 5 -->
      <g transform="translate(83.918355 173.6125)scale(0.08 -0.08)">
       <use xlink:href="#HelveticaNeue-53"/>
      </g>
     </g>
    </g>
    <g id="xtick_4">
     <g id="line2d_7">
      <path clip-path="url(#peda99c5502)" d="M 114.563158 161.9 
L 114.563158 17.9 
" style="fill:none;stroke:#000000;stroke-linecap:square;stroke-opacity:0.1;stroke-width:0.6;"/>
     </g>
     <g id="line2d_8">
      <g>
       <use style="stroke:#000000;stroke-width:0.6;" x="114.563158" xlink:href="#m3e3344d1aa" y="161.9"/>
      </g>
     </g>
     <g id="text_4">
      <!-- 7.5 -->
      <defs>
       <path d="M 50.90625 62.40625 
L 50.90625 69.703125 
L 5 69.703125 
L 5 61.703125 
L 42.203125 61.703125 
Q 36.59375 55.796875 31.75 48.796875 
Q 26.90625 41.796875 23.203125 33.9375 
Q 19.5 26.09375 17.140625 17.546875 
Q 14.796875 9 14.203125 0 
L 23.703125 0 
Q 24.203125 8.296875 26.5 17.09375 
Q 28.796875 25.90625 32.4375 34.203125 
Q 36.09375 42.5 40.796875 49.796875 
Q 45.5 57.09375 50.90625 62.40625 
z
" id="HelveticaNeue-55"/>
      </defs>
      <g transform="translate(109.003783 173.6125)scale(0.08 -0.08)">
       <use xlink:href="#HelveticaNeue-55"/>
       <use x="55.599991" xlink:href="#HelveticaNeue-46"/>
       <use x="83.399979" xlink:href="#HelveticaNeue-53"/>
      </g>
     </g>
    </g>
    <g id="xtick_5">
     <g id="line2d_9">
      <path clip-path="url(#peda99c5502)" d="M 142.984211 161.9 
L 142.984211 17.9 
" style="fill:none;stroke:#000000;stroke-linecap:square;stroke-opacity:0.1;stroke-width:0.6;"/>
     </g>
     <g id="line2d_10">
      <g>
       <use style="stroke:#000000;stroke-width:0.6;" x="142.984211" xlink:href="#m3e3344d1aa" y="161.9"/>
      </g>
     </g>
     <g id="text_5">
      <!-- 10 -->
      <defs>
       <path d="M 35.59375 0 
L 35.59375 70.90625 
L 29.09375 70.90625 
Q 28.40625 66.90625 26.5 64.296875 
Q 24.59375 61.703125 21.84375 60.203125 
Q 19.09375 58.703125 15.6875 58.140625 
Q 12.296875 57.59375 8.703125 57.59375 
L 8.703125 50.796875 
L 27.09375 50.796875 
L 27.09375 0 
z
" id="HelveticaNeue-49"/>
      </defs>
      <g transform="translate(138.536711 173.6125)scale(0.08 -0.08)">
       <use xlink:href="#HelveticaNeue-49"/>
       <use x="55.599991" xlink:href="#HelveticaNeue-48"/>
      </g>
     </g>
    </g>
    <g id="xtick_6">
     <g id="line2d_11">
      <path clip-path="url(#peda99c5502)" d="M 171.405263 161.9 
L 171.405263 17.9 
" style="fill:none;stroke:#000000;stroke-linecap:square;stroke-opacity:0.1;stroke-width:0.6;"/>
     </g>
     <g id="line2d_12">
      <g>
       <use style="stroke:#000000;stroke-width:0.6;" x="171.405263" xlink:href="#m3e3344d1aa" y="161.9"/>
      </g>
     </g>
     <g id="text_6">
      <!-- 12.5 -->
      <g transform="translate(163.622138 173.6125)scale(0.08 -0.08)">
       <use xlink:href="#HelveticaNeue-49"/>
       <use x="55.599991" xlink:href="#HelveticaNeue-50"/>
       <use x="111.199982" xlink:href="#HelveticaNeue-46"/>
       <use x="138.999969" xlink:href="#HelveticaNeue-53"/>
      </g>
     </g>
    </g>
    <g id="xtick_7">
     <g id="line2d_13">
      <path clip-path="url(#peda99c5502)" d="M 199.826316 161.9 
L 199.826316 17.9 
" style="fill:none;stroke:#000000;stroke-linecap:square;stroke-opacity:0.1;stroke-width:0.6;"/>
     </g>
     <g id="line2d_14">
      <g>
       <use style="stroke:#000000;stroke-width:0.6;" x="199.826316" xlink:href="#m3e3344d1aa" y="161.9"/>
      </g>
     </g>
     <g id="text_7">
      <!-- 15 -->
      <g transform="translate(195.378816 173.6125)scale(0.08 -0.08)">
       <use xlink:href="#HelveticaNeue-49"/>
       <use x="55.599991" xlink:href="#HelveticaNeue-53"/>
      </g>
     </g>
    </g>
    <g id="xtick_8">
     <g id="line2d_15">
      <path clip-path="url(#peda99c5502)" d="M 228.247368 161.9 
L 228.247368 17.9 
" style="fill:none;stroke:#000000;stroke-linecap:square;stroke-opacity:0.1;stroke-width:0.6;"/>
     </g>
     <g id="line2d_16">
      <g>
       <use style="stroke:#000000;stroke-width:0.6;" x="228.247368" xlink:href="#m3e3344d1aa" y="161.9"/>
      </g>
     </g>
     <g id="text_8">
      <!-- 17.5 -->
      <g transform="translate(220.464243 173.6125)scale(0.08 -0.08)">
       <use xlink:href="#HelveticaNeue-49"/>
       <use x="55.599991" xlink:href="#HelveticaNeue-55"/>
       <use x="111.199982" xlink:href="#HelveticaNeue-46"/>
       <use x="138.999969" xlink:href="#HelveticaNeue-53"/>
      </g>
     </g>
    </g>
    <g id="xtick_9">
     <g id="line2d_17">
      <defs>
       <path d="M 0 0 
L 0 2 
" id="mfe1508987e" style="stroke:#000000;stroke-width:0.48;"/>
      </defs>
      <g>
       <use style="stroke:#000000;stroke-width:0.48;" x="34.984211" xlink:href="#mfe1508987e" y="161.9"/>
      </g>
     </g>
    </g>
    <g id="xtick_10">
     <g id="line2d_18">
      <g>
       <use style="stroke:#000000;stroke-width:0.48;" x="40.668421" xlink:href="#mfe1508987e" y="161.9"/>
      </g>
     </g>
    </g>
    <g id="xtick_11">
     <g id="line2d_19">
      <g>
       <use style="stroke:#000000;stroke-width:0.48;" x="46.352632" xlink:href="#mfe1508987e" y="161.9"/>
      </g>
     </g>
    </g>
    <g id="xtick_12">
     <g id="line2d_20">
      <g>
       <use style="stroke:#000000;stroke-width:0.48;" x="52.036842" xlink:href="#mfe1508987e" y="161.9"/>
      </g>
     </g>
    </g>
    <g id="xtick_13">
     <g id="line2d_21">
      <g>
       <use style="stroke:#000000;stroke-width:0.48;" x="63.405263" xlink:href="#mfe1508987e" y="161.9"/>
      </g>
     </g>
    </g>
    <g id="xtick_14">
     <g id="line2d_22">
      <g>
       <use style="stroke:#000000;stroke-width:0.48;" x="69.089474" xlink:href="#mfe1508987e" y="161.9"/>
      </g>
     </g>
    </g>
    <g id="xtick_15">
     <g id="line2d_23">
      <g>
       <use style="stroke:#000000;stroke-width:0.48;" x="74.773684" xlink:href="#mfe1508987e" y="161.9"/>
      </g>
     </g>
    </g>
    <g id="xtick_16">
     <g id="line2d_24">
      <g>
       <use style="stroke:#000000;stroke-width:0.48;" x="80.457895" xlink:href="#mfe1508987e" y="161.9"/>
      </g>
     </g>
    </g>
    <g id="xtick_17">
     <g id="line2d_25">
      <g>
       <use style="stroke:#000000;stroke-width:0.48;" x="91.826316" xlink:href="#mfe1508987e" y="161.9"/>
      </g>
     </g>
    </g>
    <g id="xtick_18">
     <g id="line2d_26">
      <g>
       <use style="stroke:#000000;stroke-width:0.48;" x="97.510526" xlink:href="#mfe1508987e" y="161.9"/>
      </g>
     </g>
    </g>
    <g id="xtick_19">
     <g id="line2d_27">
      <g>
       <use style="stroke:#000000;stroke-width:0.48;" x="103.194737" xlink:href="#mfe1508987e" y="161.9"/>
      </g>
     </g>
    </g>
    <g id="xtick_20">
     <g id="line2d_28">
      <g>
       <use style="stroke:#000000;stroke-width:0.48;" x="108.878947" xlink:href="#mfe1508987e" y="161.9"/>
      </g>
     </g>
    </g>
    <g id="xtick_21">
     <g id="line2d_29">
      <g>
       <use style="stroke:#000000;stroke-width:0.48;" x="120.247368" xlink:href="#mfe1508987e" y="161.9"/>
      </g>
     </g>
    </g>
    <g id="xtick_22">
     <g id="line2d_30">
      <g>
       <use style="stroke:#000000;stroke-width:0.48;" x="125.931579" xlink:href="#mfe1508987e" y="161.9"/>
      </g>
     </g>
    </g>
    <g id="xtick_23">
     <g id="line2d_31">
      <g>
       <use style="stroke:#000000;stroke-width:0.48;" x="131.615789" xlink:href="#mfe1508987e" y="161.9"/>
      </g>
     </g>
    </g>
    <g id="xtick_24">
     <g id="line2d_32">
      <g>
       <use style="stroke:#000000;stroke-width:0.48;" x="137.3" xlink:href="#mfe1508987e" y="161.9"/>
      </g>
     </g>
    </g>
    <g id="xtick_25">
     <g id="line2d_33">
      <g>
       <use style="stroke:#000000;stroke-width:0.48;" x="148.668421" xlink:href="#mfe1508987e" y="161.9"/>
      </g>
     </g>
    </g>
    <g id="xtick_26">
     <g id="line2d_34">
      <g>
       <use style="stroke:#000000;stroke-width:0.48;" x="154.352632" xlink:href="#mfe1508987e" y="161.9"/>
      </g>
     </g>
    </g>
    <g id="xtick_27">
     <g id="line2d_35">
      <g>
       <use style="stroke:#000000;stroke-width:0.48;" x="160.036842" xlink:href="#mfe1508987e" y="161.9"/>
      </g>
     </g>
    </g>
    <g id="xtick_28">
     <g id="line2d_36">
      <g>
       <use style="stroke:#000000;stroke-width:0.48;" x="165.721053" xlink:href="#mfe1508987e" y="161.9"/>
      </g>
     </g>
    </g>
    <g id="xtick_29">
     <g id="line2d_37">
      <g>
       <use style="stroke:#000000;stroke-width:0.48;" x="177.089474" xlink:href="#mfe1508987e" y="161.9"/>
      </g>
     </g>
    </g>
    <g id="xtick_30">
     <g id="line2d_38">
      <g>
       <use style="stroke:#000000;stroke-width:0.48;" x="182.773684" xlink:href="#mfe1508987e" y="161.9"/>
      </g>
     </g>
    </g>
    <g id="xtick_31">
     <g id="line2d_39">
      <g>
       <use style="stroke:#000000;stroke-width:0.48;" x="188.457895" xlink:href="#mfe1508987e" y="161.9"/>
      </g>
     </g>
    </g>
    <g id="xtick_32">
     <g id="line2d_40">
      <g>
       <use style="stroke:#000000;stroke-width:0.48;" x="194.142105" xlink:href="#mfe1508987e" y="161.9"/>
      </g>
     </g>
    </g>
    <g id="xtick_33">
     <g id="line2d_41">
      <g>
       <use style="stroke:#000000;stroke-width:0.48;" x="205.510526" xlink:href="#mfe1508987e" y="161.9"/>
      </g>
     </g>
    </g>
    <g id="xtick_34">
     <g id="line2d_42">
      <g>
       <use style="stroke:#000000;stroke-width:0.48;" x="211.194737" xlink:href="#mfe1508987e" y="161.9"/>
      </g>
     </g>
    </g>
    <g id="xtick_35">
     <g id="line2d_43">
      <g>
       <use style="stroke:#000000;stroke-width:0.48;" x="216.878947" xlink:href="#mfe1508987e" y="161.9"/>
      </g>
     </g>
    </g>
    <g id="xtick_36">
     <g id="line2d_44">
      <g>
       <use style="stroke:#000000;stroke-width:0.48;" x="222.563158" xlink:href="#mfe1508987e" y="161.9"/>
      </g>
     </g>
    </g>
    <g id="xtick_37">
     <g id="line2d_45">
      <g>
       <use style="stroke:#000000;stroke-width:0.48;" x="233.931579" xlink:href="#mfe1508987e" y="161.9"/>
      </g>
     </g>
    </g>
    <g id="xtick_38">
     <g id="line2d_46">
      <g>
       <use style="stroke:#000000;stroke-width:0.48;" x="239.615789" xlink:href="#mfe1508987e" y="161.9"/>
      </g>
     </g>
    </g>
    <g id="xtick_39">
     <g id="line2d_47">
      <g>
       <use style="stroke:#000000;stroke-width:0.48;" x="245.3" xlink:href="#mfe1508987e" y="161.9"/>
      </g>
     </g>
    </g>
   </g>
   <g id="matplotlib.axis_2">
    <g id="ytick_1">
     <g id="line2d_48">
      <path clip-path="url(#peda99c5502)" d="M 29.3 131.776068 
L 245.3 131.776068 
" style="fill:none;stroke:#000000;stroke-linecap:square;stroke-opacity:0.1;stroke-width:0.6;"/>
     </g>
     <g id="line2d_49">
      <defs>
       <path d="M 0 0 
L -4 0 
" id="mdba125bb6b" style="stroke:#000000;stroke-width:0.6;"/>
      </defs>
      <g>
       <use style="stroke:#000000;stroke-width:0.6;" x="29.3" xlink:href="#mdba125bb6b" y="131.776068"/>
      </g>
     </g>
     <g id="text_9">
      <!-- −2 -->
      <defs>
       <path d="M 4.796875 28.703125 
L 4.796875 21.90625 
L 55.203125 21.90625 
L 55.203125 28.703125 
z
" id="HelveticaNeue-8722"/>
      </defs>
      <g transform="translate(14.0525 134.632318)scale(0.08 -0.08)">
       <use xlink:href="#HelveticaNeue-8722"/>
       <use x="59.999985" xlink:href="#HelveticaNeue-50"/>
      </g>
     </g>
    </g>
    <g id="ytick_2">
     <g id="line2d_50">
      <path clip-path="url(#peda99c5502)" d="M 29.3 99.049075 
L 245.3 99.049075 
" style="fill:none;stroke:#000000;stroke-linecap:square;stroke-opacity:0.1;stroke-width:0.6;"/>
     </g>
     <g id="line2d_51">
      <g>
       <use style="stroke:#000000;stroke-width:0.6;" x="29.3" xlink:href="#mdba125bb6b" y="99.049075"/>
      </g>
     </g>
     <g id="text_10">
      <!-- −1 -->
      <g transform="translate(14.0525 101.905325)scale(0.08 -0.08)">
       <use xlink:href="#HelveticaNeue-8722"/>
       <use x="59.999985" xlink:href="#HelveticaNeue-49"/>
      </g>
     </g>
    </g>
    <g id="ytick_3">
     <g id="line2d_52">
      <path clip-path="url(#peda99c5502)" d="M 29.3 66.322083 
L 245.3 66.322083 
" style="fill:none;stroke:#000000;stroke-linecap:square;stroke-opacity:0.1;stroke-width:0.6;"/>
     </g>
     <g id="line2d_53">
      <g>
       <use style="stroke:#000000;stroke-width:0.6;" x="29.3" xlink:href="#mdba125bb6b" y="66.322083"/>
      </g>
     </g>
     <g id="text_11">
      <!-- 0 -->
      <g transform="translate(18.8525 69.178333)scale(0.08 -0.08)">
       <use xlink:href="#HelveticaNeue-48"/>
      </g>
     </g>
    </g>
    <g id="ytick_4">
     <g id="line2d_54">
      <path clip-path="url(#peda99c5502)" d="M 29.3 33.59509 
L 245.3 33.59509 
" style="fill:none;stroke:#000000;stroke-linecap:square;stroke-opacity:0.1;stroke-width:0.6;"/>
     </g>
     <g id="line2d_55">
      <g>
       <use style="stroke:#000000;stroke-width:0.6;" x="29.3" xlink:href="#mdba125bb6b" y="33.59509"/>
      </g>
     </g>
     <g id="text_12">
      <!-- 1 -->
      <g transform="translate(18.8525 36.45134)scale(0.08 -0.08)">
       <use xlink:href="#HelveticaNeue-49"/>
      </g>
     </g>
    </g>
    <g id="ytick_5">
     <g id="line2d_56">
      <defs>
       <path d="M 0 0 
L -2 0 
" id="m2560eddced" style="stroke:#000000;stroke-width:0.48;"/>
      </defs>
      <g>
       <use style="stroke:#000000;stroke-width:0.48;" x="29.3" xlink:href="#m2560eddced" y="157.957662"/>
      </g>
     </g>
    </g>
    <g id="ytick_6">
     <g id="line2d_57">
      <g>
       <use style="stroke:#000000;stroke-width:0.48;" x="29.3" xlink:href="#m2560eddced" y="151.412263"/>
      </g>
     </g>
    </g>
    <g id="ytick_7">
     <g id="line2d_58">
      <g>
       <use style="stroke:#000000;stroke-width:0.48;" x="29.3" xlink:href="#m2560eddced" y="144.866865"/>
      </g>
     </g>
    </g>
    <g id="ytick_8">
     <g id="line2d_59">
      <g>
       <use style="stroke:#000000;stroke-width:0.48;" x="29.3" xlink:href="#m2560eddced" y="138.321466"/>
      </g>
     </g>
    </g>
    <g id="ytick_9">
     <g id="line2d_60">
      <g>
       <use style="stroke:#000000;stroke-width:0.48;" x="29.3" xlink:href="#m2560eddced" y="125.230669"/>
      </g>
     </g>
    </g>
    <g id="ytick_10">
     <g id="line2d_61">
      <g>
       <use style="stroke:#000000;stroke-width:0.48;" x="29.3" xlink:href="#m2560eddced" y="118.685271"/>
      </g>
     </g>
    </g>
    <g id="ytick_11">
     <g id="line2d_62">
      <g>
       <use style="stroke:#000000;stroke-width:0.48;" x="29.3" xlink:href="#m2560eddced" y="112.139872"/>
      </g>
     </g>
    </g>
    <g id="ytick_12">
     <g id="line2d_63">
      <g>
       <use style="stroke:#000000;stroke-width:0.48;" x="29.3" xlink:href="#m2560eddced" y="105.594474"/>
      </g>
     </g>
    </g>
    <g id="ytick_13">
     <g id="line2d_64">
      <g>
       <use style="stroke:#000000;stroke-width:0.48;" x="29.3" xlink:href="#m2560eddced" y="92.503677"/>
      </g>
     </g>
    </g>
    <g id="ytick_14">
     <g id="line2d_65">
      <g>
       <use style="stroke:#000000;stroke-width:0.48;" x="29.3" xlink:href="#m2560eddced" y="85.958278"/>
      </g>
     </g>
    </g>
    <g id="ytick_15">
     <g id="line2d_66">
      <g>
       <use style="stroke:#000000;stroke-width:0.48;" x="29.3" xlink:href="#m2560eddced" y="79.41288"/>
      </g>
     </g>
    </g>
    <g id="ytick_16">
     <g id="line2d_67">
      <g>
       <use style="stroke:#000000;stroke-width:0.48;" x="29.3" xlink:href="#m2560eddced" y="72.867481"/>
      </g>
     </g>
    </g>
    <g id="ytick_17">
     <g id="line2d_68">
      <g>
       <use style="stroke:#000000;stroke-width:0.48;" x="29.3" xlink:href="#m2560eddced" y="59.776684"/>
      </g>
     </g>
    </g>
    <g id="ytick_18">
     <g id="line2d_69">
      <g>
       <use style="stroke:#000000;stroke-width:0.48;" x="29.3" xlink:href="#m2560eddced" y="53.231286"/>
      </g>
     </g>
    </g>
    <g id="ytick_19">
     <g id="line2d_70">
      <g>
       <use style="stroke:#000000;stroke-width:0.48;" x="29.3" xlink:href="#m2560eddced" y="46.685887"/>
      </g>
     </g>
    </g>
    <g id="ytick_20">
     <g id="line2d_71">
      <g>
       <use style="stroke:#000000;stroke-width:0.48;" x="29.3" xlink:href="#m2560eddced" y="40.140489"/>
      </g>
     </g>
    </g>
    <g id="ytick_21">
     <g id="line2d_72">
      <g>
       <use style="stroke:#000000;stroke-width:0.48;" x="29.3" xlink:href="#m2560eddced" y="27.049692"/>
      </g>
     </g>
    </g>
    <g id="ytick_22">
     <g id="line2d_73">
      <g>
       <use style="stroke:#000000;stroke-width:0.48;" x="29.3" xlink:href="#m2560eddced" y="20.504293"/>
      </g>
     </g>
    </g>
   </g>
   <g id="line2d_74">
    <path clip-path="url(#peda99c5502)" d="M 29.3 79.908845 
L 40.668421 77.42561 
L 52.036842 93.455794 
L 63.405263 98.552457 
L 74.773684 112.378148 
L 86.142105 119.364572 
L 97.510526 125.07645 
L 108.878947 113.789085 
L 120.247368 106.114452 
L 131.615789 121.788582 
L 142.984211 113.267205 
L 154.352632 115.353635 
L 165.721053 127.194567 
L 177.089474 111.576653 
L 188.457895 115.305753 
L 199.826316 120.640302 
L 211.194737 135.915059 
L 222.563158 120.425491 
L 233.931579 122.030466 
L 245.3 110.67833 
" style="fill:none;stroke:#000000;stroke-dasharray:3,1.5;stroke-dashoffset:0;stroke-width:3;"/>
   </g>
   <g id="line2d_75">
    <path clip-path="url(#peda99c5502)" d="M 29.3 56.117853 
L 40.668421 52.214107 
L 52.036842 41.468419 
L 63.405263 42.407122 
L 74.773684 54.292382 
L 86.142105 45.312414 
L 97.510526 50.269432 
L 108.878947 46.790509 
L 120.247368 38.72349 
L 131.615789 41.501245 
L 142.984211 46.207435 
L 154.352632 51.480207 
L 165.721053 36.972786 
L 177.089474 31.508691 
L 188.457895 44.166577 
L 199.826316 34.332324 
L 211.194737 42.007265 
L 222.563158 26.313956 
L 233.931579 21.584171 
L 245.3 17.9 
" style="fill:none;stroke:#000000;stroke-dasharray:3,4.5;stroke-dashoffset:0;stroke-width:3;"/>
   </g>
   <g id="line2d_76">
    <path clip-path="url(#peda99c5502)" d="M 29.3 60.780922 
L 40.668421 62.092704 
L 52.036842 67.781966 
L 63.405263 79.165308 
L 74.773684 95.527094 
L 86.142105 111.62206 
L 97.510526 116.815328 
L 108.878947 126.815756 
L 120.247368 142.544831 
L 131.615789 147.186337 
L 142.984211 149.312296 
L 154.352632 147.985251 
L 165.721053 143.915778 
L 177.089474 146.069511 
L 188.457895 142.373326 
L 199.826316 146.283475 
L 211.194737 159.936745 
L 222.563158 160.822009 
L 233.931579 150.689098 
L 245.3 161.9 
" style="fill:none;stroke:#000000;stroke-dasharray:9,1.5;stroke-dashoffset:0;stroke-width:3;"/>
   </g>
   <g id="line2d_77">
    <path clip-path="url(#peda99c5502)" d="M 29.3 61.378911 
L 40.668421 56.202321 
L 52.036842 51.807651 
L 63.405263 61.804576 
L 74.773684 61.342247 
L 86.142105 56.913595 
L 97.510526 68.219955 
L 108.878947 71.303063 
L 120.247368 64.000188 
L 131.615789 50.689823 
L 142.984211 39.435261 
L 154.352632 25.146578 
L 165.721053 37.008518 
L 177.089474 29.143474 
L 188.457895 24.404579 
L 199.826316 36.180764 
L 211.194737 23.366904 
L 222.563158 37.589397 
L 233.931579 44.018261 
L 245.3 58.474272 
" style="fill:none;stroke:#000000;stroke-dasharray:9,4.5;stroke-dashoffset:0;stroke-width:3;"/>
   </g>
   <g id="patch_3">
    <path d="M 29.3 161.9 
L 29.3 17.9 
" style="fill:none;stroke:#000000;stroke-linecap:square;stroke-linejoin:miter;stroke-width:0.6;"/>
   </g>
   <g id="patch_4">
    <path d="M 245.3 161.9 
L 245.3 17.9 
" style="fill:none;stroke:#000000;stroke-linecap:square;stroke-linejoin:miter;stroke-width:0.6;"/>
   </g>
   <g id="patch_5">
    <path d="M 29.3 161.9 
L 245.3 161.9 
" style="fill:none;stroke:#000000;stroke-linecap:square;stroke-linejoin:miter;stroke-width:0.6;"/>
   </g>
   <g id="patch_6">
    <path d="M 29.3 17.9 
L 245.3 17.9 
" style="fill:none;stroke:#000000;stroke-linecap:square;stroke-linejoin:miter;stroke-width:0.6;"/>
   </g>
   <g id="legend_1">
    <g id="patch_7">
     <path d="M 29.3 55.76625 
L 110.34 55.76625 
L 110.34 17.9 
L 29.3 17.9 
z
" style="fill:#ffffff;opacity:0.8;stroke:#000000;stroke-linejoin:miter;stroke-width:0.6;"/>
    </g>
    <g id="text_13">
     <!-- label -->
     <defs>
      <path d="M 6.90625 71.40625 
L 6.90625 0 
L 15.40625 0 
L 15.40625 71.40625 
z
" id="HelveticaNeue-108"/>
      <path d="M 52.203125 0.203125 
Q 50 -1.09375 46.09375 -1.09375 
Q 42.796875 -1.09375 40.84375 0.75 
Q 38.90625 2.59375 38.90625 6.796875 
Q 35.40625 2.59375 30.75 0.75 
Q 26.09375 -1.09375 20.703125 -1.09375 
Q 17.203125 -1.09375 14.046875 -0.296875 
Q 10.90625 0.5 8.59375 2.203125 
Q 6.296875 3.90625 4.9375 6.65625 
Q 3.59375 9.40625 3.59375 13.296875 
Q 3.59375 17.703125 5.09375 20.5 
Q 6.59375 23.296875 9.046875 25.046875 
Q 11.5 26.796875 14.640625 27.6875 
Q 17.796875 28.59375 21.09375 29.203125 
Q 24.59375 29.90625 27.75 30.25 
Q 30.90625 30.59375 33.296875 31.25 
Q 35.703125 31.90625 37.09375 33.15625 
Q 38.5 34.40625 38.5 36.796875 
Q 38.5 39.59375 37.453125 41.296875 
Q 36.40625 43 34.75 43.890625 
Q 33.09375 44.796875 31.046875 45.09375 
Q 29 45.40625 27 45.40625 
Q 21.59375 45.40625 18 43.34375 
Q 14.40625 41.296875 14.09375 35.59375 
L 5.59375 35.59375 
Q 5.796875 40.40625 7.59375 43.703125 
Q 9.40625 47 12.40625 49.046875 
Q 15.40625 51.09375 19.25 52 
Q 23.09375 52.90625 27.5 52.90625 
Q 31 52.90625 34.453125 52.40625 
Q 37.90625 51.90625 40.703125 50.34375 
Q 43.5 48.796875 45.203125 46 
Q 46.90625 43.203125 46.90625 38.703125 
L 46.90625 12.09375 
Q 46.90625 9.09375 47.25 7.6875 
Q 47.59375 6.296875 49.59375 6.296875 
Q 50.703125 6.296875 52.203125 6.796875 
z
M 38.40625 26.703125 
Q 36.796875 25.5 34.1875 24.953125 
Q 31.59375 24.40625 28.75 24.046875 
Q 25.90625 23.703125 23 23.25 
Q 20.09375 22.796875 17.796875 21.796875 
Q 15.5 20.796875 14.046875 18.9375 
Q 12.59375 17.09375 12.59375 13.90625 
Q 12.59375 11.796875 13.4375 10.34375 
Q 14.296875 8.90625 15.640625 8 
Q 17 7.09375 18.796875 6.6875 
Q 20.59375 6.296875 22.59375 6.296875 
Q 26.796875 6.296875 29.796875 7.4375 
Q 32.796875 8.59375 34.6875 10.34375 
Q 36.59375 12.09375 37.5 14.140625 
Q 38.40625 16.203125 38.40625 18 
z
" id="HelveticaNeue-97"/>
      <path d="M 6.703125 71.40625 
L 6.703125 0 
L 15.203125 0 
L 15.203125 6.90625 
L 15.40625 6.90625 
Q 16.796875 4.59375 18.84375 3.046875 
Q 20.90625 1.5 23.203125 0.59375 
Q 25.5 -0.296875 27.84375 -0.6875 
Q 30.203125 -1.09375 32.09375 -1.09375 
Q 38 -1.09375 42.453125 1 
Q 46.90625 3.09375 49.84375 6.75 
Q 52.796875 10.40625 54.25 15.296875 
Q 55.703125 20.203125 55.703125 25.703125 
Q 55.703125 31.203125 54.203125 36.09375 
Q 52.703125 41 49.75 44.75 
Q 46.796875 48.5 42.34375 50.703125 
Q 37.90625 52.90625 31.90625 52.90625 
Q 26.5 52.90625 22 50.953125 
Q 17.5 49 15.40625 44.703125 
L 15.203125 44.703125 
L 15.203125 71.40625 
z
M 46.703125 26.296875 
Q 46.703125 22.5 45.890625 18.890625 
Q 45.09375 15.296875 43.296875 12.5 
Q 41.5 9.703125 38.546875 8 
Q 35.59375 6.296875 31.203125 6.296875 
Q 26.796875 6.296875 23.6875 7.9375 
Q 20.59375 9.59375 18.640625 12.296875 
Q 16.703125 15 15.796875 18.546875 
Q 14.90625 22.09375 14.90625 25.90625 
Q 14.90625 29.5 15.75 33 
Q 16.59375 36.5 18.5 39.25 
Q 20.40625 42 23.40625 43.703125 
Q 26.40625 45.40625 30.703125 45.40625 
Q 34.796875 45.40625 37.84375 43.796875 
Q 40.90625 42.203125 42.84375 39.5 
Q 44.796875 36.796875 45.75 33.34375 
Q 46.703125 29.90625 46.703125 26.296875 
z
" id="HelveticaNeue-98"/>
      <path d="M 42.296875 30.796875 
L 12.59375 30.796875 
Q 12.796875 33.796875 13.890625 36.4375 
Q 15 39.09375 16.890625 41.09375 
Q 18.796875 43.09375 21.4375 44.25 
Q 24.09375 45.40625 27.40625 45.40625 
Q 30.59375 45.40625 33.25 44.25 
Q 35.90625 43.09375 37.84375 41.140625 
Q 39.796875 39.203125 40.9375 36.5 
Q 42.09375 33.796875 42.296875 30.796875 
z
M 50.5 16.40625 
L 42.09375 16.40625 
Q 41 11.296875 37.546875 8.796875 
Q 34.09375 6.296875 28.703125 6.296875 
Q 24.5 6.296875 21.390625 7.6875 
Q 18.296875 9.09375 16.296875 11.4375 
Q 14.296875 13.796875 13.390625 16.84375 
Q 12.5 19.90625 12.59375 23.296875 
L 51.296875 23.296875 
Q 51.5 28 50.453125 33.203125 
Q 49.40625 38.40625 46.65625 42.796875 
Q 43.90625 47.203125 39.34375 50.046875 
Q 34.796875 52.90625 27.90625 52.90625 
Q 22.59375 52.90625 18.140625 50.90625 
Q 13.703125 48.90625 10.453125 45.296875 
Q 7.203125 41.703125 5.390625 36.796875 
Q 3.59375 31.90625 3.59375 26 
Q 3.796875 20.09375 5.34375 15.09375 
Q 6.90625 10.09375 10 6.5 
Q 13.09375 2.90625 17.640625 0.90625 
Q 22.203125 -1.09375 28.40625 -1.09375 
Q 37.203125 -1.09375 43 3.296875 
Q 48.796875 7.703125 50.5 16.40625 
z
" id="HelveticaNeue-101"/>
     </defs>
     <g transform="translate(61.375625 27.6125)scale(0.08 -0.08)">
      <use xlink:href="#HelveticaNeue-108"/>
      <use x="22.199997" xlink:href="#HelveticaNeue-97"/>
      <use x="75.899994" xlink:href="#HelveticaNeue-98"/>
      <use x="135.199982" xlink:href="#HelveticaNeue-101"/>
      <use x="188.899979" xlink:href="#HelveticaNeue-108"/>
     </g>
    </g>
    <g id="line2d_78">
     <path d="M 33.3 36.10125 
L 57.3 36.10125 
" style="fill:none;stroke:#000000;stroke-dasharray:3,1.5;stroke-dashoffset:0;stroke-width:3;"/>
    </g>
    <g id="line2d_79"/>
    <g id="text_14">
     <!-- a -->
     <g transform="translate(61.3 38.90125)scale(0.08 -0.08)">
      <use xlink:href="#HelveticaNeue-97"/>
     </g>
    </g>
    <g id="line2d_80">
     <path d="M 33.3 47.39 
L 57.3 47.39 
" style="fill:none;stroke:#000000;stroke-dasharray:9,1.5;stroke-dashoffset:0;stroke-width:3;"/>
    </g>
    <g id="line2d_81"/>
    <g id="text_15">
     <!-- c -->
     <defs>
      <path d="M 41.5 35.09375 
L 50.296875 35.09375 
Q 49.796875 39.703125 47.890625 43.046875 
Q 46 46.40625 43.046875 48.59375 
Q 40.09375 50.796875 36.25 51.84375 
Q 32.40625 52.90625 28 52.90625 
Q 21.90625 52.90625 17.296875 50.75 
Q 12.703125 48.59375 9.640625 44.84375 
Q 6.59375 41.09375 5.09375 36.046875 
Q 3.59375 31 3.59375 25.203125 
Q 3.59375 19.40625 5.140625 14.546875 
Q 6.703125 9.703125 9.75 6.203125 
Q 12.796875 2.703125 17.34375 0.796875 
Q 21.90625 -1.09375 27.796875 -1.09375 
Q 37.703125 -1.09375 43.453125 4.09375 
Q 49.203125 9.296875 50.59375 18.90625 
L 41.90625 18.90625 
Q 41.09375 12.90625 37.546875 9.59375 
Q 34 6.296875 27.703125 6.296875 
Q 23.703125 6.296875 20.796875 7.890625 
Q 17.90625 9.5 16.09375 12.140625 
Q 14.296875 14.796875 13.4375 18.1875 
Q 12.59375 21.59375 12.59375 25.203125 
Q 12.59375 29.09375 13.390625 32.75 
Q 14.203125 36.40625 16.046875 39.203125 
Q 17.90625 42 21 43.703125 
Q 24.09375 45.40625 28.703125 45.40625 
Q 34.09375 45.40625 37.296875 42.703125 
Q 40.5 40 41.5 35.09375 
z
" id="HelveticaNeue-99"/>
     </defs>
     <g transform="translate(61.3 50.19)scale(0.08 -0.08)">
      <use xlink:href="#HelveticaNeue-99"/>
     </g>
    </g>
    <g id="line2d_82">
     <path d="M 73.59625 36.10125 
L 97.59625 36.10125 
" style="fill:none;stroke:#000000;stroke-dasharray:3,4.5;stroke-dashoffset:0;stroke-width:3;"/>
    </g>
    <g id="line2d_83"/>
    <g id="text_16">
     <!-- b -->
     <g transform="translate(101.59625 38.90125)scale(0.08 -0.08)">
      <use xlink:href="#HelveticaNeue-98"/>
     </g>
    </g>
    <g id="line2d_84">
     <path d="M 73.59625 47.39 
L 97.59625 47.39 
" style="fill:none;stroke:#000000;stroke-dasharray:9,4.5;stroke-dashoffset:0;stroke-width:3;"/>
    </g>
    <g id="line2d_85"/>
    <g id="text_17">
     <!-- d -->
     <defs>
      <path d="M 12.59375 25.40625 
Q 12.59375 29.203125 13.390625 32.796875 
Q 14.203125 36.40625 16 39.203125 
Q 17.796875 42 20.796875 43.703125 
Q 23.796875 45.40625 28.09375 45.40625 
Q 32.5 45.40625 35.59375 43.75 
Q 38.703125 42.09375 40.640625 39.390625 
Q 42.59375 36.703125 43.5 33.140625 
Q 44.40625 29.59375 44.40625 25.796875 
Q 44.40625 22.203125 43.546875 18.703125 
Q 42.703125 15.203125 40.796875 12.453125 
Q 38.90625 9.703125 35.90625 8 
Q 32.90625 6.296875 28.59375 6.296875 
Q 24.5 6.296875 21.453125 7.890625 
Q 18.40625 9.5 16.453125 12.203125 
Q 14.5 14.90625 13.546875 18.34375 
Q 12.59375 21.796875 12.59375 25.40625 
z
M 52.59375 0 
L 52.59375 71.40625 
L 44.09375 71.40625 
L 44.09375 44.796875 
L 43.90625 44.796875 
Q 42.5 47.09375 40.453125 48.640625 
Q 38.40625 50.203125 36.09375 51.140625 
Q 33.796875 52.09375 31.5 52.5 
Q 29.203125 52.90625 27.203125 52.90625 
Q 21.296875 52.90625 16.84375 50.75 
Q 12.40625 48.59375 9.453125 44.9375 
Q 6.5 41.296875 5.046875 36.390625 
Q 3.59375 31.5 3.59375 26 
Q 3.59375 20.5 5.09375 15.59375 
Q 6.59375 10.703125 9.546875 7 
Q 12.5 3.296875 16.953125 1.09375 
Q 21.40625 -1.09375 27.40625 -1.09375 
Q 32.796875 -1.09375 37.296875 0.796875 
Q 41.796875 2.703125 43.90625 7 
L 44.09375 7 
L 44.09375 0 
z
" id="HelveticaNeue-100"/>
     </defs>
     <g transform="translate(101.59625 50.19)scale(0.08 -0.08)">
      <use xlink:href="#HelveticaNeue-100"/>
     </g>
    </g>
   </g>
  </g>
  <g id="text_18">
   <!-- Plot without color cycle -->
   <defs>
    <path d="M 22.59375 37.796875 
L 22.59375 59.203125 
L 34.796875 59.203125 
Q 37.5 59.203125 40 58.796875 
Q 42.5 58.40625 44.390625 57.25 
Q 46.296875 56.09375 47.4375 54 
Q 48.59375 51.90625 48.59375 48.5 
Q 48.59375 45.09375 47.4375 43 
Q 46.296875 40.90625 44.390625 39.75 
Q 42.5 38.59375 40 38.1875 
Q 37.5 37.796875 34.796875 37.796875 
z
M 6.90625 71.40625 
L 6.90625 0 
L 22.59375 0 
L 22.59375 25.59375 
L 39.09375 25.59375 
Q 45.796875 25.59375 50.5 27.546875 
Q 55.203125 29.5 58.140625 32.703125 
Q 61.09375 35.90625 62.4375 40.046875 
Q 63.796875 44.203125 63.796875 48.5 
Q 63.796875 52.90625 62.4375 57 
Q 61.09375 61.09375 58.140625 64.296875 
Q 55.203125 67.5 50.5 69.453125 
Q 45.796875 71.40625 39.09375 71.40625 
z
" id="HelveticaNeue-Bold-80"/>
    <path d="M 5.796875 71.40625 
L 5.796875 0 
L 20 0 
L 20 71.40625 
z
" id="HelveticaNeue-Bold-108"/>
    <path d="M 18 25.796875 
Q 18 28.90625 18.59375 31.90625 
Q 19.203125 34.90625 20.640625 37.203125 
Q 22.09375 39.5 24.5 40.953125 
Q 26.90625 42.40625 30.5 42.40625 
Q 34.09375 42.40625 36.546875 40.953125 
Q 39 39.5 40.453125 37.203125 
Q 41.90625 34.90625 42.5 31.90625 
Q 43.09375 28.90625 43.09375 25.796875 
Q 43.09375 22.703125 42.5 19.75 
Q 41.90625 16.796875 40.453125 14.4375 
Q 39 12.09375 36.546875 10.6875 
Q 34.09375 9.296875 30.5 9.296875 
Q 26.90625 9.296875 24.5 10.6875 
Q 22.09375 12.09375 20.640625 14.4375 
Q 19.203125 16.796875 18.59375 19.75 
Q 18 22.703125 18 25.796875 
z
M 3.796875 25.796875 
Q 3.796875 19.59375 5.6875 14.59375 
Q 7.59375 9.59375 11.09375 6.046875 
Q 14.59375 2.5 19.5 0.59375 
Q 24.40625 -1.296875 30.5 -1.296875 
Q 36.59375 -1.296875 41.546875 0.59375 
Q 46.5 2.5 50 6.046875 
Q 53.5 9.59375 55.390625 14.59375 
Q 57.296875 19.59375 57.296875 25.796875 
Q 57.296875 32 55.390625 37.046875 
Q 53.5 42.09375 50 45.640625 
Q 46.5 49.203125 41.546875 51.140625 
Q 36.59375 53.09375 30.5 53.09375 
Q 24.40625 53.09375 19.5 51.140625 
Q 14.59375 49.203125 11.09375 45.640625 
Q 7.59375 42.09375 5.6875 37.046875 
Q 3.796875 32 3.796875 25.796875 
z
" id="HelveticaNeue-Bold-111"/>
    <path d="M 23.40625 51.703125 
L 23.40625 67.203125 
L 9.203125 67.203125 
L 9.203125 51.703125 
L 0.59375 51.703125 
L 0.59375 42.203125 
L 9.203125 42.203125 
L 9.203125 11.703125 
Q 9.203125 7.796875 10.5 5.390625 
Q 11.796875 3 14.046875 1.703125 
Q 16.296875 0.40625 19.25 -0.046875 
Q 22.203125 -0.5 25.5 -0.5 
Q 27.59375 -0.5 29.796875 -0.390625 
Q 32 -0.296875 33.796875 0 
L 33.796875 11 
Q 32.796875 10.796875 31.6875 10.6875 
Q 30.59375 10.59375 29.40625 10.59375 
Q 25.796875 10.59375 24.59375 11.796875 
Q 23.40625 13 23.40625 16.59375 
L 23.40625 42.203125 
L 33.796875 42.203125 
L 33.796875 51.703125 
z
" id="HelveticaNeue-Bold-116"/>
    <path id="HelveticaNeue-Bold-32"/>
    <path d="M 64.5 0 
L 80.796875 51.703125 
L 66.203125 51.703125 
L 56.703125 16.703125 
L 56.5 16.703125 
L 47.703125 51.703125 
L 33.90625 51.703125 
L 25.296875 16.59375 
L 25.09375 16.59375 
L 15.59375 51.703125 
L 0.59375 51.703125 
L 17 0 
L 31.703125 0 
L 40.5 34.703125 
L 40.703125 34.703125 
L 49.90625 0 
z
" id="HelveticaNeue-Bold-119"/>
    <path d="M 20 59.703125 
L 20 71.40625 
L 5.796875 71.40625 
L 5.796875 59.703125 
z
M 5.796875 51.703125 
L 5.796875 0 
L 20 0 
L 20 51.703125 
z
" id="HelveticaNeue-Bold-105"/>
    <path d="M 5.40625 71.40625 
L 5.40625 0 
L 19.59375 0 
L 19.59375 27.09375 
Q 19.59375 35 22.1875 38.453125 
Q 24.796875 41.90625 30.59375 41.90625 
Q 35.703125 41.90625 37.703125 38.75 
Q 39.703125 35.59375 39.703125 29.203125 
L 39.703125 0 
L 53.90625 0 
L 53.90625 31.796875 
Q 53.90625 36.59375 53.046875 40.546875 
Q 52.203125 44.5 50.09375 47.25 
Q 48 50 44.34375 51.546875 
Q 40.703125 53.09375 35 53.09375 
Q 31 53.09375 26.796875 51.046875 
Q 22.59375 49 19.90625 44.5 
L 19.59375 44.5 
L 19.59375 71.40625 
z
" id="HelveticaNeue-Bold-104"/>
    <path d="M 53.90625 0 
L 53.90625 51.703125 
L 39.703125 51.703125 
L 39.703125 24.59375 
Q 39.703125 16.703125 37.09375 13.25 
Q 34.5 9.796875 28.703125 9.796875 
Q 23.59375 9.796875 21.59375 12.9375 
Q 19.59375 16.09375 19.59375 22.5 
L 19.59375 51.703125 
L 5.40625 51.703125 
L 5.40625 19.90625 
Q 5.40625 15.09375 6.25 11.140625 
Q 7.09375 7.203125 9.1875 4.453125 
Q 11.296875 1.703125 14.9375 0.203125 
Q 18.59375 -1.296875 24.296875 -1.296875 
Q 28.796875 -1.296875 33.09375 0.703125 
Q 37.40625 2.703125 40.09375 7.203125 
L 40.40625 7.203125 
L 40.40625 0 
z
" id="HelveticaNeue-Bold-117"/>
    <path d="M 40.59375 33.5 
L 54.5 33.5 
Q 54.203125 38.5 52.09375 42.140625 
Q 50 45.796875 46.640625 48.25 
Q 43.296875 50.703125 39.046875 51.890625 
Q 34.796875 53.09375 30.203125 53.09375 
Q 23.90625 53.09375 19 51 
Q 14.09375 48.90625 10.6875 45.15625 
Q 7.296875 41.40625 5.546875 36.25 
Q 3.796875 31.09375 3.796875 25.09375 
Q 3.796875 19.296875 5.6875 14.4375 
Q 7.59375 9.59375 11 6.09375 
Q 14.40625 2.59375 19.25 0.640625 
Q 24.09375 -1.296875 29.90625 -1.296875 
Q 40.203125 -1.296875 46.796875 4.09375 
Q 53.40625 9.5 54.796875 19.796875 
L 41.09375 19.796875 
Q 40.40625 15 37.65625 12.140625 
Q 34.90625 9.296875 29.796875 9.296875 
Q 26.5 9.296875 24.203125 10.796875 
Q 21.90625 12.296875 20.546875 14.640625 
Q 19.203125 17 18.59375 19.890625 
Q 18 22.796875 18 25.59375 
Q 18 28.5 18.59375 31.453125 
Q 19.203125 34.40625 20.640625 36.84375 
Q 22.09375 39.296875 24.390625 40.84375 
Q 26.703125 42.40625 30.09375 42.40625 
Q 39.203125 42.40625 40.59375 33.5 
z
" id="HelveticaNeue-Bold-99"/>
    <path d="M 5.40625 51.703125 
L 5.40625 0 
L 19.59375 0 
L 19.59375 23.296875 
Q 19.59375 26.796875 20.296875 29.796875 
Q 21 32.796875 22.640625 35.046875 
Q 24.296875 37.296875 27 38.59375 
Q 29.703125 39.90625 33.59375 39.90625 
Q 34.90625 39.90625 36.296875 39.75 
Q 37.703125 39.59375 38.703125 39.40625 
L 38.703125 52.59375 
Q 37 53.09375 35.59375 53.09375 
Q 32.90625 53.09375 30.40625 52.296875 
Q 27.90625 51.5 25.703125 50.046875 
Q 23.5 48.59375 21.796875 46.546875 
Q 20.09375 44.5 19.09375 42.09375 
L 18.90625 42.09375 
L 18.90625 51.703125 
z
" id="HelveticaNeue-Bold-114"/>
    <path d="M 30.90625 -6.40625 
L 52.5 51.703125 
L 37.796875 51.703125 
L 26.5 16.296875 
L 26.296875 16.296875 
L 14.59375 51.703125 
L -0.5 51.703125 
L 17.59375 3.203125 
Q 18.203125 1.703125 18.203125 0 
Q 18.203125 -2.296875 16.84375 -4.1875 
Q 15.5 -6.09375 12.703125 -6.40625 
Q 10.59375 -6.5 8.5 -6.296875 
Q 6.40625 -6.09375 4.40625 -5.90625 
L 4.40625 -17.59375 
Q 6.59375 -17.796875 8.75 -17.9375 
Q 10.90625 -18.09375 13.09375 -18.09375 
Q 20.40625 -18.09375 24.5 -15.390625 
Q 28.59375 -12.703125 30.90625 -6.40625 
z
" id="HelveticaNeue-Bold-121"/>
    <path d="M 40.203125 31.40625 
L 17.09375 31.40625 
Q 17.203125 32.90625 17.75 34.796875 
Q 18.296875 36.703125 19.640625 38.390625 
Q 21 40.09375 23.25 41.25 
Q 25.5 42.40625 28.90625 42.40625 
Q 34.09375 42.40625 36.640625 39.59375 
Q 39.203125 36.796875 40.203125 31.40625 
z
M 17.09375 22.40625 
L 54.40625 22.40625 
Q 54.796875 28.40625 53.390625 33.90625 
Q 52 39.40625 48.84375 43.703125 
Q 45.703125 48 40.796875 50.546875 
Q 35.90625 53.09375 29.296875 53.09375 
Q 23.40625 53.09375 18.546875 51 
Q 13.703125 48.90625 10.203125 45.25 
Q 6.703125 41.59375 4.796875 36.59375 
Q 2.90625 31.59375 2.90625 25.796875 
Q 2.90625 19.796875 4.75 14.796875 
Q 6.59375 9.796875 10 6.1875 
Q 13.40625 2.59375 18.296875 0.640625 
Q 23.203125 -1.296875 29.296875 -1.296875 
Q 38.09375 -1.296875 44.296875 2.703125 
Q 50.5 6.703125 53.5 16 
L 41 16 
Q 40.296875 13.59375 37.1875 11.4375 
Q 34.09375 9.296875 29.796875 9.296875 
Q 23.796875 9.296875 20.59375 12.390625 
Q 17.40625 15.5 17.09375 22.40625 
z
" id="HelveticaNeue-Bold-101"/>
   </defs>
   <g transform="translate(86.733359 13.571563)scale(0.09 -0.09)">
    <use xlink:href="#HelveticaNeue-Bold-80"/>
    <use x="66.699997" xlink:href="#HelveticaNeue-Bold-108"/>
    <use x="92.499985" xlink:href="#HelveticaNeue-Bold-111"/>
    <use x="153.599976" xlink:href="#HelveticaNeue-Bold-116"/>
    <use x="188.799973" xlink:href="#HelveticaNeue-Bold-32"/>
    <use x="216.59996" xlink:href="#HelveticaNeue-Bold-119"/>
    <use x="297.999954" xlink:href="#HelveticaNeue-Bold-105"/>
    <use x="323.799942" xlink:href="#HelveticaNeue-Bold-116"/>
    <use x="358.999939" xlink:href="#HelveticaNeue-Bold-104"/>
    <use x="418.299927" xlink:href="#HelveticaNeue-Bold-111"/>
    <use x="479.399918" xlink:href="#HelveticaNeue-Bold-117"/>
    <use x="538.699905" xlink:href="#HelveticaNeue-Bold-116"/>
    <use x="573.899902" xlink:href="#HelveticaNeue-Bold-32"/>
    <use x="601.69989" xlink:href="#HelveticaNeue-Bold-99"/>
    <use x="659.099884" xlink:href="#HelveticaNeue-Bold-111"/>
    <use x="720.199875" xlink:href="#HelveticaNeue-Bold-108"/>
    <use x="745.999863" xlink:href="#HelveticaNeue-Bold-111"/>
    <use x="807.099854" xlink:href="#HelveticaNeue-Bold-114"/>
    <use x="845.999847" xlink:href="#HelveticaNeue-Bold-32"/>
    <use x="873.799835" xlink:href="#HelveticaNeue-Bold-99"/>
    <use x="931.199829" xlink:href="#HelveticaNeue-Bold-121"/>
    <use x="983.099823" xlink:href="#HelveticaNeue-Bold-99"/>
    <use x="1040.499817" xlink:href="#HelveticaNeue-Bold-108"/>
    <use x="1066.299805" xlink:href="#HelveticaNeue-Bold-101"/>
   </g>
  </g>
 </g>
 <defs>
  <clipPath id="peda99c5502">
   <rect height="144" width="216" x="29.3" y="17.9"/>
  </clipPath>
 </defs>
</svg>
