<?xml version="1.0" encoding="utf-8" standalone="no"?>
<!DOCTYPE svg PUBLIC "-//W3C//DTD SVG 1.1//EN"
  "http://www.w3.org/Graphics/SVG/1.1/DTD/svg11.dtd">
<!-- Created with matplotlib (https://matplotlib.org/) -->
<svg height="215.4pt" version="1.1" viewBox="0 0 348.1625 215.4" width="348.1625pt" xmlns="http://www.w3.org/2000/svg" xmlns:xlink="http://www.w3.org/1999/xlink">
 <defs>
  <style type="text/css">
*{stroke-linecap:butt;stroke-linejoin:round;}
  </style>
 </defs>
 <g id="figure_1">
  <g id="patch_1">
   <path d="M 0 215.4 
L 348.1625 215.4 
L 348.1625 0 
L 0 0 
z
" style="fill:#f2f2f2;"/>
  </g>
  <g id="axes_1">
   <g id="patch_2">
    <path d="M 167.8625 118.4 
C 167.8625 108.945047 166.00008 99.582031 162.381826 90.846793 
C 158.763572 82.111555 153.45985 74.173973 146.774188 67.488312 
C 140.088527 60.80265 132.150945 55.498928 123.415707 51.880674 
C 114.680469 48.26242 105.317453 46.4 95.8625 46.4 
C 86.407547 46.4 77.044531 48.26242 68.309293 51.880674 
C 59.574055 55.498928 51.636473 60.80265 44.950812 67.488312 
C 38.26515 74.173973 32.961428 82.111555 29.343174 90.846793 
C 25.72492 99.582031 23.8625 108.945047 23.8625 118.4 
C 23.8625 127.854953 25.72492 137.217969 29.343174 145.953207 
C 32.961428 154.688445 38.26515 162.626027 44.950812 169.311688 
C 51.636473 175.99735 59.574055 181.301072 68.309293 184.919326 
C 77.044531 188.53758 86.407547 190.4 95.8625 190.4 
C 105.317453 190.4 114.680469 188.53758 123.415707 184.919326 
C 132.150945 181.301072 140.088527 175.99735 146.774188 169.311688 
C 153.45985 162.626027 158.763572 154.688445 162.381826 145.953207 
C 166.00008 137.217969 167.8625 127.854953 167.8625 118.4 
M 95.8625 118.4 
C 95.8625 118.4 95.8625 118.4 95.8625 118.4 
C 95.8625 118.4 95.8625 118.4 95.8625 118.4 
C 95.8625 118.4 95.8625 118.4 95.8625 118.4 
C 95.8625 118.4 95.8625 118.4 95.8625 118.4 
C 95.8625 118.4 95.8625 118.4 95.8625 118.4 
C 95.8625 118.4 95.8625 118.4 95.8625 118.4 
C 95.8625 118.4 95.8625 118.4 95.8625 118.4 
C 95.8625 118.4 95.8625 118.4 95.8625 118.4 
C 95.8625 118.4 95.8625 118.4 95.8625 118.4 
C 95.8625 118.4 95.8625 118.4 95.8625 118.4 
C 95.8625 118.4 95.8625 118.4 95.8625 118.4 
C 95.8625 118.4 95.8625 118.4 95.8625 118.4 
C 95.8625 118.4 95.8625 118.4 95.8625 118.4 
C 95.8625 118.4 95.8625 118.4 95.8625 118.4 
C 95.8625 118.4 95.8625 118.4 95.8625 118.4 
C 95.8625 118.4 95.8625 118.4 95.8625 118.4 
M 167.8625 118.4 
z
" style="fill:#ffffff;"/>
   </g>
   <g id="matplotlib.axis_1">
    <g id="xtick_1">
     <g id="line2d_1">
      <path clip-path="url(#p9349c3b906)" d="M 95.8625 118.4 
L 167.8625 118.4 
" style="fill:none;stroke:#000000;stroke-linecap:square;stroke-opacity:0.1;stroke-width:0.6;"/>
     </g>
     <g id="text_1">
      <!-- 0 -->
      <defs>
       <path d="M 16.296875 35.296875 
Q 16.296875 37.09375 16.34375 39.640625 
Q 16.40625 42.203125 16.703125 44.890625 
Q 17 47.59375 17.703125 50.25 
Q 18.40625 52.90625 19.65625 55 
Q 20.90625 57.09375 22.84375 58.390625 
Q 24.796875 59.703125 27.703125 59.703125 
Q 30.59375 59.703125 32.59375 58.390625 
Q 34.59375 57.09375 35.890625 55 
Q 37.203125 52.90625 37.84375 50.25 
Q 38.5 47.59375 38.84375 44.890625 
Q 39.203125 42.203125 39.25 39.640625 
Q 39.296875 37.09375 39.296875 35.296875 
Q 39.296875 32.296875 39.09375 28.046875 
Q 38.90625 23.796875 37.84375 19.84375 
Q 36.796875 15.90625 34.4375 13.09375 
Q 32.09375 10.296875 27.703125 10.296875 
Q 23.40625 10.296875 21.09375 13.09375 
Q 18.796875 15.90625 17.75 19.84375 
Q 16.703125 23.796875 16.5 28.046875 
Q 16.296875 32.296875 16.296875 35.296875 
z
M 2.09375 35.296875 
Q 2.09375 24.796875 4.140625 17.75 
Q 6.203125 10.703125 9.703125 6.5 
Q 13.203125 2.296875 17.84375 0.5 
Q 22.5 -1.296875 27.703125 -1.296875 
Q 33 -1.296875 37.640625 0.5 
Q 42.296875 2.296875 45.84375 6.5 
Q 49.40625 10.703125 51.453125 17.75 
Q 53.5 24.796875 53.5 35.296875 
Q 53.5 45.5 51.453125 52.453125 
Q 49.40625 59.40625 45.84375 63.59375 
Q 42.296875 67.796875 37.640625 69.59375 
Q 33 71.40625 27.703125 71.40625 
Q 22.5 71.40625 17.84375 69.59375 
Q 13.203125 67.796875 9.703125 63.59375 
Q 6.203125 59.40625 4.140625 52.453125 
Q 2.09375 45.5 2.09375 35.296875 
z
" id="HelveticaNeue-Bold-48"/>
      </defs>
      <g transform="translate(178.360781 120.799062)scale(0.09 -0.09)">
       <use xlink:href="#HelveticaNeue-Bold-48"/>
      </g>
     </g>
    </g>
    <g id="xtick_2">
     <g id="line2d_2">
      <path clip-path="url(#p9349c3b906)" d="M 95.8625 118.4 
L 146.774188 67.488312 
" style="fill:none;stroke:#000000;stroke-linecap:square;stroke-opacity:0.1;stroke-width:0.6;"/>
     </g>
     <g id="text_2">
      <!-- $\pi/4$ -->
      <defs>
       <path d="M 53.203125 -0.703125 
Q 49.90625 -0.703125 47.703125 0.296875 
Q 45.5 1.296875 44.25 3.046875 
Q 43 4.796875 42.453125 7.1875 
Q 41.90625 9.59375 41.90625 12.296875 
L 41.90625 41 
L 23.5 41 
L 23.5 0 
L 10 0 
L 10 41 
L 3 41 
L 3 51.703125 
L 63.296875 51.703125 
L 63.296875 41 
L 55.40625 41 
L 55.40625 16.796875 
Q 55.40625 15.703125 55.453125 14.640625 
Q 55.5 13.59375 55.890625 12.75 
Q 56.296875 11.90625 57.046875 11.40625 
Q 57.796875 10.90625 59.203125 10.90625 
Q 61.296875 10.90625 63.59375 11.90625 
L 63.59375 1.296875 
Q 61.5 0.296875 58.5 -0.203125 
Q 55.5 -0.703125 53.203125 -0.703125 
z
" id="HelveticaNeue-Bold-960"/>
       <path d="M 26.796875 73.09375 
L -1 -1.59375 
L 10.296875 -1.59375 
L 38.203125 73.09375 
z
" id="HelveticaNeue-Bold-47"/>
       <path d="M 31.203125 52.203125 
L 31.203125 27.90625 
L 12.796875 27.90625 
L 30.90625 52.203125 
z
M 31.203125 16.203125 
L 31.203125 0 
L 44.703125 0 
L 44.703125 16.203125 
L 54 16.203125 
L 54 27.90625 
L 44.703125 27.90625 
L 44.703125 70 
L 32 70 
L 1.59375 29.203125 
L 1.59375 16.203125 
z
" id="HelveticaNeue-Bold-52"/>
      </defs>
      <g transform="translate(148.766576 60.694986)scale(0.09 -0.09)">
       <use transform="translate(0 0.90625)" xlink:href="#HelveticaNeue-Bold-960"/>
       <use transform="translate(66.599991 0.90625)" xlink:href="#HelveticaNeue-Bold-47"/>
       <use transform="translate(103.699982 0.90625)" xlink:href="#HelveticaNeue-Bold-52"/>
      </g>
     </g>
    </g>
    <g id="xtick_3">
     <g id="line2d_3">
      <path clip-path="url(#p9349c3b906)" d="M 95.8625 118.4 
L 95.8625 46.4 
" style="fill:none;stroke:#000000;stroke-linecap:square;stroke-opacity:0.1;stroke-width:0.6;"/>
     </g>
     <g id="text_3">
      <!-- $\pi/2$ -->
      <defs>
       <path d="M 3.703125 43.09375 
L 17.296875 43.09375 
Q 17.296875 45.90625 17.84375 48.75 
Q 18.40625 51.59375 19.703125 53.9375 
Q 21 56.296875 23.140625 57.75 
Q 25.296875 59.203125 28.40625 59.203125 
Q 33 59.203125 35.953125 56.34375 
Q 38.90625 53.5 38.90625 48.40625 
Q 38.90625 45.203125 37.453125 42.703125 
Q 36 40.203125 33.84375 38.203125 
Q 31.703125 36.203125 29.09375 34.546875 
Q 26.5 32.90625 24.203125 31.296875 
Q 19.703125 28.203125 15.640625 25.203125 
Q 11.59375 22.203125 8.59375 18.640625 
Q 5.59375 15.09375 3.84375 10.59375 
Q 2.09375 6.09375 2.09375 0 
L 53.5 0 
L 53.5 12.203125 
L 20.40625 12.203125 
Q 23 15.796875 26.390625 18.5 
Q 29.796875 21.203125 33.390625 23.546875 
Q 37 25.90625 40.546875 28.296875 
Q 44.09375 30.703125 46.890625 33.640625 
Q 49.703125 36.59375 51.390625 40.390625 
Q 53.09375 44.203125 53.09375 49.5 
Q 53.09375 54.59375 51.140625 58.6875 
Q 49.203125 62.796875 45.890625 65.59375 
Q 42.59375 68.40625 38.25 69.90625 
Q 33.90625 71.40625 29.09375 71.40625 
Q 22.796875 71.40625 17.9375 69.25 
Q 13.09375 67.09375 9.890625 63.25 
Q 6.703125 59.40625 5.09375 54.25 
Q 3.5 49.09375 3.703125 43.09375 
z
" id="HelveticaNeue-Bold-50"/>
      </defs>
      <g transform="translate(88.6625 35.799062)scale(0.09 -0.09)">
       <use transform="translate(0 0.90625)" xlink:href="#HelveticaNeue-Bold-960"/>
       <use transform="translate(66.599991 0.90625)" xlink:href="#HelveticaNeue-Bold-47"/>
       <use transform="translate(103.699982 0.90625)" xlink:href="#HelveticaNeue-Bold-50"/>
      </g>
     </g>
    </g>
    <g id="xtick_4">
     <g id="line2d_4">
      <path clip-path="url(#p9349c3b906)" d="M 95.8625 118.4 
L 44.950812 67.488312 
" style="fill:none;stroke:#000000;stroke-linecap:square;stroke-opacity:0.1;stroke-width:0.6;"/>
     </g>
     <g id="text_4">
      <!-- $3\pi/4$ -->
      <defs>
       <path d="M 22.796875 41.703125 
L 22.796875 31.703125 
Q 25.40625 31.703125 28.25 31.546875 
Q 31.09375 31.40625 33.5 30.453125 
Q 35.90625 29.5 37.453125 27.390625 
Q 39 25.296875 39 21.296875 
Q 39 16.203125 35.703125 13.25 
Q 32.40625 10.296875 27.59375 10.296875 
Q 24.5 10.296875 22.25 11.390625 
Q 20 12.5 18.5 14.34375 
Q 17 16.203125 16.203125 18.75 
Q 15.40625 21.296875 15.296875 24.09375 
L 1.796875 24.09375 
Q 1.703125 18 3.546875 13.296875 
Q 5.40625 8.59375 8.796875 5.34375 
Q 12.203125 2.09375 17.046875 0.390625 
Q 21.90625 -1.296875 27.796875 -1.296875 
Q 32.90625 -1.296875 37.59375 0.203125 
Q 42.296875 1.703125 45.890625 4.59375 
Q 49.5 7.5 51.640625 11.796875 
Q 53.796875 16.09375 53.796875 21.59375 
Q 53.796875 27.59375 50.5 31.890625 
Q 47.203125 36.203125 41.40625 37.5 
L 41.40625 37.703125 
Q 46.296875 39.09375 48.75 43 
Q 51.203125 46.90625 51.203125 52 
Q 51.203125 56.703125 49.09375 60.296875 
Q 47 63.90625 43.640625 66.40625 
Q 40.296875 68.90625 36.09375 70.15625 
Q 31.90625 71.40625 27.703125 71.40625 
Q 22.296875 71.40625 17.890625 69.65625 
Q 13.5 67.90625 10.34375 64.703125 
Q 7.203125 61.5 5.453125 57.046875 
Q 3.703125 52.59375 3.5 47.203125 
L 17 47.203125 
Q 16.90625 52.59375 19.65625 56.140625 
Q 22.40625 59.703125 27.796875 59.703125 
Q 31.703125 59.703125 34.703125 57.296875 
Q 37.703125 54.90625 37.703125 50.40625 
Q 37.703125 47.40625 36.25 45.59375 
Q 34.796875 43.796875 32.546875 42.84375 
Q 30.296875 41.90625 27.6875 41.703125 
Q 25.09375 41.5 22.796875 41.703125 
z
" id="HelveticaNeue-Bold-51"/>
      </defs>
      <g transform="translate(26.083424 60.694986)scale(0.09 -0.09)">
       <use transform="translate(0 0.90625)" xlink:href="#HelveticaNeue-Bold-51"/>
       <use transform="translate(55.599991 0.90625)" xlink:href="#HelveticaNeue-Bold-960"/>
       <use transform="translate(122.199982 0.90625)" xlink:href="#HelveticaNeue-Bold-47"/>
       <use transform="translate(159.299973 0.90625)" xlink:href="#HelveticaNeue-Bold-52"/>
      </g>
     </g>
    </g>
    <g id="xtick_5">
     <g id="line2d_5">
      <path clip-path="url(#p9349c3b906)" d="M 95.8625 118.4 
L 23.8625 118.4 
" style="fill:none;stroke:#000000;stroke-linecap:square;stroke-opacity:0.1;stroke-width:0.6;"/>
     </g>
     <g id="text_5">
      <!-- $\pi$ -->
      <g transform="translate(7.8475 120.799062)scale(0.09 -0.09)">
       <use transform="translate(0 0.296875)" xlink:href="#HelveticaNeue-Bold-960"/>
      </g>
     </g>
    </g>
    <g id="xtick_6">
     <g id="line2d_6">
      <path clip-path="url(#p9349c3b906)" d="M 95.8625 118.4 
L 44.950812 169.311688 
" style="fill:none;stroke:#000000;stroke-linecap:square;stroke-opacity:0.1;stroke-width:0.6;"/>
     </g>
     <g id="text_6">
      <!-- $5\pi/4$ -->
      <defs>
       <path d="M 50 58.296875 
L 50 70 
L 10.90625 70 
L 4 31.296875 
L 16.796875 31.296875 
Q 18.90625 34.203125 21.296875 35.546875 
Q 23.703125 36.90625 27.5 36.90625 
Q 30.40625 36.90625 32.59375 35.90625 
Q 34.796875 34.90625 36.390625 33.09375 
Q 38 31.296875 38.796875 28.890625 
Q 39.59375 26.5 39.59375 23.796875 
Q 39.59375 21.203125 38.75 18.75 
Q 37.90625 16.296875 36.34375 14.4375 
Q 34.796875 12.59375 32.546875 11.4375 
Q 30.296875 10.296875 27.5 10.296875 
Q 22.703125 10.296875 19.59375 13.140625 
Q 16.5 16 16 20.796875 
L 1.796875 20.796875 
Q 1.90625 15.296875 4.046875 11.140625 
Q 6.203125 7 9.796875 4.203125 
Q 13.40625 1.40625 18.046875 0.046875 
Q 22.703125 -1.296875 27.796875 -1.296875 
Q 33.09375 -1.40625 37.796875 0.4375 
Q 42.5 2.296875 46.046875 5.6875 
Q 49.59375 9.09375 51.6875 13.75 
Q 53.796875 18.40625 53.796875 23.796875 
Q 53.796875 28.703125 52.34375 33.046875 
Q 50.90625 37.40625 48.15625 40.59375 
Q 45.40625 43.796875 41.40625 45.6875 
Q 37.40625 47.59375 32.203125 47.59375 
Q 28 47.59375 24.703125 46.34375 
Q 21.40625 45.09375 18.5 42.203125 
L 18.296875 42.40625 
L 21.09375 58.296875 
z
" id="HelveticaNeue-Bold-53"/>
      </defs>
      <g transform="translate(26.083424 180.903139)scale(0.09 -0.09)">
       <use transform="translate(0 0.90625)" xlink:href="#HelveticaNeue-Bold-53"/>
       <use transform="translate(55.599991 0.90625)" xlink:href="#HelveticaNeue-Bold-960"/>
       <use transform="translate(122.199982 0.90625)" xlink:href="#HelveticaNeue-Bold-47"/>
       <use transform="translate(159.299973 0.90625)" xlink:href="#HelveticaNeue-Bold-52"/>
      </g>
     </g>
    </g>
    <g id="xtick_7">
     <g id="line2d_7">
      <path clip-path="url(#p9349c3b906)" d="M 95.8625 118.4 
L 95.8625 190.4 
" style="fill:none;stroke:#000000;stroke-linecap:square;stroke-opacity:0.1;stroke-width:0.6;"/>
     </g>
     <g id="text_7">
      <!-- $3\pi/2$ -->
      <g transform="translate(86.1875 205.799062)scale(0.09 -0.09)">
       <use transform="translate(0 0.90625)" xlink:href="#HelveticaNeue-Bold-51"/>
       <use transform="translate(55.599991 0.90625)" xlink:href="#HelveticaNeue-Bold-960"/>
       <use transform="translate(122.199982 0.90625)" xlink:href="#HelveticaNeue-Bold-47"/>
       <use transform="translate(159.299973 0.90625)" xlink:href="#HelveticaNeue-Bold-50"/>
      </g>
     </g>
    </g>
    <g id="xtick_8">
     <g id="line2d_8">
      <path clip-path="url(#p9349c3b906)" d="M 95.8625 118.4 
L 146.774188 169.311688 
" style="fill:none;stroke:#000000;stroke-linecap:square;stroke-opacity:0.1;stroke-width:0.6;"/>
     </g>
     <g id="text_8">
      <!-- $7\pi/4$ -->
      <defs>
       <path d="M 51.703125 57.796875 
L 51.703125 70 
L 3.90625 70 
L 3.90625 56.796875 
L 37.09375 56.796875 
Q 27.09375 44.703125 20.9375 30.203125 
Q 14.796875 15.703125 13.59375 0 
L 28.796875 0 
Q 28.90625 7 30.453125 15.09375 
Q 32 23.203125 34.84375 31.09375 
Q 37.703125 39 41.953125 46 
Q 46.203125 53 51.703125 57.796875 
z
" id="HelveticaNeue-Bold-55"/>
      </defs>
      <g transform="translate(146.291576 180.903139)scale(0.09 -0.09)">
       <use transform="translate(0 0.90625)" xlink:href="#HelveticaNeue-Bold-55"/>
       <use transform="translate(55.599991 0.90625)" xlink:href="#HelveticaNeue-Bold-960"/>
       <use transform="translate(122.199982 0.90625)" xlink:href="#HelveticaNeue-Bold-47"/>
       <use transform="translate(159.299973 0.90625)" xlink:href="#HelveticaNeue-Bold-52"/>
      </g>
     </g>
    </g>
    <g id="xtick_9"/>
    <g id="xtick_10"/>
    <g id="xtick_11"/>
    <g id="xtick_12"/>
    <g id="xtick_13"/>
    <g id="xtick_14"/>
    <g id="xtick_15"/>
    <g id="xtick_16"/>
    <g id="xtick_17"/>
    <g id="xtick_18"/>
    <g id="xtick_19"/>
    <g id="xtick_20"/>
    <g id="xtick_21"/>
    <g id="xtick_22"/>
    <g id="xtick_23"/>
    <g id="xtick_24"/>
    <g id="xtick_25"/>
    <g id="xtick_26"/>
    <g id="xtick_27"/>
    <g id="xtick_28"/>
    <g id="xtick_29"/>
    <g id="xtick_30"/>
    <g id="xtick_31"/>
    <g id="xtick_32"/>
   </g>
   <g id="matplotlib.axis_2">
    <g id="ytick_1">
     <g id="line2d_9">
      <path clip-path="url(#p9349c3b906)" d="M 95.8625 118.4 
L 95.8625 118.4 
" style="fill:none;stroke:#000000;stroke-linecap:square;stroke-opacity:0.1;stroke-width:0.6;"/>
     </g>
     <g id="text_9">
      <!-- 0 -->
      <g transform="translate(95.8625 116.771562)scale(0.09 -0.09)">
       <use xlink:href="#HelveticaNeue-Bold-48"/>
      </g>
     </g>
    </g>
    <g id="ytick_2">
     <g id="line2d_10">
      <path clip-path="url(#p9349c3b906)" d="M 114.809868 118.4 
L 114.706073 116.419461 
L 114.395823 114.460621 
L 113.882518 112.544941 
L 113.171782 110.693411 
L 112.271402 108.926316 
L 111.191243 107.263016 
L 109.943139 105.721736 
L 108.540764 104.319361 
L 106.999484 103.071257 
L 105.336184 101.991098 
L 103.569089 101.090718 
L 101.717559 100.379982 
L 99.801879 99.866677 
L 97.843039 99.556427 
L 95.8625 99.452632 
L 93.881961 99.556427 
L 91.923121 99.866677 
L 90.007441 100.379982 
L 88.155911 101.090718 
L 86.388816 101.991098 
L 84.725516 103.071257 
L 83.184236 104.319361 
L 81.781861 105.721736 
L 80.533757 107.263016 
L 79.453598 108.926316 
L 78.553218 110.693411 
L 77.842482 112.544941 
L 77.329177 114.460621 
L 77.018927 116.419461 
L 76.915132 118.4 
L 77.018927 120.380539 
L 77.329177 122.339379 
L 77.842482 124.255059 
L 78.553218 126.106589 
L 79.453598 127.873684 
L 80.533757 129.536984 
L 81.781861 131.078264 
L 83.184236 132.480639 
L 84.725516 133.728743 
L 86.388816 134.808902 
L 88.155911 135.709282 
L 90.007441 136.420018 
L 91.923121 136.933323 
L 93.881961 137.243573 
L 95.8625 137.347368 
L 97.843039 137.243573 
L 99.801879 136.933323 
L 101.717559 136.420018 
L 103.569089 135.709282 
L 105.336184 134.808902 
L 106.999484 133.728743 
L 108.540764 132.480639 
L 109.943139 131.078264 
L 111.191243 129.536984 
L 112.271402 127.873684 
L 113.171782 126.106589 
L 113.882518 124.255059 
L 114.395823 122.339379 
L 114.706073 120.380539 
L 114.809868 118.4 
L 114.809868 118.4 
" style="fill:none;stroke:#000000;stroke-linecap:square;stroke-opacity:0.1;stroke-width:0.6;"/>
     </g>
     <g id="text_10">
      <!-- 5 -->
      <g transform="translate(109.260313 103.37375)scale(0.09 -0.09)">
       <use xlink:href="#HelveticaNeue-Bold-53"/>
      </g>
     </g>
    </g>
    <g id="ytick_3">
     <g id="line2d_11">
      <path clip-path="url(#p9349c3b906)" d="M 133.757237 118.4 
L 133.664927 115.756597 
L 133.388448 113.126072 
L 132.929146 110.521241 
L 132.289259 107.954795 
L 131.471905 105.439237 
L 130.481065 102.986822 
L 129.321567 100.609499 
L 127.999059 98.318849 
L 126.519986 96.126033 
L 124.891553 94.041733 
L 123.121692 92.076104 
L 121.219028 90.238722 
L 119.19283 88.53854 
L 117.052968 86.983839 
L 114.809868 85.582195 
L 112.474459 84.340436 
L 110.058118 83.264612 
L 107.572618 82.359964 
L 105.030067 81.630899 
L 102.442852 81.080969 
L 99.823579 80.712854 
L 97.185007 80.528348 
L 94.539993 80.528348 
L 91.901421 80.712854 
L 89.282148 81.080969 
L 86.694933 81.630899 
L 84.152382 82.359964 
L 81.666882 83.264612 
L 79.250541 84.340436 
L 76.915132 85.582195 
L 74.672032 86.983839 
L 72.53217 88.53854 
L 70.505972 90.238722 
L 68.603308 92.076104 
L 66.833447 94.041733 
L 65.205014 96.126033 
L 63.725941 98.318849 
L 62.403433 100.609499 
L 61.243935 102.986822 
L 60.253095 105.439237 
L 59.435741 107.954795 
L 58.795854 110.521241 
L 58.336552 113.126072 
L 58.060073 115.756597 
L 57.967763 118.4 
L 58.060073 121.043403 
L 58.336552 123.673928 
L 58.795854 126.278759 
L 59.435741 128.845205 
L 60.253095 131.360763 
L 61.243935 133.813178 
L 62.403433 136.190501 
L 63.725941 138.481151 
L 65.205014 140.673967 
L 66.833447 142.758267 
L 68.603308 144.723896 
L 70.505972 146.561278 
L 72.53217 148.26146 
L 74.672032 149.816161 
L 76.915132 151.217805 
L 79.250541 152.459564 
L 81.666882 153.535388 
L 84.152382 154.440036 
L 86.694933 155.169101 
L 89.282148 155.719031 
L 91.901421 156.087146 
L 94.539993 156.271652 
L 97.185007 156.271652 
L 99.823579 156.087146 
L 102.442852 155.719031 
L 105.030067 155.169101 
L 107.572618 154.440036 
L 110.058118 153.535388 
L 112.474459 152.459564 
L 114.809868 151.217805 
L 117.052968 149.816161 
L 119.19283 148.26146 
L 121.219028 146.561278 
L 123.121692 144.723896 
L 124.891553 142.758267 
L 126.519986 140.673967 
L 127.999059 138.481151 
L 129.321567 136.190501 
L 130.481065 133.813178 
L 131.471905 131.360763 
L 132.289259 128.845205 
L 132.929146 126.278759 
L 133.388448 123.673928 
L 133.664927 121.043403 
L 133.757237 118.4 
L 133.757237 118.4 
" style="fill:none;stroke:#000000;stroke-linecap:square;stroke-opacity:0.1;stroke-width:0.6;"/>
     </g>
     <g id="text_11">
      <!-- 10 -->
      <defs>
       <path d="M 39.203125 0 
L 39.203125 70 
L 27.90625 70 
Q 27.296875 66 25.390625 63.296875 
Q 23.5 60.59375 20.75 58.9375 
Q 18 57.296875 14.546875 56.640625 
Q 11.09375 56 7.40625 56.09375 
L 7.40625 45.40625 
L 25 45.40625 
L 25 0 
z
" id="HelveticaNeue-Bold-49"/>
      </defs>
      <g transform="translate(122.658125 89.975937)scale(0.09 -0.09)">
       <use xlink:href="#HelveticaNeue-Bold-49"/>
       <use x="55.599991" xlink:href="#HelveticaNeue-Bold-48"/>
      </g>
     </g>
    </g>
    <g id="ytick_4">
     <g id="line2d_12">
      <path clip-path="url(#p9349c3b906)" d="M 152.704605 118.4 
L 152.566141 114.434895 
L 152.151422 110.489108 
L 151.462469 106.581862 
L 150.502639 102.732192 
L 149.276607 98.958855 
L 147.790347 95.280233 
L 146.0511 91.714248 
L 144.067339 88.278273 
L 141.848729 84.989049 
L 139.406079 81.862599 
L 136.751289 78.914156 
L 133.897292 76.158084 
L 130.857994 73.60781 
L 127.648202 71.275759 
L 124.283553 69.173293 
L 120.780439 67.310654 
L 117.155927 65.696918 
L 113.427677 64.339945 
L 109.61385 63.246348 
L 105.733028 62.421454 
L 101.804118 61.869282 
L 97.846261 61.592521 
L 93.878739 61.592521 
L 89.920882 61.869282 
L 85.991972 62.421454 
L 82.11115 63.246348 
L 78.297323 64.339945 
L 74.569073 65.696918 
L 70.944561 67.310654 
L 67.441447 69.173293 
L 64.076798 71.275759 
L 60.867006 73.60781 
L 57.827708 76.158084 
L 54.973711 78.914156 
L 52.318921 81.862599 
L 49.876271 84.989049 
L 47.657661 88.278273 
L 45.6739 91.714248 
L 43.934653 95.280233 
L 42.448393 98.958855 
L 41.222361 102.732192 
L 40.262531 106.581862 
L 39.573578 110.489108 
L 39.158859 114.434895 
L 39.020395 118.4 
L 39.158859 122.365105 
L 39.573578 126.310892 
L 40.262531 130.218138 
L 41.222361 134.067808 
L 42.448393 137.841145 
L 43.934653 141.519767 
L 45.6739 145.085752 
L 47.657661 148.521727 
L 49.876271 151.810951 
L 52.318921 154.937401 
L 54.973711 157.885844 
L 57.827708 160.641916 
L 60.867006 163.19219 
L 64.076798 165.524241 
L 67.441447 167.626707 
L 70.944561 169.489346 
L 74.569073 171.103082 
L 78.297323 172.460055 
L 82.11115 173.553652 
L 85.991972 174.378546 
L 89.920882 174.930718 
L 93.878739 175.207479 
L 97.846261 175.207479 
L 101.804118 174.930718 
L 105.733028 174.378546 
L 109.61385 173.553652 
L 113.427677 172.460055 
L 117.155927 171.103082 
L 120.780439 169.489346 
L 124.283553 167.626707 
L 127.648202 165.524241 
L 130.857994 163.19219 
L 133.897292 160.641916 
L 136.751289 157.885844 
L 139.406079 154.937401 
L 141.848729 151.810951 
L 144.067339 148.521727 
L 146.0511 145.085752 
L 147.790347 141.519767 
L 149.276607 137.841145 
L 150.502639 134.067808 
L 151.462469 130.218138 
L 152.151422 126.310892 
L 152.566141 122.365105 
L 152.704605 118.4 
L 152.704605 118.4 
" style="fill:none;stroke:#000000;stroke-linecap:square;stroke-opacity:0.1;stroke-width:0.6;"/>
     </g>
     <g id="text_12">
      <!-- 15 -->
      <g transform="translate(136.055938 76.578124)scale(0.09 -0.09)">
       <use xlink:href="#HelveticaNeue-Bold-49"/>
       <use x="55.599991" xlink:href="#HelveticaNeue-Bold-53"/>
      </g>
     </g>
    </g>
    <g id="ytick_5"/>
    <g id="ytick_6"/>
    <g id="ytick_7"/>
    <g id="ytick_8"/>
    <g id="ytick_9"/>
    <g id="ytick_10"/>
    <g id="ytick_11"/>
    <g id="ytick_12"/>
    <g id="ytick_13"/>
    <g id="ytick_14"/>
    <g id="ytick_15"/>
    <g id="ytick_16"/>
    <g id="ytick_17"/>
    <g id="ytick_18"/>
    <g id="ytick_19"/>
    <g id="ytick_20"/>
   </g>
   <g id="line2d_13">
    <path clip-path="url(#p9349c3b906)" d="M 100.010868 118.4 
L 116.901444 111.177321 
L 106.964789 109.758742 
L 105.312577 103.935581 
L 101.84293 94.783817 
L 94.726032 104.684874 
L 82.197946 87.247954 
L 82.645559 104.042574 
L 73.81463 106.468289 
L 69.618271 114.020613 
L 68.359089 122.989508 
L 61.487103 137.003035 
L 65.173007 151.737676 
L 78.4118 158.183588 
L 92.475483 159.275216 
L 108.743769 169.266981 
L 125.675476 164.032157 
L 135.175892 148.998842 
L 141.446659 134.049062 
L 159.029204 118.4 
" style="fill:none;stroke:#2b4162;stroke-linecap:square;stroke-width:3;"/>
   </g>
   <g id="line2d_14">
    <path clip-path="url(#p9349c3b906)" d="M 97.543305 118.4 
L 109.495549 113.719768 
L 110.679434 106.867518 
L 98.367173 114.566312 
L 100.007092 102.033378 
L 95.009792 108.109341 
L 92.678355 111.14088 
L 82.261221 103.625073 
L 77.725972 108.585002 
L 69.407453 113.985433 
L 73.796653 122.082139 
L 81.919432 125.945611 
L 75.315283 140.720227 
L 87.488871 137.48995 
L 93.683943 144.691271 
L 101.282065 139.801379 
L 107.769924 136.625669 
L 129.520936 144.597412 
L 124.344432 128.17786 
L 136.071296 118.4 
" style="fill:none;stroke:#fa9f42;stroke-linecap:square;stroke-width:3;"/>
   </g>
   <g id="line2d_15">
    <path clip-path="url(#p9349c3b906)" d="M 109.571326 118.4 
L 103.155031 115.896471 
L 107.464662 109.369675 
L 107.877774 100.009253 
L 101.693868 95.372447 
L 93.670326 91.944398 
L 90.505913 106.188211 
L 80.16205 101.344765 
L 66.269429 102.385031 
L 67.927713 113.738509 
L 58.12481 124.697307 
L 60.554037 137.507985 
L 65.107952 151.808345 
L 81.763851 150.541682 
L 93.010895 152.813753 
L 107.770146 165.42223 
L 120.379849 155.926596 
L 125.157682 141.201355 
L 138.957147 133.194411 
L 149.712004 118.4 
" style="fill:none;stroke:#e0e0e2;stroke-linecap:square;stroke-width:3;"/>
   </g>
   <g id="line2d_16">
    <path clip-path="url(#p9349c3b906)" d="M 103.648443 118.4 
L 114.521501 111.994357 
L 101.416798 114.076916 
L 109.999485 96.761734 
L 100.453577 100.270247 
L 93.391862 88.583831 
L 84.917999 93.449051 
L 72.119816 92.60857 
L 78.685798 109.104434 
L 62.523133 112.836644 
L 56.6745 124.939321 
L 60.904324 137.318419 
L 74.03365 142.112452 
L 79.511008 155.677648 
L 93.229444 150.176266 
L 105.6033 156.86555 
L 118.424158 152.933188 
L 131.328852 146.00457 
L 136.446244 132.332417 
L 144.271359 118.4 
" style="fill:none;stroke:#a21817;stroke-linecap:square;stroke-width:3;"/>
   </g>
   <g id="line2d_17">
    <path clip-path="url(#p9349c3b906)" d="M 107.931011 118.4 
L 103.164926 115.893074 
L 108.897085 108.254775 
L 101.996432 109.011318 
L 98.599884 107.590316 
L 95.017924 108.207486 
L 90.833299 106.934578 
L 77.900685 98.888267 
L 75.327385 107.286951 
L 63.409551 112.984561 
L 73.209864 122.180056 
L 76.146644 129.069688 
L 73.227607 142.988049 
L 85.036702 143.080334 
L 93.805641 143.222592 
L 104.123165 151.020627 
L 113.198235 144.934317 
L 131.345895 146.017835 
L 134.660159 131.719253 
L 136.727325 118.4 
" style="fill:none;stroke:#0b6e4f;stroke-linecap:square;stroke-width:3;"/>
   </g>
   <g id="patch_3">
    <path d="M 167.8625 118.4 
C 167.8625 108.945047 166.00008 99.582031 162.381826 90.846793 
C 158.763572 82.111555 153.45985 74.173973 146.774188 67.488312 
C 140.088527 60.80265 132.150945 55.498928 123.415707 51.880674 
C 114.680469 48.26242 105.317453 46.4 95.8625 46.4 
C 86.407547 46.4 77.044531 48.26242 68.309293 51.880674 
C 59.574055 55.498928 51.636473 60.80265 44.950812 67.488312 
C 38.26515 74.173973 32.961428 82.111555 29.343174 90.846793 
C 25.72492 99.582031 23.8625 108.945047 23.8625 118.4 
C 23.8625 127.854953 25.72492 137.217969 29.343174 145.953207 
C 32.961428 154.688445 38.26515 162.626027 44.950812 169.311688 
C 51.636473 175.99735 59.574055 181.301072 68.309293 184.919326 
C 77.044531 188.53758 86.407547 190.4 95.8625 190.4 
C 105.317453 190.4 114.680469 188.53758 123.415707 184.919326 
C 132.150945 181.301072 140.088527 175.99735 146.774188 169.311688 
C 153.45985 162.626027 158.763572 154.688445 162.381826 145.953207 
C 166.00008 137.217969 167.8625 127.854953 167.8625 118.4 
" style="fill:none;stroke:#000000;stroke-linecap:square;stroke-linejoin:miter;stroke-width:0.8;"/>
   </g>
   <g id="text_13">
    <!-- With labels -->
    <defs>
     <path d="M 72.296875 0 
L 91.40625 71.40625 
L 81.90625 71.40625 
L 67.40625 12 
L 67.203125 12 
L 51.40625 71.40625 
L 41.09375 71.40625 
L 25.09375 12 
L 24.90625 12 
L 10.90625 71.40625 
L 1.203125 71.40625 
L 19.5 0 
L 29.40625 0 
L 45.90625 60 
L 46.09375 60 
L 62.40625 0 
z
" id="HelveticaNeue-87"/>
     <path d="M 15.40625 61 
L 15.40625 71.40625 
L 6.90625 71.40625 
L 6.90625 61 
z
M 6.90625 51.703125 
L 6.90625 0 
L 15.40625 0 
L 15.40625 51.703125 
z
" id="HelveticaNeue-105"/>
     <path d="M 18.203125 51.703125 
L 18.203125 67.203125 
L 9.703125 67.203125 
L 9.703125 51.703125 
L 0.90625 51.703125 
L 0.90625 44.203125 
L 9.703125 44.203125 
L 9.703125 11.296875 
Q 9.703125 7.703125 10.390625 5.5 
Q 11.09375 3.296875 12.546875 2.09375 
Q 14 0.90625 16.34375 0.453125 
Q 18.703125 0 22 0 
L 28.5 0 
L 28.5 7.5 
L 24.59375 7.5 
Q 22.59375 7.5 21.34375 7.640625 
Q 20.09375 7.796875 19.390625 8.296875 
Q 18.703125 8.796875 18.453125 9.6875 
Q 18.203125 10.59375 18.203125 12.09375 
L 18.203125 44.203125 
L 28.5 44.203125 
L 28.5 51.703125 
z
" id="HelveticaNeue-116"/>
     <path d="M 6.40625 71.40625 
L 6.40625 0 
L 14.90625 0 
L 14.90625 29.203125 
Q 14.90625 32.703125 15.84375 35.640625 
Q 16.796875 38.59375 18.6875 40.796875 
Q 20.59375 43 23.4375 44.203125 
Q 26.296875 45.40625 30.203125 45.40625 
Q 35.09375 45.40625 37.890625 42.59375 
Q 40.703125 39.796875 40.703125 35 
L 40.703125 0 
L 49.203125 0 
L 49.203125 34 
Q 49.203125 38.203125 48.34375 41.640625 
Q 47.5 45.09375 45.390625 47.59375 
Q 43.296875 50.09375 39.890625 51.5 
Q 36.5 52.90625 31.40625 52.90625 
Q 29.09375 52.90625 26.640625 52.40625 
Q 24.203125 51.90625 21.953125 50.84375 
Q 19.703125 49.796875 17.890625 48.140625 
Q 16.09375 46.5 15.09375 44.09375 
L 14.90625 44.09375 
L 14.90625 71.40625 
z
" id="HelveticaNeue-104"/>
     <path id="HelveticaNeue-32"/>
     <path d="M 6.90625 71.40625 
L 6.90625 0 
L 15.40625 0 
L 15.40625 71.40625 
z
" id="HelveticaNeue-108"/>
     <path d="M 52.203125 0.203125 
Q 50 -1.09375 46.09375 -1.09375 
Q 42.796875 -1.09375 40.84375 0.75 
Q 38.90625 2.59375 38.90625 6.796875 
Q 35.40625 2.59375 30.75 0.75 
Q 26.09375 -1.09375 20.703125 -1.09375 
Q 17.203125 -1.09375 14.046875 -0.296875 
Q 10.90625 0.5 8.59375 2.203125 
Q 6.296875 3.90625 4.9375 6.65625 
Q 3.59375 9.40625 3.59375 13.296875 
Q 3.59375 17.703125 5.09375 20.5 
Q 6.59375 23.296875 9.046875 25.046875 
Q 11.5 26.796875 14.640625 27.6875 
Q 17.796875 28.59375 21.09375 29.203125 
Q 24.59375 29.90625 27.75 30.25 
Q 30.90625 30.59375 33.296875 31.25 
Q 35.703125 31.90625 37.09375 33.15625 
Q 38.5 34.40625 38.5 36.796875 
Q 38.5 39.59375 37.453125 41.296875 
Q 36.40625 43 34.75 43.890625 
Q 33.09375 44.796875 31.046875 45.09375 
Q 29 45.40625 27 45.40625 
Q 21.59375 45.40625 18 43.34375 
Q 14.40625 41.296875 14.09375 35.59375 
L 5.59375 35.59375 
Q 5.796875 40.40625 7.59375 43.703125 
Q 9.40625 47 12.40625 49.046875 
Q 15.40625 51.09375 19.25 52 
Q 23.09375 52.90625 27.5 52.90625 
Q 31 52.90625 34.453125 52.40625 
Q 37.90625 51.90625 40.703125 50.34375 
Q 43.5 48.796875 45.203125 46 
Q 46.90625 43.203125 46.90625 38.703125 
L 46.90625 12.09375 
Q 46.90625 9.09375 47.25 7.6875 
Q 47.59375 6.296875 49.59375 6.296875 
Q 50.703125 6.296875 52.203125 6.796875 
z
M 38.40625 26.703125 
Q 36.796875 25.5 34.1875 24.953125 
Q 31.59375 24.40625 28.75 24.046875 
Q 25.90625 23.703125 23 23.25 
Q 20.09375 22.796875 17.796875 21.796875 
Q 15.5 20.796875 14.046875 18.9375 
Q 12.59375 17.09375 12.59375 13.90625 
Q 12.59375 11.796875 13.4375 10.34375 
Q 14.296875 8.90625 15.640625 8 
Q 17 7.09375 18.796875 6.6875 
Q 20.59375 6.296875 22.59375 6.296875 
Q 26.796875 6.296875 29.796875 7.4375 
Q 32.796875 8.59375 34.6875 10.34375 
Q 36.59375 12.09375 37.5 14.140625 
Q 38.40625 16.203125 38.40625 18 
z
" id="HelveticaNeue-97"/>
     <path d="M 6.703125 71.40625 
L 6.703125 0 
L 15.203125 0 
L 15.203125 6.90625 
L 15.40625 6.90625 
Q 16.796875 4.59375 18.84375 3.046875 
Q 20.90625 1.5 23.203125 0.59375 
Q 25.5 -0.296875 27.84375 -0.6875 
Q 30.203125 -1.09375 32.09375 -1.09375 
Q 38 -1.09375 42.453125 1 
Q 46.90625 3.09375 49.84375 6.75 
Q 52.796875 10.40625 54.25 15.296875 
Q 55.703125 20.203125 55.703125 25.703125 
Q 55.703125 31.203125 54.203125 36.09375 
Q 52.703125 41 49.75 44.75 
Q 46.796875 48.5 42.34375 50.703125 
Q 37.90625 52.90625 31.90625 52.90625 
Q 26.5 52.90625 22 50.953125 
Q 17.5 49 15.40625 44.703125 
L 15.203125 44.703125 
L 15.203125 71.40625 
z
M 46.703125 26.296875 
Q 46.703125 22.5 45.890625 18.890625 
Q 45.09375 15.296875 43.296875 12.5 
Q 41.5 9.703125 38.546875 8 
Q 35.59375 6.296875 31.203125 6.296875 
Q 26.796875 6.296875 23.6875 7.9375 
Q 20.59375 9.59375 18.640625 12.296875 
Q 16.703125 15 15.796875 18.546875 
Q 14.90625 22.09375 14.90625 25.90625 
Q 14.90625 29.5 15.75 33 
Q 16.59375 36.5 18.5 39.25 
Q 20.40625 42 23.40625 43.703125 
Q 26.40625 45.40625 30.703125 45.40625 
Q 34.796875 45.40625 37.84375 43.796875 
Q 40.90625 42.203125 42.84375 39.5 
Q 44.796875 36.796875 45.75 33.34375 
Q 46.703125 29.90625 46.703125 26.296875 
z
" id="HelveticaNeue-98"/>
     <path d="M 42.296875 30.796875 
L 12.59375 30.796875 
Q 12.796875 33.796875 13.890625 36.4375 
Q 15 39.09375 16.890625 41.09375 
Q 18.796875 43.09375 21.4375 44.25 
Q 24.09375 45.40625 27.40625 45.40625 
Q 30.59375 45.40625 33.25 44.25 
Q 35.90625 43.09375 37.84375 41.140625 
Q 39.796875 39.203125 40.9375 36.5 
Q 42.09375 33.796875 42.296875 30.796875 
z
M 50.5 16.40625 
L 42.09375 16.40625 
Q 41 11.296875 37.546875 8.796875 
Q 34.09375 6.296875 28.703125 6.296875 
Q 24.5 6.296875 21.390625 7.6875 
Q 18.296875 9.09375 16.296875 11.4375 
Q 14.296875 13.796875 13.390625 16.84375 
Q 12.5 19.90625 12.59375 23.296875 
L 51.296875 23.296875 
Q 51.5 28 50.453125 33.203125 
Q 49.40625 38.40625 46.65625 42.796875 
Q 43.90625 47.203125 39.34375 50.046875 
Q 34.796875 52.90625 27.90625 52.90625 
Q 22.59375 52.90625 18.140625 50.90625 
Q 13.703125 48.90625 10.453125 45.296875 
Q 7.203125 41.703125 5.390625 36.796875 
Q 3.59375 31.90625 3.59375 26 
Q 3.796875 20.09375 5.34375 15.09375 
Q 6.90625 10.09375 10 6.5 
Q 13.09375 2.90625 17.640625 0.90625 
Q 22.203125 -1.09375 28.40625 -1.09375 
Q 37.203125 -1.09375 43 3.296875 
Q 48.796875 7.703125 50.5 16.40625 
z
" id="HelveticaNeue-101"/>
     <path d="M 11.59375 16.296875 
L 3.09375 16.296875 
Q 3.296875 11.5 5.09375 8.140625 
Q 6.90625 4.796875 9.90625 2.75 
Q 12.90625 0.703125 16.796875 -0.1875 
Q 20.703125 -1.09375 25 -1.09375 
Q 28.90625 -1.09375 32.84375 -0.34375 
Q 36.796875 0.40625 39.9375 2.296875 
Q 43.09375 4.203125 45.046875 7.296875 
Q 47 10.40625 47 15.09375 
Q 47 18.796875 45.546875 21.296875 
Q 44.09375 23.796875 41.75 25.4375 
Q 39.40625 27.09375 36.34375 28.09375 
Q 33.296875 29.09375 30.09375 29.796875 
Q 27.09375 30.5 24.09375 31.140625 
Q 21.09375 31.796875 18.6875 32.75 
Q 16.296875 33.703125 14.75 35.140625 
Q 13.203125 36.59375 13.203125 38.796875 
Q 13.203125 40.796875 14.203125 42.046875 
Q 15.203125 43.296875 16.796875 44.046875 
Q 18.40625 44.796875 20.34375 45.09375 
Q 22.296875 45.40625 24.203125 45.40625 
Q 26.296875 45.40625 28.34375 44.953125 
Q 30.40625 44.5 32.09375 43.5 
Q 33.796875 42.5 34.890625 40.84375 
Q 36 39.203125 36.203125 36.703125 
L 44.703125 36.703125 
Q 44.40625 41.40625 42.703125 44.546875 
Q 41 47.703125 38.140625 49.546875 
Q 35.296875 51.40625 31.59375 52.15625 
Q 27.90625 52.90625 23.5 52.90625 
Q 20.09375 52.90625 16.640625 52.046875 
Q 13.203125 51.203125 10.453125 49.453125 
Q 7.703125 47.703125 5.953125 44.890625 
Q 4.203125 42.09375 4.203125 38.203125 
Q 4.203125 33.203125 6.703125 30.390625 
Q 9.203125 27.59375 12.953125 26.046875 
Q 16.703125 24.5 21.09375 23.640625 
Q 25.5 22.796875 29.25 21.75 
Q 33 20.703125 35.5 19 
Q 38 17.296875 38 14 
Q 38 11.59375 36.796875 10.046875 
Q 35.59375 8.5 33.75 7.703125 
Q 31.90625 6.90625 29.703125 6.59375 
Q 27.5 6.296875 25.5 6.296875 
Q 22.90625 6.296875 20.453125 6.796875 
Q 18 7.296875 16.046875 8.4375 
Q 14.09375 9.59375 12.890625 11.546875 
Q 11.703125 13.5 11.59375 16.296875 
z
" id="HelveticaNeue-115"/>
    </defs>
    <g transform="translate(73.776641 24.899219)scale(0.09 -0.09)">
     <use xlink:href="#HelveticaNeue-87"/>
     <use x="92.599991" xlink:href="#HelveticaNeue-105"/>
     <use x="114.799988" xlink:href="#HelveticaNeue-116"/>
     <use x="146.299973" xlink:href="#HelveticaNeue-104"/>
     <use x="201.899963" xlink:href="#HelveticaNeue-32"/>
     <use x="229.699951" xlink:href="#HelveticaNeue-108"/>
     <use x="251.899948" xlink:href="#HelveticaNeue-97"/>
     <use x="305.599945" xlink:href="#HelveticaNeue-98"/>
     <use x="364.899933" xlink:href="#HelveticaNeue-101"/>
     <use x="418.59993" xlink:href="#HelveticaNeue-108"/>
     <use x="440.799927" xlink:href="#HelveticaNeue-115"/>
    </g>
   </g>
  </g>
  <g id="axes_2">
   <g id="patch_4">
    <path d="M 337.7625 118.4 
C 337.7625 108.945047 335.90008 99.582031 332.281826 90.846793 
C 328.663572 82.111555 323.35985 74.173973 316.674188 67.488312 
C 309.988527 60.80265 302.050945 55.498928 293.315707 51.880674 
C 284.580469 48.26242 275.217453 46.4 265.7625 46.4 
C 256.307547 46.4 246.944531 48.26242 238.209293 51.880674 
C 229.474055 55.498928 221.536473 60.80265 214.850812 67.488312 
C 208.16515 74.173973 202.861428 82.111555 199.243174 90.846793 
C 195.62492 99.582031 193.7625 108.945047 193.7625 118.4 
C 193.7625 127.854953 195.62492 137.217969 199.243174 145.953207 
C 202.861428 154.688445 208.16515 162.626027 214.850812 169.311688 
C 221.536473 175.99735 229.474055 181.301072 238.209293 184.919326 
C 246.944531 188.53758 256.307547 190.4 265.7625 190.4 
C 275.217453 190.4 284.580469 188.53758 293.315707 184.919326 
C 302.050945 181.301072 309.988527 175.99735 316.674188 169.311688 
C 323.35985 162.626027 328.663572 154.688445 332.281826 145.953207 
C 335.90008 137.217969 337.7625 127.854953 337.7625 118.4 
M 265.7625 118.4 
C 265.7625 118.4 265.7625 118.4 265.7625 118.4 
C 265.7625 118.4 265.7625 118.4 265.7625 118.4 
C 265.7625 118.4 265.7625 118.4 265.7625 118.4 
C 265.7625 118.4 265.7625 118.4 265.7625 118.4 
C 265.7625 118.4 265.7625 118.4 265.7625 118.4 
C 265.7625 118.4 265.7625 118.4 265.7625 118.4 
C 265.7625 118.4 265.7625 118.4 265.7625 118.4 
C 265.7625 118.4 265.7625 118.4 265.7625 118.4 
C 265.7625 118.4 265.7625 118.4 265.7625 118.4 
C 265.7625 118.4 265.7625 118.4 265.7625 118.4 
C 265.7625 118.4 265.7625 118.4 265.7625 118.4 
C 265.7625 118.4 265.7625 118.4 265.7625 118.4 
C 265.7625 118.4 265.7625 118.4 265.7625 118.4 
C 265.7625 118.4 265.7625 118.4 265.7625 118.4 
C 265.7625 118.4 265.7625 118.4 265.7625 118.4 
C 265.7625 118.4 265.7625 118.4 265.7625 118.4 
M 337.7625 118.4 
z
" style="fill:#ffffff;"/>
   </g>
   <g id="matplotlib.axis_3">
    <g id="xtick_33">
     <g id="line2d_18">
      <path clip-path="url(#pef73d01e08)" d="M 265.7625 118.4 
L 337.7625 118.4 
" style="fill:none;stroke:#000000;stroke-linecap:square;stroke-opacity:0.1;stroke-width:0.6;"/>
     </g>
    </g>
    <g id="xtick_34">
     <g id="line2d_19">
      <path clip-path="url(#pef73d01e08)" d="M 265.7625 118.4 
L 316.674188 67.488312 
" style="fill:none;stroke:#000000;stroke-linecap:square;stroke-opacity:0.1;stroke-width:0.6;"/>
     </g>
    </g>
    <g id="xtick_35">
     <g id="line2d_20">
      <path clip-path="url(#pef73d01e08)" d="M 265.7625 118.4 
L 265.7625 46.4 
" style="fill:none;stroke:#000000;stroke-linecap:square;stroke-opacity:0.1;stroke-width:0.6;"/>
     </g>
    </g>
    <g id="xtick_36">
     <g id="line2d_21">
      <path clip-path="url(#pef73d01e08)" d="M 265.7625 118.4 
L 214.850812 67.488312 
" style="fill:none;stroke:#000000;stroke-linecap:square;stroke-opacity:0.1;stroke-width:0.6;"/>
     </g>
    </g>
    <g id="xtick_37">
     <g id="line2d_22">
      <path clip-path="url(#pef73d01e08)" d="M 265.7625 118.4 
L 193.7625 118.4 
" style="fill:none;stroke:#000000;stroke-linecap:square;stroke-opacity:0.1;stroke-width:0.6;"/>
     </g>
    </g>
    <g id="xtick_38">
     <g id="line2d_23">
      <path clip-path="url(#pef73d01e08)" d="M 265.7625 118.4 
L 214.850812 169.311688 
" style="fill:none;stroke:#000000;stroke-linecap:square;stroke-opacity:0.1;stroke-width:0.6;"/>
     </g>
    </g>
    <g id="xtick_39">
     <g id="line2d_24">
      <path clip-path="url(#pef73d01e08)" d="M 265.7625 118.4 
L 265.7625 190.4 
" style="fill:none;stroke:#000000;stroke-linecap:square;stroke-opacity:0.1;stroke-width:0.6;"/>
     </g>
    </g>
    <g id="xtick_40">
     <g id="line2d_25">
      <path clip-path="url(#pef73d01e08)" d="M 265.7625 118.4 
L 316.674188 169.311688 
" style="fill:none;stroke:#000000;stroke-linecap:square;stroke-opacity:0.1;stroke-width:0.6;"/>
     </g>
    </g>
    <g id="xtick_41"/>
    <g id="xtick_42"/>
    <g id="xtick_43"/>
    <g id="xtick_44"/>
    <g id="xtick_45"/>
    <g id="xtick_46"/>
    <g id="xtick_47"/>
    <g id="xtick_48"/>
    <g id="xtick_49"/>
    <g id="xtick_50"/>
    <g id="xtick_51"/>
    <g id="xtick_52"/>
    <g id="xtick_53"/>
    <g id="xtick_54"/>
    <g id="xtick_55"/>
    <g id="xtick_56"/>
    <g id="xtick_57"/>
    <g id="xtick_58"/>
    <g id="xtick_59"/>
    <g id="xtick_60"/>
    <g id="xtick_61"/>
    <g id="xtick_62"/>
    <g id="xtick_63"/>
    <g id="xtick_64"/>
   </g>
   <g id="matplotlib.axis_4">
    <g id="ytick_21">
     <g id="line2d_26">
      <path clip-path="url(#pef73d01e08)" d="M 265.7625 118.4 
L 265.7625 118.4 
" style="fill:none;stroke:#000000;stroke-linecap:square;stroke-opacity:0.1;stroke-width:0.6;"/>
     </g>
    </g>
    <g id="ytick_22">
     <g id="line2d_27">
      <path clip-path="url(#pef73d01e08)" d="M 284.709868 118.4 
L 284.606073 116.419461 
L 284.295823 114.460621 
L 283.782518 112.544941 
L 283.071782 110.693411 
L 282.171402 108.926316 
L 281.091243 107.263016 
L 279.843139 105.721736 
L 278.440764 104.319361 
L 276.899484 103.071257 
L 275.236184 101.991098 
L 273.469089 101.090718 
L 271.617559 100.379982 
L 269.701879 99.866677 
L 267.743039 99.556427 
L 265.7625 99.452632 
L 263.781961 99.556427 
L 261.823121 99.866677 
L 259.907441 100.379982 
L 258.055911 101.090718 
L 256.288816 101.991098 
L 254.625516 103.071257 
L 253.084236 104.319361 
L 251.681861 105.721736 
L 250.433757 107.263016 
L 249.353598 108.926316 
L 248.453218 110.693411 
L 247.742482 112.544941 
L 247.229177 114.460621 
L 246.918927 116.419461 
L 246.815132 118.4 
L 246.918927 120.380539 
L 247.229177 122.339379 
L 247.742482 124.255059 
L 248.453218 126.106589 
L 249.353598 127.873684 
L 250.433757 129.536984 
L 251.681861 131.078264 
L 253.084236 132.480639 
L 254.625516 133.728743 
L 256.288816 134.808902 
L 258.055911 135.709282 
L 259.907441 136.420018 
L 261.823121 136.933323 
L 263.781961 137.243573 
L 265.7625 137.347368 
L 267.743039 137.243573 
L 269.701879 136.933323 
L 271.617559 136.420018 
L 273.469089 135.709282 
L 275.236184 134.808902 
L 276.899484 133.728743 
L 278.440764 132.480639 
L 279.843139 131.078264 
L 281.091243 129.536984 
L 282.171402 127.873684 
L 283.071782 126.106589 
L 283.782518 124.255059 
L 284.295823 122.339379 
L 284.606073 120.380539 
L 284.709868 118.4 
L 284.709868 118.4 
" style="fill:none;stroke:#000000;stroke-linecap:square;stroke-opacity:0.1;stroke-width:0.6;"/>
     </g>
    </g>
    <g id="ytick_23">
     <g id="line2d_28">
      <path clip-path="url(#pef73d01e08)" d="M 303.657237 118.4 
L 303.564927 115.756597 
L 303.288448 113.126072 
L 302.829146 110.521241 
L 302.189259 107.954795 
L 301.371905 105.439237 
L 300.381065 102.986822 
L 299.221567 100.609499 
L 297.899059 98.318849 
L 296.419986 96.126033 
L 294.791553 94.041733 
L 293.021692 92.076104 
L 291.119028 90.238722 
L 289.09283 88.53854 
L 286.952968 86.983839 
L 284.709868 85.582195 
L 282.374459 84.340436 
L 279.958118 83.264612 
L 277.472618 82.359964 
L 274.930067 81.630899 
L 272.342852 81.080969 
L 269.723579 80.712854 
L 267.085007 80.528348 
L 264.439993 80.528348 
L 261.801421 80.712854 
L 259.182148 81.080969 
L 256.594933 81.630899 
L 254.052382 82.359964 
L 251.566882 83.264612 
L 249.150541 84.340436 
L 246.815132 85.582195 
L 244.572032 86.983839 
L 242.43217 88.53854 
L 240.405972 90.238722 
L 238.503308 92.076104 
L 236.733447 94.041733 
L 235.105014 96.126033 
L 233.625941 98.318849 
L 232.303433 100.609499 
L 231.143935 102.986822 
L 230.153095 105.439237 
L 229.335741 107.954795 
L 228.695854 110.521241 
L 228.236552 113.126072 
L 227.960073 115.756597 
L 227.867763 118.4 
L 227.960073 121.043403 
L 228.236552 123.673928 
L 228.695854 126.278759 
L 229.335741 128.845205 
L 230.153095 131.360763 
L 231.143935 133.813178 
L 232.303433 136.190501 
L 233.625941 138.481151 
L 235.105014 140.673967 
L 236.733447 142.758267 
L 238.503308 144.723896 
L 240.405972 146.561278 
L 242.43217 148.26146 
L 244.572032 149.816161 
L 246.815132 151.217805 
L 249.150541 152.459564 
L 251.566882 153.535388 
L 254.052382 154.440036 
L 256.594933 155.169101 
L 259.182148 155.719031 
L 261.801421 156.087146 
L 264.439993 156.271652 
L 267.085007 156.271652 
L 269.723579 156.087146 
L 272.342852 155.719031 
L 274.930067 155.169101 
L 277.472618 154.440036 
L 279.958118 153.535388 
L 282.374459 152.459564 
L 284.709868 151.217805 
L 286.952968 149.816161 
L 289.09283 148.26146 
L 291.119028 146.561278 
L 293.021692 144.723896 
L 294.791553 142.758267 
L 296.419986 140.673967 
L 297.899059 138.481151 
L 299.221567 136.190501 
L 300.381065 133.813178 
L 301.371905 131.360763 
L 302.189259 128.845205 
L 302.829146 126.278759 
L 303.288448 123.673928 
L 303.564927 121.043403 
L 303.657237 118.4 
L 303.657237 118.4 
" style="fill:none;stroke:#000000;stroke-linecap:square;stroke-opacity:0.1;stroke-width:0.6;"/>
     </g>
    </g>
    <g id="ytick_24">
     <g id="line2d_29">
      <path clip-path="url(#pef73d01e08)" d="M 322.604605 118.4 
L 322.466141 114.434895 
L 322.051422 110.489108 
L 321.362469 106.581862 
L 320.402639 102.732192 
L 319.176607 98.958855 
L 317.690347 95.280233 
L 315.9511 91.714248 
L 313.967339 88.278273 
L 311.748729 84.989049 
L 309.306079 81.862599 
L 306.651289 78.914156 
L 303.797292 76.158084 
L 300.757994 73.60781 
L 297.548202 71.275759 
L 294.183553 69.173293 
L 290.680439 67.310654 
L 287.055927 65.696918 
L 283.327677 64.339945 
L 279.51385 63.246348 
L 275.633028 62.421454 
L 271.704118 61.869282 
L 267.746261 61.592521 
L 263.778739 61.592521 
L 259.820882 61.869282 
L 255.891972 62.421454 
L 252.01115 63.246348 
L 248.197323 64.339945 
L 244.469073 65.696918 
L 240.844561 67.310654 
L 237.341447 69.173293 
L 233.976798 71.275759 
L 230.767006 73.60781 
L 227.727708 76.158084 
L 224.873711 78.914156 
L 222.218921 81.862599 
L 219.776271 84.989049 
L 217.557661 88.278273 
L 215.5739 91.714248 
L 213.834653 95.280233 
L 212.348393 98.958855 
L 211.122361 102.732192 
L 210.162531 106.581862 
L 209.473578 110.489108 
L 209.058859 114.434895 
L 208.920395 118.4 
L 209.058859 122.365105 
L 209.473578 126.310892 
L 210.162531 130.218138 
L 211.122361 134.067808 
L 212.348393 137.841145 
L 213.834653 141.519767 
L 215.5739 145.085752 
L 217.557661 148.521727 
L 219.776271 151.810951 
L 222.218921 154.937401 
L 224.873711 157.885844 
L 227.727708 160.641916 
L 230.767006 163.19219 
L 233.976798 165.524241 
L 237.341447 167.626707 
L 240.844561 169.489346 
L 244.469073 171.103082 
L 248.197323 172.460055 
L 252.01115 173.553652 
L 255.891972 174.378546 
L 259.820882 174.930718 
L 263.778739 175.207479 
L 267.746261 175.207479 
L 271.704118 174.930718 
L 275.633028 174.378546 
L 279.51385 173.553652 
L 283.327677 172.460055 
L 287.055927 171.103082 
L 290.680439 169.489346 
L 294.183553 167.626707 
L 297.548202 165.524241 
L 300.757994 163.19219 
L 303.797292 160.641916 
L 306.651289 157.885844 
L 309.306079 154.937401 
L 311.748729 151.810951 
L 313.967339 148.521727 
L 315.9511 145.085752 
L 317.690347 141.519767 
L 319.176607 137.841145 
L 320.402639 134.067808 
L 321.362469 130.218138 
L 322.051422 126.310892 
L 322.466141 122.365105 
L 322.604605 118.4 
L 322.604605 118.4 
" style="fill:none;stroke:#000000;stroke-linecap:square;stroke-opacity:0.1;stroke-width:0.6;"/>
     </g>
    </g>
    <g id="ytick_25"/>
    <g id="ytick_26"/>
    <g id="ytick_27"/>
    <g id="ytick_28"/>
    <g id="ytick_29"/>
    <g id="ytick_30"/>
    <g id="ytick_31"/>
    <g id="ytick_32"/>
    <g id="ytick_33"/>
    <g id="ytick_34"/>
    <g id="ytick_35"/>
    <g id="ytick_36"/>
    <g id="ytick_37"/>
    <g id="ytick_38"/>
    <g id="ytick_39"/>
    <g id="ytick_40"/>
   </g>
   <g id="line2d_30">
    <path clip-path="url(#pef73d01e08)" d="M 269.910868 118.4 
L 286.801444 111.177321 
L 276.864789 109.758742 
L 275.212577 103.935581 
L 271.74293 94.783817 
L 264.626032 104.684874 
L 252.097946 87.247954 
L 252.545559 104.042574 
L 243.71463 106.468289 
L 239.518271 114.020613 
L 238.259089 122.989508 
L 231.387103 137.003035 
L 235.073007 151.737676 
L 248.3118 158.183588 
L 262.375483 159.275216 
L 278.643769 169.266981 
L 295.575476 164.032157 
L 305.075892 148.998842 
L 311.346659 134.049062 
L 328.929204 118.4 
" style="fill:none;stroke:#2b4162;stroke-linecap:square;stroke-width:3;"/>
   </g>
   <g id="line2d_31">
    <path clip-path="url(#pef73d01e08)" d="M 267.443305 118.4 
L 279.395549 113.719768 
L 280.579434 106.867518 
L 268.267173 114.566312 
L 269.907092 102.033378 
L 264.909792 108.109341 
L 262.578355 111.14088 
L 252.161221 103.625073 
L 247.625972 108.585002 
L 239.307453 113.985433 
L 243.696653 122.082139 
L 251.819432 125.945611 
L 245.215283 140.720227 
L 257.388871 137.48995 
L 263.583943 144.691271 
L 271.182065 139.801379 
L 277.669924 136.625669 
L 299.420936 144.597412 
L 294.244432 128.17786 
L 305.971296 118.4 
" style="fill:none;stroke:#fa9f42;stroke-linecap:square;stroke-width:3;"/>
   </g>
   <g id="line2d_32">
    <path clip-path="url(#pef73d01e08)" d="M 279.471326 118.4 
L 273.055031 115.896471 
L 277.364662 109.369675 
L 277.777774 100.009253 
L 271.593868 95.372447 
L 263.570326 91.944398 
L 260.405913 106.188211 
L 250.06205 101.344765 
L 236.169429 102.385031 
L 237.827713 113.738509 
L 228.02481 124.697307 
L 230.454037 137.507985 
L 235.007952 151.808345 
L 251.663851 150.541682 
L 262.910895 152.813753 
L 277.670146 165.42223 
L 290.279849 155.926596 
L 295.057682 141.201355 
L 308.857147 133.194411 
L 319.612004 118.4 
" style="fill:none;stroke:#e0e0e2;stroke-linecap:square;stroke-width:3;"/>
   </g>
   <g id="line2d_33">
    <path clip-path="url(#pef73d01e08)" d="M 273.548443 118.4 
L 284.421501 111.994357 
L 271.316798 114.076916 
L 279.899485 96.761734 
L 270.353577 100.270247 
L 263.291862 88.583831 
L 254.817999 93.449051 
L 242.019816 92.60857 
L 248.585798 109.104434 
L 232.423133 112.836644 
L 226.5745 124.939321 
L 230.804324 137.318419 
L 243.93365 142.112452 
L 249.411008 155.677648 
L 263.129444 150.176266 
L 275.5033 156.86555 
L 288.324158 152.933188 
L 301.228852 146.00457 
L 306.346244 132.332417 
L 314.171359 118.4 
" style="fill:none;stroke:#a21817;stroke-linecap:square;stroke-width:3;"/>
   </g>
   <g id="line2d_34">
    <path clip-path="url(#pef73d01e08)" d="M 277.831011 118.4 
L 273.064926 115.893074 
L 278.797085 108.254775 
L 271.896432 109.011318 
L 268.499884 107.590316 
L 264.917924 108.207486 
L 260.733299 106.934578 
L 247.800685 98.888267 
L 245.227385 107.286951 
L 233.309551 112.984561 
L 243.109864 122.180056 
L 246.046644 129.069688 
L 243.127607 142.988049 
L 254.936702 143.080334 
L 263.705641 143.222592 
L 274.023165 151.020627 
L 283.098235 144.934317 
L 301.245895 146.017835 
L 304.560159 131.719253 
L 306.627325 118.4 
" style="fill:none;stroke:#0b6e4f;stroke-linecap:square;stroke-width:3;"/>
   </g>
   <g id="patch_5">
    <path d="M 337.7625 118.4 
C 337.7625 108.945047 335.90008 99.582031 332.281826 90.846793 
C 328.663572 82.111555 323.35985 74.173973 316.674188 67.488312 
C 309.988527 60.80265 302.050945 55.498928 293.315707 51.880674 
C 284.580469 48.26242 275.217453 46.4 265.7625 46.4 
C 256.307547 46.4 246.944531 48.26242 238.209293 51.880674 
C 229.474055 55.498928 221.536473 60.80265 214.850812 67.488312 
C 208.16515 74.173973 202.861428 82.111555 199.243174 90.846793 
C 195.62492 99.582031 193.7625 108.945047 193.7625 118.4 
C 193.7625 127.854953 195.62492 137.217969 199.243174 145.953207 
C 202.861428 154.688445 208.16515 162.626027 214.850812 169.311688 
C 221.536473 175.99735 229.474055 181.301072 238.209293 184.919326 
C 246.944531 188.53758 256.307547 190.4 265.7625 190.4 
C 275.217453 190.4 284.580469 188.53758 293.315707 184.919326 
C 302.050945 181.301072 309.988527 175.99735 316.674188 169.311688 
C 323.35985 162.626027 328.663572 154.688445 332.281826 145.953207 
C 335.90008 137.217969 337.7625 127.854953 337.7625 118.4 
" style="fill:none;stroke:#000000;stroke-linecap:square;stroke-linejoin:miter;stroke-width:0.8;"/>
   </g>
   <g id="text_14">
    <!-- Without labels -->
    <defs>
     <path d="M 12.59375 25.796875 
Q 12.59375 30.5 13.84375 34.140625 
Q 15.09375 37.796875 17.296875 40.296875 
Q 19.5 42.796875 22.453125 44.09375 
Q 25.40625 45.40625 28.703125 45.40625 
Q 32 45.40625 34.953125 44.09375 
Q 37.90625 42.796875 40.09375 40.296875 
Q 42.296875 37.796875 43.546875 34.140625 
Q 44.796875 30.5 44.796875 25.796875 
Q 44.796875 21.09375 43.546875 17.4375 
Q 42.296875 13.796875 40.09375 11.34375 
Q 37.90625 8.90625 34.953125 7.59375 
Q 32 6.296875 28.703125 6.296875 
Q 25.40625 6.296875 22.453125 7.59375 
Q 19.5 8.90625 17.296875 11.34375 
Q 15.09375 13.796875 13.84375 17.4375 
Q 12.59375 21.09375 12.59375 25.796875 
z
M 3.59375 25.796875 
Q 3.59375 20.09375 5.1875 15.1875 
Q 6.796875 10.296875 10 6.640625 
Q 13.203125 3 17.890625 0.953125 
Q 22.59375 -1.09375 28.703125 -1.09375 
Q 34.90625 -1.09375 39.546875 0.953125 
Q 44.203125 3 47.390625 6.640625 
Q 50.59375 10.296875 52.1875 15.1875 
Q 53.796875 20.09375 53.796875 25.796875 
Q 53.796875 31.5 52.1875 36.453125 
Q 50.59375 41.40625 47.390625 45.046875 
Q 44.203125 48.703125 39.546875 50.796875 
Q 34.90625 52.90625 28.703125 52.90625 
Q 22.59375 52.90625 17.890625 50.796875 
Q 13.203125 48.703125 10 45.046875 
Q 6.796875 41.40625 5.1875 36.453125 
Q 3.59375 31.5 3.59375 25.796875 
z
" id="HelveticaNeue-111"/>
     <path d="M 49.203125 0 
L 49.203125 51.703125 
L 40.703125 51.703125 
L 40.703125 22.5 
Q 40.703125 19 39.75 16.046875 
Q 38.796875 13.09375 36.890625 10.890625 
Q 35 8.703125 32.140625 7.5 
Q 29.296875 6.296875 25.40625 6.296875 
Q 20.5 6.296875 17.703125 9.09375 
Q 14.90625 11.90625 14.90625 16.703125 
L 14.90625 51.703125 
L 6.40625 51.703125 
L 6.40625 17.703125 
Q 6.40625 13.5 7.25 10.046875 
Q 8.09375 6.59375 10.1875 4.09375 
Q 12.296875 1.59375 15.6875 0.25 
Q 19.09375 -1.09375 24.203125 -1.09375 
Q 29.90625 -1.09375 34.09375 1.15625 
Q 38.296875 3.40625 41 8.203125 
L 41.203125 8.203125 
L 41.203125 0 
z
" id="HelveticaNeue-117"/>
    </defs>
    <g transform="translate(237.174141 37.926719)scale(0.09 -0.09)">
     <use xlink:href="#HelveticaNeue-87"/>
     <use x="92.599991" xlink:href="#HelveticaNeue-105"/>
     <use x="114.799988" xlink:href="#HelveticaNeue-116"/>
     <use x="146.299973" xlink:href="#HelveticaNeue-104"/>
     <use x="201.899963" xlink:href="#HelveticaNeue-111"/>
     <use x="259.299957" xlink:href="#HelveticaNeue-117"/>
     <use x="314.899948" xlink:href="#HelveticaNeue-116"/>
     <use x="346.399933" xlink:href="#HelveticaNeue-32"/>
     <use x="374.199921" xlink:href="#HelveticaNeue-108"/>
     <use x="396.399918" xlink:href="#HelveticaNeue-97"/>
     <use x="450.099915" xlink:href="#HelveticaNeue-98"/>
     <use x="509.399902" xlink:href="#HelveticaNeue-101"/>
     <use x="563.099899" xlink:href="#HelveticaNeue-108"/>
     <use x="585.299896" xlink:href="#HelveticaNeue-115"/>
    </g>
   </g>
  </g>
  <g id="text_15">
   <!-- Polar axes demo -->
   <defs>
    <path d="M 22.59375 37.796875 
L 22.59375 59.203125 
L 34.796875 59.203125 
Q 37.5 59.203125 40 58.796875 
Q 42.5 58.40625 44.390625 57.25 
Q 46.296875 56.09375 47.4375 54 
Q 48.59375 51.90625 48.59375 48.5 
Q 48.59375 45.09375 47.4375 43 
Q 46.296875 40.90625 44.390625 39.75 
Q 42.5 38.59375 40 38.1875 
Q 37.5 37.796875 34.796875 37.796875 
z
M 6.90625 71.40625 
L 6.90625 0 
L 22.59375 0 
L 22.59375 25.59375 
L 39.09375 25.59375 
Q 45.796875 25.59375 50.5 27.546875 
Q 55.203125 29.5 58.140625 32.703125 
Q 61.09375 35.90625 62.4375 40.046875 
Q 63.796875 44.203125 63.796875 48.5 
Q 63.796875 52.90625 62.4375 57 
Q 61.09375 61.09375 58.140625 64.296875 
Q 55.203125 67.5 50.5 69.453125 
Q 45.796875 71.40625 39.09375 71.40625 
z
" id="HelveticaNeue-Bold-80"/>
    <path d="M 18 25.796875 
Q 18 28.90625 18.59375 31.90625 
Q 19.203125 34.90625 20.640625 37.203125 
Q 22.09375 39.5 24.5 40.953125 
Q 26.90625 42.40625 30.5 42.40625 
Q 34.09375 42.40625 36.546875 40.953125 
Q 39 39.5 40.453125 37.203125 
Q 41.90625 34.90625 42.5 31.90625 
Q 43.09375 28.90625 43.09375 25.796875 
Q 43.09375 22.703125 42.5 19.75 
Q 41.90625 16.796875 40.453125 14.4375 
Q 39 12.09375 36.546875 10.6875 
Q 34.09375 9.296875 30.5 9.296875 
Q 26.90625 9.296875 24.5 10.6875 
Q 22.09375 12.09375 20.640625 14.4375 
Q 19.203125 16.796875 18.59375 19.75 
Q 18 22.703125 18 25.796875 
z
M 3.796875 25.796875 
Q 3.796875 19.59375 5.6875 14.59375 
Q 7.59375 9.59375 11.09375 6.046875 
Q 14.59375 2.5 19.5 0.59375 
Q 24.40625 -1.296875 30.5 -1.296875 
Q 36.59375 -1.296875 41.546875 0.59375 
Q 46.5 2.5 50 6.046875 
Q 53.5 9.59375 55.390625 14.59375 
Q 57.296875 19.59375 57.296875 25.796875 
Q 57.296875 32 55.390625 37.046875 
Q 53.5 42.09375 50 45.640625 
Q 46.5 49.203125 41.546875 51.140625 
Q 36.59375 53.09375 30.5 53.09375 
Q 24.40625 53.09375 19.5 51.140625 
Q 14.59375 49.203125 11.09375 45.640625 
Q 7.59375 42.09375 5.6875 37.046875 
Q 3.796875 32 3.796875 25.796875 
z
" id="HelveticaNeue-Bold-111"/>
    <path d="M 5.796875 71.40625 
L 5.796875 0 
L 20 0 
L 20 71.40625 
z
" id="HelveticaNeue-Bold-108"/>
    <path d="M 4.796875 35.796875 
Q 5.09375 40.796875 7.296875 44.09375 
Q 9.5 47.40625 12.890625 49.40625 
Q 16.296875 51.40625 20.546875 52.25 
Q 24.796875 53.09375 29.09375 53.09375 
Q 33 53.09375 37 52.546875 
Q 41 52 44.296875 50.390625 
Q 47.59375 48.796875 49.6875 45.9375 
Q 51.796875 43.09375 51.796875 38.40625 
L 51.796875 11.5 
Q 51.796875 8 52.1875 4.796875 
Q 52.59375 1.59375 53.59375 0 
L 39.203125 0 
Q 38.796875 1.203125 38.546875 2.453125 
Q 38.296875 3.703125 38.203125 5 
Q 34.796875 1.5 30.1875 0.09375 
Q 25.59375 -1.296875 20.796875 -1.296875 
Q 17.09375 -1.296875 13.890625 -0.390625 
Q 10.703125 0.5 8.296875 2.390625 
Q 5.90625 4.296875 4.546875 7.1875 
Q 3.203125 10.09375 3.203125 14.09375 
Q 3.203125 18.5 4.75 21.34375 
Q 6.296875 24.203125 8.75 25.890625 
Q 11.203125 27.59375 14.34375 28.4375 
Q 17.5 29.296875 20.703125 29.796875 
Q 23.90625 30.296875 27 30.59375 
Q 30.09375 30.90625 32.5 31.5 
Q 34.90625 32.09375 36.296875 33.25 
Q 37.703125 34.40625 37.59375 36.59375 
Q 37.59375 38.90625 36.84375 40.25 
Q 36.09375 41.59375 34.84375 42.34375 
Q 33.59375 43.09375 31.9375 43.34375 
Q 30.296875 43.59375 28.40625 43.59375 
Q 24.203125 43.59375 21.796875 41.796875 
Q 19.40625 40 19 35.796875 
z
M 37.59375 25.296875 
Q 36.703125 24.5 35.34375 24.046875 
Q 34 23.59375 32.453125 23.296875 
Q 30.90625 23 29.203125 22.796875 
Q 27.5 22.59375 25.796875 22.296875 
Q 24.203125 22 22.640625 21.5 
Q 21.09375 21 19.9375 20.140625 
Q 18.796875 19.296875 18.09375 18 
Q 17.40625 16.703125 17.40625 14.703125 
Q 17.40625 12.796875 18.09375 11.5 
Q 18.796875 10.203125 20 9.453125 
Q 21.203125 8.703125 22.796875 8.390625 
Q 24.40625 8.09375 26.09375 8.09375 
Q 30.296875 8.09375 32.59375 9.5 
Q 34.90625 10.90625 36 12.84375 
Q 37.09375 14.796875 37.34375 16.796875 
Q 37.59375 18.796875 37.59375 20 
z
" id="HelveticaNeue-Bold-97"/>
    <path d="M 5.40625 51.703125 
L 5.40625 0 
L 19.59375 0 
L 19.59375 23.296875 
Q 19.59375 26.796875 20.296875 29.796875 
Q 21 32.796875 22.640625 35.046875 
Q 24.296875 37.296875 27 38.59375 
Q 29.703125 39.90625 33.59375 39.90625 
Q 34.90625 39.90625 36.296875 39.75 
Q 37.703125 39.59375 38.703125 39.40625 
L 38.703125 52.59375 
Q 37 53.09375 35.59375 53.09375 
Q 32.90625 53.09375 30.40625 52.296875 
Q 27.90625 51.5 25.703125 50.046875 
Q 23.5 48.59375 21.796875 46.546875 
Q 20.09375 44.5 19.09375 42.09375 
L 18.90625 42.09375 
L 18.90625 51.703125 
z
" id="HelveticaNeue-Bold-114"/>
    <path id="HelveticaNeue-Bold-32"/>
    <path d="M 18.59375 27.203125 
L 0 0 
L 15.90625 0 
L 26.703125 16.296875 
L 37.5 0 
L 53.703125 0 
L 34.59375 27.5 
L 51.59375 51.703125 
L 35.90625 51.703125 
L 26.90625 38.203125 
L 17.796875 51.703125 
L 1.59375 51.703125 
z
" id="HelveticaNeue-Bold-120"/>
    <path d="M 40.203125 31.40625 
L 17.09375 31.40625 
Q 17.203125 32.90625 17.75 34.796875 
Q 18.296875 36.703125 19.640625 38.390625 
Q 21 40.09375 23.25 41.25 
Q 25.5 42.40625 28.90625 42.40625 
Q 34.09375 42.40625 36.640625 39.59375 
Q 39.203125 36.796875 40.203125 31.40625 
z
M 17.09375 22.40625 
L 54.40625 22.40625 
Q 54.796875 28.40625 53.390625 33.90625 
Q 52 39.40625 48.84375 43.703125 
Q 45.703125 48 40.796875 50.546875 
Q 35.90625 53.09375 29.296875 53.09375 
Q 23.40625 53.09375 18.546875 51 
Q 13.703125 48.90625 10.203125 45.25 
Q 6.703125 41.59375 4.796875 36.59375 
Q 2.90625 31.59375 2.90625 25.796875 
Q 2.90625 19.796875 4.75 14.796875 
Q 6.59375 9.796875 10 6.1875 
Q 13.40625 2.59375 18.296875 0.640625 
Q 23.203125 -1.296875 29.296875 -1.296875 
Q 38.09375 -1.296875 44.296875 2.703125 
Q 50.5 6.703125 53.5 16 
L 41 16 
Q 40.296875 13.59375 37.1875 11.4375 
Q 34.09375 9.296875 29.796875 9.296875 
Q 23.796875 9.296875 20.59375 12.390625 
Q 17.40625 15.5 17.09375 22.40625 
z
" id="HelveticaNeue-Bold-101"/>
    <path d="M 16.40625 16.796875 
L 2.90625 16.796875 
Q 3.09375 11.59375 5.25 8.140625 
Q 7.40625 4.703125 10.75 2.59375 
Q 14.09375 0.5 18.390625 -0.390625 
Q 22.703125 -1.296875 27.203125 -1.296875 
Q 31.59375 -1.296875 35.84375 -0.4375 
Q 40.09375 0.40625 43.390625 2.5 
Q 46.703125 4.59375 48.75 8.046875 
Q 50.796875 11.5 50.796875 16.59375 
Q 50.796875 20.203125 49.390625 22.640625 
Q 48 25.09375 45.703125 26.75 
Q 43.40625 28.40625 40.453125 29.40625 
Q 37.5 30.40625 34.40625 31.09375 
Q 31.40625 31.796875 28.5 32.390625 
Q 25.59375 33 23.34375 33.75 
Q 21.09375 34.5 19.6875 35.703125 
Q 18.296875 36.90625 18.296875 38.796875 
Q 18.296875 40.40625 19.09375 41.34375 
Q 19.90625 42.296875 21.046875 42.796875 
Q 22.203125 43.296875 23.59375 43.4375 
Q 25 43.59375 26.203125 43.59375 
Q 30 43.59375 32.796875 42.140625 
Q 35.59375 40.703125 35.90625 36.59375 
L 49.40625 36.59375 
Q 49 41.40625 46.953125 44.546875 
Q 44.90625 47.703125 41.796875 49.59375 
Q 38.703125 51.5 34.75 52.296875 
Q 30.796875 53.09375 26.59375 53.09375 
Q 22.40625 53.09375 18.40625 52.34375 
Q 14.40625 51.59375 11.203125 49.75 
Q 8 47.90625 6.046875 44.703125 
Q 4.09375 41.5 4.09375 36.5 
Q 4.09375 33.09375 5.5 30.75 
Q 6.90625 28.40625 9.203125 26.84375 
Q 11.5 25.296875 14.453125 24.34375 
Q 17.40625 23.40625 20.5 22.703125 
Q 28.09375 21.09375 32.34375 19.5 
Q 36.59375 17.90625 36.59375 14.703125 
Q 36.59375 12.796875 35.6875 11.546875 
Q 34.796875 10.296875 33.4375 9.546875 
Q 32.09375 8.796875 30.4375 8.4375 
Q 28.796875 8.09375 27.296875 8.09375 
Q 25.203125 8.09375 23.25 8.59375 
Q 21.296875 9.09375 19.796875 10.140625 
Q 18.296875 11.203125 17.34375 12.84375 
Q 16.40625 14.5 16.40625 16.796875 
z
" id="HelveticaNeue-Bold-115"/>
    <path d="M 42.09375 26 
Q 42.09375 22.796875 41.5 19.796875 
Q 40.90625 16.796875 39.5 14.4375 
Q 38.09375 12.09375 35.75 10.6875 
Q 33.40625 9.296875 29.90625 9.296875 
Q 26.59375 9.296875 24.25 10.75 
Q 21.90625 12.203125 20.34375 14.546875 
Q 18.796875 16.90625 18.09375 19.90625 
Q 17.40625 22.90625 17.40625 25.90625 
Q 17.40625 29.09375 18.046875 32.046875 
Q 18.703125 35 20.140625 37.296875 
Q 21.59375 39.59375 24 41 
Q 26.40625 42.40625 29.90625 42.40625 
Q 33.40625 42.40625 35.703125 41 
Q 38 39.59375 39.453125 37.34375 
Q 40.90625 35.09375 41.5 32.140625 
Q 42.09375 29.203125 42.09375 26 
z
M 42.296875 6.59375 
L 42.296875 0 
L 55.796875 0 
L 55.796875 71.40625 
L 41.59375 71.40625 
L 41.59375 45.40625 
L 41.40625 45.40625 
Q 39 49.203125 34.84375 51.140625 
Q 30.703125 53.09375 26.09375 53.09375 
Q 20.40625 53.09375 16.09375 50.84375 
Q 11.796875 48.59375 8.9375 44.890625 
Q 6.09375 41.203125 4.640625 36.34375 
Q 3.203125 31.5 3.203125 26.296875 
Q 3.203125 20.90625 4.640625 15.90625 
Q 6.09375 10.90625 8.9375 7.046875 
Q 11.796875 3.203125 16.1875 0.953125 
Q 20.59375 -1.296875 26.40625 -1.296875 
Q 31.5 -1.296875 35.546875 0.546875 
Q 39.59375 2.40625 42.09375 6.59375 
z
" id="HelveticaNeue-Bold-100"/>
    <path d="M 5.796875 51.703125 
L 5.796875 0 
L 20 0 
L 20 30 
Q 20 33.796875 21.09375 36.140625 
Q 22.203125 38.5 23.75 39.75 
Q 25.296875 41 26.9375 41.453125 
Q 28.59375 41.90625 29.59375 41.90625 
Q 33 41.90625 34.75 40.75 
Q 36.5 39.59375 37.25 37.6875 
Q 38 35.796875 38.09375 33.546875 
Q 38.203125 31.296875 38.203125 29 
L 38.203125 0 
L 52.40625 0 
L 52.40625 28.796875 
Q 52.40625 31.203125 52.75 33.546875 
Q 53.09375 35.90625 54.140625 37.75 
Q 55.203125 39.59375 57.046875 40.75 
Q 58.90625 41.90625 61.90625 41.90625 
Q 64.90625 41.90625 66.65625 40.90625 
Q 68.40625 39.90625 69.296875 38.203125 
Q 70.203125 36.5 70.390625 34.203125 
Q 70.59375 31.90625 70.59375 29.296875 
L 70.59375 0 
L 84.796875 0 
L 84.796875 34.59375 
Q 84.796875 39.59375 83.390625 43.140625 
Q 82 46.703125 79.5 48.890625 
Q 77 51.09375 73.5 52.09375 
Q 70 53.09375 65.90625 53.09375 
Q 60.5 53.09375 56.546875 50.5 
Q 52.59375 47.90625 50.296875 44.5 
Q 48.203125 49.296875 44.140625 51.1875 
Q 40.09375 53.09375 35.203125 53.09375 
Q 30.09375 53.09375 26.140625 50.890625 
Q 22.203125 48.703125 19.40625 44.703125 
L 19.203125 44.703125 
L 19.203125 51.703125 
z
" id="HelveticaNeue-Bold-109"/>
   </defs>
   <g transform="translate(144.906719 14.144219)scale(0.09 -0.09)">
    <use xlink:href="#HelveticaNeue-Bold-80"/>
    <use x="66.699997" xlink:href="#HelveticaNeue-Bold-111"/>
    <use x="127.799988" xlink:href="#HelveticaNeue-Bold-108"/>
    <use x="153.599976" xlink:href="#HelveticaNeue-Bold-97"/>
    <use x="210.999969" xlink:href="#HelveticaNeue-Bold-114"/>
    <use x="249.899963" xlink:href="#HelveticaNeue-Bold-32"/>
    <use x="277.699951" xlink:href="#HelveticaNeue-Bold-97"/>
    <use x="335.099945" xlink:href="#HelveticaNeue-Bold-120"/>
    <use x="388.799942" xlink:href="#HelveticaNeue-Bold-101"/>
    <use x="446.199936" xlink:href="#HelveticaNeue-Bold-115"/>
    <use x="499.899933" xlink:href="#HelveticaNeue-Bold-32"/>
    <use x="527.699921" xlink:href="#HelveticaNeue-Bold-100"/>
    <use x="588.799911" xlink:href="#HelveticaNeue-Bold-101"/>
    <use x="646.199905" xlink:href="#HelveticaNeue-Bold-109"/>
    <use x="736.799896" xlink:href="#HelveticaNeue-Bold-111"/>
   </g>
  </g>
 </g>
 <defs>
  <clipPath id="p9349c3b906">
   <path d="M 167.8625 118.4 
C 167.8625 108.945047 166.00008 99.582031 162.381826 90.846793 
C 158.763572 82.111555 153.45985 74.173973 146.774188 67.488312 
C 140.088527 60.80265 132.150945 55.498928 123.415707 51.880674 
C 114.680469 48.26242 105.317453 46.4 95.8625 46.4 
C 86.407547 46.4 77.044531 48.26242 68.309293 51.880674 
C 59.574055 55.498928 51.636473 60.80265 44.950812 67.488312 
C 38.26515 74.173973 32.961428 82.111555 29.343174 90.846793 
C 25.72492 99.582031 23.8625 108.945047 23.8625 118.4 
C 23.8625 127.854953 25.72492 137.217969 29.343174 145.953207 
C 32.961428 154.688445 38.26515 162.626027 44.950812 169.311688 
C 51.636473 175.99735 59.574055 181.301072 68.309293 184.919326 
C 77.044531 188.53758 86.407547 190.4 95.8625 190.4 
C 105.317453 190.4 114.680469 188.53758 123.415707 184.919326 
C 132.150945 181.301072 140.088527 175.99735 146.774188 169.311688 
C 153.45985 162.626027 158.763572 154.688445 162.381826 145.953207 
C 166.00008 137.217969 167.8625 127.854953 167.8625 118.4 
M 95.8625 118.4 
C 95.8625 118.4 95.8625 118.4 95.8625 118.4 
C 95.8625 118.4 95.8625 118.4 95.8625 118.4 
C 95.8625 118.4 95.8625 118.4 95.8625 118.4 
C 95.8625 118.4 95.8625 118.4 95.8625 118.4 
C 95.8625 118.4 95.8625 118.4 95.8625 118.4 
C 95.8625 118.4 95.8625 118.4 95.8625 118.4 
C 95.8625 118.4 95.8625 118.4 95.8625 118.4 
C 95.8625 118.4 95.8625 118.4 95.8625 118.4 
C 95.8625 118.4 95.8625 118.4 95.8625 118.4 
C 95.8625 118.4 95.8625 118.4 95.8625 118.4 
C 95.8625 118.4 95.8625 118.4 95.8625 118.4 
C 95.8625 118.4 95.8625 118.4 95.8625 118.4 
C 95.8625 118.4 95.8625 118.4 95.8625 118.4 
C 95.8625 118.4 95.8625 118.4 95.8625 118.4 
C 95.8625 118.4 95.8625 118.4 95.8625 118.4 
C 95.8625 118.4 95.8625 118.4 95.8625 118.4 
M 167.8625 118.4 
z
"/>
  </clipPath>
  <clipPath id="pef73d01e08">
   <path d="M 337.7625 118.4 
C 337.7625 108.945047 335.90008 99.582031 332.281826 90.846793 
C 328.663572 82.111555 323.35985 74.173973 316.674188 67.488312 
C 309.988527 60.80265 302.050945 55.498928 293.315707 51.880674 
C 284.580469 48.26242 275.217453 46.4 265.7625 46.4 
C 256.307547 46.4 246.944531 48.26242 238.209293 51.880674 
C 229.474055 55.498928 221.536473 60.80265 214.850812 67.488312 
C 208.16515 74.173973 202.861428 82.111555 199.243174 90.846793 
C 195.62492 99.582031 193.7625 108.945047 193.7625 118.4 
C 193.7625 127.854953 195.62492 137.217969 199.243174 145.953207 
C 202.861428 154.688445 208.16515 162.626027 214.850812 169.311688 
C 221.536473 175.99735 229.474055 181.301072 238.209293 184.919326 
C 246.944531 188.53758 256.307547 190.4 265.7625 190.4 
C 275.217453 190.4 284.580469 188.53758 293.315707 184.919326 
C 302.050945 181.301072 309.988527 175.99735 316.674188 169.311688 
C 323.35985 162.626027 328.663572 154.688445 332.281826 145.953207 
C 335.90008 137.217969 337.7625 127.854953 337.7625 118.4 
M 265.7625 118.4 
C 265.7625 118.4 265.7625 118.4 265.7625 118.4 
C 265.7625 118.4 265.7625 118.4 265.7625 118.4 
C 265.7625 118.4 265.7625 118.4 265.7625 118.4 
C 265.7625 118.4 265.7625 118.4 265.7625 118.4 
C 265.7625 118.4 265.7625 118.4 265.7625 118.4 
C 265.7625 118.4 265.7625 118.4 265.7625 118.4 
C 265.7625 118.4 265.7625 118.4 265.7625 118.4 
C 265.7625 118.4 265.7625 118.4 265.7625 118.4 
C 265.7625 118.4 265.7625 118.4 265.7625 118.4 
C 265.7625 118.4 265.7625 118.4 265.7625 118.4 
C 265.7625 118.4 265.7625 118.4 265.7625 118.4 
C 265.7625 118.4 265.7625 118.4 265.7625 118.4 
C 265.7625 118.4 265.7625 118.4 265.7625 118.4 
C 265.7625 118.4 265.7625 118.4 265.7625 118.4 
C 265.7625 118.4 265.7625 118.4 265.7625 118.4 
C 265.7625 118.4 265.7625 118.4 265.7625 118.4 
M 337.7625 118.4 
z
"/>
  </clipPath>
 </defs>
</svg>
