<?xml version="1.0" encoding="utf-8" standalone="no"?>
<!DOCTYPE svg PUBLIC "-//W3C//DTD SVG 1.1//EN"
  "http://www.w3.org/Graphics/SVG/1.1/DTD/svg11.dtd">
<!-- Created with matplotlib (https://matplotlib.org/) -->
<svg height="161.599393pt" version="1.1" viewBox="0 0 426.1 161.599393" width="426.1pt" xmlns="http://www.w3.org/2000/svg" xmlns:xlink="http://www.w3.org/1999/xlink">
 <defs>
  <style type="text/css">
*{stroke-linecap:butt;stroke-linejoin:round;}
  </style>
 </defs>
 <g id="figure_1">
  <g id="patch_1">
   <path d="M 0 161.599393 
L 426.1 161.599393 
L 426.1 0 
L 0 0 
z
" style="fill:#f2f2f2;"/>
  </g>
  <g id="axes_1">
   <g id="patch_2">
    <path d="M 29.3 141.199393 
L 151.7 141.199393 
L 151.7 18.799393 
L 29.3 18.799393 
z
" style="fill:#ffffff;"/>
   </g>
   <g id="matplotlib.axis_1">
    <g id="xtick_1">
     <g id="line2d_1">
      <path clip-path="url(#p5fcf81fd01)" d="M 29.3 141.199393 
L 29.3 18.799393 
" style="fill:none;stroke:#000000;stroke-linecap:square;stroke-opacity:0.1;stroke-width:0.6;"/>
     </g>
     <g id="line2d_2">
      <defs>
       <path d="M 0 0 
L 0 4 
" id="maab33bd964" style="stroke:#000000;stroke-width:0.6;"/>
      </defs>
      <g>
       <use style="stroke:#000000;stroke-width:0.6;" x="29.3" xlink:href="#maab33bd964" y="141.199393"/>
      </g>
     </g>
     <g id="text_1">
      <!-- 0 -->
      <defs>
       <path d="M 13.203125 34.90625 
Q 13.203125 37.5 13.25 40.640625 
Q 13.296875 43.796875 13.75 46.9375 
Q 14.203125 50.09375 15.046875 53.09375 
Q 15.90625 56.09375 17.546875 58.34375 
Q 19.203125 60.59375 21.703125 62 
Q 24.203125 63.40625 27.796875 63.40625 
Q 31.40625 63.40625 33.90625 62 
Q 36.40625 60.59375 38.046875 58.34375 
Q 39.703125 56.09375 40.546875 53.09375 
Q 41.40625 50.09375 41.84375 46.9375 
Q 42.296875 43.796875 42.34375 40.640625 
Q 42.40625 37.5 42.40625 34.90625 
Q 42.40625 30.90625 42.15625 25.953125 
Q 41.90625 21 40.546875 16.640625 
Q 39.203125 12.296875 36.203125 9.296875 
Q 33.203125 6.296875 27.796875 6.296875 
Q 22.40625 6.296875 19.40625 9.296875 
Q 16.40625 12.296875 15.046875 16.640625 
Q 13.703125 21 13.453125 25.953125 
Q 13.203125 30.90625 13.203125 34.90625 
z
M 4.203125 34.796875 
Q 4.203125 30.90625 4.390625 26.703125 
Q 4.59375 22.5 5.390625 18.5 
Q 6.203125 14.5 7.703125 10.953125 
Q 9.203125 7.40625 11.796875 4.703125 
Q 14.40625 2 18.34375 0.453125 
Q 22.296875 -1.09375 27.796875 -1.09375 
Q 33.40625 -1.09375 37.296875 0.453125 
Q 41.203125 2 43.796875 4.703125 
Q 46.40625 7.40625 47.90625 10.953125 
Q 49.40625 14.5 50.203125 18.5 
Q 51 22.5 51.203125 26.703125 
Q 51.40625 30.90625 51.40625 34.796875 
Q 51.40625 38.703125 51.203125 42.890625 
Q 51 47.09375 50.203125 51.09375 
Q 49.40625 55.09375 47.90625 58.6875 
Q 46.40625 62.296875 43.796875 65 
Q 41.203125 67.703125 37.25 69.296875 
Q 33.296875 70.90625 27.796875 70.90625 
Q 22.296875 70.90625 18.34375 69.296875 
Q 14.40625 67.703125 11.796875 65 
Q 9.203125 62.296875 7.703125 58.6875 
Q 6.203125 55.09375 5.390625 51.09375 
Q 4.59375 47.09375 4.390625 42.890625 
Q 4.203125 38.703125 4.203125 34.796875 
z
" id="HelveticaNeue-48"/>
      </defs>
      <g transform="translate(27.07625 152.911893)scale(0.08 -0.08)">
       <use xlink:href="#HelveticaNeue-48"/>
      </g>
     </g>
    </g>
    <g id="xtick_2">
     <g id="line2d_3">
      <path clip-path="url(#p5fcf81fd01)" d="M 57.118182 141.199393 
L 57.118182 18.799393 
" style="fill:none;stroke:#000000;stroke-linecap:square;stroke-opacity:0.1;stroke-width:0.6;"/>
     </g>
     <g id="line2d_4">
      <g>
       <use style="stroke:#000000;stroke-width:0.6;" x="57.118182" xlink:href="#maab33bd964" y="141.199393"/>
      </g>
     </g>
     <g id="text_2">
      <!-- 2.5 -->
      <defs>
       <path d="M 4.40625 45.796875 
L 12.90625 45.796875 
Q 12.796875 49 13.546875 52.140625 
Q 14.296875 55.296875 16 57.796875 
Q 17.703125 60.296875 20.34375 61.84375 
Q 23 63.40625 26.703125 63.40625 
Q 29.5 63.40625 32 62.5 
Q 34.5 61.59375 36.34375 59.890625 
Q 38.203125 58.203125 39.296875 55.84375 
Q 40.40625 53.5 40.40625 50.59375 
Q 40.40625 46.90625 39.25 44.09375 
Q 38.09375 41.296875 35.84375 38.890625 
Q 33.59375 36.5 30.1875 34.140625 
Q 26.796875 31.796875 22.296875 29 
Q 18.59375 26.796875 15.1875 24.296875 
Q 11.796875 21.796875 9.09375 18.5 
Q 6.40625 15.203125 4.65625 10.75 
Q 2.90625 6.296875 2.40625 0 
L 48.703125 0 
L 48.703125 7.5 
L 12.296875 7.5 
Q 12.90625 10.796875 14.84375 13.34375 
Q 16.796875 15.90625 19.546875 18.09375 
Q 22.296875 20.296875 25.59375 22.25 
Q 28.90625 24.203125 32.203125 26.203125 
Q 35.5 28.296875 38.59375 30.59375 
Q 41.703125 32.90625 44.09375 35.75 
Q 46.5 38.59375 47.953125 42.1875 
Q 49.40625 45.796875 49.40625 50.5 
Q 49.40625 55.5 47.65625 59.296875 
Q 45.90625 63.09375 42.90625 65.640625 
Q 39.90625 68.203125 35.84375 69.546875 
Q 31.796875 70.90625 27.203125 70.90625 
Q 21.59375 70.90625 17.1875 69 
Q 12.796875 67.09375 9.84375 63.75 
Q 6.90625 60.40625 5.5 55.796875 
Q 4.09375 51.203125 4.40625 45.796875 
z
" id="HelveticaNeue-50"/>
       <path d="M 8.296875 11.09375 
L 8.296875 0 
L 19.40625 0 
L 19.40625 11.09375 
z
" id="HelveticaNeue-46"/>
       <path d="M 47 62.203125 
L 47 69.703125 
L 12 69.703125 
L 5.40625 32.90625 
L 12.703125 32.5 
Q 15.203125 35.5 18.453125 37.34375 
Q 21.703125 39.203125 25.90625 39.203125 
Q 29.5 39.203125 32.453125 38 
Q 35.40625 36.796875 37.5 34.640625 
Q 39.59375 32.5 40.75 29.546875 
Q 41.90625 26.59375 41.90625 23.09375 
Q 41.90625 18.90625 40.703125 15.75 
Q 39.5 12.59375 37.453125 10.5 
Q 35.40625 8.40625 32.65625 7.34375 
Q 29.90625 6.296875 26.90625 6.296875 
Q 23.703125 6.296875 21.046875 7.25 
Q 18.40625 8.203125 16.453125 9.953125 
Q 14.5 11.703125 13.34375 14.046875 
Q 12.203125 16.40625 12 19.09375 
L 3.5 19.09375 
Q 3.59375 14.296875 5.390625 10.5 
Q 7.203125 6.703125 10.296875 4.140625 
Q 13.40625 1.59375 17.453125 0.25 
Q 21.5 -1.09375 26.09375 -1.09375 
Q 32.296875 -1.09375 36.9375 0.84375 
Q 41.59375 2.796875 44.6875 6.09375 
Q 47.796875 9.40625 49.34375 13.65625 
Q 50.90625 17.90625 50.90625 22.40625 
Q 50.90625 28.5 49.09375 33.046875 
Q 47.296875 37.59375 44.1875 40.640625 
Q 41.09375 43.703125 36.890625 45.203125 
Q 32.703125 46.703125 28 46.703125 
Q 24.40625 46.703125 20.75 45.453125 
Q 17.09375 44.203125 14.796875 41.59375 
L 14.59375 41.796875 
L 18.40625 62.203125 
z
" id="HelveticaNeue-53"/>
      </defs>
      <g transform="translate(51.558807 152.911893)scale(0.08 -0.08)">
       <use xlink:href="#HelveticaNeue-50"/>
       <use x="55.599991" xlink:href="#HelveticaNeue-46"/>
       <use x="83.399979" xlink:href="#HelveticaNeue-53"/>
      </g>
     </g>
    </g>
    <g id="xtick_3">
     <g id="line2d_5">
      <path clip-path="url(#p5fcf81fd01)" d="M 84.936364 141.199393 
L 84.936364 18.799393 
" style="fill:none;stroke:#000000;stroke-linecap:square;stroke-opacity:0.1;stroke-width:0.6;"/>
     </g>
     <g id="line2d_6">
      <g>
       <use style="stroke:#000000;stroke-width:0.6;" x="84.936364" xlink:href="#maab33bd964" y="141.199393"/>
      </g>
     </g>
     <g id="text_3">
      <!-- 5 -->
      <g transform="translate(82.712614 152.911893)scale(0.08 -0.08)">
       <use xlink:href="#HelveticaNeue-53"/>
      </g>
     </g>
    </g>
    <g id="xtick_4">
     <g id="line2d_7">
      <path clip-path="url(#p5fcf81fd01)" d="M 112.754545 141.199393 
L 112.754545 18.799393 
" style="fill:none;stroke:#000000;stroke-linecap:square;stroke-opacity:0.1;stroke-width:0.6;"/>
     </g>
     <g id="line2d_8">
      <g>
       <use style="stroke:#000000;stroke-width:0.6;" x="112.754545" xlink:href="#maab33bd964" y="141.199393"/>
      </g>
     </g>
     <g id="text_4">
      <!-- 7.5 -->
      <defs>
       <path d="M 50.90625 62.40625 
L 50.90625 69.703125 
L 5 69.703125 
L 5 61.703125 
L 42.203125 61.703125 
Q 36.59375 55.796875 31.75 48.796875 
Q 26.90625 41.796875 23.203125 33.9375 
Q 19.5 26.09375 17.140625 17.546875 
Q 14.796875 9 14.203125 0 
L 23.703125 0 
Q 24.203125 8.296875 26.5 17.09375 
Q 28.796875 25.90625 32.4375 34.203125 
Q 36.09375 42.5 40.796875 49.796875 
Q 45.5 57.09375 50.90625 62.40625 
z
" id="HelveticaNeue-55"/>
      </defs>
      <g transform="translate(107.19517 152.911893)scale(0.08 -0.08)">
       <use xlink:href="#HelveticaNeue-55"/>
       <use x="55.599991" xlink:href="#HelveticaNeue-46"/>
       <use x="83.399979" xlink:href="#HelveticaNeue-53"/>
      </g>
     </g>
    </g>
    <g id="xtick_5">
     <g id="line2d_9">
      <path clip-path="url(#p5fcf81fd01)" d="M 140.572727 141.199393 
L 140.572727 18.799393 
" style="fill:none;stroke:#000000;stroke-linecap:square;stroke-opacity:0.1;stroke-width:0.6;"/>
     </g>
     <g id="line2d_10">
      <g>
       <use style="stroke:#000000;stroke-width:0.6;" x="140.572727" xlink:href="#maab33bd964" y="141.199393"/>
      </g>
     </g>
     <g id="text_5">
      <!-- 10 -->
      <defs>
       <path d="M 35.59375 0 
L 35.59375 70.90625 
L 29.09375 70.90625 
Q 28.40625 66.90625 26.5 64.296875 
Q 24.59375 61.703125 21.84375 60.203125 
Q 19.09375 58.703125 15.6875 58.140625 
Q 12.296875 57.59375 8.703125 57.59375 
L 8.703125 50.796875 
L 27.09375 50.796875 
L 27.09375 0 
z
" id="HelveticaNeue-49"/>
      </defs>
      <g transform="translate(136.125227 152.911893)scale(0.08 -0.08)">
       <use xlink:href="#HelveticaNeue-49"/>
       <use x="55.599991" xlink:href="#HelveticaNeue-48"/>
      </g>
     </g>
    </g>
    <g id="xtick_6">
     <g id="line2d_11">
      <defs>
       <path d="M 0 0 
L 0 2 
" id="m698bd59919" style="stroke:#000000;stroke-width:0.48;"/>
      </defs>
      <g>
       <use style="stroke:#000000;stroke-width:0.48;" x="34.863636" xlink:href="#m698bd59919" y="141.199393"/>
      </g>
     </g>
    </g>
    <g id="xtick_7">
     <g id="line2d_12">
      <g>
       <use style="stroke:#000000;stroke-width:0.48;" x="40.427273" xlink:href="#m698bd59919" y="141.199393"/>
      </g>
     </g>
    </g>
    <g id="xtick_8">
     <g id="line2d_13">
      <g>
       <use style="stroke:#000000;stroke-width:0.48;" x="45.990909" xlink:href="#m698bd59919" y="141.199393"/>
      </g>
     </g>
    </g>
    <g id="xtick_9">
     <g id="line2d_14">
      <g>
       <use style="stroke:#000000;stroke-width:0.48;" x="51.554545" xlink:href="#m698bd59919" y="141.199393"/>
      </g>
     </g>
    </g>
    <g id="xtick_10">
     <g id="line2d_15">
      <g>
       <use style="stroke:#000000;stroke-width:0.48;" x="62.681818" xlink:href="#m698bd59919" y="141.199393"/>
      </g>
     </g>
    </g>
    <g id="xtick_11">
     <g id="line2d_16">
      <g>
       <use style="stroke:#000000;stroke-width:0.48;" x="68.245455" xlink:href="#m698bd59919" y="141.199393"/>
      </g>
     </g>
    </g>
    <g id="xtick_12">
     <g id="line2d_17">
      <g>
       <use style="stroke:#000000;stroke-width:0.48;" x="73.809091" xlink:href="#m698bd59919" y="141.199393"/>
      </g>
     </g>
    </g>
    <g id="xtick_13">
     <g id="line2d_18">
      <g>
       <use style="stroke:#000000;stroke-width:0.48;" x="79.372727" xlink:href="#m698bd59919" y="141.199393"/>
      </g>
     </g>
    </g>
    <g id="xtick_14">
     <g id="line2d_19">
      <g>
       <use style="stroke:#000000;stroke-width:0.48;" x="90.5" xlink:href="#m698bd59919" y="141.199393"/>
      </g>
     </g>
    </g>
    <g id="xtick_15">
     <g id="line2d_20">
      <g>
       <use style="stroke:#000000;stroke-width:0.48;" x="96.063636" xlink:href="#m698bd59919" y="141.199393"/>
      </g>
     </g>
    </g>
    <g id="xtick_16">
     <g id="line2d_21">
      <g>
       <use style="stroke:#000000;stroke-width:0.48;" x="101.627273" xlink:href="#m698bd59919" y="141.199393"/>
      </g>
     </g>
    </g>
    <g id="xtick_17">
     <g id="line2d_22">
      <g>
       <use style="stroke:#000000;stroke-width:0.48;" x="107.190909" xlink:href="#m698bd59919" y="141.199393"/>
      </g>
     </g>
    </g>
    <g id="xtick_18">
     <g id="line2d_23">
      <g>
       <use style="stroke:#000000;stroke-width:0.48;" x="118.318182" xlink:href="#m698bd59919" y="141.199393"/>
      </g>
     </g>
    </g>
    <g id="xtick_19">
     <g id="line2d_24">
      <g>
       <use style="stroke:#000000;stroke-width:0.48;" x="123.881818" xlink:href="#m698bd59919" y="141.199393"/>
      </g>
     </g>
    </g>
    <g id="xtick_20">
     <g id="line2d_25">
      <g>
       <use style="stroke:#000000;stroke-width:0.48;" x="129.445455" xlink:href="#m698bd59919" y="141.199393"/>
      </g>
     </g>
    </g>
    <g id="xtick_21">
     <g id="line2d_26">
      <g>
       <use style="stroke:#000000;stroke-width:0.48;" x="135.009091" xlink:href="#m698bd59919" y="141.199393"/>
      </g>
     </g>
    </g>
    <g id="xtick_22">
     <g id="line2d_27">
      <g>
       <use style="stroke:#000000;stroke-width:0.48;" x="146.136364" xlink:href="#m698bd59919" y="141.199393"/>
      </g>
     </g>
    </g>
    <g id="xtick_23">
     <g id="line2d_28">
      <g>
       <use style="stroke:#000000;stroke-width:0.48;" x="151.7" xlink:href="#m698bd59919" y="141.199393"/>
      </g>
     </g>
    </g>
   </g>
   <g id="matplotlib.axis_2">
    <g id="ytick_1">
     <g id="line2d_29">
      <path clip-path="url(#p5fcf81fd01)" d="M 29.3 123.947461 
L 151.7 123.947461 
" style="fill:none;stroke:#000000;stroke-linecap:square;stroke-opacity:0.1;stroke-width:0.6;"/>
     </g>
     <g id="line2d_30">
      <defs>
       <path d="M 0 0 
L -4 0 
" id="me662fe0f16" style="stroke:#000000;stroke-width:0.6;"/>
      </defs>
      <g>
       <use style="stroke:#000000;stroke-width:0.6;" x="29.3" xlink:href="#me662fe0f16" y="123.947461"/>
      </g>
     </g>
     <g id="text_6">
      <!-- −0.5 -->
      <defs>
       <path d="M 4.796875 28.703125 
L 4.796875 21.90625 
L 55.203125 21.90625 
L 55.203125 28.703125 
z
" id="HelveticaNeue-8722"/>
      </defs>
      <g transform="translate(7.38125 126.803711)scale(0.08 -0.08)">
       <use xlink:href="#HelveticaNeue-8722"/>
       <use x="59.999985" xlink:href="#HelveticaNeue-48"/>
       <use x="115.599976" xlink:href="#HelveticaNeue-46"/>
       <use x="143.399963" xlink:href="#HelveticaNeue-53"/>
      </g>
     </g>
    </g>
    <g id="ytick_2">
     <g id="line2d_31">
      <path clip-path="url(#p5fcf81fd01)" d="M 29.3 103.297969 
L 151.7 103.297969 
" style="fill:none;stroke:#000000;stroke-linecap:square;stroke-opacity:0.1;stroke-width:0.6;"/>
     </g>
     <g id="line2d_32">
      <g>
       <use style="stroke:#000000;stroke-width:0.6;" x="29.3" xlink:href="#me662fe0f16" y="103.297969"/>
      </g>
     </g>
     <g id="text_7">
      <!-- 0 -->
      <g transform="translate(18.8525 106.154219)scale(0.08 -0.08)">
       <use xlink:href="#HelveticaNeue-48"/>
      </g>
     </g>
    </g>
    <g id="ytick_3">
     <g id="line2d_33">
      <path clip-path="url(#p5fcf81fd01)" d="M 29.3 82.648477 
L 151.7 82.648477 
" style="fill:none;stroke:#000000;stroke-linecap:square;stroke-opacity:0.1;stroke-width:0.6;"/>
     </g>
     <g id="line2d_34">
      <g>
       <use style="stroke:#000000;stroke-width:0.6;" x="29.3" xlink:href="#me662fe0f16" y="82.648477"/>
      </g>
     </g>
     <g id="text_8">
      <!-- 0.5 -->
      <g transform="translate(12.18125 85.504727)scale(0.08 -0.08)">
       <use xlink:href="#HelveticaNeue-48"/>
       <use x="55.599991" xlink:href="#HelveticaNeue-46"/>
       <use x="83.399979" xlink:href="#HelveticaNeue-53"/>
      </g>
     </g>
    </g>
    <g id="ytick_4">
     <g id="line2d_35">
      <path clip-path="url(#p5fcf81fd01)" d="M 29.3 61.998985 
L 151.7 61.998985 
" style="fill:none;stroke:#000000;stroke-linecap:square;stroke-opacity:0.1;stroke-width:0.6;"/>
     </g>
     <g id="line2d_36">
      <g>
       <use style="stroke:#000000;stroke-width:0.6;" x="29.3" xlink:href="#me662fe0f16" y="61.998985"/>
      </g>
     </g>
     <g id="text_9">
      <!-- 1 -->
      <g transform="translate(18.8525 64.855235)scale(0.08 -0.08)">
       <use xlink:href="#HelveticaNeue-49"/>
      </g>
     </g>
    </g>
    <g id="ytick_5">
     <g id="line2d_37">
      <path clip-path="url(#p5fcf81fd01)" d="M 29.3 41.349492 
L 151.7 41.349492 
" style="fill:none;stroke:#000000;stroke-linecap:square;stroke-opacity:0.1;stroke-width:0.6;"/>
     </g>
     <g id="line2d_38">
      <g>
       <use style="stroke:#000000;stroke-width:0.6;" x="29.3" xlink:href="#me662fe0f16" y="41.349492"/>
      </g>
     </g>
     <g id="text_10">
      <!-- 1.5 -->
      <g transform="translate(12.18125 44.205742)scale(0.08 -0.08)">
       <use xlink:href="#HelveticaNeue-49"/>
       <use x="55.599991" xlink:href="#HelveticaNeue-46"/>
       <use x="83.399979" xlink:href="#HelveticaNeue-53"/>
      </g>
     </g>
    </g>
    <g id="ytick_6">
     <g id="line2d_39">
      <path clip-path="url(#p5fcf81fd01)" d="M 29.3 20.7 
L 151.7 20.7 
" style="fill:none;stroke:#000000;stroke-linecap:square;stroke-opacity:0.1;stroke-width:0.6;"/>
     </g>
     <g id="line2d_40">
      <g>
       <use style="stroke:#000000;stroke-width:0.6;" x="29.3" xlink:href="#me662fe0f16" y="20.7"/>
      </g>
     </g>
     <g id="text_11">
      <!-- 2 -->
      <g transform="translate(18.8525 23.55625)scale(0.08 -0.08)">
       <use xlink:href="#HelveticaNeue-50"/>
      </g>
     </g>
    </g>
    <g id="ytick_7">
     <g id="line2d_41">
      <defs>
       <path d="M 0 0 
L -2 0 
" id="m82182e6e4a" style="stroke:#000000;stroke-width:0.48;"/>
      </defs>
      <g>
       <use style="stroke:#000000;stroke-width:0.48;" x="29.3" xlink:href="#m82182e6e4a" y="140.467055"/>
      </g>
     </g>
    </g>
    <g id="ytick_8">
     <g id="line2d_42">
      <g>
       <use style="stroke:#000000;stroke-width:0.48;" x="29.3" xlink:href="#m82182e6e4a" y="136.337157"/>
      </g>
     </g>
    </g>
    <g id="ytick_9">
     <g id="line2d_43">
      <g>
       <use style="stroke:#000000;stroke-width:0.48;" x="29.3" xlink:href="#m82182e6e4a" y="132.207258"/>
      </g>
     </g>
    </g>
    <g id="ytick_10">
     <g id="line2d_44">
      <g>
       <use style="stroke:#000000;stroke-width:0.48;" x="29.3" xlink:href="#m82182e6e4a" y="128.07736"/>
      </g>
     </g>
    </g>
    <g id="ytick_11">
     <g id="line2d_45">
      <g>
       <use style="stroke:#000000;stroke-width:0.48;" x="29.3" xlink:href="#m82182e6e4a" y="119.817563"/>
      </g>
     </g>
    </g>
    <g id="ytick_12">
     <g id="line2d_46">
      <g>
       <use style="stroke:#000000;stroke-width:0.48;" x="29.3" xlink:href="#m82182e6e4a" y="115.687664"/>
      </g>
     </g>
    </g>
    <g id="ytick_13">
     <g id="line2d_47">
      <g>
       <use style="stroke:#000000;stroke-width:0.48;" x="29.3" xlink:href="#m82182e6e4a" y="111.557766"/>
      </g>
     </g>
    </g>
    <g id="ytick_14">
     <g id="line2d_48">
      <g>
       <use style="stroke:#000000;stroke-width:0.48;" x="29.3" xlink:href="#m82182e6e4a" y="107.427868"/>
      </g>
     </g>
    </g>
    <g id="ytick_15">
     <g id="line2d_49">
      <g>
       <use style="stroke:#000000;stroke-width:0.48;" x="29.3" xlink:href="#m82182e6e4a" y="99.168071"/>
      </g>
     </g>
    </g>
    <g id="ytick_16">
     <g id="line2d_50">
      <g>
       <use style="stroke:#000000;stroke-width:0.48;" x="29.3" xlink:href="#m82182e6e4a" y="95.038172"/>
      </g>
     </g>
    </g>
    <g id="ytick_17">
     <g id="line2d_51">
      <g>
       <use style="stroke:#000000;stroke-width:0.48;" x="29.3" xlink:href="#m82182e6e4a" y="90.908274"/>
      </g>
     </g>
    </g>
    <g id="ytick_18">
     <g id="line2d_52">
      <g>
       <use style="stroke:#000000;stroke-width:0.48;" x="29.3" xlink:href="#m82182e6e4a" y="86.778375"/>
      </g>
     </g>
    </g>
    <g id="ytick_19">
     <g id="line2d_53">
      <g>
       <use style="stroke:#000000;stroke-width:0.48;" x="29.3" xlink:href="#m82182e6e4a" y="78.518578"/>
      </g>
     </g>
    </g>
    <g id="ytick_20">
     <g id="line2d_54">
      <g>
       <use style="stroke:#000000;stroke-width:0.48;" x="29.3" xlink:href="#m82182e6e4a" y="74.38868"/>
      </g>
     </g>
    </g>
    <g id="ytick_21">
     <g id="line2d_55">
      <g>
       <use style="stroke:#000000;stroke-width:0.48;" x="29.3" xlink:href="#m82182e6e4a" y="70.258781"/>
      </g>
     </g>
    </g>
    <g id="ytick_22">
     <g id="line2d_56">
      <g>
       <use style="stroke:#000000;stroke-width:0.48;" x="29.3" xlink:href="#m82182e6e4a" y="66.128883"/>
      </g>
     </g>
    </g>
    <g id="ytick_23">
     <g id="line2d_57">
      <g>
       <use style="stroke:#000000;stroke-width:0.48;" x="29.3" xlink:href="#m82182e6e4a" y="57.869086"/>
      </g>
     </g>
    </g>
    <g id="ytick_24">
     <g id="line2d_58">
      <g>
       <use style="stroke:#000000;stroke-width:0.48;" x="29.3" xlink:href="#m82182e6e4a" y="53.739188"/>
      </g>
     </g>
    </g>
    <g id="ytick_25">
     <g id="line2d_59">
      <g>
       <use style="stroke:#000000;stroke-width:0.48;" x="29.3" xlink:href="#m82182e6e4a" y="49.609289"/>
      </g>
     </g>
    </g>
    <g id="ytick_26">
     <g id="line2d_60">
      <g>
       <use style="stroke:#000000;stroke-width:0.48;" x="29.3" xlink:href="#m82182e6e4a" y="45.479391"/>
      </g>
     </g>
    </g>
    <g id="ytick_27">
     <g id="line2d_61">
      <g>
       <use style="stroke:#000000;stroke-width:0.48;" x="29.3" xlink:href="#m82182e6e4a" y="37.219594"/>
      </g>
     </g>
    </g>
    <g id="ytick_28">
     <g id="line2d_62">
      <g>
       <use style="stroke:#000000;stroke-width:0.48;" x="29.3" xlink:href="#m82182e6e4a" y="33.089695"/>
      </g>
     </g>
    </g>
    <g id="ytick_29">
     <g id="line2d_63">
      <g>
       <use style="stroke:#000000;stroke-width:0.48;" x="29.3" xlink:href="#m82182e6e4a" y="28.959797"/>
      </g>
     </g>
    </g>
    <g id="ytick_30">
     <g id="line2d_64">
      <g>
       <use style="stroke:#000000;stroke-width:0.48;" x="29.3" xlink:href="#m82182e6e4a" y="24.829898"/>
      </g>
     </g>
    </g>
   </g>
   <g id="line2d_65">
    <path clip-path="url(#p5fcf81fd01)" d="M 29.3 82.472073 
L 40.427273 64.615496 
L 51.554545 59.624254 
L 62.681818 71.519502 
L 73.809091 77.977363 
L 84.936364 68.613129 
L 96.063636 46.295621 
L 107.190909 43.996319 
L 118.318182 35.415886 
L 129.445455 32.956399 
L 140.572727 43.836286 
L 151.7 33.002828 
" style="fill:none;stroke:#2b4162;stroke-linecap:square;stroke-width:5;"/>
   </g>
   <g id="line2d_66">
    <path clip-path="url(#p5fcf81fd01)" d="M 29.3 116.920846 
L 40.427273 134.152011 
L 51.554545 119.661627 
L 62.681818 112.535138 
L 73.809091 125.380246 
L 84.936364 127.484122 
L 96.063636 132.381526 
L 107.190909 136.069668 
L 118.318182 141.199393 
L 129.445455 137.596033 
L 140.572727 119.259386 
L 151.7 115.947861 
" style="fill:none;stroke:#fa9f42;stroke-linecap:square;stroke-width:5;"/>
   </g>
   <g id="line2d_67">
    <path clip-path="url(#p5fcf81fd01)" d="M 29.3 97.323222 
L 40.427273 95.946042 
L 51.554545 85.870462 
L 62.681818 88.871478 
L 73.809091 68.07664 
L 84.936364 71.638803 
L 96.063636 55.617531 
L 107.190909 64.892684 
L 118.318182 82.876225 
L 129.445455 94.911698 
L 140.572727 100.566963 
L 151.7 79.72262 
" style="fill:none;stroke:#e0e0e2;stroke-linecap:square;stroke-width:5;"/>
   </g>
   <g id="line2d_68">
    <path clip-path="url(#p5fcf81fd01)" d="M 29.3 92.958634 
L 40.427273 106.647324 
L 51.554545 94.085981 
L 62.681818 100.330441 
L 73.809091 80.880917 
L 84.936364 78.504083 
L 96.063636 81.669347 
L 107.190909 59.012178 
L 118.318182 71.384017 
L 129.445455 71.862273 
L 140.572727 87.121306 
L 151.7 77.365025 
" style="fill:none;stroke:#a21817;stroke-linecap:square;stroke-width:5;"/>
   </g>
   <g id="line2d_69">
    <path clip-path="url(#p5fcf81fd01)" d="M 29.3 107.784451 
L 40.427273 114.731518 
L 51.554545 96.555539 
L 62.681818 79.385319 
L 73.809091 61.684612 
L 84.936364 78.984585 
L 96.063636 89.357233 
L 107.190909 91.690135 
L 118.318182 106.444177 
L 129.445455 123.829208 
L 140.572727 116.459421 
L 151.7 98.418485 
" style="fill:none;stroke:#0b6e4f;stroke-linecap:square;stroke-width:5;"/>
   </g>
   <g id="line2d_70">
    <path clip-path="url(#p5fcf81fd01)" d="M 29.3 84.873946 
L 40.427273 102.537841 
L 51.554545 111.571228 
L 62.681818 93.593742 
L 73.809091 73.232185 
L 84.936364 65.802875 
L 96.063636 84.298942 
L 107.190909 81.082363 
L 118.318182 65.399629 
L 129.445455 43.799544 
L 140.572727 36.157828 
L 151.7 18.799393 
" style="fill:none;stroke:#2b4162;stroke-linecap:square;stroke-width:5;"/>
   </g>
   <g id="line2d_71">
    <path clip-path="url(#p5fcf81fd01)" d="M 29.3 106.911957 
L 40.427273 110.927265 
L 51.554545 128.896976 
L 62.681818 117.322448 
L 73.809091 125.936727 
L 84.936364 114.427382 
L 96.063636 118.157886 
L 107.190909 102.651954 
L 118.318182 116.306858 
L 129.445455 111.539882 
L 140.572727 107.865102 
L 151.7 107.126529 
" style="fill:none;stroke:#fa9f42;stroke-linecap:square;stroke-width:5;"/>
   </g>
   <g id="line2d_72">
    <path clip-path="url(#p5fcf81fd01)" d="M 29.3 92.563101 
L 40.427273 92.19564 
L 51.554545 86.530766 
L 62.681818 67.703058 
L 73.809091 74.180292 
L 84.936364 79.503982 
L 96.063636 76.786619 
L 107.190909 70.841348 
L 118.318182 59.530405 
L 129.445455 70.195122 
L 140.572727 80.388141 
L 151.7 74.941342 
" style="fill:none;stroke:#e0e0e2;stroke-linecap:square;stroke-width:5;"/>
   </g>
   <g id="line2d_73">
    <path clip-path="url(#p5fcf81fd01)" d="M 29.3 116.930852 
L 40.427273 109.880953 
L 51.554545 122.855685 
L 62.681818 126.605653 
L 73.809091 116.120235 
L 84.936364 106.472851 
L 96.063636 85.092733 
L 107.190909 102.209713 
L 118.318182 112.295432 
L 129.445455 103.394152 
L 140.572727 83.99215 
L 151.7 79.631056 
" style="fill:none;stroke:#a21817;stroke-linecap:square;stroke-width:5;"/>
   </g>
   <g id="line2d_74">
    <path clip-path="url(#p5fcf81fd01)" d="M 29.3 86.576927 
L 40.427273 85.01966 
L 51.554545 66.274784 
L 62.681818 56.986799 
L 73.809091 57.538268 
L 84.936364 62.326047 
L 96.063636 42.675021 
L 107.190909 35.98429 
L 118.318182 43.247998 
L 129.445455 55.649497 
L 140.572727 60.988008 
L 151.7 64.247861 
" style="fill:none;stroke:#0b6e4f;stroke-linecap:square;stroke-width:5;"/>
   </g>
   <g id="line2d_75">
    <path clip-path="url(#p5fcf81fd01)" d="M 29.3 104.230395 
L 40.427273 118.062093 
L 51.554545 102.958554 
L 62.681818 98.985786 
L 73.809091 83.974773 
L 84.936364 90.184007 
L 96.063636 88.17748 
L 107.190909 78.908752 
L 118.318182 72.655054 
L 129.445455 61.679313 
L 140.572727 76.615983 
L 151.7 91.734971 
" style="fill:none;stroke:#2b4162;stroke-linecap:square;stroke-width:5;"/>
   </g>
   <g id="line2d_76">
    <path clip-path="url(#p5fcf81fd01)" d="M 29.3 89.349918 
L 40.427273 74.409983 
L 51.554545 77.769433 
L 62.681818 76.44932 
L 73.809091 68.704544 
L 84.936364 84.758333 
L 96.063636 67.280092 
L 107.190909 79.143702 
L 118.318182 57.178875 
L 129.445455 68.774628 
L 140.572727 84.930808 
L 151.7 77.358227 
" style="fill:none;stroke:#fa9f42;stroke-linecap:square;stroke-width:5;"/>
   </g>
   <g id="patch_3">
    <path d="M 29.3 141.199393 
L 29.3 18.799393 
" style="fill:none;stroke:#000000;stroke-linecap:square;stroke-linejoin:miter;stroke-width:0.6;"/>
   </g>
   <g id="patch_4">
    <path d="M 151.7 141.199393 
L 151.7 18.799393 
" style="fill:none;stroke:#000000;stroke-linecap:square;stroke-linejoin:miter;stroke-width:0.6;"/>
   </g>
   <g id="patch_5">
    <path d="M 29.3 141.199393 
L 151.7 141.199393 
" style="fill:none;stroke:#000000;stroke-linecap:square;stroke-linejoin:miter;stroke-width:0.6;"/>
   </g>
   <g id="patch_6">
    <path d="M 29.3 18.799393 
L 151.7 18.799393 
" style="fill:none;stroke:#000000;stroke-linecap:square;stroke-linejoin:miter;stroke-width:0.6;"/>
   </g>
  </g>
  <g id="axes_2">
   <g id="patch_7">
    <path d="M 162.9 141.199393 
L 285.3 141.199393 
L 285.3 18.799393 
L 162.9 18.799393 
z
" style="fill:#ffffff;"/>
   </g>
   <g id="matplotlib.axis_3">
    <g id="xtick_24">
     <g id="line2d_77">
      <path clip-path="url(#p5221a60ab5)" d="M 162.9 141.199393 
L 162.9 18.799393 
" style="fill:none;stroke:#000000;stroke-linecap:square;stroke-opacity:0.1;stroke-width:0.6;"/>
     </g>
     <g id="line2d_78">
      <g>
       <use style="stroke:#000000;stroke-width:0.6;" x="162.9" xlink:href="#maab33bd964" y="141.199393"/>
      </g>
     </g>
     <g id="text_12">
      <!-- 0 -->
      <g transform="translate(160.67625 152.911893)scale(0.08 -0.08)">
       <use xlink:href="#HelveticaNeue-48"/>
      </g>
     </g>
    </g>
    <g id="xtick_25">
     <g id="line2d_79">
      <path clip-path="url(#p5221a60ab5)" d="M 190.718182 141.199393 
L 190.718182 18.799393 
" style="fill:none;stroke:#000000;stroke-linecap:square;stroke-opacity:0.1;stroke-width:0.6;"/>
     </g>
     <g id="line2d_80">
      <g>
       <use style="stroke:#000000;stroke-width:0.6;" x="190.718182" xlink:href="#maab33bd964" y="141.199393"/>
      </g>
     </g>
     <g id="text_13">
      <!-- 2.5 -->
      <g transform="translate(185.158807 152.911893)scale(0.08 -0.08)">
       <use xlink:href="#HelveticaNeue-50"/>
       <use x="55.599991" xlink:href="#HelveticaNeue-46"/>
       <use x="83.399979" xlink:href="#HelveticaNeue-53"/>
      </g>
     </g>
    </g>
    <g id="xtick_26">
     <g id="line2d_81">
      <path clip-path="url(#p5221a60ab5)" d="M 218.536364 141.199393 
L 218.536364 18.799393 
" style="fill:none;stroke:#000000;stroke-linecap:square;stroke-opacity:0.1;stroke-width:0.6;"/>
     </g>
     <g id="line2d_82">
      <g>
       <use style="stroke:#000000;stroke-width:0.6;" x="218.536364" xlink:href="#maab33bd964" y="141.199393"/>
      </g>
     </g>
     <g id="text_14">
      <!-- 5 -->
      <g transform="translate(216.312614 152.911893)scale(0.08 -0.08)">
       <use xlink:href="#HelveticaNeue-53"/>
      </g>
     </g>
    </g>
    <g id="xtick_27">
     <g id="line2d_83">
      <path clip-path="url(#p5221a60ab5)" d="M 246.354545 141.199393 
L 246.354545 18.799393 
" style="fill:none;stroke:#000000;stroke-linecap:square;stroke-opacity:0.1;stroke-width:0.6;"/>
     </g>
     <g id="line2d_84">
      <g>
       <use style="stroke:#000000;stroke-width:0.6;" x="246.354545" xlink:href="#maab33bd964" y="141.199393"/>
      </g>
     </g>
     <g id="text_15">
      <!-- 7.5 -->
      <g transform="translate(240.79517 152.911893)scale(0.08 -0.08)">
       <use xlink:href="#HelveticaNeue-55"/>
       <use x="55.599991" xlink:href="#HelveticaNeue-46"/>
       <use x="83.399979" xlink:href="#HelveticaNeue-53"/>
      </g>
     </g>
    </g>
    <g id="xtick_28">
     <g id="line2d_85">
      <path clip-path="url(#p5221a60ab5)" d="M 274.172727 141.199393 
L 274.172727 18.799393 
" style="fill:none;stroke:#000000;stroke-linecap:square;stroke-opacity:0.1;stroke-width:0.6;"/>
     </g>
     <g id="line2d_86">
      <g>
       <use style="stroke:#000000;stroke-width:0.6;" x="274.172727" xlink:href="#maab33bd964" y="141.199393"/>
      </g>
     </g>
     <g id="text_16">
      <!-- 10 -->
      <g transform="translate(269.725227 152.911893)scale(0.08 -0.08)">
       <use xlink:href="#HelveticaNeue-49"/>
       <use x="55.599991" xlink:href="#HelveticaNeue-48"/>
      </g>
     </g>
    </g>
    <g id="xtick_29">
     <g id="line2d_87">
      <g>
       <use style="stroke:#000000;stroke-width:0.48;" x="168.463636" xlink:href="#m698bd59919" y="141.199393"/>
      </g>
     </g>
    </g>
    <g id="xtick_30">
     <g id="line2d_88">
      <g>
       <use style="stroke:#000000;stroke-width:0.48;" x="174.027273" xlink:href="#m698bd59919" y="141.199393"/>
      </g>
     </g>
    </g>
    <g id="xtick_31">
     <g id="line2d_89">
      <g>
       <use style="stroke:#000000;stroke-width:0.48;" x="179.590909" xlink:href="#m698bd59919" y="141.199393"/>
      </g>
     </g>
    </g>
    <g id="xtick_32">
     <g id="line2d_90">
      <g>
       <use style="stroke:#000000;stroke-width:0.48;" x="185.154545" xlink:href="#m698bd59919" y="141.199393"/>
      </g>
     </g>
    </g>
    <g id="xtick_33">
     <g id="line2d_91">
      <g>
       <use style="stroke:#000000;stroke-width:0.48;" x="196.281818" xlink:href="#m698bd59919" y="141.199393"/>
      </g>
     </g>
    </g>
    <g id="xtick_34">
     <g id="line2d_92">
      <g>
       <use style="stroke:#000000;stroke-width:0.48;" x="201.845455" xlink:href="#m698bd59919" y="141.199393"/>
      </g>
     </g>
    </g>
    <g id="xtick_35">
     <g id="line2d_93">
      <g>
       <use style="stroke:#000000;stroke-width:0.48;" x="207.409091" xlink:href="#m698bd59919" y="141.199393"/>
      </g>
     </g>
    </g>
    <g id="xtick_36">
     <g id="line2d_94">
      <g>
       <use style="stroke:#000000;stroke-width:0.48;" x="212.972727" xlink:href="#m698bd59919" y="141.199393"/>
      </g>
     </g>
    </g>
    <g id="xtick_37">
     <g id="line2d_95">
      <g>
       <use style="stroke:#000000;stroke-width:0.48;" x="224.1" xlink:href="#m698bd59919" y="141.199393"/>
      </g>
     </g>
    </g>
    <g id="xtick_38">
     <g id="line2d_96">
      <g>
       <use style="stroke:#000000;stroke-width:0.48;" x="229.663636" xlink:href="#m698bd59919" y="141.199393"/>
      </g>
     </g>
    </g>
    <g id="xtick_39">
     <g id="line2d_97">
      <g>
       <use style="stroke:#000000;stroke-width:0.48;" x="235.227273" xlink:href="#m698bd59919" y="141.199393"/>
      </g>
     </g>
    </g>
    <g id="xtick_40">
     <g id="line2d_98">
      <g>
       <use style="stroke:#000000;stroke-width:0.48;" x="240.790909" xlink:href="#m698bd59919" y="141.199393"/>
      </g>
     </g>
    </g>
    <g id="xtick_41">
     <g id="line2d_99">
      <g>
       <use style="stroke:#000000;stroke-width:0.48;" x="251.918182" xlink:href="#m698bd59919" y="141.199393"/>
      </g>
     </g>
    </g>
    <g id="xtick_42">
     <g id="line2d_100">
      <g>
       <use style="stroke:#000000;stroke-width:0.48;" x="257.481818" xlink:href="#m698bd59919" y="141.199393"/>
      </g>
     </g>
    </g>
    <g id="xtick_43">
     <g id="line2d_101">
      <g>
       <use style="stroke:#000000;stroke-width:0.48;" x="263.045455" xlink:href="#m698bd59919" y="141.199393"/>
      </g>
     </g>
    </g>
    <g id="xtick_44">
     <g id="line2d_102">
      <g>
       <use style="stroke:#000000;stroke-width:0.48;" x="268.609091" xlink:href="#m698bd59919" y="141.199393"/>
      </g>
     </g>
    </g>
    <g id="xtick_45">
     <g id="line2d_103">
      <g>
       <use style="stroke:#000000;stroke-width:0.48;" x="279.736364" xlink:href="#m698bd59919" y="141.199393"/>
      </g>
     </g>
    </g>
    <g id="xtick_46">
     <g id="line2d_104">
      <g>
       <use style="stroke:#000000;stroke-width:0.48;" x="285.3" xlink:href="#m698bd59919" y="141.199393"/>
      </g>
     </g>
    </g>
   </g>
   <g id="matplotlib.axis_4">
    <g id="ytick_31">
     <g id="line2d_105">
      <path clip-path="url(#p5221a60ab5)" d="M 162.9 123.947461 
L 285.3 123.947461 
" style="fill:none;stroke:#000000;stroke-linecap:square;stroke-opacity:0.1;stroke-width:0.6;"/>
     </g>
     <g id="line2d_106">
      <g>
       <use style="stroke:#000000;stroke-width:0.6;" x="162.9" xlink:href="#me662fe0f16" y="123.947461"/>
      </g>
     </g>
    </g>
    <g id="ytick_32">
     <g id="line2d_107">
      <path clip-path="url(#p5221a60ab5)" d="M 162.9 103.297969 
L 285.3 103.297969 
" style="fill:none;stroke:#000000;stroke-linecap:square;stroke-opacity:0.1;stroke-width:0.6;"/>
     </g>
     <g id="line2d_108">
      <g>
       <use style="stroke:#000000;stroke-width:0.6;" x="162.9" xlink:href="#me662fe0f16" y="103.297969"/>
      </g>
     </g>
    </g>
    <g id="ytick_33">
     <g id="line2d_109">
      <path clip-path="url(#p5221a60ab5)" d="M 162.9 82.648477 
L 285.3 82.648477 
" style="fill:none;stroke:#000000;stroke-linecap:square;stroke-opacity:0.1;stroke-width:0.6;"/>
     </g>
     <g id="line2d_110">
      <g>
       <use style="stroke:#000000;stroke-width:0.6;" x="162.9" xlink:href="#me662fe0f16" y="82.648477"/>
      </g>
     </g>
    </g>
    <g id="ytick_34">
     <g id="line2d_111">
      <path clip-path="url(#p5221a60ab5)" d="M 162.9 61.998985 
L 285.3 61.998985 
" style="fill:none;stroke:#000000;stroke-linecap:square;stroke-opacity:0.1;stroke-width:0.6;"/>
     </g>
     <g id="line2d_112">
      <g>
       <use style="stroke:#000000;stroke-width:0.6;" x="162.9" xlink:href="#me662fe0f16" y="61.998985"/>
      </g>
     </g>
    </g>
    <g id="ytick_35">
     <g id="line2d_113">
      <path clip-path="url(#p5221a60ab5)" d="M 162.9 41.349492 
L 285.3 41.349492 
" style="fill:none;stroke:#000000;stroke-linecap:square;stroke-opacity:0.1;stroke-width:0.6;"/>
     </g>
     <g id="line2d_114">
      <g>
       <use style="stroke:#000000;stroke-width:0.6;" x="162.9" xlink:href="#me662fe0f16" y="41.349492"/>
      </g>
     </g>
    </g>
    <g id="ytick_36">
     <g id="line2d_115">
      <path clip-path="url(#p5221a60ab5)" d="M 162.9 20.7 
L 285.3 20.7 
" style="fill:none;stroke:#000000;stroke-linecap:square;stroke-opacity:0.1;stroke-width:0.6;"/>
     </g>
     <g id="line2d_116">
      <g>
       <use style="stroke:#000000;stroke-width:0.6;" x="162.9" xlink:href="#me662fe0f16" y="20.7"/>
      </g>
     </g>
    </g>
    <g id="ytick_37">
     <g id="line2d_117">
      <g>
       <use style="stroke:#000000;stroke-width:0.48;" x="162.9" xlink:href="#m82182e6e4a" y="140.467055"/>
      </g>
     </g>
    </g>
    <g id="ytick_38">
     <g id="line2d_118">
      <g>
       <use style="stroke:#000000;stroke-width:0.48;" x="162.9" xlink:href="#m82182e6e4a" y="136.337157"/>
      </g>
     </g>
    </g>
    <g id="ytick_39">
     <g id="line2d_119">
      <g>
       <use style="stroke:#000000;stroke-width:0.48;" x="162.9" xlink:href="#m82182e6e4a" y="132.207258"/>
      </g>
     </g>
    </g>
    <g id="ytick_40">
     <g id="line2d_120">
      <g>
       <use style="stroke:#000000;stroke-width:0.48;" x="162.9" xlink:href="#m82182e6e4a" y="128.07736"/>
      </g>
     </g>
    </g>
    <g id="ytick_41">
     <g id="line2d_121">
      <g>
       <use style="stroke:#000000;stroke-width:0.48;" x="162.9" xlink:href="#m82182e6e4a" y="119.817563"/>
      </g>
     </g>
    </g>
    <g id="ytick_42">
     <g id="line2d_122">
      <g>
       <use style="stroke:#000000;stroke-width:0.48;" x="162.9" xlink:href="#m82182e6e4a" y="115.687664"/>
      </g>
     </g>
    </g>
    <g id="ytick_43">
     <g id="line2d_123">
      <g>
       <use style="stroke:#000000;stroke-width:0.48;" x="162.9" xlink:href="#m82182e6e4a" y="111.557766"/>
      </g>
     </g>
    </g>
    <g id="ytick_44">
     <g id="line2d_124">
      <g>
       <use style="stroke:#000000;stroke-width:0.48;" x="162.9" xlink:href="#m82182e6e4a" y="107.427868"/>
      </g>
     </g>
    </g>
    <g id="ytick_45">
     <g id="line2d_125">
      <g>
       <use style="stroke:#000000;stroke-width:0.48;" x="162.9" xlink:href="#m82182e6e4a" y="99.168071"/>
      </g>
     </g>
    </g>
    <g id="ytick_46">
     <g id="line2d_126">
      <g>
       <use style="stroke:#000000;stroke-width:0.48;" x="162.9" xlink:href="#m82182e6e4a" y="95.038172"/>
      </g>
     </g>
    </g>
    <g id="ytick_47">
     <g id="line2d_127">
      <g>
       <use style="stroke:#000000;stroke-width:0.48;" x="162.9" xlink:href="#m82182e6e4a" y="90.908274"/>
      </g>
     </g>
    </g>
    <g id="ytick_48">
     <g id="line2d_128">
      <g>
       <use style="stroke:#000000;stroke-width:0.48;" x="162.9" xlink:href="#m82182e6e4a" y="86.778375"/>
      </g>
     </g>
    </g>
    <g id="ytick_49">
     <g id="line2d_129">
      <g>
       <use style="stroke:#000000;stroke-width:0.48;" x="162.9" xlink:href="#m82182e6e4a" y="78.518578"/>
      </g>
     </g>
    </g>
    <g id="ytick_50">
     <g id="line2d_130">
      <g>
       <use style="stroke:#000000;stroke-width:0.48;" x="162.9" xlink:href="#m82182e6e4a" y="74.38868"/>
      </g>
     </g>
    </g>
    <g id="ytick_51">
     <g id="line2d_131">
      <g>
       <use style="stroke:#000000;stroke-width:0.48;" x="162.9" xlink:href="#m82182e6e4a" y="70.258781"/>
      </g>
     </g>
    </g>
    <g id="ytick_52">
     <g id="line2d_132">
      <g>
       <use style="stroke:#000000;stroke-width:0.48;" x="162.9" xlink:href="#m82182e6e4a" y="66.128883"/>
      </g>
     </g>
    </g>
    <g id="ytick_53">
     <g id="line2d_133">
      <g>
       <use style="stroke:#000000;stroke-width:0.48;" x="162.9" xlink:href="#m82182e6e4a" y="57.869086"/>
      </g>
     </g>
    </g>
    <g id="ytick_54">
     <g id="line2d_134">
      <g>
       <use style="stroke:#000000;stroke-width:0.48;" x="162.9" xlink:href="#m82182e6e4a" y="53.739188"/>
      </g>
     </g>
    </g>
    <g id="ytick_55">
     <g id="line2d_135">
      <g>
       <use style="stroke:#000000;stroke-width:0.48;" x="162.9" xlink:href="#m82182e6e4a" y="49.609289"/>
      </g>
     </g>
    </g>
    <g id="ytick_56">
     <g id="line2d_136">
      <g>
       <use style="stroke:#000000;stroke-width:0.48;" x="162.9" xlink:href="#m82182e6e4a" y="45.479391"/>
      </g>
     </g>
    </g>
    <g id="ytick_57">
     <g id="line2d_137">
      <g>
       <use style="stroke:#000000;stroke-width:0.48;" x="162.9" xlink:href="#m82182e6e4a" y="37.219594"/>
      </g>
     </g>
    </g>
    <g id="ytick_58">
     <g id="line2d_138">
      <g>
       <use style="stroke:#000000;stroke-width:0.48;" x="162.9" xlink:href="#m82182e6e4a" y="33.089695"/>
      </g>
     </g>
    </g>
    <g id="ytick_59">
     <g id="line2d_139">
      <g>
       <use style="stroke:#000000;stroke-width:0.48;" x="162.9" xlink:href="#m82182e6e4a" y="28.959797"/>
      </g>
     </g>
    </g>
    <g id="ytick_60">
     <g id="line2d_140">
      <g>
       <use style="stroke:#000000;stroke-width:0.48;" x="162.9" xlink:href="#m82182e6e4a" y="24.829898"/>
      </g>
     </g>
    </g>
   </g>
   <g id="line2d_141">
    <path clip-path="url(#p5221a60ab5)" d="M 162.9 82.472073 
L 174.027273 64.615496 
L 185.154545 59.624254 
L 196.281818 71.519502 
L 207.409091 77.977363 
L 218.536364 68.613129 
L 229.663636 46.295621 
L 240.790909 43.996319 
L 251.918182 35.415886 
L 263.045455 32.956399 
L 274.172727 43.836286 
L 285.3 33.002828 
" style="fill:none;stroke:#5bbe94;stroke-linecap:square;stroke-width:5;"/>
   </g>
   <g id="line2d_142">
    <path clip-path="url(#p5221a60ab5)" d="M 162.9 116.920846 
L 174.027273 134.152011 
L 185.154545 119.661627 
L 196.281818 112.535138 
L 207.409091 125.380246 
L 218.536364 127.484122 
L 229.663636 132.381526 
L 240.790909 136.069668 
L 251.918182 141.199393 
L 263.045455 137.596033 
L 274.172727 119.259386 
L 285.3 115.947861 
" style="fill:none;stroke:#b6e3d1;stroke-linecap:square;stroke-width:5;"/>
   </g>
   <g id="line2d_143">
    <path clip-path="url(#p5221a60ab5)" d="M 162.9 97.323222 
L 174.027273 95.946042 
L 185.154545 85.870462 
L 196.281818 88.871478 
L 207.409091 68.07664 
L 218.536364 71.638803 
L 229.663636 55.617531 
L 240.790909 64.892684 
L 251.918182 82.876225 
L 263.045455 94.911698 
L 274.172727 100.566963 
L 285.3 79.72262 
" style="fill:none;stroke:#91be64;stroke-linecap:square;stroke-width:5;"/>
   </g>
   <g id="line2d_144">
    <path clip-path="url(#p5221a60ab5)" d="M 162.9 92.958634 
L 174.027273 106.647324 
L 185.154545 94.085981 
L 196.281818 100.330441 
L 207.409091 80.880917 
L 218.536364 78.504083 
L 229.663636 81.669347 
L 240.790909 59.012178 
L 251.918182 71.384017 
L 263.045455 71.862273 
L 274.172727 87.121306 
L 285.3 77.365025 
" style="fill:none;stroke:#cce5b5;stroke-linecap:square;stroke-width:5;"/>
   </g>
   <g id="line2d_145">
    <path clip-path="url(#p5221a60ab5)" d="M 162.9 107.784451 
L 174.027273 114.731518 
L 185.154545 96.555539 
L 196.281818 79.385319 
L 207.409091 61.684612 
L 218.536364 78.984585 
L 229.663636 89.357233 
L 240.790909 91.690135 
L 251.918182 106.444177 
L 263.045455 123.829208 
L 274.172727 116.459421 
L 285.3 98.418485 
" style="fill:none;stroke:#e5cf6c;stroke-linecap:square;stroke-width:5;"/>
   </g>
   <g id="line2d_146">
    <path clip-path="url(#p5221a60ab5)" d="M 162.9 84.873946 
L 174.027273 102.537841 
L 185.154545 111.571228 
L 196.281818 93.593742 
L 207.409091 73.232185 
L 218.536364 65.802875 
L 229.663636 84.298942 
L 240.790909 81.082363 
L 251.918182 65.399629 
L 263.045455 43.799544 
L 274.172727 36.157828 
L 285.3 18.799393 
" style="fill:none;stroke:#f9ebaa;stroke-linecap:square;stroke-width:5;"/>
   </g>
   <g id="line2d_147">
    <path clip-path="url(#p5221a60ab5)" d="M 162.9 106.911957 
L 174.027273 110.927265 
L 185.154545 128.896976 
L 196.281818 117.322448 
L 207.409091 125.936727 
L 218.536364 114.427382 
L 229.663636 118.157886 
L 240.790909 102.651954 
L 251.918182 116.306858 
L 263.045455 111.539882 
L 274.172727 107.865102 
L 285.3 107.126529 
" style="fill:none;stroke:#e87b70;stroke-linecap:square;stroke-width:5;"/>
   </g>
   <g id="line2d_148">
    <path clip-path="url(#p5221a60ab5)" d="M 162.9 92.563101 
L 174.027273 92.19564 
L 185.154545 86.530766 
L 196.281818 67.703058 
L 207.409091 74.180292 
L 218.536364 79.503982 
L 229.663636 76.786619 
L 240.790909 70.841348 
L 251.918182 59.530405 
L 263.045455 70.195122 
L 274.172727 80.388141 
L 285.3 74.941342 
" style="fill:none;stroke:#f2cec1;stroke-linecap:square;stroke-width:5;"/>
   </g>
   <g id="line2d_149">
    <path clip-path="url(#p5221a60ab5)" d="M 162.9 116.930852 
L 174.027273 109.880953 
L 185.154545 122.855685 
L 196.281818 126.605653 
L 207.409091 116.120235 
L 218.536364 106.472851 
L 229.663636 85.092733 
L 240.790909 102.209713 
L 251.918182 112.295432 
L 263.045455 103.394152 
L 274.172727 83.99215 
L 285.3 79.631056 
" style="fill:none;stroke:#cc6686;stroke-linecap:square;stroke-width:5;"/>
   </g>
   <g id="line2d_150">
    <path clip-path="url(#p5221a60ab5)" d="M 162.9 86.576927 
L 174.027273 85.01966 
L 185.154545 66.274784 
L 196.281818 56.986799 
L 207.409091 57.538268 
L 218.536364 62.326047 
L 229.663636 42.675021 
L 240.790909 35.98429 
L 251.918182 43.247998 
L 263.045455 55.649497 
L 274.172727 60.988008 
L 285.3 64.247861 
" style="fill:none;stroke:#e5b5c5;stroke-linecap:square;stroke-width:5;"/>
   </g>
   <g id="line2d_151">
    <path clip-path="url(#p5221a60ab5)" d="M 162.9 104.230395 
L 174.027273 118.062093 
L 185.154545 102.958554 
L 196.281818 98.985786 
L 207.409091 83.974773 
L 218.536364 90.184007 
L 229.663636 88.17748 
L 240.790909 78.908752 
L 251.918182 72.655054 
L 263.045455 61.679313 
L 274.172727 76.615983 
L 285.3 91.734971 
" style="fill:none;stroke:#5884b3;stroke-linecap:square;stroke-width:5;"/>
   </g>
   <g id="line2d_152">
    <path clip-path="url(#p5221a60ab5)" d="M 162.9 89.349918 
L 174.027273 74.409983 
L 185.154545 77.769433 
L 196.281818 76.44932 
L 207.409091 68.704544 
L 218.536364 84.758333 
L 229.663636 67.280092 
L 240.790909 79.143702 
L 251.918182 57.178875 
L 263.045455 68.774628 
L 274.172727 84.930808 
L 285.3 77.358227 
" style="fill:none;stroke:#b6cee5;stroke-linecap:square;stroke-width:5;"/>
   </g>
   <g id="patch_8">
    <path d="M 162.9 141.199393 
L 162.9 18.799393 
" style="fill:none;stroke:#000000;stroke-linecap:square;stroke-linejoin:miter;stroke-width:0.6;"/>
   </g>
   <g id="patch_9">
    <path d="M 285.3 141.199393 
L 285.3 18.799393 
" style="fill:none;stroke:#000000;stroke-linecap:square;stroke-linejoin:miter;stroke-width:0.6;"/>
   </g>
   <g id="patch_10">
    <path d="M 162.9 141.199393 
L 285.3 141.199393 
" style="fill:none;stroke:#000000;stroke-linecap:square;stroke-linejoin:miter;stroke-width:0.6;"/>
   </g>
   <g id="patch_11">
    <path d="M 162.9 18.799393 
L 285.3 18.799393 
" style="fill:none;stroke:#000000;stroke-linecap:square;stroke-linejoin:miter;stroke-width:0.6;"/>
   </g>
  </g>
  <g id="axes_3">
   <g id="patch_12">
    <path d="M 296.5 141.199393 
L 418.9 141.199393 
L 418.9 18.799393 
L 296.5 18.799393 
z
" style="fill:#ffffff;"/>
   </g>
   <g id="matplotlib.axis_5">
    <g id="xtick_47">
     <g id="line2d_153">
      <path clip-path="url(#p88f5f5e49c)" d="M 296.5 141.199393 
L 296.5 18.799393 
" style="fill:none;stroke:#000000;stroke-linecap:square;stroke-opacity:0.1;stroke-width:0.6;"/>
     </g>
     <g id="line2d_154">
      <g>
       <use style="stroke:#000000;stroke-width:0.6;" x="296.5" xlink:href="#maab33bd964" y="141.199393"/>
      </g>
     </g>
     <g id="text_17">
      <!-- 0 -->
      <g transform="translate(294.27625 152.911893)scale(0.08 -0.08)">
       <use xlink:href="#HelveticaNeue-48"/>
      </g>
     </g>
    </g>
    <g id="xtick_48">
     <g id="line2d_155">
      <path clip-path="url(#p88f5f5e49c)" d="M 324.318182 141.199393 
L 324.318182 18.799393 
" style="fill:none;stroke:#000000;stroke-linecap:square;stroke-opacity:0.1;stroke-width:0.6;"/>
     </g>
     <g id="line2d_156">
      <g>
       <use style="stroke:#000000;stroke-width:0.6;" x="324.318182" xlink:href="#maab33bd964" y="141.199393"/>
      </g>
     </g>
     <g id="text_18">
      <!-- 2.5 -->
      <g transform="translate(318.758807 152.911893)scale(0.08 -0.08)">
       <use xlink:href="#HelveticaNeue-50"/>
       <use x="55.599991" xlink:href="#HelveticaNeue-46"/>
       <use x="83.399979" xlink:href="#HelveticaNeue-53"/>
      </g>
     </g>
    </g>
    <g id="xtick_49">
     <g id="line2d_157">
      <path clip-path="url(#p88f5f5e49c)" d="M 352.136364 141.199393 
L 352.136364 18.799393 
" style="fill:none;stroke:#000000;stroke-linecap:square;stroke-opacity:0.1;stroke-width:0.6;"/>
     </g>
     <g id="line2d_158">
      <g>
       <use style="stroke:#000000;stroke-width:0.6;" x="352.136364" xlink:href="#maab33bd964" y="141.199393"/>
      </g>
     </g>
     <g id="text_19">
      <!-- 5 -->
      <g transform="translate(349.912614 152.911893)scale(0.08 -0.08)">
       <use xlink:href="#HelveticaNeue-53"/>
      </g>
     </g>
    </g>
    <g id="xtick_50">
     <g id="line2d_159">
      <path clip-path="url(#p88f5f5e49c)" d="M 379.954545 141.199393 
L 379.954545 18.799393 
" style="fill:none;stroke:#000000;stroke-linecap:square;stroke-opacity:0.1;stroke-width:0.6;"/>
     </g>
     <g id="line2d_160">
      <g>
       <use style="stroke:#000000;stroke-width:0.6;" x="379.954545" xlink:href="#maab33bd964" y="141.199393"/>
      </g>
     </g>
     <g id="text_20">
      <!-- 7.5 -->
      <g transform="translate(374.39517 152.911893)scale(0.08 -0.08)">
       <use xlink:href="#HelveticaNeue-55"/>
       <use x="55.599991" xlink:href="#HelveticaNeue-46"/>
       <use x="83.399979" xlink:href="#HelveticaNeue-53"/>
      </g>
     </g>
    </g>
    <g id="xtick_51">
     <g id="line2d_161">
      <path clip-path="url(#p88f5f5e49c)" d="M 407.772727 141.199393 
L 407.772727 18.799393 
" style="fill:none;stroke:#000000;stroke-linecap:square;stroke-opacity:0.1;stroke-width:0.6;"/>
     </g>
     <g id="line2d_162">
      <g>
       <use style="stroke:#000000;stroke-width:0.6;" x="407.772727" xlink:href="#maab33bd964" y="141.199393"/>
      </g>
     </g>
     <g id="text_21">
      <!-- 10 -->
      <g transform="translate(403.325227 152.911893)scale(0.08 -0.08)">
       <use xlink:href="#HelveticaNeue-49"/>
       <use x="55.599991" xlink:href="#HelveticaNeue-48"/>
      </g>
     </g>
    </g>
    <g id="xtick_52">
     <g id="line2d_163">
      <g>
       <use style="stroke:#000000;stroke-width:0.48;" x="302.063636" xlink:href="#m698bd59919" y="141.199393"/>
      </g>
     </g>
    </g>
    <g id="xtick_53">
     <g id="line2d_164">
      <g>
       <use style="stroke:#000000;stroke-width:0.48;" x="307.627273" xlink:href="#m698bd59919" y="141.199393"/>
      </g>
     </g>
    </g>
    <g id="xtick_54">
     <g id="line2d_165">
      <g>
       <use style="stroke:#000000;stroke-width:0.48;" x="313.190909" xlink:href="#m698bd59919" y="141.199393"/>
      </g>
     </g>
    </g>
    <g id="xtick_55">
     <g id="line2d_166">
      <g>
       <use style="stroke:#000000;stroke-width:0.48;" x="318.754545" xlink:href="#m698bd59919" y="141.199393"/>
      </g>
     </g>
    </g>
    <g id="xtick_56">
     <g id="line2d_167">
      <g>
       <use style="stroke:#000000;stroke-width:0.48;" x="329.881818" xlink:href="#m698bd59919" y="141.199393"/>
      </g>
     </g>
    </g>
    <g id="xtick_57">
     <g id="line2d_168">
      <g>
       <use style="stroke:#000000;stroke-width:0.48;" x="335.445455" xlink:href="#m698bd59919" y="141.199393"/>
      </g>
     </g>
    </g>
    <g id="xtick_58">
     <g id="line2d_169">
      <g>
       <use style="stroke:#000000;stroke-width:0.48;" x="341.009091" xlink:href="#m698bd59919" y="141.199393"/>
      </g>
     </g>
    </g>
    <g id="xtick_59">
     <g id="line2d_170">
      <g>
       <use style="stroke:#000000;stroke-width:0.48;" x="346.572727" xlink:href="#m698bd59919" y="141.199393"/>
      </g>
     </g>
    </g>
    <g id="xtick_60">
     <g id="line2d_171">
      <g>
       <use style="stroke:#000000;stroke-width:0.48;" x="357.7" xlink:href="#m698bd59919" y="141.199393"/>
      </g>
     </g>
    </g>
    <g id="xtick_61">
     <g id="line2d_172">
      <g>
       <use style="stroke:#000000;stroke-width:0.48;" x="363.263636" xlink:href="#m698bd59919" y="141.199393"/>
      </g>
     </g>
    </g>
    <g id="xtick_62">
     <g id="line2d_173">
      <g>
       <use style="stroke:#000000;stroke-width:0.48;" x="368.827273" xlink:href="#m698bd59919" y="141.199393"/>
      </g>
     </g>
    </g>
    <g id="xtick_63">
     <g id="line2d_174">
      <g>
       <use style="stroke:#000000;stroke-width:0.48;" x="374.390909" xlink:href="#m698bd59919" y="141.199393"/>
      </g>
     </g>
    </g>
    <g id="xtick_64">
     <g id="line2d_175">
      <g>
       <use style="stroke:#000000;stroke-width:0.48;" x="385.518182" xlink:href="#m698bd59919" y="141.199393"/>
      </g>
     </g>
    </g>
    <g id="xtick_65">
     <g id="line2d_176">
      <g>
       <use style="stroke:#000000;stroke-width:0.48;" x="391.081818" xlink:href="#m698bd59919" y="141.199393"/>
      </g>
     </g>
    </g>
    <g id="xtick_66">
     <g id="line2d_177">
      <g>
       <use style="stroke:#000000;stroke-width:0.48;" x="396.645455" xlink:href="#m698bd59919" y="141.199393"/>
      </g>
     </g>
    </g>
    <g id="xtick_67">
     <g id="line2d_178">
      <g>
       <use style="stroke:#000000;stroke-width:0.48;" x="402.209091" xlink:href="#m698bd59919" y="141.199393"/>
      </g>
     </g>
    </g>
    <g id="xtick_68">
     <g id="line2d_179">
      <g>
       <use style="stroke:#000000;stroke-width:0.48;" x="413.336364" xlink:href="#m698bd59919" y="141.199393"/>
      </g>
     </g>
    </g>
    <g id="xtick_69">
     <g id="line2d_180">
      <g>
       <use style="stroke:#000000;stroke-width:0.48;" x="418.9" xlink:href="#m698bd59919" y="141.199393"/>
      </g>
     </g>
    </g>
   </g>
   <g id="matplotlib.axis_6">
    <g id="ytick_61">
     <g id="line2d_181">
      <path clip-path="url(#p88f5f5e49c)" d="M 296.5 123.947461 
L 418.9 123.947461 
" style="fill:none;stroke:#000000;stroke-linecap:square;stroke-opacity:0.1;stroke-width:0.6;"/>
     </g>
     <g id="line2d_182">
      <g>
       <use style="stroke:#000000;stroke-width:0.6;" x="296.5" xlink:href="#me662fe0f16" y="123.947461"/>
      </g>
     </g>
    </g>
    <g id="ytick_62">
     <g id="line2d_183">
      <path clip-path="url(#p88f5f5e49c)" d="M 296.5 103.297969 
L 418.9 103.297969 
" style="fill:none;stroke:#000000;stroke-linecap:square;stroke-opacity:0.1;stroke-width:0.6;"/>
     </g>
     <g id="line2d_184">
      <g>
       <use style="stroke:#000000;stroke-width:0.6;" x="296.5" xlink:href="#me662fe0f16" y="103.297969"/>
      </g>
     </g>
    </g>
    <g id="ytick_63">
     <g id="line2d_185">
      <path clip-path="url(#p88f5f5e49c)" d="M 296.5 82.648477 
L 418.9 82.648477 
" style="fill:none;stroke:#000000;stroke-linecap:square;stroke-opacity:0.1;stroke-width:0.6;"/>
     </g>
     <g id="line2d_186">
      <g>
       <use style="stroke:#000000;stroke-width:0.6;" x="296.5" xlink:href="#me662fe0f16" y="82.648477"/>
      </g>
     </g>
    </g>
    <g id="ytick_64">
     <g id="line2d_187">
      <path clip-path="url(#p88f5f5e49c)" d="M 296.5 61.998985 
L 418.9 61.998985 
" style="fill:none;stroke:#000000;stroke-linecap:square;stroke-opacity:0.1;stroke-width:0.6;"/>
     </g>
     <g id="line2d_188">
      <g>
       <use style="stroke:#000000;stroke-width:0.6;" x="296.5" xlink:href="#me662fe0f16" y="61.998985"/>
      </g>
     </g>
    </g>
    <g id="ytick_65">
     <g id="line2d_189">
      <path clip-path="url(#p88f5f5e49c)" d="M 296.5 41.349492 
L 418.9 41.349492 
" style="fill:none;stroke:#000000;stroke-linecap:square;stroke-opacity:0.1;stroke-width:0.6;"/>
     </g>
     <g id="line2d_190">
      <g>
       <use style="stroke:#000000;stroke-width:0.6;" x="296.5" xlink:href="#me662fe0f16" y="41.349492"/>
      </g>
     </g>
    </g>
    <g id="ytick_66">
     <g id="line2d_191">
      <path clip-path="url(#p88f5f5e49c)" d="M 296.5 20.7 
L 418.9 20.7 
" style="fill:none;stroke:#000000;stroke-linecap:square;stroke-opacity:0.1;stroke-width:0.6;"/>
     </g>
     <g id="line2d_192">
      <g>
       <use style="stroke:#000000;stroke-width:0.6;" x="296.5" xlink:href="#me662fe0f16" y="20.7"/>
      </g>
     </g>
    </g>
    <g id="ytick_67">
     <g id="line2d_193">
      <g>
       <use style="stroke:#000000;stroke-width:0.48;" x="296.5" xlink:href="#m82182e6e4a" y="140.467055"/>
      </g>
     </g>
    </g>
    <g id="ytick_68">
     <g id="line2d_194">
      <g>
       <use style="stroke:#000000;stroke-width:0.48;" x="296.5" xlink:href="#m82182e6e4a" y="136.337157"/>
      </g>
     </g>
    </g>
    <g id="ytick_69">
     <g id="line2d_195">
      <g>
       <use style="stroke:#000000;stroke-width:0.48;" x="296.5" xlink:href="#m82182e6e4a" y="132.207258"/>
      </g>
     </g>
    </g>
    <g id="ytick_70">
     <g id="line2d_196">
      <g>
       <use style="stroke:#000000;stroke-width:0.48;" x="296.5" xlink:href="#m82182e6e4a" y="128.07736"/>
      </g>
     </g>
    </g>
    <g id="ytick_71">
     <g id="line2d_197">
      <g>
       <use style="stroke:#000000;stroke-width:0.48;" x="296.5" xlink:href="#m82182e6e4a" y="119.817563"/>
      </g>
     </g>
    </g>
    <g id="ytick_72">
     <g id="line2d_198">
      <g>
       <use style="stroke:#000000;stroke-width:0.48;" x="296.5" xlink:href="#m82182e6e4a" y="115.687664"/>
      </g>
     </g>
    </g>
    <g id="ytick_73">
     <g id="line2d_199">
      <g>
       <use style="stroke:#000000;stroke-width:0.48;" x="296.5" xlink:href="#m82182e6e4a" y="111.557766"/>
      </g>
     </g>
    </g>
    <g id="ytick_74">
     <g id="line2d_200">
      <g>
       <use style="stroke:#000000;stroke-width:0.48;" x="296.5" xlink:href="#m82182e6e4a" y="107.427868"/>
      </g>
     </g>
    </g>
    <g id="ytick_75">
     <g id="line2d_201">
      <g>
       <use style="stroke:#000000;stroke-width:0.48;" x="296.5" xlink:href="#m82182e6e4a" y="99.168071"/>
      </g>
     </g>
    </g>
    <g id="ytick_76">
     <g id="line2d_202">
      <g>
       <use style="stroke:#000000;stroke-width:0.48;" x="296.5" xlink:href="#m82182e6e4a" y="95.038172"/>
      </g>
     </g>
    </g>
    <g id="ytick_77">
     <g id="line2d_203">
      <g>
       <use style="stroke:#000000;stroke-width:0.48;" x="296.5" xlink:href="#m82182e6e4a" y="90.908274"/>
      </g>
     </g>
    </g>
    <g id="ytick_78">
     <g id="line2d_204">
      <g>
       <use style="stroke:#000000;stroke-width:0.48;" x="296.5" xlink:href="#m82182e6e4a" y="86.778375"/>
      </g>
     </g>
    </g>
    <g id="ytick_79">
     <g id="line2d_205">
      <g>
       <use style="stroke:#000000;stroke-width:0.48;" x="296.5" xlink:href="#m82182e6e4a" y="78.518578"/>
      </g>
     </g>
    </g>
    <g id="ytick_80">
     <g id="line2d_206">
      <g>
       <use style="stroke:#000000;stroke-width:0.48;" x="296.5" xlink:href="#m82182e6e4a" y="74.38868"/>
      </g>
     </g>
    </g>
    <g id="ytick_81">
     <g id="line2d_207">
      <g>
       <use style="stroke:#000000;stroke-width:0.48;" x="296.5" xlink:href="#m82182e6e4a" y="70.258781"/>
      </g>
     </g>
    </g>
    <g id="ytick_82">
     <g id="line2d_208">
      <g>
       <use style="stroke:#000000;stroke-width:0.48;" x="296.5" xlink:href="#m82182e6e4a" y="66.128883"/>
      </g>
     </g>
    </g>
    <g id="ytick_83">
     <g id="line2d_209">
      <g>
       <use style="stroke:#000000;stroke-width:0.48;" x="296.5" xlink:href="#m82182e6e4a" y="57.869086"/>
      </g>
     </g>
    </g>
    <g id="ytick_84">
     <g id="line2d_210">
      <g>
       <use style="stroke:#000000;stroke-width:0.48;" x="296.5" xlink:href="#m82182e6e4a" y="53.739188"/>
      </g>
     </g>
    </g>
    <g id="ytick_85">
     <g id="line2d_211">
      <g>
       <use style="stroke:#000000;stroke-width:0.48;" x="296.5" xlink:href="#m82182e6e4a" y="49.609289"/>
      </g>
     </g>
    </g>
    <g id="ytick_86">
     <g id="line2d_212">
      <g>
       <use style="stroke:#000000;stroke-width:0.48;" x="296.5" xlink:href="#m82182e6e4a" y="45.479391"/>
      </g>
     </g>
    </g>
    <g id="ytick_87">
     <g id="line2d_213">
      <g>
       <use style="stroke:#000000;stroke-width:0.48;" x="296.5" xlink:href="#m82182e6e4a" y="37.219594"/>
      </g>
     </g>
    </g>
    <g id="ytick_88">
     <g id="line2d_214">
      <g>
       <use style="stroke:#000000;stroke-width:0.48;" x="296.5" xlink:href="#m82182e6e4a" y="33.089695"/>
      </g>
     </g>
    </g>
    <g id="ytick_89">
     <g id="line2d_215">
      <g>
       <use style="stroke:#000000;stroke-width:0.48;" x="296.5" xlink:href="#m82182e6e4a" y="28.959797"/>
      </g>
     </g>
    </g>
    <g id="ytick_90">
     <g id="line2d_216">
      <g>
       <use style="stroke:#000000;stroke-width:0.48;" x="296.5" xlink:href="#m82182e6e4a" y="24.829898"/>
      </g>
     </g>
    </g>
   </g>
   <g id="line2d_217">
    <path clip-path="url(#p88f5f5e49c)" d="M 296.5 82.472073 
L 307.627273 64.615496 
L 318.754545 59.624254 
L 329.881818 71.519502 
L 341.009091 77.977363 
L 352.136364 68.613129 
L 363.263636 46.295621 
L 374.390909 43.996319 
L 385.518182 35.415886 
L 396.645455 32.956399 
L 407.772727 43.836286 
L 418.9 33.002828 
" style="fill:none;stroke:#5bbe94;stroke-linecap:square;stroke-width:5;"/>
   </g>
   <g id="line2d_218">
    <path clip-path="url(#p88f5f5e49c)" d="M 296.5 116.920846 
L 307.627273 134.152011 
L 318.754545 119.661627 
L 329.881818 112.535138 
L 341.009091 125.380246 
L 352.136364 127.484122 
L 363.263636 132.381526 
L 374.390909 136.069668 
L 385.518182 141.199393 
L 396.645455 137.596033 
L 407.772727 119.259386 
L 418.9 115.947861 
" style="fill:none;stroke:#b6e3d1;stroke-linecap:square;stroke-width:5;"/>
   </g>
   <g id="line2d_219">
    <path clip-path="url(#p88f5f5e49c)" d="M 296.5 97.323222 
L 307.627273 95.946042 
L 318.754545 85.870462 
L 329.881818 88.871478 
L 341.009091 68.07664 
L 352.136364 71.638803 
L 363.263636 55.617531 
L 374.390909 64.892684 
L 385.518182 82.876225 
L 396.645455 94.911698 
L 407.772727 100.566963 
L 418.9 79.72262 
" style="fill:none;stroke:#91be64;stroke-linecap:square;stroke-width:5;"/>
   </g>
   <g id="line2d_220">
    <path clip-path="url(#p88f5f5e49c)" d="M 296.5 92.958634 
L 307.627273 106.647324 
L 318.754545 94.085981 
L 329.881818 100.330441 
L 341.009091 80.880917 
L 352.136364 78.504083 
L 363.263636 81.669347 
L 374.390909 59.012178 
L 385.518182 71.384017 
L 396.645455 71.862273 
L 407.772727 87.121306 
L 418.9 77.365025 
" style="fill:none;stroke:#cce5b5;stroke-linecap:square;stroke-width:5;"/>
   </g>
   <g id="line2d_221">
    <path clip-path="url(#p88f5f5e49c)" d="M 296.5 107.784451 
L 307.627273 114.731518 
L 318.754545 96.555539 
L 329.881818 79.385319 
L 341.009091 61.684612 
L 352.136364 78.984585 
L 363.263636 89.357233 
L 374.390909 91.690135 
L 385.518182 106.444177 
L 396.645455 123.829208 
L 407.772727 116.459421 
L 418.9 98.418485 
" style="fill:none;stroke:#e5cf6c;stroke-linecap:square;stroke-width:5;"/>
   </g>
   <g id="line2d_222">
    <path clip-path="url(#p88f5f5e49c)" d="M 296.5 84.873946 
L 307.627273 102.537841 
L 318.754545 111.571228 
L 329.881818 93.593742 
L 341.009091 73.232185 
L 352.136364 65.802875 
L 363.263636 84.298942 
L 374.390909 81.082363 
L 385.518182 65.399629 
L 396.645455 43.799544 
L 407.772727 36.157828 
L 418.9 18.799393 
" style="fill:none;stroke:#f9ebaa;stroke-linecap:square;stroke-width:5;"/>
   </g>
   <g id="line2d_223">
    <path clip-path="url(#p88f5f5e49c)" d="M 296.5 106.911957 
L 307.627273 110.927265 
L 318.754545 128.896976 
L 329.881818 117.322448 
L 341.009091 125.936727 
L 352.136364 114.427382 
L 363.263636 118.157886 
L 374.390909 102.651954 
L 385.518182 116.306858 
L 396.645455 111.539882 
L 407.772727 107.865102 
L 418.9 107.126529 
" style="fill:none;stroke:#e87b70;stroke-linecap:square;stroke-width:5;"/>
   </g>
   <g id="line2d_224">
    <path clip-path="url(#p88f5f5e49c)" d="M 296.5 92.563101 
L 307.627273 92.19564 
L 318.754545 86.530766 
L 329.881818 67.703058 
L 341.009091 74.180292 
L 352.136364 79.503982 
L 363.263636 76.786619 
L 374.390909 70.841348 
L 385.518182 59.530405 
L 396.645455 70.195122 
L 407.772727 80.388141 
L 418.9 74.941342 
" style="fill:none;stroke:#f2cec1;stroke-linecap:square;stroke-width:5;"/>
   </g>
   <g id="line2d_225">
    <path clip-path="url(#p88f5f5e49c)" d="M 296.5 116.930852 
L 307.627273 109.880953 
L 318.754545 122.855685 
L 329.881818 126.605653 
L 341.009091 116.120235 
L 352.136364 106.472851 
L 363.263636 85.092733 
L 374.390909 102.209713 
L 385.518182 112.295432 
L 396.645455 103.394152 
L 407.772727 83.99215 
L 418.9 79.631056 
" style="fill:none;stroke:#cc6686;stroke-linecap:square;stroke-width:5;"/>
   </g>
   <g id="line2d_226">
    <path clip-path="url(#p88f5f5e49c)" d="M 296.5 86.576927 
L 307.627273 85.01966 
L 318.754545 66.274784 
L 329.881818 56.986799 
L 341.009091 57.538268 
L 352.136364 62.326047 
L 363.263636 42.675021 
L 374.390909 35.98429 
L 385.518182 43.247998 
L 396.645455 55.649497 
L 407.772727 60.988008 
L 418.9 64.247861 
" style="fill:none;stroke:#e5b5c5;stroke-linecap:square;stroke-width:5;"/>
   </g>
   <g id="line2d_227">
    <path clip-path="url(#p88f5f5e49c)" d="M 296.5 104.230395 
L 307.627273 118.062093 
L 318.754545 102.958554 
L 329.881818 98.985786 
L 341.009091 83.974773 
L 352.136364 90.184007 
L 363.263636 88.17748 
L 374.390909 78.908752 
L 385.518182 72.655054 
L 396.645455 61.679313 
L 407.772727 76.615983 
L 418.9 91.734971 
" style="fill:none;stroke:#5884b3;stroke-linecap:square;stroke-width:5;"/>
   </g>
   <g id="line2d_228">
    <path clip-path="url(#p88f5f5e49c)" d="M 296.5 89.349918 
L 307.627273 74.409983 
L 318.754545 77.769433 
L 329.881818 76.44932 
L 341.009091 68.704544 
L 352.136364 84.758333 
L 363.263636 67.280092 
L 374.390909 79.143702 
L 385.518182 57.178875 
L 396.645455 68.774628 
L 407.772727 84.930808 
L 418.9 77.358227 
" style="fill:none;stroke:#b6cee5;stroke-linecap:square;stroke-width:5;"/>
   </g>
   <g id="patch_13">
    <path d="M 296.5 141.199393 
L 296.5 18.799393 
" style="fill:none;stroke:#000000;stroke-linecap:square;stroke-linejoin:miter;stroke-width:0.6;"/>
   </g>
   <g id="patch_14">
    <path d="M 418.9 141.199393 
L 418.9 18.799393 
" style="fill:none;stroke:#000000;stroke-linecap:square;stroke-linejoin:miter;stroke-width:0.6;"/>
   </g>
   <g id="patch_15">
    <path d="M 296.5 141.199393 
L 418.9 141.199393 
" style="fill:none;stroke:#000000;stroke-linecap:square;stroke-linejoin:miter;stroke-width:0.6;"/>
   </g>
   <g id="patch_16">
    <path d="M 296.5 18.799393 
L 418.9 18.799393 
" style="fill:none;stroke:#000000;stroke-linecap:square;stroke-linejoin:miter;stroke-width:0.6;"/>
   </g>
  </g>
  <g id="text_22">
   <!-- Local and global color cycles demo -->
   <defs>
    <path d="M 6.90625 71.40625 
L 6.90625 0 
L 57.40625 0 
L 57.40625 13.203125 
L 22.59375 13.203125 
L 22.59375 71.40625 
z
" id="HelveticaNeue-Bold-76"/>
    <path d="M 18 25.796875 
Q 18 28.90625 18.59375 31.90625 
Q 19.203125 34.90625 20.640625 37.203125 
Q 22.09375 39.5 24.5 40.953125 
Q 26.90625 42.40625 30.5 42.40625 
Q 34.09375 42.40625 36.546875 40.953125 
Q 39 39.5 40.453125 37.203125 
Q 41.90625 34.90625 42.5 31.90625 
Q 43.09375 28.90625 43.09375 25.796875 
Q 43.09375 22.703125 42.5 19.75 
Q 41.90625 16.796875 40.453125 14.4375 
Q 39 12.09375 36.546875 10.6875 
Q 34.09375 9.296875 30.5 9.296875 
Q 26.90625 9.296875 24.5 10.6875 
Q 22.09375 12.09375 20.640625 14.4375 
Q 19.203125 16.796875 18.59375 19.75 
Q 18 22.703125 18 25.796875 
z
M 3.796875 25.796875 
Q 3.796875 19.59375 5.6875 14.59375 
Q 7.59375 9.59375 11.09375 6.046875 
Q 14.59375 2.5 19.5 0.59375 
Q 24.40625 -1.296875 30.5 -1.296875 
Q 36.59375 -1.296875 41.546875 0.59375 
Q 46.5 2.5 50 6.046875 
Q 53.5 9.59375 55.390625 14.59375 
Q 57.296875 19.59375 57.296875 25.796875 
Q 57.296875 32 55.390625 37.046875 
Q 53.5 42.09375 50 45.640625 
Q 46.5 49.203125 41.546875 51.140625 
Q 36.59375 53.09375 30.5 53.09375 
Q 24.40625 53.09375 19.5 51.140625 
Q 14.59375 49.203125 11.09375 45.640625 
Q 7.59375 42.09375 5.6875 37.046875 
Q 3.796875 32 3.796875 25.796875 
z
" id="HelveticaNeue-Bold-111"/>
    <path d="M 40.59375 33.5 
L 54.5 33.5 
Q 54.203125 38.5 52.09375 42.140625 
Q 50 45.796875 46.640625 48.25 
Q 43.296875 50.703125 39.046875 51.890625 
Q 34.796875 53.09375 30.203125 53.09375 
Q 23.90625 53.09375 19 51 
Q 14.09375 48.90625 10.6875 45.15625 
Q 7.296875 41.40625 5.546875 36.25 
Q 3.796875 31.09375 3.796875 25.09375 
Q 3.796875 19.296875 5.6875 14.4375 
Q 7.59375 9.59375 11 6.09375 
Q 14.40625 2.59375 19.25 0.640625 
Q 24.09375 -1.296875 29.90625 -1.296875 
Q 40.203125 -1.296875 46.796875 4.09375 
Q 53.40625 9.5 54.796875 19.796875 
L 41.09375 19.796875 
Q 40.40625 15 37.65625 12.140625 
Q 34.90625 9.296875 29.796875 9.296875 
Q 26.5 9.296875 24.203125 10.796875 
Q 21.90625 12.296875 20.546875 14.640625 
Q 19.203125 17 18.59375 19.890625 
Q 18 22.796875 18 25.59375 
Q 18 28.5 18.59375 31.453125 
Q 19.203125 34.40625 20.640625 36.84375 
Q 22.09375 39.296875 24.390625 40.84375 
Q 26.703125 42.40625 30.09375 42.40625 
Q 39.203125 42.40625 40.59375 33.5 
z
" id="HelveticaNeue-Bold-99"/>
    <path d="M 4.796875 35.796875 
Q 5.09375 40.796875 7.296875 44.09375 
Q 9.5 47.40625 12.890625 49.40625 
Q 16.296875 51.40625 20.546875 52.25 
Q 24.796875 53.09375 29.09375 53.09375 
Q 33 53.09375 37 52.546875 
Q 41 52 44.296875 50.390625 
Q 47.59375 48.796875 49.6875 45.9375 
Q 51.796875 43.09375 51.796875 38.40625 
L 51.796875 11.5 
Q 51.796875 8 52.1875 4.796875 
Q 52.59375 1.59375 53.59375 0 
L 39.203125 0 
Q 38.796875 1.203125 38.546875 2.453125 
Q 38.296875 3.703125 38.203125 5 
Q 34.796875 1.5 30.1875 0.09375 
Q 25.59375 -1.296875 20.796875 -1.296875 
Q 17.09375 -1.296875 13.890625 -0.390625 
Q 10.703125 0.5 8.296875 2.390625 
Q 5.90625 4.296875 4.546875 7.1875 
Q 3.203125 10.09375 3.203125 14.09375 
Q 3.203125 18.5 4.75 21.34375 
Q 6.296875 24.203125 8.75 25.890625 
Q 11.203125 27.59375 14.34375 28.4375 
Q 17.5 29.296875 20.703125 29.796875 
Q 23.90625 30.296875 27 30.59375 
Q 30.09375 30.90625 32.5 31.5 
Q 34.90625 32.09375 36.296875 33.25 
Q 37.703125 34.40625 37.59375 36.59375 
Q 37.59375 38.90625 36.84375 40.25 
Q 36.09375 41.59375 34.84375 42.34375 
Q 33.59375 43.09375 31.9375 43.34375 
Q 30.296875 43.59375 28.40625 43.59375 
Q 24.203125 43.59375 21.796875 41.796875 
Q 19.40625 40 19 35.796875 
z
M 37.59375 25.296875 
Q 36.703125 24.5 35.34375 24.046875 
Q 34 23.59375 32.453125 23.296875 
Q 30.90625 23 29.203125 22.796875 
Q 27.5 22.59375 25.796875 22.296875 
Q 24.203125 22 22.640625 21.5 
Q 21.09375 21 19.9375 20.140625 
Q 18.796875 19.296875 18.09375 18 
Q 17.40625 16.703125 17.40625 14.703125 
Q 17.40625 12.796875 18.09375 11.5 
Q 18.796875 10.203125 20 9.453125 
Q 21.203125 8.703125 22.796875 8.390625 
Q 24.40625 8.09375 26.09375 8.09375 
Q 30.296875 8.09375 32.59375 9.5 
Q 34.90625 10.90625 36 12.84375 
Q 37.09375 14.796875 37.34375 16.796875 
Q 37.59375 18.796875 37.59375 20 
z
" id="HelveticaNeue-Bold-97"/>
    <path d="M 5.796875 71.40625 
L 5.796875 0 
L 20 0 
L 20 71.40625 
z
" id="HelveticaNeue-Bold-108"/>
    <path id="HelveticaNeue-Bold-32"/>
    <path d="M 5.40625 51.703125 
L 5.40625 0 
L 19.59375 0 
L 19.59375 27.09375 
Q 19.59375 35 22.1875 38.453125 
Q 24.796875 41.90625 30.59375 41.90625 
Q 35.703125 41.90625 37.703125 38.75 
Q 39.703125 35.59375 39.703125 29.203125 
L 39.703125 0 
L 53.90625 0 
L 53.90625 31.796875 
Q 53.90625 36.59375 53.046875 40.546875 
Q 52.203125 44.5 50.09375 47.25 
Q 48 50 44.34375 51.546875 
Q 40.703125 53.09375 35 53.09375 
Q 30.5 53.09375 26.203125 51.046875 
Q 21.90625 49 19.203125 44.5 
L 18.90625 44.5 
L 18.90625 51.703125 
z
" id="HelveticaNeue-Bold-110"/>
    <path d="M 42.09375 26 
Q 42.09375 22.796875 41.5 19.796875 
Q 40.90625 16.796875 39.5 14.4375 
Q 38.09375 12.09375 35.75 10.6875 
Q 33.40625 9.296875 29.90625 9.296875 
Q 26.59375 9.296875 24.25 10.75 
Q 21.90625 12.203125 20.34375 14.546875 
Q 18.796875 16.90625 18.09375 19.90625 
Q 17.40625 22.90625 17.40625 25.90625 
Q 17.40625 29.09375 18.046875 32.046875 
Q 18.703125 35 20.140625 37.296875 
Q 21.59375 39.59375 24 41 
Q 26.40625 42.40625 29.90625 42.40625 
Q 33.40625 42.40625 35.703125 41 
Q 38 39.59375 39.453125 37.34375 
Q 40.90625 35.09375 41.5 32.140625 
Q 42.09375 29.203125 42.09375 26 
z
M 42.296875 6.59375 
L 42.296875 0 
L 55.796875 0 
L 55.796875 71.40625 
L 41.59375 71.40625 
L 41.59375 45.40625 
L 41.40625 45.40625 
Q 39 49.203125 34.84375 51.140625 
Q 30.703125 53.09375 26.09375 53.09375 
Q 20.40625 53.09375 16.09375 50.84375 
Q 11.796875 48.59375 8.9375 44.890625 
Q 6.09375 41.203125 4.640625 36.34375 
Q 3.203125 31.5 3.203125 26.296875 
Q 3.203125 20.90625 4.640625 15.90625 
Q 6.09375 10.90625 8.9375 7.046875 
Q 11.796875 3.203125 16.1875 0.953125 
Q 20.59375 -1.296875 26.40625 -1.296875 
Q 31.5 -1.296875 35.546875 0.546875 
Q 39.59375 2.40625 42.09375 6.59375 
z
" id="HelveticaNeue-Bold-100"/>
    <path d="M 29.5 12.203125 
Q 26.203125 12.203125 24 13.59375 
Q 21.796875 15 20.4375 17.203125 
Q 19.09375 19.40625 18.546875 22.15625 
Q 18 24.90625 18 27.703125 
Q 18 30.59375 18.640625 33.25 
Q 19.296875 35.90625 20.75 37.953125 
Q 22.203125 40 24.34375 41.203125 
Q 26.5 42.40625 29.5 42.40625 
Q 33 42.40625 35.296875 41.09375 
Q 37.59375 39.796875 39 37.59375 
Q 40.40625 35.40625 41 32.546875 
Q 41.59375 29.703125 41.59375 26.5 
Q 41.59375 23.703125 40.84375 21.140625 
Q 40.09375 18.59375 38.59375 16.59375 
Q 37.09375 14.59375 34.796875 13.390625 
Q 32.5 12.203125 29.5 12.203125 
z
M 55.09375 3.296875 
L 55.09375 51.703125 
L 41.59375 51.703125 
L 41.59375 44.796875 
L 41.40625 44.796875 
Q 38.796875 49.296875 34.9375 51.1875 
Q 31.09375 53.09375 26 53.09375 
Q 20.59375 53.09375 16.4375 51 
Q 12.296875 48.90625 9.5 45.34375 
Q 6.703125 41.796875 5.25 37.140625 
Q 3.796875 32.5 3.796875 27.5 
Q 3.796875 22.203125 5.046875 17.453125 
Q 6.296875 12.703125 9 9.140625 
Q 11.703125 5.59375 15.890625 3.546875 
Q 20.09375 1.5 25.90625 1.5 
Q 30.59375 1.5 34.84375 3.453125 
Q 39.09375 5.40625 41.40625 9.5 
L 41.59375 9.5 
L 41.59375 2.703125 
Q 41.703125 -2.796875 38.953125 -6.390625 
Q 36.203125 -10 30.203125 -10 
Q 26.40625 -10 23.5 -8.453125 
Q 20.59375 -6.90625 19.59375 -2.90625 
L 5.5 -2.90625 
Q 5.796875 -7.296875 7.9375 -10.4375 
Q 10.09375 -13.59375 13.34375 -15.59375 
Q 16.59375 -17.59375 20.546875 -18.546875 
Q 24.5 -19.5 28.296875 -19.5 
Q 37.203125 -19.5 42.5 -17.09375 
Q 47.796875 -14.703125 50.59375 -11.25 
Q 53.40625 -7.796875 54.25 -3.796875 
Q 55.09375 0.203125 55.09375 3.296875 
z
" id="HelveticaNeue-Bold-103"/>
    <path d="M 43.296875 25.796875 
Q 43.296875 22.59375 42.59375 19.59375 
Q 41.90625 16.59375 40.40625 14.296875 
Q 38.90625 12 36.65625 10.640625 
Q 34.40625 9.296875 31.203125 9.296875 
Q 28.09375 9.296875 25.796875 10.640625 
Q 23.5 12 22 14.296875 
Q 20.5 16.59375 19.796875 19.59375 
Q 19.09375 22.59375 19.09375 25.796875 
Q 19.09375 29.09375 19.796875 32.09375 
Q 20.5 35.09375 22 37.390625 
Q 23.5 39.703125 25.796875 41.046875 
Q 28.09375 42.40625 31.203125 42.40625 
Q 34.40625 42.40625 36.65625 41.046875 
Q 38.90625 39.703125 40.40625 37.390625 
Q 41.90625 35.09375 42.59375 32.09375 
Q 43.296875 29.09375 43.296875 25.796875 
z
M 5.40625 71.40625 
L 5.40625 0 
L 18.90625 0 
L 18.90625 6.59375 
L 19.09375 6.59375 
Q 21.40625 2.296875 25.90625 0.5 
Q 30.40625 -1.296875 36.09375 -1.296875 
Q 40 -1.296875 43.796875 0.296875 
Q 47.59375 1.90625 50.640625 5.203125 
Q 53.703125 8.5 55.59375 13.640625 
Q 57.5 18.796875 57.5 25.90625 
Q 57.5 33 55.59375 38.140625 
Q 53.703125 43.296875 50.640625 46.59375 
Q 47.59375 49.90625 43.796875 51.5 
Q 40 53.09375 36.09375 53.09375 
Q 31.296875 53.09375 26.84375 51.25 
Q 22.40625 49.40625 19.796875 45.40625 
L 19.59375 45.40625 
L 19.59375 71.40625 
z
" id="HelveticaNeue-Bold-98"/>
    <path d="M 5.40625 51.703125 
L 5.40625 0 
L 19.59375 0 
L 19.59375 23.296875 
Q 19.59375 26.796875 20.296875 29.796875 
Q 21 32.796875 22.640625 35.046875 
Q 24.296875 37.296875 27 38.59375 
Q 29.703125 39.90625 33.59375 39.90625 
Q 34.90625 39.90625 36.296875 39.75 
Q 37.703125 39.59375 38.703125 39.40625 
L 38.703125 52.59375 
Q 37 53.09375 35.59375 53.09375 
Q 32.90625 53.09375 30.40625 52.296875 
Q 27.90625 51.5 25.703125 50.046875 
Q 23.5 48.59375 21.796875 46.546875 
Q 20.09375 44.5 19.09375 42.09375 
L 18.90625 42.09375 
L 18.90625 51.703125 
z
" id="HelveticaNeue-Bold-114"/>
    <path d="M 30.90625 -6.40625 
L 52.5 51.703125 
L 37.796875 51.703125 
L 26.5 16.296875 
L 26.296875 16.296875 
L 14.59375 51.703125 
L -0.5 51.703125 
L 17.59375 3.203125 
Q 18.203125 1.703125 18.203125 0 
Q 18.203125 -2.296875 16.84375 -4.1875 
Q 15.5 -6.09375 12.703125 -6.40625 
Q 10.59375 -6.5 8.5 -6.296875 
Q 6.40625 -6.09375 4.40625 -5.90625 
L 4.40625 -17.59375 
Q 6.59375 -17.796875 8.75 -17.9375 
Q 10.90625 -18.09375 13.09375 -18.09375 
Q 20.40625 -18.09375 24.5 -15.390625 
Q 28.59375 -12.703125 30.90625 -6.40625 
z
" id="HelveticaNeue-Bold-121"/>
    <path d="M 40.203125 31.40625 
L 17.09375 31.40625 
Q 17.203125 32.90625 17.75 34.796875 
Q 18.296875 36.703125 19.640625 38.390625 
Q 21 40.09375 23.25 41.25 
Q 25.5 42.40625 28.90625 42.40625 
Q 34.09375 42.40625 36.640625 39.59375 
Q 39.203125 36.796875 40.203125 31.40625 
z
M 17.09375 22.40625 
L 54.40625 22.40625 
Q 54.796875 28.40625 53.390625 33.90625 
Q 52 39.40625 48.84375 43.703125 
Q 45.703125 48 40.796875 50.546875 
Q 35.90625 53.09375 29.296875 53.09375 
Q 23.40625 53.09375 18.546875 51 
Q 13.703125 48.90625 10.203125 45.25 
Q 6.703125 41.59375 4.796875 36.59375 
Q 2.90625 31.59375 2.90625 25.796875 
Q 2.90625 19.796875 4.75 14.796875 
Q 6.59375 9.796875 10 6.1875 
Q 13.40625 2.59375 18.296875 0.640625 
Q 23.203125 -1.296875 29.296875 -1.296875 
Q 38.09375 -1.296875 44.296875 2.703125 
Q 50.5 6.703125 53.5 16 
L 41 16 
Q 40.296875 13.59375 37.1875 11.4375 
Q 34.09375 9.296875 29.796875 9.296875 
Q 23.796875 9.296875 20.59375 12.390625 
Q 17.40625 15.5 17.09375 22.40625 
z
" id="HelveticaNeue-Bold-101"/>
    <path d="M 16.40625 16.796875 
L 2.90625 16.796875 
Q 3.09375 11.59375 5.25 8.140625 
Q 7.40625 4.703125 10.75 2.59375 
Q 14.09375 0.5 18.390625 -0.390625 
Q 22.703125 -1.296875 27.203125 -1.296875 
Q 31.59375 -1.296875 35.84375 -0.4375 
Q 40.09375 0.40625 43.390625 2.5 
Q 46.703125 4.59375 48.75 8.046875 
Q 50.796875 11.5 50.796875 16.59375 
Q 50.796875 20.203125 49.390625 22.640625 
Q 48 25.09375 45.703125 26.75 
Q 43.40625 28.40625 40.453125 29.40625 
Q 37.5 30.40625 34.40625 31.09375 
Q 31.40625 31.796875 28.5 32.390625 
Q 25.59375 33 23.34375 33.75 
Q 21.09375 34.5 19.6875 35.703125 
Q 18.296875 36.90625 18.296875 38.796875 
Q 18.296875 40.40625 19.09375 41.34375 
Q 19.90625 42.296875 21.046875 42.796875 
Q 22.203125 43.296875 23.59375 43.4375 
Q 25 43.59375 26.203125 43.59375 
Q 30 43.59375 32.796875 42.140625 
Q 35.59375 40.703125 35.90625 36.59375 
L 49.40625 36.59375 
Q 49 41.40625 46.953125 44.546875 
Q 44.90625 47.703125 41.796875 49.59375 
Q 38.703125 51.5 34.75 52.296875 
Q 30.796875 53.09375 26.59375 53.09375 
Q 22.40625 53.09375 18.40625 52.34375 
Q 14.40625 51.59375 11.203125 49.75 
Q 8 47.90625 6.046875 44.703125 
Q 4.09375 41.5 4.09375 36.5 
Q 4.09375 33.09375 5.5 30.75 
Q 6.90625 28.40625 9.203125 26.84375 
Q 11.5 25.296875 14.453125 24.34375 
Q 17.40625 23.40625 20.5 22.703125 
Q 28.09375 21.09375 32.34375 19.5 
Q 36.59375 17.90625 36.59375 14.703125 
Q 36.59375 12.796875 35.6875 11.546875 
Q 34.796875 10.296875 33.4375 9.546875 
Q 32.09375 8.796875 30.4375 8.4375 
Q 28.796875 8.09375 27.296875 8.09375 
Q 25.203125 8.09375 23.25 8.59375 
Q 21.296875 9.09375 19.796875 10.140625 
Q 18.296875 11.203125 17.34375 12.84375 
Q 16.40625 14.5 16.40625 16.796875 
z
" id="HelveticaNeue-Bold-115"/>
    <path d="M 5.796875 51.703125 
L 5.796875 0 
L 20 0 
L 20 30 
Q 20 33.796875 21.09375 36.140625 
Q 22.203125 38.5 23.75 39.75 
Q 25.296875 41 26.9375 41.453125 
Q 28.59375 41.90625 29.59375 41.90625 
Q 33 41.90625 34.75 40.75 
Q 36.5 39.59375 37.25 37.6875 
Q 38 35.796875 38.09375 33.546875 
Q 38.203125 31.296875 38.203125 29 
L 38.203125 0 
L 52.40625 0 
L 52.40625 28.796875 
Q 52.40625 31.203125 52.75 33.546875 
Q 53.09375 35.90625 54.140625 37.75 
Q 55.203125 39.59375 57.046875 40.75 
Q 58.90625 41.90625 61.90625 41.90625 
Q 64.90625 41.90625 66.65625 40.90625 
Q 68.40625 39.90625 69.296875 38.203125 
Q 70.203125 36.5 70.390625 34.203125 
Q 70.59375 31.90625 70.59375 29.296875 
L 70.59375 0 
L 84.796875 0 
L 84.796875 34.59375 
Q 84.796875 39.59375 83.390625 43.140625 
Q 82 46.703125 79.5 48.890625 
Q 77 51.09375 73.5 52.09375 
Q 70 53.09375 65.90625 53.09375 
Q 60.5 53.09375 56.546875 50.5 
Q 52.59375 47.90625 50.296875 44.5 
Q 48.203125 49.296875 44.140625 51.1875 
Q 40.09375 53.09375 35.203125 53.09375 
Q 30.09375 53.09375 26.140625 50.890625 
Q 22.203125 48.703125 19.40625 44.703125 
L 19.203125 44.703125 
L 19.203125 51.703125 
z
" id="HelveticaNeue-Bold-109"/>
   </defs>
   <g transform="translate(148.132266 13.38875)scale(0.09 -0.09)">
    <use xlink:href="#HelveticaNeue-Bold-76"/>
    <use x="59.299988" xlink:href="#HelveticaNeue-Bold-111"/>
    <use x="120.399979" xlink:href="#HelveticaNeue-Bold-99"/>
    <use x="177.799973" xlink:href="#HelveticaNeue-Bold-97"/>
    <use x="235.199966" xlink:href="#HelveticaNeue-Bold-108"/>
    <use x="260.999954" xlink:href="#HelveticaNeue-Bold-32"/>
    <use x="288.799942" xlink:href="#HelveticaNeue-Bold-97"/>
    <use x="346.199936" xlink:href="#HelveticaNeue-Bold-110"/>
    <use x="405.499924" xlink:href="#HelveticaNeue-Bold-100"/>
    <use x="466.599915" xlink:href="#HelveticaNeue-Bold-32"/>
    <use x="494.399902" xlink:href="#HelveticaNeue-Bold-103"/>
    <use x="555.499893" xlink:href="#HelveticaNeue-Bold-108"/>
    <use x="581.299881" xlink:href="#HelveticaNeue-Bold-111"/>
    <use x="642.399872" xlink:href="#HelveticaNeue-Bold-98"/>
    <use x="703.499863" xlink:href="#HelveticaNeue-Bold-97"/>
    <use x="760.899857" xlink:href="#HelveticaNeue-Bold-108"/>
    <use x="786.699844" xlink:href="#HelveticaNeue-Bold-32"/>
    <use x="814.499832" xlink:href="#HelveticaNeue-Bold-99"/>
    <use x="871.899826" xlink:href="#HelveticaNeue-Bold-111"/>
    <use x="932.999817" xlink:href="#HelveticaNeue-Bold-108"/>
    <use x="958.799805" xlink:href="#HelveticaNeue-Bold-111"/>
    <use x="1019.899796" xlink:href="#HelveticaNeue-Bold-114"/>
    <use x="1058.799789" xlink:href="#HelveticaNeue-Bold-32"/>
    <use x="1086.599777" xlink:href="#HelveticaNeue-Bold-99"/>
    <use x="1143.999771" xlink:href="#HelveticaNeue-Bold-121"/>
    <use x="1195.899765" xlink:href="#HelveticaNeue-Bold-99"/>
    <use x="1253.299759" xlink:href="#HelveticaNeue-Bold-108"/>
    <use x="1279.099747" xlink:href="#HelveticaNeue-Bold-101"/>
    <use x="1336.499741" xlink:href="#HelveticaNeue-Bold-115"/>
    <use x="1390.199738" xlink:href="#HelveticaNeue-Bold-32"/>
    <use x="1417.999725" xlink:href="#HelveticaNeue-Bold-100"/>
    <use x="1479.099716" xlink:href="#HelveticaNeue-Bold-101"/>
    <use x="1536.49971" xlink:href="#HelveticaNeue-Bold-109"/>
    <use x="1627.099701" xlink:href="#HelveticaNeue-Bold-111"/>
   </g>
  </g>
 </g>
 <defs>
  <clipPath id="p5fcf81fd01">
   <rect height="122.4" width="122.4" x="29.3" y="18.799393"/>
  </clipPath>
  <clipPath id="p5221a60ab5">
   <rect height="122.4" width="122.4" x="162.9" y="18.799393"/>
  </clipPath>
  <clipPath id="p88f5f5e49c">
   <rect height="122.4" width="122.4" x="296.5" y="18.799393"/>
  </clipPath>
 </defs>
</svg>
