<?xml version="1.0" encoding="utf-8" standalone="no"?>
<!DOCTYPE svg PUBLIC "-//W3C//DTD SVG 1.1//EN"
  "http://www.w3.org/Graphics/SVG/1.1/DTD/svg11.dtd">
<!-- Created with matplotlib (https://matplotlib.org/) -->
<svg height="215.4pt" version="1.1" viewBox="0 0 373.925 215.4" width="373.925pt" xmlns="http://www.w3.org/2000/svg" xmlns:xlink="http://www.w3.org/1999/xlink">
 <defs>
  <style type="text/css">
*{stroke-linecap:butt;stroke-linejoin:round;}
  </style>
 </defs>
 <g id="figure_1">
  <g id="patch_1">
   <path d="M 0 215.4 
L 373.925 215.4 
L 373.925 0 
L 0 0 
z
" style="fill:#f2f2f2;"/>
  </g>
  <g id="axes_1">
   <g id="patch_2">
    <path d="M 167.8625 118.4 
C 167.8625 108.945047 166.00008 99.582031 162.381826 90.846793 
C 158.763572 82.111555 153.45985 74.173973 146.774188 67.488312 
C 140.088527 60.80265 132.150945 55.498928 123.415707 51.880674 
C 114.680469 48.26242 105.317453 46.4 95.8625 46.4 
C 86.407547 46.4 77.044531 48.26242 68.309293 51.880674 
C 59.574055 55.498928 51.636473 60.80265 44.950812 67.488312 
C 38.26515 74.173973 32.961428 82.111555 29.343174 90.846793 
C 25.72492 99.582031 23.8625 108.945047 23.8625 118.4 
C 23.8625 127.854953 25.72492 137.217969 29.343174 145.953207 
C 32.961428 154.688445 38.26515 162.626027 44.950812 169.311688 
C 51.636473 175.99735 59.574055 181.301072 68.309293 184.919326 
C 77.044531 188.53758 86.407547 190.4 95.8625 190.4 
C 105.317453 190.4 114.680469 188.53758 123.415707 184.919326 
C 132.150945 181.301072 140.088527 175.99735 146.774188 169.311688 
C 153.45985 162.626027 158.763572 154.688445 162.381826 145.953207 
C 166.00008 137.217969 167.8625 127.854953 167.8625 118.4 
M 95.8625 118.4 
C 95.8625 118.4 95.8625 118.4 95.8625 118.4 
C 95.8625 118.4 95.8625 118.4 95.8625 118.4 
C 95.8625 118.4 95.8625 118.4 95.8625 118.4 
C 95.8625 118.4 95.8625 118.4 95.8625 118.4 
C 95.8625 118.4 95.8625 118.4 95.8625 118.4 
C 95.8625 118.4 95.8625 118.4 95.8625 118.4 
C 95.8625 118.4 95.8625 118.4 95.8625 118.4 
C 95.8625 118.4 95.8625 118.4 95.8625 118.4 
C 95.8625 118.4 95.8625 118.4 95.8625 118.4 
C 95.8625 118.4 95.8625 118.4 95.8625 118.4 
C 95.8625 118.4 95.8625 118.4 95.8625 118.4 
C 95.8625 118.4 95.8625 118.4 95.8625 118.4 
C 95.8625 118.4 95.8625 118.4 95.8625 118.4 
C 95.8625 118.4 95.8625 118.4 95.8625 118.4 
C 95.8625 118.4 95.8625 118.4 95.8625 118.4 
C 95.8625 118.4 95.8625 118.4 95.8625 118.4 
M 167.8625 118.4 
z
" style="fill:#ffffff;"/>
   </g>
   <g id="matplotlib.axis_1">
    <g id="xtick_1">
     <g id="line2d_1">
      <path clip-path="url(#pdfe7193b35)" d="M 95.8625 118.4 
L 167.8625 118.4 
" style="fill:none;stroke:#000000;stroke-linecap:square;stroke-linejoin:miter;stroke-opacity:0.1;stroke-width:0.6;"/>
     </g>
     <g id="text_1">
      <!-- 0 -->
      <defs>
       <path d="M 16.296875 35.296875 
Q 16.296875 37.09375 16.34375 39.640625 
Q 16.40625 42.203125 16.703125 44.890625 
Q 17 47.59375 17.703125 50.25 
Q 18.40625 52.90625 19.65625 55 
Q 20.90625 57.09375 22.84375 58.390625 
Q 24.796875 59.703125 27.703125 59.703125 
Q 30.59375 59.703125 32.59375 58.390625 
Q 34.59375 57.09375 35.890625 55 
Q 37.203125 52.90625 37.84375 50.25 
Q 38.5 47.59375 38.84375 44.890625 
Q 39.203125 42.203125 39.25 39.640625 
Q 39.296875 37.09375 39.296875 35.296875 
Q 39.296875 32.296875 39.09375 28.046875 
Q 38.90625 23.796875 37.84375 19.84375 
Q 36.796875 15.90625 34.4375 13.09375 
Q 32.09375 10.296875 27.703125 10.296875 
Q 23.40625 10.296875 21.09375 13.09375 
Q 18.796875 15.90625 17.75 19.84375 
Q 16.703125 23.796875 16.5 28.046875 
Q 16.296875 32.296875 16.296875 35.296875 
z
M 2.09375 35.296875 
Q 2.09375 24.796875 4.140625 17.75 
Q 6.203125 10.703125 9.703125 6.5 
Q 13.203125 2.296875 17.84375 0.5 
Q 22.5 -1.296875 27.703125 -1.296875 
Q 33 -1.296875 37.640625 0.5 
Q 42.296875 2.296875 45.84375 6.5 
Q 49.40625 10.703125 51.453125 17.75 
Q 53.5 24.796875 53.5 35.296875 
Q 53.5 45.5 51.453125 52.453125 
Q 49.40625 59.40625 45.84375 63.59375 
Q 42.296875 67.796875 37.640625 69.59375 
Q 33 71.40625 27.703125 71.40625 
Q 22.5 71.40625 17.84375 69.59375 
Q 13.203125 67.796875 9.703125 63.59375 
Q 6.203125 59.40625 4.140625 52.453125 
Q 2.09375 45.5 2.09375 35.296875 
z
" id="HelveticaNeue-Bold-48"/>
      </defs>
      <g transform="translate(178.360781 120.799062)scale(0.09 -0.09)">
       <use xlink:href="#HelveticaNeue-Bold-48"/>
      </g>
     </g>
    </g>
    <g id="xtick_2">
     <g id="line2d_2">
      <path clip-path="url(#pdfe7193b35)" d="M 95.8625 118.4 
L 146.774188 67.488312 
" style="fill:none;stroke:#000000;stroke-linecap:square;stroke-linejoin:miter;stroke-opacity:0.1;stroke-width:0.6;"/>
     </g>
     <g id="text_2">
      <!-- $\pi/4$ -->
      <defs>
       <path d="M 53.203125 -0.703125 
Q 49.90625 -0.703125 47.703125 0.296875 
Q 45.5 1.296875 44.25 3.046875 
Q 43 4.796875 42.453125 7.1875 
Q 41.90625 9.59375 41.90625 12.296875 
L 41.90625 41 
L 23.5 41 
L 23.5 0 
L 10 0 
L 10 41 
L 3 41 
L 3 51.703125 
L 63.296875 51.703125 
L 63.296875 41 
L 55.40625 41 
L 55.40625 16.796875 
Q 55.40625 15.703125 55.453125 14.640625 
Q 55.5 13.59375 55.890625 12.75 
Q 56.296875 11.90625 57.046875 11.40625 
Q 57.796875 10.90625 59.203125 10.90625 
Q 61.296875 10.90625 63.59375 11.90625 
L 63.59375 1.296875 
Q 61.5 0.296875 58.5 -0.203125 
Q 55.5 -0.703125 53.203125 -0.703125 
z
" id="HelveticaNeue-Bold-960"/>
       <path d="M 26.796875 73.09375 
L -1 -1.59375 
L 10.296875 -1.59375 
L 38.203125 73.09375 
z
" id="HelveticaNeue-Bold-47"/>
       <path d="M 31.203125 52.203125 
L 31.203125 27.90625 
L 12.796875 27.90625 
L 30.90625 52.203125 
z
M 31.203125 16.203125 
L 31.203125 0 
L 44.703125 0 
L 44.703125 16.203125 
L 54 16.203125 
L 54 27.90625 
L 44.703125 27.90625 
L 44.703125 70 
L 32 70 
L 1.59375 29.203125 
L 1.59375 16.203125 
z
" id="HelveticaNeue-Bold-52"/>
      </defs>
      <g transform="translate(148.766576 60.694986)scale(0.09 -0.09)">
       <use transform="translate(0 0.90625)" xlink:href="#HelveticaNeue-Bold-960"/>
       <use transform="translate(66.599991 0.90625)" xlink:href="#HelveticaNeue-Bold-47"/>
       <use transform="translate(103.699982 0.90625)" xlink:href="#HelveticaNeue-Bold-52"/>
      </g>
     </g>
    </g>
    <g id="xtick_3">
     <g id="line2d_3">
      <path clip-path="url(#pdfe7193b35)" d="M 95.8625 118.4 
L 95.8625 46.4 
" style="fill:none;stroke:#000000;stroke-linecap:square;stroke-linejoin:miter;stroke-opacity:0.1;stroke-width:0.6;"/>
     </g>
     <g id="text_3">
      <!-- $\pi/2$ -->
      <defs>
       <path d="M 3.703125 43.09375 
L 17.296875 43.09375 
Q 17.296875 45.90625 17.84375 48.75 
Q 18.40625 51.59375 19.703125 53.9375 
Q 21 56.296875 23.140625 57.75 
Q 25.296875 59.203125 28.40625 59.203125 
Q 33 59.203125 35.953125 56.34375 
Q 38.90625 53.5 38.90625 48.40625 
Q 38.90625 45.203125 37.453125 42.703125 
Q 36 40.203125 33.84375 38.203125 
Q 31.703125 36.203125 29.09375 34.546875 
Q 26.5 32.90625 24.203125 31.296875 
Q 19.703125 28.203125 15.640625 25.203125 
Q 11.59375 22.203125 8.59375 18.640625 
Q 5.59375 15.09375 3.84375 10.59375 
Q 2.09375 6.09375 2.09375 0 
L 53.5 0 
L 53.5 12.203125 
L 20.40625 12.203125 
Q 23 15.796875 26.390625 18.5 
Q 29.796875 21.203125 33.390625 23.546875 
Q 37 25.90625 40.546875 28.296875 
Q 44.09375 30.703125 46.890625 33.640625 
Q 49.703125 36.59375 51.390625 40.390625 
Q 53.09375 44.203125 53.09375 49.5 
Q 53.09375 54.59375 51.140625 58.6875 
Q 49.203125 62.796875 45.890625 65.59375 
Q 42.59375 68.40625 38.25 69.90625 
Q 33.90625 71.40625 29.09375 71.40625 
Q 22.796875 71.40625 17.9375 69.25 
Q 13.09375 67.09375 9.890625 63.25 
Q 6.703125 59.40625 5.09375 54.25 
Q 3.5 49.09375 3.703125 43.09375 
z
" id="HelveticaNeue-Bold-50"/>
      </defs>
      <g transform="translate(88.6625 35.799062)scale(0.09 -0.09)">
       <use transform="translate(0 0.90625)" xlink:href="#HelveticaNeue-Bold-960"/>
       <use transform="translate(66.599991 0.90625)" xlink:href="#HelveticaNeue-Bold-47"/>
       <use transform="translate(103.699982 0.90625)" xlink:href="#HelveticaNeue-Bold-50"/>
      </g>
     </g>
    </g>
    <g id="xtick_4">
     <g id="line2d_4">
      <path clip-path="url(#pdfe7193b35)" d="M 95.8625 118.4 
L 44.950812 67.488312 
" style="fill:none;stroke:#000000;stroke-linecap:square;stroke-linejoin:miter;stroke-opacity:0.1;stroke-width:0.6;"/>
     </g>
     <g id="text_4">
      <!-- $3\pi/4$ -->
      <defs>
       <path d="M 22.796875 41.703125 
L 22.796875 31.703125 
Q 25.40625 31.703125 28.25 31.546875 
Q 31.09375 31.40625 33.5 30.453125 
Q 35.90625 29.5 37.453125 27.390625 
Q 39 25.296875 39 21.296875 
Q 39 16.203125 35.703125 13.25 
Q 32.40625 10.296875 27.59375 10.296875 
Q 24.5 10.296875 22.25 11.390625 
Q 20 12.5 18.5 14.34375 
Q 17 16.203125 16.203125 18.75 
Q 15.40625 21.296875 15.296875 24.09375 
L 1.796875 24.09375 
Q 1.703125 18 3.546875 13.296875 
Q 5.40625 8.59375 8.796875 5.34375 
Q 12.203125 2.09375 17.046875 0.390625 
Q 21.90625 -1.296875 27.796875 -1.296875 
Q 32.90625 -1.296875 37.59375 0.203125 
Q 42.296875 1.703125 45.890625 4.59375 
Q 49.5 7.5 51.640625 11.796875 
Q 53.796875 16.09375 53.796875 21.59375 
Q 53.796875 27.59375 50.5 31.890625 
Q 47.203125 36.203125 41.40625 37.5 
L 41.40625 37.703125 
Q 46.296875 39.09375 48.75 43 
Q 51.203125 46.90625 51.203125 52 
Q 51.203125 56.703125 49.09375 60.296875 
Q 47 63.90625 43.640625 66.40625 
Q 40.296875 68.90625 36.09375 70.15625 
Q 31.90625 71.40625 27.703125 71.40625 
Q 22.296875 71.40625 17.890625 69.65625 
Q 13.5 67.90625 10.34375 64.703125 
Q 7.203125 61.5 5.453125 57.046875 
Q 3.703125 52.59375 3.5 47.203125 
L 17 47.203125 
Q 16.90625 52.59375 19.65625 56.140625 
Q 22.40625 59.703125 27.796875 59.703125 
Q 31.703125 59.703125 34.703125 57.296875 
Q 37.703125 54.90625 37.703125 50.40625 
Q 37.703125 47.40625 36.25 45.59375 
Q 34.796875 43.796875 32.546875 42.84375 
Q 30.296875 41.90625 27.6875 41.703125 
Q 25.09375 41.5 22.796875 41.703125 
z
" id="HelveticaNeue-Bold-51"/>
      </defs>
      <g transform="translate(26.083424 60.694986)scale(0.09 -0.09)">
       <use transform="translate(0 0.90625)" xlink:href="#HelveticaNeue-Bold-51"/>
       <use transform="translate(55.599991 0.90625)" xlink:href="#HelveticaNeue-Bold-960"/>
       <use transform="translate(122.199982 0.90625)" xlink:href="#HelveticaNeue-Bold-47"/>
       <use transform="translate(159.299973 0.90625)" xlink:href="#HelveticaNeue-Bold-52"/>
      </g>
     </g>
    </g>
    <g id="xtick_5">
     <g id="line2d_5">
      <path clip-path="url(#pdfe7193b35)" d="M 95.8625 118.4 
L 23.8625 118.4 
" style="fill:none;stroke:#000000;stroke-linecap:square;stroke-linejoin:miter;stroke-opacity:0.1;stroke-width:0.6;"/>
     </g>
     <g id="text_5">
      <!-- $\pi$ -->
      <g transform="translate(7.8475 120.799062)scale(0.09 -0.09)">
       <use transform="translate(0 0.296875)" xlink:href="#HelveticaNeue-Bold-960"/>
      </g>
     </g>
    </g>
    <g id="xtick_6">
     <g id="line2d_6">
      <path clip-path="url(#pdfe7193b35)" d="M 95.8625 118.4 
L 44.950812 169.311688 
" style="fill:none;stroke:#000000;stroke-linecap:square;stroke-linejoin:miter;stroke-opacity:0.1;stroke-width:0.6;"/>
     </g>
     <g id="text_6">
      <!-- $5\pi/4$ -->
      <defs>
       <path d="M 50 58.296875 
L 50 70 
L 10.90625 70 
L 4 31.296875 
L 16.796875 31.296875 
Q 18.90625 34.203125 21.296875 35.546875 
Q 23.703125 36.90625 27.5 36.90625 
Q 30.40625 36.90625 32.59375 35.90625 
Q 34.796875 34.90625 36.390625 33.09375 
Q 38 31.296875 38.796875 28.890625 
Q 39.59375 26.5 39.59375 23.796875 
Q 39.59375 21.203125 38.75 18.75 
Q 37.90625 16.296875 36.34375 14.4375 
Q 34.796875 12.59375 32.546875 11.4375 
Q 30.296875 10.296875 27.5 10.296875 
Q 22.703125 10.296875 19.59375 13.140625 
Q 16.5 16 16 20.796875 
L 1.796875 20.796875 
Q 1.90625 15.296875 4.046875 11.140625 
Q 6.203125 7 9.796875 4.203125 
Q 13.40625 1.40625 18.046875 0.046875 
Q 22.703125 -1.296875 27.796875 -1.296875 
Q 33.09375 -1.40625 37.796875 0.4375 
Q 42.5 2.296875 46.046875 5.6875 
Q 49.59375 9.09375 51.6875 13.75 
Q 53.796875 18.40625 53.796875 23.796875 
Q 53.796875 28.703125 52.34375 33.046875 
Q 50.90625 37.40625 48.15625 40.59375 
Q 45.40625 43.796875 41.40625 45.6875 
Q 37.40625 47.59375 32.203125 47.59375 
Q 28 47.59375 24.703125 46.34375 
Q 21.40625 45.09375 18.5 42.203125 
L 18.296875 42.40625 
L 21.09375 58.296875 
z
" id="HelveticaNeue-Bold-53"/>
      </defs>
      <g transform="translate(26.083424 180.903139)scale(0.09 -0.09)">
       <use transform="translate(0 0.90625)" xlink:href="#HelveticaNeue-Bold-53"/>
       <use transform="translate(55.599991 0.90625)" xlink:href="#HelveticaNeue-Bold-960"/>
       <use transform="translate(122.199982 0.90625)" xlink:href="#HelveticaNeue-Bold-47"/>
       <use transform="translate(159.299973 0.90625)" xlink:href="#HelveticaNeue-Bold-52"/>
      </g>
     </g>
    </g>
    <g id="xtick_7">
     <g id="line2d_7">
      <path clip-path="url(#pdfe7193b35)" d="M 95.8625 118.4 
L 95.8625 190.4 
" style="fill:none;stroke:#000000;stroke-linecap:square;stroke-linejoin:miter;stroke-opacity:0.1;stroke-width:0.6;"/>
     </g>
     <g id="text_7">
      <!-- $3\pi/2$ -->
      <g transform="translate(86.1875 205.799062)scale(0.09 -0.09)">
       <use transform="translate(0 0.90625)" xlink:href="#HelveticaNeue-Bold-51"/>
       <use transform="translate(55.599991 0.90625)" xlink:href="#HelveticaNeue-Bold-960"/>
       <use transform="translate(122.199982 0.90625)" xlink:href="#HelveticaNeue-Bold-47"/>
       <use transform="translate(159.299973 0.90625)" xlink:href="#HelveticaNeue-Bold-50"/>
      </g>
     </g>
    </g>
    <g id="xtick_8">
     <g id="line2d_8">
      <path clip-path="url(#pdfe7193b35)" d="M 95.8625 118.4 
L 146.774188 169.311688 
" style="fill:none;stroke:#000000;stroke-linecap:square;stroke-linejoin:miter;stroke-opacity:0.1;stroke-width:0.6;"/>
     </g>
     <g id="text_8">
      <!-- $7\pi/4$ -->
      <defs>
       <path d="M 51.703125 57.796875 
L 51.703125 70 
L 3.90625 70 
L 3.90625 56.796875 
L 37.09375 56.796875 
Q 27.09375 44.703125 20.9375 30.203125 
Q 14.796875 15.703125 13.59375 0 
L 28.796875 0 
Q 28.90625 7 30.453125 15.09375 
Q 32 23.203125 34.84375 31.09375 
Q 37.703125 39 41.953125 46 
Q 46.203125 53 51.703125 57.796875 
z
" id="HelveticaNeue-Bold-55"/>
      </defs>
      <g transform="translate(146.291576 180.903139)scale(0.09 -0.09)">
       <use transform="translate(0 0.90625)" xlink:href="#HelveticaNeue-Bold-55"/>
       <use transform="translate(55.599991 0.90625)" xlink:href="#HelveticaNeue-Bold-960"/>
       <use transform="translate(122.199982 0.90625)" xlink:href="#HelveticaNeue-Bold-47"/>
       <use transform="translate(159.299973 0.90625)" xlink:href="#HelveticaNeue-Bold-52"/>
      </g>
     </g>
    </g>
    <g id="xtick_9"/>
    <g id="xtick_10"/>
    <g id="xtick_11"/>
    <g id="xtick_12"/>
    <g id="xtick_13"/>
    <g id="xtick_14"/>
    <g id="xtick_15"/>
    <g id="xtick_16"/>
    <g id="xtick_17"/>
    <g id="xtick_18"/>
    <g id="xtick_19"/>
    <g id="xtick_20"/>
    <g id="xtick_21"/>
    <g id="xtick_22"/>
    <g id="xtick_23"/>
    <g id="xtick_24"/>
    <g id="xtick_25"/>
    <g id="xtick_26"/>
    <g id="xtick_27"/>
    <g id="xtick_28"/>
    <g id="xtick_29"/>
    <g id="xtick_30"/>
    <g id="xtick_31"/>
    <g id="xtick_32"/>
   </g>
   <g id="matplotlib.axis_2">
    <g id="ytick_1">
     <g id="line2d_9">
      <path clip-path="url(#pdfe7193b35)" d="M 95.8625 118.4 
L 95.8625 118.4 
" style="fill:none;stroke:#000000;stroke-linecap:square;stroke-linejoin:miter;stroke-opacity:0.1;stroke-width:0.6;"/>
     </g>
     <g id="text_9">
      <!-- 0 -->
      <g transform="translate(95.8625 116.771562)scale(0.09 -0.09)">
       <use xlink:href="#HelveticaNeue-Bold-48"/>
      </g>
     </g>
    </g>
    <g id="ytick_2">
     <g id="line2d_10">
      <path clip-path="url(#pdfe7193b35)" d="M 106.872381 118.4 
L 106.765234 116.867721 
L 106.445877 115.365265 
L 105.920527 113.921878 
L 105.199409 112.565652 
L 104.296558 111.322985 
L 103.229548 110.218064 
L 102.019147 109.272395 
L 100.688914 108.504384 
L 99.26474 107.928981 
L 97.774346 107.557384 
L 96.246739 107.396826 
L 94.711654 107.450432 
L 93.198969 107.717159 
L 91.738126 108.191816 
L 90.357559 108.865163 
L 89.08414 109.724095 
L 87.942654 110.751894 
L 86.955319 111.928554 
L 86.141352 113.231174 
L 85.516596 114.634399 
L 85.093211 116.110917 
L 84.879438 117.63199 
L 84.879438 119.16801 
L 85.093211 120.689083 
L 85.516596 122.165601 
L 86.141352 123.568826 
L 86.955319 124.871446 
L 87.942654 126.048106 
L 89.08414 127.075905 
L 90.357559 127.934837 
L 91.738126 128.608184 
L 93.198969 129.082841 
L 94.711654 129.349568 
L 96.246739 129.403174 
L 97.774346 129.242616 
L 99.26474 128.871019 
L 100.688914 128.295616 
L 102.019147 127.527605 
L 103.229548 126.581936 
L 104.296558 125.477015 
L 105.199409 124.234348 
L 105.920527 122.878122 
L 106.445877 121.434735 
L 106.765234 119.932279 
L 106.872381 118.4 
L 106.872381 118.4 
" style="fill:none;stroke:#000000;stroke-linecap:square;stroke-linejoin:miter;stroke-opacity:0.1;stroke-width:0.6;"/>
     </g>
     <g id="text_10">
      <!-- 2 -->
      <g transform="translate(103.647662 108.986401)scale(0.09 -0.09)">
       <use xlink:href="#HelveticaNeue-Bold-50"/>
      </g>
     </g>
    </g>
    <g id="ytick_3">
     <g id="line2d_11">
      <path clip-path="url(#pdfe7193b35)" d="M 117.882262 118.4 
L 117.761636 116.098308 
L 117.401077 113.821834 
L 116.804538 111.595519 
L 115.978554 109.443756 
L 114.932173 107.390119 
L 113.676862 105.457109 
L 112.226372 103.665903 
L 110.596597 102.036128 
L 108.805391 100.585638 
L 106.872381 99.330327 
L 104.818744 98.283946 
L 102.666981 97.457962 
L 100.440666 96.861423 
L 98.164192 96.500864 
L 95.8625 96.380238 
L 93.560808 96.500864 
L 91.284334 96.861423 
L 89.058019 97.457962 
L 86.906256 98.283946 
L 84.852619 99.330327 
L 82.919609 100.585638 
L 81.128403 102.036128 
L 79.498628 103.665903 
L 78.048138 105.457109 
L 76.792827 107.390119 
L 75.746446 109.443756 
L 74.920462 111.595519 
L 74.323923 113.821834 
L 73.963364 116.098308 
L 73.842738 118.4 
L 73.963364 120.701692 
L 74.323923 122.978166 
L 74.920462 125.204481 
L 75.746446 127.356244 
L 76.792827 129.409881 
L 78.048138 131.342891 
L 79.498628 133.134097 
L 81.128403 134.763872 
L 82.919609 136.214362 
L 84.852619 137.469673 
L 86.906256 138.516054 
L 89.058019 139.342038 
L 91.284334 139.938577 
L 93.560808 140.299136 
L 95.8625 140.419762 
L 98.164192 140.299136 
L 100.440666 139.938577 
L 102.666981 139.342038 
L 104.818744 138.516054 
L 106.872381 137.469673 
L 108.805391 136.214362 
L 110.596597 134.763872 
L 112.226372 133.134097 
L 113.676862 131.342891 
L 114.932173 129.409881 
L 115.978554 127.356244 
L 116.804538 125.204481 
L 117.401077 122.978166 
L 117.761636 120.701692 
L 117.882262 118.4 
L 117.882262 118.4 
" style="fill:none;stroke:#000000;stroke-linecap:square;stroke-linejoin:miter;stroke-opacity:0.1;stroke-width:0.6;"/>
     </g>
     <g id="text_11">
      <!-- 4 -->
      <g transform="translate(111.432823 101.201239)scale(0.09 -0.09)">
       <use xlink:href="#HelveticaNeue-Bold-52"/>
      </g>
     </g>
    </g>
    <g id="ytick_4">
     <g id="line2d_12">
      <path clip-path="url(#pdfe7193b35)" d="M 128.892143 118.4 
L 128.811685 116.095969 
L 128.570701 113.803162 
L 128.170366 111.532751 
L 127.612631 109.295796 
L 126.900212 107.103197 
L 126.03658 104.965634 
L 125.025944 102.893522 
L 123.873226 100.896956 
L 122.584043 98.985663 
L 121.164675 97.168955 
L 119.622037 95.455682 
L 117.963645 93.854192 
L 116.197579 92.372286 
L 114.332442 91.017185 
L 112.377322 89.79549 
L 110.341743 88.713153 
L 108.235622 87.775448 
L 106.069221 86.986943 
L 103.853094 86.351478 
L 101.598037 85.872151 
L 99.315038 85.551297 
L 97.015218 85.390478 
L 94.709782 85.390478 
L 92.409962 85.551297 
L 90.126963 85.872151 
L 87.871906 86.351478 
L 85.655779 86.986943 
L 83.489378 87.775448 
L 81.383257 88.713153 
L 79.347678 89.79549 
L 77.392558 91.017185 
L 75.527421 92.372286 
L 73.761355 93.854192 
L 72.102963 95.455682 
L 70.560325 97.168955 
L 69.140957 98.985663 
L 67.851774 100.896956 
L 66.699056 102.893522 
L 65.68842 104.965634 
L 64.824788 107.103197 
L 64.112369 109.295796 
L 63.554634 111.532751 
L 63.154299 113.803162 
L 62.913315 116.095969 
L 62.832857 118.4 
L 62.913315 120.704031 
L 63.154299 122.996838 
L 63.554634 125.267249 
L 64.112369 127.504204 
L 64.824788 129.696803 
L 65.68842 131.834366 
L 66.699056 133.906478 
L 67.851774 135.903044 
L 69.140957 137.814337 
L 70.560325 139.631045 
L 72.102963 141.344318 
L 73.761355 142.945808 
L 75.527421 144.427714 
L 77.392558 145.782815 
L 79.347678 147.00451 
L 81.383257 148.086847 
L 83.489378 149.024552 
L 85.655779 149.813057 
L 87.871906 150.448522 
L 90.126963 150.927849 
L 92.409962 151.248703 
L 94.709782 151.409522 
L 97.015218 151.409522 
L 99.315038 151.248703 
L 101.598037 150.927849 
L 103.853094 150.448522 
L 106.069221 149.813057 
L 108.235622 149.024552 
L 110.341743 148.086847 
L 112.377322 147.00451 
L 114.332442 145.782815 
L 116.197579 144.427714 
L 117.963645 142.945808 
L 119.622037 141.344318 
L 121.164675 139.631045 
L 122.584043 137.814337 
L 123.873226 135.903044 
L 125.025944 133.906478 
L 126.03658 131.834366 
L 126.900212 129.696803 
L 127.612631 127.504204 
L 128.170366 125.267249 
L 128.570701 122.996838 
L 128.811685 120.704031 
L 128.892143 118.4 
L 128.892143 118.4 
" style="fill:none;stroke:#000000;stroke-linecap:square;stroke-linejoin:miter;stroke-opacity:0.1;stroke-width:0.6;"/>
     </g>
     <g id="text_12">
      <!-- 6 -->
      <defs>
       <path d="M 28.59375 36.296875 
Q 31.296875 36.296875 33.34375 35.140625 
Q 35.40625 34 36.703125 32.140625 
Q 38 30.296875 38.640625 27.9375 
Q 39.296875 25.59375 39.296875 23.09375 
Q 39.296875 20.703125 38.59375 18.390625 
Q 37.90625 16.09375 36.5 14.296875 
Q 35.09375 12.5 33.140625 11.390625 
Q 31.203125 10.296875 28.59375 10.296875 
Q 25.90625 10.296875 23.796875 11.390625 
Q 21.703125 12.5 20.25 14.34375 
Q 18.796875 16.203125 18.046875 18.546875 
Q 17.296875 20.90625 17.296875 23.296875 
Q 17.296875 25.90625 18 28.25 
Q 18.703125 30.59375 20.09375 32.390625 
Q 21.5 34.203125 23.640625 35.25 
Q 25.796875 36.296875 28.59375 36.296875 
z
M 38.796875 52 
L 52.296875 52 
Q 51.703125 56.703125 49.796875 60.296875 
Q 47.90625 63.90625 44.90625 66.34375 
Q 41.90625 68.796875 38 70.09375 
Q 34.09375 71.40625 29.59375 71.40625 
Q 22.09375 71.40625 16.890625 68.09375 
Q 11.703125 64.796875 8.390625 59.546875 
Q 5.09375 54.296875 3.59375 47.796875 
Q 2.09375 41.296875 2.09375 34.796875 
Q 2.09375 28.09375 3.296875 21.640625 
Q 4.5 15.203125 7.59375 10.09375 
Q 10.703125 5 15.890625 1.84375 
Q 21.09375 -1.296875 29 -1.296875 
Q 34.5 -1.296875 39 0.640625 
Q 43.5 2.59375 46.75 6.046875 
Q 50 9.5 51.75 14.140625 
Q 53.5 18.796875 53.5 24.203125 
Q 53.5 28.40625 52.203125 32.5 
Q 50.90625 36.59375 48.09375 39.796875 
Q 45.09375 43.09375 40.796875 45.046875 
Q 36.5 47 32 47 
Q 26.90625 47 23 45.203125 
Q 19.09375 43.40625 16.203125 39.203125 
L 16 39.40625 
Q 16.09375 42.296875 16.796875 46 
Q 17.5 49.703125 19 52.953125 
Q 20.5 56.203125 23.046875 58.453125 
Q 25.59375 60.703125 29.40625 60.703125 
Q 33.09375 60.703125 35.59375 58.09375 
Q 38.09375 55.5 38.796875 52 
z
" id="HelveticaNeue-Bold-54"/>
      </defs>
      <g transform="translate(119.217985 93.416078)scale(0.09 -0.09)">
       <use xlink:href="#HelveticaNeue-Bold-54"/>
      </g>
     </g>
    </g>
    <g id="ytick_5">
     <g id="line2d_13">
      <path clip-path="url(#pdfe7193b35)" d="M 139.902024 118.4 
L 139.794746 115.327958 
L 139.473435 112.270883 
L 138.939655 109.243668 
L 138.196008 106.261062 
L 137.246116 103.337596 
L 136.094607 100.487512 
L 134.747092 97.724696 
L 133.210135 95.062608 
L 131.491224 92.514217 
L 129.598733 90.091939 
L 127.541883 87.807576 
L 125.330694 85.672255 
L 122.975938 83.696381 
L 120.489089 81.88958 
L 117.882262 80.260653 
L 115.168157 78.817538 
L 112.359996 77.567264 
L 109.471461 76.515924 
L 106.516625 75.668638 
L 103.509883 75.029535 
L 100.465884 74.601729 
L 97.399457 74.387303 
L 94.325543 74.387303 
L 91.259116 74.601729 
L 88.215117 75.029535 
L 85.208375 75.668638 
L 82.253539 76.515924 
L 79.365004 77.567264 
L 76.556843 78.817538 
L 73.842738 80.260653 
L 71.235911 81.88958 
L 68.749062 83.696381 
L 66.394306 85.672255 
L 64.183117 87.807576 
L 62.126267 90.091939 
L 60.233776 92.514217 
L 58.514865 95.062608 
L 56.977908 97.724696 
L 55.630393 100.487512 
L 54.478884 103.337596 
L 53.528992 106.261062 
L 52.785345 109.243668 
L 52.251565 112.270883 
L 51.930254 115.327958 
L 51.822976 118.4 
L 51.930254 121.472042 
L 52.251565 124.529117 
L 52.785345 127.556332 
L 53.528992 130.538938 
L 54.478884 133.462404 
L 55.630393 136.312488 
L 56.977908 139.075304 
L 58.514865 141.737392 
L 60.233776 144.285783 
L 62.126267 146.708061 
L 64.183117 148.992424 
L 66.394306 151.127745 
L 68.749062 153.103619 
L 71.235911 154.91042 
L 73.842738 156.539347 
L 76.556843 157.982462 
L 79.365004 159.232736 
L 82.253539 160.284076 
L 85.208375 161.131362 
L 88.215117 161.770465 
L 91.259116 162.198271 
L 94.325543 162.412697 
L 97.399457 162.412697 
L 100.465884 162.198271 
L 103.509883 161.770465 
L 106.516625 161.131362 
L 109.471461 160.284076 
L 112.359996 159.232736 
L 115.168157 157.982462 
L 117.882262 156.539347 
L 120.489089 154.91042 
L 122.975938 153.103619 
L 125.330694 151.127745 
L 127.541883 148.992424 
L 129.598733 146.708061 
L 131.491224 144.285783 
L 133.210135 141.737392 
L 134.747092 139.075304 
L 136.094607 136.312488 
L 137.246116 133.462404 
L 138.196008 130.538938 
L 138.939655 127.556332 
L 139.473435 124.529117 
L 139.794746 121.472042 
L 139.902024 118.4 
L 139.902024 118.4 
" style="fill:none;stroke:#000000;stroke-linecap:square;stroke-linejoin:miter;stroke-opacity:0.1;stroke-width:0.6;"/>
     </g>
     <g id="text_13">
      <!-- 8 -->
      <defs>
       <path d="M 17.203125 51 
Q 17.203125 53.40625 18.046875 55.203125 
Q 18.90625 57 20.40625 58.203125 
Q 21.90625 59.40625 23.84375 60.046875 
Q 25.796875 60.703125 27.90625 60.703125 
Q 31.203125 60.703125 33.25 59.703125 
Q 35.296875 58.703125 36.4375 57.203125 
Q 37.59375 55.703125 38 54.046875 
Q 38.40625 52.40625 38.40625 51 
Q 38.40625 46.5 35.40625 44.140625 
Q 32.40625 41.796875 27.90625 41.796875 
Q 23.59375 41.796875 20.390625 44.140625 
Q 17.203125 46.5 17.203125 51 
z
M 4.296875 52.296875 
Q 4.296875 47.09375 6.890625 43.1875 
Q 9.5 39.296875 14.59375 37.90625 
L 14.59375 37.703125 
Q 8.296875 36.203125 4.84375 31.703125 
Q 1.40625 27.203125 1.40625 20.5 
Q 1.40625 14.796875 3.65625 10.6875 
Q 5.90625 6.59375 9.65625 3.890625 
Q 13.40625 1.203125 18.15625 -0.046875 
Q 22.90625 -1.296875 28 -1.296875 
Q 32.90625 -1.296875 37.59375 0.046875 
Q 42.296875 1.40625 46 4.09375 
Q 49.703125 6.796875 51.953125 10.890625 
Q 54.203125 15 54.203125 20.59375 
Q 54.203125 27.203125 50.796875 31.75 
Q 47.40625 36.296875 41.09375 37.703125 
L 41.09375 37.90625 
Q 46.203125 39.59375 48.75 43.5 
Q 51.296875 47.40625 51.296875 52.59375 
Q 51.296875 55.203125 50.09375 58.453125 
Q 48.90625 61.703125 46.15625 64.546875 
Q 43.40625 67.40625 38.90625 69.40625 
Q 34.40625 71.40625 27.90625 71.40625 
Q 23.59375 71.40625 19.390625 70.203125 
Q 15.203125 69 11.84375 66.59375 
Q 8.5 64.203125 6.390625 60.59375 
Q 4.296875 57 4.296875 52.296875 
z
M 15.59375 21.203125 
Q 15.59375 26.59375 19.1875 29.4375 
Q 22.796875 32.296875 28 32.296875 
Q 30.5 32.296875 32.640625 31.5 
Q 34.796875 30.703125 36.4375 29.203125 
Q 38.09375 27.703125 39.046875 25.640625 
Q 40 23.59375 40 21.09375 
Q 40 18.5 39.09375 16.296875 
Q 38.203125 14.09375 36.546875 12.546875 
Q 34.90625 11 32.75 10.140625 
Q 30.59375 9.296875 28 9.296875 
Q 25.5 9.296875 23.203125 10.140625 
Q 20.90625 11 19.25 12.546875 
Q 17.59375 14.09375 16.59375 16.296875 
Q 15.59375 18.5 15.59375 21.203125 
z
" id="HelveticaNeue-Bold-56"/>
      </defs>
      <g transform="translate(127.003146 85.630916)scale(0.09 -0.09)">
       <use xlink:href="#HelveticaNeue-Bold-56"/>
      </g>
     </g>
    </g>
    <g id="ytick_6">
     <g id="line2d_14">
      <path clip-path="url(#pdfe7193b35)" d="M 150.911905 118.4 
L 150.777808 114.559948 
L 150.376168 110.738604 
L 149.708944 106.954585 
L 148.779385 103.226327 
L 147.59202 99.571995 
L 146.152634 96.00939 
L 144.46824 92.55587 
L 142.547043 89.22826 
L 140.398404 86.042771 
L 138.032791 83.014924 
L 135.461728 80.15947 
L 132.697742 77.490319 
L 129.754298 75.020477 
L 126.645737 72.761975 
L 123.387203 70.725817 
L 119.994571 68.921922 
L 116.48437 67.35908 
L 112.873702 66.044904 
L 109.180156 64.985797 
L 105.421729 64.186919 
L 101.61673 63.652161 
L 97.783697 63.384129 
L 93.941303 63.384129 
L 90.10827 63.652161 
L 86.303271 64.186919 
L 82.544844 64.985797 
L 78.851298 66.044904 
L 75.24063 67.35908 
L 71.730429 68.921922 
L 68.337797 70.725817 
L 65.079263 72.761975 
L 61.970702 75.020477 
L 59.027258 77.490319 
L 56.263272 80.15947 
L 53.692209 83.014924 
L 51.326596 86.042771 
L 49.177957 89.22826 
L 47.25676 92.55587 
L 45.572366 96.00939 
L 44.13298 99.571995 
L 42.945615 103.226327 
L 42.016056 106.954585 
L 41.348832 110.738604 
L 40.947192 114.559948 
L 40.813095 118.4 
L 40.947192 122.240052 
L 41.348832 126.061396 
L 42.016056 129.845415 
L 42.945615 133.573673 
L 44.13298 137.228005 
L 45.572366 140.79061 
L 47.25676 144.24413 
L 49.177957 147.57174 
L 51.326596 150.757229 
L 53.692209 153.785076 
L 56.263272 156.64053 
L 59.027258 159.309681 
L 61.970702 161.779523 
L 65.079263 164.038025 
L 68.337797 166.074183 
L 71.730429 167.878078 
L 75.24063 169.44092 
L 78.851298 170.755096 
L 82.544844 171.814203 
L 86.303271 172.613081 
L 90.10827 173.147839 
L 93.941303 173.415871 
L 97.783697 173.415871 
L 101.61673 173.147839 
L 105.421729 172.613081 
L 109.180156 171.814203 
L 112.873702 170.755096 
L 116.48437 169.44092 
L 119.994571 167.878078 
L 123.387203 166.074183 
L 126.645737 164.038025 
L 129.754298 161.779523 
L 132.697742 159.309681 
L 135.461728 156.64053 
L 138.032791 153.785076 
L 140.398404 150.757229 
L 142.547043 147.57174 
L 144.46824 144.24413 
L 146.152634 140.79061 
L 147.59202 137.228005 
L 148.779385 133.573673 
L 149.708944 129.845415 
L 150.376168 126.061396 
L 150.777808 122.240052 
L 150.911905 118.4 
L 150.911905 118.4 
" style="fill:none;stroke:#000000;stroke-linecap:square;stroke-linejoin:miter;stroke-opacity:0.1;stroke-width:0.6;"/>
     </g>
     <g id="text_14">
      <!-- 10 -->
      <defs>
       <path d="M 39.203125 0 
L 39.203125 70 
L 27.90625 70 
Q 27.296875 66 25.390625 63.296875 
Q 23.5 60.59375 20.75 58.9375 
Q 18 57.296875 14.546875 56.640625 
Q 11.09375 56 7.40625 56.09375 
L 7.40625 45.40625 
L 25 45.40625 
L 25 0 
z
" id="HelveticaNeue-Bold-49"/>
      </defs>
      <g transform="translate(134.788308 77.845755)scale(0.09 -0.09)">
       <use xlink:href="#HelveticaNeue-Bold-49"/>
       <use x="55.599991" xlink:href="#HelveticaNeue-Bold-48"/>
      </g>
     </g>
    </g>
    <g id="ytick_7">
     <g id="line2d_15">
      <path clip-path="url(#pdfe7193b35)" d="M 161.921786 118.4 
L 161.760869 113.791937 
L 161.278902 109.206324 
L 160.478232 104.665502 
L 159.362762 100.191593 
L 157.937924 95.806393 
L 156.210661 91.531268 
L 154.189388 87.387044 
L 151.883952 83.393912 
L 149.305585 79.571326 
L 146.466849 75.937909 
L 143.381574 72.511364 
L 140.06479 69.308383 
L 136.532658 66.344572 
L 132.802384 63.63437 
L 128.892143 61.19098 
L 124.820985 59.026307 
L 120.608744 57.150896 
L 116.275942 55.573885 
L 111.843688 54.302957 
L 107.333575 53.344303 
L 102.767576 52.702593 
L 98.167936 52.380955 
L 93.557064 52.380955 
L 88.957424 52.702593 
L 84.391425 53.344303 
L 79.881312 54.302957 
L 75.449058 55.573885 
L 71.116256 57.150896 
L 66.904015 59.026307 
L 62.832857 61.19098 
L 58.922616 63.63437 
L 55.192342 66.344572 
L 51.66021 69.308383 
L 48.343426 72.511364 
L 45.258151 75.937909 
L 42.419415 79.571326 
L 39.841048 83.393912 
L 37.535612 87.387044 
L 35.514339 91.531268 
L 33.787076 95.806393 
L 32.362238 100.191593 
L 31.246768 104.665502 
L 30.446098 109.206324 
L 29.964131 113.791937 
L 29.803214 118.4 
L 29.964131 123.008063 
L 30.446098 127.593676 
L 31.246768 132.134498 
L 32.362238 136.608407 
L 33.787076 140.993607 
L 35.514339 145.268732 
L 37.535612 149.412956 
L 39.841048 153.406088 
L 42.419415 157.228674 
L 45.258151 160.862091 
L 48.343426 164.288636 
L 51.66021 167.491617 
L 55.192342 170.455428 
L 58.922616 173.16563 
L 62.832857 175.60902 
L 66.904015 177.773693 
L 71.116256 179.649104 
L 75.449058 181.226115 
L 79.881312 182.497043 
L 84.391425 183.455697 
L 88.957424 184.097407 
L 93.557064 184.419045 
L 98.167936 184.419045 
L 102.767576 184.097407 
L 107.333575 183.455697 
L 111.843688 182.497043 
L 116.275942 181.226115 
L 120.608744 179.649104 
L 124.820985 177.773693 
L 128.892143 175.60902 
L 132.802384 173.16563 
L 136.532658 170.455428 
L 140.06479 167.491617 
L 143.381574 164.288636 
L 146.466849 160.862091 
L 149.305585 157.228674 
L 151.883952 153.406088 
L 154.189388 149.412956 
L 156.210661 145.268732 
L 157.937924 140.993607 
L 159.362762 136.608407 
L 160.478232 132.134498 
L 161.278902 127.593676 
L 161.760869 123.008063 
L 161.921786 118.4 
L 161.921786 118.4 
" style="fill:none;stroke:#000000;stroke-linecap:square;stroke-linejoin:miter;stroke-opacity:0.1;stroke-width:0.6;"/>
     </g>
     <g id="text_15">
      <!-- 12 -->
      <g transform="translate(142.573469 70.060593)scale(0.09 -0.09)">
       <use xlink:href="#HelveticaNeue-Bold-49"/>
       <use x="55.599991" xlink:href="#HelveticaNeue-Bold-50"/>
      </g>
     </g>
    </g>
    <g id="ytick_8"/>
    <g id="ytick_9"/>
    <g id="ytick_10"/>
    <g id="ytick_11"/>
    <g id="ytick_12"/>
    <g id="ytick_13"/>
    <g id="ytick_14"/>
    <g id="ytick_15"/>
    <g id="ytick_16"/>
    <g id="ytick_17"/>
    <g id="ytick_18"/>
    <g id="ytick_19"/>
    <g id="ytick_20"/>
    <g id="ytick_21"/>
    <g id="ytick_22"/>
    <g id="ytick_23"/>
    <g id="ytick_24"/>
    <g id="ytick_25"/>
    <g id="ytick_26"/>
    <g id="ytick_27"/>
   </g>
   <g id="line2d_16">
    <path clip-path="url(#pdfe7193b35)" d="M 98.996061 118.4 
L 100.796752 116.706069 
L 102.92709 112.901409 
L 103.571596 106.60035 
L 100.528548 99.974193 
L 93.872659 94.38619 
L 84.307303 92.056804 
L 75.83102 96.640012 
L 66.913891 102.733796 
L 59.40623 112.316525 
L 57.756954 124.758691 
L 61.38417 137.058739 
L 67.339396 149.38435 
L 77.135887 161.092379 
L 91.625925 169.527853 
L 109.591293 172.613776 
L 128.54708 168.427474 
L 144.295753 156.097114 
L 159.017371 140.081095 
L 167.8625 118.4 
" style="fill:none;stroke:#e24a33;stroke-linecap:square;stroke-linejoin:miter;stroke-width:3;"/>
   </g>
   <g id="line2d_17">
    <path clip-path="url(#pdfe7193b35)" d="M 99.285753 118.4 
L 103.555838 115.758874 
L 105.584329 110.833197 
L 103.839843 106.189768 
L 99.775106 102.949468 
L 94.188165 98.193787 
L 86.673721 97.451693 
L 79.495163 100.620333 
L 73.4807 106.287576 
L 69.602566 114.017992 
L 66.835053 123.243824 
L 69.303845 132.772825 
L 74.421609 141.691016 
L 82.565733 148.713576 
L 92.710309 156.441283 
L 105.92303 158.128136 
L 119.669458 154.839262 
L 132.465333 146.889128 
L 143.848188 134.873508 
L 151.677573 118.4 
" style="fill:none;stroke:#348abd;stroke-linecap:square;stroke-linejoin:miter;stroke-width:3;"/>
   </g>
   <g id="line2d_18">
    <path clip-path="url(#pdfe7193b35)" d="M 100.467054 118.4 
L 101.432614 116.487778 
L 102.273498 113.41012 
L 102.276528 108.582599 
L 100.086998 101.717835 
L 94.181186 98.109557 
L 86.977484 98.144203 
L 77.939446 98.930373 
L 70.019345 104.414384 
L 61.846988 112.723815 
L 59.957674 124.391456 
L 59.204477 138.23833 
L 64.213342 152.78015 
L 75.732701 164.291319 
L 91.679938 168.876021 
L 109.567113 172.518292 
L 126.553264 165.375711 
L 142.370416 154.598564 
L 152.663701 137.899877 
L 156.693353 118.4 
" style="fill:none;stroke:#988ed5;stroke-linecap:square;stroke-linejoin:miter;stroke-width:3;"/>
   </g>
   <g id="line2d_19">
    <path clip-path="url(#pdfe7193b35)" d="M 101.34698 118.4 
L 102.152301 116.240709 
L 103.786237 112.232708 
L 102.754516 107.850984 
L 99.854017 102.637854 
L 94.36619 100.342225 
L 87.560691 99.473782 
L 79.619473 100.755369 
L 72.810162 105.924698 
L 65.171438 113.278568 
L 62.48102 123.970384 
L 61.78012 136.844462 
L 68.226948 148.420212 
L 78.862415 157.15629 
L 92.350226 160.786842 
L 107.095 162.756139 
L 123.057098 160.024431 
L 138.261925 151.400797 
L 149.438553 136.792682 
L 156.151102 118.4 
" style="fill:none;stroke:#777777;stroke-linecap:square;stroke-linejoin:miter;stroke-width:3;"/>
   </g>
   <g id="line2d_20">
    <path clip-path="url(#pdfe7193b35)" d="M 98.212918 118.4 
L 101.076536 116.610019 
L 101.049225 114.36301 
L 100.673004 111.036976 
L 98.855411 106.581262 
L 94.761571 105.113768 
L 90.304133 105.728201 
L 85.988083 107.673524 
L 79.334542 109.455517 
L 75.740358 115.042208 
L 71.029348 122.54392 
L 73.334024 130.591802 
L 76.197794 139.761565 
L 83.356041 146.911854 
L 92.94973 153.551907 
L 104.749317 153.493245 
L 115.911553 149.087361 
L 126.91751 142.571084 
L 134.700009 131.732934 
L 140.756605 118.4 
" style="fill:none;stroke:#fbc15e;stroke-linecap:square;stroke-linejoin:miter;stroke-width:3;"/>
   </g>
   <g id="patch_3">
    <path d="M 167.8625 118.4 
C 167.8625 108.945047 166.00008 99.582031 162.381826 90.846793 
C 158.763572 82.111555 153.45985 74.173973 146.774188 67.488312 
C 140.088527 60.80265 132.150945 55.498928 123.415707 51.880674 
C 114.680469 48.26242 105.317453 46.4 95.8625 46.4 
C 86.407547 46.4 77.044531 48.26242 68.309293 51.880674 
C 59.574055 55.498928 51.636473 60.80265 44.950812 67.488312 
C 38.26515 74.173973 32.961428 82.111555 29.343174 90.846793 
C 25.72492 99.582031 23.8625 108.945047 23.8625 118.4 
C 23.8625 127.854953 25.72492 137.217969 29.343174 145.953207 
C 32.961428 154.688445 38.26515 162.626027 44.950812 169.311688 
C 51.636473 175.99735 59.574055 181.301072 68.309293 184.919326 
C 77.044531 188.53758 86.407547 190.4 95.8625 190.4 
C 105.317453 190.4 114.680469 188.53758 123.415707 184.919326 
C 132.150945 181.301072 140.088527 175.99735 146.774188 169.311688 
C 153.45985 162.626027 158.763572 154.688445 162.381826 145.953207 
C 166.00008 137.217969 167.8625 127.854953 167.8625 118.4 
" style="fill:none;stroke:#000000;stroke-linecap:square;stroke-linejoin:miter;stroke-width:1.2;"/>
   </g>
   <g id="text_16">
    <!-- Line 1 -->
    <defs>
     <path d="M 6.90625 71.40625 
L 6.90625 0 
L 57.40625 0 
L 57.40625 13.203125 
L 22.59375 13.203125 
L 22.59375 71.40625 
z
" id="HelveticaNeue-Bold-76"/>
     <path d="M 20 59.703125 
L 20 71.40625 
L 5.796875 71.40625 
L 5.796875 59.703125 
z
M 5.796875 51.703125 
L 5.796875 0 
L 20 0 
L 20 51.703125 
z
" id="HelveticaNeue-Bold-105"/>
     <path d="M 5.40625 51.703125 
L 5.40625 0 
L 19.59375 0 
L 19.59375 27.09375 
Q 19.59375 35 22.1875 38.453125 
Q 24.796875 41.90625 30.59375 41.90625 
Q 35.703125 41.90625 37.703125 38.75 
Q 39.703125 35.59375 39.703125 29.203125 
L 39.703125 0 
L 53.90625 0 
L 53.90625 31.796875 
Q 53.90625 36.59375 53.046875 40.546875 
Q 52.203125 44.5 50.09375 47.25 
Q 48 50 44.34375 51.546875 
Q 40.703125 53.09375 35 53.09375 
Q 30.5 53.09375 26.203125 51.046875 
Q 21.90625 49 19.203125 44.5 
L 18.90625 44.5 
L 18.90625 51.703125 
z
" id="HelveticaNeue-Bold-110"/>
     <path d="M 40.203125 31.40625 
L 17.09375 31.40625 
Q 17.203125 32.90625 17.75 34.796875 
Q 18.296875 36.703125 19.640625 38.390625 
Q 21 40.09375 23.25 41.25 
Q 25.5 42.40625 28.90625 42.40625 
Q 34.09375 42.40625 36.640625 39.59375 
Q 39.203125 36.796875 40.203125 31.40625 
z
M 17.09375 22.40625 
L 54.40625 22.40625 
Q 54.796875 28.40625 53.390625 33.90625 
Q 52 39.40625 48.84375 43.703125 
Q 45.703125 48 40.796875 50.546875 
Q 35.90625 53.09375 29.296875 53.09375 
Q 23.40625 53.09375 18.546875 51 
Q 13.703125 48.90625 10.203125 45.25 
Q 6.703125 41.59375 4.796875 36.59375 
Q 2.90625 31.59375 2.90625 25.796875 
Q 2.90625 19.796875 4.75 14.796875 
Q 6.59375 9.796875 10 6.1875 
Q 13.40625 2.59375 18.296875 0.640625 
Q 23.203125 -1.296875 29.296875 -1.296875 
Q 38.09375 -1.296875 44.296875 2.703125 
Q 50.5 6.703125 53.5 16 
L 41 16 
Q 40.296875 13.59375 37.1875 11.4375 
Q 34.09375 9.296875 29.796875 9.296875 
Q 23.796875 9.296875 20.59375 12.390625 
Q 17.40625 15.5 17.09375 22.40625 
z
" id="HelveticaNeue-Bold-101"/>
     <path id="HelveticaNeue-Bold-32"/>
    </defs>
    <g transform="translate(83.029063 25.044062)scale(0.09 -0.09)">
     <use xlink:href="#HelveticaNeue-Bold-76"/>
     <use x="59.299988" xlink:href="#HelveticaNeue-Bold-105"/>
     <use x="85.099976" xlink:href="#HelveticaNeue-Bold-110"/>
     <use x="144.399963" xlink:href="#HelveticaNeue-Bold-101"/>
     <use x="201.799957" xlink:href="#HelveticaNeue-Bold-32"/>
     <use x="229.599945" xlink:href="#HelveticaNeue-Bold-49"/>
    </g>
   </g>
  </g>
  <g id="axes_2">
   <g id="patch_4">
    <path d="M 351.225 118.4 
C 351.225 108.945047 349.36258 99.582031 345.744326 90.846793 
C 342.126072 82.111555 336.82235 74.173973 330.136688 67.488312 
C 323.451027 60.80265 315.513445 55.498928 306.778207 51.880674 
C 298.042969 48.26242 288.679953 46.4 279.225 46.4 
C 269.770047 46.4 260.407031 48.26242 251.671793 51.880674 
C 242.936555 55.498928 234.998973 60.80265 228.313312 67.488312 
C 221.62765 74.173973 216.323928 82.111555 212.705674 90.846793 
C 209.08742 99.582031 207.225 108.945047 207.225 118.4 
C 207.225 127.854953 209.08742 137.217969 212.705674 145.953207 
C 216.323928 154.688445 221.62765 162.626027 228.313312 169.311688 
C 234.998973 175.99735 242.936555 181.301072 251.671793 184.919326 
C 260.407031 188.53758 269.770047 190.4 279.225 190.4 
C 288.679953 190.4 298.042969 188.53758 306.778207 184.919326 
C 315.513445 181.301072 323.451027 175.99735 330.136688 169.311688 
C 336.82235 162.626027 342.126072 154.688445 345.744326 145.953207 
C 349.36258 137.217969 351.225 127.854953 351.225 118.4 
M 279.225 118.4 
C 279.225 118.4 279.225 118.4 279.225 118.4 
C 279.225 118.4 279.225 118.4 279.225 118.4 
C 279.225 118.4 279.225 118.4 279.225 118.4 
C 279.225 118.4 279.225 118.4 279.225 118.4 
C 279.225 118.4 279.225 118.4 279.225 118.4 
C 279.225 118.4 279.225 118.4 279.225 118.4 
C 279.225 118.4 279.225 118.4 279.225 118.4 
C 279.225 118.4 279.225 118.4 279.225 118.4 
C 279.225 118.4 279.225 118.4 279.225 118.4 
C 279.225 118.4 279.225 118.4 279.225 118.4 
C 279.225 118.4 279.225 118.4 279.225 118.4 
C 279.225 118.4 279.225 118.4 279.225 118.4 
C 279.225 118.4 279.225 118.4 279.225 118.4 
C 279.225 118.4 279.225 118.4 279.225 118.4 
C 279.225 118.4 279.225 118.4 279.225 118.4 
C 279.225 118.4 279.225 118.4 279.225 118.4 
M 351.225 118.4 
z
" style="fill:#ffffff;"/>
   </g>
   <g id="matplotlib.axis_3">
    <g id="xtick_33">
     <g id="line2d_21">
      <path clip-path="url(#pdd04d94746)" d="M 279.225 118.4 
L 351.225 118.4 
" style="fill:none;stroke:#000000;stroke-linecap:square;stroke-linejoin:miter;stroke-opacity:0.1;stroke-width:0.6;"/>
     </g>
     <g id="text_17">
      <!-- 0 -->
      <g transform="translate(361.723281 120.799062)scale(0.09 -0.09)">
       <use xlink:href="#HelveticaNeue-Bold-48"/>
      </g>
     </g>
    </g>
    <g id="xtick_34">
     <g id="line2d_22">
      <path clip-path="url(#pdd04d94746)" d="M 279.225 118.4 
L 330.136688 67.488312 
" style="fill:none;stroke:#000000;stroke-linecap:square;stroke-linejoin:miter;stroke-opacity:0.1;stroke-width:0.6;"/>
     </g>
     <g id="text_18">
      <!-- $\pi/4$ -->
      <g transform="translate(332.129076 60.694986)scale(0.09 -0.09)">
       <use transform="translate(0 0.90625)" xlink:href="#HelveticaNeue-Bold-960"/>
       <use transform="translate(66.599991 0.90625)" xlink:href="#HelveticaNeue-Bold-47"/>
       <use transform="translate(103.699982 0.90625)" xlink:href="#HelveticaNeue-Bold-52"/>
      </g>
     </g>
    </g>
    <g id="xtick_35">
     <g id="line2d_23">
      <path clip-path="url(#pdd04d94746)" d="M 279.225 118.4 
L 279.225 46.4 
" style="fill:none;stroke:#000000;stroke-linecap:square;stroke-linejoin:miter;stroke-opacity:0.1;stroke-width:0.6;"/>
     </g>
     <g id="text_19">
      <!-- $\pi/2$ -->
      <g transform="translate(272.025 35.799062)scale(0.09 -0.09)">
       <use transform="translate(0 0.90625)" xlink:href="#HelveticaNeue-Bold-960"/>
       <use transform="translate(66.599991 0.90625)" xlink:href="#HelveticaNeue-Bold-47"/>
       <use transform="translate(103.699982 0.90625)" xlink:href="#HelveticaNeue-Bold-50"/>
      </g>
     </g>
    </g>
    <g id="xtick_36">
     <g id="line2d_24">
      <path clip-path="url(#pdd04d94746)" d="M 279.225 118.4 
L 228.313312 67.488312 
" style="fill:none;stroke:#000000;stroke-linecap:square;stroke-linejoin:miter;stroke-opacity:0.1;stroke-width:0.6;"/>
     </g>
     <g id="text_20">
      <!-- $3\pi/4$ -->
      <g transform="translate(209.445924 60.694986)scale(0.09 -0.09)">
       <use transform="translate(0 0.90625)" xlink:href="#HelveticaNeue-Bold-51"/>
       <use transform="translate(55.599991 0.90625)" xlink:href="#HelveticaNeue-Bold-960"/>
       <use transform="translate(122.199982 0.90625)" xlink:href="#HelveticaNeue-Bold-47"/>
       <use transform="translate(159.299973 0.90625)" xlink:href="#HelveticaNeue-Bold-52"/>
      </g>
     </g>
    </g>
    <g id="xtick_37">
     <g id="line2d_25">
      <path clip-path="url(#pdd04d94746)" d="M 279.225 118.4 
L 207.225 118.4 
" style="fill:none;stroke:#000000;stroke-linecap:square;stroke-linejoin:miter;stroke-opacity:0.1;stroke-width:0.6;"/>
     </g>
     <g id="text_21">
      <!-- $\pi$ -->
      <g transform="translate(191.21 120.799062)scale(0.09 -0.09)">
       <use transform="translate(0 0.296875)" xlink:href="#HelveticaNeue-Bold-960"/>
      </g>
     </g>
    </g>
    <g id="xtick_38">
     <g id="line2d_26">
      <path clip-path="url(#pdd04d94746)" d="M 279.225 118.4 
L 228.313312 169.311688 
" style="fill:none;stroke:#000000;stroke-linecap:square;stroke-linejoin:miter;stroke-opacity:0.1;stroke-width:0.6;"/>
     </g>
     <g id="text_22">
      <!-- $5\pi/4$ -->
      <g transform="translate(209.445924 180.903139)scale(0.09 -0.09)">
       <use transform="translate(0 0.90625)" xlink:href="#HelveticaNeue-Bold-53"/>
       <use transform="translate(55.599991 0.90625)" xlink:href="#HelveticaNeue-Bold-960"/>
       <use transform="translate(122.199982 0.90625)" xlink:href="#HelveticaNeue-Bold-47"/>
       <use transform="translate(159.299973 0.90625)" xlink:href="#HelveticaNeue-Bold-52"/>
      </g>
     </g>
    </g>
    <g id="xtick_39">
     <g id="line2d_27">
      <path clip-path="url(#pdd04d94746)" d="M 279.225 118.4 
L 279.225 190.4 
" style="fill:none;stroke:#000000;stroke-linecap:square;stroke-linejoin:miter;stroke-opacity:0.1;stroke-width:0.6;"/>
     </g>
     <g id="text_23">
      <!-- $3\pi/2$ -->
      <g transform="translate(269.55 205.799062)scale(0.09 -0.09)">
       <use transform="translate(0 0.90625)" xlink:href="#HelveticaNeue-Bold-51"/>
       <use transform="translate(55.599991 0.90625)" xlink:href="#HelveticaNeue-Bold-960"/>
       <use transform="translate(122.199982 0.90625)" xlink:href="#HelveticaNeue-Bold-47"/>
       <use transform="translate(159.299973 0.90625)" xlink:href="#HelveticaNeue-Bold-50"/>
      </g>
     </g>
    </g>
    <g id="xtick_40">
     <g id="line2d_28">
      <path clip-path="url(#pdd04d94746)" d="M 279.225 118.4 
L 330.136688 169.311688 
" style="fill:none;stroke:#000000;stroke-linecap:square;stroke-linejoin:miter;stroke-opacity:0.1;stroke-width:0.6;"/>
     </g>
     <g id="text_24">
      <!-- $7\pi/4$ -->
      <g transform="translate(329.654076 180.903139)scale(0.09 -0.09)">
       <use transform="translate(0 0.90625)" xlink:href="#HelveticaNeue-Bold-55"/>
       <use transform="translate(55.599991 0.90625)" xlink:href="#HelveticaNeue-Bold-960"/>
       <use transform="translate(122.199982 0.90625)" xlink:href="#HelveticaNeue-Bold-47"/>
       <use transform="translate(159.299973 0.90625)" xlink:href="#HelveticaNeue-Bold-52"/>
      </g>
     </g>
    </g>
    <g id="xtick_41"/>
    <g id="xtick_42"/>
    <g id="xtick_43"/>
    <g id="xtick_44"/>
    <g id="xtick_45"/>
    <g id="xtick_46"/>
    <g id="xtick_47"/>
    <g id="xtick_48"/>
    <g id="xtick_49"/>
    <g id="xtick_50"/>
    <g id="xtick_51"/>
    <g id="xtick_52"/>
    <g id="xtick_53"/>
    <g id="xtick_54"/>
    <g id="xtick_55"/>
    <g id="xtick_56"/>
    <g id="xtick_57"/>
    <g id="xtick_58"/>
    <g id="xtick_59"/>
    <g id="xtick_60"/>
    <g id="xtick_61"/>
    <g id="xtick_62"/>
    <g id="xtick_63"/>
    <g id="xtick_64"/>
   </g>
   <g id="matplotlib.axis_4">
    <g id="ytick_28">
     <g id="line2d_29">
      <path clip-path="url(#pdd04d94746)" d="M 279.225 118.4 
L 279.225 118.4 
" style="fill:none;stroke:#000000;stroke-linecap:square;stroke-linejoin:miter;stroke-opacity:0.1;stroke-width:0.6;"/>
     </g>
    </g>
    <g id="ytick_29">
     <g id="line2d_30">
      <path clip-path="url(#pdd04d94746)" d="M 290.234881 118.4 
L 290.127734 116.867721 
L 289.808377 115.365265 
L 289.283027 113.921878 
L 288.561909 112.565652 
L 287.659058 111.322985 
L 286.592048 110.218064 
L 285.381647 109.272395 
L 284.051414 108.504384 
L 282.62724 107.928981 
L 281.136846 107.557384 
L 279.609239 107.396826 
L 278.074154 107.450432 
L 276.561469 107.717159 
L 275.100626 108.191816 
L 273.720059 108.865163 
L 272.44664 109.724095 
L 271.305154 110.751894 
L 270.317819 111.928554 
L 269.503852 113.231174 
L 268.879096 114.634399 
L 268.455711 116.110917 
L 268.241938 117.63199 
L 268.241938 119.16801 
L 268.455711 120.689083 
L 268.879096 122.165601 
L 269.503852 123.568826 
L 270.317819 124.871446 
L 271.305154 126.048106 
L 272.44664 127.075905 
L 273.720059 127.934837 
L 275.100626 128.608184 
L 276.561469 129.082841 
L 278.074154 129.349568 
L 279.609239 129.403174 
L 281.136846 129.242616 
L 282.62724 128.871019 
L 284.051414 128.295616 
L 285.381647 127.527605 
L 286.592048 126.581936 
L 287.659058 125.477015 
L 288.561909 124.234348 
L 289.283027 122.878122 
L 289.808377 121.434735 
L 290.127734 119.932279 
L 290.234881 118.4 
L 290.234881 118.4 
" style="fill:none;stroke:#000000;stroke-linecap:square;stroke-linejoin:miter;stroke-opacity:0.1;stroke-width:0.6;"/>
     </g>
    </g>
    <g id="ytick_30">
     <g id="line2d_31">
      <path clip-path="url(#pdd04d94746)" d="M 301.244762 118.4 
L 301.124136 116.098308 
L 300.763577 113.821834 
L 300.167038 111.595519 
L 299.341054 109.443756 
L 298.294673 107.390119 
L 297.039362 105.457109 
L 295.588872 103.665903 
L 293.959097 102.036128 
L 292.167891 100.585638 
L 290.234881 99.330327 
L 288.181244 98.283946 
L 286.029481 97.457962 
L 283.803166 96.861423 
L 281.526692 96.500864 
L 279.225 96.380238 
L 276.923308 96.500864 
L 274.646834 96.861423 
L 272.420519 97.457962 
L 270.268756 98.283946 
L 268.215119 99.330327 
L 266.282109 100.585638 
L 264.490903 102.036128 
L 262.861128 103.665903 
L 261.410638 105.457109 
L 260.155327 107.390119 
L 259.108946 109.443756 
L 258.282962 111.595519 
L 257.686423 113.821834 
L 257.325864 116.098308 
L 257.205238 118.4 
L 257.325864 120.701692 
L 257.686423 122.978166 
L 258.282962 125.204481 
L 259.108946 127.356244 
L 260.155327 129.409881 
L 261.410638 131.342891 
L 262.861128 133.134097 
L 264.490903 134.763872 
L 266.282109 136.214362 
L 268.215119 137.469673 
L 270.268756 138.516054 
L 272.420519 139.342038 
L 274.646834 139.938577 
L 276.923308 140.299136 
L 279.225 140.419762 
L 281.526692 140.299136 
L 283.803166 139.938577 
L 286.029481 139.342038 
L 288.181244 138.516054 
L 290.234881 137.469673 
L 292.167891 136.214362 
L 293.959097 134.763872 
L 295.588872 133.134097 
L 297.039362 131.342891 
L 298.294673 129.409881 
L 299.341054 127.356244 
L 300.167038 125.204481 
L 300.763577 122.978166 
L 301.124136 120.701692 
L 301.244762 118.4 
L 301.244762 118.4 
" style="fill:none;stroke:#000000;stroke-linecap:square;stroke-linejoin:miter;stroke-opacity:0.1;stroke-width:0.6;"/>
     </g>
    </g>
    <g id="ytick_31">
     <g id="line2d_32">
      <path clip-path="url(#pdd04d94746)" d="M 312.254643 118.4 
L 312.174185 116.095969 
L 311.933201 113.803162 
L 311.532866 111.532751 
L 310.975131 109.295796 
L 310.262712 107.103197 
L 309.39908 104.965634 
L 308.388444 102.893522 
L 307.235726 100.896956 
L 305.946543 98.985663 
L 304.527175 97.168955 
L 302.984537 95.455682 
L 301.326145 93.854192 
L 299.560079 92.372286 
L 297.694942 91.017185 
L 295.739822 89.79549 
L 293.704243 88.713153 
L 291.598122 87.775448 
L 289.431721 86.986943 
L 287.215594 86.351478 
L 284.960537 85.872151 
L 282.677538 85.551297 
L 280.377718 85.390478 
L 278.072282 85.390478 
L 275.772462 85.551297 
L 273.489463 85.872151 
L 271.234406 86.351478 
L 269.018279 86.986943 
L 266.851878 87.775448 
L 264.745757 88.713153 
L 262.710178 89.79549 
L 260.755058 91.017185 
L 258.889921 92.372286 
L 257.123855 93.854192 
L 255.465463 95.455682 
L 253.922825 97.168955 
L 252.503457 98.985663 
L 251.214274 100.896956 
L 250.061556 102.893522 
L 249.05092 104.965634 
L 248.187288 107.103197 
L 247.474869 109.295796 
L 246.917134 111.532751 
L 246.516799 113.803162 
L 246.275815 116.095969 
L 246.195357 118.4 
L 246.275815 120.704031 
L 246.516799 122.996838 
L 246.917134 125.267249 
L 247.474869 127.504204 
L 248.187288 129.696803 
L 249.05092 131.834366 
L 250.061556 133.906478 
L 251.214274 135.903044 
L 252.503457 137.814337 
L 253.922825 139.631045 
L 255.465463 141.344318 
L 257.123855 142.945808 
L 258.889921 144.427714 
L 260.755058 145.782815 
L 262.710178 147.00451 
L 264.745757 148.086847 
L 266.851878 149.024552 
L 269.018279 149.813057 
L 271.234406 150.448522 
L 273.489463 150.927849 
L 275.772462 151.248703 
L 278.072282 151.409522 
L 280.377718 151.409522 
L 282.677538 151.248703 
L 284.960537 150.927849 
L 287.215594 150.448522 
L 289.431721 149.813057 
L 291.598122 149.024552 
L 293.704243 148.086847 
L 295.739822 147.00451 
L 297.694942 145.782815 
L 299.560079 144.427714 
L 301.326145 142.945808 
L 302.984537 141.344318 
L 304.527175 139.631045 
L 305.946543 137.814337 
L 307.235726 135.903044 
L 308.388444 133.906478 
L 309.39908 131.834366 
L 310.262712 129.696803 
L 310.975131 127.504204 
L 311.532866 125.267249 
L 311.933201 122.996838 
L 312.174185 120.704031 
L 312.254643 118.4 
L 312.254643 118.4 
" style="fill:none;stroke:#000000;stroke-linecap:square;stroke-linejoin:miter;stroke-opacity:0.1;stroke-width:0.6;"/>
     </g>
    </g>
    <g id="ytick_32">
     <g id="line2d_33">
      <path clip-path="url(#pdd04d94746)" d="M 323.264524 118.4 
L 323.157246 115.327958 
L 322.835935 112.270883 
L 322.302155 109.243668 
L 321.558508 106.261062 
L 320.608616 103.337596 
L 319.457107 100.487512 
L 318.109592 97.724696 
L 316.572635 95.062608 
L 314.853724 92.514217 
L 312.961233 90.091939 
L 310.904383 87.807576 
L 308.693194 85.672255 
L 306.338438 83.696381 
L 303.851589 81.88958 
L 301.244762 80.260653 
L 298.530657 78.817538 
L 295.722496 77.567264 
L 292.833961 76.515924 
L 289.879125 75.668638 
L 286.872383 75.029535 
L 283.828384 74.601729 
L 280.761957 74.387303 
L 277.688043 74.387303 
L 274.621616 74.601729 
L 271.577617 75.029535 
L 268.570875 75.668638 
L 265.616039 76.515924 
L 262.727504 77.567264 
L 259.919343 78.817538 
L 257.205238 80.260653 
L 254.598411 81.88958 
L 252.111562 83.696381 
L 249.756806 85.672255 
L 247.545617 87.807576 
L 245.488767 90.091939 
L 243.596276 92.514217 
L 241.877365 95.062608 
L 240.340408 97.724696 
L 238.992893 100.487512 
L 237.841384 103.337596 
L 236.891492 106.261062 
L 236.147845 109.243668 
L 235.614065 112.270883 
L 235.292754 115.327958 
L 235.185476 118.4 
L 235.292754 121.472042 
L 235.614065 124.529117 
L 236.147845 127.556332 
L 236.891492 130.538938 
L 237.841384 133.462404 
L 238.992893 136.312488 
L 240.340408 139.075304 
L 241.877365 141.737392 
L 243.596276 144.285783 
L 245.488767 146.708061 
L 247.545617 148.992424 
L 249.756806 151.127745 
L 252.111562 153.103619 
L 254.598411 154.91042 
L 257.205238 156.539347 
L 259.919343 157.982462 
L 262.727504 159.232736 
L 265.616039 160.284076 
L 268.570875 161.131362 
L 271.577617 161.770465 
L 274.621616 162.198271 
L 277.688043 162.412697 
L 280.761957 162.412697 
L 283.828384 162.198271 
L 286.872383 161.770465 
L 289.879125 161.131362 
L 292.833961 160.284076 
L 295.722496 159.232736 
L 298.530657 157.982462 
L 301.244762 156.539347 
L 303.851589 154.91042 
L 306.338438 153.103619 
L 308.693194 151.127745 
L 310.904383 148.992424 
L 312.961233 146.708061 
L 314.853724 144.285783 
L 316.572635 141.737392 
L 318.109592 139.075304 
L 319.457107 136.312488 
L 320.608616 133.462404 
L 321.558508 130.538938 
L 322.302155 127.556332 
L 322.835935 124.529117 
L 323.157246 121.472042 
L 323.264524 118.4 
L 323.264524 118.4 
" style="fill:none;stroke:#000000;stroke-linecap:square;stroke-linejoin:miter;stroke-opacity:0.1;stroke-width:0.6;"/>
     </g>
    </g>
    <g id="ytick_33">
     <g id="line2d_34">
      <path clip-path="url(#pdd04d94746)" d="M 334.274405 118.4 
L 334.140308 114.559948 
L 333.738668 110.738604 
L 333.071444 106.954585 
L 332.141885 103.226327 
L 330.95452 99.571995 
L 329.515134 96.00939 
L 327.83074 92.55587 
L 325.909543 89.22826 
L 323.760904 86.042771 
L 321.395291 83.014924 
L 318.824228 80.15947 
L 316.060242 77.490319 
L 313.116798 75.020477 
L 310.008237 72.761975 
L 306.749703 70.725817 
L 303.357071 68.921922 
L 299.84687 67.35908 
L 296.236202 66.044904 
L 292.542656 64.985797 
L 288.784229 64.186919 
L 284.97923 63.652161 
L 281.146197 63.384129 
L 277.303803 63.384129 
L 273.47077 63.652161 
L 269.665771 64.186919 
L 265.907344 64.985797 
L 262.213798 66.044904 
L 258.60313 67.35908 
L 255.092929 68.921922 
L 251.700297 70.725817 
L 248.441763 72.761975 
L 245.333202 75.020477 
L 242.389758 77.490319 
L 239.625772 80.15947 
L 237.054709 83.014924 
L 234.689096 86.042771 
L 232.540457 89.22826 
L 230.61926 92.55587 
L 228.934866 96.00939 
L 227.49548 99.571995 
L 226.308115 103.226327 
L 225.378556 106.954585 
L 224.711332 110.738604 
L 224.309692 114.559948 
L 224.175595 118.4 
L 224.309692 122.240052 
L 224.711332 126.061396 
L 225.378556 129.845415 
L 226.308115 133.573673 
L 227.49548 137.228005 
L 228.934866 140.79061 
L 230.61926 144.24413 
L 232.540457 147.57174 
L 234.689096 150.757229 
L 237.054709 153.785076 
L 239.625772 156.64053 
L 242.389758 159.309681 
L 245.333202 161.779523 
L 248.441763 164.038025 
L 251.700297 166.074183 
L 255.092929 167.878078 
L 258.60313 169.44092 
L 262.213798 170.755096 
L 265.907344 171.814203 
L 269.665771 172.613081 
L 273.47077 173.147839 
L 277.303803 173.415871 
L 281.146197 173.415871 
L 284.97923 173.147839 
L 288.784229 172.613081 
L 292.542656 171.814203 
L 296.236202 170.755096 
L 299.84687 169.44092 
L 303.357071 167.878078 
L 306.749703 166.074183 
L 310.008237 164.038025 
L 313.116798 161.779523 
L 316.060242 159.309681 
L 318.824228 156.64053 
L 321.395291 153.785076 
L 323.760904 150.757229 
L 325.909543 147.57174 
L 327.83074 144.24413 
L 329.515134 140.79061 
L 330.95452 137.228005 
L 332.141885 133.573673 
L 333.071444 129.845415 
L 333.738668 126.061396 
L 334.140308 122.240052 
L 334.274405 118.4 
L 334.274405 118.4 
" style="fill:none;stroke:#000000;stroke-linecap:square;stroke-linejoin:miter;stroke-opacity:0.1;stroke-width:0.6;"/>
     </g>
    </g>
    <g id="ytick_34">
     <g id="line2d_35">
      <path clip-path="url(#pdd04d94746)" d="M 345.284286 118.4 
L 345.123369 113.791937 
L 344.641402 109.206324 
L 343.840732 104.665502 
L 342.725262 100.191593 
L 341.300424 95.806393 
L 339.573161 91.531268 
L 337.551888 87.387044 
L 335.246452 83.393912 
L 332.668085 79.571326 
L 329.829349 75.937909 
L 326.744074 72.511364 
L 323.42729 69.308383 
L 319.895158 66.344572 
L 316.164884 63.63437 
L 312.254643 61.19098 
L 308.183485 59.026307 
L 303.971244 57.150896 
L 299.638442 55.573885 
L 295.206188 54.302957 
L 290.696075 53.344303 
L 286.130076 52.702593 
L 281.530436 52.380955 
L 276.919564 52.380955 
L 272.319924 52.702593 
L 267.753925 53.344303 
L 263.243812 54.302957 
L 258.811558 55.573885 
L 254.478756 57.150896 
L 250.266515 59.026307 
L 246.195357 61.19098 
L 242.285116 63.63437 
L 238.554842 66.344572 
L 235.02271 69.308383 
L 231.705926 72.511364 
L 228.620651 75.937909 
L 225.781915 79.571326 
L 223.203548 83.393912 
L 220.898112 87.387044 
L 218.876839 91.531268 
L 217.149576 95.806393 
L 215.724738 100.191593 
L 214.609268 104.665502 
L 213.808598 109.206324 
L 213.326631 113.791937 
L 213.165714 118.4 
L 213.326631 123.008063 
L 213.808598 127.593676 
L 214.609268 132.134498 
L 215.724738 136.608407 
L 217.149576 140.993607 
L 218.876839 145.268732 
L 220.898112 149.412956 
L 223.203548 153.406088 
L 225.781915 157.228674 
L 228.620651 160.862091 
L 231.705926 164.288636 
L 235.02271 167.491617 
L 238.554842 170.455428 
L 242.285116 173.16563 
L 246.195357 175.60902 
L 250.266515 177.773693 
L 254.478756 179.649104 
L 258.811558 181.226115 
L 263.243812 182.497043 
L 267.753925 183.455697 
L 272.319924 184.097407 
L 276.919564 184.419045 
L 281.530436 184.419045 
L 286.130076 184.097407 
L 290.696075 183.455697 
L 295.206188 182.497043 
L 299.638442 181.226115 
L 303.971244 179.649104 
L 308.183485 177.773693 
L 312.254643 175.60902 
L 316.164884 173.16563 
L 319.895158 170.455428 
L 323.42729 167.491617 
L 326.744074 164.288636 
L 329.829349 160.862091 
L 332.668085 157.228674 
L 335.246452 153.406088 
L 337.551888 149.412956 
L 339.573161 145.268732 
L 341.300424 140.993607 
L 342.725262 136.608407 
L 343.840732 132.134498 
L 344.641402 127.593676 
L 345.123369 123.008063 
L 345.284286 118.4 
L 345.284286 118.4 
" style="fill:none;stroke:#000000;stroke-linecap:square;stroke-linejoin:miter;stroke-opacity:0.1;stroke-width:0.6;"/>
     </g>
    </g>
    <g id="ytick_35"/>
    <g id="ytick_36"/>
    <g id="ytick_37"/>
    <g id="ytick_38"/>
    <g id="ytick_39"/>
    <g id="ytick_40"/>
    <g id="ytick_41"/>
    <g id="ytick_42"/>
    <g id="ytick_43"/>
    <g id="ytick_44"/>
    <g id="ytick_45"/>
    <g id="ytick_46"/>
    <g id="ytick_47"/>
    <g id="ytick_48"/>
    <g id="ytick_49"/>
    <g id="ytick_50"/>
    <g id="ytick_51"/>
    <g id="ytick_52"/>
    <g id="ytick_53"/>
    <g id="ytick_54"/>
   </g>
   <g id="line2d_36">
    <path clip-path="url(#pdd04d94746)" d="M 282.358561 118.4 
L 284.159252 116.706069 
L 286.28959 112.901409 
L 286.934096 106.60035 
L 283.891048 99.974193 
L 277.235159 94.38619 
L 267.669803 92.056804 
L 259.19352 96.640012 
L 250.276391 102.733796 
L 242.76873 112.316525 
L 241.119454 124.758691 
L 244.74667 137.058739 
L 250.701896 149.38435 
L 260.498387 161.092379 
L 274.988425 169.527853 
L 292.953793 172.613776 
L 311.90958 168.427474 
L 327.658253 156.097114 
L 342.379871 140.081095 
L 351.225 118.4 
" style="fill:none;stroke:#e24a33;stroke-linecap:square;stroke-linejoin:miter;stroke-width:3;"/>
   </g>
   <g id="line2d_37">
    <path clip-path="url(#pdd04d94746)" d="M 282.648253 118.4 
L 286.918338 115.758874 
L 288.946829 110.833197 
L 287.202343 106.189768 
L 283.137606 102.949468 
L 277.550665 98.193787 
L 270.036221 97.451693 
L 262.857663 100.620333 
L 256.8432 106.287576 
L 252.965066 114.017992 
L 250.197553 123.243824 
L 252.666345 132.772825 
L 257.784109 141.691016 
L 265.928233 148.713576 
L 276.072809 156.441283 
L 289.28553 158.128136 
L 303.031958 154.839262 
L 315.827833 146.889128 
L 327.210688 134.873508 
L 335.040073 118.4 
" style="fill:none;stroke:#348abd;stroke-linecap:square;stroke-linejoin:miter;stroke-width:3;"/>
   </g>
   <g id="line2d_38">
    <path clip-path="url(#pdd04d94746)" d="M 283.829554 118.4 
L 284.795114 116.487778 
L 285.635998 113.41012 
L 285.639028 108.582599 
L 283.449498 101.717835 
L 277.543686 98.109557 
L 270.339984 98.144203 
L 261.301946 98.930373 
L 253.381845 104.414384 
L 245.209488 112.723815 
L 243.320174 124.391456 
L 242.566977 138.23833 
L 247.575842 152.78015 
L 259.095201 164.291319 
L 275.042438 168.876021 
L 292.929613 172.518292 
L 309.915764 165.375711 
L 325.732916 154.598564 
L 336.026201 137.899877 
L 340.055853 118.4 
" style="fill:none;stroke:#988ed5;stroke-linecap:square;stroke-linejoin:miter;stroke-width:3;"/>
   </g>
   <g id="line2d_39">
    <path clip-path="url(#pdd04d94746)" d="M 284.70948 118.4 
L 285.514801 116.240709 
L 287.148737 112.232708 
L 286.117016 107.850984 
L 283.216517 102.637854 
L 277.72869 100.342225 
L 270.923191 99.473782 
L 262.981973 100.755369 
L 256.172662 105.924698 
L 248.533938 113.278568 
L 245.84352 123.970384 
L 245.14262 136.844462 
L 251.589448 148.420212 
L 262.224915 157.15629 
L 275.712726 160.786842 
L 290.4575 162.756139 
L 306.419598 160.024431 
L 321.624425 151.400797 
L 332.801053 136.792682 
L 339.513602 118.4 
" style="fill:none;stroke:#777777;stroke-linecap:square;stroke-linejoin:miter;stroke-width:3;"/>
   </g>
   <g id="line2d_40">
    <path clip-path="url(#pdd04d94746)" d="M 281.575418 118.4 
L 284.439036 116.610019 
L 284.411725 114.36301 
L 284.035504 111.036976 
L 282.217911 106.581262 
L 278.124071 105.113768 
L 273.666633 105.728201 
L 269.350583 107.673524 
L 262.697042 109.455517 
L 259.102858 115.042208 
L 254.391848 122.54392 
L 256.696524 130.591802 
L 259.560294 139.761565 
L 266.718541 146.911854 
L 276.31223 153.551907 
L 288.111817 153.493245 
L 299.274053 149.087361 
L 310.28001 142.571084 
L 318.062509 131.732934 
L 324.119105 118.4 
" style="fill:none;stroke:#fbc15e;stroke-linecap:square;stroke-linejoin:miter;stroke-width:3;"/>
   </g>
   <g id="patch_5">
    <path d="M 351.225 118.4 
C 351.225 108.945047 349.36258 99.582031 345.744326 90.846793 
C 342.126072 82.111555 336.82235 74.173973 330.136688 67.488312 
C 323.451027 60.80265 315.513445 55.498928 306.778207 51.880674 
C 298.042969 48.26242 288.679953 46.4 279.225 46.4 
C 269.770047 46.4 260.407031 48.26242 251.671793 51.880674 
C 242.936555 55.498928 234.998973 60.80265 228.313312 67.488312 
C 221.62765 74.173973 216.323928 82.111555 212.705674 90.846793 
C 209.08742 99.582031 207.225 108.945047 207.225 118.4 
C 207.225 127.854953 209.08742 137.217969 212.705674 145.953207 
C 216.323928 154.688445 221.62765 162.626027 228.313312 169.311688 
C 234.998973 175.99735 242.936555 181.301072 251.671793 184.919326 
C 260.407031 188.53758 269.770047 190.4 279.225 190.4 
C 288.679953 190.4 298.042969 188.53758 306.778207 184.919326 
C 315.513445 181.301072 323.451027 175.99735 330.136688 169.311688 
C 336.82235 162.626027 342.126072 154.688445 345.744326 145.953207 
C 349.36258 137.217969 351.225 127.854953 351.225 118.4 
" style="fill:none;stroke:#000000;stroke-linecap:square;stroke-linejoin:miter;stroke-width:1.2;"/>
   </g>
   <g id="text_25">
    <!-- Line 2 -->
    <g transform="translate(266.391563 25.044062)scale(0.09 -0.09)">
     <use xlink:href="#HelveticaNeue-Bold-76"/>
     <use x="59.299988" xlink:href="#HelveticaNeue-Bold-105"/>
     <use x="85.099976" xlink:href="#HelveticaNeue-Bold-110"/>
     <use x="144.399963" xlink:href="#HelveticaNeue-Bold-101"/>
     <use x="201.799957" xlink:href="#HelveticaNeue-Bold-32"/>
     <use x="229.599945" xlink:href="#HelveticaNeue-Bold-50"/>
    </g>
   </g>
  </g>
  <g id="text_26">
   <!-- Polar axes demo -->
   <defs>
    <path d="M 22.59375 37.796875 
L 22.59375 59.203125 
L 34.796875 59.203125 
Q 37.5 59.203125 40 58.796875 
Q 42.5 58.40625 44.390625 57.25 
Q 46.296875 56.09375 47.4375 54 
Q 48.59375 51.90625 48.59375 48.5 
Q 48.59375 45.09375 47.4375 43 
Q 46.296875 40.90625 44.390625 39.75 
Q 42.5 38.59375 40 38.1875 
Q 37.5 37.796875 34.796875 37.796875 
z
M 6.90625 71.40625 
L 6.90625 0 
L 22.59375 0 
L 22.59375 25.59375 
L 39.09375 25.59375 
Q 45.796875 25.59375 50.5 27.546875 
Q 55.203125 29.5 58.140625 32.703125 
Q 61.09375 35.90625 62.4375 40.046875 
Q 63.796875 44.203125 63.796875 48.5 
Q 63.796875 52.90625 62.4375 57 
Q 61.09375 61.09375 58.140625 64.296875 
Q 55.203125 67.5 50.5 69.453125 
Q 45.796875 71.40625 39.09375 71.40625 
z
" id="HelveticaNeue-Bold-80"/>
    <path d="M 18 25.796875 
Q 18 28.90625 18.59375 31.90625 
Q 19.203125 34.90625 20.640625 37.203125 
Q 22.09375 39.5 24.5 40.953125 
Q 26.90625 42.40625 30.5 42.40625 
Q 34.09375 42.40625 36.546875 40.953125 
Q 39 39.5 40.453125 37.203125 
Q 41.90625 34.90625 42.5 31.90625 
Q 43.09375 28.90625 43.09375 25.796875 
Q 43.09375 22.703125 42.5 19.75 
Q 41.90625 16.796875 40.453125 14.4375 
Q 39 12.09375 36.546875 10.6875 
Q 34.09375 9.296875 30.5 9.296875 
Q 26.90625 9.296875 24.5 10.6875 
Q 22.09375 12.09375 20.640625 14.4375 
Q 19.203125 16.796875 18.59375 19.75 
Q 18 22.703125 18 25.796875 
z
M 3.796875 25.796875 
Q 3.796875 19.59375 5.6875 14.59375 
Q 7.59375 9.59375 11.09375 6.046875 
Q 14.59375 2.5 19.5 0.59375 
Q 24.40625 -1.296875 30.5 -1.296875 
Q 36.59375 -1.296875 41.546875 0.59375 
Q 46.5 2.5 50 6.046875 
Q 53.5 9.59375 55.390625 14.59375 
Q 57.296875 19.59375 57.296875 25.796875 
Q 57.296875 32 55.390625 37.046875 
Q 53.5 42.09375 50 45.640625 
Q 46.5 49.203125 41.546875 51.140625 
Q 36.59375 53.09375 30.5 53.09375 
Q 24.40625 53.09375 19.5 51.140625 
Q 14.59375 49.203125 11.09375 45.640625 
Q 7.59375 42.09375 5.6875 37.046875 
Q 3.796875 32 3.796875 25.796875 
z
" id="HelveticaNeue-Bold-111"/>
    <path d="M 5.796875 71.40625 
L 5.796875 0 
L 20 0 
L 20 71.40625 
z
" id="HelveticaNeue-Bold-108"/>
    <path d="M 4.796875 35.796875 
Q 5.09375 40.796875 7.296875 44.09375 
Q 9.5 47.40625 12.890625 49.40625 
Q 16.296875 51.40625 20.546875 52.25 
Q 24.796875 53.09375 29.09375 53.09375 
Q 33 53.09375 37 52.546875 
Q 41 52 44.296875 50.390625 
Q 47.59375 48.796875 49.6875 45.9375 
Q 51.796875 43.09375 51.796875 38.40625 
L 51.796875 11.5 
Q 51.796875 8 52.1875 4.796875 
Q 52.59375 1.59375 53.59375 0 
L 39.203125 0 
Q 38.796875 1.203125 38.546875 2.453125 
Q 38.296875 3.703125 38.203125 5 
Q 34.796875 1.5 30.1875 0.09375 
Q 25.59375 -1.296875 20.796875 -1.296875 
Q 17.09375 -1.296875 13.890625 -0.390625 
Q 10.703125 0.5 8.296875 2.390625 
Q 5.90625 4.296875 4.546875 7.1875 
Q 3.203125 10.09375 3.203125 14.09375 
Q 3.203125 18.5 4.75 21.34375 
Q 6.296875 24.203125 8.75 25.890625 
Q 11.203125 27.59375 14.34375 28.4375 
Q 17.5 29.296875 20.703125 29.796875 
Q 23.90625 30.296875 27 30.59375 
Q 30.09375 30.90625 32.5 31.5 
Q 34.90625 32.09375 36.296875 33.25 
Q 37.703125 34.40625 37.59375 36.59375 
Q 37.59375 38.90625 36.84375 40.25 
Q 36.09375 41.59375 34.84375 42.34375 
Q 33.59375 43.09375 31.9375 43.34375 
Q 30.296875 43.59375 28.40625 43.59375 
Q 24.203125 43.59375 21.796875 41.796875 
Q 19.40625 40 19 35.796875 
z
M 37.59375 25.296875 
Q 36.703125 24.5 35.34375 24.046875 
Q 34 23.59375 32.453125 23.296875 
Q 30.90625 23 29.203125 22.796875 
Q 27.5 22.59375 25.796875 22.296875 
Q 24.203125 22 22.640625 21.5 
Q 21.09375 21 19.9375 20.140625 
Q 18.796875 19.296875 18.09375 18 
Q 17.40625 16.703125 17.40625 14.703125 
Q 17.40625 12.796875 18.09375 11.5 
Q 18.796875 10.203125 20 9.453125 
Q 21.203125 8.703125 22.796875 8.390625 
Q 24.40625 8.09375 26.09375 8.09375 
Q 30.296875 8.09375 32.59375 9.5 
Q 34.90625 10.90625 36 12.84375 
Q 37.09375 14.796875 37.34375 16.796875 
Q 37.59375 18.796875 37.59375 20 
z
" id="HelveticaNeue-Bold-97"/>
    <path d="M 5.40625 51.703125 
L 5.40625 0 
L 19.59375 0 
L 19.59375 23.296875 
Q 19.59375 26.796875 20.296875 29.796875 
Q 21 32.796875 22.640625 35.046875 
Q 24.296875 37.296875 27 38.59375 
Q 29.703125 39.90625 33.59375 39.90625 
Q 34.90625 39.90625 36.296875 39.75 
Q 37.703125 39.59375 38.703125 39.40625 
L 38.703125 52.59375 
Q 37 53.09375 35.59375 53.09375 
Q 32.90625 53.09375 30.40625 52.296875 
Q 27.90625 51.5 25.703125 50.046875 
Q 23.5 48.59375 21.796875 46.546875 
Q 20.09375 44.5 19.09375 42.09375 
L 18.90625 42.09375 
L 18.90625 51.703125 
z
" id="HelveticaNeue-Bold-114"/>
    <path d="M 18.59375 27.203125 
L 0 0 
L 15.90625 0 
L 26.703125 16.296875 
L 37.5 0 
L 53.703125 0 
L 34.59375 27.5 
L 51.59375 51.703125 
L 35.90625 51.703125 
L 26.90625 38.203125 
L 17.796875 51.703125 
L 1.59375 51.703125 
z
" id="HelveticaNeue-Bold-120"/>
    <path d="M 16.40625 16.796875 
L 2.90625 16.796875 
Q 3.09375 11.59375 5.25 8.140625 
Q 7.40625 4.703125 10.75 2.59375 
Q 14.09375 0.5 18.390625 -0.390625 
Q 22.703125 -1.296875 27.203125 -1.296875 
Q 31.59375 -1.296875 35.84375 -0.4375 
Q 40.09375 0.40625 43.390625 2.5 
Q 46.703125 4.59375 48.75 8.046875 
Q 50.796875 11.5 50.796875 16.59375 
Q 50.796875 20.203125 49.390625 22.640625 
Q 48 25.09375 45.703125 26.75 
Q 43.40625 28.40625 40.453125 29.40625 
Q 37.5 30.40625 34.40625 31.09375 
Q 31.40625 31.796875 28.5 32.390625 
Q 25.59375 33 23.34375 33.75 
Q 21.09375 34.5 19.6875 35.703125 
Q 18.296875 36.90625 18.296875 38.796875 
Q 18.296875 40.40625 19.09375 41.34375 
Q 19.90625 42.296875 21.046875 42.796875 
Q 22.203125 43.296875 23.59375 43.4375 
Q 25 43.59375 26.203125 43.59375 
Q 30 43.59375 32.796875 42.140625 
Q 35.59375 40.703125 35.90625 36.59375 
L 49.40625 36.59375 
Q 49 41.40625 46.953125 44.546875 
Q 44.90625 47.703125 41.796875 49.59375 
Q 38.703125 51.5 34.75 52.296875 
Q 30.796875 53.09375 26.59375 53.09375 
Q 22.40625 53.09375 18.40625 52.34375 
Q 14.40625 51.59375 11.203125 49.75 
Q 8 47.90625 6.046875 44.703125 
Q 4.09375 41.5 4.09375 36.5 
Q 4.09375 33.09375 5.5 30.75 
Q 6.90625 28.40625 9.203125 26.84375 
Q 11.5 25.296875 14.453125 24.34375 
Q 17.40625 23.40625 20.5 22.703125 
Q 28.09375 21.09375 32.34375 19.5 
Q 36.59375 17.90625 36.59375 14.703125 
Q 36.59375 12.796875 35.6875 11.546875 
Q 34.796875 10.296875 33.4375 9.546875 
Q 32.09375 8.796875 30.4375 8.4375 
Q 28.796875 8.09375 27.296875 8.09375 
Q 25.203125 8.09375 23.25 8.59375 
Q 21.296875 9.09375 19.796875 10.140625 
Q 18.296875 11.203125 17.34375 12.84375 
Q 16.40625 14.5 16.40625 16.796875 
z
" id="HelveticaNeue-Bold-115"/>
    <path d="M 42.09375 26 
Q 42.09375 22.796875 41.5 19.796875 
Q 40.90625 16.796875 39.5 14.4375 
Q 38.09375 12.09375 35.75 10.6875 
Q 33.40625 9.296875 29.90625 9.296875 
Q 26.59375 9.296875 24.25 10.75 
Q 21.90625 12.203125 20.34375 14.546875 
Q 18.796875 16.90625 18.09375 19.90625 
Q 17.40625 22.90625 17.40625 25.90625 
Q 17.40625 29.09375 18.046875 32.046875 
Q 18.703125 35 20.140625 37.296875 
Q 21.59375 39.59375 24 41 
Q 26.40625 42.40625 29.90625 42.40625 
Q 33.40625 42.40625 35.703125 41 
Q 38 39.59375 39.453125 37.34375 
Q 40.90625 35.09375 41.5 32.140625 
Q 42.09375 29.203125 42.09375 26 
z
M 42.296875 6.59375 
L 42.296875 0 
L 55.796875 0 
L 55.796875 71.40625 
L 41.59375 71.40625 
L 41.59375 45.40625 
L 41.40625 45.40625 
Q 39 49.203125 34.84375 51.140625 
Q 30.703125 53.09375 26.09375 53.09375 
Q 20.40625 53.09375 16.09375 50.84375 
Q 11.796875 48.59375 8.9375 44.890625 
Q 6.09375 41.203125 4.640625 36.34375 
Q 3.203125 31.5 3.203125 26.296875 
Q 3.203125 20.90625 4.640625 15.90625 
Q 6.09375 10.90625 8.9375 7.046875 
Q 11.796875 3.203125 16.1875 0.953125 
Q 20.59375 -1.296875 26.40625 -1.296875 
Q 31.5 -1.296875 35.546875 0.546875 
Q 39.59375 2.40625 42.09375 6.59375 
z
" id="HelveticaNeue-Bold-100"/>
    <path d="M 5.796875 51.703125 
L 5.796875 0 
L 20 0 
L 20 30 
Q 20 33.796875 21.09375 36.140625 
Q 22.203125 38.5 23.75 39.75 
Q 25.296875 41 26.9375 41.453125 
Q 28.59375 41.90625 29.59375 41.90625 
Q 33 41.90625 34.75 40.75 
Q 36.5 39.59375 37.25 37.6875 
Q 38 35.796875 38.09375 33.546875 
Q 38.203125 31.296875 38.203125 29 
L 38.203125 0 
L 52.40625 0 
L 52.40625 28.796875 
Q 52.40625 31.203125 52.75 33.546875 
Q 53.09375 35.90625 54.140625 37.75 
Q 55.203125 39.59375 57.046875 40.75 
Q 58.90625 41.90625 61.90625 41.90625 
Q 64.90625 41.90625 66.65625 40.90625 
Q 68.40625 39.90625 69.296875 38.203125 
Q 70.203125 36.5 70.390625 34.203125 
Q 70.59375 31.90625 70.59375 29.296875 
L 70.59375 0 
L 84.796875 0 
L 84.796875 34.59375 
Q 84.796875 39.59375 83.390625 43.140625 
Q 82 46.703125 79.5 48.890625 
Q 77 51.09375 73.5 52.09375 
Q 70 53.09375 65.90625 53.09375 
Q 60.5 53.09375 56.546875 50.5 
Q 52.59375 47.90625 50.296875 44.5 
Q 48.203125 49.296875 44.140625 51.1875 
Q 40.09375 53.09375 35.203125 53.09375 
Q 30.09375 53.09375 26.140625 50.890625 
Q 22.203125 48.703125 19.40625 44.703125 
L 19.203125 44.703125 
L 19.203125 51.703125 
z
" id="HelveticaNeue-Bold-109"/>
   </defs>
   <g transform="translate(151.637969 14.289062)scale(0.09 -0.09)">
    <use xlink:href="#HelveticaNeue-Bold-80"/>
    <use x="66.699997" xlink:href="#HelveticaNeue-Bold-111"/>
    <use x="127.799988" xlink:href="#HelveticaNeue-Bold-108"/>
    <use x="153.599976" xlink:href="#HelveticaNeue-Bold-97"/>
    <use x="210.999969" xlink:href="#HelveticaNeue-Bold-114"/>
    <use x="249.899963" xlink:href="#HelveticaNeue-Bold-32"/>
    <use x="277.699951" xlink:href="#HelveticaNeue-Bold-97"/>
    <use x="335.099945" xlink:href="#HelveticaNeue-Bold-120"/>
    <use x="388.799942" xlink:href="#HelveticaNeue-Bold-101"/>
    <use x="446.199936" xlink:href="#HelveticaNeue-Bold-115"/>
    <use x="499.899933" xlink:href="#HelveticaNeue-Bold-32"/>
    <use x="527.699921" xlink:href="#HelveticaNeue-Bold-100"/>
    <use x="588.799911" xlink:href="#HelveticaNeue-Bold-101"/>
    <use x="646.199905" xlink:href="#HelveticaNeue-Bold-109"/>
    <use x="736.799896" xlink:href="#HelveticaNeue-Bold-111"/>
   </g>
  </g>
 </g>
 <defs>
  <clipPath id="pdfe7193b35">
   <path d="M 167.8625 118.4 
C 167.8625 108.945047 166.00008 99.582031 162.381826 90.846793 
C 158.763572 82.111555 153.45985 74.173973 146.774188 67.488312 
C 140.088527 60.80265 132.150945 55.498928 123.415707 51.880674 
C 114.680469 48.26242 105.317453 46.4 95.8625 46.4 
C 86.407547 46.4 77.044531 48.26242 68.309293 51.880674 
C 59.574055 55.498928 51.636473 60.80265 44.950812 67.488312 
C 38.26515 74.173973 32.961428 82.111555 29.343174 90.846793 
C 25.72492 99.582031 23.8625 108.945047 23.8625 118.4 
C 23.8625 127.854953 25.72492 137.217969 29.343174 145.953207 
C 32.961428 154.688445 38.26515 162.626027 44.950812 169.311688 
C 51.636473 175.99735 59.574055 181.301072 68.309293 184.919326 
C 77.044531 188.53758 86.407547 190.4 95.8625 190.4 
C 105.317453 190.4 114.680469 188.53758 123.415707 184.919326 
C 132.150945 181.301072 140.088527 175.99735 146.774188 169.311688 
C 153.45985 162.626027 158.763572 154.688445 162.381826 145.953207 
C 166.00008 137.217969 167.8625 127.854953 167.8625 118.4 
M 95.8625 118.4 
C 95.8625 118.4 95.8625 118.4 95.8625 118.4 
C 95.8625 118.4 95.8625 118.4 95.8625 118.4 
C 95.8625 118.4 95.8625 118.4 95.8625 118.4 
C 95.8625 118.4 95.8625 118.4 95.8625 118.4 
C 95.8625 118.4 95.8625 118.4 95.8625 118.4 
C 95.8625 118.4 95.8625 118.4 95.8625 118.4 
C 95.8625 118.4 95.8625 118.4 95.8625 118.4 
C 95.8625 118.4 95.8625 118.4 95.8625 118.4 
C 95.8625 118.4 95.8625 118.4 95.8625 118.4 
C 95.8625 118.4 95.8625 118.4 95.8625 118.4 
C 95.8625 118.4 95.8625 118.4 95.8625 118.4 
C 95.8625 118.4 95.8625 118.4 95.8625 118.4 
C 95.8625 118.4 95.8625 118.4 95.8625 118.4 
C 95.8625 118.4 95.8625 118.4 95.8625 118.4 
C 95.8625 118.4 95.8625 118.4 95.8625 118.4 
C 95.8625 118.4 95.8625 118.4 95.8625 118.4 
M 167.8625 118.4 
z
"/>
  </clipPath>
  <clipPath id="pdd04d94746">
   <path d="M 351.225 118.4 
C 351.225 108.945047 349.36258 99.582031 345.744326 90.846793 
C 342.126072 82.111555 336.82235 74.173973 330.136688 67.488312 
C 323.451027 60.80265 315.513445 55.498928 306.778207 51.880674 
C 298.042969 48.26242 288.679953 46.4 279.225 46.4 
C 269.770047 46.4 260.407031 48.26242 251.671793 51.880674 
C 242.936555 55.498928 234.998973 60.80265 228.313312 67.488312 
C 221.62765 74.173973 216.323928 82.111555 212.705674 90.846793 
C 209.08742 99.582031 207.225 108.945047 207.225 118.4 
C 207.225 127.854953 209.08742 137.217969 212.705674 145.953207 
C 216.323928 154.688445 221.62765 162.626027 228.313312 169.311688 
C 234.998973 175.99735 242.936555 181.301072 251.671793 184.919326 
C 260.407031 188.53758 269.770047 190.4 279.225 190.4 
C 288.679953 190.4 298.042969 188.53758 306.778207 184.919326 
C 315.513445 181.301072 323.451027 175.99735 330.136688 169.311688 
C 336.82235 162.626027 342.126072 154.688445 345.744326 145.953207 
C 349.36258 137.217969 351.225 127.854953 351.225 118.4 
M 279.225 118.4 
C 279.225 118.4 279.225 118.4 279.225 118.4 
C 279.225 118.4 279.225 118.4 279.225 118.4 
C 279.225 118.4 279.225 118.4 279.225 118.4 
C 279.225 118.4 279.225 118.4 279.225 118.4 
C 279.225 118.4 279.225 118.4 279.225 118.4 
C 279.225 118.4 279.225 118.4 279.225 118.4 
C 279.225 118.4 279.225 118.4 279.225 118.4 
C 279.225 118.4 279.225 118.4 279.225 118.4 
C 279.225 118.4 279.225 118.4 279.225 118.4 
C 279.225 118.4 279.225 118.4 279.225 118.4 
C 279.225 118.4 279.225 118.4 279.225 118.4 
C 279.225 118.4 279.225 118.4 279.225 118.4 
C 279.225 118.4 279.225 118.4 279.225 118.4 
C 279.225 118.4 279.225 118.4 279.225 118.4 
C 279.225 118.4 279.225 118.4 279.225 118.4 
C 279.225 118.4 279.225 118.4 279.225 118.4 
M 351.225 118.4 
z
"/>
  </clipPath>
 </defs>
</svg>
