<?xml version="1.0" encoding="utf-8" standalone="no"?>
<!DOCTYPE svg PUBLIC "-//W3C//DTD SVG 1.1//EN"
  "http://www.w3.org/Graphics/SVG/1.1/DTD/svg11.dtd">
<!-- Created with matplotlib (https://matplotlib.org/) -->
<svg height="195.7pt" version="1.1" viewBox="0 0 334.5 195.7" width="334.5pt" xmlns="http://www.w3.org/2000/svg" xmlns:xlink="http://www.w3.org/1999/xlink">
 <defs>
  <style type="text/css">
*{stroke-linecap:butt;stroke-linejoin:round;}
  </style>
 </defs>
 <g id="figure_1">
  <g id="patch_1">
   <path d="M 0 195.7 
L 334.5 195.7 
L 334.5 0 
L 0 0 
z
" style="fill:#f2f2f2;"/>
  </g>
  <g id="axes_1">
   <g id="patch_2">
    <path d="M 22.5 165.1 
L 166.5 165.1 
L 166.5 21.1 
L 22.5 21.1 
z
" style="fill:#ffffff;"/>
   </g>
   <g id="patch_3">
    <path clip-path="url(#padb359d493)" d="M 29.7 96.364616 
L 44.1 96.364616 
L 44.1 72.963069 
L 29.7 72.963069 
L 29.7 96.364616 
" style="fill:#0072b2;opacity:0.7;"/>
   </g>
   <g id="patch_4">
    <path clip-path="url(#padb359d493)" d="M 58.5 103.34389 
L 72.9 103.34389 
L 72.9 61.305771 
L 58.5 61.305771 
L 58.5 103.34389 
" style="fill:#0072b2;opacity:0.7;"/>
   </g>
   <g id="patch_5">
    <path clip-path="url(#padb359d493)" d="M 87.3 92.678138 
L 101.7 92.678138 
L 101.7 68.20786 
L 87.3 68.20786 
L 87.3 92.678138 
" style="fill:#0072b2;opacity:0.7;"/>
   </g>
   <g id="patch_6">
    <path clip-path="url(#padb359d493)" d="M 116.1 120.613071 
L 130.5 120.613071 
L 130.5 73.670163 
L 116.1 73.670163 
L 116.1 120.613071 
" style="fill:#0072b2;opacity:0.7;"/>
   </g>
   <g id="patch_7">
    <path clip-path="url(#padb359d493)" d="M 144.9 105.892863 
L 159.3 105.892863 
L 159.3 71.724816 
L 144.9 71.724816 
L 144.9 105.892863 
" style="fill:#0072b2;opacity:0.7;"/>
   </g>
   <g id="matplotlib.axis_1">
    <g id="xtick_1">
     <g id="line2d_1">
      <path clip-path="url(#padb359d493)" d="M 36.9 165.1 
L 36.9 21.1 
" style="fill:none;stroke:#000000;stroke-linecap:square;stroke-opacity:0.1;stroke-width:0.6;"/>
     </g>
     <g id="line2d_2">
      <defs>
       <path d="M 0 0 
L 0 4 
" id="m9689921076" style="stroke:#000000;stroke-width:0.6;"/>
      </defs>
      <g>
       <use style="stroke:#000000;stroke-width:0.6;" x="36.9" xlink:href="#m9689921076" y="165.1"/>
      </g>
     </g>
     <g id="text_1">
      <!-- a -->
      <defs>
       <path d="M 52.203125 0.203125 
Q 50 -1.09375 46.09375 -1.09375 
Q 42.796875 -1.09375 40.84375 0.75 
Q 38.90625 2.59375 38.90625 6.796875 
Q 35.40625 2.59375 30.75 0.75 
Q 26.09375 -1.09375 20.703125 -1.09375 
Q 17.203125 -1.09375 14.046875 -0.296875 
Q 10.90625 0.5 8.59375 2.203125 
Q 6.296875 3.90625 4.9375 6.65625 
Q 3.59375 9.40625 3.59375 13.296875 
Q 3.59375 17.703125 5.09375 20.5 
Q 6.59375 23.296875 9.046875 25.046875 
Q 11.5 26.796875 14.640625 27.6875 
Q 17.796875 28.59375 21.09375 29.203125 
Q 24.59375 29.90625 27.75 30.25 
Q 30.90625 30.59375 33.296875 31.25 
Q 35.703125 31.90625 37.09375 33.15625 
Q 38.5 34.40625 38.5 36.796875 
Q 38.5 39.59375 37.453125 41.296875 
Q 36.40625 43 34.75 43.890625 
Q 33.09375 44.796875 31.046875 45.09375 
Q 29 45.40625 27 45.40625 
Q 21.59375 45.40625 18 43.34375 
Q 14.40625 41.296875 14.09375 35.59375 
L 5.59375 35.59375 
Q 5.796875 40.40625 7.59375 43.703125 
Q 9.40625 47 12.40625 49.046875 
Q 15.40625 51.09375 19.25 52 
Q 23.09375 52.90625 27.5 52.90625 
Q 31 52.90625 34.453125 52.40625 
Q 37.90625 51.90625 40.703125 50.34375 
Q 43.5 48.796875 45.203125 46 
Q 46.90625 43.203125 46.90625 38.703125 
L 46.90625 12.09375 
Q 46.90625 9.09375 47.25 7.6875 
Q 47.59375 6.296875 49.59375 6.296875 
Q 50.703125 6.296875 52.203125 6.796875 
z
M 38.40625 26.703125 
Q 36.796875 25.5 34.1875 24.953125 
Q 31.59375 24.40625 28.75 24.046875 
Q 25.90625 23.703125 23 23.25 
Q 20.09375 22.796875 17.796875 21.796875 
Q 15.5 20.796875 14.046875 18.9375 
Q 12.59375 17.09375 12.59375 13.90625 
Q 12.59375 11.796875 13.4375 10.34375 
Q 14.296875 8.90625 15.640625 8 
Q 17 7.09375 18.796875 6.6875 
Q 20.59375 6.296875 22.59375 6.296875 
Q 26.796875 6.296875 29.796875 7.4375 
Q 32.796875 8.59375 34.6875 10.34375 
Q 36.59375 12.09375 37.5 14.140625 
Q 38.40625 16.203125 38.40625 18 
z
" id="HelveticaNeue-97"/>
      </defs>
      <g transform="translate(34.751875 176.8125)scale(0.08 -0.08)">
       <use xlink:href="#HelveticaNeue-97"/>
      </g>
     </g>
    </g>
    <g id="xtick_2">
     <g id="line2d_3">
      <path clip-path="url(#padb359d493)" d="M 65.7 165.1 
L 65.7 21.1 
" style="fill:none;stroke:#000000;stroke-linecap:square;stroke-opacity:0.1;stroke-width:0.6;"/>
     </g>
     <g id="line2d_4">
      <g>
       <use style="stroke:#000000;stroke-width:0.6;" x="65.7" xlink:href="#m9689921076" y="165.1"/>
      </g>
     </g>
     <g id="text_2">
      <!-- b -->
      <defs>
       <path d="M 6.703125 71.40625 
L 6.703125 0 
L 15.203125 0 
L 15.203125 6.90625 
L 15.40625 6.90625 
Q 16.796875 4.59375 18.84375 3.046875 
Q 20.90625 1.5 23.203125 0.59375 
Q 25.5 -0.296875 27.84375 -0.6875 
Q 30.203125 -1.09375 32.09375 -1.09375 
Q 38 -1.09375 42.453125 1 
Q 46.90625 3.09375 49.84375 6.75 
Q 52.796875 10.40625 54.25 15.296875 
Q 55.703125 20.203125 55.703125 25.703125 
Q 55.703125 31.203125 54.203125 36.09375 
Q 52.703125 41 49.75 44.75 
Q 46.796875 48.5 42.34375 50.703125 
Q 37.90625 52.90625 31.90625 52.90625 
Q 26.5 52.90625 22 50.953125 
Q 17.5 49 15.40625 44.703125 
L 15.203125 44.703125 
L 15.203125 71.40625 
z
M 46.703125 26.296875 
Q 46.703125 22.5 45.890625 18.890625 
Q 45.09375 15.296875 43.296875 12.5 
Q 41.5 9.703125 38.546875 8 
Q 35.59375 6.296875 31.203125 6.296875 
Q 26.796875 6.296875 23.6875 7.9375 
Q 20.59375 9.59375 18.640625 12.296875 
Q 16.703125 15 15.796875 18.546875 
Q 14.90625 22.09375 14.90625 25.90625 
Q 14.90625 29.5 15.75 33 
Q 16.59375 36.5 18.5 39.25 
Q 20.40625 42 23.40625 43.703125 
Q 26.40625 45.40625 30.703125 45.40625 
Q 34.796875 45.40625 37.84375 43.796875 
Q 40.90625 42.203125 42.84375 39.5 
Q 44.796875 36.796875 45.75 33.34375 
Q 46.703125 29.90625 46.703125 26.296875 
z
" id="HelveticaNeue-98"/>
      </defs>
      <g transform="translate(63.328125 176.8125)scale(0.08 -0.08)">
       <use xlink:href="#HelveticaNeue-98"/>
      </g>
     </g>
    </g>
    <g id="xtick_3">
     <g id="line2d_5">
      <path clip-path="url(#padb359d493)" d="M 94.5 165.1 
L 94.5 21.1 
" style="fill:none;stroke:#000000;stroke-linecap:square;stroke-opacity:0.1;stroke-width:0.6;"/>
     </g>
     <g id="line2d_6">
      <g>
       <use style="stroke:#000000;stroke-width:0.6;" x="94.5" xlink:href="#m9689921076" y="165.1"/>
      </g>
     </g>
     <g id="text_3">
      <!-- c -->
      <defs>
       <path d="M 41.5 35.09375 
L 50.296875 35.09375 
Q 49.796875 39.703125 47.890625 43.046875 
Q 46 46.40625 43.046875 48.59375 
Q 40.09375 50.796875 36.25 51.84375 
Q 32.40625 52.90625 28 52.90625 
Q 21.90625 52.90625 17.296875 50.75 
Q 12.703125 48.59375 9.640625 44.84375 
Q 6.59375 41.09375 5.09375 36.046875 
Q 3.59375 31 3.59375 25.203125 
Q 3.59375 19.40625 5.140625 14.546875 
Q 6.703125 9.703125 9.75 6.203125 
Q 12.796875 2.703125 17.34375 0.796875 
Q 21.90625 -1.09375 27.796875 -1.09375 
Q 37.703125 -1.09375 43.453125 4.09375 
Q 49.203125 9.296875 50.59375 18.90625 
L 41.90625 18.90625 
Q 41.09375 12.90625 37.546875 9.59375 
Q 34 6.296875 27.703125 6.296875 
Q 23.703125 6.296875 20.796875 7.890625 
Q 17.90625 9.5 16.09375 12.140625 
Q 14.296875 14.796875 13.4375 18.1875 
Q 12.59375 21.59375 12.59375 25.203125 
Q 12.59375 29.09375 13.390625 32.75 
Q 14.203125 36.40625 16.046875 39.203125 
Q 17.90625 42 21 43.703125 
Q 24.09375 45.40625 28.703125 45.40625 
Q 34.09375 45.40625 37.296875 42.703125 
Q 40.5 40 41.5 35.09375 
z
" id="HelveticaNeue-99"/>
      </defs>
      <g transform="translate(92.351875 176.8125)scale(0.08 -0.08)">
       <use xlink:href="#HelveticaNeue-99"/>
      </g>
     </g>
    </g>
    <g id="xtick_4">
     <g id="line2d_7">
      <path clip-path="url(#padb359d493)" d="M 123.3 165.1 
L 123.3 21.1 
" style="fill:none;stroke:#000000;stroke-linecap:square;stroke-opacity:0.1;stroke-width:0.6;"/>
     </g>
     <g id="line2d_8">
      <g>
       <use style="stroke:#000000;stroke-width:0.6;" x="123.3" xlink:href="#m9689921076" y="165.1"/>
      </g>
     </g>
     <g id="text_4">
      <!-- d -->
      <defs>
       <path d="M 12.59375 25.40625 
Q 12.59375 29.203125 13.390625 32.796875 
Q 14.203125 36.40625 16 39.203125 
Q 17.796875 42 20.796875 43.703125 
Q 23.796875 45.40625 28.09375 45.40625 
Q 32.5 45.40625 35.59375 43.75 
Q 38.703125 42.09375 40.640625 39.390625 
Q 42.59375 36.703125 43.5 33.140625 
Q 44.40625 29.59375 44.40625 25.796875 
Q 44.40625 22.203125 43.546875 18.703125 
Q 42.703125 15.203125 40.796875 12.453125 
Q 38.90625 9.703125 35.90625 8 
Q 32.90625 6.296875 28.59375 6.296875 
Q 24.5 6.296875 21.453125 7.890625 
Q 18.40625 9.5 16.453125 12.203125 
Q 14.5 14.90625 13.546875 18.34375 
Q 12.59375 21.796875 12.59375 25.40625 
z
M 52.59375 0 
L 52.59375 71.40625 
L 44.09375 71.40625 
L 44.09375 44.796875 
L 43.90625 44.796875 
Q 42.5 47.09375 40.453125 48.640625 
Q 38.40625 50.203125 36.09375 51.140625 
Q 33.796875 52.09375 31.5 52.5 
Q 29.203125 52.90625 27.203125 52.90625 
Q 21.296875 52.90625 16.84375 50.75 
Q 12.40625 48.59375 9.453125 44.9375 
Q 6.5 41.296875 5.046875 36.390625 
Q 3.59375 31.5 3.59375 26 
Q 3.59375 20.5 5.09375 15.59375 
Q 6.59375 10.703125 9.546875 7 
Q 12.5 3.296875 16.953125 1.09375 
Q 21.40625 -1.09375 27.40625 -1.09375 
Q 32.796875 -1.09375 37.296875 0.796875 
Q 41.796875 2.703125 43.90625 7 
L 44.09375 7 
L 44.09375 0 
z
" id="HelveticaNeue-100"/>
      </defs>
      <g transform="translate(120.928125 176.8125)scale(0.08 -0.08)">
       <use xlink:href="#HelveticaNeue-100"/>
      </g>
     </g>
    </g>
    <g id="xtick_5">
     <g id="line2d_9">
      <path clip-path="url(#padb359d493)" d="M 152.1 165.1 
L 152.1 21.1 
" style="fill:none;stroke:#000000;stroke-linecap:square;stroke-opacity:0.1;stroke-width:0.6;"/>
     </g>
     <g id="line2d_10">
      <g>
       <use style="stroke:#000000;stroke-width:0.6;" x="152.1" xlink:href="#m9689921076" y="165.1"/>
      </g>
     </g>
     <g id="text_5">
      <!-- e -->
      <defs>
       <path d="M 42.296875 30.796875 
L 12.59375 30.796875 
Q 12.796875 33.796875 13.890625 36.4375 
Q 15 39.09375 16.890625 41.09375 
Q 18.796875 43.09375 21.4375 44.25 
Q 24.09375 45.40625 27.40625 45.40625 
Q 30.59375 45.40625 33.25 44.25 
Q 35.90625 43.09375 37.84375 41.140625 
Q 39.796875 39.203125 40.9375 36.5 
Q 42.09375 33.796875 42.296875 30.796875 
z
M 50.5 16.40625 
L 42.09375 16.40625 
Q 41 11.296875 37.546875 8.796875 
Q 34.09375 6.296875 28.703125 6.296875 
Q 24.5 6.296875 21.390625 7.6875 
Q 18.296875 9.09375 16.296875 11.4375 
Q 14.296875 13.796875 13.390625 16.84375 
Q 12.5 19.90625 12.59375 23.296875 
L 51.296875 23.296875 
Q 51.5 28 50.453125 33.203125 
Q 49.40625 38.40625 46.65625 42.796875 
Q 43.90625 47.203125 39.34375 50.046875 
Q 34.796875 52.90625 27.90625 52.90625 
Q 22.59375 52.90625 18.140625 50.90625 
Q 13.703125 48.90625 10.453125 45.296875 
Q 7.203125 41.703125 5.390625 36.796875 
Q 3.59375 31.90625 3.59375 26 
Q 3.796875 20.09375 5.34375 15.09375 
Q 6.90625 10.09375 10 6.5 
Q 13.09375 2.90625 17.640625 0.90625 
Q 22.203125 -1.09375 28.40625 -1.09375 
Q 37.203125 -1.09375 43 3.296875 
Q 48.796875 7.703125 50.5 16.40625 
z
" id="HelveticaNeue-101"/>
      </defs>
      <g transform="translate(149.951875 176.8125)scale(0.08 -0.08)">
       <use xlink:href="#HelveticaNeue-101"/>
      </g>
     </g>
    </g>
    <g id="xtick_6">
     <g id="line2d_11">
      <defs>
       <path d="M 0 0 
L 0 2 
" id="m05a4efdd84" style="stroke:#000000;stroke-width:0.48;"/>
      </defs>
      <g>
       <use style="stroke:#000000;stroke-width:0.48;" x="25.38" xlink:href="#m05a4efdd84" y="165.1"/>
      </g>
     </g>
    </g>
    <g id="xtick_7">
     <g id="line2d_12">
      <g>
       <use style="stroke:#000000;stroke-width:0.48;" x="31.14" xlink:href="#m05a4efdd84" y="165.1"/>
      </g>
     </g>
    </g>
    <g id="xtick_8">
     <g id="line2d_13">
      <g>
       <use style="stroke:#000000;stroke-width:0.48;" x="42.66" xlink:href="#m05a4efdd84" y="165.1"/>
      </g>
     </g>
    </g>
    <g id="xtick_9">
     <g id="line2d_14">
      <g>
       <use style="stroke:#000000;stroke-width:0.48;" x="48.42" xlink:href="#m05a4efdd84" y="165.1"/>
      </g>
     </g>
    </g>
    <g id="xtick_10">
     <g id="line2d_15">
      <g>
       <use style="stroke:#000000;stroke-width:0.48;" x="54.18" xlink:href="#m05a4efdd84" y="165.1"/>
      </g>
     </g>
    </g>
    <g id="xtick_11">
     <g id="line2d_16">
      <g>
       <use style="stroke:#000000;stroke-width:0.48;" x="59.94" xlink:href="#m05a4efdd84" y="165.1"/>
      </g>
     </g>
    </g>
    <g id="xtick_12">
     <g id="line2d_17">
      <g>
       <use style="stroke:#000000;stroke-width:0.48;" x="71.46" xlink:href="#m05a4efdd84" y="165.1"/>
      </g>
     </g>
    </g>
    <g id="xtick_13">
     <g id="line2d_18">
      <g>
       <use style="stroke:#000000;stroke-width:0.48;" x="77.22" xlink:href="#m05a4efdd84" y="165.1"/>
      </g>
     </g>
    </g>
    <g id="xtick_14">
     <g id="line2d_19">
      <g>
       <use style="stroke:#000000;stroke-width:0.48;" x="82.98" xlink:href="#m05a4efdd84" y="165.1"/>
      </g>
     </g>
    </g>
    <g id="xtick_15">
     <g id="line2d_20">
      <g>
       <use style="stroke:#000000;stroke-width:0.48;" x="88.74" xlink:href="#m05a4efdd84" y="165.1"/>
      </g>
     </g>
    </g>
    <g id="xtick_16">
     <g id="line2d_21">
      <g>
       <use style="stroke:#000000;stroke-width:0.48;" x="100.26" xlink:href="#m05a4efdd84" y="165.1"/>
      </g>
     </g>
    </g>
    <g id="xtick_17">
     <g id="line2d_22">
      <g>
       <use style="stroke:#000000;stroke-width:0.48;" x="106.02" xlink:href="#m05a4efdd84" y="165.1"/>
      </g>
     </g>
    </g>
    <g id="xtick_18">
     <g id="line2d_23">
      <g>
       <use style="stroke:#000000;stroke-width:0.48;" x="111.78" xlink:href="#m05a4efdd84" y="165.1"/>
      </g>
     </g>
    </g>
    <g id="xtick_19">
     <g id="line2d_24">
      <g>
       <use style="stroke:#000000;stroke-width:0.48;" x="117.54" xlink:href="#m05a4efdd84" y="165.1"/>
      </g>
     </g>
    </g>
    <g id="xtick_20">
     <g id="line2d_25">
      <g>
       <use style="stroke:#000000;stroke-width:0.48;" x="129.06" xlink:href="#m05a4efdd84" y="165.1"/>
      </g>
     </g>
    </g>
    <g id="xtick_21">
     <g id="line2d_26">
      <g>
       <use style="stroke:#000000;stroke-width:0.48;" x="134.82" xlink:href="#m05a4efdd84" y="165.1"/>
      </g>
     </g>
    </g>
    <g id="xtick_22">
     <g id="line2d_27">
      <g>
       <use style="stroke:#000000;stroke-width:0.48;" x="140.58" xlink:href="#m05a4efdd84" y="165.1"/>
      </g>
     </g>
    </g>
    <g id="xtick_23">
     <g id="line2d_28">
      <g>
       <use style="stroke:#000000;stroke-width:0.48;" x="146.34" xlink:href="#m05a4efdd84" y="165.1"/>
      </g>
     </g>
    </g>
    <g id="xtick_24">
     <g id="line2d_29">
      <g>
       <use style="stroke:#000000;stroke-width:0.48;" x="157.86" xlink:href="#m05a4efdd84" y="165.1"/>
      </g>
     </g>
    </g>
    <g id="xtick_25">
     <g id="line2d_30">
      <g>
       <use style="stroke:#000000;stroke-width:0.48;" x="163.62" xlink:href="#m05a4efdd84" y="165.1"/>
      </g>
     </g>
    </g>
    <g id="text_6">
     <!-- xlabel -->
     <defs>
      <path d="M 20.296875 27.203125 
L 0.90625 0 
L 11.203125 0 
L 25.59375 21.40625 
L 40 0 
L 50.90625 0 
L 30.90625 27.90625 
L 48.703125 51.703125 
L 38.5 51.703125 
L 25.59375 33.59375 
L 13.203125 51.703125 
L 2.296875 51.703125 
z
" id="HelveticaNeue-120"/>
      <path d="M 6.90625 71.40625 
L 6.90625 0 
L 15.40625 0 
L 15.40625 71.40625 
z
" id="HelveticaNeue-108"/>
     </defs>
     <g transform="translate(162.78375 187.10125)scale(0.08 -0.08)">
      <use xlink:href="#HelveticaNeue-120"/>
      <use x="51.799988" xlink:href="#HelveticaNeue-108"/>
      <use x="73.999985" xlink:href="#HelveticaNeue-97"/>
      <use x="127.699982" xlink:href="#HelveticaNeue-98"/>
      <use x="186.999969" xlink:href="#HelveticaNeue-101"/>
      <use x="240.699966" xlink:href="#HelveticaNeue-108"/>
     </g>
    </g>
   </g>
   <g id="matplotlib.axis_2">
    <g id="ytick_1">
     <g id="line2d_31">
      <path clip-path="url(#padb359d493)" d="M 22.5 145.632606 
L 166.5 145.632606 
" style="fill:none;stroke:#000000;stroke-linecap:square;stroke-opacity:0.1;stroke-width:0.6;"/>
     </g>
     <g id="line2d_32">
      <defs>
       <path d="M 0 0 
L -4 0 
" id="m1212680a6a" style="stroke:#000000;stroke-width:0.6;"/>
      </defs>
      <g>
       <use style="stroke:#000000;stroke-width:0.6;" x="22.5" xlink:href="#m1212680a6a" y="145.632606"/>
      </g>
     </g>
     <g id="text_7">
      <!-- −2 -->
      <defs>
       <path d="M 4.796875 28.703125 
L 4.796875 21.90625 
L 55.203125 21.90625 
L 55.203125 28.703125 
z
" id="HelveticaNeue-8722"/>
       <path d="M 4.40625 45.796875 
L 12.90625 45.796875 
Q 12.796875 49 13.546875 52.140625 
Q 14.296875 55.296875 16 57.796875 
Q 17.703125 60.296875 20.34375 61.84375 
Q 23 63.40625 26.703125 63.40625 
Q 29.5 63.40625 32 62.5 
Q 34.5 61.59375 36.34375 59.890625 
Q 38.203125 58.203125 39.296875 55.84375 
Q 40.40625 53.5 40.40625 50.59375 
Q 40.40625 46.90625 39.25 44.09375 
Q 38.09375 41.296875 35.84375 38.890625 
Q 33.59375 36.5 30.1875 34.140625 
Q 26.796875 31.796875 22.296875 29 
Q 18.59375 26.796875 15.1875 24.296875 
Q 11.796875 21.796875 9.09375 18.5 
Q 6.40625 15.203125 4.65625 10.75 
Q 2.90625 6.296875 2.40625 0 
L 48.703125 0 
L 48.703125 7.5 
L 12.296875 7.5 
Q 12.90625 10.796875 14.84375 13.34375 
Q 16.796875 15.90625 19.546875 18.09375 
Q 22.296875 20.296875 25.59375 22.25 
Q 28.90625 24.203125 32.203125 26.203125 
Q 35.5 28.296875 38.59375 30.59375 
Q 41.703125 32.90625 44.09375 35.75 
Q 46.5 38.59375 47.953125 42.1875 
Q 49.40625 45.796875 49.40625 50.5 
Q 49.40625 55.5 47.65625 59.296875 
Q 45.90625 63.09375 42.90625 65.640625 
Q 39.90625 68.203125 35.84375 69.546875 
Q 31.796875 70.90625 27.203125 70.90625 
Q 21.59375 70.90625 17.1875 69 
Q 12.796875 67.09375 9.84375 63.75 
Q 6.90625 60.40625 5.5 55.796875 
Q 4.09375 51.203125 4.40625 45.796875 
z
" id="HelveticaNeue-50"/>
      </defs>
      <g transform="translate(7.2525 148.488856)scale(0.08 -0.08)">
       <use xlink:href="#HelveticaNeue-8722"/>
       <use x="59.999985" xlink:href="#HelveticaNeue-50"/>
      </g>
     </g>
    </g>
    <g id="ytick_2">
     <g id="line2d_33">
      <path clip-path="url(#padb359d493)" d="M 22.5 118.30366 
L 166.5 118.30366 
" style="fill:none;stroke:#000000;stroke-linecap:square;stroke-opacity:0.1;stroke-width:0.6;"/>
     </g>
     <g id="line2d_34">
      <g>
       <use style="stroke:#000000;stroke-width:0.6;" x="22.5" xlink:href="#m1212680a6a" y="118.30366"/>
      </g>
     </g>
     <g id="text_8">
      <!-- −1 -->
      <defs>
       <path d="M 35.59375 0 
L 35.59375 70.90625 
L 29.09375 70.90625 
Q 28.40625 66.90625 26.5 64.296875 
Q 24.59375 61.703125 21.84375 60.203125 
Q 19.09375 58.703125 15.6875 58.140625 
Q 12.296875 57.59375 8.703125 57.59375 
L 8.703125 50.796875 
L 27.09375 50.796875 
L 27.09375 0 
z
" id="HelveticaNeue-49"/>
      </defs>
      <g transform="translate(7.2525 121.15991)scale(0.08 -0.08)">
       <use xlink:href="#HelveticaNeue-8722"/>
       <use x="59.999985" xlink:href="#HelveticaNeue-49"/>
      </g>
     </g>
    </g>
    <g id="ytick_3">
     <g id="line2d_35">
      <path clip-path="url(#padb359d493)" d="M 22.5 90.974713 
L 166.5 90.974713 
" style="fill:none;stroke:#000000;stroke-linecap:square;stroke-opacity:0.1;stroke-width:0.6;"/>
     </g>
     <g id="line2d_36">
      <g>
       <use style="stroke:#000000;stroke-width:0.6;" x="22.5" xlink:href="#m1212680a6a" y="90.974713"/>
      </g>
     </g>
     <g id="text_9">
      <!-- 0 -->
      <defs>
       <path d="M 13.203125 34.90625 
Q 13.203125 37.5 13.25 40.640625 
Q 13.296875 43.796875 13.75 46.9375 
Q 14.203125 50.09375 15.046875 53.09375 
Q 15.90625 56.09375 17.546875 58.34375 
Q 19.203125 60.59375 21.703125 62 
Q 24.203125 63.40625 27.796875 63.40625 
Q 31.40625 63.40625 33.90625 62 
Q 36.40625 60.59375 38.046875 58.34375 
Q 39.703125 56.09375 40.546875 53.09375 
Q 41.40625 50.09375 41.84375 46.9375 
Q 42.296875 43.796875 42.34375 40.640625 
Q 42.40625 37.5 42.40625 34.90625 
Q 42.40625 30.90625 42.15625 25.953125 
Q 41.90625 21 40.546875 16.640625 
Q 39.203125 12.296875 36.203125 9.296875 
Q 33.203125 6.296875 27.796875 6.296875 
Q 22.40625 6.296875 19.40625 9.296875 
Q 16.40625 12.296875 15.046875 16.640625 
Q 13.703125 21 13.453125 25.953125 
Q 13.203125 30.90625 13.203125 34.90625 
z
M 4.203125 34.796875 
Q 4.203125 30.90625 4.390625 26.703125 
Q 4.59375 22.5 5.390625 18.5 
Q 6.203125 14.5 7.703125 10.953125 
Q 9.203125 7.40625 11.796875 4.703125 
Q 14.40625 2 18.34375 0.453125 
Q 22.296875 -1.09375 27.796875 -1.09375 
Q 33.40625 -1.09375 37.296875 0.453125 
Q 41.203125 2 43.796875 4.703125 
Q 46.40625 7.40625 47.90625 10.953125 
Q 49.40625 14.5 50.203125 18.5 
Q 51 22.5 51.203125 26.703125 
Q 51.40625 30.90625 51.40625 34.796875 
Q 51.40625 38.703125 51.203125 42.890625 
Q 51 47.09375 50.203125 51.09375 
Q 49.40625 55.09375 47.90625 58.6875 
Q 46.40625 62.296875 43.796875 65 
Q 41.203125 67.703125 37.25 69.296875 
Q 33.296875 70.90625 27.796875 70.90625 
Q 22.296875 70.90625 18.34375 69.296875 
Q 14.40625 67.703125 11.796875 65 
Q 9.203125 62.296875 7.703125 58.6875 
Q 6.203125 55.09375 5.390625 51.09375 
Q 4.59375 47.09375 4.390625 42.890625 
Q 4.203125 38.703125 4.203125 34.796875 
z
" id="HelveticaNeue-48"/>
      </defs>
      <g transform="translate(12.0525 93.830963)scale(0.08 -0.08)">
       <use xlink:href="#HelveticaNeue-48"/>
      </g>
     </g>
    </g>
    <g id="ytick_4">
     <g id="line2d_37">
      <path clip-path="url(#padb359d493)" d="M 22.5 63.645767 
L 166.5 63.645767 
" style="fill:none;stroke:#000000;stroke-linecap:square;stroke-opacity:0.1;stroke-width:0.6;"/>
     </g>
     <g id="line2d_38">
      <g>
       <use style="stroke:#000000;stroke-width:0.6;" x="22.5" xlink:href="#m1212680a6a" y="63.645767"/>
      </g>
     </g>
     <g id="text_10">
      <!-- 1 -->
      <g transform="translate(12.0525 66.502017)scale(0.08 -0.08)">
       <use xlink:href="#HelveticaNeue-49"/>
      </g>
     </g>
    </g>
    <g id="ytick_5">
     <g id="line2d_39">
      <path clip-path="url(#padb359d493)" d="M 22.5 36.31682 
L 166.5 36.31682 
" style="fill:none;stroke:#000000;stroke-linecap:square;stroke-opacity:0.1;stroke-width:0.6;"/>
     </g>
     <g id="line2d_40">
      <g>
       <use style="stroke:#000000;stroke-width:0.6;" x="22.5" xlink:href="#m1212680a6a" y="36.31682"/>
      </g>
     </g>
     <g id="text_11">
      <!-- 2 -->
      <g transform="translate(12.0525 39.17307)scale(0.08 -0.08)">
       <use xlink:href="#HelveticaNeue-50"/>
      </g>
     </g>
    </g>
    <g id="ytick_6">
     <g id="line2d_41">
      <defs>
       <path d="M 0 0 
L -2 0 
" id="ma0a62f72b8" style="stroke:#000000;stroke-width:0.48;"/>
      </defs>
      <g>
       <use style="stroke:#000000;stroke-width:0.48;" x="22.5" xlink:href="#ma0a62f72b8" y="162.029974"/>
      </g>
     </g>
    </g>
    <g id="ytick_7">
     <g id="line2d_42">
      <g>
       <use style="stroke:#000000;stroke-width:0.48;" x="22.5" xlink:href="#ma0a62f72b8" y="156.564185"/>
      </g>
     </g>
    </g>
    <g id="ytick_8">
     <g id="line2d_43">
      <g>
       <use style="stroke:#000000;stroke-width:0.48;" x="22.5" xlink:href="#ma0a62f72b8" y="151.098395"/>
      </g>
     </g>
    </g>
    <g id="ytick_9">
     <g id="line2d_44">
      <g>
       <use style="stroke:#000000;stroke-width:0.48;" x="22.5" xlink:href="#ma0a62f72b8" y="140.166817"/>
      </g>
     </g>
    </g>
    <g id="ytick_10">
     <g id="line2d_45">
      <g>
       <use style="stroke:#000000;stroke-width:0.48;" x="22.5" xlink:href="#ma0a62f72b8" y="134.701027"/>
      </g>
     </g>
    </g>
    <g id="ytick_11">
     <g id="line2d_46">
      <g>
       <use style="stroke:#000000;stroke-width:0.48;" x="22.5" xlink:href="#ma0a62f72b8" y="129.235238"/>
      </g>
     </g>
    </g>
    <g id="ytick_12">
     <g id="line2d_47">
      <g>
       <use style="stroke:#000000;stroke-width:0.48;" x="22.5" xlink:href="#ma0a62f72b8" y="123.769449"/>
      </g>
     </g>
    </g>
    <g id="ytick_13">
     <g id="line2d_48">
      <g>
       <use style="stroke:#000000;stroke-width:0.48;" x="22.5" xlink:href="#ma0a62f72b8" y="112.83787"/>
      </g>
     </g>
    </g>
    <g id="ytick_14">
     <g id="line2d_49">
      <g>
       <use style="stroke:#000000;stroke-width:0.48;" x="22.5" xlink:href="#ma0a62f72b8" y="107.372081"/>
      </g>
     </g>
    </g>
    <g id="ytick_15">
     <g id="line2d_50">
      <g>
       <use style="stroke:#000000;stroke-width:0.48;" x="22.5" xlink:href="#ma0a62f72b8" y="101.906292"/>
      </g>
     </g>
    </g>
    <g id="ytick_16">
     <g id="line2d_51">
      <g>
       <use style="stroke:#000000;stroke-width:0.48;" x="22.5" xlink:href="#ma0a62f72b8" y="96.440502"/>
      </g>
     </g>
    </g>
    <g id="ytick_17">
     <g id="line2d_52">
      <g>
       <use style="stroke:#000000;stroke-width:0.48;" x="22.5" xlink:href="#ma0a62f72b8" y="85.508924"/>
      </g>
     </g>
    </g>
    <g id="ytick_18">
     <g id="line2d_53">
      <g>
       <use style="stroke:#000000;stroke-width:0.48;" x="22.5" xlink:href="#ma0a62f72b8" y="80.043134"/>
      </g>
     </g>
    </g>
    <g id="ytick_19">
     <g id="line2d_54">
      <g>
       <use style="stroke:#000000;stroke-width:0.48;" x="22.5" xlink:href="#ma0a62f72b8" y="74.577345"/>
      </g>
     </g>
    </g>
    <g id="ytick_20">
     <g id="line2d_55">
      <g>
       <use style="stroke:#000000;stroke-width:0.48;" x="22.5" xlink:href="#ma0a62f72b8" y="69.111556"/>
      </g>
     </g>
    </g>
    <g id="ytick_21">
     <g id="line2d_56">
      <g>
       <use style="stroke:#000000;stroke-width:0.48;" x="22.5" xlink:href="#ma0a62f72b8" y="58.179977"/>
      </g>
     </g>
    </g>
    <g id="ytick_22">
     <g id="line2d_57">
      <g>
       <use style="stroke:#000000;stroke-width:0.48;" x="22.5" xlink:href="#ma0a62f72b8" y="52.714188"/>
      </g>
     </g>
    </g>
    <g id="ytick_23">
     <g id="line2d_58">
      <g>
       <use style="stroke:#000000;stroke-width:0.48;" x="22.5" xlink:href="#ma0a62f72b8" y="47.248399"/>
      </g>
     </g>
    </g>
    <g id="ytick_24">
     <g id="line2d_59">
      <g>
       <use style="stroke:#000000;stroke-width:0.48;" x="22.5" xlink:href="#ma0a62f72b8" y="41.782609"/>
      </g>
     </g>
    </g>
    <g id="ytick_25">
     <g id="line2d_60">
      <g>
       <use style="stroke:#000000;stroke-width:0.48;" x="22.5" xlink:href="#ma0a62f72b8" y="30.851031"/>
      </g>
     </g>
    </g>
    <g id="ytick_26">
     <g id="line2d_61">
      <g>
       <use style="stroke:#000000;stroke-width:0.48;" x="22.5" xlink:href="#ma0a62f72b8" y="25.385241"/>
      </g>
     </g>
    </g>
   </g>
   <g id="line2d_62">
    <path clip-path="url(#padb359d493)" d="M 29.7 96.364616 
L 44.1 96.364616 
L 44.1 72.963069 
L 29.7 72.963069 
L 29.7 96.364616 
" style="fill:none;stroke:#495057;stroke-linecap:square;stroke-width:0.7;"/>
   </g>
   <g id="line2d_63">
    <path clip-path="url(#padb359d493)" d="M 36.9 96.364616 
L 36.9 113.765102 
" style="fill:none;stroke:#495057;stroke-linecap:square;stroke-width:0.7;"/>
   </g>
   <g id="line2d_64">
    <path clip-path="url(#padb359d493)" d="M 36.9 72.963069 
L 36.9 43.927962 
" style="fill:none;stroke:#495057;stroke-linecap:square;stroke-width:0.7;"/>
   </g>
   <g id="line2d_65">
    <path clip-path="url(#padb359d493)" d="M 33.3 113.765102 
L 40.5 113.765102 
" style="fill:none;stroke:#495057;stroke-linecap:square;stroke-width:0.7;"/>
   </g>
   <g id="line2d_66">
    <path clip-path="url(#padb359d493)" d="M 33.3 43.927962 
L 40.5 43.927962 
" style="fill:none;stroke:#495057;stroke-linecap:square;stroke-width:0.7;"/>
   </g>
   <g id="line2d_67">
    <defs>
     <path d="M -3 3 
L 3 -3 
M -3 -3 
L 3 3 
" id="me7c1e4a6cc" style="stroke:#495057;stroke-width:0.7;"/>
    </defs>
    <g clip-path="url(#padb359d493)">
     <use style="fill-opacity:0;stroke:#495057;stroke-width:0.7;" x="36.9" xlink:href="#me7c1e4a6cc" y="151.912686"/>
     <use style="fill-opacity:0;stroke:#495057;stroke-width:0.7;" x="36.9" xlink:href="#me7c1e4a6cc" y="37.364419"/>
    </g>
   </g>
   <g id="line2d_68">
    <path clip-path="url(#padb359d493)" d="M 58.5 103.34389 
L 72.9 103.34389 
L 72.9 61.305771 
L 58.5 61.305771 
L 58.5 103.34389 
" style="fill:none;stroke:#495057;stroke-linecap:square;stroke-width:0.7;"/>
   </g>
   <g id="line2d_69">
    <path clip-path="url(#padb359d493)" d="M 65.7 103.34389 
L 65.7 122.252087 
" style="fill:none;stroke:#495057;stroke-linecap:square;stroke-width:0.7;"/>
   </g>
   <g id="line2d_70">
    <path clip-path="url(#padb359d493)" d="M 65.7 61.305771 
L 65.7 51.180649 
" style="fill:none;stroke:#495057;stroke-linecap:square;stroke-width:0.7;"/>
   </g>
   <g id="line2d_71">
    <path clip-path="url(#padb359d493)" d="M 62.1 122.252087 
L 69.3 122.252087 
" style="fill:none;stroke:#495057;stroke-linecap:square;stroke-width:0.7;"/>
   </g>
   <g id="line2d_72">
    <path clip-path="url(#padb359d493)" d="M 62.1 51.180649 
L 69.3 51.180649 
" style="fill:none;stroke:#495057;stroke-linecap:square;stroke-width:0.7;"/>
   </g>
   <g id="line2d_73"/>
   <g id="line2d_74">
    <path clip-path="url(#padb359d493)" d="M 87.3 92.678138 
L 101.7 92.678138 
L 101.7 68.20786 
L 87.3 68.20786 
L 87.3 92.678138 
" style="fill:none;stroke:#495057;stroke-linecap:square;stroke-width:0.7;"/>
   </g>
   <g id="line2d_75">
    <path clip-path="url(#padb359d493)" d="M 94.5 92.678138 
L 94.5 107.987712 
" style="fill:none;stroke:#495057;stroke-linecap:square;stroke-width:0.7;"/>
   </g>
   <g id="line2d_76">
    <path clip-path="url(#padb359d493)" d="M 94.5 68.20786 
L 94.5 33.1 
" style="fill:none;stroke:#495057;stroke-linecap:square;stroke-width:0.7;"/>
   </g>
   <g id="line2d_77">
    <path clip-path="url(#padb359d493)" d="M 90.9 107.987712 
L 98.1 107.987712 
" style="fill:none;stroke:#495057;stroke-linecap:square;stroke-width:0.7;"/>
   </g>
   <g id="line2d_78">
    <path clip-path="url(#padb359d493)" d="M 90.9 33.1 
L 98.1 33.1 
" style="fill:none;stroke:#495057;stroke-linecap:square;stroke-width:0.7;"/>
   </g>
   <g id="line2d_79">
    <g clip-path="url(#padb359d493)">
     <use style="fill-opacity:0;stroke:#495057;stroke-width:0.7;" x="94.5" xlink:href="#me7c1e4a6cc" y="138.836457"/>
    </g>
   </g>
   <g id="line2d_80">
    <path clip-path="url(#padb359d493)" d="M 116.1 120.613071 
L 130.5 120.613071 
L 130.5 73.670163 
L 116.1 73.670163 
L 116.1 120.613071 
" style="fill:none;stroke:#495057;stroke-linecap:square;stroke-width:0.7;"/>
   </g>
   <g id="line2d_81">
    <path clip-path="url(#padb359d493)" d="M 123.3 120.613071 
L 123.3 153.1 
" style="fill:none;stroke:#495057;stroke-linecap:square;stroke-width:0.7;"/>
   </g>
   <g id="line2d_82">
    <path clip-path="url(#padb359d493)" d="M 123.3 73.670163 
L 123.3 43.747644 
" style="fill:none;stroke:#495057;stroke-linecap:square;stroke-width:0.7;"/>
   </g>
   <g id="line2d_83">
    <path clip-path="url(#padb359d493)" d="M 119.7 153.1 
L 126.9 153.1 
" style="fill:none;stroke:#495057;stroke-linecap:square;stroke-width:0.7;"/>
   </g>
   <g id="line2d_84">
    <path clip-path="url(#padb359d493)" d="M 119.7 43.747644 
L 126.9 43.747644 
" style="fill:none;stroke:#495057;stroke-linecap:square;stroke-width:0.7;"/>
   </g>
   <g id="line2d_85"/>
   <g id="line2d_86">
    <path clip-path="url(#padb359d493)" d="M 144.9 105.892863 
L 159.3 105.892863 
L 159.3 71.724816 
L 144.9 71.724816 
L 144.9 105.892863 
" style="fill:none;stroke:#495057;stroke-linecap:square;stroke-width:0.7;"/>
   </g>
   <g id="line2d_87">
    <path clip-path="url(#padb359d493)" d="M 152.1 105.892863 
L 152.1 144.41536 
" style="fill:none;stroke:#495057;stroke-linecap:square;stroke-width:0.7;"/>
   </g>
   <g id="line2d_88">
    <path clip-path="url(#padb359d493)" d="M 152.1 71.724816 
L 152.1 44.126783 
" style="fill:none;stroke:#495057;stroke-linecap:square;stroke-width:0.7;"/>
   </g>
   <g id="line2d_89">
    <path clip-path="url(#padb359d493)" d="M 148.5 144.41536 
L 155.7 144.41536 
" style="fill:none;stroke:#495057;stroke-linecap:square;stroke-width:0.7;"/>
   </g>
   <g id="line2d_90">
    <path clip-path="url(#padb359d493)" d="M 148.5 44.126783 
L 155.7 44.126783 
" style="fill:none;stroke:#495057;stroke-linecap:square;stroke-width:0.7;"/>
   </g>
   <g id="line2d_91"/>
   <g id="line2d_92">
    <path clip-path="url(#padb359d493)" d="M 29.7 82.127935 
L 44.1 82.127935 
" style="fill:none;stroke:#000000;stroke-linecap:square;"/>
   </g>
   <g id="line2d_93">
    <path clip-path="url(#padb359d493)" d="M 58.5 88.372543 
L 72.9 88.372543 
" style="fill:none;stroke:#000000;stroke-linecap:square;"/>
   </g>
   <g id="line2d_94">
    <path clip-path="url(#padb359d493)" d="M 87.3 78.200455 
L 101.7 78.200455 
" style="fill:none;stroke:#000000;stroke-linecap:square;"/>
   </g>
   <g id="line2d_95">
    <path clip-path="url(#padb359d493)" d="M 116.1 91.85794 
L 130.5 91.85794 
" style="fill:none;stroke:#000000;stroke-linecap:square;"/>
   </g>
   <g id="line2d_96">
    <path clip-path="url(#padb359d493)" d="M 144.9 86.565993 
L 159.3 86.565993 
" style="fill:none;stroke:#000000;stroke-linecap:square;"/>
   </g>
   <g id="patch_8">
    <path d="M 22.5 165.1 
L 22.5 21.1 
" style="fill:none;stroke:#000000;stroke-linecap:square;stroke-linejoin:miter;stroke-width:0.6;"/>
   </g>
   <g id="patch_9">
    <path d="M 166.5 165.1 
L 166.5 21.1 
" style="fill:none;stroke:#000000;stroke-linecap:square;stroke-linejoin:miter;stroke-width:0.6;"/>
   </g>
   <g id="patch_10">
    <path d="M 22.5 165.1 
L 166.5 165.1 
" style="fill:none;stroke:#000000;stroke-linecap:square;stroke-linejoin:miter;stroke-width:0.6;"/>
   </g>
   <g id="patch_11">
    <path d="M 22.5 21.1 
L 166.5 21.1 
" style="fill:none;stroke:#000000;stroke-linecap:square;stroke-linejoin:miter;stroke-width:0.6;"/>
   </g>
  </g>
  <g id="axes_2">
   <g id="patch_12">
    <path d="M 180.1 165.1 
L 324.1 165.1 
L 324.1 21.1 
L 180.1 21.1 
z
" style="fill:#ffffff;"/>
   </g>
   <g id="PolyCollection_1">
    <defs>
     <path d="M 199.350006 -43.787314 
L 198.183328 -43.787314 
L 198.180739 -44.944368 
L 198.181088 -46.101421 
L 198.184025 -47.258474 
L 198.189083 -48.415527 
L 198.195693 -49.57258 
L 198.203188 -50.729634 
L 198.210819 -51.886687 
L 198.217769 -53.04374 
L 198.223168 -54.200793 
L 198.226117 -55.357846 
L 198.2257 -56.5149 
L 198.221007 -57.671953 
L 198.211153 -58.829006 
L 198.19529 -59.986059 
L 198.172631 -61.143112 
L 198.142457 -62.300166 
L 198.104133 -63.457219 
L 198.057113 -64.614272 
L 198.000952 -65.771325 
L 197.935306 -66.928378 
L 197.859938 -68.085432 
L 197.77471 -69.242485 
L 197.679588 -70.399538 
L 197.574633 -71.556591 
L 197.459996 -72.713644 
L 197.335906 -73.870698 
L 197.20267 -75.027751 
L 197.060656 -76.184804 
L 196.910286 -77.341857 
L 196.752033 -78.49891 
L 196.586406 -79.655964 
L 196.413948 -80.813017 
L 196.235231 -81.97007 
L 196.050852 -83.127123 
L 195.86143 -84.284176 
L 195.667611 -85.44123 
L 195.470062 -86.598283 
L 195.269483 -87.755336 
L 195.066604 -88.912389 
L 194.862195 -90.069442 
L 194.657068 -91.226496 
L 194.452087 -92.383549 
L 194.248169 -93.540602 
L 194.046295 -94.697655 
L 193.847506 -95.854708 
L 193.652912 -97.011762 
L 193.46369 -98.168815 
L 193.281082 -99.325868 
L 193.10639 -100.482921 
L 192.940971 -101.639974 
L 192.786224 -102.797028 
L 192.643576 -103.954081 
L 192.514465 -105.111134 
L 192.40032 -106.268187 
L 192.302534 -107.42524 
L 192.222436 -108.582294 
L 192.161266 -109.739347 
L 192.120135 -110.8964 
L 192.1 -112.053453 
L 192.101624 -113.210506 
L 192.12555 -114.36756 
L 192.172069 -115.524613 
L 192.241194 -116.681666 
L 192.332642 -117.838719 
L 192.445822 -118.995772 
L 192.579823 -120.152826 
L 192.733424 -121.309879 
L 192.905097 -122.466932 
L 193.093034 -123.623985 
L 193.295172 -124.781038 
L 193.509236 -125.938092 
L 193.732775 -127.095145 
L 193.963224 -128.252198 
L 194.197954 -129.409251 
L 194.434334 -130.566304 
L 194.669792 -131.723357 
L 194.901873 -132.880411 
L 195.128296 -134.037464 
L 195.347006 -135.194517 
L 195.556217 -136.35157 
L 195.754451 -137.508623 
L 195.940558 -138.665677 
L 196.113736 -139.82273 
L 196.273534 -140.979783 
L 196.419843 -142.136836 
L 196.552881 -143.293889 
L 196.673161 -144.450943 
L 196.781462 -145.607996 
L 196.878777 -146.765049 
L 196.966273 -147.922102 
L 197.045233 -149.079155 
L 197.11701 -150.236209 
L 197.182971 -151.393262 
L 197.244451 -152.550315 
L 197.302708 -153.707368 
L 197.358887 -154.864421 
L 197.41399 -156.021475 
L 197.468853 -157.178528 
L 197.524129 -158.335581 
L 200.009204 -158.335581 
L 200.009204 -158.335581 
L 200.064481 -157.178528 
L 200.119343 -156.021475 
L 200.174446 -154.864421 
L 200.230626 -153.707368 
L 200.288883 -152.550315 
L 200.350362 -151.393262 
L 200.416323 -150.236209 
L 200.4881 -149.079155 
L 200.567061 -147.922102 
L 200.654556 -146.765049 
L 200.751872 -145.607996 
L 200.860172 -144.450943 
L 200.980453 -143.293889 
L 201.11349 -142.136836 
L 201.259799 -140.979783 
L 201.419597 -139.82273 
L 201.592776 -138.665677 
L 201.778883 -137.508623 
L 201.977116 -136.35157 
L 202.186328 -135.194517 
L 202.405038 -134.037464 
L 202.63146 -132.880411 
L 202.863541 -131.723357 
L 203.098999 -130.566304 
L 203.335379 -129.409251 
L 203.57011 -128.252198 
L 203.800559 -127.095145 
L 204.024098 -125.938092 
L 204.238161 -124.781038 
L 204.4403 -123.623985 
L 204.628237 -122.466932 
L 204.79991 -121.309879 
L 204.95351 -120.152826 
L 205.087511 -118.995772 
L 205.200691 -117.838719 
L 205.29214 -116.681666 
L 205.361265 -115.524613 
L 205.407783 -114.36756 
L 205.431709 -113.210506 
L 205.433333 -112.053453 
L 205.413198 -110.8964 
L 205.372068 -109.739347 
L 205.310897 -108.582294 
L 205.2308 -107.42524 
L 205.133013 -106.268187 
L 205.018868 -105.111134 
L 204.889757 -103.954081 
L 204.747109 -102.797028 
L 204.592362 -101.639974 
L 204.426943 -100.482921 
L 204.252252 -99.325868 
L 204.069644 -98.168815 
L 203.880422 -97.011762 
L 203.685828 -95.854708 
L 203.487039 -94.697655 
L 203.285164 -93.540602 
L 203.081246 -92.383549 
L 202.876265 -91.226496 
L 202.671138 -90.069442 
L 202.466729 -88.912389 
L 202.26385 -87.755336 
L 202.063271 -86.598283 
L 201.865723 -85.44123 
L 201.671903 -84.284176 
L 201.482482 -83.127123 
L 201.298103 -81.97007 
L 201.119386 -80.813017 
L 200.946928 -79.655964 
L 200.781301 -78.49891 
L 200.623047 -77.341857 
L 200.472678 -76.184804 
L 200.330663 -75.027751 
L 200.197427 -73.870698 
L 200.073338 -72.713644 
L 199.9587 -71.556591 
L 199.853745 -70.399538 
L 199.758624 -69.242485 
L 199.673396 -68.085432 
L 199.598027 -66.928378 
L 199.532381 -65.771325 
L 199.47622 -64.614272 
L 199.429201 -63.457219 
L 199.390876 -62.300166 
L 199.360702 -61.143112 
L 199.338043 -59.986059 
L 199.322181 -58.829006 
L 199.312326 -57.671953 
L 199.307633 -56.5149 
L 199.307216 -55.357846 
L 199.310165 -54.200793 
L 199.315565 -53.04374 
L 199.322514 -51.886687 
L 199.330145 -50.729634 
L 199.33764 -49.57258 
L 199.34425 -48.415527 
L 199.349309 -47.258474 
L 199.352245 -46.101421 
L 199.352595 -44.944368 
L 199.350006 -43.787314 
z
" id="md6a6bdb37b" style="stroke:#000000;stroke-opacity:0.7;stroke-width:0.7;"/>
    </defs>
    <g clip-path="url(#p9effdfdd47)">
     <use style="fill:#d55e00;fill-opacity:0.7;stroke:#000000;stroke-opacity:0.7;stroke-width:0.7;" x="0" xlink:href="#md6a6bdb37b" y="195.7"/>
    </g>
   </g>
   <g id="PolyCollection_2">
    <defs>
     <path d="M 229.017508 -73.447913 
L 221.849159 -73.447913 
L 221.700566 -74.165806 
L 221.552435 -74.8837 
L 221.405148 -75.601593 
L 221.259082 -76.319486 
L 221.114605 -77.037379 
L 220.972074 -77.755273 
L 220.831835 -78.473166 
L 220.694222 -79.191059 
L 220.559553 -79.908953 
L 220.428131 -80.626846 
L 220.300245 -81.344739 
L 220.176166 -82.062633 
L 220.056148 -82.780526 
L 219.940432 -83.498419 
L 219.829239 -84.216313 
L 219.722776 -84.934206 
L 219.621236 -85.652099 
L 219.524793 -86.369992 
L 219.433611 -87.087886 
L 219.347836 -87.805779 
L 219.267604 -88.523672 
L 219.193036 -89.241566 
L 219.12424 -89.959459 
L 219.061313 -90.677352 
L 219.004337 -91.395246 
L 218.953385 -92.113139 
L 218.908515 -92.831032 
L 218.869771 -93.548926 
L 218.837186 -94.266819 
L 218.810777 -94.984712 
L 218.790544 -95.702606 
L 218.776473 -96.420499 
L 218.768532 -97.138392 
L 218.766667 -97.856285 
L 218.770806 -98.574179 
L 218.780854 -99.292072 
L 218.796692 -100.009965 
L 218.818177 -100.727859 
L 218.845136 -101.445752 
L 218.877372 -102.163645 
L 218.914655 -102.881539 
L 218.956728 -103.599432 
L 219.003301 -104.317325 
L 219.054053 -105.035219 
L 219.108633 -105.753112 
L 219.166658 -106.471005 
L 219.227717 -107.188898 
L 219.291369 -107.906792 
L 219.357149 -108.624685 
L 219.424567 -109.342578 
L 219.493114 -110.060472 
L 219.562265 -110.778365 
L 219.631482 -111.496258 
L 219.700222 -112.214152 
L 219.767938 -112.932045 
L 219.834091 -113.649938 
L 219.898149 -114.367832 
L 219.959601 -115.085725 
L 220.017958 -115.803618 
L 220.072763 -116.521512 
L 220.123598 -117.239405 
L 220.170088 -117.957298 
L 220.211911 -118.675191 
L 220.248801 -119.393085 
L 220.280558 -120.110978 
L 220.307048 -120.828871 
L 220.32821 -121.546765 
L 220.344058 -122.264658 
L 220.354687 -122.982551 
L 220.360268 -123.700445 
L 220.361055 -124.418338 
L 220.357379 -125.136231 
L 220.349648 -125.854125 
L 220.338343 -126.572018 
L 220.324015 -127.289911 
L 220.307276 -128.007804 
L 220.288796 -128.725698 
L 220.269292 -129.443591 
L 220.24952 -130.161484 
L 220.230267 -130.879378 
L 220.212338 -131.597271 
L 220.196549 -132.315164 
L 220.18371 -133.033058 
L 220.174622 -133.750951 
L 220.170056 -134.468844 
L 220.170752 -135.186738 
L 220.177402 -135.904631 
L 220.190641 -136.622524 
L 220.21104 -137.340418 
L 220.239098 -138.058311 
L 220.27523 -138.776204 
L 220.31977 -139.494097 
L 220.372955 -140.211991 
L 220.434934 -140.929884 
L 220.505757 -141.647777 
L 220.585378 -142.365671 
L 220.673657 -143.083564 
L 220.770361 -143.801457 
L 220.87517 -144.519351 
L 229.991497 -144.519351 
L 229.991497 -144.519351 
L 230.096306 -143.801457 
L 230.19301 -143.083564 
L 230.281289 -142.365671 
L 230.36091 -141.647777 
L 230.431732 -140.929884 
L 230.493711 -140.211991 
L 230.546897 -139.494097 
L 230.591436 -138.776204 
L 230.627569 -138.058311 
L 230.655627 -137.340418 
L 230.676026 -136.622524 
L 230.689265 -135.904631 
L 230.695915 -135.186738 
L 230.696611 -134.468844 
L 230.692045 -133.750951 
L 230.682956 -133.033058 
L 230.670118 -132.315164 
L 230.654328 -131.597271 
L 230.6364 -130.879378 
L 230.617147 -130.161484 
L 230.597375 -129.443591 
L 230.577871 -128.725698 
L 230.559391 -128.007804 
L 230.542652 -127.289911 
L 230.528324 -126.572018 
L 230.517019 -125.854125 
L 230.509288 -125.136231 
L 230.505611 -124.418338 
L 230.506398 -123.700445 
L 230.51198 -122.982551 
L 230.522608 -122.264658 
L 230.538457 -121.546765 
L 230.559619 -120.828871 
L 230.586108 -120.110978 
L 230.617865 -119.393085 
L 230.654756 -118.675191 
L 230.696579 -117.957298 
L 230.743069 -117.239405 
L 230.793903 -116.521512 
L 230.848709 -115.803618 
L 230.907066 -115.085725 
L 230.968518 -114.367832 
L 231.032576 -113.649938 
L 231.098729 -112.932045 
L 231.166445 -112.214152 
L 231.235185 -111.496258 
L 231.304402 -110.778365 
L 231.373553 -110.060472 
L 231.4421 -109.342578 
L 231.509518 -108.624685 
L 231.575298 -107.906792 
L 231.63895 -107.188898 
L 231.700009 -106.471005 
L 231.758034 -105.753112 
L 231.812613 -105.035219 
L 231.863366 -104.317325 
L 231.909938 -103.599432 
L 231.952011 -102.881539 
L 231.989295 -102.163645 
L 232.021531 -101.445752 
L 232.04849 -100.727859 
L 232.069974 -100.009965 
L 232.085813 -99.292072 
L 232.095861 -98.574179 
L 232.1 -97.856285 
L 232.098135 -97.138392 
L 232.090193 -96.420499 
L 232.076123 -95.702606 
L 232.05589 -94.984712 
L 232.02948 -94.266819 
L 231.996895 -93.548926 
L 231.958152 -92.831032 
L 231.913281 -92.113139 
L 231.862329 -91.395246 
L 231.805354 -90.677352 
L 231.742427 -89.959459 
L 231.673631 -89.241566 
L 231.599062 -88.523672 
L 231.51883 -87.805779 
L 231.433056 -87.087886 
L 231.341874 -86.369992 
L 231.245431 -85.652099 
L 231.14389 -84.934206 
L 231.037428 -84.216313 
L 230.926235 -83.498419 
L 230.810519 -82.780526 
L 230.690501 -82.062633 
L 230.566422 -81.344739 
L 230.438535 -80.626846 
L 230.307114 -79.908953 
L 230.172445 -79.191059 
L 230.034832 -78.473166 
L 229.894593 -77.755273 
L 229.752062 -77.037379 
L 229.607584 -76.319486 
L 229.461518 -75.601593 
L 229.314232 -74.8837 
L 229.166101 -74.165806 
L 229.017508 -73.447913 
z
" id="m581c9db0e9" style="stroke:#000000;stroke-opacity:0.7;stroke-width:0.7;"/>
    </defs>
    <g clip-path="url(#p9effdfdd47)">
     <use style="fill:#d55e00;fill-opacity:0.7;stroke:#000000;stroke-opacity:0.7;stroke-width:0.7;" x="0" xlink:href="#m581c9db0e9" y="195.7"/>
    </g>
   </g>
   <g id="PolyCollection_3">
    <defs>
     <path d="M 252.777601 -56.863543 
L 251.422399 -56.863543 
L 251.410277 -57.931589 
L 251.399628 -58.999634 
L 251.389908 -60.067679 
L 251.380464 -61.135724 
L 251.370538 -62.203769 
L 251.359291 -63.271814 
L 251.345816 -64.339859 
L 251.329162 -65.407904 
L 251.308357 -66.475949 
L 251.282435 -67.543994 
L 251.250456 -68.612039 
L 251.211534 -69.680084 
L 251.164861 -70.748129 
L 251.109722 -71.816174 
L 251.045515 -72.884219 
L 250.971765 -73.952264 
L 250.888135 -75.020309 
L 250.794425 -76.088354 
L 250.69058 -77.156399 
L 250.576685 -78.224444 
L 250.452956 -79.292489 
L 250.319734 -80.360534 
L 250.177467 -81.428579 
L 250.026703 -82.496624 
L 249.868068 -83.564669 
L 249.702253 -84.632714 
L 249.529996 -85.700759 
L 249.352072 -86.768804 
L 249.169274 -87.836849 
L 248.982408 -88.904894 
L 248.792279 -89.972939 
L 248.59969 -91.040984 
L 248.405438 -92.109029 
L 248.210313 -93.177074 
L 248.015101 -94.245119 
L 247.820589 -95.313164 
L 247.627569 -96.381209 
L 247.436848 -97.449254 
L 247.249251 -98.517299 
L 247.065631 -99.585344 
L 246.886869 -100.653389 
L 246.713886 -101.721434 
L 246.547633 -102.789479 
L 246.389096 -103.857524 
L 246.239287 -104.925569 
L 246.099235 -105.993614 
L 245.969971 -107.061659 
L 245.852512 -108.129704 
L 245.747842 -109.197749 
L 245.656887 -110.265794 
L 245.580495 -111.333839 
L 245.519407 -112.401884 
L 245.474236 -113.469929 
L 245.445447 -114.537974 
L 245.433333 -115.606019 
L 245.43801 -116.674064 
L 245.459399 -117.742109 
L 245.497232 -118.810154 
L 245.551049 -119.878199 
L 245.620213 -120.946244 
L 245.703927 -122.014289 
L 245.801252 -123.082334 
L 245.911138 -124.150379 
L 246.032451 -125.218424 
L 246.164005 -126.286469 
L 246.304593 -127.354514 
L 246.453015 -128.42256 
L 246.608103 -129.490605 
L 246.768746 -130.55865 
L 246.933901 -131.626695 
L 247.102607 -132.69474 
L 247.273988 -133.762785 
L 247.44725 -134.83083 
L 247.621678 -135.898875 
L 247.796624 -136.96692 
L 247.971496 -138.034965 
L 248.145743 -139.10301 
L 248.318844 -140.171055 
L 248.490296 -141.2391 
L 248.659606 -142.307145 
L 248.826285 -143.37519 
L 248.989845 -144.443235 
L 249.149808 -145.51128 
L 249.305706 -146.579325 
L 249.457092 -147.64737 
L 249.603555 -148.715415 
L 249.744728 -149.78346 
L 249.880303 -150.851505 
L 250.010042 -151.91955 
L 250.133783 -152.987595 
L 250.251453 -154.05564 
L 250.363062 -155.123685 
L 250.468706 -156.19173 
L 250.568561 -157.259775 
L 250.662873 -158.32782 
L 250.751944 -159.395865 
L 250.836121 -160.46391 
L 250.915775 -161.531955 
L 250.991291 -162.6 
L 253.208709 -162.6 
L 253.208709 -162.6 
L 253.284225 -161.531955 
L 253.363879 -160.46391 
L 253.448056 -159.395865 
L 253.537127 -158.32782 
L 253.631439 -157.259775 
L 253.731294 -156.19173 
L 253.836938 -155.123685 
L 253.948547 -154.05564 
L 254.066217 -152.987595 
L 254.189958 -151.91955 
L 254.319697 -150.851505 
L 254.455272 -149.78346 
L 254.596445 -148.715415 
L 254.742908 -147.64737 
L 254.894294 -146.579325 
L 255.050192 -145.51128 
L 255.210155 -144.443235 
L 255.373715 -143.37519 
L 255.540394 -142.307145 
L 255.709704 -141.2391 
L 255.881156 -140.171055 
L 256.054257 -139.10301 
L 256.228504 -138.034965 
L 256.403376 -136.96692 
L 256.578322 -135.898875 
L 256.75275 -134.83083 
L 256.926012 -133.762785 
L 257.097393 -132.69474 
L 257.266099 -131.626695 
L 257.431254 -130.55865 
L 257.591897 -129.490605 
L 257.746985 -128.42256 
L 257.895407 -127.354514 
L 258.035995 -126.286469 
L 258.167549 -125.218424 
L 258.288862 -124.150379 
L 258.398748 -123.082334 
L 258.496073 -122.014289 
L 258.579787 -120.946244 
L 258.648951 -119.878199 
L 258.702768 -118.810154 
L 258.740601 -117.742109 
L 258.76199 -116.674064 
L 258.766667 -115.606019 
L 258.754553 -114.537974 
L 258.725764 -113.469929 
L 258.680593 -112.401884 
L 258.619505 -111.333839 
L 258.543113 -110.265794 
L 258.452158 -109.197749 
L 258.347488 -108.129704 
L 258.230029 -107.061659 
L 258.100765 -105.993614 
L 257.960713 -104.925569 
L 257.810904 -103.857524 
L 257.652367 -102.789479 
L 257.486114 -101.721434 
L 257.313131 -100.653389 
L 257.134369 -99.585344 
L 256.950749 -98.517299 
L 256.763152 -97.449254 
L 256.572431 -96.381209 
L 256.379411 -95.313164 
L 256.184899 -94.245119 
L 255.989687 -93.177074 
L 255.794562 -92.109029 
L 255.60031 -91.040984 
L 255.407721 -89.972939 
L 255.217592 -88.904894 
L 255.030726 -87.836849 
L 254.847928 -86.768804 
L 254.670004 -85.700759 
L 254.497747 -84.632714 
L 254.331932 -83.564669 
L 254.173297 -82.496624 
L 254.022533 -81.428579 
L 253.880266 -80.360534 
L 253.747044 -79.292489 
L 253.623315 -78.224444 
L 253.50942 -77.156399 
L 253.405575 -76.088354 
L 253.311865 -75.020309 
L 253.228235 -73.952264 
L 253.154485 -72.884219 
L 253.090278 -71.816174 
L 253.035139 -70.748129 
L 252.988466 -69.680084 
L 252.949544 -68.612039 
L 252.917565 -67.543994 
L 252.891643 -66.475949 
L 252.870838 -65.407904 
L 252.854184 -64.339859 
L 252.840709 -63.271814 
L 252.829462 -62.203769 
L 252.819536 -61.135724 
L 252.810092 -60.067679 
L 252.800372 -58.999634 
L 252.789723 -57.931589 
L 252.777601 -56.863543 
z
" id="m4a7215cccf" style="stroke:#000000;stroke-opacity:0.7;stroke-width:0.7;"/>
    </defs>
    <g clip-path="url(#p9effdfdd47)">
     <use style="fill:#d55e00;fill-opacity:0.7;stroke:#000000;stroke-opacity:0.7;stroke-width:0.7;" x="0" xlink:href="#m4a7215cccf" y="195.7"/>
    </g>
   </g>
   <g id="PolyCollection_4">
    <defs>
     <path d="M 280.190108 -42.6 
L 277.343225 -42.6 
L 277.251884 -43.704569 
L 277.156437 -44.809138 
L 277.056857 -45.913708 
L 276.95317 -47.018277 
L 276.845467 -48.122846 
L 276.733906 -49.227415 
L 276.618726 -50.331985 
L 276.500242 -51.436554 
L 276.378853 -52.541123 
L 276.255036 -53.645692 
L 276.129342 -54.750262 
L 276.002387 -55.854831 
L 275.874841 -56.9594 
L 275.74741 -58.063969 
L 275.620825 -59.168539 
L 275.495815 -60.273108 
L 275.373087 -61.377677 
L 275.25331 -62.482246 
L 275.137085 -63.586816 
L 275.024928 -64.691385 
L 274.917251 -65.795954 
L 274.814346 -66.900523 
L 274.716369 -68.005093 
L 274.623334 -69.109662 
L 274.535111 -70.214231 
L 274.451425 -71.3188 
L 274.371863 -72.42337 
L 274.295887 -73.527939 
L 274.222854 -74.632508 
L 274.152034 -75.737077 
L 274.082637 -76.841647 
L 274.013845 -77.946216 
L 273.944838 -79.050785 
L 273.87483 -80.155354 
L 273.803101 -81.259924 
L 273.72902 -82.364493 
L 273.652083 -83.469062 
L 273.571929 -84.573631 
L 273.488362 -85.678201 
L 273.401363 -86.78277 
L 273.311102 -87.887339 
L 273.217937 -88.991908 
L 273.122409 -90.096478 
L 273.025233 -91.201047 
L 272.927279 -92.305616 
L 272.829557 -93.410185 
L 272.733184 -94.514755 
L 272.639359 -95.619324 
L 272.549331 -96.723893 
L 272.464364 -97.828462 
L 272.38571 -98.933032 
L 272.314571 -100.037601 
L 272.25207 -101.14217 
L 272.199229 -102.246739 
L 272.156939 -103.351309 
L 272.125944 -104.455878 
L 272.106827 -105.560447 
L 272.1 -106.665016 
L 272.105697 -107.769586 
L 272.123978 -108.874155 
L 272.154731 -109.978724 
L 272.197681 -111.083293 
L 272.252406 -112.187863 
L 272.318347 -113.292432 
L 272.394833 -114.397001 
L 272.481096 -115.50157 
L 272.576292 -116.60614 
L 272.679527 -117.710709 
L 272.789872 -118.815278 
L 272.906387 -119.919847 
L 273.02814 -121.024417 
L 273.154223 -122.128986 
L 273.283768 -123.233555 
L 273.41596 -124.338124 
L 273.550048 -125.442694 
L 273.685352 -126.547263 
L 273.821273 -127.651832 
L 273.95729 -128.756401 
L 274.092969 -129.860971 
L 274.227954 -130.96554 
L 274.361971 -132.070109 
L 274.49482 -133.174678 
L 274.626369 -134.279248 
L 274.756549 -135.383817 
L 274.885343 -136.488386 
L 275.012777 -137.592955 
L 275.138914 -138.697525 
L 275.263839 -139.802094 
L 275.387654 -140.906663 
L 275.510467 -142.011232 
L 275.632381 -143.115802 
L 275.753486 -144.220371 
L 275.873858 -145.32494 
L 275.993541 -146.429509 
L 276.112555 -147.534079 
L 276.230881 -148.638648 
L 276.348467 -149.743217 
L 276.46522 -150.847786 
L 276.581014 -151.952356 
L 280.952319 -151.952356 
L 280.952319 -151.952356 
L 281.068113 -150.847786 
L 281.184867 -149.743217 
L 281.302452 -148.638648 
L 281.420778 -147.534079 
L 281.539792 -146.429509 
L 281.659476 -145.32494 
L 281.779847 -144.220371 
L 281.900953 -143.115802 
L 282.022866 -142.011232 
L 282.145679 -140.906663 
L 282.269494 -139.802094 
L 282.39442 -138.697525 
L 282.520556 -137.592955 
L 282.64799 -136.488386 
L 282.776784 -135.383817 
L 282.906964 -134.279248 
L 283.038513 -133.174678 
L 283.171362 -132.070109 
L 283.305379 -130.96554 
L 283.440365 -129.860971 
L 283.576043 -128.756401 
L 283.712061 -127.651832 
L 283.847981 -126.547263 
L 283.983286 -125.442694 
L 284.117373 -124.338124 
L 284.249565 -123.233555 
L 284.37911 -122.128986 
L 284.505193 -121.024417 
L 284.626946 -119.919847 
L 284.743462 -118.815278 
L 284.853807 -117.710709 
L 284.957041 -116.60614 
L 285.052238 -115.50157 
L 285.1385 -114.397001 
L 285.214986 -113.292432 
L 285.280928 -112.187863 
L 285.335652 -111.083293 
L 285.378602 -109.978724 
L 285.409355 -108.874155 
L 285.427636 -107.769586 
L 285.433333 -106.665016 
L 285.426506 -105.560447 
L 285.40739 -104.455878 
L 285.376395 -103.351309 
L 285.334104 -102.246739 
L 285.281263 -101.14217 
L 285.218763 -100.037601 
L 285.147623 -98.933032 
L 285.068969 -97.828462 
L 284.984003 -96.723893 
L 284.893974 -95.619324 
L 284.800149 -94.514755 
L 284.703776 -93.410185 
L 284.606054 -92.305616 
L 284.508101 -91.201047 
L 284.410924 -90.096478 
L 284.315396 -88.991908 
L 284.222231 -87.887339 
L 284.13197 -86.78277 
L 284.044972 -85.678201 
L 283.961404 -84.573631 
L 283.88125 -83.469062 
L 283.804313 -82.364493 
L 283.730233 -81.259924 
L 283.658503 -80.155354 
L 283.588496 -79.050785 
L 283.519489 -77.946216 
L 283.450696 -76.841647 
L 283.3813 -75.737077 
L 283.310479 -74.632508 
L 283.237446 -73.527939 
L 283.161471 -72.42337 
L 283.081908 -71.3188 
L 282.998222 -70.214231 
L 282.909999 -69.109662 
L 282.816965 -68.005093 
L 282.718987 -66.900523 
L 282.616082 -65.795954 
L 282.508406 -64.691385 
L 282.396249 -63.586816 
L 282.280023 -62.482246 
L 282.160246 -61.377677 
L 282.037519 -60.273108 
L 281.912508 -59.168539 
L 281.785923 -58.063969 
L 281.658493 -56.9594 
L 281.530946 -55.854831 
L 281.403992 -54.750262 
L 281.278297 -53.645692 
L 281.15448 -52.541123 
L 281.033091 -51.436554 
L 280.914608 -50.331985 
L 280.799427 -49.227415 
L 280.687867 -48.122846 
L 280.580163 -47.018277 
L 280.476477 -45.913708 
L 280.376897 -44.809138 
L 280.28145 -43.704569 
L 280.190108 -42.6 
z
" id="mc918269250" style="stroke:#000000;stroke-opacity:0.7;stroke-width:0.7;"/>
    </defs>
    <g clip-path="url(#p9effdfdd47)">
     <use style="fill:#d55e00;fill-opacity:0.7;stroke:#000000;stroke-opacity:0.7;stroke-width:0.7;" x="0" xlink:href="#mc918269250" y="195.7"/>
    </g>
   </g>
   <g id="PolyCollection_5">
    <defs>
     <path d="M 307.184824 -51.28464 
L 303.681842 -51.28464 
L 303.595754 -52.297656 
L 303.509252 -53.310672 
L 303.422481 -54.323688 
L 303.335569 -55.336704 
L 303.248621 -56.34972 
L 303.161722 -57.362736 
L 303.07493 -58.375752 
L 302.988285 -59.388768 
L 302.901801 -60.401784 
L 302.815471 -61.4148 
L 302.72927 -62.427816 
L 302.643155 -63.440832 
L 302.557065 -64.453847 
L 302.470931 -65.466863 
L 302.384672 -66.479879 
L 302.298205 -67.492895 
L 302.211443 -68.505911 
L 302.124301 -69.518927 
L 302.036701 -70.531943 
L 301.94857 -71.544959 
L 301.859851 -72.557975 
L 301.770495 -73.570991 
L 301.680473 -74.584007 
L 301.589768 -75.597023 
L 301.498383 -76.610039 
L 301.406337 -77.623054 
L 301.313667 -78.63607 
L 301.220422 -79.649086 
L 301.12667 -80.662102 
L 301.032489 -81.675118 
L 300.937971 -82.688134 
L 300.843214 -83.70115 
L 300.748327 -84.714166 
L 300.653426 -85.727182 
L 300.558631 -86.740198 
L 300.464068 -87.753214 
L 300.369869 -88.76623 
L 300.276169 -89.779245 
L 300.183112 -90.792261 
L 300.090849 -91.805277 
L 299.999539 -92.818293 
L 299.909354 -93.831309 
L 299.820479 -94.844325 
L 299.733118 -95.857341 
L 299.647489 -96.870357 
L 299.563834 -97.883373 
L 299.482416 -98.896389 
L 299.403521 -99.909405 
L 299.327459 -100.922421 
L 299.254562 -101.935437 
L 299.185186 -102.948452 
L 299.119704 -103.961468 
L 299.058508 -104.974484 
L 299.002001 -105.9875 
L 298.950593 -107.000516 
L 298.904696 -108.013532 
L 298.864718 -109.026548 
L 298.831055 -110.039564 
L 298.804085 -111.05258 
L 298.784158 -112.065596 
L 298.771592 -113.078612 
L 298.766667 -114.091628 
L 298.769614 -115.104644 
L 298.780615 -116.117659 
L 298.799794 -117.130675 
L 298.827218 -118.143691 
L 298.862889 -119.156707 
L 298.906748 -120.169723 
L 298.958675 -121.182739 
L 299.018488 -122.195755 
L 299.08595 -123.208771 
L 299.160768 -124.221787 
L 299.242605 -125.234803 
L 299.331083 -126.247819 
L 299.425791 -127.260835 
L 299.526291 -128.273851 
L 299.63213 -129.286866 
L 299.742846 -130.299882 
L 299.857977 -131.312898 
L 299.977067 -132.325914 
L 300.099674 -133.33893 
L 300.225377 -134.351946 
L 300.353779 -135.364962 
L 300.484511 -136.377978 
L 300.617238 -137.390994 
L 300.751654 -138.40401 
L 300.887485 -139.417026 
L 301.024491 -140.430042 
L 301.162456 -141.443057 
L 301.301188 -142.456073 
L 301.440518 -143.469089 
L 301.580288 -144.482105 
L 301.72035 -145.495121 
L 301.860561 -146.508137 
L 302.000775 -147.521153 
L 302.140838 -148.534169 
L 302.280589 -149.547185 
L 302.419847 -150.560201 
L 302.558416 -151.573217 
L 308.30825 -151.573217 
L 308.30825 -151.573217 
L 308.44682 -150.560201 
L 308.586078 -149.547185 
L 308.725828 -148.534169 
L 308.865892 -147.521153 
L 309.006106 -146.508137 
L 309.146317 -145.495121 
L 309.286379 -144.482105 
L 309.426149 -143.469089 
L 309.565478 -142.456073 
L 309.704211 -141.443057 
L 309.842176 -140.430042 
L 309.979181 -139.417026 
L 310.115013 -138.40401 
L 310.249429 -137.390994 
L 310.382155 -136.377978 
L 310.512888 -135.364962 
L 310.64129 -134.351946 
L 310.766992 -133.33893 
L 310.889599 -132.325914 
L 311.008689 -131.312898 
L 311.12382 -130.299882 
L 311.234537 -129.286866 
L 311.340376 -128.273851 
L 311.440876 -127.260835 
L 311.535583 -126.247819 
L 311.624061 -125.234803 
L 311.705899 -124.221787 
L 311.780717 -123.208771 
L 311.848178 -122.195755 
L 311.907992 -121.182739 
L 311.959919 -120.169723 
L 312.003778 -119.156707 
L 312.039449 -118.143691 
L 312.066872 -117.130675 
L 312.086052 -116.117659 
L 312.097053 -115.104644 
L 312.1 -114.091628 
L 312.095075 -113.078612 
L 312.082509 -112.065596 
L 312.062582 -111.05258 
L 312.035611 -110.039564 
L 312.001948 -109.026548 
L 311.961971 -108.013532 
L 311.916074 -107.000516 
L 311.864666 -105.9875 
L 311.808159 -104.974484 
L 311.746962 -103.961468 
L 311.681481 -102.948452 
L 311.612104 -101.935437 
L 311.539208 -100.922421 
L 311.463145 -99.909405 
L 311.38425 -98.896389 
L 311.302832 -97.883373 
L 311.219177 -96.870357 
L 311.133549 -95.857341 
L 311.046187 -94.844325 
L 310.957313 -93.831309 
L 310.867128 -92.818293 
L 310.775818 -91.805277 
L 310.683554 -90.792261 
L 310.590497 -89.779245 
L 310.496798 -88.76623 
L 310.402598 -87.753214 
L 310.308035 -86.740198 
L 310.21324 -85.727182 
L 310.118339 -84.714166 
L 310.023453 -83.70115 
L 309.928696 -82.688134 
L 309.834177 -81.675118 
L 309.739997 -80.662102 
L 309.646245 -79.649086 
L 309.553 -78.63607 
L 309.460329 -77.623054 
L 309.368284 -76.610039 
L 309.276899 -75.597023 
L 309.186194 -74.584007 
L 309.096172 -73.570991 
L 309.006816 -72.557975 
L 308.918096 -71.544959 
L 308.829966 -70.531943 
L 308.742366 -69.518927 
L 308.655224 -68.505911 
L 308.568461 -67.492895 
L 308.481994 -66.479879 
L 308.395736 -65.466863 
L 308.309602 -64.453847 
L 308.223512 -63.440832 
L 308.137396 -62.427816 
L 308.051196 -61.4148 
L 307.964866 -60.401784 
L 307.878382 -59.388768 
L 307.791737 -58.375752 
L 307.704945 -57.362736 
L 307.618045 -56.34972 
L 307.531097 -55.336704 
L 307.444185 -54.323688 
L 307.357415 -53.310672 
L 307.270912 -52.297656 
L 307.184824 -51.28464 
z
" id="mbed03b84a0" style="stroke:#000000;stroke-opacity:0.7;stroke-width:0.7;"/>
    </defs>
    <g clip-path="url(#p9effdfdd47)">
     <use style="fill:#d55e00;fill-opacity:0.7;stroke:#000000;stroke-opacity:0.7;stroke-width:0.7;" x="0" xlink:href="#mbed03b84a0" y="195.7"/>
    </g>
   </g>
   <g id="matplotlib.axis_3">
    <g id="xtick_26">
     <g id="line2d_97">
      <path clip-path="url(#p9effdfdd47)" d="M 198.766667 165.1 
L 198.766667 21.1 
" style="fill:none;stroke:#000000;stroke-linecap:square;stroke-opacity:0.1;stroke-width:0.6;"/>
     </g>
     <g id="line2d_98">
      <g>
       <use style="stroke:#000000;stroke-width:0.6;" x="198.766667" xlink:href="#m9689921076" y="165.1"/>
      </g>
     </g>
     <g id="text_12">
      <!-- a -->
      <g transform="translate(196.618542 176.8125)scale(0.08 -0.08)">
       <use xlink:href="#HelveticaNeue-97"/>
      </g>
     </g>
    </g>
    <g id="xtick_27">
     <g id="line2d_99">
      <path clip-path="url(#p9effdfdd47)" d="M 225.433333 165.1 
L 225.433333 21.1 
" style="fill:none;stroke:#000000;stroke-linecap:square;stroke-opacity:0.1;stroke-width:0.6;"/>
     </g>
     <g id="line2d_100">
      <g>
       <use style="stroke:#000000;stroke-width:0.6;" x="225.433333" xlink:href="#m9689921076" y="165.1"/>
      </g>
     </g>
     <g id="text_13">
      <!-- b -->
      <g transform="translate(223.061458 176.8125)scale(0.08 -0.08)">
       <use xlink:href="#HelveticaNeue-98"/>
      </g>
     </g>
    </g>
    <g id="xtick_28">
     <g id="line2d_101">
      <path clip-path="url(#p9effdfdd47)" d="M 252.1 165.1 
L 252.1 21.1 
" style="fill:none;stroke:#000000;stroke-linecap:square;stroke-opacity:0.1;stroke-width:0.6;"/>
     </g>
     <g id="line2d_102">
      <g>
       <use style="stroke:#000000;stroke-width:0.6;" x="252.1" xlink:href="#m9689921076" y="165.1"/>
      </g>
     </g>
     <g id="text_14">
      <!-- c -->
      <g transform="translate(249.951875 176.8125)scale(0.08 -0.08)">
       <use xlink:href="#HelveticaNeue-99"/>
      </g>
     </g>
    </g>
    <g id="xtick_29">
     <g id="line2d_103">
      <path clip-path="url(#p9effdfdd47)" d="M 278.766667 165.1 
L 278.766667 21.1 
" style="fill:none;stroke:#000000;stroke-linecap:square;stroke-opacity:0.1;stroke-width:0.6;"/>
     </g>
     <g id="line2d_104">
      <g>
       <use style="stroke:#000000;stroke-width:0.6;" x="278.766667" xlink:href="#m9689921076" y="165.1"/>
      </g>
     </g>
     <g id="text_15">
      <!-- d -->
      <g transform="translate(276.394792 176.8125)scale(0.08 -0.08)">
       <use xlink:href="#HelveticaNeue-100"/>
      </g>
     </g>
    </g>
    <g id="xtick_30">
     <g id="line2d_105">
      <path clip-path="url(#p9effdfdd47)" d="M 305.433333 165.1 
L 305.433333 21.1 
" style="fill:none;stroke:#000000;stroke-linecap:square;stroke-opacity:0.1;stroke-width:0.6;"/>
     </g>
     <g id="line2d_106">
      <g>
       <use style="stroke:#000000;stroke-width:0.6;" x="305.433333" xlink:href="#m9689921076" y="165.1"/>
      </g>
     </g>
     <g id="text_16">
      <!-- e -->
      <g transform="translate(303.285208 176.8125)scale(0.08 -0.08)">
       <use xlink:href="#HelveticaNeue-101"/>
      </g>
     </g>
    </g>
    <g id="xtick_31">
     <g id="line2d_107">
      <g>
       <use style="stroke:#000000;stroke-width:0.48;" x="182.766667" xlink:href="#m05a4efdd84" y="165.1"/>
      </g>
     </g>
    </g>
    <g id="xtick_32">
     <g id="line2d_108">
      <g>
       <use style="stroke:#000000;stroke-width:0.48;" x="188.1" xlink:href="#m05a4efdd84" y="165.1"/>
      </g>
     </g>
    </g>
    <g id="xtick_33">
     <g id="line2d_109">
      <g>
       <use style="stroke:#000000;stroke-width:0.48;" x="193.433333" xlink:href="#m05a4efdd84" y="165.1"/>
      </g>
     </g>
    </g>
    <g id="xtick_34">
     <g id="line2d_110">
      <g>
       <use style="stroke:#000000;stroke-width:0.48;" x="204.1" xlink:href="#m05a4efdd84" y="165.1"/>
      </g>
     </g>
    </g>
    <g id="xtick_35">
     <g id="line2d_111">
      <g>
       <use style="stroke:#000000;stroke-width:0.48;" x="209.433333" xlink:href="#m05a4efdd84" y="165.1"/>
      </g>
     </g>
    </g>
    <g id="xtick_36">
     <g id="line2d_112">
      <g>
       <use style="stroke:#000000;stroke-width:0.48;" x="214.766667" xlink:href="#m05a4efdd84" y="165.1"/>
      </g>
     </g>
    </g>
    <g id="xtick_37">
     <g id="line2d_113">
      <g>
       <use style="stroke:#000000;stroke-width:0.48;" x="220.1" xlink:href="#m05a4efdd84" y="165.1"/>
      </g>
     </g>
    </g>
    <g id="xtick_38">
     <g id="line2d_114">
      <g>
       <use style="stroke:#000000;stroke-width:0.48;" x="230.766667" xlink:href="#m05a4efdd84" y="165.1"/>
      </g>
     </g>
    </g>
    <g id="xtick_39">
     <g id="line2d_115">
      <g>
       <use style="stroke:#000000;stroke-width:0.48;" x="236.1" xlink:href="#m05a4efdd84" y="165.1"/>
      </g>
     </g>
    </g>
    <g id="xtick_40">
     <g id="line2d_116">
      <g>
       <use style="stroke:#000000;stroke-width:0.48;" x="241.433333" xlink:href="#m05a4efdd84" y="165.1"/>
      </g>
     </g>
    </g>
    <g id="xtick_41">
     <g id="line2d_117">
      <g>
       <use style="stroke:#000000;stroke-width:0.48;" x="246.766667" xlink:href="#m05a4efdd84" y="165.1"/>
      </g>
     </g>
    </g>
    <g id="xtick_42">
     <g id="line2d_118">
      <g>
       <use style="stroke:#000000;stroke-width:0.48;" x="257.433333" xlink:href="#m05a4efdd84" y="165.1"/>
      </g>
     </g>
    </g>
    <g id="xtick_43">
     <g id="line2d_119">
      <g>
       <use style="stroke:#000000;stroke-width:0.48;" x="262.766667" xlink:href="#m05a4efdd84" y="165.1"/>
      </g>
     </g>
    </g>
    <g id="xtick_44">
     <g id="line2d_120">
      <g>
       <use style="stroke:#000000;stroke-width:0.48;" x="268.1" xlink:href="#m05a4efdd84" y="165.1"/>
      </g>
     </g>
    </g>
    <g id="xtick_45">
     <g id="line2d_121">
      <g>
       <use style="stroke:#000000;stroke-width:0.48;" x="273.433333" xlink:href="#m05a4efdd84" y="165.1"/>
      </g>
     </g>
    </g>
    <g id="xtick_46">
     <g id="line2d_122">
      <g>
       <use style="stroke:#000000;stroke-width:0.48;" x="284.1" xlink:href="#m05a4efdd84" y="165.1"/>
      </g>
     </g>
    </g>
    <g id="xtick_47">
     <g id="line2d_123">
      <g>
       <use style="stroke:#000000;stroke-width:0.48;" x="289.433333" xlink:href="#m05a4efdd84" y="165.1"/>
      </g>
     </g>
    </g>
    <g id="xtick_48">
     <g id="line2d_124">
      <g>
       <use style="stroke:#000000;stroke-width:0.48;" x="294.766667" xlink:href="#m05a4efdd84" y="165.1"/>
      </g>
     </g>
    </g>
    <g id="xtick_49">
     <g id="line2d_125">
      <g>
       <use style="stroke:#000000;stroke-width:0.48;" x="300.1" xlink:href="#m05a4efdd84" y="165.1"/>
      </g>
     </g>
    </g>
    <g id="xtick_50">
     <g id="line2d_126">
      <g>
       <use style="stroke:#000000;stroke-width:0.48;" x="310.766667" xlink:href="#m05a4efdd84" y="165.1"/>
      </g>
     </g>
    </g>
    <g id="xtick_51">
     <g id="line2d_127">
      <g>
       <use style="stroke:#000000;stroke-width:0.48;" x="316.1" xlink:href="#m05a4efdd84" y="165.1"/>
      </g>
     </g>
    </g>
    <g id="xtick_52">
     <g id="line2d_128">
      <g>
       <use style="stroke:#000000;stroke-width:0.48;" x="321.433333" xlink:href="#m05a4efdd84" y="165.1"/>
      </g>
     </g>
    </g>
   </g>
   <g id="matplotlib.axis_4">
    <g id="ytick_27">
     <g id="line2d_129">
      <path clip-path="url(#p9effdfdd47)" d="M 180.1 145.632606 
L 324.1 145.632606 
" style="fill:none;stroke:#000000;stroke-linecap:square;stroke-opacity:0.1;stroke-width:0.6;"/>
     </g>
     <g id="line2d_130">
      <g>
       <use style="stroke:#000000;stroke-width:0.6;" x="180.1" xlink:href="#m1212680a6a" y="145.632606"/>
      </g>
     </g>
    </g>
    <g id="ytick_28">
     <g id="line2d_131">
      <path clip-path="url(#p9effdfdd47)" d="M 180.1 118.30366 
L 324.1 118.30366 
" style="fill:none;stroke:#000000;stroke-linecap:square;stroke-opacity:0.1;stroke-width:0.6;"/>
     </g>
     <g id="line2d_132">
      <g>
       <use style="stroke:#000000;stroke-width:0.6;" x="180.1" xlink:href="#m1212680a6a" y="118.30366"/>
      </g>
     </g>
    </g>
    <g id="ytick_29">
     <g id="line2d_133">
      <path clip-path="url(#p9effdfdd47)" d="M 180.1 90.974713 
L 324.1 90.974713 
" style="fill:none;stroke:#000000;stroke-linecap:square;stroke-opacity:0.1;stroke-width:0.6;"/>
     </g>
     <g id="line2d_134">
      <g>
       <use style="stroke:#000000;stroke-width:0.6;" x="180.1" xlink:href="#m1212680a6a" y="90.974713"/>
      </g>
     </g>
    </g>
    <g id="ytick_30">
     <g id="line2d_135">
      <path clip-path="url(#p9effdfdd47)" d="M 180.1 63.645767 
L 324.1 63.645767 
" style="fill:none;stroke:#000000;stroke-linecap:square;stroke-opacity:0.1;stroke-width:0.6;"/>
     </g>
     <g id="line2d_136">
      <g>
       <use style="stroke:#000000;stroke-width:0.6;" x="180.1" xlink:href="#m1212680a6a" y="63.645767"/>
      </g>
     </g>
    </g>
    <g id="ytick_31">
     <g id="line2d_137">
      <path clip-path="url(#p9effdfdd47)" d="M 180.1 36.31682 
L 324.1 36.31682 
" style="fill:none;stroke:#000000;stroke-linecap:square;stroke-opacity:0.1;stroke-width:0.6;"/>
     </g>
     <g id="line2d_138">
      <g>
       <use style="stroke:#000000;stroke-width:0.6;" x="180.1" xlink:href="#m1212680a6a" y="36.31682"/>
      </g>
     </g>
    </g>
    <g id="ytick_32">
     <g id="line2d_139">
      <g>
       <use style="stroke:#000000;stroke-width:0.48;" x="180.1" xlink:href="#ma0a62f72b8" y="162.029974"/>
      </g>
     </g>
    </g>
    <g id="ytick_33">
     <g id="line2d_140">
      <g>
       <use style="stroke:#000000;stroke-width:0.48;" x="180.1" xlink:href="#ma0a62f72b8" y="156.564185"/>
      </g>
     </g>
    </g>
    <g id="ytick_34">
     <g id="line2d_141">
      <g>
       <use style="stroke:#000000;stroke-width:0.48;" x="180.1" xlink:href="#ma0a62f72b8" y="151.098395"/>
      </g>
     </g>
    </g>
    <g id="ytick_35">
     <g id="line2d_142">
      <g>
       <use style="stroke:#000000;stroke-width:0.48;" x="180.1" xlink:href="#ma0a62f72b8" y="140.166817"/>
      </g>
     </g>
    </g>
    <g id="ytick_36">
     <g id="line2d_143">
      <g>
       <use style="stroke:#000000;stroke-width:0.48;" x="180.1" xlink:href="#ma0a62f72b8" y="134.701027"/>
      </g>
     </g>
    </g>
    <g id="ytick_37">
     <g id="line2d_144">
      <g>
       <use style="stroke:#000000;stroke-width:0.48;" x="180.1" xlink:href="#ma0a62f72b8" y="129.235238"/>
      </g>
     </g>
    </g>
    <g id="ytick_38">
     <g id="line2d_145">
      <g>
       <use style="stroke:#000000;stroke-width:0.48;" x="180.1" xlink:href="#ma0a62f72b8" y="123.769449"/>
      </g>
     </g>
    </g>
    <g id="ytick_39">
     <g id="line2d_146">
      <g>
       <use style="stroke:#000000;stroke-width:0.48;" x="180.1" xlink:href="#ma0a62f72b8" y="112.83787"/>
      </g>
     </g>
    </g>
    <g id="ytick_40">
     <g id="line2d_147">
      <g>
       <use style="stroke:#000000;stroke-width:0.48;" x="180.1" xlink:href="#ma0a62f72b8" y="107.372081"/>
      </g>
     </g>
    </g>
    <g id="ytick_41">
     <g id="line2d_148">
      <g>
       <use style="stroke:#000000;stroke-width:0.48;" x="180.1" xlink:href="#ma0a62f72b8" y="101.906292"/>
      </g>
     </g>
    </g>
    <g id="ytick_42">
     <g id="line2d_149">
      <g>
       <use style="stroke:#000000;stroke-width:0.48;" x="180.1" xlink:href="#ma0a62f72b8" y="96.440502"/>
      </g>
     </g>
    </g>
    <g id="ytick_43">
     <g id="line2d_150">
      <g>
       <use style="stroke:#000000;stroke-width:0.48;" x="180.1" xlink:href="#ma0a62f72b8" y="85.508924"/>
      </g>
     </g>
    </g>
    <g id="ytick_44">
     <g id="line2d_151">
      <g>
       <use style="stroke:#000000;stroke-width:0.48;" x="180.1" xlink:href="#ma0a62f72b8" y="80.043134"/>
      </g>
     </g>
    </g>
    <g id="ytick_45">
     <g id="line2d_152">
      <g>
       <use style="stroke:#000000;stroke-width:0.48;" x="180.1" xlink:href="#ma0a62f72b8" y="74.577345"/>
      </g>
     </g>
    </g>
    <g id="ytick_46">
     <g id="line2d_153">
      <g>
       <use style="stroke:#000000;stroke-width:0.48;" x="180.1" xlink:href="#ma0a62f72b8" y="69.111556"/>
      </g>
     </g>
    </g>
    <g id="ytick_47">
     <g id="line2d_154">
      <g>
       <use style="stroke:#000000;stroke-width:0.48;" x="180.1" xlink:href="#ma0a62f72b8" y="58.179977"/>
      </g>
     </g>
    </g>
    <g id="ytick_48">
     <g id="line2d_155">
      <g>
       <use style="stroke:#000000;stroke-width:0.48;" x="180.1" xlink:href="#ma0a62f72b8" y="52.714188"/>
      </g>
     </g>
    </g>
    <g id="ytick_49">
     <g id="line2d_156">
      <g>
       <use style="stroke:#000000;stroke-width:0.48;" x="180.1" xlink:href="#ma0a62f72b8" y="47.248399"/>
      </g>
     </g>
    </g>
    <g id="ytick_50">
     <g id="line2d_157">
      <g>
       <use style="stroke:#000000;stroke-width:0.48;" x="180.1" xlink:href="#ma0a62f72b8" y="41.782609"/>
      </g>
     </g>
    </g>
    <g id="ytick_51">
     <g id="line2d_158">
      <g>
       <use style="stroke:#000000;stroke-width:0.48;" x="180.1" xlink:href="#ma0a62f72b8" y="30.851031"/>
      </g>
     </g>
    </g>
    <g id="ytick_52">
     <g id="line2d_159">
      <g>
       <use style="stroke:#000000;stroke-width:0.48;" x="180.1" xlink:href="#ma0a62f72b8" y="25.385241"/>
      </g>
     </g>
    </g>
   </g>
   <g id="LineCollection_1">
    <path clip-path="url(#p9effdfdd47)" d="M 198.766667 96.364616 
L 198.766667 72.963069 
" style="fill:none;stroke:#000000;stroke-width:2.8;"/>
    <path clip-path="url(#p9effdfdd47)" d="M 225.433333 103.34389 
L 225.433333 61.305771 
" style="fill:none;stroke:#000000;stroke-width:2.8;"/>
    <path clip-path="url(#p9effdfdd47)" d="M 252.1 92.678138 
L 252.1 68.20786 
" style="fill:none;stroke:#000000;stroke-width:2.8;"/>
    <path clip-path="url(#p9effdfdd47)" d="M 278.766667 120.613071 
L 278.766667 73.670163 
" style="fill:none;stroke:#000000;stroke-width:2.8;"/>
    <path clip-path="url(#p9effdfdd47)" d="M 305.433333 105.892863 
L 305.433333 71.724816 
" style="fill:none;stroke:#000000;stroke-width:2.8;"/>
   </g>
   <g id="LineCollection_2">
    <path clip-path="url(#p9effdfdd47)" d="M 198.766667 115.672481 
L 198.766667 43.599785 
" style="fill:none;stroke:#000000;stroke-width:0.7;"/>
    <path clip-path="url(#p9effdfdd47)" d="M 225.433333 117.206598 
L 225.433333 53.725496 
" style="fill:none;stroke:#000000;stroke-width:0.7;"/>
    <path clip-path="url(#p9effdfdd47)" d="M 252.1 109.530149 
L 252.1 51.008814 
" style="fill:none;stroke:#000000;stroke-width:0.7;"/>
    <path clip-path="url(#p9effdfdd47)" d="M 278.766667 131.129898 
L 278.766667 51.49327 
" style="fill:none;stroke:#000000;stroke-width:0.7;"/>
    <path clip-path="url(#p9effdfdd47)" d="M 305.433333 131.395505 
L 305.433333 46.819078 
" style="fill:none;stroke:#000000;stroke-width:0.7;"/>
   </g>
   <g id="patch_13">
    <path d="M 180.1 165.1 
L 180.1 21.1 
" style="fill:none;stroke:#000000;stroke-linecap:square;stroke-linejoin:miter;stroke-width:0.6;"/>
   </g>
   <g id="patch_14">
    <path d="M 324.1 165.1 
L 324.1 21.1 
" style="fill:none;stroke:#000000;stroke-linecap:square;stroke-linejoin:miter;stroke-width:0.6;"/>
   </g>
   <g id="patch_15">
    <path d="M 180.1 165.1 
L 324.1 165.1 
" style="fill:none;stroke:#000000;stroke-linecap:square;stroke-linejoin:miter;stroke-width:0.6;"/>
   </g>
   <g id="patch_16">
    <path d="M 180.1 21.1 
L 324.1 21.1 
" style="fill:none;stroke:#000000;stroke-linecap:square;stroke-linejoin:miter;stroke-width:0.6;"/>
   </g>
   <g id="PathCollection_1">
    <defs>
     <path d="M 0 0.83666 
C 0.221885 0.83666 0.434712 0.748504 0.591608 0.591608 
C 0.748504 0.434712 0.83666 0.221885 0.83666 0 
C 0.83666 -0.221885 0.748504 -0.434712 0.591608 -0.591608 
C 0.434712 -0.748504 0.221885 -0.83666 0 -0.83666 
C -0.221885 -0.83666 -0.434712 -0.748504 -0.591608 -0.591608 
C -0.748504 -0.434712 -0.83666 -0.221885 -0.83666 0 
C -0.83666 0.221885 -0.748504 0.434712 -0.591608 0.591608 
C -0.434712 0.748504 -0.221885 0.83666 0 0.83666 
z
" id="m4ee204689a" style="stroke:#ffffff;"/>
    </defs>
    <g clip-path="url(#p9effdfdd47)">
     <use style="fill:#ffffff;stroke:#ffffff;" x="198.766667" xlink:href="#m4ee204689a" y="84.979184"/>
     <use style="fill:#ffffff;stroke:#ffffff;" x="225.433333" xlink:href="#m4ee204689a" y="85.334101"/>
     <use style="fill:#ffffff;stroke:#ffffff;" x="252.1" xlink:href="#m4ee204689a" y="80.315422"/>
     <use style="fill:#ffffff;stroke:#ffffff;" x="278.766667" xlink:href="#m4ee204689a" y="94.472315"/>
     <use style="fill:#ffffff;stroke:#ffffff;" x="305.433333" xlink:href="#m4ee204689a" y="88.568548"/>
    </g>
   </g>
  </g>
  <g id="text_17">
   <!-- Boxes and violins demo -->
   <defs>
    <path d="M 22.59375 42.5 
L 22.59375 59.203125 
L 37.296875 59.203125 
Q 39.40625 59.203125 41.34375 58.84375 
Q 43.296875 58.5 44.796875 57.59375 
Q 46.296875 56.703125 47.1875 55.09375 
Q 48.09375 53.5 48.09375 51 
Q 48.09375 46.5 45.390625 44.5 
Q 42.703125 42.5 38.5 42.5 
z
M 6.90625 71.40625 
L 6.90625 0 
L 41.5 0 
Q 46.296875 0 50.84375 1.203125 
Q 55.40625 2.40625 58.953125 4.90625 
Q 62.5 7.40625 64.59375 11.34375 
Q 66.703125 15.296875 66.703125 20.703125 
Q 66.703125 27.40625 63.453125 32.15625 
Q 60.203125 36.90625 53.59375 38.796875 
Q 58.40625 41.09375 60.84375 44.6875 
Q 63.296875 48.296875 63.296875 53.703125 
Q 63.296875 58.703125 61.640625 62.09375 
Q 60 65.5 57 67.546875 
Q 54 69.59375 49.796875 70.5 
Q 45.59375 71.40625 40.5 71.40625 
z
M 22.59375 12.203125 
L 22.59375 31.796875 
L 39.703125 31.796875 
Q 44.796875 31.796875 47.890625 29.4375 
Q 51 27.09375 51 21.59375 
Q 51 18.796875 50.046875 17 
Q 49.09375 15.203125 47.5 14.140625 
Q 45.90625 13.09375 43.796875 12.640625 
Q 41.703125 12.203125 39.40625 12.203125 
z
" id="HelveticaNeue-Bold-66"/>
    <path d="M 18 25.796875 
Q 18 28.90625 18.59375 31.90625 
Q 19.203125 34.90625 20.640625 37.203125 
Q 22.09375 39.5 24.5 40.953125 
Q 26.90625 42.40625 30.5 42.40625 
Q 34.09375 42.40625 36.546875 40.953125 
Q 39 39.5 40.453125 37.203125 
Q 41.90625 34.90625 42.5 31.90625 
Q 43.09375 28.90625 43.09375 25.796875 
Q 43.09375 22.703125 42.5 19.75 
Q 41.90625 16.796875 40.453125 14.4375 
Q 39 12.09375 36.546875 10.6875 
Q 34.09375 9.296875 30.5 9.296875 
Q 26.90625 9.296875 24.5 10.6875 
Q 22.09375 12.09375 20.640625 14.4375 
Q 19.203125 16.796875 18.59375 19.75 
Q 18 22.703125 18 25.796875 
z
M 3.796875 25.796875 
Q 3.796875 19.59375 5.6875 14.59375 
Q 7.59375 9.59375 11.09375 6.046875 
Q 14.59375 2.5 19.5 0.59375 
Q 24.40625 -1.296875 30.5 -1.296875 
Q 36.59375 -1.296875 41.546875 0.59375 
Q 46.5 2.5 50 6.046875 
Q 53.5 9.59375 55.390625 14.59375 
Q 57.296875 19.59375 57.296875 25.796875 
Q 57.296875 32 55.390625 37.046875 
Q 53.5 42.09375 50 45.640625 
Q 46.5 49.203125 41.546875 51.140625 
Q 36.59375 53.09375 30.5 53.09375 
Q 24.40625 53.09375 19.5 51.140625 
Q 14.59375 49.203125 11.09375 45.640625 
Q 7.59375 42.09375 5.6875 37.046875 
Q 3.796875 32 3.796875 25.796875 
z
" id="HelveticaNeue-Bold-111"/>
    <path d="M 18.59375 27.203125 
L 0 0 
L 15.90625 0 
L 26.703125 16.296875 
L 37.5 0 
L 53.703125 0 
L 34.59375 27.5 
L 51.59375 51.703125 
L 35.90625 51.703125 
L 26.90625 38.203125 
L 17.796875 51.703125 
L 1.59375 51.703125 
z
" id="HelveticaNeue-Bold-120"/>
    <path d="M 40.203125 31.40625 
L 17.09375 31.40625 
Q 17.203125 32.90625 17.75 34.796875 
Q 18.296875 36.703125 19.640625 38.390625 
Q 21 40.09375 23.25 41.25 
Q 25.5 42.40625 28.90625 42.40625 
Q 34.09375 42.40625 36.640625 39.59375 
Q 39.203125 36.796875 40.203125 31.40625 
z
M 17.09375 22.40625 
L 54.40625 22.40625 
Q 54.796875 28.40625 53.390625 33.90625 
Q 52 39.40625 48.84375 43.703125 
Q 45.703125 48 40.796875 50.546875 
Q 35.90625 53.09375 29.296875 53.09375 
Q 23.40625 53.09375 18.546875 51 
Q 13.703125 48.90625 10.203125 45.25 
Q 6.703125 41.59375 4.796875 36.59375 
Q 2.90625 31.59375 2.90625 25.796875 
Q 2.90625 19.796875 4.75 14.796875 
Q 6.59375 9.796875 10 6.1875 
Q 13.40625 2.59375 18.296875 0.640625 
Q 23.203125 -1.296875 29.296875 -1.296875 
Q 38.09375 -1.296875 44.296875 2.703125 
Q 50.5 6.703125 53.5 16 
L 41 16 
Q 40.296875 13.59375 37.1875 11.4375 
Q 34.09375 9.296875 29.796875 9.296875 
Q 23.796875 9.296875 20.59375 12.390625 
Q 17.40625 15.5 17.09375 22.40625 
z
" id="HelveticaNeue-Bold-101"/>
    <path d="M 16.40625 16.796875 
L 2.90625 16.796875 
Q 3.09375 11.59375 5.25 8.140625 
Q 7.40625 4.703125 10.75 2.59375 
Q 14.09375 0.5 18.390625 -0.390625 
Q 22.703125 -1.296875 27.203125 -1.296875 
Q 31.59375 -1.296875 35.84375 -0.4375 
Q 40.09375 0.40625 43.390625 2.5 
Q 46.703125 4.59375 48.75 8.046875 
Q 50.796875 11.5 50.796875 16.59375 
Q 50.796875 20.203125 49.390625 22.640625 
Q 48 25.09375 45.703125 26.75 
Q 43.40625 28.40625 40.453125 29.40625 
Q 37.5 30.40625 34.40625 31.09375 
Q 31.40625 31.796875 28.5 32.390625 
Q 25.59375 33 23.34375 33.75 
Q 21.09375 34.5 19.6875 35.703125 
Q 18.296875 36.90625 18.296875 38.796875 
Q 18.296875 40.40625 19.09375 41.34375 
Q 19.90625 42.296875 21.046875 42.796875 
Q 22.203125 43.296875 23.59375 43.4375 
Q 25 43.59375 26.203125 43.59375 
Q 30 43.59375 32.796875 42.140625 
Q 35.59375 40.703125 35.90625 36.59375 
L 49.40625 36.59375 
Q 49 41.40625 46.953125 44.546875 
Q 44.90625 47.703125 41.796875 49.59375 
Q 38.703125 51.5 34.75 52.296875 
Q 30.796875 53.09375 26.59375 53.09375 
Q 22.40625 53.09375 18.40625 52.34375 
Q 14.40625 51.59375 11.203125 49.75 
Q 8 47.90625 6.046875 44.703125 
Q 4.09375 41.5 4.09375 36.5 
Q 4.09375 33.09375 5.5 30.75 
Q 6.90625 28.40625 9.203125 26.84375 
Q 11.5 25.296875 14.453125 24.34375 
Q 17.40625 23.40625 20.5 22.703125 
Q 28.09375 21.09375 32.34375 19.5 
Q 36.59375 17.90625 36.59375 14.703125 
Q 36.59375 12.796875 35.6875 11.546875 
Q 34.796875 10.296875 33.4375 9.546875 
Q 32.09375 8.796875 30.4375 8.4375 
Q 28.796875 8.09375 27.296875 8.09375 
Q 25.203125 8.09375 23.25 8.59375 
Q 21.296875 9.09375 19.796875 10.140625 
Q 18.296875 11.203125 17.34375 12.84375 
Q 16.40625 14.5 16.40625 16.796875 
z
" id="HelveticaNeue-Bold-115"/>
    <path id="HelveticaNeue-Bold-32"/>
    <path d="M 4.796875 35.796875 
Q 5.09375 40.796875 7.296875 44.09375 
Q 9.5 47.40625 12.890625 49.40625 
Q 16.296875 51.40625 20.546875 52.25 
Q 24.796875 53.09375 29.09375 53.09375 
Q 33 53.09375 37 52.546875 
Q 41 52 44.296875 50.390625 
Q 47.59375 48.796875 49.6875 45.9375 
Q 51.796875 43.09375 51.796875 38.40625 
L 51.796875 11.5 
Q 51.796875 8 52.1875 4.796875 
Q 52.59375 1.59375 53.59375 0 
L 39.203125 0 
Q 38.796875 1.203125 38.546875 2.453125 
Q 38.296875 3.703125 38.203125 5 
Q 34.796875 1.5 30.1875 0.09375 
Q 25.59375 -1.296875 20.796875 -1.296875 
Q 17.09375 -1.296875 13.890625 -0.390625 
Q 10.703125 0.5 8.296875 2.390625 
Q 5.90625 4.296875 4.546875 7.1875 
Q 3.203125 10.09375 3.203125 14.09375 
Q 3.203125 18.5 4.75 21.34375 
Q 6.296875 24.203125 8.75 25.890625 
Q 11.203125 27.59375 14.34375 28.4375 
Q 17.5 29.296875 20.703125 29.796875 
Q 23.90625 30.296875 27 30.59375 
Q 30.09375 30.90625 32.5 31.5 
Q 34.90625 32.09375 36.296875 33.25 
Q 37.703125 34.40625 37.59375 36.59375 
Q 37.59375 38.90625 36.84375 40.25 
Q 36.09375 41.59375 34.84375 42.34375 
Q 33.59375 43.09375 31.9375 43.34375 
Q 30.296875 43.59375 28.40625 43.59375 
Q 24.203125 43.59375 21.796875 41.796875 
Q 19.40625 40 19 35.796875 
z
M 37.59375 25.296875 
Q 36.703125 24.5 35.34375 24.046875 
Q 34 23.59375 32.453125 23.296875 
Q 30.90625 23 29.203125 22.796875 
Q 27.5 22.59375 25.796875 22.296875 
Q 24.203125 22 22.640625 21.5 
Q 21.09375 21 19.9375 20.140625 
Q 18.796875 19.296875 18.09375 18 
Q 17.40625 16.703125 17.40625 14.703125 
Q 17.40625 12.796875 18.09375 11.5 
Q 18.796875 10.203125 20 9.453125 
Q 21.203125 8.703125 22.796875 8.390625 
Q 24.40625 8.09375 26.09375 8.09375 
Q 30.296875 8.09375 32.59375 9.5 
Q 34.90625 10.90625 36 12.84375 
Q 37.09375 14.796875 37.34375 16.796875 
Q 37.59375 18.796875 37.59375 20 
z
" id="HelveticaNeue-Bold-97"/>
    <path d="M 5.40625 51.703125 
L 5.40625 0 
L 19.59375 0 
L 19.59375 27.09375 
Q 19.59375 35 22.1875 38.453125 
Q 24.796875 41.90625 30.59375 41.90625 
Q 35.703125 41.90625 37.703125 38.75 
Q 39.703125 35.59375 39.703125 29.203125 
L 39.703125 0 
L 53.90625 0 
L 53.90625 31.796875 
Q 53.90625 36.59375 53.046875 40.546875 
Q 52.203125 44.5 50.09375 47.25 
Q 48 50 44.34375 51.546875 
Q 40.703125 53.09375 35 53.09375 
Q 30.5 53.09375 26.203125 51.046875 
Q 21.90625 49 19.203125 44.5 
L 18.90625 44.5 
L 18.90625 51.703125 
z
" id="HelveticaNeue-Bold-110"/>
    <path d="M 42.09375 26 
Q 42.09375 22.796875 41.5 19.796875 
Q 40.90625 16.796875 39.5 14.4375 
Q 38.09375 12.09375 35.75 10.6875 
Q 33.40625 9.296875 29.90625 9.296875 
Q 26.59375 9.296875 24.25 10.75 
Q 21.90625 12.203125 20.34375 14.546875 
Q 18.796875 16.90625 18.09375 19.90625 
Q 17.40625 22.90625 17.40625 25.90625 
Q 17.40625 29.09375 18.046875 32.046875 
Q 18.703125 35 20.140625 37.296875 
Q 21.59375 39.59375 24 41 
Q 26.40625 42.40625 29.90625 42.40625 
Q 33.40625 42.40625 35.703125 41 
Q 38 39.59375 39.453125 37.34375 
Q 40.90625 35.09375 41.5 32.140625 
Q 42.09375 29.203125 42.09375 26 
z
M 42.296875 6.59375 
L 42.296875 0 
L 55.796875 0 
L 55.796875 71.40625 
L 41.59375 71.40625 
L 41.59375 45.40625 
L 41.40625 45.40625 
Q 39 49.203125 34.84375 51.140625 
Q 30.703125 53.09375 26.09375 53.09375 
Q 20.40625 53.09375 16.09375 50.84375 
Q 11.796875 48.59375 8.9375 44.890625 
Q 6.09375 41.203125 4.640625 36.34375 
Q 3.203125 31.5 3.203125 26.296875 
Q 3.203125 20.90625 4.640625 15.90625 
Q 6.09375 10.90625 8.9375 7.046875 
Q 11.796875 3.203125 16.1875 0.953125 
Q 20.59375 -1.296875 26.40625 -1.296875 
Q 31.5 -1.296875 35.546875 0.546875 
Q 39.59375 2.40625 42.09375 6.59375 
z
" id="HelveticaNeue-Bold-100"/>
    <path d="M 34 0 
L 51.5 51.703125 
L 37.40625 51.703125 
L 26.5 16.40625 
L 26.296875 16.40625 
L 15.40625 51.703125 
L 0.5 51.703125 
L 18.203125 0 
z
" id="HelveticaNeue-Bold-118"/>
    <path d="M 20 59.703125 
L 20 71.40625 
L 5.796875 71.40625 
L 5.796875 59.703125 
z
M 5.796875 51.703125 
L 5.796875 0 
L 20 0 
L 20 51.703125 
z
" id="HelveticaNeue-Bold-105"/>
    <path d="M 5.796875 71.40625 
L 5.796875 0 
L 20 0 
L 20 71.40625 
z
" id="HelveticaNeue-Bold-108"/>
    <path d="M 5.796875 51.703125 
L 5.796875 0 
L 20 0 
L 20 30 
Q 20 33.796875 21.09375 36.140625 
Q 22.203125 38.5 23.75 39.75 
Q 25.296875 41 26.9375 41.453125 
Q 28.59375 41.90625 29.59375 41.90625 
Q 33 41.90625 34.75 40.75 
Q 36.5 39.59375 37.25 37.6875 
Q 38 35.796875 38.09375 33.546875 
Q 38.203125 31.296875 38.203125 29 
L 38.203125 0 
L 52.40625 0 
L 52.40625 28.796875 
Q 52.40625 31.203125 52.75 33.546875 
Q 53.09375 35.90625 54.140625 37.75 
Q 55.203125 39.59375 57.046875 40.75 
Q 58.90625 41.90625 61.90625 41.90625 
Q 64.90625 41.90625 66.65625 40.90625 
Q 68.40625 39.90625 69.296875 38.203125 
Q 70.203125 36.5 70.390625 34.203125 
Q 70.59375 31.90625 70.59375 29.296875 
L 70.59375 0 
L 84.796875 0 
L 84.796875 34.59375 
Q 84.796875 39.59375 83.390625 43.140625 
Q 82 46.703125 79.5 48.890625 
Q 77 51.09375 73.5 52.09375 
Q 70 53.09375 65.90625 53.09375 
Q 60.5 53.09375 56.546875 50.5 
Q 52.59375 47.90625 50.296875 44.5 
Q 48.203125 49.296875 44.140625 51.1875 
Q 40.09375 53.09375 35.203125 53.09375 
Q 30.09375 53.09375 26.140625 50.890625 
Q 22.203125 48.703125 19.40625 44.703125 
L 19.203125 44.703125 
L 19.203125 51.703125 
z
" id="HelveticaNeue-Bold-109"/>
   </defs>
   <g transform="translate(122.397266 12.771563)scale(0.09 -0.09)">
    <use xlink:href="#HelveticaNeue-Bold-66"/>
    <use x="70.399994" xlink:href="#HelveticaNeue-Bold-111"/>
    <use x="131.499985" xlink:href="#HelveticaNeue-Bold-120"/>
    <use x="185.199982" xlink:href="#HelveticaNeue-Bold-101"/>
    <use x="242.599976" xlink:href="#HelveticaNeue-Bold-115"/>
    <use x="296.299973" xlink:href="#HelveticaNeue-Bold-32"/>
    <use x="324.09996" xlink:href="#HelveticaNeue-Bold-97"/>
    <use x="381.499954" xlink:href="#HelveticaNeue-Bold-110"/>
    <use x="440.799942" xlink:href="#HelveticaNeue-Bold-100"/>
    <use x="501.899933" xlink:href="#HelveticaNeue-Bold-32"/>
    <use x="529.699921" xlink:href="#HelveticaNeue-Bold-118"/>
    <use x="581.699905" xlink:href="#HelveticaNeue-Bold-105"/>
    <use x="607.499893" xlink:href="#HelveticaNeue-Bold-111"/>
    <use x="668.599884" xlink:href="#HelveticaNeue-Bold-108"/>
    <use x="694.399872" xlink:href="#HelveticaNeue-Bold-105"/>
    <use x="720.19986" xlink:href="#HelveticaNeue-Bold-110"/>
    <use x="779.499847" xlink:href="#HelveticaNeue-Bold-115"/>
    <use x="833.199844" xlink:href="#HelveticaNeue-Bold-32"/>
    <use x="860.999832" xlink:href="#HelveticaNeue-Bold-100"/>
    <use x="922.099823" xlink:href="#HelveticaNeue-Bold-101"/>
    <use x="979.499817" xlink:href="#HelveticaNeue-Bold-109"/>
    <use x="1070.099808" xlink:href="#HelveticaNeue-Bold-111"/>
   </g>
  </g>
 </g>
 <defs>
  <clipPath id="padb359d493">
   <rect height="144" width="144" x="22.5" y="21.1"/>
  </clipPath>
  <clipPath id="p9effdfdd47">
   <rect height="144" width="144" x="180.1" y="21.1"/>
  </clipPath>
 </defs>
</svg>
