<?xml version="1.0" encoding="utf-8" standalone="no"?>
<!DOCTYPE svg PUBLIC "-//W3C//DTD SVG 1.1//EN"
  "http://www.w3.org/Graphics/SVG/1.1/DTD/svg11.dtd">
<!-- Created with matplotlib (https://matplotlib.org/) -->
<svg height="153.9pt" version="1.1" viewBox="0 0 415.2 153.9" width="415.2pt" xmlns="http://www.w3.org/2000/svg" xmlns:xlink="http://www.w3.org/1999/xlink">
 <defs>
  <style type="text/css">
*{stroke-linecap:butt;stroke-linejoin:round;}
  </style>
 </defs>
 <g id="figure_1">
  <g id="patch_1">
   <path d="M 0 153.9 
L 415.2 153.9 
L 415.2 0 
L 0 0 
z
" style="fill:#f2f2f2;"/>
  </g>
  <g id="axes_1">
   <g id="patch_2">
    <path d="M 10.4 143.5 
L 132.8 143.5 
L 132.8 21.1 
L 10.4 21.1 
z
" style="fill:#ffffff;"/>
   </g>
   <g id="matplotlib.axis_1">
    <g id="xtick_1">
     <g id="line2d_1">
      <path clip-path="url(#p0891ca331a)" d="M 10.4 143.5 
L 10.4 21.1 
" style="fill:none;stroke:#000000;stroke-linecap:square;stroke-opacity:0.1;stroke-width:0.6;"/>
     </g>
     <g id="line2d_2">
      <defs>
       <path d="M 0 0 
L 0 4 
" id="m442240e7bb" style="stroke:#000000;stroke-width:0.6;"/>
      </defs>
      <g>
       <use style="stroke:#000000;stroke-width:0.6;" x="10.4" xlink:href="#m442240e7bb" y="143.5"/>
      </g>
     </g>
    </g>
    <g id="xtick_2">
     <g id="line2d_3">
      <path clip-path="url(#p0891ca331a)" d="M 38.218182 143.5 
L 38.218182 21.1 
" style="fill:none;stroke:#000000;stroke-linecap:square;stroke-opacity:0.1;stroke-width:0.6;"/>
     </g>
     <g id="line2d_4">
      <g>
       <use style="stroke:#000000;stroke-width:0.6;" x="38.218182" xlink:href="#m442240e7bb" y="143.5"/>
      </g>
     </g>
    </g>
    <g id="xtick_3">
     <g id="line2d_5">
      <path clip-path="url(#p0891ca331a)" d="M 66.036364 143.5 
L 66.036364 21.1 
" style="fill:none;stroke:#000000;stroke-linecap:square;stroke-opacity:0.1;stroke-width:0.6;"/>
     </g>
     <g id="line2d_6">
      <g>
       <use style="stroke:#000000;stroke-width:0.6;" x="66.036364" xlink:href="#m442240e7bb" y="143.5"/>
      </g>
     </g>
    </g>
    <g id="xtick_4">
     <g id="line2d_7">
      <path clip-path="url(#p0891ca331a)" d="M 93.854545 143.5 
L 93.854545 21.1 
" style="fill:none;stroke:#000000;stroke-linecap:square;stroke-opacity:0.1;stroke-width:0.6;"/>
     </g>
     <g id="line2d_8">
      <g>
       <use style="stroke:#000000;stroke-width:0.6;" x="93.854545" xlink:href="#m442240e7bb" y="143.5"/>
      </g>
     </g>
    </g>
    <g id="xtick_5">
     <g id="line2d_9">
      <path clip-path="url(#p0891ca331a)" d="M 121.672727 143.5 
L 121.672727 21.1 
" style="fill:none;stroke:#000000;stroke-linecap:square;stroke-opacity:0.1;stroke-width:0.6;"/>
     </g>
     <g id="line2d_10">
      <g>
       <use style="stroke:#000000;stroke-width:0.6;" x="121.672727" xlink:href="#m442240e7bb" y="143.5"/>
      </g>
     </g>
    </g>
    <g id="xtick_6">
     <g id="line2d_11">
      <defs>
       <path d="M 0 0 
L 0 2 
" id="m44710a2a59" style="stroke:#000000;stroke-width:0.48;"/>
      </defs>
      <g>
       <use style="stroke:#000000;stroke-width:0.48;" x="17.354545" xlink:href="#m44710a2a59" y="143.5"/>
      </g>
     </g>
    </g>
    <g id="xtick_7">
     <g id="line2d_12">
      <g>
       <use style="stroke:#000000;stroke-width:0.48;" x="24.309091" xlink:href="#m44710a2a59" y="143.5"/>
      </g>
     </g>
    </g>
    <g id="xtick_8">
     <g id="line2d_13">
      <g>
       <use style="stroke:#000000;stroke-width:0.48;" x="31.263636" xlink:href="#m44710a2a59" y="143.5"/>
      </g>
     </g>
    </g>
    <g id="xtick_9">
     <g id="line2d_14">
      <g>
       <use style="stroke:#000000;stroke-width:0.48;" x="45.172727" xlink:href="#m44710a2a59" y="143.5"/>
      </g>
     </g>
    </g>
    <g id="xtick_10">
     <g id="line2d_15">
      <g>
       <use style="stroke:#000000;stroke-width:0.48;" x="52.127273" xlink:href="#m44710a2a59" y="143.5"/>
      </g>
     </g>
    </g>
    <g id="xtick_11">
     <g id="line2d_16">
      <g>
       <use style="stroke:#000000;stroke-width:0.48;" x="59.081818" xlink:href="#m44710a2a59" y="143.5"/>
      </g>
     </g>
    </g>
    <g id="xtick_12">
     <g id="line2d_17">
      <g>
       <use style="stroke:#000000;stroke-width:0.48;" x="72.990909" xlink:href="#m44710a2a59" y="143.5"/>
      </g>
     </g>
    </g>
    <g id="xtick_13">
     <g id="line2d_18">
      <g>
       <use style="stroke:#000000;stroke-width:0.48;" x="79.945455" xlink:href="#m44710a2a59" y="143.5"/>
      </g>
     </g>
    </g>
    <g id="xtick_14">
     <g id="line2d_19">
      <g>
       <use style="stroke:#000000;stroke-width:0.48;" x="86.9" xlink:href="#m44710a2a59" y="143.5"/>
      </g>
     </g>
    </g>
    <g id="xtick_15">
     <g id="line2d_20">
      <g>
       <use style="stroke:#000000;stroke-width:0.48;" x="100.809091" xlink:href="#m44710a2a59" y="143.5"/>
      </g>
     </g>
    </g>
    <g id="xtick_16">
     <g id="line2d_21">
      <g>
       <use style="stroke:#000000;stroke-width:0.48;" x="107.763636" xlink:href="#m44710a2a59" y="143.5"/>
      </g>
     </g>
    </g>
    <g id="xtick_17">
     <g id="line2d_22">
      <g>
       <use style="stroke:#000000;stroke-width:0.48;" x="114.718182" xlink:href="#m44710a2a59" y="143.5"/>
      </g>
     </g>
    </g>
    <g id="xtick_18">
     <g id="line2d_23">
      <g>
       <use style="stroke:#000000;stroke-width:0.48;" x="128.627273" xlink:href="#m44710a2a59" y="143.5"/>
      </g>
     </g>
    </g>
   </g>
   <g id="matplotlib.axis_2">
    <g id="ytick_1">
     <g id="line2d_24">
      <path clip-path="url(#p0891ca331a)" d="M 10.4 116.76133 
L 132.8 116.76133 
" style="fill:none;stroke:#000000;stroke-linecap:square;stroke-opacity:0.1;stroke-width:0.6;"/>
     </g>
     <g id="line2d_25">
      <defs>
       <path d="M 0 0 
L -4 0 
" id="ma3ae14ee79" style="stroke:#000000;stroke-width:0.6;"/>
      </defs>
      <g>
       <use style="stroke:#000000;stroke-width:0.6;" x="10.4" xlink:href="#ma3ae14ee79" y="116.76133"/>
      </g>
     </g>
    </g>
    <g id="ytick_2">
     <g id="line2d_26">
      <path clip-path="url(#p0891ca331a)" d="M 10.4 87.352991 
L 132.8 87.352991 
" style="fill:none;stroke:#000000;stroke-linecap:square;stroke-opacity:0.1;stroke-width:0.6;"/>
     </g>
     <g id="line2d_27">
      <g>
       <use style="stroke:#000000;stroke-width:0.6;" x="10.4" xlink:href="#ma3ae14ee79" y="87.352991"/>
      </g>
     </g>
    </g>
    <g id="ytick_3">
     <g id="line2d_28">
      <path clip-path="url(#p0891ca331a)" d="M 10.4 57.944652 
L 132.8 57.944652 
" style="fill:none;stroke:#000000;stroke-linecap:square;stroke-opacity:0.1;stroke-width:0.6;"/>
     </g>
     <g id="line2d_29">
      <g>
       <use style="stroke:#000000;stroke-width:0.6;" x="10.4" xlink:href="#ma3ae14ee79" y="57.944652"/>
      </g>
     </g>
    </g>
    <g id="ytick_4">
     <g id="line2d_30">
      <path clip-path="url(#p0891ca331a)" d="M 10.4 28.536313 
L 132.8 28.536313 
" style="fill:none;stroke:#000000;stroke-linecap:square;stroke-opacity:0.1;stroke-width:0.6;"/>
     </g>
     <g id="line2d_31">
      <g>
       <use style="stroke:#000000;stroke-width:0.6;" x="10.4" xlink:href="#ma3ae14ee79" y="28.536313"/>
      </g>
     </g>
    </g>
    <g id="ytick_5">
     <g id="line2d_32">
      <defs>
       <path d="M 0 0 
L -2 0 
" id="m26dd0170c6" style="stroke:#000000;stroke-width:0.48;"/>
      </defs>
      <g>
       <use style="stroke:#000000;stroke-width:0.48;" x="10.4" xlink:href="#m26dd0170c6" y="140.288001"/>
      </g>
     </g>
    </g>
    <g id="ytick_6">
     <g id="line2d_33">
      <g>
       <use style="stroke:#000000;stroke-width:0.48;" x="10.4" xlink:href="#m26dd0170c6" y="134.406333"/>
      </g>
     </g>
    </g>
    <g id="ytick_7">
     <g id="line2d_34">
      <g>
       <use style="stroke:#000000;stroke-width:0.48;" x="10.4" xlink:href="#m26dd0170c6" y="128.524665"/>
      </g>
     </g>
    </g>
    <g id="ytick_8">
     <g id="line2d_35">
      <g>
       <use style="stroke:#000000;stroke-width:0.48;" x="10.4" xlink:href="#m26dd0170c6" y="122.642997"/>
      </g>
     </g>
    </g>
    <g id="ytick_9">
     <g id="line2d_36">
      <g>
       <use style="stroke:#000000;stroke-width:0.48;" x="10.4" xlink:href="#m26dd0170c6" y="110.879662"/>
      </g>
     </g>
    </g>
    <g id="ytick_10">
     <g id="line2d_37">
      <g>
       <use style="stroke:#000000;stroke-width:0.48;" x="10.4" xlink:href="#m26dd0170c6" y="104.997994"/>
      </g>
     </g>
    </g>
    <g id="ytick_11">
     <g id="line2d_38">
      <g>
       <use style="stroke:#000000;stroke-width:0.48;" x="10.4" xlink:href="#m26dd0170c6" y="99.116326"/>
      </g>
     </g>
    </g>
    <g id="ytick_12">
     <g id="line2d_39">
      <g>
       <use style="stroke:#000000;stroke-width:0.48;" x="10.4" xlink:href="#m26dd0170c6" y="93.234659"/>
      </g>
     </g>
    </g>
    <g id="ytick_13">
     <g id="line2d_40">
      <g>
       <use style="stroke:#000000;stroke-width:0.48;" x="10.4" xlink:href="#m26dd0170c6" y="81.471323"/>
      </g>
     </g>
    </g>
    <g id="ytick_14">
     <g id="line2d_41">
      <g>
       <use style="stroke:#000000;stroke-width:0.48;" x="10.4" xlink:href="#m26dd0170c6" y="75.589655"/>
      </g>
     </g>
    </g>
    <g id="ytick_15">
     <g id="line2d_42">
      <g>
       <use style="stroke:#000000;stroke-width:0.48;" x="10.4" xlink:href="#m26dd0170c6" y="69.707987"/>
      </g>
     </g>
    </g>
    <g id="ytick_16">
     <g id="line2d_43">
      <g>
       <use style="stroke:#000000;stroke-width:0.48;" x="10.4" xlink:href="#m26dd0170c6" y="63.82632"/>
      </g>
     </g>
    </g>
    <g id="ytick_17">
     <g id="line2d_44">
      <g>
       <use style="stroke:#000000;stroke-width:0.48;" x="10.4" xlink:href="#m26dd0170c6" y="52.062984"/>
      </g>
     </g>
    </g>
    <g id="ytick_18">
     <g id="line2d_45">
      <g>
       <use style="stroke:#000000;stroke-width:0.48;" x="10.4" xlink:href="#m26dd0170c6" y="46.181316"/>
      </g>
     </g>
    </g>
    <g id="ytick_19">
     <g id="line2d_46">
      <g>
       <use style="stroke:#000000;stroke-width:0.48;" x="10.4" xlink:href="#m26dd0170c6" y="40.299648"/>
      </g>
     </g>
    </g>
    <g id="ytick_20">
     <g id="line2d_47">
      <g>
       <use style="stroke:#000000;stroke-width:0.48;" x="10.4" xlink:href="#m26dd0170c6" y="34.417981"/>
      </g>
     </g>
    </g>
    <g id="ytick_21">
     <g id="line2d_48">
      <g>
       <use style="stroke:#000000;stroke-width:0.48;" x="10.4" xlink:href="#m26dd0170c6" y="22.654645"/>
      </g>
     </g>
    </g>
   </g>
   <g id="line2d_49">
    <path clip-path="url(#p0891ca331a)" d="M 10.4 92.690548 
L 21.527273 79.260086 
L 32.654545 63.401208 
L 43.781818 64.690721 
L 54.909091 62.959698 
L 66.036364 53.700872 
L 77.163636 43.916667 
L 88.290909 51.838144 
L 99.418182 43.461534 
L 110.545455 41.798893 
L 121.672727 47.928724 
L 132.8 31.830319 
" style="fill:none;stroke:#2b4162;stroke-linecap:square;stroke-width:5;"/>
   </g>
   <g id="line2d_50">
    <path clip-path="url(#p0891ca331a)" d="M 10.4 100.479532 
L 21.527273 112.686601 
L 32.654545 122.573196 
L 43.781818 114.027989 
L 54.909091 123.515106 
L 66.036364 129.582011 
L 77.163636 121.64528 
L 88.290909 133.049341 
L 99.418182 143.5 
L 110.545455 139.660301 
L 121.672727 125.43247 
L 132.8 138.488392 
" style="fill:none;stroke:#fa9f42;stroke-linecap:square;stroke-width:5;"/>
   </g>
   <g id="line2d_51">
    <path clip-path="url(#p0891ca331a)" d="M 10.4 72.918617 
L 21.527273 72.822522 
L 32.654545 81.37095 
L 43.781818 78.234984 
L 54.909091 88.8986 
L 66.036364 82.023026 
L 77.163636 69.349427 
L 88.290909 77.550453 
L 99.418182 83.056288 
L 110.545455 90.343231 
L 121.672727 79.487993 
L 132.8 78.645034 
" style="fill:none;stroke:#e0e0e2;stroke-linecap:square;stroke-width:5;"/>
   </g>
   <g id="line2d_52">
    <path clip-path="url(#p0891ca331a)" d="M 10.4 94.040947 
L 21.527273 105.919574 
L 32.654545 97.430653 
L 43.781818 109.711375 
L 54.909091 104.991471 
L 66.036364 102.494532 
L 77.163636 102.97856 
L 88.290909 88.405606 
L 99.418182 95.238837 
L 110.545455 91.410299 
L 121.672727 100.65597 
L 132.8 88.669431 
" style="fill:none;stroke:#a21817;stroke-linecap:square;stroke-width:5;"/>
   </g>
   <g id="line2d_53">
    <path clip-path="url(#p0891ca331a)" d="M 10.4 99.884151 
L 21.527273 101.473241 
L 32.654545 88.232531 
L 43.781818 101.181597 
L 54.909091 91.048008 
L 66.036364 97.57331 
L 77.163636 81.421147 
L 88.290909 75.996825 
L 99.418182 88.355786 
L 110.545455 97.198587 
L 121.672727 97.915813 
L 132.8 90.403583 
" style="fill:none;stroke:#0b6e4f;stroke-linecap:square;stroke-width:5;"/>
   </g>
   <g id="line2d_54">
    <path clip-path="url(#p0891ca331a)" d="M 10.4 78.821168 
L 21.527273 79.921923 
L 32.654545 65.449606 
L 43.781818 71.68101 
L 54.909091 58.875552 
L 66.036364 47.741706 
L 77.163636 37.434828 
L 88.290909 40.463362 
L 99.418182 26.151981 
L 110.545455 30.61413 
L 121.672727 34.950109 
L 132.8 38.692551 
" style="fill:none;stroke:#2b4162;stroke-linecap:square;stroke-width:5;"/>
   </g>
   <g id="line2d_55">
    <path clip-path="url(#p0891ca331a)" d="M 10.4 93.154202 
L 21.527273 100.577433 
L 32.654545 112.84583 
L 43.781818 108.348231 
L 54.909091 99.207838 
L 66.036364 96.481543 
L 77.163636 97.799836 
L 88.290909 86.460609 
L 99.418182 84.417517 
L 110.545455 91.865059 
L 121.672727 93.661688 
L 132.8 95.445009 
" style="fill:none;stroke:#fa9f42;stroke-linecap:square;stroke-width:5;"/>
   </g>
   <g id="line2d_56">
    <path clip-path="url(#p0891ca331a)" d="M 10.4 73.741911 
L 21.527273 83.295362 
L 32.654545 68.936331 
L 43.781818 73.671027 
L 54.909091 72.758975 
L 66.036364 81.12334 
L 77.163636 75.763986 
L 88.290909 63.529739 
L 99.418182 66.228077 
L 110.545455 75.677398 
L 121.672727 74.357269 
L 132.8 62.659606 
" style="fill:none;stroke:#e0e0e2;stroke-linecap:square;stroke-width:5;"/>
   </g>
   <g id="line2d_57">
    <path clip-path="url(#p0891ca331a)" d="M 10.4 94.69846 
L 21.527273 81.314116 
L 32.654545 65.983172 
L 43.781818 57.229029 
L 54.909091 58.550964 
L 66.036364 68.354971 
L 77.163636 66.865097 
L 88.290909 75.044741 
L 99.418182 79.047834 
L 110.545455 66.282588 
L 121.672727 58.643991 
L 132.8 52.030021 
" style="fill:none;stroke:#a21817;stroke-linecap:square;stroke-width:5;"/>
   </g>
   <g id="line2d_58">
    <path clip-path="url(#p0891ca331a)" d="M 10.4 87.357159 
L 21.527273 75.252623 
L 32.654545 87.819414 
L 43.781818 99.247619 
L 54.909091 103.333234 
L 66.036364 112.174524 
L 77.163636 103.839481 
L 88.290909 88.106766 
L 99.418182 84.367287 
L 110.545455 81.476381 
L 121.672727 82.586233 
L 132.8 74.253819 
" style="fill:none;stroke:#0b6e4f;stroke-linecap:square;stroke-width:5;"/>
   </g>
   <g id="line2d_59">
    <path clip-path="url(#p0891ca331a)" d="M 10.4 95.985617 
L 21.527273 100.822793 
L 32.654545 92.976161 
L 43.781818 77.743335 
L 54.909091 63.865137 
L 66.036364 55.986798 
L 77.163636 61.185614 
L 88.290909 52.554842 
L 99.418182 39.845551 
L 110.545455 26.233704 
L 121.672727 36.831181 
L 132.8 21.1 
" style="fill:none;stroke:#2b4162;stroke-linecap:square;stroke-width:5;"/>
   </g>
   <g id="line2d_60">
    <path clip-path="url(#p0891ca331a)" d="M 10.4 77.918829 
L 21.527273 78.218683 
L 32.654545 75.158227 
L 43.781818 84.766657 
L 54.909091 96.248021 
L 66.036364 84.094181 
L 77.163636 75.184921 
L 88.290909 76.59747 
L 99.418182 76.096158 
L 110.545455 88.51771 
L 121.672727 101.166908 
L 132.8 94.806873 
" style="fill:none;stroke:#fa9f42;stroke-linecap:square;stroke-width:5;"/>
   </g>
   <g id="patch_3">
    <path d="M 10.4 143.5 
L 10.4 21.1 
" style="fill:none;stroke:#000000;stroke-linecap:square;stroke-linejoin:miter;stroke-width:0.6;"/>
   </g>
   <g id="patch_4">
    <path d="M 132.8 143.5 
L 132.8 21.1 
" style="fill:none;stroke:#000000;stroke-linecap:square;stroke-linejoin:miter;stroke-width:0.6;"/>
   </g>
   <g id="patch_5">
    <path d="M 10.4 143.5 
L 132.8 143.5 
" style="fill:none;stroke:#000000;stroke-linecap:square;stroke-linejoin:miter;stroke-width:0.6;"/>
   </g>
   <g id="patch_6">
    <path d="M 10.4 21.1 
L 132.8 21.1 
" style="fill:none;stroke:#000000;stroke-linecap:square;stroke-linejoin:miter;stroke-width:0.6;"/>
   </g>
  </g>
  <g id="axes_2">
   <g id="patch_7">
    <path d="M 146.4 143.5 
L 268.8 143.5 
L 268.8 21.1 
L 146.4 21.1 
z
" style="fill:#ffffff;"/>
   </g>
   <g id="matplotlib.axis_3">
    <g id="xtick_19">
     <g id="line2d_61">
      <path clip-path="url(#pafa2bcecbe)" d="M 146.4 143.5 
L 146.4 21.1 
" style="fill:none;stroke:#000000;stroke-linecap:square;stroke-opacity:0.1;stroke-width:0.6;"/>
     </g>
     <g id="line2d_62">
      <g>
       <use style="stroke:#000000;stroke-width:0.6;" x="146.4" xlink:href="#m442240e7bb" y="143.5"/>
      </g>
     </g>
    </g>
    <g id="xtick_20">
     <g id="line2d_63">
      <path clip-path="url(#pafa2bcecbe)" d="M 174.218182 143.5 
L 174.218182 21.1 
" style="fill:none;stroke:#000000;stroke-linecap:square;stroke-opacity:0.1;stroke-width:0.6;"/>
     </g>
     <g id="line2d_64">
      <g>
       <use style="stroke:#000000;stroke-width:0.6;" x="174.218182" xlink:href="#m442240e7bb" y="143.5"/>
      </g>
     </g>
    </g>
    <g id="xtick_21">
     <g id="line2d_65">
      <path clip-path="url(#pafa2bcecbe)" d="M 202.036364 143.5 
L 202.036364 21.1 
" style="fill:none;stroke:#000000;stroke-linecap:square;stroke-opacity:0.1;stroke-width:0.6;"/>
     </g>
     <g id="line2d_66">
      <g>
       <use style="stroke:#000000;stroke-width:0.6;" x="202.036364" xlink:href="#m442240e7bb" y="143.5"/>
      </g>
     </g>
    </g>
    <g id="xtick_22">
     <g id="line2d_67">
      <path clip-path="url(#pafa2bcecbe)" d="M 229.854545 143.5 
L 229.854545 21.1 
" style="fill:none;stroke:#000000;stroke-linecap:square;stroke-opacity:0.1;stroke-width:0.6;"/>
     </g>
     <g id="line2d_68">
      <g>
       <use style="stroke:#000000;stroke-width:0.6;" x="229.854545" xlink:href="#m442240e7bb" y="143.5"/>
      </g>
     </g>
    </g>
    <g id="xtick_23">
     <g id="line2d_69">
      <path clip-path="url(#pafa2bcecbe)" d="M 257.672727 143.5 
L 257.672727 21.1 
" style="fill:none;stroke:#000000;stroke-linecap:square;stroke-opacity:0.1;stroke-width:0.6;"/>
     </g>
     <g id="line2d_70">
      <g>
       <use style="stroke:#000000;stroke-width:0.6;" x="257.672727" xlink:href="#m442240e7bb" y="143.5"/>
      </g>
     </g>
    </g>
    <g id="xtick_24">
     <g id="line2d_71">
      <g>
       <use style="stroke:#000000;stroke-width:0.48;" x="153.354545" xlink:href="#m44710a2a59" y="143.5"/>
      </g>
     </g>
    </g>
    <g id="xtick_25">
     <g id="line2d_72">
      <g>
       <use style="stroke:#000000;stroke-width:0.48;" x="160.309091" xlink:href="#m44710a2a59" y="143.5"/>
      </g>
     </g>
    </g>
    <g id="xtick_26">
     <g id="line2d_73">
      <g>
       <use style="stroke:#000000;stroke-width:0.48;" x="167.263636" xlink:href="#m44710a2a59" y="143.5"/>
      </g>
     </g>
    </g>
    <g id="xtick_27">
     <g id="line2d_74">
      <g>
       <use style="stroke:#000000;stroke-width:0.48;" x="181.172727" xlink:href="#m44710a2a59" y="143.5"/>
      </g>
     </g>
    </g>
    <g id="xtick_28">
     <g id="line2d_75">
      <g>
       <use style="stroke:#000000;stroke-width:0.48;" x="188.127273" xlink:href="#m44710a2a59" y="143.5"/>
      </g>
     </g>
    </g>
    <g id="xtick_29">
     <g id="line2d_76">
      <g>
       <use style="stroke:#000000;stroke-width:0.48;" x="195.081818" xlink:href="#m44710a2a59" y="143.5"/>
      </g>
     </g>
    </g>
    <g id="xtick_30">
     <g id="line2d_77">
      <g>
       <use style="stroke:#000000;stroke-width:0.48;" x="208.990909" xlink:href="#m44710a2a59" y="143.5"/>
      </g>
     </g>
    </g>
    <g id="xtick_31">
     <g id="line2d_78">
      <g>
       <use style="stroke:#000000;stroke-width:0.48;" x="215.945455" xlink:href="#m44710a2a59" y="143.5"/>
      </g>
     </g>
    </g>
    <g id="xtick_32">
     <g id="line2d_79">
      <g>
       <use style="stroke:#000000;stroke-width:0.48;" x="222.9" xlink:href="#m44710a2a59" y="143.5"/>
      </g>
     </g>
    </g>
    <g id="xtick_33">
     <g id="line2d_80">
      <g>
       <use style="stroke:#000000;stroke-width:0.48;" x="236.809091" xlink:href="#m44710a2a59" y="143.5"/>
      </g>
     </g>
    </g>
    <g id="xtick_34">
     <g id="line2d_81">
      <g>
       <use style="stroke:#000000;stroke-width:0.48;" x="243.763636" xlink:href="#m44710a2a59" y="143.5"/>
      </g>
     </g>
    </g>
    <g id="xtick_35">
     <g id="line2d_82">
      <g>
       <use style="stroke:#000000;stroke-width:0.48;" x="250.718182" xlink:href="#m44710a2a59" y="143.5"/>
      </g>
     </g>
    </g>
    <g id="xtick_36">
     <g id="line2d_83">
      <g>
       <use style="stroke:#000000;stroke-width:0.48;" x="264.627273" xlink:href="#m44710a2a59" y="143.5"/>
      </g>
     </g>
    </g>
   </g>
   <g id="matplotlib.axis_4">
    <g id="ytick_22">
     <g id="line2d_84">
      <path clip-path="url(#pafa2bcecbe)" d="M 146.4 116.76133 
L 268.8 116.76133 
" style="fill:none;stroke:#000000;stroke-linecap:square;stroke-opacity:0.1;stroke-width:0.6;"/>
     </g>
     <g id="line2d_85">
      <g>
       <use style="stroke:#000000;stroke-width:0.6;" x="146.4" xlink:href="#ma3ae14ee79" y="116.76133"/>
      </g>
     </g>
    </g>
    <g id="ytick_23">
     <g id="line2d_86">
      <path clip-path="url(#pafa2bcecbe)" d="M 146.4 87.352991 
L 268.8 87.352991 
" style="fill:none;stroke:#000000;stroke-linecap:square;stroke-opacity:0.1;stroke-width:0.6;"/>
     </g>
     <g id="line2d_87">
      <g>
       <use style="stroke:#000000;stroke-width:0.6;" x="146.4" xlink:href="#ma3ae14ee79" y="87.352991"/>
      </g>
     </g>
    </g>
    <g id="ytick_24">
     <g id="line2d_88">
      <path clip-path="url(#pafa2bcecbe)" d="M 146.4 57.944652 
L 268.8 57.944652 
" style="fill:none;stroke:#000000;stroke-linecap:square;stroke-opacity:0.1;stroke-width:0.6;"/>
     </g>
     <g id="line2d_89">
      <g>
       <use style="stroke:#000000;stroke-width:0.6;" x="146.4" xlink:href="#ma3ae14ee79" y="57.944652"/>
      </g>
     </g>
    </g>
    <g id="ytick_25">
     <g id="line2d_90">
      <path clip-path="url(#pafa2bcecbe)" d="M 146.4 28.536313 
L 268.8 28.536313 
" style="fill:none;stroke:#000000;stroke-linecap:square;stroke-opacity:0.1;stroke-width:0.6;"/>
     </g>
     <g id="line2d_91">
      <g>
       <use style="stroke:#000000;stroke-width:0.6;" x="146.4" xlink:href="#ma3ae14ee79" y="28.536313"/>
      </g>
     </g>
    </g>
    <g id="ytick_26">
     <g id="line2d_92">
      <g>
       <use style="stroke:#000000;stroke-width:0.48;" x="146.4" xlink:href="#m26dd0170c6" y="140.288001"/>
      </g>
     </g>
    </g>
    <g id="ytick_27">
     <g id="line2d_93">
      <g>
       <use style="stroke:#000000;stroke-width:0.48;" x="146.4" xlink:href="#m26dd0170c6" y="134.406333"/>
      </g>
     </g>
    </g>
    <g id="ytick_28">
     <g id="line2d_94">
      <g>
       <use style="stroke:#000000;stroke-width:0.48;" x="146.4" xlink:href="#m26dd0170c6" y="128.524665"/>
      </g>
     </g>
    </g>
    <g id="ytick_29">
     <g id="line2d_95">
      <g>
       <use style="stroke:#000000;stroke-width:0.48;" x="146.4" xlink:href="#m26dd0170c6" y="122.642997"/>
      </g>
     </g>
    </g>
    <g id="ytick_30">
     <g id="line2d_96">
      <g>
       <use style="stroke:#000000;stroke-width:0.48;" x="146.4" xlink:href="#m26dd0170c6" y="110.879662"/>
      </g>
     </g>
    </g>
    <g id="ytick_31">
     <g id="line2d_97">
      <g>
       <use style="stroke:#000000;stroke-width:0.48;" x="146.4" xlink:href="#m26dd0170c6" y="104.997994"/>
      </g>
     </g>
    </g>
    <g id="ytick_32">
     <g id="line2d_98">
      <g>
       <use style="stroke:#000000;stroke-width:0.48;" x="146.4" xlink:href="#m26dd0170c6" y="99.116326"/>
      </g>
     </g>
    </g>
    <g id="ytick_33">
     <g id="line2d_99">
      <g>
       <use style="stroke:#000000;stroke-width:0.48;" x="146.4" xlink:href="#m26dd0170c6" y="93.234659"/>
      </g>
     </g>
    </g>
    <g id="ytick_34">
     <g id="line2d_100">
      <g>
       <use style="stroke:#000000;stroke-width:0.48;" x="146.4" xlink:href="#m26dd0170c6" y="81.471323"/>
      </g>
     </g>
    </g>
    <g id="ytick_35">
     <g id="line2d_101">
      <g>
       <use style="stroke:#000000;stroke-width:0.48;" x="146.4" xlink:href="#m26dd0170c6" y="75.589655"/>
      </g>
     </g>
    </g>
    <g id="ytick_36">
     <g id="line2d_102">
      <g>
       <use style="stroke:#000000;stroke-width:0.48;" x="146.4" xlink:href="#m26dd0170c6" y="69.707987"/>
      </g>
     </g>
    </g>
    <g id="ytick_37">
     <g id="line2d_103">
      <g>
       <use style="stroke:#000000;stroke-width:0.48;" x="146.4" xlink:href="#m26dd0170c6" y="63.82632"/>
      </g>
     </g>
    </g>
    <g id="ytick_38">
     <g id="line2d_104">
      <g>
       <use style="stroke:#000000;stroke-width:0.48;" x="146.4" xlink:href="#m26dd0170c6" y="52.062984"/>
      </g>
     </g>
    </g>
    <g id="ytick_39">
     <g id="line2d_105">
      <g>
       <use style="stroke:#000000;stroke-width:0.48;" x="146.4" xlink:href="#m26dd0170c6" y="46.181316"/>
      </g>
     </g>
    </g>
    <g id="ytick_40">
     <g id="line2d_106">
      <g>
       <use style="stroke:#000000;stroke-width:0.48;" x="146.4" xlink:href="#m26dd0170c6" y="40.299648"/>
      </g>
     </g>
    </g>
    <g id="ytick_41">
     <g id="line2d_107">
      <g>
       <use style="stroke:#000000;stroke-width:0.48;" x="146.4" xlink:href="#m26dd0170c6" y="34.417981"/>
      </g>
     </g>
    </g>
    <g id="ytick_42">
     <g id="line2d_108">
      <g>
       <use style="stroke:#000000;stroke-width:0.48;" x="146.4" xlink:href="#m26dd0170c6" y="22.654645"/>
      </g>
     </g>
    </g>
   </g>
   <g id="line2d_109">
    <path clip-path="url(#pafa2bcecbe)" d="M 146.4 92.690548 
L 157.527273 79.260086 
L 168.654545 63.401208 
L 179.781818 64.690721 
L 190.909091 62.959698 
L 202.036364 53.700872 
L 213.163636 43.916667 
L 224.290909 51.838144 
L 235.418182 43.461534 
L 246.545455 41.798893 
L 257.672727 47.928724 
L 268.8 31.830319 
" style="fill:none;stroke:#5bbe94;stroke-linecap:square;stroke-width:5;"/>
   </g>
   <g id="line2d_110">
    <path clip-path="url(#pafa2bcecbe)" d="M 146.4 100.479532 
L 157.527273 112.686601 
L 168.654545 122.573196 
L 179.781818 114.027989 
L 190.909091 123.515106 
L 202.036364 129.582011 
L 213.163636 121.64528 
L 224.290909 133.049341 
L 235.418182 143.5 
L 246.545455 139.660301 
L 257.672727 125.43247 
L 268.8 138.488392 
" style="fill:none;stroke:#b6e3d1;stroke-linecap:square;stroke-width:5;"/>
   </g>
   <g id="line2d_111">
    <path clip-path="url(#pafa2bcecbe)" d="M 146.4 72.918617 
L 157.527273 72.822522 
L 168.654545 81.37095 
L 179.781818 78.234984 
L 190.909091 88.8986 
L 202.036364 82.023026 
L 213.163636 69.349427 
L 224.290909 77.550453 
L 235.418182 83.056288 
L 246.545455 90.343231 
L 257.672727 79.487993 
L 268.8 78.645034 
" style="fill:none;stroke:#91be64;stroke-linecap:square;stroke-width:5;"/>
   </g>
   <g id="line2d_112">
    <path clip-path="url(#pafa2bcecbe)" d="M 146.4 94.040947 
L 157.527273 105.919574 
L 168.654545 97.430653 
L 179.781818 109.711375 
L 190.909091 104.991471 
L 202.036364 102.494532 
L 213.163636 102.97856 
L 224.290909 88.405606 
L 235.418182 95.238837 
L 246.545455 91.410299 
L 257.672727 100.65597 
L 268.8 88.669431 
" style="fill:none;stroke:#cce5b5;stroke-linecap:square;stroke-width:5;"/>
   </g>
   <g id="line2d_113">
    <path clip-path="url(#pafa2bcecbe)" d="M 146.4 99.884151 
L 157.527273 101.473241 
L 168.654545 88.232531 
L 179.781818 101.181597 
L 190.909091 91.048008 
L 202.036364 97.57331 
L 213.163636 81.421147 
L 224.290909 75.996825 
L 235.418182 88.355786 
L 246.545455 97.198587 
L 257.672727 97.915813 
L 268.8 90.403583 
" style="fill:none;stroke:#e5cf6c;stroke-linecap:square;stroke-width:5;"/>
   </g>
   <g id="line2d_114">
    <path clip-path="url(#pafa2bcecbe)" d="M 146.4 78.821168 
L 157.527273 79.921923 
L 168.654545 65.449606 
L 179.781818 71.68101 
L 190.909091 58.875552 
L 202.036364 47.741706 
L 213.163636 37.434828 
L 224.290909 40.463362 
L 235.418182 26.151981 
L 246.545455 30.61413 
L 257.672727 34.950109 
L 268.8 38.692551 
" style="fill:none;stroke:#f9ebaa;stroke-linecap:square;stroke-width:5;"/>
   </g>
   <g id="line2d_115">
    <path clip-path="url(#pafa2bcecbe)" d="M 146.4 93.154202 
L 157.527273 100.577433 
L 168.654545 112.84583 
L 179.781818 108.348231 
L 190.909091 99.207838 
L 202.036364 96.481543 
L 213.163636 97.799836 
L 224.290909 86.460609 
L 235.418182 84.417517 
L 246.545455 91.865059 
L 257.672727 93.661688 
L 268.8 95.445009 
" style="fill:none;stroke:#e87b70;stroke-linecap:square;stroke-width:5;"/>
   </g>
   <g id="line2d_116">
    <path clip-path="url(#pafa2bcecbe)" d="M 146.4 73.741911 
L 157.527273 83.295362 
L 168.654545 68.936331 
L 179.781818 73.671027 
L 190.909091 72.758975 
L 202.036364 81.12334 
L 213.163636 75.763986 
L 224.290909 63.529739 
L 235.418182 66.228077 
L 246.545455 75.677398 
L 257.672727 74.357269 
L 268.8 62.659606 
" style="fill:none;stroke:#f2cec1;stroke-linecap:square;stroke-width:5;"/>
   </g>
   <g id="line2d_117">
    <path clip-path="url(#pafa2bcecbe)" d="M 146.4 94.69846 
L 157.527273 81.314116 
L 168.654545 65.983172 
L 179.781818 57.229029 
L 190.909091 58.550964 
L 202.036364 68.354971 
L 213.163636 66.865097 
L 224.290909 75.044741 
L 235.418182 79.047834 
L 246.545455 66.282588 
L 257.672727 58.643991 
L 268.8 52.030021 
" style="fill:none;stroke:#cc6686;stroke-linecap:square;stroke-width:5;"/>
   </g>
   <g id="line2d_118">
    <path clip-path="url(#pafa2bcecbe)" d="M 146.4 87.357159 
L 157.527273 75.252623 
L 168.654545 87.819414 
L 179.781818 99.247619 
L 190.909091 103.333234 
L 202.036364 112.174524 
L 213.163636 103.839481 
L 224.290909 88.106766 
L 235.418182 84.367287 
L 246.545455 81.476381 
L 257.672727 82.586233 
L 268.8 74.253819 
" style="fill:none;stroke:#e5b5c5;stroke-linecap:square;stroke-width:5;"/>
   </g>
   <g id="line2d_119">
    <path clip-path="url(#pafa2bcecbe)" d="M 146.4 95.985617 
L 157.527273 100.822793 
L 168.654545 92.976161 
L 179.781818 77.743335 
L 190.909091 63.865137 
L 202.036364 55.986798 
L 213.163636 61.185614 
L 224.290909 52.554842 
L 235.418182 39.845551 
L 246.545455 26.233704 
L 257.672727 36.831181 
L 268.8 21.1 
" style="fill:none;stroke:#5884b3;stroke-linecap:square;stroke-width:5;"/>
   </g>
   <g id="line2d_120">
    <path clip-path="url(#pafa2bcecbe)" d="M 146.4 77.918829 
L 157.527273 78.218683 
L 168.654545 75.158227 
L 179.781818 84.766657 
L 190.909091 96.248021 
L 202.036364 84.094181 
L 213.163636 75.184921 
L 224.290909 76.59747 
L 235.418182 76.096158 
L 246.545455 88.51771 
L 257.672727 101.166908 
L 268.8 94.806873 
" style="fill:none;stroke:#b6cee5;stroke-linecap:square;stroke-width:5;"/>
   </g>
   <g id="patch_8">
    <path d="M 146.4 143.5 
L 146.4 21.1 
" style="fill:none;stroke:#000000;stroke-linecap:square;stroke-linejoin:miter;stroke-width:0.6;"/>
   </g>
   <g id="patch_9">
    <path d="M 268.8 143.5 
L 268.8 21.1 
" style="fill:none;stroke:#000000;stroke-linecap:square;stroke-linejoin:miter;stroke-width:0.6;"/>
   </g>
   <g id="patch_10">
    <path d="M 146.4 143.5 
L 268.8 143.5 
" style="fill:none;stroke:#000000;stroke-linecap:square;stroke-linejoin:miter;stroke-width:0.6;"/>
   </g>
   <g id="patch_11">
    <path d="M 146.4 21.1 
L 268.8 21.1 
" style="fill:none;stroke:#000000;stroke-linecap:square;stroke-linejoin:miter;stroke-width:0.6;"/>
   </g>
  </g>
  <g id="axes_3">
   <g id="patch_12">
    <path d="M 282.4 143.5 
L 404.8 143.5 
L 404.8 21.1 
L 282.4 21.1 
z
" style="fill:#ffffff;"/>
   </g>
   <g id="matplotlib.axis_5">
    <g id="xtick_37">
     <g id="line2d_121">
      <path clip-path="url(#pe5903e8d8e)" d="M 282.4 143.5 
L 282.4 21.1 
" style="fill:none;stroke:#000000;stroke-linecap:square;stroke-opacity:0.1;stroke-width:0.6;"/>
     </g>
     <g id="line2d_122">
      <g>
       <use style="stroke:#000000;stroke-width:0.6;" x="282.4" xlink:href="#m442240e7bb" y="143.5"/>
      </g>
     </g>
    </g>
    <g id="xtick_38">
     <g id="line2d_123">
      <path clip-path="url(#pe5903e8d8e)" d="M 310.218182 143.5 
L 310.218182 21.1 
" style="fill:none;stroke:#000000;stroke-linecap:square;stroke-opacity:0.1;stroke-width:0.6;"/>
     </g>
     <g id="line2d_124">
      <g>
       <use style="stroke:#000000;stroke-width:0.6;" x="310.218182" xlink:href="#m442240e7bb" y="143.5"/>
      </g>
     </g>
    </g>
    <g id="xtick_39">
     <g id="line2d_125">
      <path clip-path="url(#pe5903e8d8e)" d="M 338.036364 143.5 
L 338.036364 21.1 
" style="fill:none;stroke:#000000;stroke-linecap:square;stroke-opacity:0.1;stroke-width:0.6;"/>
     </g>
     <g id="line2d_126">
      <g>
       <use style="stroke:#000000;stroke-width:0.6;" x="338.036364" xlink:href="#m442240e7bb" y="143.5"/>
      </g>
     </g>
    </g>
    <g id="xtick_40">
     <g id="line2d_127">
      <path clip-path="url(#pe5903e8d8e)" d="M 365.854545 143.5 
L 365.854545 21.1 
" style="fill:none;stroke:#000000;stroke-linecap:square;stroke-opacity:0.1;stroke-width:0.6;"/>
     </g>
     <g id="line2d_128">
      <g>
       <use style="stroke:#000000;stroke-width:0.6;" x="365.854545" xlink:href="#m442240e7bb" y="143.5"/>
      </g>
     </g>
    </g>
    <g id="xtick_41">
     <g id="line2d_129">
      <path clip-path="url(#pe5903e8d8e)" d="M 393.672727 143.5 
L 393.672727 21.1 
" style="fill:none;stroke:#000000;stroke-linecap:square;stroke-opacity:0.1;stroke-width:0.6;"/>
     </g>
     <g id="line2d_130">
      <g>
       <use style="stroke:#000000;stroke-width:0.6;" x="393.672727" xlink:href="#m442240e7bb" y="143.5"/>
      </g>
     </g>
    </g>
    <g id="xtick_42">
     <g id="line2d_131">
      <g>
       <use style="stroke:#000000;stroke-width:0.48;" x="289.354545" xlink:href="#m44710a2a59" y="143.5"/>
      </g>
     </g>
    </g>
    <g id="xtick_43">
     <g id="line2d_132">
      <g>
       <use style="stroke:#000000;stroke-width:0.48;" x="296.309091" xlink:href="#m44710a2a59" y="143.5"/>
      </g>
     </g>
    </g>
    <g id="xtick_44">
     <g id="line2d_133">
      <g>
       <use style="stroke:#000000;stroke-width:0.48;" x="303.263636" xlink:href="#m44710a2a59" y="143.5"/>
      </g>
     </g>
    </g>
    <g id="xtick_45">
     <g id="line2d_134">
      <g>
       <use style="stroke:#000000;stroke-width:0.48;" x="317.172727" xlink:href="#m44710a2a59" y="143.5"/>
      </g>
     </g>
    </g>
    <g id="xtick_46">
     <g id="line2d_135">
      <g>
       <use style="stroke:#000000;stroke-width:0.48;" x="324.127273" xlink:href="#m44710a2a59" y="143.5"/>
      </g>
     </g>
    </g>
    <g id="xtick_47">
     <g id="line2d_136">
      <g>
       <use style="stroke:#000000;stroke-width:0.48;" x="331.081818" xlink:href="#m44710a2a59" y="143.5"/>
      </g>
     </g>
    </g>
    <g id="xtick_48">
     <g id="line2d_137">
      <g>
       <use style="stroke:#000000;stroke-width:0.48;" x="344.990909" xlink:href="#m44710a2a59" y="143.5"/>
      </g>
     </g>
    </g>
    <g id="xtick_49">
     <g id="line2d_138">
      <g>
       <use style="stroke:#000000;stroke-width:0.48;" x="351.945455" xlink:href="#m44710a2a59" y="143.5"/>
      </g>
     </g>
    </g>
    <g id="xtick_50">
     <g id="line2d_139">
      <g>
       <use style="stroke:#000000;stroke-width:0.48;" x="358.9" xlink:href="#m44710a2a59" y="143.5"/>
      </g>
     </g>
    </g>
    <g id="xtick_51">
     <g id="line2d_140">
      <g>
       <use style="stroke:#000000;stroke-width:0.48;" x="372.809091" xlink:href="#m44710a2a59" y="143.5"/>
      </g>
     </g>
    </g>
    <g id="xtick_52">
     <g id="line2d_141">
      <g>
       <use style="stroke:#000000;stroke-width:0.48;" x="379.763636" xlink:href="#m44710a2a59" y="143.5"/>
      </g>
     </g>
    </g>
    <g id="xtick_53">
     <g id="line2d_142">
      <g>
       <use style="stroke:#000000;stroke-width:0.48;" x="386.718182" xlink:href="#m44710a2a59" y="143.5"/>
      </g>
     </g>
    </g>
    <g id="xtick_54">
     <g id="line2d_143">
      <g>
       <use style="stroke:#000000;stroke-width:0.48;" x="400.627273" xlink:href="#m44710a2a59" y="143.5"/>
      </g>
     </g>
    </g>
   </g>
   <g id="matplotlib.axis_6">
    <g id="ytick_43">
     <g id="line2d_144">
      <path clip-path="url(#pe5903e8d8e)" d="M 282.4 116.76133 
L 404.8 116.76133 
" style="fill:none;stroke:#000000;stroke-linecap:square;stroke-opacity:0.1;stroke-width:0.6;"/>
     </g>
     <g id="line2d_145">
      <g>
       <use style="stroke:#000000;stroke-width:0.6;" x="282.4" xlink:href="#ma3ae14ee79" y="116.76133"/>
      </g>
     </g>
    </g>
    <g id="ytick_44">
     <g id="line2d_146">
      <path clip-path="url(#pe5903e8d8e)" d="M 282.4 87.352991 
L 404.8 87.352991 
" style="fill:none;stroke:#000000;stroke-linecap:square;stroke-opacity:0.1;stroke-width:0.6;"/>
     </g>
     <g id="line2d_147">
      <g>
       <use style="stroke:#000000;stroke-width:0.6;" x="282.4" xlink:href="#ma3ae14ee79" y="87.352991"/>
      </g>
     </g>
    </g>
    <g id="ytick_45">
     <g id="line2d_148">
      <path clip-path="url(#pe5903e8d8e)" d="M 282.4 57.944652 
L 404.8 57.944652 
" style="fill:none;stroke:#000000;stroke-linecap:square;stroke-opacity:0.1;stroke-width:0.6;"/>
     </g>
     <g id="line2d_149">
      <g>
       <use style="stroke:#000000;stroke-width:0.6;" x="282.4" xlink:href="#ma3ae14ee79" y="57.944652"/>
      </g>
     </g>
    </g>
    <g id="ytick_46">
     <g id="line2d_150">
      <path clip-path="url(#pe5903e8d8e)" d="M 282.4 28.536313 
L 404.8 28.536313 
" style="fill:none;stroke:#000000;stroke-linecap:square;stroke-opacity:0.1;stroke-width:0.6;"/>
     </g>
     <g id="line2d_151">
      <g>
       <use style="stroke:#000000;stroke-width:0.6;" x="282.4" xlink:href="#ma3ae14ee79" y="28.536313"/>
      </g>
     </g>
    </g>
    <g id="ytick_47">
     <g id="line2d_152">
      <g>
       <use style="stroke:#000000;stroke-width:0.48;" x="282.4" xlink:href="#m26dd0170c6" y="140.288001"/>
      </g>
     </g>
    </g>
    <g id="ytick_48">
     <g id="line2d_153">
      <g>
       <use style="stroke:#000000;stroke-width:0.48;" x="282.4" xlink:href="#m26dd0170c6" y="134.406333"/>
      </g>
     </g>
    </g>
    <g id="ytick_49">
     <g id="line2d_154">
      <g>
       <use style="stroke:#000000;stroke-width:0.48;" x="282.4" xlink:href="#m26dd0170c6" y="128.524665"/>
      </g>
     </g>
    </g>
    <g id="ytick_50">
     <g id="line2d_155">
      <g>
       <use style="stroke:#000000;stroke-width:0.48;" x="282.4" xlink:href="#m26dd0170c6" y="122.642997"/>
      </g>
     </g>
    </g>
    <g id="ytick_51">
     <g id="line2d_156">
      <g>
       <use style="stroke:#000000;stroke-width:0.48;" x="282.4" xlink:href="#m26dd0170c6" y="110.879662"/>
      </g>
     </g>
    </g>
    <g id="ytick_52">
     <g id="line2d_157">
      <g>
       <use style="stroke:#000000;stroke-width:0.48;" x="282.4" xlink:href="#m26dd0170c6" y="104.997994"/>
      </g>
     </g>
    </g>
    <g id="ytick_53">
     <g id="line2d_158">
      <g>
       <use style="stroke:#000000;stroke-width:0.48;" x="282.4" xlink:href="#m26dd0170c6" y="99.116326"/>
      </g>
     </g>
    </g>
    <g id="ytick_54">
     <g id="line2d_159">
      <g>
       <use style="stroke:#000000;stroke-width:0.48;" x="282.4" xlink:href="#m26dd0170c6" y="93.234659"/>
      </g>
     </g>
    </g>
    <g id="ytick_55">
     <g id="line2d_160">
      <g>
       <use style="stroke:#000000;stroke-width:0.48;" x="282.4" xlink:href="#m26dd0170c6" y="81.471323"/>
      </g>
     </g>
    </g>
    <g id="ytick_56">
     <g id="line2d_161">
      <g>
       <use style="stroke:#000000;stroke-width:0.48;" x="282.4" xlink:href="#m26dd0170c6" y="75.589655"/>
      </g>
     </g>
    </g>
    <g id="ytick_57">
     <g id="line2d_162">
      <g>
       <use style="stroke:#000000;stroke-width:0.48;" x="282.4" xlink:href="#m26dd0170c6" y="69.707987"/>
      </g>
     </g>
    </g>
    <g id="ytick_58">
     <g id="line2d_163">
      <g>
       <use style="stroke:#000000;stroke-width:0.48;" x="282.4" xlink:href="#m26dd0170c6" y="63.82632"/>
      </g>
     </g>
    </g>
    <g id="ytick_59">
     <g id="line2d_164">
      <g>
       <use style="stroke:#000000;stroke-width:0.48;" x="282.4" xlink:href="#m26dd0170c6" y="52.062984"/>
      </g>
     </g>
    </g>
    <g id="ytick_60">
     <g id="line2d_165">
      <g>
       <use style="stroke:#000000;stroke-width:0.48;" x="282.4" xlink:href="#m26dd0170c6" y="46.181316"/>
      </g>
     </g>
    </g>
    <g id="ytick_61">
     <g id="line2d_166">
      <g>
       <use style="stroke:#000000;stroke-width:0.48;" x="282.4" xlink:href="#m26dd0170c6" y="40.299648"/>
      </g>
     </g>
    </g>
    <g id="ytick_62">
     <g id="line2d_167">
      <g>
       <use style="stroke:#000000;stroke-width:0.48;" x="282.4" xlink:href="#m26dd0170c6" y="34.417981"/>
      </g>
     </g>
    </g>
    <g id="ytick_63">
     <g id="line2d_168">
      <g>
       <use style="stroke:#000000;stroke-width:0.48;" x="282.4" xlink:href="#m26dd0170c6" y="22.654645"/>
      </g>
     </g>
    </g>
   </g>
   <g id="line2d_169">
    <path clip-path="url(#pe5903e8d8e)" d="M 282.4 92.690548 
L 293.527273 79.260086 
L 304.654545 63.401208 
L 315.781818 64.690721 
L 326.909091 62.959698 
L 338.036364 53.700872 
L 349.163636 43.916667 
L 360.290909 51.838144 
L 371.418182 43.461534 
L 382.545455 41.798893 
L 393.672727 47.928724 
L 404.8 31.830319 
" style="fill:none;stroke:#5bbe94;stroke-linecap:square;stroke-width:5;"/>
   </g>
   <g id="line2d_170">
    <path clip-path="url(#pe5903e8d8e)" d="M 282.4 100.479532 
L 293.527273 112.686601 
L 304.654545 122.573196 
L 315.781818 114.027989 
L 326.909091 123.515106 
L 338.036364 129.582011 
L 349.163636 121.64528 
L 360.290909 133.049341 
L 371.418182 143.5 
L 382.545455 139.660301 
L 393.672727 125.43247 
L 404.8 138.488392 
" style="fill:none;stroke:#b6e3d1;stroke-linecap:square;stroke-width:5;"/>
   </g>
   <g id="line2d_171">
    <path clip-path="url(#pe5903e8d8e)" d="M 282.4 72.918617 
L 293.527273 72.822522 
L 304.654545 81.37095 
L 315.781818 78.234984 
L 326.909091 88.8986 
L 338.036364 82.023026 
L 349.163636 69.349427 
L 360.290909 77.550453 
L 371.418182 83.056288 
L 382.545455 90.343231 
L 393.672727 79.487993 
L 404.8 78.645034 
" style="fill:none;stroke:#91be64;stroke-linecap:square;stroke-width:5;"/>
   </g>
   <g id="line2d_172">
    <path clip-path="url(#pe5903e8d8e)" d="M 282.4 94.040947 
L 293.527273 105.919574 
L 304.654545 97.430653 
L 315.781818 109.711375 
L 326.909091 104.991471 
L 338.036364 102.494532 
L 349.163636 102.97856 
L 360.290909 88.405606 
L 371.418182 95.238837 
L 382.545455 91.410299 
L 393.672727 100.65597 
L 404.8 88.669431 
" style="fill:none;stroke:#cce5b5;stroke-linecap:square;stroke-width:5;"/>
   </g>
   <g id="line2d_173">
    <path clip-path="url(#pe5903e8d8e)" d="M 282.4 99.884151 
L 293.527273 101.473241 
L 304.654545 88.232531 
L 315.781818 101.181597 
L 326.909091 91.048008 
L 338.036364 97.57331 
L 349.163636 81.421147 
L 360.290909 75.996825 
L 371.418182 88.355786 
L 382.545455 97.198587 
L 393.672727 97.915813 
L 404.8 90.403583 
" style="fill:none;stroke:#e5cf6c;stroke-linecap:square;stroke-width:5;"/>
   </g>
   <g id="line2d_174">
    <path clip-path="url(#pe5903e8d8e)" d="M 282.4 78.821168 
L 293.527273 79.921923 
L 304.654545 65.449606 
L 315.781818 71.68101 
L 326.909091 58.875552 
L 338.036364 47.741706 
L 349.163636 37.434828 
L 360.290909 40.463362 
L 371.418182 26.151981 
L 382.545455 30.61413 
L 393.672727 34.950109 
L 404.8 38.692551 
" style="fill:none;stroke:#f9ebaa;stroke-linecap:square;stroke-width:5;"/>
   </g>
   <g id="line2d_175">
    <path clip-path="url(#pe5903e8d8e)" d="M 282.4 93.154202 
L 293.527273 100.577433 
L 304.654545 112.84583 
L 315.781818 108.348231 
L 326.909091 99.207838 
L 338.036364 96.481543 
L 349.163636 97.799836 
L 360.290909 86.460609 
L 371.418182 84.417517 
L 382.545455 91.865059 
L 393.672727 93.661688 
L 404.8 95.445009 
" style="fill:none;stroke:#e87b70;stroke-linecap:square;stroke-width:5;"/>
   </g>
   <g id="line2d_176">
    <path clip-path="url(#pe5903e8d8e)" d="M 282.4 73.741911 
L 293.527273 83.295362 
L 304.654545 68.936331 
L 315.781818 73.671027 
L 326.909091 72.758975 
L 338.036364 81.12334 
L 349.163636 75.763986 
L 360.290909 63.529739 
L 371.418182 66.228077 
L 382.545455 75.677398 
L 393.672727 74.357269 
L 404.8 62.659606 
" style="fill:none;stroke:#f2cec1;stroke-linecap:square;stroke-width:5;"/>
   </g>
   <g id="line2d_177">
    <path clip-path="url(#pe5903e8d8e)" d="M 282.4 94.69846 
L 293.527273 81.314116 
L 304.654545 65.983172 
L 315.781818 57.229029 
L 326.909091 58.550964 
L 338.036364 68.354971 
L 349.163636 66.865097 
L 360.290909 75.044741 
L 371.418182 79.047834 
L 382.545455 66.282588 
L 393.672727 58.643991 
L 404.8 52.030021 
" style="fill:none;stroke:#cc6686;stroke-linecap:square;stroke-width:5;"/>
   </g>
   <g id="line2d_178">
    <path clip-path="url(#pe5903e8d8e)" d="M 282.4 87.357159 
L 293.527273 75.252623 
L 304.654545 87.819414 
L 315.781818 99.247619 
L 326.909091 103.333234 
L 338.036364 112.174524 
L 349.163636 103.839481 
L 360.290909 88.106766 
L 371.418182 84.367287 
L 382.545455 81.476381 
L 393.672727 82.586233 
L 404.8 74.253819 
" style="fill:none;stroke:#e5b5c5;stroke-linecap:square;stroke-width:5;"/>
   </g>
   <g id="line2d_179">
    <path clip-path="url(#pe5903e8d8e)" d="M 282.4 95.985617 
L 293.527273 100.822793 
L 304.654545 92.976161 
L 315.781818 77.743335 
L 326.909091 63.865137 
L 338.036364 55.986798 
L 349.163636 61.185614 
L 360.290909 52.554842 
L 371.418182 39.845551 
L 382.545455 26.233704 
L 393.672727 36.831181 
L 404.8 21.1 
" style="fill:none;stroke:#5884b3;stroke-linecap:square;stroke-width:5;"/>
   </g>
   <g id="line2d_180">
    <path clip-path="url(#pe5903e8d8e)" d="M 282.4 77.918829 
L 293.527273 78.218683 
L 304.654545 75.158227 
L 315.781818 84.766657 
L 326.909091 96.248021 
L 338.036364 84.094181 
L 349.163636 75.184921 
L 360.290909 76.59747 
L 371.418182 76.096158 
L 382.545455 88.51771 
L 393.672727 101.166908 
L 404.8 94.806873 
" style="fill:none;stroke:#b6cee5;stroke-linecap:square;stroke-width:5;"/>
   </g>
   <g id="patch_13">
    <path d="M 282.4 143.5 
L 282.4 21.1 
" style="fill:none;stroke:#000000;stroke-linecap:square;stroke-linejoin:miter;stroke-width:0.6;"/>
   </g>
   <g id="patch_14">
    <path d="M 404.8 143.5 
L 404.8 21.1 
" style="fill:none;stroke:#000000;stroke-linecap:square;stroke-linejoin:miter;stroke-width:0.6;"/>
   </g>
   <g id="patch_15">
    <path d="M 282.4 143.5 
L 404.8 143.5 
" style="fill:none;stroke:#000000;stroke-linecap:square;stroke-linejoin:miter;stroke-width:0.6;"/>
   </g>
   <g id="patch_16">
    <path d="M 282.4 21.1 
L 404.8 21.1 
" style="fill:none;stroke:#000000;stroke-linecap:square;stroke-linejoin:miter;stroke-width:0.6;"/>
   </g>
  </g>
  <g id="text_1">
   <!-- Local and global color cycles -->
   <defs>
    <path d="M 6.90625 71.40625 
L 6.90625 0 
L 57.40625 0 
L 57.40625 13.203125 
L 22.59375 13.203125 
L 22.59375 71.40625 
z
" id="HelveticaNeue-Bold-76"/>
    <path d="M 18 25.796875 
Q 18 28.90625 18.59375 31.90625 
Q 19.203125 34.90625 20.640625 37.203125 
Q 22.09375 39.5 24.5 40.953125 
Q 26.90625 42.40625 30.5 42.40625 
Q 34.09375 42.40625 36.546875 40.953125 
Q 39 39.5 40.453125 37.203125 
Q 41.90625 34.90625 42.5 31.90625 
Q 43.09375 28.90625 43.09375 25.796875 
Q 43.09375 22.703125 42.5 19.75 
Q 41.90625 16.796875 40.453125 14.4375 
Q 39 12.09375 36.546875 10.6875 
Q 34.09375 9.296875 30.5 9.296875 
Q 26.90625 9.296875 24.5 10.6875 
Q 22.09375 12.09375 20.640625 14.4375 
Q 19.203125 16.796875 18.59375 19.75 
Q 18 22.703125 18 25.796875 
z
M 3.796875 25.796875 
Q 3.796875 19.59375 5.6875 14.59375 
Q 7.59375 9.59375 11.09375 6.046875 
Q 14.59375 2.5 19.5 0.59375 
Q 24.40625 -1.296875 30.5 -1.296875 
Q 36.59375 -1.296875 41.546875 0.59375 
Q 46.5 2.5 50 6.046875 
Q 53.5 9.59375 55.390625 14.59375 
Q 57.296875 19.59375 57.296875 25.796875 
Q 57.296875 32 55.390625 37.046875 
Q 53.5 42.09375 50 45.640625 
Q 46.5 49.203125 41.546875 51.140625 
Q 36.59375 53.09375 30.5 53.09375 
Q 24.40625 53.09375 19.5 51.140625 
Q 14.59375 49.203125 11.09375 45.640625 
Q 7.59375 42.09375 5.6875 37.046875 
Q 3.796875 32 3.796875 25.796875 
z
" id="HelveticaNeue-Bold-111"/>
    <path d="M 40.59375 33.5 
L 54.5 33.5 
Q 54.203125 38.5 52.09375 42.140625 
Q 50 45.796875 46.640625 48.25 
Q 43.296875 50.703125 39.046875 51.890625 
Q 34.796875 53.09375 30.203125 53.09375 
Q 23.90625 53.09375 19 51 
Q 14.09375 48.90625 10.6875 45.15625 
Q 7.296875 41.40625 5.546875 36.25 
Q 3.796875 31.09375 3.796875 25.09375 
Q 3.796875 19.296875 5.6875 14.4375 
Q 7.59375 9.59375 11 6.09375 
Q 14.40625 2.59375 19.25 0.640625 
Q 24.09375 -1.296875 29.90625 -1.296875 
Q 40.203125 -1.296875 46.796875 4.09375 
Q 53.40625 9.5 54.796875 19.796875 
L 41.09375 19.796875 
Q 40.40625 15 37.65625 12.140625 
Q 34.90625 9.296875 29.796875 9.296875 
Q 26.5 9.296875 24.203125 10.796875 
Q 21.90625 12.296875 20.546875 14.640625 
Q 19.203125 17 18.59375 19.890625 
Q 18 22.796875 18 25.59375 
Q 18 28.5 18.59375 31.453125 
Q 19.203125 34.40625 20.640625 36.84375 
Q 22.09375 39.296875 24.390625 40.84375 
Q 26.703125 42.40625 30.09375 42.40625 
Q 39.203125 42.40625 40.59375 33.5 
z
" id="HelveticaNeue-Bold-99"/>
    <path d="M 4.796875 35.796875 
Q 5.09375 40.796875 7.296875 44.09375 
Q 9.5 47.40625 12.890625 49.40625 
Q 16.296875 51.40625 20.546875 52.25 
Q 24.796875 53.09375 29.09375 53.09375 
Q 33 53.09375 37 52.546875 
Q 41 52 44.296875 50.390625 
Q 47.59375 48.796875 49.6875 45.9375 
Q 51.796875 43.09375 51.796875 38.40625 
L 51.796875 11.5 
Q 51.796875 8 52.1875 4.796875 
Q 52.59375 1.59375 53.59375 0 
L 39.203125 0 
Q 38.796875 1.203125 38.546875 2.453125 
Q 38.296875 3.703125 38.203125 5 
Q 34.796875 1.5 30.1875 0.09375 
Q 25.59375 -1.296875 20.796875 -1.296875 
Q 17.09375 -1.296875 13.890625 -0.390625 
Q 10.703125 0.5 8.296875 2.390625 
Q 5.90625 4.296875 4.546875 7.1875 
Q 3.203125 10.09375 3.203125 14.09375 
Q 3.203125 18.5 4.75 21.34375 
Q 6.296875 24.203125 8.75 25.890625 
Q 11.203125 27.59375 14.34375 28.4375 
Q 17.5 29.296875 20.703125 29.796875 
Q 23.90625 30.296875 27 30.59375 
Q 30.09375 30.90625 32.5 31.5 
Q 34.90625 32.09375 36.296875 33.25 
Q 37.703125 34.40625 37.59375 36.59375 
Q 37.59375 38.90625 36.84375 40.25 
Q 36.09375 41.59375 34.84375 42.34375 
Q 33.59375 43.09375 31.9375 43.34375 
Q 30.296875 43.59375 28.40625 43.59375 
Q 24.203125 43.59375 21.796875 41.796875 
Q 19.40625 40 19 35.796875 
z
M 37.59375 25.296875 
Q 36.703125 24.5 35.34375 24.046875 
Q 34 23.59375 32.453125 23.296875 
Q 30.90625 23 29.203125 22.796875 
Q 27.5 22.59375 25.796875 22.296875 
Q 24.203125 22 22.640625 21.5 
Q 21.09375 21 19.9375 20.140625 
Q 18.796875 19.296875 18.09375 18 
Q 17.40625 16.703125 17.40625 14.703125 
Q 17.40625 12.796875 18.09375 11.5 
Q 18.796875 10.203125 20 9.453125 
Q 21.203125 8.703125 22.796875 8.390625 
Q 24.40625 8.09375 26.09375 8.09375 
Q 30.296875 8.09375 32.59375 9.5 
Q 34.90625 10.90625 36 12.84375 
Q 37.09375 14.796875 37.34375 16.796875 
Q 37.59375 18.796875 37.59375 20 
z
" id="HelveticaNeue-Bold-97"/>
    <path d="M 5.796875 71.40625 
L 5.796875 0 
L 20 0 
L 20 71.40625 
z
" id="HelveticaNeue-Bold-108"/>
    <path id="HelveticaNeue-Bold-32"/>
    <path d="M 5.40625 51.703125 
L 5.40625 0 
L 19.59375 0 
L 19.59375 27.09375 
Q 19.59375 35 22.1875 38.453125 
Q 24.796875 41.90625 30.59375 41.90625 
Q 35.703125 41.90625 37.703125 38.75 
Q 39.703125 35.59375 39.703125 29.203125 
L 39.703125 0 
L 53.90625 0 
L 53.90625 31.796875 
Q 53.90625 36.59375 53.046875 40.546875 
Q 52.203125 44.5 50.09375 47.25 
Q 48 50 44.34375 51.546875 
Q 40.703125 53.09375 35 53.09375 
Q 30.5 53.09375 26.203125 51.046875 
Q 21.90625 49 19.203125 44.5 
L 18.90625 44.5 
L 18.90625 51.703125 
z
" id="HelveticaNeue-Bold-110"/>
    <path d="M 42.09375 26 
Q 42.09375 22.796875 41.5 19.796875 
Q 40.90625 16.796875 39.5 14.4375 
Q 38.09375 12.09375 35.75 10.6875 
Q 33.40625 9.296875 29.90625 9.296875 
Q 26.59375 9.296875 24.25 10.75 
Q 21.90625 12.203125 20.34375 14.546875 
Q 18.796875 16.90625 18.09375 19.90625 
Q 17.40625 22.90625 17.40625 25.90625 
Q 17.40625 29.09375 18.046875 32.046875 
Q 18.703125 35 20.140625 37.296875 
Q 21.59375 39.59375 24 41 
Q 26.40625 42.40625 29.90625 42.40625 
Q 33.40625 42.40625 35.703125 41 
Q 38 39.59375 39.453125 37.34375 
Q 40.90625 35.09375 41.5 32.140625 
Q 42.09375 29.203125 42.09375 26 
z
M 42.296875 6.59375 
L 42.296875 0 
L 55.796875 0 
L 55.796875 71.40625 
L 41.59375 71.40625 
L 41.59375 45.40625 
L 41.40625 45.40625 
Q 39 49.203125 34.84375 51.140625 
Q 30.703125 53.09375 26.09375 53.09375 
Q 20.40625 53.09375 16.09375 50.84375 
Q 11.796875 48.59375 8.9375 44.890625 
Q 6.09375 41.203125 4.640625 36.34375 
Q 3.203125 31.5 3.203125 26.296875 
Q 3.203125 20.90625 4.640625 15.90625 
Q 6.09375 10.90625 8.9375 7.046875 
Q 11.796875 3.203125 16.1875 0.953125 
Q 20.59375 -1.296875 26.40625 -1.296875 
Q 31.5 -1.296875 35.546875 0.546875 
Q 39.59375 2.40625 42.09375 6.59375 
z
" id="HelveticaNeue-Bold-100"/>
    <path d="M 29.5 12.203125 
Q 26.203125 12.203125 24 13.59375 
Q 21.796875 15 20.4375 17.203125 
Q 19.09375 19.40625 18.546875 22.15625 
Q 18 24.90625 18 27.703125 
Q 18 30.59375 18.640625 33.25 
Q 19.296875 35.90625 20.75 37.953125 
Q 22.203125 40 24.34375 41.203125 
Q 26.5 42.40625 29.5 42.40625 
Q 33 42.40625 35.296875 41.09375 
Q 37.59375 39.796875 39 37.59375 
Q 40.40625 35.40625 41 32.546875 
Q 41.59375 29.703125 41.59375 26.5 
Q 41.59375 23.703125 40.84375 21.140625 
Q 40.09375 18.59375 38.59375 16.59375 
Q 37.09375 14.59375 34.796875 13.390625 
Q 32.5 12.203125 29.5 12.203125 
z
M 55.09375 3.296875 
L 55.09375 51.703125 
L 41.59375 51.703125 
L 41.59375 44.796875 
L 41.40625 44.796875 
Q 38.796875 49.296875 34.9375 51.1875 
Q 31.09375 53.09375 26 53.09375 
Q 20.59375 53.09375 16.4375 51 
Q 12.296875 48.90625 9.5 45.34375 
Q 6.703125 41.796875 5.25 37.140625 
Q 3.796875 32.5 3.796875 27.5 
Q 3.796875 22.203125 5.046875 17.453125 
Q 6.296875 12.703125 9 9.140625 
Q 11.703125 5.59375 15.890625 3.546875 
Q 20.09375 1.5 25.90625 1.5 
Q 30.59375 1.5 34.84375 3.453125 
Q 39.09375 5.40625 41.40625 9.5 
L 41.59375 9.5 
L 41.59375 2.703125 
Q 41.703125 -2.796875 38.953125 -6.390625 
Q 36.203125 -10 30.203125 -10 
Q 26.40625 -10 23.5 -8.453125 
Q 20.59375 -6.90625 19.59375 -2.90625 
L 5.5 -2.90625 
Q 5.796875 -7.296875 7.9375 -10.4375 
Q 10.09375 -13.59375 13.34375 -15.59375 
Q 16.59375 -17.59375 20.546875 -18.546875 
Q 24.5 -19.5 28.296875 -19.5 
Q 37.203125 -19.5 42.5 -17.09375 
Q 47.796875 -14.703125 50.59375 -11.25 
Q 53.40625 -7.796875 54.25 -3.796875 
Q 55.09375 0.203125 55.09375 3.296875 
z
" id="HelveticaNeue-Bold-103"/>
    <path d="M 43.296875 25.796875 
Q 43.296875 22.59375 42.59375 19.59375 
Q 41.90625 16.59375 40.40625 14.296875 
Q 38.90625 12 36.65625 10.640625 
Q 34.40625 9.296875 31.203125 9.296875 
Q 28.09375 9.296875 25.796875 10.640625 
Q 23.5 12 22 14.296875 
Q 20.5 16.59375 19.796875 19.59375 
Q 19.09375 22.59375 19.09375 25.796875 
Q 19.09375 29.09375 19.796875 32.09375 
Q 20.5 35.09375 22 37.390625 
Q 23.5 39.703125 25.796875 41.046875 
Q 28.09375 42.40625 31.203125 42.40625 
Q 34.40625 42.40625 36.65625 41.046875 
Q 38.90625 39.703125 40.40625 37.390625 
Q 41.90625 35.09375 42.59375 32.09375 
Q 43.296875 29.09375 43.296875 25.796875 
z
M 5.40625 71.40625 
L 5.40625 0 
L 18.90625 0 
L 18.90625 6.59375 
L 19.09375 6.59375 
Q 21.40625 2.296875 25.90625 0.5 
Q 30.40625 -1.296875 36.09375 -1.296875 
Q 40 -1.296875 43.796875 0.296875 
Q 47.59375 1.90625 50.640625 5.203125 
Q 53.703125 8.5 55.59375 13.640625 
Q 57.5 18.796875 57.5 25.90625 
Q 57.5 33 55.59375 38.140625 
Q 53.703125 43.296875 50.640625 46.59375 
Q 47.59375 49.90625 43.796875 51.5 
Q 40 53.09375 36.09375 53.09375 
Q 31.296875 53.09375 26.84375 51.25 
Q 22.40625 49.40625 19.796875 45.40625 
L 19.59375 45.40625 
L 19.59375 71.40625 
z
" id="HelveticaNeue-Bold-98"/>
    <path d="M 5.40625 51.703125 
L 5.40625 0 
L 19.59375 0 
L 19.59375 23.296875 
Q 19.59375 26.796875 20.296875 29.796875 
Q 21 32.796875 22.640625 35.046875 
Q 24.296875 37.296875 27 38.59375 
Q 29.703125 39.90625 33.59375 39.90625 
Q 34.90625 39.90625 36.296875 39.75 
Q 37.703125 39.59375 38.703125 39.40625 
L 38.703125 52.59375 
Q 37 53.09375 35.59375 53.09375 
Q 32.90625 53.09375 30.40625 52.296875 
Q 27.90625 51.5 25.703125 50.046875 
Q 23.5 48.59375 21.796875 46.546875 
Q 20.09375 44.5 19.09375 42.09375 
L 18.90625 42.09375 
L 18.90625 51.703125 
z
" id="HelveticaNeue-Bold-114"/>
    <path d="M 30.90625 -6.40625 
L 52.5 51.703125 
L 37.796875 51.703125 
L 26.5 16.296875 
L 26.296875 16.296875 
L 14.59375 51.703125 
L -0.5 51.703125 
L 17.59375 3.203125 
Q 18.203125 1.703125 18.203125 0 
Q 18.203125 -2.296875 16.84375 -4.1875 
Q 15.5 -6.09375 12.703125 -6.40625 
Q 10.59375 -6.5 8.5 -6.296875 
Q 6.40625 -6.09375 4.40625 -5.90625 
L 4.40625 -17.59375 
Q 6.59375 -17.796875 8.75 -17.9375 
Q 10.90625 -18.09375 13.09375 -18.09375 
Q 20.40625 -18.09375 24.5 -15.390625 
Q 28.59375 -12.703125 30.90625 -6.40625 
z
" id="HelveticaNeue-Bold-121"/>
    <path d="M 40.203125 31.40625 
L 17.09375 31.40625 
Q 17.203125 32.90625 17.75 34.796875 
Q 18.296875 36.703125 19.640625 38.390625 
Q 21 40.09375 23.25 41.25 
Q 25.5 42.40625 28.90625 42.40625 
Q 34.09375 42.40625 36.640625 39.59375 
Q 39.203125 36.796875 40.203125 31.40625 
z
M 17.09375 22.40625 
L 54.40625 22.40625 
Q 54.796875 28.40625 53.390625 33.90625 
Q 52 39.40625 48.84375 43.703125 
Q 45.703125 48 40.796875 50.546875 
Q 35.90625 53.09375 29.296875 53.09375 
Q 23.40625 53.09375 18.546875 51 
Q 13.703125 48.90625 10.203125 45.25 
Q 6.703125 41.59375 4.796875 36.59375 
Q 2.90625 31.59375 2.90625 25.796875 
Q 2.90625 19.796875 4.75 14.796875 
Q 6.59375 9.796875 10 6.1875 
Q 13.40625 2.59375 18.296875 0.640625 
Q 23.203125 -1.296875 29.296875 -1.296875 
Q 38.09375 -1.296875 44.296875 2.703125 
Q 50.5 6.703125 53.5 16 
L 41 16 
Q 40.296875 13.59375 37.1875 11.4375 
Q 34.09375 9.296875 29.796875 9.296875 
Q 23.796875 9.296875 20.59375 12.390625 
Q 17.40625 15.5 17.09375 22.40625 
z
" id="HelveticaNeue-Bold-101"/>
    <path d="M 16.40625 16.796875 
L 2.90625 16.796875 
Q 3.09375 11.59375 5.25 8.140625 
Q 7.40625 4.703125 10.75 2.59375 
Q 14.09375 0.5 18.390625 -0.390625 
Q 22.703125 -1.296875 27.203125 -1.296875 
Q 31.59375 -1.296875 35.84375 -0.4375 
Q 40.09375 0.40625 43.390625 2.5 
Q 46.703125 4.59375 48.75 8.046875 
Q 50.796875 11.5 50.796875 16.59375 
Q 50.796875 20.203125 49.390625 22.640625 
Q 48 25.09375 45.703125 26.75 
Q 43.40625 28.40625 40.453125 29.40625 
Q 37.5 30.40625 34.40625 31.09375 
Q 31.40625 31.796875 28.5 32.390625 
Q 25.59375 33 23.34375 33.75 
Q 21.09375 34.5 19.6875 35.703125 
Q 18.296875 36.90625 18.296875 38.796875 
Q 18.296875 40.40625 19.09375 41.34375 
Q 19.90625 42.296875 21.046875 42.796875 
Q 22.203125 43.296875 23.59375 43.4375 
Q 25 43.59375 26.203125 43.59375 
Q 30 43.59375 32.796875 42.140625 
Q 35.59375 40.703125 35.90625 36.59375 
L 49.40625 36.59375 
Q 49 41.40625 46.953125 44.546875 
Q 44.90625 47.703125 41.796875 49.59375 
Q 38.703125 51.5 34.75 52.296875 
Q 30.796875 53.09375 26.59375 53.09375 
Q 22.40625 53.09375 18.40625 52.34375 
Q 14.40625 51.59375 11.203125 49.75 
Q 8 47.90625 6.046875 44.703125 
Q 4.09375 41.5 4.09375 36.5 
Q 4.09375 33.09375 5.5 30.75 
Q 6.90625 28.40625 9.203125 26.84375 
Q 11.5 25.296875 14.453125 24.34375 
Q 17.40625 23.40625 20.5 22.703125 
Q 28.09375 21.09375 32.34375 19.5 
Q 36.59375 17.90625 36.59375 14.703125 
Q 36.59375 12.796875 35.6875 11.546875 
Q 34.796875 10.296875 33.4375 9.546875 
Q 32.09375 8.796875 30.4375 8.4375 
Q 28.796875 8.09375 27.296875 8.09375 
Q 25.203125 8.09375 23.25 8.59375 
Q 21.296875 9.09375 19.796875 10.140625 
Q 18.296875 11.203125 17.34375 12.84375 
Q 16.40625 14.5 16.40625 16.796875 
z
" id="HelveticaNeue-Bold-115"/>
   </defs>
   <g transform="translate(145.041562 12.645)scale(0.09 -0.09)">
    <use xlink:href="#HelveticaNeue-Bold-76"/>
    <use x="59.299988" xlink:href="#HelveticaNeue-Bold-111"/>
    <use x="120.399979" xlink:href="#HelveticaNeue-Bold-99"/>
    <use x="177.799973" xlink:href="#HelveticaNeue-Bold-97"/>
    <use x="235.199966" xlink:href="#HelveticaNeue-Bold-108"/>
    <use x="260.999954" xlink:href="#HelveticaNeue-Bold-32"/>
    <use x="288.799942" xlink:href="#HelveticaNeue-Bold-97"/>
    <use x="346.199936" xlink:href="#HelveticaNeue-Bold-110"/>
    <use x="405.499924" xlink:href="#HelveticaNeue-Bold-100"/>
    <use x="466.599915" xlink:href="#HelveticaNeue-Bold-32"/>
    <use x="494.399902" xlink:href="#HelveticaNeue-Bold-103"/>
    <use x="555.499893" xlink:href="#HelveticaNeue-Bold-108"/>
    <use x="581.299881" xlink:href="#HelveticaNeue-Bold-111"/>
    <use x="642.399872" xlink:href="#HelveticaNeue-Bold-98"/>
    <use x="703.499863" xlink:href="#HelveticaNeue-Bold-97"/>
    <use x="760.899857" xlink:href="#HelveticaNeue-Bold-108"/>
    <use x="786.699844" xlink:href="#HelveticaNeue-Bold-32"/>
    <use x="814.499832" xlink:href="#HelveticaNeue-Bold-99"/>
    <use x="871.899826" xlink:href="#HelveticaNeue-Bold-111"/>
    <use x="932.999817" xlink:href="#HelveticaNeue-Bold-108"/>
    <use x="958.799805" xlink:href="#HelveticaNeue-Bold-111"/>
    <use x="1019.899796" xlink:href="#HelveticaNeue-Bold-114"/>
    <use x="1058.799789" xlink:href="#HelveticaNeue-Bold-32"/>
    <use x="1086.599777" xlink:href="#HelveticaNeue-Bold-99"/>
    <use x="1143.999771" xlink:href="#HelveticaNeue-Bold-121"/>
    <use x="1195.899765" xlink:href="#HelveticaNeue-Bold-99"/>
    <use x="1253.299759" xlink:href="#HelveticaNeue-Bold-108"/>
    <use x="1279.099747" xlink:href="#HelveticaNeue-Bold-101"/>
    <use x="1336.499741" xlink:href="#HelveticaNeue-Bold-115"/>
   </g>
  </g>
 </g>
 <defs>
  <clipPath id="p0891ca331a">
   <rect height="122.4" width="122.4" x="10.4" y="21.1"/>
  </clipPath>
  <clipPath id="pafa2bcecbe">
   <rect height="122.4" width="122.4" x="146.4" y="21.1"/>
  </clipPath>
  <clipPath id="pe5903e8d8e">
   <rect height="122.4" width="122.4" x="282.4" y="21.1"/>
  </clipPath>
 </defs>
</svg>
