<?xml version="1.0" encoding="utf-8" standalone="no"?>
<!DOCTYPE svg PUBLIC "-//W3C//DTD SVG 1.1//EN"
  "http://www.w3.org/Graphics/SVG/1.1/DTD/svg11.dtd">
<!-- Created with matplotlib (https://matplotlib.org/) -->
<svg height="301.5pt" version="1.1" viewBox="0 0 255.3 301.5" width="255.3pt" xmlns="http://www.w3.org/2000/svg" xmlns:xlink="http://www.w3.org/1999/xlink">
 <defs>
  <style type="text/css">
*{stroke-linecap:butt;stroke-linejoin:round;}
  </style>
 </defs>
 <g id="figure_1">
  <g id="patch_1">
   <path d="M 0 301.5 
L 255.3 301.5 
L 255.3 0 
L 0 0 
z
" style="fill:#f2f2f2;"/>
  </g>
  <g id="axes_1">
   <g id="patch_2">
    <path d="M 28.9 129.1 
L 244.9 129.1 
L 244.9 21.1 
L 28.9 21.1 
z
" style="fill:#ffffff;"/>
   </g>
   <g id="patch_3">
    <path clip-path="url(#p8347b52250)" d="M 28.9 129.1 
L 36.1 129.1 
L 36.1 107.755229 
L 28.9 107.755229 
z
" style="fill:#fff5f0;stroke:#000000;stroke-linejoin:miter;stroke-width:0.7;"/>
   </g>
   <g id="patch_4">
    <path clip-path="url(#p8347b52250)" d="M 73.9 129.1 
L 81.1 129.1 
L 81.1 91.319822 
L 73.9 91.319822 
z
" style="fill:#fff5f0;stroke:#000000;stroke-linejoin:miter;stroke-width:0.7;"/>
   </g>
   <g id="patch_5">
    <path clip-path="url(#p8347b52250)" d="M 118.9 129.1 
L 126.1 129.1 
L 126.1 75.121494 
L 118.9 75.121494 
z
" style="fill:#fff5f0;stroke:#000000;stroke-linejoin:miter;stroke-width:0.7;"/>
   </g>
   <g id="patch_6">
    <path clip-path="url(#p8347b52250)" d="M 163.9 129.1 
L 171.1 129.1 
L 171.1 45.230343 
L 163.9 45.230343 
z
" style="fill:#fff5f0;stroke:#000000;stroke-linejoin:miter;stroke-width:0.7;"/>
   </g>
   <g id="patch_7">
    <path clip-path="url(#p8347b52250)" d="M 208.9 129.1 
L 216.1 129.1 
L 216.1 21.1 
L 208.9 21.1 
z
" style="fill:#fff5f0;stroke:#000000;stroke-linejoin:miter;stroke-width:0.7;"/>
   </g>
   <g id="patch_8">
    <path clip-path="url(#p8347b52250)" d="M 36.1 129.1 
L 43.3 129.1 
L 43.3 111.30165 
L 36.1 111.30165 
z
" style="fill:#fcbba1;stroke:#000000;stroke-linejoin:miter;stroke-width:0.7;"/>
   </g>
   <g id="patch_9">
    <path clip-path="url(#p8347b52250)" d="M 81.1 129.1 
L 88.3 129.1 
L 88.3 100.194399 
L 81.1 100.194399 
z
" style="fill:#fcbba1;stroke:#000000;stroke-linejoin:miter;stroke-width:0.7;"/>
   </g>
   <g id="patch_10">
    <path clip-path="url(#p8347b52250)" d="M 126.1 129.1 
L 133.3 129.1 
L 133.3 88.343029 
L 126.1 88.343029 
z
" style="fill:#fcbba1;stroke:#000000;stroke-linejoin:miter;stroke-width:0.7;"/>
   </g>
   <g id="patch_11">
    <path clip-path="url(#p8347b52250)" d="M 171.1 129.1 
L 178.3 129.1 
L 178.3 65.702327 
L 171.1 65.702327 
z
" style="fill:#fcbba1;stroke:#000000;stroke-linejoin:miter;stroke-width:0.7;"/>
   </g>
   <g id="patch_12">
    <path clip-path="url(#p8347b52250)" d="M 216.1 129.1 
L 223.3 129.1 
L 223.3 44.07431 
L 216.1 44.07431 
z
" style="fill:#fcbba1;stroke:#000000;stroke-linejoin:miter;stroke-width:0.7;"/>
   </g>
   <g id="patch_13">
    <path clip-path="url(#p8347b52250)" d="M 43.3 129.1 
L 50.5 129.1 
L 50.5 112.900798 
L 43.3 112.900798 
z
" style="fill:#fb694a;stroke:#000000;stroke-linejoin:miter;stroke-width:0.7;"/>
   </g>
   <g id="patch_14">
    <path clip-path="url(#p8347b52250)" d="M 88.3 129.1 
L 95.5 129.1 
L 95.5 109.117128 
L 88.3 109.117128 
z
" style="fill:#fb694a;stroke:#000000;stroke-linejoin:miter;stroke-width:0.7;"/>
   </g>
   <g id="patch_15">
    <path clip-path="url(#p8347b52250)" d="M 133.3 129.1 
L 140.5 129.1 
L 140.5 100.692245 
L 133.3 100.692245 
z
" style="fill:#fb694a;stroke:#000000;stroke-linejoin:miter;stroke-width:0.7;"/>
   </g>
   <g id="patch_16">
    <path clip-path="url(#p8347b52250)" d="M 178.3 129.1 
L 185.5 129.1 
L 185.5 83.357551 
L 178.3 83.357551 
z
" style="fill:#fb694a;stroke:#000000;stroke-linejoin:miter;stroke-width:0.7;"/>
   </g>
   <g id="patch_17">
    <path clip-path="url(#p8347b52250)" d="M 223.3 129.1 
L 230.5 129.1 
L 230.5 68.876968 
L 223.3 68.876968 
z
" style="fill:#fb694a;stroke:#000000;stroke-linejoin:miter;stroke-width:0.7;"/>
   </g>
   <g id="patch_18">
    <path clip-path="url(#p8347b52250)" d="M 50.5 129.1 
L 57.7 129.1 
L 57.7 118.715532 
L 50.5 118.715532 
z
" style="fill:#ca181d;stroke:#000000;stroke-linejoin:miter;stroke-width:0.7;"/>
   </g>
   <g id="patch_19">
    <path clip-path="url(#p8347b52250)" d="M 95.5 129.1 
L 102.7 129.1 
L 102.7 117.088008 
L 95.5 117.088008 
z
" style="fill:#ca181d;stroke:#000000;stroke-linejoin:miter;stroke-width:0.7;"/>
   </g>
   <g id="patch_20">
    <path clip-path="url(#p8347b52250)" d="M 140.5 129.1 
L 147.7 129.1 
L 147.7 113.020538 
L 140.5 113.020538 
z
" style="fill:#ca181d;stroke:#000000;stroke-linejoin:miter;stroke-width:0.7;"/>
   </g>
   <g id="patch_21">
    <path clip-path="url(#p8347b52250)" d="M 185.5 129.1 
L 192.7 129.1 
L 192.7 101.827699 
L 185.5 101.827699 
z
" style="fill:#ca181d;stroke:#000000;stroke-linejoin:miter;stroke-width:0.7;"/>
   </g>
   <g id="patch_22">
    <path clip-path="url(#p8347b52250)" d="M 230.5 129.1 
L 237.7 129.1 
L 237.7 94.029307 
L 230.5 94.029307 
z
" style="fill:#ca181d;stroke:#000000;stroke-linejoin:miter;stroke-width:0.7;"/>
   </g>
   <g id="patch_23">
    <path clip-path="url(#p8347b52250)" d="M 57.7 129.1 
L 64.9 129.1 
L 64.9 122.164119 
L 57.7 122.164119 
z
" style="fill:#67000d;stroke:#000000;stroke-linejoin:miter;stroke-width:0.7;"/>
   </g>
   <g id="patch_24">
    <path clip-path="url(#p8347b52250)" d="M 102.7 129.1 
L 109.9 129.1 
L 109.9 120.728574 
L 102.7 120.728574 
z
" style="fill:#67000d;stroke:#000000;stroke-linejoin:miter;stroke-width:0.7;"/>
   </g>
   <g id="patch_25">
    <path clip-path="url(#p8347b52250)" d="M 147.7 129.1 
L 154.9 129.1 
L 154.9 120.448089 
L 147.7 120.448089 
z
" style="fill:#67000d;stroke:#000000;stroke-linejoin:miter;stroke-width:0.7;"/>
   </g>
   <g id="patch_26">
    <path clip-path="url(#p8347b52250)" d="M 192.7 129.1 
L 199.9 129.1 
L 199.9 115.733351 
L 192.7 115.733351 
z
" style="fill:#67000d;stroke:#000000;stroke-linejoin:miter;stroke-width:0.7;"/>
   </g>
   <g id="patch_27">
    <path clip-path="url(#p8347b52250)" d="M 237.7 129.1 
L 244.9 129.1 
L 244.9 110.770619 
L 237.7 110.770619 
z
" style="fill:#67000d;stroke:#000000;stroke-linejoin:miter;stroke-width:0.7;"/>
   </g>
   <g id="matplotlib.axis_1">
    <g id="xtick_1">
     <g id="line2d_1">
      <path clip-path="url(#p8347b52250)" d="M 46.9 129.1 
L 46.9 21.1 
" style="fill:none;stroke:#000000;stroke-linecap:square;stroke-opacity:0.1;stroke-width:0.6;"/>
     </g>
     <g id="line2d_2">
      <defs>
       <path d="M 0 0 
L 0 4 
" id="mc1a9974ba3" style="stroke:#000000;stroke-width:0.6;"/>
      </defs>
      <g>
       <use style="stroke:#000000;stroke-width:0.6;" x="46.9" xlink:href="#mc1a9974ba3" y="129.1"/>
      </g>
     </g>
     <g id="text_1">
      <!-- a -->
      <defs>
       <path d="M 52.203125 0.203125 
Q 50 -1.09375 46.09375 -1.09375 
Q 42.796875 -1.09375 40.84375 0.75 
Q 38.90625 2.59375 38.90625 6.796875 
Q 35.40625 2.59375 30.75 0.75 
Q 26.09375 -1.09375 20.703125 -1.09375 
Q 17.203125 -1.09375 14.046875 -0.296875 
Q 10.90625 0.5 8.59375 2.203125 
Q 6.296875 3.90625 4.9375 6.65625 
Q 3.59375 9.40625 3.59375 13.296875 
Q 3.59375 17.703125 5.09375 20.5 
Q 6.59375 23.296875 9.046875 25.046875 
Q 11.5 26.796875 14.640625 27.6875 
Q 17.796875 28.59375 21.09375 29.203125 
Q 24.59375 29.90625 27.75 30.25 
Q 30.90625 30.59375 33.296875 31.25 
Q 35.703125 31.90625 37.09375 33.15625 
Q 38.5 34.40625 38.5 36.796875 
Q 38.5 39.59375 37.453125 41.296875 
Q 36.40625 43 34.75 43.890625 
Q 33.09375 44.796875 31.046875 45.09375 
Q 29 45.40625 27 45.40625 
Q 21.59375 45.40625 18 43.34375 
Q 14.40625 41.296875 14.09375 35.59375 
L 5.59375 35.59375 
Q 5.796875 40.40625 7.59375 43.703125 
Q 9.40625 47 12.40625 49.046875 
Q 15.40625 51.09375 19.25 52 
Q 23.09375 52.90625 27.5 52.90625 
Q 31 52.90625 34.453125 52.40625 
Q 37.90625 51.90625 40.703125 50.34375 
Q 43.5 48.796875 45.203125 46 
Q 46.90625 43.203125 46.90625 38.703125 
L 46.90625 12.09375 
Q 46.90625 9.09375 47.25 7.6875 
Q 47.59375 6.296875 49.59375 6.296875 
Q 50.703125 6.296875 52.203125 6.796875 
z
M 38.40625 26.703125 
Q 36.796875 25.5 34.1875 24.953125 
Q 31.59375 24.40625 28.75 24.046875 
Q 25.90625 23.703125 23 23.25 
Q 20.09375 22.796875 17.796875 21.796875 
Q 15.5 20.796875 14.046875 18.9375 
Q 12.59375 17.09375 12.59375 13.90625 
Q 12.59375 11.796875 13.4375 10.34375 
Q 14.296875 8.90625 15.640625 8 
Q 17 7.09375 18.796875 6.6875 
Q 20.59375 6.296875 22.59375 6.296875 
Q 26.796875 6.296875 29.796875 7.4375 
Q 32.796875 8.59375 34.6875 10.34375 
Q 36.59375 12.09375 37.5 14.140625 
Q 38.40625 16.203125 38.40625 18 
z
" id="HelveticaNeue-97"/>
      </defs>
      <g transform="translate(44.751875 140.8125)scale(0.08 -0.08)">
       <use xlink:href="#HelveticaNeue-97"/>
      </g>
     </g>
    </g>
    <g id="xtick_2">
     <g id="line2d_3">
      <path clip-path="url(#p8347b52250)" d="M 91.9 129.1 
L 91.9 21.1 
" style="fill:none;stroke:#000000;stroke-linecap:square;stroke-opacity:0.1;stroke-width:0.6;"/>
     </g>
     <g id="line2d_4">
      <g>
       <use style="stroke:#000000;stroke-width:0.6;" x="91.9" xlink:href="#mc1a9974ba3" y="129.1"/>
      </g>
     </g>
     <g id="text_2">
      <!-- b -->
      <defs>
       <path d="M 6.703125 71.40625 
L 6.703125 0 
L 15.203125 0 
L 15.203125 6.90625 
L 15.40625 6.90625 
Q 16.796875 4.59375 18.84375 3.046875 
Q 20.90625 1.5 23.203125 0.59375 
Q 25.5 -0.296875 27.84375 -0.6875 
Q 30.203125 -1.09375 32.09375 -1.09375 
Q 38 -1.09375 42.453125 1 
Q 46.90625 3.09375 49.84375 6.75 
Q 52.796875 10.40625 54.25 15.296875 
Q 55.703125 20.203125 55.703125 25.703125 
Q 55.703125 31.203125 54.203125 36.09375 
Q 52.703125 41 49.75 44.75 
Q 46.796875 48.5 42.34375 50.703125 
Q 37.90625 52.90625 31.90625 52.90625 
Q 26.5 52.90625 22 50.953125 
Q 17.5 49 15.40625 44.703125 
L 15.203125 44.703125 
L 15.203125 71.40625 
z
M 46.703125 26.296875 
Q 46.703125 22.5 45.890625 18.890625 
Q 45.09375 15.296875 43.296875 12.5 
Q 41.5 9.703125 38.546875 8 
Q 35.59375 6.296875 31.203125 6.296875 
Q 26.796875 6.296875 23.6875 7.9375 
Q 20.59375 9.59375 18.640625 12.296875 
Q 16.703125 15 15.796875 18.546875 
Q 14.90625 22.09375 14.90625 25.90625 
Q 14.90625 29.5 15.75 33 
Q 16.59375 36.5 18.5 39.25 
Q 20.40625 42 23.40625 43.703125 
Q 26.40625 45.40625 30.703125 45.40625 
Q 34.796875 45.40625 37.84375 43.796875 
Q 40.90625 42.203125 42.84375 39.5 
Q 44.796875 36.796875 45.75 33.34375 
Q 46.703125 29.90625 46.703125 26.296875 
z
" id="HelveticaNeue-98"/>
      </defs>
      <g transform="translate(89.528125 140.8125)scale(0.08 -0.08)">
       <use xlink:href="#HelveticaNeue-98"/>
      </g>
     </g>
    </g>
    <g id="xtick_3">
     <g id="line2d_5">
      <path clip-path="url(#p8347b52250)" d="M 136.9 129.1 
L 136.9 21.1 
" style="fill:none;stroke:#000000;stroke-linecap:square;stroke-opacity:0.1;stroke-width:0.6;"/>
     </g>
     <g id="line2d_6">
      <g>
       <use style="stroke:#000000;stroke-width:0.6;" x="136.9" xlink:href="#mc1a9974ba3" y="129.1"/>
      </g>
     </g>
     <g id="text_3">
      <!-- c -->
      <defs>
       <path d="M 41.5 35.09375 
L 50.296875 35.09375 
Q 49.796875 39.703125 47.890625 43.046875 
Q 46 46.40625 43.046875 48.59375 
Q 40.09375 50.796875 36.25 51.84375 
Q 32.40625 52.90625 28 52.90625 
Q 21.90625 52.90625 17.296875 50.75 
Q 12.703125 48.59375 9.640625 44.84375 
Q 6.59375 41.09375 5.09375 36.046875 
Q 3.59375 31 3.59375 25.203125 
Q 3.59375 19.40625 5.140625 14.546875 
Q 6.703125 9.703125 9.75 6.203125 
Q 12.796875 2.703125 17.34375 0.796875 
Q 21.90625 -1.09375 27.796875 -1.09375 
Q 37.703125 -1.09375 43.453125 4.09375 
Q 49.203125 9.296875 50.59375 18.90625 
L 41.90625 18.90625 
Q 41.09375 12.90625 37.546875 9.59375 
Q 34 6.296875 27.703125 6.296875 
Q 23.703125 6.296875 20.796875 7.890625 
Q 17.90625 9.5 16.09375 12.140625 
Q 14.296875 14.796875 13.4375 18.1875 
Q 12.59375 21.59375 12.59375 25.203125 
Q 12.59375 29.09375 13.390625 32.75 
Q 14.203125 36.40625 16.046875 39.203125 
Q 17.90625 42 21 43.703125 
Q 24.09375 45.40625 28.703125 45.40625 
Q 34.09375 45.40625 37.296875 42.703125 
Q 40.5 40 41.5 35.09375 
z
" id="HelveticaNeue-99"/>
      </defs>
      <g transform="translate(134.751875 140.8125)scale(0.08 -0.08)">
       <use xlink:href="#HelveticaNeue-99"/>
      </g>
     </g>
    </g>
    <g id="xtick_4">
     <g id="line2d_7">
      <path clip-path="url(#p8347b52250)" d="M 181.9 129.1 
L 181.9 21.1 
" style="fill:none;stroke:#000000;stroke-linecap:square;stroke-opacity:0.1;stroke-width:0.6;"/>
     </g>
     <g id="line2d_8">
      <g>
       <use style="stroke:#000000;stroke-width:0.6;" x="181.9" xlink:href="#mc1a9974ba3" y="129.1"/>
      </g>
     </g>
     <g id="text_4">
      <!-- d -->
      <defs>
       <path d="M 12.59375 25.40625 
Q 12.59375 29.203125 13.390625 32.796875 
Q 14.203125 36.40625 16 39.203125 
Q 17.796875 42 20.796875 43.703125 
Q 23.796875 45.40625 28.09375 45.40625 
Q 32.5 45.40625 35.59375 43.75 
Q 38.703125 42.09375 40.640625 39.390625 
Q 42.59375 36.703125 43.5 33.140625 
Q 44.40625 29.59375 44.40625 25.796875 
Q 44.40625 22.203125 43.546875 18.703125 
Q 42.703125 15.203125 40.796875 12.453125 
Q 38.90625 9.703125 35.90625 8 
Q 32.90625 6.296875 28.59375 6.296875 
Q 24.5 6.296875 21.453125 7.890625 
Q 18.40625 9.5 16.453125 12.203125 
Q 14.5 14.90625 13.546875 18.34375 
Q 12.59375 21.796875 12.59375 25.40625 
z
M 52.59375 0 
L 52.59375 71.40625 
L 44.09375 71.40625 
L 44.09375 44.796875 
L 43.90625 44.796875 
Q 42.5 47.09375 40.453125 48.640625 
Q 38.40625 50.203125 36.09375 51.140625 
Q 33.796875 52.09375 31.5 52.5 
Q 29.203125 52.90625 27.203125 52.90625 
Q 21.296875 52.90625 16.84375 50.75 
Q 12.40625 48.59375 9.453125 44.9375 
Q 6.5 41.296875 5.046875 36.390625 
Q 3.59375 31.5 3.59375 26 
Q 3.59375 20.5 5.09375 15.59375 
Q 6.59375 10.703125 9.546875 7 
Q 12.5 3.296875 16.953125 1.09375 
Q 21.40625 -1.09375 27.40625 -1.09375 
Q 32.796875 -1.09375 37.296875 0.796875 
Q 41.796875 2.703125 43.90625 7 
L 44.09375 7 
L 44.09375 0 
z
" id="HelveticaNeue-100"/>
      </defs>
      <g transform="translate(179.528125 140.8125)scale(0.08 -0.08)">
       <use xlink:href="#HelveticaNeue-100"/>
      </g>
     </g>
    </g>
    <g id="xtick_5">
     <g id="line2d_9">
      <path clip-path="url(#p8347b52250)" d="M 226.9 129.1 
L 226.9 21.1 
" style="fill:none;stroke:#000000;stroke-linecap:square;stroke-opacity:0.1;stroke-width:0.6;"/>
     </g>
     <g id="line2d_10">
      <g>
       <use style="stroke:#000000;stroke-width:0.6;" x="226.9" xlink:href="#mc1a9974ba3" y="129.1"/>
      </g>
     </g>
     <g id="text_5">
      <!-- e -->
      <defs>
       <path d="M 42.296875 30.796875 
L 12.59375 30.796875 
Q 12.796875 33.796875 13.890625 36.4375 
Q 15 39.09375 16.890625 41.09375 
Q 18.796875 43.09375 21.4375 44.25 
Q 24.09375 45.40625 27.40625 45.40625 
Q 30.59375 45.40625 33.25 44.25 
Q 35.90625 43.09375 37.84375 41.140625 
Q 39.796875 39.203125 40.9375 36.5 
Q 42.09375 33.796875 42.296875 30.796875 
z
M 50.5 16.40625 
L 42.09375 16.40625 
Q 41 11.296875 37.546875 8.796875 
Q 34.09375 6.296875 28.703125 6.296875 
Q 24.5 6.296875 21.390625 7.6875 
Q 18.296875 9.09375 16.296875 11.4375 
Q 14.296875 13.796875 13.390625 16.84375 
Q 12.5 19.90625 12.59375 23.296875 
L 51.296875 23.296875 
Q 51.5 28 50.453125 33.203125 
Q 49.40625 38.40625 46.65625 42.796875 
Q 43.90625 47.203125 39.34375 50.046875 
Q 34.796875 52.90625 27.90625 52.90625 
Q 22.59375 52.90625 18.140625 50.90625 
Q 13.703125 48.90625 10.453125 45.296875 
Q 7.203125 41.703125 5.390625 36.796875 
Q 3.59375 31.90625 3.59375 26 
Q 3.796875 20.09375 5.34375 15.09375 
Q 6.90625 10.09375 10 6.5 
Q 13.09375 2.90625 17.640625 0.90625 
Q 22.203125 -1.09375 28.40625 -1.09375 
Q 37.203125 -1.09375 43 3.296875 
Q 48.796875 7.703125 50.5 16.40625 
z
" id="HelveticaNeue-101"/>
      </defs>
      <g transform="translate(224.751875 140.8125)scale(0.08 -0.08)">
       <use xlink:href="#HelveticaNeue-101"/>
      </g>
     </g>
    </g>
    <g id="xtick_6">
     <g id="line2d_11">
      <defs>
       <path d="M 0 0 
L 0 2 
" id="m0f960ea21d" style="stroke:#000000;stroke-width:0.48;"/>
      </defs>
      <g>
       <use style="stroke:#000000;stroke-width:0.48;" x="46.9" xlink:href="#m0f960ea21d" y="129.1"/>
      </g>
     </g>
    </g>
    <g id="xtick_7">
     <g id="line2d_12">
      <g>
       <use style="stroke:#000000;stroke-width:0.48;" x="69.4" xlink:href="#m0f960ea21d" y="129.1"/>
      </g>
     </g>
    </g>
    <g id="xtick_8">
     <g id="line2d_13">
      <g>
       <use style="stroke:#000000;stroke-width:0.48;" x="91.9" xlink:href="#m0f960ea21d" y="129.1"/>
      </g>
     </g>
    </g>
    <g id="xtick_9">
     <g id="line2d_14">
      <g>
       <use style="stroke:#000000;stroke-width:0.48;" x="114.4" xlink:href="#m0f960ea21d" y="129.1"/>
      </g>
     </g>
    </g>
    <g id="xtick_10">
     <g id="line2d_15">
      <g>
       <use style="stroke:#000000;stroke-width:0.48;" x="136.9" xlink:href="#m0f960ea21d" y="129.1"/>
      </g>
     </g>
    </g>
    <g id="xtick_11">
     <g id="line2d_16">
      <g>
       <use style="stroke:#000000;stroke-width:0.48;" x="159.4" xlink:href="#m0f960ea21d" y="129.1"/>
      </g>
     </g>
    </g>
    <g id="xtick_12">
     <g id="line2d_17">
      <g>
       <use style="stroke:#000000;stroke-width:0.48;" x="181.9" xlink:href="#m0f960ea21d" y="129.1"/>
      </g>
     </g>
    </g>
    <g id="xtick_13">
     <g id="line2d_18">
      <g>
       <use style="stroke:#000000;stroke-width:0.48;" x="204.4" xlink:href="#m0f960ea21d" y="129.1"/>
      </g>
     </g>
    </g>
    <g id="xtick_14">
     <g id="line2d_19">
      <g>
       <use style="stroke:#000000;stroke-width:0.48;" x="226.9" xlink:href="#m0f960ea21d" y="129.1"/>
      </g>
     </g>
    </g>
    <g id="text_6">
     <!-- name -->
     <defs>
      <path d="M 6.40625 51.703125 
L 6.40625 0 
L 14.90625 0 
L 14.90625 29.203125 
Q 14.90625 32.703125 15.84375 35.640625 
Q 16.796875 38.59375 18.6875 40.796875 
Q 20.59375 43 23.4375 44.203125 
Q 26.296875 45.40625 30.203125 45.40625 
Q 35.09375 45.40625 37.890625 42.59375 
Q 40.703125 39.796875 40.703125 35 
L 40.703125 0 
L 49.203125 0 
L 49.203125 34 
Q 49.203125 38.203125 48.34375 41.640625 
Q 47.5 45.09375 45.390625 47.59375 
Q 43.296875 50.09375 39.890625 51.5 
Q 36.5 52.90625 31.40625 52.90625 
Q 19.90625 52.90625 14.59375 43.5 
L 14.40625 43.5 
L 14.40625 51.703125 
z
" id="HelveticaNeue-110"/>
      <path d="M 6.40625 51.703125 
L 6.40625 0 
L 14.90625 0 
L 14.90625 32.203125 
Q 14.90625 33.703125 15.65625 35.953125 
Q 16.40625 38.203125 18.046875 40.296875 
Q 19.703125 42.40625 22.34375 43.90625 
Q 25 45.40625 28.703125 45.40625 
Q 31.59375 45.40625 33.4375 44.546875 
Q 35.296875 43.703125 36.390625 42.140625 
Q 37.5 40.59375 37.953125 38.5 
Q 38.40625 36.40625 38.40625 33.90625 
L 38.40625 0 
L 46.90625 0 
L 46.90625 32.203125 
Q 46.90625 38.203125 50.5 41.796875 
Q 54.09375 45.40625 60.40625 45.40625 
Q 63.5 45.40625 65.453125 44.5 
Q 67.40625 43.59375 68.5 42.046875 
Q 69.59375 40.5 70 38.390625 
Q 70.40625 36.296875 70.40625 33.90625 
L 70.40625 0 
L 78.90625 0 
L 78.90625 37.90625 
Q 78.90625 41.90625 77.65625 44.75 
Q 76.40625 47.59375 74.15625 49.390625 
Q 71.90625 51.203125 68.75 52.046875 
Q 65.59375 52.90625 61.703125 52.90625 
Q 56.59375 52.90625 52.34375 50.59375 
Q 48.09375 48.296875 45.5 44.09375 
Q 43.90625 48.90625 40 50.90625 
Q 36.09375 52.90625 31.296875 52.90625 
Q 20.40625 52.90625 14.59375 44.09375 
L 14.40625 44.09375 
L 14.40625 51.703125 
z
" id="HelveticaNeue-109"/>
     </defs>
     <g transform="translate(126.968125 151.10125)scale(0.08 -0.08)">
      <use xlink:href="#HelveticaNeue-110"/>
      <use x="55.599991" xlink:href="#HelveticaNeue-97"/>
      <use x="109.299988" xlink:href="#HelveticaNeue-109"/>
      <use x="194.599976" xlink:href="#HelveticaNeue-101"/>
     </g>
    </g>
   </g>
   <g id="matplotlib.axis_2">
    <g id="ytick_1">
     <g id="line2d_20">
      <path clip-path="url(#p8347b52250)" d="M 28.9 129.1 
L 244.9 129.1 
" style="fill:none;stroke:#000000;stroke-linecap:square;stroke-opacity:0.1;stroke-width:0.6;"/>
     </g>
     <g id="line2d_21">
      <defs>
       <path d="M 0 0 
L -4 0 
" id="m2a50dd36d1" style="stroke:#000000;stroke-width:0.6;"/>
      </defs>
      <g>
       <use style="stroke:#000000;stroke-width:0.6;" x="28.9" xlink:href="#m2a50dd36d1" y="129.1"/>
      </g>
     </g>
     <g id="text_7">
      <!-- 0 -->
      <defs>
       <path d="M 13.203125 34.90625 
Q 13.203125 37.5 13.25 40.640625 
Q 13.296875 43.796875 13.75 46.9375 
Q 14.203125 50.09375 15.046875 53.09375 
Q 15.90625 56.09375 17.546875 58.34375 
Q 19.203125 60.59375 21.703125 62 
Q 24.203125 63.40625 27.796875 63.40625 
Q 31.40625 63.40625 33.90625 62 
Q 36.40625 60.59375 38.046875 58.34375 
Q 39.703125 56.09375 40.546875 53.09375 
Q 41.40625 50.09375 41.84375 46.9375 
Q 42.296875 43.796875 42.34375 40.640625 
Q 42.40625 37.5 42.40625 34.90625 
Q 42.40625 30.90625 42.15625 25.953125 
Q 41.90625 21 40.546875 16.640625 
Q 39.203125 12.296875 36.203125 9.296875 
Q 33.203125 6.296875 27.796875 6.296875 
Q 22.40625 6.296875 19.40625 9.296875 
Q 16.40625 12.296875 15.046875 16.640625 
Q 13.703125 21 13.453125 25.953125 
Q 13.203125 30.90625 13.203125 34.90625 
z
M 4.203125 34.796875 
Q 4.203125 30.90625 4.390625 26.703125 
Q 4.59375 22.5 5.390625 18.5 
Q 6.203125 14.5 7.703125 10.953125 
Q 9.203125 7.40625 11.796875 4.703125 
Q 14.40625 2 18.34375 0.453125 
Q 22.296875 -1.09375 27.796875 -1.09375 
Q 33.40625 -1.09375 37.296875 0.453125 
Q 41.203125 2 43.796875 4.703125 
Q 46.40625 7.40625 47.90625 10.953125 
Q 49.40625 14.5 50.203125 18.5 
Q 51 22.5 51.203125 26.703125 
Q 51.40625 30.90625 51.40625 34.796875 
Q 51.40625 38.703125 51.203125 42.890625 
Q 51 47.09375 50.203125 51.09375 
Q 49.40625 55.09375 47.90625 58.6875 
Q 46.40625 62.296875 43.796875 65 
Q 41.203125 67.703125 37.25 69.296875 
Q 33.296875 70.90625 27.796875 70.90625 
Q 22.296875 70.90625 18.34375 69.296875 
Q 14.40625 67.703125 11.796875 65 
Q 9.203125 62.296875 7.703125 58.6875 
Q 6.203125 55.09375 5.390625 51.09375 
Q 4.59375 47.09375 4.390625 42.890625 
Q 4.203125 38.703125 4.203125 34.796875 
z
" id="HelveticaNeue-48"/>
      </defs>
      <g transform="translate(18.4525 131.95625)scale(0.08 -0.08)">
       <use xlink:href="#HelveticaNeue-48"/>
      </g>
     </g>
    </g>
    <g id="ytick_2">
     <g id="line2d_22">
      <path clip-path="url(#p8347b52250)" d="M 28.9 108.368993 
L 244.9 108.368993 
" style="fill:none;stroke:#000000;stroke-linecap:square;stroke-opacity:0.1;stroke-width:0.6;"/>
     </g>
     <g id="line2d_23">
      <g>
       <use style="stroke:#000000;stroke-width:0.6;" x="28.9" xlink:href="#m2a50dd36d1" y="108.368993"/>
      </g>
     </g>
     <g id="text_8">
      <!-- 2.5 -->
      <defs>
       <path d="M 4.40625 45.796875 
L 12.90625 45.796875 
Q 12.796875 49 13.546875 52.140625 
Q 14.296875 55.296875 16 57.796875 
Q 17.703125 60.296875 20.34375 61.84375 
Q 23 63.40625 26.703125 63.40625 
Q 29.5 63.40625 32 62.5 
Q 34.5 61.59375 36.34375 59.890625 
Q 38.203125 58.203125 39.296875 55.84375 
Q 40.40625 53.5 40.40625 50.59375 
Q 40.40625 46.90625 39.25 44.09375 
Q 38.09375 41.296875 35.84375 38.890625 
Q 33.59375 36.5 30.1875 34.140625 
Q 26.796875 31.796875 22.296875 29 
Q 18.59375 26.796875 15.1875 24.296875 
Q 11.796875 21.796875 9.09375 18.5 
Q 6.40625 15.203125 4.65625 10.75 
Q 2.90625 6.296875 2.40625 0 
L 48.703125 0 
L 48.703125 7.5 
L 12.296875 7.5 
Q 12.90625 10.796875 14.84375 13.34375 
Q 16.796875 15.90625 19.546875 18.09375 
Q 22.296875 20.296875 25.59375 22.25 
Q 28.90625 24.203125 32.203125 26.203125 
Q 35.5 28.296875 38.59375 30.59375 
Q 41.703125 32.90625 44.09375 35.75 
Q 46.5 38.59375 47.953125 42.1875 
Q 49.40625 45.796875 49.40625 50.5 
Q 49.40625 55.5 47.65625 59.296875 
Q 45.90625 63.09375 42.90625 65.640625 
Q 39.90625 68.203125 35.84375 69.546875 
Q 31.796875 70.90625 27.203125 70.90625 
Q 21.59375 70.90625 17.1875 69 
Q 12.796875 67.09375 9.84375 63.75 
Q 6.90625 60.40625 5.5 55.796875 
Q 4.09375 51.203125 4.40625 45.796875 
z
" id="HelveticaNeue-50"/>
       <path d="M 8.296875 11.09375 
L 8.296875 0 
L 19.40625 0 
L 19.40625 11.09375 
z
" id="HelveticaNeue-46"/>
       <path d="M 47 62.203125 
L 47 69.703125 
L 12 69.703125 
L 5.40625 32.90625 
L 12.703125 32.5 
Q 15.203125 35.5 18.453125 37.34375 
Q 21.703125 39.203125 25.90625 39.203125 
Q 29.5 39.203125 32.453125 38 
Q 35.40625 36.796875 37.5 34.640625 
Q 39.59375 32.5 40.75 29.546875 
Q 41.90625 26.59375 41.90625 23.09375 
Q 41.90625 18.90625 40.703125 15.75 
Q 39.5 12.59375 37.453125 10.5 
Q 35.40625 8.40625 32.65625 7.34375 
Q 29.90625 6.296875 26.90625 6.296875 
Q 23.703125 6.296875 21.046875 7.25 
Q 18.40625 8.203125 16.453125 9.953125 
Q 14.5 11.703125 13.34375 14.046875 
Q 12.203125 16.40625 12 19.09375 
L 3.5 19.09375 
Q 3.59375 14.296875 5.390625 10.5 
Q 7.203125 6.703125 10.296875 4.140625 
Q 13.40625 1.59375 17.453125 0.25 
Q 21.5 -1.09375 26.09375 -1.09375 
Q 32.296875 -1.09375 36.9375 0.84375 
Q 41.59375 2.796875 44.6875 6.09375 
Q 47.796875 9.40625 49.34375 13.65625 
Q 50.90625 17.90625 50.90625 22.40625 
Q 50.90625 28.5 49.09375 33.046875 
Q 47.296875 37.59375 44.1875 40.640625 
Q 41.09375 43.703125 36.890625 45.203125 
Q 32.703125 46.703125 28 46.703125 
Q 24.40625 46.703125 20.75 45.453125 
Q 17.09375 44.203125 14.796875 41.59375 
L 14.59375 41.796875 
L 18.40625 62.203125 
z
" id="HelveticaNeue-53"/>
      </defs>
      <g transform="translate(11.78125 111.225243)scale(0.08 -0.08)">
       <use xlink:href="#HelveticaNeue-50"/>
       <use x="55.599991" xlink:href="#HelveticaNeue-46"/>
       <use x="83.399979" xlink:href="#HelveticaNeue-53"/>
      </g>
     </g>
    </g>
    <g id="ytick_3">
     <g id="line2d_24">
      <path clip-path="url(#p8347b52250)" d="M 28.9 87.637985 
L 244.9 87.637985 
" style="fill:none;stroke:#000000;stroke-linecap:square;stroke-opacity:0.1;stroke-width:0.6;"/>
     </g>
     <g id="line2d_25">
      <g>
       <use style="stroke:#000000;stroke-width:0.6;" x="28.9" xlink:href="#m2a50dd36d1" y="87.637985"/>
      </g>
     </g>
     <g id="text_9">
      <!-- 5 -->
      <g transform="translate(18.4525 90.494235)scale(0.08 -0.08)">
       <use xlink:href="#HelveticaNeue-53"/>
      </g>
     </g>
    </g>
    <g id="ytick_4">
     <g id="line2d_26">
      <path clip-path="url(#p8347b52250)" d="M 28.9 66.906978 
L 244.9 66.906978 
" style="fill:none;stroke:#000000;stroke-linecap:square;stroke-opacity:0.1;stroke-width:0.6;"/>
     </g>
     <g id="line2d_27">
      <g>
       <use style="stroke:#000000;stroke-width:0.6;" x="28.9" xlink:href="#m2a50dd36d1" y="66.906978"/>
      </g>
     </g>
     <g id="text_10">
      <!-- 7.5 -->
      <defs>
       <path d="M 50.90625 62.40625 
L 50.90625 69.703125 
L 5 69.703125 
L 5 61.703125 
L 42.203125 61.703125 
Q 36.59375 55.796875 31.75 48.796875 
Q 26.90625 41.796875 23.203125 33.9375 
Q 19.5 26.09375 17.140625 17.546875 
Q 14.796875 9 14.203125 0 
L 23.703125 0 
Q 24.203125 8.296875 26.5 17.09375 
Q 28.796875 25.90625 32.4375 34.203125 
Q 36.09375 42.5 40.796875 49.796875 
Q 45.5 57.09375 50.90625 62.40625 
z
" id="HelveticaNeue-55"/>
      </defs>
      <g transform="translate(11.78125 69.763228)scale(0.08 -0.08)">
       <use xlink:href="#HelveticaNeue-55"/>
       <use x="55.599991" xlink:href="#HelveticaNeue-46"/>
       <use x="83.399979" xlink:href="#HelveticaNeue-53"/>
      </g>
     </g>
    </g>
    <g id="ytick_5">
     <g id="line2d_28">
      <path clip-path="url(#p8347b52250)" d="M 28.9 46.175971 
L 244.9 46.175971 
" style="fill:none;stroke:#000000;stroke-linecap:square;stroke-opacity:0.1;stroke-width:0.6;"/>
     </g>
     <g id="line2d_29">
      <g>
       <use style="stroke:#000000;stroke-width:0.6;" x="28.9" xlink:href="#m2a50dd36d1" y="46.175971"/>
      </g>
     </g>
     <g id="text_11">
      <!-- 10 -->
      <defs>
       <path d="M 35.59375 0 
L 35.59375 70.90625 
L 29.09375 70.90625 
Q 28.40625 66.90625 26.5 64.296875 
Q 24.59375 61.703125 21.84375 60.203125 
Q 19.09375 58.703125 15.6875 58.140625 
Q 12.296875 57.59375 8.703125 57.59375 
L 8.703125 50.796875 
L 27.09375 50.796875 
L 27.09375 0 
z
" id="HelveticaNeue-49"/>
      </defs>
      <g transform="translate(14.005 49.032221)scale(0.08 -0.08)">
       <use xlink:href="#HelveticaNeue-49"/>
       <use x="55.599991" xlink:href="#HelveticaNeue-48"/>
      </g>
     </g>
    </g>
    <g id="ytick_6">
     <g id="line2d_30">
      <path clip-path="url(#p8347b52250)" d="M 28.9 25.444963 
L 244.9 25.444963 
" style="fill:none;stroke:#000000;stroke-linecap:square;stroke-opacity:0.1;stroke-width:0.6;"/>
     </g>
     <g id="line2d_31">
      <g>
       <use style="stroke:#000000;stroke-width:0.6;" x="28.9" xlink:href="#m2a50dd36d1" y="25.444963"/>
      </g>
     </g>
     <g id="text_12">
      <!-- 12.5 -->
      <g transform="translate(7.33375 28.301213)scale(0.08 -0.08)">
       <use xlink:href="#HelveticaNeue-49"/>
       <use x="55.599991" xlink:href="#HelveticaNeue-50"/>
       <use x="111.199982" xlink:href="#HelveticaNeue-46"/>
       <use x="138.999969" xlink:href="#HelveticaNeue-53"/>
      </g>
     </g>
    </g>
   </g>
   <g id="patch_28">
    <path d="M 28.9 129.1 
L 28.9 21.1 
" style="fill:none;stroke:#000000;stroke-linecap:square;stroke-linejoin:miter;stroke-width:0.6;"/>
   </g>
   <g id="patch_29">
    <path d="M 244.9 129.1 
L 244.9 21.1 
" style="fill:none;stroke:#000000;stroke-linecap:square;stroke-linejoin:miter;stroke-width:0.6;"/>
   </g>
   <g id="patch_30">
    <path d="M 28.9 129.1 
L 244.9 129.1 
" style="fill:none;stroke:#000000;stroke-linecap:square;stroke-linejoin:miter;stroke-width:0.6;"/>
   </g>
   <g id="patch_31">
    <path d="M 28.9 21.1 
L 244.9 21.1 
" style="fill:none;stroke:#000000;stroke-linecap:square;stroke-linejoin:miter;stroke-width:0.6;"/>
   </g>
   <g id="axes_2">
    <g id="patch_32">
     <path clip-path="url(#p35048ecfd4)" d="M 32.9 33.74 
L 41.54 33.74 
L 67.46 33.74 
L 76.1 33.74 
L 76.1 25.1 
L 67.46 25.1 
L 41.54 25.1 
L 32.9 25.1 
z
" style="fill:#ffffff;stroke:#ffffff;stroke-linejoin:miter;stroke-width:0.01;"/>
    </g>
    <g id="PathCollection_1"/>
    <g id="PathCollection_2"/>
    <g id="PathCollection_3"/>
    <g id="PathCollection_4"/>
    <g id="PathCollection_5"/>
    <g id="QuadMesh_1">
     <path clip-path="url(#p35048ecfd4)" d="M 32.9 33.74 
L 41.54 33.74 
L 41.54 25.1 
L 32.9 25.1 
L 32.9 33.74 
" style="fill:#fff5f0;stroke:#fff5f0;stroke-width:0.2;"/>
     <path clip-path="url(#p35048ecfd4)" d="M 41.54 33.74 
L 50.18 33.74 
L 50.18 25.1 
L 41.54 25.1 
L 41.54 33.74 
" style="fill:#fcbba1;stroke:#fcbba1;stroke-width:0.2;"/>
     <path clip-path="url(#p35048ecfd4)" d="M 50.18 33.74 
L 58.82 33.74 
L 58.82 25.1 
L 50.18 25.1 
L 50.18 33.74 
" style="fill:#fb694a;stroke:#fb694a;stroke-width:0.2;"/>
     <path clip-path="url(#p35048ecfd4)" d="M 58.82 33.74 
L 67.46 33.74 
L 67.46 25.1 
L 58.82 25.1 
L 58.82 33.74 
" style="fill:#ca181d;stroke:#ca181d;stroke-width:0.2;"/>
     <path clip-path="url(#p35048ecfd4)" d="M 67.46 33.74 
L 76.1 33.74 
L 76.1 25.1 
L 67.46 25.1 
L 67.46 33.74 
" style="fill:#67000d;stroke:#67000d;stroke-width:0.2;"/>
    </g>
    <g id="matplotlib.axis_3">
     <g id="xtick_15">
      <g id="line2d_32">
       <g>
        <use style="stroke:#000000;stroke-width:0.6;" x="37.22" xlink:href="#mc1a9974ba3" y="33.74"/>
       </g>
      </g>
      <g id="text_13">
       <!-- 1 -->
       <g transform="translate(34.99625 45.4525)scale(0.08 -0.08)">
        <use xlink:href="#HelveticaNeue-49"/>
       </g>
      </g>
     </g>
     <g id="xtick_16">
      <g id="line2d_33">
       <g>
        <use style="stroke:#000000;stroke-width:0.6;" x="45.86" xlink:href="#mc1a9974ba3" y="33.74"/>
       </g>
      </g>
      <g id="text_14">
       <!-- 2 -->
       <g transform="translate(43.63625 45.4525)scale(0.08 -0.08)">
        <use xlink:href="#HelveticaNeue-50"/>
       </g>
      </g>
     </g>
     <g id="xtick_17">
      <g id="line2d_34">
       <g>
        <use style="stroke:#000000;stroke-width:0.6;" x="54.5" xlink:href="#mc1a9974ba3" y="33.74"/>
       </g>
      </g>
      <g id="text_15">
       <!-- 3 -->
       <defs>
        <path d="M 21.796875 40.5 
L 21.796875 33.296875 
Q 24.203125 33.59375 26.90625 33.59375 
Q 30.09375 33.59375 32.84375 32.75 
Q 35.59375 31.90625 37.59375 30.15625 
Q 39.59375 28.40625 40.796875 25.84375 
Q 42 23.296875 42 20 
Q 42 16.796875 40.75 14.25 
Q 39.5 11.703125 37.390625 9.953125 
Q 35.296875 8.203125 32.5 7.25 
Q 29.703125 6.296875 26.59375 6.296875 
Q 19.296875 6.296875 15.5 10.640625 
Q 11.703125 15 11.5 21.90625 
L 3 21.90625 
Q 2.90625 16.40625 4.546875 12.09375 
Q 6.203125 7.796875 9.296875 4.84375 
Q 12.40625 1.90625 16.796875 0.40625 
Q 21.203125 -1.09375 26.59375 -1.09375 
Q 31.59375 -1.09375 36.046875 0.25 
Q 40.5 1.59375 43.796875 4.296875 
Q 47.09375 7 49.046875 11.046875 
Q 51 15.09375 51 20.40625 
Q 51 26.796875 47.84375 31.5 
Q 44.703125 36.203125 38.203125 37.59375 
L 38.203125 37.796875 
Q 42.40625 39.703125 45.203125 43.390625 
Q 48 47.09375 48 51.90625 
Q 48 56.796875 46.34375 60.390625 
Q 44.703125 64 41.796875 66.296875 
Q 38.90625 68.59375 34.953125 69.75 
Q 31 70.90625 26.40625 70.90625 
Q 21.09375 70.90625 17.046875 69.203125 
Q 13 67.5 10.296875 64.5 
Q 7.59375 61.5 6.140625 57.296875 
Q 4.703125 53.09375 4.5 48 
L 13 48 
Q 13 51.09375 13.796875 53.890625 
Q 14.59375 56.703125 16.25 58.796875 
Q 17.90625 60.90625 20.453125 62.15625 
Q 23 63.40625 26.40625 63.40625 
Q 31.796875 63.40625 35.390625 60.546875 
Q 39 57.703125 39 52 
Q 39 49.203125 37.890625 47 
Q 36.796875 44.796875 34.9375 43.34375 
Q 33.09375 41.90625 30.640625 41.15625 
Q 28.203125 40.40625 25.5 40.40625 
L 23.703125 40.40625 
Q 23.203125 40.40625 22.703125 40.40625 
Q 22.296875 40.40625 21.796875 40.5 
z
" id="HelveticaNeue-51"/>
       </defs>
       <g transform="translate(52.27625 45.4525)scale(0.08 -0.08)">
        <use xlink:href="#HelveticaNeue-51"/>
       </g>
      </g>
     </g>
     <g id="xtick_18">
      <g id="line2d_35">
       <g>
        <use style="stroke:#000000;stroke-width:0.6;" x="63.14" xlink:href="#mc1a9974ba3" y="33.74"/>
       </g>
      </g>
      <g id="text_16">
       <!-- 4 -->
       <defs>
        <path d="M 33.90625 24.09375 
L 10.09375 24.09375 
L 33.703125 58.796875 
L 33.90625 58.796875 
z
M 41.90625 24.09375 
L 41.90625 70.90625 
L 35.09375 70.90625 
L 2.796875 24.796875 
L 2.796875 16.59375 
L 33.90625 16.59375 
L 33.90625 0 
L 41.90625 0 
L 41.90625 16.59375 
L 51.5 16.59375 
L 51.5 24.09375 
z
" id="HelveticaNeue-52"/>
       </defs>
       <g transform="translate(60.91625 45.4525)scale(0.08 -0.08)">
        <use xlink:href="#HelveticaNeue-52"/>
       </g>
      </g>
     </g>
     <g id="xtick_19">
      <g id="line2d_36">
       <g>
        <use style="stroke:#000000;stroke-width:0.6;" x="71.78" xlink:href="#mc1a9974ba3" y="33.74"/>
       </g>
      </g>
      <g id="text_17">
       <!-- 5 -->
       <g transform="translate(69.55625 45.4525)scale(0.08 -0.08)">
        <use xlink:href="#HelveticaNeue-53"/>
       </g>
      </g>
     </g>
    </g>
    <g id="matplotlib.axis_4"/>
    <g id="patch_33">
     <path d="M 32.9 33.74 
L 41.54 33.74 
L 67.46 33.74 
L 76.1 33.74 
L 76.1 25.1 
L 67.46 25.1 
L 41.54 25.1 
L 32.9 25.1 
z
" style="fill:none;stroke:#000000;stroke-linejoin:miter;stroke-width:0.6;"/>
    </g>
   </g>
  </g>
  <g id="axes_3">
   <g id="patch_34">
    <path d="M 28.9 270.9 
L 244.9 270.9 
L 244.9 162.9 
L 28.9 162.9 
z
" style="fill:#ffffff;"/>
   </g>
   <g id="patch_35">
    <path clip-path="url(#p65235e18c7)" d="M 28.9 270.9 
L 64.9 270.9 
L 64.9 264.444494 
L 28.9 264.444494 
z
" style="fill:#ffffff;stroke:#000000;stroke-linejoin:miter;stroke-width:0.7;"/>
   </g>
   <g id="patch_36">
    <path clip-path="url(#p65235e18c7)" d="M 73.9 270.9 
L 109.9 270.9 
L 109.9 266.192341 
L 73.9 266.192341 
z
" style="fill:#ffffff;stroke:#000000;stroke-linejoin:miter;stroke-width:0.7;"/>
   </g>
   <g id="patch_37">
    <path clip-path="url(#p65235e18c7)" d="M 118.9 270.9 
L 154.9 270.9 
L 154.9 267.852845 
L 118.9 267.852845 
z
" style="fill:#ffffff;stroke:#000000;stroke-linejoin:miter;stroke-width:0.7;"/>
   </g>
   <g id="patch_38">
    <path clip-path="url(#p65235e18c7)" d="M 163.9 270.9 
L 199.9 270.9 
L 199.9 267.95163 
L 163.9 267.95163 
z
" style="fill:#ffffff;stroke:#000000;stroke-linejoin:miter;stroke-width:0.7;"/>
   </g>
   <g id="patch_39">
    <path clip-path="url(#p65235e18c7)" d="M 208.9 270.9 
L 244.9 270.9 
L 244.9 268.457221 
L 208.9 268.457221 
z
" style="fill:#ffffff;stroke:#000000;stroke-linejoin:miter;stroke-width:0.7;"/>
   </g>
   <g id="patch_40">
    <path clip-path="url(#p65235e18c7)" d="M 28.9 264.444494 
L 64.9 264.444494 
L 64.9 252.092791 
L 28.9 252.092791 
z
" style="fill:#d9d9d9;stroke:#000000;stroke-linejoin:miter;stroke-width:0.7;"/>
   </g>
   <g id="patch_41">
    <path clip-path="url(#p65235e18c7)" d="M 73.9 266.192341 
L 109.9 266.192341 
L 109.9 256.587188 
L 73.9 256.587188 
z
" style="fill:#d9d9d9;stroke:#000000;stroke-linejoin:miter;stroke-width:0.7;"/>
   </g>
   <g id="patch_42">
    <path clip-path="url(#p65235e18c7)" d="M 118.9 267.852845 
L 154.9 267.852845 
L 154.9 262.189748 
L 118.9 262.189748 
z
" style="fill:#d9d9d9;stroke:#000000;stroke-linejoin:miter;stroke-width:0.7;"/>
   </g>
   <g id="patch_43">
    <path clip-path="url(#p65235e18c7)" d="M 163.9 267.95163 
L 199.9 267.95163 
L 199.9 263.721074 
L 163.9 263.721074 
z
" style="fill:#d9d9d9;stroke:#000000;stroke-linejoin:miter;stroke-width:0.7;"/>
   </g>
   <g id="patch_44">
    <path clip-path="url(#p65235e18c7)" d="M 208.9 268.457221 
L 244.9 268.457221 
L 244.9 264.79987 
L 208.9 264.79987 
z
" style="fill:#d9d9d9;stroke:#000000;stroke-linejoin:miter;stroke-width:0.7;"/>
   </g>
   <g id="patch_45">
    <path clip-path="url(#p65235e18c7)" d="M 28.9 252.092791 
L 64.9 252.092791 
L 64.9 230.882574 
L 28.9 230.882574 
z
" style="fill:#959595;stroke:#000000;stroke-linejoin:miter;stroke-width:0.7;"/>
   </g>
   <g id="patch_46">
    <path clip-path="url(#p65235e18c7)" d="M 73.9 256.587188 
L 109.9 256.587188 
L 109.9 240.476952 
L 73.9 240.476952 
z
" style="fill:#959595;stroke:#000000;stroke-linejoin:miter;stroke-width:0.7;"/>
   </g>
   <g id="patch_47">
    <path clip-path="url(#p65235e18c7)" d="M 118.9 262.189748 
L 154.9 262.189748 
L 154.9 252.184695 
L 118.9 252.184695 
z
" style="fill:#959595;stroke:#000000;stroke-linejoin:miter;stroke-width:0.7;"/>
   </g>
   <g id="patch_48">
    <path clip-path="url(#p65235e18c7)" d="M 163.9 263.721074 
L 199.9 263.721074 
L 199.9 256.683217 
L 163.9 256.683217 
z
" style="fill:#959595;stroke:#000000;stroke-linejoin:miter;stroke-width:0.7;"/>
   </g>
   <g id="patch_49">
    <path clip-path="url(#p65235e18c7)" d="M 208.9 264.79987 
L 244.9 264.79987 
L 244.9 259.094601 
L 208.9 259.094601 
z
" style="fill:#959595;stroke:#000000;stroke-linejoin:miter;stroke-width:0.7;"/>
   </g>
   <g id="patch_50">
    <path clip-path="url(#p65235e18c7)" d="M 28.9 230.882574 
L 64.9 230.882574 
L 64.9 200.936999 
L 28.9 200.936999 
z
" style="fill:#515151;stroke:#000000;stroke-linejoin:miter;stroke-width:0.7;"/>
   </g>
   <g id="patch_51">
    <path clip-path="url(#p65235e18c7)" d="M 73.9 240.476952 
L 109.9 240.476952 
L 109.9 218.148645 
L 73.9 218.148645 
z
" style="fill:#515151;stroke:#000000;stroke-linejoin:miter;stroke-width:0.7;"/>
   </g>
   <g id="patch_52">
    <path clip-path="url(#p65235e18c7)" d="M 118.9 252.184695 
L 154.9 252.184695 
L 154.9 237.830317 
L 118.9 237.830317 
z
" style="fill:#515151;stroke:#000000;stroke-linejoin:miter;stroke-width:0.7;"/>
   </g>
   <g id="patch_53">
    <path clip-path="url(#p65235e18c7)" d="M 163.9 256.683217 
L 199.9 256.683217 
L 199.9 246.502825 
L 163.9 246.502825 
z
" style="fill:#515151;stroke:#000000;stroke-linejoin:miter;stroke-width:0.7;"/>
   </g>
   <g id="patch_54">
    <path clip-path="url(#p65235e18c7)" d="M 208.9 259.094601 
L 244.9 259.094601 
L 244.9 252.826121 
L 208.9 252.826121 
z
" style="fill:#515151;stroke:#000000;stroke-linejoin:miter;stroke-width:0.7;"/>
   </g>
   <g id="patch_55">
    <path clip-path="url(#p65235e18c7)" d="M 28.9 200.936999 
L 64.9 200.936999 
L 64.9 162.9 
L 28.9 162.9 
z
" style="stroke:#000000;stroke-linejoin:miter;stroke-width:0.7;"/>
   </g>
   <g id="patch_56">
    <path clip-path="url(#p65235e18c7)" d="M 73.9 218.148645 
L 109.9 218.148645 
L 109.9 188.610218 
L 73.9 188.610218 
z
" style="stroke:#000000;stroke-linejoin:miter;stroke-width:0.7;"/>
   </g>
   <g id="patch_57">
    <path clip-path="url(#p65235e18c7)" d="M 118.9 237.830317 
L 154.9 237.830317 
L 154.9 218.819387 
L 118.9 218.819387 
z
" style="stroke:#000000;stroke-linejoin:miter;stroke-width:0.7;"/>
   </g>
   <g id="patch_58">
    <path clip-path="url(#p65235e18c7)" d="M 163.9 246.502825 
L 199.9 246.502825 
L 199.9 233.196857 
L 163.9 233.196857 
z
" style="stroke:#000000;stroke-linejoin:miter;stroke-width:0.7;"/>
   </g>
   <g id="patch_59">
    <path clip-path="url(#p65235e18c7)" d="M 208.9 252.826121 
L 244.9 252.826121 
L 244.9 245.308611 
L 208.9 245.308611 
z
" style="stroke:#000000;stroke-linejoin:miter;stroke-width:0.7;"/>
   </g>
   <g id="matplotlib.axis_5">
    <g id="xtick_20">
     <g id="line2d_37">
      <path clip-path="url(#p65235e18c7)" d="M 46.9 270.9 
L 46.9 162.9 
" style="fill:none;stroke:#000000;stroke-linecap:square;stroke-opacity:0.1;stroke-width:0.6;"/>
     </g>
     <g id="line2d_38">
      <g>
       <use style="stroke:#000000;stroke-width:0.6;" x="46.9" xlink:href="#mc1a9974ba3" y="270.9"/>
      </g>
     </g>
     <g id="text_18">
      <!-- e -->
      <g transform="translate(44.751875 282.6125)scale(0.08 -0.08)">
       <use xlink:href="#HelveticaNeue-101"/>
      </g>
     </g>
    </g>
    <g id="xtick_21">
     <g id="line2d_39">
      <path clip-path="url(#p65235e18c7)" d="M 91.9 270.9 
L 91.9 162.9 
" style="fill:none;stroke:#000000;stroke-linecap:square;stroke-opacity:0.1;stroke-width:0.6;"/>
     </g>
     <g id="line2d_40">
      <g>
       <use style="stroke:#000000;stroke-width:0.6;" x="91.9" xlink:href="#mc1a9974ba3" y="270.9"/>
      </g>
     </g>
     <g id="text_19">
      <!-- d -->
      <g transform="translate(89.528125 282.6125)scale(0.08 -0.08)">
       <use xlink:href="#HelveticaNeue-100"/>
      </g>
     </g>
    </g>
    <g id="xtick_22">
     <g id="line2d_41">
      <path clip-path="url(#p65235e18c7)" d="M 136.9 270.9 
L 136.9 162.9 
" style="fill:none;stroke:#000000;stroke-linecap:square;stroke-opacity:0.1;stroke-width:0.6;"/>
     </g>
     <g id="line2d_42">
      <g>
       <use style="stroke:#000000;stroke-width:0.6;" x="136.9" xlink:href="#mc1a9974ba3" y="270.9"/>
      </g>
     </g>
     <g id="text_20">
      <!-- c -->
      <g transform="translate(134.751875 282.6125)scale(0.08 -0.08)">
       <use xlink:href="#HelveticaNeue-99"/>
      </g>
     </g>
    </g>
    <g id="xtick_23">
     <g id="line2d_43">
      <path clip-path="url(#p65235e18c7)" d="M 181.9 270.9 
L 181.9 162.9 
" style="fill:none;stroke:#000000;stroke-linecap:square;stroke-opacity:0.1;stroke-width:0.6;"/>
     </g>
     <g id="line2d_44">
      <g>
       <use style="stroke:#000000;stroke-width:0.6;" x="181.9" xlink:href="#mc1a9974ba3" y="270.9"/>
      </g>
     </g>
     <g id="text_21">
      <!-- b -->
      <g transform="translate(179.528125 282.6125)scale(0.08 -0.08)">
       <use xlink:href="#HelveticaNeue-98"/>
      </g>
     </g>
    </g>
    <g id="xtick_24">
     <g id="line2d_45">
      <path clip-path="url(#p65235e18c7)" d="M 226.9 270.9 
L 226.9 162.9 
" style="fill:none;stroke:#000000;stroke-linecap:square;stroke-opacity:0.1;stroke-width:0.6;"/>
     </g>
     <g id="line2d_46">
      <g>
       <use style="stroke:#000000;stroke-width:0.6;" x="226.9" xlink:href="#mc1a9974ba3" y="270.9"/>
      </g>
     </g>
     <g id="text_22">
      <!-- a -->
      <g transform="translate(224.751875 282.6125)scale(0.08 -0.08)">
       <use xlink:href="#HelveticaNeue-97"/>
      </g>
     </g>
    </g>
    <g id="xtick_25">
     <g id="line2d_47">
      <g>
       <use style="stroke:#000000;stroke-width:0.48;" x="28.9" xlink:href="#m0f960ea21d" y="270.9"/>
      </g>
     </g>
    </g>
    <g id="xtick_26">
     <g id="line2d_48">
      <g>
       <use style="stroke:#000000;stroke-width:0.48;" x="37.9" xlink:href="#m0f960ea21d" y="270.9"/>
      </g>
     </g>
    </g>
    <g id="xtick_27">
     <g id="line2d_49">
      <g>
       <use style="stroke:#000000;stroke-width:0.48;" x="55.9" xlink:href="#m0f960ea21d" y="270.9"/>
      </g>
     </g>
    </g>
    <g id="xtick_28">
     <g id="line2d_50">
      <g>
       <use style="stroke:#000000;stroke-width:0.48;" x="64.9" xlink:href="#m0f960ea21d" y="270.9"/>
      </g>
     </g>
    </g>
    <g id="xtick_29">
     <g id="line2d_51">
      <g>
       <use style="stroke:#000000;stroke-width:0.48;" x="73.9" xlink:href="#m0f960ea21d" y="270.9"/>
      </g>
     </g>
    </g>
    <g id="xtick_30">
     <g id="line2d_52">
      <g>
       <use style="stroke:#000000;stroke-width:0.48;" x="82.9" xlink:href="#m0f960ea21d" y="270.9"/>
      </g>
     </g>
    </g>
    <g id="xtick_31">
     <g id="line2d_53">
      <g>
       <use style="stroke:#000000;stroke-width:0.48;" x="100.9" xlink:href="#m0f960ea21d" y="270.9"/>
      </g>
     </g>
    </g>
    <g id="xtick_32">
     <g id="line2d_54">
      <g>
       <use style="stroke:#000000;stroke-width:0.48;" x="109.9" xlink:href="#m0f960ea21d" y="270.9"/>
      </g>
     </g>
    </g>
    <g id="xtick_33">
     <g id="line2d_55">
      <g>
       <use style="stroke:#000000;stroke-width:0.48;" x="118.9" xlink:href="#m0f960ea21d" y="270.9"/>
      </g>
     </g>
    </g>
    <g id="xtick_34">
     <g id="line2d_56">
      <g>
       <use style="stroke:#000000;stroke-width:0.48;" x="127.9" xlink:href="#m0f960ea21d" y="270.9"/>
      </g>
     </g>
    </g>
    <g id="xtick_35">
     <g id="line2d_57">
      <g>
       <use style="stroke:#000000;stroke-width:0.48;" x="145.9" xlink:href="#m0f960ea21d" y="270.9"/>
      </g>
     </g>
    </g>
    <g id="xtick_36">
     <g id="line2d_58">
      <g>
       <use style="stroke:#000000;stroke-width:0.48;" x="154.9" xlink:href="#m0f960ea21d" y="270.9"/>
      </g>
     </g>
    </g>
    <g id="xtick_37">
     <g id="line2d_59">
      <g>
       <use style="stroke:#000000;stroke-width:0.48;" x="163.9" xlink:href="#m0f960ea21d" y="270.9"/>
      </g>
     </g>
    </g>
    <g id="xtick_38">
     <g id="line2d_60">
      <g>
       <use style="stroke:#000000;stroke-width:0.48;" x="172.9" xlink:href="#m0f960ea21d" y="270.9"/>
      </g>
     </g>
    </g>
    <g id="xtick_39">
     <g id="line2d_61">
      <g>
       <use style="stroke:#000000;stroke-width:0.48;" x="190.9" xlink:href="#m0f960ea21d" y="270.9"/>
      </g>
     </g>
    </g>
    <g id="xtick_40">
     <g id="line2d_62">
      <g>
       <use style="stroke:#000000;stroke-width:0.48;" x="199.9" xlink:href="#m0f960ea21d" y="270.9"/>
      </g>
     </g>
    </g>
    <g id="xtick_41">
     <g id="line2d_63">
      <g>
       <use style="stroke:#000000;stroke-width:0.48;" x="208.9" xlink:href="#m0f960ea21d" y="270.9"/>
      </g>
     </g>
    </g>
    <g id="xtick_42">
     <g id="line2d_64">
      <g>
       <use style="stroke:#000000;stroke-width:0.48;" x="217.9" xlink:href="#m0f960ea21d" y="270.9"/>
      </g>
     </g>
    </g>
    <g id="xtick_43">
     <g id="line2d_65">
      <g>
       <use style="stroke:#000000;stroke-width:0.48;" x="235.9" xlink:href="#m0f960ea21d" y="270.9"/>
      </g>
     </g>
    </g>
    <g id="xtick_44">
     <g id="line2d_66">
      <g>
       <use style="stroke:#000000;stroke-width:0.48;" x="244.9" xlink:href="#m0f960ea21d" y="270.9"/>
      </g>
     </g>
    </g>
    <g id="text_23">
     <!-- name -->
     <g transform="translate(126.968125 292.90125)scale(0.08 -0.08)">
      <use xlink:href="#HelveticaNeue-110"/>
      <use x="55.599991" xlink:href="#HelveticaNeue-97"/>
      <use x="109.299988" xlink:href="#HelveticaNeue-109"/>
      <use x="194.599976" xlink:href="#HelveticaNeue-101"/>
     </g>
    </g>
   </g>
   <g id="matplotlib.axis_6">
    <g id="ytick_7">
     <g id="line2d_67">
      <path clip-path="url(#p65235e18c7)" d="M 28.9 270.9 
L 244.9 270.9 
" style="fill:none;stroke:#000000;stroke-linecap:square;stroke-opacity:0.1;stroke-width:0.6;"/>
     </g>
     <g id="line2d_68">
      <g>
       <use style="stroke:#000000;stroke-width:0.6;" x="28.9" xlink:href="#m2a50dd36d1" y="270.9"/>
      </g>
     </g>
     <g id="text_24">
      <!-- 0 -->
      <g transform="translate(18.4525 273.75625)scale(0.08 -0.08)">
       <use xlink:href="#HelveticaNeue-48"/>
      </g>
     </g>
    </g>
    <g id="ytick_8">
     <g id="line2d_69">
      <path clip-path="url(#p65235e18c7)" d="M 28.9 241.694618 
L 244.9 241.694618 
" style="fill:none;stroke:#000000;stroke-linecap:square;stroke-opacity:0.1;stroke-width:0.6;"/>
     </g>
     <g id="line2d_70">
      <g>
       <use style="stroke:#000000;stroke-width:0.6;" x="28.9" xlink:href="#m2a50dd36d1" y="241.694618"/>
      </g>
     </g>
     <g id="text_25">
      <!-- 10 -->
      <g transform="translate(14.005 244.550868)scale(0.08 -0.08)">
       <use xlink:href="#HelveticaNeue-49"/>
       <use x="55.599991" xlink:href="#HelveticaNeue-48"/>
      </g>
     </g>
    </g>
    <g id="ytick_9">
     <g id="line2d_71">
      <path clip-path="url(#p65235e18c7)" d="M 28.9 212.489236 
L 244.9 212.489236 
" style="fill:none;stroke:#000000;stroke-linecap:square;stroke-opacity:0.1;stroke-width:0.6;"/>
     </g>
     <g id="line2d_72">
      <g>
       <use style="stroke:#000000;stroke-width:0.6;" x="28.9" xlink:href="#m2a50dd36d1" y="212.489236"/>
      </g>
     </g>
     <g id="text_26">
      <!-- 20 -->
      <g transform="translate(14.005 215.345486)scale(0.08 -0.08)">
       <use xlink:href="#HelveticaNeue-50"/>
       <use x="55.599991" xlink:href="#HelveticaNeue-48"/>
      </g>
     </g>
    </g>
    <g id="ytick_10">
     <g id="line2d_73">
      <path clip-path="url(#p65235e18c7)" d="M 28.9 183.283855 
L 244.9 183.283855 
" style="fill:none;stroke:#000000;stroke-linecap:square;stroke-opacity:0.1;stroke-width:0.6;"/>
     </g>
     <g id="line2d_74">
      <g>
       <use style="stroke:#000000;stroke-width:0.6;" x="28.9" xlink:href="#m2a50dd36d1" y="183.283855"/>
      </g>
     </g>
     <g id="text_27">
      <!-- 30 -->
      <g transform="translate(14.005 186.140105)scale(0.08 -0.08)">
       <use xlink:href="#HelveticaNeue-51"/>
       <use x="55.599991" xlink:href="#HelveticaNeue-48"/>
      </g>
     </g>
    </g>
    <g id="ytick_11">
     <g id="line2d_75">
      <defs>
       <path d="M 0 0 
L -2 0 
" id="m0261e1bc5b" style="stroke:#000000;stroke-width:0.48;"/>
      </defs>
      <g>
       <use style="stroke:#000000;stroke-width:0.48;" x="28.9" xlink:href="#m0261e1bc5b" y="265.058924"/>
      </g>
     </g>
    </g>
    <g id="ytick_12">
     <g id="line2d_76">
      <g>
       <use style="stroke:#000000;stroke-width:0.48;" x="28.9" xlink:href="#m0261e1bc5b" y="259.217847"/>
      </g>
     </g>
    </g>
    <g id="ytick_13">
     <g id="line2d_77">
      <g>
       <use style="stroke:#000000;stroke-width:0.48;" x="28.9" xlink:href="#m0261e1bc5b" y="253.376771"/>
      </g>
     </g>
    </g>
    <g id="ytick_14">
     <g id="line2d_78">
      <g>
       <use style="stroke:#000000;stroke-width:0.48;" x="28.9" xlink:href="#m0261e1bc5b" y="247.535695"/>
      </g>
     </g>
    </g>
    <g id="ytick_15">
     <g id="line2d_79">
      <g>
       <use style="stroke:#000000;stroke-width:0.48;" x="28.9" xlink:href="#m0261e1bc5b" y="235.853542"/>
      </g>
     </g>
    </g>
    <g id="ytick_16">
     <g id="line2d_80">
      <g>
       <use style="stroke:#000000;stroke-width:0.48;" x="28.9" xlink:href="#m0261e1bc5b" y="230.012466"/>
      </g>
     </g>
    </g>
    <g id="ytick_17">
     <g id="line2d_81">
      <g>
       <use style="stroke:#000000;stroke-width:0.48;" x="28.9" xlink:href="#m0261e1bc5b" y="224.171389"/>
      </g>
     </g>
    </g>
    <g id="ytick_18">
     <g id="line2d_82">
      <g>
       <use style="stroke:#000000;stroke-width:0.48;" x="28.9" xlink:href="#m0261e1bc5b" y="218.330313"/>
      </g>
     </g>
    </g>
    <g id="ytick_19">
     <g id="line2d_83">
      <g>
       <use style="stroke:#000000;stroke-width:0.48;" x="28.9" xlink:href="#m0261e1bc5b" y="206.64816"/>
      </g>
     </g>
    </g>
    <g id="ytick_20">
     <g id="line2d_84">
      <g>
       <use style="stroke:#000000;stroke-width:0.48;" x="28.9" xlink:href="#m0261e1bc5b" y="200.807084"/>
      </g>
     </g>
    </g>
    <g id="ytick_21">
     <g id="line2d_85">
      <g>
       <use style="stroke:#000000;stroke-width:0.48;" x="28.9" xlink:href="#m0261e1bc5b" y="194.966007"/>
      </g>
     </g>
    </g>
    <g id="ytick_22">
     <g id="line2d_86">
      <g>
       <use style="stroke:#000000;stroke-width:0.48;" x="28.9" xlink:href="#m0261e1bc5b" y="189.124931"/>
      </g>
     </g>
    </g>
    <g id="ytick_23">
     <g id="line2d_87">
      <g>
       <use style="stroke:#000000;stroke-width:0.48;" x="28.9" xlink:href="#m0261e1bc5b" y="177.442778"/>
      </g>
     </g>
    </g>
    <g id="ytick_24">
     <g id="line2d_88">
      <g>
       <use style="stroke:#000000;stroke-width:0.48;" x="28.9" xlink:href="#m0261e1bc5b" y="171.601702"/>
      </g>
     </g>
    </g>
    <g id="ytick_25">
     <g id="line2d_89">
      <g>
       <use style="stroke:#000000;stroke-width:0.48;" x="28.9" xlink:href="#m0261e1bc5b" y="165.760626"/>
      </g>
     </g>
    </g>
   </g>
   <g id="patch_60">
    <path d="M 28.9 270.9 
L 28.9 162.9 
" style="fill:none;stroke:#000000;stroke-linecap:square;stroke-linejoin:miter;stroke-width:0.6;"/>
   </g>
   <g id="patch_61">
    <path d="M 244.9 270.9 
L 244.9 162.9 
" style="fill:none;stroke:#000000;stroke-linecap:square;stroke-linejoin:miter;stroke-width:0.6;"/>
   </g>
   <g id="patch_62">
    <path d="M 28.9 270.9 
L 244.9 270.9 
" style="fill:none;stroke:#000000;stroke-linecap:square;stroke-linejoin:miter;stroke-width:0.6;"/>
   </g>
   <g id="patch_63">
    <path d="M 28.9 162.9 
L 244.9 162.9 
" style="fill:none;stroke:#000000;stroke-linecap:square;stroke-linejoin:miter;stroke-width:0.6;"/>
   </g>
   <g id="legend_1">
    <g id="patch_64">
     <path d="M 159.5575 189.4775 
L 244.9 189.4775 
L 244.9 162.9 
L 159.5575 162.9 
z
" style="fill:#ffffff;opacity:0.8;stroke:#000000;stroke-linejoin:miter;stroke-width:0.6;"/>
    </g>
    <g id="patch_65">
     <path d="M 163.5575 172.6125 
L 175.5575 172.6125 
L 175.5575 167.0125 
L 163.5575 167.0125 
z
" style="fill:#ffffff;stroke:#000000;stroke-linejoin:miter;stroke-width:0.7;"/>
    </g>
    <g id="text_28">
     <!-- 5 -->
     <g transform="translate(179.5575 172.6125)scale(0.08 -0.08)">
      <use xlink:href="#HelveticaNeue-53"/>
     </g>
    </g>
    <g id="patch_66">
     <path d="M 163.5575 183.90125 
L 175.5575 183.90125 
L 175.5575 178.30125 
L 163.5575 178.30125 
z
" style="fill:#515151;stroke:#000000;stroke-linejoin:miter;stroke-width:0.7;"/>
    </g>
    <g id="text_29">
     <!-- 2 -->
     <g transform="translate(179.5575 183.90125)scale(0.08 -0.08)">
      <use xlink:href="#HelveticaNeue-50"/>
     </g>
    </g>
    <g id="patch_67">
     <path d="M 192.005 172.6125 
L 204.005 172.6125 
L 204.005 167.0125 
L 192.005 167.0125 
z
" style="fill:#d9d9d9;stroke:#000000;stroke-linejoin:miter;stroke-width:0.7;"/>
    </g>
    <g id="text_30">
     <!-- 4 -->
     <g transform="translate(208.005 172.6125)scale(0.08 -0.08)">
      <use xlink:href="#HelveticaNeue-52"/>
     </g>
    </g>
    <g id="patch_68">
     <path d="M 192.005 183.90125 
L 204.005 183.90125 
L 204.005 178.30125 
L 192.005 178.30125 
z
" style="stroke:#000000;stroke-linejoin:miter;stroke-width:0.7;"/>
    </g>
    <g id="text_31">
     <!-- 1 -->
     <g transform="translate(208.005 183.90125)scale(0.08 -0.08)">
      <use xlink:href="#HelveticaNeue-49"/>
     </g>
    </g>
    <g id="patch_69">
     <path d="M 220.4525 172.6125 
L 232.4525 172.6125 
L 232.4525 167.0125 
L 220.4525 167.0125 
z
" style="fill:#959595;stroke:#000000;stroke-linejoin:miter;stroke-width:0.7;"/>
    </g>
    <g id="text_32">
     <!-- 3 -->
     <g transform="translate(236.4525 172.6125)scale(0.08 -0.08)">
      <use xlink:href="#HelveticaNeue-51"/>
     </g>
    </g>
   </g>
   <g id="legend_2">
    <g id="patch_70">
     <path d="M 159.5575 189.4775 
L 244.9 189.4775 
L 244.9 162.9 
L 159.5575 162.9 
z
" style="fill:#ffffff;opacity:0.8;stroke:#000000;stroke-linejoin:miter;stroke-width:0.6;"/>
    </g>
    <g id="patch_71">
     <path d="M 163.5575 172.6125 
L 175.5575 172.6125 
L 175.5575 167.0125 
L 163.5575 167.0125 
z
" style="fill:#ffffff;stroke:#000000;stroke-linejoin:miter;stroke-width:0.7;"/>
    </g>
    <g id="text_33">
     <!-- 5 -->
     <g transform="translate(179.5575 172.6125)scale(0.08 -0.08)">
      <use xlink:href="#HelveticaNeue-53"/>
     </g>
    </g>
    <g id="patch_72">
     <path d="M 163.5575 183.90125 
L 175.5575 183.90125 
L 175.5575 178.30125 
L 163.5575 178.30125 
z
" style="fill:#515151;stroke:#000000;stroke-linejoin:miter;stroke-width:0.7;"/>
    </g>
    <g id="text_34">
     <!-- 2 -->
     <g transform="translate(179.5575 183.90125)scale(0.08 -0.08)">
      <use xlink:href="#HelveticaNeue-50"/>
     </g>
    </g>
    <g id="patch_73">
     <path d="M 192.005 172.6125 
L 204.005 172.6125 
L 204.005 167.0125 
L 192.005 167.0125 
z
" style="fill:#d9d9d9;stroke:#000000;stroke-linejoin:miter;stroke-width:0.7;"/>
    </g>
    <g id="text_35">
     <!-- 4 -->
     <g transform="translate(208.005 172.6125)scale(0.08 -0.08)">
      <use xlink:href="#HelveticaNeue-52"/>
     </g>
    </g>
    <g id="patch_74">
     <path d="M 192.005 183.90125 
L 204.005 183.90125 
L 204.005 178.30125 
L 192.005 178.30125 
z
" style="stroke:#000000;stroke-linejoin:miter;stroke-width:0.7;"/>
    </g>
    <g id="text_36">
     <!-- 1 -->
     <g transform="translate(208.005 183.90125)scale(0.08 -0.08)">
      <use xlink:href="#HelveticaNeue-49"/>
     </g>
    </g>
    <g id="patch_75">
     <path d="M 220.4525 172.6125 
L 232.4525 172.6125 
L 232.4525 167.0125 
L 220.4525 167.0125 
z
" style="fill:#959595;stroke:#000000;stroke-linejoin:miter;stroke-width:0.7;"/>
    </g>
    <g id="text_37">
     <!-- 3 -->
     <g transform="translate(236.4525 172.6125)scale(0.08 -0.08)">
      <use xlink:href="#HelveticaNeue-51"/>
     </g>
    </g>
   </g>
  </g>
  <g id="text_38">
   <!-- Bar plot wrapper demo -->
   <defs>
    <path d="M 22.59375 42.5 
L 22.59375 59.203125 
L 37.296875 59.203125 
Q 39.40625 59.203125 41.34375 58.84375 
Q 43.296875 58.5 44.796875 57.59375 
Q 46.296875 56.703125 47.1875 55.09375 
Q 48.09375 53.5 48.09375 51 
Q 48.09375 46.5 45.390625 44.5 
Q 42.703125 42.5 38.5 42.5 
z
M 6.90625 71.40625 
L 6.90625 0 
L 41.5 0 
Q 46.296875 0 50.84375 1.203125 
Q 55.40625 2.40625 58.953125 4.90625 
Q 62.5 7.40625 64.59375 11.34375 
Q 66.703125 15.296875 66.703125 20.703125 
Q 66.703125 27.40625 63.453125 32.15625 
Q 60.203125 36.90625 53.59375 38.796875 
Q 58.40625 41.09375 60.84375 44.6875 
Q 63.296875 48.296875 63.296875 53.703125 
Q 63.296875 58.703125 61.640625 62.09375 
Q 60 65.5 57 67.546875 
Q 54 69.59375 49.796875 70.5 
Q 45.59375 71.40625 40.5 71.40625 
z
M 22.59375 12.203125 
L 22.59375 31.796875 
L 39.703125 31.796875 
Q 44.796875 31.796875 47.890625 29.4375 
Q 51 27.09375 51 21.59375 
Q 51 18.796875 50.046875 17 
Q 49.09375 15.203125 47.5 14.140625 
Q 45.90625 13.09375 43.796875 12.640625 
Q 41.703125 12.203125 39.40625 12.203125 
z
" id="HelveticaNeue-Bold-66"/>
    <path d="M 4.796875 35.796875 
Q 5.09375 40.796875 7.296875 44.09375 
Q 9.5 47.40625 12.890625 49.40625 
Q 16.296875 51.40625 20.546875 52.25 
Q 24.796875 53.09375 29.09375 53.09375 
Q 33 53.09375 37 52.546875 
Q 41 52 44.296875 50.390625 
Q 47.59375 48.796875 49.6875 45.9375 
Q 51.796875 43.09375 51.796875 38.40625 
L 51.796875 11.5 
Q 51.796875 8 52.1875 4.796875 
Q 52.59375 1.59375 53.59375 0 
L 39.203125 0 
Q 38.796875 1.203125 38.546875 2.453125 
Q 38.296875 3.703125 38.203125 5 
Q 34.796875 1.5 30.1875 0.09375 
Q 25.59375 -1.296875 20.796875 -1.296875 
Q 17.09375 -1.296875 13.890625 -0.390625 
Q 10.703125 0.5 8.296875 2.390625 
Q 5.90625 4.296875 4.546875 7.1875 
Q 3.203125 10.09375 3.203125 14.09375 
Q 3.203125 18.5 4.75 21.34375 
Q 6.296875 24.203125 8.75 25.890625 
Q 11.203125 27.59375 14.34375 28.4375 
Q 17.5 29.296875 20.703125 29.796875 
Q 23.90625 30.296875 27 30.59375 
Q 30.09375 30.90625 32.5 31.5 
Q 34.90625 32.09375 36.296875 33.25 
Q 37.703125 34.40625 37.59375 36.59375 
Q 37.59375 38.90625 36.84375 40.25 
Q 36.09375 41.59375 34.84375 42.34375 
Q 33.59375 43.09375 31.9375 43.34375 
Q 30.296875 43.59375 28.40625 43.59375 
Q 24.203125 43.59375 21.796875 41.796875 
Q 19.40625 40 19 35.796875 
z
M 37.59375 25.296875 
Q 36.703125 24.5 35.34375 24.046875 
Q 34 23.59375 32.453125 23.296875 
Q 30.90625 23 29.203125 22.796875 
Q 27.5 22.59375 25.796875 22.296875 
Q 24.203125 22 22.640625 21.5 
Q 21.09375 21 19.9375 20.140625 
Q 18.796875 19.296875 18.09375 18 
Q 17.40625 16.703125 17.40625 14.703125 
Q 17.40625 12.796875 18.09375 11.5 
Q 18.796875 10.203125 20 9.453125 
Q 21.203125 8.703125 22.796875 8.390625 
Q 24.40625 8.09375 26.09375 8.09375 
Q 30.296875 8.09375 32.59375 9.5 
Q 34.90625 10.90625 36 12.84375 
Q 37.09375 14.796875 37.34375 16.796875 
Q 37.59375 18.796875 37.59375 20 
z
" id="HelveticaNeue-Bold-97"/>
    <path d="M 5.40625 51.703125 
L 5.40625 0 
L 19.59375 0 
L 19.59375 23.296875 
Q 19.59375 26.796875 20.296875 29.796875 
Q 21 32.796875 22.640625 35.046875 
Q 24.296875 37.296875 27 38.59375 
Q 29.703125 39.90625 33.59375 39.90625 
Q 34.90625 39.90625 36.296875 39.75 
Q 37.703125 39.59375 38.703125 39.40625 
L 38.703125 52.59375 
Q 37 53.09375 35.59375 53.09375 
Q 32.90625 53.09375 30.40625 52.296875 
Q 27.90625 51.5 25.703125 50.046875 
Q 23.5 48.59375 21.796875 46.546875 
Q 20.09375 44.5 19.09375 42.09375 
L 18.90625 42.09375 
L 18.90625 51.703125 
z
" id="HelveticaNeue-Bold-114"/>
    <path id="HelveticaNeue-Bold-32"/>
    <path d="M 31.5 9.296875 
Q 28.09375 9.296875 25.6875 10.6875 
Q 23.296875 12.09375 21.84375 14.34375 
Q 20.40625 16.59375 19.75 19.59375 
Q 19.09375 22.59375 19.09375 25.703125 
Q 19.09375 28.90625 19.6875 31.90625 
Q 20.296875 34.90625 21.75 37.203125 
Q 23.203125 39.5 25.546875 40.953125 
Q 27.90625 42.40625 31.40625 42.40625 
Q 34.796875 42.40625 37.140625 40.953125 
Q 39.5 39.5 41 37.140625 
Q 42.5 34.796875 43.140625 31.796875 
Q 43.796875 28.796875 43.796875 25.703125 
Q 43.796875 22.59375 43.1875 19.59375 
Q 42.59375 16.59375 41.140625 14.34375 
Q 39.703125 12.09375 37.34375 10.6875 
Q 35 9.296875 31.5 9.296875 
z
M 5.40625 51.703125 
L 5.40625 -18.09375 
L 19.59375 -18.09375 
L 19.59375 6.40625 
L 19.796875 6.40625 
Q 22.40625 2.59375 26.453125 0.640625 
Q 30.5 -1.296875 35.296875 -1.296875 
Q 41 -1.296875 45.25 0.890625 
Q 49.5 3.09375 52.34375 6.796875 
Q 55.203125 10.5 56.59375 15.296875 
Q 58 20.09375 58 25.296875 
Q 58 30.796875 56.59375 35.84375 
Q 55.203125 40.90625 52.296875 44.703125 
Q 49.40625 48.5 45 50.796875 
Q 40.59375 53.09375 34.5 53.09375 
Q 29.703125 53.09375 25.703125 51.1875 
Q 21.703125 49.296875 19.09375 45.09375 
L 18.90625 45.09375 
L 18.90625 51.703125 
z
" id="HelveticaNeue-Bold-112"/>
    <path d="M 5.796875 71.40625 
L 5.796875 0 
L 20 0 
L 20 71.40625 
z
" id="HelveticaNeue-Bold-108"/>
    <path d="M 18 25.796875 
Q 18 28.90625 18.59375 31.90625 
Q 19.203125 34.90625 20.640625 37.203125 
Q 22.09375 39.5 24.5 40.953125 
Q 26.90625 42.40625 30.5 42.40625 
Q 34.09375 42.40625 36.546875 40.953125 
Q 39 39.5 40.453125 37.203125 
Q 41.90625 34.90625 42.5 31.90625 
Q 43.09375 28.90625 43.09375 25.796875 
Q 43.09375 22.703125 42.5 19.75 
Q 41.90625 16.796875 40.453125 14.4375 
Q 39 12.09375 36.546875 10.6875 
Q 34.09375 9.296875 30.5 9.296875 
Q 26.90625 9.296875 24.5 10.6875 
Q 22.09375 12.09375 20.640625 14.4375 
Q 19.203125 16.796875 18.59375 19.75 
Q 18 22.703125 18 25.796875 
z
M 3.796875 25.796875 
Q 3.796875 19.59375 5.6875 14.59375 
Q 7.59375 9.59375 11.09375 6.046875 
Q 14.59375 2.5 19.5 0.59375 
Q 24.40625 -1.296875 30.5 -1.296875 
Q 36.59375 -1.296875 41.546875 0.59375 
Q 46.5 2.5 50 6.046875 
Q 53.5 9.59375 55.390625 14.59375 
Q 57.296875 19.59375 57.296875 25.796875 
Q 57.296875 32 55.390625 37.046875 
Q 53.5 42.09375 50 45.640625 
Q 46.5 49.203125 41.546875 51.140625 
Q 36.59375 53.09375 30.5 53.09375 
Q 24.40625 53.09375 19.5 51.140625 
Q 14.59375 49.203125 11.09375 45.640625 
Q 7.59375 42.09375 5.6875 37.046875 
Q 3.796875 32 3.796875 25.796875 
z
" id="HelveticaNeue-Bold-111"/>
    <path d="M 23.40625 51.703125 
L 23.40625 67.203125 
L 9.203125 67.203125 
L 9.203125 51.703125 
L 0.59375 51.703125 
L 0.59375 42.203125 
L 9.203125 42.203125 
L 9.203125 11.703125 
Q 9.203125 7.796875 10.5 5.390625 
Q 11.796875 3 14.046875 1.703125 
Q 16.296875 0.40625 19.25 -0.046875 
Q 22.203125 -0.5 25.5 -0.5 
Q 27.59375 -0.5 29.796875 -0.390625 
Q 32 -0.296875 33.796875 0 
L 33.796875 11 
Q 32.796875 10.796875 31.6875 10.6875 
Q 30.59375 10.59375 29.40625 10.59375 
Q 25.796875 10.59375 24.59375 11.796875 
Q 23.40625 13 23.40625 16.59375 
L 23.40625 42.203125 
L 33.796875 42.203125 
L 33.796875 51.703125 
z
" id="HelveticaNeue-Bold-116"/>
    <path d="M 64.5 0 
L 80.796875 51.703125 
L 66.203125 51.703125 
L 56.703125 16.703125 
L 56.5 16.703125 
L 47.703125 51.703125 
L 33.90625 51.703125 
L 25.296875 16.59375 
L 25.09375 16.59375 
L 15.59375 51.703125 
L 0.59375 51.703125 
L 17 0 
L 31.703125 0 
L 40.5 34.703125 
L 40.703125 34.703125 
L 49.90625 0 
z
" id="HelveticaNeue-Bold-119"/>
    <path d="M 40.203125 31.40625 
L 17.09375 31.40625 
Q 17.203125 32.90625 17.75 34.796875 
Q 18.296875 36.703125 19.640625 38.390625 
Q 21 40.09375 23.25 41.25 
Q 25.5 42.40625 28.90625 42.40625 
Q 34.09375 42.40625 36.640625 39.59375 
Q 39.203125 36.796875 40.203125 31.40625 
z
M 17.09375 22.40625 
L 54.40625 22.40625 
Q 54.796875 28.40625 53.390625 33.90625 
Q 52 39.40625 48.84375 43.703125 
Q 45.703125 48 40.796875 50.546875 
Q 35.90625 53.09375 29.296875 53.09375 
Q 23.40625 53.09375 18.546875 51 
Q 13.703125 48.90625 10.203125 45.25 
Q 6.703125 41.59375 4.796875 36.59375 
Q 2.90625 31.59375 2.90625 25.796875 
Q 2.90625 19.796875 4.75 14.796875 
Q 6.59375 9.796875 10 6.1875 
Q 13.40625 2.59375 18.296875 0.640625 
Q 23.203125 -1.296875 29.296875 -1.296875 
Q 38.09375 -1.296875 44.296875 2.703125 
Q 50.5 6.703125 53.5 16 
L 41 16 
Q 40.296875 13.59375 37.1875 11.4375 
Q 34.09375 9.296875 29.796875 9.296875 
Q 23.796875 9.296875 20.59375 12.390625 
Q 17.40625 15.5 17.09375 22.40625 
z
" id="HelveticaNeue-Bold-101"/>
    <path d="M 42.09375 26 
Q 42.09375 22.796875 41.5 19.796875 
Q 40.90625 16.796875 39.5 14.4375 
Q 38.09375 12.09375 35.75 10.6875 
Q 33.40625 9.296875 29.90625 9.296875 
Q 26.59375 9.296875 24.25 10.75 
Q 21.90625 12.203125 20.34375 14.546875 
Q 18.796875 16.90625 18.09375 19.90625 
Q 17.40625 22.90625 17.40625 25.90625 
Q 17.40625 29.09375 18.046875 32.046875 
Q 18.703125 35 20.140625 37.296875 
Q 21.59375 39.59375 24 41 
Q 26.40625 42.40625 29.90625 42.40625 
Q 33.40625 42.40625 35.703125 41 
Q 38 39.59375 39.453125 37.34375 
Q 40.90625 35.09375 41.5 32.140625 
Q 42.09375 29.203125 42.09375 26 
z
M 42.296875 6.59375 
L 42.296875 0 
L 55.796875 0 
L 55.796875 71.40625 
L 41.59375 71.40625 
L 41.59375 45.40625 
L 41.40625 45.40625 
Q 39 49.203125 34.84375 51.140625 
Q 30.703125 53.09375 26.09375 53.09375 
Q 20.40625 53.09375 16.09375 50.84375 
Q 11.796875 48.59375 8.9375 44.890625 
Q 6.09375 41.203125 4.640625 36.34375 
Q 3.203125 31.5 3.203125 26.296875 
Q 3.203125 20.90625 4.640625 15.90625 
Q 6.09375 10.90625 8.9375 7.046875 
Q 11.796875 3.203125 16.1875 0.953125 
Q 20.59375 -1.296875 26.40625 -1.296875 
Q 31.5 -1.296875 35.546875 0.546875 
Q 39.59375 2.40625 42.09375 6.59375 
z
" id="HelveticaNeue-Bold-100"/>
    <path d="M 5.796875 51.703125 
L 5.796875 0 
L 20 0 
L 20 30 
Q 20 33.796875 21.09375 36.140625 
Q 22.203125 38.5 23.75 39.75 
Q 25.296875 41 26.9375 41.453125 
Q 28.59375 41.90625 29.59375 41.90625 
Q 33 41.90625 34.75 40.75 
Q 36.5 39.59375 37.25 37.6875 
Q 38 35.796875 38.09375 33.546875 
Q 38.203125 31.296875 38.203125 29 
L 38.203125 0 
L 52.40625 0 
L 52.40625 28.796875 
Q 52.40625 31.203125 52.75 33.546875 
Q 53.09375 35.90625 54.140625 37.75 
Q 55.203125 39.59375 57.046875 40.75 
Q 58.90625 41.90625 61.90625 41.90625 
Q 64.90625 41.90625 66.65625 40.90625 
Q 68.40625 39.90625 69.296875 38.203125 
Q 70.203125 36.5 70.390625 34.203125 
Q 70.59375 31.90625 70.59375 29.296875 
L 70.59375 0 
L 84.796875 0 
L 84.796875 34.59375 
Q 84.796875 39.59375 83.390625 43.140625 
Q 82 46.703125 79.5 48.890625 
Q 77 51.09375 73.5 52.09375 
Q 70 53.09375 65.90625 53.09375 
Q 60.5 53.09375 56.546875 50.5 
Q 52.59375 47.90625 50.296875 44.5 
Q 48.203125 49.296875 44.140625 51.1875 
Q 40.09375 53.09375 35.203125 53.09375 
Q 30.09375 53.09375 26.140625 50.890625 
Q 22.203125 48.703125 19.40625 44.703125 
L 19.203125 44.703125 
L 19.203125 51.703125 
z
" id="HelveticaNeue-Bold-109"/>
   </defs>
   <g transform="translate(87.413359 12.771562)scale(0.09 -0.09)">
    <use xlink:href="#HelveticaNeue-Bold-66"/>
    <use x="70.399994" xlink:href="#HelveticaNeue-Bold-97"/>
    <use x="127.799988" xlink:href="#HelveticaNeue-Bold-114"/>
    <use x="166.699982" xlink:href="#HelveticaNeue-Bold-32"/>
    <use x="194.499969" xlink:href="#HelveticaNeue-Bold-112"/>
    <use x="255.59996" xlink:href="#HelveticaNeue-Bold-108"/>
    <use x="281.399948" xlink:href="#HelveticaNeue-Bold-111"/>
    <use x="342.499939" xlink:href="#HelveticaNeue-Bold-116"/>
    <use x="377.699936" xlink:href="#HelveticaNeue-Bold-32"/>
    <use x="405.499924" xlink:href="#HelveticaNeue-Bold-119"/>
    <use x="486.899918" xlink:href="#HelveticaNeue-Bold-114"/>
    <use x="525.799911" xlink:href="#HelveticaNeue-Bold-97"/>
    <use x="583.199905" xlink:href="#HelveticaNeue-Bold-112"/>
    <use x="644.299896" xlink:href="#HelveticaNeue-Bold-112"/>
    <use x="705.399887" xlink:href="#HelveticaNeue-Bold-101"/>
    <use x="762.799881" xlink:href="#HelveticaNeue-Bold-114"/>
    <use x="801.699875" xlink:href="#HelveticaNeue-Bold-32"/>
    <use x="829.499863" xlink:href="#HelveticaNeue-Bold-100"/>
    <use x="890.599854" xlink:href="#HelveticaNeue-Bold-101"/>
    <use x="947.999847" xlink:href="#HelveticaNeue-Bold-109"/>
    <use x="1038.599838" xlink:href="#HelveticaNeue-Bold-111"/>
   </g>
  </g>
 </g>
 <defs>
  <clipPath id="p8347b52250">
   <rect height="108" width="216" x="28.9" y="21.1"/>
  </clipPath>
  <clipPath id="p35048ecfd4">
   <rect height="8.64" width="43.2" x="32.9" y="25.1"/>
  </clipPath>
  <clipPath id="p65235e18c7">
   <rect height="108" width="216" x="28.9" y="162.9"/>
  </clipPath>
 </defs>
</svg>
