<?xml version="1.0" encoding="utf-8" standalone="no"?>
<!DOCTYPE svg PUBLIC "-//W3C//DTD SVG 1.1//EN"
  "http://www.w3.org/Graphics/SVG/1.1/DTD/svg11.dtd">
<!-- Created with matplotlib (https://matplotlib.org/) -->
<svg height="193.14pt" version="1.1" viewBox="0 0 384.2 193.14" width="384.2pt" xmlns="http://www.w3.org/2000/svg" xmlns:xlink="http://www.w3.org/1999/xlink">
 <defs>
  <style type="text/css">
*{stroke-linecap:butt;stroke-linejoin:round;}
  </style>
 </defs>
 <g id="figure_1">
  <g id="patch_1">
   <path d="M 0 193.14 
L 384.2 193.14 
L 384.2 0 
L 0 0 
z
" style="fill:#f2f2f2;"/>
  </g>
  <g id="axes_1">
   <g id="patch_2">
    <path d="M 26.9 126.7 
L 185.3 126.7 
L 185.3 21.1 
L 26.9 21.1 
z
" style="fill:#ffffff;"/>
   </g>
   <g id="matplotlib.axis_1">
    <g id="xtick_1">
     <g id="line2d_1">
      <path clip-path="url(#pe182196fe2)" d="M 26.9 126.7 
L 26.9 21.1 
" style="fill:none;stroke:#000000;stroke-linecap:square;stroke-opacity:0.1;stroke-width:0.6;"/>
     </g>
     <g id="line2d_2">
      <defs>
       <path d="M 0 0 
L 0 4 
" id="m44665c0b71" style="stroke:#000000;stroke-width:0.6;"/>
      </defs>
      <g>
       <use style="stroke:#000000;stroke-width:0.6;" x="26.9" xlink:href="#m44665c0b71" y="126.7"/>
      </g>
     </g>
     <g id="text_1">
      <!-- 0 -->
      <defs>
       <path d="M 13.203125 34.90625 
Q 13.203125 37.5 13.25 40.640625 
Q 13.296875 43.796875 13.75 46.9375 
Q 14.203125 50.09375 15.046875 53.09375 
Q 15.90625 56.09375 17.546875 58.34375 
Q 19.203125 60.59375 21.703125 62 
Q 24.203125 63.40625 27.796875 63.40625 
Q 31.40625 63.40625 33.90625 62 
Q 36.40625 60.59375 38.046875 58.34375 
Q 39.703125 56.09375 40.546875 53.09375 
Q 41.40625 50.09375 41.84375 46.9375 
Q 42.296875 43.796875 42.34375 40.640625 
Q 42.40625 37.5 42.40625 34.90625 
Q 42.40625 30.90625 42.15625 25.953125 
Q 41.90625 21 40.546875 16.640625 
Q 39.203125 12.296875 36.203125 9.296875 
Q 33.203125 6.296875 27.796875 6.296875 
Q 22.40625 6.296875 19.40625 9.296875 
Q 16.40625 12.296875 15.046875 16.640625 
Q 13.703125 21 13.453125 25.953125 
Q 13.203125 30.90625 13.203125 34.90625 
z
M 4.203125 34.796875 
Q 4.203125 30.90625 4.390625 26.703125 
Q 4.59375 22.5 5.390625 18.5 
Q 6.203125 14.5 7.703125 10.953125 
Q 9.203125 7.40625 11.796875 4.703125 
Q 14.40625 2 18.34375 0.453125 
Q 22.296875 -1.09375 27.796875 -1.09375 
Q 33.40625 -1.09375 37.296875 0.453125 
Q 41.203125 2 43.796875 4.703125 
Q 46.40625 7.40625 47.90625 10.953125 
Q 49.40625 14.5 50.203125 18.5 
Q 51 22.5 51.203125 26.703125 
Q 51.40625 30.90625 51.40625 34.796875 
Q 51.40625 38.703125 51.203125 42.890625 
Q 51 47.09375 50.203125 51.09375 
Q 49.40625 55.09375 47.90625 58.6875 
Q 46.40625 62.296875 43.796875 65 
Q 41.203125 67.703125 37.25 69.296875 
Q 33.296875 70.90625 27.796875 70.90625 
Q 22.296875 70.90625 18.34375 69.296875 
Q 14.40625 67.703125 11.796875 65 
Q 9.203125 62.296875 7.703125 58.6875 
Q 6.203125 55.09375 5.390625 51.09375 
Q 4.59375 47.09375 4.390625 42.890625 
Q 4.203125 38.703125 4.203125 34.796875 
z
" id="HelveticaNeue-48"/>
      </defs>
      <g transform="translate(24.67625 138.4125)scale(0.08 -0.08)">
       <use xlink:href="#HelveticaNeue-48"/>
      </g>
     </g>
    </g>
    <g id="xtick_2">
     <g id="line2d_3">
      <path clip-path="url(#pe182196fe2)" d="M 62.1 126.7 
L 62.1 21.1 
" style="fill:none;stroke:#000000;stroke-linecap:square;stroke-opacity:0.1;stroke-width:0.6;"/>
     </g>
     <g id="line2d_4">
      <g>
       <use style="stroke:#000000;stroke-width:0.6;" x="62.1" xlink:href="#m44665c0b71" y="126.7"/>
      </g>
     </g>
     <g id="text_2">
      <!-- 2 -->
      <defs>
       <path d="M 4.40625 45.796875 
L 12.90625 45.796875 
Q 12.796875 49 13.546875 52.140625 
Q 14.296875 55.296875 16 57.796875 
Q 17.703125 60.296875 20.34375 61.84375 
Q 23 63.40625 26.703125 63.40625 
Q 29.5 63.40625 32 62.5 
Q 34.5 61.59375 36.34375 59.890625 
Q 38.203125 58.203125 39.296875 55.84375 
Q 40.40625 53.5 40.40625 50.59375 
Q 40.40625 46.90625 39.25 44.09375 
Q 38.09375 41.296875 35.84375 38.890625 
Q 33.59375 36.5 30.1875 34.140625 
Q 26.796875 31.796875 22.296875 29 
Q 18.59375 26.796875 15.1875 24.296875 
Q 11.796875 21.796875 9.09375 18.5 
Q 6.40625 15.203125 4.65625 10.75 
Q 2.90625 6.296875 2.40625 0 
L 48.703125 0 
L 48.703125 7.5 
L 12.296875 7.5 
Q 12.90625 10.796875 14.84375 13.34375 
Q 16.796875 15.90625 19.546875 18.09375 
Q 22.296875 20.296875 25.59375 22.25 
Q 28.90625 24.203125 32.203125 26.203125 
Q 35.5 28.296875 38.59375 30.59375 
Q 41.703125 32.90625 44.09375 35.75 
Q 46.5 38.59375 47.953125 42.1875 
Q 49.40625 45.796875 49.40625 50.5 
Q 49.40625 55.5 47.65625 59.296875 
Q 45.90625 63.09375 42.90625 65.640625 
Q 39.90625 68.203125 35.84375 69.546875 
Q 31.796875 70.90625 27.203125 70.90625 
Q 21.59375 70.90625 17.1875 69 
Q 12.796875 67.09375 9.84375 63.75 
Q 6.90625 60.40625 5.5 55.796875 
Q 4.09375 51.203125 4.40625 45.796875 
z
" id="HelveticaNeue-50"/>
      </defs>
      <g transform="translate(59.87625 138.4125)scale(0.08 -0.08)">
       <use xlink:href="#HelveticaNeue-50"/>
      </g>
     </g>
    </g>
    <g id="xtick_3">
     <g id="line2d_5">
      <path clip-path="url(#pe182196fe2)" d="M 97.3 126.7 
L 97.3 21.1 
" style="fill:none;stroke:#000000;stroke-linecap:square;stroke-opacity:0.1;stroke-width:0.6;"/>
     </g>
     <g id="line2d_6">
      <g>
       <use style="stroke:#000000;stroke-width:0.6;" x="97.3" xlink:href="#m44665c0b71" y="126.7"/>
      </g>
     </g>
     <g id="text_3">
      <!-- 4 -->
      <defs>
       <path d="M 33.90625 24.09375 
L 10.09375 24.09375 
L 33.703125 58.796875 
L 33.90625 58.796875 
z
M 41.90625 24.09375 
L 41.90625 70.90625 
L 35.09375 70.90625 
L 2.796875 24.796875 
L 2.796875 16.59375 
L 33.90625 16.59375 
L 33.90625 0 
L 41.90625 0 
L 41.90625 16.59375 
L 51.5 16.59375 
L 51.5 24.09375 
z
" id="HelveticaNeue-52"/>
      </defs>
      <g transform="translate(95.07625 138.4125)scale(0.08 -0.08)">
       <use xlink:href="#HelveticaNeue-52"/>
      </g>
     </g>
    </g>
    <g id="xtick_4">
     <g id="line2d_7">
      <path clip-path="url(#pe182196fe2)" d="M 132.5 126.7 
L 132.5 21.1 
" style="fill:none;stroke:#000000;stroke-linecap:square;stroke-opacity:0.1;stroke-width:0.6;"/>
     </g>
     <g id="line2d_8">
      <g>
       <use style="stroke:#000000;stroke-width:0.6;" x="132.5" xlink:href="#m44665c0b71" y="126.7"/>
      </g>
     </g>
     <g id="text_4">
      <!-- 6 -->
      <defs>
       <path d="M 41.40625 52.796875 
L 49.90625 52.796875 
Q 49.09375 61.59375 43.890625 66.25 
Q 38.703125 70.90625 29.90625 70.90625 
Q 22.296875 70.90625 17.296875 67.703125 
Q 12.296875 64.5 9.296875 59.203125 
Q 6.296875 53.90625 5.046875 47.046875 
Q 3.796875 40.203125 3.796875 32.90625 
Q 3.796875 27.296875 4.640625 21.296875 
Q 5.5 15.296875 8.09375 10.296875 
Q 10.703125 5.296875 15.5 2.09375 
Q 20.296875 -1.09375 28.203125 -1.09375 
Q 34.90625 -1.09375 39.453125 1.15625 
Q 44 3.40625 46.75 6.84375 
Q 49.5 10.296875 50.703125 14.5 
Q 51.90625 18.703125 51.90625 22.59375 
Q 51.90625 27.5 50.40625 31.703125 
Q 48.90625 35.90625 46.15625 39 
Q 43.40625 42.09375 39.34375 43.84375 
Q 35.296875 45.59375 30.203125 45.59375 
Q 24.40625 45.59375 19.953125 43.390625 
Q 15.5 41.203125 12.5 36.296875 
L 12.296875 36.5 
Q 12.40625 40.59375 13.09375 45.296875 
Q 13.796875 50 15.640625 54.046875 
Q 17.5 58.09375 20.796875 60.75 
Q 24.09375 63.40625 29.5 63.40625 
Q 34.59375 63.40625 37.6875 60.5 
Q 40.796875 57.59375 41.40625 52.796875 
z
M 28.59375 38.09375 
Q 32.203125 38.09375 34.890625 36.796875 
Q 37.59375 35.5 39.390625 33.34375 
Q 41.203125 31.203125 42.046875 28.25 
Q 42.90625 25.296875 42.90625 22 
Q 42.90625 18.90625 41.953125 16.046875 
Q 41 13.203125 39.203125 11 
Q 37.40625 8.796875 34.75 7.546875 
Q 32.09375 6.296875 28.59375 6.296875 
Q 25.09375 6.296875 22.34375 7.546875 
Q 19.59375 8.796875 17.75 10.890625 
Q 15.90625 13 14.90625 15.890625 
Q 13.90625 18.796875 13.90625 22.09375 
Q 13.90625 25.40625 14.84375 28.34375 
Q 15.796875 31.296875 17.6875 33.4375 
Q 19.59375 35.59375 22.296875 36.84375 
Q 25 38.09375 28.59375 38.09375 
z
" id="HelveticaNeue-54"/>
      </defs>
      <g transform="translate(130.27625 138.4125)scale(0.08 -0.08)">
       <use xlink:href="#HelveticaNeue-54"/>
      </g>
     </g>
    </g>
    <g id="xtick_5">
     <g id="line2d_9">
      <path clip-path="url(#pe182196fe2)" d="M 167.7 126.7 
L 167.7 21.1 
" style="fill:none;stroke:#000000;stroke-linecap:square;stroke-opacity:0.1;stroke-width:0.6;"/>
     </g>
     <g id="line2d_10">
      <g>
       <use style="stroke:#000000;stroke-width:0.6;" x="167.7" xlink:href="#m44665c0b71" y="126.7"/>
      </g>
     </g>
     <g id="text_5">
      <!-- 8 -->
      <defs>
       <path d="M 15.5 52.5 
Q 15.5 55.203125 16.5 57.203125 
Q 17.5 59.203125 19.140625 60.59375 
Q 20.796875 62 23.09375 62.703125 
Q 25.40625 63.40625 27.90625 63.40625 
Q 33.09375 63.40625 36.4375 60.65625 
Q 39.796875 57.90625 39.796875 52.5 
Q 39.796875 47.09375 36.5 44.09375 
Q 33.203125 41.09375 28.09375 41.09375 
Q 25.5 41.09375 23.203125 41.796875 
Q 20.90625 42.5 19.203125 43.890625 
Q 17.5 45.296875 16.5 47.4375 
Q 15.5 49.59375 15.5 52.5 
z
M 6.5 52.796875 
Q 6.5 48 9.203125 43.953125 
Q 11.90625 39.90625 16.40625 38.09375 
Q 10.40625 36 7.203125 31.34375 
Q 4 26.703125 4 20.40625 
Q 4 15 5.84375 10.953125 
Q 7.703125 6.90625 10.953125 4.203125 
Q 14.203125 1.5 18.59375 0.203125 
Q 23 -1.09375 28.09375 -1.09375 
Q 33 -1.09375 37.296875 0.296875 
Q 41.59375 1.703125 44.75 4.453125 
Q 47.90625 7.203125 49.75 11.203125 
Q 51.59375 15.203125 51.59375 20.40625 
Q 51.59375 27 48.5 31.546875 
Q 45.40625 36.09375 39 38.09375 
Q 43.5 40.09375 46.140625 44.046875 
Q 48.796875 48 48.796875 52.796875 
Q 48.796875 56.203125 47.59375 59.453125 
Q 46.40625 62.703125 43.84375 65.25 
Q 41.296875 67.796875 37.1875 69.34375 
Q 33.09375 70.90625 27.296875 70.90625 
Q 23.203125 70.90625 19.453125 69.703125 
Q 15.703125 68.5 12.796875 66.203125 
Q 9.90625 63.90625 8.203125 60.546875 
Q 6.5 57.203125 6.5 52.796875 
z
M 13 20 
Q 13 23.09375 14.140625 25.59375 
Q 15.296875 28.09375 17.34375 29.890625 
Q 19.40625 31.703125 22.15625 32.640625 
Q 24.90625 33.59375 28 33.59375 
Q 31 33.59375 33.640625 32.546875 
Q 36.296875 31.5 38.296875 29.703125 
Q 40.296875 27.90625 41.4375 25.453125 
Q 42.59375 23 42.59375 20.09375 
Q 42.59375 17.09375 41.546875 14.59375 
Q 40.5 12.09375 38.546875 10.25 
Q 36.59375 8.40625 33.9375 7.34375 
Q 31.296875 6.296875 28.09375 6.296875 
Q 21.5 6.296875 17.25 9.9375 
Q 13 13.59375 13 20 
z
" id="HelveticaNeue-56"/>
      </defs>
      <g transform="translate(165.47625 138.4125)scale(0.08 -0.08)">
       <use xlink:href="#HelveticaNeue-56"/>
      </g>
     </g>
    </g>
    <g id="xtick_6">
     <g id="line2d_11">
      <defs>
       <path d="M 0 0 
L 0 2 
" id="m20fd7f39a6" style="stroke:#000000;stroke-width:0.48;"/>
      </defs>
      <g>
       <use style="stroke:#000000;stroke-width:0.48;" x="35.7" xlink:href="#m20fd7f39a6" y="126.7"/>
      </g>
     </g>
    </g>
    <g id="xtick_7">
     <g id="line2d_12">
      <g>
       <use style="stroke:#000000;stroke-width:0.48;" x="44.5" xlink:href="#m20fd7f39a6" y="126.7"/>
      </g>
     </g>
    </g>
    <g id="xtick_8">
     <g id="line2d_13">
      <g>
       <use style="stroke:#000000;stroke-width:0.48;" x="53.3" xlink:href="#m20fd7f39a6" y="126.7"/>
      </g>
     </g>
    </g>
    <g id="xtick_9">
     <g id="line2d_14">
      <g>
       <use style="stroke:#000000;stroke-width:0.48;" x="70.9" xlink:href="#m20fd7f39a6" y="126.7"/>
      </g>
     </g>
    </g>
    <g id="xtick_10">
     <g id="line2d_15">
      <g>
       <use style="stroke:#000000;stroke-width:0.48;" x="79.7" xlink:href="#m20fd7f39a6" y="126.7"/>
      </g>
     </g>
    </g>
    <g id="xtick_11">
     <g id="line2d_16">
      <g>
       <use style="stroke:#000000;stroke-width:0.48;" x="88.5" xlink:href="#m20fd7f39a6" y="126.7"/>
      </g>
     </g>
    </g>
    <g id="xtick_12">
     <g id="line2d_17">
      <g>
       <use style="stroke:#000000;stroke-width:0.48;" x="106.1" xlink:href="#m20fd7f39a6" y="126.7"/>
      </g>
     </g>
    </g>
    <g id="xtick_13">
     <g id="line2d_18">
      <g>
       <use style="stroke:#000000;stroke-width:0.48;" x="114.9" xlink:href="#m20fd7f39a6" y="126.7"/>
      </g>
     </g>
    </g>
    <g id="xtick_14">
     <g id="line2d_19">
      <g>
       <use style="stroke:#000000;stroke-width:0.48;" x="123.7" xlink:href="#m20fd7f39a6" y="126.7"/>
      </g>
     </g>
    </g>
    <g id="xtick_15">
     <g id="line2d_20">
      <g>
       <use style="stroke:#000000;stroke-width:0.48;" x="141.3" xlink:href="#m20fd7f39a6" y="126.7"/>
      </g>
     </g>
    </g>
    <g id="xtick_16">
     <g id="line2d_21">
      <g>
       <use style="stroke:#000000;stroke-width:0.48;" x="150.1" xlink:href="#m20fd7f39a6" y="126.7"/>
      </g>
     </g>
    </g>
    <g id="xtick_17">
     <g id="line2d_22">
      <g>
       <use style="stroke:#000000;stroke-width:0.48;" x="158.9" xlink:href="#m20fd7f39a6" y="126.7"/>
      </g>
     </g>
    </g>
    <g id="xtick_18">
     <g id="line2d_23">
      <g>
       <use style="stroke:#000000;stroke-width:0.48;" x="176.5" xlink:href="#m20fd7f39a6" y="126.7"/>
      </g>
     </g>
    </g>
    <g id="xtick_19">
     <g id="line2d_24">
      <g>
       <use style="stroke:#000000;stroke-width:0.48;" x="185.3" xlink:href="#m20fd7f39a6" y="126.7"/>
      </g>
     </g>
    </g>
   </g>
   <g id="matplotlib.axis_2">
    <g id="ytick_1">
     <g id="line2d_25">
      <path clip-path="url(#pe182196fe2)" d="M 26.9 116.727159 
L 185.3 116.727159 
" style="fill:none;stroke:#000000;stroke-linecap:square;stroke-opacity:0.1;stroke-width:0.6;"/>
     </g>
     <g id="line2d_26">
      <defs>
       <path d="M 0 0 
L -4 0 
" id="ma4269a1e72" style="stroke:#000000;stroke-width:0.6;"/>
      </defs>
      <g>
       <use style="stroke:#000000;stroke-width:0.6;" x="26.9" xlink:href="#ma4269a1e72" y="116.727159"/>
      </g>
     </g>
     <g id="text_6">
      <!-- −20 -->
      <defs>
       <path d="M 4.796875 28.703125 
L 4.796875 21.90625 
L 55.203125 21.90625 
L 55.203125 28.703125 
z
" id="HelveticaNeue-8722"/>
      </defs>
      <g transform="translate(7.205 119.583409)scale(0.08 -0.08)">
       <use xlink:href="#HelveticaNeue-8722"/>
       <use x="59.999985" xlink:href="#HelveticaNeue-50"/>
       <use x="115.599976" xlink:href="#HelveticaNeue-48"/>
      </g>
     </g>
    </g>
    <g id="ytick_2">
     <g id="line2d_27">
      <path clip-path="url(#pe182196fe2)" d="M 26.9 82.699258 
L 185.3 82.699258 
" style="fill:none;stroke:#000000;stroke-linecap:square;stroke-opacity:0.1;stroke-width:0.6;"/>
     </g>
     <g id="line2d_28">
      <g>
       <use style="stroke:#000000;stroke-width:0.6;" x="26.9" xlink:href="#ma4269a1e72" y="82.699258"/>
      </g>
     </g>
     <g id="text_7">
      <!-- 0 -->
      <g transform="translate(16.4525 85.555508)scale(0.08 -0.08)">
       <use xlink:href="#HelveticaNeue-48"/>
      </g>
     </g>
    </g>
    <g id="ytick_3">
     <g id="line2d_29">
      <path clip-path="url(#pe182196fe2)" d="M 26.9 48.671357 
L 185.3 48.671357 
" style="fill:none;stroke:#000000;stroke-linecap:square;stroke-opacity:0.1;stroke-width:0.6;"/>
     </g>
     <g id="line2d_30">
      <g>
       <use style="stroke:#000000;stroke-width:0.6;" x="26.9" xlink:href="#ma4269a1e72" y="48.671357"/>
      </g>
     </g>
     <g id="text_8">
      <!-- 20 -->
      <g transform="translate(12.005 51.527607)scale(0.08 -0.08)">
       <use xlink:href="#HelveticaNeue-50"/>
       <use x="55.599991" xlink:href="#HelveticaNeue-48"/>
      </g>
     </g>
    </g>
    <g id="ytick_4">
     <g id="line2d_31">
      <defs>
       <path d="M 0 0 
L -2 0 
" id="m3a8a65464d" style="stroke:#000000;stroke-width:0.48;"/>
      </defs>
      <g>
       <use style="stroke:#000000;stroke-width:0.48;" x="26.9" xlink:href="#m3a8a65464d" y="125.234134"/>
      </g>
     </g>
    </g>
    <g id="ytick_5">
     <g id="line2d_32">
      <g>
       <use style="stroke:#000000;stroke-width:0.48;" x="26.9" xlink:href="#m3a8a65464d" y="108.220184"/>
      </g>
     </g>
    </g>
    <g id="ytick_6">
     <g id="line2d_33">
      <g>
       <use style="stroke:#000000;stroke-width:0.48;" x="26.9" xlink:href="#m3a8a65464d" y="99.713208"/>
      </g>
     </g>
    </g>
    <g id="ytick_7">
     <g id="line2d_34">
      <g>
       <use style="stroke:#000000;stroke-width:0.48;" x="26.9" xlink:href="#m3a8a65464d" y="91.206233"/>
      </g>
     </g>
    </g>
    <g id="ytick_8">
     <g id="line2d_35">
      <g>
       <use style="stroke:#000000;stroke-width:0.48;" x="26.9" xlink:href="#m3a8a65464d" y="74.192283"/>
      </g>
     </g>
    </g>
    <g id="ytick_9">
     <g id="line2d_36">
      <g>
       <use style="stroke:#000000;stroke-width:0.48;" x="26.9" xlink:href="#m3a8a65464d" y="65.685307"/>
      </g>
     </g>
    </g>
    <g id="ytick_10">
     <g id="line2d_37">
      <g>
       <use style="stroke:#000000;stroke-width:0.48;" x="26.9" xlink:href="#m3a8a65464d" y="57.178332"/>
      </g>
     </g>
    </g>
    <g id="ytick_11">
     <g id="line2d_38">
      <g>
       <use style="stroke:#000000;stroke-width:0.48;" x="26.9" xlink:href="#m3a8a65464d" y="40.164382"/>
      </g>
     </g>
    </g>
    <g id="ytick_12">
     <g id="line2d_39">
      <g>
       <use style="stroke:#000000;stroke-width:0.48;" x="26.9" xlink:href="#m3a8a65464d" y="31.657406"/>
      </g>
     </g>
    </g>
    <g id="ytick_13">
     <g id="line2d_40">
      <g>
       <use style="stroke:#000000;stroke-width:0.48;" x="26.9" xlink:href="#m3a8a65464d" y="23.150431"/>
      </g>
     </g>
    </g>
   </g>
   <g id="line2d_41">
    <path clip-path="url(#pe182196fe2)" d="M 26.9 82.638402 
L 44.5 97.496271 
L 62.1 83.998225 
L 79.7 78.423914 
L 97.3 77.350477 
L 114.9 87.653087 
L 132.5 104.282149 
L 150.1 112.940541 
L 167.7 97.428026 
L 185.3 89.193436 
" style="fill:none;stroke:#e2e2ef;stroke-linecap:square;stroke-width:5;"/>
   </g>
   <g id="line2d_42">
    <path clip-path="url(#pe182196fe2)" d="M 26.9 66.216815 
L 44.5 65.648996 
L 62.1 54.669008 
L 79.7 47.485006 
L 97.3 42.37613 
L 114.9 47.895382 
L 132.5 57.244064 
L 150.1 48.080718 
L 167.7 64.326708 
L 185.3 76.22896 
" style="fill:none;stroke:#b6b6d8;stroke-linecap:square;stroke-width:5;"/>
   </g>
   <g id="line2d_43">
    <path clip-path="url(#pe182196fe2)" d="M 26.9 87.555013 
L 44.5 70.916095 
L 62.1 86.567755 
L 79.7 101.148596 
L 97.3 111.549265 
L 114.9 110.171048 
L 132.5 126.7 
L 150.1 122.166026 
L 167.7 108.840818 
L 185.3 106.317681 
" style="fill:none;stroke:#8682bd;stroke-linecap:square;stroke-width:5;"/>
   </g>
   <g id="line2d_44">
    <path clip-path="url(#pe182196fe2)" d="M 26.9 65.900142 
L 44.5 56.730471 
L 62.1 62.209071 
L 79.7 48.522945 
L 97.3 31.5838 
L 114.9 24.966852 
L 132.5 21.1 
L 150.1 22.630496 
L 167.7 30.53553 
L 185.3 25.965531 
" style="fill:none;stroke:#613f9b;stroke-linecap:square;stroke-width:5;"/>
   </g>
   <g id="line2d_45">
    <path clip-path="url(#pe182196fe2)" d="M 26.9 92.522989 
L 44.5 98.656874 
L 62.1 93.618879 
L 79.7 93.507758 
L 97.3 94.241668 
L 114.9 99.274775 
L 132.5 103.22586 
L 150.1 87.147449 
L 167.7 87.784772 
L 185.3 78.576189 
" style="fill:none;stroke:#3f007d;stroke-linecap:square;stroke-width:5;"/>
   </g>
   <g id="patch_3">
    <path d="M 26.9 126.7 
L 26.9 21.1 
" style="fill:none;stroke:#000000;stroke-linecap:square;stroke-linejoin:miter;stroke-width:0.6;"/>
   </g>
   <g id="patch_4">
    <path d="M 185.3 126.7 
L 185.3 21.1 
" style="fill:none;stroke:#000000;stroke-linecap:square;stroke-linejoin:miter;stroke-width:0.6;"/>
   </g>
   <g id="patch_5">
    <path d="M 26.9 126.7 
L 185.3 126.7 
" style="fill:none;stroke:#000000;stroke-linecap:square;stroke-linejoin:miter;stroke-width:0.6;"/>
   </g>
   <g id="patch_6">
    <path d="M 26.9 21.1 
L 185.3 21.1 
" style="fill:none;stroke:#000000;stroke-linecap:square;stroke-linejoin:miter;stroke-width:0.6;"/>
   </g>
  </g>
  <g id="axes_2">
   <g id="patch_7">
    <path d="M 215.4 126.7 
L 373.8 126.7 
L 373.8 21.1 
L 215.4 21.1 
z
" style="fill:#ffffff;"/>
   </g>
   <g id="matplotlib.axis_3">
    <g id="xtick_20">
     <g id="line2d_46">
      <path clip-path="url(#p66cd9a86e3)" d="M 215.4 126.7 
L 215.4 21.1 
" style="fill:none;stroke:#000000;stroke-linecap:square;stroke-opacity:0.1;stroke-width:0.6;"/>
     </g>
     <g id="line2d_47">
      <g>
       <use style="stroke:#000000;stroke-width:0.6;" x="215.4" xlink:href="#m44665c0b71" y="126.7"/>
      </g>
     </g>
     <g id="text_9">
      <!-- 0 -->
      <g transform="translate(213.17625 138.4125)scale(0.08 -0.08)">
       <use xlink:href="#HelveticaNeue-48"/>
      </g>
     </g>
    </g>
    <g id="xtick_21">
     <g id="line2d_48">
      <path clip-path="url(#p66cd9a86e3)" d="M 250.6 126.7 
L 250.6 21.1 
" style="fill:none;stroke:#000000;stroke-linecap:square;stroke-opacity:0.1;stroke-width:0.6;"/>
     </g>
     <g id="line2d_49">
      <g>
       <use style="stroke:#000000;stroke-width:0.6;" x="250.6" xlink:href="#m44665c0b71" y="126.7"/>
      </g>
     </g>
     <g id="text_10">
      <!-- 2 -->
      <g transform="translate(248.37625 138.4125)scale(0.08 -0.08)">
       <use xlink:href="#HelveticaNeue-50"/>
      </g>
     </g>
    </g>
    <g id="xtick_22">
     <g id="line2d_50">
      <path clip-path="url(#p66cd9a86e3)" d="M 285.8 126.7 
L 285.8 21.1 
" style="fill:none;stroke:#000000;stroke-linecap:square;stroke-opacity:0.1;stroke-width:0.6;"/>
     </g>
     <g id="line2d_51">
      <g>
       <use style="stroke:#000000;stroke-width:0.6;" x="285.8" xlink:href="#m44665c0b71" y="126.7"/>
      </g>
     </g>
     <g id="text_11">
      <!-- 4 -->
      <g transform="translate(283.57625 138.4125)scale(0.08 -0.08)">
       <use xlink:href="#HelveticaNeue-52"/>
      </g>
     </g>
    </g>
    <g id="xtick_23">
     <g id="line2d_52">
      <path clip-path="url(#p66cd9a86e3)" d="M 321 126.7 
L 321 21.1 
" style="fill:none;stroke:#000000;stroke-linecap:square;stroke-opacity:0.1;stroke-width:0.6;"/>
     </g>
     <g id="line2d_53">
      <g>
       <use style="stroke:#000000;stroke-width:0.6;" x="321" xlink:href="#m44665c0b71" y="126.7"/>
      </g>
     </g>
     <g id="text_12">
      <!-- 6 -->
      <g transform="translate(318.77625 138.4125)scale(0.08 -0.08)">
       <use xlink:href="#HelveticaNeue-54"/>
      </g>
     </g>
    </g>
    <g id="xtick_24">
     <g id="line2d_54">
      <path clip-path="url(#p66cd9a86e3)" d="M 356.2 126.7 
L 356.2 21.1 
" style="fill:none;stroke:#000000;stroke-linecap:square;stroke-opacity:0.1;stroke-width:0.6;"/>
     </g>
     <g id="line2d_55">
      <g>
       <use style="stroke:#000000;stroke-width:0.6;" x="356.2" xlink:href="#m44665c0b71" y="126.7"/>
      </g>
     </g>
     <g id="text_13">
      <!-- 8 -->
      <g transform="translate(353.97625 138.4125)scale(0.08 -0.08)">
       <use xlink:href="#HelveticaNeue-56"/>
      </g>
     </g>
    </g>
    <g id="xtick_25">
     <g id="line2d_56">
      <g>
       <use style="stroke:#000000;stroke-width:0.48;" x="224.2" xlink:href="#m20fd7f39a6" y="126.7"/>
      </g>
     </g>
    </g>
    <g id="xtick_26">
     <g id="line2d_57">
      <g>
       <use style="stroke:#000000;stroke-width:0.48;" x="233" xlink:href="#m20fd7f39a6" y="126.7"/>
      </g>
     </g>
    </g>
    <g id="xtick_27">
     <g id="line2d_58">
      <g>
       <use style="stroke:#000000;stroke-width:0.48;" x="241.8" xlink:href="#m20fd7f39a6" y="126.7"/>
      </g>
     </g>
    </g>
    <g id="xtick_28">
     <g id="line2d_59">
      <g>
       <use style="stroke:#000000;stroke-width:0.48;" x="259.4" xlink:href="#m20fd7f39a6" y="126.7"/>
      </g>
     </g>
    </g>
    <g id="xtick_29">
     <g id="line2d_60">
      <g>
       <use style="stroke:#000000;stroke-width:0.48;" x="268.2" xlink:href="#m20fd7f39a6" y="126.7"/>
      </g>
     </g>
    </g>
    <g id="xtick_30">
     <g id="line2d_61">
      <g>
       <use style="stroke:#000000;stroke-width:0.48;" x="277" xlink:href="#m20fd7f39a6" y="126.7"/>
      </g>
     </g>
    </g>
    <g id="xtick_31">
     <g id="line2d_62">
      <g>
       <use style="stroke:#000000;stroke-width:0.48;" x="294.6" xlink:href="#m20fd7f39a6" y="126.7"/>
      </g>
     </g>
    </g>
    <g id="xtick_32">
     <g id="line2d_63">
      <g>
       <use style="stroke:#000000;stroke-width:0.48;" x="303.4" xlink:href="#m20fd7f39a6" y="126.7"/>
      </g>
     </g>
    </g>
    <g id="xtick_33">
     <g id="line2d_64">
      <g>
       <use style="stroke:#000000;stroke-width:0.48;" x="312.2" xlink:href="#m20fd7f39a6" y="126.7"/>
      </g>
     </g>
    </g>
    <g id="xtick_34">
     <g id="line2d_65">
      <g>
       <use style="stroke:#000000;stroke-width:0.48;" x="329.8" xlink:href="#m20fd7f39a6" y="126.7"/>
      </g>
     </g>
    </g>
    <g id="xtick_35">
     <g id="line2d_66">
      <g>
       <use style="stroke:#000000;stroke-width:0.48;" x="338.6" xlink:href="#m20fd7f39a6" y="126.7"/>
      </g>
     </g>
    </g>
    <g id="xtick_36">
     <g id="line2d_67">
      <g>
       <use style="stroke:#000000;stroke-width:0.48;" x="347.4" xlink:href="#m20fd7f39a6" y="126.7"/>
      </g>
     </g>
    </g>
    <g id="xtick_37">
     <g id="line2d_68">
      <g>
       <use style="stroke:#000000;stroke-width:0.48;" x="365" xlink:href="#m20fd7f39a6" y="126.7"/>
      </g>
     </g>
    </g>
    <g id="xtick_38">
     <g id="line2d_69">
      <g>
       <use style="stroke:#000000;stroke-width:0.48;" x="373.8" xlink:href="#m20fd7f39a6" y="126.7"/>
      </g>
     </g>
    </g>
   </g>
   <g id="matplotlib.axis_4">
    <g id="ytick_14">
     <g id="line2d_70">
      <path clip-path="url(#p66cd9a86e3)" d="M 215.4 113.597954 
L 373.8 113.597954 
" style="fill:none;stroke:#000000;stroke-linecap:square;stroke-opacity:0.1;stroke-width:0.6;"/>
     </g>
     <g id="line2d_71">
      <g>
       <use style="stroke:#000000;stroke-width:0.6;" x="215.4" xlink:href="#ma4269a1e72" y="113.597954"/>
      </g>
     </g>
     <g id="text_14">
      <!-- −20 -->
      <g transform="translate(195.705 116.454204)scale(0.08 -0.08)">
       <use xlink:href="#HelveticaNeue-8722"/>
       <use x="59.999985" xlink:href="#HelveticaNeue-50"/>
       <use x="115.599976" xlink:href="#HelveticaNeue-48"/>
      </g>
     </g>
    </g>
    <g id="ytick_15">
     <g id="line2d_72">
      <path clip-path="url(#p66cd9a86e3)" d="M 215.4 80.683547 
L 373.8 80.683547 
" style="fill:none;stroke:#000000;stroke-linecap:square;stroke-opacity:0.1;stroke-width:0.6;"/>
     </g>
     <g id="line2d_73">
      <g>
       <use style="stroke:#000000;stroke-width:0.6;" x="215.4" xlink:href="#ma4269a1e72" y="80.683547"/>
      </g>
     </g>
     <g id="text_15">
      <!-- 0 -->
      <g transform="translate(204.9525 83.539797)scale(0.08 -0.08)">
       <use xlink:href="#HelveticaNeue-48"/>
      </g>
     </g>
    </g>
    <g id="ytick_16">
     <g id="line2d_74">
      <path clip-path="url(#p66cd9a86e3)" d="M 215.4 47.76914 
L 373.8 47.76914 
" style="fill:none;stroke:#000000;stroke-linecap:square;stroke-opacity:0.1;stroke-width:0.6;"/>
     </g>
     <g id="line2d_75">
      <g>
       <use style="stroke:#000000;stroke-width:0.6;" x="215.4" xlink:href="#ma4269a1e72" y="47.76914"/>
      </g>
     </g>
     <g id="text_16">
      <!-- 20 -->
      <g transform="translate(200.505 50.62539)scale(0.08 -0.08)">
       <use xlink:href="#HelveticaNeue-50"/>
       <use x="55.599991" xlink:href="#HelveticaNeue-48"/>
      </g>
     </g>
    </g>
    <g id="ytick_17">
     <g id="line2d_76">
      <g>
       <use style="stroke:#000000;stroke-width:0.48;" x="215.4" xlink:href="#m3a8a65464d" y="121.826556"/>
      </g>
     </g>
    </g>
    <g id="ytick_18">
     <g id="line2d_77">
      <g>
       <use style="stroke:#000000;stroke-width:0.48;" x="215.4" xlink:href="#m3a8a65464d" y="105.369352"/>
      </g>
     </g>
    </g>
    <g id="ytick_19">
     <g id="line2d_78">
      <g>
       <use style="stroke:#000000;stroke-width:0.48;" x="215.4" xlink:href="#m3a8a65464d" y="97.140751"/>
      </g>
     </g>
    </g>
    <g id="ytick_20">
     <g id="line2d_79">
      <g>
       <use style="stroke:#000000;stroke-width:0.48;" x="215.4" xlink:href="#m3a8a65464d" y="88.912149"/>
      </g>
     </g>
    </g>
    <g id="ytick_21">
     <g id="line2d_80">
      <g>
       <use style="stroke:#000000;stroke-width:0.48;" x="215.4" xlink:href="#m3a8a65464d" y="72.454945"/>
      </g>
     </g>
    </g>
    <g id="ytick_22">
     <g id="line2d_81">
      <g>
       <use style="stroke:#000000;stroke-width:0.48;" x="215.4" xlink:href="#m3a8a65464d" y="64.226344"/>
      </g>
     </g>
    </g>
    <g id="ytick_23">
     <g id="line2d_82">
      <g>
       <use style="stroke:#000000;stroke-width:0.48;" x="215.4" xlink:href="#m3a8a65464d" y="55.997742"/>
      </g>
     </g>
    </g>
    <g id="ytick_24">
     <g id="line2d_83">
      <g>
       <use style="stroke:#000000;stroke-width:0.48;" x="215.4" xlink:href="#m3a8a65464d" y="39.540538"/>
      </g>
     </g>
    </g>
    <g id="ytick_25">
     <g id="line2d_84">
      <g>
       <use style="stroke:#000000;stroke-width:0.48;" x="215.4" xlink:href="#m3a8a65464d" y="31.311937"/>
      </g>
     </g>
    </g>
    <g id="ytick_26">
     <g id="line2d_85">
      <g>
       <use style="stroke:#000000;stroke-width:0.48;" x="215.4" xlink:href="#m3a8a65464d" y="23.083335"/>
      </g>
     </g>
    </g>
   </g>
   <g id="line2d_86">
    <path clip-path="url(#p66cd9a86e3)" d="M 215.4 80.624683 
L 233 94.996358 
L 250.6 81.940008 
L 268.2 76.548106 
L 285.8 75.509794 
L 303.4 85.475273 
L 321 101.560182 
L 338.6 109.935246 
L 356.2 94.930346 
L 373.8 86.965217 
" style="fill:none;stroke:#e3eef9;stroke-linecap:square;stroke-width:5;"/>
   </g>
   <g id="line2d_87">
    <path clip-path="url(#p66cd9a86e3)" d="M 215.4 64.740459 
L 233 64.19122 
L 250.6 53.57053 
L 268.2 46.62161 
L 285.8 41.679912 
L 303.4 47.018557 
L 321 56.061323 
L 338.6 47.197828 
L 356.2 62.912202 
L 373.8 74.424977 
" style="fill:none;stroke:#c9ddf0;stroke-linecap:square;stroke-width:5;"/>
   </g>
   <g id="line2d_88">
    <path clip-path="url(#p66cd9a86e3)" d="M 215.4 85.380408 
L 233 69.285964 
L 250.6 84.425455 
L 268.2 98.529168 
L 285.8 108.589496 
L 303.4 107.256379 
L 321 123.244454 
L 338.6 118.858845 
L 356.2 105.969678 
L 373.8 103.529105 
" style="fill:none;stroke:#a0cbe2;stroke-linecap:square;stroke-width:5;"/>
   </g>
   <g id="line2d_89">
    <path clip-path="url(#p66cd9a86e3)" d="M 215.4 64.434148 
L 233 55.564536 
L 250.6 60.86386 
L 268.2 47.625585 
L 285.8 31.240739 
L 303.4 24.840317 
L 321 21.1 
L 338.6 22.580414 
L 356.2 30.226771 
L 373.8 25.806316 
" style="fill:none;stroke:#69add5;stroke-linecap:square;stroke-width:5;"/>
   </g>
   <g id="line2d_90">
    <path clip-path="url(#p66cd9a86e3)" d="M 215.4 90.185817 
L 233 96.118982 
L 250.6 91.245845 
L 268.2 91.138361 
L 285.8 91.848255 
L 303.4 96.716664 
L 321 100.538458 
L 338.6 84.98618 
L 356.2 85.602648 
L 373.8 76.695398 
" style="fill:none;stroke:#3e8ec4;stroke-linecap:square;stroke-width:5;"/>
   </g>
   <g id="line2d_91">
    <path clip-path="url(#p66cd9a86e3)" d="M 215.4 90.400901 
L 233 81.175985 
L 250.6 68.447715 
L 268.2 60.424679 
L 285.8 74.861618 
L 303.4 59.077349 
L 321 59.46474 
L 338.6 71.687756 
L 356.2 77.041577 
L 373.8 81.632141 
" style="fill:none;stroke:#1c6ab0;stroke-linecap:square;stroke-width:5;"/>
   </g>
   <g id="line2d_92">
    <path clip-path="url(#p66cd9a86e3)" d="M 215.4 70.576218 
L 233 62.617536 
L 250.6 54.184265 
L 268.2 59.554235 
L 285.8 44.710806 
L 303.4 59.914784 
L 321 50.321981 
L 338.6 34.177104 
L 356.2 28.598661 
L 373.8 42.037047 
" style="fill:none;stroke:#08488e;stroke-linecap:square;stroke-width:5;"/>
   </g>
   <g id="line2d_93">
    <path clip-path="url(#p66cd9a86e3)" d="M 215.4 95.156748 
L 233 87.582226 
L 250.6 94.92668 
L 268.2 102.562275 
L 285.8 112.070767 
L 303.4 96.600209 
L 321 84.653637 
L 338.6 97.269174 
L 356.2 111.327078 
L 373.8 101.02488 
" style="fill:none;stroke:#fedbcb;stroke-linecap:square;stroke-width:5;"/>
   </g>
   <g id="line2d_94">
    <path clip-path="url(#p66cd9a86e3)" d="M 215.4 88.071579 
L 233 82.151072 
L 250.6 88.473596 
L 268.2 79.190828 
L 285.8 70.381372 
L 303.4 76.665582 
L 321 89.227232 
L 338.6 98.966544 
L 356.2 83.257902 
L 373.8 81.036045 
" style="fill:none;stroke:#fcb195;stroke-linecap:square;stroke-width:5;"/>
   </g>
   <g id="line2d_95">
    <path clip-path="url(#p66cd9a86e3)" d="M 215.4 83.069944 
L 233 97.177543 
L 250.6 100.728501 
L 268.2 85.493889 
L 285.8 93.039726 
L 303.4 104.188247 
L 321 90.452649 
L 338.6 90.624298 
L 356.2 82.344545 
L 373.8 66.865491 
" style="fill:none;stroke:#fc8565;stroke-linecap:square;stroke-width:5;"/>
   </g>
   <g id="line2d_96">
    <path clip-path="url(#p66cd9a86e3)" d="M 215.4 77.255524 
L 233 67.300676 
L 250.6 80.588118 
L 268.2 89.655833 
L 285.8 105.970779 
L 303.4 108.243127 
L 321 122.715256 
L 338.6 117.100454 
L 356.2 106.967664 
L 373.8 107.125132 
" style="fill:none;stroke:#f6573e;stroke-linecap:square;stroke-width:5;"/>
   </g>
   <g id="line2d_97">
    <path clip-path="url(#p66cd9a86e3)" d="M 215.4 76.463213 
L 233 71.559256 
L 250.6 77.746646 
L 268.2 89.645756 
L 285.8 91.587911 
L 303.4 97.06234 
L 321 100.938978 
L 338.6 104.598861 
L 356.2 93.734243 
L 373.8 101.451303 
" style="fill:none;stroke:#de2a25;stroke-linecap:square;stroke-width:5;"/>
   </g>
   <g id="line2d_98">
    <path clip-path="url(#p66cd9a86e3)" d="M 215.4 76.003316 
L 233 90.563691 
L 250.6 80.698844 
L 268.2 68.737064 
L 285.8 70.226429 
L 303.4 61.718022 
L 321 63.392088 
L 338.6 60.374807 
L 356.2 69.186158 
L 373.8 77.158903 
" style="fill:none;stroke:#b61319;stroke-linecap:square;stroke-width:5;"/>
   </g>
   <g id="line2d_99">
    <path clip-path="url(#p66cd9a86e3)" d="M 215.4 93.44235 
L 233 77.185083 
L 250.6 65.172017 
L 268.2 77.674859 
L 285.8 85.080889 
L 303.4 78.048232 
L 321 83.544581 
L 338.6 82.620393 
L 356.2 94.134855 
L 373.8 107.65464 
" style="fill:none;stroke:#7d0510;stroke-linecap:square;stroke-width:5;"/>
   </g>
   <g id="line2d_100">
    <path clip-path="url(#p66cd9a86e3)" d="M 215.4 85.358879 
L 233 79.118777 
L 250.6 63.167304 
L 268.2 57.778338 
L 285.8 46.378964 
L 303.4 47.543084 
L 321 61.49148 
L 338.6 47.395804 
L 356.2 53.387364 
L 373.8 53.353649 
" style="fill:none;stroke:#fddab7;stroke-linecap:square;stroke-width:5;"/>
   </g>
   <g id="line2d_101">
    <path clip-path="url(#p66cd9a86e3)" d="M 215.4 76.031744 
L 233 77.879847 
L 250.6 80.909345 
L 268.2 94.821242 
L 285.8 95.541009 
L 303.4 92.845967 
L 321 89.341071 
L 338.6 102.279839 
L 356.2 96.846284 
L 373.8 81.4221 
" style="fill:none;stroke:#fdbb80;stroke-linecap:square;stroke-width:5;"/>
   </g>
   <g id="line2d_102">
    <path clip-path="url(#p66cd9a86e3)" d="M 215.4 76.486945 
L 233 86.638723 
L 250.6 86.650477 
L 268.2 96.773196 
L 285.8 86.209029 
L 303.4 90.814845 
L 321 92.425696 
L 338.6 87.637195 
L 356.2 92.884426 
L 373.8 91.562103 
" style="fill:none;stroke:#fd974b;stroke-linecap:square;stroke-width:5;"/>
   </g>
   <g id="line2d_103">
    <path clip-path="url(#p66cd9a86e3)" d="M 215.4 79.539297 
L 233 82.015419 
L 250.6 92.22582 
L 268.2 84.857285 
L 285.8 74.654777 
L 303.4 64.256458 
L 321 79.202796 
L 338.6 92.36169 
L 356.2 77.799442 
L 373.8 78.325852 
" style="fill:none;stroke:#f4721d;stroke-linecap:square;stroke-width:5;"/>
   </g>
   <g id="line2d_104">
    <path clip-path="url(#p66cd9a86e3)" d="M 215.4 82.252803 
L 233 81.879521 
L 250.6 81.254922 
L 268.2 88.231527 
L 285.8 81.739725 
L 303.4 83.907004 
L 321 80.571316 
L 338.6 81.670969 
L 356.2 83.651123 
L 373.8 81.534925 
" style="fill:none;stroke:#dc4d04;stroke-linecap:square;stroke-width:5;"/>
   </g>
   <g id="line2d_105">
    <path clip-path="url(#p66cd9a86e3)" d="M 215.4 87.955391 
L 233 72.851584 
L 250.6 89.061659 
L 268.2 92.463159 
L 285.8 91.586321 
L 303.4 101.229084 
L 321 105.193102 
L 338.6 121.184847 
L 356.2 126.7 
L 373.8 112.969467 
" style="fill:none;stroke:#aa3703;stroke-linecap:square;stroke-width:5;"/>
   </g>
   <g id="line2d_106">
    <path clip-path="url(#p66cd9a86e3)" d="M 215.4 85.170902 
L 233 91.497582 
L 250.6 89.774019 
L 268.2 86.59466 
L 285.8 86.500283 
L 303.4 92.326755 
L 321 91.524859 
L 338.6 95.518823 
L 356.2 96.387973 
L 373.8 83.607923 
" style="fill:none;stroke:#7f2704;stroke-linecap:square;stroke-width:5;"/>
   </g>
   <g id="patch_8">
    <path d="M 215.4 126.7 
L 215.4 21.1 
" style="fill:none;stroke:#000000;stroke-linecap:square;stroke-linejoin:miter;stroke-width:0.6;"/>
   </g>
   <g id="patch_9">
    <path d="M 373.8 126.7 
L 373.8 21.1 
" style="fill:none;stroke:#000000;stroke-linecap:square;stroke-linejoin:miter;stroke-width:0.6;"/>
   </g>
   <g id="patch_10">
    <path d="M 215.4 126.7 
L 373.8 126.7 
" style="fill:none;stroke:#000000;stroke-linecap:square;stroke-linejoin:miter;stroke-width:0.6;"/>
   </g>
   <g id="patch_11">
    <path d="M 215.4 21.1 
L 373.8 21.1 
" style="fill:none;stroke:#000000;stroke-linecap:square;stroke-linejoin:miter;stroke-width:0.6;"/>
   </g>
  </g>
  <g id="axes_3">
   <g id="patch_12">
    <path d="M 26.9 162.54 
L 185.3 162.54 
L 185.3 150.3 
L 26.9 150.3 
z
" style="fill:none;opacity:0;"/>
   </g>
  </g>
  <g id="axes_4">
   <g id="patch_13">
    <path d="M 215.4 162.54 
L 373.8 162.54 
L 373.8 150.3 
L 215.4 150.3 
z
" style="fill:none;opacity:0;"/>
   </g>
  </g>
  <g id="axes_5">
   <g id="patch_14">
    <path clip-path="url(#pd316e6f461)" d="M 26.9 162.54 
L 58.58 162.54 
L 153.62 162.54 
L 185.3 162.54 
L 185.3 150.3 
L 153.62 150.3 
L 58.58 150.3 
L 26.9 150.3 
z
" style="fill:#ffffff;stroke:#ffffff;stroke-linejoin:miter;stroke-width:0.01;"/>
   </g>
   <g id="PathCollection_1">
    <defs>
     <path d="M 185.3 -30.6 
L 185.3 -42.84 
L 26.9 -42.84 
L 26.9 -30.6 
z
" id="m2ac08be903" style="stroke:#e2e2ef;stroke-width:0.4;"/>
    </defs>
    <g clip-path="url(#pd316e6f461)">
     <use style="fill:#e2e2ef;stroke:#e2e2ef;stroke-width:0.4;" x="0" xlink:href="#m2ac08be903" y="193.14"/>
    </g>
   </g>
   <g id="PathCollection_2"/>
   <g id="PathCollection_3"/>
   <g id="PathCollection_4"/>
   <g id="PathCollection_5"/>
   <g id="QuadMesh_1">
    <path clip-path="url(#pd316e6f461)" d="M 26.9 162.54 
L 58.58 162.54 
L 58.58 150.3 
L 26.9 150.3 
L 26.9 162.54 
" style="fill:#e2e2ef;stroke:#e2e2ef;stroke-width:0.4;"/>
    <path clip-path="url(#pd316e6f461)" d="M 58.58 162.54 
L 90.26 162.54 
L 90.26 150.3 
L 58.58 150.3 
L 58.58 162.54 
" style="fill:#b6b6d8;stroke:#b6b6d8;stroke-width:0.4;"/>
    <path clip-path="url(#pd316e6f461)" d="M 90.26 162.54 
L 121.94 162.54 
L 121.94 150.3 
L 90.26 150.3 
L 90.26 162.54 
" style="fill:#8682bd;stroke:#8682bd;stroke-width:0.4;"/>
    <path clip-path="url(#pd316e6f461)" d="M 121.94 162.54 
L 153.62 162.54 
L 153.62 150.3 
L 121.94 150.3 
L 121.94 162.54 
" style="fill:#613f9b;stroke:#613f9b;stroke-width:0.4;"/>
    <path clip-path="url(#pd316e6f461)" d="M 153.62 162.54 
L 185.3 162.54 
L 185.3 150.3 
L 153.62 150.3 
L 153.62 162.54 
" style="fill:#3f007d;stroke:#3f007d;stroke-width:0.4;"/>
   </g>
   <g id="matplotlib.axis_5">
    <g id="xtick_39">
     <g id="line2d_107">
      <g>
       <use style="stroke:#000000;stroke-width:0.6;" x="42.74" xlink:href="#m44665c0b71" y="162.54"/>
      </g>
     </g>
     <g id="text_17">
      <!-- 0 -->
      <g transform="translate(40.51625 174.2525)scale(0.08 -0.08)">
       <use xlink:href="#HelveticaNeue-48"/>
      </g>
     </g>
    </g>
    <g id="xtick_40">
     <g id="line2d_108">
      <g>
       <use style="stroke:#000000;stroke-width:0.6;" x="74.42" xlink:href="#m44665c0b71" y="162.54"/>
      </g>
     </g>
     <g id="text_18">
      <!-- 1 -->
      <defs>
       <path d="M 35.59375 0 
L 35.59375 70.90625 
L 29.09375 70.90625 
Q 28.40625 66.90625 26.5 64.296875 
Q 24.59375 61.703125 21.84375 60.203125 
Q 19.09375 58.703125 15.6875 58.140625 
Q 12.296875 57.59375 8.703125 57.59375 
L 8.703125 50.796875 
L 27.09375 50.796875 
L 27.09375 0 
z
" id="HelveticaNeue-49"/>
      </defs>
      <g transform="translate(72.19625 174.2525)scale(0.08 -0.08)">
       <use xlink:href="#HelveticaNeue-49"/>
      </g>
     </g>
    </g>
    <g id="xtick_41">
     <g id="line2d_109">
      <g>
       <use style="stroke:#000000;stroke-width:0.6;" x="106.1" xlink:href="#m44665c0b71" y="162.54"/>
      </g>
     </g>
     <g id="text_19">
      <!-- 2 -->
      <g transform="translate(103.87625 174.2525)scale(0.08 -0.08)">
       <use xlink:href="#HelveticaNeue-50"/>
      </g>
     </g>
    </g>
    <g id="xtick_42">
     <g id="line2d_110">
      <g>
       <use style="stroke:#000000;stroke-width:0.6;" x="137.78" xlink:href="#m44665c0b71" y="162.54"/>
      </g>
     </g>
     <g id="text_20">
      <!-- 3 -->
      <defs>
       <path d="M 21.796875 40.5 
L 21.796875 33.296875 
Q 24.203125 33.59375 26.90625 33.59375 
Q 30.09375 33.59375 32.84375 32.75 
Q 35.59375 31.90625 37.59375 30.15625 
Q 39.59375 28.40625 40.796875 25.84375 
Q 42 23.296875 42 20 
Q 42 16.796875 40.75 14.25 
Q 39.5 11.703125 37.390625 9.953125 
Q 35.296875 8.203125 32.5 7.25 
Q 29.703125 6.296875 26.59375 6.296875 
Q 19.296875 6.296875 15.5 10.640625 
Q 11.703125 15 11.5 21.90625 
L 3 21.90625 
Q 2.90625 16.40625 4.546875 12.09375 
Q 6.203125 7.796875 9.296875 4.84375 
Q 12.40625 1.90625 16.796875 0.40625 
Q 21.203125 -1.09375 26.59375 -1.09375 
Q 31.59375 -1.09375 36.046875 0.25 
Q 40.5 1.59375 43.796875 4.296875 
Q 47.09375 7 49.046875 11.046875 
Q 51 15.09375 51 20.40625 
Q 51 26.796875 47.84375 31.5 
Q 44.703125 36.203125 38.203125 37.59375 
L 38.203125 37.796875 
Q 42.40625 39.703125 45.203125 43.390625 
Q 48 47.09375 48 51.90625 
Q 48 56.796875 46.34375 60.390625 
Q 44.703125 64 41.796875 66.296875 
Q 38.90625 68.59375 34.953125 69.75 
Q 31 70.90625 26.40625 70.90625 
Q 21.09375 70.90625 17.046875 69.203125 
Q 13 67.5 10.296875 64.5 
Q 7.59375 61.5 6.140625 57.296875 
Q 4.703125 53.09375 4.5 48 
L 13 48 
Q 13 51.09375 13.796875 53.890625 
Q 14.59375 56.703125 16.25 58.796875 
Q 17.90625 60.90625 20.453125 62.15625 
Q 23 63.40625 26.40625 63.40625 
Q 31.796875 63.40625 35.390625 60.546875 
Q 39 57.703125 39 52 
Q 39 49.203125 37.890625 47 
Q 36.796875 44.796875 34.9375 43.34375 
Q 33.09375 41.90625 30.640625 41.15625 
Q 28.203125 40.40625 25.5 40.40625 
L 23.703125 40.40625 
Q 23.203125 40.40625 22.703125 40.40625 
Q 22.296875 40.40625 21.796875 40.5 
z
" id="HelveticaNeue-51"/>
      </defs>
      <g transform="translate(135.55625 174.2525)scale(0.08 -0.08)">
       <use xlink:href="#HelveticaNeue-51"/>
      </g>
     </g>
    </g>
    <g id="xtick_43">
     <g id="line2d_111">
      <g>
       <use style="stroke:#000000;stroke-width:0.6;" x="169.46" xlink:href="#m44665c0b71" y="162.54"/>
      </g>
     </g>
     <g id="text_21">
      <!-- 4 -->
      <g transform="translate(167.23625 174.2525)scale(0.08 -0.08)">
       <use xlink:href="#HelveticaNeue-52"/>
      </g>
     </g>
    </g>
    <g id="text_22">
     <!-- clabel -->
     <defs>
      <path d="M 41.5 35.09375 
L 50.296875 35.09375 
Q 49.796875 39.703125 47.890625 43.046875 
Q 46 46.40625 43.046875 48.59375 
Q 40.09375 50.796875 36.25 51.84375 
Q 32.40625 52.90625 28 52.90625 
Q 21.90625 52.90625 17.296875 50.75 
Q 12.703125 48.59375 9.640625 44.84375 
Q 6.59375 41.09375 5.09375 36.046875 
Q 3.59375 31 3.59375 25.203125 
Q 3.59375 19.40625 5.140625 14.546875 
Q 6.703125 9.703125 9.75 6.203125 
Q 12.796875 2.703125 17.34375 0.796875 
Q 21.90625 -1.09375 27.796875 -1.09375 
Q 37.703125 -1.09375 43.453125 4.09375 
Q 49.203125 9.296875 50.59375 18.90625 
L 41.90625 18.90625 
Q 41.09375 12.90625 37.546875 9.59375 
Q 34 6.296875 27.703125 6.296875 
Q 23.703125 6.296875 20.796875 7.890625 
Q 17.90625 9.5 16.09375 12.140625 
Q 14.296875 14.796875 13.4375 18.1875 
Q 12.59375 21.59375 12.59375 25.203125 
Q 12.59375 29.09375 13.390625 32.75 
Q 14.203125 36.40625 16.046875 39.203125 
Q 17.90625 42 21 43.703125 
Q 24.09375 45.40625 28.703125 45.40625 
Q 34.09375 45.40625 37.296875 42.703125 
Q 40.5 40 41.5 35.09375 
z
" id="HelveticaNeue-99"/>
      <path d="M 6.90625 71.40625 
L 6.90625 0 
L 15.40625 0 
L 15.40625 71.40625 
z
" id="HelveticaNeue-108"/>
      <path d="M 52.203125 0.203125 
Q 50 -1.09375 46.09375 -1.09375 
Q 42.796875 -1.09375 40.84375 0.75 
Q 38.90625 2.59375 38.90625 6.796875 
Q 35.40625 2.59375 30.75 0.75 
Q 26.09375 -1.09375 20.703125 -1.09375 
Q 17.203125 -1.09375 14.046875 -0.296875 
Q 10.90625 0.5 8.59375 2.203125 
Q 6.296875 3.90625 4.9375 6.65625 
Q 3.59375 9.40625 3.59375 13.296875 
Q 3.59375 17.703125 5.09375 20.5 
Q 6.59375 23.296875 9.046875 25.046875 
Q 11.5 26.796875 14.640625 27.6875 
Q 17.796875 28.59375 21.09375 29.203125 
Q 24.59375 29.90625 27.75 30.25 
Q 30.90625 30.59375 33.296875 31.25 
Q 35.703125 31.90625 37.09375 33.15625 
Q 38.5 34.40625 38.5 36.796875 
Q 38.5 39.59375 37.453125 41.296875 
Q 36.40625 43 34.75 43.890625 
Q 33.09375 44.796875 31.046875 45.09375 
Q 29 45.40625 27 45.40625 
Q 21.59375 45.40625 18 43.34375 
Q 14.40625 41.296875 14.09375 35.59375 
L 5.59375 35.59375 
Q 5.796875 40.40625 7.59375 43.703125 
Q 9.40625 47 12.40625 49.046875 
Q 15.40625 51.09375 19.25 52 
Q 23.09375 52.90625 27.5 52.90625 
Q 31 52.90625 34.453125 52.40625 
Q 37.90625 51.90625 40.703125 50.34375 
Q 43.5 48.796875 45.203125 46 
Q 46.90625 43.203125 46.90625 38.703125 
L 46.90625 12.09375 
Q 46.90625 9.09375 47.25 7.6875 
Q 47.59375 6.296875 49.59375 6.296875 
Q 50.703125 6.296875 52.203125 6.796875 
z
M 38.40625 26.703125 
Q 36.796875 25.5 34.1875 24.953125 
Q 31.59375 24.40625 28.75 24.046875 
Q 25.90625 23.703125 23 23.25 
Q 20.09375 22.796875 17.796875 21.796875 
Q 15.5 20.796875 14.046875 18.9375 
Q 12.59375 17.09375 12.59375 13.90625 
Q 12.59375 11.796875 13.4375 10.34375 
Q 14.296875 8.90625 15.640625 8 
Q 17 7.09375 18.796875 6.6875 
Q 20.59375 6.296875 22.59375 6.296875 
Q 26.796875 6.296875 29.796875 7.4375 
Q 32.796875 8.59375 34.6875 10.34375 
Q 36.59375 12.09375 37.5 14.140625 
Q 38.40625 16.203125 38.40625 18 
z
" id="HelveticaNeue-97"/>
      <path d="M 6.703125 71.40625 
L 6.703125 0 
L 15.203125 0 
L 15.203125 6.90625 
L 15.40625 6.90625 
Q 16.796875 4.59375 18.84375 3.046875 
Q 20.90625 1.5 23.203125 0.59375 
Q 25.5 -0.296875 27.84375 -0.6875 
Q 30.203125 -1.09375 32.09375 -1.09375 
Q 38 -1.09375 42.453125 1 
Q 46.90625 3.09375 49.84375 6.75 
Q 52.796875 10.40625 54.25 15.296875 
Q 55.703125 20.203125 55.703125 25.703125 
Q 55.703125 31.203125 54.203125 36.09375 
Q 52.703125 41 49.75 44.75 
Q 46.796875 48.5 42.34375 50.703125 
Q 37.90625 52.90625 31.90625 52.90625 
Q 26.5 52.90625 22 50.953125 
Q 17.5 49 15.40625 44.703125 
L 15.203125 44.703125 
L 15.203125 71.40625 
z
M 46.703125 26.296875 
Q 46.703125 22.5 45.890625 18.890625 
Q 45.09375 15.296875 43.296875 12.5 
Q 41.5 9.703125 38.546875 8 
Q 35.59375 6.296875 31.203125 6.296875 
Q 26.796875 6.296875 23.6875 7.9375 
Q 20.59375 9.59375 18.640625 12.296875 
Q 16.703125 15 15.796875 18.546875 
Q 14.90625 22.09375 14.90625 25.90625 
Q 14.90625 29.5 15.75 33 
Q 16.59375 36.5 18.5 39.25 
Q 20.40625 42 23.40625 43.703125 
Q 26.40625 45.40625 30.703125 45.40625 
Q 34.796875 45.40625 37.84375 43.796875 
Q 40.90625 42.203125 42.84375 39.5 
Q 44.796875 36.796875 45.75 33.34375 
Q 46.703125 29.90625 46.703125 26.296875 
z
" id="HelveticaNeue-98"/>
      <path d="M 42.296875 30.796875 
L 12.59375 30.796875 
Q 12.796875 33.796875 13.890625 36.4375 
Q 15 39.09375 16.890625 41.09375 
Q 18.796875 43.09375 21.4375 44.25 
Q 24.09375 45.40625 27.40625 45.40625 
Q 30.59375 45.40625 33.25 44.25 
Q 35.90625 43.09375 37.84375 41.140625 
Q 39.796875 39.203125 40.9375 36.5 
Q 42.09375 33.796875 42.296875 30.796875 
z
M 50.5 16.40625 
L 42.09375 16.40625 
Q 41 11.296875 37.546875 8.796875 
Q 34.09375 6.296875 28.703125 6.296875 
Q 24.5 6.296875 21.390625 7.6875 
Q 18.296875 9.09375 16.296875 11.4375 
Q 14.296875 13.796875 13.390625 16.84375 
Q 12.5 19.90625 12.59375 23.296875 
L 51.296875 23.296875 
Q 51.5 28 50.453125 33.203125 
Q 49.40625 38.40625 46.65625 42.796875 
Q 43.90625 47.203125 39.34375 50.046875 
Q 34.796875 52.90625 27.90625 52.90625 
Q 22.59375 52.90625 18.140625 50.90625 
Q 13.703125 48.90625 10.453125 45.296875 
Q 7.203125 41.703125 5.390625 36.796875 
Q 3.59375 31.90625 3.59375 26 
Q 3.796875 20.09375 5.34375 15.09375 
Q 6.90625 10.09375 10 6.5 
Q 13.09375 2.90625 17.640625 0.90625 
Q 22.203125 -1.09375 28.40625 -1.09375 
Q 37.203125 -1.09375 43 3.296875 
Q 48.796875 7.703125 50.5 16.40625 
z
" id="HelveticaNeue-101"/>
     </defs>
     <g transform="translate(95.5075 184.54125)scale(0.08 -0.08)">
      <use xlink:href="#HelveticaNeue-99"/>
      <use x="53.699997" xlink:href="#HelveticaNeue-108"/>
      <use x="75.899994" xlink:href="#HelveticaNeue-97"/>
      <use x="129.599991" xlink:href="#HelveticaNeue-98"/>
      <use x="188.899979" xlink:href="#HelveticaNeue-101"/>
      <use x="242.599976" xlink:href="#HelveticaNeue-108"/>
     </g>
    </g>
   </g>
   <g id="matplotlib.axis_6"/>
   <g id="patch_15">
    <path d="M 26.9 162.54 
L 58.58 162.54 
L 153.62 162.54 
L 185.3 162.54 
L 185.3 150.3 
L 153.62 150.3 
L 58.58 150.3 
L 26.9 150.3 
z
" style="fill:none;stroke:#000000;stroke-linejoin:miter;stroke-width:0.6;"/>
   </g>
  </g>
  <g id="axes_6">
   <g id="patch_16">
    <path clip-path="url(#p47eb75f35f)" d="M 215.4 162.54 
L 222.942857 162.54 
L 366.257143 162.54 
L 373.8 162.54 
L 373.8 150.3 
L 366.257143 150.3 
L 222.942857 150.3 
L 215.4 150.3 
z
" style="fill:#ffffff;stroke:#ffffff;stroke-linejoin:miter;stroke-width:0.01;"/>
   </g>
   <g id="PathCollection_6">
    <defs>
     <path d="M 373.8 -30.6 
L 373.8 -42.84 
L 215.4 -42.84 
L 215.4 -30.6 
z
" id="m6626adf92d" style="stroke:#e3eef9;stroke-width:0.4;"/>
    </defs>
    <g clip-path="url(#p47eb75f35f)">
     <use style="fill:#e3eef9;stroke:#e3eef9;stroke-width:0.4;" x="0" xlink:href="#m6626adf92d" y="193.14"/>
    </g>
   </g>
   <g id="PathCollection_7"/>
   <g id="PathCollection_8"/>
   <g id="PathCollection_9"/>
   <g id="PathCollection_10"/>
   <g id="PathCollection_11"/>
   <g id="PathCollection_12"/>
   <g id="PathCollection_13"/>
   <g id="PathCollection_14"/>
   <g id="PathCollection_15"/>
   <g id="PathCollection_16"/>
   <g id="PathCollection_17"/>
   <g id="PathCollection_18"/>
   <g id="PathCollection_19"/>
   <g id="PathCollection_20"/>
   <g id="PathCollection_21"/>
   <g id="PathCollection_22"/>
   <g id="PathCollection_23"/>
   <g id="PathCollection_24"/>
   <g id="PathCollection_25"/>
   <g id="PathCollection_26"/>
   <g id="QuadMesh_2">
    <path clip-path="url(#p47eb75f35f)" d="M 215.4 162.54 
L 222.942857 162.54 
L 222.942857 150.3 
L 215.4 150.3 
L 215.4 162.54 
" style="fill:#e3eef9;stroke:#e3eef9;stroke-width:0.4;"/>
    <path clip-path="url(#p47eb75f35f)" d="M 222.942857 162.54 
L 230.485714 162.54 
L 230.485714 150.3 
L 222.942857 150.3 
L 222.942857 162.54 
" style="fill:#c9ddf0;stroke:#c9ddf0;stroke-width:0.4;"/>
    <path clip-path="url(#p47eb75f35f)" d="M 230.485714 162.54 
L 238.028571 162.54 
L 238.028571 150.3 
L 230.485714 150.3 
L 230.485714 162.54 
" style="fill:#a0cbe2;stroke:#a0cbe2;stroke-width:0.4;"/>
    <path clip-path="url(#p47eb75f35f)" d="M 238.028571 162.54 
L 245.571429 162.54 
L 245.571429 150.3 
L 238.028571 150.3 
L 238.028571 162.54 
" style="fill:#69add5;stroke:#69add5;stroke-width:0.4;"/>
    <path clip-path="url(#p47eb75f35f)" d="M 245.571429 162.54 
L 253.114286 162.54 
L 253.114286 150.3 
L 245.571429 150.3 
L 245.571429 162.54 
" style="fill:#3e8ec4;stroke:#3e8ec4;stroke-width:0.4;"/>
    <path clip-path="url(#p47eb75f35f)" d="M 253.114286 162.54 
L 260.657143 162.54 
L 260.657143 150.3 
L 253.114286 150.3 
L 253.114286 162.54 
" style="fill:#1c6ab0;stroke:#1c6ab0;stroke-width:0.4;"/>
    <path clip-path="url(#p47eb75f35f)" d="M 260.657143 162.54 
L 268.2 162.54 
L 268.2 150.3 
L 260.657143 150.3 
L 260.657143 162.54 
" style="fill:#08488e;stroke:#08488e;stroke-width:0.4;"/>
    <path clip-path="url(#p47eb75f35f)" d="M 268.2 162.54 
L 275.742857 162.54 
L 275.742857 150.3 
L 268.2 150.3 
L 268.2 162.54 
" style="fill:#fedbcb;stroke:#fedbcb;stroke-width:0.4;"/>
    <path clip-path="url(#p47eb75f35f)" d="M 275.742857 162.54 
L 283.285714 162.54 
L 283.285714 150.3 
L 275.742857 150.3 
L 275.742857 162.54 
" style="fill:#fcb195;stroke:#fcb195;stroke-width:0.4;"/>
    <path clip-path="url(#p47eb75f35f)" d="M 283.285714 162.54 
L 290.828571 162.54 
L 290.828571 150.3 
L 283.285714 150.3 
L 283.285714 162.54 
" style="fill:#fc8565;stroke:#fc8565;stroke-width:0.4;"/>
    <path clip-path="url(#p47eb75f35f)" d="M 290.828571 162.54 
L 298.371429 162.54 
L 298.371429 150.3 
L 290.828571 150.3 
L 290.828571 162.54 
" style="fill:#f6573e;stroke:#f6573e;stroke-width:0.4;"/>
    <path clip-path="url(#p47eb75f35f)" d="M 298.371429 162.54 
L 305.914286 162.54 
L 305.914286 150.3 
L 298.371429 150.3 
L 298.371429 162.54 
" style="fill:#de2a25;stroke:#de2a25;stroke-width:0.4;"/>
    <path clip-path="url(#p47eb75f35f)" d="M 305.914286 162.54 
L 313.457143 162.54 
L 313.457143 150.3 
L 305.914286 150.3 
L 305.914286 162.54 
" style="fill:#b61319;stroke:#b61319;stroke-width:0.4;"/>
    <path clip-path="url(#p47eb75f35f)" d="M 313.457143 162.54 
L 321 162.54 
L 321 150.3 
L 313.457143 150.3 
L 313.457143 162.54 
" style="fill:#7d0510;stroke:#7d0510;stroke-width:0.4;"/>
    <path clip-path="url(#p47eb75f35f)" d="M 321 162.54 
L 328.542857 162.54 
L 328.542857 150.3 
L 321 150.3 
L 321 162.54 
" style="fill:#fddab7;stroke:#fddab7;stroke-width:0.4;"/>
    <path clip-path="url(#p47eb75f35f)" d="M 328.542857 162.54 
L 336.085714 162.54 
L 336.085714 150.3 
L 328.542857 150.3 
L 328.542857 162.54 
" style="fill:#fdbb80;stroke:#fdbb80;stroke-width:0.4;"/>
    <path clip-path="url(#p47eb75f35f)" d="M 336.085714 162.54 
L 343.628571 162.54 
L 343.628571 150.3 
L 336.085714 150.3 
L 336.085714 162.54 
" style="fill:#fd974b;stroke:#fd974b;stroke-width:0.4;"/>
    <path clip-path="url(#p47eb75f35f)" d="M 343.628571 162.54 
L 351.171429 162.54 
L 351.171429 150.3 
L 343.628571 150.3 
L 343.628571 162.54 
" style="fill:#f4721d;stroke:#f4721d;stroke-width:0.4;"/>
    <path clip-path="url(#p47eb75f35f)" d="M 351.171429 162.54 
L 358.714286 162.54 
L 358.714286 150.3 
L 351.171429 150.3 
L 351.171429 162.54 
" style="fill:#dc4d04;stroke:#dc4d04;stroke-width:0.4;"/>
    <path clip-path="url(#p47eb75f35f)" d="M 358.714286 162.54 
L 366.257143 162.54 
L 366.257143 150.3 
L 358.714286 150.3 
L 358.714286 162.54 
" style="fill:#aa3703;stroke:#aa3703;stroke-width:0.4;"/>
    <path clip-path="url(#p47eb75f35f)" d="M 366.257143 162.54 
L 373.8 162.54 
L 373.8 150.3 
L 366.257143 150.3 
L 366.257143 162.54 
" style="fill:#7f2704;stroke:#7f2704;stroke-width:0.4;"/>
   </g>
   <g id="matplotlib.axis_7">
    <g id="xtick_44">
     <g id="line2d_112">
      <g>
       <use style="stroke:#000000;stroke-width:0.6;" x="219.171429" xlink:href="#m44665c0b71" y="162.54"/>
      </g>
     </g>
     <g id="text_23">
      <!-- 0 -->
      <g transform="translate(216.947679 174.2525)scale(0.08 -0.08)">
       <use xlink:href="#HelveticaNeue-48"/>
      </g>
     </g>
    </g>
    <g id="xtick_45">
     <g id="line2d_113">
      <g>
       <use style="stroke:#000000;stroke-width:0.6;" x="234.257143" xlink:href="#m44665c0b71" y="162.54"/>
      </g>
     </g>
     <g id="text_24">
      <!-- 2 -->
      <g transform="translate(232.033393 174.2525)scale(0.08 -0.08)">
       <use xlink:href="#HelveticaNeue-50"/>
      </g>
     </g>
    </g>
    <g id="xtick_46">
     <g id="line2d_114">
      <g>
       <use style="stroke:#000000;stroke-width:0.6;" x="249.342857" xlink:href="#m44665c0b71" y="162.54"/>
      </g>
     </g>
     <g id="text_25">
      <!-- 4 -->
      <g transform="translate(247.119107 174.2525)scale(0.08 -0.08)">
       <use xlink:href="#HelveticaNeue-52"/>
      </g>
     </g>
    </g>
    <g id="xtick_47">
     <g id="line2d_115">
      <g>
       <use style="stroke:#000000;stroke-width:0.6;" x="264.428571" xlink:href="#m44665c0b71" y="162.54"/>
      </g>
     </g>
     <g id="text_26">
      <!-- 6 -->
      <g transform="translate(262.204821 174.2525)scale(0.08 -0.08)">
       <use xlink:href="#HelveticaNeue-54"/>
      </g>
     </g>
    </g>
    <g id="xtick_48">
     <g id="line2d_116">
      <g>
       <use style="stroke:#000000;stroke-width:0.6;" x="279.514286" xlink:href="#m44665c0b71" y="162.54"/>
      </g>
     </g>
     <g id="text_27">
      <!-- 8 -->
      <g transform="translate(277.290536 174.2525)scale(0.08 -0.08)">
       <use xlink:href="#HelveticaNeue-56"/>
      </g>
     </g>
    </g>
    <g id="xtick_49">
     <g id="line2d_117">
      <g>
       <use style="stroke:#000000;stroke-width:0.6;" x="294.6" xlink:href="#m44665c0b71" y="162.54"/>
      </g>
     </g>
     <g id="text_28">
      <!-- 10 -->
      <g transform="translate(290.1525 174.2525)scale(0.08 -0.08)">
       <use xlink:href="#HelveticaNeue-49"/>
       <use x="55.599991" xlink:href="#HelveticaNeue-48"/>
      </g>
     </g>
    </g>
    <g id="xtick_50">
     <g id="line2d_118">
      <g>
       <use style="stroke:#000000;stroke-width:0.6;" x="309.685714" xlink:href="#m44665c0b71" y="162.54"/>
      </g>
     </g>
     <g id="text_29">
      <!-- 12 -->
      <g transform="translate(305.238214 174.2525)scale(0.08 -0.08)">
       <use xlink:href="#HelveticaNeue-49"/>
       <use x="55.599991" xlink:href="#HelveticaNeue-50"/>
      </g>
     </g>
    </g>
    <g id="xtick_51">
     <g id="line2d_119">
      <g>
       <use style="stroke:#000000;stroke-width:0.6;" x="324.771429" xlink:href="#m44665c0b71" y="162.54"/>
      </g>
     </g>
     <g id="text_30">
      <!-- 14 -->
      <g transform="translate(320.323929 174.2525)scale(0.08 -0.08)">
       <use xlink:href="#HelveticaNeue-49"/>
       <use x="55.599991" xlink:href="#HelveticaNeue-52"/>
      </g>
     </g>
    </g>
    <g id="xtick_52">
     <g id="line2d_120">
      <g>
       <use style="stroke:#000000;stroke-width:0.6;" x="339.857143" xlink:href="#m44665c0b71" y="162.54"/>
      </g>
     </g>
     <g id="text_31">
      <!-- 16 -->
      <g transform="translate(335.409643 174.2525)scale(0.08 -0.08)">
       <use xlink:href="#HelveticaNeue-49"/>
       <use x="55.599991" xlink:href="#HelveticaNeue-54"/>
      </g>
     </g>
    </g>
    <g id="xtick_53">
     <g id="line2d_121">
      <g>
       <use style="stroke:#000000;stroke-width:0.6;" x="354.942857" xlink:href="#m44665c0b71" y="162.54"/>
      </g>
     </g>
     <g id="text_32">
      <!-- 18 -->
      <g transform="translate(350.495357 174.2525)scale(0.08 -0.08)">
       <use xlink:href="#HelveticaNeue-49"/>
       <use x="55.599991" xlink:href="#HelveticaNeue-56"/>
      </g>
     </g>
    </g>
    <g id="xtick_54">
     <g id="line2d_122">
      <g>
       <use style="stroke:#000000;stroke-width:0.6;" x="370.028571" xlink:href="#m44665c0b71" y="162.54"/>
      </g>
     </g>
     <g id="text_33">
      <!-- 20 -->
      <g transform="translate(365.581071 174.2525)scale(0.08 -0.08)">
       <use xlink:href="#HelveticaNeue-50"/>
       <use x="55.599991" xlink:href="#HelveticaNeue-48"/>
      </g>
     </g>
    </g>
    <g id="text_34">
     <!-- clabel -->
     <g transform="translate(284.0075 184.54125)scale(0.08 -0.08)">
      <use xlink:href="#HelveticaNeue-99"/>
      <use x="53.699997" xlink:href="#HelveticaNeue-108"/>
      <use x="75.899994" xlink:href="#HelveticaNeue-97"/>
      <use x="129.599991" xlink:href="#HelveticaNeue-98"/>
      <use x="188.899979" xlink:href="#HelveticaNeue-101"/>
      <use x="242.599976" xlink:href="#HelveticaNeue-108"/>
     </g>
    </g>
   </g>
   <g id="matplotlib.axis_8"/>
   <g id="patch_17">
    <path d="M 215.4 162.54 
L 222.942857 162.54 
L 366.257143 162.54 
L 373.8 162.54 
L 373.8 150.3 
L 366.257143 150.3 
L 222.942857 150.3 
L 215.4 150.3 
z
" style="fill:none;stroke:#000000;stroke-linejoin:miter;stroke-width:0.6;"/>
   </g>
  </g>
  <g id="text_35">
   <!-- Color cycles from colormaps -->
   <defs>
    <path d="M 54.5 47.40625 
L 69.703125 47.40625 
Q 69 53.59375 66.296875 58.390625 
Q 63.59375 63.203125 59.4375 66.453125 
Q 55.296875 69.703125 50.046875 71.390625 
Q 44.796875 73.09375 38.90625 73.09375 
Q 30.703125 73.09375 24.140625 70.1875 
Q 17.59375 67.296875 13.09375 62.1875 
Q 8.59375 57.09375 6.1875 50.25 
Q 3.796875 43.40625 3.796875 35.40625 
Q 3.796875 27.59375 6.1875 20.84375 
Q 8.59375 14.09375 13.09375 9.09375 
Q 17.59375 4.09375 24.140625 1.25 
Q 30.703125 -1.59375 38.90625 -1.59375 
Q 45.5 -1.59375 51 0.40625 
Q 56.5 2.40625 60.59375 6.203125 
Q 64.703125 10 67.203125 15.390625 
Q 69.703125 20.796875 70.296875 27.5 
L 55.09375 27.5 
Q 54.203125 20.296875 50.140625 15.890625 
Q 46.09375 11.5 38.90625 11.5 
Q 33.59375 11.5 29.890625 13.546875 
Q 26.203125 15.59375 23.890625 19 
Q 21.59375 22.40625 20.546875 26.65625 
Q 19.5 30.90625 19.5 35.40625 
Q 19.5 40.09375 20.546875 44.5 
Q 21.59375 48.90625 23.890625 52.34375 
Q 26.203125 55.796875 29.890625 57.84375 
Q 33.59375 59.90625 38.90625 59.90625 
Q 41.796875 59.90625 44.4375 58.953125 
Q 47.09375 58 49.1875 56.296875 
Q 51.296875 54.59375 52.6875 52.34375 
Q 54.09375 50.09375 54.5 47.40625 
z
" id="HelveticaNeue-Bold-67"/>
    <path d="M 18 25.796875 
Q 18 28.90625 18.59375 31.90625 
Q 19.203125 34.90625 20.640625 37.203125 
Q 22.09375 39.5 24.5 40.953125 
Q 26.90625 42.40625 30.5 42.40625 
Q 34.09375 42.40625 36.546875 40.953125 
Q 39 39.5 40.453125 37.203125 
Q 41.90625 34.90625 42.5 31.90625 
Q 43.09375 28.90625 43.09375 25.796875 
Q 43.09375 22.703125 42.5 19.75 
Q 41.90625 16.796875 40.453125 14.4375 
Q 39 12.09375 36.546875 10.6875 
Q 34.09375 9.296875 30.5 9.296875 
Q 26.90625 9.296875 24.5 10.6875 
Q 22.09375 12.09375 20.640625 14.4375 
Q 19.203125 16.796875 18.59375 19.75 
Q 18 22.703125 18 25.796875 
z
M 3.796875 25.796875 
Q 3.796875 19.59375 5.6875 14.59375 
Q 7.59375 9.59375 11.09375 6.046875 
Q 14.59375 2.5 19.5 0.59375 
Q 24.40625 -1.296875 30.5 -1.296875 
Q 36.59375 -1.296875 41.546875 0.59375 
Q 46.5 2.5 50 6.046875 
Q 53.5 9.59375 55.390625 14.59375 
Q 57.296875 19.59375 57.296875 25.796875 
Q 57.296875 32 55.390625 37.046875 
Q 53.5 42.09375 50 45.640625 
Q 46.5 49.203125 41.546875 51.140625 
Q 36.59375 53.09375 30.5 53.09375 
Q 24.40625 53.09375 19.5 51.140625 
Q 14.59375 49.203125 11.09375 45.640625 
Q 7.59375 42.09375 5.6875 37.046875 
Q 3.796875 32 3.796875 25.796875 
z
" id="HelveticaNeue-Bold-111"/>
    <path d="M 5.796875 71.40625 
L 5.796875 0 
L 20 0 
L 20 71.40625 
z
" id="HelveticaNeue-Bold-108"/>
    <path d="M 5.40625 51.703125 
L 5.40625 0 
L 19.59375 0 
L 19.59375 23.296875 
Q 19.59375 26.796875 20.296875 29.796875 
Q 21 32.796875 22.640625 35.046875 
Q 24.296875 37.296875 27 38.59375 
Q 29.703125 39.90625 33.59375 39.90625 
Q 34.90625 39.90625 36.296875 39.75 
Q 37.703125 39.59375 38.703125 39.40625 
L 38.703125 52.59375 
Q 37 53.09375 35.59375 53.09375 
Q 32.90625 53.09375 30.40625 52.296875 
Q 27.90625 51.5 25.703125 50.046875 
Q 23.5 48.59375 21.796875 46.546875 
Q 20.09375 44.5 19.09375 42.09375 
L 18.90625 42.09375 
L 18.90625 51.703125 
z
" id="HelveticaNeue-Bold-114"/>
    <path id="HelveticaNeue-Bold-32"/>
    <path d="M 40.59375 33.5 
L 54.5 33.5 
Q 54.203125 38.5 52.09375 42.140625 
Q 50 45.796875 46.640625 48.25 
Q 43.296875 50.703125 39.046875 51.890625 
Q 34.796875 53.09375 30.203125 53.09375 
Q 23.90625 53.09375 19 51 
Q 14.09375 48.90625 10.6875 45.15625 
Q 7.296875 41.40625 5.546875 36.25 
Q 3.796875 31.09375 3.796875 25.09375 
Q 3.796875 19.296875 5.6875 14.4375 
Q 7.59375 9.59375 11 6.09375 
Q 14.40625 2.59375 19.25 0.640625 
Q 24.09375 -1.296875 29.90625 -1.296875 
Q 40.203125 -1.296875 46.796875 4.09375 
Q 53.40625 9.5 54.796875 19.796875 
L 41.09375 19.796875 
Q 40.40625 15 37.65625 12.140625 
Q 34.90625 9.296875 29.796875 9.296875 
Q 26.5 9.296875 24.203125 10.796875 
Q 21.90625 12.296875 20.546875 14.640625 
Q 19.203125 17 18.59375 19.890625 
Q 18 22.796875 18 25.59375 
Q 18 28.5 18.59375 31.453125 
Q 19.203125 34.40625 20.640625 36.84375 
Q 22.09375 39.296875 24.390625 40.84375 
Q 26.703125 42.40625 30.09375 42.40625 
Q 39.203125 42.40625 40.59375 33.5 
z
" id="HelveticaNeue-Bold-99"/>
    <path d="M 30.90625 -6.40625 
L 52.5 51.703125 
L 37.796875 51.703125 
L 26.5 16.296875 
L 26.296875 16.296875 
L 14.59375 51.703125 
L -0.5 51.703125 
L 17.59375 3.203125 
Q 18.203125 1.703125 18.203125 0 
Q 18.203125 -2.296875 16.84375 -4.1875 
Q 15.5 -6.09375 12.703125 -6.40625 
Q 10.59375 -6.5 8.5 -6.296875 
Q 6.40625 -6.09375 4.40625 -5.90625 
L 4.40625 -17.59375 
Q 6.59375 -17.796875 8.75 -17.9375 
Q 10.90625 -18.09375 13.09375 -18.09375 
Q 20.40625 -18.09375 24.5 -15.390625 
Q 28.59375 -12.703125 30.90625 -6.40625 
z
" id="HelveticaNeue-Bold-121"/>
    <path d="M 40.203125 31.40625 
L 17.09375 31.40625 
Q 17.203125 32.90625 17.75 34.796875 
Q 18.296875 36.703125 19.640625 38.390625 
Q 21 40.09375 23.25 41.25 
Q 25.5 42.40625 28.90625 42.40625 
Q 34.09375 42.40625 36.640625 39.59375 
Q 39.203125 36.796875 40.203125 31.40625 
z
M 17.09375 22.40625 
L 54.40625 22.40625 
Q 54.796875 28.40625 53.390625 33.90625 
Q 52 39.40625 48.84375 43.703125 
Q 45.703125 48 40.796875 50.546875 
Q 35.90625 53.09375 29.296875 53.09375 
Q 23.40625 53.09375 18.546875 51 
Q 13.703125 48.90625 10.203125 45.25 
Q 6.703125 41.59375 4.796875 36.59375 
Q 2.90625 31.59375 2.90625 25.796875 
Q 2.90625 19.796875 4.75 14.796875 
Q 6.59375 9.796875 10 6.1875 
Q 13.40625 2.59375 18.296875 0.640625 
Q 23.203125 -1.296875 29.296875 -1.296875 
Q 38.09375 -1.296875 44.296875 2.703125 
Q 50.5 6.703125 53.5 16 
L 41 16 
Q 40.296875 13.59375 37.1875 11.4375 
Q 34.09375 9.296875 29.796875 9.296875 
Q 23.796875 9.296875 20.59375 12.390625 
Q 17.40625 15.5 17.09375 22.40625 
z
" id="HelveticaNeue-Bold-101"/>
    <path d="M 16.40625 16.796875 
L 2.90625 16.796875 
Q 3.09375 11.59375 5.25 8.140625 
Q 7.40625 4.703125 10.75 2.59375 
Q 14.09375 0.5 18.390625 -0.390625 
Q 22.703125 -1.296875 27.203125 -1.296875 
Q 31.59375 -1.296875 35.84375 -0.4375 
Q 40.09375 0.40625 43.390625 2.5 
Q 46.703125 4.59375 48.75 8.046875 
Q 50.796875 11.5 50.796875 16.59375 
Q 50.796875 20.203125 49.390625 22.640625 
Q 48 25.09375 45.703125 26.75 
Q 43.40625 28.40625 40.453125 29.40625 
Q 37.5 30.40625 34.40625 31.09375 
Q 31.40625 31.796875 28.5 32.390625 
Q 25.59375 33 23.34375 33.75 
Q 21.09375 34.5 19.6875 35.703125 
Q 18.296875 36.90625 18.296875 38.796875 
Q 18.296875 40.40625 19.09375 41.34375 
Q 19.90625 42.296875 21.046875 42.796875 
Q 22.203125 43.296875 23.59375 43.4375 
Q 25 43.59375 26.203125 43.59375 
Q 30 43.59375 32.796875 42.140625 
Q 35.59375 40.703125 35.90625 36.59375 
L 49.40625 36.59375 
Q 49 41.40625 46.953125 44.546875 
Q 44.90625 47.703125 41.796875 49.59375 
Q 38.703125 51.5 34.75 52.296875 
Q 30.796875 53.09375 26.59375 53.09375 
Q 22.40625 53.09375 18.40625 52.34375 
Q 14.40625 51.59375 11.203125 49.75 
Q 8 47.90625 6.046875 44.703125 
Q 4.09375 41.5 4.09375 36.5 
Q 4.09375 33.09375 5.5 30.75 
Q 6.90625 28.40625 9.203125 26.84375 
Q 11.5 25.296875 14.453125 24.34375 
Q 17.40625 23.40625 20.5 22.703125 
Q 28.09375 21.09375 32.34375 19.5 
Q 36.59375 17.90625 36.59375 14.703125 
Q 36.59375 12.796875 35.6875 11.546875 
Q 34.796875 10.296875 33.4375 9.546875 
Q 32.09375 8.796875 30.4375 8.4375 
Q 28.796875 8.09375 27.296875 8.09375 
Q 25.203125 8.09375 23.25 8.59375 
Q 21.296875 9.09375 19.796875 10.140625 
Q 18.296875 11.203125 17.34375 12.84375 
Q 16.40625 14.5 16.40625 16.796875 
z
" id="HelveticaNeue-Bold-115"/>
    <path d="M 8.5 42.203125 
L 8.5 0 
L 22.703125 0 
L 22.703125 42.203125 
L 32.5 42.203125 
L 32.5 51.703125 
L 22.703125 51.703125 
L 22.703125 54.796875 
Q 22.703125 58 23.953125 59.34375 
Q 25.203125 60.703125 28.09375 60.703125 
Q 30.796875 60.703125 33.296875 60.40625 
L 33.296875 71 
Q 31.5 71.09375 29.59375 71.25 
Q 27.703125 71.40625 25.796875 71.40625 
Q 17.09375 71.40625 12.796875 67 
Q 8.5 62.59375 8.5 55.703125 
L 8.5 51.703125 
L 0 51.703125 
L 0 42.203125 
z
" id="HelveticaNeue-Bold-102"/>
    <path d="M 5.796875 51.703125 
L 5.796875 0 
L 20 0 
L 20 30 
Q 20 33.796875 21.09375 36.140625 
Q 22.203125 38.5 23.75 39.75 
Q 25.296875 41 26.9375 41.453125 
Q 28.59375 41.90625 29.59375 41.90625 
Q 33 41.90625 34.75 40.75 
Q 36.5 39.59375 37.25 37.6875 
Q 38 35.796875 38.09375 33.546875 
Q 38.203125 31.296875 38.203125 29 
L 38.203125 0 
L 52.40625 0 
L 52.40625 28.796875 
Q 52.40625 31.203125 52.75 33.546875 
Q 53.09375 35.90625 54.140625 37.75 
Q 55.203125 39.59375 57.046875 40.75 
Q 58.90625 41.90625 61.90625 41.90625 
Q 64.90625 41.90625 66.65625 40.90625 
Q 68.40625 39.90625 69.296875 38.203125 
Q 70.203125 36.5 70.390625 34.203125 
Q 70.59375 31.90625 70.59375 29.296875 
L 70.59375 0 
L 84.796875 0 
L 84.796875 34.59375 
Q 84.796875 39.59375 83.390625 43.140625 
Q 82 46.703125 79.5 48.890625 
Q 77 51.09375 73.5 52.09375 
Q 70 53.09375 65.90625 53.09375 
Q 60.5 53.09375 56.546875 50.5 
Q 52.59375 47.90625 50.296875 44.5 
Q 48.203125 49.296875 44.140625 51.1875 
Q 40.09375 53.09375 35.203125 53.09375 
Q 30.09375 53.09375 26.140625 50.890625 
Q 22.203125 48.703125 19.40625 44.703125 
L 19.203125 44.703125 
L 19.203125 51.703125 
z
" id="HelveticaNeue-Bold-109"/>
    <path d="M 4.796875 35.796875 
Q 5.09375 40.796875 7.296875 44.09375 
Q 9.5 47.40625 12.890625 49.40625 
Q 16.296875 51.40625 20.546875 52.25 
Q 24.796875 53.09375 29.09375 53.09375 
Q 33 53.09375 37 52.546875 
Q 41 52 44.296875 50.390625 
Q 47.59375 48.796875 49.6875 45.9375 
Q 51.796875 43.09375 51.796875 38.40625 
L 51.796875 11.5 
Q 51.796875 8 52.1875 4.796875 
Q 52.59375 1.59375 53.59375 0 
L 39.203125 0 
Q 38.796875 1.203125 38.546875 2.453125 
Q 38.296875 3.703125 38.203125 5 
Q 34.796875 1.5 30.1875 0.09375 
Q 25.59375 -1.296875 20.796875 -1.296875 
Q 17.09375 -1.296875 13.890625 -0.390625 
Q 10.703125 0.5 8.296875 2.390625 
Q 5.90625 4.296875 4.546875 7.1875 
Q 3.203125 10.09375 3.203125 14.09375 
Q 3.203125 18.5 4.75 21.34375 
Q 6.296875 24.203125 8.75 25.890625 
Q 11.203125 27.59375 14.34375 28.4375 
Q 17.5 29.296875 20.703125 29.796875 
Q 23.90625 30.296875 27 30.59375 
Q 30.09375 30.90625 32.5 31.5 
Q 34.90625 32.09375 36.296875 33.25 
Q 37.703125 34.40625 37.59375 36.59375 
Q 37.59375 38.90625 36.84375 40.25 
Q 36.09375 41.59375 34.84375 42.34375 
Q 33.59375 43.09375 31.9375 43.34375 
Q 30.296875 43.59375 28.40625 43.59375 
Q 24.203125 43.59375 21.796875 41.796875 
Q 19.40625 40 19 35.796875 
z
M 37.59375 25.296875 
Q 36.703125 24.5 35.34375 24.046875 
Q 34 23.59375 32.453125 23.296875 
Q 30.90625 23 29.203125 22.796875 
Q 27.5 22.59375 25.796875 22.296875 
Q 24.203125 22 22.640625 21.5 
Q 21.09375 21 19.9375 20.140625 
Q 18.796875 19.296875 18.09375 18 
Q 17.40625 16.703125 17.40625 14.703125 
Q 17.40625 12.796875 18.09375 11.5 
Q 18.796875 10.203125 20 9.453125 
Q 21.203125 8.703125 22.796875 8.390625 
Q 24.40625 8.09375 26.09375 8.09375 
Q 30.296875 8.09375 32.59375 9.5 
Q 34.90625 10.90625 36 12.84375 
Q 37.09375 14.796875 37.34375 16.796875 
Q 37.59375 18.796875 37.59375 20 
z
" id="HelveticaNeue-Bold-97"/>
    <path d="M 31.5 9.296875 
Q 28.09375 9.296875 25.6875 10.6875 
Q 23.296875 12.09375 21.84375 14.34375 
Q 20.40625 16.59375 19.75 19.59375 
Q 19.09375 22.59375 19.09375 25.703125 
Q 19.09375 28.90625 19.6875 31.90625 
Q 20.296875 34.90625 21.75 37.203125 
Q 23.203125 39.5 25.546875 40.953125 
Q 27.90625 42.40625 31.40625 42.40625 
Q 34.796875 42.40625 37.140625 40.953125 
Q 39.5 39.5 41 37.140625 
Q 42.5 34.796875 43.140625 31.796875 
Q 43.796875 28.796875 43.796875 25.703125 
Q 43.796875 22.59375 43.1875 19.59375 
Q 42.59375 16.59375 41.140625 14.34375 
Q 39.703125 12.09375 37.34375 10.6875 
Q 35 9.296875 31.5 9.296875 
z
M 5.40625 51.703125 
L 5.40625 -18.09375 
L 19.59375 -18.09375 
L 19.59375 6.40625 
L 19.796875 6.40625 
Q 22.40625 2.59375 26.453125 0.640625 
Q 30.5 -1.296875 35.296875 -1.296875 
Q 41 -1.296875 45.25 0.890625 
Q 49.5 3.09375 52.34375 6.796875 
Q 55.203125 10.5 56.59375 15.296875 
Q 58 20.09375 58 25.296875 
Q 58 30.796875 56.59375 35.84375 
Q 55.203125 40.90625 52.296875 44.703125 
Q 49.40625 48.5 45 50.796875 
Q 40.59375 53.09375 34.5 53.09375 
Q 29.703125 53.09375 25.703125 51.1875 
Q 21.703125 49.296875 19.09375 45.09375 
L 18.90625 45.09375 
L 18.90625 51.703125 
z
" id="HelveticaNeue-Bold-112"/>
   </defs>
   <g transform="translate(138.296406 12.771563)scale(0.09 -0.09)">
    <use xlink:href="#HelveticaNeue-Bold-67"/>
    <use x="74.099991" xlink:href="#HelveticaNeue-Bold-111"/>
    <use x="135.199982" xlink:href="#HelveticaNeue-Bold-108"/>
    <use x="160.999969" xlink:href="#HelveticaNeue-Bold-111"/>
    <use x="222.09996" xlink:href="#HelveticaNeue-Bold-114"/>
    <use x="260.999954" xlink:href="#HelveticaNeue-Bold-32"/>
    <use x="288.799942" xlink:href="#HelveticaNeue-Bold-99"/>
    <use x="346.199936" xlink:href="#HelveticaNeue-Bold-121"/>
    <use x="398.09993" xlink:href="#HelveticaNeue-Bold-99"/>
    <use x="455.499924" xlink:href="#HelveticaNeue-Bold-108"/>
    <use x="481.299911" xlink:href="#HelveticaNeue-Bold-101"/>
    <use x="538.699905" xlink:href="#HelveticaNeue-Bold-115"/>
    <use x="592.399902" xlink:href="#HelveticaNeue-Bold-32"/>
    <use x="620.19989" xlink:href="#HelveticaNeue-Bold-102"/>
    <use x="653.499878" xlink:href="#HelveticaNeue-Bold-114"/>
    <use x="692.384247" xlink:href="#HelveticaNeue-Bold-111"/>
    <use x="753.484238" xlink:href="#HelveticaNeue-Bold-109"/>
    <use x="844.084229" xlink:href="#HelveticaNeue-Bold-32"/>
    <use x="871.884216" xlink:href="#HelveticaNeue-Bold-99"/>
    <use x="929.28421" xlink:href="#HelveticaNeue-Bold-111"/>
    <use x="990.384201" xlink:href="#HelveticaNeue-Bold-108"/>
    <use x="1016.184189" xlink:href="#HelveticaNeue-Bold-111"/>
    <use x="1077.28418" xlink:href="#HelveticaNeue-Bold-114"/>
    <use x="1116.184174" xlink:href="#HelveticaNeue-Bold-109"/>
    <use x="1206.784164" xlink:href="#HelveticaNeue-Bold-97"/>
    <use x="1264.184158" xlink:href="#HelveticaNeue-Bold-112"/>
    <use x="1325.284149" xlink:href="#HelveticaNeue-Bold-115"/>
   </g>
  </g>
 </g>
 <defs>
  <clipPath id="pe182196fe2">
   <rect height="105.6" width="158.4" x="26.9" y="21.1"/>
  </clipPath>
  <clipPath id="p66cd9a86e3">
   <rect height="105.6" width="158.4" x="215.4" y="21.1"/>
  </clipPath>
  <clipPath id="pd316e6f461">
   <rect height="12.24" width="158.4" x="26.9" y="150.3"/>
  </clipPath>
  <clipPath id="p47eb75f35f">
   <rect height="12.24" width="158.4" x="215.4" y="150.3"/>
  </clipPath>
 </defs>
</svg>
