<?xml version="1.0" encoding="utf-8" standalone="no"?>
<!DOCTYPE svg PUBLIC "-//W3C//DTD SVG 1.1//EN"
  "http://www.w3.org/Graphics/SVG/1.1/DTD/svg11.dtd">
<!-- Created with matplotlib (https://matplotlib.org/) -->
<svg height="195.5pt" version="1.1" viewBox="0 0 340.25 195.5" width="340.25pt" xmlns="http://www.w3.org/2000/svg" xmlns:xlink="http://www.w3.org/1999/xlink">
 <defs>
  <style type="text/css">
*{stroke-linecap:butt;stroke-linejoin:round;}
  </style>
 </defs>
 <g id="figure_1">
  <g id="patch_1">
   <path d="M 0 195.5 
L 340.2875 195.5 
L 340.2875 -0.259063 
L 0 -0.259063 
z
" style="fill:#f2f2f2;"/>
  </g>
  <g id="axes_1">
   <g id="patch_2">
    <path d="M 34.06375 167.9225 
L 178.06375 167.9225 
L 178.06375 23.9225 
L 34.06375 23.9225 
z
" style="fill:#ffffff;"/>
   </g>
   <g id="matplotlib.axis_1">
    <g id="xtick_1">
     <g id="line2d_1">
      <path clip-path="url(#p603dd1618d)" d="M 34.06375 167.9225 
L 34.06375 23.9225 
" style="fill:none;stroke:#000000;stroke-linecap:square;stroke-opacity:0.1;stroke-width:0.6;"/>
     </g>
     <g id="line2d_2">
      <defs>
       <path d="M 0 0 
L 0 4 
" id="m135315f5f2" style="stroke:#000000;stroke-width:0.6;"/>
      </defs>
      <g>
       <use style="stroke:#000000;stroke-width:0.6;" x="34.06375" xlink:href="#m135315f5f2" y="167.9225"/>
      </g>
     </g>
     <g id="text_1">
      <!-- 0 -->
      <defs>
       <path d="M 13.203125 34.90625 
Q 13.203125 37.5 13.25 40.640625 
Q 13.296875 43.796875 13.75 46.9375 
Q 14.203125 50.09375 15.046875 53.09375 
Q 15.90625 56.09375 17.546875 58.34375 
Q 19.203125 60.59375 21.703125 62 
Q 24.203125 63.40625 27.796875 63.40625 
Q 31.40625 63.40625 33.90625 62 
Q 36.40625 60.59375 38.046875 58.34375 
Q 39.703125 56.09375 40.546875 53.09375 
Q 41.40625 50.09375 41.84375 46.9375 
Q 42.296875 43.796875 42.34375 40.640625 
Q 42.40625 37.5 42.40625 34.90625 
Q 42.40625 30.90625 42.15625 25.953125 
Q 41.90625 21 40.546875 16.640625 
Q 39.203125 12.296875 36.203125 9.296875 
Q 33.203125 6.296875 27.796875 6.296875 
Q 22.40625 6.296875 19.40625 9.296875 
Q 16.40625 12.296875 15.046875 16.640625 
Q 13.703125 21 13.453125 25.953125 
Q 13.203125 30.90625 13.203125 34.90625 
z
M 4.203125 34.796875 
Q 4.203125 30.90625 4.390625 26.703125 
Q 4.59375 22.5 5.390625 18.5 
Q 6.203125 14.5 7.703125 10.953125 
Q 9.203125 7.40625 11.796875 4.703125 
Q 14.40625 2 18.34375 0.453125 
Q 22.296875 -1.09375 27.796875 -1.09375 
Q 33.40625 -1.09375 37.296875 0.453125 
Q 41.203125 2 43.796875 4.703125 
Q 46.40625 7.40625 47.90625 10.953125 
Q 49.40625 14.5 50.203125 18.5 
Q 51 22.5 51.203125 26.703125 
Q 51.40625 30.90625 51.40625 34.796875 
Q 51.40625 38.703125 51.203125 42.890625 
Q 51 47.09375 50.203125 51.09375 
Q 49.40625 55.09375 47.90625 58.6875 
Q 46.40625 62.296875 43.796875 65 
Q 41.203125 67.703125 37.25 69.296875 
Q 33.296875 70.90625 27.796875 70.90625 
Q 22.296875 70.90625 18.34375 69.296875 
Q 14.40625 67.703125 11.796875 65 
Q 9.203125 62.296875 7.703125 58.6875 
Q 6.203125 55.09375 5.390625 51.09375 
Q 4.59375 47.09375 4.390625 42.890625 
Q 4.203125 38.703125 4.203125 34.796875 
z
" id="HelveticaNeue-48"/>
      </defs>
      <g transform="translate(31.84 179.635)scale(0.08 -0.08)">
       <use xlink:href="#HelveticaNeue-48"/>
      </g>
     </g>
    </g>
    <g id="xtick_2">
     <g id="line2d_3">
      <path clip-path="url(#p603dd1618d)" d="M 63.154659 167.9225 
L 63.154659 23.9225 
" style="fill:none;stroke:#000000;stroke-linecap:square;stroke-opacity:0.1;stroke-width:0.6;"/>
     </g>
     <g id="line2d_4">
      <g>
       <use style="stroke:#000000;stroke-width:0.6;" x="63.154659" xlink:href="#m135315f5f2" y="167.9225"/>
      </g>
     </g>
     <g id="text_2">
      <!-- 20 -->
      <defs>
       <path d="M 4.40625 45.796875 
L 12.90625 45.796875 
Q 12.796875 49 13.546875 52.140625 
Q 14.296875 55.296875 16 57.796875 
Q 17.703125 60.296875 20.34375 61.84375 
Q 23 63.40625 26.703125 63.40625 
Q 29.5 63.40625 32 62.5 
Q 34.5 61.59375 36.34375 59.890625 
Q 38.203125 58.203125 39.296875 55.84375 
Q 40.40625 53.5 40.40625 50.59375 
Q 40.40625 46.90625 39.25 44.09375 
Q 38.09375 41.296875 35.84375 38.890625 
Q 33.59375 36.5 30.1875 34.140625 
Q 26.796875 31.796875 22.296875 29 
Q 18.59375 26.796875 15.1875 24.296875 
Q 11.796875 21.796875 9.09375 18.5 
Q 6.40625 15.203125 4.65625 10.75 
Q 2.90625 6.296875 2.40625 0 
L 48.703125 0 
L 48.703125 7.5 
L 12.296875 7.5 
Q 12.90625 10.796875 14.84375 13.34375 
Q 16.796875 15.90625 19.546875 18.09375 
Q 22.296875 20.296875 25.59375 22.25 
Q 28.90625 24.203125 32.203125 26.203125 
Q 35.5 28.296875 38.59375 30.59375 
Q 41.703125 32.90625 44.09375 35.75 
Q 46.5 38.59375 47.953125 42.1875 
Q 49.40625 45.796875 49.40625 50.5 
Q 49.40625 55.5 47.65625 59.296875 
Q 45.90625 63.09375 42.90625 65.640625 
Q 39.90625 68.203125 35.84375 69.546875 
Q 31.796875 70.90625 27.203125 70.90625 
Q 21.59375 70.90625 17.1875 69 
Q 12.796875 67.09375 9.84375 63.75 
Q 6.90625 60.40625 5.5 55.796875 
Q 4.09375 51.203125 4.40625 45.796875 
z
" id="HelveticaNeue-50"/>
      </defs>
      <g transform="translate(58.707159 179.635)scale(0.08 -0.08)">
       <use xlink:href="#HelveticaNeue-50"/>
       <use x="55.599991" xlink:href="#HelveticaNeue-48"/>
      </g>
     </g>
    </g>
    <g id="xtick_3">
     <g id="line2d_5">
      <path clip-path="url(#p603dd1618d)" d="M 92.245568 167.9225 
L 92.245568 23.9225 
" style="fill:none;stroke:#000000;stroke-linecap:square;stroke-opacity:0.1;stroke-width:0.6;"/>
     </g>
     <g id="line2d_6">
      <g>
       <use style="stroke:#000000;stroke-width:0.6;" x="92.245568" xlink:href="#m135315f5f2" y="167.9225"/>
      </g>
     </g>
     <g id="text_3">
      <!-- 40 -->
      <defs>
       <path d="M 33.90625 24.09375 
L 10.09375 24.09375 
L 33.703125 58.796875 
L 33.90625 58.796875 
z
M 41.90625 24.09375 
L 41.90625 70.90625 
L 35.09375 70.90625 
L 2.796875 24.796875 
L 2.796875 16.59375 
L 33.90625 16.59375 
L 33.90625 0 
L 41.90625 0 
L 41.90625 16.59375 
L 51.5 16.59375 
L 51.5 24.09375 
z
" id="HelveticaNeue-52"/>
      </defs>
      <g transform="translate(87.798068 179.635)scale(0.08 -0.08)">
       <use xlink:href="#HelveticaNeue-52"/>
       <use x="55.599991" xlink:href="#HelveticaNeue-48"/>
      </g>
     </g>
    </g>
    <g id="xtick_4">
     <g id="line2d_7">
      <path clip-path="url(#p603dd1618d)" d="M 121.336477 167.9225 
L 121.336477 23.9225 
" style="fill:none;stroke:#000000;stroke-linecap:square;stroke-opacity:0.1;stroke-width:0.6;"/>
     </g>
     <g id="line2d_8">
      <g>
       <use style="stroke:#000000;stroke-width:0.6;" x="121.336477" xlink:href="#m135315f5f2" y="167.9225"/>
      </g>
     </g>
     <g id="text_4">
      <!-- 60 -->
      <defs>
       <path d="M 41.40625 52.796875 
L 49.90625 52.796875 
Q 49.09375 61.59375 43.890625 66.25 
Q 38.703125 70.90625 29.90625 70.90625 
Q 22.296875 70.90625 17.296875 67.703125 
Q 12.296875 64.5 9.296875 59.203125 
Q 6.296875 53.90625 5.046875 47.046875 
Q 3.796875 40.203125 3.796875 32.90625 
Q 3.796875 27.296875 4.640625 21.296875 
Q 5.5 15.296875 8.09375 10.296875 
Q 10.703125 5.296875 15.5 2.09375 
Q 20.296875 -1.09375 28.203125 -1.09375 
Q 34.90625 -1.09375 39.453125 1.15625 
Q 44 3.40625 46.75 6.84375 
Q 49.5 10.296875 50.703125 14.5 
Q 51.90625 18.703125 51.90625 22.59375 
Q 51.90625 27.5 50.40625 31.703125 
Q 48.90625 35.90625 46.15625 39 
Q 43.40625 42.09375 39.34375 43.84375 
Q 35.296875 45.59375 30.203125 45.59375 
Q 24.40625 45.59375 19.953125 43.390625 
Q 15.5 41.203125 12.5 36.296875 
L 12.296875 36.5 
Q 12.40625 40.59375 13.09375 45.296875 
Q 13.796875 50 15.640625 54.046875 
Q 17.5 58.09375 20.796875 60.75 
Q 24.09375 63.40625 29.5 63.40625 
Q 34.59375 63.40625 37.6875 60.5 
Q 40.796875 57.59375 41.40625 52.796875 
z
M 28.59375 38.09375 
Q 32.203125 38.09375 34.890625 36.796875 
Q 37.59375 35.5 39.390625 33.34375 
Q 41.203125 31.203125 42.046875 28.25 
Q 42.90625 25.296875 42.90625 22 
Q 42.90625 18.90625 41.953125 16.046875 
Q 41 13.203125 39.203125 11 
Q 37.40625 8.796875 34.75 7.546875 
Q 32.09375 6.296875 28.59375 6.296875 
Q 25.09375 6.296875 22.34375 7.546875 
Q 19.59375 8.796875 17.75 10.890625 
Q 15.90625 13 14.90625 15.890625 
Q 13.90625 18.796875 13.90625 22.09375 
Q 13.90625 25.40625 14.84375 28.34375 
Q 15.796875 31.296875 17.6875 33.4375 
Q 19.59375 35.59375 22.296875 36.84375 
Q 25 38.09375 28.59375 38.09375 
z
" id="HelveticaNeue-54"/>
      </defs>
      <g transform="translate(116.888977 179.635)scale(0.08 -0.08)">
       <use xlink:href="#HelveticaNeue-54"/>
       <use x="55.599991" xlink:href="#HelveticaNeue-48"/>
      </g>
     </g>
    </g>
    <g id="xtick_5">
     <g id="line2d_9">
      <path clip-path="url(#p603dd1618d)" d="M 150.427386 167.9225 
L 150.427386 23.9225 
" style="fill:none;stroke:#000000;stroke-linecap:square;stroke-opacity:0.1;stroke-width:0.6;"/>
     </g>
     <g id="line2d_10">
      <g>
       <use style="stroke:#000000;stroke-width:0.6;" x="150.427386" xlink:href="#m135315f5f2" y="167.9225"/>
      </g>
     </g>
     <g id="text_5">
      <!-- 80 -->
      <defs>
       <path d="M 15.5 52.5 
Q 15.5 55.203125 16.5 57.203125 
Q 17.5 59.203125 19.140625 60.59375 
Q 20.796875 62 23.09375 62.703125 
Q 25.40625 63.40625 27.90625 63.40625 
Q 33.09375 63.40625 36.4375 60.65625 
Q 39.796875 57.90625 39.796875 52.5 
Q 39.796875 47.09375 36.5 44.09375 
Q 33.203125 41.09375 28.09375 41.09375 
Q 25.5 41.09375 23.203125 41.796875 
Q 20.90625 42.5 19.203125 43.890625 
Q 17.5 45.296875 16.5 47.4375 
Q 15.5 49.59375 15.5 52.5 
z
M 6.5 52.796875 
Q 6.5 48 9.203125 43.953125 
Q 11.90625 39.90625 16.40625 38.09375 
Q 10.40625 36 7.203125 31.34375 
Q 4 26.703125 4 20.40625 
Q 4 15 5.84375 10.953125 
Q 7.703125 6.90625 10.953125 4.203125 
Q 14.203125 1.5 18.59375 0.203125 
Q 23 -1.09375 28.09375 -1.09375 
Q 33 -1.09375 37.296875 0.296875 
Q 41.59375 1.703125 44.75 4.453125 
Q 47.90625 7.203125 49.75 11.203125 
Q 51.59375 15.203125 51.59375 20.40625 
Q 51.59375 27 48.5 31.546875 
Q 45.40625 36.09375 39 38.09375 
Q 43.5 40.09375 46.140625 44.046875 
Q 48.796875 48 48.796875 52.796875 
Q 48.796875 56.203125 47.59375 59.453125 
Q 46.40625 62.703125 43.84375 65.25 
Q 41.296875 67.796875 37.1875 69.34375 
Q 33.09375 70.90625 27.296875 70.90625 
Q 23.203125 70.90625 19.453125 69.703125 
Q 15.703125 68.5 12.796875 66.203125 
Q 9.90625 63.90625 8.203125 60.546875 
Q 6.5 57.203125 6.5 52.796875 
z
M 13 20 
Q 13 23.09375 14.140625 25.59375 
Q 15.296875 28.09375 17.34375 29.890625 
Q 19.40625 31.703125 22.15625 32.640625 
Q 24.90625 33.59375 28 33.59375 
Q 31 33.59375 33.640625 32.546875 
Q 36.296875 31.5 38.296875 29.703125 
Q 40.296875 27.90625 41.4375 25.453125 
Q 42.59375 23 42.59375 20.09375 
Q 42.59375 17.09375 41.546875 14.59375 
Q 40.5 12.09375 38.546875 10.25 
Q 36.59375 8.40625 33.9375 7.34375 
Q 31.296875 6.296875 28.09375 6.296875 
Q 21.5 6.296875 17.25 9.9375 
Q 13 13.59375 13 20 
z
" id="HelveticaNeue-56"/>
      </defs>
      <g transform="translate(145.979886 179.635)scale(0.08 -0.08)">
       <use xlink:href="#HelveticaNeue-56"/>
       <use x="55.599991" xlink:href="#HelveticaNeue-48"/>
      </g>
     </g>
    </g>
    <g id="text_6">
     <!-- x axis -->
     <defs>
      <path d="M 20.296875 27.203125 
L 0.90625 0 
L 11.203125 0 
L 25.59375 21.40625 
L 40 0 
L 50.90625 0 
L 30.90625 27.90625 
L 48.703125 51.703125 
L 38.5 51.703125 
L 25.59375 33.59375 
L 13.203125 51.703125 
L 2.296875 51.703125 
z
" id="HelveticaNeue-120"/>
      <path id="HelveticaNeue-32"/>
      <path d="M 52.203125 0.203125 
Q 50 -1.09375 46.09375 -1.09375 
Q 42.796875 -1.09375 40.84375 0.75 
Q 38.90625 2.59375 38.90625 6.796875 
Q 35.40625 2.59375 30.75 0.75 
Q 26.09375 -1.09375 20.703125 -1.09375 
Q 17.203125 -1.09375 14.046875 -0.296875 
Q 10.90625 0.5 8.59375 2.203125 
Q 6.296875 3.90625 4.9375 6.65625 
Q 3.59375 9.40625 3.59375 13.296875 
Q 3.59375 17.703125 5.09375 20.5 
Q 6.59375 23.296875 9.046875 25.046875 
Q 11.5 26.796875 14.640625 27.6875 
Q 17.796875 28.59375 21.09375 29.203125 
Q 24.59375 29.90625 27.75 30.25 
Q 30.90625 30.59375 33.296875 31.25 
Q 35.703125 31.90625 37.09375 33.15625 
Q 38.5 34.40625 38.5 36.796875 
Q 38.5 39.59375 37.453125 41.296875 
Q 36.40625 43 34.75 43.890625 
Q 33.09375 44.796875 31.046875 45.09375 
Q 29 45.40625 27 45.40625 
Q 21.59375 45.40625 18 43.34375 
Q 14.40625 41.296875 14.09375 35.59375 
L 5.59375 35.59375 
Q 5.796875 40.40625 7.59375 43.703125 
Q 9.40625 47 12.40625 49.046875 
Q 15.40625 51.09375 19.25 52 
Q 23.09375 52.90625 27.5 52.90625 
Q 31 52.90625 34.453125 52.40625 
Q 37.90625 51.90625 40.703125 50.34375 
Q 43.5 48.796875 45.203125 46 
Q 46.90625 43.203125 46.90625 38.703125 
L 46.90625 12.09375 
Q 46.90625 9.09375 47.25 7.6875 
Q 47.59375 6.296875 49.59375 6.296875 
Q 50.703125 6.296875 52.203125 6.796875 
z
M 38.40625 26.703125 
Q 36.796875 25.5 34.1875 24.953125 
Q 31.59375 24.40625 28.75 24.046875 
Q 25.90625 23.703125 23 23.25 
Q 20.09375 22.796875 17.796875 21.796875 
Q 15.5 20.796875 14.046875 18.9375 
Q 12.59375 17.09375 12.59375 13.90625 
Q 12.59375 11.796875 13.4375 10.34375 
Q 14.296875 8.90625 15.640625 8 
Q 17 7.09375 18.796875 6.6875 
Q 20.59375 6.296875 22.59375 6.296875 
Q 26.796875 6.296875 29.796875 7.4375 
Q 32.796875 8.59375 34.6875 10.34375 
Q 36.59375 12.09375 37.5 14.140625 
Q 38.40625 16.203125 38.40625 18 
z
" id="HelveticaNeue-97"/>
      <path d="M 15.40625 61 
L 15.40625 71.40625 
L 6.90625 71.40625 
L 6.90625 61 
z
M 6.90625 51.703125 
L 6.90625 0 
L 15.40625 0 
L 15.40625 51.703125 
z
" id="HelveticaNeue-105"/>
      <path d="M 11.59375 16.296875 
L 3.09375 16.296875 
Q 3.296875 11.5 5.09375 8.140625 
Q 6.90625 4.796875 9.90625 2.75 
Q 12.90625 0.703125 16.796875 -0.1875 
Q 20.703125 -1.09375 25 -1.09375 
Q 28.90625 -1.09375 32.84375 -0.34375 
Q 36.796875 0.40625 39.9375 2.296875 
Q 43.09375 4.203125 45.046875 7.296875 
Q 47 10.40625 47 15.09375 
Q 47 18.796875 45.546875 21.296875 
Q 44.09375 23.796875 41.75 25.4375 
Q 39.40625 27.09375 36.34375 28.09375 
Q 33.296875 29.09375 30.09375 29.796875 
Q 27.09375 30.5 24.09375 31.140625 
Q 21.09375 31.796875 18.6875 32.75 
Q 16.296875 33.703125 14.75 35.140625 
Q 13.203125 36.59375 13.203125 38.796875 
Q 13.203125 40.796875 14.203125 42.046875 
Q 15.203125 43.296875 16.796875 44.046875 
Q 18.40625 44.796875 20.34375 45.09375 
Q 22.296875 45.40625 24.203125 45.40625 
Q 26.296875 45.40625 28.34375 44.953125 
Q 30.40625 44.5 32.09375 43.5 
Q 33.796875 42.5 34.890625 40.84375 
Q 36 39.203125 36.203125 36.703125 
L 44.703125 36.703125 
Q 44.40625 41.40625 42.703125 44.546875 
Q 41 47.703125 38.140625 49.546875 
Q 35.296875 51.40625 31.59375 52.15625 
Q 27.90625 52.90625 23.5 52.90625 
Q 20.09375 52.90625 16.640625 52.046875 
Q 13.203125 51.203125 10.453125 49.453125 
Q 7.703125 47.703125 5.953125 44.890625 
Q 4.203125 42.09375 4.203125 38.203125 
Q 4.203125 33.203125 6.703125 30.390625 
Q 9.203125 27.59375 12.953125 26.046875 
Q 16.703125 24.5 21.09375 23.640625 
Q 25.5 22.796875 29.25 21.75 
Q 33 20.703125 35.5 19 
Q 38 17.296875 38 14 
Q 38 11.59375 36.796875 10.046875 
Q 35.59375 8.5 33.75 7.703125 
Q 31.90625 6.90625 29.703125 6.59375 
Q 27.5 6.296875 25.5 6.296875 
Q 22.90625 6.296875 20.453125 6.796875 
Q 18 7.296875 16.046875 8.4375 
Q 14.09375 9.59375 12.890625 11.546875 
Q 11.703125 13.5 11.59375 16.296875 
z
" id="HelveticaNeue-115"/>
     </defs>
     <g transform="translate(173.771875 189.92375)scale(0.08 -0.08)">
      <use xlink:href="#HelveticaNeue-120"/>
      <use x="51.799988" xlink:href="#HelveticaNeue-32"/>
      <use x="79.599976" xlink:href="#HelveticaNeue-97"/>
      <use x="133.299973" xlink:href="#HelveticaNeue-120"/>
      <use x="185.09996" xlink:href="#HelveticaNeue-105"/>
      <use x="207.299957" xlink:href="#HelveticaNeue-115"/>
     </g>
    </g>
   </g>
   <g id="matplotlib.axis_2">
    <g id="ytick_1">
     <g id="line2d_11">
      <path clip-path="url(#p603dd1618d)" d="M 34.06375 160.247488 
L 178.06375 160.247488 
" style="fill:none;stroke:#000000;stroke-linecap:square;stroke-opacity:0.1;stroke-width:0.6;"/>
     </g>
     <g id="line2d_12">
      <defs>
       <path d="M 0 0 
L -4 0 
" id="m37a8d0fa82" style="stroke:#000000;stroke-width:0.6;"/>
      </defs>
      <g>
       <use style="stroke:#000000;stroke-width:0.6;" x="34.06375" xlink:href="#m37a8d0fa82" y="160.247488"/>
      </g>
     </g>
     <g id="text_7">
      <!-- −10 -->
      <defs>
       <path d="M 4.796875 28.703125 
L 4.796875 21.90625 
L 55.203125 21.90625 
L 55.203125 28.703125 
z
" id="HelveticaNeue-8722"/>
       <path d="M 35.59375 0 
L 35.59375 70.90625 
L 29.09375 70.90625 
Q 28.40625 66.90625 26.5 64.296875 
Q 24.59375 61.703125 21.84375 60.203125 
Q 19.09375 58.703125 15.6875 58.140625 
Q 12.296875 57.59375 8.703125 57.59375 
L 8.703125 50.796875 
L 27.09375 50.796875 
L 27.09375 0 
z
" id="HelveticaNeue-49"/>
      </defs>
      <g transform="translate(14.36875 163.103738)scale(0.08 -0.08)">
       <use xlink:href="#HelveticaNeue-8722"/>
       <use x="59.999985" xlink:href="#HelveticaNeue-49"/>
       <use x="115.599976" xlink:href="#HelveticaNeue-48"/>
      </g>
     </g>
    </g>
    <g id="ytick_2">
     <g id="line2d_13">
      <path clip-path="url(#p603dd1618d)" d="M 34.06375 140.882963 
L 178.06375 140.882963 
" style="fill:none;stroke:#000000;stroke-linecap:square;stroke-opacity:0.1;stroke-width:0.6;"/>
     </g>
     <g id="line2d_14">
      <g>
       <use style="stroke:#000000;stroke-width:0.6;" x="34.06375" xlink:href="#m37a8d0fa82" y="140.882963"/>
      </g>
     </g>
     <g id="text_8">
      <!-- −8 -->
      <g transform="translate(18.81625 143.739213)scale(0.08 -0.08)">
       <use xlink:href="#HelveticaNeue-8722"/>
       <use x="59.999985" xlink:href="#HelveticaNeue-56"/>
      </g>
     </g>
    </g>
    <g id="ytick_3">
     <g id="line2d_15">
      <path clip-path="url(#p603dd1618d)" d="M 34.06375 121.518438 
L 178.06375 121.518438 
" style="fill:none;stroke:#000000;stroke-linecap:square;stroke-opacity:0.1;stroke-width:0.6;"/>
     </g>
     <g id="line2d_16">
      <g>
       <use style="stroke:#000000;stroke-width:0.6;" x="34.06375" xlink:href="#m37a8d0fa82" y="121.518438"/>
      </g>
     </g>
     <g id="text_9">
      <!-- −6 -->
      <g transform="translate(18.81625 124.374688)scale(0.08 -0.08)">
       <use xlink:href="#HelveticaNeue-8722"/>
       <use x="59.999985" xlink:href="#HelveticaNeue-54"/>
      </g>
     </g>
    </g>
    <g id="ytick_4">
     <g id="line2d_17">
      <path clip-path="url(#p603dd1618d)" d="M 34.06375 102.153913 
L 178.06375 102.153913 
" style="fill:none;stroke:#000000;stroke-linecap:square;stroke-opacity:0.1;stroke-width:0.6;"/>
     </g>
     <g id="line2d_18">
      <g>
       <use style="stroke:#000000;stroke-width:0.6;" x="34.06375" xlink:href="#m37a8d0fa82" y="102.153913"/>
      </g>
     </g>
     <g id="text_10">
      <!-- −4 -->
      <g transform="translate(18.81625 105.010163)scale(0.08 -0.08)">
       <use xlink:href="#HelveticaNeue-8722"/>
       <use x="59.999985" xlink:href="#HelveticaNeue-52"/>
      </g>
     </g>
    </g>
    <g id="ytick_5">
     <g id="line2d_19">
      <path clip-path="url(#p603dd1618d)" d="M 34.06375 82.789389 
L 178.06375 82.789389 
" style="fill:none;stroke:#000000;stroke-linecap:square;stroke-opacity:0.1;stroke-width:0.6;"/>
     </g>
     <g id="line2d_20">
      <g>
       <use style="stroke:#000000;stroke-width:0.6;" x="34.06375" xlink:href="#m37a8d0fa82" y="82.789389"/>
      </g>
     </g>
     <g id="text_11">
      <!-- −2 -->
      <g transform="translate(18.81625 85.645639)scale(0.08 -0.08)">
       <use xlink:href="#HelveticaNeue-8722"/>
       <use x="59.999985" xlink:href="#HelveticaNeue-50"/>
      </g>
     </g>
    </g>
    <g id="ytick_6">
     <g id="line2d_21">
      <path clip-path="url(#p603dd1618d)" d="M 34.06375 63.424864 
L 178.06375 63.424864 
" style="fill:none;stroke:#000000;stroke-linecap:square;stroke-opacity:0.1;stroke-width:0.6;"/>
     </g>
     <g id="line2d_22">
      <g>
       <use style="stroke:#000000;stroke-width:0.6;" x="34.06375" xlink:href="#m37a8d0fa82" y="63.424864"/>
      </g>
     </g>
     <g id="text_12">
      <!-- 0 -->
      <g transform="translate(23.61625 66.281114)scale(0.08 -0.08)">
       <use xlink:href="#HelveticaNeue-48"/>
      </g>
     </g>
    </g>
    <g id="ytick_7">
     <g id="line2d_23">
      <path clip-path="url(#p603dd1618d)" d="M 34.06375 44.060339 
L 178.06375 44.060339 
" style="fill:none;stroke:#000000;stroke-linecap:square;stroke-opacity:0.1;stroke-width:0.6;"/>
     </g>
     <g id="line2d_24">
      <g>
       <use style="stroke:#000000;stroke-width:0.6;" x="34.06375" xlink:href="#m37a8d0fa82" y="44.060339"/>
      </g>
     </g>
     <g id="text_13">
      <!-- 2 -->
      <g transform="translate(23.61625 46.916589)scale(0.08 -0.08)">
       <use xlink:href="#HelveticaNeue-50"/>
      </g>
     </g>
    </g>
    <g id="ytick_8">
     <g id="line2d_25">
      <path clip-path="url(#p603dd1618d)" d="M 34.06375 24.695814 
L 178.06375 24.695814 
" style="fill:none;stroke:#000000;stroke-linecap:square;stroke-opacity:0.1;stroke-width:0.6;"/>
     </g>
     <g id="line2d_26">
      <g>
       <use style="stroke:#000000;stroke-width:0.6;" x="34.06375" xlink:href="#m37a8d0fa82" y="24.695814"/>
      </g>
     </g>
     <g id="text_14">
      <!-- 4 -->
      <g transform="translate(23.61625 27.552064)scale(0.08 -0.08)">
       <use xlink:href="#HelveticaNeue-52"/>
      </g>
     </g>
    </g>
    <g id="ytick_9">
     <g id="line2d_27">
      <defs>
       <path d="M 0 0 
L -2 0 
" id="mf5ed308bb9" style="stroke:#000000;stroke-width:0.48;"/>
      </defs>
      <g>
       <use style="stroke:#000000;stroke-width:0.48;" x="34.06375" xlink:href="#mf5ed308bb9" y="165.088619"/>
      </g>
     </g>
    </g>
    <g id="ytick_10">
     <g id="line2d_28">
      <g>
       <use style="stroke:#000000;stroke-width:0.48;" x="34.06375" xlink:href="#mf5ed308bb9" y="155.406356"/>
      </g>
     </g>
    </g>
    <g id="ytick_11">
     <g id="line2d_29">
      <g>
       <use style="stroke:#000000;stroke-width:0.48;" x="34.06375" xlink:href="#mf5ed308bb9" y="150.565225"/>
      </g>
     </g>
    </g>
    <g id="ytick_12">
     <g id="line2d_30">
      <g>
       <use style="stroke:#000000;stroke-width:0.48;" x="34.06375" xlink:href="#mf5ed308bb9" y="145.724094"/>
      </g>
     </g>
    </g>
    <g id="ytick_13">
     <g id="line2d_31">
      <g>
       <use style="stroke:#000000;stroke-width:0.48;" x="34.06375" xlink:href="#mf5ed308bb9" y="136.041832"/>
      </g>
     </g>
    </g>
    <g id="ytick_14">
     <g id="line2d_32">
      <g>
       <use style="stroke:#000000;stroke-width:0.48;" x="34.06375" xlink:href="#mf5ed308bb9" y="131.200701"/>
      </g>
     </g>
    </g>
    <g id="ytick_15">
     <g id="line2d_33">
      <g>
       <use style="stroke:#000000;stroke-width:0.48;" x="34.06375" xlink:href="#mf5ed308bb9" y="126.359569"/>
      </g>
     </g>
    </g>
    <g id="ytick_16">
     <g id="line2d_34">
      <g>
       <use style="stroke:#000000;stroke-width:0.48;" x="34.06375" xlink:href="#mf5ed308bb9" y="116.677307"/>
      </g>
     </g>
    </g>
    <g id="ytick_17">
     <g id="line2d_35">
      <g>
       <use style="stroke:#000000;stroke-width:0.48;" x="34.06375" xlink:href="#mf5ed308bb9" y="111.836176"/>
      </g>
     </g>
    </g>
    <g id="ytick_18">
     <g id="line2d_36">
      <g>
       <use style="stroke:#000000;stroke-width:0.48;" x="34.06375" xlink:href="#mf5ed308bb9" y="106.995045"/>
      </g>
     </g>
    </g>
    <g id="ytick_19">
     <g id="line2d_37">
      <g>
       <use style="stroke:#000000;stroke-width:0.48;" x="34.06375" xlink:href="#mf5ed308bb9" y="97.312782"/>
      </g>
     </g>
    </g>
    <g id="ytick_20">
     <g id="line2d_38">
      <g>
       <use style="stroke:#000000;stroke-width:0.48;" x="34.06375" xlink:href="#mf5ed308bb9" y="92.471651"/>
      </g>
     </g>
    </g>
    <g id="ytick_21">
     <g id="line2d_39">
      <g>
       <use style="stroke:#000000;stroke-width:0.48;" x="34.06375" xlink:href="#mf5ed308bb9" y="87.63052"/>
      </g>
     </g>
    </g>
    <g id="ytick_22">
     <g id="line2d_40">
      <g>
       <use style="stroke:#000000;stroke-width:0.48;" x="34.06375" xlink:href="#mf5ed308bb9" y="77.948257"/>
      </g>
     </g>
    </g>
    <g id="ytick_23">
     <g id="line2d_41">
      <g>
       <use style="stroke:#000000;stroke-width:0.48;" x="34.06375" xlink:href="#mf5ed308bb9" y="73.107126"/>
      </g>
     </g>
    </g>
    <g id="ytick_24">
     <g id="line2d_42">
      <g>
       <use style="stroke:#000000;stroke-width:0.48;" x="34.06375" xlink:href="#mf5ed308bb9" y="68.265995"/>
      </g>
     </g>
    </g>
    <g id="ytick_25">
     <g id="line2d_43">
      <g>
       <use style="stroke:#000000;stroke-width:0.48;" x="34.06375" xlink:href="#mf5ed308bb9" y="58.583733"/>
      </g>
     </g>
    </g>
    <g id="ytick_26">
     <g id="line2d_44">
      <g>
       <use style="stroke:#000000;stroke-width:0.48;" x="34.06375" xlink:href="#mf5ed308bb9" y="53.742602"/>
      </g>
     </g>
    </g>
    <g id="ytick_27">
     <g id="line2d_45">
      <g>
       <use style="stroke:#000000;stroke-width:0.48;" x="34.06375" xlink:href="#mf5ed308bb9" y="48.90147"/>
      </g>
     </g>
    </g>
    <g id="ytick_28">
     <g id="line2d_46">
      <g>
       <use style="stroke:#000000;stroke-width:0.48;" x="34.06375" xlink:href="#mf5ed308bb9" y="39.219208"/>
      </g>
     </g>
    </g>
    <g id="ytick_29">
     <g id="line2d_47">
      <g>
       <use style="stroke:#000000;stroke-width:0.48;" x="34.06375" xlink:href="#mf5ed308bb9" y="34.378077"/>
      </g>
     </g>
    </g>
    <g id="ytick_30">
     <g id="line2d_48">
      <g>
       <use style="stroke:#000000;stroke-width:0.48;" x="34.06375" xlink:href="#mf5ed308bb9" y="29.536946"/>
      </g>
     </g>
    </g>
    <g id="text_15">
     <!-- y axis -->
     <defs>
      <path d="M 26.703125 -6.90625 
Q 25.203125 -10.703125 23.75 -13.296875 
Q 22.296875 -15.90625 20.546875 -17.546875 
Q 18.796875 -19.203125 16.640625 -19.953125 
Q 14.5 -20.703125 11.703125 -20.703125 
Q 10.203125 -20.703125 8.703125 -20.5 
Q 7.203125 -20.296875 5.796875 -19.796875 
L 5.796875 -12 
Q 6.90625 -12.5 8.34375 -12.84375 
Q 9.796875 -13.203125 10.796875 -13.203125 
Q 13.40625 -13.203125 15.15625 -11.953125 
Q 16.90625 -10.703125 17.796875 -8.40625 
L 21.296875 0.296875 
L 0.796875 51.703125 
L 10.40625 51.703125 
L 25.5 9.40625 
L 25.703125 9.40625 
L 40.203125 51.703125 
L 49.203125 51.703125 
z
" id="HelveticaNeue-121"/>
     </defs>
     <g transform="translate(9.7125 106.1425)rotate(-90)scale(0.08 -0.08)">
      <use xlink:href="#HelveticaNeue-121"/>
      <use x="49.999985" xlink:href="#HelveticaNeue-32"/>
      <use x="77.799973" xlink:href="#HelveticaNeue-97"/>
      <use x="131.499969" xlink:href="#HelveticaNeue-120"/>
      <use x="183.299957" xlink:href="#HelveticaNeue-105"/>
      <use x="205.499954" xlink:href="#HelveticaNeue-115"/>
     </g>
    </g>
   </g>
   <g id="line2d_49">
    <path clip-path="url(#p603dd1618d)" d="M 34.06375 56.311321 
L 35.518295 50.59265 
L 36.972841 41.866322 
L 38.427386 47.944449 
L 39.881932 45.177116 
L 41.336477 38.261763 
L 42.791023 43.310863 
L 44.245568 41.578589 
L 45.700114 33.590735 
L 47.154659 34.487157 
L 48.609205 42.823607 
L 50.06375 45.354174 
L 51.518295 45.642642 
L 52.972841 46.86502 
L 54.427386 56.044883 
L 55.881932 50.699294 
L 57.336477 55.387729 
L 58.791023 51.948585 
L 60.245568 49.526868 
L 61.700114 40.772269 
L 63.154659 40.853609 
L 64.609205 47.425108 
L 66.06375 53.921383 
L 67.518295 46.995247 
L 68.972841 48.215451 
L 70.427386 51.727162 
L 71.881932 52.85846 
L 73.336477 50.289441 
L 74.791023 58.629091 
L 76.245568 62.730886 
L 77.700114 62.191908 
L 79.154659 70.125561 
L 80.609205 75.776545 
L 82.06375 67.62236 
L 83.518295 70.358167 
L 84.972841 61.084733 
L 86.427386 66.107944 
L 87.881932 71.073012 
L 89.336477 78.832774 
L 90.791023 78.283183 
L 92.245568 83.961366 
L 93.700114 88.23244 
L 95.154659 88.825682 
L 96.609205 97.622815 
L 98.06375 103.448161 
L 99.518295 104.221065 
L 100.972841 95.759442 
L 102.427386 98.725121 
L 103.881932 102.775876 
L 105.336477 98.820479 
L 106.791023 103.720485 
L 108.245568 107.14539 
L 109.700114 100.189332 
L 111.154659 106.909773 
L 112.609205 113.527827 
L 114.06375 116.047806 
L 115.518295 118.530964 
L 116.972841 125.315118 
L 118.427386 123.176632 
L 119.881932 131.947326 
L 121.336477 134.740731 
L 122.791023 130.995453 
L 124.245568 130.527967 
L 125.700114 131.515263 
L 127.154659 122.365488 
L 128.609205 117.568656 
L 130.06375 108.111721 
L 131.518295 102.348846 
L 132.972841 98.132329 
L 134.427386 93.864535 
L 135.881932 91.14213 
L 137.336477 95.938852 
L 138.791023 90.516273 
L 140.245568 86.35755 
L 141.700114 80.721883 
L 143.154659 77.563127 
L 144.609205 86.261714 
L 146.06375 87.640118 
L 147.518295 89.139484 
L 148.972841 87.793876 
L 150.427386 92.362577 
L 151.881932 87.567006 
L 153.336477 90.418904 
L 154.791023 90.908835 
L 156.245568 92.562498 
L 157.700114 97.784807 
L 159.154659 96.44164 
L 160.609205 105.820749 
L 162.06375 101.267415 
L 163.518295 96.046392 
L 164.972841 93.375327 
L 166.427386 91.804929 
L 167.881932 93.194542 
L 169.336477 89.999299 
L 170.791023 85.527578 
L 172.245568 84.599607 
L 173.700114 78.012288 
L 175.154659 71.739308 
L 176.609205 73.110817 
L 178.06375 74.146453 
" style="fill:none;stroke:#0072b2;stroke-linecap:square;stroke-width:2;"/>
   </g>
   <g id="line2d_50">
    <path clip-path="url(#p603dd1618d)" d="M 34.06375 55.009899 
L 35.518295 56.800817 
L 36.972841 52.235549 
L 38.427386 49.190702 
L 39.881932 39.981722 
L 41.336477 44.019461 
L 42.791023 42.869907 
L 44.245568 49.230658 
L 45.700114 41.762324 
L 47.154659 43.135186 
L 48.609205 48.527397 
L 50.06375 51.979163 
L 51.518295 60.581817 
L 52.972841 66.931049 
L 54.427386 69.430505 
L 55.881932 75.637404 
L 57.336477 74.025872 
L 58.791023 73.07405 
L 60.245568 63.527215 
L 61.700114 55.571739 
L 63.154659 63.441047 
L 64.609205 67.075801 
L 66.06375 63.07438 
L 67.518295 68.894194 
L 68.972841 78.373825 
L 70.427386 70.989618 
L 71.881932 66.162146 
L 73.336477 64.465309 
L 74.791023 62.480571 
L 76.245568 52.96994 
L 77.700114 44.949609 
L 79.154659 54.306202 
L 80.609205 61.156372 
L 82.06375 61.017484 
L 83.518295 60.200433 
L 84.972841 62.141751 
L 86.427386 68.269436 
L 87.881932 68.986583 
L 89.336477 71.108656 
L 90.791023 73.170099 
L 92.245568 73.392558 
L 93.700114 64.786238 
L 95.154659 68.317856 
L 96.609205 77.667147 
L 98.06375 84.335596 
L 99.518295 90.51682 
L 100.972841 92.785134 
L 102.427386 88.346228 
L 103.881932 87.62719 
L 105.336477 89.306954 
L 106.791023 92.788265 
L 108.245568 99.752417 
L 109.700114 104.029634 
L 111.154659 112.984131 
L 112.609205 110.038348 
L 114.06375 115.21811 
L 115.518295 105.752889 
L 116.972841 100.807553 
L 118.427386 97.310017 
L 119.881932 101.848973 
L 121.336477 92.57343 
L 122.791023 95.745646 
L 124.245568 92.443994 
L 125.700114 83.909469 
L 127.154659 80.670879 
L 128.609205 76.518386 
L 130.06375 84.374076 
L 131.518295 79.777902 
L 132.972841 86.622619 
L 134.427386 80.844979 
L 135.881932 84.334617 
L 137.336477 77.855618 
L 138.791023 74.115133 
L 140.245568 82.47328 
L 141.700114 79.013967 
L 143.154659 72.942411 
L 144.609205 69.006327 
L 146.06375 71.520427 
L 147.518295 70.139703 
L 148.972841 74.17737 
L 150.427386 79.345707 
L 151.881932 77.300543 
L 153.336477 73.712699 
L 154.791023 67.301005 
L 156.245568 71.162244 
L 157.700114 76.598849 
L 159.154659 77.233437 
L 160.609205 79.908156 
L 162.06375 70.6144 
L 163.518295 62.203015 
L 164.972841 70.847171 
L 166.427386 77.405582 
L 167.881932 72.555794 
L 169.336477 76.453923 
L 170.791023 75.993013 
L 172.245568 84.887212 
L 173.700114 76.659839 
L 175.154659 68.914062 
L 176.609205 75.66095 
L 178.06375 80.193456 
" style="fill:none;stroke:#d55e00;stroke-linecap:square;stroke-width:2;"/>
   </g>
   <g id="line2d_51">
    <path clip-path="url(#p603dd1618d)" d="M 34.06375 64.347441 
L 35.518295 64.174538 
L 36.972841 63.806826 
L 38.427386 71.669848 
L 39.881932 79.901635 
L 41.336477 77.731054 
L 42.791023 70.558999 
L 44.245568 71.683222 
L 45.700114 79.663304 
L 47.154659 70.933888 
L 48.609205 66.317145 
L 50.06375 66.233108 
L 51.518295 61.45745 
L 52.972841 68.665807 
L 54.427386 66.751754 
L 55.881932 76.10843 
L 57.336477 73.717154 
L 58.791023 71.74634 
L 60.245568 73.417467 
L 61.700114 73.014095 
L 63.154659 82.059344 
L 64.609205 91.443482 
L 66.06375 89.232296 
L 67.518295 81.024327 
L 68.972841 75.378073 
L 70.427386 71.552931 
L 71.881932 69.196297 
L 73.336477 73.670163 
L 74.791023 67.004029 
L 76.245568 70.142231 
L 77.700114 67.489805 
L 79.154659 66.636558 
L 80.609205 70.87916 
L 82.06375 69.616134 
L 83.518295 67.30953 
L 84.972841 74.906193 
L 86.427386 76.914302 
L 87.881932 77.533115 
L 89.336477 71.803231 
L 90.791023 79.871165 
L 92.245568 82.151834 
L 93.700114 76.136878 
L 95.154659 83.331656 
L 96.609205 77.063922 
L 98.06375 78.533912 
L 99.518295 74.222857 
L 100.972841 74.210758 
L 102.427386 76.815845 
L 103.881932 72.740019 
L 105.336477 79.715847 
L 106.791023 84.37575 
L 108.245568 81.084916 
L 109.700114 80.035184 
L 111.154659 83.951539 
L 112.609205 80.335885 
L 114.06375 87.189486 
L 115.518295 81.475063 
L 116.972841 75.010995 
L 118.427386 72.993381 
L 119.881932 75.012989 
L 121.336477 69.614927 
L 122.791023 60.765517 
L 124.245568 68.976738 
L 125.700114 59.61166 
L 127.154659 61.627422 
L 128.609205 60.921637 
L 130.06375 58.655391 
L 131.518295 52.634053 
L 132.972841 55.664726 
L 134.427386 63.823284 
L 135.881932 56.035894 
L 137.336477 46.81524 
L 138.791023 51.022668 
L 140.245568 43.45129 
L 141.700114 36.831033 
L 143.154659 34.843791 
L 144.609205 33.588398 
L 146.06375 23.9225 
L 147.518295 32.837027 
L 148.972841 41.646232 
L 150.427386 48.853314 
L 151.881932 49.747239 
L 153.336477 58.762107 
L 154.791023 60.739678 
L 156.245568 67.217083 
L 157.700114 59.572953 
L 159.154659 52.366004 
L 160.609205 57.573831 
L 162.06375 59.595206 
L 163.518295 63.13354 
L 164.972841 59.904264 
L 166.427386 60.032471 
L 167.881932 64.012983 
L 169.336477 59.077004 
L 170.791023 52.7387 
L 172.245568 52.314091 
L 173.700114 52.553263 
L 175.154659 58.937584 
L 176.609205 57.613926 
L 178.06375 54.834292 
" style="fill:none;stroke:#009e73;stroke-linecap:square;stroke-width:2;"/>
   </g>
   <g id="line2d_52">
    <path clip-path="url(#p603dd1618d)" d="M 34.06375 67.627213 
L 35.518295 75.67613 
L 36.972841 68.801812 
L 38.427386 77.758001 
L 39.881932 84.882467 
L 41.336477 93.167737 
L 42.791023 100.992166 
L 44.245568 102.502683 
L 45.700114 95.531507 
L 47.154659 101.531343 
L 48.609205 93.443206 
L 50.06375 96.664243 
L 51.518295 92.804773 
L 52.972841 101.235452 
L 54.427386 104.250134 
L 55.881932 110.037382 
L 57.336477 102.756233 
L 58.791023 99.160105 
L 60.245568 105.379639 
L 61.700114 110.290979 
L 63.154659 119.000327 
L 64.609205 121.752198 
L 66.06375 129.59389 
L 67.518295 136.173949 
L 68.972841 129.767865 
L 70.427386 123.73254 
L 71.881932 120.837256 
L 73.336477 118.961141 
L 74.791023 123.202425 
L 76.245568 127.325451 
L 77.700114 124.68956 
L 79.154659 121.992123 
L 80.609205 125.888167 
L 82.06375 122.890662 
L 83.518295 114.173054 
L 84.972841 114.261856 
L 86.427386 115.773496 
L 87.881932 124.455016 
L 89.336477 120.38424 
L 90.791023 113.553841 
L 92.245568 121.711204 
L 93.700114 128.658075 
L 95.154659 133.181425 
L 96.609205 136.437637 
L 98.06375 135.346921 
L 99.518295 136.50659 
L 100.972841 131.822067 
L 102.427386 126.158397 
L 103.881932 131.509165 
L 105.336477 137.795788 
L 106.791023 139.509595 
L 108.245568 145.754554 
L 109.700114 139.147338 
L 111.154659 129.698573 
L 112.609205 137.031075 
L 114.06375 145.35378 
L 115.518295 142.512341 
L 116.972841 148.414692 
L 118.427386 153.579337 
L 119.881932 146.898098 
L 121.336477 141.725077 
L 122.791023 132.676002 
L 124.245568 130.385653 
L 125.700114 129.385061 
L 127.154659 127.935051 
L 128.609205 135.408771 
L 130.06375 140.936916 
L 131.518295 137.732289 
L 132.972841 132.32953 
L 134.427386 140.528206 
L 135.881932 146.403167 
L 137.336477 141.530837 
L 138.791023 151.199647 
L 140.245568 156.605242 
L 141.700114 166.07675 
L 143.154659 164.242585 
L 144.609205 165.318876 
L 146.06375 167.512151 
L 147.518295 166.652651 
L 148.972841 157.85999 
L 150.427386 167.373857 
L 151.881932 159.644679 
L 153.336477 157.725626 
L 154.791023 156.357233 
L 156.245568 152.789697 
L 157.700114 161.771834 
L 159.154659 167.9225 
L 160.609205 164.986416 
L 162.06375 156.215084 
L 163.518295 161.870568 
L 164.972841 152.285584 
L 166.427386 151.118431 
L 167.881932 156.161424 
L 169.336477 148.223201 
L 170.791023 148.130104 
L 172.245568 140.252797 
L 173.700114 136.541664 
L 175.154659 130.869452 
L 176.609205 137.011426 
L 178.06375 139.933702 
" style="fill:none;stroke:#cc79a7;stroke-linecap:square;stroke-width:2;"/>
   </g>
   <g id="line2d_53">
    <path clip-path="url(#p603dd1618d)" d="M 34.06375 71.299415 
L 35.518295 65.657717 
L 36.972841 65.16764 
L 38.427386 62.639921 
L 39.881932 59.057259 
L 41.336477 52.018064 
L 42.791023 52.565222 
L 44.245568 58.98639 
L 45.700114 64.645937 
L 47.154659 66.852246 
L 48.609205 58.929531 
L 50.06375 50.766789 
L 51.518295 55.726794 
L 52.972841 62.472596 
L 54.427386 71.694803 
L 55.881932 78.663568 
L 57.336477 82.942101 
L 58.791023 81.635553 
L 60.245568 75.434507 
L 61.700114 77.151091 
L 63.154659 76.650899 
L 64.609205 77.927771 
L 66.06375 84.131751 
L 67.518295 85.070305 
L 68.972841 89.044125 
L 70.427386 82.476473 
L 71.881932 86.499586 
L 73.336477 86.545207 
L 74.791023 78.115111 
L 76.245568 69.114683 
L 77.700114 64.487227 
L 79.154659 62.963205 
L 80.609205 66.849121 
L 82.06375 62.260327 
L 83.518295 61.212416 
L 84.972841 65.362825 
L 86.427386 66.638547 
L 87.881932 58.918735 
L 89.336477 55.820301 
L 90.791023 61.376247 
L 92.245568 51.892106 
L 93.700114 56.934815 
L 95.154659 54.668006 
L 96.609205 51.641315 
L 98.06375 57.246027 
L 99.518295 55.999058 
L 100.972841 48.095763 
L 102.427386 42.339334 
L 103.881932 51.085921 
L 105.336477 53.819559 
L 106.791023 51.500297 
L 108.245568 46.420791 
L 109.700114 55.303727 
L 111.154659 53.364328 
L 112.609205 49.945365 
L 114.06375 52.87376 
L 115.518295 61.906767 
L 116.972841 68.201427 
L 118.427386 74.743809 
L 119.881932 79.15431 
L 121.336477 81.241675 
L 122.791023 85.284223 
L 124.245568 77.6764 
L 125.700114 73.586499 
L 127.154659 71.636377 
L 128.609205 68.431751 
L 130.06375 77.671508 
L 131.518295 83.88455 
L 132.972841 82.764205 
L 134.427386 89.705168 
L 135.881932 80.966238 
L 137.336477 75.731453 
L 138.791023 67.736278 
L 140.245568 60.610909 
L 141.700114 53.524316 
L 143.154659 46.088593 
L 144.609205 53.828562 
L 146.06375 54.606489 
L 147.518295 48.816552 
L 148.972841 45.341288 
L 150.427386 53.066519 
L 151.881932 44.161827 
L 153.336477 48.238592 
L 154.791023 53.107107 
L 156.245568 43.665306 
L 157.700114 51.465503 
L 159.154659 47.812779 
L 160.609205 41.661015 
L 162.06375 39.629038 
L 163.518295 36.052733 
L 164.972841 41.990222 
L 166.427386 47.891847 
L 167.881932 48.080622 
L 169.336477 52.877378 
L 170.791023 50.562101 
L 172.245568 52.156181 
L 173.700114 53.788228 
L 175.154659 55.700491 
L 176.609205 56.407914 
L 178.06375 61.312513 
" style="fill:none;stroke:#f0e442;stroke-linecap:square;stroke-width:2;"/>
   </g>
   <g id="patch_3">
    <path d="M 34.06375 167.9225 
L 34.06375 23.9225 
" style="fill:none;stroke:#000000;stroke-linecap:square;stroke-linejoin:miter;stroke-width:0.6;"/>
   </g>
   <g id="patch_4">
    <path d="M 178.06375 167.9225 
L 178.06375 23.9225 
" style="fill:none;stroke:#000000;stroke-linecap:square;stroke-linejoin:miter;stroke-width:0.6;"/>
   </g>
   <g id="patch_5">
    <path d="M 34.06375 167.9225 
L 178.06375 167.9225 
" style="fill:none;stroke:#000000;stroke-linecap:square;stroke-linejoin:miter;stroke-width:0.6;"/>
   </g>
   <g id="patch_6">
    <path d="M 34.06375 23.9225 
L 178.06375 23.9225 
" style="fill:none;stroke:#000000;stroke-linecap:square;stroke-linejoin:miter;stroke-width:0.6;"/>
   </g>
   <g id="text_16">
    <!-- Title -->
    <defs>
     <path d="M 24 63.40625 
L 24 0 
L 33.5 0 
L 33.5 63.40625 
L 57.296875 63.40625 
L 57.296875 71.40625 
L 0.203125 71.40625 
L 0.203125 63.40625 
z
" id="HelveticaNeue-84"/>
     <path d="M 18.203125 51.703125 
L 18.203125 67.203125 
L 9.703125 67.203125 
L 9.703125 51.703125 
L 0.90625 51.703125 
L 0.90625 44.203125 
L 9.703125 44.203125 
L 9.703125 11.296875 
Q 9.703125 7.703125 10.390625 5.5 
Q 11.09375 3.296875 12.546875 2.09375 
Q 14 0.90625 16.34375 0.453125 
Q 18.703125 0 22 0 
L 28.5 0 
L 28.5 7.5 
L 24.59375 7.5 
Q 22.59375 7.5 21.34375 7.640625 
Q 20.09375 7.796875 19.390625 8.296875 
Q 18.703125 8.796875 18.453125 9.6875 
Q 18.203125 10.59375 18.203125 12.09375 
L 18.203125 44.203125 
L 28.5 44.203125 
L 28.5 51.703125 
z
" id="HelveticaNeue-116"/>
     <path d="M 6.90625 71.40625 
L 6.90625 0 
L 15.40625 0 
L 15.40625 71.40625 
z
" id="HelveticaNeue-108"/>
     <path d="M 42.296875 30.796875 
L 12.59375 30.796875 
Q 12.796875 33.796875 13.890625 36.4375 
Q 15 39.09375 16.890625 41.09375 
Q 18.796875 43.09375 21.4375 44.25 
Q 24.09375 45.40625 27.40625 45.40625 
Q 30.59375 45.40625 33.25 44.25 
Q 35.90625 43.09375 37.84375 41.140625 
Q 39.796875 39.203125 40.9375 36.5 
Q 42.09375 33.796875 42.296875 30.796875 
z
M 50.5 16.40625 
L 42.09375 16.40625 
Q 41 11.296875 37.546875 8.796875 
Q 34.09375 6.296875 28.703125 6.296875 
Q 24.5 6.296875 21.390625 7.6875 
Q 18.296875 9.09375 16.296875 11.4375 
Q 14.296875 13.796875 13.390625 16.84375 
Q 12.5 19.90625 12.59375 23.296875 
L 51.296875 23.296875 
Q 51.5 28 50.453125 33.203125 
Q 49.40625 38.40625 46.65625 42.796875 
Q 43.90625 47.203125 39.34375 50.046875 
Q 34.796875 52.90625 27.90625 52.90625 
Q 22.59375 52.90625 18.140625 50.90625 
Q 13.703125 48.90625 10.453125 45.296875 
Q 7.203125 41.703125 5.390625 36.796875 
Q 3.59375 31.90625 3.59375 26 
Q 3.796875 20.09375 5.34375 15.09375 
Q 6.90625 10.09375 10 6.5 
Q 13.09375 2.90625 17.640625 0.90625 
Q 22.203125 -1.09375 28.40625 -1.09375 
Q 37.203125 -1.09375 43 3.296875 
Q 48.796875 7.703125 50.5 16.40625 
z
" id="HelveticaNeue-101"/>
    </defs>
    <g transform="translate(97.648047 20.9225)scale(0.09 -0.09)">
     <use xlink:href="#HelveticaNeue-84"/>
     <use x="57.399994" xlink:href="#HelveticaNeue-105"/>
     <use x="79.599991" xlink:href="#HelveticaNeue-116"/>
     <use x="111.099976" xlink:href="#HelveticaNeue-108"/>
     <use x="133.299973" xlink:href="#HelveticaNeue-101"/>
    </g>
   </g>
  </g>
  <g id="axes_2">
   <g id="patch_7">
    <path d="M 190.06375 167.9225 
L 334.06375 167.9225 
L 334.06375 23.9225 
L 190.06375 23.9225 
z
" style="fill:#ffffff;"/>
   </g>
   <g id="matplotlib.axis_3">
    <g id="xtick_6">
     <g id="line2d_54">
      <path clip-path="url(#pf16074864e)" d="M 190.06375 167.9225 
L 190.06375 23.9225 
" style="fill:none;stroke:#000000;stroke-linecap:square;stroke-opacity:0.1;stroke-width:0.6;"/>
     </g>
     <g id="line2d_55">
      <g>
       <use style="stroke:#000000;stroke-width:0.6;" x="190.06375" xlink:href="#m135315f5f2" y="167.9225"/>
      </g>
     </g>
     <g id="text_17">
      <!-- 0 -->
      <g transform="translate(187.84 179.635)scale(0.08 -0.08)">
       <use xlink:href="#HelveticaNeue-48"/>
      </g>
     </g>
    </g>
    <g id="xtick_7">
     <g id="line2d_56">
      <path clip-path="url(#pf16074864e)" d="M 218.86375 167.9225 
L 218.86375 23.9225 
" style="fill:none;stroke:#000000;stroke-linecap:square;stroke-opacity:0.1;stroke-width:0.6;"/>
     </g>
     <g id="line2d_57">
      <g>
       <use style="stroke:#000000;stroke-width:0.6;" x="218.86375" xlink:href="#m135315f5f2" y="167.9225"/>
      </g>
     </g>
     <g id="text_18">
      <!-- 0.2 -->
      <defs>
       <path d="M 8.296875 11.09375 
L 8.296875 0 
L 19.40625 0 
L 19.40625 11.09375 
z
" id="HelveticaNeue-46"/>
      </defs>
      <g transform="translate(213.304375 179.635)scale(0.08 -0.08)">
       <use xlink:href="#HelveticaNeue-48"/>
       <use x="55.599991" xlink:href="#HelveticaNeue-46"/>
       <use x="83.399979" xlink:href="#HelveticaNeue-50"/>
      </g>
     </g>
    </g>
    <g id="xtick_8">
     <g id="line2d_58">
      <path clip-path="url(#pf16074864e)" d="M 247.66375 167.9225 
L 247.66375 23.9225 
" style="fill:none;stroke:#000000;stroke-linecap:square;stroke-opacity:0.1;stroke-width:0.6;"/>
     </g>
     <g id="line2d_59">
      <g>
       <use style="stroke:#000000;stroke-width:0.6;" x="247.66375" xlink:href="#m135315f5f2" y="167.9225"/>
      </g>
     </g>
     <g id="text_19">
      <!-- 0.4 -->
      <g transform="translate(242.104375 179.635)scale(0.08 -0.08)">
       <use xlink:href="#HelveticaNeue-48"/>
       <use x="55.599991" xlink:href="#HelveticaNeue-46"/>
       <use x="83.399979" xlink:href="#HelveticaNeue-52"/>
      </g>
     </g>
    </g>
    <g id="xtick_9">
     <g id="line2d_60">
      <path clip-path="url(#pf16074864e)" d="M 276.46375 167.9225 
L 276.46375 23.9225 
" style="fill:none;stroke:#000000;stroke-linecap:square;stroke-opacity:0.1;stroke-width:0.6;"/>
     </g>
     <g id="line2d_61">
      <g>
       <use style="stroke:#000000;stroke-width:0.6;" x="276.46375" xlink:href="#m135315f5f2" y="167.9225"/>
      </g>
     </g>
     <g id="text_20">
      <!-- 0.6 -->
      <g transform="translate(270.904375 179.635)scale(0.08 -0.08)">
       <use xlink:href="#HelveticaNeue-48"/>
       <use x="55.599991" xlink:href="#HelveticaNeue-46"/>
       <use x="83.399979" xlink:href="#HelveticaNeue-54"/>
      </g>
     </g>
    </g>
    <g id="xtick_10">
     <g id="line2d_62">
      <path clip-path="url(#pf16074864e)" d="M 305.26375 167.9225 
L 305.26375 23.9225 
" style="fill:none;stroke:#000000;stroke-linecap:square;stroke-opacity:0.1;stroke-width:0.6;"/>
     </g>
     <g id="line2d_63">
      <g>
       <use style="stroke:#000000;stroke-width:0.6;" x="305.26375" xlink:href="#m135315f5f2" y="167.9225"/>
      </g>
     </g>
     <g id="text_21">
      <!-- 0.8 -->
      <g transform="translate(299.704375 179.635)scale(0.08 -0.08)">
       <use xlink:href="#HelveticaNeue-48"/>
       <use x="55.599991" xlink:href="#HelveticaNeue-46"/>
       <use x="83.399979" xlink:href="#HelveticaNeue-56"/>
      </g>
     </g>
    </g>
    <g id="xtick_11">
     <g id="line2d_64">
      <path clip-path="url(#pf16074864e)" d="M 334.06375 167.9225 
L 334.06375 23.9225 
" style="fill:none;stroke:#000000;stroke-linecap:square;stroke-opacity:0.1;stroke-width:0.6;"/>
     </g>
     <g id="line2d_65">
      <g>
       <use style="stroke:#000000;stroke-width:0.6;" x="334.06375" xlink:href="#m135315f5f2" y="167.9225"/>
      </g>
     </g>
     <g id="text_22">
      <!-- 1 -->
      <g transform="translate(331.84 179.635)scale(0.08 -0.08)">
       <use xlink:href="#HelveticaNeue-49"/>
      </g>
     </g>
    </g>
    <g id="xtick_12">
     <g id="line2d_66">
      <defs>
       <path d="M 0 0 
L 0 2 
" id="m3ebded5b07" style="stroke:#000000;stroke-width:0.48;"/>
      </defs>
      <g>
       <use style="stroke:#000000;stroke-width:0.48;" x="197.26375" xlink:href="#m3ebded5b07" y="167.9225"/>
      </g>
     </g>
    </g>
    <g id="xtick_13">
     <g id="line2d_67">
      <g>
       <use style="stroke:#000000;stroke-width:0.48;" x="204.46375" xlink:href="#m3ebded5b07" y="167.9225"/>
      </g>
     </g>
    </g>
    <g id="xtick_14">
     <g id="line2d_68">
      <g>
       <use style="stroke:#000000;stroke-width:0.48;" x="211.66375" xlink:href="#m3ebded5b07" y="167.9225"/>
      </g>
     </g>
    </g>
    <g id="xtick_15">
     <g id="line2d_69">
      <g>
       <use style="stroke:#000000;stroke-width:0.48;" x="226.06375" xlink:href="#m3ebded5b07" y="167.9225"/>
      </g>
     </g>
    </g>
    <g id="xtick_16">
     <g id="line2d_70">
      <g>
       <use style="stroke:#000000;stroke-width:0.48;" x="233.26375" xlink:href="#m3ebded5b07" y="167.9225"/>
      </g>
     </g>
    </g>
    <g id="xtick_17">
     <g id="line2d_71">
      <g>
       <use style="stroke:#000000;stroke-width:0.48;" x="240.46375" xlink:href="#m3ebded5b07" y="167.9225"/>
      </g>
     </g>
    </g>
    <g id="xtick_18">
     <g id="line2d_72">
      <g>
       <use style="stroke:#000000;stroke-width:0.48;" x="254.86375" xlink:href="#m3ebded5b07" y="167.9225"/>
      </g>
     </g>
    </g>
    <g id="xtick_19">
     <g id="line2d_73">
      <g>
       <use style="stroke:#000000;stroke-width:0.48;" x="262.06375" xlink:href="#m3ebded5b07" y="167.9225"/>
      </g>
     </g>
    </g>
    <g id="xtick_20">
     <g id="line2d_74">
      <g>
       <use style="stroke:#000000;stroke-width:0.48;" x="269.26375" xlink:href="#m3ebded5b07" y="167.9225"/>
      </g>
     </g>
    </g>
    <g id="xtick_21">
     <g id="line2d_75">
      <g>
       <use style="stroke:#000000;stroke-width:0.48;" x="283.66375" xlink:href="#m3ebded5b07" y="167.9225"/>
      </g>
     </g>
    </g>
    <g id="xtick_22">
     <g id="line2d_76">
      <g>
       <use style="stroke:#000000;stroke-width:0.48;" x="290.86375" xlink:href="#m3ebded5b07" y="167.9225"/>
      </g>
     </g>
    </g>
    <g id="xtick_23">
     <g id="line2d_77">
      <g>
       <use style="stroke:#000000;stroke-width:0.48;" x="298.06375" xlink:href="#m3ebded5b07" y="167.9225"/>
      </g>
     </g>
    </g>
    <g id="xtick_24">
     <g id="line2d_78">
      <g>
       <use style="stroke:#000000;stroke-width:0.48;" x="312.46375" xlink:href="#m3ebded5b07" y="167.9225"/>
      </g>
     </g>
    </g>
    <g id="xtick_25">
     <g id="line2d_79">
      <g>
       <use style="stroke:#000000;stroke-width:0.48;" x="319.66375" xlink:href="#m3ebded5b07" y="167.9225"/>
      </g>
     </g>
    </g>
    <g id="xtick_26">
     <g id="line2d_80">
      <g>
       <use style="stroke:#000000;stroke-width:0.48;" x="326.86375" xlink:href="#m3ebded5b07" y="167.9225"/>
      </g>
     </g>
    </g>
   </g>
   <g id="matplotlib.axis_4">
    <g id="ytick_31">
     <g id="line2d_81">
      <path clip-path="url(#pf16074864e)" d="M 190.06375 160.247488 
L 334.06375 160.247488 
" style="fill:none;stroke:#000000;stroke-linecap:square;stroke-opacity:0.1;stroke-width:0.6;"/>
     </g>
     <g id="line2d_82">
      <g>
       <use style="stroke:#000000;stroke-width:0.6;" x="190.06375" xlink:href="#m37a8d0fa82" y="160.247488"/>
      </g>
     </g>
    </g>
    <g id="ytick_32">
     <g id="line2d_83">
      <path clip-path="url(#pf16074864e)" d="M 190.06375 140.882963 
L 334.06375 140.882963 
" style="fill:none;stroke:#000000;stroke-linecap:square;stroke-opacity:0.1;stroke-width:0.6;"/>
     </g>
     <g id="line2d_84">
      <g>
       <use style="stroke:#000000;stroke-width:0.6;" x="190.06375" xlink:href="#m37a8d0fa82" y="140.882963"/>
      </g>
     </g>
    </g>
    <g id="ytick_33">
     <g id="line2d_85">
      <path clip-path="url(#pf16074864e)" d="M 190.06375 121.518438 
L 334.06375 121.518438 
" style="fill:none;stroke:#000000;stroke-linecap:square;stroke-opacity:0.1;stroke-width:0.6;"/>
     </g>
     <g id="line2d_86">
      <g>
       <use style="stroke:#000000;stroke-width:0.6;" x="190.06375" xlink:href="#m37a8d0fa82" y="121.518438"/>
      </g>
     </g>
    </g>
    <g id="ytick_34">
     <g id="line2d_87">
      <path clip-path="url(#pf16074864e)" d="M 190.06375 102.153913 
L 334.06375 102.153913 
" style="fill:none;stroke:#000000;stroke-linecap:square;stroke-opacity:0.1;stroke-width:0.6;"/>
     </g>
     <g id="line2d_88">
      <g>
       <use style="stroke:#000000;stroke-width:0.6;" x="190.06375" xlink:href="#m37a8d0fa82" y="102.153913"/>
      </g>
     </g>
    </g>
    <g id="ytick_35">
     <g id="line2d_89">
      <path clip-path="url(#pf16074864e)" d="M 190.06375 82.789389 
L 334.06375 82.789389 
" style="fill:none;stroke:#000000;stroke-linecap:square;stroke-opacity:0.1;stroke-width:0.6;"/>
     </g>
     <g id="line2d_90">
      <g>
       <use style="stroke:#000000;stroke-width:0.6;" x="190.06375" xlink:href="#m37a8d0fa82" y="82.789389"/>
      </g>
     </g>
    </g>
    <g id="ytick_36">
     <g id="line2d_91">
      <path clip-path="url(#pf16074864e)" d="M 190.06375 63.424864 
L 334.06375 63.424864 
" style="fill:none;stroke:#000000;stroke-linecap:square;stroke-opacity:0.1;stroke-width:0.6;"/>
     </g>
     <g id="line2d_92">
      <g>
       <use style="stroke:#000000;stroke-width:0.6;" x="190.06375" xlink:href="#m37a8d0fa82" y="63.424864"/>
      </g>
     </g>
    </g>
    <g id="ytick_37">
     <g id="line2d_93">
      <path clip-path="url(#pf16074864e)" d="M 190.06375 44.060339 
L 334.06375 44.060339 
" style="fill:none;stroke:#000000;stroke-linecap:square;stroke-opacity:0.1;stroke-width:0.6;"/>
     </g>
     <g id="line2d_94">
      <g>
       <use style="stroke:#000000;stroke-width:0.6;" x="190.06375" xlink:href="#m37a8d0fa82" y="44.060339"/>
      </g>
     </g>
    </g>
    <g id="ytick_38">
     <g id="line2d_95">
      <path clip-path="url(#pf16074864e)" d="M 190.06375 24.695814 
L 334.06375 24.695814 
" style="fill:none;stroke:#000000;stroke-linecap:square;stroke-opacity:0.1;stroke-width:0.6;"/>
     </g>
     <g id="line2d_96">
      <g>
       <use style="stroke:#000000;stroke-width:0.6;" x="190.06375" xlink:href="#m37a8d0fa82" y="24.695814"/>
      </g>
     </g>
    </g>
    <g id="ytick_39">
     <g id="line2d_97">
      <g>
       <use style="stroke:#000000;stroke-width:0.48;" x="190.06375" xlink:href="#mf5ed308bb9" y="165.088619"/>
      </g>
     </g>
    </g>
    <g id="ytick_40">
     <g id="line2d_98">
      <g>
       <use style="stroke:#000000;stroke-width:0.48;" x="190.06375" xlink:href="#mf5ed308bb9" y="155.406356"/>
      </g>
     </g>
    </g>
    <g id="ytick_41">
     <g id="line2d_99">
      <g>
       <use style="stroke:#000000;stroke-width:0.48;" x="190.06375" xlink:href="#mf5ed308bb9" y="150.565225"/>
      </g>
     </g>
    </g>
    <g id="ytick_42">
     <g id="line2d_100">
      <g>
       <use style="stroke:#000000;stroke-width:0.48;" x="190.06375" xlink:href="#mf5ed308bb9" y="145.724094"/>
      </g>
     </g>
    </g>
    <g id="ytick_43">
     <g id="line2d_101">
      <g>
       <use style="stroke:#000000;stroke-width:0.48;" x="190.06375" xlink:href="#mf5ed308bb9" y="136.041832"/>
      </g>
     </g>
    </g>
    <g id="ytick_44">
     <g id="line2d_102">
      <g>
       <use style="stroke:#000000;stroke-width:0.48;" x="190.06375" xlink:href="#mf5ed308bb9" y="131.200701"/>
      </g>
     </g>
    </g>
    <g id="ytick_45">
     <g id="line2d_103">
      <g>
       <use style="stroke:#000000;stroke-width:0.48;" x="190.06375" xlink:href="#mf5ed308bb9" y="126.359569"/>
      </g>
     </g>
    </g>
    <g id="ytick_46">
     <g id="line2d_104">
      <g>
       <use style="stroke:#000000;stroke-width:0.48;" x="190.06375" xlink:href="#mf5ed308bb9" y="116.677307"/>
      </g>
     </g>
    </g>
    <g id="ytick_47">
     <g id="line2d_105">
      <g>
       <use style="stroke:#000000;stroke-width:0.48;" x="190.06375" xlink:href="#mf5ed308bb9" y="111.836176"/>
      </g>
     </g>
    </g>
    <g id="ytick_48">
     <g id="line2d_106">
      <g>
       <use style="stroke:#000000;stroke-width:0.48;" x="190.06375" xlink:href="#mf5ed308bb9" y="106.995045"/>
      </g>
     </g>
    </g>
    <g id="ytick_49">
     <g id="line2d_107">
      <g>
       <use style="stroke:#000000;stroke-width:0.48;" x="190.06375" xlink:href="#mf5ed308bb9" y="97.312782"/>
      </g>
     </g>
    </g>
    <g id="ytick_50">
     <g id="line2d_108">
      <g>
       <use style="stroke:#000000;stroke-width:0.48;" x="190.06375" xlink:href="#mf5ed308bb9" y="92.471651"/>
      </g>
     </g>
    </g>
    <g id="ytick_51">
     <g id="line2d_109">
      <g>
       <use style="stroke:#000000;stroke-width:0.48;" x="190.06375" xlink:href="#mf5ed308bb9" y="87.63052"/>
      </g>
     </g>
    </g>
    <g id="ytick_52">
     <g id="line2d_110">
      <g>
       <use style="stroke:#000000;stroke-width:0.48;" x="190.06375" xlink:href="#mf5ed308bb9" y="77.948257"/>
      </g>
     </g>
    </g>
    <g id="ytick_53">
     <g id="line2d_111">
      <g>
       <use style="stroke:#000000;stroke-width:0.48;" x="190.06375" xlink:href="#mf5ed308bb9" y="73.107126"/>
      </g>
     </g>
    </g>
    <g id="ytick_54">
     <g id="line2d_112">
      <g>
       <use style="stroke:#000000;stroke-width:0.48;" x="190.06375" xlink:href="#mf5ed308bb9" y="68.265995"/>
      </g>
     </g>
    </g>
    <g id="ytick_55">
     <g id="line2d_113">
      <g>
       <use style="stroke:#000000;stroke-width:0.48;" x="190.06375" xlink:href="#mf5ed308bb9" y="58.583733"/>
      </g>
     </g>
    </g>
    <g id="ytick_56">
     <g id="line2d_114">
      <g>
       <use style="stroke:#000000;stroke-width:0.48;" x="190.06375" xlink:href="#mf5ed308bb9" y="53.742602"/>
      </g>
     </g>
    </g>
    <g id="ytick_57">
     <g id="line2d_115">
      <g>
       <use style="stroke:#000000;stroke-width:0.48;" x="190.06375" xlink:href="#mf5ed308bb9" y="48.90147"/>
      </g>
     </g>
    </g>
    <g id="ytick_58">
     <g id="line2d_116">
      <g>
       <use style="stroke:#000000;stroke-width:0.48;" x="190.06375" xlink:href="#mf5ed308bb9" y="39.219208"/>
      </g>
     </g>
    </g>
    <g id="ytick_59">
     <g id="line2d_117">
      <g>
       <use style="stroke:#000000;stroke-width:0.48;" x="190.06375" xlink:href="#mf5ed308bb9" y="34.378077"/>
      </g>
     </g>
    </g>
    <g id="ytick_60">
     <g id="line2d_118">
      <g>
       <use style="stroke:#000000;stroke-width:0.48;" x="190.06375" xlink:href="#mf5ed308bb9" y="29.536946"/>
      </g>
     </g>
    </g>
   </g>
   <g id="patch_8">
    <path d="M 190.06375 167.9225 
L 190.06375 23.9225 
" style="fill:none;stroke:#000000;stroke-linecap:square;stroke-linejoin:miter;stroke-width:0.6;"/>
   </g>
   <g id="patch_9">
    <path d="M 334.06375 167.9225 
L 334.06375 23.9225 
" style="fill:none;stroke:#000000;stroke-linecap:square;stroke-linejoin:miter;stroke-width:0.6;"/>
   </g>
   <g id="patch_10">
    <path d="M 190.06375 167.9225 
L 334.06375 167.9225 
" style="fill:none;stroke:#000000;stroke-linecap:square;stroke-linejoin:miter;stroke-width:0.6;"/>
   </g>
   <g id="patch_11">
    <path d="M 190.06375 23.9225 
L 334.06375 23.9225 
" style="fill:none;stroke:#000000;stroke-linecap:square;stroke-linejoin:miter;stroke-width:0.6;"/>
   </g>
   <g id="text_23">
    <!-- Title -->
    <g transform="translate(253.648047 20.9225)scale(0.09 -0.09)">
     <use xlink:href="#HelveticaNeue-84"/>
     <use x="57.399994" xlink:href="#HelveticaNeue-105"/>
     <use x="79.599991" xlink:href="#HelveticaNeue-116"/>
     <use x="111.099976" xlink:href="#HelveticaNeue-108"/>
     <use x="133.299973" xlink:href="#HelveticaNeue-101"/>
    </g>
   </g>
  </g>
  <g id="text_24">
   <!-- ProPlot API -->
   <defs>
    <path d="M 22.59375 37.796875 
L 22.59375 59.203125 
L 34.796875 59.203125 
Q 37.5 59.203125 40 58.796875 
Q 42.5 58.40625 44.390625 57.25 
Q 46.296875 56.09375 47.4375 54 
Q 48.59375 51.90625 48.59375 48.5 
Q 48.59375 45.09375 47.4375 43 
Q 46.296875 40.90625 44.390625 39.75 
Q 42.5 38.59375 40 38.1875 
Q 37.5 37.796875 34.796875 37.796875 
z
M 6.90625 71.40625 
L 6.90625 0 
L 22.59375 0 
L 22.59375 25.59375 
L 39.09375 25.59375 
Q 45.796875 25.59375 50.5 27.546875 
Q 55.203125 29.5 58.140625 32.703125 
Q 61.09375 35.90625 62.4375 40.046875 
Q 63.796875 44.203125 63.796875 48.5 
Q 63.796875 52.90625 62.4375 57 
Q 61.09375 61.09375 58.140625 64.296875 
Q 55.203125 67.5 50.5 69.453125 
Q 45.796875 71.40625 39.09375 71.40625 
z
" id="HelveticaNeue-Bold-80"/>
    <path d="M 5.40625 51.703125 
L 5.40625 0 
L 19.59375 0 
L 19.59375 23.296875 
Q 19.59375 26.796875 20.296875 29.796875 
Q 21 32.796875 22.640625 35.046875 
Q 24.296875 37.296875 27 38.59375 
Q 29.703125 39.90625 33.59375 39.90625 
Q 34.90625 39.90625 36.296875 39.75 
Q 37.703125 39.59375 38.703125 39.40625 
L 38.703125 52.59375 
Q 37 53.09375 35.59375 53.09375 
Q 32.90625 53.09375 30.40625 52.296875 
Q 27.90625 51.5 25.703125 50.046875 
Q 23.5 48.59375 21.796875 46.546875 
Q 20.09375 44.5 19.09375 42.09375 
L 18.90625 42.09375 
L 18.90625 51.703125 
z
" id="HelveticaNeue-Bold-114"/>
    <path d="M 18 25.796875 
Q 18 28.90625 18.59375 31.90625 
Q 19.203125 34.90625 20.640625 37.203125 
Q 22.09375 39.5 24.5 40.953125 
Q 26.90625 42.40625 30.5 42.40625 
Q 34.09375 42.40625 36.546875 40.953125 
Q 39 39.5 40.453125 37.203125 
Q 41.90625 34.90625 42.5 31.90625 
Q 43.09375 28.90625 43.09375 25.796875 
Q 43.09375 22.703125 42.5 19.75 
Q 41.90625 16.796875 40.453125 14.4375 
Q 39 12.09375 36.546875 10.6875 
Q 34.09375 9.296875 30.5 9.296875 
Q 26.90625 9.296875 24.5 10.6875 
Q 22.09375 12.09375 20.640625 14.4375 
Q 19.203125 16.796875 18.59375 19.75 
Q 18 22.703125 18 25.796875 
z
M 3.796875 25.796875 
Q 3.796875 19.59375 5.6875 14.59375 
Q 7.59375 9.59375 11.09375 6.046875 
Q 14.59375 2.5 19.5 0.59375 
Q 24.40625 -1.296875 30.5 -1.296875 
Q 36.59375 -1.296875 41.546875 0.59375 
Q 46.5 2.5 50 6.046875 
Q 53.5 9.59375 55.390625 14.59375 
Q 57.296875 19.59375 57.296875 25.796875 
Q 57.296875 32 55.390625 37.046875 
Q 53.5 42.09375 50 45.640625 
Q 46.5 49.203125 41.546875 51.140625 
Q 36.59375 53.09375 30.5 53.09375 
Q 24.40625 53.09375 19.5 51.140625 
Q 14.59375 49.203125 11.09375 45.640625 
Q 7.59375 42.09375 5.6875 37.046875 
Q 3.796875 32 3.796875 25.796875 
z
" id="HelveticaNeue-Bold-111"/>
    <path d="M 5.796875 71.40625 
L 5.796875 0 
L 20 0 
L 20 71.40625 
z
" id="HelveticaNeue-Bold-108"/>
    <path d="M 23.40625 51.703125 
L 23.40625 67.203125 
L 9.203125 67.203125 
L 9.203125 51.703125 
L 0.59375 51.703125 
L 0.59375 42.203125 
L 9.203125 42.203125 
L 9.203125 11.703125 
Q 9.203125 7.796875 10.5 5.390625 
Q 11.796875 3 14.046875 1.703125 
Q 16.296875 0.40625 19.25 -0.046875 
Q 22.203125 -0.5 25.5 -0.5 
Q 27.59375 -0.5 29.796875 -0.390625 
Q 32 -0.296875 33.796875 0 
L 33.796875 11 
Q 32.796875 10.796875 31.6875 10.6875 
Q 30.59375 10.59375 29.40625 10.59375 
Q 25.796875 10.59375 24.59375 11.796875 
Q 23.40625 13 23.40625 16.59375 
L 23.40625 42.203125 
L 33.796875 42.203125 
L 33.796875 51.703125 
z
" id="HelveticaNeue-Bold-116"/>
    <path id="HelveticaNeue-Bold-32"/>
    <path d="M 24.90625 27.59375 
L 34.203125 53.796875 
L 34.40625 53.796875 
L 43.40625 27.59375 
z
M 26.40625 71.40625 
L -0.59375 0 
L 15.203125 0 
L 20.796875 15.90625 
L 47.5 15.90625 
L 52.90625 0 
L 69.203125 0 
L 42.5 71.40625 
z
" id="HelveticaNeue-Bold-65"/>
    <path d="M 6.90625 71.40625 
L 6.90625 0 
L 22.59375 0 
L 22.59375 71.40625 
z
" id="HelveticaNeue-Bold-73"/>
   </defs>
   <g transform="translate(159.360982 10.101804)scale(0.09 -0.09)">
    <use xlink:href="#HelveticaNeue-Bold-80"/>
    <use x="66.699997" xlink:href="#HelveticaNeue-Bold-114"/>
    <use x="105.584366" xlink:href="#HelveticaNeue-Bold-111"/>
    <use x="166.684357" xlink:href="#HelveticaNeue-Bold-80"/>
    <use x="233.384354" xlink:href="#HelveticaNeue-Bold-108"/>
    <use x="259.184341" xlink:href="#HelveticaNeue-Bold-111"/>
    <use x="320.284332" xlink:href="#HelveticaNeue-Bold-116"/>
    <use x="355.484329" xlink:href="#HelveticaNeue-Bold-32"/>
    <use x="383.284317" xlink:href="#HelveticaNeue-Bold-65"/>
    <use x="451.784302" xlink:href="#HelveticaNeue-Bold-80"/>
    <use x="518.484299" xlink:href="#HelveticaNeue-Bold-73"/>
   </g>
  </g>
 </g>
 <defs>
  <clipPath id="p603dd1618d">
   <rect height="144" width="144" x="34.06375" y="23.9225"/>
  </clipPath>
  <clipPath id="pf16074864e">
   <rect height="144" width="144" x="190.06375" y="23.9225"/>
  </clipPath>
 </defs>
</svg>
