<?xml version="1.0" encoding="utf-8" standalone="no"?>
<!DOCTYPE svg PUBLIC "-//W3C//DTD SVG 1.1//EN"
  "http://www.w3.org/Graphics/SVG/1.1/DTD/svg11.dtd">
<!-- Created with matplotlib (https://matplotlib.org/) -->
<svg height="156.446091pt" version="1.1" viewBox="0 0 421.3 156.446091" width="421.3pt" xmlns="http://www.w3.org/2000/svg" xmlns:xlink="http://www.w3.org/1999/xlink">
 <defs>
  <style type="text/css">
*{stroke-linecap:butt;stroke-linejoin:round;}
  </style>
 </defs>
 <g id="figure_1">
  <g id="patch_1">
   <path d="M 0 156.446091 
L 421.11875 156.446091 
L 421.11875 -0.326562 
L 0 -0.326562 
z
" style="fill:#f2f2f2;"/>
  </g>
  <g id="axes_1">
   <g id="patch_2">
    <path d="M 25.91875 139.157341 
L 148.31875 139.157341 
L 148.31875 16.757341 
L 25.91875 16.757341 
z
" style="fill:#ffffff;"/>
   </g>
   <g id="matplotlib.axis_1">
    <g id="xtick_1">
     <g id="line2d_1">
      <path clip-path="url(#p6524b7afec)" d="M 25.91875 139.157341 
L 25.91875 16.757341 
" style="fill:none;stroke:#000000;stroke-linecap:square;stroke-opacity:0.1;stroke-width:0.6;"/>
     </g>
     <g id="line2d_2">
      <defs>
       <path d="M 0 0 
L 0 4 
" id="m89934b0b08" style="stroke:#000000;stroke-width:0.6;"/>
      </defs>
      <g>
       <use style="stroke:#000000;stroke-width:0.6;" x="25.91875" xlink:href="#m89934b0b08" y="139.157341"/>
      </g>
     </g>
     <g id="text_1">
      <!-- 0 -->
      <defs>
       <path d="M 13.203125 34.90625 
Q 13.203125 37.5 13.25 40.640625 
Q 13.296875 43.796875 13.75 46.9375 
Q 14.203125 50.09375 15.046875 53.09375 
Q 15.90625 56.09375 17.546875 58.34375 
Q 19.203125 60.59375 21.703125 62 
Q 24.203125 63.40625 27.796875 63.40625 
Q 31.40625 63.40625 33.90625 62 
Q 36.40625 60.59375 38.046875 58.34375 
Q 39.703125 56.09375 40.546875 53.09375 
Q 41.40625 50.09375 41.84375 46.9375 
Q 42.296875 43.796875 42.34375 40.640625 
Q 42.40625 37.5 42.40625 34.90625 
Q 42.40625 30.90625 42.15625 25.953125 
Q 41.90625 21 40.546875 16.640625 
Q 39.203125 12.296875 36.203125 9.296875 
Q 33.203125 6.296875 27.796875 6.296875 
Q 22.40625 6.296875 19.40625 9.296875 
Q 16.40625 12.296875 15.046875 16.640625 
Q 13.703125 21 13.453125 25.953125 
Q 13.203125 30.90625 13.203125 34.90625 
z
M 4.203125 34.796875 
Q 4.203125 30.90625 4.390625 26.703125 
Q 4.59375 22.5 5.390625 18.5 
Q 6.203125 14.5 7.703125 10.953125 
Q 9.203125 7.40625 11.796875 4.703125 
Q 14.40625 2 18.34375 0.453125 
Q 22.296875 -1.09375 27.796875 -1.09375 
Q 33.40625 -1.09375 37.296875 0.453125 
Q 41.203125 2 43.796875 4.703125 
Q 46.40625 7.40625 47.90625 10.953125 
Q 49.40625 14.5 50.203125 18.5 
Q 51 22.5 51.203125 26.703125 
Q 51.40625 30.90625 51.40625 34.796875 
Q 51.40625 38.703125 51.203125 42.890625 
Q 51 47.09375 50.203125 51.09375 
Q 49.40625 55.09375 47.90625 58.6875 
Q 46.40625 62.296875 43.796875 65 
Q 41.203125 67.703125 37.25 69.296875 
Q 33.296875 70.90625 27.796875 70.90625 
Q 22.296875 70.90625 18.34375 69.296875 
Q 14.40625 67.703125 11.796875 65 
Q 9.203125 62.296875 7.703125 58.6875 
Q 6.203125 55.09375 5.390625 51.09375 
Q 4.59375 47.09375 4.390625 42.890625 
Q 4.203125 38.703125 4.203125 34.796875 
z
" id="HelveticaNeue-48"/>
      </defs>
      <g transform="translate(23.695 150.869841)scale(0.08 -0.08)">
       <use xlink:href="#HelveticaNeue-48"/>
      </g>
     </g>
    </g>
    <g id="xtick_2">
     <g id="line2d_3">
      <path clip-path="url(#p6524b7afec)" d="M 53.736932 139.157341 
L 53.736932 16.757341 
" style="fill:none;stroke:#000000;stroke-linecap:square;stroke-opacity:0.1;stroke-width:0.6;"/>
     </g>
     <g id="line2d_4">
      <g>
       <use style="stroke:#000000;stroke-width:0.6;" x="53.736932" xlink:href="#m89934b0b08" y="139.157341"/>
      </g>
     </g>
     <g id="text_2">
      <!-- 2.5 -->
      <defs>
       <path d="M 4.40625 45.796875 
L 12.90625 45.796875 
Q 12.796875 49 13.546875 52.140625 
Q 14.296875 55.296875 16 57.796875 
Q 17.703125 60.296875 20.34375 61.84375 
Q 23 63.40625 26.703125 63.40625 
Q 29.5 63.40625 32 62.5 
Q 34.5 61.59375 36.34375 59.890625 
Q 38.203125 58.203125 39.296875 55.84375 
Q 40.40625 53.5 40.40625 50.59375 
Q 40.40625 46.90625 39.25 44.09375 
Q 38.09375 41.296875 35.84375 38.890625 
Q 33.59375 36.5 30.1875 34.140625 
Q 26.796875 31.796875 22.296875 29 
Q 18.59375 26.796875 15.1875 24.296875 
Q 11.796875 21.796875 9.09375 18.5 
Q 6.40625 15.203125 4.65625 10.75 
Q 2.90625 6.296875 2.40625 0 
L 48.703125 0 
L 48.703125 7.5 
L 12.296875 7.5 
Q 12.90625 10.796875 14.84375 13.34375 
Q 16.796875 15.90625 19.546875 18.09375 
Q 22.296875 20.296875 25.59375 22.25 
Q 28.90625 24.203125 32.203125 26.203125 
Q 35.5 28.296875 38.59375 30.59375 
Q 41.703125 32.90625 44.09375 35.75 
Q 46.5 38.59375 47.953125 42.1875 
Q 49.40625 45.796875 49.40625 50.5 
Q 49.40625 55.5 47.65625 59.296875 
Q 45.90625 63.09375 42.90625 65.640625 
Q 39.90625 68.203125 35.84375 69.546875 
Q 31.796875 70.90625 27.203125 70.90625 
Q 21.59375 70.90625 17.1875 69 
Q 12.796875 67.09375 9.84375 63.75 
Q 6.90625 60.40625 5.5 55.796875 
Q 4.09375 51.203125 4.40625 45.796875 
z
" id="HelveticaNeue-50"/>
       <path d="M 8.296875 11.09375 
L 8.296875 0 
L 19.40625 0 
L 19.40625 11.09375 
z
" id="HelveticaNeue-46"/>
       <path d="M 47 62.203125 
L 47 69.703125 
L 12 69.703125 
L 5.40625 32.90625 
L 12.703125 32.5 
Q 15.203125 35.5 18.453125 37.34375 
Q 21.703125 39.203125 25.90625 39.203125 
Q 29.5 39.203125 32.453125 38 
Q 35.40625 36.796875 37.5 34.640625 
Q 39.59375 32.5 40.75 29.546875 
Q 41.90625 26.59375 41.90625 23.09375 
Q 41.90625 18.90625 40.703125 15.75 
Q 39.5 12.59375 37.453125 10.5 
Q 35.40625 8.40625 32.65625 7.34375 
Q 29.90625 6.296875 26.90625 6.296875 
Q 23.703125 6.296875 21.046875 7.25 
Q 18.40625 8.203125 16.453125 9.953125 
Q 14.5 11.703125 13.34375 14.046875 
Q 12.203125 16.40625 12 19.09375 
L 3.5 19.09375 
Q 3.59375 14.296875 5.390625 10.5 
Q 7.203125 6.703125 10.296875 4.140625 
Q 13.40625 1.59375 17.453125 0.25 
Q 21.5 -1.09375 26.09375 -1.09375 
Q 32.296875 -1.09375 36.9375 0.84375 
Q 41.59375 2.796875 44.6875 6.09375 
Q 47.796875 9.40625 49.34375 13.65625 
Q 50.90625 17.90625 50.90625 22.40625 
Q 50.90625 28.5 49.09375 33.046875 
Q 47.296875 37.59375 44.1875 40.640625 
Q 41.09375 43.703125 36.890625 45.203125 
Q 32.703125 46.703125 28 46.703125 
Q 24.40625 46.703125 20.75 45.453125 
Q 17.09375 44.203125 14.796875 41.59375 
L 14.59375 41.796875 
L 18.40625 62.203125 
z
" id="HelveticaNeue-53"/>
      </defs>
      <g transform="translate(48.177557 150.869841)scale(0.08 -0.08)">
       <use xlink:href="#HelveticaNeue-50"/>
       <use x="55.599991" xlink:href="#HelveticaNeue-46"/>
       <use x="83.399979" xlink:href="#HelveticaNeue-53"/>
      </g>
     </g>
    </g>
    <g id="xtick_3">
     <g id="line2d_5">
      <path clip-path="url(#p6524b7afec)" d="M 81.555114 139.157341 
L 81.555114 16.757341 
" style="fill:none;stroke:#000000;stroke-linecap:square;stroke-opacity:0.1;stroke-width:0.6;"/>
     </g>
     <g id="line2d_6">
      <g>
       <use style="stroke:#000000;stroke-width:0.6;" x="81.555114" xlink:href="#m89934b0b08" y="139.157341"/>
      </g>
     </g>
     <g id="text_3">
      <!-- 5 -->
      <g transform="translate(79.331364 150.869841)scale(0.08 -0.08)">
       <use xlink:href="#HelveticaNeue-53"/>
      </g>
     </g>
    </g>
    <g id="xtick_4">
     <g id="line2d_7">
      <path clip-path="url(#p6524b7afec)" d="M 109.373295 139.157341 
L 109.373295 16.757341 
" style="fill:none;stroke:#000000;stroke-linecap:square;stroke-opacity:0.1;stroke-width:0.6;"/>
     </g>
     <g id="line2d_8">
      <g>
       <use style="stroke:#000000;stroke-width:0.6;" x="109.373295" xlink:href="#m89934b0b08" y="139.157341"/>
      </g>
     </g>
     <g id="text_4">
      <!-- 7.5 -->
      <defs>
       <path d="M 50.90625 62.40625 
L 50.90625 69.703125 
L 5 69.703125 
L 5 61.703125 
L 42.203125 61.703125 
Q 36.59375 55.796875 31.75 48.796875 
Q 26.90625 41.796875 23.203125 33.9375 
Q 19.5 26.09375 17.140625 17.546875 
Q 14.796875 9 14.203125 0 
L 23.703125 0 
Q 24.203125 8.296875 26.5 17.09375 
Q 28.796875 25.90625 32.4375 34.203125 
Q 36.09375 42.5 40.796875 49.796875 
Q 45.5 57.09375 50.90625 62.40625 
z
" id="HelveticaNeue-55"/>
      </defs>
      <g transform="translate(103.81392 150.869841)scale(0.08 -0.08)">
       <use xlink:href="#HelveticaNeue-55"/>
       <use x="55.599991" xlink:href="#HelveticaNeue-46"/>
       <use x="83.399979" xlink:href="#HelveticaNeue-53"/>
      </g>
     </g>
    </g>
    <g id="xtick_5">
     <g id="line2d_9">
      <path clip-path="url(#p6524b7afec)" d="M 137.191477 139.157341 
L 137.191477 16.757341 
" style="fill:none;stroke:#000000;stroke-linecap:square;stroke-opacity:0.1;stroke-width:0.6;"/>
     </g>
     <g id="line2d_10">
      <g>
       <use style="stroke:#000000;stroke-width:0.6;" x="137.191477" xlink:href="#m89934b0b08" y="139.157341"/>
      </g>
     </g>
     <g id="text_5">
      <!-- 10 -->
      <defs>
       <path d="M 35.59375 0 
L 35.59375 70.90625 
L 29.09375 70.90625 
Q 28.40625 66.90625 26.5 64.296875 
Q 24.59375 61.703125 21.84375 60.203125 
Q 19.09375 58.703125 15.6875 58.140625 
Q 12.296875 57.59375 8.703125 57.59375 
L 8.703125 50.796875 
L 27.09375 50.796875 
L 27.09375 0 
z
" id="HelveticaNeue-49"/>
      </defs>
      <g transform="translate(132.743977 150.869841)scale(0.08 -0.08)">
       <use xlink:href="#HelveticaNeue-49"/>
       <use x="55.599991" xlink:href="#HelveticaNeue-48"/>
      </g>
     </g>
    </g>
    <g id="xtick_6">
     <g id="line2d_11">
      <defs>
       <path d="M 0 0 
L 0 2 
" id="mb66c041680" style="stroke:#000000;stroke-width:0.48;"/>
      </defs>
      <g>
       <use style="stroke:#000000;stroke-width:0.48;" x="31.482386" xlink:href="#mb66c041680" y="139.157341"/>
      </g>
     </g>
    </g>
    <g id="xtick_7">
     <g id="line2d_12">
      <g>
       <use style="stroke:#000000;stroke-width:0.48;" x="37.046023" xlink:href="#mb66c041680" y="139.157341"/>
      </g>
     </g>
    </g>
    <g id="xtick_8">
     <g id="line2d_13">
      <g>
       <use style="stroke:#000000;stroke-width:0.48;" x="42.609659" xlink:href="#mb66c041680" y="139.157341"/>
      </g>
     </g>
    </g>
    <g id="xtick_9">
     <g id="line2d_14">
      <g>
       <use style="stroke:#000000;stroke-width:0.48;" x="48.173295" xlink:href="#mb66c041680" y="139.157341"/>
      </g>
     </g>
    </g>
    <g id="xtick_10">
     <g id="line2d_15">
      <g>
       <use style="stroke:#000000;stroke-width:0.48;" x="59.300568" xlink:href="#mb66c041680" y="139.157341"/>
      </g>
     </g>
    </g>
    <g id="xtick_11">
     <g id="line2d_16">
      <g>
       <use style="stroke:#000000;stroke-width:0.48;" x="64.864205" xlink:href="#mb66c041680" y="139.157341"/>
      </g>
     </g>
    </g>
    <g id="xtick_12">
     <g id="line2d_17">
      <g>
       <use style="stroke:#000000;stroke-width:0.48;" x="70.427841" xlink:href="#mb66c041680" y="139.157341"/>
      </g>
     </g>
    </g>
    <g id="xtick_13">
     <g id="line2d_18">
      <g>
       <use style="stroke:#000000;stroke-width:0.48;" x="75.991477" xlink:href="#mb66c041680" y="139.157341"/>
      </g>
     </g>
    </g>
    <g id="xtick_14">
     <g id="line2d_19">
      <g>
       <use style="stroke:#000000;stroke-width:0.48;" x="87.11875" xlink:href="#mb66c041680" y="139.157341"/>
      </g>
     </g>
    </g>
    <g id="xtick_15">
     <g id="line2d_20">
      <g>
       <use style="stroke:#000000;stroke-width:0.48;" x="92.682386" xlink:href="#mb66c041680" y="139.157341"/>
      </g>
     </g>
    </g>
    <g id="xtick_16">
     <g id="line2d_21">
      <g>
       <use style="stroke:#000000;stroke-width:0.48;" x="98.246023" xlink:href="#mb66c041680" y="139.157341"/>
      </g>
     </g>
    </g>
    <g id="xtick_17">
     <g id="line2d_22">
      <g>
       <use style="stroke:#000000;stroke-width:0.48;" x="103.809659" xlink:href="#mb66c041680" y="139.157341"/>
      </g>
     </g>
    </g>
    <g id="xtick_18">
     <g id="line2d_23">
      <g>
       <use style="stroke:#000000;stroke-width:0.48;" x="114.936932" xlink:href="#mb66c041680" y="139.157341"/>
      </g>
     </g>
    </g>
    <g id="xtick_19">
     <g id="line2d_24">
      <g>
       <use style="stroke:#000000;stroke-width:0.48;" x="120.500568" xlink:href="#mb66c041680" y="139.157341"/>
      </g>
     </g>
    </g>
    <g id="xtick_20">
     <g id="line2d_25">
      <g>
       <use style="stroke:#000000;stroke-width:0.48;" x="126.064205" xlink:href="#mb66c041680" y="139.157341"/>
      </g>
     </g>
    </g>
    <g id="xtick_21">
     <g id="line2d_26">
      <g>
       <use style="stroke:#000000;stroke-width:0.48;" x="131.627841" xlink:href="#mb66c041680" y="139.157341"/>
      </g>
     </g>
    </g>
    <g id="xtick_22">
     <g id="line2d_27">
      <g>
       <use style="stroke:#000000;stroke-width:0.48;" x="142.755114" xlink:href="#mb66c041680" y="139.157341"/>
      </g>
     </g>
    </g>
    <g id="xtick_23">
     <g id="line2d_28">
      <g>
       <use style="stroke:#000000;stroke-width:0.48;" x="148.31875" xlink:href="#mb66c041680" y="139.157341"/>
      </g>
     </g>
    </g>
   </g>
   <g id="matplotlib.axis_2">
    <g id="ytick_1">
     <g id="line2d_29">
      <path clip-path="url(#p6524b7afec)" d="M 25.91875 132.283802 
L 148.31875 132.283802 
" style="fill:none;stroke:#000000;stroke-linecap:square;stroke-opacity:0.1;stroke-width:0.6;"/>
     </g>
     <g id="line2d_30">
      <defs>
       <path d="M 0 0 
L -4 0 
" id="maa2967abff" style="stroke:#000000;stroke-width:0.6;"/>
      </defs>
      <g>
       <use style="stroke:#000000;stroke-width:0.6;" x="25.91875" xlink:href="#maa2967abff" y="132.283802"/>
      </g>
     </g>
     <g id="text_6">
      <!-- −1 -->
      <defs>
       <path d="M 4.796875 28.703125 
L 4.796875 21.90625 
L 55.203125 21.90625 
L 55.203125 28.703125 
z
" id="HelveticaNeue-8722"/>
      </defs>
      <g transform="translate(10.67125 135.140052)scale(0.08 -0.08)">
       <use xlink:href="#HelveticaNeue-8722"/>
       <use x="59.999985" xlink:href="#HelveticaNeue-49"/>
      </g>
     </g>
    </g>
    <g id="ytick_2">
     <g id="line2d_31">
      <path clip-path="url(#p6524b7afec)" d="M 25.91875 113.138377 
L 148.31875 113.138377 
" style="fill:none;stroke:#000000;stroke-linecap:square;stroke-opacity:0.1;stroke-width:0.6;"/>
     </g>
     <g id="line2d_32">
      <g>
       <use style="stroke:#000000;stroke-width:0.6;" x="25.91875" xlink:href="#maa2967abff" y="113.138377"/>
      </g>
     </g>
     <g id="text_7">
      <!-- −0.5 -->
      <g transform="translate(4 115.994627)scale(0.08 -0.08)">
       <use xlink:href="#HelveticaNeue-8722"/>
       <use x="59.999985" xlink:href="#HelveticaNeue-48"/>
       <use x="115.599976" xlink:href="#HelveticaNeue-46"/>
       <use x="143.399963" xlink:href="#HelveticaNeue-53"/>
      </g>
     </g>
    </g>
    <g id="ytick_3">
     <g id="line2d_33">
      <path clip-path="url(#p6524b7afec)" d="M 25.91875 93.992951 
L 148.31875 93.992951 
" style="fill:none;stroke:#000000;stroke-linecap:square;stroke-opacity:0.1;stroke-width:0.6;"/>
     </g>
     <g id="line2d_34">
      <g>
       <use style="stroke:#000000;stroke-width:0.6;" x="25.91875" xlink:href="#maa2967abff" y="93.992951"/>
      </g>
     </g>
     <g id="text_8">
      <!-- 0 -->
      <g transform="translate(15.47125 96.849201)scale(0.08 -0.08)">
       <use xlink:href="#HelveticaNeue-48"/>
      </g>
     </g>
    </g>
    <g id="ytick_4">
     <g id="line2d_35">
      <path clip-path="url(#p6524b7afec)" d="M 25.91875 74.847526 
L 148.31875 74.847526 
" style="fill:none;stroke:#000000;stroke-linecap:square;stroke-opacity:0.1;stroke-width:0.6;"/>
     </g>
     <g id="line2d_36">
      <g>
       <use style="stroke:#000000;stroke-width:0.6;" x="25.91875" xlink:href="#maa2967abff" y="74.847526"/>
      </g>
     </g>
     <g id="text_9">
      <!-- 0.5 -->
      <g transform="translate(8.8 77.703776)scale(0.08 -0.08)">
       <use xlink:href="#HelveticaNeue-48"/>
       <use x="55.599991" xlink:href="#HelveticaNeue-46"/>
       <use x="83.399979" xlink:href="#HelveticaNeue-53"/>
      </g>
     </g>
    </g>
    <g id="ytick_5">
     <g id="line2d_37">
      <path clip-path="url(#p6524b7afec)" d="M 25.91875 55.702101 
L 148.31875 55.702101 
" style="fill:none;stroke:#000000;stroke-linecap:square;stroke-opacity:0.1;stroke-width:0.6;"/>
     </g>
     <g id="line2d_38">
      <g>
       <use style="stroke:#000000;stroke-width:0.6;" x="25.91875" xlink:href="#maa2967abff" y="55.702101"/>
      </g>
     </g>
     <g id="text_10">
      <!-- 1 -->
      <g transform="translate(15.47125 58.558351)scale(0.08 -0.08)">
       <use xlink:href="#HelveticaNeue-49"/>
      </g>
     </g>
    </g>
    <g id="ytick_6">
     <g id="line2d_39">
      <path clip-path="url(#p6524b7afec)" d="M 25.91875 36.556675 
L 148.31875 36.556675 
" style="fill:none;stroke:#000000;stroke-linecap:square;stroke-opacity:0.1;stroke-width:0.6;"/>
     </g>
     <g id="line2d_40">
      <g>
       <use style="stroke:#000000;stroke-width:0.6;" x="25.91875" xlink:href="#maa2967abff" y="36.556675"/>
      </g>
     </g>
     <g id="text_11">
      <!-- 1.5 -->
      <g transform="translate(8.8 39.412925)scale(0.08 -0.08)">
       <use xlink:href="#HelveticaNeue-49"/>
       <use x="55.599991" xlink:href="#HelveticaNeue-46"/>
       <use x="83.399979" xlink:href="#HelveticaNeue-53"/>
      </g>
     </g>
    </g>
    <g id="ytick_7">
     <g id="line2d_41">
      <path clip-path="url(#p6524b7afec)" d="M 25.91875 17.41125 
L 148.31875 17.41125 
" style="fill:none;stroke:#000000;stroke-linecap:square;stroke-opacity:0.1;stroke-width:0.6;"/>
     </g>
     <g id="line2d_42">
      <g>
       <use style="stroke:#000000;stroke-width:0.6;" x="25.91875" xlink:href="#maa2967abff" y="17.41125"/>
      </g>
     </g>
     <g id="text_12">
      <!-- 2 -->
      <g transform="translate(15.47125 20.2675)scale(0.08 -0.08)">
       <use xlink:href="#HelveticaNeue-50"/>
      </g>
     </g>
    </g>
    <g id="ytick_8">
     <g id="line2d_43">
      <defs>
       <path d="M 0 0 
L -2 0 
" id="mf4897830cc" style="stroke:#000000;stroke-width:0.48;"/>
      </defs>
      <g>
       <use style="stroke:#000000;stroke-width:0.48;" x="25.91875" xlink:href="#mf4897830cc" y="136.112887"/>
      </g>
     </g>
    </g>
    <g id="ytick_9">
     <g id="line2d_44">
      <g>
       <use style="stroke:#000000;stroke-width:0.48;" x="25.91875" xlink:href="#mf4897830cc" y="128.454717"/>
      </g>
     </g>
    </g>
    <g id="ytick_10">
     <g id="line2d_45">
      <g>
       <use style="stroke:#000000;stroke-width:0.48;" x="25.91875" xlink:href="#mf4897830cc" y="124.625632"/>
      </g>
     </g>
    </g>
    <g id="ytick_11">
     <g id="line2d_46">
      <g>
       <use style="stroke:#000000;stroke-width:0.48;" x="25.91875" xlink:href="#mf4897830cc" y="120.796547"/>
      </g>
     </g>
    </g>
    <g id="ytick_12">
     <g id="line2d_47">
      <g>
       <use style="stroke:#000000;stroke-width:0.48;" x="25.91875" xlink:href="#mf4897830cc" y="116.967462"/>
      </g>
     </g>
    </g>
    <g id="ytick_13">
     <g id="line2d_48">
      <g>
       <use style="stroke:#000000;stroke-width:0.48;" x="25.91875" xlink:href="#mf4897830cc" y="109.309292"/>
      </g>
     </g>
    </g>
    <g id="ytick_14">
     <g id="line2d_49">
      <g>
       <use style="stroke:#000000;stroke-width:0.48;" x="25.91875" xlink:href="#mf4897830cc" y="105.480207"/>
      </g>
     </g>
    </g>
    <g id="ytick_15">
     <g id="line2d_50">
      <g>
       <use style="stroke:#000000;stroke-width:0.48;" x="25.91875" xlink:href="#mf4897830cc" y="101.651122"/>
      </g>
     </g>
    </g>
    <g id="ytick_16">
     <g id="line2d_51">
      <g>
       <use style="stroke:#000000;stroke-width:0.48;" x="25.91875" xlink:href="#mf4897830cc" y="97.822037"/>
      </g>
     </g>
    </g>
    <g id="ytick_17">
     <g id="line2d_52">
      <g>
       <use style="stroke:#000000;stroke-width:0.48;" x="25.91875" xlink:href="#mf4897830cc" y="90.163866"/>
      </g>
     </g>
    </g>
    <g id="ytick_18">
     <g id="line2d_53">
      <g>
       <use style="stroke:#000000;stroke-width:0.48;" x="25.91875" xlink:href="#mf4897830cc" y="86.334781"/>
      </g>
     </g>
    </g>
    <g id="ytick_19">
     <g id="line2d_54">
      <g>
       <use style="stroke:#000000;stroke-width:0.48;" x="25.91875" xlink:href="#mf4897830cc" y="82.505696"/>
      </g>
     </g>
    </g>
    <g id="ytick_20">
     <g id="line2d_55">
      <g>
       <use style="stroke:#000000;stroke-width:0.48;" x="25.91875" xlink:href="#mf4897830cc" y="78.676611"/>
      </g>
     </g>
    </g>
    <g id="ytick_21">
     <g id="line2d_56">
      <g>
       <use style="stroke:#000000;stroke-width:0.48;" x="25.91875" xlink:href="#mf4897830cc" y="71.018441"/>
      </g>
     </g>
    </g>
    <g id="ytick_22">
     <g id="line2d_57">
      <g>
       <use style="stroke:#000000;stroke-width:0.48;" x="25.91875" xlink:href="#mf4897830cc" y="67.189356"/>
      </g>
     </g>
    </g>
    <g id="ytick_23">
     <g id="line2d_58">
      <g>
       <use style="stroke:#000000;stroke-width:0.48;" x="25.91875" xlink:href="#mf4897830cc" y="63.360271"/>
      </g>
     </g>
    </g>
    <g id="ytick_24">
     <g id="line2d_59">
      <g>
       <use style="stroke:#000000;stroke-width:0.48;" x="25.91875" xlink:href="#mf4897830cc" y="59.531186"/>
      </g>
     </g>
    </g>
    <g id="ytick_25">
     <g id="line2d_60">
      <g>
       <use style="stroke:#000000;stroke-width:0.48;" x="25.91875" xlink:href="#mf4897830cc" y="51.873016"/>
      </g>
     </g>
    </g>
    <g id="ytick_26">
     <g id="line2d_61">
      <g>
       <use style="stroke:#000000;stroke-width:0.48;" x="25.91875" xlink:href="#mf4897830cc" y="48.043931"/>
      </g>
     </g>
    </g>
    <g id="ytick_27">
     <g id="line2d_62">
      <g>
       <use style="stroke:#000000;stroke-width:0.48;" x="25.91875" xlink:href="#mf4897830cc" y="44.214846"/>
      </g>
     </g>
    </g>
    <g id="ytick_28">
     <g id="line2d_63">
      <g>
       <use style="stroke:#000000;stroke-width:0.48;" x="25.91875" xlink:href="#mf4897830cc" y="40.38576"/>
      </g>
     </g>
    </g>
    <g id="ytick_29">
     <g id="line2d_64">
      <g>
       <use style="stroke:#000000;stroke-width:0.48;" x="25.91875" xlink:href="#mf4897830cc" y="32.72759"/>
      </g>
     </g>
    </g>
    <g id="ytick_30">
     <g id="line2d_65">
      <g>
       <use style="stroke:#000000;stroke-width:0.48;" x="25.91875" xlink:href="#mf4897830cc" y="28.898505"/>
      </g>
     </g>
    </g>
    <g id="ytick_31">
     <g id="line2d_66">
      <g>
       <use style="stroke:#000000;stroke-width:0.48;" x="25.91875" xlink:href="#mf4897830cc" y="25.06942"/>
      </g>
     </g>
    </g>
    <g id="ytick_32">
     <g id="line2d_67">
      <g>
       <use style="stroke:#000000;stroke-width:0.48;" x="25.91875" xlink:href="#mf4897830cc" y="21.240335"/>
      </g>
     </g>
    </g>
   </g>
   <g id="line2d_68">
    <path clip-path="url(#p6524b7afec)" d="M 25.91875 79.319748 
L 37.046023 90.520978 
L 48.173295 104.515151 
L 59.300568 86.389082 
L 70.427841 87.789051 
L 81.555114 98.537194 
L 92.682386 88.934075 
L 103.809659 98.662037 
L 114.936932 92.102549 
L 126.064205 76.978389 
L 137.191477 89.51075 
L 148.31875 97.495296 
" style="fill:none;stroke:#2b4162;stroke-linecap:square;stroke-width:5;"/>
   </g>
   <g id="line2d_69">
    <path clip-path="url(#p6524b7afec)" d="M 25.91875 111.138416 
L 37.046023 92.833409 
L 48.173295 92.310526 
L 59.300568 99.146782 
L 70.427841 93.505029 
L 81.555114 96.792011 
L 92.682386 83.945676 
L 103.809659 98.207246 
L 114.936932 80.169702 
L 126.064205 66.334544 
L 137.191477 50.274097 
L 148.31875 56.943543 
" style="fill:none;stroke:#fa9f42;stroke-linecap:square;stroke-width:5;"/>
   </g>
   <g id="line2d_70">
    <path clip-path="url(#p6524b7afec)" d="M 25.91875 85.552872 
L 37.046023 90.084292 
L 48.173295 89.417515 
L 59.300568 93.401189 
L 70.427841 75.554257 
L 81.555114 87.04574 
L 92.682386 71.943923 
L 103.809659 58.593337 
L 114.936932 42.194559 
L 126.064205 27.371941 
L 137.191477 42.321392 
L 148.31875 30.553381 
" style="fill:none;stroke:#e0e0e2;stroke-linecap:square;stroke-width:5;"/>
   </g>
   <g id="line2d_71">
    <path clip-path="url(#p6524b7afec)" d="M 25.91875 77.946965 
L 37.046023 75.413972 
L 48.173295 92.302446 
L 59.300568 74.646557 
L 70.427841 77.561148 
L 81.555114 79.20738 
L 92.682386 68.446399 
L 103.809659 51.374739 
L 114.936932 45.008831 
L 126.064205 36.89717 
L 137.191477 31.745954 
L 148.31875 16.757341 
" style="fill:none;stroke:#a21817;stroke-linecap:square;stroke-width:5;"/>
   </g>
   <g id="line2d_72">
    <path clip-path="url(#p6524b7afec)" d="M 25.91875 98.413718 
L 37.046023 84.885569 
L 48.173295 98.2575 
L 59.300568 105.613948 
L 70.427841 103.219713 
L 81.555114 102.456929 
L 92.682386 114.90296 
L 103.809659 131.63788 
L 114.936932 127.262317 
L 126.064205 109.458197 
L 137.191477 124.197105 
L 148.31875 139.157341 
" style="fill:none;stroke:#0b6e4f;stroke-linecap:square;stroke-width:5;"/>
   </g>
   <g id="line2d_73">
    <path clip-path="url(#p6524b7afec)" d="M 25.91875 103.2632 
L 37.046023 88.715724 
L 48.173295 68.345974 
L 59.300568 63.10532 
L 70.427841 66.608614 
L 81.555114 49.357548 
L 92.682386 55.021849 
L 103.809659 57.838618 
L 114.936932 47.982668 
L 126.064205 50.416432 
L 137.191477 41.264538 
L 148.31875 51.115087 
" style="fill:none;stroke:#2b4162;stroke-linecap:square;stroke-width:5;"/>
   </g>
   <g id="line2d_74">
    <path clip-path="url(#p6524b7afec)" d="M 25.91875 105.335233 
L 37.046023 99.955373 
L 48.173295 100.255381 
L 59.300568 93.322085 
L 70.427841 80.432201 
L 81.555114 82.581235 
L 92.682386 64.925702 
L 103.809659 62.154102 
L 114.936932 69.216238 
L 126.064205 74.540099 
L 137.191477 72.629848 
L 148.31875 81.072148 
" style="fill:none;stroke:#fa9f42;stroke-linecap:square;stroke-width:5;"/>
   </g>
   <g id="line2d_75">
    <path clip-path="url(#p6524b7afec)" d="M 25.91875 106.817075 
L 37.046023 114.696569 
L 48.173295 106.259738 
L 59.300568 91.837632 
L 70.427841 71.788298 
L 81.555114 74.825277 
L 92.682386 55.618062 
L 103.809659 67.558404 
L 114.936932 69.008976 
L 126.064205 67.512162 
L 137.191477 62.212043 
L 148.31875 77.59466 
" style="fill:none;stroke:#e0e0e2;stroke-linecap:square;stroke-width:5;"/>
   </g>
   <g id="line2d_76">
    <path clip-path="url(#p6524b7afec)" d="M 25.91875 106.198048 
L 37.046023 108.437116 
L 48.173295 92.412626 
L 59.300568 104.48247 
L 70.427841 93.806376 
L 81.555114 73.524733 
L 92.682386 56.908894 
L 103.809659 57.510148 
L 114.936932 58.291476 
L 126.064205 38.171245 
L 137.191477 36.14386 
L 148.31875 49.4196 
" style="fill:none;stroke:#a21817;stroke-linecap:square;stroke-width:5;"/>
   </g>
   <g id="line2d_77">
    <path clip-path="url(#p6524b7afec)" d="M 25.91875 99.537467 
L 37.046023 88.949563 
L 48.173295 87.150855 
L 59.300568 74.047563 
L 70.427841 86.409824 
L 81.555114 100.764509 
L 92.682386 110.98801 
L 103.809659 109.572958 
L 114.936932 121.174212 
L 126.064205 129.079461 
L 137.191477 135.151578 
L 148.31875 121.904019 
" style="fill:none;stroke:#0b6e4f;stroke-linecap:square;stroke-width:5;"/>
   </g>
   <g id="line2d_78">
    <path clip-path="url(#p6524b7afec)" d="M 25.91875 77.263758 
L 37.046023 88.021321 
L 48.173295 100.760894 
L 59.300568 85.154943 
L 70.427841 72.102154 
L 81.555114 56.510861 
L 92.682386 65.544956 
L 103.809659 63.287201 
L 114.936932 49.916087 
L 126.064205 29.510908 
L 137.191477 40.47367 
L 148.31875 23.227877 
" style="fill:none;stroke:#2b4162;stroke-linecap:square;stroke-width:5;"/>
   </g>
   <g id="line2d_79">
    <path clip-path="url(#p6524b7afec)" d="M 25.91875 96.521045 
L 37.046023 103.66822 
L 48.173295 83.228915 
L 59.300568 69.966901 
L 70.427841 81.89359 
L 81.555114 77.685641 
L 92.682386 60.33367 
L 103.809659 59.279174 
L 114.936932 71.158785 
L 126.064205 77.852239 
L 137.191477 69.842855 
L 148.31875 70.458211 
" style="fill:none;stroke:#fa9f42;stroke-linecap:square;stroke-width:5;"/>
   </g>
   <g id="patch_3">
    <path d="M 25.91875 139.157341 
L 25.91875 16.757341 
" style="fill:none;stroke:#000000;stroke-linecap:square;stroke-linejoin:miter;stroke-width:0.6;"/>
   </g>
   <g id="patch_4">
    <path d="M 148.31875 139.157341 
L 148.31875 16.757341 
" style="fill:none;stroke:#000000;stroke-linecap:square;stroke-linejoin:miter;stroke-width:0.6;"/>
   </g>
   <g id="patch_5">
    <path d="M 25.91875 139.157341 
L 148.31875 139.157341 
" style="fill:none;stroke:#000000;stroke-linecap:square;stroke-linejoin:miter;stroke-width:0.6;"/>
   </g>
   <g id="patch_6">
    <path d="M 25.91875 16.757341 
L 148.31875 16.757341 
" style="fill:none;stroke:#000000;stroke-linecap:square;stroke-linejoin:miter;stroke-width:0.6;"/>
   </g>
  </g>
  <g id="axes_2">
   <g id="patch_7">
    <path d="M 160.31875 139.157341 
L 282.71875 139.157341 
L 282.71875 16.757341 
L 160.31875 16.757341 
z
" style="fill:#ffffff;"/>
   </g>
   <g id="matplotlib.axis_3">
    <g id="xtick_24">
     <g id="line2d_80">
      <path clip-path="url(#pb755ebd06d)" d="M 160.31875 139.157341 
L 160.31875 16.757341 
" style="fill:none;stroke:#000000;stroke-linecap:square;stroke-opacity:0.1;stroke-width:0.6;"/>
     </g>
     <g id="line2d_81">
      <g>
       <use style="stroke:#000000;stroke-width:0.6;" x="160.31875" xlink:href="#m89934b0b08" y="139.157341"/>
      </g>
     </g>
     <g id="text_13">
      <!-- 0 -->
      <g transform="translate(158.095 150.869841)scale(0.08 -0.08)">
       <use xlink:href="#HelveticaNeue-48"/>
      </g>
     </g>
    </g>
    <g id="xtick_25">
     <g id="line2d_82">
      <path clip-path="url(#pb755ebd06d)" d="M 188.136932 139.157341 
L 188.136932 16.757341 
" style="fill:none;stroke:#000000;stroke-linecap:square;stroke-opacity:0.1;stroke-width:0.6;"/>
     </g>
     <g id="line2d_83">
      <g>
       <use style="stroke:#000000;stroke-width:0.6;" x="188.136932" xlink:href="#m89934b0b08" y="139.157341"/>
      </g>
     </g>
     <g id="text_14">
      <!-- 2.5 -->
      <g transform="translate(182.577557 150.869841)scale(0.08 -0.08)">
       <use xlink:href="#HelveticaNeue-50"/>
       <use x="55.599991" xlink:href="#HelveticaNeue-46"/>
       <use x="83.399979" xlink:href="#HelveticaNeue-53"/>
      </g>
     </g>
    </g>
    <g id="xtick_26">
     <g id="line2d_84">
      <path clip-path="url(#pb755ebd06d)" d="M 215.955114 139.157341 
L 215.955114 16.757341 
" style="fill:none;stroke:#000000;stroke-linecap:square;stroke-opacity:0.1;stroke-width:0.6;"/>
     </g>
     <g id="line2d_85">
      <g>
       <use style="stroke:#000000;stroke-width:0.6;" x="215.955114" xlink:href="#m89934b0b08" y="139.157341"/>
      </g>
     </g>
     <g id="text_15">
      <!-- 5 -->
      <g transform="translate(213.731364 150.869841)scale(0.08 -0.08)">
       <use xlink:href="#HelveticaNeue-53"/>
      </g>
     </g>
    </g>
    <g id="xtick_27">
     <g id="line2d_86">
      <path clip-path="url(#pb755ebd06d)" d="M 243.773295 139.157341 
L 243.773295 16.757341 
" style="fill:none;stroke:#000000;stroke-linecap:square;stroke-opacity:0.1;stroke-width:0.6;"/>
     </g>
     <g id="line2d_87">
      <g>
       <use style="stroke:#000000;stroke-width:0.6;" x="243.773295" xlink:href="#m89934b0b08" y="139.157341"/>
      </g>
     </g>
     <g id="text_16">
      <!-- 7.5 -->
      <g transform="translate(238.21392 150.869841)scale(0.08 -0.08)">
       <use xlink:href="#HelveticaNeue-55"/>
       <use x="55.599991" xlink:href="#HelveticaNeue-46"/>
       <use x="83.399979" xlink:href="#HelveticaNeue-53"/>
      </g>
     </g>
    </g>
    <g id="xtick_28">
     <g id="line2d_88">
      <path clip-path="url(#pb755ebd06d)" d="M 271.591477 139.157341 
L 271.591477 16.757341 
" style="fill:none;stroke:#000000;stroke-linecap:square;stroke-opacity:0.1;stroke-width:0.6;"/>
     </g>
     <g id="line2d_89">
      <g>
       <use style="stroke:#000000;stroke-width:0.6;" x="271.591477" xlink:href="#m89934b0b08" y="139.157341"/>
      </g>
     </g>
     <g id="text_17">
      <!-- 10 -->
      <g transform="translate(267.143977 150.869841)scale(0.08 -0.08)">
       <use xlink:href="#HelveticaNeue-49"/>
       <use x="55.599991" xlink:href="#HelveticaNeue-48"/>
      </g>
     </g>
    </g>
    <g id="xtick_29">
     <g id="line2d_90">
      <g>
       <use style="stroke:#000000;stroke-width:0.48;" x="165.882386" xlink:href="#mb66c041680" y="139.157341"/>
      </g>
     </g>
    </g>
    <g id="xtick_30">
     <g id="line2d_91">
      <g>
       <use style="stroke:#000000;stroke-width:0.48;" x="171.446023" xlink:href="#mb66c041680" y="139.157341"/>
      </g>
     </g>
    </g>
    <g id="xtick_31">
     <g id="line2d_92">
      <g>
       <use style="stroke:#000000;stroke-width:0.48;" x="177.009659" xlink:href="#mb66c041680" y="139.157341"/>
      </g>
     </g>
    </g>
    <g id="xtick_32">
     <g id="line2d_93">
      <g>
       <use style="stroke:#000000;stroke-width:0.48;" x="182.573295" xlink:href="#mb66c041680" y="139.157341"/>
      </g>
     </g>
    </g>
    <g id="xtick_33">
     <g id="line2d_94">
      <g>
       <use style="stroke:#000000;stroke-width:0.48;" x="193.700568" xlink:href="#mb66c041680" y="139.157341"/>
      </g>
     </g>
    </g>
    <g id="xtick_34">
     <g id="line2d_95">
      <g>
       <use style="stroke:#000000;stroke-width:0.48;" x="199.264205" xlink:href="#mb66c041680" y="139.157341"/>
      </g>
     </g>
    </g>
    <g id="xtick_35">
     <g id="line2d_96">
      <g>
       <use style="stroke:#000000;stroke-width:0.48;" x="204.827841" xlink:href="#mb66c041680" y="139.157341"/>
      </g>
     </g>
    </g>
    <g id="xtick_36">
     <g id="line2d_97">
      <g>
       <use style="stroke:#000000;stroke-width:0.48;" x="210.391477" xlink:href="#mb66c041680" y="139.157341"/>
      </g>
     </g>
    </g>
    <g id="xtick_37">
     <g id="line2d_98">
      <g>
       <use style="stroke:#000000;stroke-width:0.48;" x="221.51875" xlink:href="#mb66c041680" y="139.157341"/>
      </g>
     </g>
    </g>
    <g id="xtick_38">
     <g id="line2d_99">
      <g>
       <use style="stroke:#000000;stroke-width:0.48;" x="227.082386" xlink:href="#mb66c041680" y="139.157341"/>
      </g>
     </g>
    </g>
    <g id="xtick_39">
     <g id="line2d_100">
      <g>
       <use style="stroke:#000000;stroke-width:0.48;" x="232.646023" xlink:href="#mb66c041680" y="139.157341"/>
      </g>
     </g>
    </g>
    <g id="xtick_40">
     <g id="line2d_101">
      <g>
       <use style="stroke:#000000;stroke-width:0.48;" x="238.209659" xlink:href="#mb66c041680" y="139.157341"/>
      </g>
     </g>
    </g>
    <g id="xtick_41">
     <g id="line2d_102">
      <g>
       <use style="stroke:#000000;stroke-width:0.48;" x="249.336932" xlink:href="#mb66c041680" y="139.157341"/>
      </g>
     </g>
    </g>
    <g id="xtick_42">
     <g id="line2d_103">
      <g>
       <use style="stroke:#000000;stroke-width:0.48;" x="254.900568" xlink:href="#mb66c041680" y="139.157341"/>
      </g>
     </g>
    </g>
    <g id="xtick_43">
     <g id="line2d_104">
      <g>
       <use style="stroke:#000000;stroke-width:0.48;" x="260.464205" xlink:href="#mb66c041680" y="139.157341"/>
      </g>
     </g>
    </g>
    <g id="xtick_44">
     <g id="line2d_105">
      <g>
       <use style="stroke:#000000;stroke-width:0.48;" x="266.027841" xlink:href="#mb66c041680" y="139.157341"/>
      </g>
     </g>
    </g>
    <g id="xtick_45">
     <g id="line2d_106">
      <g>
       <use style="stroke:#000000;stroke-width:0.48;" x="277.155114" xlink:href="#mb66c041680" y="139.157341"/>
      </g>
     </g>
    </g>
    <g id="xtick_46">
     <g id="line2d_107">
      <g>
       <use style="stroke:#000000;stroke-width:0.48;" x="282.71875" xlink:href="#mb66c041680" y="139.157341"/>
      </g>
     </g>
    </g>
   </g>
   <g id="matplotlib.axis_4">
    <g id="ytick_33">
     <g id="line2d_108">
      <path clip-path="url(#pb755ebd06d)" d="M 160.31875 132.283802 
L 282.71875 132.283802 
" style="fill:none;stroke:#000000;stroke-linecap:square;stroke-opacity:0.1;stroke-width:0.6;"/>
     </g>
     <g id="line2d_109">
      <g>
       <use style="stroke:#000000;stroke-width:0.6;" x="160.31875" xlink:href="#maa2967abff" y="132.283802"/>
      </g>
     </g>
    </g>
    <g id="ytick_34">
     <g id="line2d_110">
      <path clip-path="url(#pb755ebd06d)" d="M 160.31875 113.138377 
L 282.71875 113.138377 
" style="fill:none;stroke:#000000;stroke-linecap:square;stroke-opacity:0.1;stroke-width:0.6;"/>
     </g>
     <g id="line2d_111">
      <g>
       <use style="stroke:#000000;stroke-width:0.6;" x="160.31875" xlink:href="#maa2967abff" y="113.138377"/>
      </g>
     </g>
    </g>
    <g id="ytick_35">
     <g id="line2d_112">
      <path clip-path="url(#pb755ebd06d)" d="M 160.31875 93.992951 
L 282.71875 93.992951 
" style="fill:none;stroke:#000000;stroke-linecap:square;stroke-opacity:0.1;stroke-width:0.6;"/>
     </g>
     <g id="line2d_113">
      <g>
       <use style="stroke:#000000;stroke-width:0.6;" x="160.31875" xlink:href="#maa2967abff" y="93.992951"/>
      </g>
     </g>
    </g>
    <g id="ytick_36">
     <g id="line2d_114">
      <path clip-path="url(#pb755ebd06d)" d="M 160.31875 74.847526 
L 282.71875 74.847526 
" style="fill:none;stroke:#000000;stroke-linecap:square;stroke-opacity:0.1;stroke-width:0.6;"/>
     </g>
     <g id="line2d_115">
      <g>
       <use style="stroke:#000000;stroke-width:0.6;" x="160.31875" xlink:href="#maa2967abff" y="74.847526"/>
      </g>
     </g>
    </g>
    <g id="ytick_37">
     <g id="line2d_116">
      <path clip-path="url(#pb755ebd06d)" d="M 160.31875 55.702101 
L 282.71875 55.702101 
" style="fill:none;stroke:#000000;stroke-linecap:square;stroke-opacity:0.1;stroke-width:0.6;"/>
     </g>
     <g id="line2d_117">
      <g>
       <use style="stroke:#000000;stroke-width:0.6;" x="160.31875" xlink:href="#maa2967abff" y="55.702101"/>
      </g>
     </g>
    </g>
    <g id="ytick_38">
     <g id="line2d_118">
      <path clip-path="url(#pb755ebd06d)" d="M 160.31875 36.556675 
L 282.71875 36.556675 
" style="fill:none;stroke:#000000;stroke-linecap:square;stroke-opacity:0.1;stroke-width:0.6;"/>
     </g>
     <g id="line2d_119">
      <g>
       <use style="stroke:#000000;stroke-width:0.6;" x="160.31875" xlink:href="#maa2967abff" y="36.556675"/>
      </g>
     </g>
    </g>
    <g id="ytick_39">
     <g id="line2d_120">
      <path clip-path="url(#pb755ebd06d)" d="M 160.31875 17.41125 
L 282.71875 17.41125 
" style="fill:none;stroke:#000000;stroke-linecap:square;stroke-opacity:0.1;stroke-width:0.6;"/>
     </g>
     <g id="line2d_121">
      <g>
       <use style="stroke:#000000;stroke-width:0.6;" x="160.31875" xlink:href="#maa2967abff" y="17.41125"/>
      </g>
     </g>
    </g>
    <g id="ytick_40">
     <g id="line2d_122">
      <g>
       <use style="stroke:#000000;stroke-width:0.48;" x="160.31875" xlink:href="#mf4897830cc" y="136.112887"/>
      </g>
     </g>
    </g>
    <g id="ytick_41">
     <g id="line2d_123">
      <g>
       <use style="stroke:#000000;stroke-width:0.48;" x="160.31875" xlink:href="#mf4897830cc" y="128.454717"/>
      </g>
     </g>
    </g>
    <g id="ytick_42">
     <g id="line2d_124">
      <g>
       <use style="stroke:#000000;stroke-width:0.48;" x="160.31875" xlink:href="#mf4897830cc" y="124.625632"/>
      </g>
     </g>
    </g>
    <g id="ytick_43">
     <g id="line2d_125">
      <g>
       <use style="stroke:#000000;stroke-width:0.48;" x="160.31875" xlink:href="#mf4897830cc" y="120.796547"/>
      </g>
     </g>
    </g>
    <g id="ytick_44">
     <g id="line2d_126">
      <g>
       <use style="stroke:#000000;stroke-width:0.48;" x="160.31875" xlink:href="#mf4897830cc" y="116.967462"/>
      </g>
     </g>
    </g>
    <g id="ytick_45">
     <g id="line2d_127">
      <g>
       <use style="stroke:#000000;stroke-width:0.48;" x="160.31875" xlink:href="#mf4897830cc" y="109.309292"/>
      </g>
     </g>
    </g>
    <g id="ytick_46">
     <g id="line2d_128">
      <g>
       <use style="stroke:#000000;stroke-width:0.48;" x="160.31875" xlink:href="#mf4897830cc" y="105.480207"/>
      </g>
     </g>
    </g>
    <g id="ytick_47">
     <g id="line2d_129">
      <g>
       <use style="stroke:#000000;stroke-width:0.48;" x="160.31875" xlink:href="#mf4897830cc" y="101.651122"/>
      </g>
     </g>
    </g>
    <g id="ytick_48">
     <g id="line2d_130">
      <g>
       <use style="stroke:#000000;stroke-width:0.48;" x="160.31875" xlink:href="#mf4897830cc" y="97.822037"/>
      </g>
     </g>
    </g>
    <g id="ytick_49">
     <g id="line2d_131">
      <g>
       <use style="stroke:#000000;stroke-width:0.48;" x="160.31875" xlink:href="#mf4897830cc" y="90.163866"/>
      </g>
     </g>
    </g>
    <g id="ytick_50">
     <g id="line2d_132">
      <g>
       <use style="stroke:#000000;stroke-width:0.48;" x="160.31875" xlink:href="#mf4897830cc" y="86.334781"/>
      </g>
     </g>
    </g>
    <g id="ytick_51">
     <g id="line2d_133">
      <g>
       <use style="stroke:#000000;stroke-width:0.48;" x="160.31875" xlink:href="#mf4897830cc" y="82.505696"/>
      </g>
     </g>
    </g>
    <g id="ytick_52">
     <g id="line2d_134">
      <g>
       <use style="stroke:#000000;stroke-width:0.48;" x="160.31875" xlink:href="#mf4897830cc" y="78.676611"/>
      </g>
     </g>
    </g>
    <g id="ytick_53">
     <g id="line2d_135">
      <g>
       <use style="stroke:#000000;stroke-width:0.48;" x="160.31875" xlink:href="#mf4897830cc" y="71.018441"/>
      </g>
     </g>
    </g>
    <g id="ytick_54">
     <g id="line2d_136">
      <g>
       <use style="stroke:#000000;stroke-width:0.48;" x="160.31875" xlink:href="#mf4897830cc" y="67.189356"/>
      </g>
     </g>
    </g>
    <g id="ytick_55">
     <g id="line2d_137">
      <g>
       <use style="stroke:#000000;stroke-width:0.48;" x="160.31875" xlink:href="#mf4897830cc" y="63.360271"/>
      </g>
     </g>
    </g>
    <g id="ytick_56">
     <g id="line2d_138">
      <g>
       <use style="stroke:#000000;stroke-width:0.48;" x="160.31875" xlink:href="#mf4897830cc" y="59.531186"/>
      </g>
     </g>
    </g>
    <g id="ytick_57">
     <g id="line2d_139">
      <g>
       <use style="stroke:#000000;stroke-width:0.48;" x="160.31875" xlink:href="#mf4897830cc" y="51.873016"/>
      </g>
     </g>
    </g>
    <g id="ytick_58">
     <g id="line2d_140">
      <g>
       <use style="stroke:#000000;stroke-width:0.48;" x="160.31875" xlink:href="#mf4897830cc" y="48.043931"/>
      </g>
     </g>
    </g>
    <g id="ytick_59">
     <g id="line2d_141">
      <g>
       <use style="stroke:#000000;stroke-width:0.48;" x="160.31875" xlink:href="#mf4897830cc" y="44.214846"/>
      </g>
     </g>
    </g>
    <g id="ytick_60">
     <g id="line2d_142">
      <g>
       <use style="stroke:#000000;stroke-width:0.48;" x="160.31875" xlink:href="#mf4897830cc" y="40.38576"/>
      </g>
     </g>
    </g>
    <g id="ytick_61">
     <g id="line2d_143">
      <g>
       <use style="stroke:#000000;stroke-width:0.48;" x="160.31875" xlink:href="#mf4897830cc" y="32.72759"/>
      </g>
     </g>
    </g>
    <g id="ytick_62">
     <g id="line2d_144">
      <g>
       <use style="stroke:#000000;stroke-width:0.48;" x="160.31875" xlink:href="#mf4897830cc" y="28.898505"/>
      </g>
     </g>
    </g>
    <g id="ytick_63">
     <g id="line2d_145">
      <g>
       <use style="stroke:#000000;stroke-width:0.48;" x="160.31875" xlink:href="#mf4897830cc" y="25.06942"/>
      </g>
     </g>
    </g>
    <g id="ytick_64">
     <g id="line2d_146">
      <g>
       <use style="stroke:#000000;stroke-width:0.48;" x="160.31875" xlink:href="#mf4897830cc" y="21.240335"/>
      </g>
     </g>
    </g>
   </g>
   <g id="line2d_147">
    <path clip-path="url(#pb755ebd06d)" d="M 160.31875 79.319748 
L 171.446023 90.520978 
L 182.573295 104.515151 
L 193.700568 86.389082 
L 204.827841 87.789051 
L 215.955114 98.537194 
L 227.082386 88.934075 
L 238.209659 98.662037 
L 249.336932 92.102549 
L 260.464205 76.978389 
L 271.591477 89.51075 
L 282.71875 97.495296 
" style="fill:none;stroke:#5bbe94;stroke-linecap:square;stroke-width:5;"/>
   </g>
   <g id="line2d_148">
    <path clip-path="url(#pb755ebd06d)" d="M 160.31875 111.138416 
L 171.446023 92.833409 
L 182.573295 92.310526 
L 193.700568 99.146782 
L 204.827841 93.505029 
L 215.955114 96.792011 
L 227.082386 83.945676 
L 238.209659 98.207246 
L 249.336932 80.169702 
L 260.464205 66.334544 
L 271.591477 50.274097 
L 282.71875 56.943543 
" style="fill:none;stroke:#b6e3d1;stroke-linecap:square;stroke-width:5;"/>
   </g>
   <g id="line2d_149">
    <path clip-path="url(#pb755ebd06d)" d="M 160.31875 85.552872 
L 171.446023 90.084292 
L 182.573295 89.417515 
L 193.700568 93.401189 
L 204.827841 75.554257 
L 215.955114 87.04574 
L 227.082386 71.943923 
L 238.209659 58.593337 
L 249.336932 42.194559 
L 260.464205 27.371941 
L 271.591477 42.321392 
L 282.71875 30.553381 
" style="fill:none;stroke:#91be64;stroke-linecap:square;stroke-width:5;"/>
   </g>
   <g id="line2d_150">
    <path clip-path="url(#pb755ebd06d)" d="M 160.31875 77.946965 
L 171.446023 75.413972 
L 182.573295 92.302446 
L 193.700568 74.646557 
L 204.827841 77.561148 
L 215.955114 79.20738 
L 227.082386 68.446399 
L 238.209659 51.374739 
L 249.336932 45.008831 
L 260.464205 36.89717 
L 271.591477 31.745954 
L 282.71875 16.757341 
" style="fill:none;stroke:#cce5b5;stroke-linecap:square;stroke-width:5;"/>
   </g>
   <g id="line2d_151">
    <path clip-path="url(#pb755ebd06d)" d="M 160.31875 98.413718 
L 171.446023 84.885569 
L 182.573295 98.2575 
L 193.700568 105.613948 
L 204.827841 103.219713 
L 215.955114 102.456929 
L 227.082386 114.90296 
L 238.209659 131.63788 
L 249.336932 127.262317 
L 260.464205 109.458197 
L 271.591477 124.197105 
L 282.71875 139.157341 
" style="fill:none;stroke:#e5cf6c;stroke-linecap:square;stroke-width:5;"/>
   </g>
   <g id="line2d_152">
    <path clip-path="url(#pb755ebd06d)" d="M 160.31875 103.2632 
L 171.446023 88.715724 
L 182.573295 68.345974 
L 193.700568 63.10532 
L 204.827841 66.608614 
L 215.955114 49.357548 
L 227.082386 55.021849 
L 238.209659 57.838618 
L 249.336932 47.982668 
L 260.464205 50.416432 
L 271.591477 41.264538 
L 282.71875 51.115087 
" style="fill:none;stroke:#f9ebaa;stroke-linecap:square;stroke-width:5;"/>
   </g>
   <g id="line2d_153">
    <path clip-path="url(#pb755ebd06d)" d="M 160.31875 105.335233 
L 171.446023 99.955373 
L 182.573295 100.255381 
L 193.700568 93.322085 
L 204.827841 80.432201 
L 215.955114 82.581235 
L 227.082386 64.925702 
L 238.209659 62.154102 
L 249.336932 69.216238 
L 260.464205 74.540099 
L 271.591477 72.629848 
L 282.71875 81.072148 
" style="fill:none;stroke:#e87b70;stroke-linecap:square;stroke-width:5;"/>
   </g>
   <g id="line2d_154">
    <path clip-path="url(#pb755ebd06d)" d="M 160.31875 106.817075 
L 171.446023 114.696569 
L 182.573295 106.259738 
L 193.700568 91.837632 
L 204.827841 71.788298 
L 215.955114 74.825277 
L 227.082386 55.618062 
L 238.209659 67.558404 
L 249.336932 69.008976 
L 260.464205 67.512162 
L 271.591477 62.212043 
L 282.71875 77.59466 
" style="fill:none;stroke:#f2cec1;stroke-linecap:square;stroke-width:5;"/>
   </g>
   <g id="line2d_155">
    <path clip-path="url(#pb755ebd06d)" d="M 160.31875 106.198048 
L 171.446023 108.437116 
L 182.573295 92.412626 
L 193.700568 104.48247 
L 204.827841 93.806376 
L 215.955114 73.524733 
L 227.082386 56.908894 
L 238.209659 57.510148 
L 249.336932 58.291476 
L 260.464205 38.171245 
L 271.591477 36.14386 
L 282.71875 49.4196 
" style="fill:none;stroke:#cc6686;stroke-linecap:square;stroke-width:5;"/>
   </g>
   <g id="line2d_156">
    <path clip-path="url(#pb755ebd06d)" d="M 160.31875 99.537467 
L 171.446023 88.949563 
L 182.573295 87.150855 
L 193.700568 74.047563 
L 204.827841 86.409824 
L 215.955114 100.764509 
L 227.082386 110.98801 
L 238.209659 109.572958 
L 249.336932 121.174212 
L 260.464205 129.079461 
L 271.591477 135.151578 
L 282.71875 121.904019 
" style="fill:none;stroke:#e5b5c5;stroke-linecap:square;stroke-width:5;"/>
   </g>
   <g id="line2d_157">
    <path clip-path="url(#pb755ebd06d)" d="M 160.31875 77.263758 
L 171.446023 88.021321 
L 182.573295 100.760894 
L 193.700568 85.154943 
L 204.827841 72.102154 
L 215.955114 56.510861 
L 227.082386 65.544956 
L 238.209659 63.287201 
L 249.336932 49.916087 
L 260.464205 29.510908 
L 271.591477 40.47367 
L 282.71875 23.227877 
" style="fill:none;stroke:#5884b3;stroke-linecap:square;stroke-width:5;"/>
   </g>
   <g id="line2d_158">
    <path clip-path="url(#pb755ebd06d)" d="M 160.31875 96.521045 
L 171.446023 103.66822 
L 182.573295 83.228915 
L 193.700568 69.966901 
L 204.827841 81.89359 
L 215.955114 77.685641 
L 227.082386 60.33367 
L 238.209659 59.279174 
L 249.336932 71.158785 
L 260.464205 77.852239 
L 271.591477 69.842855 
L 282.71875 70.458211 
" style="fill:none;stroke:#b6cee5;stroke-linecap:square;stroke-width:5;"/>
   </g>
   <g id="patch_8">
    <path d="M 160.31875 139.157341 
L 160.31875 16.757341 
" style="fill:none;stroke:#000000;stroke-linecap:square;stroke-linejoin:miter;stroke-width:0.6;"/>
   </g>
   <g id="patch_9">
    <path d="M 282.71875 139.157341 
L 282.71875 16.757341 
" style="fill:none;stroke:#000000;stroke-linecap:square;stroke-linejoin:miter;stroke-width:0.6;"/>
   </g>
   <g id="patch_10">
    <path d="M 160.31875 139.157341 
L 282.71875 139.157341 
" style="fill:none;stroke:#000000;stroke-linecap:square;stroke-linejoin:miter;stroke-width:0.6;"/>
   </g>
   <g id="patch_11">
    <path d="M 160.31875 16.757341 
L 282.71875 16.757341 
" style="fill:none;stroke:#000000;stroke-linecap:square;stroke-linejoin:miter;stroke-width:0.6;"/>
   </g>
  </g>
  <g id="axes_3">
   <g id="patch_12">
    <path d="M 294.71875 139.157341 
L 417.11875 139.157341 
L 417.11875 16.757341 
L 294.71875 16.757341 
z
" style="fill:#ffffff;"/>
   </g>
   <g id="matplotlib.axis_5">
    <g id="xtick_47">
     <g id="line2d_159">
      <path clip-path="url(#pc82c8a9567)" d="M 294.71875 139.157341 
L 294.71875 16.757341 
" style="fill:none;stroke:#000000;stroke-linecap:square;stroke-opacity:0.1;stroke-width:0.6;"/>
     </g>
     <g id="line2d_160">
      <g>
       <use style="stroke:#000000;stroke-width:0.6;" x="294.71875" xlink:href="#m89934b0b08" y="139.157341"/>
      </g>
     </g>
     <g id="text_18">
      <!-- 0 -->
      <g transform="translate(292.495 150.869841)scale(0.08 -0.08)">
       <use xlink:href="#HelveticaNeue-48"/>
      </g>
     </g>
    </g>
    <g id="xtick_48">
     <g id="line2d_161">
      <path clip-path="url(#pc82c8a9567)" d="M 322.536932 139.157341 
L 322.536932 16.757341 
" style="fill:none;stroke:#000000;stroke-linecap:square;stroke-opacity:0.1;stroke-width:0.6;"/>
     </g>
     <g id="line2d_162">
      <g>
       <use style="stroke:#000000;stroke-width:0.6;" x="322.536932" xlink:href="#m89934b0b08" y="139.157341"/>
      </g>
     </g>
     <g id="text_19">
      <!-- 2.5 -->
      <g transform="translate(316.977557 150.869841)scale(0.08 -0.08)">
       <use xlink:href="#HelveticaNeue-50"/>
       <use x="55.599991" xlink:href="#HelveticaNeue-46"/>
       <use x="83.399979" xlink:href="#HelveticaNeue-53"/>
      </g>
     </g>
    </g>
    <g id="xtick_49">
     <g id="line2d_163">
      <path clip-path="url(#pc82c8a9567)" d="M 350.355114 139.157341 
L 350.355114 16.757341 
" style="fill:none;stroke:#000000;stroke-linecap:square;stroke-opacity:0.1;stroke-width:0.6;"/>
     </g>
     <g id="line2d_164">
      <g>
       <use style="stroke:#000000;stroke-width:0.6;" x="350.355114" xlink:href="#m89934b0b08" y="139.157341"/>
      </g>
     </g>
     <g id="text_20">
      <!-- 5 -->
      <g transform="translate(348.131364 150.869841)scale(0.08 -0.08)">
       <use xlink:href="#HelveticaNeue-53"/>
      </g>
     </g>
    </g>
    <g id="xtick_50">
     <g id="line2d_165">
      <path clip-path="url(#pc82c8a9567)" d="M 378.173295 139.157341 
L 378.173295 16.757341 
" style="fill:none;stroke:#000000;stroke-linecap:square;stroke-opacity:0.1;stroke-width:0.6;"/>
     </g>
     <g id="line2d_166">
      <g>
       <use style="stroke:#000000;stroke-width:0.6;" x="378.173295" xlink:href="#m89934b0b08" y="139.157341"/>
      </g>
     </g>
     <g id="text_21">
      <!-- 7.5 -->
      <g transform="translate(372.61392 150.869841)scale(0.08 -0.08)">
       <use xlink:href="#HelveticaNeue-55"/>
       <use x="55.599991" xlink:href="#HelveticaNeue-46"/>
       <use x="83.399979" xlink:href="#HelveticaNeue-53"/>
      </g>
     </g>
    </g>
    <g id="xtick_51">
     <g id="line2d_167">
      <path clip-path="url(#pc82c8a9567)" d="M 405.991477 139.157341 
L 405.991477 16.757341 
" style="fill:none;stroke:#000000;stroke-linecap:square;stroke-opacity:0.1;stroke-width:0.6;"/>
     </g>
     <g id="line2d_168">
      <g>
       <use style="stroke:#000000;stroke-width:0.6;" x="405.991477" xlink:href="#m89934b0b08" y="139.157341"/>
      </g>
     </g>
     <g id="text_22">
      <!-- 10 -->
      <g transform="translate(401.543977 150.869841)scale(0.08 -0.08)">
       <use xlink:href="#HelveticaNeue-49"/>
       <use x="55.599991" xlink:href="#HelveticaNeue-48"/>
      </g>
     </g>
    </g>
    <g id="xtick_52">
     <g id="line2d_169">
      <g>
       <use style="stroke:#000000;stroke-width:0.48;" x="300.282386" xlink:href="#mb66c041680" y="139.157341"/>
      </g>
     </g>
    </g>
    <g id="xtick_53">
     <g id="line2d_170">
      <g>
       <use style="stroke:#000000;stroke-width:0.48;" x="305.846023" xlink:href="#mb66c041680" y="139.157341"/>
      </g>
     </g>
    </g>
    <g id="xtick_54">
     <g id="line2d_171">
      <g>
       <use style="stroke:#000000;stroke-width:0.48;" x="311.409659" xlink:href="#mb66c041680" y="139.157341"/>
      </g>
     </g>
    </g>
    <g id="xtick_55">
     <g id="line2d_172">
      <g>
       <use style="stroke:#000000;stroke-width:0.48;" x="316.973295" xlink:href="#mb66c041680" y="139.157341"/>
      </g>
     </g>
    </g>
    <g id="xtick_56">
     <g id="line2d_173">
      <g>
       <use style="stroke:#000000;stroke-width:0.48;" x="328.100568" xlink:href="#mb66c041680" y="139.157341"/>
      </g>
     </g>
    </g>
    <g id="xtick_57">
     <g id="line2d_174">
      <g>
       <use style="stroke:#000000;stroke-width:0.48;" x="333.664205" xlink:href="#mb66c041680" y="139.157341"/>
      </g>
     </g>
    </g>
    <g id="xtick_58">
     <g id="line2d_175">
      <g>
       <use style="stroke:#000000;stroke-width:0.48;" x="339.227841" xlink:href="#mb66c041680" y="139.157341"/>
      </g>
     </g>
    </g>
    <g id="xtick_59">
     <g id="line2d_176">
      <g>
       <use style="stroke:#000000;stroke-width:0.48;" x="344.791477" xlink:href="#mb66c041680" y="139.157341"/>
      </g>
     </g>
    </g>
    <g id="xtick_60">
     <g id="line2d_177">
      <g>
       <use style="stroke:#000000;stroke-width:0.48;" x="355.91875" xlink:href="#mb66c041680" y="139.157341"/>
      </g>
     </g>
    </g>
    <g id="xtick_61">
     <g id="line2d_178">
      <g>
       <use style="stroke:#000000;stroke-width:0.48;" x="361.482386" xlink:href="#mb66c041680" y="139.157341"/>
      </g>
     </g>
    </g>
    <g id="xtick_62">
     <g id="line2d_179">
      <g>
       <use style="stroke:#000000;stroke-width:0.48;" x="367.046023" xlink:href="#mb66c041680" y="139.157341"/>
      </g>
     </g>
    </g>
    <g id="xtick_63">
     <g id="line2d_180">
      <g>
       <use style="stroke:#000000;stroke-width:0.48;" x="372.609659" xlink:href="#mb66c041680" y="139.157341"/>
      </g>
     </g>
    </g>
    <g id="xtick_64">
     <g id="line2d_181">
      <g>
       <use style="stroke:#000000;stroke-width:0.48;" x="383.736932" xlink:href="#mb66c041680" y="139.157341"/>
      </g>
     </g>
    </g>
    <g id="xtick_65">
     <g id="line2d_182">
      <g>
       <use style="stroke:#000000;stroke-width:0.48;" x="389.300568" xlink:href="#mb66c041680" y="139.157341"/>
      </g>
     </g>
    </g>
    <g id="xtick_66">
     <g id="line2d_183">
      <g>
       <use style="stroke:#000000;stroke-width:0.48;" x="394.864205" xlink:href="#mb66c041680" y="139.157341"/>
      </g>
     </g>
    </g>
    <g id="xtick_67">
     <g id="line2d_184">
      <g>
       <use style="stroke:#000000;stroke-width:0.48;" x="400.427841" xlink:href="#mb66c041680" y="139.157341"/>
      </g>
     </g>
    </g>
    <g id="xtick_68">
     <g id="line2d_185">
      <g>
       <use style="stroke:#000000;stroke-width:0.48;" x="411.555114" xlink:href="#mb66c041680" y="139.157341"/>
      </g>
     </g>
    </g>
    <g id="xtick_69">
     <g id="line2d_186">
      <g>
       <use style="stroke:#000000;stroke-width:0.48;" x="417.11875" xlink:href="#mb66c041680" y="139.157341"/>
      </g>
     </g>
    </g>
   </g>
   <g id="matplotlib.axis_6">
    <g id="ytick_65">
     <g id="line2d_187">
      <path clip-path="url(#pc82c8a9567)" d="M 294.71875 132.283802 
L 417.11875 132.283802 
" style="fill:none;stroke:#000000;stroke-linecap:square;stroke-opacity:0.1;stroke-width:0.6;"/>
     </g>
     <g id="line2d_188">
      <g>
       <use style="stroke:#000000;stroke-width:0.6;" x="294.71875" xlink:href="#maa2967abff" y="132.283802"/>
      </g>
     </g>
    </g>
    <g id="ytick_66">
     <g id="line2d_189">
      <path clip-path="url(#pc82c8a9567)" d="M 294.71875 113.138377 
L 417.11875 113.138377 
" style="fill:none;stroke:#000000;stroke-linecap:square;stroke-opacity:0.1;stroke-width:0.6;"/>
     </g>
     <g id="line2d_190">
      <g>
       <use style="stroke:#000000;stroke-width:0.6;" x="294.71875" xlink:href="#maa2967abff" y="113.138377"/>
      </g>
     </g>
    </g>
    <g id="ytick_67">
     <g id="line2d_191">
      <path clip-path="url(#pc82c8a9567)" d="M 294.71875 93.992951 
L 417.11875 93.992951 
" style="fill:none;stroke:#000000;stroke-linecap:square;stroke-opacity:0.1;stroke-width:0.6;"/>
     </g>
     <g id="line2d_192">
      <g>
       <use style="stroke:#000000;stroke-width:0.6;" x="294.71875" xlink:href="#maa2967abff" y="93.992951"/>
      </g>
     </g>
    </g>
    <g id="ytick_68">
     <g id="line2d_193">
      <path clip-path="url(#pc82c8a9567)" d="M 294.71875 74.847526 
L 417.11875 74.847526 
" style="fill:none;stroke:#000000;stroke-linecap:square;stroke-opacity:0.1;stroke-width:0.6;"/>
     </g>
     <g id="line2d_194">
      <g>
       <use style="stroke:#000000;stroke-width:0.6;" x="294.71875" xlink:href="#maa2967abff" y="74.847526"/>
      </g>
     </g>
    </g>
    <g id="ytick_69">
     <g id="line2d_195">
      <path clip-path="url(#pc82c8a9567)" d="M 294.71875 55.702101 
L 417.11875 55.702101 
" style="fill:none;stroke:#000000;stroke-linecap:square;stroke-opacity:0.1;stroke-width:0.6;"/>
     </g>
     <g id="line2d_196">
      <g>
       <use style="stroke:#000000;stroke-width:0.6;" x="294.71875" xlink:href="#maa2967abff" y="55.702101"/>
      </g>
     </g>
    </g>
    <g id="ytick_70">
     <g id="line2d_197">
      <path clip-path="url(#pc82c8a9567)" d="M 294.71875 36.556675 
L 417.11875 36.556675 
" style="fill:none;stroke:#000000;stroke-linecap:square;stroke-opacity:0.1;stroke-width:0.6;"/>
     </g>
     <g id="line2d_198">
      <g>
       <use style="stroke:#000000;stroke-width:0.6;" x="294.71875" xlink:href="#maa2967abff" y="36.556675"/>
      </g>
     </g>
    </g>
    <g id="ytick_71">
     <g id="line2d_199">
      <path clip-path="url(#pc82c8a9567)" d="M 294.71875 17.41125 
L 417.11875 17.41125 
" style="fill:none;stroke:#000000;stroke-linecap:square;stroke-opacity:0.1;stroke-width:0.6;"/>
     </g>
     <g id="line2d_200">
      <g>
       <use style="stroke:#000000;stroke-width:0.6;" x="294.71875" xlink:href="#maa2967abff" y="17.41125"/>
      </g>
     </g>
    </g>
    <g id="ytick_72">
     <g id="line2d_201">
      <g>
       <use style="stroke:#000000;stroke-width:0.48;" x="294.71875" xlink:href="#mf4897830cc" y="136.112887"/>
      </g>
     </g>
    </g>
    <g id="ytick_73">
     <g id="line2d_202">
      <g>
       <use style="stroke:#000000;stroke-width:0.48;" x="294.71875" xlink:href="#mf4897830cc" y="128.454717"/>
      </g>
     </g>
    </g>
    <g id="ytick_74">
     <g id="line2d_203">
      <g>
       <use style="stroke:#000000;stroke-width:0.48;" x="294.71875" xlink:href="#mf4897830cc" y="124.625632"/>
      </g>
     </g>
    </g>
    <g id="ytick_75">
     <g id="line2d_204">
      <g>
       <use style="stroke:#000000;stroke-width:0.48;" x="294.71875" xlink:href="#mf4897830cc" y="120.796547"/>
      </g>
     </g>
    </g>
    <g id="ytick_76">
     <g id="line2d_205">
      <g>
       <use style="stroke:#000000;stroke-width:0.48;" x="294.71875" xlink:href="#mf4897830cc" y="116.967462"/>
      </g>
     </g>
    </g>
    <g id="ytick_77">
     <g id="line2d_206">
      <g>
       <use style="stroke:#000000;stroke-width:0.48;" x="294.71875" xlink:href="#mf4897830cc" y="109.309292"/>
      </g>
     </g>
    </g>
    <g id="ytick_78">
     <g id="line2d_207">
      <g>
       <use style="stroke:#000000;stroke-width:0.48;" x="294.71875" xlink:href="#mf4897830cc" y="105.480207"/>
      </g>
     </g>
    </g>
    <g id="ytick_79">
     <g id="line2d_208">
      <g>
       <use style="stroke:#000000;stroke-width:0.48;" x="294.71875" xlink:href="#mf4897830cc" y="101.651122"/>
      </g>
     </g>
    </g>
    <g id="ytick_80">
     <g id="line2d_209">
      <g>
       <use style="stroke:#000000;stroke-width:0.48;" x="294.71875" xlink:href="#mf4897830cc" y="97.822037"/>
      </g>
     </g>
    </g>
    <g id="ytick_81">
     <g id="line2d_210">
      <g>
       <use style="stroke:#000000;stroke-width:0.48;" x="294.71875" xlink:href="#mf4897830cc" y="90.163866"/>
      </g>
     </g>
    </g>
    <g id="ytick_82">
     <g id="line2d_211">
      <g>
       <use style="stroke:#000000;stroke-width:0.48;" x="294.71875" xlink:href="#mf4897830cc" y="86.334781"/>
      </g>
     </g>
    </g>
    <g id="ytick_83">
     <g id="line2d_212">
      <g>
       <use style="stroke:#000000;stroke-width:0.48;" x="294.71875" xlink:href="#mf4897830cc" y="82.505696"/>
      </g>
     </g>
    </g>
    <g id="ytick_84">
     <g id="line2d_213">
      <g>
       <use style="stroke:#000000;stroke-width:0.48;" x="294.71875" xlink:href="#mf4897830cc" y="78.676611"/>
      </g>
     </g>
    </g>
    <g id="ytick_85">
     <g id="line2d_214">
      <g>
       <use style="stroke:#000000;stroke-width:0.48;" x="294.71875" xlink:href="#mf4897830cc" y="71.018441"/>
      </g>
     </g>
    </g>
    <g id="ytick_86">
     <g id="line2d_215">
      <g>
       <use style="stroke:#000000;stroke-width:0.48;" x="294.71875" xlink:href="#mf4897830cc" y="67.189356"/>
      </g>
     </g>
    </g>
    <g id="ytick_87">
     <g id="line2d_216">
      <g>
       <use style="stroke:#000000;stroke-width:0.48;" x="294.71875" xlink:href="#mf4897830cc" y="63.360271"/>
      </g>
     </g>
    </g>
    <g id="ytick_88">
     <g id="line2d_217">
      <g>
       <use style="stroke:#000000;stroke-width:0.48;" x="294.71875" xlink:href="#mf4897830cc" y="59.531186"/>
      </g>
     </g>
    </g>
    <g id="ytick_89">
     <g id="line2d_218">
      <g>
       <use style="stroke:#000000;stroke-width:0.48;" x="294.71875" xlink:href="#mf4897830cc" y="51.873016"/>
      </g>
     </g>
    </g>
    <g id="ytick_90">
     <g id="line2d_219">
      <g>
       <use style="stroke:#000000;stroke-width:0.48;" x="294.71875" xlink:href="#mf4897830cc" y="48.043931"/>
      </g>
     </g>
    </g>
    <g id="ytick_91">
     <g id="line2d_220">
      <g>
       <use style="stroke:#000000;stroke-width:0.48;" x="294.71875" xlink:href="#mf4897830cc" y="44.214846"/>
      </g>
     </g>
    </g>
    <g id="ytick_92">
     <g id="line2d_221">
      <g>
       <use style="stroke:#000000;stroke-width:0.48;" x="294.71875" xlink:href="#mf4897830cc" y="40.38576"/>
      </g>
     </g>
    </g>
    <g id="ytick_93">
     <g id="line2d_222">
      <g>
       <use style="stroke:#000000;stroke-width:0.48;" x="294.71875" xlink:href="#mf4897830cc" y="32.72759"/>
      </g>
     </g>
    </g>
    <g id="ytick_94">
     <g id="line2d_223">
      <g>
       <use style="stroke:#000000;stroke-width:0.48;" x="294.71875" xlink:href="#mf4897830cc" y="28.898505"/>
      </g>
     </g>
    </g>
    <g id="ytick_95">
     <g id="line2d_224">
      <g>
       <use style="stroke:#000000;stroke-width:0.48;" x="294.71875" xlink:href="#mf4897830cc" y="25.06942"/>
      </g>
     </g>
    </g>
    <g id="ytick_96">
     <g id="line2d_225">
      <g>
       <use style="stroke:#000000;stroke-width:0.48;" x="294.71875" xlink:href="#mf4897830cc" y="21.240335"/>
      </g>
     </g>
    </g>
   </g>
   <g id="line2d_226">
    <path clip-path="url(#pc82c8a9567)" d="M 294.71875 79.319748 
L 305.846023 90.520978 
L 316.973295 104.515151 
L 328.100568 86.389082 
L 339.227841 87.789051 
L 350.355114 98.537194 
L 361.482386 88.934075 
L 372.609659 98.662037 
L 383.736932 92.102549 
L 394.864205 76.978389 
L 405.991477 89.51075 
L 417.11875 97.495296 
" style="fill:none;stroke:#5bbe94;stroke-linecap:square;stroke-width:5;"/>
   </g>
   <g id="line2d_227">
    <path clip-path="url(#pc82c8a9567)" d="M 294.71875 111.138416 
L 305.846023 92.833409 
L 316.973295 92.310526 
L 328.100568 99.146782 
L 339.227841 93.505029 
L 350.355114 96.792011 
L 361.482386 83.945676 
L 372.609659 98.207246 
L 383.736932 80.169702 
L 394.864205 66.334544 
L 405.991477 50.274097 
L 417.11875 56.943543 
" style="fill:none;stroke:#b6e3d1;stroke-linecap:square;stroke-width:5;"/>
   </g>
   <g id="line2d_228">
    <path clip-path="url(#pc82c8a9567)" d="M 294.71875 85.552872 
L 305.846023 90.084292 
L 316.973295 89.417515 
L 328.100568 93.401189 
L 339.227841 75.554257 
L 350.355114 87.04574 
L 361.482386 71.943923 
L 372.609659 58.593337 
L 383.736932 42.194559 
L 394.864205 27.371941 
L 405.991477 42.321392 
L 417.11875 30.553381 
" style="fill:none;stroke:#91be64;stroke-linecap:square;stroke-width:5;"/>
   </g>
   <g id="line2d_229">
    <path clip-path="url(#pc82c8a9567)" d="M 294.71875 77.946965 
L 305.846023 75.413972 
L 316.973295 92.302446 
L 328.100568 74.646557 
L 339.227841 77.561148 
L 350.355114 79.20738 
L 361.482386 68.446399 
L 372.609659 51.374739 
L 383.736932 45.008831 
L 394.864205 36.89717 
L 405.991477 31.745954 
L 417.11875 16.757341 
" style="fill:none;stroke:#cce5b5;stroke-linecap:square;stroke-width:5;"/>
   </g>
   <g id="line2d_230">
    <path clip-path="url(#pc82c8a9567)" d="M 294.71875 98.413718 
L 305.846023 84.885569 
L 316.973295 98.2575 
L 328.100568 105.613948 
L 339.227841 103.219713 
L 350.355114 102.456929 
L 361.482386 114.90296 
L 372.609659 131.63788 
L 383.736932 127.262317 
L 394.864205 109.458197 
L 405.991477 124.197105 
L 417.11875 139.157341 
" style="fill:none;stroke:#e5cf6c;stroke-linecap:square;stroke-width:5;"/>
   </g>
   <g id="line2d_231">
    <path clip-path="url(#pc82c8a9567)" d="M 294.71875 103.2632 
L 305.846023 88.715724 
L 316.973295 68.345974 
L 328.100568 63.10532 
L 339.227841 66.608614 
L 350.355114 49.357548 
L 361.482386 55.021849 
L 372.609659 57.838618 
L 383.736932 47.982668 
L 394.864205 50.416432 
L 405.991477 41.264538 
L 417.11875 51.115087 
" style="fill:none;stroke:#f9ebaa;stroke-linecap:square;stroke-width:5;"/>
   </g>
   <g id="line2d_232">
    <path clip-path="url(#pc82c8a9567)" d="M 294.71875 105.335233 
L 305.846023 99.955373 
L 316.973295 100.255381 
L 328.100568 93.322085 
L 339.227841 80.432201 
L 350.355114 82.581235 
L 361.482386 64.925702 
L 372.609659 62.154102 
L 383.736932 69.216238 
L 394.864205 74.540099 
L 405.991477 72.629848 
L 417.11875 81.072148 
" style="fill:none;stroke:#e87b70;stroke-linecap:square;stroke-width:5;"/>
   </g>
   <g id="line2d_233">
    <path clip-path="url(#pc82c8a9567)" d="M 294.71875 106.817075 
L 305.846023 114.696569 
L 316.973295 106.259738 
L 328.100568 91.837632 
L 339.227841 71.788298 
L 350.355114 74.825277 
L 361.482386 55.618062 
L 372.609659 67.558404 
L 383.736932 69.008976 
L 394.864205 67.512162 
L 405.991477 62.212043 
L 417.11875 77.59466 
" style="fill:none;stroke:#f2cec1;stroke-linecap:square;stroke-width:5;"/>
   </g>
   <g id="line2d_234">
    <path clip-path="url(#pc82c8a9567)" d="M 294.71875 106.198048 
L 305.846023 108.437116 
L 316.973295 92.412626 
L 328.100568 104.48247 
L 339.227841 93.806376 
L 350.355114 73.524733 
L 361.482386 56.908894 
L 372.609659 57.510148 
L 383.736932 58.291476 
L 394.864205 38.171245 
L 405.991477 36.14386 
L 417.11875 49.4196 
" style="fill:none;stroke:#cc6686;stroke-linecap:square;stroke-width:5;"/>
   </g>
   <g id="line2d_235">
    <path clip-path="url(#pc82c8a9567)" d="M 294.71875 99.537467 
L 305.846023 88.949563 
L 316.973295 87.150855 
L 328.100568 74.047563 
L 339.227841 86.409824 
L 350.355114 100.764509 
L 361.482386 110.98801 
L 372.609659 109.572958 
L 383.736932 121.174212 
L 394.864205 129.079461 
L 405.991477 135.151578 
L 417.11875 121.904019 
" style="fill:none;stroke:#e5b5c5;stroke-linecap:square;stroke-width:5;"/>
   </g>
   <g id="line2d_236">
    <path clip-path="url(#pc82c8a9567)" d="M 294.71875 77.263758 
L 305.846023 88.021321 
L 316.973295 100.760894 
L 328.100568 85.154943 
L 339.227841 72.102154 
L 350.355114 56.510861 
L 361.482386 65.544956 
L 372.609659 63.287201 
L 383.736932 49.916087 
L 394.864205 29.510908 
L 405.991477 40.47367 
L 417.11875 23.227877 
" style="fill:none;stroke:#5884b3;stroke-linecap:square;stroke-width:5;"/>
   </g>
   <g id="line2d_237">
    <path clip-path="url(#pc82c8a9567)" d="M 294.71875 96.521045 
L 305.846023 103.66822 
L 316.973295 83.228915 
L 328.100568 69.966901 
L 339.227841 81.89359 
L 350.355114 77.685641 
L 361.482386 60.33367 
L 372.609659 59.279174 
L 383.736932 71.158785 
L 394.864205 77.852239 
L 405.991477 69.842855 
L 417.11875 70.458211 
" style="fill:none;stroke:#b6cee5;stroke-linecap:square;stroke-width:5;"/>
   </g>
   <g id="patch_13">
    <path d="M 294.71875 139.157341 
L 294.71875 16.757341 
" style="fill:none;stroke:#000000;stroke-linecap:square;stroke-linejoin:miter;stroke-width:0.6;"/>
   </g>
   <g id="patch_14">
    <path d="M 417.11875 139.157341 
L 417.11875 16.757341 
" style="fill:none;stroke:#000000;stroke-linecap:square;stroke-linejoin:miter;stroke-width:0.6;"/>
   </g>
   <g id="patch_15">
    <path d="M 294.71875 139.157341 
L 417.11875 139.157341 
" style="fill:none;stroke:#000000;stroke-linecap:square;stroke-linejoin:miter;stroke-width:0.6;"/>
   </g>
   <g id="patch_16">
    <path d="M 294.71875 16.757341 
L 417.11875 16.757341 
" style="fill:none;stroke:#000000;stroke-linecap:square;stroke-linejoin:miter;stroke-width:0.6;"/>
   </g>
  </g>
  <g id="text_23">
   <!-- Local and global color cycles demo -->
   <defs>
    <path d="M 6.90625 71.40625 
L 6.90625 0 
L 57.40625 0 
L 57.40625 13.203125 
L 22.59375 13.203125 
L 22.59375 71.40625 
z
" id="HelveticaNeue-Bold-76"/>
    <path d="M 18 25.796875 
Q 18 28.90625 18.59375 31.90625 
Q 19.203125 34.90625 20.640625 37.203125 
Q 22.09375 39.5 24.5 40.953125 
Q 26.90625 42.40625 30.5 42.40625 
Q 34.09375 42.40625 36.546875 40.953125 
Q 39 39.5 40.453125 37.203125 
Q 41.90625 34.90625 42.5 31.90625 
Q 43.09375 28.90625 43.09375 25.796875 
Q 43.09375 22.703125 42.5 19.75 
Q 41.90625 16.796875 40.453125 14.4375 
Q 39 12.09375 36.546875 10.6875 
Q 34.09375 9.296875 30.5 9.296875 
Q 26.90625 9.296875 24.5 10.6875 
Q 22.09375 12.09375 20.640625 14.4375 
Q 19.203125 16.796875 18.59375 19.75 
Q 18 22.703125 18 25.796875 
z
M 3.796875 25.796875 
Q 3.796875 19.59375 5.6875 14.59375 
Q 7.59375 9.59375 11.09375 6.046875 
Q 14.59375 2.5 19.5 0.59375 
Q 24.40625 -1.296875 30.5 -1.296875 
Q 36.59375 -1.296875 41.546875 0.59375 
Q 46.5 2.5 50 6.046875 
Q 53.5 9.59375 55.390625 14.59375 
Q 57.296875 19.59375 57.296875 25.796875 
Q 57.296875 32 55.390625 37.046875 
Q 53.5 42.09375 50 45.640625 
Q 46.5 49.203125 41.546875 51.140625 
Q 36.59375 53.09375 30.5 53.09375 
Q 24.40625 53.09375 19.5 51.140625 
Q 14.59375 49.203125 11.09375 45.640625 
Q 7.59375 42.09375 5.6875 37.046875 
Q 3.796875 32 3.796875 25.796875 
z
" id="HelveticaNeue-Bold-111"/>
    <path d="M 40.59375 33.5 
L 54.5 33.5 
Q 54.203125 38.5 52.09375 42.140625 
Q 50 45.796875 46.640625 48.25 
Q 43.296875 50.703125 39.046875 51.890625 
Q 34.796875 53.09375 30.203125 53.09375 
Q 23.90625 53.09375 19 51 
Q 14.09375 48.90625 10.6875 45.15625 
Q 7.296875 41.40625 5.546875 36.25 
Q 3.796875 31.09375 3.796875 25.09375 
Q 3.796875 19.296875 5.6875 14.4375 
Q 7.59375 9.59375 11 6.09375 
Q 14.40625 2.59375 19.25 0.640625 
Q 24.09375 -1.296875 29.90625 -1.296875 
Q 40.203125 -1.296875 46.796875 4.09375 
Q 53.40625 9.5 54.796875 19.796875 
L 41.09375 19.796875 
Q 40.40625 15 37.65625 12.140625 
Q 34.90625 9.296875 29.796875 9.296875 
Q 26.5 9.296875 24.203125 10.796875 
Q 21.90625 12.296875 20.546875 14.640625 
Q 19.203125 17 18.59375 19.890625 
Q 18 22.796875 18 25.59375 
Q 18 28.5 18.59375 31.453125 
Q 19.203125 34.40625 20.640625 36.84375 
Q 22.09375 39.296875 24.390625 40.84375 
Q 26.703125 42.40625 30.09375 42.40625 
Q 39.203125 42.40625 40.59375 33.5 
z
" id="HelveticaNeue-Bold-99"/>
    <path d="M 4.796875 35.796875 
Q 5.09375 40.796875 7.296875 44.09375 
Q 9.5 47.40625 12.890625 49.40625 
Q 16.296875 51.40625 20.546875 52.25 
Q 24.796875 53.09375 29.09375 53.09375 
Q 33 53.09375 37 52.546875 
Q 41 52 44.296875 50.390625 
Q 47.59375 48.796875 49.6875 45.9375 
Q 51.796875 43.09375 51.796875 38.40625 
L 51.796875 11.5 
Q 51.796875 8 52.1875 4.796875 
Q 52.59375 1.59375 53.59375 0 
L 39.203125 0 
Q 38.796875 1.203125 38.546875 2.453125 
Q 38.296875 3.703125 38.203125 5 
Q 34.796875 1.5 30.1875 0.09375 
Q 25.59375 -1.296875 20.796875 -1.296875 
Q 17.09375 -1.296875 13.890625 -0.390625 
Q 10.703125 0.5 8.296875 2.390625 
Q 5.90625 4.296875 4.546875 7.1875 
Q 3.203125 10.09375 3.203125 14.09375 
Q 3.203125 18.5 4.75 21.34375 
Q 6.296875 24.203125 8.75 25.890625 
Q 11.203125 27.59375 14.34375 28.4375 
Q 17.5 29.296875 20.703125 29.796875 
Q 23.90625 30.296875 27 30.59375 
Q 30.09375 30.90625 32.5 31.5 
Q 34.90625 32.09375 36.296875 33.25 
Q 37.703125 34.40625 37.59375 36.59375 
Q 37.59375 38.90625 36.84375 40.25 
Q 36.09375 41.59375 34.84375 42.34375 
Q 33.59375 43.09375 31.9375 43.34375 
Q 30.296875 43.59375 28.40625 43.59375 
Q 24.203125 43.59375 21.796875 41.796875 
Q 19.40625 40 19 35.796875 
z
M 37.59375 25.296875 
Q 36.703125 24.5 35.34375 24.046875 
Q 34 23.59375 32.453125 23.296875 
Q 30.90625 23 29.203125 22.796875 
Q 27.5 22.59375 25.796875 22.296875 
Q 24.203125 22 22.640625 21.5 
Q 21.09375 21 19.9375 20.140625 
Q 18.796875 19.296875 18.09375 18 
Q 17.40625 16.703125 17.40625 14.703125 
Q 17.40625 12.796875 18.09375 11.5 
Q 18.796875 10.203125 20 9.453125 
Q 21.203125 8.703125 22.796875 8.390625 
Q 24.40625 8.09375 26.09375 8.09375 
Q 30.296875 8.09375 32.59375 9.5 
Q 34.90625 10.90625 36 12.84375 
Q 37.09375 14.796875 37.34375 16.796875 
Q 37.59375 18.796875 37.59375 20 
z
" id="HelveticaNeue-Bold-97"/>
    <path d="M 5.796875 71.40625 
L 5.796875 0 
L 20 0 
L 20 71.40625 
z
" id="HelveticaNeue-Bold-108"/>
    <path id="HelveticaNeue-Bold-32"/>
    <path d="M 5.40625 51.703125 
L 5.40625 0 
L 19.59375 0 
L 19.59375 27.09375 
Q 19.59375 35 22.1875 38.453125 
Q 24.796875 41.90625 30.59375 41.90625 
Q 35.703125 41.90625 37.703125 38.75 
Q 39.703125 35.59375 39.703125 29.203125 
L 39.703125 0 
L 53.90625 0 
L 53.90625 31.796875 
Q 53.90625 36.59375 53.046875 40.546875 
Q 52.203125 44.5 50.09375 47.25 
Q 48 50 44.34375 51.546875 
Q 40.703125 53.09375 35 53.09375 
Q 30.5 53.09375 26.203125 51.046875 
Q 21.90625 49 19.203125 44.5 
L 18.90625 44.5 
L 18.90625 51.703125 
z
" id="HelveticaNeue-Bold-110"/>
    <path d="M 42.09375 26 
Q 42.09375 22.796875 41.5 19.796875 
Q 40.90625 16.796875 39.5 14.4375 
Q 38.09375 12.09375 35.75 10.6875 
Q 33.40625 9.296875 29.90625 9.296875 
Q 26.59375 9.296875 24.25 10.75 
Q 21.90625 12.203125 20.34375 14.546875 
Q 18.796875 16.90625 18.09375 19.90625 
Q 17.40625 22.90625 17.40625 25.90625 
Q 17.40625 29.09375 18.046875 32.046875 
Q 18.703125 35 20.140625 37.296875 
Q 21.59375 39.59375 24 41 
Q 26.40625 42.40625 29.90625 42.40625 
Q 33.40625 42.40625 35.703125 41 
Q 38 39.59375 39.453125 37.34375 
Q 40.90625 35.09375 41.5 32.140625 
Q 42.09375 29.203125 42.09375 26 
z
M 42.296875 6.59375 
L 42.296875 0 
L 55.796875 0 
L 55.796875 71.40625 
L 41.59375 71.40625 
L 41.59375 45.40625 
L 41.40625 45.40625 
Q 39 49.203125 34.84375 51.140625 
Q 30.703125 53.09375 26.09375 53.09375 
Q 20.40625 53.09375 16.09375 50.84375 
Q 11.796875 48.59375 8.9375 44.890625 
Q 6.09375 41.203125 4.640625 36.34375 
Q 3.203125 31.5 3.203125 26.296875 
Q 3.203125 20.90625 4.640625 15.90625 
Q 6.09375 10.90625 8.9375 7.046875 
Q 11.796875 3.203125 16.1875 0.953125 
Q 20.59375 -1.296875 26.40625 -1.296875 
Q 31.5 -1.296875 35.546875 0.546875 
Q 39.59375 2.40625 42.09375 6.59375 
z
" id="HelveticaNeue-Bold-100"/>
    <path d="M 29.5 12.203125 
Q 26.203125 12.203125 24 13.59375 
Q 21.796875 15 20.4375 17.203125 
Q 19.09375 19.40625 18.546875 22.15625 
Q 18 24.90625 18 27.703125 
Q 18 30.59375 18.640625 33.25 
Q 19.296875 35.90625 20.75 37.953125 
Q 22.203125 40 24.34375 41.203125 
Q 26.5 42.40625 29.5 42.40625 
Q 33 42.40625 35.296875 41.09375 
Q 37.59375 39.796875 39 37.59375 
Q 40.40625 35.40625 41 32.546875 
Q 41.59375 29.703125 41.59375 26.5 
Q 41.59375 23.703125 40.84375 21.140625 
Q 40.09375 18.59375 38.59375 16.59375 
Q 37.09375 14.59375 34.796875 13.390625 
Q 32.5 12.203125 29.5 12.203125 
z
M 55.09375 3.296875 
L 55.09375 51.703125 
L 41.59375 51.703125 
L 41.59375 44.796875 
L 41.40625 44.796875 
Q 38.796875 49.296875 34.9375 51.1875 
Q 31.09375 53.09375 26 53.09375 
Q 20.59375 53.09375 16.4375 51 
Q 12.296875 48.90625 9.5 45.34375 
Q 6.703125 41.796875 5.25 37.140625 
Q 3.796875 32.5 3.796875 27.5 
Q 3.796875 22.203125 5.046875 17.453125 
Q 6.296875 12.703125 9 9.140625 
Q 11.703125 5.59375 15.890625 3.546875 
Q 20.09375 1.5 25.90625 1.5 
Q 30.59375 1.5 34.84375 3.453125 
Q 39.09375 5.40625 41.40625 9.5 
L 41.59375 9.5 
L 41.59375 2.703125 
Q 41.703125 -2.796875 38.953125 -6.390625 
Q 36.203125 -10 30.203125 -10 
Q 26.40625 -10 23.5 -8.453125 
Q 20.59375 -6.90625 19.59375 -2.90625 
L 5.5 -2.90625 
Q 5.796875 -7.296875 7.9375 -10.4375 
Q 10.09375 -13.59375 13.34375 -15.59375 
Q 16.59375 -17.59375 20.546875 -18.546875 
Q 24.5 -19.5 28.296875 -19.5 
Q 37.203125 -19.5 42.5 -17.09375 
Q 47.796875 -14.703125 50.59375 -11.25 
Q 53.40625 -7.796875 54.25 -3.796875 
Q 55.09375 0.203125 55.09375 3.296875 
z
" id="HelveticaNeue-Bold-103"/>
    <path d="M 43.296875 25.796875 
Q 43.296875 22.59375 42.59375 19.59375 
Q 41.90625 16.59375 40.40625 14.296875 
Q 38.90625 12 36.65625 10.640625 
Q 34.40625 9.296875 31.203125 9.296875 
Q 28.09375 9.296875 25.796875 10.640625 
Q 23.5 12 22 14.296875 
Q 20.5 16.59375 19.796875 19.59375 
Q 19.09375 22.59375 19.09375 25.796875 
Q 19.09375 29.09375 19.796875 32.09375 
Q 20.5 35.09375 22 37.390625 
Q 23.5 39.703125 25.796875 41.046875 
Q 28.09375 42.40625 31.203125 42.40625 
Q 34.40625 42.40625 36.65625 41.046875 
Q 38.90625 39.703125 40.40625 37.390625 
Q 41.90625 35.09375 42.59375 32.09375 
Q 43.296875 29.09375 43.296875 25.796875 
z
M 5.40625 71.40625 
L 5.40625 0 
L 18.90625 0 
L 18.90625 6.59375 
L 19.09375 6.59375 
Q 21.40625 2.296875 25.90625 0.5 
Q 30.40625 -1.296875 36.09375 -1.296875 
Q 40 -1.296875 43.796875 0.296875 
Q 47.59375 1.90625 50.640625 5.203125 
Q 53.703125 8.5 55.59375 13.640625 
Q 57.5 18.796875 57.5 25.90625 
Q 57.5 33 55.59375 38.140625 
Q 53.703125 43.296875 50.640625 46.59375 
Q 47.59375 49.90625 43.796875 51.5 
Q 40 53.09375 36.09375 53.09375 
Q 31.296875 53.09375 26.84375 51.25 
Q 22.40625 49.40625 19.796875 45.40625 
L 19.59375 45.40625 
L 19.59375 71.40625 
z
" id="HelveticaNeue-Bold-98"/>
    <path d="M 5.40625 51.703125 
L 5.40625 0 
L 19.59375 0 
L 19.59375 23.296875 
Q 19.59375 26.796875 20.296875 29.796875 
Q 21 32.796875 22.640625 35.046875 
Q 24.296875 37.296875 27 38.59375 
Q 29.703125 39.90625 33.59375 39.90625 
Q 34.90625 39.90625 36.296875 39.75 
Q 37.703125 39.59375 38.703125 39.40625 
L 38.703125 52.59375 
Q 37 53.09375 35.59375 53.09375 
Q 32.90625 53.09375 30.40625 52.296875 
Q 27.90625 51.5 25.703125 50.046875 
Q 23.5 48.59375 21.796875 46.546875 
Q 20.09375 44.5 19.09375 42.09375 
L 18.90625 42.09375 
L 18.90625 51.703125 
z
" id="HelveticaNeue-Bold-114"/>
    <path d="M 30.90625 -6.40625 
L 52.5 51.703125 
L 37.796875 51.703125 
L 26.5 16.296875 
L 26.296875 16.296875 
L 14.59375 51.703125 
L -0.5 51.703125 
L 17.59375 3.203125 
Q 18.203125 1.703125 18.203125 0 
Q 18.203125 -2.296875 16.84375 -4.1875 
Q 15.5 -6.09375 12.703125 -6.40625 
Q 10.59375 -6.5 8.5 -6.296875 
Q 6.40625 -6.09375 4.40625 -5.90625 
L 4.40625 -17.59375 
Q 6.59375 -17.796875 8.75 -17.9375 
Q 10.90625 -18.09375 13.09375 -18.09375 
Q 20.40625 -18.09375 24.5 -15.390625 
Q 28.59375 -12.703125 30.90625 -6.40625 
z
" id="HelveticaNeue-Bold-121"/>
    <path d="M 40.203125 31.40625 
L 17.09375 31.40625 
Q 17.203125 32.90625 17.75 34.796875 
Q 18.296875 36.703125 19.640625 38.390625 
Q 21 40.09375 23.25 41.25 
Q 25.5 42.40625 28.90625 42.40625 
Q 34.09375 42.40625 36.640625 39.59375 
Q 39.203125 36.796875 40.203125 31.40625 
z
M 17.09375 22.40625 
L 54.40625 22.40625 
Q 54.796875 28.40625 53.390625 33.90625 
Q 52 39.40625 48.84375 43.703125 
Q 45.703125 48 40.796875 50.546875 
Q 35.90625 53.09375 29.296875 53.09375 
Q 23.40625 53.09375 18.546875 51 
Q 13.703125 48.90625 10.203125 45.25 
Q 6.703125 41.59375 4.796875 36.59375 
Q 2.90625 31.59375 2.90625 25.796875 
Q 2.90625 19.796875 4.75 14.796875 
Q 6.59375 9.796875 10 6.1875 
Q 13.40625 2.59375 18.296875 0.640625 
Q 23.203125 -1.296875 29.296875 -1.296875 
Q 38.09375 -1.296875 44.296875 2.703125 
Q 50.5 6.703125 53.5 16 
L 41 16 
Q 40.296875 13.59375 37.1875 11.4375 
Q 34.09375 9.296875 29.796875 9.296875 
Q 23.796875 9.296875 20.59375 12.390625 
Q 17.40625 15.5 17.09375 22.40625 
z
" id="HelveticaNeue-Bold-101"/>
    <path d="M 16.40625 16.796875 
L 2.90625 16.796875 
Q 3.09375 11.59375 5.25 8.140625 
Q 7.40625 4.703125 10.75 2.59375 
Q 14.09375 0.5 18.390625 -0.390625 
Q 22.703125 -1.296875 27.203125 -1.296875 
Q 31.59375 -1.296875 35.84375 -0.4375 
Q 40.09375 0.40625 43.390625 2.5 
Q 46.703125 4.59375 48.75 8.046875 
Q 50.796875 11.5 50.796875 16.59375 
Q 50.796875 20.203125 49.390625 22.640625 
Q 48 25.09375 45.703125 26.75 
Q 43.40625 28.40625 40.453125 29.40625 
Q 37.5 30.40625 34.40625 31.09375 
Q 31.40625 31.796875 28.5 32.390625 
Q 25.59375 33 23.34375 33.75 
Q 21.09375 34.5 19.6875 35.703125 
Q 18.296875 36.90625 18.296875 38.796875 
Q 18.296875 40.40625 19.09375 41.34375 
Q 19.90625 42.296875 21.046875 42.796875 
Q 22.203125 43.296875 23.59375 43.4375 
Q 25 43.59375 26.203125 43.59375 
Q 30 43.59375 32.796875 42.140625 
Q 35.59375 40.703125 35.90625 36.59375 
L 49.40625 36.59375 
Q 49 41.40625 46.953125 44.546875 
Q 44.90625 47.703125 41.796875 49.59375 
Q 38.703125 51.5 34.75 52.296875 
Q 30.796875 53.09375 26.59375 53.09375 
Q 22.40625 53.09375 18.40625 52.34375 
Q 14.40625 51.59375 11.203125 49.75 
Q 8 47.90625 6.046875 44.703125 
Q 4.09375 41.5 4.09375 36.5 
Q 4.09375 33.09375 5.5 30.75 
Q 6.90625 28.40625 9.203125 26.84375 
Q 11.5 25.296875 14.453125 24.34375 
Q 17.40625 23.40625 20.5 22.703125 
Q 28.09375 21.09375 32.34375 19.5 
Q 36.59375 17.90625 36.59375 14.703125 
Q 36.59375 12.796875 35.6875 11.546875 
Q 34.796875 10.296875 33.4375 9.546875 
Q 32.09375 8.796875 30.4375 8.4375 
Q 28.796875 8.09375 27.296875 8.09375 
Q 25.203125 8.09375 23.25 8.59375 
Q 21.296875 9.09375 19.796875 10.140625 
Q 18.296875 11.203125 17.34375 12.84375 
Q 16.40625 14.5 16.40625 16.796875 
z
" id="HelveticaNeue-Bold-115"/>
    <path d="M 5.796875 51.703125 
L 5.796875 0 
L 20 0 
L 20 30 
Q 20 33.796875 21.09375 36.140625 
Q 22.203125 38.5 23.75 39.75 
Q 25.296875 41 26.9375 41.453125 
Q 28.59375 41.90625 29.59375 41.90625 
Q 33 41.90625 34.75 40.75 
Q 36.5 39.59375 37.25 37.6875 
Q 38 35.796875 38.09375 33.546875 
Q 38.203125 31.296875 38.203125 29 
L 38.203125 0 
L 52.40625 0 
L 52.40625 28.796875 
Q 52.40625 31.203125 52.75 33.546875 
Q 53.09375 35.90625 54.140625 37.75 
Q 55.203125 39.59375 57.046875 40.75 
Q 58.90625 41.90625 61.90625 41.90625 
Q 64.90625 41.90625 66.65625 40.90625 
Q 68.40625 39.90625 69.296875 38.203125 
Q 70.203125 36.5 70.390625 34.203125 
Q 70.59375 31.90625 70.59375 29.296875 
L 70.59375 0 
L 84.796875 0 
L 84.796875 34.59375 
Q 84.796875 39.59375 83.390625 43.140625 
Q 82 46.703125 79.5 48.890625 
Q 77 51.09375 73.5 52.09375 
Q 70 53.09375 65.90625 53.09375 
Q 60.5 53.09375 56.546875 50.5 
Q 52.59375 47.90625 50.296875 44.5 
Q 48.203125 49.296875 44.140625 51.1875 
Q 40.09375 53.09375 35.203125 53.09375 
Q 30.09375 53.09375 26.140625 50.890625 
Q 22.203125 48.703125 19.40625 44.703125 
L 19.203125 44.703125 
L 19.203125 51.703125 
z
" id="HelveticaNeue-Bold-109"/>
   </defs>
   <g transform="translate(145.636887 9.887119)scale(0.09 -0.09)">
    <use xlink:href="#HelveticaNeue-Bold-76"/>
    <use x="59.299988" xlink:href="#HelveticaNeue-Bold-111"/>
    <use x="120.399979" xlink:href="#HelveticaNeue-Bold-99"/>
    <use x="177.799973" xlink:href="#HelveticaNeue-Bold-97"/>
    <use x="235.199966" xlink:href="#HelveticaNeue-Bold-108"/>
    <use x="260.999954" xlink:href="#HelveticaNeue-Bold-32"/>
    <use x="288.799942" xlink:href="#HelveticaNeue-Bold-97"/>
    <use x="346.199936" xlink:href="#HelveticaNeue-Bold-110"/>
    <use x="405.499924" xlink:href="#HelveticaNeue-Bold-100"/>
    <use x="466.599915" xlink:href="#HelveticaNeue-Bold-32"/>
    <use x="494.399902" xlink:href="#HelveticaNeue-Bold-103"/>
    <use x="555.499893" xlink:href="#HelveticaNeue-Bold-108"/>
    <use x="581.299881" xlink:href="#HelveticaNeue-Bold-111"/>
    <use x="642.399872" xlink:href="#HelveticaNeue-Bold-98"/>
    <use x="703.499863" xlink:href="#HelveticaNeue-Bold-97"/>
    <use x="760.899857" xlink:href="#HelveticaNeue-Bold-108"/>
    <use x="786.699844" xlink:href="#HelveticaNeue-Bold-32"/>
    <use x="814.499832" xlink:href="#HelveticaNeue-Bold-99"/>
    <use x="871.899826" xlink:href="#HelveticaNeue-Bold-111"/>
    <use x="932.999817" xlink:href="#HelveticaNeue-Bold-108"/>
    <use x="958.799805" xlink:href="#HelveticaNeue-Bold-111"/>
    <use x="1019.899796" xlink:href="#HelveticaNeue-Bold-114"/>
    <use x="1058.799789" xlink:href="#HelveticaNeue-Bold-32"/>
    <use x="1086.599777" xlink:href="#HelveticaNeue-Bold-99"/>
    <use x="1143.999771" xlink:href="#HelveticaNeue-Bold-121"/>
    <use x="1195.899765" xlink:href="#HelveticaNeue-Bold-99"/>
    <use x="1253.299759" xlink:href="#HelveticaNeue-Bold-108"/>
    <use x="1279.099747" xlink:href="#HelveticaNeue-Bold-101"/>
    <use x="1336.499741" xlink:href="#HelveticaNeue-Bold-115"/>
    <use x="1390.199738" xlink:href="#HelveticaNeue-Bold-32"/>
    <use x="1417.999725" xlink:href="#HelveticaNeue-Bold-100"/>
    <use x="1479.099716" xlink:href="#HelveticaNeue-Bold-101"/>
    <use x="1536.49971" xlink:href="#HelveticaNeue-Bold-109"/>
    <use x="1627.099701" xlink:href="#HelveticaNeue-Bold-111"/>
   </g>
  </g>
 </g>
 <defs>
  <clipPath id="p6524b7afec">
   <rect height="122.4" width="122.4" x="25.91875" y="16.757341"/>
  </clipPath>
  <clipPath id="pb755ebd06d">
   <rect height="122.4" width="122.4" x="160.31875" y="16.757341"/>
  </clipPath>
  <clipPath id="pc82c8a9567">
   <rect height="122.4" width="122.4" x="294.71875" y="16.757341"/>
  </clipPath>
 </defs>
</svg>
