<?xml version="1.0" encoding="utf-8" standalone="no"?>
<!DOCTYPE svg PUBLIC "-//W3C//DTD SVG 1.1//EN"
  "http://www.w3.org/Graphics/SVG/1.1/DTD/svg11.dtd">
<svg xmlns:xlink="http://www.w3.org/1999/xlink" width="571.593297pt" height="162.774162pt" viewBox="0 0 571.593297 162.774162" xmlns="http://www.w3.org/2000/svg" version="1.1">
 <metadata>
  <rdf:RDF xmlns:dc="http://purl.org/dc/elements/1.1/" xmlns:cc="http://creativecommons.org/ns#" xmlns:rdf="http://www.w3.org/1999/02/22-rdf-syntax-ns#">
   <cc:Work>
    <dc:type rdf:resource="http://purl.org/dc/dcmitype/StillImage"/>
    <dc:date>2022-06-22T14:25:52.780693</dc:date>
    <dc:format>image/svg+xml</dc:format>
    <dc:creator>
     <cc:Agent>
      <dc:title>Matplotlib v3.5.2, https://matplotlib.org/</dc:title>
     </cc:Agent>
    </dc:creator>
   </cc:Work>
  </rdf:RDF>
 </metadata>
 <defs>
  <style type="text/css">*{stroke-linejoin: round; stroke-linecap: butt}</style>
 </defs>
 <g id="figure_1">
  <g id="patch_1">
   <path d="M 0 162.774162 
L 571.593297 162.774162 
L 571.593297 0 
L 0 0 
L 0 162.774162 
z
" style="fill: none; opacity: 0"/>
  </g>
  <g id="axes_1">
   <g id="patch_2">
    <path d="M 130.773297 87.538911 
C 130.773297 80.447696 129.376482 73.425434 126.662792 66.874006 
C 123.949101 60.322577 119.971309 54.369391 114.957063 49.355145 
C 109.942817 44.340899 103.989631 40.363107 97.438202 37.649416 
C 90.886774 34.935726 83.864512 33.538911 76.773297 33.538911 
C 69.682082 33.538911 62.65982 34.935726 56.108392 37.649416 
C 49.556963 40.363107 43.603777 44.340899 38.589531 49.355145 
C 33.575285 54.369391 29.597493 60.322577 26.883802 66.874006 
C 24.170112 73.425434 22.773297 80.447696 22.773297 87.538911 
C 22.773297 94.630126 24.170112 101.652388 26.883802 108.203817 
C 29.597493 114.755245 33.575285 120.708431 38.589531 125.722677 
C 43.603777 130.736924 49.556963 134.714715 56.108392 137.428406 
C 62.65982 140.142096 69.682082 141.538911 76.773297 141.538911 
C 83.864512 141.538911 90.886774 140.142096 97.438202 137.428406 
C 103.989631 134.714715 109.942817 130.736924 114.957063 125.722677 
C 119.971309 120.708431 123.949101 114.755245 126.662792 108.203817 
C 129.376482 101.652388 130.773297 94.630126 130.773297 87.538911 
M 76.773297 87.538911 
C 76.773297 87.538911 76.773297 87.538911 76.773297 87.538911 
C 76.773297 87.538911 76.773297 87.538911 76.773297 87.538911 
C 76.773297 87.538911 76.773297 87.538911 76.773297 87.538911 
C 76.773297 87.538911 76.773297 87.538911 76.773297 87.538911 
C 76.773297 87.538911 76.773297 87.538911 76.773297 87.538911 
C 76.773297 87.538911 76.773297 87.538911 76.773297 87.538911 
C 76.773297 87.538911 76.773297 87.538911 76.773297 87.538911 
C 76.773297 87.538911 76.773297 87.538911 76.773297 87.538911 
C 76.773297 87.538911 76.773297 87.538911 76.773297 87.538911 
C 76.773297 87.538911 76.773297 87.538911 76.773297 87.538911 
C 76.773297 87.538911 76.773297 87.538911 76.773297 87.538911 
C 76.773297 87.538911 76.773297 87.538911 76.773297 87.538911 
C 76.773297 87.538911 76.773297 87.538911 76.773297 87.538911 
C 76.773297 87.538911 76.773297 87.538911 76.773297 87.538911 
C 76.773297 87.538911 76.773297 87.538911 76.773297 87.538911 
C 76.773297 87.538911 76.773297 87.538911 76.773297 87.538911 
M 130.773297 87.538911 
z
" style="fill: #ffffff; opacity: 0.8"/>
   </g>
   <g id="matplotlib.axis_1">
    <g id="xtick_1"/>
    <g id="xtick_2"/>
    <g id="xtick_3"/>
    <g id="xtick_4"/>
    <g id="xtick_5"/>
    <g id="xtick_6"/>
    <g id="xtick_7"/>
    <g id="xtick_8"/>
    <g id="xtick_9"/>
    <g id="xtick_10"/>
    <g id="xtick_11"/>
    <g id="xtick_12"/>
    <g id="xtick_13"/>
    <g id="xtick_14"/>
    <g id="xtick_15"/>
    <g id="xtick_16"/>
    <g id="xtick_17"/>
    <g id="xtick_18"/>
    <g id="xtick_19"/>
    <g id="xtick_20"/>
    <g id="xtick_21"/>
    <g id="xtick_22"/>
    <g id="xtick_23"/>
    <g id="xtick_24"/>
    <g id="xtick_25"/>
    <g id="xtick_26"/>
    <g id="xtick_27"/>
    <g id="xtick_28"/>
    <g id="xtick_29"/>
    <g id="xtick_30"/>
    <g id="xtick_31"/>
    <g id="xtick_32"/>
    <g id="xtick_33"/>
   </g>
   <g id="matplotlib.axis_2">
    <g id="ytick_1">
     <g id="line2d_1">
      <path d="M 81.682388 87.538911 
C 81.682388 86.894255 81.555405 86.255868 81.308706 85.660283 
C 81.062006 85.064699 80.700389 84.5235 80.244548 84.06766 
C 79.788708 83.611819 79.247509 83.250202 78.651925 83.003503 
C 78.05634 82.756803 77.417953 82.62982 76.773297 82.62982 
C 76.128641 82.62982 75.490254 82.756803 74.894669 83.003503 
C 74.299085 83.250202 73.757886 83.611819 73.302046 84.06766 
C 72.846205 84.5235 72.484588 85.064699 72.237888 85.660283 
C 71.991189 86.255868 71.864206 86.894255 71.864206 87.538911 
C 71.864206 88.183567 71.991189 88.821955 72.237888 89.417539 
C 72.484588 90.013123 72.846205 90.554322 73.302046 91.010163 
C 73.757886 91.466003 74.299085 91.827621 74.894669 92.07432 
C 75.490254 92.321019 76.128641 92.448002 76.773297 92.448002 
C 77.417953 92.448002 78.05634 92.321019 78.651925 92.07432 
C 79.247509 91.827621 79.788708 91.466003 80.244548 91.010163 
C 80.700389 90.554322 81.062006 90.013123 81.308706 89.417539 
C 81.555405 88.821955 81.682388 88.183567 81.682388 87.538911 
" clip-path="url(#p48a9fba821)" style="fill: none; stroke: #000000; stroke-opacity: 0.3; stroke-linecap: square"/>
     </g>
    </g>
    <g id="ytick_2">
     <g id="line2d_2">
      <path d="M 96.409661 87.538911 
C 96.409661 84.960288 95.901728 82.406738 94.914931 80.0244 
C 93.928135 77.642063 92.481665 75.477268 90.658303 73.653905 
C 88.834941 71.830543 86.670146 70.384073 84.287808 69.397277 
C 81.90547 68.41048 79.351921 67.902548 76.773297 67.902548 
C 74.194673 67.902548 71.641124 68.41048 69.258786 69.397277 
C 66.876448 70.384073 64.711653 71.830543 62.888291 73.653905 
C 61.064929 75.477268 59.618459 77.642063 58.631663 80.0244 
C 57.644866 82.406738 57.136933 84.960288 57.136933 87.538911 
C 57.136933 90.117535 57.644866 92.671085 58.631663 95.053422 
C 59.618459 97.43576 61.064929 99.600555 62.888291 101.423917 
C 64.711653 103.247279 66.876448 104.693749 69.258786 105.680546 
C 71.641124 106.667342 74.194673 107.175275 76.773297 107.175275 
C 79.351921 107.175275 81.90547 106.667342 84.287808 105.680546 
C 86.670146 104.693749 88.834941 103.247279 90.658303 101.423917 
C 92.481665 99.600555 93.928135 97.43576 94.914931 95.053422 
C 95.901728 92.671085 96.409661 90.117535 96.409661 87.538911 
" clip-path="url(#p48a9fba821)" style="fill: none; stroke: #000000; stroke-opacity: 0.3; stroke-linecap: square"/>
     </g>
    </g>
    <g id="ytick_3">
     <g id="line2d_3">
      <path d="M 111.136933 87.538911 
C 111.136933 83.02632 110.248051 78.557608 108.521157 74.388517 
C 106.794263 70.219426 104.262941 66.431035 101.072057 63.240151 
C 97.881173 60.049267 94.092782 57.517945 89.923691 55.791051 
C 85.754601 54.064157 81.285888 53.175275 76.773297 53.175275 
C 72.260706 53.175275 67.791994 54.064157 63.622903 55.791051 
C 59.453812 57.517945 55.665421 60.049267 52.474537 63.240151 
C 49.283653 66.431035 46.752331 70.219426 45.025437 74.388517 
C 43.298543 78.557608 42.409661 83.02632 42.409661 87.538911 
C 42.409661 92.051503 43.298543 96.520215 45.025437 100.689306 
C 46.752331 104.858396 49.283653 108.646788 52.474537 111.837672 
C 55.665421 115.028555 59.453812 117.559878 63.622903 119.286772 
C 67.791994 121.013665 72.260706 121.902548 76.773297 121.902548 
C 81.285888 121.902548 85.754601 121.013665 89.923691 119.286772 
C 94.092782 117.559878 97.881173 115.028555 101.072057 111.837672 
C 104.262941 108.646788 106.794263 104.858396 108.521157 100.689306 
C 110.248051 96.520215 111.136933 92.051503 111.136933 87.538911 
" clip-path="url(#p48a9fba821)" style="fill: none; stroke: #000000; stroke-opacity: 0.3; stroke-linecap: square"/>
     </g>
    </g>
    <g id="ytick_4"/>
    <g id="ytick_5"/>
    <g id="ytick_6"/>
    <g id="ytick_7"/>
    <g id="ytick_8"/>
    <g id="ytick_9"/>
    <g id="ytick_10"/>
    <g id="ytick_11"/>
    <g id="ytick_12"/>
    <g id="ytick_13"/>
    <g id="ytick_14"/>
    <g id="ytick_15"/>
   </g>
   <g id="patch_3">
    <path d="M 130.773297 87.538911 
C 130.773297 80.447696 129.376482 73.425434 126.662792 66.874006 
C 123.949101 60.322577 119.971309 54.369391 114.957063 49.355145 
C 109.942817 44.340899 103.989631 40.363107 97.438202 37.649416 
C 90.886774 34.935726 83.864512 33.538911 76.773297 33.538911 
C 69.682082 33.538911 62.65982 34.935726 56.108392 37.649416 
C 49.556963 40.363107 43.603777 44.340899 38.589531 49.355145 
C 33.575285 54.369391 29.597493 60.322577 26.883802 66.874006 
C 24.170112 73.425434 22.773297 80.447696 22.773297 87.538911 
C 22.773297 94.630126 24.170112 101.652388 26.883802 108.203817 
C 29.597493 114.755245 33.575285 120.708431 38.589531 125.722677 
C 43.603777 130.736924 49.556963 134.714715 56.108392 137.428406 
C 62.65982 140.142096 69.682082 141.538911 76.773297 141.538911 
C 83.864512 141.538911 90.886774 140.142096 97.438202 137.428406 
C 103.989631 134.714715 109.942817 130.736924 114.957063 125.722677 
C 119.971309 120.708431 123.949101 114.755245 126.662792 108.203817 
C 129.376482 101.652388 130.773297 94.630126 130.773297 87.538911 
" style="fill: none; stroke: #495057; stroke-width: 1.2; stroke-linejoin: miter; stroke-linecap: square"/>
   </g>
   <g id="patch_4">
    <path d="M 76.773297 87.538911 
C 76.773297 87.538911 76.773297 87.538911 76.773297 87.538911 
C 76.773297 87.538911 76.773297 87.538911 76.773297 87.538911 
L 96.214804 84.779459 
C 96.344547 85.693551 96.409661 86.615657 96.409661 87.538911 
C 96.409661 88.462165 96.344547 89.384271 96.214804 90.298364 
z
" style="fill: #fce4ba; opacity: 0.8; stroke: #495057; stroke-linejoin: miter"/>
   </g>
   <g id="patch_5">
    <path d="M 76.773297 87.538911 
C 76.773297 87.538911 76.773297 87.538911 76.773297 87.538911 
C 76.773297 87.538911 76.773297 87.538911 76.773297 87.538911 
L 106.665761 36.777493 
C 109.05244 38.182964 111.337027 39.755011 113.502514 41.481929 
C 115.668002 43.208848 117.709002 45.086342 119.610321 47.100435 
z
" style="fill: #f7b770; opacity: 0.8; stroke: #495057; stroke-linejoin: miter"/>
   </g>
   <g id="patch_6">
    <path d="M 76.773297 87.538911 
C 76.773297 87.538911 76.773297 87.538911 76.773297 87.538911 
C 76.773297 87.538911 76.773297 87.538911 76.773297 87.538911 
L 43.609972 16.337912 
C 48.634114 13.997815 53.891861 12.196052 59.295289 10.962755 
C 64.698717 9.729458 70.217539 9.071539 75.759464 9 
z
" style="fill: #e8884c; opacity: 0.8; stroke: #495057; stroke-linejoin: miter"/>
   </g>
   <g id="patch_7">
    <path d="M 76.773297 87.538911 
C 76.773297 87.538911 76.773297 87.538911 76.773297 87.538911 
C 76.773297 87.538911 76.773297 87.538911 76.773297 87.538911 
L 9 76.127591 
C 10.074395 69.746622 12.044594 63.549244 14.852164 57.719265 
C 17.659734 51.889287 21.27664 46.484921 25.595608 41.666456 
z
" style="fill: #d55541; opacity: 0.8; stroke: #495057; stroke-linejoin: miter"/>
   </g>
   <g id="patch_8">
    <path d="M 76.773297 87.538911 
C 76.773297 87.538911 76.773297 87.538911 76.773297 87.538911 
C 76.773297 87.538911 76.773297 87.538911 76.773297 87.538911 
L 42.677944 107.028755 
C 42.219904 106.227464 41.790253 105.410274 41.389792 104.578709 
C 40.989332 103.747144 40.61831 102.90172 40.277419 102.044012 
z
" style="fill: #a83651; opacity: 0.8; stroke: #495057; stroke-linejoin: miter"/>
   </g>
   <g id="patch_9">
    <path d="M 76.773297 87.538911 
C 76.773297 87.538911 76.773297 87.538911 76.773297 87.538911 
C 76.773297 87.538911 76.773297 87.538911 76.773297 87.538911 
L 74.410162 136.572909 
C 71.527668 136.433991 68.663028 136.041169 65.849542 135.399009 
C 63.036056 134.756849 60.284666 133.867849 57.627353 132.742342 
z
" style="fill: #6f2748; opacity: 0.8; stroke: #495057; stroke-linejoin: miter"/>
   </g>
   <g id="patch_10">
    <path d="M 76.773297 87.538911 
C 76.773297 87.538911 76.773297 87.538911 76.773297 87.538911 
C 76.773297 87.538911 76.773297 87.538911 76.773297 87.538911 
L 131.953712 143.43623 
C 129.982952 145.381714 127.910682 147.221614 125.745587 148.94822 
C 123.580491 150.674826 121.325598 152.285724 118.990355 153.774162 
z
" style="fill: #401731; opacity: 0.8; stroke: #495057; stroke-linejoin: miter"/>
   </g>
   <g id="text_1">
    <path d="M 149.373297 124.673286 
L 168.217047 124.673286 
L 168.217047 90.960786 
L 180.817047 90.960786 
C 185.373297 90.960786 194.129547 90.960786 200.485797 86.873286 
C 207.329547 82.429536 211.529547 73.917036 211.529547 63.829536 
C 211.529547 59.385786 210.817047 53.160786 206.260797 47.629536 
C 199.060797 38.985786 188.617047 38.160786 176.129547 38.160786 
L 149.373297 38.160786 
L 149.373297 124.673286 
z
M 167.729547 52.185786 
L 177.085797 52.185786 
C 182.373297 52.185786 192.329547 52.185786 192.329547 63.960786 
C 192.329547 77.160786 181.173297 77.160786 175.173297 77.160786 
L 167.729547 77.160786 
L 167.729547 52.185786 
z
M 222.693286 124.673286 
L 240.449536 124.673286 
L 240.449536 94.785786 
C 240.449536 87.229536 241.537036 77.985786 259.537036 79.673286 
L 259.537036 63.717036 
C 245.137036 62.985786 241.180786 70.317036 238.893286 75.473286 
L 238.537036 63.829536 
L 221.849536 63.829536 
C 222.205786 67.317036 222.693286 76.073286 222.693286 78.960786 
L 222.693286 124.673286 
z
M 266.617029 94.917036 
C 266.617029 116.160786 280.285779 126.829536 297.573279 126.829536 
C 319.529529 126.829536 329.373279 111.473286 329.373279 94.429536 
C 329.373279 77.517036 319.885779 62.629536 297.929529 62.629536 
C 274.060779 62.629536 266.617029 80.273286 266.617029 94.917036 
z
M 284.860779 95.029536 
C 284.860779 89.517036 284.973279 74.517036 297.929529 74.517036 
C 309.685779 74.517036 311.260779 85.673286 311.260779 93.717036 
C 311.260779 109.785786 305.973279 114.473286 298.173279 114.473286 
C 289.417029 114.473286 284.860779 108.585786 284.860779 95.029536 
z
" style="fill: #ffffff; opacity: 0.8; stroke: #00315e; stroke-width: 5"/>
    <path d="M 149.373297 124.673286 
L 168.217047 124.673286 
L 168.217047 90.960786 
L 180.817047 90.960786 
C 185.373297 90.960786 194.129547 90.960786 200.485797 86.873286 
C 207.329547 82.429536 211.529547 73.917036 211.529547 63.829536 
C 211.529547 59.385786 210.817047 53.160786 206.260797 47.629536 
C 199.060797 38.985786 188.617047 38.160786 176.129547 38.160786 
L 149.373297 38.160786 
L 149.373297 124.673286 
z
M 167.729547 52.185786 
L 177.085797 52.185786 
C 182.373297 52.185786 192.329547 52.185786 192.329547 63.960786 
C 192.329547 77.160786 181.173297 77.160786 175.173297 77.160786 
L 167.729547 77.160786 
L 167.729547 52.185786 
z
M 222.693286 124.673286 
L 240.449536 124.673286 
L 240.449536 94.785786 
C 240.449536 87.229536 241.537036 77.985786 259.537036 79.673286 
L 259.537036 63.717036 
C 245.137036 62.985786 241.180786 70.317036 238.893286 75.473286 
L 238.537036 63.829536 
L 221.849536 63.829536 
C 222.205786 67.317036 222.693286 76.073286 222.693286 78.960786 
L 222.693286 124.673286 
z
M 266.617029 94.917036 
C 266.617029 116.160786 280.285779 126.829536 297.573279 126.829536 
C 319.529529 126.829536 329.373279 111.473286 329.373279 94.429536 
C 329.373279 77.517036 319.885779 62.629536 297.929529 62.629536 
C 274.060779 62.629536 266.617029 80.273286 266.617029 94.917036 
z
M 284.860779 95.029536 
C 284.860779 89.517036 284.973279 74.517036 297.929529 74.517036 
C 309.685779 74.517036 311.260779 85.673286 311.260779 93.717036 
C 311.260779 109.785786 305.973279 114.473286 298.173279 114.473286 
C 289.417029 114.473286 284.860779 108.585786 284.860779 95.029536 
z
" style="fill: #ffffff; opacity: 0.8"/>
   </g>
   <g id="text_2">
    <path d="M 343.773297 124.673286 
L 362.617047 124.673286 
L 362.617047 90.960786 
L 375.217047 90.960786 
C 379.773297 90.960786 388.529547 90.960786 394.885797 86.873286 
C 401.729547 82.429536 405.929547 73.917036 405.929547 63.829536 
C 405.929547 59.385786 405.217047 53.160786 400.660797 47.629536 
C 393.460797 38.985786 383.017047 38.160786 370.529547 38.160786 
L 343.773297 38.160786 
L 343.773297 124.673286 
z
M 362.129547 52.185786 
L 371.485797 52.185786 
C 376.773297 52.185786 386.729547 52.185786 386.729547 63.960786 
C 386.729547 77.160786 375.573297 77.160786 369.573297 77.160786 
L 362.129547 77.160786 
L 362.129547 52.185786 
z
M 417.093286 124.673286 
L 434.849536 124.673286 
L 434.849536 37.917036 
L 417.093286 37.917036 
L 417.093286 124.673286 
z
M 447.697021 94.917036 
C 447.697021 116.160786 461.365771 126.829536 478.653271 126.829536 
C 500.609521 126.829536 510.453271 111.473286 510.453271 94.429536 
C 510.453271 77.517036 500.965771 62.629536 479.009521 62.629536 
C 455.140771 62.629536 447.697021 80.273286 447.697021 94.917036 
z
M 465.940771 95.029536 
C 465.940771 89.517036 466.053271 74.517036 479.009521 74.517036 
C 490.765771 74.517036 492.340771 85.673286 492.340771 93.717036 
C 492.340771 109.785786 487.053271 114.473286 479.253271 114.473286 
C 470.497021 114.473286 465.940771 108.585786 465.940771 95.029536 
z
M 559.41701 112.185786 
C 557.26076 112.429536 556.06076 112.560786 553.41701 112.560786 
C 545.48576 112.560786 545.48576 109.073286 545.37326 103.560786 
L 545.37326 76.185786 
L 559.77326 76.185786 
L 559.77326 64.429536 
L 545.37326 64.429536 
L 545.37326 46.073286 
L 527.72951 52.560786 
L 527.72951 64.429536 
L 516.08576 64.429536 
L 516.08576 76.185786 
L 527.72951 76.185786 
L 527.72951 109.429536 
C 527.72951 114.473286 527.72951 125.760786 545.61701 125.760786 
C 548.48576 125.760786 553.66076 125.385786 559.41701 123.829536 
L 559.41701 112.185786 
z
" style="fill: #00315e; opacity: 0.8; stroke: #effcfc; stroke-width: 5"/>
    <path d="M 343.773297 124.673286 
L 362.617047 124.673286 
L 362.617047 90.960786 
L 375.217047 90.960786 
C 379.773297 90.960786 388.529547 90.960786 394.885797 86.873286 
C 401.729547 82.429536 405.929547 73.917036 405.929547 63.829536 
C 405.929547 59.385786 405.217047 53.160786 400.660797 47.629536 
C 393.460797 38.985786 383.017047 38.160786 370.529547 38.160786 
L 343.773297 38.160786 
L 343.773297 124.673286 
z
M 362.129547 52.185786 
L 371.485797 52.185786 
C 376.773297 52.185786 386.729547 52.185786 386.729547 63.960786 
C 386.729547 77.160786 375.573297 77.160786 369.573297 77.160786 
L 362.129547 77.160786 
L 362.129547 52.185786 
z
M 417.093286 124.673286 
L 434.849536 124.673286 
L 434.849536 37.917036 
L 417.093286 37.917036 
L 417.093286 124.673286 
z
M 447.697021 94.917036 
C 447.697021 116.160786 461.365771 126.829536 478.653271 126.829536 
C 500.609521 126.829536 510.453271 111.473286 510.453271 94.429536 
C 510.453271 77.517036 500.965771 62.629536 479.009521 62.629536 
C 455.140771 62.629536 447.697021 80.273286 447.697021 94.917036 
z
M 465.940771 95.029536 
C 465.940771 89.517036 466.053271 74.517036 479.009521 74.517036 
C 490.765771 74.517036 492.340771 85.673286 492.340771 93.717036 
C 492.340771 109.785786 487.053271 114.473286 479.253271 114.473286 
C 470.497021 114.473286 465.940771 108.585786 465.940771 95.029536 
z
M 559.41701 112.185786 
C 557.26076 112.429536 556.06076 112.560786 553.41701 112.560786 
C 545.48576 112.560786 545.48576 109.073286 545.37326 103.560786 
L 545.37326 76.185786 
L 559.77326 76.185786 
L 559.77326 64.429536 
L 545.37326 64.429536 
L 545.37326 46.073286 
L 527.72951 52.560786 
L 527.72951 64.429536 
L 516.08576 64.429536 
L 516.08576 76.185786 
L 527.72951 76.185786 
L 527.72951 109.429536 
C 527.72951 114.473286 527.72951 125.760786 545.61701 125.760786 
C 548.48576 125.760786 553.66076 125.385786 559.41701 123.829536 
L 559.41701 112.185786 
z
" style="fill: #00315e; opacity: 0.8"/>
   </g>
  </g>
 </g>
 <defs>
  <clipPath id="p48a9fba821">
   <path d="M 130.773297 87.538911 
C 130.773297 80.447696 129.376482 73.425434 126.662792 66.874006 
C 123.949101 60.322577 119.971309 54.369391 114.957063 49.355145 
C 109.942817 44.340899 103.989631 40.363107 97.438202 37.649416 
C 90.886774 34.935726 83.864512 33.538911 76.773297 33.538911 
C 69.682082 33.538911 62.65982 34.935726 56.108392 37.649416 
C 49.556963 40.363107 43.603777 44.340899 38.589531 49.355145 
C 33.575285 54.369391 29.597493 60.322577 26.883802 66.874006 
C 24.170112 73.425434 22.773297 80.447696 22.773297 87.538911 
C 22.773297 94.630126 24.170112 101.652388 26.883802 108.203817 
C 29.597493 114.755245 33.575285 120.708431 38.589531 125.722677 
C 43.603777 130.736924 49.556963 134.714715 56.108392 137.428406 
C 62.65982 140.142096 69.682082 141.538911 76.773297 141.538911 
C 83.864512 141.538911 90.886774 140.142096 97.438202 137.428406 
C 103.989631 134.714715 109.942817 130.736924 114.957063 125.722677 
C 119.971309 120.708431 123.949101 114.755245 126.662792 108.203817 
C 129.376482 101.652388 130.773297 94.630126 130.773297 87.538911 
M 76.773297 87.538911 
C 76.773297 87.538911 76.773297 87.538911 76.773297 87.538911 
C 76.773297 87.538911 76.773297 87.538911 76.773297 87.538911 
C 76.773297 87.538911 76.773297 87.538911 76.773297 87.538911 
C 76.773297 87.538911 76.773297 87.538911 76.773297 87.538911 
C 76.773297 87.538911 76.773297 87.538911 76.773297 87.538911 
C 76.773297 87.538911 76.773297 87.538911 76.773297 87.538911 
C 76.773297 87.538911 76.773297 87.538911 76.773297 87.538911 
C 76.773297 87.538911 76.773297 87.538911 76.773297 87.538911 
C 76.773297 87.538911 76.773297 87.538911 76.773297 87.538911 
C 76.773297 87.538911 76.773297 87.538911 76.773297 87.538911 
C 76.773297 87.538911 76.773297 87.538911 76.773297 87.538911 
C 76.773297 87.538911 76.773297 87.538911 76.773297 87.538911 
C 76.773297 87.538911 76.773297 87.538911 76.773297 87.538911 
C 76.773297 87.538911 76.773297 87.538911 76.773297 87.538911 
C 76.773297 87.538911 76.773297 87.538911 76.773297 87.538911 
C 76.773297 87.538911 76.773297 87.538911 76.773297 87.538911 
M 130.773297 87.538911 
z
"/>
  </clipPath>
 </defs>
</svg>
