<?xml version="1.0" encoding="utf-8" standalone="no"?>
<!DOCTYPE svg PUBLIC "-//W3C//DTD SVG 1.1//EN"
  "http://www.w3.org/Graphics/SVG/1.1/DTD/svg11.dtd">
<svg xmlns:xlink="http://www.w3.org/1999/xlink" width="263.907425pt" height="307.548324pt" viewBox="0 0 263.907425 307.548324" xmlns="http://www.w3.org/2000/svg" version="1.1">
 <metadata>
  <rdf:RDF xmlns:dc="http://purl.org/dc/elements/1.1/" xmlns:cc="http://creativecommons.org/ns#" xmlns:rdf="http://www.w3.org/1999/02/22-rdf-syntax-ns#">
   <cc:Work>
    <dc:type rdf:resource="http://purl.org/dc/dcmitype/StillImage"/>
    <dc:date>2022-06-22T14:25:51.049218</dc:date>
    <dc:format>image/svg+xml</dc:format>
    <dc:creator>
     <cc:Agent>
      <dc:title>Matplotlib v3.5.2, https://matplotlib.org/</dc:title>
     </cc:Agent>
    </dc:creator>
   </cc:Work>
  </rdf:RDF>
 </metadata>
 <defs>
  <style type="text/css">*{stroke-linejoin: round; stroke-linecap: butt}</style>
 </defs>
 <g id="figure_1">
  <g id="patch_1">
   <path d="M 0 307.548324 
L 263.907425 307.548324 
L 263.907425 0 
L 0 0 
L 0 307.548324 
z
" style="fill: none; opacity: 0"/>
  </g>
  <g id="axes_1">
   <g id="patch_2">
    <path d="M 252.546594 166.077822 
C 252.546594 151.895392 249.752965 137.850869 244.325584 124.748012 
C 238.898203 111.645155 230.942619 99.738783 220.914126 89.71029 
C 210.885634 79.681798 198.979262 71.726214 185.876405 66.298833 
C 172.773548 60.871452 158.729024 58.077822 144.546594 58.077822 
C 130.364164 58.077822 116.31964 60.871452 103.216783 66.298833 
C 90.113926 71.726214 78.207554 79.681798 68.179062 89.71029 
C 58.150569 99.738783 50.194986 111.645155 44.767605 124.748012 
C 39.340223 137.850869 36.546594 151.895392 36.546594 166.077822 
C 36.546594 180.260252 39.340223 194.304776 44.767605 207.407633 
C 50.194986 220.51049 58.150569 232.416862 68.179062 242.445355 
C 78.207554 252.473847 90.113926 260.429431 103.216783 265.856812 
C 116.31964 271.284193 130.364164 274.077822 144.546594 274.077822 
C 158.729024 274.077822 172.773548 271.284193 185.876405 265.856812 
C 198.979262 260.429431 210.885634 252.473847 220.914126 242.445355 
C 230.942619 232.416862 238.898203 220.51049 244.325584 207.407633 
C 249.752965 194.304776 252.546594 180.260252 252.546594 166.077822 
M 144.546594 166.077822 
C 144.546594 166.077822 144.546594 166.077822 144.546594 166.077822 
C 144.546594 166.077822 144.546594 166.077822 144.546594 166.077822 
C 144.546594 166.077822 144.546594 166.077822 144.546594 166.077822 
C 144.546594 166.077822 144.546594 166.077822 144.546594 166.077822 
C 144.546594 166.077822 144.546594 166.077822 144.546594 166.077822 
C 144.546594 166.077822 144.546594 166.077822 144.546594 166.077822 
C 144.546594 166.077822 144.546594 166.077822 144.546594 166.077822 
C 144.546594 166.077822 144.546594 166.077822 144.546594 166.077822 
C 144.546594 166.077822 144.546594 166.077822 144.546594 166.077822 
C 144.546594 166.077822 144.546594 166.077822 144.546594 166.077822 
C 144.546594 166.077822 144.546594 166.077822 144.546594 166.077822 
C 144.546594 166.077822 144.546594 166.077822 144.546594 166.077822 
C 144.546594 166.077822 144.546594 166.077822 144.546594 166.077822 
C 144.546594 166.077822 144.546594 166.077822 144.546594 166.077822 
C 144.546594 166.077822 144.546594 166.077822 144.546594 166.077822 
C 144.546594 166.077822 144.546594 166.077822 144.546594 166.077822 
M 252.546594 166.077822 
z
" style="fill: #ffffff"/>
   </g>
   <g id="matplotlib.axis_1">
    <g id="xtick_1"/>
    <g id="xtick_2"/>
    <g id="xtick_3"/>
    <g id="xtick_4"/>
    <g id="xtick_5"/>
    <g id="xtick_6"/>
    <g id="xtick_7"/>
    <g id="xtick_8"/>
    <g id="xtick_9"/>
    <g id="xtick_10"/>
    <g id="xtick_11"/>
    <g id="xtick_12"/>
    <g id="xtick_13"/>
    <g id="xtick_14"/>
    <g id="xtick_15"/>
    <g id="xtick_16"/>
    <g id="xtick_17"/>
    <g id="xtick_18"/>
    <g id="xtick_19"/>
    <g id="xtick_20"/>
    <g id="xtick_21"/>
    <g id="xtick_22"/>
    <g id="xtick_23"/>
    <g id="xtick_24"/>
    <g id="xtick_25"/>
    <g id="xtick_26"/>
    <g id="xtick_27"/>
    <g id="xtick_28"/>
    <g id="xtick_29"/>
    <g id="xtick_30"/>
    <g id="xtick_31"/>
    <g id="xtick_32"/>
    <g id="xtick_33"/>
   </g>
   <g id="matplotlib.axis_2">
    <g id="ytick_1">
     <g id="line2d_1">
      <path d="M 154.364776 166.077822 
C 154.364776 164.788511 154.11081 163.511736 153.617411 162.320567 
C 153.124013 161.129398 152.400778 160.047001 151.489097 159.135319 
C 150.577416 158.223638 149.495018 157.500403 148.30385 157.007005 
C 147.112681 156.513607 145.835906 156.259641 144.546594 156.259641 
C 143.257282 156.259641 141.980507 156.513607 140.789339 157.007005 
C 139.59817 157.500403 138.515772 158.223638 137.604091 159.135319 
C 136.69241 160.047001 135.969175 161.129398 135.475777 162.320567 
C 134.982379 163.511736 134.728412 164.788511 134.728412 166.077822 
C 134.728412 167.367134 134.982379 168.643909 135.475777 169.835078 
C 135.969175 171.026247 136.69241 172.108644 137.604091 173.020325 
C 138.515772 173.932006 139.59817 174.655241 140.789339 175.14864 
C 141.980507 175.642038 143.257282 175.896004 144.546594 175.896004 
C 145.835906 175.896004 147.112681 175.642038 148.30385 175.14864 
C 149.495018 174.655241 150.577416 173.932006 151.489097 173.020325 
C 152.400778 172.108644 153.124013 171.026247 153.617411 169.835078 
C 154.11081 168.643909 154.364776 167.367134 154.364776 166.077822 
" clip-path="url(#p1c61a9854f)" style="fill: none; stroke: #000000; stroke-opacity: 0.3; stroke-width: 2; stroke-linecap: square"/>
     </g>
    </g>
    <g id="ytick_2">
     <g id="line2d_2">
      <path d="M 183.819321 166.077822 
C 183.819321 160.920575 182.803456 155.813476 180.829863 151.0488 
C 178.85627 146.284125 175.96333 141.954535 172.316606 138.307811 
C 168.669881 134.661086 164.340291 131.768147 159.575616 129.794553 
C 154.810941 127.82096 149.703841 126.805095 144.546594 126.805095 
C 139.389347 126.805095 134.282247 127.82096 129.517572 129.794553 
C 124.752897 131.768147 120.423307 134.661086 116.776582 138.307811 
C 113.129858 141.954535 110.236918 146.284125 108.263325 151.0488 
C 106.289732 155.813476 105.273867 160.920575 105.273867 166.077822 
C 105.273867 171.23507 106.289732 176.342169 108.263325 181.106844 
C 110.236918 185.87152 113.129858 190.20111 116.776582 193.847834 
C 120.423307 197.494559 124.752897 200.387498 129.517572 202.361091 
C 134.282247 204.334684 139.389347 205.35055 144.546594 205.35055 
C 149.703841 205.35055 154.810941 204.334684 159.575616 202.361091 
C 164.340291 200.387498 168.669881 197.494559 172.316606 193.847834 
C 175.96333 190.20111 178.85627 185.87152 180.829863 181.106844 
C 182.803456 176.342169 183.819321 171.23507 183.819321 166.077822 
" clip-path="url(#p1c61a9854f)" style="fill: none; stroke: #000000; stroke-opacity: 0.3; stroke-width: 2; stroke-linecap: square"/>
     </g>
    </g>
    <g id="ytick_3">
     <g id="line2d_3">
      <path d="M 213.273867 166.077822 
C 213.273867 157.05264 211.496103 148.115215 208.042315 139.777034 
C 204.588527 131.438852 199.525883 123.86207 193.144115 117.480302 
C 186.762347 111.098534 179.185564 106.03589 170.847383 102.582102 
C 162.509201 99.128314 153.571777 97.35055 144.546594 97.35055 
C 135.521411 97.35055 126.583987 99.128314 118.245805 102.582102 
C 109.907624 106.03589 102.330841 111.098534 95.949073 117.480302 
C 89.567305 123.86207 84.504661 131.438852 81.050873 139.777034 
C 77.597086 148.115215 75.819321 157.05264 75.819321 166.077822 
C 75.819321 175.103005 77.597086 184.040429 81.050873 192.378611 
C 84.504661 200.716793 89.567305 208.293575 95.949073 214.675343 
C 102.330841 221.057111 109.907624 226.119755 118.245805 229.573543 
C 126.583987 233.027331 135.521411 234.805095 144.546594 234.805095 
C 153.571777 234.805095 162.509201 233.027331 170.847383 229.573543 
C 179.185564 226.119755 186.762347 221.057111 193.144115 214.675343 
C 199.525883 208.293575 204.588527 200.716793 208.042315 192.378611 
C 211.496103 184.040429 213.273867 175.103005 213.273867 166.077822 
" clip-path="url(#p1c61a9854f)" style="fill: none; stroke: #000000; stroke-opacity: 0.3; stroke-width: 2; stroke-linecap: square"/>
     </g>
    </g>
    <g id="ytick_4"/>
    <g id="ytick_5"/>
    <g id="ytick_6"/>
    <g id="ytick_7"/>
    <g id="ytick_8"/>
    <g id="ytick_9"/>
    <g id="ytick_10"/>
    <g id="ytick_11"/>
    <g id="ytick_12"/>
    <g id="ytick_13"/>
    <g id="ytick_14"/>
    <g id="ytick_15"/>
   </g>
   <g id="patch_3">
    <path d="M 252.546594 166.077822 
C 252.546594 151.895392 249.752965 137.850869 244.325584 124.748012 
C 238.898203 111.645155 230.942619 99.738783 220.914126 89.71029 
C 210.885634 79.681798 198.979262 71.726214 185.876405 66.298833 
C 172.773548 60.871452 158.729024 58.077822 144.546594 58.077822 
C 130.364164 58.077822 116.31964 60.871452 103.216783 66.298833 
C 90.113926 71.726214 78.207554 79.681798 68.179062 89.71029 
C 58.150569 99.738783 50.194986 111.645155 44.767605 124.748012 
C 39.340223 137.850869 36.546594 151.895392 36.546594 166.077822 
C 36.546594 180.260252 39.340223 194.304776 44.767605 207.407633 
C 50.194986 220.51049 58.150569 232.416862 68.179062 242.445355 
C 78.207554 252.473847 90.113926 260.429431 103.216783 265.856812 
C 116.31964 271.284193 130.364164 274.077822 144.546594 274.077822 
C 158.729024 274.077822 172.773548 271.284193 185.876405 265.856812 
C 198.979262 260.429431 210.885634 252.473847 220.914126 242.445355 
C 230.942619 232.416862 238.898203 220.51049 244.325584 207.407633 
C 249.752965 194.304776 252.546594 180.260252 252.546594 166.077822 
" style="fill: none; stroke: #495057; stroke-width: 3; stroke-linejoin: miter; stroke-linecap: square"/>
   </g>
   <g id="patch_4">
    <path d="M 144.546594 166.077822 
C 144.546594 166.077822 144.546594 166.077822 144.546594 166.077822 
C 144.546594 166.077822 144.546594 166.077822 144.546594 166.077822 
L 183.429608 160.558918 
C 183.689094 162.387103 183.819321 164.231314 183.819321 166.077822 
C 183.819321 167.924331 183.689094 169.768542 183.429608 171.596727 
z
" style="fill: #fce4ba; opacity: 0.8"/>
   </g>
   <g id="patch_5">
    <path d="M 144.546594 166.077822 
C 144.546594 166.077822 144.546594 166.077822 144.546594 166.077822 
C 144.546594 166.077822 144.546594 166.077822 144.546594 166.077822 
L 204.331522 64.554986 
C 209.10488 67.365928 213.674054 70.510021 218.005029 73.963859 
C 222.336004 77.417696 226.418005 81.172685 230.220643 85.200871 
z
" style="fill: #f7b770; opacity: 0.8"/>
   </g>
   <g id="patch_6">
    <path d="M 144.546594 166.077822 
C 144.546594 166.077822 144.546594 166.077822 144.546594 166.077822 
C 144.546594 166.077822 144.546594 166.077822 144.546594 166.077822 
L 78.219945 23.675823 
C 88.268229 18.995629 98.783722 15.392105 109.590578 12.92551 
C 120.397435 10.458916 131.435077 9.143078 142.518928 9 
z
" style="fill: #e8884c; opacity: 0.8"/>
   </g>
   <g id="patch_7">
    <path d="M 144.546594 166.077822 
C 144.546594 166.077822 144.546594 166.077822 144.546594 166.077822 
C 144.546594 166.077822 144.546594 166.077822 144.546594 166.077822 
L 9 143.255182 
C 11.14879 130.493243 15.089189 118.098487 20.704328 106.43853 
C 26.319467 94.778574 33.553279 83.969842 42.191216 74.332911 
z
" style="fill: #d55541; opacity: 0.8"/>
   </g>
   <g id="patch_8">
    <path d="M 144.546594 166.077822 
C 144.546594 166.077822 144.546594 166.077822 144.546594 166.077822 
C 144.546594 166.077822 144.546594 166.077822 144.546594 166.077822 
L 76.355888 205.057511 
C 75.439808 203.454927 74.580506 201.820548 73.779585 200.157418 
C 72.978663 198.494288 72.23662 196.80344 71.554837 195.088025 
z
" style="fill: #a83651; opacity: 0.8"/>
   </g>
   <g id="patch_9">
    <path d="M 144.546594 166.077822 
C 144.546594 166.077822 144.546594 166.077822 144.546594 166.077822 
C 144.546594 166.077822 144.546594 166.077822 144.546594 166.077822 
L 139.820325 264.145818 
C 134.055335 263.867981 128.326057 263.082337 122.699084 261.798017 
C 117.072112 260.513698 111.569332 258.735698 106.254707 256.484685 
z
" style="fill: #6f2748; opacity: 0.8"/>
   </g>
   <g id="patch_10">
    <path d="M 144.546594 166.077822 
C 144.546594 166.077822 144.546594 166.077822 144.546594 166.077822 
C 144.546594 166.077822 144.546594 166.077822 144.546594 166.077822 
L 254.907425 277.872459 
C 250.965904 281.763428 246.821365 285.443229 242.491174 288.896441 
C 238.160983 292.349653 233.651196 295.571447 228.980711 298.548324 
z
" style="fill: #401731; opacity: 0.8"/>
   </g>
  </g>
 </g>
 <defs>
  <clipPath id="p1c61a9854f">
   <path d="M 252.546594 166.077822 
C 252.546594 151.895392 249.752965 137.850869 244.325584 124.748012 
C 238.898203 111.645155 230.942619 99.738783 220.914126 89.71029 
C 210.885634 79.681798 198.979262 71.726214 185.876405 66.298833 
C 172.773548 60.871452 158.729024 58.077822 144.546594 58.077822 
C 130.364164 58.077822 116.31964 60.871452 103.216783 66.298833 
C 90.113926 71.726214 78.207554 79.681798 68.179062 89.71029 
C 58.150569 99.738783 50.194986 111.645155 44.767605 124.748012 
C 39.340223 137.850869 36.546594 151.895392 36.546594 166.077822 
C 36.546594 180.260252 39.340223 194.304776 44.767605 207.407633 
C 50.194986 220.51049 58.150569 232.416862 68.179062 242.445355 
C 78.207554 252.473847 90.113926 260.429431 103.216783 265.856812 
C 116.31964 271.284193 130.364164 274.077822 144.546594 274.077822 
C 158.729024 274.077822 172.773548 271.284193 185.876405 265.856812 
C 198.979262 260.429431 210.885634 252.473847 220.914126 242.445355 
C 230.942619 232.416862 238.898203 220.51049 244.325584 207.407633 
C 249.752965 194.304776 252.546594 180.260252 252.546594 166.077822 
M 144.546594 166.077822 
C 144.546594 166.077822 144.546594 166.077822 144.546594 166.077822 
C 144.546594 166.077822 144.546594 166.077822 144.546594 166.077822 
C 144.546594 166.077822 144.546594 166.077822 144.546594 166.077822 
C 144.546594 166.077822 144.546594 166.077822 144.546594 166.077822 
C 144.546594 166.077822 144.546594 166.077822 144.546594 166.077822 
C 144.546594 166.077822 144.546594 166.077822 144.546594 166.077822 
C 144.546594 166.077822 144.546594 166.077822 144.546594 166.077822 
C 144.546594 166.077822 144.546594 166.077822 144.546594 166.077822 
C 144.546594 166.077822 144.546594 166.077822 144.546594 166.077822 
C 144.546594 166.077822 144.546594 166.077822 144.546594 166.077822 
C 144.546594 166.077822 144.546594 166.077822 144.546594 166.077822 
C 144.546594 166.077822 144.546594 166.077822 144.546594 166.077822 
C 144.546594 166.077822 144.546594 166.077822 144.546594 166.077822 
C 144.546594 166.077822 144.546594 166.077822 144.546594 166.077822 
C 144.546594 166.077822 144.546594 166.077822 144.546594 166.077822 
C 144.546594 166.077822 144.546594 166.077822 144.546594 166.077822 
M 252.546594 166.077822 
z
"/>
  </clipPath>
 </defs>
</svg>
