<?xml version="1.0" encoding="utf-8" standalone="no"?>
<!DOCTYPE svg PUBLIC "-//W3C//DTD SVG 1.1//EN"
  "http://www.w3.org/Graphics/SVG/1.1/DTD/svg11.dtd">
<svg xmlns:xlink="http://www.w3.org/1999/xlink" width="234pt" height="234pt" viewBox="0 0 234 234" xmlns="http://www.w3.org/2000/svg" version="1.1">
 <metadata>
  <rdf:RDF xmlns:dc="http://purl.org/dc/elements/1.1/" xmlns:cc="http://creativecommons.org/ns#" xmlns:rdf="http://www.w3.org/1999/02/22-rdf-syntax-ns#">
   <cc:Work>
    <dc:type rdf:resource="http://purl.org/dc/dcmitype/StillImage"/>
    <dc:date>2022-06-22T14:25:51.550193</dc:date>
    <dc:format>image/svg+xml</dc:format>
    <dc:creator>
     <cc:Agent>
      <dc:title>Matplotlib v3.5.2, https://matplotlib.org/</dc:title>
     </cc:Agent>
    </dc:creator>
   </cc:Work>
  </rdf:RDF>
 </metadata>
 <defs>
  <style type="text/css">*{stroke-linejoin: round; stroke-linecap: butt}</style>
 </defs>
 <g id="figure_1">
  <g id="patch_1">
   <path d="M 0 234 
L 234 234 
L 234 0 
L 0 0 
L 0 234 
z
" style="fill: none; opacity: 0"/>
  </g>
  <g id="axes_1">
   <g id="patch_2">
    <path d="M 225 117 
C 225 102.81757 222.206371 88.773046 216.77899 75.670189 
C 211.351608 62.567332 203.396025 50.66096 193.367532 40.632468 
C 183.33904 30.603975 171.432668 22.648392 158.329811 17.22101 
C 145.226954 11.793629 131.18243 9 117 9 
C 102.81757 9 88.773046 11.793629 75.670189 17.22101 
C 62.567332 22.648392 50.66096 30.603975 40.632468 40.632468 
C 30.603975 50.66096 22.648392 62.567332 17.22101 75.670189 
C 11.793629 88.773046 9 102.81757 9 117 
C 9 131.18243 11.793629 145.226954 17.22101 158.329811 
C 22.648392 171.432668 30.603975 183.33904 40.632468 193.367532 
C 50.66096 203.396025 62.567332 211.351608 75.670189 216.77899 
C 88.773046 222.206371 102.81757 225 117 225 
C 131.18243 225 145.226954 222.206371 158.329811 216.77899 
C 171.432668 211.351608 183.33904 203.396025 193.367532 193.367532 
C 203.396025 183.33904 211.351608 171.432668 216.77899 158.329811 
C 222.206371 145.226954 225 131.18243 225 117 
M 117 117 
C 117 117 117 117 117 117 
C 117 117 117 117 117 117 
C 117 117 117 117 117 117 
C 117 117 117 117 117 117 
C 117 117 117 117 117 117 
C 117 117 117 117 117 117 
C 117 117 117 117 117 117 
C 117 117 117 117 117 117 
C 117 117 117 117 117 117 
C 117 117 117 117 117 117 
C 117 117 117 117 117 117 
C 117 117 117 117 117 117 
C 117 117 117 117 117 117 
C 117 117 117 117 117 117 
C 117 117 117 117 117 117 
C 117 117 117 117 117 117 
M 225 117 
L 225 117 
z
" style="fill: none; opacity: 0"/>
   </g>
   <g id="matplotlib.axis_1">
    <g id="xtick_1"/>
    <g id="xtick_2"/>
    <g id="xtick_3"/>
    <g id="xtick_4"/>
    <g id="xtick_5"/>
    <g id="xtick_6"/>
    <g id="xtick_7"/>
    <g id="xtick_8"/>
    <g id="xtick_9"/>
    <g id="xtick_10"/>
    <g id="xtick_11"/>
    <g id="xtick_12"/>
    <g id="xtick_13"/>
    <g id="xtick_14"/>
    <g id="xtick_15"/>
    <g id="xtick_16"/>
    <g id="xtick_17"/>
    <g id="xtick_18"/>
    <g id="xtick_19"/>
    <g id="xtick_20"/>
    <g id="xtick_21"/>
    <g id="xtick_22"/>
    <g id="xtick_23"/>
    <g id="xtick_24"/>
    <g id="xtick_25"/>
    <g id="xtick_26"/>
    <g id="xtick_27"/>
    <g id="xtick_28"/>
    <g id="xtick_29"/>
    <g id="xtick_30"/>
    <g id="xtick_31"/>
    <g id="xtick_32"/>
    <g id="xtick_33"/>
   </g>
   <g id="matplotlib.axis_2">
    <g id="ytick_1">
     <g id="line2d_1">
      <path d="M 137.25 117 
C 137.25 114.340794 136.726194 111.707446 135.708561 109.25066 
C 134.690927 106.793875 133.199255 104.56143 131.318912 102.681088 
C 129.43857 100.800745 127.206125 99.309073 124.74934 98.291439 
C 122.292554 97.273806 119.659206 96.75 117 96.75 
C 114.340794 96.75 111.707446 97.273806 109.25066 98.291439 
C 106.793875 99.309073 104.56143 100.800745 102.681088 102.681088 
C 100.800745 104.56143 99.309073 106.793875 98.291439 109.25066 
C 97.273806 111.707446 96.75 114.340794 96.75 117 
C 96.75 119.659206 97.273806 122.292554 98.291439 124.74934 
C 99.309073 127.206125 100.800745 129.43857 102.681088 131.318912 
C 104.56143 133.199255 106.793875 134.690927 109.25066 135.708561 
C 111.707446 136.726194 114.340794 137.25 117 137.25 
C 119.659206 137.25 122.292554 136.726194 124.74934 135.708561 
C 127.206125 134.690927 129.43857 133.199255 131.318912 131.318912 
C 133.199255 129.43857 134.690927 127.206125 135.708561 124.74934 
C 136.726194 122.292554 137.25 119.659206 137.25 117 
" clip-path="url(#p970e42647f)" style="fill: none; stroke: #000000; stroke-opacity: 0.3; stroke-width: 2; stroke-linecap: square"/>
     </g>
    </g>
    <g id="ytick_2">
     <g id="line2d_2">
      <path d="M 171 117 
C 171 109.908785 169.603185 102.886523 166.889495 96.335095 
C 164.175804 89.783666 160.198012 83.83048 155.183766 78.816234 
C 150.16952 73.801988 144.216334 69.824196 137.664905 67.110505 
C 131.113477 64.396815 124.091215 63 117 63 
C 109.908785 63 102.886523 64.396815 96.335095 67.110505 
C 89.783666 69.824196 83.83048 73.801988 78.816234 78.816234 
C 73.801988 83.83048 69.824196 89.783666 67.110505 96.335095 
C 64.396815 102.886523 63 109.908785 63 117 
C 63 124.091215 64.396815 131.113477 67.110505 137.664905 
C 69.824196 144.216334 73.801988 150.16952 78.816234 155.183766 
C 83.83048 160.198012 89.783666 164.175804 96.335095 166.889495 
C 102.886523 169.603185 109.908785 171 117 171 
C 124.091215 171 131.113477 169.603185 137.664905 166.889495 
C 144.216334 164.175804 150.16952 160.198012 155.183766 155.183766 
C 160.198012 150.16952 164.175804 144.216334 166.889495 137.664905 
C 169.603185 131.113477 171 124.091215 171 117 
" clip-path="url(#p970e42647f)" style="fill: none; stroke: #000000; stroke-opacity: 0.3; stroke-width: 2; stroke-linecap: square"/>
     </g>
    </g>
    <g id="ytick_3">
     <g id="line2d_3">
      <path d="M 204.75 117 
C 204.75 105.476776 202.480176 94.0656 198.070429 83.419529 
C 193.660682 72.773458 187.19677 63.09953 179.04862 54.95138 
C 170.90047 46.80323 161.226542 40.339318 150.580471 35.929571 
C 139.9344 31.519824 128.523224 29.25 117 29.25 
C 105.476776 29.25 94.0656 31.519824 83.419529 35.929571 
C 72.773458 40.339318 63.09953 46.80323 54.95138 54.95138 
C 46.80323 63.09953 40.339318 72.773458 35.929571 83.419529 
C 31.519824 94.0656 29.25 105.476776 29.25 117 
C 29.25 128.523224 31.519824 139.9344 35.929571 150.580471 
C 40.339318 161.226542 46.80323 170.90047 54.95138 179.04862 
C 63.09953 187.19677 72.773458 193.660682 83.419529 198.070429 
C 94.0656 202.480176 105.476776 204.75 117 204.75 
C 128.523224 204.75 139.9344 202.480176 150.580471 198.070429 
C 161.226542 193.660682 170.90047 187.19677 179.04862 179.04862 
C 187.19677 170.90047 193.660682 161.226542 198.070429 150.580471 
C 202.480176 139.9344 204.75 128.523224 204.75 117 
" clip-path="url(#p970e42647f)" style="fill: none; stroke: #000000; stroke-opacity: 0.3; stroke-width: 2; stroke-linecap: square"/>
     </g>
    </g>
    <g id="ytick_4"/>
    <g id="ytick_5"/>
    <g id="ytick_6"/>
    <g id="ytick_7"/>
    <g id="ytick_8"/>
    <g id="ytick_9"/>
    <g id="ytick_10"/>
    <g id="ytick_11"/>
    <g id="ytick_12"/>
    <g id="ytick_13"/>
    <g id="ytick_14"/>
    <g id="ytick_15"/>
    <g id="ytick_16"/>
   </g>
   <g id="patch_3">
    <path d="M 225 117 
C 225 102.81757 222.206371 88.773046 216.77899 75.670189 
C 211.351608 62.567332 203.396025 50.66096 193.367532 40.632468 
C 183.33904 30.603975 171.432668 22.648392 158.329811 17.22101 
C 145.226954 11.793629 131.18243 9 117 9 
C 102.81757 9 88.773046 11.793629 75.670189 17.22101 
C 62.567332 22.648392 50.66096 30.603975 40.632468 40.632468 
C 30.603975 50.66096 22.648392 62.567332 17.22101 75.670189 
C 11.793629 88.773046 9 102.81757 9 117 
C 9 131.18243 11.793629 145.226954 17.22101 158.329811 
C 22.648392 171.432668 30.603975 183.33904 40.632468 193.367532 
C 50.66096 203.396025 62.567332 211.351608 75.670189 216.77899 
C 88.773046 222.206371 102.81757 225 117 225 
C 131.18243 225 145.226954 222.206371 158.329811 216.77899 
C 171.432668 211.351608 183.33904 203.396025 193.367532 193.367532 
C 203.396025 183.33904 211.351608 171.432668 216.77899 158.329811 
C 222.206371 145.226954 225 131.18243 225 117 
" style="fill: none; stroke: #495057; stroke-width: 3; stroke-linejoin: miter; stroke-linecap: square"/>
   </g>
   <g id="patch_4">
    <path d="M 117 117 
C 117 117 117 117 117 117 
C 117 117 117 117 117 117 
L 143.732072 113.205753 
C 143.910469 114.46263 144 115.730526 144 117 
C 144 118.269474 143.910469 119.53737 143.732072 120.794247 
z
" style="fill: #fce4ba; opacity: 0.8"/>
   </g>
   <g id="patch_5">
    <path d="M 117 117 
C 117 117 117 117 117 117 
C 117 117 117 117 117 117 
L 158.102138 47.20305 
C 161.383821 49.135573 164.525129 51.297137 167.502674 53.67165 
C 170.480219 56.046163 173.286595 58.627718 175.900909 61.397096 
z
" style="fill: #f7b770; opacity: 0.8"/>
   </g>
   <g id="patch_6">
    <path d="M 117 117 
C 117 117 117 117 117 117 
C 117 117 117 117 117 117 
L 71.400429 19.098626 
C 78.308624 15.880992 85.538025 13.403569 92.967739 11.707785 
C 100.397453 10.012002 107.985832 9.107363 115.60598 9.008997 
z
" style="fill: #e8884c; opacity: 0.8"/>
   </g>
   <g id="patch_7">
    <path d="M 117 117 
C 117 117 117 117 117 117 
C 117 117 117 117 117 117 
L 23.811717 101.309435 
C 25.28901 92.535602 27.998034 84.014207 31.858442 75.997987 
C 35.71885 67.981766 40.692096 60.550763 46.630678 53.925374 
z
" style="fill: #d55541; opacity: 0.8"/>
   </g>
   <g id="patch_8">
    <path d="M 117 117 
C 117 117 117 117 117 117 
C 117 117 117 117 117 117 
L 70.11889 143.798536 
C 69.489084 142.69676 68.898315 141.573124 68.347681 140.429722 
C 67.797048 139.28632 67.286893 138.123862 66.818167 136.944514 
z
" style="fill: #a83651; opacity: 0.8"/>
   </g>
   <g id="patch_9">
    <path d="M 117 117 
C 117 117 117 117 117 117 
C 117 117 117 117 117 117 
L 113.75069 184.421747 
C 109.78726 184.230734 105.848381 183.690604 101.979837 182.807634 
C 98.111293 181.924664 94.328132 180.702289 90.674328 179.154718 
z
" style="fill: #6f2748; opacity: 0.8"/>
   </g>
   <g id="patch_10">
    <path d="M 117 117 
C 117 117 117 117 117 117 
C 117 117 117 117 117 117 
L 192.873071 193.858813 
C 190.163276 196.533854 187.313905 199.063717 184.336899 201.4378 
C 181.359892 203.811883 178.259414 206.026867 175.048455 208.07347 
z
" style="fill: #401731; opacity: 0.8"/>
   </g>
  </g>
 </g>
 <defs>
  <clipPath id="p970e42647f">
   <path d="M 225 117 
C 225 102.81757 222.206371 88.773046 216.77899 75.670189 
C 211.351608 62.567332 203.396025 50.66096 193.367532 40.632468 
C 183.33904 30.603975 171.432668 22.648392 158.329811 17.22101 
C 145.226954 11.793629 131.18243 9 117 9 
C 102.81757 9 88.773046 11.793629 75.670189 17.22101 
C 62.567332 22.648392 50.66096 30.603975 40.632468 40.632468 
C 30.603975 50.66096 22.648392 62.567332 17.22101 75.670189 
C 11.793629 88.773046 9 102.81757 9 117 
C 9 131.18243 11.793629 145.226954 17.22101 158.329811 
C 22.648392 171.432668 30.603975 183.33904 40.632468 193.367532 
C 50.66096 203.396025 62.567332 211.351608 75.670189 216.77899 
C 88.773046 222.206371 102.81757 225 117 225 
C 131.18243 225 145.226954 222.206371 158.329811 216.77899 
C 171.432668 211.351608 183.33904 203.396025 193.367532 193.367532 
C 203.396025 183.33904 211.351608 171.432668 216.77899 158.329811 
C 222.206371 145.226954 225 131.18243 225 117 
M 117 117 
C 117 117 117 117 117 117 
C 117 117 117 117 117 117 
C 117 117 117 117 117 117 
C 117 117 117 117 117 117 
C 117 117 117 117 117 117 
C 117 117 117 117 117 117 
C 117 117 117 117 117 117 
C 117 117 117 117 117 117 
C 117 117 117 117 117 117 
C 117 117 117 117 117 117 
C 117 117 117 117 117 117 
C 117 117 117 117 117 117 
C 117 117 117 117 117 117 
C 117 117 117 117 117 117 
C 117 117 117 117 117 117 
C 117 117 117 117 117 117 
M 225 117 
z
"/>
  </clipPath>
 </defs>
</svg>
