<?xml version="1.0" encoding="utf-8" standalone="no"?>
<!DOCTYPE svg PUBLIC "-//W3C//DTD SVG 1.1//EN"
  "http://www.w3.org/Graphics/SVG/1.1/DTD/svg11.dtd">
<svg xmlns:xlink="http://www.w3.org/1999/xlink" width="357.39pt" height="307.548324pt" viewBox="0 0 357.39 307.548324" xmlns="http://www.w3.org/2000/svg" version="1.1">
 <metadata>
  <rdf:RDF xmlns:dc="http://purl.org/dc/elements/1.1/" xmlns:cc="http://creativecommons.org/ns#" xmlns:rdf="http://www.w3.org/1999/02/22-rdf-syntax-ns#">
   <cc:Work>
    <dc:type rdf:resource="http://purl.org/dc/dcmitype/StillImage"/>
    <dc:date>2022-06-22T14:25:52.026790</dc:date>
    <dc:format>image/svg+xml</dc:format>
    <dc:creator>
     <cc:Agent>
      <dc:title>Matplotlib v3.5.2, https://matplotlib.org/</dc:title>
     </cc:Agent>
    </dc:creator>
   </cc:Work>
  </rdf:RDF>
 </metadata>
 <defs>
  <style type="text/css">*{stroke-linejoin: round; stroke-linecap: butt}</style>
 </defs>
 <g id="figure_1">
  <g id="patch_1">
   <path d="M 0 307.548324 
L 357.39 307.548324 
L 357.39 0 
L 0 0 
L 0 307.548324 
z
" style="fill: none; opacity: 0"/>
  </g>
  <g id="axes_1">
   <g id="patch_2">
    <path d="M 286.38 166.077822 
C 286.38 151.895392 283.586371 137.850869 278.15899 124.748012 
C 272.731608 111.645155 264.776025 99.738783 254.747532 89.71029 
C 244.71904 79.681798 232.812668 71.726214 219.709811 66.298833 
C 206.606954 60.871452 192.56243 58.077822 178.38 58.077822 
C 164.19757 58.077822 150.153046 60.871452 137.050189 66.298833 
C 123.947332 71.726214 112.04096 79.681798 102.012468 89.71029 
C 91.983975 99.738783 84.028392 111.645155 78.60101 124.748012 
C 73.173629 137.850869 70.38 151.895392 70.38 166.077822 
C 70.38 180.260252 73.173629 194.304776 78.60101 207.407633 
C 84.028392 220.51049 91.983975 232.416862 102.012468 242.445355 
C 112.04096 252.473847 123.947332 260.429431 137.050189 265.856812 
C 150.153046 271.284193 164.19757 274.077822 178.38 274.077822 
C 192.56243 274.077822 206.606954 271.284193 219.709811 265.856812 
C 232.812668 260.429431 244.71904 252.473847 254.747532 242.445355 
C 264.776025 232.416862 272.731608 220.51049 278.15899 207.407633 
C 283.586371 194.304776 286.38 180.260252 286.38 166.077822 
M 178.38 166.077822 
C 178.38 166.077822 178.38 166.077822 178.38 166.077822 
C 178.38 166.077822 178.38 166.077822 178.38 166.077822 
C 178.38 166.077822 178.38 166.077822 178.38 166.077822 
C 178.38 166.077822 178.38 166.077822 178.38 166.077822 
C 178.38 166.077822 178.38 166.077822 178.38 166.077822 
C 178.38 166.077822 178.38 166.077822 178.38 166.077822 
C 178.38 166.077822 178.38 166.077822 178.38 166.077822 
C 178.38 166.077822 178.38 166.077822 178.38 166.077822 
C 178.38 166.077822 178.38 166.077822 178.38 166.077822 
C 178.38 166.077822 178.38 166.077822 178.38 166.077822 
C 178.38 166.077822 178.38 166.077822 178.38 166.077822 
C 178.38 166.077822 178.38 166.077822 178.38 166.077822 
C 178.38 166.077822 178.38 166.077822 178.38 166.077822 
C 178.38 166.077822 178.38 166.077822 178.38 166.077822 
C 178.38 166.077822 178.38 166.077822 178.38 166.077822 
C 178.38 166.077822 178.38 166.077822 178.38 166.077822 
M 286.38 166.077822 
z
" style="fill: #ffffff; opacity: 0.8"/>
   </g>
   <g id="matplotlib.axis_1">
    <g id="xtick_1"/>
    <g id="xtick_2"/>
    <g id="xtick_3"/>
    <g id="xtick_4"/>
    <g id="xtick_5"/>
    <g id="xtick_6"/>
    <g id="xtick_7"/>
    <g id="xtick_8"/>
    <g id="xtick_9"/>
    <g id="xtick_10"/>
    <g id="xtick_11"/>
    <g id="xtick_12"/>
    <g id="xtick_13"/>
    <g id="xtick_14"/>
    <g id="xtick_15"/>
    <g id="xtick_16"/>
    <g id="xtick_17"/>
    <g id="xtick_18"/>
    <g id="xtick_19"/>
    <g id="xtick_20"/>
    <g id="xtick_21"/>
    <g id="xtick_22"/>
    <g id="xtick_23"/>
    <g id="xtick_24"/>
    <g id="xtick_25"/>
    <g id="xtick_26"/>
    <g id="xtick_27"/>
    <g id="xtick_28"/>
    <g id="xtick_29"/>
    <g id="xtick_30"/>
    <g id="xtick_31"/>
    <g id="xtick_32"/>
    <g id="xtick_33"/>
   </g>
   <g id="matplotlib.axis_2">
    <g id="ytick_1">
     <g id="line2d_1">
      <path d="M 188.198182 166.077822 
C 188.198182 164.788511 187.944216 163.511736 187.450817 162.320567 
C 186.957419 161.129398 186.234184 160.047001 185.322503 159.135319 
C 184.410822 158.223638 183.328424 157.500403 182.137256 157.007005 
C 180.946087 156.513607 179.669312 156.259641 178.38 156.259641 
C 177.090688 156.259641 175.813913 156.513607 174.622744 157.007005 
C 173.431576 157.500403 172.349178 158.223638 171.437497 159.135319 
C 170.525816 160.047001 169.802581 161.129398 169.309183 162.320567 
C 168.815784 163.511736 168.561818 164.788511 168.561818 166.077822 
C 168.561818 167.367134 168.815784 168.643909 169.309183 169.835078 
C 169.802581 171.026247 170.525816 172.108644 171.437497 173.020325 
C 172.349178 173.932006 173.431576 174.655241 174.622744 175.14864 
C 175.813913 175.642038 177.090688 175.896004 178.38 175.896004 
C 179.669312 175.896004 180.946087 175.642038 182.137256 175.14864 
C 183.328424 174.655241 184.410822 173.932006 185.322503 173.020325 
C 186.234184 172.108644 186.957419 171.026247 187.450817 169.835078 
C 187.944216 168.643909 188.198182 167.367134 188.198182 166.077822 
" clip-path="url(#p14e97e8a32)" style="fill: none; stroke: #000000; stroke-opacity: 0.3; stroke-linecap: square"/>
     </g>
    </g>
    <g id="ytick_2">
     <g id="line2d_2">
      <path d="M 217.652727 166.077822 
C 217.652727 160.920575 216.636862 155.813476 214.663269 151.0488 
C 212.689676 146.284125 209.796736 141.954535 206.150012 138.307811 
C 202.503287 134.661086 198.173697 131.768147 193.409022 129.794553 
C 188.644347 127.82096 183.537247 126.805095 178.38 126.805095 
C 173.222753 126.805095 168.115653 127.82096 163.350978 129.794553 
C 158.586303 131.768147 154.256713 134.661086 150.609988 138.307811 
C 146.963264 141.954535 144.070324 146.284125 142.096731 151.0488 
C 140.123138 155.813476 139.107273 160.920575 139.107273 166.077822 
C 139.107273 171.23507 140.123138 176.342169 142.096731 181.106844 
C 144.070324 185.87152 146.963264 190.20111 150.609988 193.847834 
C 154.256713 197.494559 158.586303 200.387498 163.350978 202.361091 
C 168.115653 204.334684 173.222753 205.35055 178.38 205.35055 
C 183.537247 205.35055 188.644347 204.334684 193.409022 202.361091 
C 198.173697 200.387498 202.503287 197.494559 206.150012 193.847834 
C 209.796736 190.20111 212.689676 185.87152 214.663269 181.106844 
C 216.636862 176.342169 217.652727 171.23507 217.652727 166.077822 
" clip-path="url(#p14e97e8a32)" style="fill: none; stroke: #000000; stroke-opacity: 0.3; stroke-linecap: square"/>
     </g>
    </g>
    <g id="ytick_3">
     <g id="line2d_3">
      <path d="M 247.107273 166.077822 
C 247.107273 157.05264 245.329509 148.115215 241.875721 139.777034 
C 238.421933 131.438852 233.359289 123.86207 226.977521 117.480302 
C 220.595753 111.098534 213.01897 106.03589 204.680789 102.582102 
C 196.342607 99.128314 187.405183 97.35055 178.38 97.35055 
C 169.354817 97.35055 160.417393 99.128314 152.079211 102.582102 
C 143.74103 106.03589 136.164247 111.098534 129.782479 117.480302 
C 123.400711 123.86207 118.338067 131.438852 114.884279 139.777034 
C 111.430491 148.115215 109.652727 157.05264 109.652727 166.077822 
C 109.652727 175.103005 111.430491 184.040429 114.884279 192.378611 
C 118.338067 200.716793 123.400711 208.293575 129.782479 214.675343 
C 136.164247 221.057111 143.74103 226.119755 152.079211 229.573543 
C 160.417393 233.027331 169.354817 234.805095 178.38 234.805095 
C 187.405183 234.805095 196.342607 233.027331 204.680789 229.573543 
C 213.01897 226.119755 220.595753 221.057111 226.977521 214.675343 
C 233.359289 208.293575 238.421933 200.716793 241.875721 192.378611 
C 245.329509 184.040429 247.107273 175.103005 247.107273 166.077822 
" clip-path="url(#p14e97e8a32)" style="fill: none; stroke: #000000; stroke-opacity: 0.3; stroke-linecap: square"/>
     </g>
    </g>
    <g id="ytick_4"/>
    <g id="ytick_5"/>
    <g id="ytick_6"/>
    <g id="ytick_7"/>
    <g id="ytick_8"/>
    <g id="ytick_9"/>
    <g id="ytick_10"/>
    <g id="ytick_11"/>
    <g id="ytick_12"/>
    <g id="ytick_13"/>
    <g id="ytick_14"/>
    <g id="ytick_15"/>
   </g>
   <g id="patch_3">
    <path d="M 286.38 166.077822 
C 286.38 151.895392 283.586371 137.850869 278.15899 124.748012 
C 272.731608 111.645155 264.776025 99.738783 254.747532 89.71029 
C 244.71904 79.681798 232.812668 71.726214 219.709811 66.298833 
C 206.606954 60.871452 192.56243 58.077822 178.38 58.077822 
C 164.19757 58.077822 150.153046 60.871452 137.050189 66.298833 
C 123.947332 71.726214 112.04096 79.681798 102.012468 89.71029 
C 91.983975 99.738783 84.028392 111.645155 78.60101 124.748012 
C 73.173629 137.850869 70.38 151.895392 70.38 166.077822 
C 70.38 180.260252 73.173629 194.304776 78.60101 207.407633 
C 84.028392 220.51049 91.983975 232.416862 102.012468 242.445355 
C 112.04096 252.473847 123.947332 260.429431 137.050189 265.856812 
C 150.153046 271.284193 164.19757 274.077822 178.38 274.077822 
C 192.56243 274.077822 206.606954 271.284193 219.709811 265.856812 
C 232.812668 260.429431 244.71904 252.473847 254.747532 242.445355 
C 264.776025 232.416862 272.731608 220.51049 278.15899 207.407633 
C 283.586371 194.304776 286.38 180.260252 286.38 166.077822 
" style="fill: none; stroke: #495057; stroke-width: 1.2; stroke-linejoin: miter; stroke-linecap: square"/>
   </g>
   <g id="patch_4">
    <path d="M 178.38 166.077822 
C 178.38 166.077822 178.38 166.077822 178.38 166.077822 
C 178.38 166.077822 178.38 166.077822 178.38 166.077822 
L 217.263014 160.558918 
C 217.5225 162.387103 217.652727 164.231314 217.652727 166.077822 
C 217.652727 167.924331 217.5225 169.768542 217.263014 171.596727 
z
" style="fill: #fce4ba; opacity: 0.8; stroke: #495057; stroke-linejoin: miter"/>
   </g>
   <g id="patch_5">
    <path d="M 178.38 166.077822 
C 178.38 166.077822 178.38 166.077822 178.38 166.077822 
C 178.38 166.077822 178.38 166.077822 178.38 166.077822 
L 238.164928 64.554986 
C 242.938286 67.365928 247.50746 70.510021 251.838435 73.963859 
C 256.16941 77.417696 260.251411 81.172685 264.054049 85.200871 
z
" style="fill: #f7b770; opacity: 0.8; stroke: #495057; stroke-linejoin: miter"/>
   </g>
   <g id="patch_6">
    <path d="M 178.38 166.077822 
C 178.38 166.077822 178.38 166.077822 178.38 166.077822 
C 178.38 166.077822 178.38 166.077822 178.38 166.077822 
L 112.053351 23.675823 
C 122.101635 18.995629 132.617128 15.392105 143.423984 12.92551 
C 154.23084 10.458916 165.268483 9.143078 176.352334 9 
z
" style="fill: #e8884c; opacity: 0.8; stroke: #495057; stroke-linejoin: miter"/>
   </g>
   <g id="patch_7">
    <path d="M 178.38 166.077822 
C 178.38 166.077822 178.38 166.077822 178.38 166.077822 
C 178.38 166.077822 178.38 166.077822 178.38 166.077822 
L 42.833406 143.255182 
C 44.982196 130.493243 48.922595 118.098487 54.537734 106.43853 
C 60.152873 94.778574 67.386685 83.969842 76.024622 74.332911 
z
" style="fill: #d55541; opacity: 0.8; stroke: #495057; stroke-linejoin: miter"/>
   </g>
   <g id="patch_8">
    <path d="M 178.38 166.077822 
C 178.38 166.077822 178.38 166.077822 178.38 166.077822 
C 178.38 166.077822 178.38 166.077822 178.38 166.077822 
L 110.189294 205.057511 
C 109.273214 203.454927 108.413912 201.820548 107.612991 200.157418 
C 106.812069 198.494288 106.070026 196.80344 105.388243 195.088025 
z
" style="fill: #a83651; opacity: 0.8; stroke: #495057; stroke-linejoin: miter"/>
   </g>
   <g id="patch_9">
    <path d="M 178.38 166.077822 
C 178.38 166.077822 178.38 166.077822 178.38 166.077822 
C 178.38 166.077822 178.38 166.077822 178.38 166.077822 
L 173.653731 264.145818 
C 167.888741 263.867981 162.159463 263.082337 156.53249 261.798017 
C 150.905518 260.513698 145.402738 258.735698 140.088113 256.484685 
z
" style="fill: #6f2748; opacity: 0.8; stroke: #495057; stroke-linejoin: miter"/>
   </g>
   <g id="patch_10">
    <path d="M 178.38 166.077822 
C 178.38 166.077822 178.38 166.077822 178.38 166.077822 
C 178.38 166.077822 178.38 166.077822 178.38 166.077822 
L 288.740831 277.872459 
C 284.79931 281.763428 280.654771 285.443229 276.32458 288.896441 
C 271.994389 292.349653 267.484602 295.571447 262.814117 298.548324 
z
" style="fill: #401731; opacity: 0.8; stroke: #495057; stroke-linejoin: miter"/>
   </g>
   <g id="text_1">
    <path d="M 23.6925 125.296572 
L 51.775312 125.296572 
Q 62.097187 125.296572 67.919062 130.021572 
Q 73.740937 134.746572 73.740937 143.141885 
Q 73.740937 148.28876 71.800312 152.929385 
Q 69.87375 157.555947 66.27375 161.029385 
Q 62.364375 164.77001 56.950312 166.45751 
Q 51.550312 168.14501 43.38 168.14501 
L 32.214375 168.14501 
L 27.826875 190.912197 
L 10.895625 190.912197 
L 23.6925 125.296572 
z
M 38.275312 137.559072 
L 34.675312 155.88251 
L 44.040937 155.88251 
Q 50.0175 155.88251 53.181562 153.07001 
Q 56.345625 150.25751 56.345625 144.899697 
Q 56.345625 141.341885 54.081562 139.45751 
Q 51.8175 137.559072 47.556562 137.559072 
L 38.275312 137.559072 
z
M 118.440352 155.09501 
Q 116.809102 154.166885 114.826289 153.68876 
Q 112.857539 153.210635 110.565352 153.210635 
Q 104.546602 153.210635 100.566914 157.077822 
Q 96.601289 160.94501 95.195039 168.229385 
L 90.709102 190.912197 
L 74.930977 190.912197 
L 84.507539 141.693447 
L 100.327852 141.693447 
L 98.612227 150.130947 
Q 101.734102 145.47626 106.416914 143.00126 
Q 111.099727 140.512197 116.809102 140.512197 
Q 117.638789 140.512197 118.693477 140.596572 
Q 119.748164 140.680947 121.210664 140.86376 
L 118.440352 155.09501 
z
M 150.29543 151.762197 
Q 144.192305 151.762197 140.22668 157.302822 
Q 136.275117 162.829385 136.275117 171.393447 
Q 136.275117 176.062197 138.398555 178.509072 
Q 140.536055 180.941885 144.628242 180.941885 
Q 150.731367 180.941885 154.68293 175.387197 
Q 158.648555 169.818447 158.648555 161.198135 
Q 158.648555 156.585635 156.511055 154.180947 
Q 154.387617 151.762197 150.29543 151.762197 
z
M 151.575117 140.512197 
Q 162.55793 140.512197 168.843867 146.09501 
Q 175.129805 151.66376 175.129805 161.296572 
Q 175.129805 166.879385 173.146992 172.124697 
Q 171.16418 177.37001 167.39543 181.729385 
Q 162.909492 186.918447 156.792305 189.562197 
Q 150.68918 192.191885 143.179805 192.191885 
Q 132.323555 192.191885 126.05168 186.609072 
Q 119.793867 181.02626 119.793867 171.393447 
Q 119.793867 165.866885 121.818867 160.579385 
Q 123.843867 155.277822 127.62668 150.87626 
Q 132.01418 145.785635 138.103242 143.155947 
Q 144.192305 140.512197 151.575117 140.512197 
z
" style="fill: #ffffff; opacity: 0.8; stroke: #00315e; stroke-width: 5"/>
    <path d="M 23.6925 125.296572 
L 51.775312 125.296572 
Q 62.097187 125.296572 67.919062 130.021572 
Q 73.740937 134.746572 73.740937 143.141885 
Q 73.740937 148.28876 71.800312 152.929385 
Q 69.87375 157.555947 66.27375 161.029385 
Q 62.364375 164.77001 56.950312 166.45751 
Q 51.550312 168.14501 43.38 168.14501 
L 32.214375 168.14501 
L 27.826875 190.912197 
L 10.895625 190.912197 
L 23.6925 125.296572 
z
M 38.275312 137.559072 
L 34.675312 155.88251 
L 44.040937 155.88251 
Q 50.0175 155.88251 53.181562 153.07001 
Q 56.345625 150.25751 56.345625 144.899697 
Q 56.345625 141.341885 54.081562 139.45751 
Q 51.8175 137.559072 47.556562 137.559072 
L 38.275312 137.559072 
z
M 118.440352 155.09501 
Q 116.809102 154.166885 114.826289 153.68876 
Q 112.857539 153.210635 110.565352 153.210635 
Q 104.546602 153.210635 100.566914 157.077822 
Q 96.601289 160.94501 95.195039 168.229385 
L 90.709102 190.912197 
L 74.930977 190.912197 
L 84.507539 141.693447 
L 100.327852 141.693447 
L 98.612227 150.130947 
Q 101.734102 145.47626 106.416914 143.00126 
Q 111.099727 140.512197 116.809102 140.512197 
Q 117.638789 140.512197 118.693477 140.596572 
Q 119.748164 140.680947 121.210664 140.86376 
L 118.440352 155.09501 
z
M 150.29543 151.762197 
Q 144.192305 151.762197 140.22668 157.302822 
Q 136.275117 162.829385 136.275117 171.393447 
Q 136.275117 176.062197 138.398555 178.509072 
Q 140.536055 180.941885 144.628242 180.941885 
Q 150.731367 180.941885 154.68293 175.387197 
Q 158.648555 169.818447 158.648555 161.198135 
Q 158.648555 156.585635 156.511055 154.180947 
Q 154.387617 151.762197 150.29543 151.762197 
z
M 151.575117 140.512197 
Q 162.55793 140.512197 168.843867 146.09501 
Q 175.129805 151.66376 175.129805 161.296572 
Q 175.129805 166.879385 173.146992 172.124697 
Q 171.16418 177.37001 167.39543 181.729385 
Q 162.909492 186.918447 156.792305 189.562197 
Q 150.68918 192.191885 143.179805 192.191885 
Q 132.323555 192.191885 126.05168 186.609072 
Q 119.793867 181.02626 119.793867 171.393447 
Q 119.793867 165.866885 121.818867 160.579385 
Q 123.843867 155.277822 127.62668 150.87626 
Q 132.01418 145.785635 138.103242 143.155947 
Q 144.192305 140.512197 151.575117 140.512197 
z
" style="fill: #ffffff; opacity: 0.8"/>
   </g>
   <g id="text_2">
    <path d="M 221.706562 144.864541 
Q 221.706562 139.816104 219.04875 137.664541 
Q 216.390938 135.512979 211.609688 135.512979 
L 198.995625 135.512979 
L 198.995625 154.581729 
L 211.609688 154.581729 
Q 216.390938 154.581729 219.04875 152.261416 
Q 221.706562 149.927041 221.706562 144.864541 
z
M 235.108125 144.780166 
Q 235.108125 156.255166 229.300312 161.008291 
Q 223.506563 165.747354 212.74875 165.747354 
L 198.995625 165.747354 
L 198.995625 189.034854 
L 185.537813 189.034854 
L 185.537813 124.262979 
L 213.76125 124.262979 
Q 223.506563 124.262979 229.300312 129.269229 
Q 235.108125 134.275479 235.108125 144.780166 
z
M 257.042109 189.034854 
L 244.512422 189.034854 
L 244.512422 124.262979 
L 257.042109 124.262979 
L 257.042109 189.034854 
z
M 290.75168 180.203604 
Q 296.236055 180.203604 299.175117 176.294229 
Q 302.128242 172.384854 302.128242 165.170791 
Q 302.128242 157.970791 299.175117 154.075479 
Q 296.236055 150.180166 290.75168 150.180166 
Q 285.253242 150.180166 282.286055 154.075479 
Q 279.318867 157.970791 279.318867 165.170791 
Q 279.318867 172.384854 282.286055 176.294229 
Q 285.253242 180.203604 290.75168 180.203604 
z
M 315.27668 165.170791 
Q 315.27668 175.717666 309.20168 183.212979 
Q 303.140742 190.708291 290.793867 190.708291 
Q 278.446992 190.708291 272.371992 183.212979 
Q 266.311055 175.717666 266.311055 165.170791 
Q 266.311055 154.806729 272.371992 147.198916 
Q 278.446992 139.591104 290.793867 139.591104 
Q 303.140742 139.591104 309.20168 147.198916 
Q 315.27668 154.806729 315.27668 165.170791 
z
M 290.793867 139.858291 
L 290.793867 139.858291 
z
M 319.317891 150.489541 
L 319.317891 141.573916 
L 325.997578 141.573916 
L 325.997578 128.214541 
L 338.386641 128.214541 
L 338.386641 141.573916 
L 346.163203 141.573916 
L 346.163203 150.489541 
L 338.386641 150.489541 
L 338.386641 175.802041 
Q 338.386641 178.755166 339.131953 179.486416 
Q 339.877266 180.203604 343.702266 180.203604 
Q 344.278828 180.203604 344.911641 180.189541 
Q 345.544453 180.161416 346.163203 180.119229 
L 346.163203 189.470791 
L 340.228828 189.695791 
Q 331.355391 190.005166 328.106953 186.616104 
Q 325.997578 184.464541 325.997578 179.978604 
L 325.997578 150.489541 
L 319.317891 150.489541 
z
" style="fill: #00315e; opacity: 0.8; stroke: #ffffff; stroke-width: 4"/>
    <path d="M 221.706562 144.864541 
Q 221.706562 139.816104 219.04875 137.664541 
Q 216.390938 135.512979 211.609688 135.512979 
L 198.995625 135.512979 
L 198.995625 154.581729 
L 211.609688 154.581729 
Q 216.390938 154.581729 219.04875 152.261416 
Q 221.706562 149.927041 221.706562 144.864541 
z
M 235.108125 144.780166 
Q 235.108125 156.255166 229.300312 161.008291 
Q 223.506563 165.747354 212.74875 165.747354 
L 198.995625 165.747354 
L 198.995625 189.034854 
L 185.537813 189.034854 
L 185.537813 124.262979 
L 213.76125 124.262979 
Q 223.506563 124.262979 229.300312 129.269229 
Q 235.108125 134.275479 235.108125 144.780166 
z
M 257.042109 189.034854 
L 244.512422 189.034854 
L 244.512422 124.262979 
L 257.042109 124.262979 
L 257.042109 189.034854 
z
M 290.75168 180.203604 
Q 296.236055 180.203604 299.175117 176.294229 
Q 302.128242 172.384854 302.128242 165.170791 
Q 302.128242 157.970791 299.175117 154.075479 
Q 296.236055 150.180166 290.75168 150.180166 
Q 285.253242 150.180166 282.286055 154.075479 
Q 279.318867 157.970791 279.318867 165.170791 
Q 279.318867 172.384854 282.286055 176.294229 
Q 285.253242 180.203604 290.75168 180.203604 
z
M 315.27668 165.170791 
Q 315.27668 175.717666 309.20168 183.212979 
Q 303.140742 190.708291 290.793867 190.708291 
Q 278.446992 190.708291 272.371992 183.212979 
Q 266.311055 175.717666 266.311055 165.170791 
Q 266.311055 154.806729 272.371992 147.198916 
Q 278.446992 139.591104 290.793867 139.591104 
Q 303.140742 139.591104 309.20168 147.198916 
Q 315.27668 154.806729 315.27668 165.170791 
z
M 290.793867 139.858291 
L 290.793867 139.858291 
z
M 319.317891 150.489541 
L 319.317891 141.573916 
L 325.997578 141.573916 
L 325.997578 128.214541 
L 338.386641 128.214541 
L 338.386641 141.573916 
L 346.163203 141.573916 
L 346.163203 150.489541 
L 338.386641 150.489541 
L 338.386641 175.802041 
Q 338.386641 178.755166 339.131953 179.486416 
Q 339.877266 180.203604 343.702266 180.203604 
Q 344.278828 180.203604 344.911641 180.189541 
Q 345.544453 180.161416 346.163203 180.119229 
L 346.163203 189.470791 
L 340.228828 189.695791 
Q 331.355391 190.005166 328.106953 186.616104 
Q 325.997578 184.464541 325.997578 179.978604 
L 325.997578 150.489541 
L 319.317891 150.489541 
z
" style="fill: #00315e; opacity: 0.8"/>
   </g>
  </g>
 </g>
 <defs>
  <clipPath id="p14e97e8a32">
   <path d="M 286.38 166.077822 
C 286.38 151.895392 283.586371 137.850869 278.15899 124.748012 
C 272.731608 111.645155 264.776025 99.738783 254.747532 89.71029 
C 244.71904 79.681798 232.812668 71.726214 219.709811 66.298833 
C 206.606954 60.871452 192.56243 58.077822 178.38 58.077822 
C 164.19757 58.077822 150.153046 60.871452 137.050189 66.298833 
C 123.947332 71.726214 112.04096 79.681798 102.012468 89.71029 
C 91.983975 99.738783 84.028392 111.645155 78.60101 124.748012 
C 73.173629 137.850869 70.38 151.895392 70.38 166.077822 
C 70.38 180.260252 73.173629 194.304776 78.60101 207.407633 
C 84.028392 220.51049 91.983975 232.416862 102.012468 242.445355 
C 112.04096 252.473847 123.947332 260.429431 137.050189 265.856812 
C 150.153046 271.284193 164.19757 274.077822 178.38 274.077822 
C 192.56243 274.077822 206.606954 271.284193 219.709811 265.856812 
C 232.812668 260.429431 244.71904 252.473847 254.747532 242.445355 
C 264.776025 232.416862 272.731608 220.51049 278.15899 207.407633 
C 283.586371 194.304776 286.38 180.260252 286.38 166.077822 
M 178.38 166.077822 
C 178.38 166.077822 178.38 166.077822 178.38 166.077822 
C 178.38 166.077822 178.38 166.077822 178.38 166.077822 
C 178.38 166.077822 178.38 166.077822 178.38 166.077822 
C 178.38 166.077822 178.38 166.077822 178.38 166.077822 
C 178.38 166.077822 178.38 166.077822 178.38 166.077822 
C 178.38 166.077822 178.38 166.077822 178.38 166.077822 
C 178.38 166.077822 178.38 166.077822 178.38 166.077822 
C 178.38 166.077822 178.38 166.077822 178.38 166.077822 
C 178.38 166.077822 178.38 166.077822 178.38 166.077822 
C 178.38 166.077822 178.38 166.077822 178.38 166.077822 
C 178.38 166.077822 178.38 166.077822 178.38 166.077822 
C 178.38 166.077822 178.38 166.077822 178.38 166.077822 
C 178.38 166.077822 178.38 166.077822 178.38 166.077822 
C 178.38 166.077822 178.38 166.077822 178.38 166.077822 
C 178.38 166.077822 178.38 166.077822 178.38 166.077822 
C 178.38 166.077822 178.38 166.077822 178.38 166.077822 
M 286.38 166.077822 
z
"/>
  </clipPath>
 </defs>
</svg>
