<?xml version="1.0" encoding="utf-8" standalone="no"?>
<!DOCTYPE svg PUBLIC "-//W3C//DTD SVG 1.1//EN"
  "http://www.w3.org/Graphics/SVG/1.1/DTD/svg11.dtd">
<!-- Created with matplotlib (https://matplotlib.org/) -->
<svg height="237.5pt" version="1.1" viewBox="0 0 399.9 237.5" width="399.9pt" xmlns="http://www.w3.org/2000/svg" xmlns:xlink="http://www.w3.org/1999/xlink">
 <defs>
  <style type="text/css">
*{stroke-linecap:butt;stroke-linejoin:round;}
  </style>
 </defs>
 <g id="figure_1">
  <g id="patch_1">
   <path d="M 0 237.5 
L 399.6875 237.5 
L 399.6875 -0.474375 
L 0 -0.474375 
z
" style="fill:#f2f2f2;"/>
  </g>
  <g id="axes_1">
   <g id="patch_2">
    <path d="M 36.2875 167.83375 
L 180.2875 167.83375 
L 180.2875 23.83375 
L 36.2875 23.83375 
z
" style="fill:#ffffff;"/>
   </g>
   <g id="matplotlib.axis_1">
    <g id="xtick_1">
     <g id="line2d_1">
      <path clip-path="url(#pffca64f31a)" d="M 36.2875 167.83375 
L 36.2875 23.83375 
" style="fill:none;stroke:#000000;stroke-linecap:square;stroke-opacity:0.1;stroke-width:0.6;"/>
     </g>
     <g id="line2d_2">
      <defs>
       <path d="M 0 0 
L 0 4 
" id="m4757f740ec" style="stroke:#000000;stroke-width:0.6;"/>
      </defs>
      <g>
       <use style="stroke:#000000;stroke-width:0.6;" x="36.2875" xlink:href="#m4757f740ec" y="167.83375"/>
      </g>
     </g>
     <g id="text_1">
      <!-- 0 -->
      <defs>
       <path d="M 13.203125 34.90625 
Q 13.203125 37.5 13.25 40.640625 
Q 13.296875 43.796875 13.75 46.9375 
Q 14.203125 50.09375 15.046875 53.09375 
Q 15.90625 56.09375 17.546875 58.34375 
Q 19.203125 60.59375 21.703125 62 
Q 24.203125 63.40625 27.796875 63.40625 
Q 31.40625 63.40625 33.90625 62 
Q 36.40625 60.59375 38.046875 58.34375 
Q 39.703125 56.09375 40.546875 53.09375 
Q 41.40625 50.09375 41.84375 46.9375 
Q 42.296875 43.796875 42.34375 40.640625 
Q 42.40625 37.5 42.40625 34.90625 
Q 42.40625 30.90625 42.15625 25.953125 
Q 41.90625 21 40.546875 16.640625 
Q 39.203125 12.296875 36.203125 9.296875 
Q 33.203125 6.296875 27.796875 6.296875 
Q 22.40625 6.296875 19.40625 9.296875 
Q 16.40625 12.296875 15.046875 16.640625 
Q 13.703125 21 13.453125 25.953125 
Q 13.203125 30.90625 13.203125 34.90625 
z
M 4.203125 34.796875 
Q 4.203125 30.90625 4.390625 26.703125 
Q 4.59375 22.5 5.390625 18.5 
Q 6.203125 14.5 7.703125 10.953125 
Q 9.203125 7.40625 11.796875 4.703125 
Q 14.40625 2 18.34375 0.453125 
Q 22.296875 -1.09375 27.796875 -1.09375 
Q 33.40625 -1.09375 37.296875 0.453125 
Q 41.203125 2 43.796875 4.703125 
Q 46.40625 7.40625 47.90625 10.953125 
Q 49.40625 14.5 50.203125 18.5 
Q 51 22.5 51.203125 26.703125 
Q 51.40625 30.90625 51.40625 34.796875 
Q 51.40625 38.703125 51.203125 42.890625 
Q 51 47.09375 50.203125 51.09375 
Q 49.40625 55.09375 47.90625 58.6875 
Q 46.40625 62.296875 43.796875 65 
Q 41.203125 67.703125 37.25 69.296875 
Q 33.296875 70.90625 27.796875 70.90625 
Q 22.296875 70.90625 18.34375 69.296875 
Q 14.40625 67.703125 11.796875 65 
Q 9.203125 62.296875 7.703125 58.6875 
Q 6.203125 55.09375 5.390625 51.09375 
Q 4.59375 47.09375 4.390625 42.890625 
Q 4.203125 38.703125 4.203125 34.796875 
z
" id="HelveticaNeue-48"/>
      </defs>
      <g transform="translate(34.06375 179.54625)scale(0.08 -0.08)">
       <use xlink:href="#HelveticaNeue-48"/>
      </g>
     </g>
    </g>
    <g id="xtick_2">
     <g id="line2d_3">
      <path clip-path="url(#pffca64f31a)" d="M 74.182237 167.83375 
L 74.182237 23.83375 
" style="fill:none;stroke:#000000;stroke-linecap:square;stroke-opacity:0.1;stroke-width:0.6;"/>
     </g>
     <g id="line2d_4">
      <g>
       <use style="stroke:#000000;stroke-width:0.6;" x="74.182237" xlink:href="#m4757f740ec" y="167.83375"/>
      </g>
     </g>
     <g id="text_2">
      <!-- 5 -->
      <defs>
       <path d="M 47 62.203125 
L 47 69.703125 
L 12 69.703125 
L 5.40625 32.90625 
L 12.703125 32.5 
Q 15.203125 35.5 18.453125 37.34375 
Q 21.703125 39.203125 25.90625 39.203125 
Q 29.5 39.203125 32.453125 38 
Q 35.40625 36.796875 37.5 34.640625 
Q 39.59375 32.5 40.75 29.546875 
Q 41.90625 26.59375 41.90625 23.09375 
Q 41.90625 18.90625 40.703125 15.75 
Q 39.5 12.59375 37.453125 10.5 
Q 35.40625 8.40625 32.65625 7.34375 
Q 29.90625 6.296875 26.90625 6.296875 
Q 23.703125 6.296875 21.046875 7.25 
Q 18.40625 8.203125 16.453125 9.953125 
Q 14.5 11.703125 13.34375 14.046875 
Q 12.203125 16.40625 12 19.09375 
L 3.5 19.09375 
Q 3.59375 14.296875 5.390625 10.5 
Q 7.203125 6.703125 10.296875 4.140625 
Q 13.40625 1.59375 17.453125 0.25 
Q 21.5 -1.09375 26.09375 -1.09375 
Q 32.296875 -1.09375 36.9375 0.84375 
Q 41.59375 2.796875 44.6875 6.09375 
Q 47.796875 9.40625 49.34375 13.65625 
Q 50.90625 17.90625 50.90625 22.40625 
Q 50.90625 28.5 49.09375 33.046875 
Q 47.296875 37.59375 44.1875 40.640625 
Q 41.09375 43.703125 36.890625 45.203125 
Q 32.703125 46.703125 28 46.703125 
Q 24.40625 46.703125 20.75 45.453125 
Q 17.09375 44.203125 14.796875 41.59375 
L 14.59375 41.796875 
L 18.40625 62.203125 
z
" id="HelveticaNeue-53"/>
      </defs>
      <g transform="translate(71.958487 179.54625)scale(0.08 -0.08)">
       <use xlink:href="#HelveticaNeue-53"/>
      </g>
     </g>
    </g>
    <g id="xtick_3">
     <g id="line2d_5">
      <path clip-path="url(#pffca64f31a)" d="M 112.076974 167.83375 
L 112.076974 23.83375 
" style="fill:none;stroke:#000000;stroke-linecap:square;stroke-opacity:0.1;stroke-width:0.6;"/>
     </g>
     <g id="line2d_6">
      <g>
       <use style="stroke:#000000;stroke-width:0.6;" x="112.076974" xlink:href="#m4757f740ec" y="167.83375"/>
      </g>
     </g>
     <g id="text_3">
      <!-- 10 -->
      <defs>
       <path d="M 35.59375 0 
L 35.59375 70.90625 
L 29.09375 70.90625 
Q 28.40625 66.90625 26.5 64.296875 
Q 24.59375 61.703125 21.84375 60.203125 
Q 19.09375 58.703125 15.6875 58.140625 
Q 12.296875 57.59375 8.703125 57.59375 
L 8.703125 50.796875 
L 27.09375 50.796875 
L 27.09375 0 
z
" id="HelveticaNeue-49"/>
      </defs>
      <g transform="translate(107.629474 179.54625)scale(0.08 -0.08)">
       <use xlink:href="#HelveticaNeue-49"/>
       <use x="55.599991" xlink:href="#HelveticaNeue-48"/>
      </g>
     </g>
    </g>
    <g id="xtick_4">
     <g id="line2d_7">
      <path clip-path="url(#pffca64f31a)" d="M 149.971711 167.83375 
L 149.971711 23.83375 
" style="fill:none;stroke:#000000;stroke-linecap:square;stroke-opacity:0.1;stroke-width:0.6;"/>
     </g>
     <g id="line2d_8">
      <g>
       <use style="stroke:#000000;stroke-width:0.6;" x="149.971711" xlink:href="#m4757f740ec" y="167.83375"/>
      </g>
     </g>
     <g id="text_4">
      <!-- 15 -->
      <g transform="translate(145.524211 179.54625)scale(0.08 -0.08)">
       <use xlink:href="#HelveticaNeue-49"/>
       <use x="55.599991" xlink:href="#HelveticaNeue-53"/>
      </g>
     </g>
    </g>
    <g id="xtick_5">
     <g id="line2d_9">
      <defs>
       <path d="M 0 0 
L 0 2 
" id="mb779d9ca85" style="stroke:#000000;stroke-width:0.48;"/>
      </defs>
      <g>
       <use style="stroke:#000000;stroke-width:0.48;" x="43.866447" xlink:href="#mb779d9ca85" y="167.83375"/>
      </g>
     </g>
    </g>
    <g id="xtick_6">
     <g id="line2d_10">
      <g>
       <use style="stroke:#000000;stroke-width:0.48;" x="51.445395" xlink:href="#mb779d9ca85" y="167.83375"/>
      </g>
     </g>
    </g>
    <g id="xtick_7">
     <g id="line2d_11">
      <g>
       <use style="stroke:#000000;stroke-width:0.48;" x="59.024342" xlink:href="#mb779d9ca85" y="167.83375"/>
      </g>
     </g>
    </g>
    <g id="xtick_8">
     <g id="line2d_12">
      <g>
       <use style="stroke:#000000;stroke-width:0.48;" x="66.603289" xlink:href="#mb779d9ca85" y="167.83375"/>
      </g>
     </g>
    </g>
    <g id="xtick_9">
     <g id="line2d_13">
      <g>
       <use style="stroke:#000000;stroke-width:0.48;" x="81.761184" xlink:href="#mb779d9ca85" y="167.83375"/>
      </g>
     </g>
    </g>
    <g id="xtick_10">
     <g id="line2d_14">
      <g>
       <use style="stroke:#000000;stroke-width:0.48;" x="89.340132" xlink:href="#mb779d9ca85" y="167.83375"/>
      </g>
     </g>
    </g>
    <g id="xtick_11">
     <g id="line2d_15">
      <g>
       <use style="stroke:#000000;stroke-width:0.48;" x="96.919079" xlink:href="#mb779d9ca85" y="167.83375"/>
      </g>
     </g>
    </g>
    <g id="xtick_12">
     <g id="line2d_16">
      <g>
       <use style="stroke:#000000;stroke-width:0.48;" x="104.498026" xlink:href="#mb779d9ca85" y="167.83375"/>
      </g>
     </g>
    </g>
    <g id="xtick_13">
     <g id="line2d_17">
      <g>
       <use style="stroke:#000000;stroke-width:0.48;" x="119.655921" xlink:href="#mb779d9ca85" y="167.83375"/>
      </g>
     </g>
    </g>
    <g id="xtick_14">
     <g id="line2d_18">
      <g>
       <use style="stroke:#000000;stroke-width:0.48;" x="127.234868" xlink:href="#mb779d9ca85" y="167.83375"/>
      </g>
     </g>
    </g>
    <g id="xtick_15">
     <g id="line2d_19">
      <g>
       <use style="stroke:#000000;stroke-width:0.48;" x="134.813816" xlink:href="#mb779d9ca85" y="167.83375"/>
      </g>
     </g>
    </g>
    <g id="xtick_16">
     <g id="line2d_20">
      <g>
       <use style="stroke:#000000;stroke-width:0.48;" x="142.392763" xlink:href="#mb779d9ca85" y="167.83375"/>
      </g>
     </g>
    </g>
    <g id="xtick_17">
     <g id="line2d_21">
      <g>
       <use style="stroke:#000000;stroke-width:0.48;" x="157.550658" xlink:href="#mb779d9ca85" y="167.83375"/>
      </g>
     </g>
    </g>
    <g id="xtick_18">
     <g id="line2d_22">
      <g>
       <use style="stroke:#000000;stroke-width:0.48;" x="165.129605" xlink:href="#mb779d9ca85" y="167.83375"/>
      </g>
     </g>
    </g>
    <g id="xtick_19">
     <g id="line2d_23">
      <g>
       <use style="stroke:#000000;stroke-width:0.48;" x="172.708553" xlink:href="#mb779d9ca85" y="167.83375"/>
      </g>
     </g>
    </g>
    <g id="xtick_20">
     <g id="line2d_24">
      <g>
       <use style="stroke:#000000;stroke-width:0.48;" x="180.2875" xlink:href="#mb779d9ca85" y="167.83375"/>
      </g>
     </g>
    </g>
    <g id="text_5">
     <!-- xlabel -->
     <defs>
      <path d="M 20.296875 27.203125 
L 0.90625 0 
L 11.203125 0 
L 25.59375 21.40625 
L 40 0 
L 50.90625 0 
L 30.90625 27.90625 
L 48.703125 51.703125 
L 38.5 51.703125 
L 25.59375 33.59375 
L 13.203125 51.703125 
L 2.296875 51.703125 
z
" id="HelveticaNeue-120"/>
      <path d="M 6.90625 71.40625 
L 6.90625 0 
L 15.40625 0 
L 15.40625 71.40625 
z
" id="HelveticaNeue-108"/>
      <path d="M 52.203125 0.203125 
Q 50 -1.09375 46.09375 -1.09375 
Q 42.796875 -1.09375 40.84375 0.75 
Q 38.90625 2.59375 38.90625 6.796875 
Q 35.40625 2.59375 30.75 0.75 
Q 26.09375 -1.09375 20.703125 -1.09375 
Q 17.203125 -1.09375 14.046875 -0.296875 
Q 10.90625 0.5 8.59375 2.203125 
Q 6.296875 3.90625 4.9375 6.65625 
Q 3.59375 9.40625 3.59375 13.296875 
Q 3.59375 17.703125 5.09375 20.5 
Q 6.59375 23.296875 9.046875 25.046875 
Q 11.5 26.796875 14.640625 27.6875 
Q 17.796875 28.59375 21.09375 29.203125 
Q 24.59375 29.90625 27.75 30.25 
Q 30.90625 30.59375 33.296875 31.25 
Q 35.703125 31.90625 37.09375 33.15625 
Q 38.5 34.40625 38.5 36.796875 
Q 38.5 39.59375 37.453125 41.296875 
Q 36.40625 43 34.75 43.890625 
Q 33.09375 44.796875 31.046875 45.09375 
Q 29 45.40625 27 45.40625 
Q 21.59375 45.40625 18 43.34375 
Q 14.40625 41.296875 14.09375 35.59375 
L 5.59375 35.59375 
Q 5.796875 40.40625 7.59375 43.703125 
Q 9.40625 47 12.40625 49.046875 
Q 15.40625 51.09375 19.25 52 
Q 23.09375 52.90625 27.5 52.90625 
Q 31 52.90625 34.453125 52.40625 
Q 37.90625 51.90625 40.703125 50.34375 
Q 43.5 48.796875 45.203125 46 
Q 46.90625 43.203125 46.90625 38.703125 
L 46.90625 12.09375 
Q 46.90625 9.09375 47.25 7.6875 
Q 47.59375 6.296875 49.59375 6.296875 
Q 50.703125 6.296875 52.203125 6.796875 
z
M 38.40625 26.703125 
Q 36.796875 25.5 34.1875 24.953125 
Q 31.59375 24.40625 28.75 24.046875 
Q 25.90625 23.703125 23 23.25 
Q 20.09375 22.796875 17.796875 21.796875 
Q 15.5 20.796875 14.046875 18.9375 
Q 12.59375 17.09375 12.59375 13.90625 
Q 12.59375 11.796875 13.4375 10.34375 
Q 14.296875 8.90625 15.640625 8 
Q 17 7.09375 18.796875 6.6875 
Q 20.59375 6.296875 22.59375 6.296875 
Q 26.796875 6.296875 29.796875 7.4375 
Q 32.796875 8.59375 34.6875 10.34375 
Q 36.59375 12.09375 37.5 14.140625 
Q 38.40625 16.203125 38.40625 18 
z
" id="HelveticaNeue-97"/>
      <path d="M 6.703125 71.40625 
L 6.703125 0 
L 15.203125 0 
L 15.203125 6.90625 
L 15.40625 6.90625 
Q 16.796875 4.59375 18.84375 3.046875 
Q 20.90625 1.5 23.203125 0.59375 
Q 25.5 -0.296875 27.84375 -0.6875 
Q 30.203125 -1.09375 32.09375 -1.09375 
Q 38 -1.09375 42.453125 1 
Q 46.90625 3.09375 49.84375 6.75 
Q 52.796875 10.40625 54.25 15.296875 
Q 55.703125 20.203125 55.703125 25.703125 
Q 55.703125 31.203125 54.203125 36.09375 
Q 52.703125 41 49.75 44.75 
Q 46.796875 48.5 42.34375 50.703125 
Q 37.90625 52.90625 31.90625 52.90625 
Q 26.5 52.90625 22 50.953125 
Q 17.5 49 15.40625 44.703125 
L 15.203125 44.703125 
L 15.203125 71.40625 
z
M 46.703125 26.296875 
Q 46.703125 22.5 45.890625 18.890625 
Q 45.09375 15.296875 43.296875 12.5 
Q 41.5 9.703125 38.546875 8 
Q 35.59375 6.296875 31.203125 6.296875 
Q 26.796875 6.296875 23.6875 7.9375 
Q 20.59375 9.59375 18.640625 12.296875 
Q 16.703125 15 15.796875 18.546875 
Q 14.90625 22.09375 14.90625 25.90625 
Q 14.90625 29.5 15.75 33 
Q 16.59375 36.5 18.5 39.25 
Q 20.40625 42 23.40625 43.703125 
Q 26.40625 45.40625 30.703125 45.40625 
Q 34.796875 45.40625 37.84375 43.796875 
Q 40.90625 42.203125 42.84375 39.5 
Q 44.796875 36.796875 45.75 33.34375 
Q 46.703125 29.90625 46.703125 26.296875 
z
" id="HelveticaNeue-98"/>
      <path d="M 42.296875 30.796875 
L 12.59375 30.796875 
Q 12.796875 33.796875 13.890625 36.4375 
Q 15 39.09375 16.890625 41.09375 
Q 18.796875 43.09375 21.4375 44.25 
Q 24.09375 45.40625 27.40625 45.40625 
Q 30.59375 45.40625 33.25 44.25 
Q 35.90625 43.09375 37.84375 41.140625 
Q 39.796875 39.203125 40.9375 36.5 
Q 42.09375 33.796875 42.296875 30.796875 
z
M 50.5 16.40625 
L 42.09375 16.40625 
Q 41 11.296875 37.546875 8.796875 
Q 34.09375 6.296875 28.703125 6.296875 
Q 24.5 6.296875 21.390625 7.6875 
Q 18.296875 9.09375 16.296875 11.4375 
Q 14.296875 13.796875 13.390625 16.84375 
Q 12.5 19.90625 12.59375 23.296875 
L 51.296875 23.296875 
Q 51.5 28 50.453125 33.203125 
Q 49.40625 38.40625 46.65625 42.796875 
Q 43.90625 47.203125 39.34375 50.046875 
Q 34.796875 52.90625 27.90625 52.90625 
Q 22.59375 52.90625 18.140625 50.90625 
Q 13.703125 48.90625 10.453125 45.296875 
Q 7.203125 41.703125 5.390625 36.796875 
Q 3.59375 31.90625 3.59375 26 
Q 3.796875 20.09375 5.34375 15.09375 
Q 6.90625 10.09375 10 6.5 
Q 13.09375 2.90625 17.640625 0.90625 
Q 22.203125 -1.09375 28.40625 -1.09375 
Q 37.203125 -1.09375 43 3.296875 
Q 48.796875 7.703125 50.5 16.40625 
z
" id="HelveticaNeue-101"/>
     </defs>
     <g transform="translate(97.77125 189.835)scale(0.08 -0.08)">
      <use xlink:href="#HelveticaNeue-120"/>
      <use x="51.799988" xlink:href="#HelveticaNeue-108"/>
      <use x="73.999985" xlink:href="#HelveticaNeue-97"/>
      <use x="127.699982" xlink:href="#HelveticaNeue-98"/>
      <use x="186.999969" xlink:href="#HelveticaNeue-101"/>
      <use x="240.699966" xlink:href="#HelveticaNeue-108"/>
     </g>
    </g>
   </g>
   <g id="matplotlib.axis_2">
    <g id="ytick_1">
     <g id="line2d_25">
      <path clip-path="url(#pffca64f31a)" d="M 36.2875 149.101329 
L 180.2875 149.101329 
" style="fill:none;stroke:#000000;stroke-linecap:square;stroke-opacity:0.1;stroke-width:0.6;"/>
     </g>
     <g id="line2d_26">
      <defs>
       <path d="M 0 0 
L -4 0 
" id="mdf9c5de2ab" style="stroke:#000000;stroke-width:0.6;"/>
      </defs>
      <g>
       <use style="stroke:#000000;stroke-width:0.6;" x="36.2875" xlink:href="#mdf9c5de2ab" y="149.101329"/>
      </g>
     </g>
     <g id="text_6">
      <!-- −0.5 -->
      <defs>
       <path d="M 4.796875 28.703125 
L 4.796875 21.90625 
L 55.203125 21.90625 
L 55.203125 28.703125 
z
" id="HelveticaNeue-8722"/>
       <path d="M 8.296875 11.09375 
L 8.296875 0 
L 19.40625 0 
L 19.40625 11.09375 
z
" id="HelveticaNeue-46"/>
      </defs>
      <g transform="translate(14.36875 151.957579)scale(0.08 -0.08)">
       <use xlink:href="#HelveticaNeue-8722"/>
       <use x="59.999985" xlink:href="#HelveticaNeue-48"/>
       <use x="115.599976" xlink:href="#HelveticaNeue-46"/>
       <use x="143.399963" xlink:href="#HelveticaNeue-53"/>
      </g>
     </g>
    </g>
    <g id="ytick_2">
     <g id="line2d_27">
      <path clip-path="url(#pffca64f31a)" d="M 36.2875 130.212605 
L 180.2875 130.212605 
" style="fill:none;stroke:#000000;stroke-linecap:square;stroke-opacity:0.1;stroke-width:0.6;"/>
     </g>
     <g id="line2d_28">
      <g>
       <use style="stroke:#000000;stroke-width:0.6;" x="36.2875" xlink:href="#mdf9c5de2ab" y="130.212605"/>
      </g>
     </g>
     <g id="text_7">
      <!-- 0 -->
      <g transform="translate(25.84 133.068855)scale(0.08 -0.08)">
       <use xlink:href="#HelveticaNeue-48"/>
      </g>
     </g>
    </g>
    <g id="ytick_3">
     <g id="line2d_29">
      <path clip-path="url(#pffca64f31a)" d="M 36.2875 111.323881 
L 180.2875 111.323881 
" style="fill:none;stroke:#000000;stroke-linecap:square;stroke-opacity:0.1;stroke-width:0.6;"/>
     </g>
     <g id="line2d_30">
      <g>
       <use style="stroke:#000000;stroke-width:0.6;" x="36.2875" xlink:href="#mdf9c5de2ab" y="111.323881"/>
      </g>
     </g>
     <g id="text_8">
      <!-- 0.5 -->
      <g transform="translate(19.16875 114.180131)scale(0.08 -0.08)">
       <use xlink:href="#HelveticaNeue-48"/>
       <use x="55.599991" xlink:href="#HelveticaNeue-46"/>
       <use x="83.399979" xlink:href="#HelveticaNeue-53"/>
      </g>
     </g>
    </g>
    <g id="ytick_4">
     <g id="line2d_31">
      <path clip-path="url(#pffca64f31a)" d="M 36.2875 92.435157 
L 180.2875 92.435157 
" style="fill:none;stroke:#000000;stroke-linecap:square;stroke-opacity:0.1;stroke-width:0.6;"/>
     </g>
     <g id="line2d_32">
      <g>
       <use style="stroke:#000000;stroke-width:0.6;" x="36.2875" xlink:href="#mdf9c5de2ab" y="92.435157"/>
      </g>
     </g>
     <g id="text_9">
      <!-- 1 -->
      <g transform="translate(25.84 95.291407)scale(0.08 -0.08)">
       <use xlink:href="#HelveticaNeue-49"/>
      </g>
     </g>
    </g>
    <g id="ytick_5">
     <g id="line2d_33">
      <path clip-path="url(#pffca64f31a)" d="M 36.2875 73.546434 
L 180.2875 73.546434 
" style="fill:none;stroke:#000000;stroke-linecap:square;stroke-opacity:0.1;stroke-width:0.6;"/>
     </g>
     <g id="line2d_34">
      <g>
       <use style="stroke:#000000;stroke-width:0.6;" x="36.2875" xlink:href="#mdf9c5de2ab" y="73.546434"/>
      </g>
     </g>
     <g id="text_10">
      <!-- 1.5 -->
      <g transform="translate(19.16875 76.402684)scale(0.08 -0.08)">
       <use xlink:href="#HelveticaNeue-49"/>
       <use x="55.599991" xlink:href="#HelveticaNeue-46"/>
       <use x="83.399979" xlink:href="#HelveticaNeue-53"/>
      </g>
     </g>
    </g>
    <g id="ytick_6">
     <g id="line2d_35">
      <path clip-path="url(#pffca64f31a)" d="M 36.2875 54.65771 
L 180.2875 54.65771 
" style="fill:none;stroke:#000000;stroke-linecap:square;stroke-opacity:0.1;stroke-width:0.6;"/>
     </g>
     <g id="line2d_36">
      <g>
       <use style="stroke:#000000;stroke-width:0.6;" x="36.2875" xlink:href="#mdf9c5de2ab" y="54.65771"/>
      </g>
     </g>
     <g id="text_11">
      <!-- 2 -->
      <defs>
       <path d="M 4.40625 45.796875 
L 12.90625 45.796875 
Q 12.796875 49 13.546875 52.140625 
Q 14.296875 55.296875 16 57.796875 
Q 17.703125 60.296875 20.34375 61.84375 
Q 23 63.40625 26.703125 63.40625 
Q 29.5 63.40625 32 62.5 
Q 34.5 61.59375 36.34375 59.890625 
Q 38.203125 58.203125 39.296875 55.84375 
Q 40.40625 53.5 40.40625 50.59375 
Q 40.40625 46.90625 39.25 44.09375 
Q 38.09375 41.296875 35.84375 38.890625 
Q 33.59375 36.5 30.1875 34.140625 
Q 26.796875 31.796875 22.296875 29 
Q 18.59375 26.796875 15.1875 24.296875 
Q 11.796875 21.796875 9.09375 18.5 
Q 6.40625 15.203125 4.65625 10.75 
Q 2.90625 6.296875 2.40625 0 
L 48.703125 0 
L 48.703125 7.5 
L 12.296875 7.5 
Q 12.90625 10.796875 14.84375 13.34375 
Q 16.796875 15.90625 19.546875 18.09375 
Q 22.296875 20.296875 25.59375 22.25 
Q 28.90625 24.203125 32.203125 26.203125 
Q 35.5 28.296875 38.59375 30.59375 
Q 41.703125 32.90625 44.09375 35.75 
Q 46.5 38.59375 47.953125 42.1875 
Q 49.40625 45.796875 49.40625 50.5 
Q 49.40625 55.5 47.65625 59.296875 
Q 45.90625 63.09375 42.90625 65.640625 
Q 39.90625 68.203125 35.84375 69.546875 
Q 31.796875 70.90625 27.203125 70.90625 
Q 21.59375 70.90625 17.1875 69 
Q 12.796875 67.09375 9.84375 63.75 
Q 6.90625 60.40625 5.5 55.796875 
Q 4.09375 51.203125 4.40625 45.796875 
z
" id="HelveticaNeue-50"/>
      </defs>
      <g transform="translate(25.84 57.51396)scale(0.08 -0.08)">
       <use xlink:href="#HelveticaNeue-50"/>
      </g>
     </g>
    </g>
    <g id="ytick_7">
     <g id="line2d_37">
      <path clip-path="url(#pffca64f31a)" d="M 36.2875 35.768986 
L 180.2875 35.768986 
" style="fill:none;stroke:#000000;stroke-linecap:square;stroke-opacity:0.1;stroke-width:0.6;"/>
     </g>
     <g id="line2d_38">
      <g>
       <use style="stroke:#000000;stroke-width:0.6;" x="36.2875" xlink:href="#mdf9c5de2ab" y="35.768986"/>
      </g>
     </g>
     <g id="text_12">
      <!-- 2.5 -->
      <g transform="translate(19.16875 38.625236)scale(0.08 -0.08)">
       <use xlink:href="#HelveticaNeue-50"/>
       <use x="55.599991" xlink:href="#HelveticaNeue-46"/>
       <use x="83.399979" xlink:href="#HelveticaNeue-53"/>
      </g>
     </g>
    </g>
    <g id="ytick_8">
     <g id="line2d_39">
      <defs>
       <path d="M 0 0 
L -2 0 
" id="m0382b315d0" style="stroke:#000000;stroke-width:0.48;"/>
      </defs>
      <g>
       <use style="stroke:#000000;stroke-width:0.48;" x="36.2875" xlink:href="#m0382b315d0" y="164.212308"/>
      </g>
     </g>
    </g>
    <g id="ytick_9">
     <g id="line2d_40">
      <g>
       <use style="stroke:#000000;stroke-width:0.48;" x="36.2875" xlink:href="#m0382b315d0" y="160.434563"/>
      </g>
     </g>
    </g>
    <g id="ytick_10">
     <g id="line2d_41">
      <g>
       <use style="stroke:#000000;stroke-width:0.48;" x="36.2875" xlink:href="#m0382b315d0" y="156.656818"/>
      </g>
     </g>
    </g>
    <g id="ytick_11">
     <g id="line2d_42">
      <g>
       <use style="stroke:#000000;stroke-width:0.48;" x="36.2875" xlink:href="#m0382b315d0" y="152.879073"/>
      </g>
     </g>
    </g>
    <g id="ytick_12">
     <g id="line2d_43">
      <g>
       <use style="stroke:#000000;stroke-width:0.48;" x="36.2875" xlink:href="#m0382b315d0" y="145.323584"/>
      </g>
     </g>
    </g>
    <g id="ytick_13">
     <g id="line2d_44">
      <g>
       <use style="stroke:#000000;stroke-width:0.48;" x="36.2875" xlink:href="#m0382b315d0" y="141.545839"/>
      </g>
     </g>
    </g>
    <g id="ytick_14">
     <g id="line2d_45">
      <g>
       <use style="stroke:#000000;stroke-width:0.48;" x="36.2875" xlink:href="#m0382b315d0" y="137.768094"/>
      </g>
     </g>
    </g>
    <g id="ytick_15">
     <g id="line2d_46">
      <g>
       <use style="stroke:#000000;stroke-width:0.48;" x="36.2875" xlink:href="#m0382b315d0" y="133.99035"/>
      </g>
     </g>
    </g>
    <g id="ytick_16">
     <g id="line2d_47">
      <g>
       <use style="stroke:#000000;stroke-width:0.48;" x="36.2875" xlink:href="#m0382b315d0" y="126.43486"/>
      </g>
     </g>
    </g>
    <g id="ytick_17">
     <g id="line2d_48">
      <g>
       <use style="stroke:#000000;stroke-width:0.48;" x="36.2875" xlink:href="#m0382b315d0" y="122.657115"/>
      </g>
     </g>
    </g>
    <g id="ytick_18">
     <g id="line2d_49">
      <g>
       <use style="stroke:#000000;stroke-width:0.48;" x="36.2875" xlink:href="#m0382b315d0" y="118.879371"/>
      </g>
     </g>
    </g>
    <g id="ytick_19">
     <g id="line2d_50">
      <g>
       <use style="stroke:#000000;stroke-width:0.48;" x="36.2875" xlink:href="#m0382b315d0" y="115.101626"/>
      </g>
     </g>
    </g>
    <g id="ytick_20">
     <g id="line2d_51">
      <g>
       <use style="stroke:#000000;stroke-width:0.48;" x="36.2875" xlink:href="#m0382b315d0" y="107.546136"/>
      </g>
     </g>
    </g>
    <g id="ytick_21">
     <g id="line2d_52">
      <g>
       <use style="stroke:#000000;stroke-width:0.48;" x="36.2875" xlink:href="#m0382b315d0" y="103.768392"/>
      </g>
     </g>
    </g>
    <g id="ytick_22">
     <g id="line2d_53">
      <g>
       <use style="stroke:#000000;stroke-width:0.48;" x="36.2875" xlink:href="#m0382b315d0" y="99.990647"/>
      </g>
     </g>
    </g>
    <g id="ytick_23">
     <g id="line2d_54">
      <g>
       <use style="stroke:#000000;stroke-width:0.48;" x="36.2875" xlink:href="#m0382b315d0" y="96.212902"/>
      </g>
     </g>
    </g>
    <g id="ytick_24">
     <g id="line2d_55">
      <g>
       <use style="stroke:#000000;stroke-width:0.48;" x="36.2875" xlink:href="#m0382b315d0" y="88.657413"/>
      </g>
     </g>
    </g>
    <g id="ytick_25">
     <g id="line2d_56">
      <g>
       <use style="stroke:#000000;stroke-width:0.48;" x="36.2875" xlink:href="#m0382b315d0" y="84.879668"/>
      </g>
     </g>
    </g>
    <g id="ytick_26">
     <g id="line2d_57">
      <g>
       <use style="stroke:#000000;stroke-width:0.48;" x="36.2875" xlink:href="#m0382b315d0" y="81.101923"/>
      </g>
     </g>
    </g>
    <g id="ytick_27">
     <g id="line2d_58">
      <g>
       <use style="stroke:#000000;stroke-width:0.48;" x="36.2875" xlink:href="#m0382b315d0" y="77.324178"/>
      </g>
     </g>
    </g>
    <g id="ytick_28">
     <g id="line2d_59">
      <g>
       <use style="stroke:#000000;stroke-width:0.48;" x="36.2875" xlink:href="#m0382b315d0" y="69.768689"/>
      </g>
     </g>
    </g>
    <g id="ytick_29">
     <g id="line2d_60">
      <g>
       <use style="stroke:#000000;stroke-width:0.48;" x="36.2875" xlink:href="#m0382b315d0" y="65.990944"/>
      </g>
     </g>
    </g>
    <g id="ytick_30">
     <g id="line2d_61">
      <g>
       <use style="stroke:#000000;stroke-width:0.48;" x="36.2875" xlink:href="#m0382b315d0" y="62.213199"/>
      </g>
     </g>
    </g>
    <g id="ytick_31">
     <g id="line2d_62">
      <g>
       <use style="stroke:#000000;stroke-width:0.48;" x="36.2875" xlink:href="#m0382b315d0" y="58.435455"/>
      </g>
     </g>
    </g>
    <g id="ytick_32">
     <g id="line2d_63">
      <g>
       <use style="stroke:#000000;stroke-width:0.48;" x="36.2875" xlink:href="#m0382b315d0" y="50.879965"/>
      </g>
     </g>
    </g>
    <g id="ytick_33">
     <g id="line2d_64">
      <g>
       <use style="stroke:#000000;stroke-width:0.48;" x="36.2875" xlink:href="#m0382b315d0" y="47.10222"/>
      </g>
     </g>
    </g>
    <g id="ytick_34">
     <g id="line2d_65">
      <g>
       <use style="stroke:#000000;stroke-width:0.48;" x="36.2875" xlink:href="#m0382b315d0" y="43.324476"/>
      </g>
     </g>
    </g>
    <g id="ytick_35">
     <g id="line2d_66">
      <g>
       <use style="stroke:#000000;stroke-width:0.48;" x="36.2875" xlink:href="#m0382b315d0" y="39.546731"/>
      </g>
     </g>
    </g>
    <g id="ytick_36">
     <g id="line2d_67">
      <g>
       <use style="stroke:#000000;stroke-width:0.48;" x="36.2875" xlink:href="#m0382b315d0" y="31.991241"/>
      </g>
     </g>
    </g>
    <g id="ytick_37">
     <g id="line2d_68">
      <g>
       <use style="stroke:#000000;stroke-width:0.48;" x="36.2875" xlink:href="#m0382b315d0" y="28.213497"/>
      </g>
     </g>
    </g>
    <g id="ytick_38">
     <g id="line2d_69">
      <g>
       <use style="stroke:#000000;stroke-width:0.48;" x="36.2875" xlink:href="#m0382b315d0" y="24.435752"/>
      </g>
     </g>
    </g>
    <g id="text_13">
     <!-- ylabel -->
     <defs>
      <path d="M 26.703125 -6.90625 
Q 25.203125 -10.703125 23.75 -13.296875 
Q 22.296875 -15.90625 20.546875 -17.546875 
Q 18.796875 -19.203125 16.640625 -19.953125 
Q 14.5 -20.703125 11.703125 -20.703125 
Q 10.203125 -20.703125 8.703125 -20.5 
Q 7.203125 -20.296875 5.796875 -19.796875 
L 5.796875 -12 
Q 6.90625 -12.5 8.34375 -12.84375 
Q 9.796875 -13.203125 10.796875 -13.203125 
Q 13.40625 -13.203125 15.15625 -11.953125 
Q 16.90625 -10.703125 17.796875 -8.40625 
L 21.296875 0.296875 
L 0.796875 51.703125 
L 10.40625 51.703125 
L 25.5 9.40625 
L 25.703125 9.40625 
L 40.203125 51.703125 
L 49.203125 51.703125 
z
" id="HelveticaNeue-121"/>
     </defs>
     <g transform="translate(9.7125 106.278125)rotate(-90)scale(0.08 -0.08)">
      <use xlink:href="#HelveticaNeue-121"/>
      <use x="49.999985" xlink:href="#HelveticaNeue-108"/>
      <use x="72.199982" xlink:href="#HelveticaNeue-97"/>
      <use x="125.899979" xlink:href="#HelveticaNeue-98"/>
      <use x="185.199966" xlink:href="#HelveticaNeue-101"/>
      <use x="238.899963" xlink:href="#HelveticaNeue-108"/>
     </g>
    </g>
   </g>
   <g id="line2d_70">
    <path clip-path="url(#pffca64f31a)" d="M 36.2875 130.555313 
L 43.866447 145.084624 
L 51.445395 157.384392 
L 59.024342 151.45314 
L 66.603289 167.83375 
L 74.182237 151.554238 
L 81.761184 133.543724 
L 89.340132 125.548213 
L 96.919079 127.763741 
L 104.498026 135.086769 
L 112.076974 124.253677 
L 119.655921 118.906682 
L 127.234868 102.104147 
L 134.813816 109.551637 
L 142.392763 119.869745 
L 149.971711 100.088729 
L 157.550658 114.754984 
L 165.129605 94.72993 
L 172.708553 102.799817 
L 180.2875 113.968973 
" style="fill:none;stroke:#2b4162;stroke-linecap:square;stroke-width:4;"/>
   </g>
   <g id="line2d_71">
    <path clip-path="url(#pffca64f31a)" d="M 36.2875 138.005623 
L 43.866447 123.67299 
L 51.445395 113.398613 
L 59.024342 127.950972 
L 66.603289 110.184804 
L 74.182237 111.158087 
L 81.761184 92.963975 
L 89.340132 101.456259 
L 96.919079 105.334207 
L 104.498026 91.836186 
L 112.076974 102.445722 
L 119.655921 86.430376 
L 127.234868 73.3181 
L 134.813816 80.1897 
L 142.392763 75.711255 
L 149.971711 65.372345 
L 157.550658 56.200666 
L 165.129605 52.490512 
L 172.708553 37.735867 
L 180.2875 23.83375 
" style="fill:none;stroke:#fa9f42;stroke-linecap:square;stroke-width:4;"/>
   </g>
   <g id="line2d_72">
    <path clip-path="url(#pffca64f31a)" d="M 36.2875 114.401622 
L 43.866447 124.72374 
L 51.445395 123.622652 
L 59.024342 132.601755 
L 66.603289 117.812361 
L 74.182237 117.26035 
L 81.761184 134.18803 
L 89.340132 123.138598 
L 96.919079 118.686553 
L 104.498026 132.019709 
L 112.076974 125.073667 
L 119.655921 108.459899 
L 127.234868 94.457064 
L 134.813816 108.515952 
L 142.392763 120.001432 
L 149.971711 107.54282 
L 157.550658 108.822396 
L 165.129605 94.642141 
L 172.708553 88.594955 
L 180.2875 94.779957 
" style="fill:none;stroke:#e0e0e2;stroke-linecap:square;stroke-width:4;"/>
   </g>
   <g id="line2d_73">
    <path clip-path="url(#pffca64f31a)" d="M 36.2875 121.9131 
L 43.866447 132.170003 
L 51.445395 129.700173 
L 59.024342 129.724186 
L 66.603289 121.260741 
L 74.182237 135.273348 
L 81.761184 130.32549 
L 89.340132 146.32127 
L 96.919079 139.706282 
L 104.498026 127.234652 
L 112.076974 117.416194 
L 119.655921 98.30405 
L 127.234868 87.631449 
L 134.813816 92.231599 
L 142.392763 102.602271 
L 149.971711 97.314367 
L 157.550658 78.22253 
L 165.129605 67.948254 
L 172.708553 63.472337 
L 180.2875 67.521616 
" style="fill:none;stroke:#a21817;stroke-linecap:square;stroke-width:4;"/>
   </g>
   <g id="line2d_74">
    <path clip-path="url(#pffca64f31a)" d="M 36.2875 140.28598 
L 43.866447 130.913188 
L 51.445395 113.338023 
L 59.024342 100.185669 
L 66.603289 90.798892 
L 74.182237 94.429758 
L 81.761184 95.363228 
L 89.340132 79.743527 
L 96.919079 79.010361 
L 104.498026 69.942272 
L 112.076974 65.645149 
L 119.655921 73.231578 
L 127.234868 63.989458 
L 134.813816 54.240061 
L 142.392763 52.851851 
L 149.971711 37.491559 
L 157.550658 40.195066 
L 165.129605 47.535916 
L 172.708553 63.917103 
L 180.2875 54.90875 
" style="fill:none;stroke:#0b6e4f;stroke-linecap:square;stroke-width:4;"/>
   </g>
   <g id="patch_3">
    <path d="M 36.2875 167.83375 
L 36.2875 23.83375 
" style="fill:none;stroke:#000000;stroke-linecap:square;stroke-linejoin:miter;stroke-width:0.6;"/>
   </g>
   <g id="patch_4">
    <path d="M 180.2875 167.83375 
L 180.2875 23.83375 
" style="fill:none;stroke:#000000;stroke-linecap:square;stroke-linejoin:miter;stroke-width:0.6;"/>
   </g>
   <g id="patch_5">
    <path d="M 36.2875 167.83375 
L 180.2875 167.83375 
" style="fill:none;stroke:#000000;stroke-linecap:square;stroke-linejoin:miter;stroke-width:0.6;"/>
   </g>
   <g id="patch_6">
    <path d="M 36.2875 23.83375 
L 180.2875 23.83375 
" style="fill:none;stroke:#000000;stroke-linecap:square;stroke-linejoin:miter;stroke-width:0.6;"/>
   </g>
   <g id="text_14">
    <!-- a -->
    <defs>
     <path d="M 4.796875 35.796875 
Q 5.09375 40.796875 7.296875 44.09375 
Q 9.5 47.40625 12.890625 49.40625 
Q 16.296875 51.40625 20.546875 52.25 
Q 24.796875 53.09375 29.09375 53.09375 
Q 33 53.09375 37 52.546875 
Q 41 52 44.296875 50.390625 
Q 47.59375 48.796875 49.6875 45.9375 
Q 51.796875 43.09375 51.796875 38.40625 
L 51.796875 11.5 
Q 51.796875 8 52.1875 4.796875 
Q 52.59375 1.59375 53.59375 0 
L 39.203125 0 
Q 38.796875 1.203125 38.546875 2.453125 
Q 38.296875 3.703125 38.203125 5 
Q 34.796875 1.5 30.1875 0.09375 
Q 25.59375 -1.296875 20.796875 -1.296875 
Q 17.09375 -1.296875 13.890625 -0.390625 
Q 10.703125 0.5 8.296875 2.390625 
Q 5.90625 4.296875 4.546875 7.1875 
Q 3.203125 10.09375 3.203125 14.09375 
Q 3.203125 18.5 4.75 21.34375 
Q 6.296875 24.203125 8.75 25.890625 
Q 11.203125 27.59375 14.34375 28.4375 
Q 17.5 29.296875 20.703125 29.796875 
Q 23.90625 30.296875 27 30.59375 
Q 30.09375 30.90625 32.5 31.5 
Q 34.90625 32.09375 36.296875 33.25 
Q 37.703125 34.40625 37.59375 36.59375 
Q 37.59375 38.90625 36.84375 40.25 
Q 36.09375 41.59375 34.84375 42.34375 
Q 33.59375 43.09375 31.9375 43.34375 
Q 30.296875 43.59375 28.40625 43.59375 
Q 24.203125 43.59375 21.796875 41.796875 
Q 19.40625 40 19 35.796875 
z
M 37.59375 25.296875 
Q 36.703125 24.5 35.34375 24.046875 
Q 34 23.59375 32.453125 23.296875 
Q 30.90625 23 29.203125 22.796875 
Q 27.5 22.59375 25.796875 22.296875 
Q 24.203125 22 22.640625 21.5 
Q 21.09375 21 19.9375 20.140625 
Q 18.796875 19.296875 18.09375 18 
Q 17.40625 16.703125 17.40625 14.703125 
Q 17.40625 12.796875 18.09375 11.5 
Q 18.796875 10.203125 20 9.453125 
Q 21.203125 8.703125 22.796875 8.390625 
Q 24.40625 8.09375 26.09375 8.09375 
Q 30.296875 8.09375 32.59375 9.5 
Q 34.90625 10.90625 36 12.84375 
Q 37.09375 14.796875 37.34375 16.796875 
Q 37.59375 18.796875 37.59375 20 
z
" id="HelveticaNeue-Bold-97"/>
    </defs>
    <g transform="translate(36.2875 20.83375)scale(0.09 -0.09)">
     <use xlink:href="#HelveticaNeue-Bold-97"/>
    </g>
   </g>
   <g id="legend_1">
    <g id="patch_7">
     <path d="M 36.2875 61.7 
L 158.23125 61.7 
L 158.23125 23.83375 
L 36.2875 23.83375 
z
" style="fill:#ffffff;opacity:0.8;stroke:#000000;stroke-linejoin:miter;stroke-width:0.6;"/>
    </g>
    <g id="text_15">
     <!-- column major -->
     <defs>
      <path d="M 41.5 35.09375 
L 50.296875 35.09375 
Q 49.796875 39.703125 47.890625 43.046875 
Q 46 46.40625 43.046875 48.59375 
Q 40.09375 50.796875 36.25 51.84375 
Q 32.40625 52.90625 28 52.90625 
Q 21.90625 52.90625 17.296875 50.75 
Q 12.703125 48.59375 9.640625 44.84375 
Q 6.59375 41.09375 5.09375 36.046875 
Q 3.59375 31 3.59375 25.203125 
Q 3.59375 19.40625 5.140625 14.546875 
Q 6.703125 9.703125 9.75 6.203125 
Q 12.796875 2.703125 17.34375 0.796875 
Q 21.90625 -1.09375 27.796875 -1.09375 
Q 37.703125 -1.09375 43.453125 4.09375 
Q 49.203125 9.296875 50.59375 18.90625 
L 41.90625 18.90625 
Q 41.09375 12.90625 37.546875 9.59375 
Q 34 6.296875 27.703125 6.296875 
Q 23.703125 6.296875 20.796875 7.890625 
Q 17.90625 9.5 16.09375 12.140625 
Q 14.296875 14.796875 13.4375 18.1875 
Q 12.59375 21.59375 12.59375 25.203125 
Q 12.59375 29.09375 13.390625 32.75 
Q 14.203125 36.40625 16.046875 39.203125 
Q 17.90625 42 21 43.703125 
Q 24.09375 45.40625 28.703125 45.40625 
Q 34.09375 45.40625 37.296875 42.703125 
Q 40.5 40 41.5 35.09375 
z
" id="HelveticaNeue-99"/>
      <path d="M 12.59375 25.796875 
Q 12.59375 30.5 13.84375 34.140625 
Q 15.09375 37.796875 17.296875 40.296875 
Q 19.5 42.796875 22.453125 44.09375 
Q 25.40625 45.40625 28.703125 45.40625 
Q 32 45.40625 34.953125 44.09375 
Q 37.90625 42.796875 40.09375 40.296875 
Q 42.296875 37.796875 43.546875 34.140625 
Q 44.796875 30.5 44.796875 25.796875 
Q 44.796875 21.09375 43.546875 17.4375 
Q 42.296875 13.796875 40.09375 11.34375 
Q 37.90625 8.90625 34.953125 7.59375 
Q 32 6.296875 28.703125 6.296875 
Q 25.40625 6.296875 22.453125 7.59375 
Q 19.5 8.90625 17.296875 11.34375 
Q 15.09375 13.796875 13.84375 17.4375 
Q 12.59375 21.09375 12.59375 25.796875 
z
M 3.59375 25.796875 
Q 3.59375 20.09375 5.1875 15.1875 
Q 6.796875 10.296875 10 6.640625 
Q 13.203125 3 17.890625 0.953125 
Q 22.59375 -1.09375 28.703125 -1.09375 
Q 34.90625 -1.09375 39.546875 0.953125 
Q 44.203125 3 47.390625 6.640625 
Q 50.59375 10.296875 52.1875 15.1875 
Q 53.796875 20.09375 53.796875 25.796875 
Q 53.796875 31.5 52.1875 36.453125 
Q 50.59375 41.40625 47.390625 45.046875 
Q 44.203125 48.703125 39.546875 50.796875 
Q 34.90625 52.90625 28.703125 52.90625 
Q 22.59375 52.90625 17.890625 50.796875 
Q 13.203125 48.703125 10 45.046875 
Q 6.796875 41.40625 5.1875 36.453125 
Q 3.59375 31.5 3.59375 25.796875 
z
" id="HelveticaNeue-111"/>
      <path d="M 49.203125 0 
L 49.203125 51.703125 
L 40.703125 51.703125 
L 40.703125 22.5 
Q 40.703125 19 39.75 16.046875 
Q 38.796875 13.09375 36.890625 10.890625 
Q 35 8.703125 32.140625 7.5 
Q 29.296875 6.296875 25.40625 6.296875 
Q 20.5 6.296875 17.703125 9.09375 
Q 14.90625 11.90625 14.90625 16.703125 
L 14.90625 51.703125 
L 6.40625 51.703125 
L 6.40625 17.703125 
Q 6.40625 13.5 7.25 10.046875 
Q 8.09375 6.59375 10.1875 4.09375 
Q 12.296875 1.59375 15.6875 0.25 
Q 19.09375 -1.09375 24.203125 -1.09375 
Q 29.90625 -1.09375 34.09375 1.15625 
Q 38.296875 3.40625 41 8.203125 
L 41.203125 8.203125 
L 41.203125 0 
z
" id="HelveticaNeue-117"/>
      <path d="M 6.40625 51.703125 
L 6.40625 0 
L 14.90625 0 
L 14.90625 32.203125 
Q 14.90625 33.703125 15.65625 35.953125 
Q 16.40625 38.203125 18.046875 40.296875 
Q 19.703125 42.40625 22.34375 43.90625 
Q 25 45.40625 28.703125 45.40625 
Q 31.59375 45.40625 33.4375 44.546875 
Q 35.296875 43.703125 36.390625 42.140625 
Q 37.5 40.59375 37.953125 38.5 
Q 38.40625 36.40625 38.40625 33.90625 
L 38.40625 0 
L 46.90625 0 
L 46.90625 32.203125 
Q 46.90625 38.203125 50.5 41.796875 
Q 54.09375 45.40625 60.40625 45.40625 
Q 63.5 45.40625 65.453125 44.5 
Q 67.40625 43.59375 68.5 42.046875 
Q 69.59375 40.5 70 38.390625 
Q 70.40625 36.296875 70.40625 33.90625 
L 70.40625 0 
L 78.90625 0 
L 78.90625 37.90625 
Q 78.90625 41.90625 77.65625 44.75 
Q 76.40625 47.59375 74.15625 49.390625 
Q 71.90625 51.203125 68.75 52.046875 
Q 65.59375 52.90625 61.703125 52.90625 
Q 56.59375 52.90625 52.34375 50.59375 
Q 48.09375 48.296875 45.5 44.09375 
Q 43.90625 48.90625 40 50.90625 
Q 36.09375 52.90625 31.296875 52.90625 
Q 20.40625 52.90625 14.59375 44.09375 
L 14.40625 44.09375 
L 14.40625 51.703125 
z
" id="HelveticaNeue-109"/>
      <path d="M 6.40625 51.703125 
L 6.40625 0 
L 14.90625 0 
L 14.90625 29.203125 
Q 14.90625 32.703125 15.84375 35.640625 
Q 16.796875 38.59375 18.6875 40.796875 
Q 20.59375 43 23.4375 44.203125 
Q 26.296875 45.40625 30.203125 45.40625 
Q 35.09375 45.40625 37.890625 42.59375 
Q 40.703125 39.796875 40.703125 35 
L 40.703125 0 
L 49.203125 0 
L 49.203125 34 
Q 49.203125 38.203125 48.34375 41.640625 
Q 47.5 45.09375 45.390625 47.59375 
Q 43.296875 50.09375 39.890625 51.5 
Q 36.5 52.90625 31.40625 52.90625 
Q 19.90625 52.90625 14.59375 43.5 
L 14.40625 43.5 
L 14.40625 51.703125 
z
" id="HelveticaNeue-110"/>
      <path id="HelveticaNeue-32"/>
      <path d="M 15.40625 61 
L 15.40625 71.40625 
L 6.90625 71.40625 
L 6.90625 61 
z
M 15.40625 -6.5 
L 15.40625 51.703125 
L 6.90625 51.703125 
L 6.90625 -5.09375 
Q 6.90625 -9.09375 5.90625 -10.640625 
Q 4.90625 -12.203125 2.09375 -12.203125 
L 0.296875 -12.203125 
Q -0.09375 -12.203125 -0.4375 -12.140625 
Q -0.796875 -12.09375 -1.296875 -12 
L -1.296875 -19.296875 
Q 0.703125 -19.703125 3 -19.703125 
Q 8.703125 -19.703125 12.046875 -16.546875 
Q 15.40625 -13.40625 15.40625 -6.5 
z
" id="HelveticaNeue-106"/>
      <path d="M 6.09375 51.703125 
L 6.09375 0 
L 14.59375 0 
L 14.59375 23 
Q 14.59375 28 15.59375 31.84375 
Q 16.59375 35.703125 18.796875 38.390625 
Q 21 41.09375 24.59375 42.5 
Q 28.203125 43.90625 33.296875 43.90625 
L 33.296875 52.90625 
Q 26.40625 53.09375 21.90625 50.09375 
Q 17.40625 47.09375 14.296875 40.796875 
L 14.09375 40.796875 
L 14.09375 51.703125 
z
" id="HelveticaNeue-114"/>
     </defs>
     <g transform="translate(72.879375 33.54625)scale(0.08 -0.08)">
      <use xlink:href="#HelveticaNeue-99"/>
      <use x="53.699997" xlink:href="#HelveticaNeue-111"/>
      <use x="111.099991" xlink:href="#HelveticaNeue-108"/>
      <use x="133.299988" xlink:href="#HelveticaNeue-117"/>
      <use x="188.899979" xlink:href="#HelveticaNeue-109"/>
      <use x="274.199966" xlink:href="#HelveticaNeue-110"/>
      <use x="329.799957" xlink:href="#HelveticaNeue-32"/>
      <use x="357.599945" xlink:href="#HelveticaNeue-109"/>
      <use x="442.899933" xlink:href="#HelveticaNeue-97"/>
      <use x="496.59993" xlink:href="#HelveticaNeue-106"/>
      <use x="518.799927" xlink:href="#HelveticaNeue-111"/>
      <use x="576.199921" xlink:href="#HelveticaNeue-114"/>
     </g>
    </g>
    <g id="line2d_75">
     <path d="M 40.2875 42.035 
L 52.2875 42.035 
" style="fill:none;stroke:#2b4162;stroke-linecap:square;stroke-width:4;"/>
    </g>
    <g id="line2d_76"/>
    <g id="text_16">
     <!-- a -->
     <g transform="translate(56.2875 44.835)scale(0.08 -0.08)">
      <use xlink:href="#HelveticaNeue-97"/>
     </g>
    </g>
    <g id="line2d_77">
     <path d="M 40.2875 53.32375 
L 52.2875 53.32375 
" style="fill:none;stroke:#fa9f42;stroke-linecap:square;stroke-width:4;"/>
    </g>
    <g id="line2d_78"/>
    <g id="text_17">
     <!-- bb -->
     <g transform="translate(56.2875 56.12375)scale(0.08 -0.08)">
      <use xlink:href="#HelveticaNeue-98"/>
      <use x="59.299988" xlink:href="#HelveticaNeue-98"/>
     </g>
    </g>
    <g id="line2d_79">
     <path d="M 73.775 42.035 
L 85.775 42.035 
" style="fill:none;stroke:#e0e0e2;stroke-linecap:square;stroke-width:4;"/>
    </g>
    <g id="line2d_80"/>
    <g id="text_18">
     <!-- ccc -->
     <g transform="translate(89.775 44.835)scale(0.08 -0.08)">
      <use xlink:href="#HelveticaNeue-99"/>
      <use x="53.699997" xlink:href="#HelveticaNeue-99"/>
      <use x="107.399994" xlink:href="#HelveticaNeue-99"/>
     </g>
    </g>
    <g id="line2d_81">
     <path d="M 73.775 53.32375 
L 85.775 53.32375 
" style="fill:none;stroke:#a21817;stroke-linecap:square;stroke-width:4;"/>
    </g>
    <g id="line2d_82"/>
    <g id="text_19">
     <!-- dddd -->
     <defs>
      <path d="M 12.59375 25.40625 
Q 12.59375 29.203125 13.390625 32.796875 
Q 14.203125 36.40625 16 39.203125 
Q 17.796875 42 20.796875 43.703125 
Q 23.796875 45.40625 28.09375 45.40625 
Q 32.5 45.40625 35.59375 43.75 
Q 38.703125 42.09375 40.640625 39.390625 
Q 42.59375 36.703125 43.5 33.140625 
Q 44.40625 29.59375 44.40625 25.796875 
Q 44.40625 22.203125 43.546875 18.703125 
Q 42.703125 15.203125 40.796875 12.453125 
Q 38.90625 9.703125 35.90625 8 
Q 32.90625 6.296875 28.59375 6.296875 
Q 24.5 6.296875 21.453125 7.890625 
Q 18.40625 9.5 16.453125 12.203125 
Q 14.5 14.90625 13.546875 18.34375 
Q 12.59375 21.796875 12.59375 25.40625 
z
M 52.59375 0 
L 52.59375 71.40625 
L 44.09375 71.40625 
L 44.09375 44.796875 
L 43.90625 44.796875 
Q 42.5 47.09375 40.453125 48.640625 
Q 38.40625 50.203125 36.09375 51.140625 
Q 33.796875 52.09375 31.5 52.5 
Q 29.203125 52.90625 27.203125 52.90625 
Q 21.296875 52.90625 16.84375 50.75 
Q 12.40625 48.59375 9.453125 44.9375 
Q 6.5 41.296875 5.046875 36.390625 
Q 3.59375 31.5 3.59375 26 
Q 3.59375 20.5 5.09375 15.59375 
Q 6.59375 10.703125 9.546875 7 
Q 12.5 3.296875 16.953125 1.09375 
Q 21.40625 -1.09375 27.40625 -1.09375 
Q 32.796875 -1.09375 37.296875 0.796875 
Q 41.796875 2.703125 43.90625 7 
L 44.09375 7 
L 44.09375 0 
z
" id="HelveticaNeue-100"/>
     </defs>
     <g transform="translate(89.775 56.12375)scale(0.08 -0.08)">
      <use xlink:href="#HelveticaNeue-100"/>
      <use x="59.299988" xlink:href="#HelveticaNeue-100"/>
      <use x="118.599976" xlink:href="#HelveticaNeue-100"/>
      <use x="177.899963" xlink:href="#HelveticaNeue-100"/>
     </g>
    </g>
    <g id="line2d_83">
     <path d="M 116.75 42.035 
L 128.75 42.035 
" style="fill:none;stroke:#0b6e4f;stroke-linecap:square;stroke-width:4;"/>
    </g>
    <g id="line2d_84"/>
    <g id="text_20">
     <!-- eeeee -->
     <g transform="translate(132.75 44.835)scale(0.08 -0.08)">
      <use xlink:href="#HelveticaNeue-101"/>
      <use x="53.699997" xlink:href="#HelveticaNeue-101"/>
      <use x="107.399994" xlink:href="#HelveticaNeue-101"/>
      <use x="161.099991" xlink:href="#HelveticaNeue-101"/>
      <use x="214.799988" xlink:href="#HelveticaNeue-101"/>
     </g>
    </g>
   </g>
  </g>
  <g id="axes_2">
   <g id="patch_8">
    <path d="M 210.20625 167.83375 
L 354.20625 167.83375 
L 354.20625 23.83375 
L 210.20625 23.83375 
z
" style="fill:#ffffff;"/>
   </g>
   <g id="matplotlib.axis_3">
    <g id="xtick_21">
     <g id="line2d_85">
      <path clip-path="url(#p147a76f225)" d="M 210.20625 167.83375 
L 210.20625 23.83375 
" style="fill:none;stroke:#000000;stroke-linecap:square;stroke-opacity:0.1;stroke-width:0.6;"/>
     </g>
     <g id="line2d_86">
      <g>
       <use style="stroke:#000000;stroke-width:0.6;" x="210.20625" xlink:href="#m4757f740ec" y="167.83375"/>
      </g>
     </g>
     <g id="text_21">
      <!-- 0 -->
      <g transform="translate(207.9825 179.54625)scale(0.08 -0.08)">
       <use xlink:href="#HelveticaNeue-48"/>
      </g>
     </g>
    </g>
    <g id="xtick_22">
     <g id="line2d_87">
      <path clip-path="url(#p147a76f225)" d="M 248.100987 167.83375 
L 248.100987 23.83375 
" style="fill:none;stroke:#000000;stroke-linecap:square;stroke-opacity:0.1;stroke-width:0.6;"/>
     </g>
     <g id="line2d_88">
      <g>
       <use style="stroke:#000000;stroke-width:0.6;" x="248.100987" xlink:href="#m4757f740ec" y="167.83375"/>
      </g>
     </g>
     <g id="text_22">
      <!-- 5 -->
      <g transform="translate(245.877237 179.54625)scale(0.08 -0.08)">
       <use xlink:href="#HelveticaNeue-53"/>
      </g>
     </g>
    </g>
    <g id="xtick_23">
     <g id="line2d_89">
      <path clip-path="url(#p147a76f225)" d="M 285.995724 167.83375 
L 285.995724 23.83375 
" style="fill:none;stroke:#000000;stroke-linecap:square;stroke-opacity:0.1;stroke-width:0.6;"/>
     </g>
     <g id="line2d_90">
      <g>
       <use style="stroke:#000000;stroke-width:0.6;" x="285.995724" xlink:href="#m4757f740ec" y="167.83375"/>
      </g>
     </g>
     <g id="text_23">
      <!-- 10 -->
      <g transform="translate(281.548224 179.54625)scale(0.08 -0.08)">
       <use xlink:href="#HelveticaNeue-49"/>
       <use x="55.599991" xlink:href="#HelveticaNeue-48"/>
      </g>
     </g>
    </g>
    <g id="xtick_24">
     <g id="line2d_91">
      <path clip-path="url(#p147a76f225)" d="M 323.890461 167.83375 
L 323.890461 23.83375 
" style="fill:none;stroke:#000000;stroke-linecap:square;stroke-opacity:0.1;stroke-width:0.6;"/>
     </g>
     <g id="line2d_92">
      <g>
       <use style="stroke:#000000;stroke-width:0.6;" x="323.890461" xlink:href="#m4757f740ec" y="167.83375"/>
      </g>
     </g>
     <g id="text_24">
      <!-- 15 -->
      <g transform="translate(319.442961 179.54625)scale(0.08 -0.08)">
       <use xlink:href="#HelveticaNeue-49"/>
       <use x="55.599991" xlink:href="#HelveticaNeue-53"/>
      </g>
     </g>
    </g>
    <g id="xtick_25">
     <g id="line2d_93">
      <g>
       <use style="stroke:#000000;stroke-width:0.48;" x="217.785197" xlink:href="#mb779d9ca85" y="167.83375"/>
      </g>
     </g>
    </g>
    <g id="xtick_26">
     <g id="line2d_94">
      <g>
       <use style="stroke:#000000;stroke-width:0.48;" x="225.364145" xlink:href="#mb779d9ca85" y="167.83375"/>
      </g>
     </g>
    </g>
    <g id="xtick_27">
     <g id="line2d_95">
      <g>
       <use style="stroke:#000000;stroke-width:0.48;" x="232.943092" xlink:href="#mb779d9ca85" y="167.83375"/>
      </g>
     </g>
    </g>
    <g id="xtick_28">
     <g id="line2d_96">
      <g>
       <use style="stroke:#000000;stroke-width:0.48;" x="240.522039" xlink:href="#mb779d9ca85" y="167.83375"/>
      </g>
     </g>
    </g>
    <g id="xtick_29">
     <g id="line2d_97">
      <g>
       <use style="stroke:#000000;stroke-width:0.48;" x="255.679934" xlink:href="#mb779d9ca85" y="167.83375"/>
      </g>
     </g>
    </g>
    <g id="xtick_30">
     <g id="line2d_98">
      <g>
       <use style="stroke:#000000;stroke-width:0.48;" x="263.258882" xlink:href="#mb779d9ca85" y="167.83375"/>
      </g>
     </g>
    </g>
    <g id="xtick_31">
     <g id="line2d_99">
      <g>
       <use style="stroke:#000000;stroke-width:0.48;" x="270.837829" xlink:href="#mb779d9ca85" y="167.83375"/>
      </g>
     </g>
    </g>
    <g id="xtick_32">
     <g id="line2d_100">
      <g>
       <use style="stroke:#000000;stroke-width:0.48;" x="278.416776" xlink:href="#mb779d9ca85" y="167.83375"/>
      </g>
     </g>
    </g>
    <g id="xtick_33">
     <g id="line2d_101">
      <g>
       <use style="stroke:#000000;stroke-width:0.48;" x="293.574671" xlink:href="#mb779d9ca85" y="167.83375"/>
      </g>
     </g>
    </g>
    <g id="xtick_34">
     <g id="line2d_102">
      <g>
       <use style="stroke:#000000;stroke-width:0.48;" x="301.153618" xlink:href="#mb779d9ca85" y="167.83375"/>
      </g>
     </g>
    </g>
    <g id="xtick_35">
     <g id="line2d_103">
      <g>
       <use style="stroke:#000000;stroke-width:0.48;" x="308.732566" xlink:href="#mb779d9ca85" y="167.83375"/>
      </g>
     </g>
    </g>
    <g id="xtick_36">
     <g id="line2d_104">
      <g>
       <use style="stroke:#000000;stroke-width:0.48;" x="316.311513" xlink:href="#mb779d9ca85" y="167.83375"/>
      </g>
     </g>
    </g>
    <g id="xtick_37">
     <g id="line2d_105">
      <g>
       <use style="stroke:#000000;stroke-width:0.48;" x="331.469408" xlink:href="#mb779d9ca85" y="167.83375"/>
      </g>
     </g>
    </g>
    <g id="xtick_38">
     <g id="line2d_106">
      <g>
       <use style="stroke:#000000;stroke-width:0.48;" x="339.048355" xlink:href="#mb779d9ca85" y="167.83375"/>
      </g>
     </g>
    </g>
    <g id="xtick_39">
     <g id="line2d_107">
      <g>
       <use style="stroke:#000000;stroke-width:0.48;" x="346.627303" xlink:href="#mb779d9ca85" y="167.83375"/>
      </g>
     </g>
    </g>
    <g id="xtick_40">
     <g id="line2d_108">
      <g>
       <use style="stroke:#000000;stroke-width:0.48;" x="354.20625" xlink:href="#mb779d9ca85" y="167.83375"/>
      </g>
     </g>
    </g>
    <g id="text_25">
     <!-- xlabel -->
     <g transform="translate(271.69 189.835)scale(0.08 -0.08)">
      <use xlink:href="#HelveticaNeue-120"/>
      <use x="51.799988" xlink:href="#HelveticaNeue-108"/>
      <use x="73.999985" xlink:href="#HelveticaNeue-97"/>
      <use x="127.699982" xlink:href="#HelveticaNeue-98"/>
      <use x="186.999969" xlink:href="#HelveticaNeue-101"/>
      <use x="240.699966" xlink:href="#HelveticaNeue-108"/>
     </g>
    </g>
   </g>
   <g id="matplotlib.axis_4">
    <g id="ytick_39">
     <g id="line2d_109">
      <path clip-path="url(#p147a76f225)" d="M 210.20625 149.101329 
L 354.20625 149.101329 
" style="fill:none;stroke:#000000;stroke-linecap:square;stroke-opacity:0.1;stroke-width:0.6;"/>
     </g>
     <g id="line2d_110">
      <g>
       <use style="stroke:#000000;stroke-width:0.6;" x="210.20625" xlink:href="#mdf9c5de2ab" y="149.101329"/>
      </g>
     </g>
     <g id="text_26">
      <!-- −0.5 -->
      <g transform="translate(188.2875 151.957579)scale(0.08 -0.08)">
       <use xlink:href="#HelveticaNeue-8722"/>
       <use x="59.999985" xlink:href="#HelveticaNeue-48"/>
       <use x="115.599976" xlink:href="#HelveticaNeue-46"/>
       <use x="143.399963" xlink:href="#HelveticaNeue-53"/>
      </g>
     </g>
    </g>
    <g id="ytick_40">
     <g id="line2d_111">
      <path clip-path="url(#p147a76f225)" d="M 210.20625 130.212605 
L 354.20625 130.212605 
" style="fill:none;stroke:#000000;stroke-linecap:square;stroke-opacity:0.1;stroke-width:0.6;"/>
     </g>
     <g id="line2d_112">
      <g>
       <use style="stroke:#000000;stroke-width:0.6;" x="210.20625" xlink:href="#mdf9c5de2ab" y="130.212605"/>
      </g>
     </g>
     <g id="text_27">
      <!-- 0 -->
      <g transform="translate(199.75875 133.068855)scale(0.08 -0.08)">
       <use xlink:href="#HelveticaNeue-48"/>
      </g>
     </g>
    </g>
    <g id="ytick_41">
     <g id="line2d_113">
      <path clip-path="url(#p147a76f225)" d="M 210.20625 111.323881 
L 354.20625 111.323881 
" style="fill:none;stroke:#000000;stroke-linecap:square;stroke-opacity:0.1;stroke-width:0.6;"/>
     </g>
     <g id="line2d_114">
      <g>
       <use style="stroke:#000000;stroke-width:0.6;" x="210.20625" xlink:href="#mdf9c5de2ab" y="111.323881"/>
      </g>
     </g>
     <g id="text_28">
      <!-- 0.5 -->
      <g transform="translate(193.0875 114.180131)scale(0.08 -0.08)">
       <use xlink:href="#HelveticaNeue-48"/>
       <use x="55.599991" xlink:href="#HelveticaNeue-46"/>
       <use x="83.399979" xlink:href="#HelveticaNeue-53"/>
      </g>
     </g>
    </g>
    <g id="ytick_42">
     <g id="line2d_115">
      <path clip-path="url(#p147a76f225)" d="M 210.20625 92.435157 
L 354.20625 92.435157 
" style="fill:none;stroke:#000000;stroke-linecap:square;stroke-opacity:0.1;stroke-width:0.6;"/>
     </g>
     <g id="line2d_116">
      <g>
       <use style="stroke:#000000;stroke-width:0.6;" x="210.20625" xlink:href="#mdf9c5de2ab" y="92.435157"/>
      </g>
     </g>
     <g id="text_29">
      <!-- 1 -->
      <g transform="translate(199.75875 95.291407)scale(0.08 -0.08)">
       <use xlink:href="#HelveticaNeue-49"/>
      </g>
     </g>
    </g>
    <g id="ytick_43">
     <g id="line2d_117">
      <path clip-path="url(#p147a76f225)" d="M 210.20625 73.546434 
L 354.20625 73.546434 
" style="fill:none;stroke:#000000;stroke-linecap:square;stroke-opacity:0.1;stroke-width:0.6;"/>
     </g>
     <g id="line2d_118">
      <g>
       <use style="stroke:#000000;stroke-width:0.6;" x="210.20625" xlink:href="#mdf9c5de2ab" y="73.546434"/>
      </g>
     </g>
     <g id="text_30">
      <!-- 1.5 -->
      <g transform="translate(193.0875 76.402684)scale(0.08 -0.08)">
       <use xlink:href="#HelveticaNeue-49"/>
       <use x="55.599991" xlink:href="#HelveticaNeue-46"/>
       <use x="83.399979" xlink:href="#HelveticaNeue-53"/>
      </g>
     </g>
    </g>
    <g id="ytick_44">
     <g id="line2d_119">
      <path clip-path="url(#p147a76f225)" d="M 210.20625 54.65771 
L 354.20625 54.65771 
" style="fill:none;stroke:#000000;stroke-linecap:square;stroke-opacity:0.1;stroke-width:0.6;"/>
     </g>
     <g id="line2d_120">
      <g>
       <use style="stroke:#000000;stroke-width:0.6;" x="210.20625" xlink:href="#mdf9c5de2ab" y="54.65771"/>
      </g>
     </g>
     <g id="text_31">
      <!-- 2 -->
      <g transform="translate(199.75875 57.51396)scale(0.08 -0.08)">
       <use xlink:href="#HelveticaNeue-50"/>
      </g>
     </g>
    </g>
    <g id="ytick_45">
     <g id="line2d_121">
      <path clip-path="url(#p147a76f225)" d="M 210.20625 35.768986 
L 354.20625 35.768986 
" style="fill:none;stroke:#000000;stroke-linecap:square;stroke-opacity:0.1;stroke-width:0.6;"/>
     </g>
     <g id="line2d_122">
      <g>
       <use style="stroke:#000000;stroke-width:0.6;" x="210.20625" xlink:href="#mdf9c5de2ab" y="35.768986"/>
      </g>
     </g>
     <g id="text_32">
      <!-- 2.5 -->
      <g transform="translate(193.0875 38.625236)scale(0.08 -0.08)">
       <use xlink:href="#HelveticaNeue-50"/>
       <use x="55.599991" xlink:href="#HelveticaNeue-46"/>
       <use x="83.399979" xlink:href="#HelveticaNeue-53"/>
      </g>
     </g>
    </g>
    <g id="ytick_46">
     <g id="line2d_123">
      <g>
       <use style="stroke:#000000;stroke-width:0.48;" x="210.20625" xlink:href="#m0382b315d0" y="164.212308"/>
      </g>
     </g>
    </g>
    <g id="ytick_47">
     <g id="line2d_124">
      <g>
       <use style="stroke:#000000;stroke-width:0.48;" x="210.20625" xlink:href="#m0382b315d0" y="160.434563"/>
      </g>
     </g>
    </g>
    <g id="ytick_48">
     <g id="line2d_125">
      <g>
       <use style="stroke:#000000;stroke-width:0.48;" x="210.20625" xlink:href="#m0382b315d0" y="156.656818"/>
      </g>
     </g>
    </g>
    <g id="ytick_49">
     <g id="line2d_126">
      <g>
       <use style="stroke:#000000;stroke-width:0.48;" x="210.20625" xlink:href="#m0382b315d0" y="152.879073"/>
      </g>
     </g>
    </g>
    <g id="ytick_50">
     <g id="line2d_127">
      <g>
       <use style="stroke:#000000;stroke-width:0.48;" x="210.20625" xlink:href="#m0382b315d0" y="145.323584"/>
      </g>
     </g>
    </g>
    <g id="ytick_51">
     <g id="line2d_128">
      <g>
       <use style="stroke:#000000;stroke-width:0.48;" x="210.20625" xlink:href="#m0382b315d0" y="141.545839"/>
      </g>
     </g>
    </g>
    <g id="ytick_52">
     <g id="line2d_129">
      <g>
       <use style="stroke:#000000;stroke-width:0.48;" x="210.20625" xlink:href="#m0382b315d0" y="137.768094"/>
      </g>
     </g>
    </g>
    <g id="ytick_53">
     <g id="line2d_130">
      <g>
       <use style="stroke:#000000;stroke-width:0.48;" x="210.20625" xlink:href="#m0382b315d0" y="133.99035"/>
      </g>
     </g>
    </g>
    <g id="ytick_54">
     <g id="line2d_131">
      <g>
       <use style="stroke:#000000;stroke-width:0.48;" x="210.20625" xlink:href="#m0382b315d0" y="126.43486"/>
      </g>
     </g>
    </g>
    <g id="ytick_55">
     <g id="line2d_132">
      <g>
       <use style="stroke:#000000;stroke-width:0.48;" x="210.20625" xlink:href="#m0382b315d0" y="122.657115"/>
      </g>
     </g>
    </g>
    <g id="ytick_56">
     <g id="line2d_133">
      <g>
       <use style="stroke:#000000;stroke-width:0.48;" x="210.20625" xlink:href="#m0382b315d0" y="118.879371"/>
      </g>
     </g>
    </g>
    <g id="ytick_57">
     <g id="line2d_134">
      <g>
       <use style="stroke:#000000;stroke-width:0.48;" x="210.20625" xlink:href="#m0382b315d0" y="115.101626"/>
      </g>
     </g>
    </g>
    <g id="ytick_58">
     <g id="line2d_135">
      <g>
       <use style="stroke:#000000;stroke-width:0.48;" x="210.20625" xlink:href="#m0382b315d0" y="107.546136"/>
      </g>
     </g>
    </g>
    <g id="ytick_59">
     <g id="line2d_136">
      <g>
       <use style="stroke:#000000;stroke-width:0.48;" x="210.20625" xlink:href="#m0382b315d0" y="103.768392"/>
      </g>
     </g>
    </g>
    <g id="ytick_60">
     <g id="line2d_137">
      <g>
       <use style="stroke:#000000;stroke-width:0.48;" x="210.20625" xlink:href="#m0382b315d0" y="99.990647"/>
      </g>
     </g>
    </g>
    <g id="ytick_61">
     <g id="line2d_138">
      <g>
       <use style="stroke:#000000;stroke-width:0.48;" x="210.20625" xlink:href="#m0382b315d0" y="96.212902"/>
      </g>
     </g>
    </g>
    <g id="ytick_62">
     <g id="line2d_139">
      <g>
       <use style="stroke:#000000;stroke-width:0.48;" x="210.20625" xlink:href="#m0382b315d0" y="88.657413"/>
      </g>
     </g>
    </g>
    <g id="ytick_63">
     <g id="line2d_140">
      <g>
       <use style="stroke:#000000;stroke-width:0.48;" x="210.20625" xlink:href="#m0382b315d0" y="84.879668"/>
      </g>
     </g>
    </g>
    <g id="ytick_64">
     <g id="line2d_141">
      <g>
       <use style="stroke:#000000;stroke-width:0.48;" x="210.20625" xlink:href="#m0382b315d0" y="81.101923"/>
      </g>
     </g>
    </g>
    <g id="ytick_65">
     <g id="line2d_142">
      <g>
       <use style="stroke:#000000;stroke-width:0.48;" x="210.20625" xlink:href="#m0382b315d0" y="77.324178"/>
      </g>
     </g>
    </g>
    <g id="ytick_66">
     <g id="line2d_143">
      <g>
       <use style="stroke:#000000;stroke-width:0.48;" x="210.20625" xlink:href="#m0382b315d0" y="69.768689"/>
      </g>
     </g>
    </g>
    <g id="ytick_67">
     <g id="line2d_144">
      <g>
       <use style="stroke:#000000;stroke-width:0.48;" x="210.20625" xlink:href="#m0382b315d0" y="65.990944"/>
      </g>
     </g>
    </g>
    <g id="ytick_68">
     <g id="line2d_145">
      <g>
       <use style="stroke:#000000;stroke-width:0.48;" x="210.20625" xlink:href="#m0382b315d0" y="62.213199"/>
      </g>
     </g>
    </g>
    <g id="ytick_69">
     <g id="line2d_146">
      <g>
       <use style="stroke:#000000;stroke-width:0.48;" x="210.20625" xlink:href="#m0382b315d0" y="58.435455"/>
      </g>
     </g>
    </g>
    <g id="ytick_70">
     <g id="line2d_147">
      <g>
       <use style="stroke:#000000;stroke-width:0.48;" x="210.20625" xlink:href="#m0382b315d0" y="50.879965"/>
      </g>
     </g>
    </g>
    <g id="ytick_71">
     <g id="line2d_148">
      <g>
       <use style="stroke:#000000;stroke-width:0.48;" x="210.20625" xlink:href="#m0382b315d0" y="47.10222"/>
      </g>
     </g>
    </g>
    <g id="ytick_72">
     <g id="line2d_149">
      <g>
       <use style="stroke:#000000;stroke-width:0.48;" x="210.20625" xlink:href="#m0382b315d0" y="43.324476"/>
      </g>
     </g>
    </g>
    <g id="ytick_73">
     <g id="line2d_150">
      <g>
       <use style="stroke:#000000;stroke-width:0.48;" x="210.20625" xlink:href="#m0382b315d0" y="39.546731"/>
      </g>
     </g>
    </g>
    <g id="ytick_74">
     <g id="line2d_151">
      <g>
       <use style="stroke:#000000;stroke-width:0.48;" x="210.20625" xlink:href="#m0382b315d0" y="31.991241"/>
      </g>
     </g>
    </g>
    <g id="ytick_75">
     <g id="line2d_152">
      <g>
       <use style="stroke:#000000;stroke-width:0.48;" x="210.20625" xlink:href="#m0382b315d0" y="28.213497"/>
      </g>
     </g>
    </g>
    <g id="ytick_76">
     <g id="line2d_153">
      <g>
       <use style="stroke:#000000;stroke-width:0.48;" x="210.20625" xlink:href="#m0382b315d0" y="24.435752"/>
      </g>
     </g>
    </g>
   </g>
   <g id="line2d_154">
    <path clip-path="url(#p147a76f225)" d="M 210.20625 130.555313 
L 217.785197 145.084624 
L 225.364145 157.384392 
L 232.943092 151.45314 
L 240.522039 167.83375 
L 248.100987 151.554238 
L 255.679934 133.543724 
L 263.258882 125.548213 
L 270.837829 127.763741 
L 278.416776 135.086769 
L 285.995724 124.253677 
L 293.574671 118.906682 
L 301.153618 102.104147 
L 308.732566 109.551637 
L 316.311513 119.869745 
L 323.890461 100.088729 
L 331.469408 114.754984 
L 339.048355 94.72993 
L 346.627303 102.799817 
L 354.20625 113.968973 
" style="fill:none;stroke:#23395b;stroke-linecap:square;stroke-width:4;"/>
   </g>
   <g id="line2d_155">
    <path clip-path="url(#p147a76f225)" d="M 210.20625 138.005623 
L 217.785197 123.67299 
L 225.364145 113.398613 
L 232.943092 127.950972 
L 240.522039 110.184804 
L 248.100987 111.158087 
L 255.679934 92.963975 
L 263.258882 101.456259 
L 270.837829 105.334207 
L 278.416776 91.836186 
L 285.995724 102.445722 
L 293.574671 86.430376 
L 301.153618 73.3181 
L 308.732566 80.1897 
L 316.311513 75.711255 
L 323.890461 65.372345 
L 331.469408 56.200666 
L 339.048355 52.490512 
L 346.627303 37.735867 
L 354.20625 23.83375 
" style="fill:none;stroke:#d81e5b;stroke-linecap:square;stroke-width:4;"/>
   </g>
   <g id="line2d_156">
    <path clip-path="url(#p147a76f225)" d="M 210.20625 114.401622 
L 217.785197 124.72374 
L 225.364145 123.622652 
L 232.943092 132.601755 
L 240.522039 117.812361 
L 248.100987 117.26035 
L 255.679934 134.18803 
L 263.258882 123.138598 
L 270.837829 118.686553 
L 278.416776 132.019709 
L 285.995724 125.073667 
L 293.574671 108.459899 
L 301.153618 94.457064 
L 308.732566 108.515952 
L 316.311513 120.001432 
L 323.890461 107.54282 
L 331.469408 108.822396 
L 339.048355 94.642141 
L 346.627303 88.594955 
L 354.20625 94.779957 
" style="fill:none;stroke:#fffd98;stroke-linecap:square;stroke-width:4;"/>
   </g>
   <g id="line2d_157">
    <path clip-path="url(#p147a76f225)" d="M 210.20625 121.9131 
L 217.785197 132.170003 
L 225.364145 129.700173 
L 232.943092 129.724186 
L 240.522039 121.260741 
L 248.100987 135.273348 
L 255.679934 130.32549 
L 263.258882 146.32127 
L 270.837829 139.706282 
L 278.416776 127.234652 
L 285.995724 117.416194 
L 293.574671 98.30405 
L 301.153618 87.631449 
L 308.732566 92.231599 
L 316.311513 102.602271 
L 323.890461 97.314367 
L 331.469408 78.22253 
L 339.048355 67.948254 
L 346.627303 63.472337 
L 354.20625 67.521616 
" style="fill:none;stroke:#b9e3c6;stroke-linecap:square;stroke-width:4;"/>
   </g>
   <g id="line2d_158">
    <path clip-path="url(#p147a76f225)" d="M 210.20625 140.28598 
L 217.785197 130.913188 
L 225.364145 113.338023 
L 232.943092 100.185669 
L 240.522039 90.798892 
L 248.100987 94.429758 
L 255.679934 95.363228 
L 263.258882 79.743527 
L 270.837829 79.010361 
L 278.416776 69.942272 
L 285.995724 65.645149 
L 293.574671 73.231578 
L 301.153618 63.989458 
L 308.732566 54.240061 
L 316.311513 52.851851 
L 323.890461 37.491559 
L 331.469408 40.195066 
L 339.048355 47.535916 
L 346.627303 63.917103 
L 354.20625 54.90875 
" style="fill:none;stroke:#59c9a5;stroke-linecap:square;stroke-width:4;"/>
   </g>
   <g id="patch_9">
    <path d="M 210.20625 167.83375 
L 210.20625 23.83375 
" style="fill:none;stroke:#000000;stroke-linecap:square;stroke-linejoin:miter;stroke-width:0.6;"/>
   </g>
   <g id="patch_10">
    <path d="M 354.20625 167.83375 
L 354.20625 23.83375 
" style="fill:none;stroke:#000000;stroke-linecap:square;stroke-linejoin:miter;stroke-width:0.6;"/>
   </g>
   <g id="patch_11">
    <path d="M 210.20625 167.83375 
L 354.20625 167.83375 
" style="fill:none;stroke:#000000;stroke-linecap:square;stroke-linejoin:miter;stroke-width:0.6;"/>
   </g>
   <g id="patch_12">
    <path d="M 210.20625 23.83375 
L 354.20625 23.83375 
" style="fill:none;stroke:#000000;stroke-linecap:square;stroke-linejoin:miter;stroke-width:0.6;"/>
   </g>
   <g id="text_33">
    <!-- b -->
    <defs>
     <path d="M 43.296875 25.796875 
Q 43.296875 22.59375 42.59375 19.59375 
Q 41.90625 16.59375 40.40625 14.296875 
Q 38.90625 12 36.65625 10.640625 
Q 34.40625 9.296875 31.203125 9.296875 
Q 28.09375 9.296875 25.796875 10.640625 
Q 23.5 12 22 14.296875 
Q 20.5 16.59375 19.796875 19.59375 
Q 19.09375 22.59375 19.09375 25.796875 
Q 19.09375 29.09375 19.796875 32.09375 
Q 20.5 35.09375 22 37.390625 
Q 23.5 39.703125 25.796875 41.046875 
Q 28.09375 42.40625 31.203125 42.40625 
Q 34.40625 42.40625 36.65625 41.046875 
Q 38.90625 39.703125 40.40625 37.390625 
Q 41.90625 35.09375 42.59375 32.09375 
Q 43.296875 29.09375 43.296875 25.796875 
z
M 5.40625 71.40625 
L 5.40625 0 
L 18.90625 0 
L 18.90625 6.59375 
L 19.09375 6.59375 
Q 21.40625 2.296875 25.90625 0.5 
Q 30.40625 -1.296875 36.09375 -1.296875 
Q 40 -1.296875 43.796875 0.296875 
Q 47.59375 1.90625 50.640625 5.203125 
Q 53.703125 8.5 55.59375 13.640625 
Q 57.5 18.796875 57.5 25.90625 
Q 57.5 33 55.59375 38.140625 
Q 53.703125 43.296875 50.640625 46.59375 
Q 47.59375 49.90625 43.796875 51.5 
Q 40 53.09375 36.09375 53.09375 
Q 31.296875 53.09375 26.84375 51.25 
Q 22.40625 49.40625 19.796875 45.40625 
L 19.59375 45.40625 
L 19.59375 71.40625 
z
" id="HelveticaNeue-Bold-98"/>
    </defs>
    <g transform="translate(210.20625 20.83375)scale(0.09 -0.09)">
     <use xlink:href="#HelveticaNeue-Bold-98"/>
    </g>
   </g>
  </g>
  <g id="axes_3">
   <g id="patch_13">
    <path d="M 36.2875 207.41125 
L 180.2875 207.41125 
L 180.2875 195.41125 
L 36.2875 195.41125 
z
" style="fill:none;opacity:0;"/>
   </g>
   <g id="legend_2">
    <g id="patch_14">
     <path d="M 45.615 233.2775 
L 170.96 233.2775 
L 170.96 195.41125 
L 45.615 195.41125 
z
" style="fill:#e9ecef;opacity:0.8;stroke:#ced4da;stroke-linejoin:miter;stroke-width:0.6;"/>
    </g>
    <g id="text_34">
     <!-- row major -->
     <defs>
      <path d="M 57.59375 0 
L 74.09375 51.703125 
L 65.296875 51.703125 
L 53.703125 9.40625 
L 53.5 9.40625 
L 42.703125 51.703125 
L 33.40625 51.703125 
L 23 9.40625 
L 22.796875 9.40625 
L 11.09375 51.703125 
L 1.703125 51.703125 
L 18.296875 0 
L 27.5 0 
L 37.90625 41.09375 
L 38.09375 41.09375 
L 48.59375 0 
z
" id="HelveticaNeue-119"/>
     </defs>
     <g transform="translate(90.44 205.12375)scale(0.08 -0.08)">
      <use xlink:href="#HelveticaNeue-114"/>
      <use x="33.284363" xlink:href="#HelveticaNeue-111"/>
      <use x="90.684357" xlink:href="#HelveticaNeue-119"/>
      <use x="166.484344" xlink:href="#HelveticaNeue-32"/>
      <use x="194.284332" xlink:href="#HelveticaNeue-109"/>
      <use x="279.58432" xlink:href="#HelveticaNeue-97"/>
      <use x="333.284317" xlink:href="#HelveticaNeue-106"/>
      <use x="355.484314" xlink:href="#HelveticaNeue-111"/>
      <use x="412.884308" xlink:href="#HelveticaNeue-114"/>
     </g>
    </g>
    <g id="line2d_159">
     <path d="M 49.615 213.6125 
L 61.615 213.6125 
" style="fill:none;stroke:#2b4162;stroke-linecap:square;stroke-width:2;"/>
    </g>
    <g id="line2d_160"/>
    <g id="text_35">
     <!-- a -->
     <g transform="translate(65.615 216.4125)scale(0.08 -0.08)">
      <use xlink:href="#HelveticaNeue-97"/>
     </g>
    </g>
    <g id="line2d_161">
     <path d="M 49.615 224.90125 
L 61.615 224.90125 
" style="fill:none;stroke:#a21817;stroke-linecap:square;stroke-width:2;"/>
    </g>
    <g id="line2d_162"/>
    <g id="text_36">
     <!-- dddd -->
     <g transform="translate(65.615 227.70125)scale(0.08 -0.08)">
      <use xlink:href="#HelveticaNeue-100"/>
      <use x="59.299988" xlink:href="#HelveticaNeue-100"/>
      <use x="118.599976" xlink:href="#HelveticaNeue-100"/>
      <use x="177.899963" xlink:href="#HelveticaNeue-100"/>
     </g>
    </g>
    <g id="line2d_163">
     <path d="M 92.59 213.6125 
L 104.59 213.6125 
" style="fill:none;stroke:#fa9f42;stroke-linecap:square;stroke-width:2;"/>
    </g>
    <g id="line2d_164"/>
    <g id="text_37">
     <!-- bb -->
     <g transform="translate(108.59 216.4125)scale(0.08 -0.08)">
      <use xlink:href="#HelveticaNeue-98"/>
      <use x="59.299988" xlink:href="#HelveticaNeue-98"/>
     </g>
    </g>
    <g id="line2d_165">
     <path d="M 92.59 224.90125 
L 104.59 224.90125 
" style="fill:none;stroke:#0b6e4f;stroke-linecap:square;stroke-width:2;"/>
    </g>
    <g id="line2d_166"/>
    <g id="text_38">
     <!-- eeeee -->
     <g transform="translate(108.59 227.70125)scale(0.08 -0.08)">
      <use xlink:href="#HelveticaNeue-101"/>
      <use x="53.699997" xlink:href="#HelveticaNeue-101"/>
      <use x="107.399994" xlink:href="#HelveticaNeue-101"/>
      <use x="161.099991" xlink:href="#HelveticaNeue-101"/>
      <use x="214.799988" xlink:href="#HelveticaNeue-101"/>
     </g>
    </g>
    <g id="line2d_167">
     <path d="M 138.07125 213.6125 
L 150.07125 213.6125 
" style="fill:none;stroke:#e0e0e2;stroke-linecap:square;stroke-width:2;"/>
    </g>
    <g id="line2d_168"/>
    <g id="text_39">
     <!-- ccc -->
     <g transform="translate(154.07125 216.4125)scale(0.08 -0.08)">
      <use xlink:href="#HelveticaNeue-99"/>
      <use x="53.699997" xlink:href="#HelveticaNeue-99"/>
      <use x="107.399994" xlink:href="#HelveticaNeue-99"/>
     </g>
    </g>
   </g>
  </g>
  <g id="axes_4">
   <g id="patch_15">
    <path d="M 210.20625 207.41125 
L 354.20625 207.41125 
L 354.20625 195.41125 
L 210.20625 195.41125 
z
" style="fill:none;opacity:0;"/>
   </g>
   <g id="patch_16">
    <path d="M 238.85625 233.41125 
L 325.55625 233.41125 
L 325.55625 195.41125 
L 238.85625 195.41125 
z
" style="fill:#ffffff;opacity:0.8;stroke:#000000;stroke-linejoin:miter;stroke-width:0.6;"/>
   </g>
   <g id="legend_3">
    <g id="text_40">
     <!-- centered legend -->
     <defs>
      <path d="M 18.203125 51.703125 
L 18.203125 67.203125 
L 9.703125 67.203125 
L 9.703125 51.703125 
L 0.90625 51.703125 
L 0.90625 44.203125 
L 9.703125 44.203125 
L 9.703125 11.296875 
Q 9.703125 7.703125 10.390625 5.5 
Q 11.09375 3.296875 12.546875 2.09375 
Q 14 0.90625 16.34375 0.453125 
Q 18.703125 0 22 0 
L 28.5 0 
L 28.5 7.5 
L 24.59375 7.5 
Q 22.59375 7.5 21.34375 7.640625 
Q 20.09375 7.796875 19.390625 8.296875 
Q 18.703125 8.796875 18.453125 9.6875 
Q 18.203125 10.59375 18.203125 12.09375 
L 18.203125 44.203125 
L 28.5 44.203125 
L 28.5 51.703125 
z
" id="HelveticaNeue-116"/>
      <path d="M 51 4.40625 
L 51 51.703125 
L 43 51.703125 
L 43 44.296875 
L 42.90625 44.296875 
Q 40.59375 48.59375 36.5 50.75 
Q 32.40625 52.90625 27.5 52.90625 
Q 20.796875 52.90625 16.1875 50.34375 
Q 11.59375 47.796875 8.796875 43.84375 
Q 6 39.90625 4.796875 35.046875 
Q 3.59375 30.203125 3.59375 25.59375 
Q 3.59375 20.296875 5.046875 15.546875 
Q 6.5 10.796875 9.390625 7.25 
Q 12.296875 3.703125 16.59375 1.59375 
Q 20.90625 -0.5 26.703125 -0.5 
Q 31.703125 -0.5 36.140625 1.75 
Q 40.59375 4 42.796875 8.796875 
L 43 8.796875 
L 43 5.40625 
Q 43 1.09375 42.140625 -2.5 
Q 41.296875 -6.09375 39.390625 -8.640625 
Q 37.5 -11.203125 34.59375 -12.640625 
Q 31.703125 -14.09375 27.5 -14.09375 
Q 25.40625 -14.09375 23.09375 -13.640625 
Q 20.796875 -13.203125 18.84375 -12.203125 
Q 16.90625 -11.203125 15.546875 -9.59375 
Q 14.203125 -8 14.09375 -5.703125 
L 5.59375 -5.703125 
Q 5.796875 -9.90625 7.796875 -12.796875 
Q 9.796875 -15.703125 12.84375 -17.5 
Q 15.90625 -19.296875 19.65625 -20.09375 
Q 23.40625 -20.90625 27 -20.90625 
Q 39.40625 -20.90625 45.203125 -14.59375 
Q 51 -8.296875 51 4.40625 
z
M 27.203125 6.90625 
Q 23 6.90625 20.203125 8.65625 
Q 17.40625 10.40625 15.703125 13.25 
Q 14 16.09375 13.296875 19.59375 
Q 12.59375 23.09375 12.59375 26.59375 
Q 12.59375 30.296875 13.4375 33.6875 
Q 14.296875 37.09375 16.140625 39.6875 
Q 18 42.296875 20.890625 43.84375 
Q 23.796875 45.40625 27.90625 45.40625 
Q 31.90625 45.40625 34.703125 43.796875 
Q 37.5 42.203125 39.25 39.546875 
Q 41 36.90625 41.796875 33.59375 
Q 42.59375 30.296875 42.59375 26.90625 
Q 42.59375 23.296875 41.75 19.6875 
Q 40.90625 16.09375 39.09375 13.25 
Q 37.296875 10.40625 34.34375 8.65625 
Q 31.40625 6.90625 27.203125 6.90625 
z
" id="HelveticaNeue-103"/>
     </defs>
     <g transform="translate(253.23875 205.12375)scale(0.08 -0.08)">
      <use xlink:href="#HelveticaNeue-99"/>
      <use x="53.699997" xlink:href="#HelveticaNeue-101"/>
      <use x="107.399994" xlink:href="#HelveticaNeue-110"/>
      <use x="162.999985" xlink:href="#HelveticaNeue-116"/>
      <use x="194.499969" xlink:href="#HelveticaNeue-101"/>
      <use x="248.199966" xlink:href="#HelveticaNeue-114"/>
      <use x="281.484329" xlink:href="#HelveticaNeue-101"/>
      <use x="335.184326" xlink:href="#HelveticaNeue-100"/>
      <use x="394.484314" xlink:href="#HelveticaNeue-32"/>
      <use x="422.284302" xlink:href="#HelveticaNeue-108"/>
      <use x="444.484299" xlink:href="#HelveticaNeue-101"/>
      <use x="498.184296" xlink:href="#HelveticaNeue-103"/>
      <use x="555.58429" xlink:href="#HelveticaNeue-101"/>
      <use x="609.284286" xlink:href="#HelveticaNeue-110"/>
      <use x="664.884277" xlink:href="#HelveticaNeue-100"/>
     </g>
    </g>
    <g id="line2d_169">
     <path d="M 242.87 213.70875 
L 250.87 213.70875 
" style="fill:none;stroke:#23395b;stroke-linecap:square;stroke-width:4;"/>
    </g>
    <g id="line2d_170"/>
    <g id="text_41">
     <!-- a -->
     <g transform="translate(254.87 216.50875)scale(0.08 -0.08)">
      <use xlink:href="#HelveticaNeue-97"/>
     </g>
    </g>
    <g id="line2d_171">
     <path d="M 267.16625 213.70875 
L 275.16625 213.70875 
" style="fill:none;stroke:#d81e5b;stroke-linecap:square;stroke-width:4;"/>
    </g>
    <g id="line2d_172"/>
    <g id="text_42">
     <!-- bb -->
     <g transform="translate(279.16625 216.50875)scale(0.08 -0.08)">
      <use xlink:href="#HelveticaNeue-98"/>
      <use x="59.299988" xlink:href="#HelveticaNeue-98"/>
     </g>
    </g>
    <g id="line2d_173">
     <path d="M 296.65375 213.70875 
L 304.65375 213.70875 
" style="fill:none;stroke:#fffd98;stroke-linecap:square;stroke-width:4;"/>
    </g>
    <g id="line2d_174"/>
    <g id="text_43">
     <!-- ccc -->
     <g transform="translate(308.65375 216.50875)scale(0.08 -0.08)">
      <use xlink:href="#HelveticaNeue-99"/>
      <use x="53.699997" xlink:href="#HelveticaNeue-99"/>
      <use x="107.399994" xlink:href="#HelveticaNeue-99"/>
     </g>
    </g>
   </g>
   <g id="legend_4">
    <g id="line2d_175">
     <path d="M 245.978125 225.12375 
L 253.978125 225.12375 
" style="fill:none;stroke:#b9e3c6;stroke-linecap:square;stroke-width:4;"/>
    </g>
    <g id="line2d_176"/>
    <g id="text_44">
     <!-- dddd -->
     <g transform="translate(257.978125 227.92375)scale(0.08 -0.08)">
      <use xlink:href="#HelveticaNeue-100"/>
      <use x="59.299988" xlink:href="#HelveticaNeue-100"/>
      <use x="118.599976" xlink:href="#HelveticaNeue-100"/>
      <use x="177.899963" xlink:href="#HelveticaNeue-100"/>
     </g>
    </g>
    <g id="line2d_177">
     <path d="M 284.953125 225.12375 
L 292.953125 225.12375 
" style="fill:none;stroke:#59c9a5;stroke-linecap:square;stroke-width:4;"/>
    </g>
    <g id="line2d_178"/>
    <g id="text_45">
     <!-- eeeee -->
     <g transform="translate(296.953125 227.92375)scale(0.08 -0.08)">
      <use xlink:href="#HelveticaNeue-101"/>
      <use x="53.699997" xlink:href="#HelveticaNeue-101"/>
      <use x="107.399994" xlink:href="#HelveticaNeue-101"/>
      <use x="161.099991" xlink:href="#HelveticaNeue-101"/>
      <use x="214.799988" xlink:href="#HelveticaNeue-101"/>
     </g>
    </g>
   </g>
  </g>
  <g id="axes_5">
   <g id="patch_17">
    <path d="M 358.20625 167.83375 
L 370.20625 167.83375 
L 370.20625 23.83375 
L 358.20625 23.83375 
z
" style="fill:none;opacity:0;"/>
   </g>
   <g id="legend_5">
    <g id="text_46">
     <!-- no frame -->
     <defs>
      <path d="M 9.90625 44.203125 
L 9.90625 0 
L 18.40625 0 
L 18.40625 44.203125 
L 28.40625 44.203125 
L 28.40625 51.703125 
L 18.40625 51.703125 
L 18.40625 58.90625 
Q 18.40625 62.296875 20.09375 63.5 
Q 21.796875 64.703125 24.90625 64.703125 
Q 26 64.703125 27.296875 64.546875 
Q 28.59375 64.40625 29.703125 64 
L 29.703125 71.40625 
Q 28.5 71.796875 26.953125 72 
Q 25.40625 72.203125 24.203125 72.203125 
Q 17.203125 72.203125 13.546875 68.953125 
Q 9.90625 65.703125 9.90625 59.40625 
L 9.90625 51.703125 
L 1.203125 51.703125 
L 1.203125 44.203125 
z
" id="HelveticaNeue-102"/>
     </defs>
     <g transform="translate(361.09125 69.68)scale(0.08 -0.08)">
      <use xlink:href="#HelveticaNeue-110"/>
      <use x="55.599991" xlink:href="#HelveticaNeue-111"/>
      <use x="112.999985" xlink:href="#HelveticaNeue-32"/>
      <use x="140.799973" xlink:href="#HelveticaNeue-102"/>
      <use x="170.399963" xlink:href="#HelveticaNeue-114"/>
      <use x="203.699951" xlink:href="#HelveticaNeue-97"/>
      <use x="257.399948" xlink:href="#HelveticaNeue-109"/>
      <use x="342.699936" xlink:href="#HelveticaNeue-101"/>
     </g>
    </g>
    <g id="line2d_179">
     <path d="M 358.20625 78.16875 
L 370.20625 78.16875 
" style="fill:none;stroke:#23395b;stroke-linecap:square;stroke-width:4;"/>
    </g>
    <g id="line2d_180"/>
    <g id="text_47">
     <!-- a -->
     <g transform="translate(374.20625 80.96875)scale(0.08 -0.08)">
      <use xlink:href="#HelveticaNeue-97"/>
     </g>
    </g>
    <g id="line2d_181">
     <path d="M 358.20625 89.4575 
L 370.20625 89.4575 
" style="fill:none;stroke:#d81e5b;stroke-linecap:square;stroke-width:4;"/>
    </g>
    <g id="line2d_182"/>
    <g id="text_48">
     <!-- bb -->
     <g transform="translate(374.20625 92.2575)scale(0.08 -0.08)">
      <use xlink:href="#HelveticaNeue-98"/>
      <use x="59.299988" xlink:href="#HelveticaNeue-98"/>
     </g>
    </g>
    <g id="line2d_183">
     <path d="M 358.20625 100.74625 
L 370.20625 100.74625 
" style="fill:none;stroke:#fffd98;stroke-linecap:square;stroke-width:4;"/>
    </g>
    <g id="line2d_184"/>
    <g id="text_49">
     <!-- ccc -->
     <g transform="translate(374.20625 103.54625)scale(0.08 -0.08)">
      <use xlink:href="#HelveticaNeue-99"/>
      <use x="53.699997" xlink:href="#HelveticaNeue-99"/>
      <use x="107.399994" xlink:href="#HelveticaNeue-99"/>
     </g>
    </g>
    <g id="line2d_185">
     <path d="M 358.20625 112.035 
L 370.20625 112.035 
" style="fill:none;stroke:#b9e3c6;stroke-linecap:square;stroke-width:4;"/>
    </g>
    <g id="line2d_186"/>
    <g id="text_50">
     <!-- dddd -->
     <g transform="translate(374.20625 114.835)scale(0.08 -0.08)">
      <use xlink:href="#HelveticaNeue-100"/>
      <use x="59.299988" xlink:href="#HelveticaNeue-100"/>
      <use x="118.599976" xlink:href="#HelveticaNeue-100"/>
      <use x="177.899963" xlink:href="#HelveticaNeue-100"/>
     </g>
    </g>
    <g id="line2d_187">
     <path d="M 358.20625 123.32375 
L 370.20625 123.32375 
" style="fill:none;stroke:#59c9a5;stroke-linecap:square;stroke-width:4;"/>
    </g>
    <g id="line2d_188"/>
    <g id="text_51">
     <!-- eeeee -->
     <g transform="translate(374.20625 126.12375)scale(0.08 -0.08)">
      <use xlink:href="#HelveticaNeue-101"/>
      <use x="53.699997" xlink:href="#HelveticaNeue-101"/>
      <use x="107.399994" xlink:href="#HelveticaNeue-101"/>
      <use x="161.099991" xlink:href="#HelveticaNeue-101"/>
      <use x="214.799988" xlink:href="#HelveticaNeue-101"/>
     </g>
    </g>
   </g>
  </g>
  <g id="text_52">
   <!-- Legend formatting demo -->
   <defs>
    <path d="M 6.90625 71.40625 
L 6.90625 0 
L 57.40625 0 
L 57.40625 13.203125 
L 22.59375 13.203125 
L 22.59375 71.40625 
z
" id="HelveticaNeue-Bold-76"/>
    <path d="M 40.203125 31.40625 
L 17.09375 31.40625 
Q 17.203125 32.90625 17.75 34.796875 
Q 18.296875 36.703125 19.640625 38.390625 
Q 21 40.09375 23.25 41.25 
Q 25.5 42.40625 28.90625 42.40625 
Q 34.09375 42.40625 36.640625 39.59375 
Q 39.203125 36.796875 40.203125 31.40625 
z
M 17.09375 22.40625 
L 54.40625 22.40625 
Q 54.796875 28.40625 53.390625 33.90625 
Q 52 39.40625 48.84375 43.703125 
Q 45.703125 48 40.796875 50.546875 
Q 35.90625 53.09375 29.296875 53.09375 
Q 23.40625 53.09375 18.546875 51 
Q 13.703125 48.90625 10.203125 45.25 
Q 6.703125 41.59375 4.796875 36.59375 
Q 2.90625 31.59375 2.90625 25.796875 
Q 2.90625 19.796875 4.75 14.796875 
Q 6.59375 9.796875 10 6.1875 
Q 13.40625 2.59375 18.296875 0.640625 
Q 23.203125 -1.296875 29.296875 -1.296875 
Q 38.09375 -1.296875 44.296875 2.703125 
Q 50.5 6.703125 53.5 16 
L 41 16 
Q 40.296875 13.59375 37.1875 11.4375 
Q 34.09375 9.296875 29.796875 9.296875 
Q 23.796875 9.296875 20.59375 12.390625 
Q 17.40625 15.5 17.09375 22.40625 
z
" id="HelveticaNeue-Bold-101"/>
    <path d="M 29.5 12.203125 
Q 26.203125 12.203125 24 13.59375 
Q 21.796875 15 20.4375 17.203125 
Q 19.09375 19.40625 18.546875 22.15625 
Q 18 24.90625 18 27.703125 
Q 18 30.59375 18.640625 33.25 
Q 19.296875 35.90625 20.75 37.953125 
Q 22.203125 40 24.34375 41.203125 
Q 26.5 42.40625 29.5 42.40625 
Q 33 42.40625 35.296875 41.09375 
Q 37.59375 39.796875 39 37.59375 
Q 40.40625 35.40625 41 32.546875 
Q 41.59375 29.703125 41.59375 26.5 
Q 41.59375 23.703125 40.84375 21.140625 
Q 40.09375 18.59375 38.59375 16.59375 
Q 37.09375 14.59375 34.796875 13.390625 
Q 32.5 12.203125 29.5 12.203125 
z
M 55.09375 3.296875 
L 55.09375 51.703125 
L 41.59375 51.703125 
L 41.59375 44.796875 
L 41.40625 44.796875 
Q 38.796875 49.296875 34.9375 51.1875 
Q 31.09375 53.09375 26 53.09375 
Q 20.59375 53.09375 16.4375 51 
Q 12.296875 48.90625 9.5 45.34375 
Q 6.703125 41.796875 5.25 37.140625 
Q 3.796875 32.5 3.796875 27.5 
Q 3.796875 22.203125 5.046875 17.453125 
Q 6.296875 12.703125 9 9.140625 
Q 11.703125 5.59375 15.890625 3.546875 
Q 20.09375 1.5 25.90625 1.5 
Q 30.59375 1.5 34.84375 3.453125 
Q 39.09375 5.40625 41.40625 9.5 
L 41.59375 9.5 
L 41.59375 2.703125 
Q 41.703125 -2.796875 38.953125 -6.390625 
Q 36.203125 -10 30.203125 -10 
Q 26.40625 -10 23.5 -8.453125 
Q 20.59375 -6.90625 19.59375 -2.90625 
L 5.5 -2.90625 
Q 5.796875 -7.296875 7.9375 -10.4375 
Q 10.09375 -13.59375 13.34375 -15.59375 
Q 16.59375 -17.59375 20.546875 -18.546875 
Q 24.5 -19.5 28.296875 -19.5 
Q 37.203125 -19.5 42.5 -17.09375 
Q 47.796875 -14.703125 50.59375 -11.25 
Q 53.40625 -7.796875 54.25 -3.796875 
Q 55.09375 0.203125 55.09375 3.296875 
z
" id="HelveticaNeue-Bold-103"/>
    <path d="M 5.40625 51.703125 
L 5.40625 0 
L 19.59375 0 
L 19.59375 27.09375 
Q 19.59375 35 22.1875 38.453125 
Q 24.796875 41.90625 30.59375 41.90625 
Q 35.703125 41.90625 37.703125 38.75 
Q 39.703125 35.59375 39.703125 29.203125 
L 39.703125 0 
L 53.90625 0 
L 53.90625 31.796875 
Q 53.90625 36.59375 53.046875 40.546875 
Q 52.203125 44.5 50.09375 47.25 
Q 48 50 44.34375 51.546875 
Q 40.703125 53.09375 35 53.09375 
Q 30.5 53.09375 26.203125 51.046875 
Q 21.90625 49 19.203125 44.5 
L 18.90625 44.5 
L 18.90625 51.703125 
z
" id="HelveticaNeue-Bold-110"/>
    <path d="M 42.09375 26 
Q 42.09375 22.796875 41.5 19.796875 
Q 40.90625 16.796875 39.5 14.4375 
Q 38.09375 12.09375 35.75 10.6875 
Q 33.40625 9.296875 29.90625 9.296875 
Q 26.59375 9.296875 24.25 10.75 
Q 21.90625 12.203125 20.34375 14.546875 
Q 18.796875 16.90625 18.09375 19.90625 
Q 17.40625 22.90625 17.40625 25.90625 
Q 17.40625 29.09375 18.046875 32.046875 
Q 18.703125 35 20.140625 37.296875 
Q 21.59375 39.59375 24 41 
Q 26.40625 42.40625 29.90625 42.40625 
Q 33.40625 42.40625 35.703125 41 
Q 38 39.59375 39.453125 37.34375 
Q 40.90625 35.09375 41.5 32.140625 
Q 42.09375 29.203125 42.09375 26 
z
M 42.296875 6.59375 
L 42.296875 0 
L 55.796875 0 
L 55.796875 71.40625 
L 41.59375 71.40625 
L 41.59375 45.40625 
L 41.40625 45.40625 
Q 39 49.203125 34.84375 51.140625 
Q 30.703125 53.09375 26.09375 53.09375 
Q 20.40625 53.09375 16.09375 50.84375 
Q 11.796875 48.59375 8.9375 44.890625 
Q 6.09375 41.203125 4.640625 36.34375 
Q 3.203125 31.5 3.203125 26.296875 
Q 3.203125 20.90625 4.640625 15.90625 
Q 6.09375 10.90625 8.9375 7.046875 
Q 11.796875 3.203125 16.1875 0.953125 
Q 20.59375 -1.296875 26.40625 -1.296875 
Q 31.5 -1.296875 35.546875 0.546875 
Q 39.59375 2.40625 42.09375 6.59375 
z
" id="HelveticaNeue-Bold-100"/>
    <path id="HelveticaNeue-Bold-32"/>
    <path d="M 8.5 42.203125 
L 8.5 0 
L 22.703125 0 
L 22.703125 42.203125 
L 32.5 42.203125 
L 32.5 51.703125 
L 22.703125 51.703125 
L 22.703125 54.796875 
Q 22.703125 58 23.953125 59.34375 
Q 25.203125 60.703125 28.09375 60.703125 
Q 30.796875 60.703125 33.296875 60.40625 
L 33.296875 71 
Q 31.5 71.09375 29.59375 71.25 
Q 27.703125 71.40625 25.796875 71.40625 
Q 17.09375 71.40625 12.796875 67 
Q 8.5 62.59375 8.5 55.703125 
L 8.5 51.703125 
L 0 51.703125 
L 0 42.203125 
z
" id="HelveticaNeue-Bold-102"/>
    <path d="M 18 25.796875 
Q 18 28.90625 18.59375 31.90625 
Q 19.203125 34.90625 20.640625 37.203125 
Q 22.09375 39.5 24.5 40.953125 
Q 26.90625 42.40625 30.5 42.40625 
Q 34.09375 42.40625 36.546875 40.953125 
Q 39 39.5 40.453125 37.203125 
Q 41.90625 34.90625 42.5 31.90625 
Q 43.09375 28.90625 43.09375 25.796875 
Q 43.09375 22.703125 42.5 19.75 
Q 41.90625 16.796875 40.453125 14.4375 
Q 39 12.09375 36.546875 10.6875 
Q 34.09375 9.296875 30.5 9.296875 
Q 26.90625 9.296875 24.5 10.6875 
Q 22.09375 12.09375 20.640625 14.4375 
Q 19.203125 16.796875 18.59375 19.75 
Q 18 22.703125 18 25.796875 
z
M 3.796875 25.796875 
Q 3.796875 19.59375 5.6875 14.59375 
Q 7.59375 9.59375 11.09375 6.046875 
Q 14.59375 2.5 19.5 0.59375 
Q 24.40625 -1.296875 30.5 -1.296875 
Q 36.59375 -1.296875 41.546875 0.59375 
Q 46.5 2.5 50 6.046875 
Q 53.5 9.59375 55.390625 14.59375 
Q 57.296875 19.59375 57.296875 25.796875 
Q 57.296875 32 55.390625 37.046875 
Q 53.5 42.09375 50 45.640625 
Q 46.5 49.203125 41.546875 51.140625 
Q 36.59375 53.09375 30.5 53.09375 
Q 24.40625 53.09375 19.5 51.140625 
Q 14.59375 49.203125 11.09375 45.640625 
Q 7.59375 42.09375 5.6875 37.046875 
Q 3.796875 32 3.796875 25.796875 
z
" id="HelveticaNeue-Bold-111"/>
    <path d="M 5.40625 51.703125 
L 5.40625 0 
L 19.59375 0 
L 19.59375 23.296875 
Q 19.59375 26.796875 20.296875 29.796875 
Q 21 32.796875 22.640625 35.046875 
Q 24.296875 37.296875 27 38.59375 
Q 29.703125 39.90625 33.59375 39.90625 
Q 34.90625 39.90625 36.296875 39.75 
Q 37.703125 39.59375 38.703125 39.40625 
L 38.703125 52.59375 
Q 37 53.09375 35.59375 53.09375 
Q 32.90625 53.09375 30.40625 52.296875 
Q 27.90625 51.5 25.703125 50.046875 
Q 23.5 48.59375 21.796875 46.546875 
Q 20.09375 44.5 19.09375 42.09375 
L 18.90625 42.09375 
L 18.90625 51.703125 
z
" id="HelveticaNeue-Bold-114"/>
    <path d="M 5.796875 51.703125 
L 5.796875 0 
L 20 0 
L 20 30 
Q 20 33.796875 21.09375 36.140625 
Q 22.203125 38.5 23.75 39.75 
Q 25.296875 41 26.9375 41.453125 
Q 28.59375 41.90625 29.59375 41.90625 
Q 33 41.90625 34.75 40.75 
Q 36.5 39.59375 37.25 37.6875 
Q 38 35.796875 38.09375 33.546875 
Q 38.203125 31.296875 38.203125 29 
L 38.203125 0 
L 52.40625 0 
L 52.40625 28.796875 
Q 52.40625 31.203125 52.75 33.546875 
Q 53.09375 35.90625 54.140625 37.75 
Q 55.203125 39.59375 57.046875 40.75 
Q 58.90625 41.90625 61.90625 41.90625 
Q 64.90625 41.90625 66.65625 40.90625 
Q 68.40625 39.90625 69.296875 38.203125 
Q 70.203125 36.5 70.390625 34.203125 
Q 70.59375 31.90625 70.59375 29.296875 
L 70.59375 0 
L 84.796875 0 
L 84.796875 34.59375 
Q 84.796875 39.59375 83.390625 43.140625 
Q 82 46.703125 79.5 48.890625 
Q 77 51.09375 73.5 52.09375 
Q 70 53.09375 65.90625 53.09375 
Q 60.5 53.09375 56.546875 50.5 
Q 52.59375 47.90625 50.296875 44.5 
Q 48.203125 49.296875 44.140625 51.1875 
Q 40.09375 53.09375 35.203125 53.09375 
Q 30.09375 53.09375 26.140625 50.890625 
Q 22.203125 48.703125 19.40625 44.703125 
L 19.203125 44.703125 
L 19.203125 51.703125 
z
" id="HelveticaNeue-Bold-109"/>
    <path d="M 23.40625 51.703125 
L 23.40625 67.203125 
L 9.203125 67.203125 
L 9.203125 51.703125 
L 0.59375 51.703125 
L 0.59375 42.203125 
L 9.203125 42.203125 
L 9.203125 11.703125 
Q 9.203125 7.796875 10.5 5.390625 
Q 11.796875 3 14.046875 1.703125 
Q 16.296875 0.40625 19.25 -0.046875 
Q 22.203125 -0.5 25.5 -0.5 
Q 27.59375 -0.5 29.796875 -0.390625 
Q 32 -0.296875 33.796875 0 
L 33.796875 11 
Q 32.796875 10.796875 31.6875 10.6875 
Q 30.59375 10.59375 29.40625 10.59375 
Q 25.796875 10.59375 24.59375 11.796875 
Q 23.40625 13 23.40625 16.59375 
L 23.40625 42.203125 
L 33.796875 42.203125 
L 33.796875 51.703125 
z
" id="HelveticaNeue-Bold-116"/>
    <path d="M 20 59.703125 
L 20 71.40625 
L 5.796875 71.40625 
L 5.796875 59.703125 
z
M 5.796875 51.703125 
L 5.796875 0 
L 20 0 
L 20 51.703125 
z
" id="HelveticaNeue-Bold-105"/>
   </defs>
   <g transform="translate(142.179241 9.767978)scale(0.09 -0.09)">
    <use xlink:href="#HelveticaNeue-Bold-76"/>
    <use x="59.299988" xlink:href="#HelveticaNeue-Bold-101"/>
    <use x="116.699982" xlink:href="#HelveticaNeue-Bold-103"/>
    <use x="177.799973" xlink:href="#HelveticaNeue-Bold-101"/>
    <use x="235.199966" xlink:href="#HelveticaNeue-Bold-110"/>
    <use x="294.499954" xlink:href="#HelveticaNeue-Bold-100"/>
    <use x="355.599945" xlink:href="#HelveticaNeue-Bold-32"/>
    <use x="383.399933" xlink:href="#HelveticaNeue-Bold-102"/>
    <use x="416.699921" xlink:href="#HelveticaNeue-Bold-111"/>
    <use x="477.799911" xlink:href="#HelveticaNeue-Bold-114"/>
    <use x="516.699905" xlink:href="#HelveticaNeue-Bold-109"/>
    <use x="607.299896" xlink:href="#HelveticaNeue-Bold-97"/>
    <use x="664.69989" xlink:href="#HelveticaNeue-Bold-116"/>
    <use x="699.899887" xlink:href="#HelveticaNeue-Bold-116"/>
    <use x="735.099884" xlink:href="#HelveticaNeue-Bold-105"/>
    <use x="760.899872" xlink:href="#HelveticaNeue-Bold-110"/>
    <use x="820.19986" xlink:href="#HelveticaNeue-Bold-103"/>
    <use x="881.29985" xlink:href="#HelveticaNeue-Bold-32"/>
    <use x="909.099838" xlink:href="#HelveticaNeue-Bold-100"/>
    <use x="970.199829" xlink:href="#HelveticaNeue-Bold-101"/>
    <use x="1027.599823" xlink:href="#HelveticaNeue-Bold-109"/>
    <use x="1118.199814" xlink:href="#HelveticaNeue-Bold-111"/>
   </g>
  </g>
 </g>
 <defs>
  <clipPath id="pffca64f31a">
   <rect height="144" width="144" x="36.2875" y="23.83375"/>
  </clipPath>
  <clipPath id="p147a76f225">
   <rect height="144" width="144" x="210.20625" y="23.83375"/>
  </clipPath>
 </defs>
</svg>
