<?xml version="1.0" encoding="utf-8" standalone="no"?>
<!DOCTYPE svg PUBLIC "-//W3C//DTD SVG 1.1//EN"
  "http://www.w3.org/Graphics/SVG/1.1/DTD/svg11.dtd">
<!-- Created with matplotlib (https://matplotlib.org/) -->
<svg height="195.5pt" version="1.1" viewBox="0 0 342.45 195.5" width="342.45pt" xmlns="http://www.w3.org/2000/svg" xmlns:xlink="http://www.w3.org/1999/xlink">
 <defs>
  <style type="text/css">
*{stroke-linecap:butt;stroke-linejoin:round;}
  </style>
 </defs>
 <g id="figure_1">
  <g id="patch_1">
   <path d="M 0 195.5 
L 342.45 195.5 
L 342.45 0 
L 0 0 
z
" style="fill:#f2f2f2;"/>
  </g>
  <g id="axes_1">
   <g id="patch_2">
    <path d="M 36.2 168.1 
L 180.2 168.1 
L 180.2 24.1 
L 36.2 24.1 
z
" style="fill:#ffffff;"/>
   </g>
   <g id="matplotlib.axis_1">
    <g id="xtick_1">
     <g id="line2d_1">
      <path clip-path="url(#pfc81bca3d5)" d="M 36.2 168.1 
L 36.2 24.1 
" style="fill:none;stroke:#000000;stroke-linecap:square;stroke-opacity:0.1;stroke-width:0.6;"/>
     </g>
     <g id="line2d_2">
      <defs>
       <path d="M 0 0 
L 0 4 
" id="m7ee65ed9e9" style="stroke:#000000;stroke-width:0.6;"/>
      </defs>
      <g>
       <use style="stroke:#000000;stroke-width:0.6;" x="36.2" xlink:href="#m7ee65ed9e9" y="168.1"/>
      </g>
     </g>
     <g id="text_1">
      <!-- 0 -->
      <defs>
       <path d="M 13.203125 34.90625 
Q 13.203125 37.5 13.25 40.640625 
Q 13.296875 43.796875 13.75 46.9375 
Q 14.203125 50.09375 15.046875 53.09375 
Q 15.90625 56.09375 17.546875 58.34375 
Q 19.203125 60.59375 21.703125 62 
Q 24.203125 63.40625 27.796875 63.40625 
Q 31.40625 63.40625 33.90625 62 
Q 36.40625 60.59375 38.046875 58.34375 
Q 39.703125 56.09375 40.546875 53.09375 
Q 41.40625 50.09375 41.84375 46.9375 
Q 42.296875 43.796875 42.34375 40.640625 
Q 42.40625 37.5 42.40625 34.90625 
Q 42.40625 30.90625 42.15625 25.953125 
Q 41.90625 21 40.546875 16.640625 
Q 39.203125 12.296875 36.203125 9.296875 
Q 33.203125 6.296875 27.796875 6.296875 
Q 22.40625 6.296875 19.40625 9.296875 
Q 16.40625 12.296875 15.046875 16.640625 
Q 13.703125 21 13.453125 25.953125 
Q 13.203125 30.90625 13.203125 34.90625 
z
M 4.203125 34.796875 
Q 4.203125 30.90625 4.390625 26.703125 
Q 4.59375 22.5 5.390625 18.5 
Q 6.203125 14.5 7.703125 10.953125 
Q 9.203125 7.40625 11.796875 4.703125 
Q 14.40625 2 18.34375 0.453125 
Q 22.296875 -1.09375 27.796875 -1.09375 
Q 33.40625 -1.09375 37.296875 0.453125 
Q 41.203125 2 43.796875 4.703125 
Q 46.40625 7.40625 47.90625 10.953125 
Q 49.40625 14.5 50.203125 18.5 
Q 51 22.5 51.203125 26.703125 
Q 51.40625 30.90625 51.40625 34.796875 
Q 51.40625 38.703125 51.203125 42.890625 
Q 51 47.09375 50.203125 51.09375 
Q 49.40625 55.09375 47.90625 58.6875 
Q 46.40625 62.296875 43.796875 65 
Q 41.203125 67.703125 37.25 69.296875 
Q 33.296875 70.90625 27.796875 70.90625 
Q 22.296875 70.90625 18.34375 69.296875 
Q 14.40625 67.703125 11.796875 65 
Q 9.203125 62.296875 7.703125 58.6875 
Q 6.203125 55.09375 5.390625 51.09375 
Q 4.59375 47.09375 4.390625 42.890625 
Q 4.203125 38.703125 4.203125 34.796875 
z
" id="HelveticaNeue-48"/>
      </defs>
      <g transform="translate(33.97625 179.8125)scale(0.08 -0.08)">
       <use xlink:href="#HelveticaNeue-48"/>
      </g>
     </g>
    </g>
    <g id="xtick_2">
     <g id="line2d_3">
      <path clip-path="url(#pfc81bca3d5)" d="M 65.290909 168.1 
L 65.290909 24.1 
" style="fill:none;stroke:#000000;stroke-linecap:square;stroke-opacity:0.1;stroke-width:0.6;"/>
     </g>
     <g id="line2d_4">
      <g>
       <use style="stroke:#000000;stroke-width:0.6;" x="65.290909" xlink:href="#m7ee65ed9e9" y="168.1"/>
      </g>
     </g>
     <g id="text_2">
      <!-- 20 -->
      <defs>
       <path d="M 4.40625 45.796875 
L 12.90625 45.796875 
Q 12.796875 49 13.546875 52.140625 
Q 14.296875 55.296875 16 57.796875 
Q 17.703125 60.296875 20.34375 61.84375 
Q 23 63.40625 26.703125 63.40625 
Q 29.5 63.40625 32 62.5 
Q 34.5 61.59375 36.34375 59.890625 
Q 38.203125 58.203125 39.296875 55.84375 
Q 40.40625 53.5 40.40625 50.59375 
Q 40.40625 46.90625 39.25 44.09375 
Q 38.09375 41.296875 35.84375 38.890625 
Q 33.59375 36.5 30.1875 34.140625 
Q 26.796875 31.796875 22.296875 29 
Q 18.59375 26.796875 15.1875 24.296875 
Q 11.796875 21.796875 9.09375 18.5 
Q 6.40625 15.203125 4.65625 10.75 
Q 2.90625 6.296875 2.40625 0 
L 48.703125 0 
L 48.703125 7.5 
L 12.296875 7.5 
Q 12.90625 10.796875 14.84375 13.34375 
Q 16.796875 15.90625 19.546875 18.09375 
Q 22.296875 20.296875 25.59375 22.25 
Q 28.90625 24.203125 32.203125 26.203125 
Q 35.5 28.296875 38.59375 30.59375 
Q 41.703125 32.90625 44.09375 35.75 
Q 46.5 38.59375 47.953125 42.1875 
Q 49.40625 45.796875 49.40625 50.5 
Q 49.40625 55.5 47.65625 59.296875 
Q 45.90625 63.09375 42.90625 65.640625 
Q 39.90625 68.203125 35.84375 69.546875 
Q 31.796875 70.90625 27.203125 70.90625 
Q 21.59375 70.90625 17.1875 69 
Q 12.796875 67.09375 9.84375 63.75 
Q 6.90625 60.40625 5.5 55.796875 
Q 4.09375 51.203125 4.40625 45.796875 
z
" id="HelveticaNeue-50"/>
      </defs>
      <g transform="translate(60.843409 179.8125)scale(0.08 -0.08)">
       <use xlink:href="#HelveticaNeue-50"/>
       <use x="55.599991" xlink:href="#HelveticaNeue-48"/>
      </g>
     </g>
    </g>
    <g id="xtick_3">
     <g id="line2d_5">
      <path clip-path="url(#pfc81bca3d5)" d="M 94.381818 168.1 
L 94.381818 24.1 
" style="fill:none;stroke:#000000;stroke-linecap:square;stroke-opacity:0.1;stroke-width:0.6;"/>
     </g>
     <g id="line2d_6">
      <g>
       <use style="stroke:#000000;stroke-width:0.6;" x="94.381818" xlink:href="#m7ee65ed9e9" y="168.1"/>
      </g>
     </g>
     <g id="text_3">
      <!-- 40 -->
      <defs>
       <path d="M 33.90625 24.09375 
L 10.09375 24.09375 
L 33.703125 58.796875 
L 33.90625 58.796875 
z
M 41.90625 24.09375 
L 41.90625 70.90625 
L 35.09375 70.90625 
L 2.796875 24.796875 
L 2.796875 16.59375 
L 33.90625 16.59375 
L 33.90625 0 
L 41.90625 0 
L 41.90625 16.59375 
L 51.5 16.59375 
L 51.5 24.09375 
z
" id="HelveticaNeue-52"/>
      </defs>
      <g transform="translate(89.934318 179.8125)scale(0.08 -0.08)">
       <use xlink:href="#HelveticaNeue-52"/>
       <use x="55.599991" xlink:href="#HelveticaNeue-48"/>
      </g>
     </g>
    </g>
    <g id="xtick_4">
     <g id="line2d_7">
      <path clip-path="url(#pfc81bca3d5)" d="M 123.472727 168.1 
L 123.472727 24.1 
" style="fill:none;stroke:#000000;stroke-linecap:square;stroke-opacity:0.1;stroke-width:0.6;"/>
     </g>
     <g id="line2d_8">
      <g>
       <use style="stroke:#000000;stroke-width:0.6;" x="123.472727" xlink:href="#m7ee65ed9e9" y="168.1"/>
      </g>
     </g>
     <g id="text_4">
      <!-- 60 -->
      <defs>
       <path d="M 41.40625 52.796875 
L 49.90625 52.796875 
Q 49.09375 61.59375 43.890625 66.25 
Q 38.703125 70.90625 29.90625 70.90625 
Q 22.296875 70.90625 17.296875 67.703125 
Q 12.296875 64.5 9.296875 59.203125 
Q 6.296875 53.90625 5.046875 47.046875 
Q 3.796875 40.203125 3.796875 32.90625 
Q 3.796875 27.296875 4.640625 21.296875 
Q 5.5 15.296875 8.09375 10.296875 
Q 10.703125 5.296875 15.5 2.09375 
Q 20.296875 -1.09375 28.203125 -1.09375 
Q 34.90625 -1.09375 39.453125 1.15625 
Q 44 3.40625 46.75 6.84375 
Q 49.5 10.296875 50.703125 14.5 
Q 51.90625 18.703125 51.90625 22.59375 
Q 51.90625 27.5 50.40625 31.703125 
Q 48.90625 35.90625 46.15625 39 
Q 43.40625 42.09375 39.34375 43.84375 
Q 35.296875 45.59375 30.203125 45.59375 
Q 24.40625 45.59375 19.953125 43.390625 
Q 15.5 41.203125 12.5 36.296875 
L 12.296875 36.5 
Q 12.40625 40.59375 13.09375 45.296875 
Q 13.796875 50 15.640625 54.046875 
Q 17.5 58.09375 20.796875 60.75 
Q 24.09375 63.40625 29.5 63.40625 
Q 34.59375 63.40625 37.6875 60.5 
Q 40.796875 57.59375 41.40625 52.796875 
z
M 28.59375 38.09375 
Q 32.203125 38.09375 34.890625 36.796875 
Q 37.59375 35.5 39.390625 33.34375 
Q 41.203125 31.203125 42.046875 28.25 
Q 42.90625 25.296875 42.90625 22 
Q 42.90625 18.90625 41.953125 16.046875 
Q 41 13.203125 39.203125 11 
Q 37.40625 8.796875 34.75 7.546875 
Q 32.09375 6.296875 28.59375 6.296875 
Q 25.09375 6.296875 22.34375 7.546875 
Q 19.59375 8.796875 17.75 10.890625 
Q 15.90625 13 14.90625 15.890625 
Q 13.90625 18.796875 13.90625 22.09375 
Q 13.90625 25.40625 14.84375 28.34375 
Q 15.796875 31.296875 17.6875 33.4375 
Q 19.59375 35.59375 22.296875 36.84375 
Q 25 38.09375 28.59375 38.09375 
z
" id="HelveticaNeue-54"/>
      </defs>
      <g transform="translate(119.025227 179.8125)scale(0.08 -0.08)">
       <use xlink:href="#HelveticaNeue-54"/>
       <use x="55.599991" xlink:href="#HelveticaNeue-48"/>
      </g>
     </g>
    </g>
    <g id="xtick_5">
     <g id="line2d_9">
      <path clip-path="url(#pfc81bca3d5)" d="M 152.563636 168.1 
L 152.563636 24.1 
" style="fill:none;stroke:#000000;stroke-linecap:square;stroke-opacity:0.1;stroke-width:0.6;"/>
     </g>
     <g id="line2d_10">
      <g>
       <use style="stroke:#000000;stroke-width:0.6;" x="152.563636" xlink:href="#m7ee65ed9e9" y="168.1"/>
      </g>
     </g>
     <g id="text_5">
      <!-- 80 -->
      <defs>
       <path d="M 15.5 52.5 
Q 15.5 55.203125 16.5 57.203125 
Q 17.5 59.203125 19.140625 60.59375 
Q 20.796875 62 23.09375 62.703125 
Q 25.40625 63.40625 27.90625 63.40625 
Q 33.09375 63.40625 36.4375 60.65625 
Q 39.796875 57.90625 39.796875 52.5 
Q 39.796875 47.09375 36.5 44.09375 
Q 33.203125 41.09375 28.09375 41.09375 
Q 25.5 41.09375 23.203125 41.796875 
Q 20.90625 42.5 19.203125 43.890625 
Q 17.5 45.296875 16.5 47.4375 
Q 15.5 49.59375 15.5 52.5 
z
M 6.5 52.796875 
Q 6.5 48 9.203125 43.953125 
Q 11.90625 39.90625 16.40625 38.09375 
Q 10.40625 36 7.203125 31.34375 
Q 4 26.703125 4 20.40625 
Q 4 15 5.84375 10.953125 
Q 7.703125 6.90625 10.953125 4.203125 
Q 14.203125 1.5 18.59375 0.203125 
Q 23 -1.09375 28.09375 -1.09375 
Q 33 -1.09375 37.296875 0.296875 
Q 41.59375 1.703125 44.75 4.453125 
Q 47.90625 7.203125 49.75 11.203125 
Q 51.59375 15.203125 51.59375 20.40625 
Q 51.59375 27 48.5 31.546875 
Q 45.40625 36.09375 39 38.09375 
Q 43.5 40.09375 46.140625 44.046875 
Q 48.796875 48 48.796875 52.796875 
Q 48.796875 56.203125 47.59375 59.453125 
Q 46.40625 62.703125 43.84375 65.25 
Q 41.296875 67.796875 37.1875 69.34375 
Q 33.09375 70.90625 27.296875 70.90625 
Q 23.203125 70.90625 19.453125 69.703125 
Q 15.703125 68.5 12.796875 66.203125 
Q 9.90625 63.90625 8.203125 60.546875 
Q 6.5 57.203125 6.5 52.796875 
z
M 13 20 
Q 13 23.09375 14.140625 25.59375 
Q 15.296875 28.09375 17.34375 29.890625 
Q 19.40625 31.703125 22.15625 32.640625 
Q 24.90625 33.59375 28 33.59375 
Q 31 33.59375 33.640625 32.546875 
Q 36.296875 31.5 38.296875 29.703125 
Q 40.296875 27.90625 41.4375 25.453125 
Q 42.59375 23 42.59375 20.09375 
Q 42.59375 17.09375 41.546875 14.59375 
Q 40.5 12.09375 38.546875 10.25 
Q 36.59375 8.40625 33.9375 7.34375 
Q 31.296875 6.296875 28.09375 6.296875 
Q 21.5 6.296875 17.25 9.9375 
Q 13 13.59375 13 20 
z
" id="HelveticaNeue-56"/>
      </defs>
      <g transform="translate(148.116136 179.8125)scale(0.08 -0.08)">
       <use xlink:href="#HelveticaNeue-56"/>
       <use x="55.599991" xlink:href="#HelveticaNeue-48"/>
      </g>
     </g>
    </g>
    <g id="text_6">
     <!-- x axis -->
     <defs>
      <path d="M 20.296875 27.203125 
L 0.90625 0 
L 11.203125 0 
L 25.59375 21.40625 
L 40 0 
L 50.90625 0 
L 30.90625 27.90625 
L 48.703125 51.703125 
L 38.5 51.703125 
L 25.59375 33.59375 
L 13.203125 51.703125 
L 2.296875 51.703125 
z
" id="HelveticaNeue-120"/>
      <path id="HelveticaNeue-32"/>
      <path d="M 52.203125 0.203125 
Q 50 -1.09375 46.09375 -1.09375 
Q 42.796875 -1.09375 40.84375 0.75 
Q 38.90625 2.59375 38.90625 6.796875 
Q 35.40625 2.59375 30.75 0.75 
Q 26.09375 -1.09375 20.703125 -1.09375 
Q 17.203125 -1.09375 14.046875 -0.296875 
Q 10.90625 0.5 8.59375 2.203125 
Q 6.296875 3.90625 4.9375 6.65625 
Q 3.59375 9.40625 3.59375 13.296875 
Q 3.59375 17.703125 5.09375 20.5 
Q 6.59375 23.296875 9.046875 25.046875 
Q 11.5 26.796875 14.640625 27.6875 
Q 17.796875 28.59375 21.09375 29.203125 
Q 24.59375 29.90625 27.75 30.25 
Q 30.90625 30.59375 33.296875 31.25 
Q 35.703125 31.90625 37.09375 33.15625 
Q 38.5 34.40625 38.5 36.796875 
Q 38.5 39.59375 37.453125 41.296875 
Q 36.40625 43 34.75 43.890625 
Q 33.09375 44.796875 31.046875 45.09375 
Q 29 45.40625 27 45.40625 
Q 21.59375 45.40625 18 43.34375 
Q 14.40625 41.296875 14.09375 35.59375 
L 5.59375 35.59375 
Q 5.796875 40.40625 7.59375 43.703125 
Q 9.40625 47 12.40625 49.046875 
Q 15.40625 51.09375 19.25 52 
Q 23.09375 52.90625 27.5 52.90625 
Q 31 52.90625 34.453125 52.40625 
Q 37.90625 51.90625 40.703125 50.34375 
Q 43.5 48.796875 45.203125 46 
Q 46.90625 43.203125 46.90625 38.703125 
L 46.90625 12.09375 
Q 46.90625 9.09375 47.25 7.6875 
Q 47.59375 6.296875 49.59375 6.296875 
Q 50.703125 6.296875 52.203125 6.796875 
z
M 38.40625 26.703125 
Q 36.796875 25.5 34.1875 24.953125 
Q 31.59375 24.40625 28.75 24.046875 
Q 25.90625 23.703125 23 23.25 
Q 20.09375 22.796875 17.796875 21.796875 
Q 15.5 20.796875 14.046875 18.9375 
Q 12.59375 17.09375 12.59375 13.90625 
Q 12.59375 11.796875 13.4375 10.34375 
Q 14.296875 8.90625 15.640625 8 
Q 17 7.09375 18.796875 6.6875 
Q 20.59375 6.296875 22.59375 6.296875 
Q 26.796875 6.296875 29.796875 7.4375 
Q 32.796875 8.59375 34.6875 10.34375 
Q 36.59375 12.09375 37.5 14.140625 
Q 38.40625 16.203125 38.40625 18 
z
" id="HelveticaNeue-97"/>
      <path d="M 15.40625 61 
L 15.40625 71.40625 
L 6.90625 71.40625 
L 6.90625 61 
z
M 6.90625 51.703125 
L 6.90625 0 
L 15.40625 0 
L 15.40625 51.703125 
z
" id="HelveticaNeue-105"/>
      <path d="M 11.59375 16.296875 
L 3.09375 16.296875 
Q 3.296875 11.5 5.09375 8.140625 
Q 6.90625 4.796875 9.90625 2.75 
Q 12.90625 0.703125 16.796875 -0.1875 
Q 20.703125 -1.09375 25 -1.09375 
Q 28.90625 -1.09375 32.84375 -0.34375 
Q 36.796875 0.40625 39.9375 2.296875 
Q 43.09375 4.203125 45.046875 7.296875 
Q 47 10.40625 47 15.09375 
Q 47 18.796875 45.546875 21.296875 
Q 44.09375 23.796875 41.75 25.4375 
Q 39.40625 27.09375 36.34375 28.09375 
Q 33.296875 29.09375 30.09375 29.796875 
Q 27.09375 30.5 24.09375 31.140625 
Q 21.09375 31.796875 18.6875 32.75 
Q 16.296875 33.703125 14.75 35.140625 
Q 13.203125 36.59375 13.203125 38.796875 
Q 13.203125 40.796875 14.203125 42.046875 
Q 15.203125 43.296875 16.796875 44.046875 
Q 18.40625 44.796875 20.34375 45.09375 
Q 22.296875 45.40625 24.203125 45.40625 
Q 26.296875 45.40625 28.34375 44.953125 
Q 30.40625 44.5 32.09375 43.5 
Q 33.796875 42.5 34.890625 40.84375 
Q 36 39.203125 36.203125 36.703125 
L 44.703125 36.703125 
Q 44.40625 41.40625 42.703125 44.546875 
Q 41 47.703125 38.140625 49.546875 
Q 35.296875 51.40625 31.59375 52.15625 
Q 27.90625 52.90625 23.5 52.90625 
Q 20.09375 52.90625 16.640625 52.046875 
Q 13.203125 51.203125 10.453125 49.453125 
Q 7.703125 47.703125 5.953125 44.890625 
Q 4.203125 42.09375 4.203125 38.203125 
Q 4.203125 33.203125 6.703125 30.390625 
Q 9.203125 27.59375 12.953125 26.046875 
Q 16.703125 24.5 21.09375 23.640625 
Q 25.5 22.796875 29.25 21.75 
Q 33 20.703125 35.5 19 
Q 38 17.296875 38 14 
Q 38 11.59375 36.796875 10.046875 
Q 35.59375 8.5 33.75 7.703125 
Q 31.90625 6.90625 29.703125 6.59375 
Q 27.5 6.296875 25.5 6.296875 
Q 22.90625 6.296875 20.453125 6.796875 
Q 18 7.296875 16.046875 8.4375 
Q 14.09375 9.59375 12.890625 11.546875 
Q 11.703125 13.5 11.59375 16.296875 
z
" id="HelveticaNeue-115"/>
     </defs>
     <g transform="translate(175.908125 190.10125)scale(0.08 -0.08)">
      <use xlink:href="#HelveticaNeue-120"/>
      <use x="51.799988" xlink:href="#HelveticaNeue-32"/>
      <use x="79.599976" xlink:href="#HelveticaNeue-97"/>
      <use x="133.299973" xlink:href="#HelveticaNeue-120"/>
      <use x="185.09996" xlink:href="#HelveticaNeue-105"/>
      <use x="207.299957" xlink:href="#HelveticaNeue-115"/>
     </g>
    </g>
   </g>
   <g id="matplotlib.axis_2">
    <g id="ytick_1">
     <g id="line2d_11">
      <path clip-path="url(#pfc81bca3d5)" d="M 36.2 149.210725 
L 180.2 149.210725 
" style="fill:none;stroke:#000000;stroke-linecap:square;stroke-opacity:0.1;stroke-width:0.6;"/>
     </g>
     <g id="line2d_12">
      <defs>
       <path d="M 0 0 
L -4 0 
" id="m34d2be6f29" style="stroke:#000000;stroke-width:0.6;"/>
      </defs>
      <g>
       <use style="stroke:#000000;stroke-width:0.6;" x="36.2" xlink:href="#m34d2be6f29" y="149.210725"/>
      </g>
     </g>
     <g id="text_7">
      <!-- −5 -->
      <defs>
       <path d="M 4.796875 28.703125 
L 4.796875 21.90625 
L 55.203125 21.90625 
L 55.203125 28.703125 
z
" id="HelveticaNeue-8722"/>
       <path d="M 47 62.203125 
L 47 69.703125 
L 12 69.703125 
L 5.40625 32.90625 
L 12.703125 32.5 
Q 15.203125 35.5 18.453125 37.34375 
Q 21.703125 39.203125 25.90625 39.203125 
Q 29.5 39.203125 32.453125 38 
Q 35.40625 36.796875 37.5 34.640625 
Q 39.59375 32.5 40.75 29.546875 
Q 41.90625 26.59375 41.90625 23.09375 
Q 41.90625 18.90625 40.703125 15.75 
Q 39.5 12.59375 37.453125 10.5 
Q 35.40625 8.40625 32.65625 7.34375 
Q 29.90625 6.296875 26.90625 6.296875 
Q 23.703125 6.296875 21.046875 7.25 
Q 18.40625 8.203125 16.453125 9.953125 
Q 14.5 11.703125 13.34375 14.046875 
Q 12.203125 16.40625 12 19.09375 
L 3.5 19.09375 
Q 3.59375 14.296875 5.390625 10.5 
Q 7.203125 6.703125 10.296875 4.140625 
Q 13.40625 1.59375 17.453125 0.25 
Q 21.5 -1.09375 26.09375 -1.09375 
Q 32.296875 -1.09375 36.9375 0.84375 
Q 41.59375 2.796875 44.6875 6.09375 
Q 47.796875 9.40625 49.34375 13.65625 
Q 50.90625 17.90625 50.90625 22.40625 
Q 50.90625 28.5 49.09375 33.046875 
Q 47.296875 37.59375 44.1875 40.640625 
Q 41.09375 43.703125 36.890625 45.203125 
Q 32.703125 46.703125 28 46.703125 
Q 24.40625 46.703125 20.75 45.453125 
Q 17.09375 44.203125 14.796875 41.59375 
L 14.59375 41.796875 
L 18.40625 62.203125 
z
" id="HelveticaNeue-53"/>
      </defs>
      <g transform="translate(20.9525 152.066975)scale(0.08 -0.08)">
       <use xlink:href="#HelveticaNeue-8722"/>
       <use x="59.999985" xlink:href="#HelveticaNeue-53"/>
      </g>
     </g>
    </g>
    <g id="ytick_2">
     <g id="line2d_13">
      <path clip-path="url(#pfc81bca3d5)" d="M 36.2 129.452112 
L 180.2 129.452112 
" style="fill:none;stroke:#000000;stroke-linecap:square;stroke-opacity:0.1;stroke-width:0.6;"/>
     </g>
     <g id="line2d_14">
      <g>
       <use style="stroke:#000000;stroke-width:0.6;" x="36.2" xlink:href="#m34d2be6f29" y="129.452112"/>
      </g>
     </g>
     <g id="text_8">
      <!-- −2.5 -->
      <defs>
       <path d="M 8.296875 11.09375 
L 8.296875 0 
L 19.40625 0 
L 19.40625 11.09375 
z
" id="HelveticaNeue-46"/>
      </defs>
      <g transform="translate(14.28125 132.308362)scale(0.08 -0.08)">
       <use xlink:href="#HelveticaNeue-8722"/>
       <use x="59.999985" xlink:href="#HelveticaNeue-50"/>
       <use x="115.599976" xlink:href="#HelveticaNeue-46"/>
       <use x="143.399963" xlink:href="#HelveticaNeue-53"/>
      </g>
     </g>
    </g>
    <g id="ytick_3">
     <g id="line2d_15">
      <path clip-path="url(#pfc81bca3d5)" d="M 36.2 109.693498 
L 180.2 109.693498 
" style="fill:none;stroke:#000000;stroke-linecap:square;stroke-opacity:0.1;stroke-width:0.6;"/>
     </g>
     <g id="line2d_16">
      <g>
       <use style="stroke:#000000;stroke-width:0.6;" x="36.2" xlink:href="#m34d2be6f29" y="109.693498"/>
      </g>
     </g>
     <g id="text_9">
      <!-- 0 -->
      <g transform="translate(25.7525 112.549748)scale(0.08 -0.08)">
       <use xlink:href="#HelveticaNeue-48"/>
      </g>
     </g>
    </g>
    <g id="ytick_4">
     <g id="line2d_17">
      <path clip-path="url(#pfc81bca3d5)" d="M 36.2 89.934885 
L 180.2 89.934885 
" style="fill:none;stroke:#000000;stroke-linecap:square;stroke-opacity:0.1;stroke-width:0.6;"/>
     </g>
     <g id="line2d_18">
      <g>
       <use style="stroke:#000000;stroke-width:0.6;" x="36.2" xlink:href="#m34d2be6f29" y="89.934885"/>
      </g>
     </g>
     <g id="text_10">
      <!-- 2.5 -->
      <g transform="translate(19.08125 92.791135)scale(0.08 -0.08)">
       <use xlink:href="#HelveticaNeue-50"/>
       <use x="55.599991" xlink:href="#HelveticaNeue-46"/>
       <use x="83.399979" xlink:href="#HelveticaNeue-53"/>
      </g>
     </g>
    </g>
    <g id="ytick_5">
     <g id="line2d_19">
      <path clip-path="url(#pfc81bca3d5)" d="M 36.2 70.176272 
L 180.2 70.176272 
" style="fill:none;stroke:#000000;stroke-linecap:square;stroke-opacity:0.1;stroke-width:0.6;"/>
     </g>
     <g id="line2d_20">
      <g>
       <use style="stroke:#000000;stroke-width:0.6;" x="36.2" xlink:href="#m34d2be6f29" y="70.176272"/>
      </g>
     </g>
     <g id="text_11">
      <!-- 5 -->
      <g transform="translate(25.7525 73.032522)scale(0.08 -0.08)">
       <use xlink:href="#HelveticaNeue-53"/>
      </g>
     </g>
    </g>
    <g id="ytick_6">
     <g id="line2d_21">
      <path clip-path="url(#pfc81bca3d5)" d="M 36.2 50.417658 
L 180.2 50.417658 
" style="fill:none;stroke:#000000;stroke-linecap:square;stroke-opacity:0.1;stroke-width:0.6;"/>
     </g>
     <g id="line2d_22">
      <g>
       <use style="stroke:#000000;stroke-width:0.6;" x="36.2" xlink:href="#m34d2be6f29" y="50.417658"/>
      </g>
     </g>
     <g id="text_12">
      <!-- 7.5 -->
      <defs>
       <path d="M 50.90625 62.40625 
L 50.90625 69.703125 
L 5 69.703125 
L 5 61.703125 
L 42.203125 61.703125 
Q 36.59375 55.796875 31.75 48.796875 
Q 26.90625 41.796875 23.203125 33.9375 
Q 19.5 26.09375 17.140625 17.546875 
Q 14.796875 9 14.203125 0 
L 23.703125 0 
Q 24.203125 8.296875 26.5 17.09375 
Q 28.796875 25.90625 32.4375 34.203125 
Q 36.09375 42.5 40.796875 49.796875 
Q 45.5 57.09375 50.90625 62.40625 
z
" id="HelveticaNeue-55"/>
      </defs>
      <g transform="translate(19.08125 53.273908)scale(0.08 -0.08)">
       <use xlink:href="#HelveticaNeue-55"/>
       <use x="55.599991" xlink:href="#HelveticaNeue-46"/>
       <use x="83.399979" xlink:href="#HelveticaNeue-53"/>
      </g>
     </g>
    </g>
    <g id="ytick_7">
     <g id="line2d_23">
      <path clip-path="url(#pfc81bca3d5)" d="M 36.2 30.659045 
L 180.2 30.659045 
" style="fill:none;stroke:#000000;stroke-linecap:square;stroke-opacity:0.1;stroke-width:0.6;"/>
     </g>
     <g id="line2d_24">
      <g>
       <use style="stroke:#000000;stroke-width:0.6;" x="36.2" xlink:href="#m34d2be6f29" y="30.659045"/>
      </g>
     </g>
     <g id="text_13">
      <!-- 10 -->
      <defs>
       <path d="M 35.59375 0 
L 35.59375 70.90625 
L 29.09375 70.90625 
Q 28.40625 66.90625 26.5 64.296875 
Q 24.59375 61.703125 21.84375 60.203125 
Q 19.09375 58.703125 15.6875 58.140625 
Q 12.296875 57.59375 8.703125 57.59375 
L 8.703125 50.796875 
L 27.09375 50.796875 
L 27.09375 0 
z
" id="HelveticaNeue-49"/>
      </defs>
      <g transform="translate(21.305 33.515295)scale(0.08 -0.08)">
       <use xlink:href="#HelveticaNeue-49"/>
       <use x="55.599991" xlink:href="#HelveticaNeue-48"/>
      </g>
     </g>
    </g>
    <g id="ytick_8">
     <g id="line2d_25">
      <defs>
       <path d="M 0 0 
L -2 0 
" id="m4c42087a11" style="stroke:#000000;stroke-width:0.48;"/>
      </defs>
      <g>
       <use style="stroke:#000000;stroke-width:0.48;" x="36.2" xlink:href="#m4c42087a11" y="165.017616"/>
      </g>
     </g>
    </g>
    <g id="ytick_9">
     <g id="line2d_26">
      <g>
       <use style="stroke:#000000;stroke-width:0.48;" x="36.2" xlink:href="#m4c42087a11" y="161.065893"/>
      </g>
     </g>
    </g>
    <g id="ytick_10">
     <g id="line2d_27">
      <g>
       <use style="stroke:#000000;stroke-width:0.48;" x="36.2" xlink:href="#m4c42087a11" y="157.11417"/>
      </g>
     </g>
    </g>
    <g id="ytick_11">
     <g id="line2d_28">
      <g>
       <use style="stroke:#000000;stroke-width:0.48;" x="36.2" xlink:href="#m4c42087a11" y="153.162448"/>
      </g>
     </g>
    </g>
    <g id="ytick_12">
     <g id="line2d_29">
      <g>
       <use style="stroke:#000000;stroke-width:0.48;" x="36.2" xlink:href="#m4c42087a11" y="145.259002"/>
      </g>
     </g>
    </g>
    <g id="ytick_13">
     <g id="line2d_30">
      <g>
       <use style="stroke:#000000;stroke-width:0.48;" x="36.2" xlink:href="#m4c42087a11" y="141.30728"/>
      </g>
     </g>
    </g>
    <g id="ytick_14">
     <g id="line2d_31">
      <g>
       <use style="stroke:#000000;stroke-width:0.48;" x="36.2" xlink:href="#m4c42087a11" y="137.355557"/>
      </g>
     </g>
    </g>
    <g id="ytick_15">
     <g id="line2d_32">
      <g>
       <use style="stroke:#000000;stroke-width:0.48;" x="36.2" xlink:href="#m4c42087a11" y="133.403834"/>
      </g>
     </g>
    </g>
    <g id="ytick_16">
     <g id="line2d_33">
      <g>
       <use style="stroke:#000000;stroke-width:0.48;" x="36.2" xlink:href="#m4c42087a11" y="125.500389"/>
      </g>
     </g>
    </g>
    <g id="ytick_17">
     <g id="line2d_34">
      <g>
       <use style="stroke:#000000;stroke-width:0.48;" x="36.2" xlink:href="#m4c42087a11" y="121.548666"/>
      </g>
     </g>
    </g>
    <g id="ytick_18">
     <g id="line2d_35">
      <g>
       <use style="stroke:#000000;stroke-width:0.48;" x="36.2" xlink:href="#m4c42087a11" y="117.596944"/>
      </g>
     </g>
    </g>
    <g id="ytick_19">
     <g id="line2d_36">
      <g>
       <use style="stroke:#000000;stroke-width:0.48;" x="36.2" xlink:href="#m4c42087a11" y="113.645221"/>
      </g>
     </g>
    </g>
    <g id="ytick_20">
     <g id="line2d_37">
      <g>
       <use style="stroke:#000000;stroke-width:0.48;" x="36.2" xlink:href="#m4c42087a11" y="105.741776"/>
      </g>
     </g>
    </g>
    <g id="ytick_21">
     <g id="line2d_38">
      <g>
       <use style="stroke:#000000;stroke-width:0.48;" x="36.2" xlink:href="#m4c42087a11" y="101.790053"/>
      </g>
     </g>
    </g>
    <g id="ytick_22">
     <g id="line2d_39">
      <g>
       <use style="stroke:#000000;stroke-width:0.48;" x="36.2" xlink:href="#m4c42087a11" y="97.83833"/>
      </g>
     </g>
    </g>
    <g id="ytick_23">
     <g id="line2d_40">
      <g>
       <use style="stroke:#000000;stroke-width:0.48;" x="36.2" xlink:href="#m4c42087a11" y="93.886608"/>
      </g>
     </g>
    </g>
    <g id="ytick_24">
     <g id="line2d_41">
      <g>
       <use style="stroke:#000000;stroke-width:0.48;" x="36.2" xlink:href="#m4c42087a11" y="85.983162"/>
      </g>
     </g>
    </g>
    <g id="ytick_25">
     <g id="line2d_42">
      <g>
       <use style="stroke:#000000;stroke-width:0.48;" x="36.2" xlink:href="#m4c42087a11" y="82.03144"/>
      </g>
     </g>
    </g>
    <g id="ytick_26">
     <g id="line2d_43">
      <g>
       <use style="stroke:#000000;stroke-width:0.48;" x="36.2" xlink:href="#m4c42087a11" y="78.079717"/>
      </g>
     </g>
    </g>
    <g id="ytick_27">
     <g id="line2d_44">
      <g>
       <use style="stroke:#000000;stroke-width:0.48;" x="36.2" xlink:href="#m4c42087a11" y="74.127994"/>
      </g>
     </g>
    </g>
    <g id="ytick_28">
     <g id="line2d_45">
      <g>
       <use style="stroke:#000000;stroke-width:0.48;" x="36.2" xlink:href="#m4c42087a11" y="66.224549"/>
      </g>
     </g>
    </g>
    <g id="ytick_29">
     <g id="line2d_46">
      <g>
       <use style="stroke:#000000;stroke-width:0.48;" x="36.2" xlink:href="#m4c42087a11" y="62.272826"/>
      </g>
     </g>
    </g>
    <g id="ytick_30">
     <g id="line2d_47">
      <g>
       <use style="stroke:#000000;stroke-width:0.48;" x="36.2" xlink:href="#m4c42087a11" y="58.321104"/>
      </g>
     </g>
    </g>
    <g id="ytick_31">
     <g id="line2d_48">
      <g>
       <use style="stroke:#000000;stroke-width:0.48;" x="36.2" xlink:href="#m4c42087a11" y="54.369381"/>
      </g>
     </g>
    </g>
    <g id="ytick_32">
     <g id="line2d_49">
      <g>
       <use style="stroke:#000000;stroke-width:0.48;" x="36.2" xlink:href="#m4c42087a11" y="46.465936"/>
      </g>
     </g>
    </g>
    <g id="ytick_33">
     <g id="line2d_50">
      <g>
       <use style="stroke:#000000;stroke-width:0.48;" x="36.2" xlink:href="#m4c42087a11" y="42.514213"/>
      </g>
     </g>
    </g>
    <g id="ytick_34">
     <g id="line2d_51">
      <g>
       <use style="stroke:#000000;stroke-width:0.48;" x="36.2" xlink:href="#m4c42087a11" y="38.56249"/>
      </g>
     </g>
    </g>
    <g id="ytick_35">
     <g id="line2d_52">
      <g>
       <use style="stroke:#000000;stroke-width:0.48;" x="36.2" xlink:href="#m4c42087a11" y="34.610768"/>
      </g>
     </g>
    </g>
    <g id="ytick_36">
     <g id="line2d_53">
      <g>
       <use style="stroke:#000000;stroke-width:0.48;" x="36.2" xlink:href="#m4c42087a11" y="26.707322"/>
      </g>
     </g>
    </g>
    <g id="text_14">
     <!-- y axis -->
     <defs>
      <path d="M 26.703125 -6.90625 
Q 25.203125 -10.703125 23.75 -13.296875 
Q 22.296875 -15.90625 20.546875 -17.546875 
Q 18.796875 -19.203125 16.640625 -19.953125 
Q 14.5 -20.703125 11.703125 -20.703125 
Q 10.203125 -20.703125 8.703125 -20.5 
Q 7.203125 -20.296875 5.796875 -19.796875 
L 5.796875 -12 
Q 6.90625 -12.5 8.34375 -12.84375 
Q 9.796875 -13.203125 10.796875 -13.203125 
Q 13.40625 -13.203125 15.15625 -11.953125 
Q 16.90625 -10.703125 17.796875 -8.40625 
L 21.296875 0.296875 
L 0.796875 51.703125 
L 10.40625 51.703125 
L 25.5 9.40625 
L 25.703125 9.40625 
L 40.203125 51.703125 
L 49.203125 51.703125 
z
" id="HelveticaNeue-121"/>
     </defs>
     <g transform="translate(9.625 106.32)rotate(-90)scale(0.08 -0.08)">
      <use xlink:href="#HelveticaNeue-121"/>
      <use x="49.999985" xlink:href="#HelveticaNeue-32"/>
      <use x="77.799973" xlink:href="#HelveticaNeue-97"/>
      <use x="131.499969" xlink:href="#HelveticaNeue-120"/>
      <use x="183.299957" xlink:href="#HelveticaNeue-105"/>
      <use x="205.499954" xlink:href="#HelveticaNeue-115"/>
     </g>
    </g>
   </g>
   <g id="line2d_54">
    <path clip-path="url(#pfc81bca3d5)" d="M 36.2 105.271576 
L 37.654545 109.044958 
L 39.109091 108.327535 
L 40.563636 107.640719 
L 42.018182 106.971651 
L 43.472727 108.356964 
L 44.927273 113.090712 
L 46.381818 115.896011 
L 47.836364 109.983682 
L 49.290909 115.228447 
L 50.745455 119.020902 
L 52.2 122.235146 
L 53.654545 127.346459 
L 55.109091 130.726009 
L 56.563636 129.989611 
L 58.018182 129.460064 
L 59.472727 129.471795 
L 60.927273 134.760565 
L 62.381818 129.788211 
L 63.836364 135.647002 
L 65.290909 136.041918 
L 66.745455 139.646437 
L 68.2 133.94676 
L 69.654545 139.884497 
L 71.109091 139.773577 
L 72.563636 138.466773 
L 74.018182 134.148258 
L 75.472727 137.215903 
L 76.927273 131.607862 
L 78.381818 125.622913 
L 79.836364 126.062494 
L 81.290909 131.363392 
L 82.745455 128.195186 
L 84.2 121.052143 
L 85.654545 123.761791 
L 87.109091 116.927918 
L 88.563636 114.778479 
L 90.018182 119.331186 
L 91.472727 119.804907 
L 92.927273 119.226742 
L 94.381818 115.850395 
L 95.836364 115.767041 
L 97.290909 114.835729 
L 98.745455 110.350569 
L 100.2 117.377675 
L 101.654545 121.278666 
L 103.109091 124.90886 
L 104.563636 127.933557 
L 106.018182 134.556125 
L 107.472727 136.925116 
L 108.927273 133.675686 
L 110.381818 127.207222 
L 111.836364 121.571529 
L 113.290909 127.957264 
L 114.745455 122.131128 
L 116.2 116.369018 
L 117.654545 122.513666 
L 119.109091 129.942577 
L 120.563636 122.178322 
L 122.018182 119.488098 
L 123.472727 119.817736 
L 124.927273 116.515859 
L 126.381818 110.849996 
L 127.836364 113.999939 
L 129.290909 107.79337 
L 130.745455 107.470185 
L 132.2 103.323988 
L 133.654545 107.376767 
L 135.109091 100.634209 
L 136.563636 101.392646 
L 138.018182 96.765712 
L 139.472727 100.991976 
L 140.927273 98.834098 
L 142.381818 100.872874 
L 143.836364 103.891896 
L 145.290909 105.137438 
L 146.745455 108.3945 
L 148.2 102.320863 
L 149.654545 95.954416 
L 151.109091 100.83636 
L 152.563636 99.70085 
L 154.018182 92.759773 
L 155.472727 87.343981 
L 156.927273 85.44396 
L 158.381818 80.608294 
L 159.836364 86.242229 
L 161.290909 78.601702 
L 162.745455 80.495605 
L 164.2 76.941921 
L 165.654545 71.99305 
L 167.109091 67.350351 
L 168.563636 61.971613 
L 170.018182 60.551867 
L 171.472727 64.285997 
L 172.927273 68.945105 
L 174.381818 73.690854 
L 175.836364 76.291896 
L 177.290909 72.134641 
L 178.745455 73.595027 
L 180.2 71.047265 
" style="fill:none;stroke:#0072b2;stroke-linecap:square;stroke-width:2;"/>
   </g>
   <g id="line2d_55">
    <path clip-path="url(#pfc81bca3d5)" d="M 36.2 108.437195 
L 37.654545 109.86438 
L 39.109091 116.572872 
L 40.563636 115.382282 
L 42.018182 117.295075 
L 43.472727 116.443657 
L 44.927273 109.513513 
L 46.381818 109.645654 
L 47.836364 105.836407 
L 49.290909 110.522931 
L 50.745455 116.366584 
L 52.2 108.819007 
L 53.654545 116.398183 
L 55.109091 122.670973 
L 56.563636 120.567285 
L 58.018182 118.241847 
L 59.472727 122.402627 
L 60.927273 127.847841 
L 62.381818 134.604259 
L 63.836364 133.992292 
L 65.290909 130.465635 
L 66.745455 134.599713 
L 68.2 139.765724 
L 69.654545 146.879574 
L 71.109091 141.422256 
L 72.563636 136.078622 
L 74.018182 136.649075 
L 75.472727 142.683705 
L 76.927273 141.896369 
L 78.381818 137.672794 
L 79.836364 145.392078 
L 81.290909 137.868853 
L 82.745455 144.962021 
L 84.2 151.056473 
L 85.654545 145.18719 
L 87.109091 150.171496 
L 88.563636 143.597409 
L 90.018182 150.253309 
L 91.472727 150.077469 
L 92.927273 153.420752 
L 94.381818 154.387632 
L 95.836364 157.223409 
L 97.290909 158.147399 
L 98.745455 164.332482 
L 100.2 159.68361 
L 101.654545 156.864137 
L 103.109091 163.731187 
L 104.563636 160.321845 
L 106.018182 154.13203 
L 107.472727 157.964419 
L 108.927273 164.835009 
L 110.381818 159.320166 
L 111.836364 151.844409 
L 113.290909 148.674514 
L 114.745455 144.131785 
L 116.2 147.77855 
L 117.654545 145.439317 
L 119.109091 144.959137 
L 120.563636 137.326429 
L 122.018182 140.292759 
L 123.472727 141.350209 
L 124.927273 138.545019 
L 126.381818 138.551841 
L 127.836364 136.158331 
L 129.290909 129.000614 
L 130.745455 126.343084 
L 132.2 126.078466 
L 133.654545 119.783007 
L 135.109091 118.806274 
L 136.563636 118.866042 
L 138.018182 125.118809 
L 139.472727 118.075959 
L 140.927273 113.152093 
L 142.381818 110.556296 
L 143.836364 114.260021 
L 145.290909 119.271324 
L 146.745455 124.088021 
L 148.2 125.414952 
L 149.654545 120.885944 
L 151.109091 116.409365 
L 152.563636 117.169885 
L 154.018182 109.562026 
L 155.472727 112.606837 
L 156.927273 106.338125 
L 158.381818 108.051851 
L 159.836364 106.283514 
L 161.290909 100.693639 
L 162.745455 101.211375 
L 164.2 104.437065 
L 165.654545 110.252919 
L 167.109091 106.236348 
L 168.563636 98.355537 
L 170.018182 97.667056 
L 171.472727 95.76282 
L 172.927273 97.087739 
L 174.381818 99.173347 
L 175.836364 106.030503 
L 177.290909 109.30992 
L 178.745455 108.354468 
L 180.2 114.646899 
" style="fill:none;stroke:#d55e00;stroke-linecap:square;stroke-width:2;"/>
   </g>
   <g id="line2d_56">
    <path clip-path="url(#pfc81bca3d5)" d="M 36.2 107.521696 
L 37.654545 100.701595 
L 39.109091 104.892285 
L 40.563636 102.915562 
L 42.018182 96.638456 
L 43.472727 104.403988 
L 44.927273 107.013464 
L 46.381818 109.636486 
L 47.836364 109.042616 
L 49.290909 103.294982 
L 50.745455 97.037849 
L 52.2 89.454802 
L 53.654545 82.731383 
L 55.109091 85.236032 
L 56.563636 86.796738 
L 58.018182 82.258278 
L 59.472727 82.902304 
L 60.927273 89.456971 
L 62.381818 88.968867 
L 63.836364 85.124912 
L 65.290909 91.674958 
L 66.745455 86.427174 
L 68.2 89.454453 
L 69.654545 87.922296 
L 71.109091 82.341367 
L 72.563636 78.611037 
L 74.018182 83.702705 
L 75.472727 84.329354 
L 76.927273 82.143515 
L 78.381818 77.78572 
L 79.836364 74.879305 
L 81.290909 68.984321 
L 82.745455 62.408657 
L 84.2 67.490636 
L 85.654545 68.178097 
L 87.109091 68.386952 
L 88.563636 74.489319 
L 90.018182 73.972208 
L 91.472727 75.266352 
L 92.927273 70.855483 
L 94.381818 67.865721 
L 95.836364 70.78951 
L 97.290909 64.348003 
L 98.745455 58.195627 
L 100.2 54.382608 
L 101.654545 48.570942 
L 103.109091 42.747003 
L 104.563636 48.210644 
L 106.018182 43.976016 
L 107.472727 40.249792 
L 108.927273 43.554018 
L 110.381818 45.516899 
L 111.836364 46.947125 
L 113.290909 39.258308 
L 114.745455 35.536779 
L 116.2 32.133013 
L 117.654545 27.20012 
L 119.109091 24.1 
L 120.563636 27.86575 
L 122.018182 28.575055 
L 123.472727 35.58734 
L 124.927273 40.491448 
L 126.381818 32.808946 
L 127.836364 29.565236 
L 129.290909 33.065116 
L 130.745455 37.666131 
L 132.2 40.839452 
L 133.654545 38.445373 
L 135.109091 30.950981 
L 136.563636 31.564565 
L 138.018182 31.271278 
L 139.472727 31.752254 
L 140.927273 28.505772 
L 142.381818 25.747456 
L 143.836364 29.437018 
L 145.290909 34.61568 
L 146.745455 37.902773 
L 148.2 30.965779 
L 149.654545 26.986707 
L 151.109091 30.707951 
L 152.563636 34.563804 
L 154.018182 41.202433 
L 155.472727 48.804219 
L 156.927273 49.527716 
L 158.381818 56.798981 
L 159.836364 57.59119 
L 161.290909 50.005374 
L 162.745455 55.547908 
L 164.2 54.577172 
L 165.654545 50.479766 
L 167.109091 53.36045 
L 168.563636 51.765486 
L 170.018182 52.580682 
L 171.472727 56.455472 
L 172.927273 62.535636 
L 174.381818 57.603748 
L 175.836364 60.144596 
L 177.290909 54.323208 
L 178.745455 47.593602 
L 180.2 48.432728 
" style="fill:none;stroke:#009e73;stroke-linecap:square;stroke-width:2;"/>
   </g>
   <g id="line2d_57">
    <path clip-path="url(#pfc81bca3d5)" d="M 36.2 116.521573 
L 37.654545 114.577835 
L 39.109091 110.072032 
L 40.563636 115.967991 
L 42.018182 110.543479 
L 43.472727 110.593916 
L 44.927273 116.262871 
L 46.381818 113.610999 
L 47.836364 113.821361 
L 49.290909 118.466122 
L 50.745455 119.771968 
L 52.2 121.058033 
L 53.654545 118.283959 
L 55.109091 123.60221 
L 56.563636 116.314783 
L 58.018182 123.203763 
L 59.472727 119.478728 
L 60.927273 126.962728 
L 62.381818 119.072067 
L 63.836364 120.455305 
L 65.290909 125.980136 
L 66.745455 127.322854 
L 68.2 133.627154 
L 69.654545 130.745894 
L 71.109091 124.823451 
L 72.563636 129.89007 
L 74.018182 132.720762 
L 75.472727 136.259985 
L 76.927273 140.624461 
L 78.381818 139.568482 
L 79.836364 140.069599 
L 81.290909 138.72091 
L 82.745455 145.439743 
L 84.2 149.616878 
L 85.654545 156.702138 
L 87.109091 160.72466 
L 88.563636 156.42748 
L 90.018182 156.249623 
L 91.472727 153.284453 
L 92.927273 149.937668 
L 94.381818 157.344487 
L 95.836364 156.891942 
L 97.290909 164.46877 
L 98.745455 161.068994 
L 100.2 155.219222 
L 101.654545 147.609834 
L 103.109091 140.547501 
L 104.563636 133.606148 
L 106.018182 135.091136 
L 107.472727 137.087536 
L 108.927273 140.802364 
L 110.381818 136.126412 
L 111.836364 138.703487 
L 113.290909 138.809565 
L 114.745455 131.16292 
L 116.2 131.010645 
L 117.654545 137.287746 
L 119.109091 135.08472 
L 120.563636 141.343793 
L 122.018182 139.75048 
L 123.472727 135.686924 
L 124.927273 137.621102 
L 126.381818 130.101936 
L 127.836364 130.8262 
L 129.290909 138.269262 
L 130.745455 144.129028 
L 132.2 144.62673 
L 133.654545 147.541501 
L 135.109091 140.887386 
L 136.563636 136.416753 
L 138.018182 132.13816 
L 139.472727 130.116107 
L 140.927273 131.521184 
L 142.381818 133.350694 
L 143.836364 141.178566 
L 145.290909 141.680374 
L 146.745455 147.481071 
L 148.2 148.652712 
L 149.654545 144.485965 
L 151.109091 144.506213 
L 152.563636 151.505409 
L 154.018182 149.286672 
L 155.472727 142.928407 
L 156.927273 140.497537 
L 158.381818 136.911241 
L 159.836364 141.98143 
L 161.290909 144.119715 
L 162.745455 150.902237 
L 164.2 157.283445 
L 165.654545 152.4885 
L 167.109091 150.920358 
L 168.563636 151.178652 
L 170.018182 158.196475 
L 171.472727 154.431249 
L 172.927273 158.704941 
L 174.381818 160.703804 
L 175.836364 161.005844 
L 177.290909 168.1 
L 178.745455 160.73875 
L 180.2 167.818748 
" style="fill:none;stroke:#cc79a7;stroke-linecap:square;stroke-width:2;"/>
   </g>
   <g id="line2d_58">
    <path clip-path="url(#pfc81bca3d5)" d="M 36.2 110.47612 
L 37.654545 108.831363 
L 39.109091 111.89835 
L 40.563636 104.31014 
L 42.018182 110.752189 
L 43.472727 103.689721 
L 44.927273 103.307853 
L 46.381818 105.483146 
L 47.836364 99.175132 
L 49.290909 102.533067 
L 50.745455 109.5677 
L 52.2 108.942018 
L 53.654545 114.542808 
L 55.109091 114.148537 
L 56.563636 114.771605 
L 58.018182 114.499147 
L 59.472727 110.081737 
L 60.927273 114.934718 
L 62.381818 120.114386 
L 63.836364 124.787433 
L 65.290909 118.092376 
L 66.745455 113.454071 
L 68.2 117.098541 
L 69.654545 121.246972 
L 71.109091 113.644192 
L 72.563636 105.981332 
L 74.018182 113.479117 
L 75.472727 118.471315 
L 76.927273 118.641829 
L 78.381818 111.082267 
L 79.836364 105.242322 
L 81.290909 98.25472 
L 82.745455 94.988421 
L 84.2 98.868566 
L 85.654545 104.234385 
L 87.109091 105.617436 
L 88.563636 98.55074 
L 90.018182 106.423335 
L 91.472727 111.643352 
L 92.927273 109.018362 
L 94.381818 106.727279 
L 95.836364 104.490401 
L 97.290909 100.311572 
L 98.745455 103.663824 
L 100.2 104.407175 
L 101.654545 104.919694 
L 103.109091 105.868277 
L 104.563636 98.930277 
L 106.018182 96.116792 
L 107.472727 92.386044 
L 108.927273 85.821097 
L 110.381818 78.834486 
L 111.836364 74.897647 
L 113.290909 79.683935 
L 114.745455 73.837979 
L 116.2 74.93812 
L 117.654545 69.050423 
L 119.109091 68.68992 
L 120.563636 73.162013 
L 122.018182 74.297118 
L 123.472727 77.401161 
L 124.927273 70.566132 
L 126.381818 64.15975 
L 127.836364 62.93628 
L 129.290909 55.646466 
L 130.745455 48.630034 
L 132.2 55.501524 
L 133.654545 48.596511 
L 135.109091 48.405437 
L 136.563636 49.81186 
L 138.018182 52.356129 
L 139.472727 51.214686 
L 140.927273 54.161615 
L 142.381818 47.319683 
L 143.836364 51.361609 
L 145.290909 43.851882 
L 146.745455 43.677298 
L 148.2 44.971849 
L 149.654545 38.559416 
L 151.109091 45.569552 
L 152.563636 44.387521 
L 154.018182 41.090579 
L 155.472727 48.411354 
L 156.927273 48.238842 
L 158.381818 49.071047 
L 159.836364 52.084308 
L 161.290909 56.547885 
L 162.745455 50.45177 
L 164.2 52.977513 
L 165.654545 59.812884 
L 167.109091 60.492269 
L 168.563636 62.961275 
L 170.018182 70.077163 
L 171.472727 77.799465 
L 172.927273 72.50085 
L 174.381818 74.479977 
L 175.836364 68.473546 
L 177.290909 62.208992 
L 178.745455 64.785928 
L 180.2 69.406101 
" style="fill:none;stroke:#f0e442;stroke-linecap:square;stroke-width:2;"/>
   </g>
   <g id="patch_3">
    <path d="M 36.2 168.1 
L 36.2 24.1 
" style="fill:none;stroke:#000000;stroke-linecap:square;stroke-linejoin:miter;stroke-width:0.6;"/>
   </g>
   <g id="patch_4">
    <path d="M 180.2 168.1 
L 180.2 24.1 
" style="fill:none;stroke:#000000;stroke-linecap:square;stroke-linejoin:miter;stroke-width:0.6;"/>
   </g>
   <g id="patch_5">
    <path d="M 36.2 168.1 
L 180.2 168.1 
" style="fill:none;stroke:#000000;stroke-linecap:square;stroke-linejoin:miter;stroke-width:0.6;"/>
   </g>
   <g id="patch_6">
    <path d="M 36.2 24.1 
L 180.2 24.1 
" style="fill:none;stroke:#000000;stroke-linecap:square;stroke-linejoin:miter;stroke-width:0.6;"/>
   </g>
   <g id="text_15">
    <!-- Title -->
    <defs>
     <path d="M 24 63.40625 
L 24 0 
L 33.5 0 
L 33.5 63.40625 
L 57.296875 63.40625 
L 57.296875 71.40625 
L 0.203125 71.40625 
L 0.203125 63.40625 
z
" id="HelveticaNeue-84"/>
     <path d="M 18.203125 51.703125 
L 18.203125 67.203125 
L 9.703125 67.203125 
L 9.703125 51.703125 
L 0.90625 51.703125 
L 0.90625 44.203125 
L 9.703125 44.203125 
L 9.703125 11.296875 
Q 9.703125 7.703125 10.390625 5.5 
Q 11.09375 3.296875 12.546875 2.09375 
Q 14 0.90625 16.34375 0.453125 
Q 18.703125 0 22 0 
L 28.5 0 
L 28.5 7.5 
L 24.59375 7.5 
Q 22.59375 7.5 21.34375 7.640625 
Q 20.09375 7.796875 19.390625 8.296875 
Q 18.703125 8.796875 18.453125 9.6875 
Q 18.203125 10.59375 18.203125 12.09375 
L 18.203125 44.203125 
L 28.5 44.203125 
L 28.5 51.703125 
z
" id="HelveticaNeue-116"/>
     <path d="M 6.90625 71.40625 
L 6.90625 0 
L 15.40625 0 
L 15.40625 71.40625 
z
" id="HelveticaNeue-108"/>
     <path d="M 42.296875 30.796875 
L 12.59375 30.796875 
Q 12.796875 33.796875 13.890625 36.4375 
Q 15 39.09375 16.890625 41.09375 
Q 18.796875 43.09375 21.4375 44.25 
Q 24.09375 45.40625 27.40625 45.40625 
Q 30.59375 45.40625 33.25 44.25 
Q 35.90625 43.09375 37.84375 41.140625 
Q 39.796875 39.203125 40.9375 36.5 
Q 42.09375 33.796875 42.296875 30.796875 
z
M 50.5 16.40625 
L 42.09375 16.40625 
Q 41 11.296875 37.546875 8.796875 
Q 34.09375 6.296875 28.703125 6.296875 
Q 24.5 6.296875 21.390625 7.6875 
Q 18.296875 9.09375 16.296875 11.4375 
Q 14.296875 13.796875 13.390625 16.84375 
Q 12.5 19.90625 12.59375 23.296875 
L 51.296875 23.296875 
Q 51.5 28 50.453125 33.203125 
Q 49.40625 38.40625 46.65625 42.796875 
Q 43.90625 47.203125 39.34375 50.046875 
Q 34.796875 52.90625 27.90625 52.90625 
Q 22.59375 52.90625 18.140625 50.90625 
Q 13.703125 48.90625 10.453125 45.296875 
Q 7.203125 41.703125 5.390625 36.796875 
Q 3.59375 31.90625 3.59375 26 
Q 3.796875 20.09375 5.34375 15.09375 
Q 6.90625 10.09375 10 6.5 
Q 13.09375 2.90625 17.640625 0.90625 
Q 22.203125 -1.09375 28.40625 -1.09375 
Q 37.203125 -1.09375 43 3.296875 
Q 48.796875 7.703125 50.5 16.40625 
z
" id="HelveticaNeue-101"/>
    </defs>
    <g transform="translate(99.784297 21.1)scale(0.09 -0.09)">
     <use xlink:href="#HelveticaNeue-84"/>
     <use x="57.399994" xlink:href="#HelveticaNeue-105"/>
     <use x="79.599991" xlink:href="#HelveticaNeue-116"/>
     <use x="111.099976" xlink:href="#HelveticaNeue-108"/>
     <use x="133.299973" xlink:href="#HelveticaNeue-101"/>
    </g>
   </g>
  </g>
  <g id="axes_2">
   <g id="patch_7">
    <path d="M 192.2 168.1 
L 336.2 168.1 
L 336.2 24.1 
L 192.2 24.1 
z
" style="fill:#ffffff;"/>
   </g>
   <g id="matplotlib.axis_3">
    <g id="xtick_6">
     <g id="line2d_59">
      <path clip-path="url(#pf7a16b02aa)" d="M 192.2 168.1 
L 192.2 24.1 
" style="fill:none;stroke:#000000;stroke-linecap:square;stroke-opacity:0.1;stroke-width:0.6;"/>
     </g>
     <g id="line2d_60">
      <g>
       <use style="stroke:#000000;stroke-width:0.6;" x="192.2" xlink:href="#m7ee65ed9e9" y="168.1"/>
      </g>
     </g>
     <g id="text_16">
      <!-- 0 -->
      <g transform="translate(189.97625 179.8125)scale(0.08 -0.08)">
       <use xlink:href="#HelveticaNeue-48"/>
      </g>
     </g>
    </g>
    <g id="xtick_7">
     <g id="line2d_61">
      <path clip-path="url(#pf7a16b02aa)" d="M 221 168.1 
L 221 24.1 
" style="fill:none;stroke:#000000;stroke-linecap:square;stroke-opacity:0.1;stroke-width:0.6;"/>
     </g>
     <g id="line2d_62">
      <g>
       <use style="stroke:#000000;stroke-width:0.6;" x="221" xlink:href="#m7ee65ed9e9" y="168.1"/>
      </g>
     </g>
     <g id="text_17">
      <!-- 0.2 -->
      <g transform="translate(215.440625 179.8125)scale(0.08 -0.08)">
       <use xlink:href="#HelveticaNeue-48"/>
       <use x="55.599991" xlink:href="#HelveticaNeue-46"/>
       <use x="83.399979" xlink:href="#HelveticaNeue-50"/>
      </g>
     </g>
    </g>
    <g id="xtick_8">
     <g id="line2d_63">
      <path clip-path="url(#pf7a16b02aa)" d="M 249.8 168.1 
L 249.8 24.1 
" style="fill:none;stroke:#000000;stroke-linecap:square;stroke-opacity:0.1;stroke-width:0.6;"/>
     </g>
     <g id="line2d_64">
      <g>
       <use style="stroke:#000000;stroke-width:0.6;" x="249.8" xlink:href="#m7ee65ed9e9" y="168.1"/>
      </g>
     </g>
     <g id="text_18">
      <!-- 0.4 -->
      <g transform="translate(244.240625 179.8125)scale(0.08 -0.08)">
       <use xlink:href="#HelveticaNeue-48"/>
       <use x="55.599991" xlink:href="#HelveticaNeue-46"/>
       <use x="83.399979" xlink:href="#HelveticaNeue-52"/>
      </g>
     </g>
    </g>
    <g id="xtick_9">
     <g id="line2d_65">
      <path clip-path="url(#pf7a16b02aa)" d="M 278.6 168.1 
L 278.6 24.1 
" style="fill:none;stroke:#000000;stroke-linecap:square;stroke-opacity:0.1;stroke-width:0.6;"/>
     </g>
     <g id="line2d_66">
      <g>
       <use style="stroke:#000000;stroke-width:0.6;" x="278.6" xlink:href="#m7ee65ed9e9" y="168.1"/>
      </g>
     </g>
     <g id="text_19">
      <!-- 0.6 -->
      <g transform="translate(273.040625 179.8125)scale(0.08 -0.08)">
       <use xlink:href="#HelveticaNeue-48"/>
       <use x="55.599991" xlink:href="#HelveticaNeue-46"/>
       <use x="83.399979" xlink:href="#HelveticaNeue-54"/>
      </g>
     </g>
    </g>
    <g id="xtick_10">
     <g id="line2d_67">
      <path clip-path="url(#pf7a16b02aa)" d="M 307.4 168.1 
L 307.4 24.1 
" style="fill:none;stroke:#000000;stroke-linecap:square;stroke-opacity:0.1;stroke-width:0.6;"/>
     </g>
     <g id="line2d_68">
      <g>
       <use style="stroke:#000000;stroke-width:0.6;" x="307.4" xlink:href="#m7ee65ed9e9" y="168.1"/>
      </g>
     </g>
     <g id="text_20">
      <!-- 0.8 -->
      <g transform="translate(301.840625 179.8125)scale(0.08 -0.08)">
       <use xlink:href="#HelveticaNeue-48"/>
       <use x="55.599991" xlink:href="#HelveticaNeue-46"/>
       <use x="83.399979" xlink:href="#HelveticaNeue-56"/>
      </g>
     </g>
    </g>
    <g id="xtick_11">
     <g id="line2d_69">
      <path clip-path="url(#pf7a16b02aa)" d="M 336.2 168.1 
L 336.2 24.1 
" style="fill:none;stroke:#000000;stroke-linecap:square;stroke-opacity:0.1;stroke-width:0.6;"/>
     </g>
     <g id="line2d_70">
      <g>
       <use style="stroke:#000000;stroke-width:0.6;" x="336.2" xlink:href="#m7ee65ed9e9" y="168.1"/>
      </g>
     </g>
     <g id="text_21">
      <!-- 1 -->
      <g transform="translate(333.97625 179.8125)scale(0.08 -0.08)">
       <use xlink:href="#HelveticaNeue-49"/>
      </g>
     </g>
    </g>
    <g id="xtick_12">
     <g id="line2d_71">
      <defs>
       <path d="M 0 0 
L 0 2 
" id="ma87ece6971" style="stroke:#000000;stroke-width:0.48;"/>
      </defs>
      <g>
       <use style="stroke:#000000;stroke-width:0.48;" x="199.4" xlink:href="#ma87ece6971" y="168.1"/>
      </g>
     </g>
    </g>
    <g id="xtick_13">
     <g id="line2d_72">
      <g>
       <use style="stroke:#000000;stroke-width:0.48;" x="206.6" xlink:href="#ma87ece6971" y="168.1"/>
      </g>
     </g>
    </g>
    <g id="xtick_14">
     <g id="line2d_73">
      <g>
       <use style="stroke:#000000;stroke-width:0.48;" x="213.8" xlink:href="#ma87ece6971" y="168.1"/>
      </g>
     </g>
    </g>
    <g id="xtick_15">
     <g id="line2d_74">
      <g>
       <use style="stroke:#000000;stroke-width:0.48;" x="228.2" xlink:href="#ma87ece6971" y="168.1"/>
      </g>
     </g>
    </g>
    <g id="xtick_16">
     <g id="line2d_75">
      <g>
       <use style="stroke:#000000;stroke-width:0.48;" x="235.4" xlink:href="#ma87ece6971" y="168.1"/>
      </g>
     </g>
    </g>
    <g id="xtick_17">
     <g id="line2d_76">
      <g>
       <use style="stroke:#000000;stroke-width:0.48;" x="242.6" xlink:href="#ma87ece6971" y="168.1"/>
      </g>
     </g>
    </g>
    <g id="xtick_18">
     <g id="line2d_77">
      <g>
       <use style="stroke:#000000;stroke-width:0.48;" x="257" xlink:href="#ma87ece6971" y="168.1"/>
      </g>
     </g>
    </g>
    <g id="xtick_19">
     <g id="line2d_78">
      <g>
       <use style="stroke:#000000;stroke-width:0.48;" x="264.2" xlink:href="#ma87ece6971" y="168.1"/>
      </g>
     </g>
    </g>
    <g id="xtick_20">
     <g id="line2d_79">
      <g>
       <use style="stroke:#000000;stroke-width:0.48;" x="271.4" xlink:href="#ma87ece6971" y="168.1"/>
      </g>
     </g>
    </g>
    <g id="xtick_21">
     <g id="line2d_80">
      <g>
       <use style="stroke:#000000;stroke-width:0.48;" x="285.8" xlink:href="#ma87ece6971" y="168.1"/>
      </g>
     </g>
    </g>
    <g id="xtick_22">
     <g id="line2d_81">
      <g>
       <use style="stroke:#000000;stroke-width:0.48;" x="293" xlink:href="#ma87ece6971" y="168.1"/>
      </g>
     </g>
    </g>
    <g id="xtick_23">
     <g id="line2d_82">
      <g>
       <use style="stroke:#000000;stroke-width:0.48;" x="300.2" xlink:href="#ma87ece6971" y="168.1"/>
      </g>
     </g>
    </g>
    <g id="xtick_24">
     <g id="line2d_83">
      <g>
       <use style="stroke:#000000;stroke-width:0.48;" x="314.6" xlink:href="#ma87ece6971" y="168.1"/>
      </g>
     </g>
    </g>
    <g id="xtick_25">
     <g id="line2d_84">
      <g>
       <use style="stroke:#000000;stroke-width:0.48;" x="321.8" xlink:href="#ma87ece6971" y="168.1"/>
      </g>
     </g>
    </g>
    <g id="xtick_26">
     <g id="line2d_85">
      <g>
       <use style="stroke:#000000;stroke-width:0.48;" x="329" xlink:href="#ma87ece6971" y="168.1"/>
      </g>
     </g>
    </g>
   </g>
   <g id="matplotlib.axis_4">
    <g id="ytick_37">
     <g id="line2d_86">
      <path clip-path="url(#pf7a16b02aa)" d="M 192.2 149.210725 
L 336.2 149.210725 
" style="fill:none;stroke:#000000;stroke-linecap:square;stroke-opacity:0.1;stroke-width:0.6;"/>
     </g>
     <g id="line2d_87">
      <g>
       <use style="stroke:#000000;stroke-width:0.6;" x="192.2" xlink:href="#m34d2be6f29" y="149.210725"/>
      </g>
     </g>
    </g>
    <g id="ytick_38">
     <g id="line2d_88">
      <path clip-path="url(#pf7a16b02aa)" d="M 192.2 129.452112 
L 336.2 129.452112 
" style="fill:none;stroke:#000000;stroke-linecap:square;stroke-opacity:0.1;stroke-width:0.6;"/>
     </g>
     <g id="line2d_89">
      <g>
       <use style="stroke:#000000;stroke-width:0.6;" x="192.2" xlink:href="#m34d2be6f29" y="129.452112"/>
      </g>
     </g>
    </g>
    <g id="ytick_39">
     <g id="line2d_90">
      <path clip-path="url(#pf7a16b02aa)" d="M 192.2 109.693498 
L 336.2 109.693498 
" style="fill:none;stroke:#000000;stroke-linecap:square;stroke-opacity:0.1;stroke-width:0.6;"/>
     </g>
     <g id="line2d_91">
      <g>
       <use style="stroke:#000000;stroke-width:0.6;" x="192.2" xlink:href="#m34d2be6f29" y="109.693498"/>
      </g>
     </g>
    </g>
    <g id="ytick_40">
     <g id="line2d_92">
      <path clip-path="url(#pf7a16b02aa)" d="M 192.2 89.934885 
L 336.2 89.934885 
" style="fill:none;stroke:#000000;stroke-linecap:square;stroke-opacity:0.1;stroke-width:0.6;"/>
     </g>
     <g id="line2d_93">
      <g>
       <use style="stroke:#000000;stroke-width:0.6;" x="192.2" xlink:href="#m34d2be6f29" y="89.934885"/>
      </g>
     </g>
    </g>
    <g id="ytick_41">
     <g id="line2d_94">
      <path clip-path="url(#pf7a16b02aa)" d="M 192.2 70.176272 
L 336.2 70.176272 
" style="fill:none;stroke:#000000;stroke-linecap:square;stroke-opacity:0.1;stroke-width:0.6;"/>
     </g>
     <g id="line2d_95">
      <g>
       <use style="stroke:#000000;stroke-width:0.6;" x="192.2" xlink:href="#m34d2be6f29" y="70.176272"/>
      </g>
     </g>
    </g>
    <g id="ytick_42">
     <g id="line2d_96">
      <path clip-path="url(#pf7a16b02aa)" d="M 192.2 50.417658 
L 336.2 50.417658 
" style="fill:none;stroke:#000000;stroke-linecap:square;stroke-opacity:0.1;stroke-width:0.6;"/>
     </g>
     <g id="line2d_97">
      <g>
       <use style="stroke:#000000;stroke-width:0.6;" x="192.2" xlink:href="#m34d2be6f29" y="50.417658"/>
      </g>
     </g>
    </g>
    <g id="ytick_43">
     <g id="line2d_98">
      <path clip-path="url(#pf7a16b02aa)" d="M 192.2 30.659045 
L 336.2 30.659045 
" style="fill:none;stroke:#000000;stroke-linecap:square;stroke-opacity:0.1;stroke-width:0.6;"/>
     </g>
     <g id="line2d_99">
      <g>
       <use style="stroke:#000000;stroke-width:0.6;" x="192.2" xlink:href="#m34d2be6f29" y="30.659045"/>
      </g>
     </g>
    </g>
    <g id="ytick_44">
     <g id="line2d_100">
      <g>
       <use style="stroke:#000000;stroke-width:0.48;" x="192.2" xlink:href="#m4c42087a11" y="165.017616"/>
      </g>
     </g>
    </g>
    <g id="ytick_45">
     <g id="line2d_101">
      <g>
       <use style="stroke:#000000;stroke-width:0.48;" x="192.2" xlink:href="#m4c42087a11" y="161.065893"/>
      </g>
     </g>
    </g>
    <g id="ytick_46">
     <g id="line2d_102">
      <g>
       <use style="stroke:#000000;stroke-width:0.48;" x="192.2" xlink:href="#m4c42087a11" y="157.11417"/>
      </g>
     </g>
    </g>
    <g id="ytick_47">
     <g id="line2d_103">
      <g>
       <use style="stroke:#000000;stroke-width:0.48;" x="192.2" xlink:href="#m4c42087a11" y="153.162448"/>
      </g>
     </g>
    </g>
    <g id="ytick_48">
     <g id="line2d_104">
      <g>
       <use style="stroke:#000000;stroke-width:0.48;" x="192.2" xlink:href="#m4c42087a11" y="145.259002"/>
      </g>
     </g>
    </g>
    <g id="ytick_49">
     <g id="line2d_105">
      <g>
       <use style="stroke:#000000;stroke-width:0.48;" x="192.2" xlink:href="#m4c42087a11" y="141.30728"/>
      </g>
     </g>
    </g>
    <g id="ytick_50">
     <g id="line2d_106">
      <g>
       <use style="stroke:#000000;stroke-width:0.48;" x="192.2" xlink:href="#m4c42087a11" y="137.355557"/>
      </g>
     </g>
    </g>
    <g id="ytick_51">
     <g id="line2d_107">
      <g>
       <use style="stroke:#000000;stroke-width:0.48;" x="192.2" xlink:href="#m4c42087a11" y="133.403834"/>
      </g>
     </g>
    </g>
    <g id="ytick_52">
     <g id="line2d_108">
      <g>
       <use style="stroke:#000000;stroke-width:0.48;" x="192.2" xlink:href="#m4c42087a11" y="125.500389"/>
      </g>
     </g>
    </g>
    <g id="ytick_53">
     <g id="line2d_109">
      <g>
       <use style="stroke:#000000;stroke-width:0.48;" x="192.2" xlink:href="#m4c42087a11" y="121.548666"/>
      </g>
     </g>
    </g>
    <g id="ytick_54">
     <g id="line2d_110">
      <g>
       <use style="stroke:#000000;stroke-width:0.48;" x="192.2" xlink:href="#m4c42087a11" y="117.596944"/>
      </g>
     </g>
    </g>
    <g id="ytick_55">
     <g id="line2d_111">
      <g>
       <use style="stroke:#000000;stroke-width:0.48;" x="192.2" xlink:href="#m4c42087a11" y="113.645221"/>
      </g>
     </g>
    </g>
    <g id="ytick_56">
     <g id="line2d_112">
      <g>
       <use style="stroke:#000000;stroke-width:0.48;" x="192.2" xlink:href="#m4c42087a11" y="105.741776"/>
      </g>
     </g>
    </g>
    <g id="ytick_57">
     <g id="line2d_113">
      <g>
       <use style="stroke:#000000;stroke-width:0.48;" x="192.2" xlink:href="#m4c42087a11" y="101.790053"/>
      </g>
     </g>
    </g>
    <g id="ytick_58">
     <g id="line2d_114">
      <g>
       <use style="stroke:#000000;stroke-width:0.48;" x="192.2" xlink:href="#m4c42087a11" y="97.83833"/>
      </g>
     </g>
    </g>
    <g id="ytick_59">
     <g id="line2d_115">
      <g>
       <use style="stroke:#000000;stroke-width:0.48;" x="192.2" xlink:href="#m4c42087a11" y="93.886608"/>
      </g>
     </g>
    </g>
    <g id="ytick_60">
     <g id="line2d_116">
      <g>
       <use style="stroke:#000000;stroke-width:0.48;" x="192.2" xlink:href="#m4c42087a11" y="85.983162"/>
      </g>
     </g>
    </g>
    <g id="ytick_61">
     <g id="line2d_117">
      <g>
       <use style="stroke:#000000;stroke-width:0.48;" x="192.2" xlink:href="#m4c42087a11" y="82.03144"/>
      </g>
     </g>
    </g>
    <g id="ytick_62">
     <g id="line2d_118">
      <g>
       <use style="stroke:#000000;stroke-width:0.48;" x="192.2" xlink:href="#m4c42087a11" y="78.079717"/>
      </g>
     </g>
    </g>
    <g id="ytick_63">
     <g id="line2d_119">
      <g>
       <use style="stroke:#000000;stroke-width:0.48;" x="192.2" xlink:href="#m4c42087a11" y="74.127994"/>
      </g>
     </g>
    </g>
    <g id="ytick_64">
     <g id="line2d_120">
      <g>
       <use style="stroke:#000000;stroke-width:0.48;" x="192.2" xlink:href="#m4c42087a11" y="66.224549"/>
      </g>
     </g>
    </g>
    <g id="ytick_65">
     <g id="line2d_121">
      <g>
       <use style="stroke:#000000;stroke-width:0.48;" x="192.2" xlink:href="#m4c42087a11" y="62.272826"/>
      </g>
     </g>
    </g>
    <g id="ytick_66">
     <g id="line2d_122">
      <g>
       <use style="stroke:#000000;stroke-width:0.48;" x="192.2" xlink:href="#m4c42087a11" y="58.321104"/>
      </g>
     </g>
    </g>
    <g id="ytick_67">
     <g id="line2d_123">
      <g>
       <use style="stroke:#000000;stroke-width:0.48;" x="192.2" xlink:href="#m4c42087a11" y="54.369381"/>
      </g>
     </g>
    </g>
    <g id="ytick_68">
     <g id="line2d_124">
      <g>
       <use style="stroke:#000000;stroke-width:0.48;" x="192.2" xlink:href="#m4c42087a11" y="46.465936"/>
      </g>
     </g>
    </g>
    <g id="ytick_69">
     <g id="line2d_125">
      <g>
       <use style="stroke:#000000;stroke-width:0.48;" x="192.2" xlink:href="#m4c42087a11" y="42.514213"/>
      </g>
     </g>
    </g>
    <g id="ytick_70">
     <g id="line2d_126">
      <g>
       <use style="stroke:#000000;stroke-width:0.48;" x="192.2" xlink:href="#m4c42087a11" y="38.56249"/>
      </g>
     </g>
    </g>
    <g id="ytick_71">
     <g id="line2d_127">
      <g>
       <use style="stroke:#000000;stroke-width:0.48;" x="192.2" xlink:href="#m4c42087a11" y="34.610768"/>
      </g>
     </g>
    </g>
    <g id="ytick_72">
     <g id="line2d_128">
      <g>
       <use style="stroke:#000000;stroke-width:0.48;" x="192.2" xlink:href="#m4c42087a11" y="26.707322"/>
      </g>
     </g>
    </g>
   </g>
   <g id="patch_8">
    <path d="M 192.2 168.1 
L 192.2 24.1 
" style="fill:none;stroke:#000000;stroke-linecap:square;stroke-linejoin:miter;stroke-width:0.6;"/>
   </g>
   <g id="patch_9">
    <path d="M 336.2 168.1 
L 336.2 24.1 
" style="fill:none;stroke:#000000;stroke-linecap:square;stroke-linejoin:miter;stroke-width:0.6;"/>
   </g>
   <g id="patch_10">
    <path d="M 192.2 168.1 
L 336.2 168.1 
" style="fill:none;stroke:#000000;stroke-linecap:square;stroke-linejoin:miter;stroke-width:0.6;"/>
   </g>
   <g id="patch_11">
    <path d="M 192.2 24.1 
L 336.2 24.1 
" style="fill:none;stroke:#000000;stroke-linecap:square;stroke-linejoin:miter;stroke-width:0.6;"/>
   </g>
   <g id="text_22">
    <!-- Title -->
    <g transform="translate(255.784297 21.1)scale(0.09 -0.09)">
     <use xlink:href="#HelveticaNeue-84"/>
     <use x="57.399994" xlink:href="#HelveticaNeue-105"/>
     <use x="79.599991" xlink:href="#HelveticaNeue-116"/>
     <use x="111.099976" xlink:href="#HelveticaNeue-108"/>
     <use x="133.299973" xlink:href="#HelveticaNeue-101"/>
    </g>
   </g>
  </g>
  <g id="text_23">
   <!-- ProPlot API -->
   <defs>
    <path d="M 22.59375 37.796875 
L 22.59375 59.203125 
L 34.796875 59.203125 
Q 37.5 59.203125 40 58.796875 
Q 42.5 58.40625 44.390625 57.25 
Q 46.296875 56.09375 47.4375 54 
Q 48.59375 51.90625 48.59375 48.5 
Q 48.59375 45.09375 47.4375 43 
Q 46.296875 40.90625 44.390625 39.75 
Q 42.5 38.59375 40 38.1875 
Q 37.5 37.796875 34.796875 37.796875 
z
M 6.90625 71.40625 
L 6.90625 0 
L 22.59375 0 
L 22.59375 25.59375 
L 39.09375 25.59375 
Q 45.796875 25.59375 50.5 27.546875 
Q 55.203125 29.5 58.140625 32.703125 
Q 61.09375 35.90625 62.4375 40.046875 
Q 63.796875 44.203125 63.796875 48.5 
Q 63.796875 52.90625 62.4375 57 
Q 61.09375 61.09375 58.140625 64.296875 
Q 55.203125 67.5 50.5 69.453125 
Q 45.796875 71.40625 39.09375 71.40625 
z
" id="HelveticaNeue-Bold-80"/>
    <path d="M 5.40625 51.703125 
L 5.40625 0 
L 19.59375 0 
L 19.59375 23.296875 
Q 19.59375 26.796875 20.296875 29.796875 
Q 21 32.796875 22.640625 35.046875 
Q 24.296875 37.296875 27 38.59375 
Q 29.703125 39.90625 33.59375 39.90625 
Q 34.90625 39.90625 36.296875 39.75 
Q 37.703125 39.59375 38.703125 39.40625 
L 38.703125 52.59375 
Q 37 53.09375 35.59375 53.09375 
Q 32.90625 53.09375 30.40625 52.296875 
Q 27.90625 51.5 25.703125 50.046875 
Q 23.5 48.59375 21.796875 46.546875 
Q 20.09375 44.5 19.09375 42.09375 
L 18.90625 42.09375 
L 18.90625 51.703125 
z
" id="HelveticaNeue-Bold-114"/>
    <path d="M 18 25.796875 
Q 18 28.90625 18.59375 31.90625 
Q 19.203125 34.90625 20.640625 37.203125 
Q 22.09375 39.5 24.5 40.953125 
Q 26.90625 42.40625 30.5 42.40625 
Q 34.09375 42.40625 36.546875 40.953125 
Q 39 39.5 40.453125 37.203125 
Q 41.90625 34.90625 42.5 31.90625 
Q 43.09375 28.90625 43.09375 25.796875 
Q 43.09375 22.703125 42.5 19.75 
Q 41.90625 16.796875 40.453125 14.4375 
Q 39 12.09375 36.546875 10.6875 
Q 34.09375 9.296875 30.5 9.296875 
Q 26.90625 9.296875 24.5 10.6875 
Q 22.09375 12.09375 20.640625 14.4375 
Q 19.203125 16.796875 18.59375 19.75 
Q 18 22.703125 18 25.796875 
z
M 3.796875 25.796875 
Q 3.796875 19.59375 5.6875 14.59375 
Q 7.59375 9.59375 11.09375 6.046875 
Q 14.59375 2.5 19.5 0.59375 
Q 24.40625 -1.296875 30.5 -1.296875 
Q 36.59375 -1.296875 41.546875 0.59375 
Q 46.5 2.5 50 6.046875 
Q 53.5 9.59375 55.390625 14.59375 
Q 57.296875 19.59375 57.296875 25.796875 
Q 57.296875 32 55.390625 37.046875 
Q 53.5 42.09375 50 45.640625 
Q 46.5 49.203125 41.546875 51.140625 
Q 36.59375 53.09375 30.5 53.09375 
Q 24.40625 53.09375 19.5 51.140625 
Q 14.59375 49.203125 11.09375 45.640625 
Q 7.59375 42.09375 5.6875 37.046875 
Q 3.796875 32 3.796875 25.796875 
z
" id="HelveticaNeue-Bold-111"/>
    <path d="M 5.796875 71.40625 
L 5.796875 0 
L 20 0 
L 20 71.40625 
z
" id="HelveticaNeue-Bold-108"/>
    <path d="M 23.40625 51.703125 
L 23.40625 67.203125 
L 9.203125 67.203125 
L 9.203125 51.703125 
L 0.59375 51.703125 
L 0.59375 42.203125 
L 9.203125 42.203125 
L 9.203125 11.703125 
Q 9.203125 7.796875 10.5 5.390625 
Q 11.796875 3 14.046875 1.703125 
Q 16.296875 0.40625 19.25 -0.046875 
Q 22.203125 -0.5 25.5 -0.5 
Q 27.59375 -0.5 29.796875 -0.390625 
Q 32 -0.296875 33.796875 0 
L 33.796875 11 
Q 32.796875 10.796875 31.6875 10.6875 
Q 30.59375 10.59375 29.40625 10.59375 
Q 25.796875 10.59375 24.59375 11.796875 
Q 23.40625 13 23.40625 16.59375 
L 23.40625 42.203125 
L 33.796875 42.203125 
L 33.796875 51.703125 
z
" id="HelveticaNeue-Bold-116"/>
    <path id="HelveticaNeue-Bold-32"/>
    <path d="M 24.90625 27.59375 
L 34.203125 53.796875 
L 34.40625 53.796875 
L 43.40625 27.59375 
z
M 26.40625 71.40625 
L -0.59375 0 
L 15.203125 0 
L 20.796875 15.90625 
L 47.5 15.90625 
L 52.90625 0 
L 69.203125 0 
L 42.5 71.40625 
z
" id="HelveticaNeue-Bold-65"/>
    <path d="M 6.90625 71.40625 
L 6.90625 0 
L 22.59375 0 
L 22.59375 71.40625 
z
" id="HelveticaNeue-Bold-73"/>
   </defs>
   <g transform="translate(161.540703 10.371563)scale(0.09 -0.09)">
    <use xlink:href="#HelveticaNeue-Bold-80"/>
    <use x="66.699997" xlink:href="#HelveticaNeue-Bold-114"/>
    <use x="105.584366" xlink:href="#HelveticaNeue-Bold-111"/>
    <use x="166.684357" xlink:href="#HelveticaNeue-Bold-80"/>
    <use x="233.384354" xlink:href="#HelveticaNeue-Bold-108"/>
    <use x="259.184341" xlink:href="#HelveticaNeue-Bold-111"/>
    <use x="320.284332" xlink:href="#HelveticaNeue-Bold-116"/>
    <use x="355.484329" xlink:href="#HelveticaNeue-Bold-32"/>
    <use x="383.284317" xlink:href="#HelveticaNeue-Bold-65"/>
    <use x="451.784302" xlink:href="#HelveticaNeue-Bold-80"/>
    <use x="518.484299" xlink:href="#HelveticaNeue-Bold-73"/>
   </g>
  </g>
 </g>
 <defs>
  <clipPath id="pfc81bca3d5">
   <rect height="144" width="144" x="36.2" y="24.1"/>
  </clipPath>
  <clipPath id="pf7a16b02aa">
   <rect height="144" width="144" x="192.2" y="24.1"/>
  </clipPath>
 </defs>
</svg>
