<?xml version="1.0" encoding="utf-8" standalone="no"?>
<!DOCTYPE svg PUBLIC "-//W3C//DTD SVG 1.1//EN"
  "http://www.w3.org/Graphics/SVG/1.1/DTD/svg11.dtd">
<!-- Created with matplotlib (https://matplotlib.org/) -->
<svg height="243.9pt" version="1.1" viewBox="0 0 230.8 243.9" width="230.8pt" xmlns="http://www.w3.org/2000/svg" xmlns:xlink="http://www.w3.org/1999/xlink">
 <defs>
  <style type="text/css">
*{stroke-linecap:butt;stroke-linejoin:round;}
  </style>
 </defs>
 <g id="figure_1">
  <g id="patch_1">
   <path d="M 0 243.9 
L 230.74375 243.9 
L 230.74375 -0.14375 
L 0 -0.14375 
z
" style="fill:#f2f2f2;"/>
  </g>
  <g id="axes_1">
   <g id="patch_2">
    <path d="M 4 239.9 
L 220 239.9 
L 220 23.9 
L 4 23.9 
z
" style="fill:none;opacity:0;"/>
   </g>
   <g id="QuadMesh_1">
    <path clip-path="url(#p3bb36c2a3e)" d="M 4 23.9 
L 25.6 23.9 
L 25.6 45.5 
L 4 45.5 
L 4 23.9 
" style="fill:#921519;stroke:#921519;stroke-width:0.4;"/>
    <path clip-path="url(#p3bb36c2a3e)" d="M 25.6 23.9 
L 47.2 23.9 
L 47.2 45.5 
L 25.6 45.5 
L 25.6 23.9 
" style="fill:#fa8e2e;stroke:#fa8e2e;stroke-width:0.4;"/>
    <path clip-path="url(#p3bb36c2a3e)" d="M 47.2 23.9 
L 68.8 23.9 
L 68.8 45.5 
L 47.2 45.5 
L 47.2 23.9 
" style="fill:#e44529;stroke:#e44529;stroke-width:0.4;"/>
    <path clip-path="url(#p3bb36c2a3e)" d="M 68.8 23.9 
L 90.4 23.9 
L 90.4 45.5 
L 68.8 45.5 
L 68.8 23.9 
" style="fill:#4589c7;stroke:#4589c7;stroke-width:0.4;"/>
    <path clip-path="url(#p3bb36c2a3e)" d="M 90.4 23.9 
L 112 23.9 
L 112 45.5 
L 90.4 45.5 
L 90.4 23.9 
" style="fill:#caebf9;stroke:#caebf9;stroke-width:0.4;"/>
    <path clip-path="url(#p3bb36c2a3e)" d="M 112 23.9 
L 133.6 23.9 
L 133.6 45.5 
L 112 45.5 
L 112 23.9 
" style="fill:#caebf9;stroke:#caebf9;stroke-width:0.4;"/>
    <path clip-path="url(#p3bb36c2a3e)" d="M 133.6 23.9 
L 155.2 23.9 
L 155.2 45.5 
L 133.6 45.5 
L 133.6 23.9 
" style="fill:#fdf0b2;stroke:#fdf0b2;stroke-width:0.4;"/>
    <path clip-path="url(#p3bb36c2a3e)" d="M 155.2 23.9 
L 176.8 23.9 
L 176.8 45.5 
L 155.2 45.5 
L 155.2 23.9 
" style="fill:#91d1f2;stroke:#91d1f2;stroke-width:0.4;"/>
    <path clip-path="url(#p3bb36c2a3e)" d="M 176.8 23.9 
L 198.4 23.9 
L 198.4 45.5 
L 176.8 45.5 
L 176.8 23.9 
" style="fill:#f7fcfe;stroke:#f7fcfe;stroke-width:0.4;"/>
    <path clip-path="url(#p3bb36c2a3e)" d="M 198.4 23.9 
L 220 23.9 
L 220 45.5 
L 198.4 45.5 
L 198.4 23.9 
" style="fill:#caebf9;stroke:#caebf9;stroke-width:0.4;"/>
    <path clip-path="url(#p3bb36c2a3e)" d="M 4 45.5 
L 25.6 45.5 
L 25.6 67.1 
L 4 67.1 
L 4 45.5 
" style="fill:none;"/>
    <path clip-path="url(#p3bb36c2a3e)" d="M 25.6 45.5 
L 47.2 45.5 
L 47.2 67.1 
L 25.6 67.1 
L 25.6 45.5 
" style="fill:#921519;stroke:#921519;stroke-width:0.4;"/>
    <path clip-path="url(#p3bb36c2a3e)" d="M 47.2 45.5 
L 68.8 45.5 
L 68.8 67.1 
L 47.2 67.1 
L 47.2 45.5 
" style="fill:#b91b22;stroke:#b91b22;stroke-width:0.4;"/>
    <path clip-path="url(#p3bb36c2a3e)" d="M 68.8 45.5 
L 90.4 45.5 
L 90.4 67.1 
L 68.8 67.1 
L 68.8 45.5 
" style="fill:#2e68b0;stroke:#2e68b0;stroke-width:0.4;"/>
    <path clip-path="url(#p3bb36c2a3e)" d="M 90.4 45.5 
L 112 45.5 
L 112 67.1 
L 90.4 67.1 
L 90.4 45.5 
" style="fill:#519ad2;stroke:#519ad2;stroke-width:0.4;"/>
    <path clip-path="url(#p3bb36c2a3e)" d="M 112 45.5 
L 133.6 45.5 
L 133.6 67.1 
L 112 67.1 
L 112 45.5 
" style="fill:#91d1f2;stroke:#91d1f2;stroke-width:0.4;"/>
    <path clip-path="url(#p3bb36c2a3e)" d="M 133.6 45.5 
L 155.2 45.5 
L 155.2 67.1 
L 133.6 67.1 
L 133.6 45.5 
" style="fill:#fca230;stroke:#fca230;stroke-width:0.4;"/>
    <path clip-path="url(#p3bb36c2a3e)" d="M 155.2 45.5 
L 176.8 45.5 
L 176.8 67.1 
L 155.2 67.1 
L 155.2 45.5 
" style="fill:#4184c3;stroke:#4184c3;stroke-width:0.4;"/>
    <path clip-path="url(#p3bb36c2a3e)" d="M 176.8 45.5 
L 198.4 45.5 
L 198.4 67.1 
L 176.8 67.1 
L 176.8 45.5 
" style="fill:#fffdf6;stroke:#fffdf6;stroke-width:0.4;"/>
    <path clip-path="url(#p3bb36c2a3e)" d="M 198.4 45.5 
L 220 45.5 
L 220 67.1 
L 198.4 67.1 
L 198.4 45.5 
" style="fill:#4a91cc;stroke:#4a91cc;stroke-width:0.4;"/>
    <path clip-path="url(#p3bb36c2a3e)" d="M 4 67.1 
L 25.6 67.1 
L 25.6 88.7 
L 4 88.7 
L 4 67.1 
" style="fill:none;"/>
    <path clip-path="url(#p3bb36c2a3e)" d="M 25.6 67.1 
L 47.2 67.1 
L 47.2 88.7 
L 25.6 88.7 
L 25.6 67.1 
" style="fill:none;"/>
    <path clip-path="url(#p3bb36c2a3e)" d="M 47.2 67.1 
L 68.8 67.1 
L 68.8 88.7 
L 47.2 88.7 
L 47.2 67.1 
" style="fill:#921519;stroke:#921519;stroke-width:0.4;"/>
    <path clip-path="url(#p3bb36c2a3e)" d="M 68.8 67.1 
L 90.4 67.1 
L 90.4 88.7 
L 68.8 88.7 
L 68.8 67.1 
" style="fill:#3776b9;stroke:#3776b9;stroke-width:0.4;"/>
    <path clip-path="url(#p3bb36c2a3e)" d="M 90.4 67.1 
L 112 67.1 
L 112 88.7 
L 90.4 88.7 
L 90.4 67.1 
" style="fill:#55a2d6;stroke:#55a2d6;stroke-width:0.4;"/>
    <path clip-path="url(#p3bb36c2a3e)" d="M 112 67.1 
L 133.6 67.1 
L 133.6 88.7 
L 112 88.7 
L 112 67.1 
" style="fill:#9cd9f7;stroke:#9cd9f7;stroke-width:0.4;"/>
    <path clip-path="url(#p3bb36c2a3e)" d="M 133.6 67.1 
L 155.2 67.1 
L 155.2 88.7 
L 133.6 88.7 
L 133.6 67.1 
" style="fill:#fb9b2f;stroke:#fb9b2f;stroke-width:0.4;"/>
    <path clip-path="url(#p3bb36c2a3e)" d="M 155.2 67.1 
L 176.8 67.1 
L 176.8 88.7 
L 155.2 88.7 
L 155.2 67.1 
" style="fill:#2356a3;stroke:#2356a3;stroke-width:0.4;"/>
    <path clip-path="url(#p3bb36c2a3e)" d="M 176.8 67.1 
L 198.4 67.1 
L 198.4 88.7 
L 176.8 88.7 
L 176.8 67.1 
" style="fill:#fdf2bd;stroke:#fdf2bd;stroke-width:0.4;"/>
    <path clip-path="url(#p3bb36c2a3e)" d="M 198.4 67.1 
L 220 67.1 
L 220 88.7 
L 198.4 88.7 
L 198.4 67.1 
" style="fill:#3b7bbd;stroke:#3b7bbd;stroke-width:0.4;"/>
    <path clip-path="url(#p3bb36c2a3e)" d="M 4 88.7 
L 25.6 88.7 
L 25.6 110.3 
L 4 110.3 
L 4 88.7 
" style="fill:none;"/>
    <path clip-path="url(#p3bb36c2a3e)" d="M 25.6 88.7 
L 47.2 88.7 
L 47.2 110.3 
L 25.6 110.3 
L 25.6 88.7 
" style="fill:none;"/>
    <path clip-path="url(#p3bb36c2a3e)" d="M 47.2 88.7 
L 68.8 88.7 
L 68.8 110.3 
L 47.2 110.3 
L 47.2 88.7 
" style="fill:none;"/>
    <path clip-path="url(#p3bb36c2a3e)" d="M 68.8 88.7 
L 90.4 88.7 
L 90.4 110.3 
L 68.8 110.3 
L 68.8 88.7 
" style="fill:#921519;stroke:#921519;stroke-width:0.4;"/>
    <path clip-path="url(#p3bb36c2a3e)" d="M 90.4 88.7 
L 112 88.7 
L 112 110.3 
L 90.4 110.3 
L 90.4 88.7 
" style="fill:#de3728;stroke:#de3728;stroke-width:0.4;"/>
    <path clip-path="url(#p3bb36c2a3e)" d="M 112 88.7 
L 133.6 88.7 
L 133.6 110.3 
L 112 110.3 
L 112 88.7 
" style="fill:#d11f27;stroke:#d11f27;stroke-width:0.4;"/>
    <path clip-path="url(#p3bb36c2a3e)" d="M 133.6 88.7 
L 155.2 88.7 
L 155.2 110.3 
L 133.6 110.3 
L 133.6 88.7 
" style="fill:#3776b9;stroke:#3776b9;stroke-width:0.4;"/>
    <path clip-path="url(#p3bb36c2a3e)" d="M 155.2 88.7 
L 176.8 88.7 
L 176.8 110.3 
L 155.2 110.3 
L 155.2 88.7 
" style="fill:#d72828;stroke:#d72828;stroke-width:0.4;"/>
    <path clip-path="url(#p3bb36c2a3e)" d="M 176.8 88.7 
L 198.4 88.7 
L 198.4 110.3 
L 176.8 110.3 
L 176.8 88.7 
" style="fill:#aee0f8;stroke:#aee0f8;stroke-width:0.4;"/>
    <path clip-path="url(#p3bb36c2a3e)" d="M 198.4 88.7 
L 220 88.7 
L 220 110.3 
L 198.4 110.3 
L 198.4 88.7 
" style="fill:#f6742a;stroke:#f6742a;stroke-width:0.4;"/>
    <path clip-path="url(#p3bb36c2a3e)" d="M 4 110.3 
L 25.6 110.3 
L 25.6 131.9 
L 4 131.9 
L 4 110.3 
" style="fill:none;"/>
    <path clip-path="url(#p3bb36c2a3e)" d="M 25.6 110.3 
L 47.2 110.3 
L 47.2 131.9 
L 25.6 131.9 
L 25.6 110.3 
" style="fill:none;"/>
    <path clip-path="url(#p3bb36c2a3e)" d="M 47.2 110.3 
L 68.8 110.3 
L 68.8 131.9 
L 47.2 131.9 
L 47.2 110.3 
" style="fill:none;"/>
    <path clip-path="url(#p3bb36c2a3e)" d="M 68.8 110.3 
L 90.4 110.3 
L 90.4 131.9 
L 68.8 131.9 
L 68.8 110.3 
" style="fill:none;"/>
    <path clip-path="url(#p3bb36c2a3e)" d="M 90.4 110.3 
L 112 110.3 
L 112 131.9 
L 90.4 131.9 
L 90.4 110.3 
" style="fill:#921519;stroke:#921519;stroke-width:0.4;"/>
    <path clip-path="url(#p3bb36c2a3e)" d="M 112 110.3 
L 133.6 110.3 
L 133.6 131.9 
L 112 131.9 
L 112 110.3 
" style="fill:#d72828;stroke:#d72828;stroke-width:0.4;"/>
    <path clip-path="url(#p3bb36c2a3e)" d="M 133.6 110.3 
L 155.2 110.3 
L 155.2 131.9 
L 133.6 131.9 
L 133.6 110.3 
" style="fill:#224e96;stroke:#224e96;stroke-width:0.4;"/>
    <path clip-path="url(#p3bb36c2a3e)" d="M 155.2 110.3 
L 176.8 110.3 
L 176.8 131.9 
L 155.2 131.9 
L 155.2 110.3 
" style="fill:#d11f27;stroke:#d11f27;stroke-width:0.4;"/>
    <path clip-path="url(#p3bb36c2a3e)" d="M 176.8 110.3 
L 198.4 110.3 
L 198.4 131.9 
L 176.8 131.9 
L 176.8 110.3 
" style="fill:#326eb4;stroke:#326eb4;stroke-width:0.4;"/>
    <path clip-path="url(#p3bb36c2a3e)" d="M 198.4 110.3 
L 220 110.3 
L 220 131.9 
L 198.4 131.9 
L 198.4 110.3 
" style="fill:#e44529;stroke:#e44529;stroke-width:0.4;"/>
    <path clip-path="url(#p3bb36c2a3e)" d="M 4 131.9 
L 25.6 131.9 
L 25.6 153.5 
L 4 153.5 
L 4 131.9 
" style="fill:none;"/>
    <path clip-path="url(#p3bb36c2a3e)" d="M 25.6 131.9 
L 47.2 131.9 
L 47.2 153.5 
L 25.6 153.5 
L 25.6 131.9 
" style="fill:none;"/>
    <path clip-path="url(#p3bb36c2a3e)" d="M 47.2 131.9 
L 68.8 131.9 
L 68.8 153.5 
L 47.2 153.5 
L 47.2 131.9 
" style="fill:none;"/>
    <path clip-path="url(#p3bb36c2a3e)" d="M 68.8 131.9 
L 90.4 131.9 
L 90.4 153.5 
L 68.8 153.5 
L 68.8 131.9 
" style="fill:none;"/>
    <path clip-path="url(#p3bb36c2a3e)" d="M 90.4 131.9 
L 112 131.9 
L 112 153.5 
L 90.4 153.5 
L 90.4 131.9 
" style="fill:none;"/>
    <path clip-path="url(#p3bb36c2a3e)" d="M 112 131.9 
L 133.6 131.9 
L 133.6 153.5 
L 112 153.5 
L 112 131.9 
" style="fill:#921519;stroke:#921519;stroke-width:0.4;"/>
    <path clip-path="url(#p3bb36c2a3e)" d="M 133.6 131.9 
L 155.2 131.9 
L 155.2 153.5 
L 133.6 153.5 
L 133.6 131.9 
" style="fill:#204588;stroke:#204588;stroke-width:0.4;"/>
    <path clip-path="url(#p3bb36c2a3e)" d="M 155.2 131.9 
L 176.8 131.9 
L 176.8 153.5 
L 155.2 153.5 
L 155.2 131.9 
" style="fill:#e84d29;stroke:#e84d29;stroke-width:0.4;"/>
    <path clip-path="url(#p3bb36c2a3e)" d="M 176.8 131.9 
L 198.4 131.9 
L 198.4 153.5 
L 176.8 153.5 
L 176.8 131.9 
" style="fill:#5eaadb;stroke:#5eaadb;stroke-width:0.4;"/>
    <path clip-path="url(#p3bb36c2a3e)" d="M 198.4 131.9 
L 220 131.9 
L 220 153.5 
L 198.4 153.5 
L 198.4 131.9 
" style="fill:#fa8e2e;stroke:#fa8e2e;stroke-width:0.4;"/>
    <path clip-path="url(#p3bb36c2a3e)" d="M 4 153.5 
L 25.6 153.5 
L 25.6 175.1 
L 4 175.1 
L 4 153.5 
" style="fill:none;"/>
    <path clip-path="url(#p3bb36c2a3e)" d="M 25.6 153.5 
L 47.2 153.5 
L 47.2 175.1 
L 25.6 175.1 
L 25.6 153.5 
" style="fill:none;"/>
    <path clip-path="url(#p3bb36c2a3e)" d="M 47.2 153.5 
L 68.8 153.5 
L 68.8 175.1 
L 47.2 175.1 
L 47.2 153.5 
" style="fill:none;"/>
    <path clip-path="url(#p3bb36c2a3e)" d="M 68.8 153.5 
L 90.4 153.5 
L 90.4 175.1 
L 68.8 175.1 
L 68.8 153.5 
" style="fill:none;"/>
    <path clip-path="url(#p3bb36c2a3e)" d="M 90.4 153.5 
L 112 153.5 
L 112 175.1 
L 90.4 175.1 
L 90.4 153.5 
" style="fill:none;"/>
    <path clip-path="url(#p3bb36c2a3e)" d="M 112 153.5 
L 133.6 153.5 
L 133.6 175.1 
L 112 175.1 
L 112 153.5 
" style="fill:none;"/>
    <path clip-path="url(#p3bb36c2a3e)" d="M 133.6 153.5 
L 155.2 153.5 
L 155.2 175.1 
L 133.6 175.1 
L 133.6 153.5 
" style="fill:#921519;stroke:#921519;stroke-width:0.4;"/>
    <path clip-path="url(#p3bb36c2a3e)" d="M 155.2 153.5 
L 176.8 153.5 
L 176.8 175.1 
L 155.2 175.1 
L 155.2 153.5 
" style="fill:#204588;stroke:#204588;stroke-width:0.4;"/>
    <path clip-path="url(#p3bb36c2a3e)" d="M 176.8 153.5 
L 198.4 153.5 
L 198.4 175.1 
L 176.8 175.1 
L 176.8 153.5 
" style="fill:#d11f27;stroke:#d11f27;stroke-width:0.4;"/>
    <path clip-path="url(#p3bb36c2a3e)" d="M 198.4 153.5 
L 220 153.5 
L 220 175.1 
L 198.4 175.1 
L 198.4 153.5 
" style="fill:#285fab;stroke:#285fab;stroke-width:0.4;"/>
    <path clip-path="url(#p3bb36c2a3e)" d="M 4 175.1 
L 25.6 175.1 
L 25.6 196.7 
L 4 196.7 
L 4 175.1 
" style="fill:none;"/>
    <path clip-path="url(#p3bb36c2a3e)" d="M 25.6 175.1 
L 47.2 175.1 
L 47.2 196.7 
L 25.6 196.7 
L 25.6 175.1 
" style="fill:none;"/>
    <path clip-path="url(#p3bb36c2a3e)" d="M 47.2 175.1 
L 68.8 175.1 
L 68.8 196.7 
L 47.2 196.7 
L 47.2 175.1 
" style="fill:none;"/>
    <path clip-path="url(#p3bb36c2a3e)" d="M 68.8 175.1 
L 90.4 175.1 
L 90.4 196.7 
L 68.8 196.7 
L 68.8 175.1 
" style="fill:none;"/>
    <path clip-path="url(#p3bb36c2a3e)" d="M 90.4 175.1 
L 112 175.1 
L 112 196.7 
L 90.4 196.7 
L 90.4 175.1 
" style="fill:none;"/>
    <path clip-path="url(#p3bb36c2a3e)" d="M 112 175.1 
L 133.6 175.1 
L 133.6 196.7 
L 112 196.7 
L 112 175.1 
" style="fill:none;"/>
    <path clip-path="url(#p3bb36c2a3e)" d="M 133.6 175.1 
L 155.2 175.1 
L 155.2 196.7 
L 133.6 196.7 
L 133.6 175.1 
" style="fill:none;"/>
    <path clip-path="url(#p3bb36c2a3e)" d="M 155.2 175.1 
L 176.8 175.1 
L 176.8 196.7 
L 155.2 196.7 
L 155.2 175.1 
" style="fill:#921519;stroke:#921519;stroke-width:0.4;"/>
    <path clip-path="url(#p3bb36c2a3e)" d="M 176.8 175.1 
L 198.4 175.1 
L 198.4 196.7 
L 176.8 196.7 
L 176.8 175.1 
" style="fill:#55a2d6;stroke:#55a2d6;stroke-width:0.4;"/>
    <path clip-path="url(#p3bb36c2a3e)" d="M 198.4 175.1 
L 220 175.1 
L 220 196.7 
L 198.4 196.7 
L 198.4 175.1 
" style="fill:#b21a21;stroke:#b21a21;stroke-width:0.4;"/>
    <path clip-path="url(#p3bb36c2a3e)" d="M 4 196.7 
L 25.6 196.7 
L 25.6 218.3 
L 4 218.3 
L 4 196.7 
" style="fill:none;"/>
    <path clip-path="url(#p3bb36c2a3e)" d="M 25.6 196.7 
L 47.2 196.7 
L 47.2 218.3 
L 25.6 218.3 
L 25.6 196.7 
" style="fill:none;"/>
    <path clip-path="url(#p3bb36c2a3e)" d="M 47.2 196.7 
L 68.8 196.7 
L 68.8 218.3 
L 47.2 218.3 
L 47.2 196.7 
" style="fill:none;"/>
    <path clip-path="url(#p3bb36c2a3e)" d="M 68.8 196.7 
L 90.4 196.7 
L 90.4 218.3 
L 68.8 218.3 
L 68.8 196.7 
" style="fill:none;"/>
    <path clip-path="url(#p3bb36c2a3e)" d="M 90.4 196.7 
L 112 196.7 
L 112 218.3 
L 90.4 218.3 
L 90.4 196.7 
" style="fill:none;"/>
    <path clip-path="url(#p3bb36c2a3e)" d="M 112 196.7 
L 133.6 196.7 
L 133.6 218.3 
L 112 218.3 
L 112 196.7 
" style="fill:none;"/>
    <path clip-path="url(#p3bb36c2a3e)" d="M 133.6 196.7 
L 155.2 196.7 
L 155.2 218.3 
L 133.6 218.3 
L 133.6 196.7 
" style="fill:none;"/>
    <path clip-path="url(#p3bb36c2a3e)" d="M 155.2 196.7 
L 176.8 196.7 
L 176.8 218.3 
L 155.2 218.3 
L 155.2 196.7 
" style="fill:none;"/>
    <path clip-path="url(#p3bb36c2a3e)" d="M 176.8 196.7 
L 198.4 196.7 
L 198.4 218.3 
L 176.8 218.3 
L 176.8 196.7 
" style="fill:#921519;stroke:#921519;stroke-width:0.4;"/>
    <path clip-path="url(#p3bb36c2a3e)" d="M 198.4 196.7 
L 220 196.7 
L 220 218.3 
L 198.4 218.3 
L 198.4 196.7 
" style="fill:#55a2d6;stroke:#55a2d6;stroke-width:0.4;"/>
    <path clip-path="url(#p3bb36c2a3e)" d="M 4 218.3 
L 25.6 218.3 
L 25.6 239.9 
L 4 239.9 
L 4 218.3 
" style="fill:none;"/>
    <path clip-path="url(#p3bb36c2a3e)" d="M 25.6 218.3 
L 47.2 218.3 
L 47.2 239.9 
L 25.6 239.9 
L 25.6 218.3 
" style="fill:none;"/>
    <path clip-path="url(#p3bb36c2a3e)" d="M 47.2 218.3 
L 68.8 218.3 
L 68.8 239.9 
L 47.2 239.9 
L 47.2 218.3 
" style="fill:none;"/>
    <path clip-path="url(#p3bb36c2a3e)" d="M 68.8 218.3 
L 90.4 218.3 
L 90.4 239.9 
L 68.8 239.9 
L 68.8 218.3 
" style="fill:none;"/>
    <path clip-path="url(#p3bb36c2a3e)" d="M 90.4 218.3 
L 112 218.3 
L 112 239.9 
L 90.4 239.9 
L 90.4 218.3 
" style="fill:none;"/>
    <path clip-path="url(#p3bb36c2a3e)" d="M 112 218.3 
L 133.6 218.3 
L 133.6 239.9 
L 112 239.9 
L 112 218.3 
" style="fill:none;"/>
    <path clip-path="url(#p3bb36c2a3e)" d="M 133.6 218.3 
L 155.2 218.3 
L 155.2 239.9 
L 133.6 239.9 
L 133.6 218.3 
" style="fill:none;"/>
    <path clip-path="url(#p3bb36c2a3e)" d="M 155.2 218.3 
L 176.8 218.3 
L 176.8 239.9 
L 155.2 239.9 
L 155.2 218.3 
" style="fill:none;"/>
    <path clip-path="url(#p3bb36c2a3e)" d="M 176.8 218.3 
L 198.4 218.3 
L 198.4 239.9 
L 176.8 239.9 
L 176.8 218.3 
" style="fill:none;"/>
    <path clip-path="url(#p3bb36c2a3e)" d="M 198.4 218.3 
L 220 218.3 
L 220 239.9 
L 198.4 239.9 
L 198.4 218.3 
" style="fill:#921519;stroke:#921519;stroke-width:0.4;"/>
   </g>
   <g id="matplotlib.axis_1">
    <g id="xtick_1">
     <g id="line2d_1"/>
     <g id="text_1">
      <!-- a -->
      <defs>
       <path d="M 52.203125 0.203125 
Q 50 -1.09375 46.09375 -1.09375 
Q 42.796875 -1.09375 40.84375 0.75 
Q 38.90625 2.59375 38.90625 6.796875 
Q 35.40625 2.59375 30.75 0.75 
Q 26.09375 -1.09375 20.703125 -1.09375 
Q 17.203125 -1.09375 14.046875 -0.296875 
Q 10.90625 0.5 8.59375 2.203125 
Q 6.296875 3.90625 4.9375 6.65625 
Q 3.59375 9.40625 3.59375 13.296875 
Q 3.59375 17.703125 5.09375 20.5 
Q 6.59375 23.296875 9.046875 25.046875 
Q 11.5 26.796875 14.640625 27.6875 
Q 17.796875 28.59375 21.09375 29.203125 
Q 24.59375 29.90625 27.75 30.25 
Q 30.90625 30.59375 33.296875 31.25 
Q 35.703125 31.90625 37.09375 33.15625 
Q 38.5 34.40625 38.5 36.796875 
Q 38.5 39.59375 37.453125 41.296875 
Q 36.40625 43 34.75 43.890625 
Q 33.09375 44.796875 31.046875 45.09375 
Q 29 45.40625 27 45.40625 
Q 21.59375 45.40625 18 43.34375 
Q 14.40625 41.296875 14.09375 35.59375 
L 5.59375 35.59375 
Q 5.796875 40.40625 7.59375 43.703125 
Q 9.40625 47 12.40625 49.046875 
Q 15.40625 51.09375 19.25 52 
Q 23.09375 52.90625 27.5 52.90625 
Q 31 52.90625 34.453125 52.40625 
Q 37.90625 51.90625 40.703125 50.34375 
Q 43.5 48.796875 45.203125 46 
Q 46.90625 43.203125 46.90625 38.703125 
L 46.90625 12.09375 
Q 46.90625 9.09375 47.25 7.6875 
Q 47.59375 6.296875 49.59375 6.296875 
Q 50.703125 6.296875 52.203125 6.796875 
z
M 38.40625 26.703125 
Q 36.796875 25.5 34.1875 24.953125 
Q 31.59375 24.40625 28.75 24.046875 
Q 25.90625 23.703125 23 23.25 
Q 20.09375 22.796875 17.796875 21.796875 
Q 15.5 20.796875 14.046875 18.9375 
Q 12.59375 17.09375 12.59375 13.90625 
Q 12.59375 11.796875 13.4375 10.34375 
Q 14.296875 8.90625 15.640625 8 
Q 17 7.09375 18.796875 6.6875 
Q 20.59375 6.296875 22.59375 6.296875 
Q 26.796875 6.296875 29.796875 7.4375 
Q 32.796875 8.59375 34.6875 10.34375 
Q 36.59375 12.09375 37.5 14.140625 
Q 38.40625 16.203125 38.40625 18 
z
" id="HelveticaNeue-97"/>
      </defs>
      <g transform="translate(12.651875 20.32375)scale(0.08 -0.08)">
       <use xlink:href="#HelveticaNeue-97"/>
      </g>
     </g>
    </g>
    <g id="xtick_2">
     <g id="line2d_2"/>
     <g id="text_2">
      <!-- b -->
      <defs>
       <path d="M 6.703125 71.40625 
L 6.703125 0 
L 15.203125 0 
L 15.203125 6.90625 
L 15.40625 6.90625 
Q 16.796875 4.59375 18.84375 3.046875 
Q 20.90625 1.5 23.203125 0.59375 
Q 25.5 -0.296875 27.84375 -0.6875 
Q 30.203125 -1.09375 32.09375 -1.09375 
Q 38 -1.09375 42.453125 1 
Q 46.90625 3.09375 49.84375 6.75 
Q 52.796875 10.40625 54.25 15.296875 
Q 55.703125 20.203125 55.703125 25.703125 
Q 55.703125 31.203125 54.203125 36.09375 
Q 52.703125 41 49.75 44.75 
Q 46.796875 48.5 42.34375 50.703125 
Q 37.90625 52.90625 31.90625 52.90625 
Q 26.5 52.90625 22 50.953125 
Q 17.5 49 15.40625 44.703125 
L 15.203125 44.703125 
L 15.203125 71.40625 
z
M 46.703125 26.296875 
Q 46.703125 22.5 45.890625 18.890625 
Q 45.09375 15.296875 43.296875 12.5 
Q 41.5 9.703125 38.546875 8 
Q 35.59375 6.296875 31.203125 6.296875 
Q 26.796875 6.296875 23.6875 7.9375 
Q 20.59375 9.59375 18.640625 12.296875 
Q 16.703125 15 15.796875 18.546875 
Q 14.90625 22.09375 14.90625 25.90625 
Q 14.90625 29.5 15.75 33 
Q 16.59375 36.5 18.5 39.25 
Q 20.40625 42 23.40625 43.703125 
Q 26.40625 45.40625 30.703125 45.40625 
Q 34.796875 45.40625 37.84375 43.796875 
Q 40.90625 42.203125 42.84375 39.5 
Q 44.796875 36.796875 45.75 33.34375 
Q 46.703125 29.90625 46.703125 26.296875 
z
" id="HelveticaNeue-98"/>
      </defs>
      <g transform="translate(34.028125 20.32375)scale(0.08 -0.08)">
       <use xlink:href="#HelveticaNeue-98"/>
      </g>
     </g>
    </g>
    <g id="xtick_3">
     <g id="line2d_3"/>
     <g id="text_3">
      <!-- c -->
      <defs>
       <path d="M 41.5 35.09375 
L 50.296875 35.09375 
Q 49.796875 39.703125 47.890625 43.046875 
Q 46 46.40625 43.046875 48.59375 
Q 40.09375 50.796875 36.25 51.84375 
Q 32.40625 52.90625 28 52.90625 
Q 21.90625 52.90625 17.296875 50.75 
Q 12.703125 48.59375 9.640625 44.84375 
Q 6.59375 41.09375 5.09375 36.046875 
Q 3.59375 31 3.59375 25.203125 
Q 3.59375 19.40625 5.140625 14.546875 
Q 6.703125 9.703125 9.75 6.203125 
Q 12.796875 2.703125 17.34375 0.796875 
Q 21.90625 -1.09375 27.796875 -1.09375 
Q 37.703125 -1.09375 43.453125 4.09375 
Q 49.203125 9.296875 50.59375 18.90625 
L 41.90625 18.90625 
Q 41.09375 12.90625 37.546875 9.59375 
Q 34 6.296875 27.703125 6.296875 
Q 23.703125 6.296875 20.796875 7.890625 
Q 17.90625 9.5 16.09375 12.140625 
Q 14.296875 14.796875 13.4375 18.1875 
Q 12.59375 21.59375 12.59375 25.203125 
Q 12.59375 29.09375 13.390625 32.75 
Q 14.203125 36.40625 16.046875 39.203125 
Q 17.90625 42 21 43.703125 
Q 24.09375 45.40625 28.703125 45.40625 
Q 34.09375 45.40625 37.296875 42.703125 
Q 40.5 40 41.5 35.09375 
z
" id="HelveticaNeue-99"/>
      </defs>
      <g transform="translate(55.851875 20.32375)scale(0.08 -0.08)">
       <use xlink:href="#HelveticaNeue-99"/>
      </g>
     </g>
    </g>
    <g id="xtick_4">
     <g id="line2d_4"/>
     <g id="text_4">
      <!-- d -->
      <defs>
       <path d="M 12.59375 25.40625 
Q 12.59375 29.203125 13.390625 32.796875 
Q 14.203125 36.40625 16 39.203125 
Q 17.796875 42 20.796875 43.703125 
Q 23.796875 45.40625 28.09375 45.40625 
Q 32.5 45.40625 35.59375 43.75 
Q 38.703125 42.09375 40.640625 39.390625 
Q 42.59375 36.703125 43.5 33.140625 
Q 44.40625 29.59375 44.40625 25.796875 
Q 44.40625 22.203125 43.546875 18.703125 
Q 42.703125 15.203125 40.796875 12.453125 
Q 38.90625 9.703125 35.90625 8 
Q 32.90625 6.296875 28.59375 6.296875 
Q 24.5 6.296875 21.453125 7.890625 
Q 18.40625 9.5 16.453125 12.203125 
Q 14.5 14.90625 13.546875 18.34375 
Q 12.59375 21.796875 12.59375 25.40625 
z
M 52.59375 0 
L 52.59375 71.40625 
L 44.09375 71.40625 
L 44.09375 44.796875 
L 43.90625 44.796875 
Q 42.5 47.09375 40.453125 48.640625 
Q 38.40625 50.203125 36.09375 51.140625 
Q 33.796875 52.09375 31.5 52.5 
Q 29.203125 52.90625 27.203125 52.90625 
Q 21.296875 52.90625 16.84375 50.75 
Q 12.40625 48.59375 9.453125 44.9375 
Q 6.5 41.296875 5.046875 36.390625 
Q 3.59375 31.5 3.59375 26 
Q 3.59375 20.5 5.09375 15.59375 
Q 6.59375 10.703125 9.546875 7 
Q 12.5 3.296875 16.953125 1.09375 
Q 21.40625 -1.09375 27.40625 -1.09375 
Q 32.796875 -1.09375 37.296875 0.796875 
Q 41.796875 2.703125 43.90625 7 
L 44.09375 7 
L 44.09375 0 
z
" id="HelveticaNeue-100"/>
      </defs>
      <g transform="translate(77.228125 20.32375)scale(0.08 -0.08)">
       <use xlink:href="#HelveticaNeue-100"/>
      </g>
     </g>
    </g>
    <g id="xtick_5">
     <g id="line2d_5"/>
     <g id="text_5">
      <!-- e -->
      <defs>
       <path d="M 42.296875 30.796875 
L 12.59375 30.796875 
Q 12.796875 33.796875 13.890625 36.4375 
Q 15 39.09375 16.890625 41.09375 
Q 18.796875 43.09375 21.4375 44.25 
Q 24.09375 45.40625 27.40625 45.40625 
Q 30.59375 45.40625 33.25 44.25 
Q 35.90625 43.09375 37.84375 41.140625 
Q 39.796875 39.203125 40.9375 36.5 
Q 42.09375 33.796875 42.296875 30.796875 
z
M 50.5 16.40625 
L 42.09375 16.40625 
Q 41 11.296875 37.546875 8.796875 
Q 34.09375 6.296875 28.703125 6.296875 
Q 24.5 6.296875 21.390625 7.6875 
Q 18.296875 9.09375 16.296875 11.4375 
Q 14.296875 13.796875 13.390625 16.84375 
Q 12.5 19.90625 12.59375 23.296875 
L 51.296875 23.296875 
Q 51.5 28 50.453125 33.203125 
Q 49.40625 38.40625 46.65625 42.796875 
Q 43.90625 47.203125 39.34375 50.046875 
Q 34.796875 52.90625 27.90625 52.90625 
Q 22.59375 52.90625 18.140625 50.90625 
Q 13.703125 48.90625 10.453125 45.296875 
Q 7.203125 41.703125 5.390625 36.796875 
Q 3.59375 31.90625 3.59375 26 
Q 3.796875 20.09375 5.34375 15.09375 
Q 6.90625 10.09375 10 6.5 
Q 13.09375 2.90625 17.640625 0.90625 
Q 22.203125 -1.09375 28.40625 -1.09375 
Q 37.203125 -1.09375 43 3.296875 
Q 48.796875 7.703125 50.5 16.40625 
z
" id="HelveticaNeue-101"/>
      </defs>
      <g transform="translate(99.051875 20.32375)scale(0.08 -0.08)">
       <use xlink:href="#HelveticaNeue-101"/>
      </g>
     </g>
    </g>
    <g id="xtick_6">
     <g id="line2d_6"/>
     <g id="text_6">
      <!-- f -->
      <defs>
       <path d="M 9.90625 44.203125 
L 9.90625 0 
L 18.40625 0 
L 18.40625 44.203125 
L 28.40625 44.203125 
L 28.40625 51.703125 
L 18.40625 51.703125 
L 18.40625 58.90625 
Q 18.40625 62.296875 20.09375 63.5 
Q 21.796875 64.703125 24.90625 64.703125 
Q 26 64.703125 27.296875 64.546875 
Q 28.59375 64.40625 29.703125 64 
L 29.703125 71.40625 
Q 28.5 71.796875 26.953125 72 
Q 25.40625 72.203125 24.203125 72.203125 
Q 17.203125 72.203125 13.546875 68.953125 
Q 9.90625 65.703125 9.90625 59.40625 
L 9.90625 51.703125 
L 1.203125 51.703125 
L 1.203125 44.203125 
z
" id="HelveticaNeue-102"/>
      </defs>
      <g transform="translate(121.61625 20.32375)scale(0.08 -0.08)">
       <use xlink:href="#HelveticaNeue-102"/>
      </g>
     </g>
    </g>
    <g id="xtick_7">
     <g id="line2d_7"/>
     <g id="text_7">
      <!-- g -->
      <defs>
       <path d="M 51 4.40625 
L 51 51.703125 
L 43 51.703125 
L 43 44.296875 
L 42.90625 44.296875 
Q 40.59375 48.59375 36.5 50.75 
Q 32.40625 52.90625 27.5 52.90625 
Q 20.796875 52.90625 16.1875 50.34375 
Q 11.59375 47.796875 8.796875 43.84375 
Q 6 39.90625 4.796875 35.046875 
Q 3.59375 30.203125 3.59375 25.59375 
Q 3.59375 20.296875 5.046875 15.546875 
Q 6.5 10.796875 9.390625 7.25 
Q 12.296875 3.703125 16.59375 1.59375 
Q 20.90625 -0.5 26.703125 -0.5 
Q 31.703125 -0.5 36.140625 1.75 
Q 40.59375 4 42.796875 8.796875 
L 43 8.796875 
L 43 5.40625 
Q 43 1.09375 42.140625 -2.5 
Q 41.296875 -6.09375 39.390625 -8.640625 
Q 37.5 -11.203125 34.59375 -12.640625 
Q 31.703125 -14.09375 27.5 -14.09375 
Q 25.40625 -14.09375 23.09375 -13.640625 
Q 20.796875 -13.203125 18.84375 -12.203125 
Q 16.90625 -11.203125 15.546875 -9.59375 
Q 14.203125 -8 14.09375 -5.703125 
L 5.59375 -5.703125 
Q 5.796875 -9.90625 7.796875 -12.796875 
Q 9.796875 -15.703125 12.84375 -17.5 
Q 15.90625 -19.296875 19.65625 -20.09375 
Q 23.40625 -20.90625 27 -20.90625 
Q 39.40625 -20.90625 45.203125 -14.59375 
Q 51 -8.296875 51 4.40625 
z
M 27.203125 6.90625 
Q 23 6.90625 20.203125 8.65625 
Q 17.40625 10.40625 15.703125 13.25 
Q 14 16.09375 13.296875 19.59375 
Q 12.59375 23.09375 12.59375 26.59375 
Q 12.59375 30.296875 13.4375 33.6875 
Q 14.296875 37.09375 16.140625 39.6875 
Q 18 42.296875 20.890625 43.84375 
Q 23.796875 45.40625 27.90625 45.40625 
Q 31.90625 45.40625 34.703125 43.796875 
Q 37.5 42.203125 39.25 39.546875 
Q 41 36.90625 41.796875 33.59375 
Q 42.59375 30.296875 42.59375 26.90625 
Q 42.59375 23.296875 41.75 19.6875 
Q 40.90625 16.09375 39.09375 13.25 
Q 37.296875 10.40625 34.34375 8.65625 
Q 31.40625 6.90625 27.203125 6.90625 
z
" id="HelveticaNeue-103"/>
      </defs>
      <g transform="translate(142.10375 20.2275)scale(0.08 -0.08)">
       <use xlink:href="#HelveticaNeue-103"/>
      </g>
     </g>
    </g>
    <g id="xtick_8">
     <g id="line2d_8"/>
     <g id="text_8">
      <!-- h -->
      <defs>
       <path d="M 6.40625 71.40625 
L 6.40625 0 
L 14.90625 0 
L 14.90625 29.203125 
Q 14.90625 32.703125 15.84375 35.640625 
Q 16.796875 38.59375 18.6875 40.796875 
Q 20.59375 43 23.4375 44.203125 
Q 26.296875 45.40625 30.203125 45.40625 
Q 35.09375 45.40625 37.890625 42.59375 
Q 40.703125 39.796875 40.703125 35 
L 40.703125 0 
L 49.203125 0 
L 49.203125 34 
Q 49.203125 38.203125 48.34375 41.640625 
Q 47.5 45.09375 45.390625 47.59375 
Q 43.296875 50.09375 39.890625 51.5 
Q 36.5 52.90625 31.40625 52.90625 
Q 29.09375 52.90625 26.640625 52.40625 
Q 24.203125 51.90625 21.953125 50.84375 
Q 19.703125 49.796875 17.890625 48.140625 
Q 16.09375 46.5 15.09375 44.09375 
L 14.90625 44.09375 
L 14.90625 71.40625 
z
" id="HelveticaNeue-104"/>
      </defs>
      <g transform="translate(163.77625 20.32375)scale(0.08 -0.08)">
       <use xlink:href="#HelveticaNeue-104"/>
      </g>
     </g>
    </g>
    <g id="xtick_9">
     <g id="line2d_9"/>
     <g id="text_9">
      <!-- i -->
      <defs>
       <path d="M 15.40625 61 
L 15.40625 71.40625 
L 6.90625 71.40625 
L 6.90625 61 
z
M 6.90625 51.703125 
L 6.90625 0 
L 15.40625 0 
L 15.40625 51.703125 
z
" id="HelveticaNeue-105"/>
      </defs>
      <g transform="translate(186.711875 20.32375)scale(0.08 -0.08)">
       <use xlink:href="#HelveticaNeue-105"/>
      </g>
     </g>
    </g>
    <g id="xtick_10">
     <g id="line2d_10"/>
     <g id="text_10">
      <!-- j -->
      <defs>
       <path d="M 15.40625 61 
L 15.40625 71.40625 
L 6.90625 71.40625 
L 6.90625 61 
z
M 15.40625 -6.5 
L 15.40625 51.703125 
L 6.90625 51.703125 
L 6.90625 -5.09375 
Q 6.90625 -9.09375 5.90625 -10.640625 
Q 4.90625 -12.203125 2.09375 -12.203125 
L 0.296875 -12.203125 
Q -0.09375 -12.203125 -0.4375 -12.140625 
Q -0.796875 -12.09375 -1.296875 -12 
L -1.296875 -19.296875 
Q 0.703125 -19.703125 3 -19.703125 
Q 8.703125 -19.703125 12.046875 -16.546875 
Q 15.40625 -13.40625 15.40625 -6.5 
z
" id="HelveticaNeue-106"/>
      </defs>
      <g transform="translate(208.311875 20.32375)scale(0.08 -0.08)">
       <use xlink:href="#HelveticaNeue-106"/>
      </g>
     </g>
    </g>
   </g>
   <g id="matplotlib.axis_2">
    <g id="ytick_1">
     <g id="line2d_11"/>
     <g id="text_11">
      <!-- a -->
      <g transform="translate(222 37.55625)scale(0.08 -0.08)">
       <use xlink:href="#HelveticaNeue-97"/>
      </g>
     </g>
    </g>
    <g id="ytick_2">
     <g id="line2d_12"/>
     <g id="text_12">
      <!-- b -->
      <g transform="translate(222 59.15625)scale(0.08 -0.08)">
       <use xlink:href="#HelveticaNeue-98"/>
      </g>
     </g>
    </g>
    <g id="ytick_3">
     <g id="line2d_13"/>
     <g id="text_13">
      <!-- c -->
      <g transform="translate(222 80.75625)scale(0.08 -0.08)">
       <use xlink:href="#HelveticaNeue-99"/>
      </g>
     </g>
    </g>
    <g id="ytick_4">
     <g id="line2d_14"/>
     <g id="text_14">
      <!-- d -->
      <g transform="translate(222 102.35625)scale(0.08 -0.08)">
       <use xlink:href="#HelveticaNeue-100"/>
      </g>
     </g>
    </g>
    <g id="ytick_5">
     <g id="line2d_15"/>
     <g id="text_15">
      <!-- e -->
      <g transform="translate(222 123.95625)scale(0.08 -0.08)">
       <use xlink:href="#HelveticaNeue-101"/>
      </g>
     </g>
    </g>
    <g id="ytick_6">
     <g id="line2d_16"/>
     <g id="text_16">
      <!-- f -->
      <g transform="translate(222 145.55625)scale(0.08 -0.08)">
       <use xlink:href="#HelveticaNeue-102"/>
      </g>
     </g>
    </g>
    <g id="ytick_7">
     <g id="line2d_17"/>
     <g id="text_17">
      <!-- g -->
      <g transform="translate(222 167.108125)scale(0.08 -0.08)">
       <use xlink:href="#HelveticaNeue-103"/>
      </g>
     </g>
    </g>
    <g id="ytick_8">
     <g id="line2d_18"/>
     <g id="text_18">
      <!-- h -->
      <g transform="translate(222 188.75625)scale(0.08 -0.08)">
       <use xlink:href="#HelveticaNeue-104"/>
      </g>
     </g>
    </g>
    <g id="ytick_9">
     <g id="line2d_19"/>
     <g id="text_19">
      <!-- i -->
      <g transform="translate(222 210.35625)scale(0.08 -0.08)">
       <use xlink:href="#HelveticaNeue-105"/>
      </g>
     </g>
    </g>
    <g id="ytick_10">
     <g id="line2d_20"/>
     <g id="text_20">
      <!-- j -->
      <g transform="translate(222 231.95625)scale(0.08 -0.08)">
       <use xlink:href="#HelveticaNeue-106"/>
      </g>
     </g>
    </g>
   </g>
   <g id="patch_3">
    <path d="M 220 239.9 
L 220 23.9 
" style="fill:none;"/>
   </g>
   <g id="patch_4">
    <path d="M 4 23.9 
L 220 23.9 
" style="fill:none;"/>
   </g>
   <g id="text_21">
    <!-- 1 -->
    <defs>
     <path d="M 39.203125 0 
L 39.203125 70 
L 27.90625 70 
Q 27.296875 66 25.390625 63.296875 
Q 23.5 60.59375 20.75 58.9375 
Q 18 57.296875 14.546875 56.640625 
Q 11.09375 56 7.40625 56.09375 
L 7.40625 45.40625 
L 25 45.40625 
L 25 0 
z
" id="HelveticaNeue-Bold-49"/>
    </defs>
    <g style="fill:#ffffff;" transform="translate(12.854219 36.565938)scale(0.07 -0.07)">
     <use xlink:href="#HelveticaNeue-Bold-49"/>
    </g>
   </g>
   <g id="text_22">
    <!-- 0.5 -->
    <defs>
     <path d="M 16.296875 35.296875 
Q 16.296875 37.09375 16.34375 39.640625 
Q 16.40625 42.203125 16.703125 44.890625 
Q 17 47.59375 17.703125 50.25 
Q 18.40625 52.90625 19.65625 55 
Q 20.90625 57.09375 22.84375 58.390625 
Q 24.796875 59.703125 27.703125 59.703125 
Q 30.59375 59.703125 32.59375 58.390625 
Q 34.59375 57.09375 35.890625 55 
Q 37.203125 52.90625 37.84375 50.25 
Q 38.5 47.59375 38.84375 44.890625 
Q 39.203125 42.203125 39.25 39.640625 
Q 39.296875 37.09375 39.296875 35.296875 
Q 39.296875 32.296875 39.09375 28.046875 
Q 38.90625 23.796875 37.84375 19.84375 
Q 36.796875 15.90625 34.4375 13.09375 
Q 32.09375 10.296875 27.703125 10.296875 
Q 23.40625 10.296875 21.09375 13.09375 
Q 18.796875 15.90625 17.75 19.84375 
Q 16.703125 23.796875 16.5 28.046875 
Q 16.296875 32.296875 16.296875 35.296875 
z
M 2.09375 35.296875 
Q 2.09375 24.796875 4.140625 17.75 
Q 6.203125 10.703125 9.703125 6.5 
Q 13.203125 2.296875 17.84375 0.5 
Q 22.5 -1.296875 27.703125 -1.296875 
Q 33 -1.296875 37.640625 0.5 
Q 42.296875 2.296875 45.84375 6.5 
Q 49.40625 10.703125 51.453125 17.75 
Q 53.5 24.796875 53.5 35.296875 
Q 53.5 45.5 51.453125 52.453125 
Q 49.40625 59.40625 45.84375 63.59375 
Q 42.296875 67.796875 37.640625 69.59375 
Q 33 71.40625 27.703125 71.40625 
Q 22.5 71.40625 17.84375 69.59375 
Q 13.203125 67.796875 9.703125 63.59375 
Q 6.203125 59.40625 4.140625 52.453125 
Q 2.09375 45.5 2.09375 35.296875 
z
" id="HelveticaNeue-Bold-48"/>
     <path d="M 6 15.40625 
L 6 0 
L 21.703125 0 
L 21.703125 15.40625 
z
" id="HelveticaNeue-Bold-46"/>
     <path d="M 50 58.296875 
L 50 70 
L 10.90625 70 
L 4 31.296875 
L 16.796875 31.296875 
Q 18.90625 34.203125 21.296875 35.546875 
Q 23.703125 36.90625 27.5 36.90625 
Q 30.40625 36.90625 32.59375 35.90625 
Q 34.796875 34.90625 36.390625 33.09375 
Q 38 31.296875 38.796875 28.890625 
Q 39.59375 26.5 39.59375 23.796875 
Q 39.59375 21.203125 38.75 18.75 
Q 37.90625 16.296875 36.34375 14.4375 
Q 34.796875 12.59375 32.546875 11.4375 
Q 30.296875 10.296875 27.5 10.296875 
Q 22.703125 10.296875 19.59375 13.140625 
Q 16.5 16 16 20.796875 
L 1.796875 20.796875 
Q 1.90625 15.296875 4.046875 11.140625 
Q 6.203125 7 9.796875 4.203125 
Q 13.40625 1.40625 18.046875 0.046875 
Q 22.703125 -1.296875 27.796875 -1.296875 
Q 33.09375 -1.40625 37.796875 0.4375 
Q 42.5 2.296875 46.046875 5.6875 
Q 49.59375 9.09375 51.6875 13.75 
Q 53.796875 18.40625 53.796875 23.796875 
Q 53.796875 28.703125 52.34375 33.046875 
Q 50.90625 37.40625 48.15625 40.59375 
Q 45.40625 43.796875 41.40625 45.6875 
Q 37.40625 47.59375 32.203125 47.59375 
Q 28 47.59375 24.703125 46.34375 
Q 21.40625 45.09375 18.5 42.203125 
L 18.296875 42.40625 
L 21.09375 58.296875 
z
" id="HelveticaNeue-Bold-53"/>
    </defs>
    <g transform="translate(31.535547 36.565938)scale(0.07 -0.07)">
     <use xlink:href="#HelveticaNeue-Bold-48"/>
     <use x="55.599991" xlink:href="#HelveticaNeue-Bold-46"/>
     <use x="83.399979" xlink:href="#HelveticaNeue-Bold-53"/>
    </g>
   </g>
   <g id="text_23">
    <!-- 0.69 -->
    <defs>
     <path d="M 28.59375 36.296875 
Q 31.296875 36.296875 33.34375 35.140625 
Q 35.40625 34 36.703125 32.140625 
Q 38 30.296875 38.640625 27.9375 
Q 39.296875 25.59375 39.296875 23.09375 
Q 39.296875 20.703125 38.59375 18.390625 
Q 37.90625 16.09375 36.5 14.296875 
Q 35.09375 12.5 33.140625 11.390625 
Q 31.203125 10.296875 28.59375 10.296875 
Q 25.90625 10.296875 23.796875 11.390625 
Q 21.703125 12.5 20.25 14.34375 
Q 18.796875 16.203125 18.046875 18.546875 
Q 17.296875 20.90625 17.296875 23.296875 
Q 17.296875 25.90625 18 28.25 
Q 18.703125 30.59375 20.09375 32.390625 
Q 21.5 34.203125 23.640625 35.25 
Q 25.796875 36.296875 28.59375 36.296875 
z
M 38.796875 52 
L 52.296875 52 
Q 51.703125 56.703125 49.796875 60.296875 
Q 47.90625 63.90625 44.90625 66.34375 
Q 41.90625 68.796875 38 70.09375 
Q 34.09375 71.40625 29.59375 71.40625 
Q 22.09375 71.40625 16.890625 68.09375 
Q 11.703125 64.796875 8.390625 59.546875 
Q 5.09375 54.296875 3.59375 47.796875 
Q 2.09375 41.296875 2.09375 34.796875 
Q 2.09375 28.09375 3.296875 21.640625 
Q 4.5 15.203125 7.59375 10.09375 
Q 10.703125 5 15.890625 1.84375 
Q 21.09375 -1.296875 29 -1.296875 
Q 34.5 -1.296875 39 0.640625 
Q 43.5 2.59375 46.75 6.046875 
Q 50 9.5 51.75 14.140625 
Q 53.5 18.796875 53.5 24.203125 
Q 53.5 28.40625 52.203125 32.5 
Q 50.90625 36.59375 48.09375 39.796875 
Q 45.09375 43.09375 40.796875 45.046875 
Q 36.5 47 32 47 
Q 26.90625 47 23 45.203125 
Q 19.09375 43.40625 16.203125 39.203125 
L 16 39.40625 
Q 16.09375 42.296875 16.796875 46 
Q 17.5 49.703125 19 52.953125 
Q 20.5 56.203125 23.046875 58.453125 
Q 25.59375 60.703125 29.40625 60.703125 
Q 33.09375 60.703125 35.59375 58.09375 
Q 38.09375 55.5 38.796875 52 
z
" id="HelveticaNeue-Bold-54"/>
     <path d="M 27 33.703125 
Q 24.296875 33.703125 22.25 34.84375 
Q 20.203125 36 18.890625 37.84375 
Q 17.59375 39.703125 16.9375 42.046875 
Q 16.296875 44.40625 16.296875 46.90625 
Q 16.296875 49.296875 17 51.59375 
Q 17.703125 53.90625 19.09375 55.703125 
Q 20.5 57.5 22.5 58.59375 
Q 24.5 59.703125 27 59.703125 
Q 29.703125 59.703125 31.796875 58.59375 
Q 33.90625 57.5 35.34375 55.640625 
Q 36.796875 53.796875 37.546875 51.4375 
Q 38.296875 49.09375 38.296875 46.703125 
Q 38.296875 44.09375 37.59375 41.75 
Q 36.90625 39.40625 35.5 37.59375 
Q 34.09375 35.796875 32 34.75 
Q 29.90625 33.703125 27 33.703125 
z
M 16.796875 18 
L 3.296875 18 
Q 3.90625 13.40625 5.796875 9.796875 
Q 7.703125 6.203125 10.703125 3.703125 
Q 13.703125 1.203125 17.59375 -0.046875 
Q 21.5 -1.296875 26 -1.296875 
Q 33.5 -1.296875 38.703125 1.953125 
Q 43.90625 5.203125 47.203125 10.453125 
Q 50.5 15.703125 52 22.203125 
Q 53.5 28.703125 53.5 35.203125 
Q 53.5 41.796875 52.296875 48.296875 
Q 51.09375 54.796875 48 59.9375 
Q 44.90625 65.09375 39.75 68.25 
Q 34.59375 71.40625 26.59375 71.40625 
Q 21.09375 71.40625 16.59375 69.40625 
Q 12.09375 67.40625 8.84375 63.953125 
Q 5.59375 60.5 3.84375 55.84375 
Q 2.09375 51.203125 2.09375 45.796875 
Q 2.09375 41.59375 3.390625 37.5 
Q 4.703125 33.40625 7.5 30.203125 
Q 10.5 26.90625 14.796875 24.953125 
Q 19.09375 23 23.59375 23 
Q 28.703125 23 32.59375 24.796875 
Q 36.5 26.59375 39.40625 30.796875 
L 39.59375 30.59375 
Q 39.40625 27.703125 38.75 24 
Q 38.09375 20.296875 36.59375 17.046875 
Q 35.09375 13.796875 32.59375 11.546875 
Q 30.09375 9.296875 26.203125 9.296875 
Q 22.5 9.296875 20 11.890625 
Q 17.5 14.5 16.796875 18 
z
" id="HelveticaNeue-Bold-57"/>
    </defs>
    <g transform="translate(51.189766 36.565938)scale(0.07 -0.07)">
     <use xlink:href="#HelveticaNeue-Bold-48"/>
     <use x="55.599991" xlink:href="#HelveticaNeue-Bold-46"/>
     <use x="83.399979" xlink:href="#HelveticaNeue-Bold-54"/>
     <use x="138.999969" xlink:href="#HelveticaNeue-Bold-57"/>
    </g>
   </g>
   <g id="text_24">
    <!-- −0.64 -->
    <defs>
     <path d="M 4.796875 30.59375 
L 4.796875 19.90625 
L 55.296875 19.90625 
L 55.296875 30.59375 
z
" id="HelveticaNeue-Bold-8722"/>
     <path d="M 31.203125 52.203125 
L 31.203125 27.90625 
L 12.796875 27.90625 
L 30.90625 52.203125 
z
M 31.203125 16.203125 
L 31.203125 0 
L 44.703125 0 
L 44.703125 16.203125 
L 54 16.203125 
L 54 27.90625 
L 44.703125 27.90625 
L 44.703125 70 
L 32 70 
L 1.59375 29.203125 
L 1.59375 16.203125 
z
" id="HelveticaNeue-Bold-52"/>
    </defs>
    <g transform="translate(70.689766 36.565938)scale(0.07 -0.07)">
     <use xlink:href="#HelveticaNeue-Bold-8722"/>
     <use x="59.999985" xlink:href="#HelveticaNeue-Bold-48"/>
     <use x="115.599976" xlink:href="#HelveticaNeue-Bold-46"/>
     <use x="143.399963" xlink:href="#HelveticaNeue-Bold-54"/>
     <use x="198.999954" xlink:href="#HelveticaNeue-Bold-52"/>
    </g>
   </g>
   <g id="text_25">
    <!-- −0.22 -->
    <defs>
     <path d="M 3.703125 43.09375 
L 17.296875 43.09375 
Q 17.296875 45.90625 17.84375 48.75 
Q 18.40625 51.59375 19.703125 53.9375 
Q 21 56.296875 23.140625 57.75 
Q 25.296875 59.203125 28.40625 59.203125 
Q 33 59.203125 35.953125 56.34375 
Q 38.90625 53.5 38.90625 48.40625 
Q 38.90625 45.203125 37.453125 42.703125 
Q 36 40.203125 33.84375 38.203125 
Q 31.703125 36.203125 29.09375 34.546875 
Q 26.5 32.90625 24.203125 31.296875 
Q 19.703125 28.203125 15.640625 25.203125 
Q 11.59375 22.203125 8.59375 18.640625 
Q 5.59375 15.09375 3.84375 10.59375 
Q 2.09375 6.09375 2.09375 0 
L 53.5 0 
L 53.5 12.203125 
L 20.40625 12.203125 
Q 23 15.796875 26.390625 18.5 
Q 29.796875 21.203125 33.390625 23.546875 
Q 37 25.90625 40.546875 28.296875 
Q 44.09375 30.703125 46.890625 33.640625 
Q 49.703125 36.59375 51.390625 40.390625 
Q 53.09375 44.203125 53.09375 49.5 
Q 53.09375 54.59375 51.140625 58.6875 
Q 49.203125 62.796875 45.890625 65.59375 
Q 42.59375 68.40625 38.25 69.90625 
Q 33.90625 71.40625 29.09375 71.40625 
Q 22.796875 71.40625 17.9375 69.25 
Q 13.09375 67.09375 9.890625 63.25 
Q 6.703125 59.40625 5.09375 54.25 
Q 3.5 49.09375 3.703125 43.09375 
z
" id="HelveticaNeue-Bold-50"/>
    </defs>
    <g transform="translate(92.289766 36.565938)scale(0.07 -0.07)">
     <use xlink:href="#HelveticaNeue-Bold-8722"/>
     <use x="59.999985" xlink:href="#HelveticaNeue-Bold-48"/>
     <use x="115.599976" xlink:href="#HelveticaNeue-Bold-46"/>
     <use x="143.399963" xlink:href="#HelveticaNeue-Bold-50"/>
     <use x="198.999954" xlink:href="#HelveticaNeue-Bold-50"/>
    </g>
   </g>
   <g id="text_26">
    <!-- −0.22 -->
    <g transform="translate(113.889766 36.565938)scale(0.07 -0.07)">
     <use xlink:href="#HelveticaNeue-Bold-8722"/>
     <use x="59.999985" xlink:href="#HelveticaNeue-Bold-48"/>
     <use x="115.599976" xlink:href="#HelveticaNeue-Bold-46"/>
     <use x="143.399963" xlink:href="#HelveticaNeue-Bold-50"/>
     <use x="198.999954" xlink:href="#HelveticaNeue-Bold-50"/>
    </g>
   </g>
   <g id="text_27">
    <!-- 0.14 -->
    <g transform="translate(137.589766 36.565938)scale(0.07 -0.07)">
     <use xlink:href="#HelveticaNeue-Bold-48"/>
     <use x="55.599991" xlink:href="#HelveticaNeue-Bold-46"/>
     <use x="83.399979" xlink:href="#HelveticaNeue-Bold-49"/>
     <use x="138.999969" xlink:href="#HelveticaNeue-Bold-52"/>
    </g>
   </g>
   <g id="text_28">
    <!-- −0.41 -->
    <g transform="translate(157.089766 36.565938)scale(0.07 -0.07)">
     <use xlink:href="#HelveticaNeue-Bold-8722"/>
     <use x="59.999985" xlink:href="#HelveticaNeue-Bold-48"/>
     <use x="115.599976" xlink:href="#HelveticaNeue-Bold-46"/>
     <use x="143.399963" xlink:href="#HelveticaNeue-Bold-52"/>
     <use x="198.999954" xlink:href="#HelveticaNeue-Bold-49"/>
    </g>
   </g>
   <g id="text_29">
    <!-- −0.04 -->
    <g transform="translate(178.689766 36.565938)scale(0.07 -0.07)">
     <use xlink:href="#HelveticaNeue-Bold-8722"/>
     <use x="59.999985" xlink:href="#HelveticaNeue-Bold-48"/>
     <use x="115.599976" xlink:href="#HelveticaNeue-Bold-46"/>
     <use x="143.399963" xlink:href="#HelveticaNeue-Bold-48"/>
     <use x="198.999954" xlink:href="#HelveticaNeue-Bold-52"/>
    </g>
   </g>
   <g id="text_30">
    <!-- −0.24 -->
    <g transform="translate(200.289766 36.565938)scale(0.07 -0.07)">
     <use xlink:href="#HelveticaNeue-Bold-8722"/>
     <use x="59.999985" xlink:href="#HelveticaNeue-Bold-48"/>
     <use x="115.599976" xlink:href="#HelveticaNeue-Bold-46"/>
     <use x="143.399963" xlink:href="#HelveticaNeue-Bold-50"/>
     <use x="198.999954" xlink:href="#HelveticaNeue-Bold-52"/>
    </g>
   </g>
   <g id="text_31">
    <!-- 1 -->
    <g style="fill:#ffffff;" transform="translate(34.454219 58.165938)scale(0.07 -0.07)">
     <use xlink:href="#HelveticaNeue-Bold-49"/>
    </g>
   </g>
   <g id="text_32">
    <!-- 0.87 -->
    <defs>
     <path d="M 17.203125 51 
Q 17.203125 53.40625 18.046875 55.203125 
Q 18.90625 57 20.40625 58.203125 
Q 21.90625 59.40625 23.84375 60.046875 
Q 25.796875 60.703125 27.90625 60.703125 
Q 31.203125 60.703125 33.25 59.703125 
Q 35.296875 58.703125 36.4375 57.203125 
Q 37.59375 55.703125 38 54.046875 
Q 38.40625 52.40625 38.40625 51 
Q 38.40625 46.5 35.40625 44.140625 
Q 32.40625 41.796875 27.90625 41.796875 
Q 23.59375 41.796875 20.390625 44.140625 
Q 17.203125 46.5 17.203125 51 
z
M 4.296875 52.296875 
Q 4.296875 47.09375 6.890625 43.1875 
Q 9.5 39.296875 14.59375 37.90625 
L 14.59375 37.703125 
Q 8.296875 36.203125 4.84375 31.703125 
Q 1.40625 27.203125 1.40625 20.5 
Q 1.40625 14.796875 3.65625 10.6875 
Q 5.90625 6.59375 9.65625 3.890625 
Q 13.40625 1.203125 18.15625 -0.046875 
Q 22.90625 -1.296875 28 -1.296875 
Q 32.90625 -1.296875 37.59375 0.046875 
Q 42.296875 1.40625 46 4.09375 
Q 49.703125 6.796875 51.953125 10.890625 
Q 54.203125 15 54.203125 20.59375 
Q 54.203125 27.203125 50.796875 31.75 
Q 47.40625 36.296875 41.09375 37.703125 
L 41.09375 37.90625 
Q 46.203125 39.59375 48.75 43.5 
Q 51.296875 47.40625 51.296875 52.59375 
Q 51.296875 55.203125 50.09375 58.453125 
Q 48.90625 61.703125 46.15625 64.546875 
Q 43.40625 67.40625 38.90625 69.40625 
Q 34.40625 71.40625 27.90625 71.40625 
Q 23.59375 71.40625 19.390625 70.203125 
Q 15.203125 69 11.84375 66.59375 
Q 8.5 64.203125 6.390625 60.59375 
Q 4.296875 57 4.296875 52.296875 
z
M 15.59375 21.203125 
Q 15.59375 26.59375 19.1875 29.4375 
Q 22.796875 32.296875 28 32.296875 
Q 30.5 32.296875 32.640625 31.5 
Q 34.796875 30.703125 36.4375 29.203125 
Q 38.09375 27.703125 39.046875 25.640625 
Q 40 23.59375 40 21.09375 
Q 40 18.5 39.09375 16.296875 
Q 38.203125 14.09375 36.546875 12.546875 
Q 34.90625 11 32.75 10.140625 
Q 30.59375 9.296875 28 9.296875 
Q 25.5 9.296875 23.203125 10.140625 
Q 20.90625 11 19.25 12.546875 
Q 17.59375 14.09375 16.59375 16.296875 
Q 15.59375 18.5 15.59375 21.203125 
z
" id="HelveticaNeue-Bold-56"/>
     <path d="M 51.703125 57.796875 
L 51.703125 70 
L 3.90625 70 
L 3.90625 56.796875 
L 37.09375 56.796875 
Q 27.09375 44.703125 20.9375 30.203125 
Q 14.796875 15.703125 13.59375 0 
L 28.796875 0 
Q 28.90625 7 30.453125 15.09375 
Q 32 23.203125 34.84375 31.09375 
Q 37.703125 39 41.953125 46 
Q 46.203125 53 51.703125 57.796875 
z
" id="HelveticaNeue-Bold-55"/>
    </defs>
    <g style="fill:#ffffff;" transform="translate(51.189766 58.165938)scale(0.07 -0.07)">
     <use xlink:href="#HelveticaNeue-Bold-48"/>
     <use x="55.599991" xlink:href="#HelveticaNeue-Bold-46"/>
     <use x="83.399979" xlink:href="#HelveticaNeue-Bold-56"/>
     <use x="138.999969" xlink:href="#HelveticaNeue-Bold-55"/>
    </g>
   </g>
   <g id="text_33">
    <!-- −0.74 -->
    <g style="fill:#ffffff;" transform="translate(70.689766 58.165938)scale(0.07 -0.07)">
     <use xlink:href="#HelveticaNeue-Bold-8722"/>
     <use x="59.999985" xlink:href="#HelveticaNeue-Bold-48"/>
     <use x="115.599976" xlink:href="#HelveticaNeue-Bold-46"/>
     <use x="143.399963" xlink:href="#HelveticaNeue-Bold-55"/>
     <use x="198.999954" xlink:href="#HelveticaNeue-Bold-52"/>
    </g>
   </g>
   <g id="text_34">
    <!-- −0.6 -->
    <g transform="translate(94.235547 58.165938)scale(0.07 -0.07)">
     <use xlink:href="#HelveticaNeue-Bold-8722"/>
     <use x="59.999985" xlink:href="#HelveticaNeue-Bold-48"/>
     <use x="115.599976" xlink:href="#HelveticaNeue-Bold-46"/>
     <use x="143.399963" xlink:href="#HelveticaNeue-Bold-54"/>
    </g>
   </g>
   <g id="text_35">
    <!-- −0.42 -->
    <g transform="translate(113.889766 58.165938)scale(0.07 -0.07)">
     <use xlink:href="#HelveticaNeue-Bold-8722"/>
     <use x="59.999985" xlink:href="#HelveticaNeue-Bold-48"/>
     <use x="115.599976" xlink:href="#HelveticaNeue-Bold-46"/>
     <use x="143.399963" xlink:href="#HelveticaNeue-Bold-52"/>
     <use x="198.999954" xlink:href="#HelveticaNeue-Bold-50"/>
    </g>
   </g>
   <g id="text_36">
    <!-- 0.43 -->
    <defs>
     <path d="M 22.796875 41.703125 
L 22.796875 31.703125 
Q 25.40625 31.703125 28.25 31.546875 
Q 31.09375 31.40625 33.5 30.453125 
Q 35.90625 29.5 37.453125 27.390625 
Q 39 25.296875 39 21.296875 
Q 39 16.203125 35.703125 13.25 
Q 32.40625 10.296875 27.59375 10.296875 
Q 24.5 10.296875 22.25 11.390625 
Q 20 12.5 18.5 14.34375 
Q 17 16.203125 16.203125 18.75 
Q 15.40625 21.296875 15.296875 24.09375 
L 1.796875 24.09375 
Q 1.703125 18 3.546875 13.296875 
Q 5.40625 8.59375 8.796875 5.34375 
Q 12.203125 2.09375 17.046875 0.390625 
Q 21.90625 -1.296875 27.796875 -1.296875 
Q 32.90625 -1.296875 37.59375 0.203125 
Q 42.296875 1.703125 45.890625 4.59375 
Q 49.5 7.5 51.640625 11.796875 
Q 53.796875 16.09375 53.796875 21.59375 
Q 53.796875 27.59375 50.5 31.890625 
Q 47.203125 36.203125 41.40625 37.5 
L 41.40625 37.703125 
Q 46.296875 39.09375 48.75 43 
Q 51.203125 46.90625 51.203125 52 
Q 51.203125 56.703125 49.09375 60.296875 
Q 47 63.90625 43.640625 66.40625 
Q 40.296875 68.90625 36.09375 70.15625 
Q 31.90625 71.40625 27.703125 71.40625 
Q 22.296875 71.40625 17.890625 69.65625 
Q 13.5 67.90625 10.34375 64.703125 
Q 7.203125 61.5 5.453125 57.046875 
Q 3.703125 52.59375 3.5 47.203125 
L 17 47.203125 
Q 16.90625 52.59375 19.65625 56.140625 
Q 22.40625 59.703125 27.796875 59.703125 
Q 31.703125 59.703125 34.703125 57.296875 
Q 37.703125 54.90625 37.703125 50.40625 
Q 37.703125 47.40625 36.25 45.59375 
Q 34.796875 43.796875 32.546875 42.84375 
Q 30.296875 41.90625 27.6875 41.703125 
Q 25.09375 41.5 22.796875 41.703125 
z
" id="HelveticaNeue-Bold-51"/>
    </defs>
    <g transform="translate(137.589766 58.165938)scale(0.07 -0.07)">
     <use xlink:href="#HelveticaNeue-Bold-48"/>
     <use x="55.599991" xlink:href="#HelveticaNeue-Bold-46"/>
     <use x="83.399979" xlink:href="#HelveticaNeue-Bold-52"/>
     <use x="138.999969" xlink:href="#HelveticaNeue-Bold-51"/>
    </g>
   </g>
   <g id="text_37">
    <!-- −0.67 -->
    <g transform="translate(157.089766 58.165938)scale(0.07 -0.07)">
     <use xlink:href="#HelveticaNeue-Bold-8722"/>
     <use x="59.999985" xlink:href="#HelveticaNeue-Bold-48"/>
     <use x="115.599976" xlink:href="#HelveticaNeue-Bold-46"/>
     <use x="143.399963" xlink:href="#HelveticaNeue-Bold-54"/>
     <use x="198.999954" xlink:href="#HelveticaNeue-Bold-55"/>
    </g>
   </g>
   <g id="text_38">
    <!-- 0.01 -->
    <g transform="translate(180.789766 58.165938)scale(0.07 -0.07)">
     <use xlink:href="#HelveticaNeue-Bold-48"/>
     <use x="55.599991" xlink:href="#HelveticaNeue-Bold-46"/>
     <use x="83.399979" xlink:href="#HelveticaNeue-Bold-48"/>
     <use x="138.999969" xlink:href="#HelveticaNeue-Bold-49"/>
    </g>
   </g>
   <g id="text_39">
    <!-- −0.62 -->
    <g transform="translate(200.289766 58.165938)scale(0.07 -0.07)">
     <use xlink:href="#HelveticaNeue-Bold-8722"/>
     <use x="59.999985" xlink:href="#HelveticaNeue-Bold-48"/>
     <use x="115.599976" xlink:href="#HelveticaNeue-Bold-46"/>
     <use x="143.399963" xlink:href="#HelveticaNeue-Bold-54"/>
     <use x="198.999954" xlink:href="#HelveticaNeue-Bold-50"/>
    </g>
   </g>
   <g id="text_40">
    <!-- 1 -->
    <g style="fill:#ffffff;" transform="translate(56.054219 79.765938)scale(0.07 -0.07)">
     <use xlink:href="#HelveticaNeue-Bold-49"/>
    </g>
   </g>
   <g id="text_41">
    <!-- −0.71 -->
    <g style="fill:#ffffff;" transform="translate(70.689766 79.765938)scale(0.07 -0.07)">
     <use xlink:href="#HelveticaNeue-Bold-8722"/>
     <use x="59.999985" xlink:href="#HelveticaNeue-Bold-48"/>
     <use x="115.599976" xlink:href="#HelveticaNeue-Bold-46"/>
     <use x="143.399963" xlink:href="#HelveticaNeue-Bold-55"/>
     <use x="198.999954" xlink:href="#HelveticaNeue-Bold-49"/>
    </g>
   </g>
   <g id="text_42">
    <!-- −0.58 -->
    <g transform="translate(92.289766 79.765938)scale(0.07 -0.07)">
     <use xlink:href="#HelveticaNeue-Bold-8722"/>
     <use x="59.999985" xlink:href="#HelveticaNeue-Bold-48"/>
     <use x="115.599976" xlink:href="#HelveticaNeue-Bold-46"/>
     <use x="143.399963" xlink:href="#HelveticaNeue-Bold-53"/>
     <use x="198.999954" xlink:href="#HelveticaNeue-Bold-56"/>
    </g>
   </g>
   <g id="text_43">
    <!-- −0.38 -->
    <g transform="translate(113.889766 79.765938)scale(0.07 -0.07)">
     <use xlink:href="#HelveticaNeue-Bold-8722"/>
     <use x="59.999985" xlink:href="#HelveticaNeue-Bold-48"/>
     <use x="115.599976" xlink:href="#HelveticaNeue-Bold-46"/>
     <use x="143.399963" xlink:href="#HelveticaNeue-Bold-51"/>
     <use x="198.999954" xlink:href="#HelveticaNeue-Bold-56"/>
    </g>
   </g>
   <g id="text_44">
    <!-- 0.45 -->
    <g transform="translate(137.589766 79.765938)scale(0.07 -0.07)">
     <use xlink:href="#HelveticaNeue-Bold-48"/>
     <use x="55.599991" xlink:href="#HelveticaNeue-Bold-46"/>
     <use x="83.399979" xlink:href="#HelveticaNeue-Bold-52"/>
     <use x="138.999969" xlink:href="#HelveticaNeue-Bold-53"/>
    </g>
   </g>
   <g id="text_45">
    <!-- −0.79 -->
    <g style="fill:#ffffff;" transform="translate(157.089766 79.765938)scale(0.07 -0.07)">
     <use xlink:href="#HelveticaNeue-Bold-8722"/>
     <use x="59.999985" xlink:href="#HelveticaNeue-Bold-48"/>
     <use x="115.599976" xlink:href="#HelveticaNeue-Bold-46"/>
     <use x="143.399963" xlink:href="#HelveticaNeue-Bold-55"/>
     <use x="198.999954" xlink:href="#HelveticaNeue-Bold-57"/>
    </g>
   </g>
   <g id="text_46">
    <!-- 0.14 -->
    <g transform="translate(180.789766 79.765938)scale(0.07 -0.07)">
     <use xlink:href="#HelveticaNeue-Bold-48"/>
     <use x="55.599991" xlink:href="#HelveticaNeue-Bold-46"/>
     <use x="83.399979" xlink:href="#HelveticaNeue-Bold-49"/>
     <use x="138.999969" xlink:href="#HelveticaNeue-Bold-52"/>
    </g>
   </g>
   <g id="text_47">
    <!-- −0.69 -->
    <g transform="translate(200.289766 79.765938)scale(0.07 -0.07)">
     <use xlink:href="#HelveticaNeue-Bold-8722"/>
     <use x="59.999985" xlink:href="#HelveticaNeue-Bold-48"/>
     <use x="115.599976" xlink:href="#HelveticaNeue-Bold-46"/>
     <use x="143.399963" xlink:href="#HelveticaNeue-Bold-54"/>
     <use x="198.999954" xlink:href="#HelveticaNeue-Bold-57"/>
    </g>
   </g>
   <g id="text_48">
    <!-- 1 -->
    <g style="fill:#ffffff;" transform="translate(77.654219 101.365938)scale(0.07 -0.07)">
     <use xlink:href="#HelveticaNeue-Bold-49"/>
    </g>
   </g>
   <g id="text_49">
    <!-- 0.74 -->
    <g style="fill:#ffffff;" transform="translate(94.389766 101.365938)scale(0.07 -0.07)">
     <use xlink:href="#HelveticaNeue-Bold-48"/>
     <use x="55.599991" xlink:href="#HelveticaNeue-Bold-46"/>
     <use x="83.399979" xlink:href="#HelveticaNeue-Bold-55"/>
     <use x="138.999969" xlink:href="#HelveticaNeue-Bold-52"/>
    </g>
   </g>
   <g id="text_50">
    <!-- 0.79 -->
    <g style="fill:#ffffff;" transform="translate(115.989766 101.365938)scale(0.07 -0.07)">
     <use xlink:href="#HelveticaNeue-Bold-48"/>
     <use x="55.599991" xlink:href="#HelveticaNeue-Bold-46"/>
     <use x="83.399979" xlink:href="#HelveticaNeue-Bold-55"/>
     <use x="138.999969" xlink:href="#HelveticaNeue-Bold-57"/>
    </g>
   </g>
   <g id="text_51">
    <!-- −0.7 -->
    <g style="fill:#ffffff;" transform="translate(137.435547 101.365938)scale(0.07 -0.07)">
     <use xlink:href="#HelveticaNeue-Bold-8722"/>
     <use x="59.999985" xlink:href="#HelveticaNeue-Bold-48"/>
     <use x="115.599976" xlink:href="#HelveticaNeue-Bold-46"/>
     <use x="143.399963" xlink:href="#HelveticaNeue-Bold-55"/>
    </g>
   </g>
   <g id="text_52">
    <!-- 0.77 -->
    <g style="fill:#ffffff;" transform="translate(159.189766 101.365938)scale(0.07 -0.07)">
     <use xlink:href="#HelveticaNeue-Bold-48"/>
     <use x="55.599991" xlink:href="#HelveticaNeue-Bold-46"/>
     <use x="83.399979" xlink:href="#HelveticaNeue-Bold-55"/>
     <use x="138.999969" xlink:href="#HelveticaNeue-Bold-55"/>
    </g>
   </g>
   <g id="text_53">
    <!-- −0.32 -->
    <g transform="translate(178.689766 101.365938)scale(0.07 -0.07)">
     <use xlink:href="#HelveticaNeue-Bold-8722"/>
     <use x="59.999985" xlink:href="#HelveticaNeue-Bold-48"/>
     <use x="115.599976" xlink:href="#HelveticaNeue-Bold-46"/>
     <use x="143.399963" xlink:href="#HelveticaNeue-Bold-51"/>
     <use x="198.999954" xlink:href="#HelveticaNeue-Bold-50"/>
    </g>
   </g>
   <g id="text_54">
    <!-- 0.57 -->
    <g transform="translate(202.389766 101.365938)scale(0.07 -0.07)">
     <use xlink:href="#HelveticaNeue-Bold-48"/>
     <use x="55.599991" xlink:href="#HelveticaNeue-Bold-46"/>
     <use x="83.399979" xlink:href="#HelveticaNeue-Bold-53"/>
     <use x="138.999969" xlink:href="#HelveticaNeue-Bold-55"/>
    </g>
   </g>
   <g id="text_55">
    <!-- 1 -->
    <g style="fill:#ffffff;" transform="translate(99.254219 122.965938)scale(0.07 -0.07)">
     <use xlink:href="#HelveticaNeue-Bold-49"/>
    </g>
   </g>
   <g id="text_56">
    <!-- 0.76 -->
    <g style="fill:#ffffff;" transform="translate(115.989766 122.965938)scale(0.07 -0.07)">
     <use xlink:href="#HelveticaNeue-Bold-48"/>
     <use x="55.599991" xlink:href="#HelveticaNeue-Bold-46"/>
     <use x="83.399979" xlink:href="#HelveticaNeue-Bold-55"/>
     <use x="138.999969" xlink:href="#HelveticaNeue-Bold-54"/>
    </g>
   </g>
   <g id="text_57">
    <!-- −0.82 -->
    <g style="fill:#ffffff;" transform="translate(135.489766 122.965938)scale(0.07 -0.07)">
     <use xlink:href="#HelveticaNeue-Bold-8722"/>
     <use x="59.999985" xlink:href="#HelveticaNeue-Bold-48"/>
     <use x="115.599976" xlink:href="#HelveticaNeue-Bold-46"/>
     <use x="143.399963" xlink:href="#HelveticaNeue-Bold-56"/>
     <use x="198.999954" xlink:href="#HelveticaNeue-Bold-50"/>
    </g>
   </g>
   <g id="text_58">
    <!-- 0.79 -->
    <g style="fill:#ffffff;" transform="translate(159.189766 122.965938)scale(0.07 -0.07)">
     <use xlink:href="#HelveticaNeue-Bold-48"/>
     <use x="55.599991" xlink:href="#HelveticaNeue-Bold-46"/>
     <use x="83.399979" xlink:href="#HelveticaNeue-Bold-55"/>
     <use x="138.999969" xlink:href="#HelveticaNeue-Bold-57"/>
    </g>
   </g>
   <g id="text_59">
    <!-- −0.72 -->
    <g style="fill:#ffffff;" transform="translate(178.689766 122.965938)scale(0.07 -0.07)">
     <use xlink:href="#HelveticaNeue-Bold-8722"/>
     <use x="59.999985" xlink:href="#HelveticaNeue-Bold-48"/>
     <use x="115.599976" xlink:href="#HelveticaNeue-Bold-46"/>
     <use x="143.399963" xlink:href="#HelveticaNeue-Bold-55"/>
     <use x="198.999954" xlink:href="#HelveticaNeue-Bold-50"/>
    </g>
   </g>
   <g id="text_60">
    <!-- 0.7 -->
    <g transform="translate(204.335547 122.965938)scale(0.07 -0.07)">
     <use xlink:href="#HelveticaNeue-Bold-48"/>
     <use x="55.599991" xlink:href="#HelveticaNeue-Bold-46"/>
     <use x="83.399979" xlink:href="#HelveticaNeue-Bold-55"/>
    </g>
   </g>
   <g id="text_61">
    <!-- 1 -->
    <g style="fill:#ffffff;" transform="translate(120.854219 144.565938)scale(0.07 -0.07)">
     <use xlink:href="#HelveticaNeue-Bold-49"/>
    </g>
   </g>
   <g id="text_62">
    <!-- −0.87 -->
    <g style="fill:#ffffff;" transform="translate(135.489766 144.565938)scale(0.07 -0.07)">
     <use xlink:href="#HelveticaNeue-Bold-8722"/>
     <use x="59.999985" xlink:href="#HelveticaNeue-Bold-48"/>
     <use x="115.599976" xlink:href="#HelveticaNeue-Bold-46"/>
     <use x="143.399963" xlink:href="#HelveticaNeue-Bold-56"/>
     <use x="198.999954" xlink:href="#HelveticaNeue-Bold-55"/>
    </g>
   </g>
   <g id="text_63">
    <!-- 0.68 -->
    <g transform="translate(159.189766 144.565938)scale(0.07 -0.07)">
     <use xlink:href="#HelveticaNeue-Bold-48"/>
     <use x="55.599991" xlink:href="#HelveticaNeue-Bold-46"/>
     <use x="83.399979" xlink:href="#HelveticaNeue-Bold-54"/>
     <use x="138.999969" xlink:href="#HelveticaNeue-Bold-56"/>
    </g>
   </g>
   <g id="text_64">
    <!-- −0.56 -->
    <g transform="translate(178.689766 144.565938)scale(0.07 -0.07)">
     <use xlink:href="#HelveticaNeue-Bold-8722"/>
     <use x="59.999985" xlink:href="#HelveticaNeue-Bold-48"/>
     <use x="115.599976" xlink:href="#HelveticaNeue-Bold-46"/>
     <use x="143.399963" xlink:href="#HelveticaNeue-Bold-53"/>
     <use x="198.999954" xlink:href="#HelveticaNeue-Bold-54"/>
    </g>
   </g>
   <g id="text_65">
    <!-- 0.48 -->
    <g transform="translate(202.389766 144.565938)scale(0.07 -0.07)">
     <use xlink:href="#HelveticaNeue-Bold-48"/>
     <use x="55.599991" xlink:href="#HelveticaNeue-Bold-46"/>
     <use x="83.399979" xlink:href="#HelveticaNeue-Bold-52"/>
     <use x="138.999969" xlink:href="#HelveticaNeue-Bold-56"/>
    </g>
   </g>
   <g id="text_66">
    <!-- 1 -->
    <g style="fill:#ffffff;" transform="translate(142.454219 166.165938)scale(0.07 -0.07)">
     <use xlink:href="#HelveticaNeue-Bold-49"/>
    </g>
   </g>
   <g id="text_67">
    <!-- −0.86 -->
    <g style="fill:#ffffff;" transform="translate(157.089766 166.165938)scale(0.07 -0.07)">
     <use xlink:href="#HelveticaNeue-Bold-8722"/>
     <use x="59.999985" xlink:href="#HelveticaNeue-Bold-48"/>
     <use x="115.599976" xlink:href="#HelveticaNeue-Bold-46"/>
     <use x="143.399963" xlink:href="#HelveticaNeue-Bold-56"/>
     <use x="198.999954" xlink:href="#HelveticaNeue-Bold-54"/>
    </g>
   </g>
   <g id="text_68">
    <!-- 0.79 -->
    <g style="fill:#ffffff;" transform="translate(180.789766 166.165938)scale(0.07 -0.07)">
     <use xlink:href="#HelveticaNeue-Bold-48"/>
     <use x="55.599991" xlink:href="#HelveticaNeue-Bold-46"/>
     <use x="83.399979" xlink:href="#HelveticaNeue-Bold-55"/>
     <use x="138.999969" xlink:href="#HelveticaNeue-Bold-57"/>
    </g>
   </g>
   <g id="text_69">
    <!-- −0.77 -->
    <g style="fill:#ffffff;" transform="translate(200.289766 166.165938)scale(0.07 -0.07)">
     <use xlink:href="#HelveticaNeue-Bold-8722"/>
     <use x="59.999985" xlink:href="#HelveticaNeue-Bold-48"/>
     <use x="115.599976" xlink:href="#HelveticaNeue-Bold-46"/>
     <use x="143.399963" xlink:href="#HelveticaNeue-Bold-55"/>
     <use x="198.999954" xlink:href="#HelveticaNeue-Bold-55"/>
    </g>
   </g>
   <g id="text_70">
    <!-- 1 -->
    <g style="fill:#ffffff;" transform="translate(164.054219 187.765938)scale(0.07 -0.07)">
     <use xlink:href="#HelveticaNeue-Bold-49"/>
    </g>
   </g>
   <g id="text_71">
    <!-- −0.59 -->
    <g transform="translate(178.689766 187.765938)scale(0.07 -0.07)">
     <use xlink:href="#HelveticaNeue-Bold-8722"/>
     <use x="59.999985" xlink:href="#HelveticaNeue-Bold-48"/>
     <use x="115.599976" xlink:href="#HelveticaNeue-Bold-46"/>
     <use x="143.399963" xlink:href="#HelveticaNeue-Bold-53"/>
     <use x="198.999954" xlink:href="#HelveticaNeue-Bold-57"/>
    </g>
   </g>
   <g id="text_72">
    <!-- 0.88 -->
    <g style="fill:#ffffff;" transform="translate(202.389766 187.765938)scale(0.07 -0.07)">
     <use xlink:href="#HelveticaNeue-Bold-48"/>
     <use x="55.599991" xlink:href="#HelveticaNeue-Bold-46"/>
     <use x="83.399979" xlink:href="#HelveticaNeue-Bold-56"/>
     <use x="138.999969" xlink:href="#HelveticaNeue-Bold-56"/>
    </g>
   </g>
   <g id="text_73">
    <!-- 1 -->
    <g style="fill:#ffffff;" transform="translate(185.654219 209.365938)scale(0.07 -0.07)">
     <use xlink:href="#HelveticaNeue-Bold-49"/>
    </g>
   </g>
   <g id="text_74">
    <!-- −0.6 -->
    <g transform="translate(202.235547 209.365938)scale(0.07 -0.07)">
     <use xlink:href="#HelveticaNeue-Bold-8722"/>
     <use x="59.999985" xlink:href="#HelveticaNeue-Bold-48"/>
     <use x="115.599976" xlink:href="#HelveticaNeue-Bold-46"/>
     <use x="143.399963" xlink:href="#HelveticaNeue-Bold-54"/>
    </g>
   </g>
   <g id="text_75">
    <!-- 1 -->
    <g style="fill:#ffffff;" transform="translate(207.254219 230.965938)scale(0.07 -0.07)">
     <use xlink:href="#HelveticaNeue-Bold-49"/>
    </g>
   </g>
  </g>
  <g id="text_76">
   <!-- Heatmap demo -->
   <defs>
    <path d="M 6.90625 71.40625 
L 6.90625 0 
L 22.59375 0 
L 22.59375 30.796875 
L 51.5 30.796875 
L 51.5 0 
L 67.203125 0 
L 67.203125 71.40625 
L 51.5 71.40625 
L 51.5 44 
L 22.59375 44 
L 22.59375 71.40625 
z
" id="HelveticaNeue-Bold-72"/>
    <path d="M 40.203125 31.40625 
L 17.09375 31.40625 
Q 17.203125 32.90625 17.75 34.796875 
Q 18.296875 36.703125 19.640625 38.390625 
Q 21 40.09375 23.25 41.25 
Q 25.5 42.40625 28.90625 42.40625 
Q 34.09375 42.40625 36.640625 39.59375 
Q 39.203125 36.796875 40.203125 31.40625 
z
M 17.09375 22.40625 
L 54.40625 22.40625 
Q 54.796875 28.40625 53.390625 33.90625 
Q 52 39.40625 48.84375 43.703125 
Q 45.703125 48 40.796875 50.546875 
Q 35.90625 53.09375 29.296875 53.09375 
Q 23.40625 53.09375 18.546875 51 
Q 13.703125 48.90625 10.203125 45.25 
Q 6.703125 41.59375 4.796875 36.59375 
Q 2.90625 31.59375 2.90625 25.796875 
Q 2.90625 19.796875 4.75 14.796875 
Q 6.59375 9.796875 10 6.1875 
Q 13.40625 2.59375 18.296875 0.640625 
Q 23.203125 -1.296875 29.296875 -1.296875 
Q 38.09375 -1.296875 44.296875 2.703125 
Q 50.5 6.703125 53.5 16 
L 41 16 
Q 40.296875 13.59375 37.1875 11.4375 
Q 34.09375 9.296875 29.796875 9.296875 
Q 23.796875 9.296875 20.59375 12.390625 
Q 17.40625 15.5 17.09375 22.40625 
z
" id="HelveticaNeue-Bold-101"/>
    <path d="M 4.796875 35.796875 
Q 5.09375 40.796875 7.296875 44.09375 
Q 9.5 47.40625 12.890625 49.40625 
Q 16.296875 51.40625 20.546875 52.25 
Q 24.796875 53.09375 29.09375 53.09375 
Q 33 53.09375 37 52.546875 
Q 41 52 44.296875 50.390625 
Q 47.59375 48.796875 49.6875 45.9375 
Q 51.796875 43.09375 51.796875 38.40625 
L 51.796875 11.5 
Q 51.796875 8 52.1875 4.796875 
Q 52.59375 1.59375 53.59375 0 
L 39.203125 0 
Q 38.796875 1.203125 38.546875 2.453125 
Q 38.296875 3.703125 38.203125 5 
Q 34.796875 1.5 30.1875 0.09375 
Q 25.59375 -1.296875 20.796875 -1.296875 
Q 17.09375 -1.296875 13.890625 -0.390625 
Q 10.703125 0.5 8.296875 2.390625 
Q 5.90625 4.296875 4.546875 7.1875 
Q 3.203125 10.09375 3.203125 14.09375 
Q 3.203125 18.5 4.75 21.34375 
Q 6.296875 24.203125 8.75 25.890625 
Q 11.203125 27.59375 14.34375 28.4375 
Q 17.5 29.296875 20.703125 29.796875 
Q 23.90625 30.296875 27 30.59375 
Q 30.09375 30.90625 32.5 31.5 
Q 34.90625 32.09375 36.296875 33.25 
Q 37.703125 34.40625 37.59375 36.59375 
Q 37.59375 38.90625 36.84375 40.25 
Q 36.09375 41.59375 34.84375 42.34375 
Q 33.59375 43.09375 31.9375 43.34375 
Q 30.296875 43.59375 28.40625 43.59375 
Q 24.203125 43.59375 21.796875 41.796875 
Q 19.40625 40 19 35.796875 
z
M 37.59375 25.296875 
Q 36.703125 24.5 35.34375 24.046875 
Q 34 23.59375 32.453125 23.296875 
Q 30.90625 23 29.203125 22.796875 
Q 27.5 22.59375 25.796875 22.296875 
Q 24.203125 22 22.640625 21.5 
Q 21.09375 21 19.9375 20.140625 
Q 18.796875 19.296875 18.09375 18 
Q 17.40625 16.703125 17.40625 14.703125 
Q 17.40625 12.796875 18.09375 11.5 
Q 18.796875 10.203125 20 9.453125 
Q 21.203125 8.703125 22.796875 8.390625 
Q 24.40625 8.09375 26.09375 8.09375 
Q 30.296875 8.09375 32.59375 9.5 
Q 34.90625 10.90625 36 12.84375 
Q 37.09375 14.796875 37.34375 16.796875 
Q 37.59375 18.796875 37.59375 20 
z
" id="HelveticaNeue-Bold-97"/>
    <path d="M 23.40625 51.703125 
L 23.40625 67.203125 
L 9.203125 67.203125 
L 9.203125 51.703125 
L 0.59375 51.703125 
L 0.59375 42.203125 
L 9.203125 42.203125 
L 9.203125 11.703125 
Q 9.203125 7.796875 10.5 5.390625 
Q 11.796875 3 14.046875 1.703125 
Q 16.296875 0.40625 19.25 -0.046875 
Q 22.203125 -0.5 25.5 -0.5 
Q 27.59375 -0.5 29.796875 -0.390625 
Q 32 -0.296875 33.796875 0 
L 33.796875 11 
Q 32.796875 10.796875 31.6875 10.6875 
Q 30.59375 10.59375 29.40625 10.59375 
Q 25.796875 10.59375 24.59375 11.796875 
Q 23.40625 13 23.40625 16.59375 
L 23.40625 42.203125 
L 33.796875 42.203125 
L 33.796875 51.703125 
z
" id="HelveticaNeue-Bold-116"/>
    <path d="M 5.796875 51.703125 
L 5.796875 0 
L 20 0 
L 20 30 
Q 20 33.796875 21.09375 36.140625 
Q 22.203125 38.5 23.75 39.75 
Q 25.296875 41 26.9375 41.453125 
Q 28.59375 41.90625 29.59375 41.90625 
Q 33 41.90625 34.75 40.75 
Q 36.5 39.59375 37.25 37.6875 
Q 38 35.796875 38.09375 33.546875 
Q 38.203125 31.296875 38.203125 29 
L 38.203125 0 
L 52.40625 0 
L 52.40625 28.796875 
Q 52.40625 31.203125 52.75 33.546875 
Q 53.09375 35.90625 54.140625 37.75 
Q 55.203125 39.59375 57.046875 40.75 
Q 58.90625 41.90625 61.90625 41.90625 
Q 64.90625 41.90625 66.65625 40.90625 
Q 68.40625 39.90625 69.296875 38.203125 
Q 70.203125 36.5 70.390625 34.203125 
Q 70.59375 31.90625 70.59375 29.296875 
L 70.59375 0 
L 84.796875 0 
L 84.796875 34.59375 
Q 84.796875 39.59375 83.390625 43.140625 
Q 82 46.703125 79.5 48.890625 
Q 77 51.09375 73.5 52.09375 
Q 70 53.09375 65.90625 53.09375 
Q 60.5 53.09375 56.546875 50.5 
Q 52.59375 47.90625 50.296875 44.5 
Q 48.203125 49.296875 44.140625 51.1875 
Q 40.09375 53.09375 35.203125 53.09375 
Q 30.09375 53.09375 26.140625 50.890625 
Q 22.203125 48.703125 19.40625 44.703125 
L 19.203125 44.703125 
L 19.203125 51.703125 
z
" id="HelveticaNeue-Bold-109"/>
    <path d="M 31.5 9.296875 
Q 28.09375 9.296875 25.6875 10.6875 
Q 23.296875 12.09375 21.84375 14.34375 
Q 20.40625 16.59375 19.75 19.59375 
Q 19.09375 22.59375 19.09375 25.703125 
Q 19.09375 28.90625 19.6875 31.90625 
Q 20.296875 34.90625 21.75 37.203125 
Q 23.203125 39.5 25.546875 40.953125 
Q 27.90625 42.40625 31.40625 42.40625 
Q 34.796875 42.40625 37.140625 40.953125 
Q 39.5 39.5 41 37.140625 
Q 42.5 34.796875 43.140625 31.796875 
Q 43.796875 28.796875 43.796875 25.703125 
Q 43.796875 22.59375 43.1875 19.59375 
Q 42.59375 16.59375 41.140625 14.34375 
Q 39.703125 12.09375 37.34375 10.6875 
Q 35 9.296875 31.5 9.296875 
z
M 5.40625 51.703125 
L 5.40625 -18.09375 
L 19.59375 -18.09375 
L 19.59375 6.40625 
L 19.796875 6.40625 
Q 22.40625 2.59375 26.453125 0.640625 
Q 30.5 -1.296875 35.296875 -1.296875 
Q 41 -1.296875 45.25 0.890625 
Q 49.5 3.09375 52.34375 6.796875 
Q 55.203125 10.5 56.59375 15.296875 
Q 58 20.09375 58 25.296875 
Q 58 30.796875 56.59375 35.84375 
Q 55.203125 40.90625 52.296875 44.703125 
Q 49.40625 48.5 45 50.796875 
Q 40.59375 53.09375 34.5 53.09375 
Q 29.703125 53.09375 25.703125 51.1875 
Q 21.703125 49.296875 19.09375 45.09375 
L 18.90625 45.09375 
L 18.90625 51.703125 
z
" id="HelveticaNeue-Bold-112"/>
    <path id="HelveticaNeue-Bold-32"/>
    <path d="M 42.09375 26 
Q 42.09375 22.796875 41.5 19.796875 
Q 40.90625 16.796875 39.5 14.4375 
Q 38.09375 12.09375 35.75 10.6875 
Q 33.40625 9.296875 29.90625 9.296875 
Q 26.59375 9.296875 24.25 10.75 
Q 21.90625 12.203125 20.34375 14.546875 
Q 18.796875 16.90625 18.09375 19.90625 
Q 17.40625 22.90625 17.40625 25.90625 
Q 17.40625 29.09375 18.046875 32.046875 
Q 18.703125 35 20.140625 37.296875 
Q 21.59375 39.59375 24 41 
Q 26.40625 42.40625 29.90625 42.40625 
Q 33.40625 42.40625 35.703125 41 
Q 38 39.59375 39.453125 37.34375 
Q 40.90625 35.09375 41.5 32.140625 
Q 42.09375 29.203125 42.09375 26 
z
M 42.296875 6.59375 
L 42.296875 0 
L 55.796875 0 
L 55.796875 71.40625 
L 41.59375 71.40625 
L 41.59375 45.40625 
L 41.40625 45.40625 
Q 39 49.203125 34.84375 51.140625 
Q 30.703125 53.09375 26.09375 53.09375 
Q 20.40625 53.09375 16.09375 50.84375 
Q 11.796875 48.59375 8.9375 44.890625 
Q 6.09375 41.203125 4.640625 36.34375 
Q 3.203125 31.5 3.203125 26.296875 
Q 3.203125 20.90625 4.640625 15.90625 
Q 6.09375 10.90625 8.9375 7.046875 
Q 11.796875 3.203125 16.1875 0.953125 
Q 20.59375 -1.296875 26.40625 -1.296875 
Q 31.5 -1.296875 35.546875 0.546875 
Q 39.59375 2.40625 42.09375 6.59375 
z
" id="HelveticaNeue-Bold-100"/>
    <path d="M 18 25.796875 
Q 18 28.90625 18.59375 31.90625 
Q 19.203125 34.90625 20.640625 37.203125 
Q 22.09375 39.5 24.5 40.953125 
Q 26.90625 42.40625 30.5 42.40625 
Q 34.09375 42.40625 36.546875 40.953125 
Q 39 39.5 40.453125 37.203125 
Q 41.90625 34.90625 42.5 31.90625 
Q 43.09375 28.90625 43.09375 25.796875 
Q 43.09375 22.703125 42.5 19.75 
Q 41.90625 16.796875 40.453125 14.4375 
Q 39 12.09375 36.546875 10.6875 
Q 34.09375 9.296875 30.5 9.296875 
Q 26.90625 9.296875 24.5 10.6875 
Q 22.09375 12.09375 20.640625 14.4375 
Q 19.203125 16.796875 18.59375 19.75 
Q 18 22.703125 18 25.796875 
z
M 3.796875 25.796875 
Q 3.796875 19.59375 5.6875 14.59375 
Q 7.59375 9.59375 11.09375 6.046875 
Q 14.59375 2.5 19.5 0.59375 
Q 24.40625 -1.296875 30.5 -1.296875 
Q 36.59375 -1.296875 41.546875 0.59375 
Q 46.5 2.5 50 6.046875 
Q 53.5 9.59375 55.390625 14.59375 
Q 57.296875 19.59375 57.296875 25.796875 
Q 57.296875 32 55.390625 37.046875 
Q 53.5 42.09375 50 45.640625 
Q 46.5 49.203125 41.546875 51.140625 
Q 36.59375 53.09375 30.5 53.09375 
Q 24.40625 53.09375 19.5 51.140625 
Q 14.59375 49.203125 11.09375 45.640625 
Q 7.59375 42.09375 5.6875 37.046875 
Q 3.796875 32 3.796875 25.796875 
z
" id="HelveticaNeue-Bold-111"/>
   </defs>
   <g transform="translate(79.069266 10.146083)scale(0.09 -0.09)">
    <use xlink:href="#HelveticaNeue-Bold-72"/>
    <use x="74.099991" xlink:href="#HelveticaNeue-Bold-101"/>
    <use x="131.499985" xlink:href="#HelveticaNeue-Bold-97"/>
    <use x="188.899979" xlink:href="#HelveticaNeue-Bold-116"/>
    <use x="224.099976" xlink:href="#HelveticaNeue-Bold-109"/>
    <use x="314.699966" xlink:href="#HelveticaNeue-Bold-97"/>
    <use x="372.09996" xlink:href="#HelveticaNeue-Bold-112"/>
    <use x="433.199951" xlink:href="#HelveticaNeue-Bold-32"/>
    <use x="460.999939" xlink:href="#HelveticaNeue-Bold-100"/>
    <use x="522.09993" xlink:href="#HelveticaNeue-Bold-101"/>
    <use x="579.499924" xlink:href="#HelveticaNeue-Bold-109"/>
    <use x="670.099915" xlink:href="#HelveticaNeue-Bold-111"/>
   </g>
  </g>
 </g>
 <defs>
  <clipPath id="p3bb36c2a3e">
   <rect height="216" width="216" x="4" y="23.9"/>
  </clipPath>
 </defs>
</svg>
