<?xml version="1.0" encoding="utf-8" standalone="no"?>
<!DOCTYPE svg PUBLIC "-//W3C//DTD SVG 1.1//EN"
  "http://www.w3.org/Graphics/SVG/1.1/DTD/svg11.dtd">
<!-- Created with matplotlib (https://matplotlib.org/) -->
<svg height="175.9pt" version="1.1" viewBox="0 0 246.1 175.9" width="246.1pt" xmlns="http://www.w3.org/2000/svg" xmlns:xlink="http://www.w3.org/1999/xlink">
 <defs>
  <style type="text/css">
*{stroke-linecap:butt;stroke-linejoin:round;}
  </style>
 </defs>
 <g id="figure_1">
  <g id="patch_1">
   <path d="M 0 175.9 
L 245.91875 175.9 
L 245.91875 -0.14375 
L 0 -0.14375 
z
" style="fill:#f2f2f2;"/>
  </g>
  <g id="axes_1">
   <g id="patch_2">
    <path d="M 25.91875 158.61125 
L 241.91875 158.61125 
L 241.91875 14.61125 
L 25.91875 14.61125 
z
" style="fill:#ffffff;"/>
   </g>
   <g id="matplotlib.axis_1">
    <g id="xtick_1">
     <g id="line2d_1">
      <path clip-path="url(#pe94bea7d67)" d="M 25.91875 158.61125 
L 25.91875 14.61125 
" style="fill:none;stroke:#000000;stroke-linecap:square;stroke-opacity:0.1;stroke-width:0.6;"/>
     </g>
     <g id="line2d_2">
      <defs>
       <path d="M 0 0 
L 0 4 
" id="m683db1d647" style="stroke:#000000;stroke-width:0.6;"/>
      </defs>
      <g>
       <use style="stroke:#000000;stroke-width:0.6;" x="25.91875" xlink:href="#m683db1d647" y="158.61125"/>
      </g>
     </g>
     <g id="text_1">
      <!-- 0 -->
      <defs>
       <path d="M 13.203125 34.90625 
Q 13.203125 37.5 13.25 40.640625 
Q 13.296875 43.796875 13.75 46.9375 
Q 14.203125 50.09375 15.046875 53.09375 
Q 15.90625 56.09375 17.546875 58.34375 
Q 19.203125 60.59375 21.703125 62 
Q 24.203125 63.40625 27.796875 63.40625 
Q 31.40625 63.40625 33.90625 62 
Q 36.40625 60.59375 38.046875 58.34375 
Q 39.703125 56.09375 40.546875 53.09375 
Q 41.40625 50.09375 41.84375 46.9375 
Q 42.296875 43.796875 42.34375 40.640625 
Q 42.40625 37.5 42.40625 34.90625 
Q 42.40625 30.90625 42.15625 25.953125 
Q 41.90625 21 40.546875 16.640625 
Q 39.203125 12.296875 36.203125 9.296875 
Q 33.203125 6.296875 27.796875 6.296875 
Q 22.40625 6.296875 19.40625 9.296875 
Q 16.40625 12.296875 15.046875 16.640625 
Q 13.703125 21 13.453125 25.953125 
Q 13.203125 30.90625 13.203125 34.90625 
z
M 4.203125 34.796875 
Q 4.203125 30.90625 4.390625 26.703125 
Q 4.59375 22.5 5.390625 18.5 
Q 6.203125 14.5 7.703125 10.953125 
Q 9.203125 7.40625 11.796875 4.703125 
Q 14.40625 2 18.34375 0.453125 
Q 22.296875 -1.09375 27.796875 -1.09375 
Q 33.40625 -1.09375 37.296875 0.453125 
Q 41.203125 2 43.796875 4.703125 
Q 46.40625 7.40625 47.90625 10.953125 
Q 49.40625 14.5 50.203125 18.5 
Q 51 22.5 51.203125 26.703125 
Q 51.40625 30.90625 51.40625 34.796875 
Q 51.40625 38.703125 51.203125 42.890625 
Q 51 47.09375 50.203125 51.09375 
Q 49.40625 55.09375 47.90625 58.6875 
Q 46.40625 62.296875 43.796875 65 
Q 41.203125 67.703125 37.25 69.296875 
Q 33.296875 70.90625 27.796875 70.90625 
Q 22.296875 70.90625 18.34375 69.296875 
Q 14.40625 67.703125 11.796875 65 
Q 9.203125 62.296875 7.703125 58.6875 
Q 6.203125 55.09375 5.390625 51.09375 
Q 4.59375 47.09375 4.390625 42.890625 
Q 4.203125 38.703125 4.203125 34.796875 
z
" id="HelveticaNeue-48"/>
      </defs>
      <g transform="translate(23.695 170.32375)scale(0.08 -0.08)">
       <use xlink:href="#HelveticaNeue-48"/>
      </g>
     </g>
    </g>
    <g id="xtick_2">
     <g id="line2d_3">
      <path clip-path="url(#pe94bea7d67)" d="M 54.339803 158.61125 
L 54.339803 14.61125 
" style="fill:none;stroke:#000000;stroke-linecap:square;stroke-opacity:0.1;stroke-width:0.6;"/>
     </g>
     <g id="line2d_4">
      <g>
       <use style="stroke:#000000;stroke-width:0.6;" x="54.339803" xlink:href="#m683db1d647" y="158.61125"/>
      </g>
     </g>
     <g id="text_2">
      <!-- 2.5 -->
      <defs>
       <path d="M 4.40625 45.796875 
L 12.90625 45.796875 
Q 12.796875 49 13.546875 52.140625 
Q 14.296875 55.296875 16 57.796875 
Q 17.703125 60.296875 20.34375 61.84375 
Q 23 63.40625 26.703125 63.40625 
Q 29.5 63.40625 32 62.5 
Q 34.5 61.59375 36.34375 59.890625 
Q 38.203125 58.203125 39.296875 55.84375 
Q 40.40625 53.5 40.40625 50.59375 
Q 40.40625 46.90625 39.25 44.09375 
Q 38.09375 41.296875 35.84375 38.890625 
Q 33.59375 36.5 30.1875 34.140625 
Q 26.796875 31.796875 22.296875 29 
Q 18.59375 26.796875 15.1875 24.296875 
Q 11.796875 21.796875 9.09375 18.5 
Q 6.40625 15.203125 4.65625 10.75 
Q 2.90625 6.296875 2.40625 0 
L 48.703125 0 
L 48.703125 7.5 
L 12.296875 7.5 
Q 12.90625 10.796875 14.84375 13.34375 
Q 16.796875 15.90625 19.546875 18.09375 
Q 22.296875 20.296875 25.59375 22.25 
Q 28.90625 24.203125 32.203125 26.203125 
Q 35.5 28.296875 38.59375 30.59375 
Q 41.703125 32.90625 44.09375 35.75 
Q 46.5 38.59375 47.953125 42.1875 
Q 49.40625 45.796875 49.40625 50.5 
Q 49.40625 55.5 47.65625 59.296875 
Q 45.90625 63.09375 42.90625 65.640625 
Q 39.90625 68.203125 35.84375 69.546875 
Q 31.796875 70.90625 27.203125 70.90625 
Q 21.59375 70.90625 17.1875 69 
Q 12.796875 67.09375 9.84375 63.75 
Q 6.90625 60.40625 5.5 55.796875 
Q 4.09375 51.203125 4.40625 45.796875 
z
" id="HelveticaNeue-50"/>
       <path d="M 8.296875 11.09375 
L 8.296875 0 
L 19.40625 0 
L 19.40625 11.09375 
z
" id="HelveticaNeue-46"/>
       <path d="M 47 62.203125 
L 47 69.703125 
L 12 69.703125 
L 5.40625 32.90625 
L 12.703125 32.5 
Q 15.203125 35.5 18.453125 37.34375 
Q 21.703125 39.203125 25.90625 39.203125 
Q 29.5 39.203125 32.453125 38 
Q 35.40625 36.796875 37.5 34.640625 
Q 39.59375 32.5 40.75 29.546875 
Q 41.90625 26.59375 41.90625 23.09375 
Q 41.90625 18.90625 40.703125 15.75 
Q 39.5 12.59375 37.453125 10.5 
Q 35.40625 8.40625 32.65625 7.34375 
Q 29.90625 6.296875 26.90625 6.296875 
Q 23.703125 6.296875 21.046875 7.25 
Q 18.40625 8.203125 16.453125 9.953125 
Q 14.5 11.703125 13.34375 14.046875 
Q 12.203125 16.40625 12 19.09375 
L 3.5 19.09375 
Q 3.59375 14.296875 5.390625 10.5 
Q 7.203125 6.703125 10.296875 4.140625 
Q 13.40625 1.59375 17.453125 0.25 
Q 21.5 -1.09375 26.09375 -1.09375 
Q 32.296875 -1.09375 36.9375 0.84375 
Q 41.59375 2.796875 44.6875 6.09375 
Q 47.796875 9.40625 49.34375 13.65625 
Q 50.90625 17.90625 50.90625 22.40625 
Q 50.90625 28.5 49.09375 33.046875 
Q 47.296875 37.59375 44.1875 40.640625 
Q 41.09375 43.703125 36.890625 45.203125 
Q 32.703125 46.703125 28 46.703125 
Q 24.40625 46.703125 20.75 45.453125 
Q 17.09375 44.203125 14.796875 41.59375 
L 14.59375 41.796875 
L 18.40625 62.203125 
z
" id="HelveticaNeue-53"/>
      </defs>
      <g transform="translate(48.780428 170.32375)scale(0.08 -0.08)">
       <use xlink:href="#HelveticaNeue-50"/>
       <use x="55.599991" xlink:href="#HelveticaNeue-46"/>
       <use x="83.399979" xlink:href="#HelveticaNeue-53"/>
      </g>
     </g>
    </g>
    <g id="xtick_3">
     <g id="line2d_5">
      <path clip-path="url(#pe94bea7d67)" d="M 82.760855 158.61125 
L 82.760855 14.61125 
" style="fill:none;stroke:#000000;stroke-linecap:square;stroke-opacity:0.1;stroke-width:0.6;"/>
     </g>
     <g id="line2d_6">
      <g>
       <use style="stroke:#000000;stroke-width:0.6;" x="82.760855" xlink:href="#m683db1d647" y="158.61125"/>
      </g>
     </g>
     <g id="text_3">
      <!-- 5 -->
      <g transform="translate(80.537105 170.32375)scale(0.08 -0.08)">
       <use xlink:href="#HelveticaNeue-53"/>
      </g>
     </g>
    </g>
    <g id="xtick_4">
     <g id="line2d_7">
      <path clip-path="url(#pe94bea7d67)" d="M 111.181908 158.61125 
L 111.181908 14.61125 
" style="fill:none;stroke:#000000;stroke-linecap:square;stroke-opacity:0.1;stroke-width:0.6;"/>
     </g>
     <g id="line2d_8">
      <g>
       <use style="stroke:#000000;stroke-width:0.6;" x="111.181908" xlink:href="#m683db1d647" y="158.61125"/>
      </g>
     </g>
     <g id="text_4">
      <!-- 7.5 -->
      <defs>
       <path d="M 50.90625 62.40625 
L 50.90625 69.703125 
L 5 69.703125 
L 5 61.703125 
L 42.203125 61.703125 
Q 36.59375 55.796875 31.75 48.796875 
Q 26.90625 41.796875 23.203125 33.9375 
Q 19.5 26.09375 17.140625 17.546875 
Q 14.796875 9 14.203125 0 
L 23.703125 0 
Q 24.203125 8.296875 26.5 17.09375 
Q 28.796875 25.90625 32.4375 34.203125 
Q 36.09375 42.5 40.796875 49.796875 
Q 45.5 57.09375 50.90625 62.40625 
z
" id="HelveticaNeue-55"/>
      </defs>
      <g transform="translate(105.622533 170.32375)scale(0.08 -0.08)">
       <use xlink:href="#HelveticaNeue-55"/>
       <use x="55.599991" xlink:href="#HelveticaNeue-46"/>
       <use x="83.399979" xlink:href="#HelveticaNeue-53"/>
      </g>
     </g>
    </g>
    <g id="xtick_5">
     <g id="line2d_9">
      <path clip-path="url(#pe94bea7d67)" d="M 139.602961 158.61125 
L 139.602961 14.61125 
" style="fill:none;stroke:#000000;stroke-linecap:square;stroke-opacity:0.1;stroke-width:0.6;"/>
     </g>
     <g id="line2d_10">
      <g>
       <use style="stroke:#000000;stroke-width:0.6;" x="139.602961" xlink:href="#m683db1d647" y="158.61125"/>
      </g>
     </g>
     <g id="text_5">
      <!-- 10 -->
      <defs>
       <path d="M 35.59375 0 
L 35.59375 70.90625 
L 29.09375 70.90625 
Q 28.40625 66.90625 26.5 64.296875 
Q 24.59375 61.703125 21.84375 60.203125 
Q 19.09375 58.703125 15.6875 58.140625 
Q 12.296875 57.59375 8.703125 57.59375 
L 8.703125 50.796875 
L 27.09375 50.796875 
L 27.09375 0 
z
" id="HelveticaNeue-49"/>
      </defs>
      <g transform="translate(135.155461 170.32375)scale(0.08 -0.08)">
       <use xlink:href="#HelveticaNeue-49"/>
       <use x="55.599991" xlink:href="#HelveticaNeue-48"/>
      </g>
     </g>
    </g>
    <g id="xtick_6">
     <g id="line2d_11">
      <path clip-path="url(#pe94bea7d67)" d="M 168.024013 158.61125 
L 168.024013 14.61125 
" style="fill:none;stroke:#000000;stroke-linecap:square;stroke-opacity:0.1;stroke-width:0.6;"/>
     </g>
     <g id="line2d_12">
      <g>
       <use style="stroke:#000000;stroke-width:0.6;" x="168.024013" xlink:href="#m683db1d647" y="158.61125"/>
      </g>
     </g>
     <g id="text_6">
      <!-- 12.5 -->
      <g transform="translate(160.240888 170.32375)scale(0.08 -0.08)">
       <use xlink:href="#HelveticaNeue-49"/>
       <use x="55.599991" xlink:href="#HelveticaNeue-50"/>
       <use x="111.199982" xlink:href="#HelveticaNeue-46"/>
       <use x="138.999969" xlink:href="#HelveticaNeue-53"/>
      </g>
     </g>
    </g>
    <g id="xtick_7">
     <g id="line2d_13">
      <path clip-path="url(#pe94bea7d67)" d="M 196.445066 158.61125 
L 196.445066 14.61125 
" style="fill:none;stroke:#000000;stroke-linecap:square;stroke-opacity:0.1;stroke-width:0.6;"/>
     </g>
     <g id="line2d_14">
      <g>
       <use style="stroke:#000000;stroke-width:0.6;" x="196.445066" xlink:href="#m683db1d647" y="158.61125"/>
      </g>
     </g>
     <g id="text_7">
      <!-- 15 -->
      <g transform="translate(191.997566 170.32375)scale(0.08 -0.08)">
       <use xlink:href="#HelveticaNeue-49"/>
       <use x="55.599991" xlink:href="#HelveticaNeue-53"/>
      </g>
     </g>
    </g>
    <g id="xtick_8">
     <g id="line2d_15">
      <path clip-path="url(#pe94bea7d67)" d="M 224.866118 158.61125 
L 224.866118 14.61125 
" style="fill:none;stroke:#000000;stroke-linecap:square;stroke-opacity:0.1;stroke-width:0.6;"/>
     </g>
     <g id="line2d_16">
      <g>
       <use style="stroke:#000000;stroke-width:0.6;" x="224.866118" xlink:href="#m683db1d647" y="158.61125"/>
      </g>
     </g>
     <g id="text_8">
      <!-- 17.5 -->
      <g transform="translate(217.082993 170.32375)scale(0.08 -0.08)">
       <use xlink:href="#HelveticaNeue-49"/>
       <use x="55.599991" xlink:href="#HelveticaNeue-55"/>
       <use x="111.199982" xlink:href="#HelveticaNeue-46"/>
       <use x="138.999969" xlink:href="#HelveticaNeue-53"/>
      </g>
     </g>
    </g>
    <g id="xtick_9">
     <g id="line2d_17">
      <defs>
       <path d="M 0 0 
L 0 2 
" id="m83b32ab6b8" style="stroke:#000000;stroke-width:0.48;"/>
      </defs>
      <g>
       <use style="stroke:#000000;stroke-width:0.48;" x="31.602961" xlink:href="#m83b32ab6b8" y="158.61125"/>
      </g>
     </g>
    </g>
    <g id="xtick_10">
     <g id="line2d_18">
      <g>
       <use style="stroke:#000000;stroke-width:0.48;" x="37.287171" xlink:href="#m83b32ab6b8" y="158.61125"/>
      </g>
     </g>
    </g>
    <g id="xtick_11">
     <g id="line2d_19">
      <g>
       <use style="stroke:#000000;stroke-width:0.48;" x="42.971382" xlink:href="#m83b32ab6b8" y="158.61125"/>
      </g>
     </g>
    </g>
    <g id="xtick_12">
     <g id="line2d_20">
      <g>
       <use style="stroke:#000000;stroke-width:0.48;" x="48.655592" xlink:href="#m83b32ab6b8" y="158.61125"/>
      </g>
     </g>
    </g>
    <g id="xtick_13">
     <g id="line2d_21">
      <g>
       <use style="stroke:#000000;stroke-width:0.48;" x="60.024013" xlink:href="#m83b32ab6b8" y="158.61125"/>
      </g>
     </g>
    </g>
    <g id="xtick_14">
     <g id="line2d_22">
      <g>
       <use style="stroke:#000000;stroke-width:0.48;" x="65.708224" xlink:href="#m83b32ab6b8" y="158.61125"/>
      </g>
     </g>
    </g>
    <g id="xtick_15">
     <g id="line2d_23">
      <g>
       <use style="stroke:#000000;stroke-width:0.48;" x="71.392434" xlink:href="#m83b32ab6b8" y="158.61125"/>
      </g>
     </g>
    </g>
    <g id="xtick_16">
     <g id="line2d_24">
      <g>
       <use style="stroke:#000000;stroke-width:0.48;" x="77.076645" xlink:href="#m83b32ab6b8" y="158.61125"/>
      </g>
     </g>
    </g>
    <g id="xtick_17">
     <g id="line2d_25">
      <g>
       <use style="stroke:#000000;stroke-width:0.48;" x="88.445066" xlink:href="#m83b32ab6b8" y="158.61125"/>
      </g>
     </g>
    </g>
    <g id="xtick_18">
     <g id="line2d_26">
      <g>
       <use style="stroke:#000000;stroke-width:0.48;" x="94.129276" xlink:href="#m83b32ab6b8" y="158.61125"/>
      </g>
     </g>
    </g>
    <g id="xtick_19">
     <g id="line2d_27">
      <g>
       <use style="stroke:#000000;stroke-width:0.48;" x="99.813487" xlink:href="#m83b32ab6b8" y="158.61125"/>
      </g>
     </g>
    </g>
    <g id="xtick_20">
     <g id="line2d_28">
      <g>
       <use style="stroke:#000000;stroke-width:0.48;" x="105.497697" xlink:href="#m83b32ab6b8" y="158.61125"/>
      </g>
     </g>
    </g>
    <g id="xtick_21">
     <g id="line2d_29">
      <g>
       <use style="stroke:#000000;stroke-width:0.48;" x="116.866118" xlink:href="#m83b32ab6b8" y="158.61125"/>
      </g>
     </g>
    </g>
    <g id="xtick_22">
     <g id="line2d_30">
      <g>
       <use style="stroke:#000000;stroke-width:0.48;" x="122.550329" xlink:href="#m83b32ab6b8" y="158.61125"/>
      </g>
     </g>
    </g>
    <g id="xtick_23">
     <g id="line2d_31">
      <g>
       <use style="stroke:#000000;stroke-width:0.48;" x="128.234539" xlink:href="#m83b32ab6b8" y="158.61125"/>
      </g>
     </g>
    </g>
    <g id="xtick_24">
     <g id="line2d_32">
      <g>
       <use style="stroke:#000000;stroke-width:0.48;" x="133.91875" xlink:href="#m83b32ab6b8" y="158.61125"/>
      </g>
     </g>
    </g>
    <g id="xtick_25">
     <g id="line2d_33">
      <g>
       <use style="stroke:#000000;stroke-width:0.48;" x="145.287171" xlink:href="#m83b32ab6b8" y="158.61125"/>
      </g>
     </g>
    </g>
    <g id="xtick_26">
     <g id="line2d_34">
      <g>
       <use style="stroke:#000000;stroke-width:0.48;" x="150.971382" xlink:href="#m83b32ab6b8" y="158.61125"/>
      </g>
     </g>
    </g>
    <g id="xtick_27">
     <g id="line2d_35">
      <g>
       <use style="stroke:#000000;stroke-width:0.48;" x="156.655592" xlink:href="#m83b32ab6b8" y="158.61125"/>
      </g>
     </g>
    </g>
    <g id="xtick_28">
     <g id="line2d_36">
      <g>
       <use style="stroke:#000000;stroke-width:0.48;" x="162.339803" xlink:href="#m83b32ab6b8" y="158.61125"/>
      </g>
     </g>
    </g>
    <g id="xtick_29">
     <g id="line2d_37">
      <g>
       <use style="stroke:#000000;stroke-width:0.48;" x="173.708224" xlink:href="#m83b32ab6b8" y="158.61125"/>
      </g>
     </g>
    </g>
    <g id="xtick_30">
     <g id="line2d_38">
      <g>
       <use style="stroke:#000000;stroke-width:0.48;" x="179.392434" xlink:href="#m83b32ab6b8" y="158.61125"/>
      </g>
     </g>
    </g>
    <g id="xtick_31">
     <g id="line2d_39">
      <g>
       <use style="stroke:#000000;stroke-width:0.48;" x="185.076645" xlink:href="#m83b32ab6b8" y="158.61125"/>
      </g>
     </g>
    </g>
    <g id="xtick_32">
     <g id="line2d_40">
      <g>
       <use style="stroke:#000000;stroke-width:0.48;" x="190.760855" xlink:href="#m83b32ab6b8" y="158.61125"/>
      </g>
     </g>
    </g>
    <g id="xtick_33">
     <g id="line2d_41">
      <g>
       <use style="stroke:#000000;stroke-width:0.48;" x="202.129276" xlink:href="#m83b32ab6b8" y="158.61125"/>
      </g>
     </g>
    </g>
    <g id="xtick_34">
     <g id="line2d_42">
      <g>
       <use style="stroke:#000000;stroke-width:0.48;" x="207.813487" xlink:href="#m83b32ab6b8" y="158.61125"/>
      </g>
     </g>
    </g>
    <g id="xtick_35">
     <g id="line2d_43">
      <g>
       <use style="stroke:#000000;stroke-width:0.48;" x="213.497697" xlink:href="#m83b32ab6b8" y="158.61125"/>
      </g>
     </g>
    </g>
    <g id="xtick_36">
     <g id="line2d_44">
      <g>
       <use style="stroke:#000000;stroke-width:0.48;" x="219.181908" xlink:href="#m83b32ab6b8" y="158.61125"/>
      </g>
     </g>
    </g>
    <g id="xtick_37">
     <g id="line2d_45">
      <g>
       <use style="stroke:#000000;stroke-width:0.48;" x="230.550329" xlink:href="#m83b32ab6b8" y="158.61125"/>
      </g>
     </g>
    </g>
    <g id="xtick_38">
     <g id="line2d_46">
      <g>
       <use style="stroke:#000000;stroke-width:0.48;" x="236.234539" xlink:href="#m83b32ab6b8" y="158.61125"/>
      </g>
     </g>
    </g>
    <g id="xtick_39">
     <g id="line2d_47">
      <g>
       <use style="stroke:#000000;stroke-width:0.48;" x="241.91875" xlink:href="#m83b32ab6b8" y="158.61125"/>
      </g>
     </g>
    </g>
   </g>
   <g id="matplotlib.axis_2">
    <g id="ytick_1">
     <g id="line2d_48">
      <path clip-path="url(#pe94bea7d67)" d="M 25.91875 153.485553 
L 241.91875 153.485553 
" style="fill:none;stroke:#000000;stroke-linecap:square;stroke-opacity:0.1;stroke-width:0.6;"/>
     </g>
     <g id="line2d_49">
      <defs>
       <path d="M 0 0 
L -4 0 
" id="m1326ee8346" style="stroke:#000000;stroke-width:0.6;"/>
      </defs>
      <g>
       <use style="stroke:#000000;stroke-width:0.6;" x="25.91875" xlink:href="#m1326ee8346" y="153.485553"/>
      </g>
     </g>
     <g id="text_9">
      <!-- −1.5 -->
      <defs>
       <path d="M 4.796875 28.703125 
L 4.796875 21.90625 
L 55.203125 21.90625 
L 55.203125 28.703125 
z
" id="HelveticaNeue-8722"/>
      </defs>
      <g transform="translate(4 156.341803)scale(0.08 -0.08)">
       <use xlink:href="#HelveticaNeue-8722"/>
       <use x="59.999985" xlink:href="#HelveticaNeue-49"/>
       <use x="115.599976" xlink:href="#HelveticaNeue-46"/>
       <use x="143.399963" xlink:href="#HelveticaNeue-53"/>
      </g>
     </g>
    </g>
    <g id="ytick_2">
     <g id="line2d_50">
      <path clip-path="url(#pe94bea7d67)" d="M 25.91875 128.350774 
L 241.91875 128.350774 
" style="fill:none;stroke:#000000;stroke-linecap:square;stroke-opacity:0.1;stroke-width:0.6;"/>
     </g>
     <g id="line2d_51">
      <g>
       <use style="stroke:#000000;stroke-width:0.6;" x="25.91875" xlink:href="#m1326ee8346" y="128.350774"/>
      </g>
     </g>
     <g id="text_10">
      <!-- −1 -->
      <g transform="translate(10.67125 131.207024)scale(0.08 -0.08)">
       <use xlink:href="#HelveticaNeue-8722"/>
       <use x="59.999985" xlink:href="#HelveticaNeue-49"/>
      </g>
     </g>
    </g>
    <g id="ytick_3">
     <g id="line2d_52">
      <path clip-path="url(#pe94bea7d67)" d="M 25.91875 103.215996 
L 241.91875 103.215996 
" style="fill:none;stroke:#000000;stroke-linecap:square;stroke-opacity:0.1;stroke-width:0.6;"/>
     </g>
     <g id="line2d_53">
      <g>
       <use style="stroke:#000000;stroke-width:0.6;" x="25.91875" xlink:href="#m1326ee8346" y="103.215996"/>
      </g>
     </g>
     <g id="text_11">
      <!-- −0.5 -->
      <g transform="translate(4 106.072246)scale(0.08 -0.08)">
       <use xlink:href="#HelveticaNeue-8722"/>
       <use x="59.999985" xlink:href="#HelveticaNeue-48"/>
       <use x="115.599976" xlink:href="#HelveticaNeue-46"/>
       <use x="143.399963" xlink:href="#HelveticaNeue-53"/>
      </g>
     </g>
    </g>
    <g id="ytick_4">
     <g id="line2d_54">
      <path clip-path="url(#pe94bea7d67)" d="M 25.91875 78.081218 
L 241.91875 78.081218 
" style="fill:none;stroke:#000000;stroke-linecap:square;stroke-opacity:0.1;stroke-width:0.6;"/>
     </g>
     <g id="line2d_55">
      <g>
       <use style="stroke:#000000;stroke-width:0.6;" x="25.91875" xlink:href="#m1326ee8346" y="78.081218"/>
      </g>
     </g>
     <g id="text_12">
      <!-- 0 -->
      <g transform="translate(15.47125 80.937468)scale(0.08 -0.08)">
       <use xlink:href="#HelveticaNeue-48"/>
      </g>
     </g>
    </g>
    <g id="ytick_5">
     <g id="line2d_56">
      <path clip-path="url(#pe94bea7d67)" d="M 25.91875 52.94644 
L 241.91875 52.94644 
" style="fill:none;stroke:#000000;stroke-linecap:square;stroke-opacity:0.1;stroke-width:0.6;"/>
     </g>
     <g id="line2d_57">
      <g>
       <use style="stroke:#000000;stroke-width:0.6;" x="25.91875" xlink:href="#m1326ee8346" y="52.94644"/>
      </g>
     </g>
     <g id="text_13">
      <!-- 0.5 -->
      <g transform="translate(8.8 55.80269)scale(0.08 -0.08)">
       <use xlink:href="#HelveticaNeue-48"/>
       <use x="55.599991" xlink:href="#HelveticaNeue-46"/>
       <use x="83.399979" xlink:href="#HelveticaNeue-53"/>
      </g>
     </g>
    </g>
    <g id="ytick_6">
     <g id="line2d_58">
      <path clip-path="url(#pe94bea7d67)" d="M 25.91875 27.811662 
L 241.91875 27.811662 
" style="fill:none;stroke:#000000;stroke-linecap:square;stroke-opacity:0.1;stroke-width:0.6;"/>
     </g>
     <g id="line2d_59">
      <g>
       <use style="stroke:#000000;stroke-width:0.6;" x="25.91875" xlink:href="#m1326ee8346" y="27.811662"/>
      </g>
     </g>
     <g id="text_14">
      <!-- 1 -->
      <g transform="translate(15.47125 30.667912)scale(0.08 -0.08)">
       <use xlink:href="#HelveticaNeue-49"/>
      </g>
     </g>
    </g>
    <g id="ytick_7">
     <g id="line2d_60">
      <defs>
       <path d="M 0 0 
L -2 0 
" id="m1a233b2865" style="stroke:#000000;stroke-width:0.48;"/>
      </defs>
      <g>
       <use style="stroke:#000000;stroke-width:0.48;" x="25.91875" xlink:href="#m1a233b2865" y="158.512508"/>
      </g>
     </g>
    </g>
    <g id="ytick_8">
     <g id="line2d_61">
      <g>
       <use style="stroke:#000000;stroke-width:0.48;" x="25.91875" xlink:href="#m1a233b2865" y="148.458597"/>
      </g>
     </g>
    </g>
    <g id="ytick_9">
     <g id="line2d_62">
      <g>
       <use style="stroke:#000000;stroke-width:0.48;" x="25.91875" xlink:href="#m1a233b2865" y="143.431641"/>
      </g>
     </g>
    </g>
    <g id="ytick_10">
     <g id="line2d_63">
      <g>
       <use style="stroke:#000000;stroke-width:0.48;" x="25.91875" xlink:href="#m1a233b2865" y="138.404686"/>
      </g>
     </g>
    </g>
    <g id="ytick_11">
     <g id="line2d_64">
      <g>
       <use style="stroke:#000000;stroke-width:0.48;" x="25.91875" xlink:href="#m1a233b2865" y="133.37773"/>
      </g>
     </g>
    </g>
    <g id="ytick_12">
     <g id="line2d_65">
      <g>
       <use style="stroke:#000000;stroke-width:0.48;" x="25.91875" xlink:href="#m1a233b2865" y="123.323819"/>
      </g>
     </g>
    </g>
    <g id="ytick_13">
     <g id="line2d_66">
      <g>
       <use style="stroke:#000000;stroke-width:0.48;" x="25.91875" xlink:href="#m1a233b2865" y="118.296863"/>
      </g>
     </g>
    </g>
    <g id="ytick_14">
     <g id="line2d_67">
      <g>
       <use style="stroke:#000000;stroke-width:0.48;" x="25.91875" xlink:href="#m1a233b2865" y="113.269908"/>
      </g>
     </g>
    </g>
    <g id="ytick_15">
     <g id="line2d_68">
      <g>
       <use style="stroke:#000000;stroke-width:0.48;" x="25.91875" xlink:href="#m1a233b2865" y="108.242952"/>
      </g>
     </g>
    </g>
    <g id="ytick_16">
     <g id="line2d_69">
      <g>
       <use style="stroke:#000000;stroke-width:0.48;" x="25.91875" xlink:href="#m1a233b2865" y="98.189041"/>
      </g>
     </g>
    </g>
    <g id="ytick_17">
     <g id="line2d_70">
      <g>
       <use style="stroke:#000000;stroke-width:0.48;" x="25.91875" xlink:href="#m1a233b2865" y="93.162085"/>
      </g>
     </g>
    </g>
    <g id="ytick_18">
     <g id="line2d_71">
      <g>
       <use style="stroke:#000000;stroke-width:0.48;" x="25.91875" xlink:href="#m1a233b2865" y="88.135129"/>
      </g>
     </g>
    </g>
    <g id="ytick_19">
     <g id="line2d_72">
      <g>
       <use style="stroke:#000000;stroke-width:0.48;" x="25.91875" xlink:href="#m1a233b2865" y="83.108174"/>
      </g>
     </g>
    </g>
    <g id="ytick_20">
     <g id="line2d_73">
      <g>
       <use style="stroke:#000000;stroke-width:0.48;" x="25.91875" xlink:href="#m1a233b2865" y="73.054262"/>
      </g>
     </g>
    </g>
    <g id="ytick_21">
     <g id="line2d_74">
      <g>
       <use style="stroke:#000000;stroke-width:0.48;" x="25.91875" xlink:href="#m1a233b2865" y="68.027307"/>
      </g>
     </g>
    </g>
    <g id="ytick_22">
     <g id="line2d_75">
      <g>
       <use style="stroke:#000000;stroke-width:0.48;" x="25.91875" xlink:href="#m1a233b2865" y="63.000351"/>
      </g>
     </g>
    </g>
    <g id="ytick_23">
     <g id="line2d_76">
      <g>
       <use style="stroke:#000000;stroke-width:0.48;" x="25.91875" xlink:href="#m1a233b2865" y="57.973395"/>
      </g>
     </g>
    </g>
    <g id="ytick_24">
     <g id="line2d_77">
      <g>
       <use style="stroke:#000000;stroke-width:0.48;" x="25.91875" xlink:href="#m1a233b2865" y="47.919484"/>
      </g>
     </g>
    </g>
    <g id="ytick_25">
     <g id="line2d_78">
      <g>
       <use style="stroke:#000000;stroke-width:0.48;" x="25.91875" xlink:href="#m1a233b2865" y="42.892529"/>
      </g>
     </g>
    </g>
    <g id="ytick_26">
     <g id="line2d_79">
      <g>
       <use style="stroke:#000000;stroke-width:0.48;" x="25.91875" xlink:href="#m1a233b2865" y="37.865573"/>
      </g>
     </g>
    </g>
    <g id="ytick_27">
     <g id="line2d_80">
      <g>
       <use style="stroke:#000000;stroke-width:0.48;" x="25.91875" xlink:href="#m1a233b2865" y="32.838617"/>
      </g>
     </g>
    </g>
    <g id="ytick_28">
     <g id="line2d_81">
      <g>
       <use style="stroke:#000000;stroke-width:0.48;" x="25.91875" xlink:href="#m1a233b2865" y="22.784706"/>
      </g>
     </g>
    </g>
    <g id="ytick_29">
     <g id="line2d_82">
      <g>
       <use style="stroke:#000000;stroke-width:0.48;" x="25.91875" xlink:href="#m1a233b2865" y="17.75775"/>
      </g>
     </g>
    </g>
   </g>
   <g id="line2d_83">
    <path clip-path="url(#pe94bea7d67)" d="M 25.91875 81.191706 
L 37.287171 94.882118 
L 48.655592 89.121757 
L 60.024013 87.713622 
L 71.392434 76.546143 
L 82.760855 78.559782 
L 94.129276 84.931218 
L 105.497697 60.191068 
L 116.866118 64.385111 
L 128.234539 54.061617 
L 139.602961 39.700812 
L 150.971382 50.715498 
L 162.339803 48.483928 
L 173.708224 67.332816 
L 185.076645 66.048524 
L 196.445066 73.208512 
L 207.813487 93.041782 
L 219.181908 83.803463 
L 230.550329 81.54673 
L 241.91875 64.302026 
" style="fill:none;stroke:#000000;stroke-dasharray:3,1.5;stroke-dashoffset:0;stroke-width:3;"/>
   </g>
   <g id="line2d_84">
    <path clip-path="url(#pe94bea7d67)" d="M 25.91875 89.646478 
L 37.287171 86.223237 
L 48.655592 107.986136 
L 60.024013 112.650522 
L 71.392434 109.92795 
L 82.760855 92.43468 
L 94.129276 108.125451 
L 105.497697 90.06506 
L 116.866118 91.482214 
L 128.234539 101.738877 
L 139.602961 107.963358 
L 150.971382 96.005416 
L 162.339803 111.229718 
L 173.708224 88.766345 
L 185.076645 72.776836 
L 196.445066 78.85562 
L 207.813487 56.613024 
L 219.181908 39.612954 
L 230.550329 14.61125 
L 241.91875 36.915474 
" style="fill:none;stroke:#000000;stroke-dasharray:3,4.5;stroke-dashoffset:0;stroke-width:3;"/>
   </g>
   <g id="line2d_85">
    <path clip-path="url(#pe94bea7d67)" d="M 25.91875 58.326068 
L 37.287171 52.064147 
L 48.655592 64.075223 
L 60.024013 53.935159 
L 71.392434 69.255941 
L 82.760855 64.705243 
L 94.129276 52.995987 
L 105.497697 64.294296 
L 116.866118 64.896018 
L 128.234539 69.191681 
L 139.602961 88.820377 
L 150.971382 78.675052 
L 162.339803 88.142814 
L 173.708224 110.653228 
L 185.076645 89.584221 
L 196.445066 92.405378 
L 207.813487 85.015497 
L 219.181908 86.678887 
L 230.550329 93.094476 
L 241.91875 90.125925 
" style="fill:none;stroke:#000000;stroke-dasharray:9,1.5;stroke-dashoffset:0;stroke-width:3;"/>
   </g>
   <g id="line2d_86">
    <path clip-path="url(#pe94bea7d67)" d="M 25.91875 80.980467 
L 37.287171 98.561928 
L 48.655592 117.884964 
L 60.024013 100.225897 
L 71.392434 113.070099 
L 82.760855 103.047463 
L 94.129276 109.042572 
L 105.497697 89.010274 
L 116.866118 113.710802 
L 128.234539 113.018134 
L 139.602961 123.433852 
L 150.971382 116.604598 
L 162.339803 141.224424 
L 173.708224 149.59385 
L 185.076645 151.686432 
L 196.445066 139.10005 
L 207.813487 145.969553 
L 219.181908 153.909108 
L 230.550329 139.63439 
L 241.91875 158.61125 
" style="fill:none;stroke:#000000;stroke-dasharray:9,4.5;stroke-dashoffset:0;stroke-width:3;"/>
   </g>
   <g id="patch_3">
    <path d="M 25.91875 158.61125 
L 25.91875 14.61125 
" style="fill:none;stroke:#000000;stroke-linecap:square;stroke-linejoin:miter;stroke-width:0.6;"/>
   </g>
   <g id="patch_4">
    <path d="M 241.91875 158.61125 
L 241.91875 14.61125 
" style="fill:none;stroke:#000000;stroke-linecap:square;stroke-linejoin:miter;stroke-width:0.6;"/>
   </g>
   <g id="patch_5">
    <path d="M 25.91875 158.61125 
L 241.91875 158.61125 
" style="fill:none;stroke:#000000;stroke-linecap:square;stroke-linejoin:miter;stroke-width:0.6;"/>
   </g>
   <g id="patch_6">
    <path d="M 25.91875 14.61125 
L 241.91875 14.61125 
" style="fill:none;stroke:#000000;stroke-linecap:square;stroke-linejoin:miter;stroke-width:0.6;"/>
   </g>
   <g id="legend_1">
    <g id="patch_7">
     <path d="M 25.91875 52.4775 
L 106.95875 52.4775 
L 106.95875 14.61125 
L 25.91875 14.61125 
z
" style="fill:#ffffff;opacity:0.8;stroke:#000000;stroke-linejoin:miter;stroke-width:0.6;"/>
    </g>
    <g id="text_15">
     <!-- label -->
     <defs>
      <path d="M 6.90625 71.40625 
L 6.90625 0 
L 15.40625 0 
L 15.40625 71.40625 
z
" id="HelveticaNeue-108"/>
      <path d="M 52.203125 0.203125 
Q 50 -1.09375 46.09375 -1.09375 
Q 42.796875 -1.09375 40.84375 0.75 
Q 38.90625 2.59375 38.90625 6.796875 
Q 35.40625 2.59375 30.75 0.75 
Q 26.09375 -1.09375 20.703125 -1.09375 
Q 17.203125 -1.09375 14.046875 -0.296875 
Q 10.90625 0.5 8.59375 2.203125 
Q 6.296875 3.90625 4.9375 6.65625 
Q 3.59375 9.40625 3.59375 13.296875 
Q 3.59375 17.703125 5.09375 20.5 
Q 6.59375 23.296875 9.046875 25.046875 
Q 11.5 26.796875 14.640625 27.6875 
Q 17.796875 28.59375 21.09375 29.203125 
Q 24.59375 29.90625 27.75 30.25 
Q 30.90625 30.59375 33.296875 31.25 
Q 35.703125 31.90625 37.09375 33.15625 
Q 38.5 34.40625 38.5 36.796875 
Q 38.5 39.59375 37.453125 41.296875 
Q 36.40625 43 34.75 43.890625 
Q 33.09375 44.796875 31.046875 45.09375 
Q 29 45.40625 27 45.40625 
Q 21.59375 45.40625 18 43.34375 
Q 14.40625 41.296875 14.09375 35.59375 
L 5.59375 35.59375 
Q 5.796875 40.40625 7.59375 43.703125 
Q 9.40625 47 12.40625 49.046875 
Q 15.40625 51.09375 19.25 52 
Q 23.09375 52.90625 27.5 52.90625 
Q 31 52.90625 34.453125 52.40625 
Q 37.90625 51.90625 40.703125 50.34375 
Q 43.5 48.796875 45.203125 46 
Q 46.90625 43.203125 46.90625 38.703125 
L 46.90625 12.09375 
Q 46.90625 9.09375 47.25 7.6875 
Q 47.59375 6.296875 49.59375 6.296875 
Q 50.703125 6.296875 52.203125 6.796875 
z
M 38.40625 26.703125 
Q 36.796875 25.5 34.1875 24.953125 
Q 31.59375 24.40625 28.75 24.046875 
Q 25.90625 23.703125 23 23.25 
Q 20.09375 22.796875 17.796875 21.796875 
Q 15.5 20.796875 14.046875 18.9375 
Q 12.59375 17.09375 12.59375 13.90625 
Q 12.59375 11.796875 13.4375 10.34375 
Q 14.296875 8.90625 15.640625 8 
Q 17 7.09375 18.796875 6.6875 
Q 20.59375 6.296875 22.59375 6.296875 
Q 26.796875 6.296875 29.796875 7.4375 
Q 32.796875 8.59375 34.6875 10.34375 
Q 36.59375 12.09375 37.5 14.140625 
Q 38.40625 16.203125 38.40625 18 
z
" id="HelveticaNeue-97"/>
      <path d="M 6.703125 71.40625 
L 6.703125 0 
L 15.203125 0 
L 15.203125 6.90625 
L 15.40625 6.90625 
Q 16.796875 4.59375 18.84375 3.046875 
Q 20.90625 1.5 23.203125 0.59375 
Q 25.5 -0.296875 27.84375 -0.6875 
Q 30.203125 -1.09375 32.09375 -1.09375 
Q 38 -1.09375 42.453125 1 
Q 46.90625 3.09375 49.84375 6.75 
Q 52.796875 10.40625 54.25 15.296875 
Q 55.703125 20.203125 55.703125 25.703125 
Q 55.703125 31.203125 54.203125 36.09375 
Q 52.703125 41 49.75 44.75 
Q 46.796875 48.5 42.34375 50.703125 
Q 37.90625 52.90625 31.90625 52.90625 
Q 26.5 52.90625 22 50.953125 
Q 17.5 49 15.40625 44.703125 
L 15.203125 44.703125 
L 15.203125 71.40625 
z
M 46.703125 26.296875 
Q 46.703125 22.5 45.890625 18.890625 
Q 45.09375 15.296875 43.296875 12.5 
Q 41.5 9.703125 38.546875 8 
Q 35.59375 6.296875 31.203125 6.296875 
Q 26.796875 6.296875 23.6875 7.9375 
Q 20.59375 9.59375 18.640625 12.296875 
Q 16.703125 15 15.796875 18.546875 
Q 14.90625 22.09375 14.90625 25.90625 
Q 14.90625 29.5 15.75 33 
Q 16.59375 36.5 18.5 39.25 
Q 20.40625 42 23.40625 43.703125 
Q 26.40625 45.40625 30.703125 45.40625 
Q 34.796875 45.40625 37.84375 43.796875 
Q 40.90625 42.203125 42.84375 39.5 
Q 44.796875 36.796875 45.75 33.34375 
Q 46.703125 29.90625 46.703125 26.296875 
z
" id="HelveticaNeue-98"/>
      <path d="M 42.296875 30.796875 
L 12.59375 30.796875 
Q 12.796875 33.796875 13.890625 36.4375 
Q 15 39.09375 16.890625 41.09375 
Q 18.796875 43.09375 21.4375 44.25 
Q 24.09375 45.40625 27.40625 45.40625 
Q 30.59375 45.40625 33.25 44.25 
Q 35.90625 43.09375 37.84375 41.140625 
Q 39.796875 39.203125 40.9375 36.5 
Q 42.09375 33.796875 42.296875 30.796875 
z
M 50.5 16.40625 
L 42.09375 16.40625 
Q 41 11.296875 37.546875 8.796875 
Q 34.09375 6.296875 28.703125 6.296875 
Q 24.5 6.296875 21.390625 7.6875 
Q 18.296875 9.09375 16.296875 11.4375 
Q 14.296875 13.796875 13.390625 16.84375 
Q 12.5 19.90625 12.59375 23.296875 
L 51.296875 23.296875 
Q 51.5 28 50.453125 33.203125 
Q 49.40625 38.40625 46.65625 42.796875 
Q 43.90625 47.203125 39.34375 50.046875 
Q 34.796875 52.90625 27.90625 52.90625 
Q 22.59375 52.90625 18.140625 50.90625 
Q 13.703125 48.90625 10.453125 45.296875 
Q 7.203125 41.703125 5.390625 36.796875 
Q 3.59375 31.90625 3.59375 26 
Q 3.796875 20.09375 5.34375 15.09375 
Q 6.90625 10.09375 10 6.5 
Q 13.09375 2.90625 17.640625 0.90625 
Q 22.203125 -1.09375 28.40625 -1.09375 
Q 37.203125 -1.09375 43 3.296875 
Q 48.796875 7.703125 50.5 16.40625 
z
" id="HelveticaNeue-101"/>
     </defs>
     <g transform="translate(57.994375 24.32375)scale(0.08 -0.08)">
      <use xlink:href="#HelveticaNeue-108"/>
      <use x="22.199997" xlink:href="#HelveticaNeue-97"/>
      <use x="75.899994" xlink:href="#HelveticaNeue-98"/>
      <use x="135.199982" xlink:href="#HelveticaNeue-101"/>
      <use x="188.899979" xlink:href="#HelveticaNeue-108"/>
     </g>
    </g>
    <g id="line2d_87">
     <path d="M 29.91875 32.8125 
L 53.91875 32.8125 
" style="fill:none;stroke:#000000;stroke-dasharray:3,1.5;stroke-dashoffset:0;stroke-width:3;"/>
    </g>
    <g id="line2d_88"/>
    <g id="text_16">
     <!-- a -->
     <g transform="translate(57.91875 35.6125)scale(0.08 -0.08)">
      <use xlink:href="#HelveticaNeue-97"/>
     </g>
    </g>
    <g id="line2d_89">
     <path d="M 29.91875 44.10125 
L 53.91875 44.10125 
" style="fill:none;stroke:#000000;stroke-dasharray:9,1.5;stroke-dashoffset:0;stroke-width:3;"/>
    </g>
    <g id="line2d_90"/>
    <g id="text_17">
     <!-- c -->
     <defs>
      <path d="M 41.5 35.09375 
L 50.296875 35.09375 
Q 49.796875 39.703125 47.890625 43.046875 
Q 46 46.40625 43.046875 48.59375 
Q 40.09375 50.796875 36.25 51.84375 
Q 32.40625 52.90625 28 52.90625 
Q 21.90625 52.90625 17.296875 50.75 
Q 12.703125 48.59375 9.640625 44.84375 
Q 6.59375 41.09375 5.09375 36.046875 
Q 3.59375 31 3.59375 25.203125 
Q 3.59375 19.40625 5.140625 14.546875 
Q 6.703125 9.703125 9.75 6.203125 
Q 12.796875 2.703125 17.34375 0.796875 
Q 21.90625 -1.09375 27.796875 -1.09375 
Q 37.703125 -1.09375 43.453125 4.09375 
Q 49.203125 9.296875 50.59375 18.90625 
L 41.90625 18.90625 
Q 41.09375 12.90625 37.546875 9.59375 
Q 34 6.296875 27.703125 6.296875 
Q 23.703125 6.296875 20.796875 7.890625 
Q 17.90625 9.5 16.09375 12.140625 
Q 14.296875 14.796875 13.4375 18.1875 
Q 12.59375 21.59375 12.59375 25.203125 
Q 12.59375 29.09375 13.390625 32.75 
Q 14.203125 36.40625 16.046875 39.203125 
Q 17.90625 42 21 43.703125 
Q 24.09375 45.40625 28.703125 45.40625 
Q 34.09375 45.40625 37.296875 42.703125 
Q 40.5 40 41.5 35.09375 
z
" id="HelveticaNeue-99"/>
     </defs>
     <g transform="translate(57.91875 46.90125)scale(0.08 -0.08)">
      <use xlink:href="#HelveticaNeue-99"/>
     </g>
    </g>
    <g id="line2d_91">
     <path d="M 70.215 32.8125 
L 94.215 32.8125 
" style="fill:none;stroke:#000000;stroke-dasharray:3,4.5;stroke-dashoffset:0;stroke-width:3;"/>
    </g>
    <g id="line2d_92"/>
    <g id="text_18">
     <!-- b -->
     <g transform="translate(98.215 35.6125)scale(0.08 -0.08)">
      <use xlink:href="#HelveticaNeue-98"/>
     </g>
    </g>
    <g id="line2d_93">
     <path d="M 70.215 44.10125 
L 94.215 44.10125 
" style="fill:none;stroke:#000000;stroke-dasharray:9,4.5;stroke-dashoffset:0;stroke-width:3;"/>
    </g>
    <g id="line2d_94"/>
    <g id="text_19">
     <!-- d -->
     <defs>
      <path d="M 12.59375 25.40625 
Q 12.59375 29.203125 13.390625 32.796875 
Q 14.203125 36.40625 16 39.203125 
Q 17.796875 42 20.796875 43.703125 
Q 23.796875 45.40625 28.09375 45.40625 
Q 32.5 45.40625 35.59375 43.75 
Q 38.703125 42.09375 40.640625 39.390625 
Q 42.59375 36.703125 43.5 33.140625 
Q 44.40625 29.59375 44.40625 25.796875 
Q 44.40625 22.203125 43.546875 18.703125 
Q 42.703125 15.203125 40.796875 12.453125 
Q 38.90625 9.703125 35.90625 8 
Q 32.90625 6.296875 28.59375 6.296875 
Q 24.5 6.296875 21.453125 7.890625 
Q 18.40625 9.5 16.453125 12.203125 
Q 14.5 14.90625 13.546875 18.34375 
Q 12.59375 21.796875 12.59375 25.40625 
z
M 52.59375 0 
L 52.59375 71.40625 
L 44.09375 71.40625 
L 44.09375 44.796875 
L 43.90625 44.796875 
Q 42.5 47.09375 40.453125 48.640625 
Q 38.40625 50.203125 36.09375 51.140625 
Q 33.796875 52.09375 31.5 52.5 
Q 29.203125 52.90625 27.203125 52.90625 
Q 21.296875 52.90625 16.84375 50.75 
Q 12.40625 48.59375 9.453125 44.9375 
Q 6.5 41.296875 5.046875 36.390625 
Q 3.59375 31.5 3.59375 26 
Q 3.59375 20.5 5.09375 15.59375 
Q 6.59375 10.703125 9.546875 7 
Q 12.5 3.296875 16.953125 1.09375 
Q 21.40625 -1.09375 27.40625 -1.09375 
Q 32.796875 -1.09375 37.296875 0.796875 
Q 41.796875 2.703125 43.90625 7 
L 44.09375 7 
L 44.09375 0 
z
" id="HelveticaNeue-100"/>
     </defs>
     <g transform="translate(98.215 46.90125)scale(0.08 -0.08)">
      <use xlink:href="#HelveticaNeue-100"/>
     </g>
    </g>
   </g>
  </g>
  <g id="text_20">
   <!-- Plot without color cycle -->
   <defs>
    <path d="M 22.59375 37.796875 
L 22.59375 59.203125 
L 34.796875 59.203125 
Q 37.5 59.203125 40 58.796875 
Q 42.5 58.40625 44.390625 57.25 
Q 46.296875 56.09375 47.4375 54 
Q 48.59375 51.90625 48.59375 48.5 
Q 48.59375 45.09375 47.4375 43 
Q 46.296875 40.90625 44.390625 39.75 
Q 42.5 38.59375 40 38.1875 
Q 37.5 37.796875 34.796875 37.796875 
z
M 6.90625 71.40625 
L 6.90625 0 
L 22.59375 0 
L 22.59375 25.59375 
L 39.09375 25.59375 
Q 45.796875 25.59375 50.5 27.546875 
Q 55.203125 29.5 58.140625 32.703125 
Q 61.09375 35.90625 62.4375 40.046875 
Q 63.796875 44.203125 63.796875 48.5 
Q 63.796875 52.90625 62.4375 57 
Q 61.09375 61.09375 58.140625 64.296875 
Q 55.203125 67.5 50.5 69.453125 
Q 45.796875 71.40625 39.09375 71.40625 
z
" id="HelveticaNeue-Bold-80"/>
    <path d="M 5.796875 71.40625 
L 5.796875 0 
L 20 0 
L 20 71.40625 
z
" id="HelveticaNeue-Bold-108"/>
    <path d="M 18 25.796875 
Q 18 28.90625 18.59375 31.90625 
Q 19.203125 34.90625 20.640625 37.203125 
Q 22.09375 39.5 24.5 40.953125 
Q 26.90625 42.40625 30.5 42.40625 
Q 34.09375 42.40625 36.546875 40.953125 
Q 39 39.5 40.453125 37.203125 
Q 41.90625 34.90625 42.5 31.90625 
Q 43.09375 28.90625 43.09375 25.796875 
Q 43.09375 22.703125 42.5 19.75 
Q 41.90625 16.796875 40.453125 14.4375 
Q 39 12.09375 36.546875 10.6875 
Q 34.09375 9.296875 30.5 9.296875 
Q 26.90625 9.296875 24.5 10.6875 
Q 22.09375 12.09375 20.640625 14.4375 
Q 19.203125 16.796875 18.59375 19.75 
Q 18 22.703125 18 25.796875 
z
M 3.796875 25.796875 
Q 3.796875 19.59375 5.6875 14.59375 
Q 7.59375 9.59375 11.09375 6.046875 
Q 14.59375 2.5 19.5 0.59375 
Q 24.40625 -1.296875 30.5 -1.296875 
Q 36.59375 -1.296875 41.546875 0.59375 
Q 46.5 2.5 50 6.046875 
Q 53.5 9.59375 55.390625 14.59375 
Q 57.296875 19.59375 57.296875 25.796875 
Q 57.296875 32 55.390625 37.046875 
Q 53.5 42.09375 50 45.640625 
Q 46.5 49.203125 41.546875 51.140625 
Q 36.59375 53.09375 30.5 53.09375 
Q 24.40625 53.09375 19.5 51.140625 
Q 14.59375 49.203125 11.09375 45.640625 
Q 7.59375 42.09375 5.6875 37.046875 
Q 3.796875 32 3.796875 25.796875 
z
" id="HelveticaNeue-Bold-111"/>
    <path d="M 23.40625 51.703125 
L 23.40625 67.203125 
L 9.203125 67.203125 
L 9.203125 51.703125 
L 0.59375 51.703125 
L 0.59375 42.203125 
L 9.203125 42.203125 
L 9.203125 11.703125 
Q 9.203125 7.796875 10.5 5.390625 
Q 11.796875 3 14.046875 1.703125 
Q 16.296875 0.40625 19.25 -0.046875 
Q 22.203125 -0.5 25.5 -0.5 
Q 27.59375 -0.5 29.796875 -0.390625 
Q 32 -0.296875 33.796875 0 
L 33.796875 11 
Q 32.796875 10.796875 31.6875 10.6875 
Q 30.59375 10.59375 29.40625 10.59375 
Q 25.796875 10.59375 24.59375 11.796875 
Q 23.40625 13 23.40625 16.59375 
L 23.40625 42.203125 
L 33.796875 42.203125 
L 33.796875 51.703125 
z
" id="HelveticaNeue-Bold-116"/>
    <path id="HelveticaNeue-Bold-32"/>
    <path d="M 64.5 0 
L 80.796875 51.703125 
L 66.203125 51.703125 
L 56.703125 16.703125 
L 56.5 16.703125 
L 47.703125 51.703125 
L 33.90625 51.703125 
L 25.296875 16.59375 
L 25.09375 16.59375 
L 15.59375 51.703125 
L 0.59375 51.703125 
L 17 0 
L 31.703125 0 
L 40.5 34.703125 
L 40.703125 34.703125 
L 49.90625 0 
z
" id="HelveticaNeue-Bold-119"/>
    <path d="M 20 59.703125 
L 20 71.40625 
L 5.796875 71.40625 
L 5.796875 59.703125 
z
M 5.796875 51.703125 
L 5.796875 0 
L 20 0 
L 20 51.703125 
z
" id="HelveticaNeue-Bold-105"/>
    <path d="M 5.40625 71.40625 
L 5.40625 0 
L 19.59375 0 
L 19.59375 27.09375 
Q 19.59375 35 22.1875 38.453125 
Q 24.796875 41.90625 30.59375 41.90625 
Q 35.703125 41.90625 37.703125 38.75 
Q 39.703125 35.59375 39.703125 29.203125 
L 39.703125 0 
L 53.90625 0 
L 53.90625 31.796875 
Q 53.90625 36.59375 53.046875 40.546875 
Q 52.203125 44.5 50.09375 47.25 
Q 48 50 44.34375 51.546875 
Q 40.703125 53.09375 35 53.09375 
Q 31 53.09375 26.796875 51.046875 
Q 22.59375 49 19.90625 44.5 
L 19.59375 44.5 
L 19.59375 71.40625 
z
" id="HelveticaNeue-Bold-104"/>
    <path d="M 53.90625 0 
L 53.90625 51.703125 
L 39.703125 51.703125 
L 39.703125 24.59375 
Q 39.703125 16.703125 37.09375 13.25 
Q 34.5 9.796875 28.703125 9.796875 
Q 23.59375 9.796875 21.59375 12.9375 
Q 19.59375 16.09375 19.59375 22.5 
L 19.59375 51.703125 
L 5.40625 51.703125 
L 5.40625 19.90625 
Q 5.40625 15.09375 6.25 11.140625 
Q 7.09375 7.203125 9.1875 4.453125 
Q 11.296875 1.703125 14.9375 0.203125 
Q 18.59375 -1.296875 24.296875 -1.296875 
Q 28.796875 -1.296875 33.09375 0.703125 
Q 37.40625 2.703125 40.09375 7.203125 
L 40.40625 7.203125 
L 40.40625 0 
z
" id="HelveticaNeue-Bold-117"/>
    <path d="M 40.59375 33.5 
L 54.5 33.5 
Q 54.203125 38.5 52.09375 42.140625 
Q 50 45.796875 46.640625 48.25 
Q 43.296875 50.703125 39.046875 51.890625 
Q 34.796875 53.09375 30.203125 53.09375 
Q 23.90625 53.09375 19 51 
Q 14.09375 48.90625 10.6875 45.15625 
Q 7.296875 41.40625 5.546875 36.25 
Q 3.796875 31.09375 3.796875 25.09375 
Q 3.796875 19.296875 5.6875 14.4375 
Q 7.59375 9.59375 11 6.09375 
Q 14.40625 2.59375 19.25 0.640625 
Q 24.09375 -1.296875 29.90625 -1.296875 
Q 40.203125 -1.296875 46.796875 4.09375 
Q 53.40625 9.5 54.796875 19.796875 
L 41.09375 19.796875 
Q 40.40625 15 37.65625 12.140625 
Q 34.90625 9.296875 29.796875 9.296875 
Q 26.5 9.296875 24.203125 10.796875 
Q 21.90625 12.296875 20.546875 14.640625 
Q 19.203125 17 18.59375 19.890625 
Q 18 22.796875 18 25.59375 
Q 18 28.5 18.59375 31.453125 
Q 19.203125 34.40625 20.640625 36.84375 
Q 22.09375 39.296875 24.390625 40.84375 
Q 26.703125 42.40625 30.09375 42.40625 
Q 39.203125 42.40625 40.59375 33.5 
z
" id="HelveticaNeue-Bold-99"/>
    <path d="M 5.40625 51.703125 
L 5.40625 0 
L 19.59375 0 
L 19.59375 23.296875 
Q 19.59375 26.796875 20.296875 29.796875 
Q 21 32.796875 22.640625 35.046875 
Q 24.296875 37.296875 27 38.59375 
Q 29.703125 39.90625 33.59375 39.90625 
Q 34.90625 39.90625 36.296875 39.75 
Q 37.703125 39.59375 38.703125 39.40625 
L 38.703125 52.59375 
Q 37 53.09375 35.59375 53.09375 
Q 32.90625 53.09375 30.40625 52.296875 
Q 27.90625 51.5 25.703125 50.046875 
Q 23.5 48.59375 21.796875 46.546875 
Q 20.09375 44.5 19.09375 42.09375 
L 18.90625 42.09375 
L 18.90625 51.703125 
z
" id="HelveticaNeue-Bold-114"/>
    <path d="M 30.90625 -6.40625 
L 52.5 51.703125 
L 37.796875 51.703125 
L 26.5 16.296875 
L 26.296875 16.296875 
L 14.59375 51.703125 
L -0.5 51.703125 
L 17.59375 3.203125 
Q 18.203125 1.703125 18.203125 0 
Q 18.203125 -2.296875 16.84375 -4.1875 
Q 15.5 -6.09375 12.703125 -6.40625 
Q 10.59375 -6.5 8.5 -6.296875 
Q 6.40625 -6.09375 4.40625 -5.90625 
L 4.40625 -17.59375 
Q 6.59375 -17.796875 8.75 -17.9375 
Q 10.90625 -18.09375 13.09375 -18.09375 
Q 20.40625 -18.09375 24.5 -15.390625 
Q 28.59375 -12.703125 30.90625 -6.40625 
z
" id="HelveticaNeue-Bold-121"/>
    <path d="M 40.203125 31.40625 
L 17.09375 31.40625 
Q 17.203125 32.90625 17.75 34.796875 
Q 18.296875 36.703125 19.640625 38.390625 
Q 21 40.09375 23.25 41.25 
Q 25.5 42.40625 28.90625 42.40625 
Q 34.09375 42.40625 36.640625 39.59375 
Q 39.203125 36.796875 40.203125 31.40625 
z
M 17.09375 22.40625 
L 54.40625 22.40625 
Q 54.796875 28.40625 53.390625 33.90625 
Q 52 39.40625 48.84375 43.703125 
Q 45.703125 48 40.796875 50.546875 
Q 35.90625 53.09375 29.296875 53.09375 
Q 23.40625 53.09375 18.546875 51 
Q 13.703125 48.90625 10.203125 45.25 
Q 6.703125 41.59375 4.796875 36.59375 
Q 2.90625 31.59375 2.90625 25.796875 
Q 2.90625 19.796875 4.75 14.796875 
Q 6.59375 9.796875 10 6.1875 
Q 13.40625 2.59375 18.296875 0.640625 
Q 23.203125 -1.296875 29.296875 -1.296875 
Q 38.09375 -1.296875 44.296875 2.703125 
Q 50.5 6.703125 53.5 16 
L 41 16 
Q 40.296875 13.59375 37.1875 11.4375 
Q 34.09375 9.296875 29.796875 9.296875 
Q 23.796875 9.296875 20.59375 12.390625 
Q 17.40625 15.5 17.09375 22.40625 
z
" id="HelveticaNeue-Bold-101"/>
   </defs>
   <g transform="translate(83.434596 10.237619)scale(0.09 -0.09)">
    <use xlink:href="#HelveticaNeue-Bold-80"/>
    <use x="66.699997" xlink:href="#HelveticaNeue-Bold-108"/>
    <use x="92.499985" xlink:href="#HelveticaNeue-Bold-111"/>
    <use x="153.599976" xlink:href="#HelveticaNeue-Bold-116"/>
    <use x="188.799973" xlink:href="#HelveticaNeue-Bold-32"/>
    <use x="216.59996" xlink:href="#HelveticaNeue-Bold-119"/>
    <use x="297.999954" xlink:href="#HelveticaNeue-Bold-105"/>
    <use x="323.799942" xlink:href="#HelveticaNeue-Bold-116"/>
    <use x="358.999939" xlink:href="#HelveticaNeue-Bold-104"/>
    <use x="418.299927" xlink:href="#HelveticaNeue-Bold-111"/>
    <use x="479.399918" xlink:href="#HelveticaNeue-Bold-117"/>
    <use x="538.699905" xlink:href="#HelveticaNeue-Bold-116"/>
    <use x="573.899902" xlink:href="#HelveticaNeue-Bold-32"/>
    <use x="601.69989" xlink:href="#HelveticaNeue-Bold-99"/>
    <use x="659.099884" xlink:href="#HelveticaNeue-Bold-111"/>
    <use x="720.199875" xlink:href="#HelveticaNeue-Bold-108"/>
    <use x="745.999863" xlink:href="#HelveticaNeue-Bold-111"/>
    <use x="807.099854" xlink:href="#HelveticaNeue-Bold-114"/>
    <use x="845.999847" xlink:href="#HelveticaNeue-Bold-32"/>
    <use x="873.799835" xlink:href="#HelveticaNeue-Bold-99"/>
    <use x="931.199829" xlink:href="#HelveticaNeue-Bold-121"/>
    <use x="983.099823" xlink:href="#HelveticaNeue-Bold-99"/>
    <use x="1040.499817" xlink:href="#HelveticaNeue-Bold-108"/>
    <use x="1066.299805" xlink:href="#HelveticaNeue-Bold-101"/>
   </g>
  </g>
 </g>
 <defs>
  <clipPath id="pe94bea7d67">
   <rect height="144" width="216" x="25.91875" y="14.61125"/>
  </clipPath>
 </defs>
</svg>
