<?xml version="1.0" encoding="utf-8" standalone="no"?>
<!DOCTYPE svg PUBLIC "-//W3C//DTD SVG 1.1//EN"
  "http://www.w3.org/Graphics/SVG/1.1/DTD/svg11.dtd">
<!-- Created with matplotlib (https://matplotlib.org/) -->
<svg height="155.9052pt" version="1.1" viewBox="0 0 340.1568 155.9052" width="340.1568pt" xmlns="http://www.w3.org/2000/svg" xmlns:xlink="http://www.w3.org/1999/xlink">
 <defs>
  <style type="text/css">
*{stroke-linecap:butt;stroke-linejoin:round;}
  </style>
 </defs>
 <g id="figure_1">
  <g id="patch_1">
   <path d="M 0 155.9052 
L 340.1568 155.9052 
L 340.1568 0 
L 0 0 
z
" style="fill:#f2f2f2;"/>
  </g>
  <g id="axes_1">
   <g id="patch_2">
    <path d="M 35.185 125.4122 
L 124.619433 125.4122 
L 124.619433 21.93625 
L 35.185 21.93625 
z
" style="fill:#ffffff;"/>
   </g>
   <g id="matplotlib.axis_1">
    <g id="xtick_1">
     <g id="line2d_1">
      <path clip-path="url(#pdeb17e5b45)" d="M 35.185 125.4122 
L 35.185 21.93625 
" style="fill:none;stroke:#000000;stroke-linecap:square;stroke-opacity:0.1;stroke-width:0.6;"/>
     </g>
     <g id="line2d_2">
      <defs>
       <path d="M 0 0 
L 0 4 
" id="m18528d32a9" style="stroke:#000000;stroke-width:1.41732;"/>
      </defs>
      <g>
       <use style="stroke:#000000;stroke-width:1.41732;" x="35.185" xlink:href="#m18528d32a9" y="125.4122"/>
      </g>
     </g>
     <g id="text_1">
      <!-- 0 -->
      <defs>
       <path d="M 13.203125 34.90625 
Q 13.203125 37.5 13.25 40.640625 
Q 13.296875 43.796875 13.75 46.9375 
Q 14.203125 50.09375 15.046875 53.09375 
Q 15.90625 56.09375 17.546875 58.34375 
Q 19.203125 60.59375 21.703125 62 
Q 24.203125 63.40625 27.796875 63.40625 
Q 31.40625 63.40625 33.90625 62 
Q 36.40625 60.59375 38.046875 58.34375 
Q 39.703125 56.09375 40.546875 53.09375 
Q 41.40625 50.09375 41.84375 46.9375 
Q 42.296875 43.796875 42.34375 40.640625 
Q 42.40625 37.5 42.40625 34.90625 
Q 42.40625 30.90625 42.15625 25.953125 
Q 41.90625 21 40.546875 16.640625 
Q 39.203125 12.296875 36.203125 9.296875 
Q 33.203125 6.296875 27.796875 6.296875 
Q 22.40625 6.296875 19.40625 9.296875 
Q 16.40625 12.296875 15.046875 16.640625 
Q 13.703125 21 13.453125 25.953125 
Q 13.203125 30.90625 13.203125 34.90625 
z
M 4.203125 34.796875 
Q 4.203125 30.90625 4.390625 26.703125 
Q 4.59375 22.5 5.390625 18.5 
Q 6.203125 14.5 7.703125 10.953125 
Q 9.203125 7.40625 11.796875 4.703125 
Q 14.40625 2 18.34375 0.453125 
Q 22.296875 -1.09375 27.796875 -1.09375 
Q 33.40625 -1.09375 37.296875 0.453125 
Q 41.203125 2 43.796875 4.703125 
Q 46.40625 7.40625 47.90625 10.953125 
Q 49.40625 14.5 50.203125 18.5 
Q 51 22.5 51.203125 26.703125 
Q 51.40625 30.90625 51.40625 34.796875 
Q 51.40625 38.703125 51.203125 42.890625 
Q 51 47.09375 50.203125 51.09375 
Q 49.40625 55.09375 47.90625 58.6875 
Q 46.40625 62.296875 43.796875 65 
Q 41.203125 67.703125 37.25 69.296875 
Q 33.296875 70.90625 27.796875 70.90625 
Q 22.296875 70.90625 18.34375 69.296875 
Q 14.40625 67.703125 11.796875 65 
Q 9.203125 62.296875 7.703125 58.6875 
Q 6.203125 55.09375 5.390625 51.09375 
Q 4.59375 47.09375 4.390625 42.890625 
Q 4.203125 38.703125 4.203125 34.796875 
z
" id="HelveticaNeue-48"/>
      </defs>
      <g transform="translate(32.5165 138.2672)scale(0.096 -0.096)">
       <use xlink:href="#HelveticaNeue-48"/>
      </g>
     </g>
    </g>
    <g id="xtick_2">
     <g id="line2d_3">
      <path clip-path="url(#pdeb17e5b45)" d="M 79.902217 125.4122 
L 79.902217 21.93625 
" style="fill:none;stroke:#000000;stroke-linecap:square;stroke-opacity:0.1;stroke-width:0.6;"/>
     </g>
     <g id="line2d_4">
      <g>
       <use style="stroke:#000000;stroke-width:1.41732;" x="79.902217" xlink:href="#m18528d32a9" y="125.4122"/>
      </g>
     </g>
     <g id="text_2">
      <!-- 0.5 -->
      <defs>
       <path d="M 8.296875 11.09375 
L 8.296875 0 
L 19.40625 0 
L 19.40625 11.09375 
z
" id="HelveticaNeue-46"/>
       <path d="M 47 62.203125 
L 47 69.703125 
L 12 69.703125 
L 5.40625 32.90625 
L 12.703125 32.5 
Q 15.203125 35.5 18.453125 37.34375 
Q 21.703125 39.203125 25.90625 39.203125 
Q 29.5 39.203125 32.453125 38 
Q 35.40625 36.796875 37.5 34.640625 
Q 39.59375 32.5 40.75 29.546875 
Q 41.90625 26.59375 41.90625 23.09375 
Q 41.90625 18.90625 40.703125 15.75 
Q 39.5 12.59375 37.453125 10.5 
Q 35.40625 8.40625 32.65625 7.34375 
Q 29.90625 6.296875 26.90625 6.296875 
Q 23.703125 6.296875 21.046875 7.25 
Q 18.40625 8.203125 16.453125 9.953125 
Q 14.5 11.703125 13.34375 14.046875 
Q 12.203125 16.40625 12 19.09375 
L 3.5 19.09375 
Q 3.59375 14.296875 5.390625 10.5 
Q 7.203125 6.703125 10.296875 4.140625 
Q 13.40625 1.59375 17.453125 0.25 
Q 21.5 -1.09375 26.09375 -1.09375 
Q 32.296875 -1.09375 36.9375 0.84375 
Q 41.59375 2.796875 44.6875 6.09375 
Q 47.796875 9.40625 49.34375 13.65625 
Q 50.90625 17.90625 50.90625 22.40625 
Q 50.90625 28.5 49.09375 33.046875 
Q 47.296875 37.59375 44.1875 40.640625 
Q 41.09375 43.703125 36.890625 45.203125 
Q 32.703125 46.703125 28 46.703125 
Q 24.40625 46.703125 20.75 45.453125 
Q 17.09375 44.203125 14.796875 41.59375 
L 14.59375 41.796875 
L 18.40625 62.203125 
z
" id="HelveticaNeue-53"/>
      </defs>
      <g transform="translate(73.230967 138.2672)scale(0.096 -0.096)">
       <use xlink:href="#HelveticaNeue-48"/>
       <use x="55.599991" xlink:href="#HelveticaNeue-46"/>
       <use x="83.399979" xlink:href="#HelveticaNeue-53"/>
      </g>
     </g>
    </g>
    <g id="xtick_3">
     <g id="line2d_5">
      <path clip-path="url(#pdeb17e5b45)" d="M 124.619433 125.4122 
L 124.619433 21.93625 
" style="fill:none;stroke:#000000;stroke-linecap:square;stroke-opacity:0.1;stroke-width:0.6;"/>
     </g>
     <g id="line2d_6">
      <g>
       <use style="stroke:#000000;stroke-width:1.41732;" x="124.619433" xlink:href="#m18528d32a9" y="125.4122"/>
      </g>
     </g>
     <g id="text_3">
      <!-- 1 -->
      <defs>
       <path d="M 35.59375 0 
L 35.59375 70.90625 
L 29.09375 70.90625 
Q 28.40625 66.90625 26.5 64.296875 
Q 24.59375 61.703125 21.84375 60.203125 
Q 19.09375 58.703125 15.6875 58.140625 
Q 12.296875 57.59375 8.703125 57.59375 
L 8.703125 50.796875 
L 27.09375 50.796875 
L 27.09375 0 
z
" id="HelveticaNeue-49"/>
      </defs>
      <g transform="translate(121.950933 138.2672)scale(0.096 -0.096)">
       <use xlink:href="#HelveticaNeue-49"/>
      </g>
     </g>
    </g>
    <g id="xtick_4">
     <g id="line2d_7">
      <defs>
       <path d="M 0 0 
L 0 2 
" id="mfe78c5a0a8" style="stroke:#000000;stroke-width:1.133856;"/>
      </defs>
      <g>
       <use style="stroke:#000000;stroke-width:1.133856;" x="44.128443" xlink:href="#mfe78c5a0a8" y="125.4122"/>
      </g>
     </g>
    </g>
    <g id="xtick_5">
     <g id="line2d_8">
      <g>
       <use style="stroke:#000000;stroke-width:1.133856;" x="53.071887" xlink:href="#mfe78c5a0a8" y="125.4122"/>
      </g>
     </g>
    </g>
    <g id="xtick_6">
     <g id="line2d_9">
      <g>
       <use style="stroke:#000000;stroke-width:1.133856;" x="62.01533" xlink:href="#mfe78c5a0a8" y="125.4122"/>
      </g>
     </g>
    </g>
    <g id="xtick_7">
     <g id="line2d_10">
      <g>
       <use style="stroke:#000000;stroke-width:1.133856;" x="70.958773" xlink:href="#mfe78c5a0a8" y="125.4122"/>
      </g>
     </g>
    </g>
    <g id="xtick_8">
     <g id="line2d_11">
      <g>
       <use style="stroke:#000000;stroke-width:1.133856;" x="88.84566" xlink:href="#mfe78c5a0a8" y="125.4122"/>
      </g>
     </g>
    </g>
    <g id="xtick_9">
     <g id="line2d_12">
      <g>
       <use style="stroke:#000000;stroke-width:1.133856;" x="97.789103" xlink:href="#mfe78c5a0a8" y="125.4122"/>
      </g>
     </g>
    </g>
    <g id="xtick_10">
     <g id="line2d_13">
      <g>
       <use style="stroke:#000000;stroke-width:1.133856;" x="106.732547" xlink:href="#mfe78c5a0a8" y="125.4122"/>
      </g>
     </g>
    </g>
    <g id="xtick_11">
     <g id="line2d_14">
      <g>
       <use style="stroke:#000000;stroke-width:1.133856;" x="115.67599" xlink:href="#mfe78c5a0a8" y="125.4122"/>
      </g>
     </g>
    </g>
   </g>
   <g id="matplotlib.axis_2">
    <g id="ytick_1">
     <g id="line2d_15">
      <path clip-path="url(#pdeb17e5b45)" d="M 35.185 125.4122 
L 124.619433 125.4122 
" style="fill:none;stroke:#000000;stroke-linecap:square;stroke-opacity:0.1;stroke-width:0.6;"/>
     </g>
     <g id="line2d_16">
      <defs>
       <path d="M 0 0 
L -4 0 
" id="m437b28441a" style="stroke:#000000;stroke-width:1.41732;"/>
      </defs>
      <g>
       <use style="stroke:#000000;stroke-width:1.41732;" x="35.185" xlink:href="#m437b28441a" y="125.4122"/>
      </g>
     </g>
     <g id="text_4">
      <!-- 0 -->
      <g transform="translate(23.848 128.8397)scale(0.096 -0.096)">
       <use xlink:href="#HelveticaNeue-48"/>
      </g>
     </g>
    </g>
    <g id="ytick_2">
     <g id="line2d_17">
      <path clip-path="url(#pdeb17e5b45)" d="M 35.185 104.71701 
L 124.619433 104.71701 
" style="fill:none;stroke:#000000;stroke-linecap:square;stroke-opacity:0.1;stroke-width:0.6;"/>
     </g>
     <g id="line2d_18">
      <g>
       <use style="stroke:#000000;stroke-width:1.41732;" x="35.185" xlink:href="#m437b28441a" y="104.71701"/>
      </g>
     </g>
     <g id="text_5">
      <!-- 0.2 -->
      <defs>
       <path d="M 4.40625 45.796875 
L 12.90625 45.796875 
Q 12.796875 49 13.546875 52.140625 
Q 14.296875 55.296875 16 57.796875 
Q 17.703125 60.296875 20.34375 61.84375 
Q 23 63.40625 26.703125 63.40625 
Q 29.5 63.40625 32 62.5 
Q 34.5 61.59375 36.34375 59.890625 
Q 38.203125 58.203125 39.296875 55.84375 
Q 40.40625 53.5 40.40625 50.59375 
Q 40.40625 46.90625 39.25 44.09375 
Q 38.09375 41.296875 35.84375 38.890625 
Q 33.59375 36.5 30.1875 34.140625 
Q 26.796875 31.796875 22.296875 29 
Q 18.59375 26.796875 15.1875 24.296875 
Q 11.796875 21.796875 9.09375 18.5 
Q 6.40625 15.203125 4.65625 10.75 
Q 2.90625 6.296875 2.40625 0 
L 48.703125 0 
L 48.703125 7.5 
L 12.296875 7.5 
Q 12.90625 10.796875 14.84375 13.34375 
Q 16.796875 15.90625 19.546875 18.09375 
Q 22.296875 20.296875 25.59375 22.25 
Q 28.90625 24.203125 32.203125 26.203125 
Q 35.5 28.296875 38.59375 30.59375 
Q 41.703125 32.90625 44.09375 35.75 
Q 46.5 38.59375 47.953125 42.1875 
Q 49.40625 45.796875 49.40625 50.5 
Q 49.40625 55.5 47.65625 59.296875 
Q 45.90625 63.09375 42.90625 65.640625 
Q 39.90625 68.203125 35.84375 69.546875 
Q 31.796875 70.90625 27.203125 70.90625 
Q 21.59375 70.90625 17.1875 69 
Q 12.796875 67.09375 9.84375 63.75 
Q 6.90625 60.40625 5.5 55.796875 
Q 4.09375 51.203125 4.40625 45.796875 
z
" id="HelveticaNeue-50"/>
      </defs>
      <g transform="translate(15.8425 108.14451)scale(0.096 -0.096)">
       <use xlink:href="#HelveticaNeue-48"/>
       <use x="55.599991" xlink:href="#HelveticaNeue-46"/>
       <use x="83.399979" xlink:href="#HelveticaNeue-50"/>
      </g>
     </g>
    </g>
    <g id="ytick_3">
     <g id="line2d_19">
      <path clip-path="url(#pdeb17e5b45)" d="M 35.185 84.02182 
L 124.619433 84.02182 
" style="fill:none;stroke:#000000;stroke-linecap:square;stroke-opacity:0.1;stroke-width:0.6;"/>
     </g>
     <g id="line2d_20">
      <g>
       <use style="stroke:#000000;stroke-width:1.41732;" x="35.185" xlink:href="#m437b28441a" y="84.02182"/>
      </g>
     </g>
     <g id="text_6">
      <!-- 0.4 -->
      <defs>
       <path d="M 33.90625 24.09375 
L 10.09375 24.09375 
L 33.703125 58.796875 
L 33.90625 58.796875 
z
M 41.90625 24.09375 
L 41.90625 70.90625 
L 35.09375 70.90625 
L 2.796875 24.796875 
L 2.796875 16.59375 
L 33.90625 16.59375 
L 33.90625 0 
L 41.90625 0 
L 41.90625 16.59375 
L 51.5 16.59375 
L 51.5 24.09375 
z
" id="HelveticaNeue-52"/>
      </defs>
      <g transform="translate(15.8425 87.44932)scale(0.096 -0.096)">
       <use xlink:href="#HelveticaNeue-48"/>
       <use x="55.599991" xlink:href="#HelveticaNeue-46"/>
       <use x="83.399979" xlink:href="#HelveticaNeue-52"/>
      </g>
     </g>
    </g>
    <g id="ytick_4">
     <g id="line2d_21">
      <path clip-path="url(#pdeb17e5b45)" d="M 35.185 63.32663 
L 124.619433 63.32663 
" style="fill:none;stroke:#000000;stroke-linecap:square;stroke-opacity:0.1;stroke-width:0.6;"/>
     </g>
     <g id="line2d_22">
      <g>
       <use style="stroke:#000000;stroke-width:1.41732;" x="35.185" xlink:href="#m437b28441a" y="63.32663"/>
      </g>
     </g>
     <g id="text_7">
      <!-- 0.6 -->
      <defs>
       <path d="M 41.40625 52.796875 
L 49.90625 52.796875 
Q 49.09375 61.59375 43.890625 66.25 
Q 38.703125 70.90625 29.90625 70.90625 
Q 22.296875 70.90625 17.296875 67.703125 
Q 12.296875 64.5 9.296875 59.203125 
Q 6.296875 53.90625 5.046875 47.046875 
Q 3.796875 40.203125 3.796875 32.90625 
Q 3.796875 27.296875 4.640625 21.296875 
Q 5.5 15.296875 8.09375 10.296875 
Q 10.703125 5.296875 15.5 2.09375 
Q 20.296875 -1.09375 28.203125 -1.09375 
Q 34.90625 -1.09375 39.453125 1.15625 
Q 44 3.40625 46.75 6.84375 
Q 49.5 10.296875 50.703125 14.5 
Q 51.90625 18.703125 51.90625 22.59375 
Q 51.90625 27.5 50.40625 31.703125 
Q 48.90625 35.90625 46.15625 39 
Q 43.40625 42.09375 39.34375 43.84375 
Q 35.296875 45.59375 30.203125 45.59375 
Q 24.40625 45.59375 19.953125 43.390625 
Q 15.5 41.203125 12.5 36.296875 
L 12.296875 36.5 
Q 12.40625 40.59375 13.09375 45.296875 
Q 13.796875 50 15.640625 54.046875 
Q 17.5 58.09375 20.796875 60.75 
Q 24.09375 63.40625 29.5 63.40625 
Q 34.59375 63.40625 37.6875 60.5 
Q 40.796875 57.59375 41.40625 52.796875 
z
M 28.59375 38.09375 
Q 32.203125 38.09375 34.890625 36.796875 
Q 37.59375 35.5 39.390625 33.34375 
Q 41.203125 31.203125 42.046875 28.25 
Q 42.90625 25.296875 42.90625 22 
Q 42.90625 18.90625 41.953125 16.046875 
Q 41 13.203125 39.203125 11 
Q 37.40625 8.796875 34.75 7.546875 
Q 32.09375 6.296875 28.59375 6.296875 
Q 25.09375 6.296875 22.34375 7.546875 
Q 19.59375 8.796875 17.75 10.890625 
Q 15.90625 13 14.90625 15.890625 
Q 13.90625 18.796875 13.90625 22.09375 
Q 13.90625 25.40625 14.84375 28.34375 
Q 15.796875 31.296875 17.6875 33.4375 
Q 19.59375 35.59375 22.296875 36.84375 
Q 25 38.09375 28.59375 38.09375 
z
" id="HelveticaNeue-54"/>
      </defs>
      <g transform="translate(15.8425 66.75413)scale(0.096 -0.096)">
       <use xlink:href="#HelveticaNeue-48"/>
       <use x="55.599991" xlink:href="#HelveticaNeue-46"/>
       <use x="83.399979" xlink:href="#HelveticaNeue-54"/>
      </g>
     </g>
    </g>
    <g id="ytick_5">
     <g id="line2d_23">
      <path clip-path="url(#pdeb17e5b45)" d="M 35.185 42.63144 
L 124.619433 42.63144 
" style="fill:none;stroke:#000000;stroke-linecap:square;stroke-opacity:0.1;stroke-width:0.6;"/>
     </g>
     <g id="line2d_24">
      <g>
       <use style="stroke:#000000;stroke-width:1.41732;" x="35.185" xlink:href="#m437b28441a" y="42.63144"/>
      </g>
     </g>
     <g id="text_8">
      <!-- 0.8 -->
      <defs>
       <path d="M 15.5 52.5 
Q 15.5 55.203125 16.5 57.203125 
Q 17.5 59.203125 19.140625 60.59375 
Q 20.796875 62 23.09375 62.703125 
Q 25.40625 63.40625 27.90625 63.40625 
Q 33.09375 63.40625 36.4375 60.65625 
Q 39.796875 57.90625 39.796875 52.5 
Q 39.796875 47.09375 36.5 44.09375 
Q 33.203125 41.09375 28.09375 41.09375 
Q 25.5 41.09375 23.203125 41.796875 
Q 20.90625 42.5 19.203125 43.890625 
Q 17.5 45.296875 16.5 47.4375 
Q 15.5 49.59375 15.5 52.5 
z
M 6.5 52.796875 
Q 6.5 48 9.203125 43.953125 
Q 11.90625 39.90625 16.40625 38.09375 
Q 10.40625 36 7.203125 31.34375 
Q 4 26.703125 4 20.40625 
Q 4 15 5.84375 10.953125 
Q 7.703125 6.90625 10.953125 4.203125 
Q 14.203125 1.5 18.59375 0.203125 
Q 23 -1.09375 28.09375 -1.09375 
Q 33 -1.09375 37.296875 0.296875 
Q 41.59375 1.703125 44.75 4.453125 
Q 47.90625 7.203125 49.75 11.203125 
Q 51.59375 15.203125 51.59375 20.40625 
Q 51.59375 27 48.5 31.546875 
Q 45.40625 36.09375 39 38.09375 
Q 43.5 40.09375 46.140625 44.046875 
Q 48.796875 48 48.796875 52.796875 
Q 48.796875 56.203125 47.59375 59.453125 
Q 46.40625 62.703125 43.84375 65.25 
Q 41.296875 67.796875 37.1875 69.34375 
Q 33.09375 70.90625 27.296875 70.90625 
Q 23.203125 70.90625 19.453125 69.703125 
Q 15.703125 68.5 12.796875 66.203125 
Q 9.90625 63.90625 8.203125 60.546875 
Q 6.5 57.203125 6.5 52.796875 
z
M 13 20 
Q 13 23.09375 14.140625 25.59375 
Q 15.296875 28.09375 17.34375 29.890625 
Q 19.40625 31.703125 22.15625 32.640625 
Q 24.90625 33.59375 28 33.59375 
Q 31 33.59375 33.640625 32.546875 
Q 36.296875 31.5 38.296875 29.703125 
Q 40.296875 27.90625 41.4375 25.453125 
Q 42.59375 23 42.59375 20.09375 
Q 42.59375 17.09375 41.546875 14.59375 
Q 40.5 12.09375 38.546875 10.25 
Q 36.59375 8.40625 33.9375 7.34375 
Q 31.296875 6.296875 28.09375 6.296875 
Q 21.5 6.296875 17.25 9.9375 
Q 13 13.59375 13 20 
z
" id="HelveticaNeue-56"/>
      </defs>
      <g transform="translate(15.8425 46.05894)scale(0.096 -0.096)">
       <use xlink:href="#HelveticaNeue-48"/>
       <use x="55.599991" xlink:href="#HelveticaNeue-46"/>
       <use x="83.399979" xlink:href="#HelveticaNeue-56"/>
      </g>
     </g>
    </g>
    <g id="ytick_6">
     <g id="line2d_25">
      <path clip-path="url(#pdeb17e5b45)" d="M 35.185 21.93625 
L 124.619433 21.93625 
" style="fill:none;stroke:#000000;stroke-linecap:square;stroke-opacity:0.1;stroke-width:0.6;"/>
     </g>
     <g id="line2d_26">
      <g>
       <use style="stroke:#000000;stroke-width:1.41732;" x="35.185" xlink:href="#m437b28441a" y="21.93625"/>
      </g>
     </g>
     <g id="text_9">
      <!-- 1 -->
      <g transform="translate(23.848 25.36375)scale(0.096 -0.096)">
       <use xlink:href="#HelveticaNeue-49"/>
      </g>
     </g>
    </g>
    <g id="ytick_7">
     <g id="line2d_27">
      <defs>
       <path d="M 0 0 
L -2 0 
" id="m797fd98ad3" style="stroke:#000000;stroke-width:1.133856;"/>
      </defs>
      <g>
       <use style="stroke:#000000;stroke-width:1.133856;" x="35.185" xlink:href="#m797fd98ad3" y="120.238402"/>
      </g>
     </g>
    </g>
    <g id="ytick_8">
     <g id="line2d_28">
      <g>
       <use style="stroke:#000000;stroke-width:1.133856;" x="35.185" xlink:href="#m797fd98ad3" y="115.064605"/>
      </g>
     </g>
    </g>
    <g id="ytick_9">
     <g id="line2d_29">
      <g>
       <use style="stroke:#000000;stroke-width:1.133856;" x="35.185" xlink:href="#m797fd98ad3" y="109.890807"/>
      </g>
     </g>
    </g>
    <g id="ytick_10">
     <g id="line2d_30">
      <g>
       <use style="stroke:#000000;stroke-width:1.133856;" x="35.185" xlink:href="#m797fd98ad3" y="99.543212"/>
      </g>
     </g>
    </g>
    <g id="ytick_11">
     <g id="line2d_31">
      <g>
       <use style="stroke:#000000;stroke-width:1.133856;" x="35.185" xlink:href="#m797fd98ad3" y="94.369415"/>
      </g>
     </g>
    </g>
    <g id="ytick_12">
     <g id="line2d_32">
      <g>
       <use style="stroke:#000000;stroke-width:1.133856;" x="35.185" xlink:href="#m797fd98ad3" y="89.195617"/>
      </g>
     </g>
    </g>
    <g id="ytick_13">
     <g id="line2d_33">
      <g>
       <use style="stroke:#000000;stroke-width:1.133856;" x="35.185" xlink:href="#m797fd98ad3" y="78.848022"/>
      </g>
     </g>
    </g>
    <g id="ytick_14">
     <g id="line2d_34">
      <g>
       <use style="stroke:#000000;stroke-width:1.133856;" x="35.185" xlink:href="#m797fd98ad3" y="73.674225"/>
      </g>
     </g>
    </g>
    <g id="ytick_15">
     <g id="line2d_35">
      <g>
       <use style="stroke:#000000;stroke-width:1.133856;" x="35.185" xlink:href="#m797fd98ad3" y="68.500428"/>
      </g>
     </g>
    </g>
    <g id="ytick_16">
     <g id="line2d_36">
      <g>
       <use style="stroke:#000000;stroke-width:1.133856;" x="35.185" xlink:href="#m797fd98ad3" y="58.152832"/>
      </g>
     </g>
    </g>
    <g id="ytick_17">
     <g id="line2d_37">
      <g>
       <use style="stroke:#000000;stroke-width:1.133856;" x="35.185" xlink:href="#m797fd98ad3" y="52.979035"/>
      </g>
     </g>
    </g>
    <g id="ytick_18">
     <g id="line2d_38">
      <g>
       <use style="stroke:#000000;stroke-width:1.133856;" x="35.185" xlink:href="#m797fd98ad3" y="47.805237"/>
      </g>
     </g>
    </g>
    <g id="ytick_19">
     <g id="line2d_39">
      <g>
       <use style="stroke:#000000;stroke-width:1.133856;" x="35.185" xlink:href="#m797fd98ad3" y="37.457642"/>
      </g>
     </g>
    </g>
    <g id="ytick_20">
     <g id="line2d_40">
      <g>
       <use style="stroke:#000000;stroke-width:1.133856;" x="35.185" xlink:href="#m797fd98ad3" y="32.283845"/>
      </g>
     </g>
    </g>
    <g id="ytick_21">
     <g id="line2d_41">
      <g>
       <use style="stroke:#000000;stroke-width:1.133856;" x="35.185" xlink:href="#m797fd98ad3" y="27.110047"/>
      </g>
     </g>
    </g>
    <g id="text_10">
     <!-- y axis -->
     <defs>
      <path d="M 26.703125 -6.90625 
Q 25.203125 -10.703125 23.75 -13.296875 
Q 22.296875 -15.90625 20.546875 -17.546875 
Q 18.796875 -19.203125 16.640625 -19.953125 
Q 14.5 -20.703125 11.703125 -20.703125 
Q 10.203125 -20.703125 8.703125 -20.5 
Q 7.203125 -20.296875 5.796875 -19.796875 
L 5.796875 -12 
Q 6.90625 -12.5 8.34375 -12.84375 
Q 9.796875 -13.203125 10.796875 -13.203125 
Q 13.40625 -13.203125 15.15625 -11.953125 
Q 16.90625 -10.703125 17.796875 -8.40625 
L 21.296875 0.296875 
L 0.796875 51.703125 
L 10.40625 51.703125 
L 25.5 9.40625 
L 25.703125 9.40625 
L 40.203125 51.703125 
L 49.203125 51.703125 
z
" id="HelveticaNeue-121"/>
      <path id="HelveticaNeue-32"/>
      <path d="M 52.203125 0.203125 
Q 50 -1.09375 46.09375 -1.09375 
Q 42.796875 -1.09375 40.84375 0.75 
Q 38.90625 2.59375 38.90625 6.796875 
Q 35.40625 2.59375 30.75 0.75 
Q 26.09375 -1.09375 20.703125 -1.09375 
Q 17.203125 -1.09375 14.046875 -0.296875 
Q 10.90625 0.5 8.59375 2.203125 
Q 6.296875 3.90625 4.9375 6.65625 
Q 3.59375 9.40625 3.59375 13.296875 
Q 3.59375 17.703125 5.09375 20.5 
Q 6.59375 23.296875 9.046875 25.046875 
Q 11.5 26.796875 14.640625 27.6875 
Q 17.796875 28.59375 21.09375 29.203125 
Q 24.59375 29.90625 27.75 30.25 
Q 30.90625 30.59375 33.296875 31.25 
Q 35.703125 31.90625 37.09375 33.15625 
Q 38.5 34.40625 38.5 36.796875 
Q 38.5 39.59375 37.453125 41.296875 
Q 36.40625 43 34.75 43.890625 
Q 33.09375 44.796875 31.046875 45.09375 
Q 29 45.40625 27 45.40625 
Q 21.59375 45.40625 18 43.34375 
Q 14.40625 41.296875 14.09375 35.59375 
L 5.59375 35.59375 
Q 5.796875 40.40625 7.59375 43.703125 
Q 9.40625 47 12.40625 49.046875 
Q 15.40625 51.09375 19.25 52 
Q 23.09375 52.90625 27.5 52.90625 
Q 31 52.90625 34.453125 52.40625 
Q 37.90625 51.90625 40.703125 50.34375 
Q 43.5 48.796875 45.203125 46 
Q 46.90625 43.203125 46.90625 38.703125 
L 46.90625 12.09375 
Q 46.90625 9.09375 47.25 7.6875 
Q 47.59375 6.296875 49.59375 6.296875 
Q 50.703125 6.296875 52.203125 6.796875 
z
M 38.40625 26.703125 
Q 36.796875 25.5 34.1875 24.953125 
Q 31.59375 24.40625 28.75 24.046875 
Q 25.90625 23.703125 23 23.25 
Q 20.09375 22.796875 17.796875 21.796875 
Q 15.5 20.796875 14.046875 18.9375 
Q 12.59375 17.09375 12.59375 13.90625 
Q 12.59375 11.796875 13.4375 10.34375 
Q 14.296875 8.90625 15.640625 8 
Q 17 7.09375 18.796875 6.6875 
Q 20.59375 6.296875 22.59375 6.296875 
Q 26.796875 6.296875 29.796875 7.4375 
Q 32.796875 8.59375 34.6875 10.34375 
Q 36.59375 12.09375 37.5 14.140625 
Q 38.40625 16.203125 38.40625 18 
z
" id="HelveticaNeue-97"/>
      <path d="M 20.296875 27.203125 
L 0.90625 0 
L 11.203125 0 
L 25.59375 21.40625 
L 40 0 
L 50.90625 0 
L 30.90625 27.90625 
L 48.703125 51.703125 
L 38.5 51.703125 
L 25.59375 33.59375 
L 13.203125 51.703125 
L 2.296875 51.703125 
z
" id="HelveticaNeue-120"/>
      <path d="M 15.40625 61 
L 15.40625 71.40625 
L 6.90625 71.40625 
L 6.90625 61 
z
M 6.90625 51.703125 
L 6.90625 0 
L 15.40625 0 
L 15.40625 51.703125 
z
" id="HelveticaNeue-105"/>
      <path d="M 11.59375 16.296875 
L 3.09375 16.296875 
Q 3.296875 11.5 5.09375 8.140625 
Q 6.90625 4.796875 9.90625 2.75 
Q 12.90625 0.703125 16.796875 -0.1875 
Q 20.703125 -1.09375 25 -1.09375 
Q 28.90625 -1.09375 32.84375 -0.34375 
Q 36.796875 0.40625 39.9375 2.296875 
Q 43.09375 4.203125 45.046875 7.296875 
Q 47 10.40625 47 15.09375 
Q 47 18.796875 45.546875 21.296875 
Q 44.09375 23.796875 41.75 25.4375 
Q 39.40625 27.09375 36.34375 28.09375 
Q 33.296875 29.09375 30.09375 29.796875 
Q 27.09375 30.5 24.09375 31.140625 
Q 21.09375 31.796875 18.6875 32.75 
Q 16.296875 33.703125 14.75 35.140625 
Q 13.203125 36.59375 13.203125 38.796875 
Q 13.203125 40.796875 14.203125 42.046875 
Q 15.203125 43.296875 16.796875 44.046875 
Q 18.40625 44.796875 20.34375 45.09375 
Q 22.296875 45.40625 24.203125 45.40625 
Q 26.296875 45.40625 28.34375 44.953125 
Q 30.40625 44.5 32.09375 43.5 
Q 33.796875 42.5 34.890625 40.84375 
Q 36 39.203125 36.203125 36.703125 
L 44.703125 36.703125 
Q 44.40625 41.40625 42.703125 44.546875 
Q 41 47.703125 38.140625 49.546875 
Q 35.296875 51.40625 31.59375 52.15625 
Q 27.90625 52.90625 23.5 52.90625 
Q 20.09375 52.90625 16.640625 52.046875 
Q 13.203125 51.203125 10.453125 49.453125 
Q 7.703125 47.703125 5.953125 44.890625 
Q 4.203125 42.09375 4.203125 38.203125 
Q 4.203125 33.203125 6.703125 30.390625 
Q 9.203125 27.59375 12.953125 26.046875 
Q 16.703125 24.5 21.09375 23.640625 
Q 25.5 22.796875 29.25 21.75 
Q 33 20.703125 35.5 19 
Q 38 17.296875 38 14 
Q 38 11.59375 36.796875 10.046875 
Q 35.59375 8.5 33.75 7.703125 
Q 31.90625 6.90625 29.703125 6.59375 
Q 27.5 6.296875 25.5 6.296875 
Q 22.90625 6.296875 20.453125 6.796875 
Q 18 7.296875 16.046875 8.4375 
Q 14.09375 9.59375 12.890625 11.546875 
Q 11.703125 13.5 11.59375 16.296875 
z
" id="HelveticaNeue-115"/>
     </defs>
     <g transform="translate(10.855 85.938225)rotate(-90)scale(0.096 -0.096)">
      <use xlink:href="#HelveticaNeue-121"/>
      <use x="49.999985" xlink:href="#HelveticaNeue-32"/>
      <use x="77.799973" xlink:href="#HelveticaNeue-97"/>
      <use x="131.499969" xlink:href="#HelveticaNeue-120"/>
      <use x="183.299957" xlink:href="#HelveticaNeue-105"/>
      <use x="205.499954" xlink:href="#HelveticaNeue-115"/>
     </g>
    </g>
   </g>
   <g id="patch_3">
    <path d="M 35.185 125.4122 
L 35.185 21.93625 
" style="fill:none;stroke:#000000;stroke-linecap:square;stroke-linejoin:miter;stroke-width:1.41732;"/>
   </g>
   <g id="patch_4">
    <path d="M 124.619433 125.4122 
L 124.619433 21.93625 
" style="fill:none;stroke:#000000;stroke-linecap:square;stroke-linejoin:miter;stroke-width:1.41732;"/>
   </g>
   <g id="patch_5">
    <path d="M 35.185 125.4122 
L 124.619433 125.4122 
" style="fill:none;stroke:#000000;stroke-linecap:square;stroke-linejoin:miter;stroke-width:1.41732;"/>
   </g>
   <g id="patch_6">
    <path d="M 35.185 21.93625 
L 124.619433 21.93625 
" style="fill:none;stroke:#000000;stroke-linecap:square;stroke-linejoin:miter;stroke-width:1.41732;"/>
   </g>
  </g>
  <g id="axes_2">
   <g id="patch_7">
    <path d="M 134.619433 125.4122 
L 224.053867 125.4122 
L 224.053867 21.93625 
L 134.619433 21.93625 
z
" style="fill:#ffffff;"/>
   </g>
   <g id="matplotlib.axis_3">
    <g id="xtick_12">
     <g id="line2d_42">
      <path clip-path="url(#p1ad88b5221)" d="M 134.619433 125.4122 
L 134.619433 21.93625 
" style="fill:none;stroke:#000000;stroke-linecap:square;stroke-opacity:0.1;stroke-width:0.6;"/>
     </g>
     <g id="line2d_43">
      <g>
       <use style="stroke:#000000;stroke-width:1.41732;" x="134.619433" xlink:href="#m18528d32a9" y="125.4122"/>
      </g>
     </g>
     <g id="text_11">
      <!-- 0 -->
      <g transform="translate(131.950933 138.2672)scale(0.096 -0.096)">
       <use xlink:href="#HelveticaNeue-48"/>
      </g>
     </g>
    </g>
    <g id="xtick_13">
     <g id="line2d_44">
      <path clip-path="url(#p1ad88b5221)" d="M 179.33665 125.4122 
L 179.33665 21.93625 
" style="fill:none;stroke:#000000;stroke-linecap:square;stroke-opacity:0.1;stroke-width:0.6;"/>
     </g>
     <g id="line2d_45">
      <g>
       <use style="stroke:#000000;stroke-width:1.41732;" x="179.33665" xlink:href="#m18528d32a9" y="125.4122"/>
      </g>
     </g>
     <g id="text_12">
      <!-- 0.5 -->
      <g transform="translate(172.6654 138.2672)scale(0.096 -0.096)">
       <use xlink:href="#HelveticaNeue-48"/>
       <use x="55.599991" xlink:href="#HelveticaNeue-46"/>
       <use x="83.399979" xlink:href="#HelveticaNeue-53"/>
      </g>
     </g>
    </g>
    <g id="xtick_14">
     <g id="line2d_46">
      <path clip-path="url(#p1ad88b5221)" d="M 224.053867 125.4122 
L 224.053867 21.93625 
" style="fill:none;stroke:#000000;stroke-linecap:square;stroke-opacity:0.1;stroke-width:0.6;"/>
     </g>
     <g id="line2d_47">
      <g>
       <use style="stroke:#000000;stroke-width:1.41732;" x="224.053867" xlink:href="#m18528d32a9" y="125.4122"/>
      </g>
     </g>
     <g id="text_13">
      <!-- 1 -->
      <g transform="translate(221.385367 138.2672)scale(0.096 -0.096)">
       <use xlink:href="#HelveticaNeue-49"/>
      </g>
     </g>
    </g>
    <g id="xtick_15">
     <g id="line2d_48">
      <g>
       <use style="stroke:#000000;stroke-width:1.133856;" x="143.562877" xlink:href="#mfe78c5a0a8" y="125.4122"/>
      </g>
     </g>
    </g>
    <g id="xtick_16">
     <g id="line2d_49">
      <g>
       <use style="stroke:#000000;stroke-width:1.133856;" x="152.50632" xlink:href="#mfe78c5a0a8" y="125.4122"/>
      </g>
     </g>
    </g>
    <g id="xtick_17">
     <g id="line2d_50">
      <g>
       <use style="stroke:#000000;stroke-width:1.133856;" x="161.449763" xlink:href="#mfe78c5a0a8" y="125.4122"/>
      </g>
     </g>
    </g>
    <g id="xtick_18">
     <g id="line2d_51">
      <g>
       <use style="stroke:#000000;stroke-width:1.133856;" x="170.393207" xlink:href="#mfe78c5a0a8" y="125.4122"/>
      </g>
     </g>
    </g>
    <g id="xtick_19">
     <g id="line2d_52">
      <g>
       <use style="stroke:#000000;stroke-width:1.133856;" x="188.280093" xlink:href="#mfe78c5a0a8" y="125.4122"/>
      </g>
     </g>
    </g>
    <g id="xtick_20">
     <g id="line2d_53">
      <g>
       <use style="stroke:#000000;stroke-width:1.133856;" x="197.223537" xlink:href="#mfe78c5a0a8" y="125.4122"/>
      </g>
     </g>
    </g>
    <g id="xtick_21">
     <g id="line2d_54">
      <g>
       <use style="stroke:#000000;stroke-width:1.133856;" x="206.16698" xlink:href="#mfe78c5a0a8" y="125.4122"/>
      </g>
     </g>
    </g>
    <g id="xtick_22">
     <g id="line2d_55">
      <g>
       <use style="stroke:#000000;stroke-width:1.133856;" x="215.110423" xlink:href="#mfe78c5a0a8" y="125.4122"/>
      </g>
     </g>
    </g>
    <g id="text_14">
     <!-- x axis -->
     <g transform="translate(171.9864 150.0137)scale(0.096 -0.096)">
      <use xlink:href="#HelveticaNeue-120"/>
      <use x="51.799988" xlink:href="#HelveticaNeue-32"/>
      <use x="79.599976" xlink:href="#HelveticaNeue-97"/>
      <use x="133.299973" xlink:href="#HelveticaNeue-120"/>
      <use x="185.09996" xlink:href="#HelveticaNeue-105"/>
      <use x="207.299957" xlink:href="#HelveticaNeue-115"/>
     </g>
    </g>
   </g>
   <g id="matplotlib.axis_4">
    <g id="ytick_22">
     <g id="line2d_56">
      <path clip-path="url(#p1ad88b5221)" d="M 134.619433 125.4122 
L 224.053867 125.4122 
" style="fill:none;stroke:#000000;stroke-linecap:square;stroke-opacity:0.1;stroke-width:0.6;"/>
     </g>
     <g id="line2d_57">
      <g>
       <use style="stroke:#000000;stroke-width:1.41732;" x="134.619433" xlink:href="#m437b28441a" y="125.4122"/>
      </g>
     </g>
    </g>
    <g id="ytick_23">
     <g id="line2d_58">
      <path clip-path="url(#p1ad88b5221)" d="M 134.619433 104.71701 
L 224.053867 104.71701 
" style="fill:none;stroke:#000000;stroke-linecap:square;stroke-opacity:0.1;stroke-width:0.6;"/>
     </g>
     <g id="line2d_59">
      <g>
       <use style="stroke:#000000;stroke-width:1.41732;" x="134.619433" xlink:href="#m437b28441a" y="104.71701"/>
      </g>
     </g>
    </g>
    <g id="ytick_24">
     <g id="line2d_60">
      <path clip-path="url(#p1ad88b5221)" d="M 134.619433 84.02182 
L 224.053867 84.02182 
" style="fill:none;stroke:#000000;stroke-linecap:square;stroke-opacity:0.1;stroke-width:0.6;"/>
     </g>
     <g id="line2d_61">
      <g>
       <use style="stroke:#000000;stroke-width:1.41732;" x="134.619433" xlink:href="#m437b28441a" y="84.02182"/>
      </g>
     </g>
    </g>
    <g id="ytick_25">
     <g id="line2d_62">
      <path clip-path="url(#p1ad88b5221)" d="M 134.619433 63.32663 
L 224.053867 63.32663 
" style="fill:none;stroke:#000000;stroke-linecap:square;stroke-opacity:0.1;stroke-width:0.6;"/>
     </g>
     <g id="line2d_63">
      <g>
       <use style="stroke:#000000;stroke-width:1.41732;" x="134.619433" xlink:href="#m437b28441a" y="63.32663"/>
      </g>
     </g>
    </g>
    <g id="ytick_26">
     <g id="line2d_64">
      <path clip-path="url(#p1ad88b5221)" d="M 134.619433 42.63144 
L 224.053867 42.63144 
" style="fill:none;stroke:#000000;stroke-linecap:square;stroke-opacity:0.1;stroke-width:0.6;"/>
     </g>
     <g id="line2d_65">
      <g>
       <use style="stroke:#000000;stroke-width:1.41732;" x="134.619433" xlink:href="#m437b28441a" y="42.63144"/>
      </g>
     </g>
    </g>
    <g id="ytick_27">
     <g id="line2d_66">
      <path clip-path="url(#p1ad88b5221)" d="M 134.619433 21.93625 
L 224.053867 21.93625 
" style="fill:none;stroke:#000000;stroke-linecap:square;stroke-opacity:0.1;stroke-width:0.6;"/>
     </g>
     <g id="line2d_67">
      <g>
       <use style="stroke:#000000;stroke-width:1.41732;" x="134.619433" xlink:href="#m437b28441a" y="21.93625"/>
      </g>
     </g>
    </g>
    <g id="ytick_28">
     <g id="line2d_68">
      <g>
       <use style="stroke:#000000;stroke-width:1.133856;" x="134.619433" xlink:href="#m797fd98ad3" y="120.238402"/>
      </g>
     </g>
    </g>
    <g id="ytick_29">
     <g id="line2d_69">
      <g>
       <use style="stroke:#000000;stroke-width:1.133856;" x="134.619433" xlink:href="#m797fd98ad3" y="115.064605"/>
      </g>
     </g>
    </g>
    <g id="ytick_30">
     <g id="line2d_70">
      <g>
       <use style="stroke:#000000;stroke-width:1.133856;" x="134.619433" xlink:href="#m797fd98ad3" y="109.890807"/>
      </g>
     </g>
    </g>
    <g id="ytick_31">
     <g id="line2d_71">
      <g>
       <use style="stroke:#000000;stroke-width:1.133856;" x="134.619433" xlink:href="#m797fd98ad3" y="99.543212"/>
      </g>
     </g>
    </g>
    <g id="ytick_32">
     <g id="line2d_72">
      <g>
       <use style="stroke:#000000;stroke-width:1.133856;" x="134.619433" xlink:href="#m797fd98ad3" y="94.369415"/>
      </g>
     </g>
    </g>
    <g id="ytick_33">
     <g id="line2d_73">
      <g>
       <use style="stroke:#000000;stroke-width:1.133856;" x="134.619433" xlink:href="#m797fd98ad3" y="89.195617"/>
      </g>
     </g>
    </g>
    <g id="ytick_34">
     <g id="line2d_74">
      <g>
       <use style="stroke:#000000;stroke-width:1.133856;" x="134.619433" xlink:href="#m797fd98ad3" y="78.848022"/>
      </g>
     </g>
    </g>
    <g id="ytick_35">
     <g id="line2d_75">
      <g>
       <use style="stroke:#000000;stroke-width:1.133856;" x="134.619433" xlink:href="#m797fd98ad3" y="73.674225"/>
      </g>
     </g>
    </g>
    <g id="ytick_36">
     <g id="line2d_76">
      <g>
       <use style="stroke:#000000;stroke-width:1.133856;" x="134.619433" xlink:href="#m797fd98ad3" y="68.500428"/>
      </g>
     </g>
    </g>
    <g id="ytick_37">
     <g id="line2d_77">
      <g>
       <use style="stroke:#000000;stroke-width:1.133856;" x="134.619433" xlink:href="#m797fd98ad3" y="58.152832"/>
      </g>
     </g>
    </g>
    <g id="ytick_38">
     <g id="line2d_78">
      <g>
       <use style="stroke:#000000;stroke-width:1.133856;" x="134.619433" xlink:href="#m797fd98ad3" y="52.979035"/>
      </g>
     </g>
    </g>
    <g id="ytick_39">
     <g id="line2d_79">
      <g>
       <use style="stroke:#000000;stroke-width:1.133856;" x="134.619433" xlink:href="#m797fd98ad3" y="47.805237"/>
      </g>
     </g>
    </g>
    <g id="ytick_40">
     <g id="line2d_80">
      <g>
       <use style="stroke:#000000;stroke-width:1.133856;" x="134.619433" xlink:href="#m797fd98ad3" y="37.457642"/>
      </g>
     </g>
    </g>
    <g id="ytick_41">
     <g id="line2d_81">
      <g>
       <use style="stroke:#000000;stroke-width:1.133856;" x="134.619433" xlink:href="#m797fd98ad3" y="32.283845"/>
      </g>
     </g>
    </g>
    <g id="ytick_42">
     <g id="line2d_82">
      <g>
       <use style="stroke:#000000;stroke-width:1.133856;" x="134.619433" xlink:href="#m797fd98ad3" y="27.110047"/>
      </g>
     </g>
    </g>
   </g>
   <g id="patch_8">
    <path d="M 134.619433 125.4122 
L 134.619433 21.93625 
" style="fill:none;stroke:#000000;stroke-linecap:square;stroke-linejoin:miter;stroke-width:1.41732;"/>
   </g>
   <g id="patch_9">
    <path d="M 224.053867 125.4122 
L 224.053867 21.93625 
" style="fill:none;stroke:#000000;stroke-linecap:square;stroke-linejoin:miter;stroke-width:1.41732;"/>
   </g>
   <g id="patch_10">
    <path d="M 134.619433 125.4122 
L 224.053867 125.4122 
" style="fill:none;stroke:#000000;stroke-linecap:square;stroke-linejoin:miter;stroke-width:1.41732;"/>
   </g>
   <g id="patch_11">
    <path d="M 134.619433 21.93625 
L 224.053867 21.93625 
" style="fill:none;stroke:#000000;stroke-linecap:square;stroke-linejoin:miter;stroke-width:1.41732;"/>
   </g>
  </g>
  <g id="axes_3">
   <g id="patch_12">
    <path d="M 244.053867 125.4122 
L 333.4883 125.4122 
L 333.4883 21.93625 
L 244.053867 21.93625 
z
" style="fill:#ffffff;"/>
   </g>
   <g id="matplotlib.axis_5">
    <g id="xtick_23">
     <g id="line2d_83">
      <path clip-path="url(#p18ebd5f1aa)" d="M 244.053867 125.4122 
L 244.053867 21.93625 
" style="fill:none;stroke:#000000;stroke-linecap:square;stroke-opacity:0.1;stroke-width:0.6;"/>
     </g>
     <g id="line2d_84">
      <g>
       <use style="stroke:#000000;stroke-width:1.41732;" x="244.053867" xlink:href="#m18528d32a9" y="125.4122"/>
      </g>
     </g>
     <g id="text_15">
      <!-- 0 -->
      <g transform="translate(241.385367 138.2672)scale(0.096 -0.096)">
       <use xlink:href="#HelveticaNeue-48"/>
      </g>
     </g>
    </g>
    <g id="xtick_24">
     <g id="line2d_85">
      <path clip-path="url(#p18ebd5f1aa)" d="M 288.771083 125.4122 
L 288.771083 21.93625 
" style="fill:none;stroke:#000000;stroke-linecap:square;stroke-opacity:0.1;stroke-width:0.6;"/>
     </g>
     <g id="line2d_86">
      <g>
       <use style="stroke:#000000;stroke-width:1.41732;" x="288.771083" xlink:href="#m18528d32a9" y="125.4122"/>
      </g>
     </g>
     <g id="text_16">
      <!-- 0.5 -->
      <g transform="translate(282.099833 138.2672)scale(0.096 -0.096)">
       <use xlink:href="#HelveticaNeue-48"/>
       <use x="55.599991" xlink:href="#HelveticaNeue-46"/>
       <use x="83.399979" xlink:href="#HelveticaNeue-53"/>
      </g>
     </g>
    </g>
    <g id="xtick_25">
     <g id="line2d_87">
      <path clip-path="url(#p18ebd5f1aa)" d="M 333.4883 125.4122 
L 333.4883 21.93625 
" style="fill:none;stroke:#000000;stroke-linecap:square;stroke-opacity:0.1;stroke-width:0.6;"/>
     </g>
     <g id="line2d_88">
      <g>
       <use style="stroke:#000000;stroke-width:1.41732;" x="333.4883" xlink:href="#m18528d32a9" y="125.4122"/>
      </g>
     </g>
     <g id="text_17">
      <!-- 1 -->
      <g transform="translate(330.8198 138.2672)scale(0.096 -0.096)">
       <use xlink:href="#HelveticaNeue-49"/>
      </g>
     </g>
    </g>
    <g id="xtick_26">
     <g id="line2d_89">
      <g>
       <use style="stroke:#000000;stroke-width:1.133856;" x="252.99731" xlink:href="#mfe78c5a0a8" y="125.4122"/>
      </g>
     </g>
    </g>
    <g id="xtick_27">
     <g id="line2d_90">
      <g>
       <use style="stroke:#000000;stroke-width:1.133856;" x="261.940753" xlink:href="#mfe78c5a0a8" y="125.4122"/>
      </g>
     </g>
    </g>
    <g id="xtick_28">
     <g id="line2d_91">
      <g>
       <use style="stroke:#000000;stroke-width:1.133856;" x="270.884197" xlink:href="#mfe78c5a0a8" y="125.4122"/>
      </g>
     </g>
    </g>
    <g id="xtick_29">
     <g id="line2d_92">
      <g>
       <use style="stroke:#000000;stroke-width:1.133856;" x="279.82764" xlink:href="#mfe78c5a0a8" y="125.4122"/>
      </g>
     </g>
    </g>
    <g id="xtick_30">
     <g id="line2d_93">
      <g>
       <use style="stroke:#000000;stroke-width:1.133856;" x="297.714527" xlink:href="#mfe78c5a0a8" y="125.4122"/>
      </g>
     </g>
    </g>
    <g id="xtick_31">
     <g id="line2d_94">
      <g>
       <use style="stroke:#000000;stroke-width:1.133856;" x="306.65797" xlink:href="#mfe78c5a0a8" y="125.4122"/>
      </g>
     </g>
    </g>
    <g id="xtick_32">
     <g id="line2d_95">
      <g>
       <use style="stroke:#000000;stroke-width:1.133856;" x="315.601413" xlink:href="#mfe78c5a0a8" y="125.4122"/>
      </g>
     </g>
    </g>
    <g id="xtick_33">
     <g id="line2d_96">
      <g>
       <use style="stroke:#000000;stroke-width:1.133856;" x="324.544857" xlink:href="#mfe78c5a0a8" y="125.4122"/>
      </g>
     </g>
    </g>
   </g>
   <g id="matplotlib.axis_6">
    <g id="ytick_43">
     <g id="line2d_97">
      <path clip-path="url(#p18ebd5f1aa)" d="M 244.053867 125.4122 
L 333.4883 125.4122 
" style="fill:none;stroke:#000000;stroke-linecap:square;stroke-opacity:0.1;stroke-width:0.6;"/>
     </g>
     <g id="line2d_98">
      <g>
       <use style="stroke:#000000;stroke-width:1.41732;" x="244.053867" xlink:href="#m437b28441a" y="125.4122"/>
      </g>
     </g>
    </g>
    <g id="ytick_44">
     <g id="line2d_99">
      <path clip-path="url(#p18ebd5f1aa)" d="M 244.053867 104.71701 
L 333.4883 104.71701 
" style="fill:none;stroke:#000000;stroke-linecap:square;stroke-opacity:0.1;stroke-width:0.6;"/>
     </g>
     <g id="line2d_100">
      <g>
       <use style="stroke:#000000;stroke-width:1.41732;" x="244.053867" xlink:href="#m437b28441a" y="104.71701"/>
      </g>
     </g>
    </g>
    <g id="ytick_45">
     <g id="line2d_101">
      <path clip-path="url(#p18ebd5f1aa)" d="M 244.053867 84.02182 
L 333.4883 84.02182 
" style="fill:none;stroke:#000000;stroke-linecap:square;stroke-opacity:0.1;stroke-width:0.6;"/>
     </g>
     <g id="line2d_102">
      <g>
       <use style="stroke:#000000;stroke-width:1.41732;" x="244.053867" xlink:href="#m437b28441a" y="84.02182"/>
      </g>
     </g>
    </g>
    <g id="ytick_46">
     <g id="line2d_103">
      <path clip-path="url(#p18ebd5f1aa)" d="M 244.053867 63.32663 
L 333.4883 63.32663 
" style="fill:none;stroke:#000000;stroke-linecap:square;stroke-opacity:0.1;stroke-width:0.6;"/>
     </g>
     <g id="line2d_104">
      <g>
       <use style="stroke:#000000;stroke-width:1.41732;" x="244.053867" xlink:href="#m437b28441a" y="63.32663"/>
      </g>
     </g>
    </g>
    <g id="ytick_47">
     <g id="line2d_105">
      <path clip-path="url(#p18ebd5f1aa)" d="M 244.053867 42.63144 
L 333.4883 42.63144 
" style="fill:none;stroke:#000000;stroke-linecap:square;stroke-opacity:0.1;stroke-width:0.6;"/>
     </g>
     <g id="line2d_106">
      <g>
       <use style="stroke:#000000;stroke-width:1.41732;" x="244.053867" xlink:href="#m437b28441a" y="42.63144"/>
      </g>
     </g>
    </g>
    <g id="ytick_48">
     <g id="line2d_107">
      <path clip-path="url(#p18ebd5f1aa)" d="M 244.053867 21.93625 
L 333.4883 21.93625 
" style="fill:none;stroke:#000000;stroke-linecap:square;stroke-opacity:0.1;stroke-width:0.6;"/>
     </g>
     <g id="line2d_108">
      <g>
       <use style="stroke:#000000;stroke-width:1.41732;" x="244.053867" xlink:href="#m437b28441a" y="21.93625"/>
      </g>
     </g>
    </g>
    <g id="ytick_49">
     <g id="line2d_109">
      <g>
       <use style="stroke:#000000;stroke-width:1.133856;" x="244.053867" xlink:href="#m797fd98ad3" y="120.238402"/>
      </g>
     </g>
    </g>
    <g id="ytick_50">
     <g id="line2d_110">
      <g>
       <use style="stroke:#000000;stroke-width:1.133856;" x="244.053867" xlink:href="#m797fd98ad3" y="115.064605"/>
      </g>
     </g>
    </g>
    <g id="ytick_51">
     <g id="line2d_111">
      <g>
       <use style="stroke:#000000;stroke-width:1.133856;" x="244.053867" xlink:href="#m797fd98ad3" y="109.890807"/>
      </g>
     </g>
    </g>
    <g id="ytick_52">
     <g id="line2d_112">
      <g>
       <use style="stroke:#000000;stroke-width:1.133856;" x="244.053867" xlink:href="#m797fd98ad3" y="99.543212"/>
      </g>
     </g>
    </g>
    <g id="ytick_53">
     <g id="line2d_113">
      <g>
       <use style="stroke:#000000;stroke-width:1.133856;" x="244.053867" xlink:href="#m797fd98ad3" y="94.369415"/>
      </g>
     </g>
    </g>
    <g id="ytick_54">
     <g id="line2d_114">
      <g>
       <use style="stroke:#000000;stroke-width:1.133856;" x="244.053867" xlink:href="#m797fd98ad3" y="89.195617"/>
      </g>
     </g>
    </g>
    <g id="ytick_55">
     <g id="line2d_115">
      <g>
       <use style="stroke:#000000;stroke-width:1.133856;" x="244.053867" xlink:href="#m797fd98ad3" y="78.848022"/>
      </g>
     </g>
    </g>
    <g id="ytick_56">
     <g id="line2d_116">
      <g>
       <use style="stroke:#000000;stroke-width:1.133856;" x="244.053867" xlink:href="#m797fd98ad3" y="73.674225"/>
      </g>
     </g>
    </g>
    <g id="ytick_57">
     <g id="line2d_117">
      <g>
       <use style="stroke:#000000;stroke-width:1.133856;" x="244.053867" xlink:href="#m797fd98ad3" y="68.500428"/>
      </g>
     </g>
    </g>
    <g id="ytick_58">
     <g id="line2d_118">
      <g>
       <use style="stroke:#000000;stroke-width:1.133856;" x="244.053867" xlink:href="#m797fd98ad3" y="58.152832"/>
      </g>
     </g>
    </g>
    <g id="ytick_59">
     <g id="line2d_119">
      <g>
       <use style="stroke:#000000;stroke-width:1.133856;" x="244.053867" xlink:href="#m797fd98ad3" y="52.979035"/>
      </g>
     </g>
    </g>
    <g id="ytick_60">
     <g id="line2d_120">
      <g>
       <use style="stroke:#000000;stroke-width:1.133856;" x="244.053867" xlink:href="#m797fd98ad3" y="47.805237"/>
      </g>
     </g>
    </g>
    <g id="ytick_61">
     <g id="line2d_121">
      <g>
       <use style="stroke:#000000;stroke-width:1.133856;" x="244.053867" xlink:href="#m797fd98ad3" y="37.457642"/>
      </g>
     </g>
    </g>
    <g id="ytick_62">
     <g id="line2d_122">
      <g>
       <use style="stroke:#000000;stroke-width:1.133856;" x="244.053867" xlink:href="#m797fd98ad3" y="32.283845"/>
      </g>
     </g>
    </g>
    <g id="ytick_63">
     <g id="line2d_123">
      <g>
       <use style="stroke:#000000;stroke-width:1.133856;" x="244.053867" xlink:href="#m797fd98ad3" y="27.110047"/>
      </g>
     </g>
    </g>
   </g>
   <g id="patch_13">
    <path d="M 244.053867 125.4122 
L 244.053867 21.93625 
" style="fill:none;stroke:#000000;stroke-linecap:square;stroke-linejoin:miter;stroke-width:1.41732;"/>
   </g>
   <g id="patch_14">
    <path d="M 333.4883 125.4122 
L 333.4883 21.93625 
" style="fill:none;stroke:#000000;stroke-linecap:square;stroke-linejoin:miter;stroke-width:1.41732;"/>
   </g>
   <g id="patch_15">
    <path d="M 244.053867 125.4122 
L 333.4883 125.4122 
" style="fill:none;stroke:#000000;stroke-linecap:square;stroke-linejoin:miter;stroke-width:1.41732;"/>
   </g>
   <g id="patch_16">
    <path d="M 244.053867 21.93625 
L 333.4883 21.93625 
" style="fill:none;stroke:#000000;stroke-linecap:square;stroke-linejoin:miter;stroke-width:1.41732;"/>
   </g>
  </g>
  <g id="text_18">
   <!-- Arguments with arbitrary units -->
   <defs>
    <path d="M 24.90625 27.59375 
L 34.203125 53.796875 
L 34.40625 53.796875 
L 43.40625 27.59375 
z
M 26.40625 71.40625 
L -0.59375 0 
L 15.203125 0 
L 20.796875 15.90625 
L 47.5 15.90625 
L 52.90625 0 
L 69.203125 0 
L 42.5 71.40625 
z
" id="HelveticaNeue-Bold-65"/>
    <path d="M 5.40625 51.703125 
L 5.40625 0 
L 19.59375 0 
L 19.59375 23.296875 
Q 19.59375 26.796875 20.296875 29.796875 
Q 21 32.796875 22.640625 35.046875 
Q 24.296875 37.296875 27 38.59375 
Q 29.703125 39.90625 33.59375 39.90625 
Q 34.90625 39.90625 36.296875 39.75 
Q 37.703125 39.59375 38.703125 39.40625 
L 38.703125 52.59375 
Q 37 53.09375 35.59375 53.09375 
Q 32.90625 53.09375 30.40625 52.296875 
Q 27.90625 51.5 25.703125 50.046875 
Q 23.5 48.59375 21.796875 46.546875 
Q 20.09375 44.5 19.09375 42.09375 
L 18.90625 42.09375 
L 18.90625 51.703125 
z
" id="HelveticaNeue-Bold-114"/>
    <path d="M 29.5 12.203125 
Q 26.203125 12.203125 24 13.59375 
Q 21.796875 15 20.4375 17.203125 
Q 19.09375 19.40625 18.546875 22.15625 
Q 18 24.90625 18 27.703125 
Q 18 30.59375 18.640625 33.25 
Q 19.296875 35.90625 20.75 37.953125 
Q 22.203125 40 24.34375 41.203125 
Q 26.5 42.40625 29.5 42.40625 
Q 33 42.40625 35.296875 41.09375 
Q 37.59375 39.796875 39 37.59375 
Q 40.40625 35.40625 41 32.546875 
Q 41.59375 29.703125 41.59375 26.5 
Q 41.59375 23.703125 40.84375 21.140625 
Q 40.09375 18.59375 38.59375 16.59375 
Q 37.09375 14.59375 34.796875 13.390625 
Q 32.5 12.203125 29.5 12.203125 
z
M 55.09375 3.296875 
L 55.09375 51.703125 
L 41.59375 51.703125 
L 41.59375 44.796875 
L 41.40625 44.796875 
Q 38.796875 49.296875 34.9375 51.1875 
Q 31.09375 53.09375 26 53.09375 
Q 20.59375 53.09375 16.4375 51 
Q 12.296875 48.90625 9.5 45.34375 
Q 6.703125 41.796875 5.25 37.140625 
Q 3.796875 32.5 3.796875 27.5 
Q 3.796875 22.203125 5.046875 17.453125 
Q 6.296875 12.703125 9 9.140625 
Q 11.703125 5.59375 15.890625 3.546875 
Q 20.09375 1.5 25.90625 1.5 
Q 30.59375 1.5 34.84375 3.453125 
Q 39.09375 5.40625 41.40625 9.5 
L 41.59375 9.5 
L 41.59375 2.703125 
Q 41.703125 -2.796875 38.953125 -6.390625 
Q 36.203125 -10 30.203125 -10 
Q 26.40625 -10 23.5 -8.453125 
Q 20.59375 -6.90625 19.59375 -2.90625 
L 5.5 -2.90625 
Q 5.796875 -7.296875 7.9375 -10.4375 
Q 10.09375 -13.59375 13.34375 -15.59375 
Q 16.59375 -17.59375 20.546875 -18.546875 
Q 24.5 -19.5 28.296875 -19.5 
Q 37.203125 -19.5 42.5 -17.09375 
Q 47.796875 -14.703125 50.59375 -11.25 
Q 53.40625 -7.796875 54.25 -3.796875 
Q 55.09375 0.203125 55.09375 3.296875 
z
" id="HelveticaNeue-Bold-103"/>
    <path d="M 53.90625 0 
L 53.90625 51.703125 
L 39.703125 51.703125 
L 39.703125 24.59375 
Q 39.703125 16.703125 37.09375 13.25 
Q 34.5 9.796875 28.703125 9.796875 
Q 23.59375 9.796875 21.59375 12.9375 
Q 19.59375 16.09375 19.59375 22.5 
L 19.59375 51.703125 
L 5.40625 51.703125 
L 5.40625 19.90625 
Q 5.40625 15.09375 6.25 11.140625 
Q 7.09375 7.203125 9.1875 4.453125 
Q 11.296875 1.703125 14.9375 0.203125 
Q 18.59375 -1.296875 24.296875 -1.296875 
Q 28.796875 -1.296875 33.09375 0.703125 
Q 37.40625 2.703125 40.09375 7.203125 
L 40.40625 7.203125 
L 40.40625 0 
z
" id="HelveticaNeue-Bold-117"/>
    <path d="M 5.796875 51.703125 
L 5.796875 0 
L 20 0 
L 20 30 
Q 20 33.796875 21.09375 36.140625 
Q 22.203125 38.5 23.75 39.75 
Q 25.296875 41 26.9375 41.453125 
Q 28.59375 41.90625 29.59375 41.90625 
Q 33 41.90625 34.75 40.75 
Q 36.5 39.59375 37.25 37.6875 
Q 38 35.796875 38.09375 33.546875 
Q 38.203125 31.296875 38.203125 29 
L 38.203125 0 
L 52.40625 0 
L 52.40625 28.796875 
Q 52.40625 31.203125 52.75 33.546875 
Q 53.09375 35.90625 54.140625 37.75 
Q 55.203125 39.59375 57.046875 40.75 
Q 58.90625 41.90625 61.90625 41.90625 
Q 64.90625 41.90625 66.65625 40.90625 
Q 68.40625 39.90625 69.296875 38.203125 
Q 70.203125 36.5 70.390625 34.203125 
Q 70.59375 31.90625 70.59375 29.296875 
L 70.59375 0 
L 84.796875 0 
L 84.796875 34.59375 
Q 84.796875 39.59375 83.390625 43.140625 
Q 82 46.703125 79.5 48.890625 
Q 77 51.09375 73.5 52.09375 
Q 70 53.09375 65.90625 53.09375 
Q 60.5 53.09375 56.546875 50.5 
Q 52.59375 47.90625 50.296875 44.5 
Q 48.203125 49.296875 44.140625 51.1875 
Q 40.09375 53.09375 35.203125 53.09375 
Q 30.09375 53.09375 26.140625 50.890625 
Q 22.203125 48.703125 19.40625 44.703125 
L 19.203125 44.703125 
L 19.203125 51.703125 
z
" id="HelveticaNeue-Bold-109"/>
    <path d="M 40.203125 31.40625 
L 17.09375 31.40625 
Q 17.203125 32.90625 17.75 34.796875 
Q 18.296875 36.703125 19.640625 38.390625 
Q 21 40.09375 23.25 41.25 
Q 25.5 42.40625 28.90625 42.40625 
Q 34.09375 42.40625 36.640625 39.59375 
Q 39.203125 36.796875 40.203125 31.40625 
z
M 17.09375 22.40625 
L 54.40625 22.40625 
Q 54.796875 28.40625 53.390625 33.90625 
Q 52 39.40625 48.84375 43.703125 
Q 45.703125 48 40.796875 50.546875 
Q 35.90625 53.09375 29.296875 53.09375 
Q 23.40625 53.09375 18.546875 51 
Q 13.703125 48.90625 10.203125 45.25 
Q 6.703125 41.59375 4.796875 36.59375 
Q 2.90625 31.59375 2.90625 25.796875 
Q 2.90625 19.796875 4.75 14.796875 
Q 6.59375 9.796875 10 6.1875 
Q 13.40625 2.59375 18.296875 0.640625 
Q 23.203125 -1.296875 29.296875 -1.296875 
Q 38.09375 -1.296875 44.296875 2.703125 
Q 50.5 6.703125 53.5 16 
L 41 16 
Q 40.296875 13.59375 37.1875 11.4375 
Q 34.09375 9.296875 29.796875 9.296875 
Q 23.796875 9.296875 20.59375 12.390625 
Q 17.40625 15.5 17.09375 22.40625 
z
" id="HelveticaNeue-Bold-101"/>
    <path d="M 5.40625 51.703125 
L 5.40625 0 
L 19.59375 0 
L 19.59375 27.09375 
Q 19.59375 35 22.1875 38.453125 
Q 24.796875 41.90625 30.59375 41.90625 
Q 35.703125 41.90625 37.703125 38.75 
Q 39.703125 35.59375 39.703125 29.203125 
L 39.703125 0 
L 53.90625 0 
L 53.90625 31.796875 
Q 53.90625 36.59375 53.046875 40.546875 
Q 52.203125 44.5 50.09375 47.25 
Q 48 50 44.34375 51.546875 
Q 40.703125 53.09375 35 53.09375 
Q 30.5 53.09375 26.203125 51.046875 
Q 21.90625 49 19.203125 44.5 
L 18.90625 44.5 
L 18.90625 51.703125 
z
" id="HelveticaNeue-Bold-110"/>
    <path d="M 23.40625 51.703125 
L 23.40625 67.203125 
L 9.203125 67.203125 
L 9.203125 51.703125 
L 0.59375 51.703125 
L 0.59375 42.203125 
L 9.203125 42.203125 
L 9.203125 11.703125 
Q 9.203125 7.796875 10.5 5.390625 
Q 11.796875 3 14.046875 1.703125 
Q 16.296875 0.40625 19.25 -0.046875 
Q 22.203125 -0.5 25.5 -0.5 
Q 27.59375 -0.5 29.796875 -0.390625 
Q 32 -0.296875 33.796875 0 
L 33.796875 11 
Q 32.796875 10.796875 31.6875 10.6875 
Q 30.59375 10.59375 29.40625 10.59375 
Q 25.796875 10.59375 24.59375 11.796875 
Q 23.40625 13 23.40625 16.59375 
L 23.40625 42.203125 
L 33.796875 42.203125 
L 33.796875 51.703125 
z
" id="HelveticaNeue-Bold-116"/>
    <path d="M 16.40625 16.796875 
L 2.90625 16.796875 
Q 3.09375 11.59375 5.25 8.140625 
Q 7.40625 4.703125 10.75 2.59375 
Q 14.09375 0.5 18.390625 -0.390625 
Q 22.703125 -1.296875 27.203125 -1.296875 
Q 31.59375 -1.296875 35.84375 -0.4375 
Q 40.09375 0.40625 43.390625 2.5 
Q 46.703125 4.59375 48.75 8.046875 
Q 50.796875 11.5 50.796875 16.59375 
Q 50.796875 20.203125 49.390625 22.640625 
Q 48 25.09375 45.703125 26.75 
Q 43.40625 28.40625 40.453125 29.40625 
Q 37.5 30.40625 34.40625 31.09375 
Q 31.40625 31.796875 28.5 32.390625 
Q 25.59375 33 23.34375 33.75 
Q 21.09375 34.5 19.6875 35.703125 
Q 18.296875 36.90625 18.296875 38.796875 
Q 18.296875 40.40625 19.09375 41.34375 
Q 19.90625 42.296875 21.046875 42.796875 
Q 22.203125 43.296875 23.59375 43.4375 
Q 25 43.59375 26.203125 43.59375 
Q 30 43.59375 32.796875 42.140625 
Q 35.59375 40.703125 35.90625 36.59375 
L 49.40625 36.59375 
Q 49 41.40625 46.953125 44.546875 
Q 44.90625 47.703125 41.796875 49.59375 
Q 38.703125 51.5 34.75 52.296875 
Q 30.796875 53.09375 26.59375 53.09375 
Q 22.40625 53.09375 18.40625 52.34375 
Q 14.40625 51.59375 11.203125 49.75 
Q 8 47.90625 6.046875 44.703125 
Q 4.09375 41.5 4.09375 36.5 
Q 4.09375 33.09375 5.5 30.75 
Q 6.90625 28.40625 9.203125 26.84375 
Q 11.5 25.296875 14.453125 24.34375 
Q 17.40625 23.40625 20.5 22.703125 
Q 28.09375 21.09375 32.34375 19.5 
Q 36.59375 17.90625 36.59375 14.703125 
Q 36.59375 12.796875 35.6875 11.546875 
Q 34.796875 10.296875 33.4375 9.546875 
Q 32.09375 8.796875 30.4375 8.4375 
Q 28.796875 8.09375 27.296875 8.09375 
Q 25.203125 8.09375 23.25 8.59375 
Q 21.296875 9.09375 19.796875 10.140625 
Q 18.296875 11.203125 17.34375 12.84375 
Q 16.40625 14.5 16.40625 16.796875 
z
" id="HelveticaNeue-Bold-115"/>
    <path id="HelveticaNeue-Bold-32"/>
    <path d="M 64.5 0 
L 80.796875 51.703125 
L 66.203125 51.703125 
L 56.703125 16.703125 
L 56.5 16.703125 
L 47.703125 51.703125 
L 33.90625 51.703125 
L 25.296875 16.59375 
L 25.09375 16.59375 
L 15.59375 51.703125 
L 0.59375 51.703125 
L 17 0 
L 31.703125 0 
L 40.5 34.703125 
L 40.703125 34.703125 
L 49.90625 0 
z
" id="HelveticaNeue-Bold-119"/>
    <path d="M 20 59.703125 
L 20 71.40625 
L 5.796875 71.40625 
L 5.796875 59.703125 
z
M 5.796875 51.703125 
L 5.796875 0 
L 20 0 
L 20 51.703125 
z
" id="HelveticaNeue-Bold-105"/>
    <path d="M 5.40625 71.40625 
L 5.40625 0 
L 19.59375 0 
L 19.59375 27.09375 
Q 19.59375 35 22.1875 38.453125 
Q 24.796875 41.90625 30.59375 41.90625 
Q 35.703125 41.90625 37.703125 38.75 
Q 39.703125 35.59375 39.703125 29.203125 
L 39.703125 0 
L 53.90625 0 
L 53.90625 31.796875 
Q 53.90625 36.59375 53.046875 40.546875 
Q 52.203125 44.5 50.09375 47.25 
Q 48 50 44.34375 51.546875 
Q 40.703125 53.09375 35 53.09375 
Q 31 53.09375 26.796875 51.046875 
Q 22.59375 49 19.90625 44.5 
L 19.59375 44.5 
L 19.59375 71.40625 
z
" id="HelveticaNeue-Bold-104"/>
    <path d="M 4.796875 35.796875 
Q 5.09375 40.796875 7.296875 44.09375 
Q 9.5 47.40625 12.890625 49.40625 
Q 16.296875 51.40625 20.546875 52.25 
Q 24.796875 53.09375 29.09375 53.09375 
Q 33 53.09375 37 52.546875 
Q 41 52 44.296875 50.390625 
Q 47.59375 48.796875 49.6875 45.9375 
Q 51.796875 43.09375 51.796875 38.40625 
L 51.796875 11.5 
Q 51.796875 8 52.1875 4.796875 
Q 52.59375 1.59375 53.59375 0 
L 39.203125 0 
Q 38.796875 1.203125 38.546875 2.453125 
Q 38.296875 3.703125 38.203125 5 
Q 34.796875 1.5 30.1875 0.09375 
Q 25.59375 -1.296875 20.796875 -1.296875 
Q 17.09375 -1.296875 13.890625 -0.390625 
Q 10.703125 0.5 8.296875 2.390625 
Q 5.90625 4.296875 4.546875 7.1875 
Q 3.203125 10.09375 3.203125 14.09375 
Q 3.203125 18.5 4.75 21.34375 
Q 6.296875 24.203125 8.75 25.890625 
Q 11.203125 27.59375 14.34375 28.4375 
Q 17.5 29.296875 20.703125 29.796875 
Q 23.90625 30.296875 27 30.59375 
Q 30.09375 30.90625 32.5 31.5 
Q 34.90625 32.09375 36.296875 33.25 
Q 37.703125 34.40625 37.59375 36.59375 
Q 37.59375 38.90625 36.84375 40.25 
Q 36.09375 41.59375 34.84375 42.34375 
Q 33.59375 43.09375 31.9375 43.34375 
Q 30.296875 43.59375 28.40625 43.59375 
Q 24.203125 43.59375 21.796875 41.796875 
Q 19.40625 40 19 35.796875 
z
M 37.59375 25.296875 
Q 36.703125 24.5 35.34375 24.046875 
Q 34 23.59375 32.453125 23.296875 
Q 30.90625 23 29.203125 22.796875 
Q 27.5 22.59375 25.796875 22.296875 
Q 24.203125 22 22.640625 21.5 
Q 21.09375 21 19.9375 20.140625 
Q 18.796875 19.296875 18.09375 18 
Q 17.40625 16.703125 17.40625 14.703125 
Q 17.40625 12.796875 18.09375 11.5 
Q 18.796875 10.203125 20 9.453125 
Q 21.203125 8.703125 22.796875 8.390625 
Q 24.40625 8.09375 26.09375 8.09375 
Q 30.296875 8.09375 32.59375 9.5 
Q 34.90625 10.90625 36 12.84375 
Q 37.09375 14.796875 37.34375 16.796875 
Q 37.59375 18.796875 37.59375 20 
z
" id="HelveticaNeue-Bold-97"/>
    <path d="M 43.296875 25.796875 
Q 43.296875 22.59375 42.59375 19.59375 
Q 41.90625 16.59375 40.40625 14.296875 
Q 38.90625 12 36.65625 10.640625 
Q 34.40625 9.296875 31.203125 9.296875 
Q 28.09375 9.296875 25.796875 10.640625 
Q 23.5 12 22 14.296875 
Q 20.5 16.59375 19.796875 19.59375 
Q 19.09375 22.59375 19.09375 25.796875 
Q 19.09375 29.09375 19.796875 32.09375 
Q 20.5 35.09375 22 37.390625 
Q 23.5 39.703125 25.796875 41.046875 
Q 28.09375 42.40625 31.203125 42.40625 
Q 34.40625 42.40625 36.65625 41.046875 
Q 38.90625 39.703125 40.40625 37.390625 
Q 41.90625 35.09375 42.59375 32.09375 
Q 43.296875 29.09375 43.296875 25.796875 
z
M 5.40625 71.40625 
L 5.40625 0 
L 18.90625 0 
L 18.90625 6.59375 
L 19.09375 6.59375 
Q 21.40625 2.296875 25.90625 0.5 
Q 30.40625 -1.296875 36.09375 -1.296875 
Q 40 -1.296875 43.796875 0.296875 
Q 47.59375 1.90625 50.640625 5.203125 
Q 53.703125 8.5 55.59375 13.640625 
Q 57.5 18.796875 57.5 25.90625 
Q 57.5 33 55.59375 38.140625 
Q 53.703125 43.296875 50.640625 46.59375 
Q 47.59375 49.90625 43.796875 51.5 
Q 40 53.09375 36.09375 53.09375 
Q 31.296875 53.09375 26.84375 51.25 
Q 22.40625 49.40625 19.796875 45.40625 
L 19.59375 45.40625 
L 19.59375 71.40625 
z
" id="HelveticaNeue-Bold-98"/>
    <path d="M 30.90625 -6.40625 
L 52.5 51.703125 
L 37.796875 51.703125 
L 26.5 16.296875 
L 26.296875 16.296875 
L 14.59375 51.703125 
L -0.5 51.703125 
L 17.59375 3.203125 
Q 18.203125 1.703125 18.203125 0 
Q 18.203125 -2.296875 16.84375 -4.1875 
Q 15.5 -6.09375 12.703125 -6.40625 
Q 10.59375 -6.5 8.5 -6.296875 
Q 6.40625 -6.09375 4.40625 -5.90625 
L 4.40625 -17.59375 
Q 6.59375 -17.796875 8.75 -17.9375 
Q 10.90625 -18.09375 13.09375 -18.09375 
Q 20.40625 -18.09375 24.5 -15.390625 
Q 28.59375 -12.703125 30.90625 -6.40625 
z
" id="HelveticaNeue-Bold-121"/>
   </defs>
   <g transform="translate(97.054962 12.6325)scale(0.12 -0.12)">
    <use xlink:href="#HelveticaNeue-Bold-65"/>
    <use x="68.499985" xlink:href="#HelveticaNeue-Bold-114"/>
    <use x="107.368729" xlink:href="#HelveticaNeue-Bold-103"/>
    <use x="168.468719" xlink:href="#HelveticaNeue-Bold-117"/>
    <use x="227.768707" xlink:href="#HelveticaNeue-Bold-109"/>
    <use x="318.368698" xlink:href="#HelveticaNeue-Bold-101"/>
    <use x="375.768692" xlink:href="#HelveticaNeue-Bold-110"/>
    <use x="435.06868" xlink:href="#HelveticaNeue-Bold-116"/>
    <use x="470.268677" xlink:href="#HelveticaNeue-Bold-115"/>
    <use x="523.968674" xlink:href="#HelveticaNeue-Bold-32"/>
    <use x="551.768661" xlink:href="#HelveticaNeue-Bold-119"/>
    <use x="633.168655" xlink:href="#HelveticaNeue-Bold-105"/>
    <use x="658.968643" xlink:href="#HelveticaNeue-Bold-116"/>
    <use x="694.16864" xlink:href="#HelveticaNeue-Bold-104"/>
    <use x="753.468628" xlink:href="#HelveticaNeue-Bold-32"/>
    <use x="781.268616" xlink:href="#HelveticaNeue-Bold-97"/>
    <use x="838.66861" xlink:href="#HelveticaNeue-Bold-114"/>
    <use x="877.568604" xlink:href="#HelveticaNeue-Bold-98"/>
    <use x="938.668594" xlink:href="#HelveticaNeue-Bold-105"/>
    <use x="964.468582" xlink:href="#HelveticaNeue-Bold-116"/>
    <use x="999.668579" xlink:href="#HelveticaNeue-Bold-114"/>
    <use x="1038.568573" xlink:href="#HelveticaNeue-Bold-97"/>
    <use x="1095.968567" xlink:href="#HelveticaNeue-Bold-114"/>
    <use x="1134.868561" xlink:href="#HelveticaNeue-Bold-121"/>
    <use x="1186.768555" xlink:href="#HelveticaNeue-Bold-32"/>
    <use x="1214.568542" xlink:href="#HelveticaNeue-Bold-117"/>
    <use x="1273.86853" xlink:href="#HelveticaNeue-Bold-110"/>
    <use x="1333.168518" xlink:href="#HelveticaNeue-Bold-105"/>
    <use x="1358.968506" xlink:href="#HelveticaNeue-Bold-116"/>
    <use x="1394.168503" xlink:href="#HelveticaNeue-Bold-115"/>
   </g>
  </g>
 </g>
 <defs>
  <clipPath id="pdeb17e5b45">
   <rect height="103.47595" width="89.434433" x="35.185" y="21.93625"/>
  </clipPath>
  <clipPath id="p1ad88b5221">
   <rect height="103.47595" width="89.434433" x="134.619433" y="21.93625"/>
  </clipPath>
  <clipPath id="p18ebd5f1aa">
   <rect height="103.47595" width="89.434433" x="244.053867" y="21.93625"/>
  </clipPath>
 </defs>
</svg>
