<?xml version="1.0" encoding="utf-8" standalone="no"?>
<!DOCTYPE svg PUBLIC "-//W3C//DTD SVG 1.1//EN"
  "http://www.w3.org/Graphics/SVG/1.1/DTD/svg11.dtd">
<!-- Created with matplotlib (https://matplotlib.org/) -->
<svg height="154.3pt" version="1.1" viewBox="0 0 414.5 154.3" width="414.5pt" xmlns="http://www.w3.org/2000/svg" xmlns:xlink="http://www.w3.org/1999/xlink">
 <defs>
  <style type="text/css">
*{stroke-linecap:butt;stroke-linejoin:round;}
  </style>
 </defs>
 <g id="figure_1">
  <g id="patch_1">
   <path d="M 0 154.3 
L 414.4475 154.3 
L 414.4475 -0.270313 
L 0 -0.270313 
z
" style="fill:#f2f2f2;"/>
  </g>
  <g id="axes_1">
   <g id="patch_2">
    <path d="M 19.2475 137.01125 
L 141.6475 137.01125 
L 141.6475 14.61125 
L 19.2475 14.61125 
z
" style="fill:#ffffff;"/>
   </g>
   <g id="matplotlib.axis_1">
    <g id="xtick_1">
     <g id="line2d_1">
      <path clip-path="url(#p3a87a1f368)" d="M 19.2475 137.01125 
L 19.2475 14.61125 
" style="fill:none;stroke:#000000;stroke-linecap:square;stroke-opacity:0.1;stroke-width:0.6;"/>
     </g>
     <g id="line2d_2">
      <defs>
       <path d="M 0 0 
L 0 4 
" id="m6bdeeacb84" style="stroke:#000000;stroke-width:0.6;"/>
      </defs>
      <g>
       <use style="stroke:#000000;stroke-width:0.6;" x="19.2475" xlink:href="#m6bdeeacb84" y="137.01125"/>
      </g>
     </g>
     <g id="text_1">
      <!-- 0 -->
      <defs>
       <path d="M 13.203125 34.90625 
Q 13.203125 37.5 13.25 40.640625 
Q 13.296875 43.796875 13.75 46.9375 
Q 14.203125 50.09375 15.046875 53.09375 
Q 15.90625 56.09375 17.546875 58.34375 
Q 19.203125 60.59375 21.703125 62 
Q 24.203125 63.40625 27.796875 63.40625 
Q 31.40625 63.40625 33.90625 62 
Q 36.40625 60.59375 38.046875 58.34375 
Q 39.703125 56.09375 40.546875 53.09375 
Q 41.40625 50.09375 41.84375 46.9375 
Q 42.296875 43.796875 42.34375 40.640625 
Q 42.40625 37.5 42.40625 34.90625 
Q 42.40625 30.90625 42.15625 25.953125 
Q 41.90625 21 40.546875 16.640625 
Q 39.203125 12.296875 36.203125 9.296875 
Q 33.203125 6.296875 27.796875 6.296875 
Q 22.40625 6.296875 19.40625 9.296875 
Q 16.40625 12.296875 15.046875 16.640625 
Q 13.703125 21 13.453125 25.953125 
Q 13.203125 30.90625 13.203125 34.90625 
z
M 4.203125 34.796875 
Q 4.203125 30.90625 4.390625 26.703125 
Q 4.59375 22.5 5.390625 18.5 
Q 6.203125 14.5 7.703125 10.953125 
Q 9.203125 7.40625 11.796875 4.703125 
Q 14.40625 2 18.34375 0.453125 
Q 22.296875 -1.09375 27.796875 -1.09375 
Q 33.40625 -1.09375 37.296875 0.453125 
Q 41.203125 2 43.796875 4.703125 
Q 46.40625 7.40625 47.90625 10.953125 
Q 49.40625 14.5 50.203125 18.5 
Q 51 22.5 51.203125 26.703125 
Q 51.40625 30.90625 51.40625 34.796875 
Q 51.40625 38.703125 51.203125 42.890625 
Q 51 47.09375 50.203125 51.09375 
Q 49.40625 55.09375 47.90625 58.6875 
Q 46.40625 62.296875 43.796875 65 
Q 41.203125 67.703125 37.25 69.296875 
Q 33.296875 70.90625 27.796875 70.90625 
Q 22.296875 70.90625 18.34375 69.296875 
Q 14.40625 67.703125 11.796875 65 
Q 9.203125 62.296875 7.703125 58.6875 
Q 6.203125 55.09375 5.390625 51.09375 
Q 4.59375 47.09375 4.390625 42.890625 
Q 4.203125 38.703125 4.203125 34.796875 
z
" id="HelveticaNeue-48"/>
      </defs>
      <g transform="translate(17.02375 148.72375)scale(0.08 -0.08)">
       <use xlink:href="#HelveticaNeue-48"/>
      </g>
     </g>
    </g>
    <g id="xtick_2">
     <g id="line2d_3">
      <path clip-path="url(#p3a87a1f368)" d="M 47.065682 137.01125 
L 47.065682 14.61125 
" style="fill:none;stroke:#000000;stroke-linecap:square;stroke-opacity:0.1;stroke-width:0.6;"/>
     </g>
     <g id="line2d_4">
      <g>
       <use style="stroke:#000000;stroke-width:0.6;" x="47.065682" xlink:href="#m6bdeeacb84" y="137.01125"/>
      </g>
     </g>
     <g id="text_2">
      <!-- 2.5 -->
      <defs>
       <path d="M 4.40625 45.796875 
L 12.90625 45.796875 
Q 12.796875 49 13.546875 52.140625 
Q 14.296875 55.296875 16 57.796875 
Q 17.703125 60.296875 20.34375 61.84375 
Q 23 63.40625 26.703125 63.40625 
Q 29.5 63.40625 32 62.5 
Q 34.5 61.59375 36.34375 59.890625 
Q 38.203125 58.203125 39.296875 55.84375 
Q 40.40625 53.5 40.40625 50.59375 
Q 40.40625 46.90625 39.25 44.09375 
Q 38.09375 41.296875 35.84375 38.890625 
Q 33.59375 36.5 30.1875 34.140625 
Q 26.796875 31.796875 22.296875 29 
Q 18.59375 26.796875 15.1875 24.296875 
Q 11.796875 21.796875 9.09375 18.5 
Q 6.40625 15.203125 4.65625 10.75 
Q 2.90625 6.296875 2.40625 0 
L 48.703125 0 
L 48.703125 7.5 
L 12.296875 7.5 
Q 12.90625 10.796875 14.84375 13.34375 
Q 16.796875 15.90625 19.546875 18.09375 
Q 22.296875 20.296875 25.59375 22.25 
Q 28.90625 24.203125 32.203125 26.203125 
Q 35.5 28.296875 38.59375 30.59375 
Q 41.703125 32.90625 44.09375 35.75 
Q 46.5 38.59375 47.953125 42.1875 
Q 49.40625 45.796875 49.40625 50.5 
Q 49.40625 55.5 47.65625 59.296875 
Q 45.90625 63.09375 42.90625 65.640625 
Q 39.90625 68.203125 35.84375 69.546875 
Q 31.796875 70.90625 27.203125 70.90625 
Q 21.59375 70.90625 17.1875 69 
Q 12.796875 67.09375 9.84375 63.75 
Q 6.90625 60.40625 5.5 55.796875 
Q 4.09375 51.203125 4.40625 45.796875 
z
" id="HelveticaNeue-50"/>
       <path d="M 8.296875 11.09375 
L 8.296875 0 
L 19.40625 0 
L 19.40625 11.09375 
z
" id="HelveticaNeue-46"/>
       <path d="M 47 62.203125 
L 47 69.703125 
L 12 69.703125 
L 5.40625 32.90625 
L 12.703125 32.5 
Q 15.203125 35.5 18.453125 37.34375 
Q 21.703125 39.203125 25.90625 39.203125 
Q 29.5 39.203125 32.453125 38 
Q 35.40625 36.796875 37.5 34.640625 
Q 39.59375 32.5 40.75 29.546875 
Q 41.90625 26.59375 41.90625 23.09375 
Q 41.90625 18.90625 40.703125 15.75 
Q 39.5 12.59375 37.453125 10.5 
Q 35.40625 8.40625 32.65625 7.34375 
Q 29.90625 6.296875 26.90625 6.296875 
Q 23.703125 6.296875 21.046875 7.25 
Q 18.40625 8.203125 16.453125 9.953125 
Q 14.5 11.703125 13.34375 14.046875 
Q 12.203125 16.40625 12 19.09375 
L 3.5 19.09375 
Q 3.59375 14.296875 5.390625 10.5 
Q 7.203125 6.703125 10.296875 4.140625 
Q 13.40625 1.59375 17.453125 0.25 
Q 21.5 -1.09375 26.09375 -1.09375 
Q 32.296875 -1.09375 36.9375 0.84375 
Q 41.59375 2.796875 44.6875 6.09375 
Q 47.796875 9.40625 49.34375 13.65625 
Q 50.90625 17.90625 50.90625 22.40625 
Q 50.90625 28.5 49.09375 33.046875 
Q 47.296875 37.59375 44.1875 40.640625 
Q 41.09375 43.703125 36.890625 45.203125 
Q 32.703125 46.703125 28 46.703125 
Q 24.40625 46.703125 20.75 45.453125 
Q 17.09375 44.203125 14.796875 41.59375 
L 14.59375 41.796875 
L 18.40625 62.203125 
z
" id="HelveticaNeue-53"/>
      </defs>
      <g transform="translate(41.506307 148.72375)scale(0.08 -0.08)">
       <use xlink:href="#HelveticaNeue-50"/>
       <use x="55.599991" xlink:href="#HelveticaNeue-46"/>
       <use x="83.399979" xlink:href="#HelveticaNeue-53"/>
      </g>
     </g>
    </g>
    <g id="xtick_3">
     <g id="line2d_5">
      <path clip-path="url(#p3a87a1f368)" d="M 74.883864 137.01125 
L 74.883864 14.61125 
" style="fill:none;stroke:#000000;stroke-linecap:square;stroke-opacity:0.1;stroke-width:0.6;"/>
     </g>
     <g id="line2d_6">
      <g>
       <use style="stroke:#000000;stroke-width:0.6;" x="74.883864" xlink:href="#m6bdeeacb84" y="137.01125"/>
      </g>
     </g>
     <g id="text_3">
      <!-- 5 -->
      <g transform="translate(72.660114 148.72375)scale(0.08 -0.08)">
       <use xlink:href="#HelveticaNeue-53"/>
      </g>
     </g>
    </g>
    <g id="xtick_4">
     <g id="line2d_7">
      <path clip-path="url(#p3a87a1f368)" d="M 102.702045 137.01125 
L 102.702045 14.61125 
" style="fill:none;stroke:#000000;stroke-linecap:square;stroke-opacity:0.1;stroke-width:0.6;"/>
     </g>
     <g id="line2d_8">
      <g>
       <use style="stroke:#000000;stroke-width:0.6;" x="102.702045" xlink:href="#m6bdeeacb84" y="137.01125"/>
      </g>
     </g>
     <g id="text_4">
      <!-- 7.5 -->
      <defs>
       <path d="M 50.90625 62.40625 
L 50.90625 69.703125 
L 5 69.703125 
L 5 61.703125 
L 42.203125 61.703125 
Q 36.59375 55.796875 31.75 48.796875 
Q 26.90625 41.796875 23.203125 33.9375 
Q 19.5 26.09375 17.140625 17.546875 
Q 14.796875 9 14.203125 0 
L 23.703125 0 
Q 24.203125 8.296875 26.5 17.09375 
Q 28.796875 25.90625 32.4375 34.203125 
Q 36.09375 42.5 40.796875 49.796875 
Q 45.5 57.09375 50.90625 62.40625 
z
" id="HelveticaNeue-55"/>
      </defs>
      <g transform="translate(97.14267 148.72375)scale(0.08 -0.08)">
       <use xlink:href="#HelveticaNeue-55"/>
       <use x="55.599991" xlink:href="#HelveticaNeue-46"/>
       <use x="83.399979" xlink:href="#HelveticaNeue-53"/>
      </g>
     </g>
    </g>
    <g id="xtick_5">
     <g id="line2d_9">
      <path clip-path="url(#p3a87a1f368)" d="M 130.520227 137.01125 
L 130.520227 14.61125 
" style="fill:none;stroke:#000000;stroke-linecap:square;stroke-opacity:0.1;stroke-width:0.6;"/>
     </g>
     <g id="line2d_10">
      <g>
       <use style="stroke:#000000;stroke-width:0.6;" x="130.520227" xlink:href="#m6bdeeacb84" y="137.01125"/>
      </g>
     </g>
     <g id="text_5">
      <!-- 10 -->
      <defs>
       <path d="M 35.59375 0 
L 35.59375 70.90625 
L 29.09375 70.90625 
Q 28.40625 66.90625 26.5 64.296875 
Q 24.59375 61.703125 21.84375 60.203125 
Q 19.09375 58.703125 15.6875 58.140625 
Q 12.296875 57.59375 8.703125 57.59375 
L 8.703125 50.796875 
L 27.09375 50.796875 
L 27.09375 0 
z
" id="HelveticaNeue-49"/>
      </defs>
      <g transform="translate(126.072727 148.72375)scale(0.08 -0.08)">
       <use xlink:href="#HelveticaNeue-49"/>
       <use x="55.599991" xlink:href="#HelveticaNeue-48"/>
      </g>
     </g>
    </g>
    <g id="xtick_6">
     <g id="line2d_11">
      <defs>
       <path d="M 0 0 
L 0 2 
" id="m0891d07858" style="stroke:#000000;stroke-width:0.48;"/>
      </defs>
      <g>
       <use style="stroke:#000000;stroke-width:0.48;" x="24.811136" xlink:href="#m0891d07858" y="137.01125"/>
      </g>
     </g>
    </g>
    <g id="xtick_7">
     <g id="line2d_12">
      <g>
       <use style="stroke:#000000;stroke-width:0.48;" x="30.374773" xlink:href="#m0891d07858" y="137.01125"/>
      </g>
     </g>
    </g>
    <g id="xtick_8">
     <g id="line2d_13">
      <g>
       <use style="stroke:#000000;stroke-width:0.48;" x="35.938409" xlink:href="#m0891d07858" y="137.01125"/>
      </g>
     </g>
    </g>
    <g id="xtick_9">
     <g id="line2d_14">
      <g>
       <use style="stroke:#000000;stroke-width:0.48;" x="41.502045" xlink:href="#m0891d07858" y="137.01125"/>
      </g>
     </g>
    </g>
    <g id="xtick_10">
     <g id="line2d_15">
      <g>
       <use style="stroke:#000000;stroke-width:0.48;" x="52.629318" xlink:href="#m0891d07858" y="137.01125"/>
      </g>
     </g>
    </g>
    <g id="xtick_11">
     <g id="line2d_16">
      <g>
       <use style="stroke:#000000;stroke-width:0.48;" x="58.192955" xlink:href="#m0891d07858" y="137.01125"/>
      </g>
     </g>
    </g>
    <g id="xtick_12">
     <g id="line2d_17">
      <g>
       <use style="stroke:#000000;stroke-width:0.48;" x="63.756591" xlink:href="#m0891d07858" y="137.01125"/>
      </g>
     </g>
    </g>
    <g id="xtick_13">
     <g id="line2d_18">
      <g>
       <use style="stroke:#000000;stroke-width:0.48;" x="69.320227" xlink:href="#m0891d07858" y="137.01125"/>
      </g>
     </g>
    </g>
    <g id="xtick_14">
     <g id="line2d_19">
      <g>
       <use style="stroke:#000000;stroke-width:0.48;" x="80.4475" xlink:href="#m0891d07858" y="137.01125"/>
      </g>
     </g>
    </g>
    <g id="xtick_15">
     <g id="line2d_20">
      <g>
       <use style="stroke:#000000;stroke-width:0.48;" x="86.011136" xlink:href="#m0891d07858" y="137.01125"/>
      </g>
     </g>
    </g>
    <g id="xtick_16">
     <g id="line2d_21">
      <g>
       <use style="stroke:#000000;stroke-width:0.48;" x="91.574773" xlink:href="#m0891d07858" y="137.01125"/>
      </g>
     </g>
    </g>
    <g id="xtick_17">
     <g id="line2d_22">
      <g>
       <use style="stroke:#000000;stroke-width:0.48;" x="97.138409" xlink:href="#m0891d07858" y="137.01125"/>
      </g>
     </g>
    </g>
    <g id="xtick_18">
     <g id="line2d_23">
      <g>
       <use style="stroke:#000000;stroke-width:0.48;" x="108.265682" xlink:href="#m0891d07858" y="137.01125"/>
      </g>
     </g>
    </g>
    <g id="xtick_19">
     <g id="line2d_24">
      <g>
       <use style="stroke:#000000;stroke-width:0.48;" x="113.829318" xlink:href="#m0891d07858" y="137.01125"/>
      </g>
     </g>
    </g>
    <g id="xtick_20">
     <g id="line2d_25">
      <g>
       <use style="stroke:#000000;stroke-width:0.48;" x="119.392955" xlink:href="#m0891d07858" y="137.01125"/>
      </g>
     </g>
    </g>
    <g id="xtick_21">
     <g id="line2d_26">
      <g>
       <use style="stroke:#000000;stroke-width:0.48;" x="124.956591" xlink:href="#m0891d07858" y="137.01125"/>
      </g>
     </g>
    </g>
    <g id="xtick_22">
     <g id="line2d_27">
      <g>
       <use style="stroke:#000000;stroke-width:0.48;" x="136.083864" xlink:href="#m0891d07858" y="137.01125"/>
      </g>
     </g>
    </g>
    <g id="xtick_23">
     <g id="line2d_28">
      <g>
       <use style="stroke:#000000;stroke-width:0.48;" x="141.6475" xlink:href="#m0891d07858" y="137.01125"/>
      </g>
     </g>
    </g>
   </g>
   <g id="matplotlib.axis_2">
    <g id="ytick_1">
     <g id="line2d_29">
      <path clip-path="url(#p3a87a1f368)" d="M 19.2475 106.768556 
L 141.6475 106.768556 
" style="fill:none;stroke:#000000;stroke-linecap:square;stroke-opacity:0.1;stroke-width:0.6;"/>
     </g>
     <g id="line2d_30">
      <defs>
       <path d="M 0 0 
L -4 0 
" id="mf62a2c35ce" style="stroke:#000000;stroke-width:0.6;"/>
      </defs>
      <g>
       <use style="stroke:#000000;stroke-width:0.6;" x="19.2475" xlink:href="#mf62a2c35ce" y="106.768556"/>
      </g>
     </g>
     <g id="text_6">
      <!-- −1 -->
      <defs>
       <path d="M 4.796875 28.703125 
L 4.796875 21.90625 
L 55.203125 21.90625 
L 55.203125 28.703125 
z
" id="HelveticaNeue-8722"/>
      </defs>
      <g transform="translate(4 109.624806)scale(0.08 -0.08)">
       <use xlink:href="#HelveticaNeue-8722"/>
       <use x="59.999985" xlink:href="#HelveticaNeue-49"/>
      </g>
     </g>
    </g>
    <g id="ytick_2">
     <g id="line2d_31">
      <path clip-path="url(#p3a87a1f368)" d="M 19.2475 75.216965 
L 141.6475 75.216965 
" style="fill:none;stroke:#000000;stroke-linecap:square;stroke-opacity:0.1;stroke-width:0.6;"/>
     </g>
     <g id="line2d_32">
      <g>
       <use style="stroke:#000000;stroke-width:0.6;" x="19.2475" xlink:href="#mf62a2c35ce" y="75.216965"/>
      </g>
     </g>
     <g id="text_7">
      <!-- 0 -->
      <g transform="translate(8.8 78.073215)scale(0.08 -0.08)">
       <use xlink:href="#HelveticaNeue-48"/>
      </g>
     </g>
    </g>
    <g id="ytick_3">
     <g id="line2d_33">
      <path clip-path="url(#p3a87a1f368)" d="M 19.2475 43.665374 
L 141.6475 43.665374 
" style="fill:none;stroke:#000000;stroke-linecap:square;stroke-opacity:0.1;stroke-width:0.6;"/>
     </g>
     <g id="line2d_34">
      <g>
       <use style="stroke:#000000;stroke-width:0.6;" x="19.2475" xlink:href="#mf62a2c35ce" y="43.665374"/>
      </g>
     </g>
     <g id="text_8">
      <!-- 1 -->
      <g transform="translate(8.8 46.521624)scale(0.08 -0.08)">
       <use xlink:href="#HelveticaNeue-49"/>
      </g>
     </g>
    </g>
    <g id="ytick_4">
     <g id="line2d_35">
      <defs>
       <path d="M 0 0 
L -2 0 
" id="md870aed31b" style="stroke:#000000;stroke-width:0.48;"/>
      </defs>
      <g>
       <use style="stroke:#000000;stroke-width:0.48;" x="19.2475" xlink:href="#md870aed31b" y="132.009829"/>
      </g>
     </g>
    </g>
    <g id="ytick_5">
     <g id="line2d_36">
      <g>
       <use style="stroke:#000000;stroke-width:0.48;" x="19.2475" xlink:href="#md870aed31b" y="125.69951"/>
      </g>
     </g>
    </g>
    <g id="ytick_6">
     <g id="line2d_37">
      <g>
       <use style="stroke:#000000;stroke-width:0.48;" x="19.2475" xlink:href="#md870aed31b" y="119.389192"/>
      </g>
     </g>
    </g>
    <g id="ytick_7">
     <g id="line2d_38">
      <g>
       <use style="stroke:#000000;stroke-width:0.48;" x="19.2475" xlink:href="#md870aed31b" y="113.078874"/>
      </g>
     </g>
    </g>
    <g id="ytick_8">
     <g id="line2d_39">
      <g>
       <use style="stroke:#000000;stroke-width:0.48;" x="19.2475" xlink:href="#md870aed31b" y="100.458237"/>
      </g>
     </g>
    </g>
    <g id="ytick_9">
     <g id="line2d_40">
      <g>
       <use style="stroke:#000000;stroke-width:0.48;" x="19.2475" xlink:href="#md870aed31b" y="94.147919"/>
      </g>
     </g>
    </g>
    <g id="ytick_10">
     <g id="line2d_41">
      <g>
       <use style="stroke:#000000;stroke-width:0.48;" x="19.2475" xlink:href="#md870aed31b" y="87.837601"/>
      </g>
     </g>
    </g>
    <g id="ytick_11">
     <g id="line2d_42">
      <g>
       <use style="stroke:#000000;stroke-width:0.48;" x="19.2475" xlink:href="#md870aed31b" y="81.527283"/>
      </g>
     </g>
    </g>
    <g id="ytick_12">
     <g id="line2d_43">
      <g>
       <use style="stroke:#000000;stroke-width:0.48;" x="19.2475" xlink:href="#md870aed31b" y="68.906646"/>
      </g>
     </g>
    </g>
    <g id="ytick_13">
     <g id="line2d_44">
      <g>
       <use style="stroke:#000000;stroke-width:0.48;" x="19.2475" xlink:href="#md870aed31b" y="62.596328"/>
      </g>
     </g>
    </g>
    <g id="ytick_14">
     <g id="line2d_45">
      <g>
       <use style="stroke:#000000;stroke-width:0.48;" x="19.2475" xlink:href="#md870aed31b" y="56.28601"/>
      </g>
     </g>
    </g>
    <g id="ytick_15">
     <g id="line2d_46">
      <g>
       <use style="stroke:#000000;stroke-width:0.48;" x="19.2475" xlink:href="#md870aed31b" y="49.975692"/>
      </g>
     </g>
    </g>
    <g id="ytick_16">
     <g id="line2d_47">
      <g>
       <use style="stroke:#000000;stroke-width:0.48;" x="19.2475" xlink:href="#md870aed31b" y="37.355055"/>
      </g>
     </g>
    </g>
    <g id="ytick_17">
     <g id="line2d_48">
      <g>
       <use style="stroke:#000000;stroke-width:0.48;" x="19.2475" xlink:href="#md870aed31b" y="31.044737"/>
      </g>
     </g>
    </g>
    <g id="ytick_18">
     <g id="line2d_49">
      <g>
       <use style="stroke:#000000;stroke-width:0.48;" x="19.2475" xlink:href="#md870aed31b" y="24.734419"/>
      </g>
     </g>
    </g>
    <g id="ytick_19">
     <g id="line2d_50">
      <g>
       <use style="stroke:#000000;stroke-width:0.48;" x="19.2475" xlink:href="#md870aed31b" y="18.424101"/>
      </g>
     </g>
    </g>
   </g>
   <g id="line2d_51">
    <path clip-path="url(#p3a87a1f368)" d="M 19.2475 75.302777 
L 30.374773 72.855555 
L 41.502045 80.947895 
L 52.629318 92.116967 
L 63.756591 90.820027 
L 74.883864 75.573253 
L 86.011136 84.626137 
L 97.138409 75.957735 
L 108.265682 59.256851 
L 119.392955 73.033913 
L 130.520227 68.277756 
L 141.6475 74.65652 
" style="fill:none;stroke:#2b4162;stroke-linecap:square;stroke-width:5;"/>
   </g>
   <g id="line2d_52">
    <path clip-path="url(#p3a87a1f368)" d="M 19.2475 60.032265 
L 30.374773 65.49206 
L 41.502045 74.791734 
L 52.629318 65.494653 
L 63.756591 78.166375 
L 74.883864 91.509639 
L 86.011136 94.613815 
L 97.138409 106.795907 
L 108.265682 111.690999 
L 119.392955 112.923823 
L 130.520227 124.699537 
L 141.6475 137.01125 
" style="fill:none;stroke:#fa9f42;stroke-linecap:square;stroke-width:5;"/>
   </g>
   <g id="line2d_53">
    <path clip-path="url(#p3a87a1f368)" d="M 19.2475 60.508552 
L 30.374773 59.593529 
L 41.502045 68.38313 
L 52.629318 56.382581 
L 63.756591 49.674203 
L 74.883864 34.166962 
L 86.011136 20.189355 
L 97.138409 22.755172 
L 108.265682 14.61125 
L 119.392955 26.897253 
L 130.520227 17.978282 
L 141.6475 18.534637 
" style="fill:none;stroke:#e0e0e2;stroke-linecap:square;stroke-width:5;"/>
   </g>
   <g id="line2d_54">
    <path clip-path="url(#p3a87a1f368)" d="M 19.2475 70.419534 
L 30.374773 61.17782 
L 41.502045 54.150226 
L 52.629318 55.498211 
L 63.756591 43.508966 
L 74.883864 46.210956 
L 86.011136 39.513098 
L 97.138409 29.874007 
L 108.265682 27.880911 
L 119.392955 41.487619 
L 130.520227 37.924954 
L 141.6475 30.546468 
" style="fill:none;stroke:#a21817;stroke-linecap:square;stroke-width:5;"/>
   </g>
   <g id="line2d_55">
    <path clip-path="url(#p3a87a1f368)" d="M 19.2475 66.982692 
L 30.374773 66.948611 
L 41.502045 67.238678 
L 52.629318 65.782813 
L 63.756591 62.088819 
L 74.883864 47.270542 
L 86.011136 34.488254 
L 97.138409 21.513027 
L 108.265682 34.401324 
L 119.392955 30.963697 
L 130.520227 37.504213 
L 141.6475 49.509895 
" style="fill:none;stroke:#0b6e4f;stroke-linecap:square;stroke-width:5;"/>
   </g>
   <g id="line2d_56">
    <path clip-path="url(#p3a87a1f368)" d="M 19.2475 74.617492 
L 30.374773 88.611942 
L 41.502045 91.860626 
L 52.629318 77.811013 
L 63.756591 77.640113 
L 74.883864 62.475868 
L 86.011136 72.04073 
L 97.138409 66.815476 
L 108.265682 55.884386 
L 119.392955 57.552076 
L 130.520227 51.561598 
L 141.6475 34.760505 
" style="fill:none;stroke:#2b4162;stroke-linecap:square;stroke-width:5;"/>
   </g>
   <g id="line2d_57">
    <path clip-path="url(#p3a87a1f368)" d="M 19.2475 60.349074 
L 30.374773 59.552893 
L 41.502045 54.908559 
L 52.629318 43.981485 
L 63.756591 56.615563 
L 74.883864 45.774337 
L 86.011136 35.265492 
L 97.138409 47.441444 
L 108.265682 46.685939 
L 119.392955 54.782652 
L 130.520227 59.502662 
L 141.6475 52.701521 
" style="fill:none;stroke:#fa9f42;stroke-linecap:square;stroke-width:5;"/>
   </g>
   <g id="line2d_58">
    <path clip-path="url(#p3a87a1f368)" d="M 19.2475 82.427758 
L 30.374773 82.810936 
L 41.502045 72.198427 
L 52.629318 63.871783 
L 63.756591 67.299707 
L 74.883864 63.869172 
L 86.011136 76.192368 
L 97.138409 89.737361 
L 108.265682 95.448427 
L 119.392955 105.285453 
L 130.520227 110.975023 
L 141.6475 95.129769 
" style="fill:none;stroke:#e0e0e2;stroke-linecap:square;stroke-width:5;"/>
   </g>
   <g id="line2d_59">
    <path clip-path="url(#p3a87a1f368)" d="M 19.2475 60.974966 
L 30.374773 74.529532 
L 41.502045 76.789196 
L 52.629318 82.326804 
L 63.756591 67.122744 
L 74.883864 58.486905 
L 86.011136 71.776353 
L 97.138409 73.502821 
L 108.265682 71.209124 
L 119.392955 57.573751 
L 130.520227 51.77741 
L 141.6475 63.421517 
" style="fill:none;stroke:#a21817;stroke-linecap:square;stroke-width:5;"/>
   </g>
   <g id="line2d_60">
    <path clip-path="url(#p3a87a1f368)" d="M 19.2475 66.851883 
L 30.374773 75.565792 
L 41.502045 65.283518 
L 52.629318 66.649367 
L 63.756591 72.425891 
L 74.883864 62.130283 
L 86.011136 58.222061 
L 97.138409 49.964599 
L 108.265682 45.001775 
L 119.392955 40.01471 
L 130.520227 48.894771 
L 141.6475 62.332607 
" style="fill:none;stroke:#0b6e4f;stroke-linecap:square;stroke-width:5;"/>
   </g>
   <g id="line2d_61">
    <path clip-path="url(#p3a87a1f368)" d="M 19.2475 69.273649 
L 30.374773 81.981034 
L 41.502045 65.319657 
L 52.629318 61.407903 
L 63.756591 57.272888 
L 74.883864 50.998339 
L 86.011136 50.135885 
L 97.138409 45.31273 
L 108.265682 32.871647 
L 119.392955 32.887477 
L 130.520227 44.162936 
L 141.6475 37.022147 
" style="fill:none;stroke:#2b4162;stroke-linecap:square;stroke-width:5;"/>
   </g>
   <g id="line2d_62">
    <path clip-path="url(#p3a87a1f368)" d="M 19.2475 74.16724 
L 30.374773 64.919542 
L 41.502045 50.451322 
L 52.629318 58.727996 
L 63.756591 56.322077 
L 74.883864 63.982828 
L 86.011136 50.133107 
L 97.138409 64.188414 
L 108.265682 76.883368 
L 119.392955 66.031595 
L 130.520227 60.747159 
L 141.6475 58.834414 
" style="fill:none;stroke:#fa9f42;stroke-linecap:square;stroke-width:5;"/>
   </g>
   <g id="patch_3">
    <path d="M 19.2475 137.01125 
L 19.2475 14.61125 
" style="fill:none;stroke:#000000;stroke-linecap:square;stroke-linejoin:miter;stroke-width:0.6;"/>
   </g>
   <g id="patch_4">
    <path d="M 141.6475 137.01125 
L 141.6475 14.61125 
" style="fill:none;stroke:#000000;stroke-linecap:square;stroke-linejoin:miter;stroke-width:0.6;"/>
   </g>
   <g id="patch_5">
    <path d="M 19.2475 137.01125 
L 141.6475 137.01125 
" style="fill:none;stroke:#000000;stroke-linecap:square;stroke-linejoin:miter;stroke-width:0.6;"/>
   </g>
   <g id="patch_6">
    <path d="M 19.2475 14.61125 
L 141.6475 14.61125 
" style="fill:none;stroke:#000000;stroke-linecap:square;stroke-linejoin:miter;stroke-width:0.6;"/>
   </g>
  </g>
  <g id="axes_2">
   <g id="patch_7">
    <path d="M 153.6475 137.01125 
L 276.0475 137.01125 
L 276.0475 14.61125 
L 153.6475 14.61125 
z
" style="fill:#ffffff;"/>
   </g>
   <g id="matplotlib.axis_3">
    <g id="xtick_24">
     <g id="line2d_63">
      <path clip-path="url(#p49a2e43550)" d="M 153.6475 137.01125 
L 153.6475 14.61125 
" style="fill:none;stroke:#000000;stroke-linecap:square;stroke-opacity:0.1;stroke-width:0.6;"/>
     </g>
     <g id="line2d_64">
      <g>
       <use style="stroke:#000000;stroke-width:0.6;" x="153.6475" xlink:href="#m6bdeeacb84" y="137.01125"/>
      </g>
     </g>
     <g id="text_9">
      <!-- 0 -->
      <g transform="translate(151.42375 148.72375)scale(0.08 -0.08)">
       <use xlink:href="#HelveticaNeue-48"/>
      </g>
     </g>
    </g>
    <g id="xtick_25">
     <g id="line2d_65">
      <path clip-path="url(#p49a2e43550)" d="M 181.465682 137.01125 
L 181.465682 14.61125 
" style="fill:none;stroke:#000000;stroke-linecap:square;stroke-opacity:0.1;stroke-width:0.6;"/>
     </g>
     <g id="line2d_66">
      <g>
       <use style="stroke:#000000;stroke-width:0.6;" x="181.465682" xlink:href="#m6bdeeacb84" y="137.01125"/>
      </g>
     </g>
     <g id="text_10">
      <!-- 2.5 -->
      <g transform="translate(175.906307 148.72375)scale(0.08 -0.08)">
       <use xlink:href="#HelveticaNeue-50"/>
       <use x="55.599991" xlink:href="#HelveticaNeue-46"/>
       <use x="83.399979" xlink:href="#HelveticaNeue-53"/>
      </g>
     </g>
    </g>
    <g id="xtick_26">
     <g id="line2d_67">
      <path clip-path="url(#p49a2e43550)" d="M 209.283864 137.01125 
L 209.283864 14.61125 
" style="fill:none;stroke:#000000;stroke-linecap:square;stroke-opacity:0.1;stroke-width:0.6;"/>
     </g>
     <g id="line2d_68">
      <g>
       <use style="stroke:#000000;stroke-width:0.6;" x="209.283864" xlink:href="#m6bdeeacb84" y="137.01125"/>
      </g>
     </g>
     <g id="text_11">
      <!-- 5 -->
      <g transform="translate(207.060114 148.72375)scale(0.08 -0.08)">
       <use xlink:href="#HelveticaNeue-53"/>
      </g>
     </g>
    </g>
    <g id="xtick_27">
     <g id="line2d_69">
      <path clip-path="url(#p49a2e43550)" d="M 237.102045 137.01125 
L 237.102045 14.61125 
" style="fill:none;stroke:#000000;stroke-linecap:square;stroke-opacity:0.1;stroke-width:0.6;"/>
     </g>
     <g id="line2d_70">
      <g>
       <use style="stroke:#000000;stroke-width:0.6;" x="237.102045" xlink:href="#m6bdeeacb84" y="137.01125"/>
      </g>
     </g>
     <g id="text_12">
      <!-- 7.5 -->
      <g transform="translate(231.54267 148.72375)scale(0.08 -0.08)">
       <use xlink:href="#HelveticaNeue-55"/>
       <use x="55.599991" xlink:href="#HelveticaNeue-46"/>
       <use x="83.399979" xlink:href="#HelveticaNeue-53"/>
      </g>
     </g>
    </g>
    <g id="xtick_28">
     <g id="line2d_71">
      <path clip-path="url(#p49a2e43550)" d="M 264.920227 137.01125 
L 264.920227 14.61125 
" style="fill:none;stroke:#000000;stroke-linecap:square;stroke-opacity:0.1;stroke-width:0.6;"/>
     </g>
     <g id="line2d_72">
      <g>
       <use style="stroke:#000000;stroke-width:0.6;" x="264.920227" xlink:href="#m6bdeeacb84" y="137.01125"/>
      </g>
     </g>
     <g id="text_13">
      <!-- 10 -->
      <g transform="translate(260.472727 148.72375)scale(0.08 -0.08)">
       <use xlink:href="#HelveticaNeue-49"/>
       <use x="55.599991" xlink:href="#HelveticaNeue-48"/>
      </g>
     </g>
    </g>
    <g id="xtick_29">
     <g id="line2d_73">
      <g>
       <use style="stroke:#000000;stroke-width:0.48;" x="159.211136" xlink:href="#m0891d07858" y="137.01125"/>
      </g>
     </g>
    </g>
    <g id="xtick_30">
     <g id="line2d_74">
      <g>
       <use style="stroke:#000000;stroke-width:0.48;" x="164.774773" xlink:href="#m0891d07858" y="137.01125"/>
      </g>
     </g>
    </g>
    <g id="xtick_31">
     <g id="line2d_75">
      <g>
       <use style="stroke:#000000;stroke-width:0.48;" x="170.338409" xlink:href="#m0891d07858" y="137.01125"/>
      </g>
     </g>
    </g>
    <g id="xtick_32">
     <g id="line2d_76">
      <g>
       <use style="stroke:#000000;stroke-width:0.48;" x="175.902045" xlink:href="#m0891d07858" y="137.01125"/>
      </g>
     </g>
    </g>
    <g id="xtick_33">
     <g id="line2d_77">
      <g>
       <use style="stroke:#000000;stroke-width:0.48;" x="187.029318" xlink:href="#m0891d07858" y="137.01125"/>
      </g>
     </g>
    </g>
    <g id="xtick_34">
     <g id="line2d_78">
      <g>
       <use style="stroke:#000000;stroke-width:0.48;" x="192.592955" xlink:href="#m0891d07858" y="137.01125"/>
      </g>
     </g>
    </g>
    <g id="xtick_35">
     <g id="line2d_79">
      <g>
       <use style="stroke:#000000;stroke-width:0.48;" x="198.156591" xlink:href="#m0891d07858" y="137.01125"/>
      </g>
     </g>
    </g>
    <g id="xtick_36">
     <g id="line2d_80">
      <g>
       <use style="stroke:#000000;stroke-width:0.48;" x="203.720227" xlink:href="#m0891d07858" y="137.01125"/>
      </g>
     </g>
    </g>
    <g id="xtick_37">
     <g id="line2d_81">
      <g>
       <use style="stroke:#000000;stroke-width:0.48;" x="214.8475" xlink:href="#m0891d07858" y="137.01125"/>
      </g>
     </g>
    </g>
    <g id="xtick_38">
     <g id="line2d_82">
      <g>
       <use style="stroke:#000000;stroke-width:0.48;" x="220.411136" xlink:href="#m0891d07858" y="137.01125"/>
      </g>
     </g>
    </g>
    <g id="xtick_39">
     <g id="line2d_83">
      <g>
       <use style="stroke:#000000;stroke-width:0.48;" x="225.974773" xlink:href="#m0891d07858" y="137.01125"/>
      </g>
     </g>
    </g>
    <g id="xtick_40">
     <g id="line2d_84">
      <g>
       <use style="stroke:#000000;stroke-width:0.48;" x="231.538409" xlink:href="#m0891d07858" y="137.01125"/>
      </g>
     </g>
    </g>
    <g id="xtick_41">
     <g id="line2d_85">
      <g>
       <use style="stroke:#000000;stroke-width:0.48;" x="242.665682" xlink:href="#m0891d07858" y="137.01125"/>
      </g>
     </g>
    </g>
    <g id="xtick_42">
     <g id="line2d_86">
      <g>
       <use style="stroke:#000000;stroke-width:0.48;" x="248.229318" xlink:href="#m0891d07858" y="137.01125"/>
      </g>
     </g>
    </g>
    <g id="xtick_43">
     <g id="line2d_87">
      <g>
       <use style="stroke:#000000;stroke-width:0.48;" x="253.792955" xlink:href="#m0891d07858" y="137.01125"/>
      </g>
     </g>
    </g>
    <g id="xtick_44">
     <g id="line2d_88">
      <g>
       <use style="stroke:#000000;stroke-width:0.48;" x="259.356591" xlink:href="#m0891d07858" y="137.01125"/>
      </g>
     </g>
    </g>
    <g id="xtick_45">
     <g id="line2d_89">
      <g>
       <use style="stroke:#000000;stroke-width:0.48;" x="270.483864" xlink:href="#m0891d07858" y="137.01125"/>
      </g>
     </g>
    </g>
    <g id="xtick_46">
     <g id="line2d_90">
      <g>
       <use style="stroke:#000000;stroke-width:0.48;" x="276.0475" xlink:href="#m0891d07858" y="137.01125"/>
      </g>
     </g>
    </g>
   </g>
   <g id="matplotlib.axis_4">
    <g id="ytick_20">
     <g id="line2d_91">
      <path clip-path="url(#p49a2e43550)" d="M 153.6475 106.768556 
L 276.0475 106.768556 
" style="fill:none;stroke:#000000;stroke-linecap:square;stroke-opacity:0.1;stroke-width:0.6;"/>
     </g>
     <g id="line2d_92">
      <g>
       <use style="stroke:#000000;stroke-width:0.6;" x="153.6475" xlink:href="#mf62a2c35ce" y="106.768556"/>
      </g>
     </g>
    </g>
    <g id="ytick_21">
     <g id="line2d_93">
      <path clip-path="url(#p49a2e43550)" d="M 153.6475 75.216965 
L 276.0475 75.216965 
" style="fill:none;stroke:#000000;stroke-linecap:square;stroke-opacity:0.1;stroke-width:0.6;"/>
     </g>
     <g id="line2d_94">
      <g>
       <use style="stroke:#000000;stroke-width:0.6;" x="153.6475" xlink:href="#mf62a2c35ce" y="75.216965"/>
      </g>
     </g>
    </g>
    <g id="ytick_22">
     <g id="line2d_95">
      <path clip-path="url(#p49a2e43550)" d="M 153.6475 43.665374 
L 276.0475 43.665374 
" style="fill:none;stroke:#000000;stroke-linecap:square;stroke-opacity:0.1;stroke-width:0.6;"/>
     </g>
     <g id="line2d_96">
      <g>
       <use style="stroke:#000000;stroke-width:0.6;" x="153.6475" xlink:href="#mf62a2c35ce" y="43.665374"/>
      </g>
     </g>
    </g>
    <g id="ytick_23">
     <g id="line2d_97">
      <g>
       <use style="stroke:#000000;stroke-width:0.48;" x="153.6475" xlink:href="#md870aed31b" y="132.009829"/>
      </g>
     </g>
    </g>
    <g id="ytick_24">
     <g id="line2d_98">
      <g>
       <use style="stroke:#000000;stroke-width:0.48;" x="153.6475" xlink:href="#md870aed31b" y="125.69951"/>
      </g>
     </g>
    </g>
    <g id="ytick_25">
     <g id="line2d_99">
      <g>
       <use style="stroke:#000000;stroke-width:0.48;" x="153.6475" xlink:href="#md870aed31b" y="119.389192"/>
      </g>
     </g>
    </g>
    <g id="ytick_26">
     <g id="line2d_100">
      <g>
       <use style="stroke:#000000;stroke-width:0.48;" x="153.6475" xlink:href="#md870aed31b" y="113.078874"/>
      </g>
     </g>
    </g>
    <g id="ytick_27">
     <g id="line2d_101">
      <g>
       <use style="stroke:#000000;stroke-width:0.48;" x="153.6475" xlink:href="#md870aed31b" y="100.458237"/>
      </g>
     </g>
    </g>
    <g id="ytick_28">
     <g id="line2d_102">
      <g>
       <use style="stroke:#000000;stroke-width:0.48;" x="153.6475" xlink:href="#md870aed31b" y="94.147919"/>
      </g>
     </g>
    </g>
    <g id="ytick_29">
     <g id="line2d_103">
      <g>
       <use style="stroke:#000000;stroke-width:0.48;" x="153.6475" xlink:href="#md870aed31b" y="87.837601"/>
      </g>
     </g>
    </g>
    <g id="ytick_30">
     <g id="line2d_104">
      <g>
       <use style="stroke:#000000;stroke-width:0.48;" x="153.6475" xlink:href="#md870aed31b" y="81.527283"/>
      </g>
     </g>
    </g>
    <g id="ytick_31">
     <g id="line2d_105">
      <g>
       <use style="stroke:#000000;stroke-width:0.48;" x="153.6475" xlink:href="#md870aed31b" y="68.906646"/>
      </g>
     </g>
    </g>
    <g id="ytick_32">
     <g id="line2d_106">
      <g>
       <use style="stroke:#000000;stroke-width:0.48;" x="153.6475" xlink:href="#md870aed31b" y="62.596328"/>
      </g>
     </g>
    </g>
    <g id="ytick_33">
     <g id="line2d_107">
      <g>
       <use style="stroke:#000000;stroke-width:0.48;" x="153.6475" xlink:href="#md870aed31b" y="56.28601"/>
      </g>
     </g>
    </g>
    <g id="ytick_34">
     <g id="line2d_108">
      <g>
       <use style="stroke:#000000;stroke-width:0.48;" x="153.6475" xlink:href="#md870aed31b" y="49.975692"/>
      </g>
     </g>
    </g>
    <g id="ytick_35">
     <g id="line2d_109">
      <g>
       <use style="stroke:#000000;stroke-width:0.48;" x="153.6475" xlink:href="#md870aed31b" y="37.355055"/>
      </g>
     </g>
    </g>
    <g id="ytick_36">
     <g id="line2d_110">
      <g>
       <use style="stroke:#000000;stroke-width:0.48;" x="153.6475" xlink:href="#md870aed31b" y="31.044737"/>
      </g>
     </g>
    </g>
    <g id="ytick_37">
     <g id="line2d_111">
      <g>
       <use style="stroke:#000000;stroke-width:0.48;" x="153.6475" xlink:href="#md870aed31b" y="24.734419"/>
      </g>
     </g>
    </g>
    <g id="ytick_38">
     <g id="line2d_112">
      <g>
       <use style="stroke:#000000;stroke-width:0.48;" x="153.6475" xlink:href="#md870aed31b" y="18.424101"/>
      </g>
     </g>
    </g>
   </g>
   <g id="line2d_113">
    <path clip-path="url(#p49a2e43550)" d="M 153.6475 75.302777 
L 164.774773 72.855555 
L 175.902045 80.947895 
L 187.029318 92.116967 
L 198.156591 90.820027 
L 209.283864 75.573253 
L 220.411136 84.626137 
L 231.538409 75.957735 
L 242.665682 59.256851 
L 253.792955 73.033913 
L 264.920227 68.277756 
L 276.0475 74.65652 
" style="fill:none;stroke:#5bbe94;stroke-linecap:square;stroke-width:5;"/>
   </g>
   <g id="line2d_114">
    <path clip-path="url(#p49a2e43550)" d="M 153.6475 60.032265 
L 164.774773 65.49206 
L 175.902045 74.791734 
L 187.029318 65.494653 
L 198.156591 78.166375 
L 209.283864 91.509639 
L 220.411136 94.613815 
L 231.538409 106.795907 
L 242.665682 111.690999 
L 253.792955 112.923823 
L 264.920227 124.699537 
L 276.0475 137.01125 
" style="fill:none;stroke:#b6e3d1;stroke-linecap:square;stroke-width:5;"/>
   </g>
   <g id="line2d_115">
    <path clip-path="url(#p49a2e43550)" d="M 153.6475 60.508552 
L 164.774773 59.593529 
L 175.902045 68.38313 
L 187.029318 56.382581 
L 198.156591 49.674203 
L 209.283864 34.166962 
L 220.411136 20.189355 
L 231.538409 22.755172 
L 242.665682 14.61125 
L 253.792955 26.897253 
L 264.920227 17.978282 
L 276.0475 18.534637 
" style="fill:none;stroke:#91be64;stroke-linecap:square;stroke-width:5;"/>
   </g>
   <g id="line2d_116">
    <path clip-path="url(#p49a2e43550)" d="M 153.6475 70.419534 
L 164.774773 61.17782 
L 175.902045 54.150226 
L 187.029318 55.498211 
L 198.156591 43.508966 
L 209.283864 46.210956 
L 220.411136 39.513098 
L 231.538409 29.874007 
L 242.665682 27.880911 
L 253.792955 41.487619 
L 264.920227 37.924954 
L 276.0475 30.546468 
" style="fill:none;stroke:#cce5b5;stroke-linecap:square;stroke-width:5;"/>
   </g>
   <g id="line2d_117">
    <path clip-path="url(#p49a2e43550)" d="M 153.6475 66.982692 
L 164.774773 66.948611 
L 175.902045 67.238678 
L 187.029318 65.782813 
L 198.156591 62.088819 
L 209.283864 47.270542 
L 220.411136 34.488254 
L 231.538409 21.513027 
L 242.665682 34.401324 
L 253.792955 30.963697 
L 264.920227 37.504213 
L 276.0475 49.509895 
" style="fill:none;stroke:#e5cf6c;stroke-linecap:square;stroke-width:5;"/>
   </g>
   <g id="line2d_118">
    <path clip-path="url(#p49a2e43550)" d="M 153.6475 74.617492 
L 164.774773 88.611942 
L 175.902045 91.860626 
L 187.029318 77.811013 
L 198.156591 77.640113 
L 209.283864 62.475868 
L 220.411136 72.04073 
L 231.538409 66.815476 
L 242.665682 55.884386 
L 253.792955 57.552076 
L 264.920227 51.561598 
L 276.0475 34.760505 
" style="fill:none;stroke:#f9ebaa;stroke-linecap:square;stroke-width:5;"/>
   </g>
   <g id="line2d_119">
    <path clip-path="url(#p49a2e43550)" d="M 153.6475 60.349074 
L 164.774773 59.552893 
L 175.902045 54.908559 
L 187.029318 43.981485 
L 198.156591 56.615563 
L 209.283864 45.774337 
L 220.411136 35.265492 
L 231.538409 47.441444 
L 242.665682 46.685939 
L 253.792955 54.782652 
L 264.920227 59.502662 
L 276.0475 52.701521 
" style="fill:none;stroke:#e87b70;stroke-linecap:square;stroke-width:5;"/>
   </g>
   <g id="line2d_120">
    <path clip-path="url(#p49a2e43550)" d="M 153.6475 82.427758 
L 164.774773 82.810936 
L 175.902045 72.198427 
L 187.029318 63.871783 
L 198.156591 67.299707 
L 209.283864 63.869172 
L 220.411136 76.192368 
L 231.538409 89.737361 
L 242.665682 95.448427 
L 253.792955 105.285453 
L 264.920227 110.975023 
L 276.0475 95.129769 
" style="fill:none;stroke:#f2cec1;stroke-linecap:square;stroke-width:5;"/>
   </g>
   <g id="line2d_121">
    <path clip-path="url(#p49a2e43550)" d="M 153.6475 60.974966 
L 164.774773 74.529532 
L 175.902045 76.789196 
L 187.029318 82.326804 
L 198.156591 67.122744 
L 209.283864 58.486905 
L 220.411136 71.776353 
L 231.538409 73.502821 
L 242.665682 71.209124 
L 253.792955 57.573751 
L 264.920227 51.77741 
L 276.0475 63.421517 
" style="fill:none;stroke:#cc6686;stroke-linecap:square;stroke-width:5;"/>
   </g>
   <g id="line2d_122">
    <path clip-path="url(#p49a2e43550)" d="M 153.6475 66.851883 
L 164.774773 75.565792 
L 175.902045 65.283518 
L 187.029318 66.649367 
L 198.156591 72.425891 
L 209.283864 62.130283 
L 220.411136 58.222061 
L 231.538409 49.964599 
L 242.665682 45.001775 
L 253.792955 40.01471 
L 264.920227 48.894771 
L 276.0475 62.332607 
" style="fill:none;stroke:#e5b5c5;stroke-linecap:square;stroke-width:5;"/>
   </g>
   <g id="line2d_123">
    <path clip-path="url(#p49a2e43550)" d="M 153.6475 69.273649 
L 164.774773 81.981034 
L 175.902045 65.319657 
L 187.029318 61.407903 
L 198.156591 57.272888 
L 209.283864 50.998339 
L 220.411136 50.135885 
L 231.538409 45.31273 
L 242.665682 32.871647 
L 253.792955 32.887477 
L 264.920227 44.162936 
L 276.0475 37.022147 
" style="fill:none;stroke:#5884b3;stroke-linecap:square;stroke-width:5;"/>
   </g>
   <g id="line2d_124">
    <path clip-path="url(#p49a2e43550)" d="M 153.6475 74.16724 
L 164.774773 64.919542 
L 175.902045 50.451322 
L 187.029318 58.727996 
L 198.156591 56.322077 
L 209.283864 63.982828 
L 220.411136 50.133107 
L 231.538409 64.188414 
L 242.665682 76.883368 
L 253.792955 66.031595 
L 264.920227 60.747159 
L 276.0475 58.834414 
" style="fill:none;stroke:#b6cee5;stroke-linecap:square;stroke-width:5;"/>
   </g>
   <g id="patch_8">
    <path d="M 153.6475 137.01125 
L 153.6475 14.61125 
" style="fill:none;stroke:#000000;stroke-linecap:square;stroke-linejoin:miter;stroke-width:0.6;"/>
   </g>
   <g id="patch_9">
    <path d="M 276.0475 137.01125 
L 276.0475 14.61125 
" style="fill:none;stroke:#000000;stroke-linecap:square;stroke-linejoin:miter;stroke-width:0.6;"/>
   </g>
   <g id="patch_10">
    <path d="M 153.6475 137.01125 
L 276.0475 137.01125 
" style="fill:none;stroke:#000000;stroke-linecap:square;stroke-linejoin:miter;stroke-width:0.6;"/>
   </g>
   <g id="patch_11">
    <path d="M 153.6475 14.61125 
L 276.0475 14.61125 
" style="fill:none;stroke:#000000;stroke-linecap:square;stroke-linejoin:miter;stroke-width:0.6;"/>
   </g>
  </g>
  <g id="axes_3">
   <g id="patch_12">
    <path d="M 288.0475 137.01125 
L 410.4475 137.01125 
L 410.4475 14.61125 
L 288.0475 14.61125 
z
" style="fill:#ffffff;"/>
   </g>
   <g id="matplotlib.axis_5">
    <g id="xtick_47">
     <g id="line2d_125">
      <path clip-path="url(#pa88d352fa7)" d="M 288.0475 137.01125 
L 288.0475 14.61125 
" style="fill:none;stroke:#000000;stroke-linecap:square;stroke-opacity:0.1;stroke-width:0.6;"/>
     </g>
     <g id="line2d_126">
      <g>
       <use style="stroke:#000000;stroke-width:0.6;" x="288.0475" xlink:href="#m6bdeeacb84" y="137.01125"/>
      </g>
     </g>
     <g id="text_14">
      <!-- 0 -->
      <g transform="translate(285.82375 148.72375)scale(0.08 -0.08)">
       <use xlink:href="#HelveticaNeue-48"/>
      </g>
     </g>
    </g>
    <g id="xtick_48">
     <g id="line2d_127">
      <path clip-path="url(#pa88d352fa7)" d="M 315.865682 137.01125 
L 315.865682 14.61125 
" style="fill:none;stroke:#000000;stroke-linecap:square;stroke-opacity:0.1;stroke-width:0.6;"/>
     </g>
     <g id="line2d_128">
      <g>
       <use style="stroke:#000000;stroke-width:0.6;" x="315.865682" xlink:href="#m6bdeeacb84" y="137.01125"/>
      </g>
     </g>
     <g id="text_15">
      <!-- 2.5 -->
      <g transform="translate(310.306307 148.72375)scale(0.08 -0.08)">
       <use xlink:href="#HelveticaNeue-50"/>
       <use x="55.599991" xlink:href="#HelveticaNeue-46"/>
       <use x="83.399979" xlink:href="#HelveticaNeue-53"/>
      </g>
     </g>
    </g>
    <g id="xtick_49">
     <g id="line2d_129">
      <path clip-path="url(#pa88d352fa7)" d="M 343.683864 137.01125 
L 343.683864 14.61125 
" style="fill:none;stroke:#000000;stroke-linecap:square;stroke-opacity:0.1;stroke-width:0.6;"/>
     </g>
     <g id="line2d_130">
      <g>
       <use style="stroke:#000000;stroke-width:0.6;" x="343.683864" xlink:href="#m6bdeeacb84" y="137.01125"/>
      </g>
     </g>
     <g id="text_16">
      <!-- 5 -->
      <g transform="translate(341.460114 148.72375)scale(0.08 -0.08)">
       <use xlink:href="#HelveticaNeue-53"/>
      </g>
     </g>
    </g>
    <g id="xtick_50">
     <g id="line2d_131">
      <path clip-path="url(#pa88d352fa7)" d="M 371.502045 137.01125 
L 371.502045 14.61125 
" style="fill:none;stroke:#000000;stroke-linecap:square;stroke-opacity:0.1;stroke-width:0.6;"/>
     </g>
     <g id="line2d_132">
      <g>
       <use style="stroke:#000000;stroke-width:0.6;" x="371.502045" xlink:href="#m6bdeeacb84" y="137.01125"/>
      </g>
     </g>
     <g id="text_17">
      <!-- 7.5 -->
      <g transform="translate(365.94267 148.72375)scale(0.08 -0.08)">
       <use xlink:href="#HelveticaNeue-55"/>
       <use x="55.599991" xlink:href="#HelveticaNeue-46"/>
       <use x="83.399979" xlink:href="#HelveticaNeue-53"/>
      </g>
     </g>
    </g>
    <g id="xtick_51">
     <g id="line2d_133">
      <path clip-path="url(#pa88d352fa7)" d="M 399.320227 137.01125 
L 399.320227 14.61125 
" style="fill:none;stroke:#000000;stroke-linecap:square;stroke-opacity:0.1;stroke-width:0.6;"/>
     </g>
     <g id="line2d_134">
      <g>
       <use style="stroke:#000000;stroke-width:0.6;" x="399.320227" xlink:href="#m6bdeeacb84" y="137.01125"/>
      </g>
     </g>
     <g id="text_18">
      <!-- 10 -->
      <g transform="translate(394.872727 148.72375)scale(0.08 -0.08)">
       <use xlink:href="#HelveticaNeue-49"/>
       <use x="55.599991" xlink:href="#HelveticaNeue-48"/>
      </g>
     </g>
    </g>
    <g id="xtick_52">
     <g id="line2d_135">
      <g>
       <use style="stroke:#000000;stroke-width:0.48;" x="293.611136" xlink:href="#m0891d07858" y="137.01125"/>
      </g>
     </g>
    </g>
    <g id="xtick_53">
     <g id="line2d_136">
      <g>
       <use style="stroke:#000000;stroke-width:0.48;" x="299.174773" xlink:href="#m0891d07858" y="137.01125"/>
      </g>
     </g>
    </g>
    <g id="xtick_54">
     <g id="line2d_137">
      <g>
       <use style="stroke:#000000;stroke-width:0.48;" x="304.738409" xlink:href="#m0891d07858" y="137.01125"/>
      </g>
     </g>
    </g>
    <g id="xtick_55">
     <g id="line2d_138">
      <g>
       <use style="stroke:#000000;stroke-width:0.48;" x="310.302045" xlink:href="#m0891d07858" y="137.01125"/>
      </g>
     </g>
    </g>
    <g id="xtick_56">
     <g id="line2d_139">
      <g>
       <use style="stroke:#000000;stroke-width:0.48;" x="321.429318" xlink:href="#m0891d07858" y="137.01125"/>
      </g>
     </g>
    </g>
    <g id="xtick_57">
     <g id="line2d_140">
      <g>
       <use style="stroke:#000000;stroke-width:0.48;" x="326.992955" xlink:href="#m0891d07858" y="137.01125"/>
      </g>
     </g>
    </g>
    <g id="xtick_58">
     <g id="line2d_141">
      <g>
       <use style="stroke:#000000;stroke-width:0.48;" x="332.556591" xlink:href="#m0891d07858" y="137.01125"/>
      </g>
     </g>
    </g>
    <g id="xtick_59">
     <g id="line2d_142">
      <g>
       <use style="stroke:#000000;stroke-width:0.48;" x="338.120227" xlink:href="#m0891d07858" y="137.01125"/>
      </g>
     </g>
    </g>
    <g id="xtick_60">
     <g id="line2d_143">
      <g>
       <use style="stroke:#000000;stroke-width:0.48;" x="349.2475" xlink:href="#m0891d07858" y="137.01125"/>
      </g>
     </g>
    </g>
    <g id="xtick_61">
     <g id="line2d_144">
      <g>
       <use style="stroke:#000000;stroke-width:0.48;" x="354.811136" xlink:href="#m0891d07858" y="137.01125"/>
      </g>
     </g>
    </g>
    <g id="xtick_62">
     <g id="line2d_145">
      <g>
       <use style="stroke:#000000;stroke-width:0.48;" x="360.374773" xlink:href="#m0891d07858" y="137.01125"/>
      </g>
     </g>
    </g>
    <g id="xtick_63">
     <g id="line2d_146">
      <g>
       <use style="stroke:#000000;stroke-width:0.48;" x="365.938409" xlink:href="#m0891d07858" y="137.01125"/>
      </g>
     </g>
    </g>
    <g id="xtick_64">
     <g id="line2d_147">
      <g>
       <use style="stroke:#000000;stroke-width:0.48;" x="377.065682" xlink:href="#m0891d07858" y="137.01125"/>
      </g>
     </g>
    </g>
    <g id="xtick_65">
     <g id="line2d_148">
      <g>
       <use style="stroke:#000000;stroke-width:0.48;" x="382.629318" xlink:href="#m0891d07858" y="137.01125"/>
      </g>
     </g>
    </g>
    <g id="xtick_66">
     <g id="line2d_149">
      <g>
       <use style="stroke:#000000;stroke-width:0.48;" x="388.192955" xlink:href="#m0891d07858" y="137.01125"/>
      </g>
     </g>
    </g>
    <g id="xtick_67">
     <g id="line2d_150">
      <g>
       <use style="stroke:#000000;stroke-width:0.48;" x="393.756591" xlink:href="#m0891d07858" y="137.01125"/>
      </g>
     </g>
    </g>
    <g id="xtick_68">
     <g id="line2d_151">
      <g>
       <use style="stroke:#000000;stroke-width:0.48;" x="404.883864" xlink:href="#m0891d07858" y="137.01125"/>
      </g>
     </g>
    </g>
    <g id="xtick_69">
     <g id="line2d_152">
      <g>
       <use style="stroke:#000000;stroke-width:0.48;" x="410.4475" xlink:href="#m0891d07858" y="137.01125"/>
      </g>
     </g>
    </g>
   </g>
   <g id="matplotlib.axis_6">
    <g id="ytick_39">
     <g id="line2d_153">
      <path clip-path="url(#pa88d352fa7)" d="M 288.0475 106.768556 
L 410.4475 106.768556 
" style="fill:none;stroke:#000000;stroke-linecap:square;stroke-opacity:0.1;stroke-width:0.6;"/>
     </g>
     <g id="line2d_154">
      <g>
       <use style="stroke:#000000;stroke-width:0.6;" x="288.0475" xlink:href="#mf62a2c35ce" y="106.768556"/>
      </g>
     </g>
    </g>
    <g id="ytick_40">
     <g id="line2d_155">
      <path clip-path="url(#pa88d352fa7)" d="M 288.0475 75.216965 
L 410.4475 75.216965 
" style="fill:none;stroke:#000000;stroke-linecap:square;stroke-opacity:0.1;stroke-width:0.6;"/>
     </g>
     <g id="line2d_156">
      <g>
       <use style="stroke:#000000;stroke-width:0.6;" x="288.0475" xlink:href="#mf62a2c35ce" y="75.216965"/>
      </g>
     </g>
    </g>
    <g id="ytick_41">
     <g id="line2d_157">
      <path clip-path="url(#pa88d352fa7)" d="M 288.0475 43.665374 
L 410.4475 43.665374 
" style="fill:none;stroke:#000000;stroke-linecap:square;stroke-opacity:0.1;stroke-width:0.6;"/>
     </g>
     <g id="line2d_158">
      <g>
       <use style="stroke:#000000;stroke-width:0.6;" x="288.0475" xlink:href="#mf62a2c35ce" y="43.665374"/>
      </g>
     </g>
    </g>
    <g id="ytick_42">
     <g id="line2d_159">
      <g>
       <use style="stroke:#000000;stroke-width:0.48;" x="288.0475" xlink:href="#md870aed31b" y="132.009829"/>
      </g>
     </g>
    </g>
    <g id="ytick_43">
     <g id="line2d_160">
      <g>
       <use style="stroke:#000000;stroke-width:0.48;" x="288.0475" xlink:href="#md870aed31b" y="125.69951"/>
      </g>
     </g>
    </g>
    <g id="ytick_44">
     <g id="line2d_161">
      <g>
       <use style="stroke:#000000;stroke-width:0.48;" x="288.0475" xlink:href="#md870aed31b" y="119.389192"/>
      </g>
     </g>
    </g>
    <g id="ytick_45">
     <g id="line2d_162">
      <g>
       <use style="stroke:#000000;stroke-width:0.48;" x="288.0475" xlink:href="#md870aed31b" y="113.078874"/>
      </g>
     </g>
    </g>
    <g id="ytick_46">
     <g id="line2d_163">
      <g>
       <use style="stroke:#000000;stroke-width:0.48;" x="288.0475" xlink:href="#md870aed31b" y="100.458237"/>
      </g>
     </g>
    </g>
    <g id="ytick_47">
     <g id="line2d_164">
      <g>
       <use style="stroke:#000000;stroke-width:0.48;" x="288.0475" xlink:href="#md870aed31b" y="94.147919"/>
      </g>
     </g>
    </g>
    <g id="ytick_48">
     <g id="line2d_165">
      <g>
       <use style="stroke:#000000;stroke-width:0.48;" x="288.0475" xlink:href="#md870aed31b" y="87.837601"/>
      </g>
     </g>
    </g>
    <g id="ytick_49">
     <g id="line2d_166">
      <g>
       <use style="stroke:#000000;stroke-width:0.48;" x="288.0475" xlink:href="#md870aed31b" y="81.527283"/>
      </g>
     </g>
    </g>
    <g id="ytick_50">
     <g id="line2d_167">
      <g>
       <use style="stroke:#000000;stroke-width:0.48;" x="288.0475" xlink:href="#md870aed31b" y="68.906646"/>
      </g>
     </g>
    </g>
    <g id="ytick_51">
     <g id="line2d_168">
      <g>
       <use style="stroke:#000000;stroke-width:0.48;" x="288.0475" xlink:href="#md870aed31b" y="62.596328"/>
      </g>
     </g>
    </g>
    <g id="ytick_52">
     <g id="line2d_169">
      <g>
       <use style="stroke:#000000;stroke-width:0.48;" x="288.0475" xlink:href="#md870aed31b" y="56.28601"/>
      </g>
     </g>
    </g>
    <g id="ytick_53">
     <g id="line2d_170">
      <g>
       <use style="stroke:#000000;stroke-width:0.48;" x="288.0475" xlink:href="#md870aed31b" y="49.975692"/>
      </g>
     </g>
    </g>
    <g id="ytick_54">
     <g id="line2d_171">
      <g>
       <use style="stroke:#000000;stroke-width:0.48;" x="288.0475" xlink:href="#md870aed31b" y="37.355055"/>
      </g>
     </g>
    </g>
    <g id="ytick_55">
     <g id="line2d_172">
      <g>
       <use style="stroke:#000000;stroke-width:0.48;" x="288.0475" xlink:href="#md870aed31b" y="31.044737"/>
      </g>
     </g>
    </g>
    <g id="ytick_56">
     <g id="line2d_173">
      <g>
       <use style="stroke:#000000;stroke-width:0.48;" x="288.0475" xlink:href="#md870aed31b" y="24.734419"/>
      </g>
     </g>
    </g>
    <g id="ytick_57">
     <g id="line2d_174">
      <g>
       <use style="stroke:#000000;stroke-width:0.48;" x="288.0475" xlink:href="#md870aed31b" y="18.424101"/>
      </g>
     </g>
    </g>
   </g>
   <g id="line2d_175">
    <path clip-path="url(#pa88d352fa7)" d="M 288.0475 75.302777 
L 299.174773 72.855555 
L 310.302045 80.947895 
L 321.429318 92.116967 
L 332.556591 90.820027 
L 343.683864 75.573253 
L 354.811136 84.626137 
L 365.938409 75.957735 
L 377.065682 59.256851 
L 388.192955 73.033913 
L 399.320227 68.277756 
L 410.4475 74.65652 
" style="fill:none;stroke:#5bbe94;stroke-linecap:square;stroke-width:5;"/>
   </g>
   <g id="line2d_176">
    <path clip-path="url(#pa88d352fa7)" d="M 288.0475 60.032265 
L 299.174773 65.49206 
L 310.302045 74.791734 
L 321.429318 65.494653 
L 332.556591 78.166375 
L 343.683864 91.509639 
L 354.811136 94.613815 
L 365.938409 106.795907 
L 377.065682 111.690999 
L 388.192955 112.923823 
L 399.320227 124.699537 
L 410.4475 137.01125 
" style="fill:none;stroke:#b6e3d1;stroke-linecap:square;stroke-width:5;"/>
   </g>
   <g id="line2d_177">
    <path clip-path="url(#pa88d352fa7)" d="M 288.0475 60.508552 
L 299.174773 59.593529 
L 310.302045 68.38313 
L 321.429318 56.382581 
L 332.556591 49.674203 
L 343.683864 34.166962 
L 354.811136 20.189355 
L 365.938409 22.755172 
L 377.065682 14.61125 
L 388.192955 26.897253 
L 399.320227 17.978282 
L 410.4475 18.534637 
" style="fill:none;stroke:#91be64;stroke-linecap:square;stroke-width:5;"/>
   </g>
   <g id="line2d_178">
    <path clip-path="url(#pa88d352fa7)" d="M 288.0475 70.419534 
L 299.174773 61.17782 
L 310.302045 54.150226 
L 321.429318 55.498211 
L 332.556591 43.508966 
L 343.683864 46.210956 
L 354.811136 39.513098 
L 365.938409 29.874007 
L 377.065682 27.880911 
L 388.192955 41.487619 
L 399.320227 37.924954 
L 410.4475 30.546468 
" style="fill:none;stroke:#cce5b5;stroke-linecap:square;stroke-width:5;"/>
   </g>
   <g id="line2d_179">
    <path clip-path="url(#pa88d352fa7)" d="M 288.0475 66.982692 
L 299.174773 66.948611 
L 310.302045 67.238678 
L 321.429318 65.782813 
L 332.556591 62.088819 
L 343.683864 47.270542 
L 354.811136 34.488254 
L 365.938409 21.513027 
L 377.065682 34.401324 
L 388.192955 30.963697 
L 399.320227 37.504213 
L 410.4475 49.509895 
" style="fill:none;stroke:#e5cf6c;stroke-linecap:square;stroke-width:5;"/>
   </g>
   <g id="line2d_180">
    <path clip-path="url(#pa88d352fa7)" d="M 288.0475 74.617492 
L 299.174773 88.611942 
L 310.302045 91.860626 
L 321.429318 77.811013 
L 332.556591 77.640113 
L 343.683864 62.475868 
L 354.811136 72.04073 
L 365.938409 66.815476 
L 377.065682 55.884386 
L 388.192955 57.552076 
L 399.320227 51.561598 
L 410.4475 34.760505 
" style="fill:none;stroke:#f9ebaa;stroke-linecap:square;stroke-width:5;"/>
   </g>
   <g id="line2d_181">
    <path clip-path="url(#pa88d352fa7)" d="M 288.0475 60.349074 
L 299.174773 59.552893 
L 310.302045 54.908559 
L 321.429318 43.981485 
L 332.556591 56.615563 
L 343.683864 45.774337 
L 354.811136 35.265492 
L 365.938409 47.441444 
L 377.065682 46.685939 
L 388.192955 54.782652 
L 399.320227 59.502662 
L 410.4475 52.701521 
" style="fill:none;stroke:#e87b70;stroke-linecap:square;stroke-width:5;"/>
   </g>
   <g id="line2d_182">
    <path clip-path="url(#pa88d352fa7)" d="M 288.0475 82.427758 
L 299.174773 82.810936 
L 310.302045 72.198427 
L 321.429318 63.871783 
L 332.556591 67.299707 
L 343.683864 63.869172 
L 354.811136 76.192368 
L 365.938409 89.737361 
L 377.065682 95.448427 
L 388.192955 105.285453 
L 399.320227 110.975023 
L 410.4475 95.129769 
" style="fill:none;stroke:#f2cec1;stroke-linecap:square;stroke-width:5;"/>
   </g>
   <g id="line2d_183">
    <path clip-path="url(#pa88d352fa7)" d="M 288.0475 60.974966 
L 299.174773 74.529532 
L 310.302045 76.789196 
L 321.429318 82.326804 
L 332.556591 67.122744 
L 343.683864 58.486905 
L 354.811136 71.776353 
L 365.938409 73.502821 
L 377.065682 71.209124 
L 388.192955 57.573751 
L 399.320227 51.77741 
L 410.4475 63.421517 
" style="fill:none;stroke:#cc6686;stroke-linecap:square;stroke-width:5;"/>
   </g>
   <g id="line2d_184">
    <path clip-path="url(#pa88d352fa7)" d="M 288.0475 66.851883 
L 299.174773 75.565792 
L 310.302045 65.283518 
L 321.429318 66.649367 
L 332.556591 72.425891 
L 343.683864 62.130283 
L 354.811136 58.222061 
L 365.938409 49.964599 
L 377.065682 45.001775 
L 388.192955 40.01471 
L 399.320227 48.894771 
L 410.4475 62.332607 
" style="fill:none;stroke:#e5b5c5;stroke-linecap:square;stroke-width:5;"/>
   </g>
   <g id="line2d_185">
    <path clip-path="url(#pa88d352fa7)" d="M 288.0475 69.273649 
L 299.174773 81.981034 
L 310.302045 65.319657 
L 321.429318 61.407903 
L 332.556591 57.272888 
L 343.683864 50.998339 
L 354.811136 50.135885 
L 365.938409 45.31273 
L 377.065682 32.871647 
L 388.192955 32.887477 
L 399.320227 44.162936 
L 410.4475 37.022147 
" style="fill:none;stroke:#5884b3;stroke-linecap:square;stroke-width:5;"/>
   </g>
   <g id="line2d_186">
    <path clip-path="url(#pa88d352fa7)" d="M 288.0475 74.16724 
L 299.174773 64.919542 
L 310.302045 50.451322 
L 321.429318 58.727996 
L 332.556591 56.322077 
L 343.683864 63.982828 
L 354.811136 50.133107 
L 365.938409 64.188414 
L 377.065682 76.883368 
L 388.192955 66.031595 
L 399.320227 60.747159 
L 410.4475 58.834414 
" style="fill:none;stroke:#b6cee5;stroke-linecap:square;stroke-width:5;"/>
   </g>
   <g id="patch_13">
    <path d="M 288.0475 137.01125 
L 288.0475 14.61125 
" style="fill:none;stroke:#000000;stroke-linecap:square;stroke-linejoin:miter;stroke-width:0.6;"/>
   </g>
   <g id="patch_14">
    <path d="M 410.4475 137.01125 
L 410.4475 14.61125 
" style="fill:none;stroke:#000000;stroke-linecap:square;stroke-linejoin:miter;stroke-width:0.6;"/>
   </g>
   <g id="patch_15">
    <path d="M 288.0475 137.01125 
L 410.4475 137.01125 
" style="fill:none;stroke:#000000;stroke-linecap:square;stroke-linejoin:miter;stroke-width:0.6;"/>
   </g>
   <g id="patch_16">
    <path d="M 288.0475 14.61125 
L 410.4475 14.61125 
" style="fill:none;stroke:#000000;stroke-linecap:square;stroke-linejoin:miter;stroke-width:0.6;"/>
   </g>
  </g>
  <g id="text_19">
   <!-- Local and global color cycles demo -->
   <defs>
    <path d="M 6.90625 71.40625 
L 6.90625 0 
L 57.40625 0 
L 57.40625 13.203125 
L 22.59375 13.203125 
L 22.59375 71.40625 
z
" id="HelveticaNeue-Bold-76"/>
    <path d="M 18 25.796875 
Q 18 28.90625 18.59375 31.90625 
Q 19.203125 34.90625 20.640625 37.203125 
Q 22.09375 39.5 24.5 40.953125 
Q 26.90625 42.40625 30.5 42.40625 
Q 34.09375 42.40625 36.546875 40.953125 
Q 39 39.5 40.453125 37.203125 
Q 41.90625 34.90625 42.5 31.90625 
Q 43.09375 28.90625 43.09375 25.796875 
Q 43.09375 22.703125 42.5 19.75 
Q 41.90625 16.796875 40.453125 14.4375 
Q 39 12.09375 36.546875 10.6875 
Q 34.09375 9.296875 30.5 9.296875 
Q 26.90625 9.296875 24.5 10.6875 
Q 22.09375 12.09375 20.640625 14.4375 
Q 19.203125 16.796875 18.59375 19.75 
Q 18 22.703125 18 25.796875 
z
M 3.796875 25.796875 
Q 3.796875 19.59375 5.6875 14.59375 
Q 7.59375 9.59375 11.09375 6.046875 
Q 14.59375 2.5 19.5 0.59375 
Q 24.40625 -1.296875 30.5 -1.296875 
Q 36.59375 -1.296875 41.546875 0.59375 
Q 46.5 2.5 50 6.046875 
Q 53.5 9.59375 55.390625 14.59375 
Q 57.296875 19.59375 57.296875 25.796875 
Q 57.296875 32 55.390625 37.046875 
Q 53.5 42.09375 50 45.640625 
Q 46.5 49.203125 41.546875 51.140625 
Q 36.59375 53.09375 30.5 53.09375 
Q 24.40625 53.09375 19.5 51.140625 
Q 14.59375 49.203125 11.09375 45.640625 
Q 7.59375 42.09375 5.6875 37.046875 
Q 3.796875 32 3.796875 25.796875 
z
" id="HelveticaNeue-Bold-111"/>
    <path d="M 40.59375 33.5 
L 54.5 33.5 
Q 54.203125 38.5 52.09375 42.140625 
Q 50 45.796875 46.640625 48.25 
Q 43.296875 50.703125 39.046875 51.890625 
Q 34.796875 53.09375 30.203125 53.09375 
Q 23.90625 53.09375 19 51 
Q 14.09375 48.90625 10.6875 45.15625 
Q 7.296875 41.40625 5.546875 36.25 
Q 3.796875 31.09375 3.796875 25.09375 
Q 3.796875 19.296875 5.6875 14.4375 
Q 7.59375 9.59375 11 6.09375 
Q 14.40625 2.59375 19.25 0.640625 
Q 24.09375 -1.296875 29.90625 -1.296875 
Q 40.203125 -1.296875 46.796875 4.09375 
Q 53.40625 9.5 54.796875 19.796875 
L 41.09375 19.796875 
Q 40.40625 15 37.65625 12.140625 
Q 34.90625 9.296875 29.796875 9.296875 
Q 26.5 9.296875 24.203125 10.796875 
Q 21.90625 12.296875 20.546875 14.640625 
Q 19.203125 17 18.59375 19.890625 
Q 18 22.796875 18 25.59375 
Q 18 28.5 18.59375 31.453125 
Q 19.203125 34.40625 20.640625 36.84375 
Q 22.09375 39.296875 24.390625 40.84375 
Q 26.703125 42.40625 30.09375 42.40625 
Q 39.203125 42.40625 40.59375 33.5 
z
" id="HelveticaNeue-Bold-99"/>
    <path d="M 4.796875 35.796875 
Q 5.09375 40.796875 7.296875 44.09375 
Q 9.5 47.40625 12.890625 49.40625 
Q 16.296875 51.40625 20.546875 52.25 
Q 24.796875 53.09375 29.09375 53.09375 
Q 33 53.09375 37 52.546875 
Q 41 52 44.296875 50.390625 
Q 47.59375 48.796875 49.6875 45.9375 
Q 51.796875 43.09375 51.796875 38.40625 
L 51.796875 11.5 
Q 51.796875 8 52.1875 4.796875 
Q 52.59375 1.59375 53.59375 0 
L 39.203125 0 
Q 38.796875 1.203125 38.546875 2.453125 
Q 38.296875 3.703125 38.203125 5 
Q 34.796875 1.5 30.1875 0.09375 
Q 25.59375 -1.296875 20.796875 -1.296875 
Q 17.09375 -1.296875 13.890625 -0.390625 
Q 10.703125 0.5 8.296875 2.390625 
Q 5.90625 4.296875 4.546875 7.1875 
Q 3.203125 10.09375 3.203125 14.09375 
Q 3.203125 18.5 4.75 21.34375 
Q 6.296875 24.203125 8.75 25.890625 
Q 11.203125 27.59375 14.34375 28.4375 
Q 17.5 29.296875 20.703125 29.796875 
Q 23.90625 30.296875 27 30.59375 
Q 30.09375 30.90625 32.5 31.5 
Q 34.90625 32.09375 36.296875 33.25 
Q 37.703125 34.40625 37.59375 36.59375 
Q 37.59375 38.90625 36.84375 40.25 
Q 36.09375 41.59375 34.84375 42.34375 
Q 33.59375 43.09375 31.9375 43.34375 
Q 30.296875 43.59375 28.40625 43.59375 
Q 24.203125 43.59375 21.796875 41.796875 
Q 19.40625 40 19 35.796875 
z
M 37.59375 25.296875 
Q 36.703125 24.5 35.34375 24.046875 
Q 34 23.59375 32.453125 23.296875 
Q 30.90625 23 29.203125 22.796875 
Q 27.5 22.59375 25.796875 22.296875 
Q 24.203125 22 22.640625 21.5 
Q 21.09375 21 19.9375 20.140625 
Q 18.796875 19.296875 18.09375 18 
Q 17.40625 16.703125 17.40625 14.703125 
Q 17.40625 12.796875 18.09375 11.5 
Q 18.796875 10.203125 20 9.453125 
Q 21.203125 8.703125 22.796875 8.390625 
Q 24.40625 8.09375 26.09375 8.09375 
Q 30.296875 8.09375 32.59375 9.5 
Q 34.90625 10.90625 36 12.84375 
Q 37.09375 14.796875 37.34375 16.796875 
Q 37.59375 18.796875 37.59375 20 
z
" id="HelveticaNeue-Bold-97"/>
    <path d="M 5.796875 71.40625 
L 5.796875 0 
L 20 0 
L 20 71.40625 
z
" id="HelveticaNeue-Bold-108"/>
    <path id="HelveticaNeue-Bold-32"/>
    <path d="M 5.40625 51.703125 
L 5.40625 0 
L 19.59375 0 
L 19.59375 27.09375 
Q 19.59375 35 22.1875 38.453125 
Q 24.796875 41.90625 30.59375 41.90625 
Q 35.703125 41.90625 37.703125 38.75 
Q 39.703125 35.59375 39.703125 29.203125 
L 39.703125 0 
L 53.90625 0 
L 53.90625 31.796875 
Q 53.90625 36.59375 53.046875 40.546875 
Q 52.203125 44.5 50.09375 47.25 
Q 48 50 44.34375 51.546875 
Q 40.703125 53.09375 35 53.09375 
Q 30.5 53.09375 26.203125 51.046875 
Q 21.90625 49 19.203125 44.5 
L 18.90625 44.5 
L 18.90625 51.703125 
z
" id="HelveticaNeue-Bold-110"/>
    <path d="M 42.09375 26 
Q 42.09375 22.796875 41.5 19.796875 
Q 40.90625 16.796875 39.5 14.4375 
Q 38.09375 12.09375 35.75 10.6875 
Q 33.40625 9.296875 29.90625 9.296875 
Q 26.59375 9.296875 24.25 10.75 
Q 21.90625 12.203125 20.34375 14.546875 
Q 18.796875 16.90625 18.09375 19.90625 
Q 17.40625 22.90625 17.40625 25.90625 
Q 17.40625 29.09375 18.046875 32.046875 
Q 18.703125 35 20.140625 37.296875 
Q 21.59375 39.59375 24 41 
Q 26.40625 42.40625 29.90625 42.40625 
Q 33.40625 42.40625 35.703125 41 
Q 38 39.59375 39.453125 37.34375 
Q 40.90625 35.09375 41.5 32.140625 
Q 42.09375 29.203125 42.09375 26 
z
M 42.296875 6.59375 
L 42.296875 0 
L 55.796875 0 
L 55.796875 71.40625 
L 41.59375 71.40625 
L 41.59375 45.40625 
L 41.40625 45.40625 
Q 39 49.203125 34.84375 51.140625 
Q 30.703125 53.09375 26.09375 53.09375 
Q 20.40625 53.09375 16.09375 50.84375 
Q 11.796875 48.59375 8.9375 44.890625 
Q 6.09375 41.203125 4.640625 36.34375 
Q 3.203125 31.5 3.203125 26.296875 
Q 3.203125 20.90625 4.640625 15.90625 
Q 6.09375 10.90625 8.9375 7.046875 
Q 11.796875 3.203125 16.1875 0.953125 
Q 20.59375 -1.296875 26.40625 -1.296875 
Q 31.5 -1.296875 35.546875 0.546875 
Q 39.59375 2.40625 42.09375 6.59375 
z
" id="HelveticaNeue-Bold-100"/>
    <path d="M 29.5 12.203125 
Q 26.203125 12.203125 24 13.59375 
Q 21.796875 15 20.4375 17.203125 
Q 19.09375 19.40625 18.546875 22.15625 
Q 18 24.90625 18 27.703125 
Q 18 30.59375 18.640625 33.25 
Q 19.296875 35.90625 20.75 37.953125 
Q 22.203125 40 24.34375 41.203125 
Q 26.5 42.40625 29.5 42.40625 
Q 33 42.40625 35.296875 41.09375 
Q 37.59375 39.796875 39 37.59375 
Q 40.40625 35.40625 41 32.546875 
Q 41.59375 29.703125 41.59375 26.5 
Q 41.59375 23.703125 40.84375 21.140625 
Q 40.09375 18.59375 38.59375 16.59375 
Q 37.09375 14.59375 34.796875 13.390625 
Q 32.5 12.203125 29.5 12.203125 
z
M 55.09375 3.296875 
L 55.09375 51.703125 
L 41.59375 51.703125 
L 41.59375 44.796875 
L 41.40625 44.796875 
Q 38.796875 49.296875 34.9375 51.1875 
Q 31.09375 53.09375 26 53.09375 
Q 20.59375 53.09375 16.4375 51 
Q 12.296875 48.90625 9.5 45.34375 
Q 6.703125 41.796875 5.25 37.140625 
Q 3.796875 32.5 3.796875 27.5 
Q 3.796875 22.203125 5.046875 17.453125 
Q 6.296875 12.703125 9 9.140625 
Q 11.703125 5.59375 15.890625 3.546875 
Q 20.09375 1.5 25.90625 1.5 
Q 30.59375 1.5 34.84375 3.453125 
Q 39.09375 5.40625 41.40625 9.5 
L 41.59375 9.5 
L 41.59375 2.703125 
Q 41.703125 -2.796875 38.953125 -6.390625 
Q 36.203125 -10 30.203125 -10 
Q 26.40625 -10 23.5 -8.453125 
Q 20.59375 -6.90625 19.59375 -2.90625 
L 5.5 -2.90625 
Q 5.796875 -7.296875 7.9375 -10.4375 
Q 10.09375 -13.59375 13.34375 -15.59375 
Q 16.59375 -17.59375 20.546875 -18.546875 
Q 24.5 -19.5 28.296875 -19.5 
Q 37.203125 -19.5 42.5 -17.09375 
Q 47.796875 -14.703125 50.59375 -11.25 
Q 53.40625 -7.796875 54.25 -3.796875 
Q 55.09375 0.203125 55.09375 3.296875 
z
" id="HelveticaNeue-Bold-103"/>
    <path d="M 43.296875 25.796875 
Q 43.296875 22.59375 42.59375 19.59375 
Q 41.90625 16.59375 40.40625 14.296875 
Q 38.90625 12 36.65625 10.640625 
Q 34.40625 9.296875 31.203125 9.296875 
Q 28.09375 9.296875 25.796875 10.640625 
Q 23.5 12 22 14.296875 
Q 20.5 16.59375 19.796875 19.59375 
Q 19.09375 22.59375 19.09375 25.796875 
Q 19.09375 29.09375 19.796875 32.09375 
Q 20.5 35.09375 22 37.390625 
Q 23.5 39.703125 25.796875 41.046875 
Q 28.09375 42.40625 31.203125 42.40625 
Q 34.40625 42.40625 36.65625 41.046875 
Q 38.90625 39.703125 40.40625 37.390625 
Q 41.90625 35.09375 42.59375 32.09375 
Q 43.296875 29.09375 43.296875 25.796875 
z
M 5.40625 71.40625 
L 5.40625 0 
L 18.90625 0 
L 18.90625 6.59375 
L 19.09375 6.59375 
Q 21.40625 2.296875 25.90625 0.5 
Q 30.40625 -1.296875 36.09375 -1.296875 
Q 40 -1.296875 43.796875 0.296875 
Q 47.59375 1.90625 50.640625 5.203125 
Q 53.703125 8.5 55.59375 13.640625 
Q 57.5 18.796875 57.5 25.90625 
Q 57.5 33 55.59375 38.140625 
Q 53.703125 43.296875 50.640625 46.59375 
Q 47.59375 49.90625 43.796875 51.5 
Q 40 53.09375 36.09375 53.09375 
Q 31.296875 53.09375 26.84375 51.25 
Q 22.40625 49.40625 19.796875 45.40625 
L 19.59375 45.40625 
L 19.59375 71.40625 
z
" id="HelveticaNeue-Bold-98"/>
    <path d="M 5.40625 51.703125 
L 5.40625 0 
L 19.59375 0 
L 19.59375 23.296875 
Q 19.59375 26.796875 20.296875 29.796875 
Q 21 32.796875 22.640625 35.046875 
Q 24.296875 37.296875 27 38.59375 
Q 29.703125 39.90625 33.59375 39.90625 
Q 34.90625 39.90625 36.296875 39.75 
Q 37.703125 39.59375 38.703125 39.40625 
L 38.703125 52.59375 
Q 37 53.09375 35.59375 53.09375 
Q 32.90625 53.09375 30.40625 52.296875 
Q 27.90625 51.5 25.703125 50.046875 
Q 23.5 48.59375 21.796875 46.546875 
Q 20.09375 44.5 19.09375 42.09375 
L 18.90625 42.09375 
L 18.90625 51.703125 
z
" id="HelveticaNeue-Bold-114"/>
    <path d="M 30.90625 -6.40625 
L 52.5 51.703125 
L 37.796875 51.703125 
L 26.5 16.296875 
L 26.296875 16.296875 
L 14.59375 51.703125 
L -0.5 51.703125 
L 17.59375 3.203125 
Q 18.203125 1.703125 18.203125 0 
Q 18.203125 -2.296875 16.84375 -4.1875 
Q 15.5 -6.09375 12.703125 -6.40625 
Q 10.59375 -6.5 8.5 -6.296875 
Q 6.40625 -6.09375 4.40625 -5.90625 
L 4.40625 -17.59375 
Q 6.59375 -17.796875 8.75 -17.9375 
Q 10.90625 -18.09375 13.09375 -18.09375 
Q 20.40625 -18.09375 24.5 -15.390625 
Q 28.59375 -12.703125 30.90625 -6.40625 
z
" id="HelveticaNeue-Bold-121"/>
    <path d="M 40.203125 31.40625 
L 17.09375 31.40625 
Q 17.203125 32.90625 17.75 34.796875 
Q 18.296875 36.703125 19.640625 38.390625 
Q 21 40.09375 23.25 41.25 
Q 25.5 42.40625 28.90625 42.40625 
Q 34.09375 42.40625 36.640625 39.59375 
Q 39.203125 36.796875 40.203125 31.40625 
z
M 17.09375 22.40625 
L 54.40625 22.40625 
Q 54.796875 28.40625 53.390625 33.90625 
Q 52 39.40625 48.84375 43.703125 
Q 45.703125 48 40.796875 50.546875 
Q 35.90625 53.09375 29.296875 53.09375 
Q 23.40625 53.09375 18.546875 51 
Q 13.703125 48.90625 10.203125 45.25 
Q 6.703125 41.59375 4.796875 36.59375 
Q 2.90625 31.59375 2.90625 25.796875 
Q 2.90625 19.796875 4.75 14.796875 
Q 6.59375 9.796875 10 6.1875 
Q 13.40625 2.59375 18.296875 0.640625 
Q 23.203125 -1.296875 29.296875 -1.296875 
Q 38.09375 -1.296875 44.296875 2.703125 
Q 50.5 6.703125 53.5 16 
L 41 16 
Q 40.296875 13.59375 37.1875 11.4375 
Q 34.09375 9.296875 29.796875 9.296875 
Q 23.796875 9.296875 20.59375 12.390625 
Q 17.40625 15.5 17.09375 22.40625 
z
" id="HelveticaNeue-Bold-101"/>
    <path d="M 16.40625 16.796875 
L 2.90625 16.796875 
Q 3.09375 11.59375 5.25 8.140625 
Q 7.40625 4.703125 10.75 2.59375 
Q 14.09375 0.5 18.390625 -0.390625 
Q 22.703125 -1.296875 27.203125 -1.296875 
Q 31.59375 -1.296875 35.84375 -0.4375 
Q 40.09375 0.40625 43.390625 2.5 
Q 46.703125 4.59375 48.75 8.046875 
Q 50.796875 11.5 50.796875 16.59375 
Q 50.796875 20.203125 49.390625 22.640625 
Q 48 25.09375 45.703125 26.75 
Q 43.40625 28.40625 40.453125 29.40625 
Q 37.5 30.40625 34.40625 31.09375 
Q 31.40625 31.796875 28.5 32.390625 
Q 25.59375 33 23.34375 33.75 
Q 21.09375 34.5 19.6875 35.703125 
Q 18.296875 36.90625 18.296875 38.796875 
Q 18.296875 40.40625 19.09375 41.34375 
Q 19.90625 42.296875 21.046875 42.796875 
Q 22.203125 43.296875 23.59375 43.4375 
Q 25 43.59375 26.203125 43.59375 
Q 30 43.59375 32.796875 42.140625 
Q 35.59375 40.703125 35.90625 36.59375 
L 49.40625 36.59375 
Q 49 41.40625 46.953125 44.546875 
Q 44.90625 47.703125 41.796875 49.59375 
Q 38.703125 51.5 34.75 52.296875 
Q 30.796875 53.09375 26.59375 53.09375 
Q 22.40625 53.09375 18.40625 52.34375 
Q 14.40625 51.59375 11.203125 49.75 
Q 8 47.90625 6.046875 44.703125 
Q 4.09375 41.5 4.09375 36.5 
Q 4.09375 33.09375 5.5 30.75 
Q 6.90625 28.40625 9.203125 26.84375 
Q 11.5 25.296875 14.453125 24.34375 
Q 17.40625 23.40625 20.5 22.703125 
Q 28.09375 21.09375 32.34375 19.5 
Q 36.59375 17.90625 36.59375 14.703125 
Q 36.59375 12.796875 35.6875 11.546875 
Q 34.796875 10.296875 33.4375 9.546875 
Q 32.09375 8.796875 30.4375 8.4375 
Q 28.796875 8.09375 27.296875 8.09375 
Q 25.203125 8.09375 23.25 8.59375 
Q 21.296875 9.09375 19.796875 10.140625 
Q 18.296875 11.203125 17.34375 12.84375 
Q 16.40625 14.5 16.40625 16.796875 
z
" id="HelveticaNeue-Bold-115"/>
    <path d="M 5.796875 51.703125 
L 5.796875 0 
L 20 0 
L 20 30 
Q 20 33.796875 21.09375 36.140625 
Q 22.203125 38.5 23.75 39.75 
Q 25.296875 41 26.9375 41.453125 
Q 28.59375 41.90625 29.59375 41.90625 
Q 33 41.90625 34.75 40.75 
Q 36.5 39.59375 37.25 37.6875 
Q 38 35.796875 38.09375 33.546875 
Q 38.203125 31.296875 38.203125 29 
L 38.203125 0 
L 52.40625 0 
L 52.40625 28.796875 
Q 52.40625 31.203125 52.75 33.546875 
Q 53.09375 35.90625 54.140625 37.75 
Q 55.203125 39.59375 57.046875 40.75 
Q 58.90625 41.90625 61.90625 41.90625 
Q 64.90625 41.90625 66.65625 40.90625 
Q 68.40625 39.90625 69.296875 38.203125 
Q 70.203125 36.5 70.390625 34.203125 
Q 70.59375 31.90625 70.59375 29.296875 
L 70.59375 0 
L 84.796875 0 
L 84.796875 34.59375 
Q 84.796875 39.59375 83.390625 43.140625 
Q 82 46.703125 79.5 48.890625 
Q 77 51.09375 73.5 52.09375 
Q 70 53.09375 65.90625 53.09375 
Q 60.5 53.09375 56.546875 50.5 
Q 52.59375 47.90625 50.296875 44.5 
Q 48.203125 49.296875 44.140625 51.1875 
Q 40.09375 53.09375 35.203125 53.09375 
Q 30.09375 53.09375 26.140625 50.890625 
Q 22.203125 48.703125 19.40625 44.703125 
L 19.203125 44.703125 
L 19.203125 51.703125 
z
" id="HelveticaNeue-Bold-109"/>
   </defs>
   <g transform="translate(138.905047 9.99571)scale(0.09 -0.09)">
    <use xlink:href="#HelveticaNeue-Bold-76"/>
    <use x="59.299988" xlink:href="#HelveticaNeue-Bold-111"/>
    <use x="120.399979" xlink:href="#HelveticaNeue-Bold-99"/>
    <use x="177.799973" xlink:href="#HelveticaNeue-Bold-97"/>
    <use x="235.199966" xlink:href="#HelveticaNeue-Bold-108"/>
    <use x="260.999954" xlink:href="#HelveticaNeue-Bold-32"/>
    <use x="288.799942" xlink:href="#HelveticaNeue-Bold-97"/>
    <use x="346.199936" xlink:href="#HelveticaNeue-Bold-110"/>
    <use x="405.499924" xlink:href="#HelveticaNeue-Bold-100"/>
    <use x="466.599915" xlink:href="#HelveticaNeue-Bold-32"/>
    <use x="494.399902" xlink:href="#HelveticaNeue-Bold-103"/>
    <use x="555.499893" xlink:href="#HelveticaNeue-Bold-108"/>
    <use x="581.299881" xlink:href="#HelveticaNeue-Bold-111"/>
    <use x="642.399872" xlink:href="#HelveticaNeue-Bold-98"/>
    <use x="703.499863" xlink:href="#HelveticaNeue-Bold-97"/>
    <use x="760.899857" xlink:href="#HelveticaNeue-Bold-108"/>
    <use x="786.699844" xlink:href="#HelveticaNeue-Bold-32"/>
    <use x="814.499832" xlink:href="#HelveticaNeue-Bold-99"/>
    <use x="871.899826" xlink:href="#HelveticaNeue-Bold-111"/>
    <use x="932.999817" xlink:href="#HelveticaNeue-Bold-108"/>
    <use x="958.799805" xlink:href="#HelveticaNeue-Bold-111"/>
    <use x="1019.899796" xlink:href="#HelveticaNeue-Bold-114"/>
    <use x="1058.799789" xlink:href="#HelveticaNeue-Bold-32"/>
    <use x="1086.599777" xlink:href="#HelveticaNeue-Bold-99"/>
    <use x="1143.999771" xlink:href="#HelveticaNeue-Bold-121"/>
    <use x="1195.899765" xlink:href="#HelveticaNeue-Bold-99"/>
    <use x="1253.299759" xlink:href="#HelveticaNeue-Bold-108"/>
    <use x="1279.099747" xlink:href="#HelveticaNeue-Bold-101"/>
    <use x="1336.499741" xlink:href="#HelveticaNeue-Bold-115"/>
    <use x="1390.199738" xlink:href="#HelveticaNeue-Bold-32"/>
    <use x="1417.999725" xlink:href="#HelveticaNeue-Bold-100"/>
    <use x="1479.099716" xlink:href="#HelveticaNeue-Bold-101"/>
    <use x="1536.49971" xlink:href="#HelveticaNeue-Bold-109"/>
    <use x="1627.099701" xlink:href="#HelveticaNeue-Bold-111"/>
   </g>
  </g>
 </g>
 <defs>
  <clipPath id="p3a87a1f368">
   <rect height="122.4" width="122.4" x="19.2475" y="14.61125"/>
  </clipPath>
  <clipPath id="p49a2e43550">
   <rect height="122.4" width="122.4" x="153.6475" y="14.61125"/>
  </clipPath>
  <clipPath id="pa88d352fa7">
   <rect height="122.4" width="122.4" x="288.0475" y="14.61125"/>
  </clipPath>
 </defs>
</svg>
