<?xml version="1.0" encoding="utf-8" standalone="no"?>
<!DOCTYPE svg PUBLIC "-//W3C//DTD SVG 1.1//EN"
  "http://www.w3.org/Graphics/SVG/1.1/DTD/svg11.dtd">
<!-- Created with matplotlib (https://matplotlib.org/) -->
<svg height="292.3pt" version="1.1" viewBox="0 0 268 292.3" width="268pt" xmlns="http://www.w3.org/2000/svg" xmlns:xlink="http://www.w3.org/1999/xlink">
 <defs>
  <style type="text/css">
*{stroke-linecap:butt;stroke-linejoin:round;}
  </style>
 </defs>
 <g id="figure_1">
  <g id="patch_1">
   <path d="M 0 292.3 
L 268 292.3 
L 268 0 
L 0 0 
z
" style="fill:#f2f2f2;"/>
  </g>
  <g id="axes_1">
   <g id="patch_2">
    <path d="M 31.5 125.5 
L 139.5 125.5 
L 139.5 17.5 
L 31.5 17.5 
z
" style="fill:#ffffff;"/>
   </g>
   <g id="matplotlib.axis_1">
    <g id="xtick_1">
     <g id="line2d_1">
      <path clip-path="url(#pa7bac6625e)" d="M 31.5 125.5 
L 31.5 17.5 
" style="fill:none;stroke:#000000;stroke-linecap:square;stroke-opacity:0.1;stroke-width:0.6;"/>
     </g>
     <g id="line2d_2">
      <defs>
       <path d="M 0 0 
L 0 4 
" id="m452bd6aba3" style="stroke:#000000;stroke-width:0.6;"/>
      </defs>
      <g>
       <use style="stroke:#000000;stroke-width:0.6;" x="31.5" xlink:href="#m452bd6aba3" y="125.5"/>
      </g>
     </g>
     <g id="text_1">
      <!-- 0 -->
      <defs>
       <path d="M 13.203125 34.90625 
Q 13.203125 37.5 13.25 40.640625 
Q 13.296875 43.796875 13.75 46.9375 
Q 14.203125 50.09375 15.046875 53.09375 
Q 15.90625 56.09375 17.546875 58.34375 
Q 19.203125 60.59375 21.703125 62 
Q 24.203125 63.40625 27.796875 63.40625 
Q 31.40625 63.40625 33.90625 62 
Q 36.40625 60.59375 38.046875 58.34375 
Q 39.703125 56.09375 40.546875 53.09375 
Q 41.40625 50.09375 41.84375 46.9375 
Q 42.296875 43.796875 42.34375 40.640625 
Q 42.40625 37.5 42.40625 34.90625 
Q 42.40625 30.90625 42.15625 25.953125 
Q 41.90625 21 40.546875 16.640625 
Q 39.203125 12.296875 36.203125 9.296875 
Q 33.203125 6.296875 27.796875 6.296875 
Q 22.40625 6.296875 19.40625 9.296875 
Q 16.40625 12.296875 15.046875 16.640625 
Q 13.703125 21 13.453125 25.953125 
Q 13.203125 30.90625 13.203125 34.90625 
z
M 4.203125 34.796875 
Q 4.203125 30.90625 4.390625 26.703125 
Q 4.59375 22.5 5.390625 18.5 
Q 6.203125 14.5 7.703125 10.953125 
Q 9.203125 7.40625 11.796875 4.703125 
Q 14.40625 2 18.34375 0.453125 
Q 22.296875 -1.09375 27.796875 -1.09375 
Q 33.40625 -1.09375 37.296875 0.453125 
Q 41.203125 2 43.796875 4.703125 
Q 46.40625 7.40625 47.90625 10.953125 
Q 49.40625 14.5 50.203125 18.5 
Q 51 22.5 51.203125 26.703125 
Q 51.40625 30.90625 51.40625 34.796875 
Q 51.40625 38.703125 51.203125 42.890625 
Q 51 47.09375 50.203125 51.09375 
Q 49.40625 55.09375 47.90625 58.6875 
Q 46.40625 62.296875 43.796875 65 
Q 41.203125 67.703125 37.25 69.296875 
Q 33.296875 70.90625 27.796875 70.90625 
Q 22.296875 70.90625 18.34375 69.296875 
Q 14.40625 67.703125 11.796875 65 
Q 9.203125 62.296875 7.703125 58.6875 
Q 6.203125 55.09375 5.390625 51.09375 
Q 4.59375 47.09375 4.390625 42.890625 
Q 4.203125 38.703125 4.203125 34.796875 
z
" id="HelveticaNeue-48"/>
      </defs>
      <g transform="translate(29.27625 137.2125)scale(0.08 -0.08)">
       <use xlink:href="#HelveticaNeue-48"/>
      </g>
     </g>
    </g>
    <g id="xtick_2">
     <g id="line2d_3">
      <path clip-path="url(#pa7bac6625e)" d="M 58.5 125.5 
L 58.5 17.5 
" style="fill:none;stroke:#000000;stroke-linecap:square;stroke-opacity:0.1;stroke-width:0.6;"/>
     </g>
     <g id="line2d_4">
      <g>
       <use style="stroke:#000000;stroke-width:0.6;" x="58.5" xlink:href="#m452bd6aba3" y="125.5"/>
      </g>
     </g>
     <g id="text_2">
      <!-- 0.25 -->
      <defs>
       <path d="M 8.296875 11.09375 
L 8.296875 0 
L 19.40625 0 
L 19.40625 11.09375 
z
" id="HelveticaNeue-46"/>
       <path d="M 4.40625 45.796875 
L 12.90625 45.796875 
Q 12.796875 49 13.546875 52.140625 
Q 14.296875 55.296875 16 57.796875 
Q 17.703125 60.296875 20.34375 61.84375 
Q 23 63.40625 26.703125 63.40625 
Q 29.5 63.40625 32 62.5 
Q 34.5 61.59375 36.34375 59.890625 
Q 38.203125 58.203125 39.296875 55.84375 
Q 40.40625 53.5 40.40625 50.59375 
Q 40.40625 46.90625 39.25 44.09375 
Q 38.09375 41.296875 35.84375 38.890625 
Q 33.59375 36.5 30.1875 34.140625 
Q 26.796875 31.796875 22.296875 29 
Q 18.59375 26.796875 15.1875 24.296875 
Q 11.796875 21.796875 9.09375 18.5 
Q 6.40625 15.203125 4.65625 10.75 
Q 2.90625 6.296875 2.40625 0 
L 48.703125 0 
L 48.703125 7.5 
L 12.296875 7.5 
Q 12.90625 10.796875 14.84375 13.34375 
Q 16.796875 15.90625 19.546875 18.09375 
Q 22.296875 20.296875 25.59375 22.25 
Q 28.90625 24.203125 32.203125 26.203125 
Q 35.5 28.296875 38.59375 30.59375 
Q 41.703125 32.90625 44.09375 35.75 
Q 46.5 38.59375 47.953125 42.1875 
Q 49.40625 45.796875 49.40625 50.5 
Q 49.40625 55.5 47.65625 59.296875 
Q 45.90625 63.09375 42.90625 65.640625 
Q 39.90625 68.203125 35.84375 69.546875 
Q 31.796875 70.90625 27.203125 70.90625 
Q 21.59375 70.90625 17.1875 69 
Q 12.796875 67.09375 9.84375 63.75 
Q 6.90625 60.40625 5.5 55.796875 
Q 4.09375 51.203125 4.40625 45.796875 
z
" id="HelveticaNeue-50"/>
       <path d="M 47 62.203125 
L 47 69.703125 
L 12 69.703125 
L 5.40625 32.90625 
L 12.703125 32.5 
Q 15.203125 35.5 18.453125 37.34375 
Q 21.703125 39.203125 25.90625 39.203125 
Q 29.5 39.203125 32.453125 38 
Q 35.40625 36.796875 37.5 34.640625 
Q 39.59375 32.5 40.75 29.546875 
Q 41.90625 26.59375 41.90625 23.09375 
Q 41.90625 18.90625 40.703125 15.75 
Q 39.5 12.59375 37.453125 10.5 
Q 35.40625 8.40625 32.65625 7.34375 
Q 29.90625 6.296875 26.90625 6.296875 
Q 23.703125 6.296875 21.046875 7.25 
Q 18.40625 8.203125 16.453125 9.953125 
Q 14.5 11.703125 13.34375 14.046875 
Q 12.203125 16.40625 12 19.09375 
L 3.5 19.09375 
Q 3.59375 14.296875 5.390625 10.5 
Q 7.203125 6.703125 10.296875 4.140625 
Q 13.40625 1.59375 17.453125 0.25 
Q 21.5 -1.09375 26.09375 -1.09375 
Q 32.296875 -1.09375 36.9375 0.84375 
Q 41.59375 2.796875 44.6875 6.09375 
Q 47.796875 9.40625 49.34375 13.65625 
Q 50.90625 17.90625 50.90625 22.40625 
Q 50.90625 28.5 49.09375 33.046875 
Q 47.296875 37.59375 44.1875 40.640625 
Q 41.09375 43.703125 36.890625 45.203125 
Q 32.703125 46.703125 28 46.703125 
Q 24.40625 46.703125 20.75 45.453125 
Q 17.09375 44.203125 14.796875 41.59375 
L 14.59375 41.796875 
L 18.40625 62.203125 
z
" id="HelveticaNeue-53"/>
      </defs>
      <g transform="translate(50.716875 137.2125)scale(0.08 -0.08)">
       <use xlink:href="#HelveticaNeue-48"/>
       <use x="55.599991" xlink:href="#HelveticaNeue-46"/>
       <use x="83.399979" xlink:href="#HelveticaNeue-50"/>
       <use x="138.999969" xlink:href="#HelveticaNeue-53"/>
      </g>
     </g>
    </g>
    <g id="xtick_3">
     <g id="line2d_5">
      <path clip-path="url(#pa7bac6625e)" d="M 85.5 125.5 
L 85.5 17.5 
" style="fill:none;stroke:#000000;stroke-linecap:square;stroke-opacity:0.1;stroke-width:0.6;"/>
     </g>
     <g id="line2d_6">
      <g>
       <use style="stroke:#000000;stroke-width:0.6;" x="85.5" xlink:href="#m452bd6aba3" y="125.5"/>
      </g>
     </g>
     <g id="text_3">
      <!-- 0.5 -->
      <g transform="translate(79.940625 137.2125)scale(0.08 -0.08)">
       <use xlink:href="#HelveticaNeue-48"/>
       <use x="55.599991" xlink:href="#HelveticaNeue-46"/>
       <use x="83.399979" xlink:href="#HelveticaNeue-53"/>
      </g>
     </g>
    </g>
    <g id="xtick_4">
     <g id="line2d_7">
      <path clip-path="url(#pa7bac6625e)" d="M 112.5 125.5 
L 112.5 17.5 
" style="fill:none;stroke:#000000;stroke-linecap:square;stroke-opacity:0.1;stroke-width:0.6;"/>
     </g>
     <g id="line2d_8">
      <g>
       <use style="stroke:#000000;stroke-width:0.6;" x="112.5" xlink:href="#m452bd6aba3" y="125.5"/>
      </g>
     </g>
     <g id="text_4">
      <!-- 0.75 -->
      <defs>
       <path d="M 50.90625 62.40625 
L 50.90625 69.703125 
L 5 69.703125 
L 5 61.703125 
L 42.203125 61.703125 
Q 36.59375 55.796875 31.75 48.796875 
Q 26.90625 41.796875 23.203125 33.9375 
Q 19.5 26.09375 17.140625 17.546875 
Q 14.796875 9 14.203125 0 
L 23.703125 0 
Q 24.203125 8.296875 26.5 17.09375 
Q 28.796875 25.90625 32.4375 34.203125 
Q 36.09375 42.5 40.796875 49.796875 
Q 45.5 57.09375 50.90625 62.40625 
z
" id="HelveticaNeue-55"/>
      </defs>
      <g transform="translate(104.716875 137.2125)scale(0.08 -0.08)">
       <use xlink:href="#HelveticaNeue-48"/>
       <use x="55.599991" xlink:href="#HelveticaNeue-46"/>
       <use x="83.399979" xlink:href="#HelveticaNeue-55"/>
       <use x="138.999969" xlink:href="#HelveticaNeue-53"/>
      </g>
     </g>
    </g>
    <g id="xtick_5">
     <g id="line2d_9">
      <path clip-path="url(#pa7bac6625e)" d="M 139.5 125.5 
L 139.5 17.5 
" style="fill:none;stroke:#000000;stroke-linecap:square;stroke-opacity:0.1;stroke-width:0.6;"/>
     </g>
     <g id="line2d_10">
      <g>
       <use style="stroke:#000000;stroke-width:0.6;" x="139.5" xlink:href="#m452bd6aba3" y="125.5"/>
      </g>
     </g>
     <g id="text_5">
      <!-- 1 -->
      <defs>
       <path d="M 35.59375 0 
L 35.59375 70.90625 
L 29.09375 70.90625 
Q 28.40625 66.90625 26.5 64.296875 
Q 24.59375 61.703125 21.84375 60.203125 
Q 19.09375 58.703125 15.6875 58.140625 
Q 12.296875 57.59375 8.703125 57.59375 
L 8.703125 50.796875 
L 27.09375 50.796875 
L 27.09375 0 
z
" id="HelveticaNeue-49"/>
      </defs>
      <g transform="translate(137.27625 137.2125)scale(0.08 -0.08)">
       <use xlink:href="#HelveticaNeue-49"/>
      </g>
     </g>
    </g>
    <g id="xtick_6">
     <g id="line2d_11">
      <defs>
       <path d="M 0 0 
L 0 2 
" id="mb6b1bff543" style="stroke:#000000;stroke-width:0.48;"/>
      </defs>
      <g>
       <use style="stroke:#000000;stroke-width:0.48;" x="36.9" xlink:href="#mb6b1bff543" y="125.5"/>
      </g>
     </g>
    </g>
    <g id="xtick_7">
     <g id="line2d_12">
      <g>
       <use style="stroke:#000000;stroke-width:0.48;" x="42.3" xlink:href="#mb6b1bff543" y="125.5"/>
      </g>
     </g>
    </g>
    <g id="xtick_8">
     <g id="line2d_13">
      <g>
       <use style="stroke:#000000;stroke-width:0.48;" x="47.7" xlink:href="#mb6b1bff543" y="125.5"/>
      </g>
     </g>
    </g>
    <g id="xtick_9">
     <g id="line2d_14">
      <g>
       <use style="stroke:#000000;stroke-width:0.48;" x="53.1" xlink:href="#mb6b1bff543" y="125.5"/>
      </g>
     </g>
    </g>
    <g id="xtick_10">
     <g id="line2d_15">
      <g>
       <use style="stroke:#000000;stroke-width:0.48;" x="63.9" xlink:href="#mb6b1bff543" y="125.5"/>
      </g>
     </g>
    </g>
    <g id="xtick_11">
     <g id="line2d_16">
      <g>
       <use style="stroke:#000000;stroke-width:0.48;" x="69.3" xlink:href="#mb6b1bff543" y="125.5"/>
      </g>
     </g>
    </g>
    <g id="xtick_12">
     <g id="line2d_17">
      <g>
       <use style="stroke:#000000;stroke-width:0.48;" x="74.7" xlink:href="#mb6b1bff543" y="125.5"/>
      </g>
     </g>
    </g>
    <g id="xtick_13">
     <g id="line2d_18">
      <g>
       <use style="stroke:#000000;stroke-width:0.48;" x="80.1" xlink:href="#mb6b1bff543" y="125.5"/>
      </g>
     </g>
    </g>
    <g id="xtick_14">
     <g id="line2d_19">
      <g>
       <use style="stroke:#000000;stroke-width:0.48;" x="90.9" xlink:href="#mb6b1bff543" y="125.5"/>
      </g>
     </g>
    </g>
    <g id="xtick_15">
     <g id="line2d_20">
      <g>
       <use style="stroke:#000000;stroke-width:0.48;" x="96.3" xlink:href="#mb6b1bff543" y="125.5"/>
      </g>
     </g>
    </g>
    <g id="xtick_16">
     <g id="line2d_21">
      <g>
       <use style="stroke:#000000;stroke-width:0.48;" x="101.7" xlink:href="#mb6b1bff543" y="125.5"/>
      </g>
     </g>
    </g>
    <g id="xtick_17">
     <g id="line2d_22">
      <g>
       <use style="stroke:#000000;stroke-width:0.48;" x="107.1" xlink:href="#mb6b1bff543" y="125.5"/>
      </g>
     </g>
    </g>
    <g id="xtick_18">
     <g id="line2d_23">
      <g>
       <use style="stroke:#000000;stroke-width:0.48;" x="117.9" xlink:href="#mb6b1bff543" y="125.5"/>
      </g>
     </g>
    </g>
    <g id="xtick_19">
     <g id="line2d_24">
      <g>
       <use style="stroke:#000000;stroke-width:0.48;" x="123.3" xlink:href="#mb6b1bff543" y="125.5"/>
      </g>
     </g>
    </g>
    <g id="xtick_20">
     <g id="line2d_25">
      <g>
       <use style="stroke:#000000;stroke-width:0.48;" x="128.7" xlink:href="#mb6b1bff543" y="125.5"/>
      </g>
     </g>
    </g>
    <g id="xtick_21">
     <g id="line2d_26">
      <g>
       <use style="stroke:#000000;stroke-width:0.48;" x="134.1" xlink:href="#mb6b1bff543" y="125.5"/>
      </g>
     </g>
    </g>
    <g id="text_6">
     <!-- xlabel -->
     <defs>
      <path d="M 20.296875 27.203125 
L 0.90625 0 
L 11.203125 0 
L 25.59375 21.40625 
L 40 0 
L 50.90625 0 
L 30.90625 27.90625 
L 48.703125 51.703125 
L 38.5 51.703125 
L 25.59375 33.59375 
L 13.203125 51.703125 
L 2.296875 51.703125 
z
" id="HelveticaNeue-120"/>
      <path d="M 6.90625 71.40625 
L 6.90625 0 
L 15.40625 0 
L 15.40625 71.40625 
z
" id="HelveticaNeue-108"/>
      <path d="M 52.203125 0.203125 
Q 50 -1.09375 46.09375 -1.09375 
Q 42.796875 -1.09375 40.84375 0.75 
Q 38.90625 2.59375 38.90625 6.796875 
Q 35.40625 2.59375 30.75 0.75 
Q 26.09375 -1.09375 20.703125 -1.09375 
Q 17.203125 -1.09375 14.046875 -0.296875 
Q 10.90625 0.5 8.59375 2.203125 
Q 6.296875 3.90625 4.9375 6.65625 
Q 3.59375 9.40625 3.59375 13.296875 
Q 3.59375 17.703125 5.09375 20.5 
Q 6.59375 23.296875 9.046875 25.046875 
Q 11.5 26.796875 14.640625 27.6875 
Q 17.796875 28.59375 21.09375 29.203125 
Q 24.59375 29.90625 27.75 30.25 
Q 30.90625 30.59375 33.296875 31.25 
Q 35.703125 31.90625 37.09375 33.15625 
Q 38.5 34.40625 38.5 36.796875 
Q 38.5 39.59375 37.453125 41.296875 
Q 36.40625 43 34.75 43.890625 
Q 33.09375 44.796875 31.046875 45.09375 
Q 29 45.40625 27 45.40625 
Q 21.59375 45.40625 18 43.34375 
Q 14.40625 41.296875 14.09375 35.59375 
L 5.59375 35.59375 
Q 5.796875 40.40625 7.59375 43.703125 
Q 9.40625 47 12.40625 49.046875 
Q 15.40625 51.09375 19.25 52 
Q 23.09375 52.90625 27.5 52.90625 
Q 31 52.90625 34.453125 52.40625 
Q 37.90625 51.90625 40.703125 50.34375 
Q 43.5 48.796875 45.203125 46 
Q 46.90625 43.203125 46.90625 38.703125 
L 46.90625 12.09375 
Q 46.90625 9.09375 47.25 7.6875 
Q 47.59375 6.296875 49.59375 6.296875 
Q 50.703125 6.296875 52.203125 6.796875 
z
M 38.40625 26.703125 
Q 36.796875 25.5 34.1875 24.953125 
Q 31.59375 24.40625 28.75 24.046875 
Q 25.90625 23.703125 23 23.25 
Q 20.09375 22.796875 17.796875 21.796875 
Q 15.5 20.796875 14.046875 18.9375 
Q 12.59375 17.09375 12.59375 13.90625 
Q 12.59375 11.796875 13.4375 10.34375 
Q 14.296875 8.90625 15.640625 8 
Q 17 7.09375 18.796875 6.6875 
Q 20.59375 6.296875 22.59375 6.296875 
Q 26.796875 6.296875 29.796875 7.4375 
Q 32.796875 8.59375 34.6875 10.34375 
Q 36.59375 12.09375 37.5 14.140625 
Q 38.40625 16.203125 38.40625 18 
z
" id="HelveticaNeue-97"/>
      <path d="M 6.703125 71.40625 
L 6.703125 0 
L 15.203125 0 
L 15.203125 6.90625 
L 15.40625 6.90625 
Q 16.796875 4.59375 18.84375 3.046875 
Q 20.90625 1.5 23.203125 0.59375 
Q 25.5 -0.296875 27.84375 -0.6875 
Q 30.203125 -1.09375 32.09375 -1.09375 
Q 38 -1.09375 42.453125 1 
Q 46.90625 3.09375 49.84375 6.75 
Q 52.796875 10.40625 54.25 15.296875 
Q 55.703125 20.203125 55.703125 25.703125 
Q 55.703125 31.203125 54.203125 36.09375 
Q 52.703125 41 49.75 44.75 
Q 46.796875 48.5 42.34375 50.703125 
Q 37.90625 52.90625 31.90625 52.90625 
Q 26.5 52.90625 22 50.953125 
Q 17.5 49 15.40625 44.703125 
L 15.203125 44.703125 
L 15.203125 71.40625 
z
M 46.703125 26.296875 
Q 46.703125 22.5 45.890625 18.890625 
Q 45.09375 15.296875 43.296875 12.5 
Q 41.5 9.703125 38.546875 8 
Q 35.59375 6.296875 31.203125 6.296875 
Q 26.796875 6.296875 23.6875 7.9375 
Q 20.59375 9.59375 18.640625 12.296875 
Q 16.703125 15 15.796875 18.546875 
Q 14.90625 22.09375 14.90625 25.90625 
Q 14.90625 29.5 15.75 33 
Q 16.59375 36.5 18.5 39.25 
Q 20.40625 42 23.40625 43.703125 
Q 26.40625 45.40625 30.703125 45.40625 
Q 34.796875 45.40625 37.84375 43.796875 
Q 40.90625 42.203125 42.84375 39.5 
Q 44.796875 36.796875 45.75 33.34375 
Q 46.703125 29.90625 46.703125 26.296875 
z
" id="HelveticaNeue-98"/>
      <path d="M 42.296875 30.796875 
L 12.59375 30.796875 
Q 12.796875 33.796875 13.890625 36.4375 
Q 15 39.09375 16.890625 41.09375 
Q 18.796875 43.09375 21.4375 44.25 
Q 24.09375 45.40625 27.40625 45.40625 
Q 30.59375 45.40625 33.25 44.25 
Q 35.90625 43.09375 37.84375 41.140625 
Q 39.796875 39.203125 40.9375 36.5 
Q 42.09375 33.796875 42.296875 30.796875 
z
M 50.5 16.40625 
L 42.09375 16.40625 
Q 41 11.296875 37.546875 8.796875 
Q 34.09375 6.296875 28.703125 6.296875 
Q 24.5 6.296875 21.390625 7.6875 
Q 18.296875 9.09375 16.296875 11.4375 
Q 14.296875 13.796875 13.390625 16.84375 
Q 12.5 19.90625 12.59375 23.296875 
L 51.296875 23.296875 
Q 51.5 28 50.453125 33.203125 
Q 49.40625 38.40625 46.65625 42.796875 
Q 43.90625 47.203125 39.34375 50.046875 
Q 34.796875 52.90625 27.90625 52.90625 
Q 22.59375 52.90625 18.140625 50.90625 
Q 13.703125 48.90625 10.453125 45.296875 
Q 7.203125 41.703125 5.390625 36.796875 
Q 3.59375 31.90625 3.59375 26 
Q 3.796875 20.09375 5.34375 15.09375 
Q 6.90625 10.09375 10 6.5 
Q 13.09375 2.90625 17.640625 0.90625 
Q 22.203125 -1.09375 28.40625 -1.09375 
Q 37.203125 -1.09375 43 3.296875 
Q 48.796875 7.703125 50.5 16.40625 
z
" id="HelveticaNeue-101"/>
     </defs>
     <g transform="translate(136.10875 147.50125)scale(0.08 -0.08)">
      <use xlink:href="#HelveticaNeue-120"/>
      <use x="51.799988" xlink:href="#HelveticaNeue-108"/>
      <use x="73.999985" xlink:href="#HelveticaNeue-97"/>
      <use x="127.699982" xlink:href="#HelveticaNeue-98"/>
      <use x="186.999969" xlink:href="#HelveticaNeue-101"/>
      <use x="240.699966" xlink:href="#HelveticaNeue-108"/>
     </g>
    </g>
   </g>
   <g id="matplotlib.axis_2">
    <g id="ytick_1">
     <g id="line2d_27">
      <path clip-path="url(#pa7bac6625e)" d="M 31.5 125.5 
L 139.5 125.5 
" style="fill:none;stroke:#000000;stroke-linecap:square;stroke-opacity:0.1;stroke-width:0.6;"/>
     </g>
     <g id="line2d_28">
      <defs>
       <path d="M 0 0 
L -4 0 
" id="m69412b3c0f" style="stroke:#000000;stroke-width:0.6;"/>
      </defs>
      <g>
       <use style="stroke:#000000;stroke-width:0.6;" x="31.5" xlink:href="#m69412b3c0f" y="125.5"/>
      </g>
     </g>
     <g id="text_7">
      <!-- 0 -->
      <g transform="translate(21.0525 128.35625)scale(0.08 -0.08)">
       <use xlink:href="#HelveticaNeue-48"/>
      </g>
     </g>
    </g>
    <g id="ytick_2">
     <g id="line2d_29">
      <path clip-path="url(#pa7bac6625e)" d="M 31.5 103.9 
L 139.5 103.9 
" style="fill:none;stroke:#000000;stroke-linecap:square;stroke-opacity:0.1;stroke-width:0.6;"/>
     </g>
     <g id="line2d_30">
      <g>
       <use style="stroke:#000000;stroke-width:0.6;" x="31.5" xlink:href="#m69412b3c0f" y="103.9"/>
      </g>
     </g>
     <g id="text_8">
      <!-- 0.2 -->
      <g transform="translate(14.38125 106.75625)scale(0.08 -0.08)">
       <use xlink:href="#HelveticaNeue-48"/>
       <use x="55.599991" xlink:href="#HelveticaNeue-46"/>
       <use x="83.399979" xlink:href="#HelveticaNeue-50"/>
      </g>
     </g>
    </g>
    <g id="ytick_3">
     <g id="line2d_31">
      <path clip-path="url(#pa7bac6625e)" d="M 31.5 82.3 
L 139.5 82.3 
" style="fill:none;stroke:#000000;stroke-linecap:square;stroke-opacity:0.1;stroke-width:0.6;"/>
     </g>
     <g id="line2d_32">
      <g>
       <use style="stroke:#000000;stroke-width:0.6;" x="31.5" xlink:href="#m69412b3c0f" y="82.3"/>
      </g>
     </g>
     <g id="text_9">
      <!-- 0.4 -->
      <defs>
       <path d="M 33.90625 24.09375 
L 10.09375 24.09375 
L 33.703125 58.796875 
L 33.90625 58.796875 
z
M 41.90625 24.09375 
L 41.90625 70.90625 
L 35.09375 70.90625 
L 2.796875 24.796875 
L 2.796875 16.59375 
L 33.90625 16.59375 
L 33.90625 0 
L 41.90625 0 
L 41.90625 16.59375 
L 51.5 16.59375 
L 51.5 24.09375 
z
" id="HelveticaNeue-52"/>
      </defs>
      <g transform="translate(14.38125 85.15625)scale(0.08 -0.08)">
       <use xlink:href="#HelveticaNeue-48"/>
       <use x="55.599991" xlink:href="#HelveticaNeue-46"/>
       <use x="83.399979" xlink:href="#HelveticaNeue-52"/>
      </g>
     </g>
    </g>
    <g id="ytick_4">
     <g id="line2d_33">
      <path clip-path="url(#pa7bac6625e)" d="M 31.5 60.7 
L 139.5 60.7 
" style="fill:none;stroke:#000000;stroke-linecap:square;stroke-opacity:0.1;stroke-width:0.6;"/>
     </g>
     <g id="line2d_34">
      <g>
       <use style="stroke:#000000;stroke-width:0.6;" x="31.5" xlink:href="#m69412b3c0f" y="60.7"/>
      </g>
     </g>
     <g id="text_10">
      <!-- 0.6 -->
      <defs>
       <path d="M 41.40625 52.796875 
L 49.90625 52.796875 
Q 49.09375 61.59375 43.890625 66.25 
Q 38.703125 70.90625 29.90625 70.90625 
Q 22.296875 70.90625 17.296875 67.703125 
Q 12.296875 64.5 9.296875 59.203125 
Q 6.296875 53.90625 5.046875 47.046875 
Q 3.796875 40.203125 3.796875 32.90625 
Q 3.796875 27.296875 4.640625 21.296875 
Q 5.5 15.296875 8.09375 10.296875 
Q 10.703125 5.296875 15.5 2.09375 
Q 20.296875 -1.09375 28.203125 -1.09375 
Q 34.90625 -1.09375 39.453125 1.15625 
Q 44 3.40625 46.75 6.84375 
Q 49.5 10.296875 50.703125 14.5 
Q 51.90625 18.703125 51.90625 22.59375 
Q 51.90625 27.5 50.40625 31.703125 
Q 48.90625 35.90625 46.15625 39 
Q 43.40625 42.09375 39.34375 43.84375 
Q 35.296875 45.59375 30.203125 45.59375 
Q 24.40625 45.59375 19.953125 43.390625 
Q 15.5 41.203125 12.5 36.296875 
L 12.296875 36.5 
Q 12.40625 40.59375 13.09375 45.296875 
Q 13.796875 50 15.640625 54.046875 
Q 17.5 58.09375 20.796875 60.75 
Q 24.09375 63.40625 29.5 63.40625 
Q 34.59375 63.40625 37.6875 60.5 
Q 40.796875 57.59375 41.40625 52.796875 
z
M 28.59375 38.09375 
Q 32.203125 38.09375 34.890625 36.796875 
Q 37.59375 35.5 39.390625 33.34375 
Q 41.203125 31.203125 42.046875 28.25 
Q 42.90625 25.296875 42.90625 22 
Q 42.90625 18.90625 41.953125 16.046875 
Q 41 13.203125 39.203125 11 
Q 37.40625 8.796875 34.75 7.546875 
Q 32.09375 6.296875 28.59375 6.296875 
Q 25.09375 6.296875 22.34375 7.546875 
Q 19.59375 8.796875 17.75 10.890625 
Q 15.90625 13 14.90625 15.890625 
Q 13.90625 18.796875 13.90625 22.09375 
Q 13.90625 25.40625 14.84375 28.34375 
Q 15.796875 31.296875 17.6875 33.4375 
Q 19.59375 35.59375 22.296875 36.84375 
Q 25 38.09375 28.59375 38.09375 
z
" id="HelveticaNeue-54"/>
      </defs>
      <g transform="translate(14.38125 63.55625)scale(0.08 -0.08)">
       <use xlink:href="#HelveticaNeue-48"/>
       <use x="55.599991" xlink:href="#HelveticaNeue-46"/>
       <use x="83.399979" xlink:href="#HelveticaNeue-54"/>
      </g>
     </g>
    </g>
    <g id="ytick_5">
     <g id="line2d_35">
      <path clip-path="url(#pa7bac6625e)" d="M 31.5 39.1 
L 139.5 39.1 
" style="fill:none;stroke:#000000;stroke-linecap:square;stroke-opacity:0.1;stroke-width:0.6;"/>
     </g>
     <g id="line2d_36">
      <g>
       <use style="stroke:#000000;stroke-width:0.6;" x="31.5" xlink:href="#m69412b3c0f" y="39.1"/>
      </g>
     </g>
     <g id="text_11">
      <!-- 0.8 -->
      <defs>
       <path d="M 15.5 52.5 
Q 15.5 55.203125 16.5 57.203125 
Q 17.5 59.203125 19.140625 60.59375 
Q 20.796875 62 23.09375 62.703125 
Q 25.40625 63.40625 27.90625 63.40625 
Q 33.09375 63.40625 36.4375 60.65625 
Q 39.796875 57.90625 39.796875 52.5 
Q 39.796875 47.09375 36.5 44.09375 
Q 33.203125 41.09375 28.09375 41.09375 
Q 25.5 41.09375 23.203125 41.796875 
Q 20.90625 42.5 19.203125 43.890625 
Q 17.5 45.296875 16.5 47.4375 
Q 15.5 49.59375 15.5 52.5 
z
M 6.5 52.796875 
Q 6.5 48 9.203125 43.953125 
Q 11.90625 39.90625 16.40625 38.09375 
Q 10.40625 36 7.203125 31.34375 
Q 4 26.703125 4 20.40625 
Q 4 15 5.84375 10.953125 
Q 7.703125 6.90625 10.953125 4.203125 
Q 14.203125 1.5 18.59375 0.203125 
Q 23 -1.09375 28.09375 -1.09375 
Q 33 -1.09375 37.296875 0.296875 
Q 41.59375 1.703125 44.75 4.453125 
Q 47.90625 7.203125 49.75 11.203125 
Q 51.59375 15.203125 51.59375 20.40625 
Q 51.59375 27 48.5 31.546875 
Q 45.40625 36.09375 39 38.09375 
Q 43.5 40.09375 46.140625 44.046875 
Q 48.796875 48 48.796875 52.796875 
Q 48.796875 56.203125 47.59375 59.453125 
Q 46.40625 62.703125 43.84375 65.25 
Q 41.296875 67.796875 37.1875 69.34375 
Q 33.09375 70.90625 27.296875 70.90625 
Q 23.203125 70.90625 19.453125 69.703125 
Q 15.703125 68.5 12.796875 66.203125 
Q 9.90625 63.90625 8.203125 60.546875 
Q 6.5 57.203125 6.5 52.796875 
z
M 13 20 
Q 13 23.09375 14.140625 25.59375 
Q 15.296875 28.09375 17.34375 29.890625 
Q 19.40625 31.703125 22.15625 32.640625 
Q 24.90625 33.59375 28 33.59375 
Q 31 33.59375 33.640625 32.546875 
Q 36.296875 31.5 38.296875 29.703125 
Q 40.296875 27.90625 41.4375 25.453125 
Q 42.59375 23 42.59375 20.09375 
Q 42.59375 17.09375 41.546875 14.59375 
Q 40.5 12.09375 38.546875 10.25 
Q 36.59375 8.40625 33.9375 7.34375 
Q 31.296875 6.296875 28.09375 6.296875 
Q 21.5 6.296875 17.25 9.9375 
Q 13 13.59375 13 20 
z
" id="HelveticaNeue-56"/>
      </defs>
      <g transform="translate(14.38125 41.95625)scale(0.08 -0.08)">
       <use xlink:href="#HelveticaNeue-48"/>
       <use x="55.599991" xlink:href="#HelveticaNeue-46"/>
       <use x="83.399979" xlink:href="#HelveticaNeue-56"/>
      </g>
     </g>
    </g>
    <g id="ytick_6">
     <g id="line2d_37">
      <path clip-path="url(#pa7bac6625e)" d="M 31.5 17.5 
L 139.5 17.5 
" style="fill:none;stroke:#000000;stroke-linecap:square;stroke-opacity:0.1;stroke-width:0.6;"/>
     </g>
     <g id="line2d_38">
      <g>
       <use style="stroke:#000000;stroke-width:0.6;" x="31.5" xlink:href="#m69412b3c0f" y="17.5"/>
      </g>
     </g>
     <g id="text_12">
      <!-- 1 -->
      <g transform="translate(21.0525 20.35625)scale(0.08 -0.08)">
       <use xlink:href="#HelveticaNeue-49"/>
      </g>
     </g>
    </g>
    <g id="ytick_7">
     <g id="line2d_39">
      <defs>
       <path d="M 0 0 
L -2 0 
" id="mc067e939f6" style="stroke:#000000;stroke-width:0.48;"/>
      </defs>
      <g>
       <use style="stroke:#000000;stroke-width:0.48;" x="31.5" xlink:href="#mc067e939f6" y="120.1"/>
      </g>
     </g>
    </g>
    <g id="ytick_8">
     <g id="line2d_40">
      <g>
       <use style="stroke:#000000;stroke-width:0.48;" x="31.5" xlink:href="#mc067e939f6" y="114.7"/>
      </g>
     </g>
    </g>
    <g id="ytick_9">
     <g id="line2d_41">
      <g>
       <use style="stroke:#000000;stroke-width:0.48;" x="31.5" xlink:href="#mc067e939f6" y="109.3"/>
      </g>
     </g>
    </g>
    <g id="ytick_10">
     <g id="line2d_42">
      <g>
       <use style="stroke:#000000;stroke-width:0.48;" x="31.5" xlink:href="#mc067e939f6" y="98.5"/>
      </g>
     </g>
    </g>
    <g id="ytick_11">
     <g id="line2d_43">
      <g>
       <use style="stroke:#000000;stroke-width:0.48;" x="31.5" xlink:href="#mc067e939f6" y="93.1"/>
      </g>
     </g>
    </g>
    <g id="ytick_12">
     <g id="line2d_44">
      <g>
       <use style="stroke:#000000;stroke-width:0.48;" x="31.5" xlink:href="#mc067e939f6" y="87.7"/>
      </g>
     </g>
    </g>
    <g id="ytick_13">
     <g id="line2d_45">
      <g>
       <use style="stroke:#000000;stroke-width:0.48;" x="31.5" xlink:href="#mc067e939f6" y="76.9"/>
      </g>
     </g>
    </g>
    <g id="ytick_14">
     <g id="line2d_46">
      <g>
       <use style="stroke:#000000;stroke-width:0.48;" x="31.5" xlink:href="#mc067e939f6" y="71.5"/>
      </g>
     </g>
    </g>
    <g id="ytick_15">
     <g id="line2d_47">
      <g>
       <use style="stroke:#000000;stroke-width:0.48;" x="31.5" xlink:href="#mc067e939f6" y="66.1"/>
      </g>
     </g>
    </g>
    <g id="ytick_16">
     <g id="line2d_48">
      <g>
       <use style="stroke:#000000;stroke-width:0.48;" x="31.5" xlink:href="#mc067e939f6" y="55.3"/>
      </g>
     </g>
    </g>
    <g id="ytick_17">
     <g id="line2d_49">
      <g>
       <use style="stroke:#000000;stroke-width:0.48;" x="31.5" xlink:href="#mc067e939f6" y="49.9"/>
      </g>
     </g>
    </g>
    <g id="ytick_18">
     <g id="line2d_50">
      <g>
       <use style="stroke:#000000;stroke-width:0.48;" x="31.5" xlink:href="#mc067e939f6" y="44.5"/>
      </g>
     </g>
    </g>
    <g id="ytick_19">
     <g id="line2d_51">
      <g>
       <use style="stroke:#000000;stroke-width:0.48;" x="31.5" xlink:href="#mc067e939f6" y="33.7"/>
      </g>
     </g>
    </g>
    <g id="ytick_20">
     <g id="line2d_52">
      <g>
       <use style="stroke:#000000;stroke-width:0.48;" x="31.5" xlink:href="#mc067e939f6" y="28.3"/>
      </g>
     </g>
    </g>
    <g id="ytick_21">
     <g id="line2d_53">
      <g>
       <use style="stroke:#000000;stroke-width:0.48;" x="31.5" xlink:href="#mc067e939f6" y="22.9"/>
      </g>
     </g>
    </g>
    <g id="text_13">
     <!-- ylabel -->
     <defs>
      <path d="M 26.703125 -6.90625 
Q 25.203125 -10.703125 23.75 -13.296875 
Q 22.296875 -15.90625 20.546875 -17.546875 
Q 18.796875 -19.203125 16.640625 -19.953125 
Q 14.5 -20.703125 11.703125 -20.703125 
Q 10.203125 -20.703125 8.703125 -20.5 
Q 7.203125 -20.296875 5.796875 -19.796875 
L 5.796875 -12 
Q 6.90625 -12.5 8.34375 -12.84375 
Q 9.796875 -13.203125 10.796875 -13.203125 
Q 13.40625 -13.203125 15.15625 -11.953125 
Q 16.90625 -10.703125 17.796875 -8.40625 
L 21.296875 0.296875 
L 0.796875 51.703125 
L 10.40625 51.703125 
L 25.5 9.40625 
L 25.703125 9.40625 
L 40.203125 51.703125 
L 49.203125 51.703125 
z
" id="HelveticaNeue-121"/>
     </defs>
     <g transform="translate(9.725 81.944375)rotate(-90)scale(0.08 -0.08)">
      <use xlink:href="#HelveticaNeue-121"/>
      <use x="49.999985" xlink:href="#HelveticaNeue-108"/>
      <use x="72.199982" xlink:href="#HelveticaNeue-97"/>
      <use x="125.899979" xlink:href="#HelveticaNeue-98"/>
      <use x="185.199966" xlink:href="#HelveticaNeue-101"/>
      <use x="238.899963" xlink:href="#HelveticaNeue-108"/>
     </g>
    </g>
   </g>
   <g id="patch_3">
    <path d="M 31.5 125.5 
L 31.5 17.5 
" style="fill:none;stroke:#000000;stroke-linecap:square;stroke-linejoin:miter;stroke-width:0.6;"/>
   </g>
   <g id="patch_4">
    <path d="M 139.5 125.5 
L 139.5 17.5 
" style="fill:none;stroke:#000000;stroke-linecap:square;stroke-linejoin:miter;stroke-width:0.6;"/>
   </g>
   <g id="patch_5">
    <path d="M 31.5 125.5 
L 139.5 125.5 
" style="fill:none;stroke:#000000;stroke-linecap:square;stroke-linejoin:miter;stroke-width:0.6;"/>
   </g>
   <g id="patch_6">
    <path d="M 31.5 17.5 
L 139.5 17.5 
" style="fill:none;stroke:#000000;stroke-linecap:square;stroke-linejoin:miter;stroke-width:0.6;"/>
   </g>
   <g id="text_14">
    <path d="M 36.431719 25.204844 
Q 36.458437 24.754844 36.656719 24.458125 
Q 36.855 24.16 37.160156 23.98 
Q 37.466719 23.8 37.849219 23.724062 
Q 38.231719 23.648125 38.618437 23.648125 
Q 38.97 23.648125 39.33 23.697344 
Q 39.69 23.746562 39.986719 23.891406 
Q 40.283437 24.034844 40.471875 24.292187 
Q 40.661719 24.548125 40.661719 24.97 
L 40.661719 27.391562 
Q 40.661719 27.706562 40.696875 27.994844 
Q 40.733437 28.283125 40.823437 28.426562 
L 39.528281 28.426562 
Q 39.491719 28.318281 39.469219 28.205781 
Q 39.446719 28.093281 39.438281 27.976562 
Q 39.131719 28.291562 38.716875 28.418125 
Q 38.303437 28.543281 37.871719 28.543281 
Q 37.538437 28.543281 37.250156 28.461719 
Q 36.963281 28.381562 36.746719 28.211406 
Q 36.531562 28.039844 36.409219 27.779687 
Q 36.288281 27.518125 36.288281 27.158125 
Q 36.288281 26.761562 36.4275 26.505625 
Q 36.566719 26.248281 36.7875 26.096406 
Q 37.008281 25.943125 37.290937 25.867187 
Q 37.575 25.789844 37.863281 25.744844 
Q 38.151562 25.699844 38.43 25.673125 
Q 38.708437 25.645 38.925 25.591562 
Q 39.141562 25.538125 39.266719 25.434062 
Q 39.393281 25.33 39.383437 25.133125 
Q 39.383437 24.925 39.315937 24.804062 
Q 39.248437 24.683125 39.135937 24.615625 
Q 39.023437 24.548125 38.874375 24.525625 
Q 38.726719 24.503125 38.556562 24.503125 
Q 38.178281 24.503125 37.961719 24.664844 
Q 37.746562 24.826562 37.71 25.204844 
z
M 39.383437 26.149844 
Q 39.303281 26.221562 39.180937 26.262344 
Q 39.06 26.303125 38.920781 26.329844 
Q 38.781562 26.356562 38.628281 26.374844 
Q 38.475 26.393125 38.321719 26.419844 
Q 38.178281 26.446562 38.037656 26.491562 
Q 37.898437 26.536562 37.794375 26.613906 
Q 37.691719 26.689844 37.628437 26.806562 
Q 37.566562 26.923281 37.566562 27.103281 
Q 37.566562 27.274844 37.628437 27.391562 
Q 37.691719 27.508281 37.8 27.575781 
Q 37.908281 27.643281 38.051719 27.671406 
Q 38.196562 27.698125 38.348437 27.698125 
Q 38.726719 27.698125 38.933437 27.571562 
Q 39.141562 27.445 39.24 27.270625 
Q 39.338437 27.094844 39.360937 26.914844 
Q 39.383437 26.734844 39.383437 26.626562 
z
" style="stroke:#ffffff;stroke-linejoin:miter;stroke-width:1.5;"/>
    <path d="M 36.431719 25.204844 
Q 36.458437 24.754844 36.656719 24.458125 
Q 36.855 24.16 37.160156 23.98 
Q 37.466719 23.8 37.849219 23.724062 
Q 38.231719 23.648125 38.618437 23.648125 
Q 38.97 23.648125 39.33 23.697344 
Q 39.69 23.746562 39.986719 23.891406 
Q 40.283437 24.034844 40.471875 24.292187 
Q 40.661719 24.548125 40.661719 24.97 
L 40.661719 27.391562 
Q 40.661719 27.706562 40.696875 27.994844 
Q 40.733437 28.283125 40.823437 28.426562 
L 39.528281 28.426562 
Q 39.491719 28.318281 39.469219 28.205781 
Q 39.446719 28.093281 39.438281 27.976562 
Q 39.131719 28.291562 38.716875 28.418125 
Q 38.303437 28.543281 37.871719 28.543281 
Q 37.538437 28.543281 37.250156 28.461719 
Q 36.963281 28.381562 36.746719 28.211406 
Q 36.531562 28.039844 36.409219 27.779687 
Q 36.288281 27.518125 36.288281 27.158125 
Q 36.288281 26.761562 36.4275 26.505625 
Q 36.566719 26.248281 36.7875 26.096406 
Q 37.008281 25.943125 37.290937 25.867187 
Q 37.575 25.789844 37.863281 25.744844 
Q 38.151562 25.699844 38.43 25.673125 
Q 38.708437 25.645 38.925 25.591562 
Q 39.141562 25.538125 39.266719 25.434062 
Q 39.393281 25.33 39.383437 25.133125 
Q 39.383437 24.925 39.315937 24.804062 
Q 39.248437 24.683125 39.135937 24.615625 
Q 39.023437 24.548125 38.874375 24.525625 
Q 38.726719 24.503125 38.556562 24.503125 
Q 38.178281 24.503125 37.961719 24.664844 
Q 37.746562 24.826562 37.71 25.204844 
z
M 39.383437 26.149844 
Q 39.303281 26.221562 39.180937 26.262344 
Q 39.06 26.303125 38.920781 26.329844 
Q 38.781562 26.356562 38.628281 26.374844 
Q 38.475 26.393125 38.321719 26.419844 
Q 38.178281 26.446562 38.037656 26.491562 
Q 37.898437 26.536562 37.794375 26.613906 
Q 37.691719 26.689844 37.628437 26.806562 
Q 37.566562 26.923281 37.566562 27.103281 
Q 37.566562 27.274844 37.628437 27.391562 
Q 37.691719 27.508281 37.8 27.575781 
Q 37.908281 27.643281 38.051719 27.671406 
Q 38.196562 27.698125 38.348437 27.698125 
Q 38.726719 27.698125 38.933437 27.571562 
Q 39.141562 27.445 39.24 27.270625 
Q 39.338437 27.094844 39.360937 26.914844 
Q 39.383437 26.734844 39.383437 26.626562 
z
"/>
   </g>
  </g>
  <g id="axes_2">
   <g id="patch_7">
    <path d="M 153.75 125.5 
L 261.75 125.5 
L 261.75 17.5 
L 153.75 17.5 
z
" style="fill:#ffffff;"/>
   </g>
   <g id="matplotlib.axis_3">
    <g id="xtick_22">
     <g id="line2d_54">
      <path clip-path="url(#p5f467d6e7f)" d="M 153.75 125.5 
L 153.75 17.5 
" style="fill:none;stroke:#000000;stroke-linecap:square;stroke-opacity:0.1;stroke-width:0.6;"/>
     </g>
     <g id="line2d_55">
      <g>
       <use style="stroke:#000000;stroke-width:0.6;" x="153.75" xlink:href="#m452bd6aba3" y="125.5"/>
      </g>
     </g>
     <g id="text_15">
      <!-- 0 -->
      <g transform="translate(151.52625 137.2125)scale(0.08 -0.08)">
       <use xlink:href="#HelveticaNeue-48"/>
      </g>
     </g>
    </g>
    <g id="xtick_23">
     <g id="line2d_56">
      <path clip-path="url(#p5f467d6e7f)" d="M 180.75 125.5 
L 180.75 17.5 
" style="fill:none;stroke:#000000;stroke-linecap:square;stroke-opacity:0.1;stroke-width:0.6;"/>
     </g>
     <g id="line2d_57">
      <g>
       <use style="stroke:#000000;stroke-width:0.6;" x="180.75" xlink:href="#m452bd6aba3" y="125.5"/>
      </g>
     </g>
     <g id="text_16">
      <!-- 0.25 -->
      <g transform="translate(172.966875 137.2125)scale(0.08 -0.08)">
       <use xlink:href="#HelveticaNeue-48"/>
       <use x="55.599991" xlink:href="#HelveticaNeue-46"/>
       <use x="83.399979" xlink:href="#HelveticaNeue-50"/>
       <use x="138.999969" xlink:href="#HelveticaNeue-53"/>
      </g>
     </g>
    </g>
    <g id="xtick_24">
     <g id="line2d_58">
      <path clip-path="url(#p5f467d6e7f)" d="M 207.75 125.5 
L 207.75 17.5 
" style="fill:none;stroke:#000000;stroke-linecap:square;stroke-opacity:0.1;stroke-width:0.6;"/>
     </g>
     <g id="line2d_59">
      <g>
       <use style="stroke:#000000;stroke-width:0.6;" x="207.75" xlink:href="#m452bd6aba3" y="125.5"/>
      </g>
     </g>
     <g id="text_17">
      <!-- 0.5 -->
      <g transform="translate(202.190625 137.2125)scale(0.08 -0.08)">
       <use xlink:href="#HelveticaNeue-48"/>
       <use x="55.599991" xlink:href="#HelveticaNeue-46"/>
       <use x="83.399979" xlink:href="#HelveticaNeue-53"/>
      </g>
     </g>
    </g>
    <g id="xtick_25">
     <g id="line2d_60">
      <path clip-path="url(#p5f467d6e7f)" d="M 234.75 125.5 
L 234.75 17.5 
" style="fill:none;stroke:#000000;stroke-linecap:square;stroke-opacity:0.1;stroke-width:0.6;"/>
     </g>
     <g id="line2d_61">
      <g>
       <use style="stroke:#000000;stroke-width:0.6;" x="234.75" xlink:href="#m452bd6aba3" y="125.5"/>
      </g>
     </g>
     <g id="text_18">
      <!-- 0.75 -->
      <g transform="translate(226.966875 137.2125)scale(0.08 -0.08)">
       <use xlink:href="#HelveticaNeue-48"/>
       <use x="55.599991" xlink:href="#HelveticaNeue-46"/>
       <use x="83.399979" xlink:href="#HelveticaNeue-55"/>
       <use x="138.999969" xlink:href="#HelveticaNeue-53"/>
      </g>
     </g>
    </g>
    <g id="xtick_26">
     <g id="line2d_62">
      <path clip-path="url(#p5f467d6e7f)" d="M 261.75 125.5 
L 261.75 17.5 
" style="fill:none;stroke:#000000;stroke-linecap:square;stroke-opacity:0.1;stroke-width:0.6;"/>
     </g>
     <g id="line2d_63">
      <g>
       <use style="stroke:#000000;stroke-width:0.6;" x="261.75" xlink:href="#m452bd6aba3" y="125.5"/>
      </g>
     </g>
     <g id="text_19">
      <!-- 1 -->
      <g transform="translate(259.52625 137.2125)scale(0.08 -0.08)">
       <use xlink:href="#HelveticaNeue-49"/>
      </g>
     </g>
    </g>
    <g id="xtick_27">
     <g id="line2d_64">
      <g>
       <use style="stroke:#000000;stroke-width:0.48;" x="159.15" xlink:href="#mb6b1bff543" y="125.5"/>
      </g>
     </g>
    </g>
    <g id="xtick_28">
     <g id="line2d_65">
      <g>
       <use style="stroke:#000000;stroke-width:0.48;" x="164.55" xlink:href="#mb6b1bff543" y="125.5"/>
      </g>
     </g>
    </g>
    <g id="xtick_29">
     <g id="line2d_66">
      <g>
       <use style="stroke:#000000;stroke-width:0.48;" x="169.95" xlink:href="#mb6b1bff543" y="125.5"/>
      </g>
     </g>
    </g>
    <g id="xtick_30">
     <g id="line2d_67">
      <g>
       <use style="stroke:#000000;stroke-width:0.48;" x="175.35" xlink:href="#mb6b1bff543" y="125.5"/>
      </g>
     </g>
    </g>
    <g id="xtick_31">
     <g id="line2d_68">
      <g>
       <use style="stroke:#000000;stroke-width:0.48;" x="186.15" xlink:href="#mb6b1bff543" y="125.5"/>
      </g>
     </g>
    </g>
    <g id="xtick_32">
     <g id="line2d_69">
      <g>
       <use style="stroke:#000000;stroke-width:0.48;" x="191.55" xlink:href="#mb6b1bff543" y="125.5"/>
      </g>
     </g>
    </g>
    <g id="xtick_33">
     <g id="line2d_70">
      <g>
       <use style="stroke:#000000;stroke-width:0.48;" x="196.95" xlink:href="#mb6b1bff543" y="125.5"/>
      </g>
     </g>
    </g>
    <g id="xtick_34">
     <g id="line2d_71">
      <g>
       <use style="stroke:#000000;stroke-width:0.48;" x="202.35" xlink:href="#mb6b1bff543" y="125.5"/>
      </g>
     </g>
    </g>
    <g id="xtick_35">
     <g id="line2d_72">
      <g>
       <use style="stroke:#000000;stroke-width:0.48;" x="213.15" xlink:href="#mb6b1bff543" y="125.5"/>
      </g>
     </g>
    </g>
    <g id="xtick_36">
     <g id="line2d_73">
      <g>
       <use style="stroke:#000000;stroke-width:0.48;" x="218.55" xlink:href="#mb6b1bff543" y="125.5"/>
      </g>
     </g>
    </g>
    <g id="xtick_37">
     <g id="line2d_74">
      <g>
       <use style="stroke:#000000;stroke-width:0.48;" x="223.95" xlink:href="#mb6b1bff543" y="125.5"/>
      </g>
     </g>
    </g>
    <g id="xtick_38">
     <g id="line2d_75">
      <g>
       <use style="stroke:#000000;stroke-width:0.48;" x="229.35" xlink:href="#mb6b1bff543" y="125.5"/>
      </g>
     </g>
    </g>
    <g id="xtick_39">
     <g id="line2d_76">
      <g>
       <use style="stroke:#000000;stroke-width:0.48;" x="240.15" xlink:href="#mb6b1bff543" y="125.5"/>
      </g>
     </g>
    </g>
    <g id="xtick_40">
     <g id="line2d_77">
      <g>
       <use style="stroke:#000000;stroke-width:0.48;" x="245.55" xlink:href="#mb6b1bff543" y="125.5"/>
      </g>
     </g>
    </g>
    <g id="xtick_41">
     <g id="line2d_78">
      <g>
       <use style="stroke:#000000;stroke-width:0.48;" x="250.95" xlink:href="#mb6b1bff543" y="125.5"/>
      </g>
     </g>
    </g>
    <g id="xtick_42">
     <g id="line2d_79">
      <g>
       <use style="stroke:#000000;stroke-width:0.48;" x="256.35" xlink:href="#mb6b1bff543" y="125.5"/>
      </g>
     </g>
    </g>
   </g>
   <g id="matplotlib.axis_4">
    <g id="ytick_22">
     <g id="line2d_80">
      <path clip-path="url(#p5f467d6e7f)" d="M 153.75 125.5 
L 261.75 125.5 
" style="fill:none;stroke:#000000;stroke-linecap:square;stroke-opacity:0.1;stroke-width:0.6;"/>
     </g>
     <g id="line2d_81">
      <g>
       <use style="stroke:#000000;stroke-width:0.6;" x="153.75" xlink:href="#m69412b3c0f" y="125.5"/>
      </g>
     </g>
    </g>
    <g id="ytick_23">
     <g id="line2d_82">
      <path clip-path="url(#p5f467d6e7f)" d="M 153.75 103.9 
L 261.75 103.9 
" style="fill:none;stroke:#000000;stroke-linecap:square;stroke-opacity:0.1;stroke-width:0.6;"/>
     </g>
     <g id="line2d_83">
      <g>
       <use style="stroke:#000000;stroke-width:0.6;" x="153.75" xlink:href="#m69412b3c0f" y="103.9"/>
      </g>
     </g>
    </g>
    <g id="ytick_24">
     <g id="line2d_84">
      <path clip-path="url(#p5f467d6e7f)" d="M 153.75 82.3 
L 261.75 82.3 
" style="fill:none;stroke:#000000;stroke-linecap:square;stroke-opacity:0.1;stroke-width:0.6;"/>
     </g>
     <g id="line2d_85">
      <g>
       <use style="stroke:#000000;stroke-width:0.6;" x="153.75" xlink:href="#m69412b3c0f" y="82.3"/>
      </g>
     </g>
    </g>
    <g id="ytick_25">
     <g id="line2d_86">
      <path clip-path="url(#p5f467d6e7f)" d="M 153.75 60.7 
L 261.75 60.7 
" style="fill:none;stroke:#000000;stroke-linecap:square;stroke-opacity:0.1;stroke-width:0.6;"/>
     </g>
     <g id="line2d_87">
      <g>
       <use style="stroke:#000000;stroke-width:0.6;" x="153.75" xlink:href="#m69412b3c0f" y="60.7"/>
      </g>
     </g>
    </g>
    <g id="ytick_26">
     <g id="line2d_88">
      <path clip-path="url(#p5f467d6e7f)" d="M 153.75 39.1 
L 261.75 39.1 
" style="fill:none;stroke:#000000;stroke-linecap:square;stroke-opacity:0.1;stroke-width:0.6;"/>
     </g>
     <g id="line2d_89">
      <g>
       <use style="stroke:#000000;stroke-width:0.6;" x="153.75" xlink:href="#m69412b3c0f" y="39.1"/>
      </g>
     </g>
    </g>
    <g id="ytick_27">
     <g id="line2d_90">
      <path clip-path="url(#p5f467d6e7f)" d="M 153.75 17.5 
L 261.75 17.5 
" style="fill:none;stroke:#000000;stroke-linecap:square;stroke-opacity:0.1;stroke-width:0.6;"/>
     </g>
     <g id="line2d_91">
      <g>
       <use style="stroke:#000000;stroke-width:0.6;" x="153.75" xlink:href="#m69412b3c0f" y="17.5"/>
      </g>
     </g>
    </g>
    <g id="ytick_28">
     <g id="line2d_92">
      <g>
       <use style="stroke:#000000;stroke-width:0.48;" x="153.75" xlink:href="#mc067e939f6" y="120.1"/>
      </g>
     </g>
    </g>
    <g id="ytick_29">
     <g id="line2d_93">
      <g>
       <use style="stroke:#000000;stroke-width:0.48;" x="153.75" xlink:href="#mc067e939f6" y="114.7"/>
      </g>
     </g>
    </g>
    <g id="ytick_30">
     <g id="line2d_94">
      <g>
       <use style="stroke:#000000;stroke-width:0.48;" x="153.75" xlink:href="#mc067e939f6" y="109.3"/>
      </g>
     </g>
    </g>
    <g id="ytick_31">
     <g id="line2d_95">
      <g>
       <use style="stroke:#000000;stroke-width:0.48;" x="153.75" xlink:href="#mc067e939f6" y="98.5"/>
      </g>
     </g>
    </g>
    <g id="ytick_32">
     <g id="line2d_96">
      <g>
       <use style="stroke:#000000;stroke-width:0.48;" x="153.75" xlink:href="#mc067e939f6" y="93.1"/>
      </g>
     </g>
    </g>
    <g id="ytick_33">
     <g id="line2d_97">
      <g>
       <use style="stroke:#000000;stroke-width:0.48;" x="153.75" xlink:href="#mc067e939f6" y="87.7"/>
      </g>
     </g>
    </g>
    <g id="ytick_34">
     <g id="line2d_98">
      <g>
       <use style="stroke:#000000;stroke-width:0.48;" x="153.75" xlink:href="#mc067e939f6" y="76.9"/>
      </g>
     </g>
    </g>
    <g id="ytick_35">
     <g id="line2d_99">
      <g>
       <use style="stroke:#000000;stroke-width:0.48;" x="153.75" xlink:href="#mc067e939f6" y="71.5"/>
      </g>
     </g>
    </g>
    <g id="ytick_36">
     <g id="line2d_100">
      <g>
       <use style="stroke:#000000;stroke-width:0.48;" x="153.75" xlink:href="#mc067e939f6" y="66.1"/>
      </g>
     </g>
    </g>
    <g id="ytick_37">
     <g id="line2d_101">
      <g>
       <use style="stroke:#000000;stroke-width:0.48;" x="153.75" xlink:href="#mc067e939f6" y="55.3"/>
      </g>
     </g>
    </g>
    <g id="ytick_38">
     <g id="line2d_102">
      <g>
       <use style="stroke:#000000;stroke-width:0.48;" x="153.75" xlink:href="#mc067e939f6" y="49.9"/>
      </g>
     </g>
    </g>
    <g id="ytick_39">
     <g id="line2d_103">
      <g>
       <use style="stroke:#000000;stroke-width:0.48;" x="153.75" xlink:href="#mc067e939f6" y="44.5"/>
      </g>
     </g>
    </g>
    <g id="ytick_40">
     <g id="line2d_104">
      <g>
       <use style="stroke:#000000;stroke-width:0.48;" x="153.75" xlink:href="#mc067e939f6" y="33.7"/>
      </g>
     </g>
    </g>
    <g id="ytick_41">
     <g id="line2d_105">
      <g>
       <use style="stroke:#000000;stroke-width:0.48;" x="153.75" xlink:href="#mc067e939f6" y="28.3"/>
      </g>
     </g>
    </g>
    <g id="ytick_42">
     <g id="line2d_106">
      <g>
       <use style="stroke:#000000;stroke-width:0.48;" x="153.75" xlink:href="#mc067e939f6" y="22.9"/>
      </g>
     </g>
    </g>
   </g>
   <g id="patch_8">
    <path d="M 153.75 125.5 
L 153.75 17.5 
" style="fill:none;stroke:#000000;stroke-linecap:square;stroke-linejoin:miter;stroke-width:0.6;"/>
   </g>
   <g id="patch_9">
    <path d="M 261.75 125.5 
L 261.75 17.5 
" style="fill:none;stroke:#000000;stroke-linecap:square;stroke-linejoin:miter;stroke-width:0.6;"/>
   </g>
   <g id="patch_10">
    <path d="M 153.75 125.5 
L 261.75 125.5 
" style="fill:none;stroke:#000000;stroke-linecap:square;stroke-linejoin:miter;stroke-width:0.6;"/>
   </g>
   <g id="patch_11">
    <path d="M 153.75 17.5 
L 261.75 17.5 
" style="fill:none;stroke:#000000;stroke-linecap:square;stroke-linejoin:miter;stroke-width:0.6;"/>
   </g>
   <g id="text_20">
    <path d="M 162.146719 26.104844 
Q 162.146719 26.393125 162.083437 26.663125 
Q 162.021562 26.933125 161.886562 27.139844 
Q 161.751562 27.346562 161.549062 27.468906 
Q 161.346562 27.589844 161.058281 27.589844 
Q 160.778437 27.589844 160.571719 27.468906 
Q 160.365 27.346562 160.23 27.139844 
Q 160.095 26.933125 160.031719 26.663125 
Q 159.968437 26.393125 159.968437 26.104844 
Q 159.968437 25.808125 160.031719 25.538125 
Q 160.095 25.268125 160.23 25.061406 
Q 160.365 24.853281 160.571719 24.732344 
Q 160.778437 24.61 161.058281 24.61 
Q 161.346562 24.61 161.549062 24.732344 
Q 161.751562 24.853281 161.886562 25.061406 
Q 162.021562 25.268125 162.083437 25.538125 
Q 162.146719 25.808125 162.146719 26.104844 
z
M 158.736562 22 
L 158.736562 28.426562 
L 159.951562 28.426562 
L 159.951562 27.833125 
L 159.968437 27.833125 
Q 160.176562 28.219844 160.581562 28.381562 
Q 160.986562 28.543281 161.498437 28.543281 
Q 161.85 28.543281 162.191719 28.399844 
Q 162.533437 28.255 162.807656 27.958281 
Q 163.083281 27.661562 163.253437 27.198906 
Q 163.425 26.734844 163.425 26.095 
Q 163.425 25.456562 163.253437 24.993906 
Q 163.083281 24.529844 162.807656 24.233125 
Q 162.533437 23.935 162.191719 23.791562 
Q 161.85 23.648125 161.498437 23.648125 
Q 161.066719 23.648125 160.665937 23.814062 
Q 160.266562 23.98 160.031719 24.34 
L 160.013437 24.34 
L 160.013437 22 
z
" style="stroke:#ffffff;stroke-linejoin:miter;stroke-width:1.5;"/>
    <path d="M 162.146719 26.104844 
Q 162.146719 26.393125 162.083437 26.663125 
Q 162.021562 26.933125 161.886562 27.139844 
Q 161.751562 27.346562 161.549062 27.468906 
Q 161.346562 27.589844 161.058281 27.589844 
Q 160.778437 27.589844 160.571719 27.468906 
Q 160.365 27.346562 160.23 27.139844 
Q 160.095 26.933125 160.031719 26.663125 
Q 159.968437 26.393125 159.968437 26.104844 
Q 159.968437 25.808125 160.031719 25.538125 
Q 160.095 25.268125 160.23 25.061406 
Q 160.365 24.853281 160.571719 24.732344 
Q 160.778437 24.61 161.058281 24.61 
Q 161.346562 24.61 161.549062 24.732344 
Q 161.751562 24.853281 161.886562 25.061406 
Q 162.021562 25.268125 162.083437 25.538125 
Q 162.146719 25.808125 162.146719 26.104844 
z
M 158.736562 22 
L 158.736562 28.426562 
L 159.951562 28.426562 
L 159.951562 27.833125 
L 159.968437 27.833125 
Q 160.176562 28.219844 160.581562 28.381562 
Q 160.986562 28.543281 161.498437 28.543281 
Q 161.85 28.543281 162.191719 28.399844 
Q 162.533437 28.255 162.807656 27.958281 
Q 163.083281 27.661562 163.253437 27.198906 
Q 163.425 26.734844 163.425 26.095 
Q 163.425 25.456562 163.253437 24.993906 
Q 163.083281 24.529844 162.807656 24.233125 
Q 162.533437 23.935 162.191719 23.791562 
Q 161.85 23.648125 161.498437 23.648125 
Q 161.066719 23.648125 160.665937 23.814062 
Q 160.266562 23.98 160.031719 24.34 
L 160.013437 24.34 
L 160.013437 22 
z
"/>
   </g>
  </g>
  <g id="axes_3">
   <g id="patch_12">
    <path d="M 89.5 264.9 
L 203.75 264.9 
L 203.75 156.9 
L 89.5 156.9 
z
" style="fill:#ffffff;"/>
   </g>
   <g id="matplotlib.axis_5">
    <g id="xtick_43">
     <g id="line2d_107">
      <path clip-path="url(#p232b61f4f6)" d="M 89.5 264.9 
L 89.5 156.9 
" style="fill:none;stroke:#000000;stroke-linecap:square;stroke-opacity:0.1;stroke-width:0.6;"/>
     </g>
     <g id="line2d_108">
      <g>
       <use style="stroke:#000000;stroke-width:0.6;" x="89.5" xlink:href="#m452bd6aba3" y="264.9"/>
      </g>
     </g>
     <g id="text_21">
      <!-- 0 -->
      <g transform="translate(87.27625 276.6125)scale(0.08 -0.08)">
       <use xlink:href="#HelveticaNeue-48"/>
      </g>
     </g>
    </g>
    <g id="xtick_44">
     <g id="line2d_109">
      <path clip-path="url(#p232b61f4f6)" d="M 118.35101 264.9 
L 118.35101 156.9 
" style="fill:none;stroke:#000000;stroke-linecap:square;stroke-opacity:0.1;stroke-width:0.6;"/>
     </g>
     <g id="line2d_110">
      <g>
       <use style="stroke:#000000;stroke-width:0.6;" x="118.35101" xlink:href="#m452bd6aba3" y="264.9"/>
      </g>
     </g>
     <g id="text_22">
      <!-- 25 -->
      <g transform="translate(113.90351 276.6125)scale(0.08 -0.08)">
       <use xlink:href="#HelveticaNeue-50"/>
       <use x="55.599991" xlink:href="#HelveticaNeue-53"/>
      </g>
     </g>
    </g>
    <g id="xtick_45">
     <g id="line2d_111">
      <path clip-path="url(#p232b61f4f6)" d="M 147.20202 264.9 
L 147.20202 156.9 
" style="fill:none;stroke:#000000;stroke-linecap:square;stroke-opacity:0.1;stroke-width:0.6;"/>
     </g>
     <g id="line2d_112">
      <g>
       <use style="stroke:#000000;stroke-width:0.6;" x="147.20202" xlink:href="#m452bd6aba3" y="264.9"/>
      </g>
     </g>
     <g id="text_23">
      <!-- 50 -->
      <g transform="translate(142.75452 276.6125)scale(0.08 -0.08)">
       <use xlink:href="#HelveticaNeue-53"/>
       <use x="55.599991" xlink:href="#HelveticaNeue-48"/>
      </g>
     </g>
    </g>
    <g id="xtick_46">
     <g id="line2d_113">
      <path clip-path="url(#p232b61f4f6)" d="M 176.05303 264.9 
L 176.05303 156.9 
" style="fill:none;stroke:#000000;stroke-linecap:square;stroke-opacity:0.1;stroke-width:0.6;"/>
     </g>
     <g id="line2d_114">
      <g>
       <use style="stroke:#000000;stroke-width:0.6;" x="176.05303" xlink:href="#m452bd6aba3" y="264.9"/>
      </g>
     </g>
     <g id="text_24">
      <!-- 75 -->
      <g transform="translate(171.60553 276.6125)scale(0.08 -0.08)">
       <use xlink:href="#HelveticaNeue-55"/>
       <use x="55.599991" xlink:href="#HelveticaNeue-53"/>
      </g>
     </g>
    </g>
    <g id="xtick_47">
     <g id="line2d_115">
      <g>
       <use style="stroke:#000000;stroke-width:0.48;" x="95.270202" xlink:href="#mb6b1bff543" y="264.9"/>
      </g>
     </g>
    </g>
    <g id="xtick_48">
     <g id="line2d_116">
      <g>
       <use style="stroke:#000000;stroke-width:0.48;" x="101.040404" xlink:href="#mb6b1bff543" y="264.9"/>
      </g>
     </g>
    </g>
    <g id="xtick_49">
     <g id="line2d_117">
      <g>
       <use style="stroke:#000000;stroke-width:0.48;" x="106.810606" xlink:href="#mb6b1bff543" y="264.9"/>
      </g>
     </g>
    </g>
    <g id="xtick_50">
     <g id="line2d_118">
      <g>
       <use style="stroke:#000000;stroke-width:0.48;" x="112.580808" xlink:href="#mb6b1bff543" y="264.9"/>
      </g>
     </g>
    </g>
    <g id="xtick_51">
     <g id="line2d_119">
      <g>
       <use style="stroke:#000000;stroke-width:0.48;" x="124.121212" xlink:href="#mb6b1bff543" y="264.9"/>
      </g>
     </g>
    </g>
    <g id="xtick_52">
     <g id="line2d_120">
      <g>
       <use style="stroke:#000000;stroke-width:0.48;" x="129.891414" xlink:href="#mb6b1bff543" y="264.9"/>
      </g>
     </g>
    </g>
    <g id="xtick_53">
     <g id="line2d_121">
      <g>
       <use style="stroke:#000000;stroke-width:0.48;" x="135.661616" xlink:href="#mb6b1bff543" y="264.9"/>
      </g>
     </g>
    </g>
    <g id="xtick_54">
     <g id="line2d_122">
      <g>
       <use style="stroke:#000000;stroke-width:0.48;" x="141.431818" xlink:href="#mb6b1bff543" y="264.9"/>
      </g>
     </g>
    </g>
    <g id="xtick_55">
     <g id="line2d_123">
      <g>
       <use style="stroke:#000000;stroke-width:0.48;" x="152.972222" xlink:href="#mb6b1bff543" y="264.9"/>
      </g>
     </g>
    </g>
    <g id="xtick_56">
     <g id="line2d_124">
      <g>
       <use style="stroke:#000000;stroke-width:0.48;" x="158.742424" xlink:href="#mb6b1bff543" y="264.9"/>
      </g>
     </g>
    </g>
    <g id="xtick_57">
     <g id="line2d_125">
      <g>
       <use style="stroke:#000000;stroke-width:0.48;" x="164.512626" xlink:href="#mb6b1bff543" y="264.9"/>
      </g>
     </g>
    </g>
    <g id="xtick_58">
     <g id="line2d_126">
      <g>
       <use style="stroke:#000000;stroke-width:0.48;" x="170.282828" xlink:href="#mb6b1bff543" y="264.9"/>
      </g>
     </g>
    </g>
    <g id="xtick_59">
     <g id="line2d_127">
      <g>
       <use style="stroke:#000000;stroke-width:0.48;" x="181.823232" xlink:href="#mb6b1bff543" y="264.9"/>
      </g>
     </g>
    </g>
    <g id="xtick_60">
     <g id="line2d_128">
      <g>
       <use style="stroke:#000000;stroke-width:0.48;" x="187.593434" xlink:href="#mb6b1bff543" y="264.9"/>
      </g>
     </g>
    </g>
    <g id="xtick_61">
     <g id="line2d_129">
      <g>
       <use style="stroke:#000000;stroke-width:0.48;" x="193.363636" xlink:href="#mb6b1bff543" y="264.9"/>
      </g>
     </g>
    </g>
    <g id="xtick_62">
     <g id="line2d_130">
      <g>
       <use style="stroke:#000000;stroke-width:0.48;" x="199.133838" xlink:href="#mb6b1bff543" y="264.9"/>
      </g>
     </g>
    </g>
    <g id="text_25">
     <!-- xlabel -->
     <g transform="translate(136.10875 286.90125)scale(0.08 -0.08)">
      <use xlink:href="#HelveticaNeue-120"/>
      <use x="51.799988" xlink:href="#HelveticaNeue-108"/>
      <use x="73.999985" xlink:href="#HelveticaNeue-97"/>
      <use x="127.699982" xlink:href="#HelveticaNeue-98"/>
      <use x="186.999969" xlink:href="#HelveticaNeue-101"/>
      <use x="240.699966" xlink:href="#HelveticaNeue-108"/>
     </g>
    </g>
   </g>
   <g id="matplotlib.axis_6">
    <g id="ytick_43">
     <g id="line2d_131">
      <path clip-path="url(#p232b61f4f6)" d="M 89.5 260.999611 
L 203.75 260.999611 
" style="fill:none;stroke:#000000;stroke-linecap:square;stroke-opacity:0.1;stroke-width:0.6;"/>
     </g>
     <g id="line2d_132">
      <g>
       <use style="stroke:#000000;stroke-width:0.6;" x="89.5" xlink:href="#m69412b3c0f" y="260.999611"/>
      </g>
     </g>
     <g id="text_26">
      <!-- 10 -->
      <defs>
       <path d="M 4.796875 28.703125 
L 4.796875 21.90625 
L 55.203125 21.90625 
L 55.203125 28.703125 
z
" id="HelveticaNeue-8722"/>
      </defs>
      <g transform="translate(69.805 263.855861)scale(0.08 -0.08)">
       <use xlink:href="#HelveticaNeue-8722"/>
       <use x="59.999985" xlink:href="#HelveticaNeue-49"/>
       <use x="115.599976" xlink:href="#HelveticaNeue-48"/>
      </g>
     </g>
    </g>
    <g id="ytick_44">
     <g id="line2d_133">
      <path clip-path="url(#p232b61f4f6)" d="M 89.5 239.65537 
L 203.75 239.65537 
" style="fill:none;stroke:#000000;stroke-linecap:square;stroke-opacity:0.1;stroke-width:0.6;"/>
     </g>
     <g id="line2d_134">
      <g>
       <use style="stroke:#000000;stroke-width:0.6;" x="89.5" xlink:href="#m69412b3c0f" y="239.65537"/>
      </g>
     </g>
     <g id="text_27">
      <!-- 5 -->
      <g transform="translate(74.2525 242.51162)scale(0.08 -0.08)">
       <use xlink:href="#HelveticaNeue-8722"/>
       <use x="59.999985" xlink:href="#HelveticaNeue-53"/>
      </g>
     </g>
    </g>
    <g id="ytick_45">
     <g id="line2d_135">
      <path clip-path="url(#p232b61f4f6)" d="M 89.5 218.311129 
L 203.75 218.311129 
" style="fill:none;stroke:#000000;stroke-linecap:square;stroke-opacity:0.1;stroke-width:0.6;"/>
     </g>
     <g id="line2d_136">
      <g>
       <use style="stroke:#000000;stroke-width:0.6;" x="89.5" xlink:href="#m69412b3c0f" y="218.311129"/>
      </g>
     </g>
     <g id="text_28">
      <!-- 0 -->
      <g transform="translate(79.0525 221.167379)scale(0.08 -0.08)">
       <use xlink:href="#HelveticaNeue-48"/>
      </g>
     </g>
    </g>
    <g id="ytick_46">
     <g id="line2d_137">
      <path clip-path="url(#p232b61f4f6)" d="M 89.5 196.966889 
L 203.75 196.966889 
" style="fill:none;stroke:#000000;stroke-linecap:square;stroke-opacity:0.1;stroke-width:0.6;"/>
     </g>
     <g id="line2d_138">
      <g>
       <use style="stroke:#000000;stroke-width:0.6;" x="89.5" xlink:href="#m69412b3c0f" y="196.966889"/>
      </g>
     </g>
     <g id="text_29">
      <!-- 5 -->
      <g transform="translate(79.0525 199.823139)scale(0.08 -0.08)">
       <use xlink:href="#HelveticaNeue-53"/>
      </g>
     </g>
    </g>
    <g id="ytick_47">
     <g id="line2d_139">
      <path clip-path="url(#p232b61f4f6)" d="M 89.5 175.622648 
L 203.75 175.622648 
" style="fill:none;stroke:#000000;stroke-linecap:square;stroke-opacity:0.1;stroke-width:0.6;"/>
     </g>
     <g id="line2d_140">
      <g>
       <use style="stroke:#000000;stroke-width:0.6;" x="89.5" xlink:href="#m69412b3c0f" y="175.622648"/>
      </g>
     </g>
     <g id="text_30">
      <!-- 10 -->
      <g transform="translate(74.605 178.478898)scale(0.08 -0.08)">
       <use xlink:href="#HelveticaNeue-49"/>
       <use x="55.599991" xlink:href="#HelveticaNeue-48"/>
      </g>
     </g>
    </g>
    <g id="ytick_48">
     <g id="line2d_141">
      <g>
       <use style="stroke:#000000;stroke-width:0.48;" x="89.5" xlink:href="#mc067e939f6" y="256.730763"/>
      </g>
     </g>
    </g>
    <g id="ytick_49">
     <g id="line2d_142">
      <g>
       <use style="stroke:#000000;stroke-width:0.48;" x="89.5" xlink:href="#mc067e939f6" y="252.461915"/>
      </g>
     </g>
    </g>
    <g id="ytick_50">
     <g id="line2d_143">
      <g>
       <use style="stroke:#000000;stroke-width:0.48;" x="89.5" xlink:href="#mc067e939f6" y="248.193066"/>
      </g>
     </g>
    </g>
    <g id="ytick_51">
     <g id="line2d_144">
      <g>
       <use style="stroke:#000000;stroke-width:0.48;" x="89.5" xlink:href="#mc067e939f6" y="243.924218"/>
      </g>
     </g>
    </g>
    <g id="ytick_52">
     <g id="line2d_145">
      <g>
       <use style="stroke:#000000;stroke-width:0.48;" x="89.5" xlink:href="#mc067e939f6" y="235.386522"/>
      </g>
     </g>
    </g>
    <g id="ytick_53">
     <g id="line2d_146">
      <g>
       <use style="stroke:#000000;stroke-width:0.48;" x="89.5" xlink:href="#mc067e939f6" y="231.117674"/>
      </g>
     </g>
    </g>
    <g id="ytick_54">
     <g id="line2d_147">
      <g>
       <use style="stroke:#000000;stroke-width:0.48;" x="89.5" xlink:href="#mc067e939f6" y="226.848826"/>
      </g>
     </g>
    </g>
    <g id="ytick_55">
     <g id="line2d_148">
      <g>
       <use style="stroke:#000000;stroke-width:0.48;" x="89.5" xlink:href="#mc067e939f6" y="222.579978"/>
      </g>
     </g>
    </g>
    <g id="ytick_56">
     <g id="line2d_149">
      <g>
       <use style="stroke:#000000;stroke-width:0.48;" x="89.5" xlink:href="#mc067e939f6" y="214.042281"/>
      </g>
     </g>
    </g>
    <g id="ytick_57">
     <g id="line2d_150">
      <g>
       <use style="stroke:#000000;stroke-width:0.48;" x="89.5" xlink:href="#mc067e939f6" y="209.773433"/>
      </g>
     </g>
    </g>
    <g id="ytick_58">
     <g id="line2d_151">
      <g>
       <use style="stroke:#000000;stroke-width:0.48;" x="89.5" xlink:href="#mc067e939f6" y="205.504585"/>
      </g>
     </g>
    </g>
    <g id="ytick_59">
     <g id="line2d_152">
      <g>
       <use style="stroke:#000000;stroke-width:0.48;" x="89.5" xlink:href="#mc067e939f6" y="201.235737"/>
      </g>
     </g>
    </g>
    <g id="ytick_60">
     <g id="line2d_153">
      <g>
       <use style="stroke:#000000;stroke-width:0.48;" x="89.5" xlink:href="#mc067e939f6" y="192.69804"/>
      </g>
     </g>
    </g>
    <g id="ytick_61">
     <g id="line2d_154">
      <g>
       <use style="stroke:#000000;stroke-width:0.48;" x="89.5" xlink:href="#mc067e939f6" y="188.429192"/>
      </g>
     </g>
    </g>
    <g id="ytick_62">
     <g id="line2d_155">
      <g>
       <use style="stroke:#000000;stroke-width:0.48;" x="89.5" xlink:href="#mc067e939f6" y="184.160344"/>
      </g>
     </g>
    </g>
    <g id="ytick_63">
     <g id="line2d_156">
      <g>
       <use style="stroke:#000000;stroke-width:0.48;" x="89.5" xlink:href="#mc067e939f6" y="179.891496"/>
      </g>
     </g>
    </g>
    <g id="ytick_64">
     <g id="line2d_157">
      <g>
       <use style="stroke:#000000;stroke-width:0.48;" x="89.5" xlink:href="#mc067e939f6" y="171.3538"/>
      </g>
     </g>
    </g>
    <g id="ytick_65">
     <g id="line2d_158">
      <g>
       <use style="stroke:#000000;stroke-width:0.48;" x="89.5" xlink:href="#mc067e939f6" y="167.084951"/>
      </g>
     </g>
    </g>
    <g id="ytick_66">
     <g id="line2d_159">
      <g>
       <use style="stroke:#000000;stroke-width:0.48;" x="89.5" xlink:href="#mc067e939f6" y="162.816103"/>
      </g>
     </g>
    </g>
    <g id="ytick_67">
     <g id="line2d_160">
      <g>
       <use style="stroke:#000000;stroke-width:0.48;" x="89.5" xlink:href="#mc067e939f6" y="158.547255"/>
      </g>
     </g>
    </g>
    <g id="text_31">
     <!-- ylabel -->
     <g transform="translate(65.14875 221.344375)rotate(-90)scale(0.08 -0.08)">
      <use xlink:href="#HelveticaNeue-121"/>
      <use x="49.999985" xlink:href="#HelveticaNeue-108"/>
      <use x="72.199982" xlink:href="#HelveticaNeue-97"/>
      <use x="125.899979" xlink:href="#HelveticaNeue-98"/>
      <use x="185.199966" xlink:href="#HelveticaNeue-101"/>
      <use x="238.899963" xlink:href="#HelveticaNeue-108"/>
     </g>
    </g>
   </g>
   <g id="line2d_161">
    <path clip-path="url(#p232b61f4f6)" d="M 89.5 215.515039 
L 90.65404 213.240005 
L 91.808081 211.328431 
L 92.962121 210.943397 
L 94.116162 211.497585 
L 95.270202 215.393076 
L 96.424242 215.741001 
L 97.578283 218.554975 
L 98.732323 221.008706 
L 99.886364 225.106662 
L 101.040404 220.888353 
L 102.194444 219.353497 
L 103.348485 221.96963 
L 104.502525 226.214415 
L 105.656566 223.530783 
L 106.810606 220.996288 
L 107.964646 216.822214 
L 109.118687 217.028355 
L 110.272727 218.424091 
L 111.426768 217.410929 
L 112.580808 219.998072 
L 113.734848 221.241064 
L 114.888889 223.741807 
L 116.042929 225.1152 
L 117.19697 224.749938 
L 118.35101 225.899066 
L 119.505051 229.753751 
L 120.659091 226.110025 
L 121.813131 222.547179 
L 122.967172 221.26686 
L 124.121212 220.867861 
L 125.275253 217.962705 
L 126.429293 214.008572 
L 127.583333 216.875497 
L 128.737374 218.251493 
L 129.891414 220.496224 
L 131.045455 219.827951 
L 132.199495 221.960162 
L 133.353535 221.853989 
L 134.507576 223.884829 
L 135.661616 221.588861 
L 136.815657 218.493128 
L 137.969697 220.932208 
L 139.123737 219.146161 
L 140.277778 223.344413 
L 141.431818 221.29637 
L 142.585859 221.72515 
L 143.739899 225.223633 
L 144.893939 228.378026 
L 146.04798 230.669785 
L 147.20202 230.201218 
L 148.356061 229.533758 
L 149.510101 233.352398 
L 150.664141 237.563705 
L 151.818182 234.158239 
L 152.972222 233.505433 
L 154.126263 234.853419 
L 155.280303 234.86482 
L 156.434343 230.872545 
L 157.588384 231.025624 
L 158.742424 229.765148 
L 159.896465 233.106611 
L 161.050505 236.231789 
L 162.204545 238.759367 
L 163.358586 235.080672 
L 164.512626 238.042781 
L 165.666667 240.542765 
L 166.820707 236.828213 
L 167.974747 236.23621 
L 169.128788 235.404254 
L 170.282828 238.211808 
L 171.436869 234.237327 
L 172.590909 232.885876 
L 173.744949 236.340346 
L 174.89899 236.223102 
L 176.05303 235.625354 
L 177.207071 235.46599 
L 178.361111 236.867353 
L 179.515152 233.42777 
L 180.669192 232.708913 
L 181.823232 229.313291 
L 182.977273 229.486901 
L 184.131313 228.074573 
L 185.285354 230.473307 
L 186.439394 231.630891 
L 187.593434 229.663184 
L 188.747475 229.736874 
L 189.901515 232.566568 
L 191.055556 232.708878 
L 192.209596 231.131568 
L 193.363636 232.721195 
L 194.517677 234.35273 
L 195.671717 235.499465 
L 196.825758 239.465968 
L 197.979798 236.03651 
L 199.133838 238.484557 
L 200.287879 239.040327 
L 201.441919 239.665741 
L 202.59596 242.34417 
L 203.75 243.252551 
" style="fill:none;stroke:#0072b2;stroke-linecap:square;stroke-width:2;"/>
   </g>
   <g id="line2d_162">
    <path clip-path="url(#p232b61f4f6)" d="M 89.5 219.882013 
L 90.65404 220.505809 
L 91.808081 219.750951 
L 92.962121 216.949669 
L 94.116162 218.75946 
L 95.270202 215.701225 
L 96.424242 213.630584 
L 97.578283 215.468121 
L 98.732323 215.70156 
L 99.886364 216.0666 
L 101.040404 214.837248 
L 102.194444 212.670193 
L 103.348485 215.220106 
L 104.502525 212.06655 
L 105.656566 211.354416 
L 106.810606 212.394176 
L 107.964646 216.178096 
L 109.118687 212.46466 
L 110.272727 211.295625 
L 111.426768 209.619463 
L 112.580808 207.165726 
L 113.734848 203.799987 
L 114.888889 200.918001 
L 116.042929 200.385621 
L 117.19697 196.59945 
L 118.35101 199.877451 
L 119.505051 198.256496 
L 120.659091 199.495585 
L 121.813131 203.748709 
L 122.967172 206.178092 
L 124.121212 206.565872 
L 125.275253 206.759965 
L 126.429293 203.939148 
L 127.583333 207.174206 
L 128.737374 204.471457 
L 129.891414 202.39232 
L 131.045455 201.177007 
L 132.199495 196.953615 
L 133.353535 198.319675 
L 134.507576 195.517216 
L 135.661616 199.081289 
L 136.815657 194.865125 
L 137.969697 194.203149 
L 139.123737 192.920828 
L 140.277778 193.613219 
L 141.431818 190.60643 
L 142.585859 188.868933 
L 143.739899 188.429789 
L 144.893939 189.495234 
L 146.04798 185.426869 
L 147.20202 189.11357 
L 148.356061 190.011914 
L 149.510101 192.781887 
L 150.664141 191.140862 
L 151.818182 193.705828 
L 152.972222 189.472451 
L 154.126263 192.532538 
L 155.280303 192.257442 
L 156.434343 191.079414 
L 157.588384 189.207675 
L 158.742424 185.717311 
L 159.896465 181.562735 
L 161.050505 184.312182 
L 162.204545 182.594195 
L 163.358586 186.479806 
L 164.512626 190.70781 
L 165.666667 194.258887 
L 166.820707 191.985243 
L 167.974747 189.171614 
L 169.128788 192.747307 
L 170.282828 191.2231 
L 171.436869 189.521481 
L 172.590909 191.004522 
L 173.744949 192.047495 
L 174.89899 188.023666 
L 176.05303 185.075731 
L 177.207071 184.237645 
L 178.361111 184.36567 
L 179.515152 183.445563 
L 180.669192 179.749565 
L 181.823232 178.247347 
L 182.977273 179.809853 
L 184.131313 183.993425 
L 185.285354 180.081452 
L 186.439394 178.650372 
L 187.593434 175.04148 
L 188.747475 173.317546 
L 189.901515 169.519395 
L 191.055556 173.015119 
L 192.209596 170.544737 
L 193.363636 167.949439 
L 194.517677 168.966845 
L 195.671717 165.139809 
L 196.825758 168.452546 
L 197.979798 166.820266 
L 199.133838 164.867243 
L 200.287879 161.527194 
L 201.441919 158.18429 
L 202.59596 156.9 
L 203.75 160.781787 
" style="fill:none;stroke:#d55e00;stroke-linecap:square;stroke-width:2;"/>
   </g>
   <g id="line2d_163">
    <path clip-path="url(#p232b61f4f6)" d="M 89.5 218.977398 
L 90.65404 220.584658 
L 91.808081 218.834758 
L 92.962121 217.203868 
L 94.116162 214.929091 
L 95.270202 218.576954 
L 96.424242 222.171871 
L 97.578283 220.993229 
L 98.732323 222.338103 
L 99.886364 226.344957 
L 101.040404 224.023911 
L 102.194444 222.783726 
L 103.348485 219.902839 
L 104.502525 217.847487 
L 105.656566 216.76595 
L 106.810606 219.927142 
L 107.964646 217.909038 
L 109.118687 216.691321 
L 110.272727 220.212727 
L 111.426768 217.584786 
L 112.580808 215.758879 
L 113.734848 213.738944 
L 114.888889 211.96015 
L 116.042929 213.412482 
L 117.19697 209.173763 
L 118.35101 210.173085 
L 119.505051 210.895735 
L 120.659091 208.875646 
L 121.813131 209.568405 
L 122.967172 206.042966 
L 124.121212 209.324175 
L 125.275253 206.704518 
L 126.429293 205.96965 
L 127.583333 205.287263 
L 128.737374 204.338283 
L 129.891414 200.997045 
L 131.045455 203.335487 
L 132.199495 202.496731 
L 133.353535 206.741951 
L 134.507576 209.835328 
L 135.661616 206.417222 
L 136.815657 202.735399 
L 137.969697 200.899718 
L 139.123737 199.212598 
L 140.277778 202.744711 
L 141.431818 202.462137 
L 142.585859 205.548437 
L 143.739899 203.071066 
L 144.893939 203.958001 
L 146.04798 206.377512 
L 147.20202 208.566977 
L 148.356061 207.711369 
L 149.510101 207.222776 
L 150.664141 205.528667 
L 151.818182 203.270282 
L 152.972222 204.528936 
L 154.126263 206.667707 
L 155.280303 207.773276 
L 156.434343 204.412916 
L 157.588384 201.959386 
L 158.742424 202.8604 
L 159.896465 203.656341 
L 161.050505 200.693525 
L 162.204545 201.006685 
L 163.358586 198.487295 
L 164.512626 199.328567 
L 165.666667 196.081288 
L 166.820707 195.055916 
L 167.974747 197.682689 
L 169.128788 198.390366 
L 170.282828 196.384222 
L 171.436869 200.004795 
L 172.590909 198.336366 
L 173.744949 195.005537 
L 174.89899 198.386503 
L 176.05303 198.64693 
L 177.207071 197.8814 
L 178.361111 195.067005 
L 179.515152 193.120995 
L 180.669192 193.649624 
L 181.823232 192.535639 
L 182.977273 194.726966 
L 184.131313 196.317323 
L 185.285354 193.358962 
L 186.439394 193.295994 
L 187.593434 197.093767 
L 188.747475 198.503493 
L 189.901515 198.583447 
L 191.055556 200.574755 
L 192.209596 203.445577 
L 193.363636 206.474453 
L 194.517677 207.822834 
L 195.671717 205.742892 
L 196.825758 205.29376 
L 197.979798 207.372568 
L 199.133838 208.18451 
L 200.287879 211.184567 
L 201.441919 211.548354 
L 202.59596 212.230461 
L 203.75 209.98346 
" style="fill:none;stroke:#009e73;stroke-linecap:square;stroke-width:2;"/>
   </g>
   <g id="line2d_164">
    <path clip-path="url(#p232b61f4f6)" d="M 89.5 216.499453 
L 90.65404 213.145627 
L 91.808081 214.832773 
L 92.962121 215.885642 
L 94.116162 213.09433 
L 95.270202 210.138366 
L 96.424242 211.315978 
L 97.578283 214.992871 
L 98.732323 216.750352 
L 99.886364 215.94943 
L 101.040404 214.47036 
L 102.194444 210.823267 
L 103.348485 214.515781 
L 104.502525 212.988344 
L 105.656566 212.930261 
L 106.810606 213.330311 
L 107.964646 214.554742 
L 109.118687 211.690018 
L 110.272727 212.625817 
L 111.426768 211.956047 
L 112.580808 214.454475 
L 113.734848 212.994192 
L 114.888889 212.979731 
L 116.042929 210.127719 
L 117.19697 206.637039 
L 118.35101 206.478853 
L 119.505051 208.566818 
L 120.659091 210.432677 
L 121.813131 211.02095 
L 122.967172 214.633968 
L 124.121212 212.554652 
L 125.275253 209.816683 
L 126.429293 213.748768 
L 127.583333 210.453116 
L 128.737374 212.082369 
L 129.891414 210.311974 
L 131.045455 212.536653 
L 132.199495 210.021207 
L 133.353535 206.898662 
L 134.507576 209.532576 
L 135.661616 213.377858 
L 136.815657 214.636006 
L 137.969697 211.748884 
L 139.123737 210.536042 
L 140.277778 209.794914 
L 141.431818 210.426652 
L 142.585859 206.85637 
L 143.739899 207.060858 
L 144.893939 207.356912 
L 146.04798 207.478361 
L 147.20202 206.696865 
L 148.356061 206.650548 
L 149.510101 203.910692 
L 150.664141 206.939033 
L 151.818182 208.453233 
L 152.972222 204.39751 
L 154.126263 201.283235 
L 155.280303 199.27336 
L 156.434343 195.63669 
L 157.588384 197.299802 
L 158.742424 197.799961 
L 159.896465 201.648197 
L 161.050505 199.940778 
L 162.204545 197.731077 
L 163.358586 198.302008 
L 164.512626 195.106233 
L 165.666667 199.15518 
L 166.820707 202.006596 
L 167.974747 200.878841 
L 169.128788 203.970187 
L 170.282828 206.498766 
L 171.436869 204.788126 
L 172.590909 204.38122 
L 173.744949 203.271199 
L 174.89899 201.143257 
L 176.05303 199.970444 
L 177.207071 197.667669 
L 178.361111 198.009545 
L 179.515152 193.769869 
L 180.669192 189.648932 
L 181.823232 193.640616 
L 182.977273 196.758655 
L 184.131313 193.811162 
L 185.285354 190.453238 
L 186.439394 192.155564 
L 187.593434 195.265131 
L 188.747475 198.50185 
L 189.901515 201.198645 
L 191.055556 201.002492 
L 192.209596 196.802441 
L 193.363636 195.862307 
L 194.517677 195.341876 
L 195.671717 193.029076 
L 196.825758 197.263964 
L 197.979798 199.231291 
L 199.133838 199.71087 
L 200.287879 200.082608 
L 201.441919 195.826407 
L 202.59596 199.423417 
L 203.75 199.861886 
" style="fill:none;stroke:#cc79a7;stroke-linecap:square;stroke-width:2;"/>
   </g>
   <g id="line2d_165">
    <path clip-path="url(#p232b61f4f6)" d="M 89.5 220.492317 
L 90.65404 219.361624 
L 91.808081 215.210595 
L 92.962121 219.332049 
L 94.116162 220.593402 
L 95.270202 224.344401 
L 96.424242 226.894196 
L 97.578283 228.447 
L 98.732323 228.721176 
L 99.886364 231.489977 
L 101.040404 231.514753 
L 102.194444 228.697241 
L 103.348485 231.575024 
L 104.502525 230.20336 
L 105.656566 233.705308 
L 106.810606 234.509473 
L 107.964646 235.220055 
L 109.118687 238.105815 
L 110.272727 236.626441 
L 111.426768 239.355496 
L 112.580808 239.775667 
L 113.734848 240.529809 
L 114.888889 237.687768 
L 116.042929 241.763186 
L 117.19697 244.685748 
L 118.35101 245.976942 
L 119.505051 249.855252 
L 120.659091 251.352182 
L 121.813131 248.053013 
L 122.967172 251.663263 
L 124.121212 249.926066 
L 125.275253 253.804247 
L 126.429293 252.587217 
L 127.583333 251.994375 
L 128.737374 256.029876 
L 129.891414 252.899742 
L 131.045455 254.591957 
L 132.199495 253.143738 
L 133.353535 257.273354 
L 134.507576 256.664208 
L 135.661616 255.552154 
L 136.815657 258.168496 
L 137.969697 259.361995 
L 139.123737 260.858166 
L 140.277778 258.130016 
L 141.431818 258.804848 
L 142.585859 262.3686 
L 143.739899 260.846319 
L 144.893939 256.709481 
L 146.04798 259.249328 
L 147.20202 263.144431 
L 148.356061 264.9 
L 149.510101 260.743595 
L 150.664141 257.864174 
L 151.818182 255.505363 
L 152.972222 258.703877 
L 154.126263 259.106812 
L 155.280303 260.005535 
L 156.434343 262.190888 
L 157.588384 259.230585 
L 158.742424 261.072393 
L 159.896465 264.572015 
L 161.050505 263.136641 
L 162.204545 259.746906 
L 163.358586 258.8565 
L 164.512626 259.149312 
L 165.666667 257.780627 
L 166.820707 259.664036 
L 167.974747 257.520484 
L 169.128788 254.475208 
L 170.282828 252.624049 
L 171.436869 252.853487 
L 172.590909 252.107809 
L 173.744949 254.929227 
L 174.89899 256.89796 
L 176.05303 254.88252 
L 177.207071 253.559113 
L 178.361111 257.342941 
L 179.515152 255.211724 
L 180.669192 251.976886 
L 181.823232 248.155064 
L 182.977273 244.420332 
L 184.131313 245.179321 
L 185.285354 243.919022 
L 186.439394 245.290819 
L 187.593434 244.505445 
L 188.747475 246.212502 
L 189.901515 245.771306 
L 191.055556 244.140901 
L 192.209596 241.333407 
L 193.363636 237.767824 
L 194.517677 239.68857 
L 195.671717 236.351522 
L 196.825758 232.239844 
L 197.979798 232.39581 
L 199.133838 230.29078 
L 200.287879 228.540869 
L 201.441919 224.343128 
L 202.59596 221.450557 
L 203.75 217.654711 
" style="fill:none;stroke:#f0e442;stroke-linecap:square;stroke-width:2;"/>
   </g>
   <g id="patch_13">
    <path d="M 89.5 264.9 
L 89.5 156.9 
" style="fill:none;stroke:#000000;stroke-linecap:square;stroke-linejoin:miter;stroke-width:0.6;"/>
   </g>
   <g id="patch_14">
    <path d="M 203.75 264.9 
L 203.75 156.9 
" style="fill:none;stroke:#000000;stroke-linecap:square;stroke-linejoin:miter;stroke-width:0.6;"/>
   </g>
   <g id="patch_15">
    <path d="M 89.5 264.9 
L 203.75 264.9 
" style="fill:none;stroke:#000000;stroke-linecap:square;stroke-linejoin:miter;stroke-width:0.6;"/>
   </g>
   <g id="patch_16">
    <path d="M 89.5 156.9 
L 203.75 156.9 
" style="fill:none;stroke:#000000;stroke-linecap:square;stroke-linejoin:miter;stroke-width:0.6;"/>
   </g>
   <g id="text_32">
    <path d="M 97.913854 164.811563 
L 99.165417 164.811563 
Q 99.138698 164.361563 98.948854 164.033906 
Q 98.760417 163.704844 98.458073 163.484063 
Q 98.157135 163.263281 97.774635 163.156406 
Q 97.392135 163.048125 96.978698 163.048125 
Q 96.411979 163.048125 95.970417 163.236563 
Q 95.528854 163.425 95.222292 163.7625 
Q 94.917135 164.1 94.759635 164.564063 
Q 94.602135 165.028125 94.602135 165.568125 
Q 94.602135 166.089844 94.772292 166.527188 
Q 94.943854 166.963125 95.250417 167.278125 
Q 95.556979 167.593125 95.992917 167.768906 
Q 96.428854 167.943281 96.951979 167.943281 
Q 97.878698 167.943281 98.472135 167.458125 
Q 99.066979 166.971563 99.192135 166.044844 
L 97.958854 166.044844 
Q 97.896979 166.476563 97.649479 166.733906 
Q 97.401979 166.989844 96.942135 166.989844 
Q 96.645417 166.989844 96.438698 166.854844 
Q 96.231979 166.719844 96.109635 166.508906 
Q 95.988698 166.296563 95.933854 166.036406 
Q 95.880417 165.774844 95.880417 165.523125 
Q 95.880417 165.261563 95.933854 164.995781 
Q 95.988698 164.73 96.118073 164.510625 
Q 96.248854 164.289844 96.455573 164.150625 
Q 96.663698 164.01 96.968854 164.01 
Q 97.788698 164.01 97.913854 164.811563 
z
" style="stroke:#ffffff;stroke-linejoin:miter;stroke-width:1.5;"/>
    <path d="M 97.913854 164.811563 
L 99.165417 164.811563 
Q 99.138698 164.361563 98.948854 164.033906 
Q 98.760417 163.704844 98.458073 163.484063 
Q 98.157135 163.263281 97.774635 163.156406 
Q 97.392135 163.048125 96.978698 163.048125 
Q 96.411979 163.048125 95.970417 163.236563 
Q 95.528854 163.425 95.222292 163.7625 
Q 94.917135 164.1 94.759635 164.564063 
Q 94.602135 165.028125 94.602135 165.568125 
Q 94.602135 166.089844 94.772292 166.527188 
Q 94.943854 166.963125 95.250417 167.278125 
Q 95.556979 167.593125 95.992917 167.768906 
Q 96.428854 167.943281 96.951979 167.943281 
Q 97.878698 167.943281 98.472135 167.458125 
Q 99.066979 166.971563 99.192135 166.044844 
L 97.958854 166.044844 
Q 97.896979 166.476563 97.649479 166.733906 
Q 97.401979 166.989844 96.942135 166.989844 
Q 96.645417 166.989844 96.438698 166.854844 
Q 96.231979 166.719844 96.109635 166.508906 
Q 95.988698 166.296563 95.933854 166.036406 
Q 95.880417 165.774844 95.880417 165.523125 
Q 95.880417 165.261563 95.933854 164.995781 
Q 95.988698 164.73 96.118073 164.510625 
Q 96.248854 164.289844 96.455573 164.150625 
Q 96.663698 164.01 96.968854 164.01 
Q 97.788698 164.01 97.913854 164.811563 
z
"/>
   </g>
  </g>
  <g id="text_33">
   <!-- Subplot grid with centered rows -->
   <defs>
    <path d="M 17.59375 23.703125 
L 2.40625 23.703125 
Q 2.296875 17.09375 4.796875 12.296875 
Q 7.296875 7.5 11.546875 4.390625 
Q 15.796875 1.296875 21.34375 -0.140625 
Q 26.90625 -1.59375 32.796875 -1.59375 
Q 40.09375 -1.59375 45.640625 0.09375 
Q 51.203125 1.796875 54.953125 4.84375 
Q 58.703125 7.90625 60.59375 12.09375 
Q 62.5 16.296875 62.5 21.203125 
Q 62.5 27.203125 59.953125 31.046875 
Q 57.40625 34.90625 53.90625 37.203125 
Q 50.40625 39.5 46.84375 40.546875 
Q 43.296875 41.59375 41.296875 42 
Q 34.59375 43.703125 30.4375 44.796875 
Q 26.296875 45.90625 23.9375 47 
Q 21.59375 48.09375 20.796875 49.390625 
Q 20 50.703125 20 52.796875 
Q 20 55.09375 21 56.59375 
Q 22 58.09375 23.546875 59.09375 
Q 25.09375 60.09375 27 60.5 
Q 28.90625 60.90625 30.796875 60.90625 
Q 33.703125 60.90625 36.140625 60.40625 
Q 38.59375 59.90625 40.5 58.703125 
Q 42.40625 57.5 43.546875 55.390625 
Q 44.703125 53.296875 44.90625 50.09375 
L 60.09375 50.09375 
Q 60.09375 56.296875 57.75 60.640625 
Q 55.40625 65 51.40625 67.796875 
Q 47.40625 70.59375 42.25 71.84375 
Q 37.09375 73.09375 31.5 73.09375 
Q 26.703125 73.09375 21.890625 71.796875 
Q 17.09375 70.5 13.296875 67.796875 
Q 9.5 65.09375 7.140625 61.046875 
Q 4.796875 57 4.796875 51.5 
Q 4.796875 46.59375 6.640625 43.140625 
Q 8.5 39.703125 11.5 37.390625 
Q 14.5 35.09375 18.296875 33.640625 
Q 22.09375 32.203125 26.09375 31.203125 
Q 30 30.09375 33.796875 29.1875 
Q 37.59375 28.296875 40.59375 27.09375 
Q 43.59375 25.90625 45.4375 24.09375 
Q 47.296875 22.296875 47.296875 19.40625 
Q 47.296875 16.703125 45.890625 14.953125 
Q 44.5 13.203125 42.390625 12.203125 
Q 40.296875 11.203125 37.890625 10.84375 
Q 35.5 10.5 33.40625 10.5 
Q 30.296875 10.5 27.390625 11.25 
Q 24.5 12 22.34375 13.546875 
Q 20.203125 15.09375 18.890625 17.59375 
Q 17.59375 20.09375 17.59375 23.703125 
z
" id="HelveticaNeue-Bold-83"/>
    <path d="M 53.90625 0 
L 53.90625 51.703125 
L 39.703125 51.703125 
L 39.703125 24.59375 
Q 39.703125 16.703125 37.09375 13.25 
Q 34.5 9.796875 28.703125 9.796875 
Q 23.59375 9.796875 21.59375 12.9375 
Q 19.59375 16.09375 19.59375 22.5 
L 19.59375 51.703125 
L 5.40625 51.703125 
L 5.40625 19.90625 
Q 5.40625 15.09375 6.25 11.140625 
Q 7.09375 7.203125 9.1875 4.453125 
Q 11.296875 1.703125 14.9375 0.203125 
Q 18.59375 -1.296875 24.296875 -1.296875 
Q 28.796875 -1.296875 33.09375 0.703125 
Q 37.40625 2.703125 40.09375 7.203125 
L 40.40625 7.203125 
L 40.40625 0 
z
" id="HelveticaNeue-Bold-117"/>
    <path d="M 43.296875 25.796875 
Q 43.296875 22.59375 42.59375 19.59375 
Q 41.90625 16.59375 40.40625 14.296875 
Q 38.90625 12 36.65625 10.640625 
Q 34.40625 9.296875 31.203125 9.296875 
Q 28.09375 9.296875 25.796875 10.640625 
Q 23.5 12 22 14.296875 
Q 20.5 16.59375 19.796875 19.59375 
Q 19.09375 22.59375 19.09375 25.796875 
Q 19.09375 29.09375 19.796875 32.09375 
Q 20.5 35.09375 22 37.390625 
Q 23.5 39.703125 25.796875 41.046875 
Q 28.09375 42.40625 31.203125 42.40625 
Q 34.40625 42.40625 36.65625 41.046875 
Q 38.90625 39.703125 40.40625 37.390625 
Q 41.90625 35.09375 42.59375 32.09375 
Q 43.296875 29.09375 43.296875 25.796875 
z
M 5.40625 71.40625 
L 5.40625 0 
L 18.90625 0 
L 18.90625 6.59375 
L 19.09375 6.59375 
Q 21.40625 2.296875 25.90625 0.5 
Q 30.40625 -1.296875 36.09375 -1.296875 
Q 40 -1.296875 43.796875 0.296875 
Q 47.59375 1.90625 50.640625 5.203125 
Q 53.703125 8.5 55.59375 13.640625 
Q 57.5 18.796875 57.5 25.90625 
Q 57.5 33 55.59375 38.140625 
Q 53.703125 43.296875 50.640625 46.59375 
Q 47.59375 49.90625 43.796875 51.5 
Q 40 53.09375 36.09375 53.09375 
Q 31.296875 53.09375 26.84375 51.25 
Q 22.40625 49.40625 19.796875 45.40625 
L 19.59375 45.40625 
L 19.59375 71.40625 
z
" id="HelveticaNeue-Bold-98"/>
    <path d="M 31.5 9.296875 
Q 28.09375 9.296875 25.6875 10.6875 
Q 23.296875 12.09375 21.84375 14.34375 
Q 20.40625 16.59375 19.75 19.59375 
Q 19.09375 22.59375 19.09375 25.703125 
Q 19.09375 28.90625 19.6875 31.90625 
Q 20.296875 34.90625 21.75 37.203125 
Q 23.203125 39.5 25.546875 40.953125 
Q 27.90625 42.40625 31.40625 42.40625 
Q 34.796875 42.40625 37.140625 40.953125 
Q 39.5 39.5 41 37.140625 
Q 42.5 34.796875 43.140625 31.796875 
Q 43.796875 28.796875 43.796875 25.703125 
Q 43.796875 22.59375 43.1875 19.59375 
Q 42.59375 16.59375 41.140625 14.34375 
Q 39.703125 12.09375 37.34375 10.6875 
Q 35 9.296875 31.5 9.296875 
z
M 5.40625 51.703125 
L 5.40625 -18.09375 
L 19.59375 -18.09375 
L 19.59375 6.40625 
L 19.796875 6.40625 
Q 22.40625 2.59375 26.453125 0.640625 
Q 30.5 -1.296875 35.296875 -1.296875 
Q 41 -1.296875 45.25 0.890625 
Q 49.5 3.09375 52.34375 6.796875 
Q 55.203125 10.5 56.59375 15.296875 
Q 58 20.09375 58 25.296875 
Q 58 30.796875 56.59375 35.84375 
Q 55.203125 40.90625 52.296875 44.703125 
Q 49.40625 48.5 45 50.796875 
Q 40.59375 53.09375 34.5 53.09375 
Q 29.703125 53.09375 25.703125 51.1875 
Q 21.703125 49.296875 19.09375 45.09375 
L 18.90625 45.09375 
L 18.90625 51.703125 
z
" id="HelveticaNeue-Bold-112"/>
    <path d="M 5.796875 71.40625 
L 5.796875 0 
L 20 0 
L 20 71.40625 
z
" id="HelveticaNeue-Bold-108"/>
    <path d="M 18 25.796875 
Q 18 28.90625 18.59375 31.90625 
Q 19.203125 34.90625 20.640625 37.203125 
Q 22.09375 39.5 24.5 40.953125 
Q 26.90625 42.40625 30.5 42.40625 
Q 34.09375 42.40625 36.546875 40.953125 
Q 39 39.5 40.453125 37.203125 
Q 41.90625 34.90625 42.5 31.90625 
Q 43.09375 28.90625 43.09375 25.796875 
Q 43.09375 22.703125 42.5 19.75 
Q 41.90625 16.796875 40.453125 14.4375 
Q 39 12.09375 36.546875 10.6875 
Q 34.09375 9.296875 30.5 9.296875 
Q 26.90625 9.296875 24.5 10.6875 
Q 22.09375 12.09375 20.640625 14.4375 
Q 19.203125 16.796875 18.59375 19.75 
Q 18 22.703125 18 25.796875 
z
M 3.796875 25.796875 
Q 3.796875 19.59375 5.6875 14.59375 
Q 7.59375 9.59375 11.09375 6.046875 
Q 14.59375 2.5 19.5 0.59375 
Q 24.40625 -1.296875 30.5 -1.296875 
Q 36.59375 -1.296875 41.546875 0.59375 
Q 46.5 2.5 50 6.046875 
Q 53.5 9.59375 55.390625 14.59375 
Q 57.296875 19.59375 57.296875 25.796875 
Q 57.296875 32 55.390625 37.046875 
Q 53.5 42.09375 50 45.640625 
Q 46.5 49.203125 41.546875 51.140625 
Q 36.59375 53.09375 30.5 53.09375 
Q 24.40625 53.09375 19.5 51.140625 
Q 14.59375 49.203125 11.09375 45.640625 
Q 7.59375 42.09375 5.6875 37.046875 
Q 3.796875 32 3.796875 25.796875 
z
" id="HelveticaNeue-Bold-111"/>
    <path d="M 23.40625 51.703125 
L 23.40625 67.203125 
L 9.203125 67.203125 
L 9.203125 51.703125 
L 0.59375 51.703125 
L 0.59375 42.203125 
L 9.203125 42.203125 
L 9.203125 11.703125 
Q 9.203125 7.796875 10.5 5.390625 
Q 11.796875 3 14.046875 1.703125 
Q 16.296875 0.40625 19.25 -0.046875 
Q 22.203125 -0.5 25.5 -0.5 
Q 27.59375 -0.5 29.796875 -0.390625 
Q 32 -0.296875 33.796875 0 
L 33.796875 11 
Q 32.796875 10.796875 31.6875 10.6875 
Q 30.59375 10.59375 29.40625 10.59375 
Q 25.796875 10.59375 24.59375 11.796875 
Q 23.40625 13 23.40625 16.59375 
L 23.40625 42.203125 
L 33.796875 42.203125 
L 33.796875 51.703125 
z
" id="HelveticaNeue-Bold-116"/>
    <path id="HelveticaNeue-Bold-32"/>
    <path d="M 29.5 12.203125 
Q 26.203125 12.203125 24 13.59375 
Q 21.796875 15 20.4375 17.203125 
Q 19.09375 19.40625 18.546875 22.15625 
Q 18 24.90625 18 27.703125 
Q 18 30.59375 18.640625 33.25 
Q 19.296875 35.90625 20.75 37.953125 
Q 22.203125 40 24.34375 41.203125 
Q 26.5 42.40625 29.5 42.40625 
Q 33 42.40625 35.296875 41.09375 
Q 37.59375 39.796875 39 37.59375 
Q 40.40625 35.40625 41 32.546875 
Q 41.59375 29.703125 41.59375 26.5 
Q 41.59375 23.703125 40.84375 21.140625 
Q 40.09375 18.59375 38.59375 16.59375 
Q 37.09375 14.59375 34.796875 13.390625 
Q 32.5 12.203125 29.5 12.203125 
z
M 55.09375 3.296875 
L 55.09375 51.703125 
L 41.59375 51.703125 
L 41.59375 44.796875 
L 41.40625 44.796875 
Q 38.796875 49.296875 34.9375 51.1875 
Q 31.09375 53.09375 26 53.09375 
Q 20.59375 53.09375 16.4375 51 
Q 12.296875 48.90625 9.5 45.34375 
Q 6.703125 41.796875 5.25 37.140625 
Q 3.796875 32.5 3.796875 27.5 
Q 3.796875 22.203125 5.046875 17.453125 
Q 6.296875 12.703125 9 9.140625 
Q 11.703125 5.59375 15.890625 3.546875 
Q 20.09375 1.5 25.90625 1.5 
Q 30.59375 1.5 34.84375 3.453125 
Q 39.09375 5.40625 41.40625 9.5 
L 41.59375 9.5 
L 41.59375 2.703125 
Q 41.703125 -2.796875 38.953125 -6.390625 
Q 36.203125 -10 30.203125 -10 
Q 26.40625 -10 23.5 -8.453125 
Q 20.59375 -6.90625 19.59375 -2.90625 
L 5.5 -2.90625 
Q 5.796875 -7.296875 7.9375 -10.4375 
Q 10.09375 -13.59375 13.34375 -15.59375 
Q 16.59375 -17.59375 20.546875 -18.546875 
Q 24.5 -19.5 28.296875 -19.5 
Q 37.203125 -19.5 42.5 -17.09375 
Q 47.796875 -14.703125 50.59375 -11.25 
Q 53.40625 -7.796875 54.25 -3.796875 
Q 55.09375 0.203125 55.09375 3.296875 
z
" id="HelveticaNeue-Bold-103"/>
    <path d="M 5.40625 51.703125 
L 5.40625 0 
L 19.59375 0 
L 19.59375 23.296875 
Q 19.59375 26.796875 20.296875 29.796875 
Q 21 32.796875 22.640625 35.046875 
Q 24.296875 37.296875 27 38.59375 
Q 29.703125 39.90625 33.59375 39.90625 
Q 34.90625 39.90625 36.296875 39.75 
Q 37.703125 39.59375 38.703125 39.40625 
L 38.703125 52.59375 
Q 37 53.09375 35.59375 53.09375 
Q 32.90625 53.09375 30.40625 52.296875 
Q 27.90625 51.5 25.703125 50.046875 
Q 23.5 48.59375 21.796875 46.546875 
Q 20.09375 44.5 19.09375 42.09375 
L 18.90625 42.09375 
L 18.90625 51.703125 
z
" id="HelveticaNeue-Bold-114"/>
    <path d="M 20 59.703125 
L 20 71.40625 
L 5.796875 71.40625 
L 5.796875 59.703125 
z
M 5.796875 51.703125 
L 5.796875 0 
L 20 0 
L 20 51.703125 
z
" id="HelveticaNeue-Bold-105"/>
    <path d="M 42.09375 26 
Q 42.09375 22.796875 41.5 19.796875 
Q 40.90625 16.796875 39.5 14.4375 
Q 38.09375 12.09375 35.75 10.6875 
Q 33.40625 9.296875 29.90625 9.296875 
Q 26.59375 9.296875 24.25 10.75 
Q 21.90625 12.203125 20.34375 14.546875 
Q 18.796875 16.90625 18.09375 19.90625 
Q 17.40625 22.90625 17.40625 25.90625 
Q 17.40625 29.09375 18.046875 32.046875 
Q 18.703125 35 20.140625 37.296875 
Q 21.59375 39.59375 24 41 
Q 26.40625 42.40625 29.90625 42.40625 
Q 33.40625 42.40625 35.703125 41 
Q 38 39.59375 39.453125 37.34375 
Q 40.90625 35.09375 41.5 32.140625 
Q 42.09375 29.203125 42.09375 26 
z
M 42.296875 6.59375 
L 42.296875 0 
L 55.796875 0 
L 55.796875 71.40625 
L 41.59375 71.40625 
L 41.59375 45.40625 
L 41.40625 45.40625 
Q 39 49.203125 34.84375 51.140625 
Q 30.703125 53.09375 26.09375 53.09375 
Q 20.40625 53.09375 16.09375 50.84375 
Q 11.796875 48.59375 8.9375 44.890625 
Q 6.09375 41.203125 4.640625 36.34375 
Q 3.203125 31.5 3.203125 26.296875 
Q 3.203125 20.90625 4.640625 15.90625 
Q 6.09375 10.90625 8.9375 7.046875 
Q 11.796875 3.203125 16.1875 0.953125 
Q 20.59375 -1.296875 26.40625 -1.296875 
Q 31.5 -1.296875 35.546875 0.546875 
Q 39.59375 2.40625 42.09375 6.59375 
z
" id="HelveticaNeue-Bold-100"/>
    <path d="M 64.5 0 
L 80.796875 51.703125 
L 66.203125 51.703125 
L 56.703125 16.703125 
L 56.5 16.703125 
L 47.703125 51.703125 
L 33.90625 51.703125 
L 25.296875 16.59375 
L 25.09375 16.59375 
L 15.59375 51.703125 
L 0.59375 51.703125 
L 17 0 
L 31.703125 0 
L 40.5 34.703125 
L 40.703125 34.703125 
L 49.90625 0 
z
" id="HelveticaNeue-Bold-119"/>
    <path d="M 5.40625 71.40625 
L 5.40625 0 
L 19.59375 0 
L 19.59375 27.09375 
Q 19.59375 35 22.1875 38.453125 
Q 24.796875 41.90625 30.59375 41.90625 
Q 35.703125 41.90625 37.703125 38.75 
Q 39.703125 35.59375 39.703125 29.203125 
L 39.703125 0 
L 53.90625 0 
L 53.90625 31.796875 
Q 53.90625 36.59375 53.046875 40.546875 
Q 52.203125 44.5 50.09375 47.25 
Q 48 50 44.34375 51.546875 
Q 40.703125 53.09375 35 53.09375 
Q 31 53.09375 26.796875 51.046875 
Q 22.59375 49 19.90625 44.5 
L 19.59375 44.5 
L 19.59375 71.40625 
z
" id="HelveticaNeue-Bold-104"/>
    <path d="M 40.59375 33.5 
L 54.5 33.5 
Q 54.203125 38.5 52.09375 42.140625 
Q 50 45.796875 46.640625 48.25 
Q 43.296875 50.703125 39.046875 51.890625 
Q 34.796875 53.09375 30.203125 53.09375 
Q 23.90625 53.09375 19 51 
Q 14.09375 48.90625 10.6875 45.15625 
Q 7.296875 41.40625 5.546875 36.25 
Q 3.796875 31.09375 3.796875 25.09375 
Q 3.796875 19.296875 5.6875 14.4375 
Q 7.59375 9.59375 11 6.09375 
Q 14.40625 2.59375 19.25 0.640625 
Q 24.09375 -1.296875 29.90625 -1.296875 
Q 40.203125 -1.296875 46.796875 4.09375 
Q 53.40625 9.5 54.796875 19.796875 
L 41.09375 19.796875 
Q 40.40625 15 37.65625 12.140625 
Q 34.90625 9.296875 29.796875 9.296875 
Q 26.5 9.296875 24.203125 10.796875 
Q 21.90625 12.296875 20.546875 14.640625 
Q 19.203125 17 18.59375 19.890625 
Q 18 22.796875 18 25.59375 
Q 18 28.5 18.59375 31.453125 
Q 19.203125 34.40625 20.640625 36.84375 
Q 22.09375 39.296875 24.390625 40.84375 
Q 26.703125 42.40625 30.09375 42.40625 
Q 39.203125 42.40625 40.59375 33.5 
z
" id="HelveticaNeue-Bold-99"/>
    <path d="M 40.203125 31.40625 
L 17.09375 31.40625 
Q 17.203125 32.90625 17.75 34.796875 
Q 18.296875 36.703125 19.640625 38.390625 
Q 21 40.09375 23.25 41.25 
Q 25.5 42.40625 28.90625 42.40625 
Q 34.09375 42.40625 36.640625 39.59375 
Q 39.203125 36.796875 40.203125 31.40625 
z
M 17.09375 22.40625 
L 54.40625 22.40625 
Q 54.796875 28.40625 53.390625 33.90625 
Q 52 39.40625 48.84375 43.703125 
Q 45.703125 48 40.796875 50.546875 
Q 35.90625 53.09375 29.296875 53.09375 
Q 23.40625 53.09375 18.546875 51 
Q 13.703125 48.90625 10.203125 45.25 
Q 6.703125 41.59375 4.796875 36.59375 
Q 2.90625 31.59375 2.90625 25.796875 
Q 2.90625 19.796875 4.75 14.796875 
Q 6.59375 9.796875 10 6.1875 
Q 13.40625 2.59375 18.296875 0.640625 
Q 23.203125 -1.296875 29.296875 -1.296875 
Q 38.09375 -1.296875 44.296875 2.703125 
Q 50.5 6.703125 53.5 16 
L 41 16 
Q 40.296875 13.59375 37.1875 11.4375 
Q 34.09375 9.296875 29.796875 9.296875 
Q 23.796875 9.296875 20.59375 12.390625 
Q 17.40625 15.5 17.09375 22.40625 
z
" id="HelveticaNeue-Bold-101"/>
    <path d="M 5.40625 51.703125 
L 5.40625 0 
L 19.59375 0 
L 19.59375 27.09375 
Q 19.59375 35 22.1875 38.453125 
Q 24.796875 41.90625 30.59375 41.90625 
Q 35.703125 41.90625 37.703125 38.75 
Q 39.703125 35.59375 39.703125 29.203125 
L 39.703125 0 
L 53.90625 0 
L 53.90625 31.796875 
Q 53.90625 36.59375 53.046875 40.546875 
Q 52.203125 44.5 50.09375 47.25 
Q 48 50 44.34375 51.546875 
Q 40.703125 53.09375 35 53.09375 
Q 30.5 53.09375 26.203125 51.046875 
Q 21.90625 49 19.203125 44.5 
L 18.90625 44.5 
L 18.90625 51.703125 
z
" id="HelveticaNeue-Bold-110"/>
    <path d="M 16.40625 16.796875 
L 2.90625 16.796875 
Q 3.09375 11.59375 5.25 8.140625 
Q 7.40625 4.703125 10.75 2.59375 
Q 14.09375 0.5 18.390625 -0.390625 
Q 22.703125 -1.296875 27.203125 -1.296875 
Q 31.59375 -1.296875 35.84375 -0.4375 
Q 40.09375 0.40625 43.390625 2.5 
Q 46.703125 4.59375 48.75 8.046875 
Q 50.796875 11.5 50.796875 16.59375 
Q 50.796875 20.203125 49.390625 22.640625 
Q 48 25.09375 45.703125 26.75 
Q 43.40625 28.40625 40.453125 29.40625 
Q 37.5 30.40625 34.40625 31.09375 
Q 31.40625 31.796875 28.5 32.390625 
Q 25.59375 33 23.34375 33.75 
Q 21.09375 34.5 19.6875 35.703125 
Q 18.296875 36.90625 18.296875 38.796875 
Q 18.296875 40.40625 19.09375 41.34375 
Q 19.90625 42.296875 21.046875 42.796875 
Q 22.203125 43.296875 23.59375 43.4375 
Q 25 43.59375 26.203125 43.59375 
Q 30 43.59375 32.796875 42.140625 
Q 35.59375 40.703125 35.90625 36.59375 
L 49.40625 36.59375 
Q 49 41.40625 46.953125 44.546875 
Q 44.90625 47.703125 41.796875 49.59375 
Q 38.703125 51.5 34.75 52.296875 
Q 30.796875 53.09375 26.59375 53.09375 
Q 22.40625 53.09375 18.40625 52.34375 
Q 14.40625 51.59375 11.203125 49.75 
Q 8 47.90625 6.046875 44.703125 
Q 4.09375 41.5 4.09375 36.5 
Q 4.09375 33.09375 5.5 30.75 
Q 6.90625 28.40625 9.203125 26.84375 
Q 11.5 25.296875 14.453125 24.34375 
Q 17.40625 23.40625 20.5 22.703125 
Q 28.09375 21.09375 32.34375 19.5 
Q 36.59375 17.90625 36.59375 14.703125 
Q 36.59375 12.796875 35.6875 11.546875 
Q 34.796875 10.296875 33.4375 9.546875 
Q 32.09375 8.796875 30.4375 8.4375 
Q 28.796875 8.09375 27.296875 8.09375 
Q 25.203125 8.09375 23.25 8.59375 
Q 21.296875 9.09375 19.796875 10.140625 
Q 18.296875 11.203125 17.34375 12.84375 
Q 16.40625 14.5 16.40625 16.796875 
z
" id="HelveticaNeue-Bold-115"/>
   </defs>
   <g transform="translate(77.888906 10.245)scale(0.09 -0.09)">
    <use xlink:href="#HelveticaNeue-Bold-83"/>
    <use x="64.899994" xlink:href="#HelveticaNeue-Bold-117"/>
    <use x="124.199982" xlink:href="#HelveticaNeue-Bold-98"/>
    <use x="185.299973" xlink:href="#HelveticaNeue-Bold-112"/>
    <use x="246.399963" xlink:href="#HelveticaNeue-Bold-108"/>
    <use x="272.199951" xlink:href="#HelveticaNeue-Bold-111"/>
    <use x="333.299942" xlink:href="#HelveticaNeue-Bold-116"/>
    <use x="368.499939" xlink:href="#HelveticaNeue-Bold-32"/>
    <use x="396.299927" xlink:href="#HelveticaNeue-Bold-103"/>
    <use x="457.399918" xlink:href="#HelveticaNeue-Bold-114"/>
    <use x="496.299911" xlink:href="#HelveticaNeue-Bold-105"/>
    <use x="522.099899" xlink:href="#HelveticaNeue-Bold-100"/>
    <use x="583.19989" xlink:href="#HelveticaNeue-Bold-32"/>
    <use x="610.999878" xlink:href="#HelveticaNeue-Bold-119"/>
    <use x="692.399872" xlink:href="#HelveticaNeue-Bold-105"/>
    <use x="718.19986" xlink:href="#HelveticaNeue-Bold-116"/>
    <use x="753.399857" xlink:href="#HelveticaNeue-Bold-104"/>
    <use x="812.699844" xlink:href="#HelveticaNeue-Bold-32"/>
    <use x="840.499832" xlink:href="#HelveticaNeue-Bold-99"/>
    <use x="897.899826" xlink:href="#HelveticaNeue-Bold-101"/>
    <use x="955.29982" xlink:href="#HelveticaNeue-Bold-110"/>
    <use x="1014.599808" xlink:href="#HelveticaNeue-Bold-116"/>
    <use x="1049.799805" xlink:href="#HelveticaNeue-Bold-101"/>
    <use x="1107.199799" xlink:href="#HelveticaNeue-Bold-114"/>
    <use x="1146.084167" xlink:href="#HelveticaNeue-Bold-101"/>
    <use x="1203.484161" xlink:href="#HelveticaNeue-Bold-100"/>
    <use x="1264.584152" xlink:href="#HelveticaNeue-Bold-32"/>
    <use x="1292.38414" xlink:href="#HelveticaNeue-Bold-114"/>
    <use x="1331.268509" xlink:href="#HelveticaNeue-Bold-111"/>
    <use x="1392.3685" xlink:href="#HelveticaNeue-Bold-119"/>
    <use x="1473.768494" xlink:href="#HelveticaNeue-Bold-115"/>
   </g>
  </g>
 </g>
 <defs>
  <clipPath id="pa7bac6625e">
   <rect height="108" width="108" x="31.5" y="17.5"/>
  </clipPath>
  <clipPath id="p5f467d6e7f">
   <rect height="108" width="108" x="153.75" y="17.5"/>
  </clipPath>
  <clipPath id="p232b61f4f6">
   <rect height="108" width="114.25" x="89.5" y="156.9"/>
  </clipPath>
 </defs>
</svg>
