<?xml version="1.0" encoding="utf-8" standalone="no"?>
<!DOCTYPE svg PUBLIC "-//W3C//DTD SVG 1.1//EN"
  "http://www.w3.org/Graphics/SVG/1.1/DTD/svg11.dtd">
<!-- Created with matplotlib (https://matplotlib.org/) -->
<svg height="233.7pt" version="1.1" viewBox="0 0 399.5 233.7" width="399.5pt" xmlns="http://www.w3.org/2000/svg" xmlns:xlink="http://www.w3.org/1999/xlink">
 <defs>
  <style type="text/css">
*{stroke-linecap:butt;stroke-linejoin:round;}
  </style>
 </defs>
 <g id="figure_1">
  <g id="patch_1">
   <path d="M 0 233.7 
L 399.5 233.7 
L 399.5 0 
L 0 0 
z
" style="fill:#f2f2f2;"/>
  </g>
  <g id="axes_1">
   <g id="patch_2">
    <path d="M 32.7 172.9 
L 176.7 172.9 
L 176.7 28.9 
L 32.7 28.9 
z
" style="fill:#ffffff;"/>
   </g>
   <g id="matplotlib.axis_1">
    <g id="xtick_1">
     <g id="line2d_1">
      <path clip-path="url(#p17027a1d65)" d="M 32.7 172.9 
L 32.7 28.9 
" style="fill:none;stroke:#000000;stroke-linecap:square;stroke-opacity:0.1;stroke-width:0.6;"/>
     </g>
     <g id="line2d_2">
      <defs>
       <path d="M 0 0 
L 0 4 
" id="m3c756c9727" style="stroke:#000000;stroke-width:0.6;"/>
      </defs>
      <g>
       <use style="stroke:#000000;stroke-width:0.6;" x="32.7" xlink:href="#m3c756c9727" y="172.9"/>
      </g>
     </g>
     <g id="text_1">
      <!-- 0 -->
      <defs>
       <path d="M 13.203125 34.90625 
Q 13.203125 37.5 13.25 40.640625 
Q 13.296875 43.796875 13.75 46.9375 
Q 14.203125 50.09375 15.046875 53.09375 
Q 15.90625 56.09375 17.546875 58.34375 
Q 19.203125 60.59375 21.703125 62 
Q 24.203125 63.40625 27.796875 63.40625 
Q 31.40625 63.40625 33.90625 62 
Q 36.40625 60.59375 38.046875 58.34375 
Q 39.703125 56.09375 40.546875 53.09375 
Q 41.40625 50.09375 41.84375 46.9375 
Q 42.296875 43.796875 42.34375 40.640625 
Q 42.40625 37.5 42.40625 34.90625 
Q 42.40625 30.90625 42.15625 25.953125 
Q 41.90625 21 40.546875 16.640625 
Q 39.203125 12.296875 36.203125 9.296875 
Q 33.203125 6.296875 27.796875 6.296875 
Q 22.40625 6.296875 19.40625 9.296875 
Q 16.40625 12.296875 15.046875 16.640625 
Q 13.703125 21 13.453125 25.953125 
Q 13.203125 30.90625 13.203125 34.90625 
z
M 4.203125 34.796875 
Q 4.203125 30.90625 4.390625 26.703125 
Q 4.59375 22.5 5.390625 18.5 
Q 6.203125 14.5 7.703125 10.953125 
Q 9.203125 7.40625 11.796875 4.703125 
Q 14.40625 2 18.34375 0.453125 
Q 22.296875 -1.09375 27.796875 -1.09375 
Q 33.40625 -1.09375 37.296875 0.453125 
Q 41.203125 2 43.796875 4.703125 
Q 46.40625 7.40625 47.90625 10.953125 
Q 49.40625 14.5 50.203125 18.5 
Q 51 22.5 51.203125 26.703125 
Q 51.40625 30.90625 51.40625 34.796875 
Q 51.40625 38.703125 51.203125 42.890625 
Q 51 47.09375 50.203125 51.09375 
Q 49.40625 55.09375 47.90625 58.6875 
Q 46.40625 62.296875 43.796875 65 
Q 41.203125 67.703125 37.25 69.296875 
Q 33.296875 70.90625 27.796875 70.90625 
Q 22.296875 70.90625 18.34375 69.296875 
Q 14.40625 67.703125 11.796875 65 
Q 9.203125 62.296875 7.703125 58.6875 
Q 6.203125 55.09375 5.390625 51.09375 
Q 4.59375 47.09375 4.390625 42.890625 
Q 4.203125 38.703125 4.203125 34.796875 
z
" id="HelveticaNeue-48"/>
      </defs>
      <g transform="translate(30.47625 184.6125)scale(0.08 -0.08)">
       <use xlink:href="#HelveticaNeue-48"/>
      </g>
     </g>
    </g>
    <g id="xtick_2">
     <g id="line2d_3">
      <path clip-path="url(#p17027a1d65)" d="M 70.594737 172.9 
L 70.594737 28.9 
" style="fill:none;stroke:#000000;stroke-linecap:square;stroke-opacity:0.1;stroke-width:0.6;"/>
     </g>
     <g id="line2d_4">
      <g>
       <use style="stroke:#000000;stroke-width:0.6;" x="70.594737" xlink:href="#m3c756c9727" y="172.9"/>
      </g>
     </g>
     <g id="text_2">
      <!-- 5 -->
      <defs>
       <path d="M 47 62.203125 
L 47 69.703125 
L 12 69.703125 
L 5.40625 32.90625 
L 12.703125 32.5 
Q 15.203125 35.5 18.453125 37.34375 
Q 21.703125 39.203125 25.90625 39.203125 
Q 29.5 39.203125 32.453125 38 
Q 35.40625 36.796875 37.5 34.640625 
Q 39.59375 32.5 40.75 29.546875 
Q 41.90625 26.59375 41.90625 23.09375 
Q 41.90625 18.90625 40.703125 15.75 
Q 39.5 12.59375 37.453125 10.5 
Q 35.40625 8.40625 32.65625 7.34375 
Q 29.90625 6.296875 26.90625 6.296875 
Q 23.703125 6.296875 21.046875 7.25 
Q 18.40625 8.203125 16.453125 9.953125 
Q 14.5 11.703125 13.34375 14.046875 
Q 12.203125 16.40625 12 19.09375 
L 3.5 19.09375 
Q 3.59375 14.296875 5.390625 10.5 
Q 7.203125 6.703125 10.296875 4.140625 
Q 13.40625 1.59375 17.453125 0.25 
Q 21.5 -1.09375 26.09375 -1.09375 
Q 32.296875 -1.09375 36.9375 0.84375 
Q 41.59375 2.796875 44.6875 6.09375 
Q 47.796875 9.40625 49.34375 13.65625 
Q 50.90625 17.90625 50.90625 22.40625 
Q 50.90625 28.5 49.09375 33.046875 
Q 47.296875 37.59375 44.1875 40.640625 
Q 41.09375 43.703125 36.890625 45.203125 
Q 32.703125 46.703125 28 46.703125 
Q 24.40625 46.703125 20.75 45.453125 
Q 17.09375 44.203125 14.796875 41.59375 
L 14.59375 41.796875 
L 18.40625 62.203125 
z
" id="HelveticaNeue-53"/>
      </defs>
      <g transform="translate(68.370987 184.6125)scale(0.08 -0.08)">
       <use xlink:href="#HelveticaNeue-53"/>
      </g>
     </g>
    </g>
    <g id="xtick_3">
     <g id="line2d_5">
      <path clip-path="url(#p17027a1d65)" d="M 108.489474 172.9 
L 108.489474 28.9 
" style="fill:none;stroke:#000000;stroke-linecap:square;stroke-opacity:0.1;stroke-width:0.6;"/>
     </g>
     <g id="line2d_6">
      <g>
       <use style="stroke:#000000;stroke-width:0.6;" x="108.489474" xlink:href="#m3c756c9727" y="172.9"/>
      </g>
     </g>
     <g id="text_3">
      <!-- 10 -->
      <defs>
       <path d="M 35.59375 0 
L 35.59375 70.90625 
L 29.09375 70.90625 
Q 28.40625 66.90625 26.5 64.296875 
Q 24.59375 61.703125 21.84375 60.203125 
Q 19.09375 58.703125 15.6875 58.140625 
Q 12.296875 57.59375 8.703125 57.59375 
L 8.703125 50.796875 
L 27.09375 50.796875 
L 27.09375 0 
z
" id="HelveticaNeue-49"/>
      </defs>
      <g transform="translate(104.041974 184.6125)scale(0.08 -0.08)">
       <use xlink:href="#HelveticaNeue-49"/>
       <use x="55.599991" xlink:href="#HelveticaNeue-48"/>
      </g>
     </g>
    </g>
    <g id="xtick_4">
     <g id="line2d_7">
      <path clip-path="url(#p17027a1d65)" d="M 146.384211 172.9 
L 146.384211 28.9 
" style="fill:none;stroke:#000000;stroke-linecap:square;stroke-opacity:0.1;stroke-width:0.6;"/>
     </g>
     <g id="line2d_8">
      <g>
       <use style="stroke:#000000;stroke-width:0.6;" x="146.384211" xlink:href="#m3c756c9727" y="172.9"/>
      </g>
     </g>
     <g id="text_4">
      <!-- 15 -->
      <g transform="translate(141.936711 184.6125)scale(0.08 -0.08)">
       <use xlink:href="#HelveticaNeue-49"/>
       <use x="55.599991" xlink:href="#HelveticaNeue-53"/>
      </g>
     </g>
    </g>
    <g id="xtick_5">
     <g id="line2d_9">
      <defs>
       <path d="M 0 0 
L 0 2 
" id="m96102be755" style="stroke:#000000;stroke-width:0.48;"/>
      </defs>
      <g>
       <use style="stroke:#000000;stroke-width:0.48;" x="40.278947" xlink:href="#m96102be755" y="172.9"/>
      </g>
     </g>
    </g>
    <g id="xtick_6">
     <g id="line2d_10">
      <g>
       <use style="stroke:#000000;stroke-width:0.48;" x="47.857895" xlink:href="#m96102be755" y="172.9"/>
      </g>
     </g>
    </g>
    <g id="xtick_7">
     <g id="line2d_11">
      <g>
       <use style="stroke:#000000;stroke-width:0.48;" x="55.436842" xlink:href="#m96102be755" y="172.9"/>
      </g>
     </g>
    </g>
    <g id="xtick_8">
     <g id="line2d_12">
      <g>
       <use style="stroke:#000000;stroke-width:0.48;" x="63.015789" xlink:href="#m96102be755" y="172.9"/>
      </g>
     </g>
    </g>
    <g id="xtick_9">
     <g id="line2d_13">
      <g>
       <use style="stroke:#000000;stroke-width:0.48;" x="78.173684" xlink:href="#m96102be755" y="172.9"/>
      </g>
     </g>
    </g>
    <g id="xtick_10">
     <g id="line2d_14">
      <g>
       <use style="stroke:#000000;stroke-width:0.48;" x="85.752632" xlink:href="#m96102be755" y="172.9"/>
      </g>
     </g>
    </g>
    <g id="xtick_11">
     <g id="line2d_15">
      <g>
       <use style="stroke:#000000;stroke-width:0.48;" x="93.331579" xlink:href="#m96102be755" y="172.9"/>
      </g>
     </g>
    </g>
    <g id="xtick_12">
     <g id="line2d_16">
      <g>
       <use style="stroke:#000000;stroke-width:0.48;" x="100.910526" xlink:href="#m96102be755" y="172.9"/>
      </g>
     </g>
    </g>
    <g id="xtick_13">
     <g id="line2d_17">
      <g>
       <use style="stroke:#000000;stroke-width:0.48;" x="116.068421" xlink:href="#m96102be755" y="172.9"/>
      </g>
     </g>
    </g>
    <g id="xtick_14">
     <g id="line2d_18">
      <g>
       <use style="stroke:#000000;stroke-width:0.48;" x="123.647368" xlink:href="#m96102be755" y="172.9"/>
      </g>
     </g>
    </g>
    <g id="xtick_15">
     <g id="line2d_19">
      <g>
       <use style="stroke:#000000;stroke-width:0.48;" x="131.226316" xlink:href="#m96102be755" y="172.9"/>
      </g>
     </g>
    </g>
    <g id="xtick_16">
     <g id="line2d_20">
      <g>
       <use style="stroke:#000000;stroke-width:0.48;" x="138.805263" xlink:href="#m96102be755" y="172.9"/>
      </g>
     </g>
    </g>
    <g id="xtick_17">
     <g id="line2d_21">
      <g>
       <use style="stroke:#000000;stroke-width:0.48;" x="153.963158" xlink:href="#m96102be755" y="172.9"/>
      </g>
     </g>
    </g>
    <g id="xtick_18">
     <g id="line2d_22">
      <g>
       <use style="stroke:#000000;stroke-width:0.48;" x="161.542105" xlink:href="#m96102be755" y="172.9"/>
      </g>
     </g>
    </g>
    <g id="xtick_19">
     <g id="line2d_23">
      <g>
       <use style="stroke:#000000;stroke-width:0.48;" x="169.121053" xlink:href="#m96102be755" y="172.9"/>
      </g>
     </g>
    </g>
    <g id="xtick_20">
     <g id="line2d_24">
      <g>
       <use style="stroke:#000000;stroke-width:0.48;" x="176.7" xlink:href="#m96102be755" y="172.9"/>
      </g>
     </g>
    </g>
    <g id="text_5">
     <!-- xlabel -->
     <defs>
      <path d="M 20.296875 27.203125 
L 0.90625 0 
L 11.203125 0 
L 25.59375 21.40625 
L 40 0 
L 50.90625 0 
L 30.90625 27.90625 
L 48.703125 51.703125 
L 38.5 51.703125 
L 25.59375 33.59375 
L 13.203125 51.703125 
L 2.296875 51.703125 
z
" id="HelveticaNeue-120"/>
      <path d="M 6.90625 71.40625 
L 6.90625 0 
L 15.40625 0 
L 15.40625 71.40625 
z
" id="HelveticaNeue-108"/>
      <path d="M 52.203125 0.203125 
Q 50 -1.09375 46.09375 -1.09375 
Q 42.796875 -1.09375 40.84375 0.75 
Q 38.90625 2.59375 38.90625 6.796875 
Q 35.40625 2.59375 30.75 0.75 
Q 26.09375 -1.09375 20.703125 -1.09375 
Q 17.203125 -1.09375 14.046875 -0.296875 
Q 10.90625 0.5 8.59375 2.203125 
Q 6.296875 3.90625 4.9375 6.65625 
Q 3.59375 9.40625 3.59375 13.296875 
Q 3.59375 17.703125 5.09375 20.5 
Q 6.59375 23.296875 9.046875 25.046875 
Q 11.5 26.796875 14.640625 27.6875 
Q 17.796875 28.59375 21.09375 29.203125 
Q 24.59375 29.90625 27.75 30.25 
Q 30.90625 30.59375 33.296875 31.25 
Q 35.703125 31.90625 37.09375 33.15625 
Q 38.5 34.40625 38.5 36.796875 
Q 38.5 39.59375 37.453125 41.296875 
Q 36.40625 43 34.75 43.890625 
Q 33.09375 44.796875 31.046875 45.09375 
Q 29 45.40625 27 45.40625 
Q 21.59375 45.40625 18 43.34375 
Q 14.40625 41.296875 14.09375 35.59375 
L 5.59375 35.59375 
Q 5.796875 40.40625 7.59375 43.703125 
Q 9.40625 47 12.40625 49.046875 
Q 15.40625 51.09375 19.25 52 
Q 23.09375 52.90625 27.5 52.90625 
Q 31 52.90625 34.453125 52.40625 
Q 37.90625 51.90625 40.703125 50.34375 
Q 43.5 48.796875 45.203125 46 
Q 46.90625 43.203125 46.90625 38.703125 
L 46.90625 12.09375 
Q 46.90625 9.09375 47.25 7.6875 
Q 47.59375 6.296875 49.59375 6.296875 
Q 50.703125 6.296875 52.203125 6.796875 
z
M 38.40625 26.703125 
Q 36.796875 25.5 34.1875 24.953125 
Q 31.59375 24.40625 28.75 24.046875 
Q 25.90625 23.703125 23 23.25 
Q 20.09375 22.796875 17.796875 21.796875 
Q 15.5 20.796875 14.046875 18.9375 
Q 12.59375 17.09375 12.59375 13.90625 
Q 12.59375 11.796875 13.4375 10.34375 
Q 14.296875 8.90625 15.640625 8 
Q 17 7.09375 18.796875 6.6875 
Q 20.59375 6.296875 22.59375 6.296875 
Q 26.796875 6.296875 29.796875 7.4375 
Q 32.796875 8.59375 34.6875 10.34375 
Q 36.59375 12.09375 37.5 14.140625 
Q 38.40625 16.203125 38.40625 18 
z
" id="HelveticaNeue-97"/>
      <path d="M 6.703125 71.40625 
L 6.703125 0 
L 15.203125 0 
L 15.203125 6.90625 
L 15.40625 6.90625 
Q 16.796875 4.59375 18.84375 3.046875 
Q 20.90625 1.5 23.203125 0.59375 
Q 25.5 -0.296875 27.84375 -0.6875 
Q 30.203125 -1.09375 32.09375 -1.09375 
Q 38 -1.09375 42.453125 1 
Q 46.90625 3.09375 49.84375 6.75 
Q 52.796875 10.40625 54.25 15.296875 
Q 55.703125 20.203125 55.703125 25.703125 
Q 55.703125 31.203125 54.203125 36.09375 
Q 52.703125 41 49.75 44.75 
Q 46.796875 48.5 42.34375 50.703125 
Q 37.90625 52.90625 31.90625 52.90625 
Q 26.5 52.90625 22 50.953125 
Q 17.5 49 15.40625 44.703125 
L 15.203125 44.703125 
L 15.203125 71.40625 
z
M 46.703125 26.296875 
Q 46.703125 22.5 45.890625 18.890625 
Q 45.09375 15.296875 43.296875 12.5 
Q 41.5 9.703125 38.546875 8 
Q 35.59375 6.296875 31.203125 6.296875 
Q 26.796875 6.296875 23.6875 7.9375 
Q 20.59375 9.59375 18.640625 12.296875 
Q 16.703125 15 15.796875 18.546875 
Q 14.90625 22.09375 14.90625 25.90625 
Q 14.90625 29.5 15.75 33 
Q 16.59375 36.5 18.5 39.25 
Q 20.40625 42 23.40625 43.703125 
Q 26.40625 45.40625 30.703125 45.40625 
Q 34.796875 45.40625 37.84375 43.796875 
Q 40.90625 42.203125 42.84375 39.5 
Q 44.796875 36.796875 45.75 33.34375 
Q 46.703125 29.90625 46.703125 26.296875 
z
" id="HelveticaNeue-98"/>
      <path d="M 42.296875 30.796875 
L 12.59375 30.796875 
Q 12.796875 33.796875 13.890625 36.4375 
Q 15 39.09375 16.890625 41.09375 
Q 18.796875 43.09375 21.4375 44.25 
Q 24.09375 45.40625 27.40625 45.40625 
Q 30.59375 45.40625 33.25 44.25 
Q 35.90625 43.09375 37.84375 41.140625 
Q 39.796875 39.203125 40.9375 36.5 
Q 42.09375 33.796875 42.296875 30.796875 
z
M 50.5 16.40625 
L 42.09375 16.40625 
Q 41 11.296875 37.546875 8.796875 
Q 34.09375 6.296875 28.703125 6.296875 
Q 24.5 6.296875 21.390625 7.6875 
Q 18.296875 9.09375 16.296875 11.4375 
Q 14.296875 13.796875 13.390625 16.84375 
Q 12.5 19.90625 12.59375 23.296875 
L 51.296875 23.296875 
Q 51.5 28 50.453125 33.203125 
Q 49.40625 38.40625 46.65625 42.796875 
Q 43.90625 47.203125 39.34375 50.046875 
Q 34.796875 52.90625 27.90625 52.90625 
Q 22.59375 52.90625 18.140625 50.90625 
Q 13.703125 48.90625 10.453125 45.296875 
Q 7.203125 41.703125 5.390625 36.796875 
Q 3.59375 31.90625 3.59375 26 
Q 3.796875 20.09375 5.34375 15.09375 
Q 6.90625 10.09375 10 6.5 
Q 13.09375 2.90625 17.640625 0.90625 
Q 22.203125 -1.09375 28.40625 -1.09375 
Q 37.203125 -1.09375 43 3.296875 
Q 48.796875 7.703125 50.5 16.40625 
z
" id="HelveticaNeue-101"/>
     </defs>
     <g transform="translate(94.18375 194.90125)scale(0.08 -0.08)">
      <use xlink:href="#HelveticaNeue-120"/>
      <use x="51.799988" xlink:href="#HelveticaNeue-108"/>
      <use x="73.999985" xlink:href="#HelveticaNeue-97"/>
      <use x="127.699982" xlink:href="#HelveticaNeue-98"/>
      <use x="186.999969" xlink:href="#HelveticaNeue-101"/>
      <use x="240.699966" xlink:href="#HelveticaNeue-108"/>
     </g>
    </g>
   </g>
   <g id="matplotlib.axis_2">
    <g id="ytick_1">
     <g id="line2d_25">
      <path clip-path="url(#p17027a1d65)" d="M 32.7 164.577803 
L 176.7 164.577803 
" style="fill:none;stroke:#000000;stroke-linecap:square;stroke-opacity:0.1;stroke-width:0.6;"/>
     </g>
     <g id="line2d_26">
      <defs>
       <path d="M 0 0 
L -4 0 
" id="mdcb4df8f5f" style="stroke:#000000;stroke-width:0.6;"/>
      </defs>
      <g>
       <use style="stroke:#000000;stroke-width:0.6;" x="32.7" xlink:href="#mdcb4df8f5f" y="164.577803"/>
      </g>
     </g>
     <g id="text_6">
      <!-- −1 -->
      <defs>
       <path d="M 4.796875 28.703125 
L 4.796875 21.90625 
L 55.203125 21.90625 
L 55.203125 28.703125 
z
" id="HelveticaNeue-8722"/>
      </defs>
      <g transform="translate(17.4525 167.434053)scale(0.08 -0.08)">
       <use xlink:href="#HelveticaNeue-8722"/>
       <use x="59.999985" xlink:href="#HelveticaNeue-49"/>
      </g>
     </g>
    </g>
    <g id="ytick_2">
     <g id="line2d_27">
      <path clip-path="url(#p17027a1d65)" d="M 32.7 135.241515 
L 176.7 135.241515 
" style="fill:none;stroke:#000000;stroke-linecap:square;stroke-opacity:0.1;stroke-width:0.6;"/>
     </g>
     <g id="line2d_28">
      <g>
       <use style="stroke:#000000;stroke-width:0.6;" x="32.7" xlink:href="#mdcb4df8f5f" y="135.241515"/>
      </g>
     </g>
     <g id="text_7">
      <!-- 0 -->
      <g transform="translate(22.2525 138.097765)scale(0.08 -0.08)">
       <use xlink:href="#HelveticaNeue-48"/>
      </g>
     </g>
    </g>
    <g id="ytick_3">
     <g id="line2d_29">
      <path clip-path="url(#p17027a1d65)" d="M 32.7 105.905227 
L 176.7 105.905227 
" style="fill:none;stroke:#000000;stroke-linecap:square;stroke-opacity:0.1;stroke-width:0.6;"/>
     </g>
     <g id="line2d_30">
      <g>
       <use style="stroke:#000000;stroke-width:0.6;" x="32.7" xlink:href="#mdcb4df8f5f" y="105.905227"/>
      </g>
     </g>
     <g id="text_8">
      <!-- 1 -->
      <g transform="translate(22.2525 108.761477)scale(0.08 -0.08)">
       <use xlink:href="#HelveticaNeue-49"/>
      </g>
     </g>
    </g>
    <g id="ytick_4">
     <g id="line2d_31">
      <path clip-path="url(#p17027a1d65)" d="M 32.7 76.568939 
L 176.7 76.568939 
" style="fill:none;stroke:#000000;stroke-linecap:square;stroke-opacity:0.1;stroke-width:0.6;"/>
     </g>
     <g id="line2d_32">
      <g>
       <use style="stroke:#000000;stroke-width:0.6;" x="32.7" xlink:href="#mdcb4df8f5f" y="76.568939"/>
      </g>
     </g>
     <g id="text_9">
      <!-- 2 -->
      <defs>
       <path d="M 4.40625 45.796875 
L 12.90625 45.796875 
Q 12.796875 49 13.546875 52.140625 
Q 14.296875 55.296875 16 57.796875 
Q 17.703125 60.296875 20.34375 61.84375 
Q 23 63.40625 26.703125 63.40625 
Q 29.5 63.40625 32 62.5 
Q 34.5 61.59375 36.34375 59.890625 
Q 38.203125 58.203125 39.296875 55.84375 
Q 40.40625 53.5 40.40625 50.59375 
Q 40.40625 46.90625 39.25 44.09375 
Q 38.09375 41.296875 35.84375 38.890625 
Q 33.59375 36.5 30.1875 34.140625 
Q 26.796875 31.796875 22.296875 29 
Q 18.59375 26.796875 15.1875 24.296875 
Q 11.796875 21.796875 9.09375 18.5 
Q 6.40625 15.203125 4.65625 10.75 
Q 2.90625 6.296875 2.40625 0 
L 48.703125 0 
L 48.703125 7.5 
L 12.296875 7.5 
Q 12.90625 10.796875 14.84375 13.34375 
Q 16.796875 15.90625 19.546875 18.09375 
Q 22.296875 20.296875 25.59375 22.25 
Q 28.90625 24.203125 32.203125 26.203125 
Q 35.5 28.296875 38.59375 30.59375 
Q 41.703125 32.90625 44.09375 35.75 
Q 46.5 38.59375 47.953125 42.1875 
Q 49.40625 45.796875 49.40625 50.5 
Q 49.40625 55.5 47.65625 59.296875 
Q 45.90625 63.09375 42.90625 65.640625 
Q 39.90625 68.203125 35.84375 69.546875 
Q 31.796875 70.90625 27.203125 70.90625 
Q 21.59375 70.90625 17.1875 69 
Q 12.796875 67.09375 9.84375 63.75 
Q 6.90625 60.40625 5.5 55.796875 
Q 4.09375 51.203125 4.40625 45.796875 
z
" id="HelveticaNeue-50"/>
      </defs>
      <g transform="translate(22.2525 79.425189)scale(0.08 -0.08)">
       <use xlink:href="#HelveticaNeue-50"/>
      </g>
     </g>
    </g>
    <g id="ytick_5">
     <g id="line2d_33">
      <path clip-path="url(#p17027a1d65)" d="M 32.7 47.232651 
L 176.7 47.232651 
" style="fill:none;stroke:#000000;stroke-linecap:square;stroke-opacity:0.1;stroke-width:0.6;"/>
     </g>
     <g id="line2d_34">
      <g>
       <use style="stroke:#000000;stroke-width:0.6;" x="32.7" xlink:href="#mdcb4df8f5f" y="47.232651"/>
      </g>
     </g>
     <g id="text_10">
      <!-- 3 -->
      <defs>
       <path d="M 21.796875 40.5 
L 21.796875 33.296875 
Q 24.203125 33.59375 26.90625 33.59375 
Q 30.09375 33.59375 32.84375 32.75 
Q 35.59375 31.90625 37.59375 30.15625 
Q 39.59375 28.40625 40.796875 25.84375 
Q 42 23.296875 42 20 
Q 42 16.796875 40.75 14.25 
Q 39.5 11.703125 37.390625 9.953125 
Q 35.296875 8.203125 32.5 7.25 
Q 29.703125 6.296875 26.59375 6.296875 
Q 19.296875 6.296875 15.5 10.640625 
Q 11.703125 15 11.5 21.90625 
L 3 21.90625 
Q 2.90625 16.40625 4.546875 12.09375 
Q 6.203125 7.796875 9.296875 4.84375 
Q 12.40625 1.90625 16.796875 0.40625 
Q 21.203125 -1.09375 26.59375 -1.09375 
Q 31.59375 -1.09375 36.046875 0.25 
Q 40.5 1.59375 43.796875 4.296875 
Q 47.09375 7 49.046875 11.046875 
Q 51 15.09375 51 20.40625 
Q 51 26.796875 47.84375 31.5 
Q 44.703125 36.203125 38.203125 37.59375 
L 38.203125 37.796875 
Q 42.40625 39.703125 45.203125 43.390625 
Q 48 47.09375 48 51.90625 
Q 48 56.796875 46.34375 60.390625 
Q 44.703125 64 41.796875 66.296875 
Q 38.90625 68.59375 34.953125 69.75 
Q 31 70.90625 26.40625 70.90625 
Q 21.09375 70.90625 17.046875 69.203125 
Q 13 67.5 10.296875 64.5 
Q 7.59375 61.5 6.140625 57.296875 
Q 4.703125 53.09375 4.5 48 
L 13 48 
Q 13 51.09375 13.796875 53.890625 
Q 14.59375 56.703125 16.25 58.796875 
Q 17.90625 60.90625 20.453125 62.15625 
Q 23 63.40625 26.40625 63.40625 
Q 31.796875 63.40625 35.390625 60.546875 
Q 39 57.703125 39 52 
Q 39 49.203125 37.890625 47 
Q 36.796875 44.796875 34.9375 43.34375 
Q 33.09375 41.90625 30.640625 41.15625 
Q 28.203125 40.40625 25.5 40.40625 
L 23.703125 40.40625 
Q 23.203125 40.40625 22.703125 40.40625 
Q 22.296875 40.40625 21.796875 40.5 
z
" id="HelveticaNeue-51"/>
      </defs>
      <g transform="translate(22.2525 50.088901)scale(0.08 -0.08)">
       <use xlink:href="#HelveticaNeue-51"/>
      </g>
     </g>
    </g>
    <g id="ytick_6">
     <g id="line2d_35">
      <defs>
       <path d="M 0 0 
L -2 0 
" id="mc053853be3" style="stroke:#000000;stroke-width:0.48;"/>
      </defs>
      <g>
       <use style="stroke:#000000;stroke-width:0.48;" x="32.7" xlink:href="#mc053853be3" y="170.44506"/>
      </g>
     </g>
    </g>
    <g id="ytick_7">
     <g id="line2d_36">
      <g>
       <use style="stroke:#000000;stroke-width:0.48;" x="32.7" xlink:href="#mc053853be3" y="158.710545"/>
      </g>
     </g>
    </g>
    <g id="ytick_8">
     <g id="line2d_37">
      <g>
       <use style="stroke:#000000;stroke-width:0.48;" x="32.7" xlink:href="#mc053853be3" y="152.843288"/>
      </g>
     </g>
    </g>
    <g id="ytick_9">
     <g id="line2d_38">
      <g>
       <use style="stroke:#000000;stroke-width:0.48;" x="32.7" xlink:href="#mc053853be3" y="146.97603"/>
      </g>
     </g>
    </g>
    <g id="ytick_10">
     <g id="line2d_39">
      <g>
       <use style="stroke:#000000;stroke-width:0.48;" x="32.7" xlink:href="#mc053853be3" y="141.108773"/>
      </g>
     </g>
    </g>
    <g id="ytick_11">
     <g id="line2d_40">
      <g>
       <use style="stroke:#000000;stroke-width:0.48;" x="32.7" xlink:href="#mc053853be3" y="129.374257"/>
      </g>
     </g>
    </g>
    <g id="ytick_12">
     <g id="line2d_41">
      <g>
       <use style="stroke:#000000;stroke-width:0.48;" x="32.7" xlink:href="#mc053853be3" y="123.507"/>
      </g>
     </g>
    </g>
    <g id="ytick_13">
     <g id="line2d_42">
      <g>
       <use style="stroke:#000000;stroke-width:0.48;" x="32.7" xlink:href="#mc053853be3" y="117.639742"/>
      </g>
     </g>
    </g>
    <g id="ytick_14">
     <g id="line2d_43">
      <g>
       <use style="stroke:#000000;stroke-width:0.48;" x="32.7" xlink:href="#mc053853be3" y="111.772485"/>
      </g>
     </g>
    </g>
    <g id="ytick_15">
     <g id="line2d_44">
      <g>
       <use style="stroke:#000000;stroke-width:0.48;" x="32.7" xlink:href="#mc053853be3" y="100.03797"/>
      </g>
     </g>
    </g>
    <g id="ytick_16">
     <g id="line2d_45">
      <g>
       <use style="stroke:#000000;stroke-width:0.48;" x="32.7" xlink:href="#mc053853be3" y="94.170712"/>
      </g>
     </g>
    </g>
    <g id="ytick_17">
     <g id="line2d_46">
      <g>
       <use style="stroke:#000000;stroke-width:0.48;" x="32.7" xlink:href="#mc053853be3" y="88.303454"/>
      </g>
     </g>
    </g>
    <g id="ytick_18">
     <g id="line2d_47">
      <g>
       <use style="stroke:#000000;stroke-width:0.48;" x="32.7" xlink:href="#mc053853be3" y="82.436197"/>
      </g>
     </g>
    </g>
    <g id="ytick_19">
     <g id="line2d_48">
      <g>
       <use style="stroke:#000000;stroke-width:0.48;" x="32.7" xlink:href="#mc053853be3" y="70.701682"/>
      </g>
     </g>
    </g>
    <g id="ytick_20">
     <g id="line2d_49">
      <g>
       <use style="stroke:#000000;stroke-width:0.48;" x="32.7" xlink:href="#mc053853be3" y="64.834424"/>
      </g>
     </g>
    </g>
    <g id="ytick_21">
     <g id="line2d_50">
      <g>
       <use style="stroke:#000000;stroke-width:0.48;" x="32.7" xlink:href="#mc053853be3" y="58.967166"/>
      </g>
     </g>
    </g>
    <g id="ytick_22">
     <g id="line2d_51">
      <g>
       <use style="stroke:#000000;stroke-width:0.48;" x="32.7" xlink:href="#mc053853be3" y="53.099909"/>
      </g>
     </g>
    </g>
    <g id="ytick_23">
     <g id="line2d_52">
      <g>
       <use style="stroke:#000000;stroke-width:0.48;" x="32.7" xlink:href="#mc053853be3" y="41.365394"/>
      </g>
     </g>
    </g>
    <g id="ytick_24">
     <g id="line2d_53">
      <g>
       <use style="stroke:#000000;stroke-width:0.48;" x="32.7" xlink:href="#mc053853be3" y="35.498136"/>
      </g>
     </g>
    </g>
    <g id="ytick_25">
     <g id="line2d_54">
      <g>
       <use style="stroke:#000000;stroke-width:0.48;" x="32.7" xlink:href="#mc053853be3" y="29.630879"/>
      </g>
     </g>
    </g>
    <g id="text_11">
     <!-- ylabel -->
     <defs>
      <path d="M 26.703125 -6.90625 
Q 25.203125 -10.703125 23.75 -13.296875 
Q 22.296875 -15.90625 20.546875 -17.546875 
Q 18.796875 -19.203125 16.640625 -19.953125 
Q 14.5 -20.703125 11.703125 -20.703125 
Q 10.203125 -20.703125 8.703125 -20.5 
Q 7.203125 -20.296875 5.796875 -19.796875 
L 5.796875 -12 
Q 6.90625 -12.5 8.34375 -12.84375 
Q 9.796875 -13.203125 10.796875 -13.203125 
Q 13.40625 -13.203125 15.15625 -11.953125 
Q 16.90625 -10.703125 17.796875 -8.40625 
L 21.296875 0.296875 
L 0.796875 51.703125 
L 10.40625 51.703125 
L 25.5 9.40625 
L 25.703125 9.40625 
L 40.203125 51.703125 
L 49.203125 51.703125 
z
" id="HelveticaNeue-121"/>
     </defs>
     <g transform="translate(12.79625 111.344375)rotate(-90)scale(0.08 -0.08)">
      <use xlink:href="#HelveticaNeue-121"/>
      <use x="49.999985" xlink:href="#HelveticaNeue-108"/>
      <use x="72.199982" xlink:href="#HelveticaNeue-97"/>
      <use x="125.899979" xlink:href="#HelveticaNeue-98"/>
      <use x="185.199966" xlink:href="#HelveticaNeue-101"/>
      <use x="238.899963" xlink:href="#HelveticaNeue-108"/>
     </g>
    </g>
   </g>
   <g id="line2d_55">
    <path clip-path="url(#p17027a1d65)" d="M 32.7 147.166377 
L 40.278947 149.547134 
L 47.857895 155.637544 
L 55.436842 155.156323 
L 63.015789 165.462248 
L 70.594737 168.524812 
L 78.173684 172.9 
L 85.752632 158.669645 
L 93.331579 166.664949 
L 100.910526 150.683756 
L 108.489474 138.560207 
L 116.068421 144.899015 
L 123.647368 130.166535 
L 131.226316 115.570891 
L 138.805263 106.965277 
L 146.384211 112.559901 
L 153.963158 96.44429 
L 161.542105 104.228909 
L 169.121053 91.353684 
L 176.7 100.215973 
" style="fill:none;stroke:#2b4162;stroke-linecap:square;stroke-width:4;"/>
   </g>
   <g id="line2d_56">
    <path clip-path="url(#p17027a1d65)" d="M 32.7 121.817556 
L 40.278947 105.779788 
L 47.857895 99.275956 
L 55.436842 85.139493 
L 63.015789 73.603405 
L 70.594737 77.53076 
L 78.173684 72.985908 
L 85.752632 65.547835 
L 93.331579 66.666574 
L 100.910526 63.250988 
L 108.489474 47.446906 
L 116.068421 53.866453 
L 123.647368 56.318374 
L 131.226316 41.096246 
L 138.805263 40.01821 
L 146.384211 39.351256 
L 153.963158 51.119204 
L 161.542105 40.917317 
L 169.121053 28.9 
L 176.7 35.636455 
" style="fill:none;stroke:#fa9f42;stroke-linecap:square;stroke-width:4;"/>
   </g>
   <g id="line2d_57">
    <path clip-path="url(#p17027a1d65)" d="M 32.7 143.188787 
L 40.278947 129.692647 
L 47.857895 119.78593 
L 55.436842 120.515952 
L 63.015789 106.928889 
L 70.594737 115.469147 
L 78.173684 100.248313 
L 85.752632 85.649912 
L 93.331579 82.93665 
L 100.910526 95.802483 
L 108.489474 87.53616 
L 116.068421 74.153592 
L 123.647368 82.677027 
L 131.226316 68.568874 
L 138.805263 76.730326 
L 146.384211 78.036172 
L 153.963158 73.799903 
L 161.542105 61.855044 
L 169.121053 74.428901 
L 176.7 84.505536 
" style="fill:none;stroke:#e0e0e2;stroke-linecap:square;stroke-width:4;"/>
   </g>
   <g id="line2d_58">
    <path clip-path="url(#p17027a1d65)" d="M 32.7 130.46339 
L 40.278947 137.721284 
L 47.857895 142.645349 
L 55.436842 145.439258 
L 63.015789 138.617129 
L 70.594737 148.884063 
L 78.173684 150.821603 
L 85.752632 159.508237 
L 93.331579 157.33046 
L 100.910526 146.98886 
L 108.489474 138.123559 
L 116.068421 147.619517 
L 123.647368 138.798598 
L 131.226316 137.429493 
L 138.805263 137.195608 
L 146.384211 131.971741 
L 153.963158 128.341292 
L 161.542105 139.989711 
L 169.121053 149.724291 
L 176.7 147.97309 
" style="fill:none;stroke:#a21817;stroke-linecap:square;stroke-width:4;"/>
   </g>
   <g id="line2d_59">
    <path clip-path="url(#p17027a1d65)" d="M 32.7 125.91036 
L 40.278947 129.138101 
L 47.857895 131.314938 
L 55.436842 142.786475 
L 63.015789 139.775012 
L 70.594737 143.368624 
L 78.173684 141.179894 
L 85.752632 130.919518 
L 93.331579 120.066407 
L 100.910526 123.964203 
L 108.489474 120.392377 
L 116.068421 107.284141 
L 123.647368 119.963029 
L 131.226316 126.910797 
L 138.805263 133.055936 
L 146.384211 136.142977 
L 153.963158 129.38003 
L 161.542105 114.868622 
L 169.121053 104.887462 
L 176.7 116.979855 
" style="fill:none;stroke:#0b6e4f;stroke-linecap:square;stroke-width:4;"/>
   </g>
   <g id="patch_3">
    <path d="M 32.7 172.9 
L 32.7 28.9 
" style="fill:none;stroke:#000000;stroke-linecap:square;stroke-linejoin:miter;stroke-width:0.6;"/>
   </g>
   <g id="patch_4">
    <path d="M 176.7 172.9 
L 176.7 28.9 
" style="fill:none;stroke:#000000;stroke-linecap:square;stroke-linejoin:miter;stroke-width:0.6;"/>
   </g>
   <g id="patch_5">
    <path d="M 32.7 172.9 
L 176.7 172.9 
" style="fill:none;stroke:#000000;stroke-linecap:square;stroke-linejoin:miter;stroke-width:0.6;"/>
   </g>
   <g id="patch_6">
    <path d="M 32.7 28.9 
L 176.7 28.9 
" style="fill:none;stroke:#000000;stroke-linecap:square;stroke-linejoin:miter;stroke-width:0.6;"/>
   </g>
   <g id="text_12">
    <!-- Inset and panel legends -->
    <defs>
     <path d="M 8.203125 71.40625 
L 8.203125 0 
L 17.703125 0 
L 17.703125 71.40625 
z
" id="HelveticaNeue-73"/>
     <path d="M 6.40625 51.703125 
L 6.40625 0 
L 14.90625 0 
L 14.90625 29.203125 
Q 14.90625 32.703125 15.84375 35.640625 
Q 16.796875 38.59375 18.6875 40.796875 
Q 20.59375 43 23.4375 44.203125 
Q 26.296875 45.40625 30.203125 45.40625 
Q 35.09375 45.40625 37.890625 42.59375 
Q 40.703125 39.796875 40.703125 35 
L 40.703125 0 
L 49.203125 0 
L 49.203125 34 
Q 49.203125 38.203125 48.34375 41.640625 
Q 47.5 45.09375 45.390625 47.59375 
Q 43.296875 50.09375 39.890625 51.5 
Q 36.5 52.90625 31.40625 52.90625 
Q 19.90625 52.90625 14.59375 43.5 
L 14.40625 43.5 
L 14.40625 51.703125 
z
" id="HelveticaNeue-110"/>
     <path d="M 11.59375 16.296875 
L 3.09375 16.296875 
Q 3.296875 11.5 5.09375 8.140625 
Q 6.90625 4.796875 9.90625 2.75 
Q 12.90625 0.703125 16.796875 -0.1875 
Q 20.703125 -1.09375 25 -1.09375 
Q 28.90625 -1.09375 32.84375 -0.34375 
Q 36.796875 0.40625 39.9375 2.296875 
Q 43.09375 4.203125 45.046875 7.296875 
Q 47 10.40625 47 15.09375 
Q 47 18.796875 45.546875 21.296875 
Q 44.09375 23.796875 41.75 25.4375 
Q 39.40625 27.09375 36.34375 28.09375 
Q 33.296875 29.09375 30.09375 29.796875 
Q 27.09375 30.5 24.09375 31.140625 
Q 21.09375 31.796875 18.6875 32.75 
Q 16.296875 33.703125 14.75 35.140625 
Q 13.203125 36.59375 13.203125 38.796875 
Q 13.203125 40.796875 14.203125 42.046875 
Q 15.203125 43.296875 16.796875 44.046875 
Q 18.40625 44.796875 20.34375 45.09375 
Q 22.296875 45.40625 24.203125 45.40625 
Q 26.296875 45.40625 28.34375 44.953125 
Q 30.40625 44.5 32.09375 43.5 
Q 33.796875 42.5 34.890625 40.84375 
Q 36 39.203125 36.203125 36.703125 
L 44.703125 36.703125 
Q 44.40625 41.40625 42.703125 44.546875 
Q 41 47.703125 38.140625 49.546875 
Q 35.296875 51.40625 31.59375 52.15625 
Q 27.90625 52.90625 23.5 52.90625 
Q 20.09375 52.90625 16.640625 52.046875 
Q 13.203125 51.203125 10.453125 49.453125 
Q 7.703125 47.703125 5.953125 44.890625 
Q 4.203125 42.09375 4.203125 38.203125 
Q 4.203125 33.203125 6.703125 30.390625 
Q 9.203125 27.59375 12.953125 26.046875 
Q 16.703125 24.5 21.09375 23.640625 
Q 25.5 22.796875 29.25 21.75 
Q 33 20.703125 35.5 19 
Q 38 17.296875 38 14 
Q 38 11.59375 36.796875 10.046875 
Q 35.59375 8.5 33.75 7.703125 
Q 31.90625 6.90625 29.703125 6.59375 
Q 27.5 6.296875 25.5 6.296875 
Q 22.90625 6.296875 20.453125 6.796875 
Q 18 7.296875 16.046875 8.4375 
Q 14.09375 9.59375 12.890625 11.546875 
Q 11.703125 13.5 11.59375 16.296875 
z
" id="HelveticaNeue-115"/>
     <path d="M 18.203125 51.703125 
L 18.203125 67.203125 
L 9.703125 67.203125 
L 9.703125 51.703125 
L 0.90625 51.703125 
L 0.90625 44.203125 
L 9.703125 44.203125 
L 9.703125 11.296875 
Q 9.703125 7.703125 10.390625 5.5 
Q 11.09375 3.296875 12.546875 2.09375 
Q 14 0.90625 16.34375 0.453125 
Q 18.703125 0 22 0 
L 28.5 0 
L 28.5 7.5 
L 24.59375 7.5 
Q 22.59375 7.5 21.34375 7.640625 
Q 20.09375 7.796875 19.390625 8.296875 
Q 18.703125 8.796875 18.453125 9.6875 
Q 18.203125 10.59375 18.203125 12.09375 
L 18.203125 44.203125 
L 28.5 44.203125 
L 28.5 51.703125 
z
" id="HelveticaNeue-116"/>
     <path id="HelveticaNeue-32"/>
     <path d="M 12.59375 25.40625 
Q 12.59375 29.203125 13.390625 32.796875 
Q 14.203125 36.40625 16 39.203125 
Q 17.796875 42 20.796875 43.703125 
Q 23.796875 45.40625 28.09375 45.40625 
Q 32.5 45.40625 35.59375 43.75 
Q 38.703125 42.09375 40.640625 39.390625 
Q 42.59375 36.703125 43.5 33.140625 
Q 44.40625 29.59375 44.40625 25.796875 
Q 44.40625 22.203125 43.546875 18.703125 
Q 42.703125 15.203125 40.796875 12.453125 
Q 38.90625 9.703125 35.90625 8 
Q 32.90625 6.296875 28.59375 6.296875 
Q 24.5 6.296875 21.453125 7.890625 
Q 18.40625 9.5 16.453125 12.203125 
Q 14.5 14.90625 13.546875 18.34375 
Q 12.59375 21.796875 12.59375 25.40625 
z
M 52.59375 0 
L 52.59375 71.40625 
L 44.09375 71.40625 
L 44.09375 44.796875 
L 43.90625 44.796875 
Q 42.5 47.09375 40.453125 48.640625 
Q 38.40625 50.203125 36.09375 51.140625 
Q 33.796875 52.09375 31.5 52.5 
Q 29.203125 52.90625 27.203125 52.90625 
Q 21.296875 52.90625 16.84375 50.75 
Q 12.40625 48.59375 9.453125 44.9375 
Q 6.5 41.296875 5.046875 36.390625 
Q 3.59375 31.5 3.59375 26 
Q 3.59375 20.5 5.09375 15.59375 
Q 6.59375 10.703125 9.546875 7 
Q 12.5 3.296875 16.953125 1.09375 
Q 21.40625 -1.09375 27.40625 -1.09375 
Q 32.796875 -1.09375 37.296875 0.796875 
Q 41.796875 2.703125 43.90625 7 
L 44.09375 7 
L 44.09375 0 
z
" id="HelveticaNeue-100"/>
     <path d="M 6.703125 51.703125 
L 6.703125 -19.703125 
L 15.203125 -19.703125 
L 15.203125 6.90625 
L 15.40625 6.90625 
Q 16.796875 4.59375 18.84375 3.046875 
Q 20.90625 1.5 23.203125 0.59375 
Q 25.5 -0.296875 27.84375 -0.6875 
Q 30.203125 -1.09375 32.09375 -1.09375 
Q 38 -1.09375 42.453125 1 
Q 46.90625 3.09375 49.84375 6.75 
Q 52.796875 10.40625 54.25 15.296875 
Q 55.703125 20.203125 55.703125 25.703125 
Q 55.703125 31.203125 54.203125 36.09375 
Q 52.703125 41 49.75 44.75 
Q 46.796875 48.5 42.34375 50.703125 
Q 37.90625 52.90625 31.90625 52.90625 
Q 26.5 52.90625 22 50.953125 
Q 17.5 49 15.40625 44.703125 
L 15.203125 44.703125 
L 15.203125 51.703125 
z
M 46.703125 26.296875 
Q 46.703125 22.5 45.890625 18.890625 
Q 45.09375 15.296875 43.296875 12.5 
Q 41.5 9.703125 38.546875 8 
Q 35.59375 6.296875 31.203125 6.296875 
Q 26.796875 6.296875 23.6875 7.9375 
Q 20.59375 9.59375 18.640625 12.296875 
Q 16.703125 15 15.796875 18.546875 
Q 14.90625 22.09375 14.90625 25.90625 
Q 14.90625 29.5 15.75 33 
Q 16.59375 36.5 18.5 39.25 
Q 20.40625 42 23.40625 43.703125 
Q 26.40625 45.40625 30.703125 45.40625 
Q 34.796875 45.40625 37.84375 43.796875 
Q 40.90625 42.203125 42.84375 39.5 
Q 44.796875 36.796875 45.75 33.34375 
Q 46.703125 29.90625 46.703125 26.296875 
z
" id="HelveticaNeue-112"/>
     <path d="M 51 4.40625 
L 51 51.703125 
L 43 51.703125 
L 43 44.296875 
L 42.90625 44.296875 
Q 40.59375 48.59375 36.5 50.75 
Q 32.40625 52.90625 27.5 52.90625 
Q 20.796875 52.90625 16.1875 50.34375 
Q 11.59375 47.796875 8.796875 43.84375 
Q 6 39.90625 4.796875 35.046875 
Q 3.59375 30.203125 3.59375 25.59375 
Q 3.59375 20.296875 5.046875 15.546875 
Q 6.5 10.796875 9.390625 7.25 
Q 12.296875 3.703125 16.59375 1.59375 
Q 20.90625 -0.5 26.703125 -0.5 
Q 31.703125 -0.5 36.140625 1.75 
Q 40.59375 4 42.796875 8.796875 
L 43 8.796875 
L 43 5.40625 
Q 43 1.09375 42.140625 -2.5 
Q 41.296875 -6.09375 39.390625 -8.640625 
Q 37.5 -11.203125 34.59375 -12.640625 
Q 31.703125 -14.09375 27.5 -14.09375 
Q 25.40625 -14.09375 23.09375 -13.640625 
Q 20.796875 -13.203125 18.84375 -12.203125 
Q 16.90625 -11.203125 15.546875 -9.59375 
Q 14.203125 -8 14.09375 -5.703125 
L 5.59375 -5.703125 
Q 5.796875 -9.90625 7.796875 -12.796875 
Q 9.796875 -15.703125 12.84375 -17.5 
Q 15.90625 -19.296875 19.65625 -20.09375 
Q 23.40625 -20.90625 27 -20.90625 
Q 39.40625 -20.90625 45.203125 -14.59375 
Q 51 -8.296875 51 4.40625 
z
M 27.203125 6.90625 
Q 23 6.90625 20.203125 8.65625 
Q 17.40625 10.40625 15.703125 13.25 
Q 14 16.09375 13.296875 19.59375 
Q 12.59375 23.09375 12.59375 26.59375 
Q 12.59375 30.296875 13.4375 33.6875 
Q 14.296875 37.09375 16.140625 39.6875 
Q 18 42.296875 20.890625 43.84375 
Q 23.796875 45.40625 27.90625 45.40625 
Q 31.90625 45.40625 34.703125 43.796875 
Q 37.5 42.203125 39.25 39.546875 
Q 41 36.90625 41.796875 33.59375 
Q 42.59375 30.296875 42.59375 26.90625 
Q 42.59375 23.296875 41.75 19.6875 
Q 40.90625 16.09375 39.09375 13.25 
Q 37.296875 10.40625 34.34375 8.65625 
Q 31.40625 6.90625 27.203125 6.90625 
z
" id="HelveticaNeue-103"/>
    </defs>
    <g transform="translate(56.770781 24.018438)scale(0.09 -0.09)">
     <use xlink:href="#HelveticaNeue-73"/>
     <use x="25.899994" xlink:href="#HelveticaNeue-110"/>
     <use x="81.499985" xlink:href="#HelveticaNeue-115"/>
     <use x="131.499969" xlink:href="#HelveticaNeue-101"/>
     <use x="185.199966" xlink:href="#HelveticaNeue-116"/>
     <use x="216.699951" xlink:href="#HelveticaNeue-32"/>
     <use x="244.499939" xlink:href="#HelveticaNeue-97"/>
     <use x="298.199936" xlink:href="#HelveticaNeue-110"/>
     <use x="353.799927" xlink:href="#HelveticaNeue-100"/>
     <use x="413.099915" xlink:href="#HelveticaNeue-32"/>
     <use x="440.899902" xlink:href="#HelveticaNeue-112"/>
     <use x="500.19989" xlink:href="#HelveticaNeue-97"/>
     <use x="553.899887" xlink:href="#HelveticaNeue-110"/>
     <use x="609.499878" xlink:href="#HelveticaNeue-101"/>
     <use x="663.199875" xlink:href="#HelveticaNeue-108"/>
     <use x="685.399872" xlink:href="#HelveticaNeue-32"/>
     <use x="713.19986" xlink:href="#HelveticaNeue-108"/>
     <use x="735.399857" xlink:href="#HelveticaNeue-101"/>
     <use x="789.099854" xlink:href="#HelveticaNeue-103"/>
     <use x="846.499847" xlink:href="#HelveticaNeue-101"/>
     <use x="900.199844" xlink:href="#HelveticaNeue-110"/>
     <use x="955.799835" xlink:href="#HelveticaNeue-100"/>
     <use x="1015.099823" xlink:href="#HelveticaNeue-115"/>
    </g>
   </g>
   <g id="text_13">
    <!-- Inset and panel legends -->
    <g transform="translate(56.770781 24.018438)scale(0.09 -0.09)">
     <use xlink:href="#HelveticaNeue-73"/>
     <use x="25.899994" xlink:href="#HelveticaNeue-110"/>
     <use x="81.499985" xlink:href="#HelveticaNeue-115"/>
     <use x="131.499969" xlink:href="#HelveticaNeue-101"/>
     <use x="185.199966" xlink:href="#HelveticaNeue-116"/>
     <use x="216.699951" xlink:href="#HelveticaNeue-32"/>
     <use x="244.499939" xlink:href="#HelveticaNeue-97"/>
     <use x="298.199936" xlink:href="#HelveticaNeue-110"/>
     <use x="353.799927" xlink:href="#HelveticaNeue-100"/>
     <use x="413.099915" xlink:href="#HelveticaNeue-32"/>
     <use x="440.899902" xlink:href="#HelveticaNeue-112"/>
     <use x="500.19989" xlink:href="#HelveticaNeue-97"/>
     <use x="553.899887" xlink:href="#HelveticaNeue-110"/>
     <use x="609.499878" xlink:href="#HelveticaNeue-101"/>
     <use x="663.199875" xlink:href="#HelveticaNeue-108"/>
     <use x="685.399872" xlink:href="#HelveticaNeue-32"/>
     <use x="713.19986" xlink:href="#HelveticaNeue-108"/>
     <use x="735.399857" xlink:href="#HelveticaNeue-101"/>
     <use x="789.099854" xlink:href="#HelveticaNeue-103"/>
     <use x="846.499847" xlink:href="#HelveticaNeue-101"/>
     <use x="900.199844" xlink:href="#HelveticaNeue-110"/>
     <use x="955.799835" xlink:href="#HelveticaNeue-100"/>
     <use x="1015.099823" xlink:href="#HelveticaNeue-115"/>
    </g>
   </g>
   <g id="legend_1">
    <g id="patch_7">
     <path d="M 32.7 55.4775 
L 154.64375 55.4775 
L 154.64375 28.9 
L 32.7 28.9 
z
" style="fill:#ffffff;opacity:0.8;stroke:#000000;stroke-linejoin:miter;stroke-width:0.6;"/>
    </g>
    <g id="line2d_60">
     <path d="M 36.7 35.8125 
L 48.7 35.8125 
" style="fill:none;stroke:#2b4162;stroke-linecap:square;stroke-width:4;"/>
    </g>
    <g id="line2d_61"/>
    <g id="text_14">
     <!-- a -->
     <g transform="translate(52.7 38.6125)scale(0.08 -0.08)">
      <use xlink:href="#HelveticaNeue-97"/>
     </g>
    </g>
    <g id="line2d_62">
     <path d="M 36.7 47.10125 
L 48.7 47.10125 
" style="fill:none;stroke:#fa9f42;stroke-linecap:square;stroke-width:4;"/>
    </g>
    <g id="line2d_63"/>
    <g id="text_15">
     <!-- bb -->
     <g transform="translate(52.7 49.90125)scale(0.08 -0.08)">
      <use xlink:href="#HelveticaNeue-98"/>
      <use x="59.299988" xlink:href="#HelveticaNeue-98"/>
     </g>
    </g>
    <g id="line2d_64">
     <path d="M 70.1875 35.8125 
L 82.1875 35.8125 
" style="fill:none;stroke:#e0e0e2;stroke-linecap:square;stroke-width:4;"/>
    </g>
    <g id="line2d_65"/>
    <g id="text_16">
     <!-- ccc -->
     <defs>
      <path d="M 41.5 35.09375 
L 50.296875 35.09375 
Q 49.796875 39.703125 47.890625 43.046875 
Q 46 46.40625 43.046875 48.59375 
Q 40.09375 50.796875 36.25 51.84375 
Q 32.40625 52.90625 28 52.90625 
Q 21.90625 52.90625 17.296875 50.75 
Q 12.703125 48.59375 9.640625 44.84375 
Q 6.59375 41.09375 5.09375 36.046875 
Q 3.59375 31 3.59375 25.203125 
Q 3.59375 19.40625 5.140625 14.546875 
Q 6.703125 9.703125 9.75 6.203125 
Q 12.796875 2.703125 17.34375 0.796875 
Q 21.90625 -1.09375 27.796875 -1.09375 
Q 37.703125 -1.09375 43.453125 4.09375 
Q 49.203125 9.296875 50.59375 18.90625 
L 41.90625 18.90625 
Q 41.09375 12.90625 37.546875 9.59375 
Q 34 6.296875 27.703125 6.296875 
Q 23.703125 6.296875 20.796875 7.890625 
Q 17.90625 9.5 16.09375 12.140625 
Q 14.296875 14.796875 13.4375 18.1875 
Q 12.59375 21.59375 12.59375 25.203125 
Q 12.59375 29.09375 13.390625 32.75 
Q 14.203125 36.40625 16.046875 39.203125 
Q 17.90625 42 21 43.703125 
Q 24.09375 45.40625 28.703125 45.40625 
Q 34.09375 45.40625 37.296875 42.703125 
Q 40.5 40 41.5 35.09375 
z
" id="HelveticaNeue-99"/>
     </defs>
     <g transform="translate(86.1875 38.6125)scale(0.08 -0.08)">
      <use xlink:href="#HelveticaNeue-99"/>
      <use x="53.699997" xlink:href="#HelveticaNeue-99"/>
      <use x="107.399994" xlink:href="#HelveticaNeue-99"/>
     </g>
    </g>
    <g id="line2d_66">
     <path d="M 70.1875 47.10125 
L 82.1875 47.10125 
" style="fill:none;stroke:#a21817;stroke-linecap:square;stroke-width:4;"/>
    </g>
    <g id="line2d_67"/>
    <g id="text_17">
     <!-- dddd -->
     <g transform="translate(86.1875 49.90125)scale(0.08 -0.08)">
      <use xlink:href="#HelveticaNeue-100"/>
      <use x="59.299988" xlink:href="#HelveticaNeue-100"/>
      <use x="118.599976" xlink:href="#HelveticaNeue-100"/>
      <use x="177.899963" xlink:href="#HelveticaNeue-100"/>
     </g>
    </g>
    <g id="line2d_68">
     <path d="M 113.1625 35.8125 
L 125.1625 35.8125 
" style="fill:none;stroke:#0b6e4f;stroke-linecap:square;stroke-width:4;"/>
    </g>
    <g id="line2d_69"/>
    <g id="text_18">
     <!-- eeeee -->
     <g transform="translate(129.1625 38.6125)scale(0.08 -0.08)">
      <use xlink:href="#HelveticaNeue-101"/>
      <use x="53.699997" xlink:href="#HelveticaNeue-101"/>
      <use x="107.399994" xlink:href="#HelveticaNeue-101"/>
      <use x="161.099991" xlink:href="#HelveticaNeue-101"/>
      <use x="214.799988" xlink:href="#HelveticaNeue-101"/>
     </g>
    </g>
   </g>
  </g>
  <g id="axes_2">
   <g id="patch_8">
    <path d="M 32.7 217.9 
L 176.7 217.9 
L 176.7 199.9 
L 32.7 199.9 
z
" style="fill:none;opacity:0;"/>
   </g>
   <g id="legend_2">
    <g id="patch_9">
     <path d="M 42.0275 226.4775 
L 167.3725 226.4775 
L 167.3725 199.9 
L 42.0275 199.9 
z
" style="fill:#ffffff;opacity:0.8;stroke:#000000;stroke-linejoin:miter;stroke-width:0.6;"/>
    </g>
    <g id="line2d_70">
     <path d="M 46.0275 206.8125 
L 58.0275 206.8125 
" style="fill:none;stroke:#2b4162;stroke-linecap:square;stroke-width:4;"/>
    </g>
    <g id="line2d_71"/>
    <g id="text_19">
     <!-- a -->
     <g transform="translate(62.0275 209.6125)scale(0.08 -0.08)">
      <use xlink:href="#HelveticaNeue-97"/>
     </g>
    </g>
    <g id="line2d_72">
     <path d="M 46.0275 218.10125 
L 58.0275 218.10125 
" style="fill:none;stroke:#a21817;stroke-linecap:square;stroke-width:4;"/>
    </g>
    <g id="line2d_73"/>
    <g id="text_20">
     <!-- dddd -->
     <g transform="translate(62.0275 220.90125)scale(0.08 -0.08)">
      <use xlink:href="#HelveticaNeue-100"/>
      <use x="59.299988" xlink:href="#HelveticaNeue-100"/>
      <use x="118.599976" xlink:href="#HelveticaNeue-100"/>
      <use x="177.899963" xlink:href="#HelveticaNeue-100"/>
     </g>
    </g>
    <g id="line2d_74">
     <path d="M 89.0025 206.8125 
L 101.0025 206.8125 
" style="fill:none;stroke:#fa9f42;stroke-linecap:square;stroke-width:4;"/>
    </g>
    <g id="line2d_75"/>
    <g id="text_21">
     <!-- bb -->
     <g transform="translate(105.0025 209.6125)scale(0.08 -0.08)">
      <use xlink:href="#HelveticaNeue-98"/>
      <use x="59.299988" xlink:href="#HelveticaNeue-98"/>
     </g>
    </g>
    <g id="line2d_76">
     <path d="M 89.0025 218.10125 
L 101.0025 218.10125 
" style="fill:none;stroke:#0b6e4f;stroke-linecap:square;stroke-width:4;"/>
    </g>
    <g id="line2d_77"/>
    <g id="text_22">
     <!-- eeeee -->
     <g transform="translate(105.0025 220.90125)scale(0.08 -0.08)">
      <use xlink:href="#HelveticaNeue-101"/>
      <use x="53.699997" xlink:href="#HelveticaNeue-101"/>
      <use x="107.399994" xlink:href="#HelveticaNeue-101"/>
      <use x="161.099991" xlink:href="#HelveticaNeue-101"/>
      <use x="214.799988" xlink:href="#HelveticaNeue-101"/>
     </g>
    </g>
    <g id="line2d_78">
     <path d="M 134.48375 206.8125 
L 146.48375 206.8125 
" style="fill:none;stroke:#e0e0e2;stroke-linecap:square;stroke-width:4;"/>
    </g>
    <g id="line2d_79"/>
    <g id="text_23">
     <!-- ccc -->
     <g transform="translate(150.48375 209.6125)scale(0.08 -0.08)">
      <use xlink:href="#HelveticaNeue-99"/>
      <use x="53.699997" xlink:href="#HelveticaNeue-99"/>
      <use x="107.399994" xlink:href="#HelveticaNeue-99"/>
     </g>
    </g>
   </g>
  </g>
  <g id="axes_3">
   <g id="patch_10">
    <path d="M 199.2 172.9 
L 343.2 172.9 
L 343.2 28.9 
L 199.2 28.9 
z
" style="fill:#ffffff;"/>
   </g>
   <g id="matplotlib.axis_3">
    <g id="xtick_21">
     <g id="line2d_80">
      <path clip-path="url(#p2b593cf192)" d="M 199.2 172.9 
L 199.2 28.9 
" style="fill:none;stroke:#000000;stroke-linecap:square;stroke-opacity:0.1;stroke-width:0.6;"/>
     </g>
     <g id="line2d_81">
      <g>
       <use style="stroke:#000000;stroke-width:0.6;" x="199.2" xlink:href="#m3c756c9727" y="172.9"/>
      </g>
     </g>
     <g id="text_24">
      <!-- 0 -->
      <g transform="translate(196.97625 184.6125)scale(0.08 -0.08)">
       <use xlink:href="#HelveticaNeue-48"/>
      </g>
     </g>
    </g>
    <g id="xtick_22">
     <g id="line2d_82">
      <path clip-path="url(#p2b593cf192)" d="M 237.094737 172.9 
L 237.094737 28.9 
" style="fill:none;stroke:#000000;stroke-linecap:square;stroke-opacity:0.1;stroke-width:0.6;"/>
     </g>
     <g id="line2d_83">
      <g>
       <use style="stroke:#000000;stroke-width:0.6;" x="237.094737" xlink:href="#m3c756c9727" y="172.9"/>
      </g>
     </g>
     <g id="text_25">
      <!-- 5 -->
      <g transform="translate(234.870987 184.6125)scale(0.08 -0.08)">
       <use xlink:href="#HelveticaNeue-53"/>
      </g>
     </g>
    </g>
    <g id="xtick_23">
     <g id="line2d_84">
      <path clip-path="url(#p2b593cf192)" d="M 274.989474 172.9 
L 274.989474 28.9 
" style="fill:none;stroke:#000000;stroke-linecap:square;stroke-opacity:0.1;stroke-width:0.6;"/>
     </g>
     <g id="line2d_85">
      <g>
       <use style="stroke:#000000;stroke-width:0.6;" x="274.989474" xlink:href="#m3c756c9727" y="172.9"/>
      </g>
     </g>
     <g id="text_26">
      <!-- 10 -->
      <g transform="translate(270.541974 184.6125)scale(0.08 -0.08)">
       <use xlink:href="#HelveticaNeue-49"/>
       <use x="55.599991" xlink:href="#HelveticaNeue-48"/>
      </g>
     </g>
    </g>
    <g id="xtick_24">
     <g id="line2d_86">
      <path clip-path="url(#p2b593cf192)" d="M 312.884211 172.9 
L 312.884211 28.9 
" style="fill:none;stroke:#000000;stroke-linecap:square;stroke-opacity:0.1;stroke-width:0.6;"/>
     </g>
     <g id="line2d_87">
      <g>
       <use style="stroke:#000000;stroke-width:0.6;" x="312.884211" xlink:href="#m3c756c9727" y="172.9"/>
      </g>
     </g>
     <g id="text_27">
      <!-- 15 -->
      <g transform="translate(308.436711 184.6125)scale(0.08 -0.08)">
       <use xlink:href="#HelveticaNeue-49"/>
       <use x="55.599991" xlink:href="#HelveticaNeue-53"/>
      </g>
     </g>
    </g>
    <g id="xtick_25">
     <g id="line2d_88">
      <g>
       <use style="stroke:#000000;stroke-width:0.48;" x="206.778947" xlink:href="#m96102be755" y="172.9"/>
      </g>
     </g>
    </g>
    <g id="xtick_26">
     <g id="line2d_89">
      <g>
       <use style="stroke:#000000;stroke-width:0.48;" x="214.357895" xlink:href="#m96102be755" y="172.9"/>
      </g>
     </g>
    </g>
    <g id="xtick_27">
     <g id="line2d_90">
      <g>
       <use style="stroke:#000000;stroke-width:0.48;" x="221.936842" xlink:href="#m96102be755" y="172.9"/>
      </g>
     </g>
    </g>
    <g id="xtick_28">
     <g id="line2d_91">
      <g>
       <use style="stroke:#000000;stroke-width:0.48;" x="229.515789" xlink:href="#m96102be755" y="172.9"/>
      </g>
     </g>
    </g>
    <g id="xtick_29">
     <g id="line2d_92">
      <g>
       <use style="stroke:#000000;stroke-width:0.48;" x="244.673684" xlink:href="#m96102be755" y="172.9"/>
      </g>
     </g>
    </g>
    <g id="xtick_30">
     <g id="line2d_93">
      <g>
       <use style="stroke:#000000;stroke-width:0.48;" x="252.252632" xlink:href="#m96102be755" y="172.9"/>
      </g>
     </g>
    </g>
    <g id="xtick_31">
     <g id="line2d_94">
      <g>
       <use style="stroke:#000000;stroke-width:0.48;" x="259.831579" xlink:href="#m96102be755" y="172.9"/>
      </g>
     </g>
    </g>
    <g id="xtick_32">
     <g id="line2d_95">
      <g>
       <use style="stroke:#000000;stroke-width:0.48;" x="267.410526" xlink:href="#m96102be755" y="172.9"/>
      </g>
     </g>
    </g>
    <g id="xtick_33">
     <g id="line2d_96">
      <g>
       <use style="stroke:#000000;stroke-width:0.48;" x="282.568421" xlink:href="#m96102be755" y="172.9"/>
      </g>
     </g>
    </g>
    <g id="xtick_34">
     <g id="line2d_97">
      <g>
       <use style="stroke:#000000;stroke-width:0.48;" x="290.147368" xlink:href="#m96102be755" y="172.9"/>
      </g>
     </g>
    </g>
    <g id="xtick_35">
     <g id="line2d_98">
      <g>
       <use style="stroke:#000000;stroke-width:0.48;" x="297.726316" xlink:href="#m96102be755" y="172.9"/>
      </g>
     </g>
    </g>
    <g id="xtick_36">
     <g id="line2d_99">
      <g>
       <use style="stroke:#000000;stroke-width:0.48;" x="305.305263" xlink:href="#m96102be755" y="172.9"/>
      </g>
     </g>
    </g>
    <g id="xtick_37">
     <g id="line2d_100">
      <g>
       <use style="stroke:#000000;stroke-width:0.48;" x="320.463158" xlink:href="#m96102be755" y="172.9"/>
      </g>
     </g>
    </g>
    <g id="xtick_38">
     <g id="line2d_101">
      <g>
       <use style="stroke:#000000;stroke-width:0.48;" x="328.042105" xlink:href="#m96102be755" y="172.9"/>
      </g>
     </g>
    </g>
    <g id="xtick_39">
     <g id="line2d_102">
      <g>
       <use style="stroke:#000000;stroke-width:0.48;" x="335.621053" xlink:href="#m96102be755" y="172.9"/>
      </g>
     </g>
    </g>
    <g id="xtick_40">
     <g id="line2d_103">
      <g>
       <use style="stroke:#000000;stroke-width:0.48;" x="343.2" xlink:href="#m96102be755" y="172.9"/>
      </g>
     </g>
    </g>
    <g id="text_28">
     <!-- xlabel -->
     <g transform="translate(260.68375 194.90125)scale(0.08 -0.08)">
      <use xlink:href="#HelveticaNeue-120"/>
      <use x="51.799988" xlink:href="#HelveticaNeue-108"/>
      <use x="73.999985" xlink:href="#HelveticaNeue-97"/>
      <use x="127.699982" xlink:href="#HelveticaNeue-98"/>
      <use x="186.999969" xlink:href="#HelveticaNeue-101"/>
      <use x="240.699966" xlink:href="#HelveticaNeue-108"/>
     </g>
    </g>
   </g>
   <g id="matplotlib.axis_4">
    <g id="ytick_26">
     <g id="line2d_104">
      <path clip-path="url(#p2b593cf192)" d="M 199.2 164.577803 
L 343.2 164.577803 
" style="fill:none;stroke:#000000;stroke-linecap:square;stroke-opacity:0.1;stroke-width:0.6;"/>
     </g>
     <g id="line2d_105">
      <g>
       <use style="stroke:#000000;stroke-width:0.6;" x="199.2" xlink:href="#mdcb4df8f5f" y="164.577803"/>
      </g>
     </g>
     <g id="text_29">
      <!-- −1 -->
      <g transform="translate(183.9525 167.434053)scale(0.08 -0.08)">
       <use xlink:href="#HelveticaNeue-8722"/>
       <use x="59.999985" xlink:href="#HelveticaNeue-49"/>
      </g>
     </g>
    </g>
    <g id="ytick_27">
     <g id="line2d_106">
      <path clip-path="url(#p2b593cf192)" d="M 199.2 135.241515 
L 343.2 135.241515 
" style="fill:none;stroke:#000000;stroke-linecap:square;stroke-opacity:0.1;stroke-width:0.6;"/>
     </g>
     <g id="line2d_107">
      <g>
       <use style="stroke:#000000;stroke-width:0.6;" x="199.2" xlink:href="#mdcb4df8f5f" y="135.241515"/>
      </g>
     </g>
     <g id="text_30">
      <!-- 0 -->
      <g transform="translate(188.7525 138.097765)scale(0.08 -0.08)">
       <use xlink:href="#HelveticaNeue-48"/>
      </g>
     </g>
    </g>
    <g id="ytick_28">
     <g id="line2d_108">
      <path clip-path="url(#p2b593cf192)" d="M 199.2 105.905227 
L 343.2 105.905227 
" style="fill:none;stroke:#000000;stroke-linecap:square;stroke-opacity:0.1;stroke-width:0.6;"/>
     </g>
     <g id="line2d_109">
      <g>
       <use style="stroke:#000000;stroke-width:0.6;" x="199.2" xlink:href="#mdcb4df8f5f" y="105.905227"/>
      </g>
     </g>
     <g id="text_31">
      <!-- 1 -->
      <g transform="translate(188.7525 108.761477)scale(0.08 -0.08)">
       <use xlink:href="#HelveticaNeue-49"/>
      </g>
     </g>
    </g>
    <g id="ytick_29">
     <g id="line2d_110">
      <path clip-path="url(#p2b593cf192)" d="M 199.2 76.568939 
L 343.2 76.568939 
" style="fill:none;stroke:#000000;stroke-linecap:square;stroke-opacity:0.1;stroke-width:0.6;"/>
     </g>
     <g id="line2d_111">
      <g>
       <use style="stroke:#000000;stroke-width:0.6;" x="199.2" xlink:href="#mdcb4df8f5f" y="76.568939"/>
      </g>
     </g>
     <g id="text_32">
      <!-- 2 -->
      <g transform="translate(188.7525 79.425189)scale(0.08 -0.08)">
       <use xlink:href="#HelveticaNeue-50"/>
      </g>
     </g>
    </g>
    <g id="ytick_30">
     <g id="line2d_112">
      <path clip-path="url(#p2b593cf192)" d="M 199.2 47.232651 
L 343.2 47.232651 
" style="fill:none;stroke:#000000;stroke-linecap:square;stroke-opacity:0.1;stroke-width:0.6;"/>
     </g>
     <g id="line2d_113">
      <g>
       <use style="stroke:#000000;stroke-width:0.6;" x="199.2" xlink:href="#mdcb4df8f5f" y="47.232651"/>
      </g>
     </g>
     <g id="text_33">
      <!-- 3 -->
      <g transform="translate(188.7525 50.088901)scale(0.08 -0.08)">
       <use xlink:href="#HelveticaNeue-51"/>
      </g>
     </g>
    </g>
    <g id="ytick_31">
     <g id="line2d_114">
      <g>
       <use style="stroke:#000000;stroke-width:0.48;" x="199.2" xlink:href="#mc053853be3" y="170.44506"/>
      </g>
     </g>
    </g>
    <g id="ytick_32">
     <g id="line2d_115">
      <g>
       <use style="stroke:#000000;stroke-width:0.48;" x="199.2" xlink:href="#mc053853be3" y="158.710545"/>
      </g>
     </g>
    </g>
    <g id="ytick_33">
     <g id="line2d_116">
      <g>
       <use style="stroke:#000000;stroke-width:0.48;" x="199.2" xlink:href="#mc053853be3" y="152.843288"/>
      </g>
     </g>
    </g>
    <g id="ytick_34">
     <g id="line2d_117">
      <g>
       <use style="stroke:#000000;stroke-width:0.48;" x="199.2" xlink:href="#mc053853be3" y="146.97603"/>
      </g>
     </g>
    </g>
    <g id="ytick_35">
     <g id="line2d_118">
      <g>
       <use style="stroke:#000000;stroke-width:0.48;" x="199.2" xlink:href="#mc053853be3" y="141.108773"/>
      </g>
     </g>
    </g>
    <g id="ytick_36">
     <g id="line2d_119">
      <g>
       <use style="stroke:#000000;stroke-width:0.48;" x="199.2" xlink:href="#mc053853be3" y="129.374257"/>
      </g>
     </g>
    </g>
    <g id="ytick_37">
     <g id="line2d_120">
      <g>
       <use style="stroke:#000000;stroke-width:0.48;" x="199.2" xlink:href="#mc053853be3" y="123.507"/>
      </g>
     </g>
    </g>
    <g id="ytick_38">
     <g id="line2d_121">
      <g>
       <use style="stroke:#000000;stroke-width:0.48;" x="199.2" xlink:href="#mc053853be3" y="117.639742"/>
      </g>
     </g>
    </g>
    <g id="ytick_39">
     <g id="line2d_122">
      <g>
       <use style="stroke:#000000;stroke-width:0.48;" x="199.2" xlink:href="#mc053853be3" y="111.772485"/>
      </g>
     </g>
    </g>
    <g id="ytick_40">
     <g id="line2d_123">
      <g>
       <use style="stroke:#000000;stroke-width:0.48;" x="199.2" xlink:href="#mc053853be3" y="100.03797"/>
      </g>
     </g>
    </g>
    <g id="ytick_41">
     <g id="line2d_124">
      <g>
       <use style="stroke:#000000;stroke-width:0.48;" x="199.2" xlink:href="#mc053853be3" y="94.170712"/>
      </g>
     </g>
    </g>
    <g id="ytick_42">
     <g id="line2d_125">
      <g>
       <use style="stroke:#000000;stroke-width:0.48;" x="199.2" xlink:href="#mc053853be3" y="88.303454"/>
      </g>
     </g>
    </g>
    <g id="ytick_43">
     <g id="line2d_126">
      <g>
       <use style="stroke:#000000;stroke-width:0.48;" x="199.2" xlink:href="#mc053853be3" y="82.436197"/>
      </g>
     </g>
    </g>
    <g id="ytick_44">
     <g id="line2d_127">
      <g>
       <use style="stroke:#000000;stroke-width:0.48;" x="199.2" xlink:href="#mc053853be3" y="70.701682"/>
      </g>
     </g>
    </g>
    <g id="ytick_45">
     <g id="line2d_128">
      <g>
       <use style="stroke:#000000;stroke-width:0.48;" x="199.2" xlink:href="#mc053853be3" y="64.834424"/>
      </g>
     </g>
    </g>
    <g id="ytick_46">
     <g id="line2d_129">
      <g>
       <use style="stroke:#000000;stroke-width:0.48;" x="199.2" xlink:href="#mc053853be3" y="58.967166"/>
      </g>
     </g>
    </g>
    <g id="ytick_47">
     <g id="line2d_130">
      <g>
       <use style="stroke:#000000;stroke-width:0.48;" x="199.2" xlink:href="#mc053853be3" y="53.099909"/>
      </g>
     </g>
    </g>
    <g id="ytick_48">
     <g id="line2d_131">
      <g>
       <use style="stroke:#000000;stroke-width:0.48;" x="199.2" xlink:href="#mc053853be3" y="41.365394"/>
      </g>
     </g>
    </g>
    <g id="ytick_49">
     <g id="line2d_132">
      <g>
       <use style="stroke:#000000;stroke-width:0.48;" x="199.2" xlink:href="#mc053853be3" y="35.498136"/>
      </g>
     </g>
    </g>
    <g id="ytick_50">
     <g id="line2d_133">
      <g>
       <use style="stroke:#000000;stroke-width:0.48;" x="199.2" xlink:href="#mc053853be3" y="29.630879"/>
      </g>
     </g>
    </g>
   </g>
   <g id="line2d_134">
    <path clip-path="url(#p2b593cf192)" d="M 199.2 147.166377 
L 206.778947 149.547134 
L 214.357895 155.637544 
L 221.936842 155.156323 
L 229.515789 165.462248 
L 237.094737 168.524812 
L 244.673684 172.9 
L 252.252632 158.669645 
L 259.831579 166.664949 
L 267.410526 150.683756 
L 274.989474 138.560207 
L 282.568421 144.899015 
L 290.147368 130.166535 
L 297.726316 115.570891 
L 305.305263 106.965277 
L 312.884211 112.559901 
L 320.463158 96.44429 
L 328.042105 104.228909 
L 335.621053 91.353684 
L 343.2 100.215973 
" style="fill:none;stroke:#23395b;stroke-linecap:square;stroke-width:4;"/>
   </g>
   <g id="line2d_135">
    <path clip-path="url(#p2b593cf192)" d="M 199.2 121.817556 
L 206.778947 105.779788 
L 214.357895 99.275956 
L 221.936842 85.139493 
L 229.515789 73.603405 
L 237.094737 77.53076 
L 244.673684 72.985908 
L 252.252632 65.547835 
L 259.831579 66.666574 
L 267.410526 63.250988 
L 274.989474 47.446906 
L 282.568421 53.866453 
L 290.147368 56.318374 
L 297.726316 41.096246 
L 305.305263 40.01821 
L 312.884211 39.351256 
L 320.463158 51.119204 
L 328.042105 40.917317 
L 335.621053 28.9 
L 343.2 35.636455 
" style="fill:none;stroke:#d81e5b;stroke-linecap:square;stroke-width:4;"/>
   </g>
   <g id="line2d_136">
    <path clip-path="url(#p2b593cf192)" d="M 199.2 143.188787 
L 206.778947 129.692647 
L 214.357895 119.78593 
L 221.936842 120.515952 
L 229.515789 106.928889 
L 237.094737 115.469147 
L 244.673684 100.248313 
L 252.252632 85.649912 
L 259.831579 82.93665 
L 267.410526 95.802483 
L 274.989474 87.53616 
L 282.568421 74.153592 
L 290.147368 82.677027 
L 297.726316 68.568874 
L 305.305263 76.730326 
L 312.884211 78.036172 
L 320.463158 73.799903 
L 328.042105 61.855044 
L 335.621053 74.428901 
L 343.2 84.505536 
" style="fill:none;stroke:#fffd98;stroke-linecap:square;stroke-width:4;"/>
   </g>
   <g id="line2d_137">
    <path clip-path="url(#p2b593cf192)" d="M 199.2 130.46339 
L 206.778947 137.721284 
L 214.357895 142.645349 
L 221.936842 145.439258 
L 229.515789 138.617129 
L 237.094737 148.884063 
L 244.673684 150.821603 
L 252.252632 159.508237 
L 259.831579 157.33046 
L 267.410526 146.98886 
L 274.989474 138.123559 
L 282.568421 147.619517 
L 290.147368 138.798598 
L 297.726316 137.429493 
L 305.305263 137.195608 
L 312.884211 131.971741 
L 320.463158 128.341292 
L 328.042105 139.989711 
L 335.621053 149.724291 
L 343.2 147.97309 
" style="fill:none;stroke:#b9e3c6;stroke-linecap:square;stroke-width:4;"/>
   </g>
   <g id="line2d_138">
    <path clip-path="url(#p2b593cf192)" d="M 199.2 125.91036 
L 206.778947 129.138101 
L 214.357895 131.314938 
L 221.936842 142.786475 
L 229.515789 139.775012 
L 237.094737 143.368624 
L 244.673684 141.179894 
L 252.252632 130.919518 
L 259.831579 120.066407 
L 267.410526 123.964203 
L 274.989474 120.392377 
L 282.568421 107.284141 
L 290.147368 119.963029 
L 297.726316 126.910797 
L 305.305263 133.055936 
L 312.884211 136.142977 
L 320.463158 129.38003 
L 328.042105 114.868622 
L 335.621053 104.887462 
L 343.2 116.979855 
" style="fill:none;stroke:#59c9a5;stroke-linecap:square;stroke-width:4;"/>
   </g>
   <g id="patch_11">
    <path d="M 199.2 172.9 
L 199.2 28.9 
" style="fill:none;stroke:#000000;stroke-linecap:square;stroke-linejoin:miter;stroke-width:0.6;"/>
   </g>
   <g id="patch_12">
    <path d="M 343.2 172.9 
L 343.2 28.9 
" style="fill:none;stroke:#000000;stroke-linecap:square;stroke-linejoin:miter;stroke-width:0.6;"/>
   </g>
   <g id="patch_13">
    <path d="M 199.2 172.9 
L 343.2 172.9 
" style="fill:none;stroke:#000000;stroke-linecap:square;stroke-linejoin:miter;stroke-width:0.6;"/>
   </g>
   <g id="patch_14">
    <path d="M 199.2 28.9 
L 343.2 28.9 
" style="fill:none;stroke:#000000;stroke-linecap:square;stroke-linejoin:miter;stroke-width:0.6;"/>
   </g>
   <g id="text_34">
    <!-- Row-centered legends -->
    <defs>
     <path d="M 7.796875 71.40625 
L 7.796875 0 
L 17.296875 0 
L 17.296875 30.5 
L 40.5 30.5 
Q 44 30.5 46.09375 29.453125 
Q 48.203125 28.40625 49.5 26.65625 
Q 50.796875 24.90625 51.390625 22.546875 
Q 52 20.203125 52.40625 17.59375 
Q 52.90625 15 53 12.296875 
Q 53.09375 9.59375 53.1875 7.25 
Q 53.296875 4.90625 53.640625 3 
Q 54 1.09375 55 0 
L 65.59375 0 
Q 64.09375 1.796875 63.34375 4.140625 
Q 62.59375 6.5 62.1875 9.09375 
Q 61.796875 11.703125 61.6875 14.390625 
Q 61.59375 17.09375 61.40625 19.703125 
Q 61.09375 22.296875 60.546875 24.6875 
Q 60 27.09375 58.84375 29.046875 
Q 57.703125 31 55.75 32.390625 
Q 53.796875 33.796875 50.703125 34.40625 
L 50.703125 34.59375 
Q 57.203125 36.40625 60.140625 41.296875 
Q 63.09375 46.203125 63.09375 52.703125 
Q 63.09375 61.40625 57.34375 66.40625 
Q 51.59375 71.40625 41.40625 71.40625 
z
M 37.09375 38.5 
L 17.296875 38.5 
L 17.296875 63.40625 
L 40.90625 63.40625 
Q 47.59375 63.40625 50.59375 60 
Q 53.59375 56.59375 53.59375 51.203125 
Q 53.59375 47.296875 52.25 44.84375 
Q 50.90625 42.40625 48.65625 40.953125 
Q 46.40625 39.5 43.40625 39 
Q 40.40625 38.5 37.09375 38.5 
z
" id="HelveticaNeue-82"/>
     <path d="M 12.59375 25.796875 
Q 12.59375 30.5 13.84375 34.140625 
Q 15.09375 37.796875 17.296875 40.296875 
Q 19.5 42.796875 22.453125 44.09375 
Q 25.40625 45.40625 28.703125 45.40625 
Q 32 45.40625 34.953125 44.09375 
Q 37.90625 42.796875 40.09375 40.296875 
Q 42.296875 37.796875 43.546875 34.140625 
Q 44.796875 30.5 44.796875 25.796875 
Q 44.796875 21.09375 43.546875 17.4375 
Q 42.296875 13.796875 40.09375 11.34375 
Q 37.90625 8.90625 34.953125 7.59375 
Q 32 6.296875 28.703125 6.296875 
Q 25.40625 6.296875 22.453125 7.59375 
Q 19.5 8.90625 17.296875 11.34375 
Q 15.09375 13.796875 13.84375 17.4375 
Q 12.59375 21.09375 12.59375 25.796875 
z
M 3.59375 25.796875 
Q 3.59375 20.09375 5.1875 15.1875 
Q 6.796875 10.296875 10 6.640625 
Q 13.203125 3 17.890625 0.953125 
Q 22.59375 -1.09375 28.703125 -1.09375 
Q 34.90625 -1.09375 39.546875 0.953125 
Q 44.203125 3 47.390625 6.640625 
Q 50.59375 10.296875 52.1875 15.1875 
Q 53.796875 20.09375 53.796875 25.796875 
Q 53.796875 31.5 52.1875 36.453125 
Q 50.59375 41.40625 47.390625 45.046875 
Q 44.203125 48.703125 39.546875 50.796875 
Q 34.90625 52.90625 28.703125 52.90625 
Q 22.59375 52.90625 17.890625 50.796875 
Q 13.203125 48.703125 10 45.046875 
Q 6.796875 41.40625 5.1875 36.453125 
Q 3.59375 31.5 3.59375 25.796875 
z
" id="HelveticaNeue-111"/>
     <path d="M 57.59375 0 
L 74.09375 51.703125 
L 65.296875 51.703125 
L 53.703125 9.40625 
L 53.5 9.40625 
L 42.703125 51.703125 
L 33.40625 51.703125 
L 23 9.40625 
L 22.796875 9.40625 
L 11.09375 51.703125 
L 1.703125 51.703125 
L 18.296875 0 
L 27.5 0 
L 37.90625 41.09375 
L 38.09375 41.09375 
L 48.59375 0 
z
" id="HelveticaNeue-119"/>
     <path d="M 5 31.796875 
L 5 23.796875 
L 33.90625 23.796875 
L 33.90625 31.796875 
z
" id="HelveticaNeue-45"/>
     <path d="M 6.09375 51.703125 
L 6.09375 0 
L 14.59375 0 
L 14.59375 23 
Q 14.59375 28 15.59375 31.84375 
Q 16.59375 35.703125 18.796875 38.390625 
Q 21 41.09375 24.59375 42.5 
Q 28.203125 43.90625 33.296875 43.90625 
L 33.296875 52.90625 
Q 26.40625 53.09375 21.90625 50.09375 
Q 17.40625 47.09375 14.296875 40.796875 
L 14.09375 40.796875 
L 14.09375 51.703125 
z
" id="HelveticaNeue-114"/>
    </defs>
    <g transform="translate(225.534141 24.018438)scale(0.09 -0.09)">
     <use xlink:href="#HelveticaNeue-82"/>
     <use x="68.499985" xlink:href="#HelveticaNeue-111"/>
     <use x="125.899979" xlink:href="#HelveticaNeue-119"/>
     <use x="201.699966" xlink:href="#HelveticaNeue-45"/>
     <use x="240.59996" xlink:href="#HelveticaNeue-99"/>
     <use x="294.299957" xlink:href="#HelveticaNeue-101"/>
     <use x="347.999954" xlink:href="#HelveticaNeue-110"/>
     <use x="403.599945" xlink:href="#HelveticaNeue-116"/>
     <use x="435.09993" xlink:href="#HelveticaNeue-101"/>
     <use x="488.799927" xlink:href="#HelveticaNeue-114"/>
     <use x="522.08429" xlink:href="#HelveticaNeue-101"/>
     <use x="575.784286" xlink:href="#HelveticaNeue-100"/>
     <use x="635.084274" xlink:href="#HelveticaNeue-32"/>
     <use x="662.884262" xlink:href="#HelveticaNeue-108"/>
     <use x="685.084259" xlink:href="#HelveticaNeue-101"/>
     <use x="738.784256" xlink:href="#HelveticaNeue-103"/>
     <use x="796.18425" xlink:href="#HelveticaNeue-101"/>
     <use x="849.884247" xlink:href="#HelveticaNeue-110"/>
     <use x="905.484238" xlink:href="#HelveticaNeue-100"/>
     <use x="964.784225" xlink:href="#HelveticaNeue-115"/>
    </g>
   </g>
   <g id="text_35">
    <!-- Row-centered legends -->
    <g transform="translate(225.534141 24.018438)scale(0.09 -0.09)">
     <use xlink:href="#HelveticaNeue-82"/>
     <use x="68.499985" xlink:href="#HelveticaNeue-111"/>
     <use x="125.899979" xlink:href="#HelveticaNeue-119"/>
     <use x="201.699966" xlink:href="#HelveticaNeue-45"/>
     <use x="240.59996" xlink:href="#HelveticaNeue-99"/>
     <use x="294.299957" xlink:href="#HelveticaNeue-101"/>
     <use x="347.999954" xlink:href="#HelveticaNeue-110"/>
     <use x="403.599945" xlink:href="#HelveticaNeue-116"/>
     <use x="435.09993" xlink:href="#HelveticaNeue-101"/>
     <use x="488.799927" xlink:href="#HelveticaNeue-114"/>
     <use x="522.08429" xlink:href="#HelveticaNeue-101"/>
     <use x="575.784286" xlink:href="#HelveticaNeue-100"/>
     <use x="635.084274" xlink:href="#HelveticaNeue-32"/>
     <use x="662.884262" xlink:href="#HelveticaNeue-108"/>
     <use x="685.084259" xlink:href="#HelveticaNeue-101"/>
     <use x="738.784256" xlink:href="#HelveticaNeue-103"/>
     <use x="796.18425" xlink:href="#HelveticaNeue-101"/>
     <use x="849.884247" xlink:href="#HelveticaNeue-110"/>
     <use x="905.484238" xlink:href="#HelveticaNeue-100"/>
     <use x="964.784225" xlink:href="#HelveticaNeue-115"/>
    </g>
   </g>
  </g>
  <g id="axes_4">
   <g id="patch_15">
    <path d="M 346.8 172.9 
L 364.8 172.9 
L 364.8 28.9 
L 346.8 28.9 
z
" style="fill:none;opacity:0;"/>
   </g>
   <g id="legend_3">
    <g id="patch_16">
     <path d="M 346.8 131.121875 
L 392.28125 131.121875 
L 392.28125 70.678125 
L 346.8 70.678125 
z
" style="fill:#ffffff;opacity:0.8;stroke:#000000;stroke-linejoin:miter;stroke-width:0.6;"/>
    </g>
    <g id="line2d_139">
     <path d="M 350.8 77.590625 
L 362.8 77.590625 
" style="fill:none;stroke:#23395b;stroke-linecap:square;stroke-width:4;"/>
    </g>
    <g id="line2d_140"/>
    <g id="text_36">
     <!-- a -->
     <g transform="translate(366.8 80.390625)scale(0.08 -0.08)">
      <use xlink:href="#HelveticaNeue-97"/>
     </g>
    </g>
    <g id="line2d_141">
     <path d="M 350.8 88.879375 
L 362.8 88.879375 
" style="fill:none;stroke:#d81e5b;stroke-linecap:square;stroke-width:4;"/>
    </g>
    <g id="line2d_142"/>
    <g id="text_37">
     <!-- bb -->
     <g transform="translate(366.8 91.679375)scale(0.08 -0.08)">
      <use xlink:href="#HelveticaNeue-98"/>
      <use x="59.299988" xlink:href="#HelveticaNeue-98"/>
     </g>
    </g>
    <g id="line2d_143">
     <path d="M 350.8 100.168125 
L 362.8 100.168125 
" style="fill:none;stroke:#fffd98;stroke-linecap:square;stroke-width:4;"/>
    </g>
    <g id="line2d_144"/>
    <g id="text_38">
     <!-- ccc -->
     <g transform="translate(366.8 102.968125)scale(0.08 -0.08)">
      <use xlink:href="#HelveticaNeue-99"/>
      <use x="53.699997" xlink:href="#HelveticaNeue-99"/>
      <use x="107.399994" xlink:href="#HelveticaNeue-99"/>
     </g>
    </g>
    <g id="line2d_145">
     <path d="M 350.8 111.456875 
L 362.8 111.456875 
" style="fill:none;stroke:#b9e3c6;stroke-linecap:square;stroke-width:4;"/>
    </g>
    <g id="line2d_146"/>
    <g id="text_39">
     <!-- dddd -->
     <g transform="translate(366.8 114.256875)scale(0.08 -0.08)">
      <use xlink:href="#HelveticaNeue-100"/>
      <use x="59.299988" xlink:href="#HelveticaNeue-100"/>
      <use x="118.599976" xlink:href="#HelveticaNeue-100"/>
      <use x="177.899963" xlink:href="#HelveticaNeue-100"/>
     </g>
    </g>
    <g id="line2d_147">
     <path d="M 350.8 122.745625 
L 362.8 122.745625 
" style="fill:none;stroke:#59c9a5;stroke-linecap:square;stroke-width:4;"/>
    </g>
    <g id="line2d_148"/>
    <g id="text_40">
     <!-- eeeee -->
     <g transform="translate(366.8 125.545625)scale(0.08 -0.08)">
      <use xlink:href="#HelveticaNeue-101"/>
      <use x="53.699997" xlink:href="#HelveticaNeue-101"/>
      <use x="107.399994" xlink:href="#HelveticaNeue-101"/>
      <use x="161.099991" xlink:href="#HelveticaNeue-101"/>
      <use x="214.799988" xlink:href="#HelveticaNeue-101"/>
     </g>
    </g>
   </g>
  </g>
  <g id="axes_5">
   <g id="patch_17">
    <path d="M 199.2 217.9 
L 343.2 217.9 
L 343.2 199.9 
L 199.2 199.9 
z
" style="fill:none;opacity:0;"/>
   </g>
   <g id="patch_18">
    <path d="M 221.85 226.5 
L 320.55 226.5 
L 320.55 199.9 
L 221.85 199.9 
z
" style="fill:#ffffff;opacity:0.8;stroke:#000000;stroke-linejoin:miter;stroke-width:0.6;"/>
   </g>
   <g id="legend_4">
    <g id="line2d_149">
     <path d="M 225.86375 206.8125 
L 237.86375 206.8125 
" style="fill:none;stroke:#23395b;stroke-linecap:square;stroke-width:4;"/>
    </g>
    <g id="line2d_150"/>
    <g id="text_41">
     <!-- a -->
     <g transform="translate(241.86375 209.6125)scale(0.08 -0.08)">
      <use xlink:href="#HelveticaNeue-97"/>
     </g>
    </g>
    <g id="line2d_151">
     <path d="M 254.16 206.8125 
L 266.16 206.8125 
" style="fill:none;stroke:#d81e5b;stroke-linecap:square;stroke-width:4;"/>
    </g>
    <g id="line2d_152"/>
    <g id="text_42">
     <!-- bb -->
     <g transform="translate(270.16 209.6125)scale(0.08 -0.08)">
      <use xlink:href="#HelveticaNeue-98"/>
      <use x="59.299988" xlink:href="#HelveticaNeue-98"/>
     </g>
    </g>
    <g id="line2d_153">
     <path d="M 287.6475 206.8125 
L 299.6475 206.8125 
" style="fill:none;stroke:#fffd98;stroke-linecap:square;stroke-width:4;"/>
    </g>
    <g id="line2d_154"/>
    <g id="text_43">
     <!-- ccc -->
     <g transform="translate(303.6475 209.6125)scale(0.08 -0.08)">
      <use xlink:href="#HelveticaNeue-99"/>
      <use x="53.699997" xlink:href="#HelveticaNeue-99"/>
      <use x="107.399994" xlink:href="#HelveticaNeue-99"/>
     </g>
    </g>
   </g>
   <g id="legend_5">
    <g id="line2d_155">
     <path d="M 230.971875 218.2125 
L 242.971875 218.2125 
" style="fill:none;stroke:#b9e3c6;stroke-linecap:square;stroke-width:4;"/>
    </g>
    <g id="line2d_156"/>
    <g id="text_44">
     <!-- dddd -->
     <g transform="translate(246.971875 221.0125)scale(0.08 -0.08)">
      <use xlink:href="#HelveticaNeue-100"/>
      <use x="59.299988" xlink:href="#HelveticaNeue-100"/>
      <use x="118.599976" xlink:href="#HelveticaNeue-100"/>
      <use x="177.899963" xlink:href="#HelveticaNeue-100"/>
     </g>
    </g>
    <g id="line2d_157">
     <path d="M 273.946875 218.2125 
L 285.946875 218.2125 
" style="fill:none;stroke:#59c9a5;stroke-linecap:square;stroke-width:4;"/>
    </g>
    <g id="line2d_158"/>
    <g id="text_45">
     <!-- eeeee -->
     <g transform="translate(289.946875 221.0125)scale(0.08 -0.08)">
      <use xlink:href="#HelveticaNeue-101"/>
      <use x="53.699997" xlink:href="#HelveticaNeue-101"/>
      <use x="107.399994" xlink:href="#HelveticaNeue-101"/>
      <use x="161.099991" xlink:href="#HelveticaNeue-101"/>
      <use x="214.799988" xlink:href="#HelveticaNeue-101"/>
     </g>
    </g>
   </g>
  </g>
  <g id="text_46">
   <!-- ProPlot legends -->
   <defs>
    <path d="M 22.59375 37.796875 
L 22.59375 59.203125 
L 34.796875 59.203125 
Q 37.5 59.203125 40 58.796875 
Q 42.5 58.40625 44.390625 57.25 
Q 46.296875 56.09375 47.4375 54 
Q 48.59375 51.90625 48.59375 48.5 
Q 48.59375 45.09375 47.4375 43 
Q 46.296875 40.90625 44.390625 39.75 
Q 42.5 38.59375 40 38.1875 
Q 37.5 37.796875 34.796875 37.796875 
z
M 6.90625 71.40625 
L 6.90625 0 
L 22.59375 0 
L 22.59375 25.59375 
L 39.09375 25.59375 
Q 45.796875 25.59375 50.5 27.546875 
Q 55.203125 29.5 58.140625 32.703125 
Q 61.09375 35.90625 62.4375 40.046875 
Q 63.796875 44.203125 63.796875 48.5 
Q 63.796875 52.90625 62.4375 57 
Q 61.09375 61.09375 58.140625 64.296875 
Q 55.203125 67.5 50.5 69.453125 
Q 45.796875 71.40625 39.09375 71.40625 
z
" id="HelveticaNeue-Bold-80"/>
    <path d="M 5.40625 51.703125 
L 5.40625 0 
L 19.59375 0 
L 19.59375 23.296875 
Q 19.59375 26.796875 20.296875 29.796875 
Q 21 32.796875 22.640625 35.046875 
Q 24.296875 37.296875 27 38.59375 
Q 29.703125 39.90625 33.59375 39.90625 
Q 34.90625 39.90625 36.296875 39.75 
Q 37.703125 39.59375 38.703125 39.40625 
L 38.703125 52.59375 
Q 37 53.09375 35.59375 53.09375 
Q 32.90625 53.09375 30.40625 52.296875 
Q 27.90625 51.5 25.703125 50.046875 
Q 23.5 48.59375 21.796875 46.546875 
Q 20.09375 44.5 19.09375 42.09375 
L 18.90625 42.09375 
L 18.90625 51.703125 
z
" id="HelveticaNeue-Bold-114"/>
    <path d="M 18 25.796875 
Q 18 28.90625 18.59375 31.90625 
Q 19.203125 34.90625 20.640625 37.203125 
Q 22.09375 39.5 24.5 40.953125 
Q 26.90625 42.40625 30.5 42.40625 
Q 34.09375 42.40625 36.546875 40.953125 
Q 39 39.5 40.453125 37.203125 
Q 41.90625 34.90625 42.5 31.90625 
Q 43.09375 28.90625 43.09375 25.796875 
Q 43.09375 22.703125 42.5 19.75 
Q 41.90625 16.796875 40.453125 14.4375 
Q 39 12.09375 36.546875 10.6875 
Q 34.09375 9.296875 30.5 9.296875 
Q 26.90625 9.296875 24.5 10.6875 
Q 22.09375 12.09375 20.640625 14.4375 
Q 19.203125 16.796875 18.59375 19.75 
Q 18 22.703125 18 25.796875 
z
M 3.796875 25.796875 
Q 3.796875 19.59375 5.6875 14.59375 
Q 7.59375 9.59375 11.09375 6.046875 
Q 14.59375 2.5 19.5 0.59375 
Q 24.40625 -1.296875 30.5 -1.296875 
Q 36.59375 -1.296875 41.546875 0.59375 
Q 46.5 2.5 50 6.046875 
Q 53.5 9.59375 55.390625 14.59375 
Q 57.296875 19.59375 57.296875 25.796875 
Q 57.296875 32 55.390625 37.046875 
Q 53.5 42.09375 50 45.640625 
Q 46.5 49.203125 41.546875 51.140625 
Q 36.59375 53.09375 30.5 53.09375 
Q 24.40625 53.09375 19.5 51.140625 
Q 14.59375 49.203125 11.09375 45.640625 
Q 7.59375 42.09375 5.6875 37.046875 
Q 3.796875 32 3.796875 25.796875 
z
" id="HelveticaNeue-Bold-111"/>
    <path d="M 5.796875 71.40625 
L 5.796875 0 
L 20 0 
L 20 71.40625 
z
" id="HelveticaNeue-Bold-108"/>
    <path d="M 23.40625 51.703125 
L 23.40625 67.203125 
L 9.203125 67.203125 
L 9.203125 51.703125 
L 0.59375 51.703125 
L 0.59375 42.203125 
L 9.203125 42.203125 
L 9.203125 11.703125 
Q 9.203125 7.796875 10.5 5.390625 
Q 11.796875 3 14.046875 1.703125 
Q 16.296875 0.40625 19.25 -0.046875 
Q 22.203125 -0.5 25.5 -0.5 
Q 27.59375 -0.5 29.796875 -0.390625 
Q 32 -0.296875 33.796875 0 
L 33.796875 11 
Q 32.796875 10.796875 31.6875 10.6875 
Q 30.59375 10.59375 29.40625 10.59375 
Q 25.796875 10.59375 24.59375 11.796875 
Q 23.40625 13 23.40625 16.59375 
L 23.40625 42.203125 
L 33.796875 42.203125 
L 33.796875 51.703125 
z
" id="HelveticaNeue-Bold-116"/>
    <path id="HelveticaNeue-Bold-32"/>
    <path d="M 40.203125 31.40625 
L 17.09375 31.40625 
Q 17.203125 32.90625 17.75 34.796875 
Q 18.296875 36.703125 19.640625 38.390625 
Q 21 40.09375 23.25 41.25 
Q 25.5 42.40625 28.90625 42.40625 
Q 34.09375 42.40625 36.640625 39.59375 
Q 39.203125 36.796875 40.203125 31.40625 
z
M 17.09375 22.40625 
L 54.40625 22.40625 
Q 54.796875 28.40625 53.390625 33.90625 
Q 52 39.40625 48.84375 43.703125 
Q 45.703125 48 40.796875 50.546875 
Q 35.90625 53.09375 29.296875 53.09375 
Q 23.40625 53.09375 18.546875 51 
Q 13.703125 48.90625 10.203125 45.25 
Q 6.703125 41.59375 4.796875 36.59375 
Q 2.90625 31.59375 2.90625 25.796875 
Q 2.90625 19.796875 4.75 14.796875 
Q 6.59375 9.796875 10 6.1875 
Q 13.40625 2.59375 18.296875 0.640625 
Q 23.203125 -1.296875 29.296875 -1.296875 
Q 38.09375 -1.296875 44.296875 2.703125 
Q 50.5 6.703125 53.5 16 
L 41 16 
Q 40.296875 13.59375 37.1875 11.4375 
Q 34.09375 9.296875 29.796875 9.296875 
Q 23.796875 9.296875 20.59375 12.390625 
Q 17.40625 15.5 17.09375 22.40625 
z
" id="HelveticaNeue-Bold-101"/>
    <path d="M 29.5 12.203125 
Q 26.203125 12.203125 24 13.59375 
Q 21.796875 15 20.4375 17.203125 
Q 19.09375 19.40625 18.546875 22.15625 
Q 18 24.90625 18 27.703125 
Q 18 30.59375 18.640625 33.25 
Q 19.296875 35.90625 20.75 37.953125 
Q 22.203125 40 24.34375 41.203125 
Q 26.5 42.40625 29.5 42.40625 
Q 33 42.40625 35.296875 41.09375 
Q 37.59375 39.796875 39 37.59375 
Q 40.40625 35.40625 41 32.546875 
Q 41.59375 29.703125 41.59375 26.5 
Q 41.59375 23.703125 40.84375 21.140625 
Q 40.09375 18.59375 38.59375 16.59375 
Q 37.09375 14.59375 34.796875 13.390625 
Q 32.5 12.203125 29.5 12.203125 
z
M 55.09375 3.296875 
L 55.09375 51.703125 
L 41.59375 51.703125 
L 41.59375 44.796875 
L 41.40625 44.796875 
Q 38.796875 49.296875 34.9375 51.1875 
Q 31.09375 53.09375 26 53.09375 
Q 20.59375 53.09375 16.4375 51 
Q 12.296875 48.90625 9.5 45.34375 
Q 6.703125 41.796875 5.25 37.140625 
Q 3.796875 32.5 3.796875 27.5 
Q 3.796875 22.203125 5.046875 17.453125 
Q 6.296875 12.703125 9 9.140625 
Q 11.703125 5.59375 15.890625 3.546875 
Q 20.09375 1.5 25.90625 1.5 
Q 30.59375 1.5 34.84375 3.453125 
Q 39.09375 5.40625 41.40625 9.5 
L 41.59375 9.5 
L 41.59375 2.703125 
Q 41.703125 -2.796875 38.953125 -6.390625 
Q 36.203125 -10 30.203125 -10 
Q 26.40625 -10 23.5 -8.453125 
Q 20.59375 -6.90625 19.59375 -2.90625 
L 5.5 -2.90625 
Q 5.796875 -7.296875 7.9375 -10.4375 
Q 10.09375 -13.59375 13.34375 -15.59375 
Q 16.59375 -17.59375 20.546875 -18.546875 
Q 24.5 -19.5 28.296875 -19.5 
Q 37.203125 -19.5 42.5 -17.09375 
Q 47.796875 -14.703125 50.59375 -11.25 
Q 53.40625 -7.796875 54.25 -3.796875 
Q 55.09375 0.203125 55.09375 3.296875 
z
" id="HelveticaNeue-Bold-103"/>
    <path d="M 5.40625 51.703125 
L 5.40625 0 
L 19.59375 0 
L 19.59375 27.09375 
Q 19.59375 35 22.1875 38.453125 
Q 24.796875 41.90625 30.59375 41.90625 
Q 35.703125 41.90625 37.703125 38.75 
Q 39.703125 35.59375 39.703125 29.203125 
L 39.703125 0 
L 53.90625 0 
L 53.90625 31.796875 
Q 53.90625 36.59375 53.046875 40.546875 
Q 52.203125 44.5 50.09375 47.25 
Q 48 50 44.34375 51.546875 
Q 40.703125 53.09375 35 53.09375 
Q 30.5 53.09375 26.203125 51.046875 
Q 21.90625 49 19.203125 44.5 
L 18.90625 44.5 
L 18.90625 51.703125 
z
" id="HelveticaNeue-Bold-110"/>
    <path d="M 42.09375 26 
Q 42.09375 22.796875 41.5 19.796875 
Q 40.90625 16.796875 39.5 14.4375 
Q 38.09375 12.09375 35.75 10.6875 
Q 33.40625 9.296875 29.90625 9.296875 
Q 26.59375 9.296875 24.25 10.75 
Q 21.90625 12.203125 20.34375 14.546875 
Q 18.796875 16.90625 18.09375 19.90625 
Q 17.40625 22.90625 17.40625 25.90625 
Q 17.40625 29.09375 18.046875 32.046875 
Q 18.703125 35 20.140625 37.296875 
Q 21.59375 39.59375 24 41 
Q 26.40625 42.40625 29.90625 42.40625 
Q 33.40625 42.40625 35.703125 41 
Q 38 39.59375 39.453125 37.34375 
Q 40.90625 35.09375 41.5 32.140625 
Q 42.09375 29.203125 42.09375 26 
z
M 42.296875 6.59375 
L 42.296875 0 
L 55.796875 0 
L 55.796875 71.40625 
L 41.59375 71.40625 
L 41.59375 45.40625 
L 41.40625 45.40625 
Q 39 49.203125 34.84375 51.140625 
Q 30.703125 53.09375 26.09375 53.09375 
Q 20.40625 53.09375 16.09375 50.84375 
Q 11.796875 48.59375 8.9375 44.890625 
Q 6.09375 41.203125 4.640625 36.34375 
Q 3.203125 31.5 3.203125 26.296875 
Q 3.203125 20.90625 4.640625 15.90625 
Q 6.09375 10.90625 8.9375 7.046875 
Q 11.796875 3.203125 16.1875 0.953125 
Q 20.59375 -1.296875 26.40625 -1.296875 
Q 31.5 -1.296875 35.546875 0.546875 
Q 39.59375 2.40625 42.09375 6.59375 
z
" id="HelveticaNeue-Bold-100"/>
    <path d="M 16.40625 16.796875 
L 2.90625 16.796875 
Q 3.09375 11.59375 5.25 8.140625 
Q 7.40625 4.703125 10.75 2.59375 
Q 14.09375 0.5 18.390625 -0.390625 
Q 22.703125 -1.296875 27.203125 -1.296875 
Q 31.59375 -1.296875 35.84375 -0.4375 
Q 40.09375 0.40625 43.390625 2.5 
Q 46.703125 4.59375 48.75 8.046875 
Q 50.796875 11.5 50.796875 16.59375 
Q 50.796875 20.203125 49.390625 22.640625 
Q 48 25.09375 45.703125 26.75 
Q 43.40625 28.40625 40.453125 29.40625 
Q 37.5 30.40625 34.40625 31.09375 
Q 31.40625 31.796875 28.5 32.390625 
Q 25.59375 33 23.34375 33.75 
Q 21.09375 34.5 19.6875 35.703125 
Q 18.296875 36.90625 18.296875 38.796875 
Q 18.296875 40.40625 19.09375 41.34375 
Q 19.90625 42.296875 21.046875 42.796875 
Q 22.203125 43.296875 23.59375 43.4375 
Q 25 43.59375 26.203125 43.59375 
Q 30 43.59375 32.796875 42.140625 
Q 35.59375 40.703125 35.90625 36.59375 
L 49.40625 36.59375 
Q 49 41.40625 46.953125 44.546875 
Q 44.90625 47.703125 41.796875 49.59375 
Q 38.703125 51.5 34.75 52.296875 
Q 30.796875 53.09375 26.59375 53.09375 
Q 22.40625 53.09375 18.40625 52.34375 
Q 14.40625 51.59375 11.203125 49.75 
Q 8 47.90625 6.046875 44.703125 
Q 4.09375 41.5 4.09375 36.5 
Q 4.09375 33.09375 5.5 30.75 
Q 6.90625 28.40625 9.203125 26.84375 
Q 11.5 25.296875 14.453125 24.34375 
Q 17.40625 23.40625 20.5 22.703125 
Q 28.09375 21.09375 32.34375 19.5 
Q 36.59375 17.90625 36.59375 14.703125 
Q 36.59375 12.796875 35.6875 11.546875 
Q 34.796875 10.296875 33.4375 9.546875 
Q 32.09375 8.796875 30.4375 8.4375 
Q 28.796875 8.09375 27.296875 8.09375 
Q 25.203125 8.09375 23.25 8.59375 
Q 21.296875 9.09375 19.796875 10.140625 
Q 18.296875 11.203125 17.34375 12.84375 
Q 16.40625 14.5 16.40625 16.796875 
z
" id="HelveticaNeue-Bold-115"/>
   </defs>
   <g transform="translate(164.591484 13.136875)scale(0.09 -0.09)">
    <use xlink:href="#HelveticaNeue-Bold-80"/>
    <use x="66.699997" xlink:href="#HelveticaNeue-Bold-114"/>
    <use x="105.584366" xlink:href="#HelveticaNeue-Bold-111"/>
    <use x="166.684357" xlink:href="#HelveticaNeue-Bold-80"/>
    <use x="233.384354" xlink:href="#HelveticaNeue-Bold-108"/>
    <use x="259.184341" xlink:href="#HelveticaNeue-Bold-111"/>
    <use x="320.284332" xlink:href="#HelveticaNeue-Bold-116"/>
    <use x="355.484329" xlink:href="#HelveticaNeue-Bold-32"/>
    <use x="383.284317" xlink:href="#HelveticaNeue-Bold-108"/>
    <use x="409.084305" xlink:href="#HelveticaNeue-Bold-101"/>
    <use x="466.484299" xlink:href="#HelveticaNeue-Bold-103"/>
    <use x="527.58429" xlink:href="#HelveticaNeue-Bold-101"/>
    <use x="584.984283" xlink:href="#HelveticaNeue-Bold-110"/>
    <use x="644.284271" xlink:href="#HelveticaNeue-Bold-100"/>
    <use x="705.384262" xlink:href="#HelveticaNeue-Bold-115"/>
   </g>
  </g>
 </g>
 <defs>
  <clipPath id="p17027a1d65">
   <rect height="144" width="144" x="32.7" y="28.9"/>
  </clipPath>
  <clipPath id="p2b593cf192">
   <rect height="144" width="144" x="199.2" y="28.9"/>
  </clipPath>
 </defs>
</svg>
