<?xml version="1.0" encoding="utf-8" standalone="no"?>
<!DOCTYPE svg PUBLIC "-//W3C//DTD SVG 1.1//EN"
  "http://www.w3.org/Graphics/SVG/1.1/DTD/svg11.dtd">
<!-- Created with matplotlib (https://matplotlib.org/) -->
<svg height="297.9pt" version="1.1" viewBox="0 0 273.6 297.9" width="273.6pt" xmlns="http://www.w3.org/2000/svg" xmlns:xlink="http://www.w3.org/1999/xlink">
 <defs>
  <style type="text/css">
*{stroke-linecap:butt;stroke-linejoin:round;}
  </style>
 </defs>
 <g id="figure_1">
  <g id="patch_1">
   <path d="M 0 297.9 
L 273.6 297.9 
L 273.6 0 
L 0 0 
z
" style="fill:#f2f2f2;"/>
  </g>
  <g id="axes_1">
   <g id="patch_2">
    <path d="M 34.7 128.7 
L 142.7 128.7 
L 142.7 20.7 
L 34.7 20.7 
z
" style="fill:#ffffff;"/>
   </g>
   <g id="matplotlib.axis_1">
    <g id="xtick_1">
     <g id="line2d_1">
      <path clip-path="url(#pc8535aa31b)" d="M 34.7 128.7 
L 34.7 20.7 
" style="fill:none;stroke:#000000;stroke-linecap:square;stroke-opacity:0.1;stroke-width:0.6;"/>
     </g>
     <g id="line2d_2">
      <defs>
       <path d="M 0 0 
L 0 4 
" id="m92e3593e7f" style="stroke:#000000;stroke-width:0.6;"/>
      </defs>
      <g>
       <use style="stroke:#000000;stroke-width:0.6;" x="34.7" xlink:href="#m92e3593e7f" y="128.7"/>
      </g>
     </g>
     <g id="text_1">
      <!-- 0 -->
      <defs>
       <path d="M 13.203125 34.90625 
Q 13.203125 37.5 13.25 40.640625 
Q 13.296875 43.796875 13.75 46.9375 
Q 14.203125 50.09375 15.046875 53.09375 
Q 15.90625 56.09375 17.546875 58.34375 
Q 19.203125 60.59375 21.703125 62 
Q 24.203125 63.40625 27.796875 63.40625 
Q 31.40625 63.40625 33.90625 62 
Q 36.40625 60.59375 38.046875 58.34375 
Q 39.703125 56.09375 40.546875 53.09375 
Q 41.40625 50.09375 41.84375 46.9375 
Q 42.296875 43.796875 42.34375 40.640625 
Q 42.40625 37.5 42.40625 34.90625 
Q 42.40625 30.90625 42.15625 25.953125 
Q 41.90625 21 40.546875 16.640625 
Q 39.203125 12.296875 36.203125 9.296875 
Q 33.203125 6.296875 27.796875 6.296875 
Q 22.40625 6.296875 19.40625 9.296875 
Q 16.40625 12.296875 15.046875 16.640625 
Q 13.703125 21 13.453125 25.953125 
Q 13.203125 30.90625 13.203125 34.90625 
z
M 4.203125 34.796875 
Q 4.203125 30.90625 4.390625 26.703125 
Q 4.59375 22.5 5.390625 18.5 
Q 6.203125 14.5 7.703125 10.953125 
Q 9.203125 7.40625 11.796875 4.703125 
Q 14.40625 2 18.34375 0.453125 
Q 22.296875 -1.09375 27.796875 -1.09375 
Q 33.40625 -1.09375 37.296875 0.453125 
Q 41.203125 2 43.796875 4.703125 
Q 46.40625 7.40625 47.90625 10.953125 
Q 49.40625 14.5 50.203125 18.5 
Q 51 22.5 51.203125 26.703125 
Q 51.40625 30.90625 51.40625 34.796875 
Q 51.40625 38.703125 51.203125 42.890625 
Q 51 47.09375 50.203125 51.09375 
Q 49.40625 55.09375 47.90625 58.6875 
Q 46.40625 62.296875 43.796875 65 
Q 41.203125 67.703125 37.25 69.296875 
Q 33.296875 70.90625 27.796875 70.90625 
Q 22.296875 70.90625 18.34375 69.296875 
Q 14.40625 67.703125 11.796875 65 
Q 9.203125 62.296875 7.703125 58.6875 
Q 6.203125 55.09375 5.390625 51.09375 
Q 4.59375 47.09375 4.390625 42.890625 
Q 4.203125 38.703125 4.203125 34.796875 
z
" id="HelveticaNeue-48"/>
      </defs>
      <g transform="translate(32.47625 140.4125)scale(0.08 -0.08)">
       <use xlink:href="#HelveticaNeue-48"/>
      </g>
     </g>
    </g>
    <g id="xtick_2">
     <g id="line2d_3">
      <path clip-path="url(#pc8535aa31b)" d="M 61.7 128.7 
L 61.7 20.7 
" style="fill:none;stroke:#000000;stroke-linecap:square;stroke-opacity:0.1;stroke-width:0.6;"/>
     </g>
     <g id="line2d_4">
      <g>
       <use style="stroke:#000000;stroke-width:0.6;" x="61.7" xlink:href="#m92e3593e7f" y="128.7"/>
      </g>
     </g>
     <g id="text_2">
      <!-- 0.25 -->
      <defs>
       <path d="M 8.296875 11.09375 
L 8.296875 0 
L 19.40625 0 
L 19.40625 11.09375 
z
" id="HelveticaNeue-46"/>
       <path d="M 4.40625 45.796875 
L 12.90625 45.796875 
Q 12.796875 49 13.546875 52.140625 
Q 14.296875 55.296875 16 57.796875 
Q 17.703125 60.296875 20.34375 61.84375 
Q 23 63.40625 26.703125 63.40625 
Q 29.5 63.40625 32 62.5 
Q 34.5 61.59375 36.34375 59.890625 
Q 38.203125 58.203125 39.296875 55.84375 
Q 40.40625 53.5 40.40625 50.59375 
Q 40.40625 46.90625 39.25 44.09375 
Q 38.09375 41.296875 35.84375 38.890625 
Q 33.59375 36.5 30.1875 34.140625 
Q 26.796875 31.796875 22.296875 29 
Q 18.59375 26.796875 15.1875 24.296875 
Q 11.796875 21.796875 9.09375 18.5 
Q 6.40625 15.203125 4.65625 10.75 
Q 2.90625 6.296875 2.40625 0 
L 48.703125 0 
L 48.703125 7.5 
L 12.296875 7.5 
Q 12.90625 10.796875 14.84375 13.34375 
Q 16.796875 15.90625 19.546875 18.09375 
Q 22.296875 20.296875 25.59375 22.25 
Q 28.90625 24.203125 32.203125 26.203125 
Q 35.5 28.296875 38.59375 30.59375 
Q 41.703125 32.90625 44.09375 35.75 
Q 46.5 38.59375 47.953125 42.1875 
Q 49.40625 45.796875 49.40625 50.5 
Q 49.40625 55.5 47.65625 59.296875 
Q 45.90625 63.09375 42.90625 65.640625 
Q 39.90625 68.203125 35.84375 69.546875 
Q 31.796875 70.90625 27.203125 70.90625 
Q 21.59375 70.90625 17.1875 69 
Q 12.796875 67.09375 9.84375 63.75 
Q 6.90625 60.40625 5.5 55.796875 
Q 4.09375 51.203125 4.40625 45.796875 
z
" id="HelveticaNeue-50"/>
       <path d="M 47 62.203125 
L 47 69.703125 
L 12 69.703125 
L 5.40625 32.90625 
L 12.703125 32.5 
Q 15.203125 35.5 18.453125 37.34375 
Q 21.703125 39.203125 25.90625 39.203125 
Q 29.5 39.203125 32.453125 38 
Q 35.40625 36.796875 37.5 34.640625 
Q 39.59375 32.5 40.75 29.546875 
Q 41.90625 26.59375 41.90625 23.09375 
Q 41.90625 18.90625 40.703125 15.75 
Q 39.5 12.59375 37.453125 10.5 
Q 35.40625 8.40625 32.65625 7.34375 
Q 29.90625 6.296875 26.90625 6.296875 
Q 23.703125 6.296875 21.046875 7.25 
Q 18.40625 8.203125 16.453125 9.953125 
Q 14.5 11.703125 13.34375 14.046875 
Q 12.203125 16.40625 12 19.09375 
L 3.5 19.09375 
Q 3.59375 14.296875 5.390625 10.5 
Q 7.203125 6.703125 10.296875 4.140625 
Q 13.40625 1.59375 17.453125 0.25 
Q 21.5 -1.09375 26.09375 -1.09375 
Q 32.296875 -1.09375 36.9375 0.84375 
Q 41.59375 2.796875 44.6875 6.09375 
Q 47.796875 9.40625 49.34375 13.65625 
Q 50.90625 17.90625 50.90625 22.40625 
Q 50.90625 28.5 49.09375 33.046875 
Q 47.296875 37.59375 44.1875 40.640625 
Q 41.09375 43.703125 36.890625 45.203125 
Q 32.703125 46.703125 28 46.703125 
Q 24.40625 46.703125 20.75 45.453125 
Q 17.09375 44.203125 14.796875 41.59375 
L 14.59375 41.796875 
L 18.40625 62.203125 
z
" id="HelveticaNeue-53"/>
      </defs>
      <g transform="translate(53.916875 140.4125)scale(0.08 -0.08)">
       <use xlink:href="#HelveticaNeue-48"/>
       <use x="55.599991" xlink:href="#HelveticaNeue-46"/>
       <use x="83.399979" xlink:href="#HelveticaNeue-50"/>
       <use x="138.999969" xlink:href="#HelveticaNeue-53"/>
      </g>
     </g>
    </g>
    <g id="xtick_3">
     <g id="line2d_5">
      <path clip-path="url(#pc8535aa31b)" d="M 88.7 128.7 
L 88.7 20.7 
" style="fill:none;stroke:#000000;stroke-linecap:square;stroke-opacity:0.1;stroke-width:0.6;"/>
     </g>
     <g id="line2d_6">
      <g>
       <use style="stroke:#000000;stroke-width:0.6;" x="88.7" xlink:href="#m92e3593e7f" y="128.7"/>
      </g>
     </g>
     <g id="text_3">
      <!-- 0.5 -->
      <g transform="translate(83.140625 140.4125)scale(0.08 -0.08)">
       <use xlink:href="#HelveticaNeue-48"/>
       <use x="55.599991" xlink:href="#HelveticaNeue-46"/>
       <use x="83.399979" xlink:href="#HelveticaNeue-53"/>
      </g>
     </g>
    </g>
    <g id="xtick_4">
     <g id="line2d_7">
      <path clip-path="url(#pc8535aa31b)" d="M 115.7 128.7 
L 115.7 20.7 
" style="fill:none;stroke:#000000;stroke-linecap:square;stroke-opacity:0.1;stroke-width:0.6;"/>
     </g>
     <g id="line2d_8">
      <g>
       <use style="stroke:#000000;stroke-width:0.6;" x="115.7" xlink:href="#m92e3593e7f" y="128.7"/>
      </g>
     </g>
     <g id="text_4">
      <!-- 0.75 -->
      <defs>
       <path d="M 50.90625 62.40625 
L 50.90625 69.703125 
L 5 69.703125 
L 5 61.703125 
L 42.203125 61.703125 
Q 36.59375 55.796875 31.75 48.796875 
Q 26.90625 41.796875 23.203125 33.9375 
Q 19.5 26.09375 17.140625 17.546875 
Q 14.796875 9 14.203125 0 
L 23.703125 0 
Q 24.203125 8.296875 26.5 17.09375 
Q 28.796875 25.90625 32.4375 34.203125 
Q 36.09375 42.5 40.796875 49.796875 
Q 45.5 57.09375 50.90625 62.40625 
z
" id="HelveticaNeue-55"/>
      </defs>
      <g transform="translate(107.916875 140.4125)scale(0.08 -0.08)">
       <use xlink:href="#HelveticaNeue-48"/>
       <use x="55.599991" xlink:href="#HelveticaNeue-46"/>
       <use x="83.399979" xlink:href="#HelveticaNeue-55"/>
       <use x="138.999969" xlink:href="#HelveticaNeue-53"/>
      </g>
     </g>
    </g>
    <g id="xtick_5">
     <g id="line2d_9">
      <path clip-path="url(#pc8535aa31b)" d="M 142.7 128.7 
L 142.7 20.7 
" style="fill:none;stroke:#000000;stroke-linecap:square;stroke-opacity:0.1;stroke-width:0.6;"/>
     </g>
     <g id="line2d_10">
      <g>
       <use style="stroke:#000000;stroke-width:0.6;" x="142.7" xlink:href="#m92e3593e7f" y="128.7"/>
      </g>
     </g>
     <g id="text_5">
      <!-- 1 -->
      <defs>
       <path d="M 35.59375 0 
L 35.59375 70.90625 
L 29.09375 70.90625 
Q 28.40625 66.90625 26.5 64.296875 
Q 24.59375 61.703125 21.84375 60.203125 
Q 19.09375 58.703125 15.6875 58.140625 
Q 12.296875 57.59375 8.703125 57.59375 
L 8.703125 50.796875 
L 27.09375 50.796875 
L 27.09375 0 
z
" id="HelveticaNeue-49"/>
      </defs>
      <g transform="translate(140.47625 140.4125)scale(0.08 -0.08)">
       <use xlink:href="#HelveticaNeue-49"/>
      </g>
     </g>
    </g>
    <g id="xtick_6">
     <g id="line2d_11">
      <defs>
       <path d="M 0 0 
L 0 2 
" id="m7a3e9efd02" style="stroke:#000000;stroke-width:0.48;"/>
      </defs>
      <g>
       <use style="stroke:#000000;stroke-width:0.48;" x="40.1" xlink:href="#m7a3e9efd02" y="128.7"/>
      </g>
     </g>
    </g>
    <g id="xtick_7">
     <g id="line2d_12">
      <g>
       <use style="stroke:#000000;stroke-width:0.48;" x="45.5" xlink:href="#m7a3e9efd02" y="128.7"/>
      </g>
     </g>
    </g>
    <g id="xtick_8">
     <g id="line2d_13">
      <g>
       <use style="stroke:#000000;stroke-width:0.48;" x="50.9" xlink:href="#m7a3e9efd02" y="128.7"/>
      </g>
     </g>
    </g>
    <g id="xtick_9">
     <g id="line2d_14">
      <g>
       <use style="stroke:#000000;stroke-width:0.48;" x="56.3" xlink:href="#m7a3e9efd02" y="128.7"/>
      </g>
     </g>
    </g>
    <g id="xtick_10">
     <g id="line2d_15">
      <g>
       <use style="stroke:#000000;stroke-width:0.48;" x="67.1" xlink:href="#m7a3e9efd02" y="128.7"/>
      </g>
     </g>
    </g>
    <g id="xtick_11">
     <g id="line2d_16">
      <g>
       <use style="stroke:#000000;stroke-width:0.48;" x="72.5" xlink:href="#m7a3e9efd02" y="128.7"/>
      </g>
     </g>
    </g>
    <g id="xtick_12">
     <g id="line2d_17">
      <g>
       <use style="stroke:#000000;stroke-width:0.48;" x="77.9" xlink:href="#m7a3e9efd02" y="128.7"/>
      </g>
     </g>
    </g>
    <g id="xtick_13">
     <g id="line2d_18">
      <g>
       <use style="stroke:#000000;stroke-width:0.48;" x="83.3" xlink:href="#m7a3e9efd02" y="128.7"/>
      </g>
     </g>
    </g>
    <g id="xtick_14">
     <g id="line2d_19">
      <g>
       <use style="stroke:#000000;stroke-width:0.48;" x="94.1" xlink:href="#m7a3e9efd02" y="128.7"/>
      </g>
     </g>
    </g>
    <g id="xtick_15">
     <g id="line2d_20">
      <g>
       <use style="stroke:#000000;stroke-width:0.48;" x="99.5" xlink:href="#m7a3e9efd02" y="128.7"/>
      </g>
     </g>
    </g>
    <g id="xtick_16">
     <g id="line2d_21">
      <g>
       <use style="stroke:#000000;stroke-width:0.48;" x="104.9" xlink:href="#m7a3e9efd02" y="128.7"/>
      </g>
     </g>
    </g>
    <g id="xtick_17">
     <g id="line2d_22">
      <g>
       <use style="stroke:#000000;stroke-width:0.48;" x="110.3" xlink:href="#m7a3e9efd02" y="128.7"/>
      </g>
     </g>
    </g>
    <g id="xtick_18">
     <g id="line2d_23">
      <g>
       <use style="stroke:#000000;stroke-width:0.48;" x="121.1" xlink:href="#m7a3e9efd02" y="128.7"/>
      </g>
     </g>
    </g>
    <g id="xtick_19">
     <g id="line2d_24">
      <g>
       <use style="stroke:#000000;stroke-width:0.48;" x="126.5" xlink:href="#m7a3e9efd02" y="128.7"/>
      </g>
     </g>
    </g>
    <g id="xtick_20">
     <g id="line2d_25">
      <g>
       <use style="stroke:#000000;stroke-width:0.48;" x="131.9" xlink:href="#m7a3e9efd02" y="128.7"/>
      </g>
     </g>
    </g>
    <g id="xtick_21">
     <g id="line2d_26">
      <g>
       <use style="stroke:#000000;stroke-width:0.48;" x="137.3" xlink:href="#m7a3e9efd02" y="128.7"/>
      </g>
     </g>
    </g>
    <g id="text_6">
     <!-- xlabel -->
     <defs>
      <path d="M 20.296875 27.203125 
L 0.90625 0 
L 11.203125 0 
L 25.59375 21.40625 
L 40 0 
L 50.90625 0 
L 30.90625 27.90625 
L 48.703125 51.703125 
L 38.5 51.703125 
L 25.59375 33.59375 
L 13.203125 51.703125 
L 2.296875 51.703125 
z
" id="HelveticaNeue-120"/>
      <path d="M 6.90625 71.40625 
L 6.90625 0 
L 15.40625 0 
L 15.40625 71.40625 
z
" id="HelveticaNeue-108"/>
      <path d="M 52.203125 0.203125 
Q 50 -1.09375 46.09375 -1.09375 
Q 42.796875 -1.09375 40.84375 0.75 
Q 38.90625 2.59375 38.90625 6.796875 
Q 35.40625 2.59375 30.75 0.75 
Q 26.09375 -1.09375 20.703125 -1.09375 
Q 17.203125 -1.09375 14.046875 -0.296875 
Q 10.90625 0.5 8.59375 2.203125 
Q 6.296875 3.90625 4.9375 6.65625 
Q 3.59375 9.40625 3.59375 13.296875 
Q 3.59375 17.703125 5.09375 20.5 
Q 6.59375 23.296875 9.046875 25.046875 
Q 11.5 26.796875 14.640625 27.6875 
Q 17.796875 28.59375 21.09375 29.203125 
Q 24.59375 29.90625 27.75 30.25 
Q 30.90625 30.59375 33.296875 31.25 
Q 35.703125 31.90625 37.09375 33.15625 
Q 38.5 34.40625 38.5 36.796875 
Q 38.5 39.59375 37.453125 41.296875 
Q 36.40625 43 34.75 43.890625 
Q 33.09375 44.796875 31.046875 45.09375 
Q 29 45.40625 27 45.40625 
Q 21.59375 45.40625 18 43.34375 
Q 14.40625 41.296875 14.09375 35.59375 
L 5.59375 35.59375 
Q 5.796875 40.40625 7.59375 43.703125 
Q 9.40625 47 12.40625 49.046875 
Q 15.40625 51.09375 19.25 52 
Q 23.09375 52.90625 27.5 52.90625 
Q 31 52.90625 34.453125 52.40625 
Q 37.90625 51.90625 40.703125 50.34375 
Q 43.5 48.796875 45.203125 46 
Q 46.90625 43.203125 46.90625 38.703125 
L 46.90625 12.09375 
Q 46.90625 9.09375 47.25 7.6875 
Q 47.59375 6.296875 49.59375 6.296875 
Q 50.703125 6.296875 52.203125 6.796875 
z
M 38.40625 26.703125 
Q 36.796875 25.5 34.1875 24.953125 
Q 31.59375 24.40625 28.75 24.046875 
Q 25.90625 23.703125 23 23.25 
Q 20.09375 22.796875 17.796875 21.796875 
Q 15.5 20.796875 14.046875 18.9375 
Q 12.59375 17.09375 12.59375 13.90625 
Q 12.59375 11.796875 13.4375 10.34375 
Q 14.296875 8.90625 15.640625 8 
Q 17 7.09375 18.796875 6.6875 
Q 20.59375 6.296875 22.59375 6.296875 
Q 26.796875 6.296875 29.796875 7.4375 
Q 32.796875 8.59375 34.6875 10.34375 
Q 36.59375 12.09375 37.5 14.140625 
Q 38.40625 16.203125 38.40625 18 
z
" id="HelveticaNeue-97"/>
      <path d="M 6.703125 71.40625 
L 6.703125 0 
L 15.203125 0 
L 15.203125 6.90625 
L 15.40625 6.90625 
Q 16.796875 4.59375 18.84375 3.046875 
Q 20.90625 1.5 23.203125 0.59375 
Q 25.5 -0.296875 27.84375 -0.6875 
Q 30.203125 -1.09375 32.09375 -1.09375 
Q 38 -1.09375 42.453125 1 
Q 46.90625 3.09375 49.84375 6.75 
Q 52.796875 10.40625 54.25 15.296875 
Q 55.703125 20.203125 55.703125 25.703125 
Q 55.703125 31.203125 54.203125 36.09375 
Q 52.703125 41 49.75 44.75 
Q 46.796875 48.5 42.34375 50.703125 
Q 37.90625 52.90625 31.90625 52.90625 
Q 26.5 52.90625 22 50.953125 
Q 17.5 49 15.40625 44.703125 
L 15.203125 44.703125 
L 15.203125 71.40625 
z
M 46.703125 26.296875 
Q 46.703125 22.5 45.890625 18.890625 
Q 45.09375 15.296875 43.296875 12.5 
Q 41.5 9.703125 38.546875 8 
Q 35.59375 6.296875 31.203125 6.296875 
Q 26.796875 6.296875 23.6875 7.9375 
Q 20.59375 9.59375 18.640625 12.296875 
Q 16.703125 15 15.796875 18.546875 
Q 14.90625 22.09375 14.90625 25.90625 
Q 14.90625 29.5 15.75 33 
Q 16.59375 36.5 18.5 39.25 
Q 20.40625 42 23.40625 43.703125 
Q 26.40625 45.40625 30.703125 45.40625 
Q 34.796875 45.40625 37.84375 43.796875 
Q 40.90625 42.203125 42.84375 39.5 
Q 44.796875 36.796875 45.75 33.34375 
Q 46.703125 29.90625 46.703125 26.296875 
z
" id="HelveticaNeue-98"/>
      <path d="M 42.296875 30.796875 
L 12.59375 30.796875 
Q 12.796875 33.796875 13.890625 36.4375 
Q 15 39.09375 16.890625 41.09375 
Q 18.796875 43.09375 21.4375 44.25 
Q 24.09375 45.40625 27.40625 45.40625 
Q 30.59375 45.40625 33.25 44.25 
Q 35.90625 43.09375 37.84375 41.140625 
Q 39.796875 39.203125 40.9375 36.5 
Q 42.09375 33.796875 42.296875 30.796875 
z
M 50.5 16.40625 
L 42.09375 16.40625 
Q 41 11.296875 37.546875 8.796875 
Q 34.09375 6.296875 28.703125 6.296875 
Q 24.5 6.296875 21.390625 7.6875 
Q 18.296875 9.09375 16.296875 11.4375 
Q 14.296875 13.796875 13.390625 16.84375 
Q 12.5 19.90625 12.59375 23.296875 
L 51.296875 23.296875 
Q 51.5 28 50.453125 33.203125 
Q 49.40625 38.40625 46.65625 42.796875 
Q 43.90625 47.203125 39.34375 50.046875 
Q 34.796875 52.90625 27.90625 52.90625 
Q 22.59375 52.90625 18.140625 50.90625 
Q 13.703125 48.90625 10.453125 45.296875 
Q 7.203125 41.703125 5.390625 36.796875 
Q 3.59375 31.90625 3.59375 26 
Q 3.796875 20.09375 5.34375 15.09375 
Q 6.90625 10.09375 10 6.5 
Q 13.09375 2.90625 17.640625 0.90625 
Q 22.203125 -1.09375 28.40625 -1.09375 
Q 37.203125 -1.09375 43 3.296875 
Q 48.796875 7.703125 50.5 16.40625 
z
" id="HelveticaNeue-101"/>
     </defs>
     <g transform="translate(138.90875 150.70125)scale(0.08 -0.08)">
      <use xlink:href="#HelveticaNeue-120"/>
      <use x="51.799988" xlink:href="#HelveticaNeue-108"/>
      <use x="73.999985" xlink:href="#HelveticaNeue-97"/>
      <use x="127.699982" xlink:href="#HelveticaNeue-98"/>
      <use x="186.999969" xlink:href="#HelveticaNeue-101"/>
      <use x="240.699966" xlink:href="#HelveticaNeue-108"/>
     </g>
    </g>
   </g>
   <g id="matplotlib.axis_2">
    <g id="ytick_1">
     <g id="line2d_27">
      <path clip-path="url(#pc8535aa31b)" d="M 34.7 128.7 
L 142.7 128.7 
" style="fill:none;stroke:#000000;stroke-linecap:square;stroke-opacity:0.1;stroke-width:0.6;"/>
     </g>
     <g id="line2d_28">
      <defs>
       <path d="M 0 0 
L -4 0 
" id="m24e3b31e37" style="stroke:#000000;stroke-width:0.6;"/>
      </defs>
      <g>
       <use style="stroke:#000000;stroke-width:0.6;" x="34.7" xlink:href="#m24e3b31e37" y="128.7"/>
      </g>
     </g>
     <g id="text_7">
      <!-- 0 -->
      <g transform="translate(24.2525 131.55625)scale(0.08 -0.08)">
       <use xlink:href="#HelveticaNeue-48"/>
      </g>
     </g>
    </g>
    <g id="ytick_2">
     <g id="line2d_29">
      <path clip-path="url(#pc8535aa31b)" d="M 34.7 107.1 
L 142.7 107.1 
" style="fill:none;stroke:#000000;stroke-linecap:square;stroke-opacity:0.1;stroke-width:0.6;"/>
     </g>
     <g id="line2d_30">
      <g>
       <use style="stroke:#000000;stroke-width:0.6;" x="34.7" xlink:href="#m24e3b31e37" y="107.1"/>
      </g>
     </g>
     <g id="text_8">
      <!-- 0.2 -->
      <g transform="translate(17.58125 109.95625)scale(0.08 -0.08)">
       <use xlink:href="#HelveticaNeue-48"/>
       <use x="55.599991" xlink:href="#HelveticaNeue-46"/>
       <use x="83.399979" xlink:href="#HelveticaNeue-50"/>
      </g>
     </g>
    </g>
    <g id="ytick_3">
     <g id="line2d_31">
      <path clip-path="url(#pc8535aa31b)" d="M 34.7 85.5 
L 142.7 85.5 
" style="fill:none;stroke:#000000;stroke-linecap:square;stroke-opacity:0.1;stroke-width:0.6;"/>
     </g>
     <g id="line2d_32">
      <g>
       <use style="stroke:#000000;stroke-width:0.6;" x="34.7" xlink:href="#m24e3b31e37" y="85.5"/>
      </g>
     </g>
     <g id="text_9">
      <!-- 0.4 -->
      <defs>
       <path d="M 33.90625 24.09375 
L 10.09375 24.09375 
L 33.703125 58.796875 
L 33.90625 58.796875 
z
M 41.90625 24.09375 
L 41.90625 70.90625 
L 35.09375 70.90625 
L 2.796875 24.796875 
L 2.796875 16.59375 
L 33.90625 16.59375 
L 33.90625 0 
L 41.90625 0 
L 41.90625 16.59375 
L 51.5 16.59375 
L 51.5 24.09375 
z
" id="HelveticaNeue-52"/>
      </defs>
      <g transform="translate(17.58125 88.35625)scale(0.08 -0.08)">
       <use xlink:href="#HelveticaNeue-48"/>
       <use x="55.599991" xlink:href="#HelveticaNeue-46"/>
       <use x="83.399979" xlink:href="#HelveticaNeue-52"/>
      </g>
     </g>
    </g>
    <g id="ytick_4">
     <g id="line2d_33">
      <path clip-path="url(#pc8535aa31b)" d="M 34.7 63.9 
L 142.7 63.9 
" style="fill:none;stroke:#000000;stroke-linecap:square;stroke-opacity:0.1;stroke-width:0.6;"/>
     </g>
     <g id="line2d_34">
      <g>
       <use style="stroke:#000000;stroke-width:0.6;" x="34.7" xlink:href="#m24e3b31e37" y="63.9"/>
      </g>
     </g>
     <g id="text_10">
      <!-- 0.6 -->
      <defs>
       <path d="M 41.40625 52.796875 
L 49.90625 52.796875 
Q 49.09375 61.59375 43.890625 66.25 
Q 38.703125 70.90625 29.90625 70.90625 
Q 22.296875 70.90625 17.296875 67.703125 
Q 12.296875 64.5 9.296875 59.203125 
Q 6.296875 53.90625 5.046875 47.046875 
Q 3.796875 40.203125 3.796875 32.90625 
Q 3.796875 27.296875 4.640625 21.296875 
Q 5.5 15.296875 8.09375 10.296875 
Q 10.703125 5.296875 15.5 2.09375 
Q 20.296875 -1.09375 28.203125 -1.09375 
Q 34.90625 -1.09375 39.453125 1.15625 
Q 44 3.40625 46.75 6.84375 
Q 49.5 10.296875 50.703125 14.5 
Q 51.90625 18.703125 51.90625 22.59375 
Q 51.90625 27.5 50.40625 31.703125 
Q 48.90625 35.90625 46.15625 39 
Q 43.40625 42.09375 39.34375 43.84375 
Q 35.296875 45.59375 30.203125 45.59375 
Q 24.40625 45.59375 19.953125 43.390625 
Q 15.5 41.203125 12.5 36.296875 
L 12.296875 36.5 
Q 12.40625 40.59375 13.09375 45.296875 
Q 13.796875 50 15.640625 54.046875 
Q 17.5 58.09375 20.796875 60.75 
Q 24.09375 63.40625 29.5 63.40625 
Q 34.59375 63.40625 37.6875 60.5 
Q 40.796875 57.59375 41.40625 52.796875 
z
M 28.59375 38.09375 
Q 32.203125 38.09375 34.890625 36.796875 
Q 37.59375 35.5 39.390625 33.34375 
Q 41.203125 31.203125 42.046875 28.25 
Q 42.90625 25.296875 42.90625 22 
Q 42.90625 18.90625 41.953125 16.046875 
Q 41 13.203125 39.203125 11 
Q 37.40625 8.796875 34.75 7.546875 
Q 32.09375 6.296875 28.59375 6.296875 
Q 25.09375 6.296875 22.34375 7.546875 
Q 19.59375 8.796875 17.75 10.890625 
Q 15.90625 13 14.90625 15.890625 
Q 13.90625 18.796875 13.90625 22.09375 
Q 13.90625 25.40625 14.84375 28.34375 
Q 15.796875 31.296875 17.6875 33.4375 
Q 19.59375 35.59375 22.296875 36.84375 
Q 25 38.09375 28.59375 38.09375 
z
" id="HelveticaNeue-54"/>
      </defs>
      <g transform="translate(17.58125 66.75625)scale(0.08 -0.08)">
       <use xlink:href="#HelveticaNeue-48"/>
       <use x="55.599991" xlink:href="#HelveticaNeue-46"/>
       <use x="83.399979" xlink:href="#HelveticaNeue-54"/>
      </g>
     </g>
    </g>
    <g id="ytick_5">
     <g id="line2d_35">
      <path clip-path="url(#pc8535aa31b)" d="M 34.7 42.3 
L 142.7 42.3 
" style="fill:none;stroke:#000000;stroke-linecap:square;stroke-opacity:0.1;stroke-width:0.6;"/>
     </g>
     <g id="line2d_36">
      <g>
       <use style="stroke:#000000;stroke-width:0.6;" x="34.7" xlink:href="#m24e3b31e37" y="42.3"/>
      </g>
     </g>
     <g id="text_11">
      <!-- 0.8 -->
      <defs>
       <path d="M 15.5 52.5 
Q 15.5 55.203125 16.5 57.203125 
Q 17.5 59.203125 19.140625 60.59375 
Q 20.796875 62 23.09375 62.703125 
Q 25.40625 63.40625 27.90625 63.40625 
Q 33.09375 63.40625 36.4375 60.65625 
Q 39.796875 57.90625 39.796875 52.5 
Q 39.796875 47.09375 36.5 44.09375 
Q 33.203125 41.09375 28.09375 41.09375 
Q 25.5 41.09375 23.203125 41.796875 
Q 20.90625 42.5 19.203125 43.890625 
Q 17.5 45.296875 16.5 47.4375 
Q 15.5 49.59375 15.5 52.5 
z
M 6.5 52.796875 
Q 6.5 48 9.203125 43.953125 
Q 11.90625 39.90625 16.40625 38.09375 
Q 10.40625 36 7.203125 31.34375 
Q 4 26.703125 4 20.40625 
Q 4 15 5.84375 10.953125 
Q 7.703125 6.90625 10.953125 4.203125 
Q 14.203125 1.5 18.59375 0.203125 
Q 23 -1.09375 28.09375 -1.09375 
Q 33 -1.09375 37.296875 0.296875 
Q 41.59375 1.703125 44.75 4.453125 
Q 47.90625 7.203125 49.75 11.203125 
Q 51.59375 15.203125 51.59375 20.40625 
Q 51.59375 27 48.5 31.546875 
Q 45.40625 36.09375 39 38.09375 
Q 43.5 40.09375 46.140625 44.046875 
Q 48.796875 48 48.796875 52.796875 
Q 48.796875 56.203125 47.59375 59.453125 
Q 46.40625 62.703125 43.84375 65.25 
Q 41.296875 67.796875 37.1875 69.34375 
Q 33.09375 70.90625 27.296875 70.90625 
Q 23.203125 70.90625 19.453125 69.703125 
Q 15.703125 68.5 12.796875 66.203125 
Q 9.90625 63.90625 8.203125 60.546875 
Q 6.5 57.203125 6.5 52.796875 
z
M 13 20 
Q 13 23.09375 14.140625 25.59375 
Q 15.296875 28.09375 17.34375 29.890625 
Q 19.40625 31.703125 22.15625 32.640625 
Q 24.90625 33.59375 28 33.59375 
Q 31 33.59375 33.640625 32.546875 
Q 36.296875 31.5 38.296875 29.703125 
Q 40.296875 27.90625 41.4375 25.453125 
Q 42.59375 23 42.59375 20.09375 
Q 42.59375 17.09375 41.546875 14.59375 
Q 40.5 12.09375 38.546875 10.25 
Q 36.59375 8.40625 33.9375 7.34375 
Q 31.296875 6.296875 28.09375 6.296875 
Q 21.5 6.296875 17.25 9.9375 
Q 13 13.59375 13 20 
z
" id="HelveticaNeue-56"/>
      </defs>
      <g transform="translate(17.58125 45.15625)scale(0.08 -0.08)">
       <use xlink:href="#HelveticaNeue-48"/>
       <use x="55.599991" xlink:href="#HelveticaNeue-46"/>
       <use x="83.399979" xlink:href="#HelveticaNeue-56"/>
      </g>
     </g>
    </g>
    <g id="ytick_6">
     <g id="line2d_37">
      <path clip-path="url(#pc8535aa31b)" d="M 34.7 20.7 
L 142.7 20.7 
" style="fill:none;stroke:#000000;stroke-linecap:square;stroke-opacity:0.1;stroke-width:0.6;"/>
     </g>
     <g id="line2d_38">
      <g>
       <use style="stroke:#000000;stroke-width:0.6;" x="34.7" xlink:href="#m24e3b31e37" y="20.7"/>
      </g>
     </g>
     <g id="text_12">
      <!-- 1 -->
      <g transform="translate(24.2525 23.55625)scale(0.08 -0.08)">
       <use xlink:href="#HelveticaNeue-49"/>
      </g>
     </g>
    </g>
    <g id="ytick_7">
     <g id="line2d_39">
      <defs>
       <path d="M 0 0 
L -2 0 
" id="md6056a5a44" style="stroke:#000000;stroke-width:0.48;"/>
      </defs>
      <g>
       <use style="stroke:#000000;stroke-width:0.48;" x="34.7" xlink:href="#md6056a5a44" y="123.3"/>
      </g>
     </g>
    </g>
    <g id="ytick_8">
     <g id="line2d_40">
      <g>
       <use style="stroke:#000000;stroke-width:0.48;" x="34.7" xlink:href="#md6056a5a44" y="117.9"/>
      </g>
     </g>
    </g>
    <g id="ytick_9">
     <g id="line2d_41">
      <g>
       <use style="stroke:#000000;stroke-width:0.48;" x="34.7" xlink:href="#md6056a5a44" y="112.5"/>
      </g>
     </g>
    </g>
    <g id="ytick_10">
     <g id="line2d_42">
      <g>
       <use style="stroke:#000000;stroke-width:0.48;" x="34.7" xlink:href="#md6056a5a44" y="101.7"/>
      </g>
     </g>
    </g>
    <g id="ytick_11">
     <g id="line2d_43">
      <g>
       <use style="stroke:#000000;stroke-width:0.48;" x="34.7" xlink:href="#md6056a5a44" y="96.3"/>
      </g>
     </g>
    </g>
    <g id="ytick_12">
     <g id="line2d_44">
      <g>
       <use style="stroke:#000000;stroke-width:0.48;" x="34.7" xlink:href="#md6056a5a44" y="90.9"/>
      </g>
     </g>
    </g>
    <g id="ytick_13">
     <g id="line2d_45">
      <g>
       <use style="stroke:#000000;stroke-width:0.48;" x="34.7" xlink:href="#md6056a5a44" y="80.1"/>
      </g>
     </g>
    </g>
    <g id="ytick_14">
     <g id="line2d_46">
      <g>
       <use style="stroke:#000000;stroke-width:0.48;" x="34.7" xlink:href="#md6056a5a44" y="74.7"/>
      </g>
     </g>
    </g>
    <g id="ytick_15">
     <g id="line2d_47">
      <g>
       <use style="stroke:#000000;stroke-width:0.48;" x="34.7" xlink:href="#md6056a5a44" y="69.3"/>
      </g>
     </g>
    </g>
    <g id="ytick_16">
     <g id="line2d_48">
      <g>
       <use style="stroke:#000000;stroke-width:0.48;" x="34.7" xlink:href="#md6056a5a44" y="58.5"/>
      </g>
     </g>
    </g>
    <g id="ytick_17">
     <g id="line2d_49">
      <g>
       <use style="stroke:#000000;stroke-width:0.48;" x="34.7" xlink:href="#md6056a5a44" y="53.1"/>
      </g>
     </g>
    </g>
    <g id="ytick_18">
     <g id="line2d_50">
      <g>
       <use style="stroke:#000000;stroke-width:0.48;" x="34.7" xlink:href="#md6056a5a44" y="47.7"/>
      </g>
     </g>
    </g>
    <g id="ytick_19">
     <g id="line2d_51">
      <g>
       <use style="stroke:#000000;stroke-width:0.48;" x="34.7" xlink:href="#md6056a5a44" y="36.9"/>
      </g>
     </g>
    </g>
    <g id="ytick_20">
     <g id="line2d_52">
      <g>
       <use style="stroke:#000000;stroke-width:0.48;" x="34.7" xlink:href="#md6056a5a44" y="31.5"/>
      </g>
     </g>
    </g>
    <g id="ytick_21">
     <g id="line2d_53">
      <g>
       <use style="stroke:#000000;stroke-width:0.48;" x="34.7" xlink:href="#md6056a5a44" y="26.1"/>
      </g>
     </g>
    </g>
    <g id="text_13">
     <!-- ylabel -->
     <defs>
      <path d="M 26.703125 -6.90625 
Q 25.203125 -10.703125 23.75 -13.296875 
Q 22.296875 -15.90625 20.546875 -17.546875 
Q 18.796875 -19.203125 16.640625 -19.953125 
Q 14.5 -20.703125 11.703125 -20.703125 
Q 10.203125 -20.703125 8.703125 -20.5 
Q 7.203125 -20.296875 5.796875 -19.796875 
L 5.796875 -12 
Q 6.90625 -12.5 8.34375 -12.84375 
Q 9.796875 -13.203125 10.796875 -13.203125 
Q 13.40625 -13.203125 15.15625 -11.953125 
Q 16.90625 -10.703125 17.796875 -8.40625 
L 21.296875 0.296875 
L 0.796875 51.703125 
L 10.40625 51.703125 
L 25.5 9.40625 
L 25.703125 9.40625 
L 40.203125 51.703125 
L 49.203125 51.703125 
z
" id="HelveticaNeue-121"/>
     </defs>
     <g transform="translate(12.925 85.144375)rotate(-90)scale(0.08 -0.08)">
      <use xlink:href="#HelveticaNeue-121"/>
      <use x="49.999985" xlink:href="#HelveticaNeue-108"/>
      <use x="72.199982" xlink:href="#HelveticaNeue-97"/>
      <use x="125.899979" xlink:href="#HelveticaNeue-98"/>
      <use x="185.199966" xlink:href="#HelveticaNeue-101"/>
      <use x="238.899963" xlink:href="#HelveticaNeue-108"/>
     </g>
    </g>
   </g>
   <g id="patch_3">
    <path d="M 34.7 128.7 
L 34.7 20.7 
" style="fill:none;stroke:#000000;stroke-linecap:square;stroke-linejoin:miter;stroke-width:0.6;"/>
   </g>
   <g id="patch_4">
    <path d="M 142.7 128.7 
L 142.7 20.7 
" style="fill:none;stroke:#000000;stroke-linecap:square;stroke-linejoin:miter;stroke-width:0.6;"/>
   </g>
   <g id="patch_5">
    <path d="M 34.7 128.7 
L 142.7 128.7 
" style="fill:none;stroke:#000000;stroke-linecap:square;stroke-linejoin:miter;stroke-width:0.6;"/>
   </g>
   <g id="patch_6">
    <path d="M 34.7 20.7 
L 142.7 20.7 
" style="fill:none;stroke:#000000;stroke-linecap:square;stroke-linejoin:miter;stroke-width:0.6;"/>
   </g>
   <g id="text_14">
    <path d="M 39.631719 28.404844 
Q 39.658438 27.954844 39.856719 27.658125 
Q 40.055 27.36 40.360156 27.18 
Q 40.666719 27 41.049219 26.924062 
Q 41.431719 26.848125 41.818438 26.848125 
Q 42.17 26.848125 42.53 26.897344 
Q 42.89 26.946562 43.186719 27.091406 
Q 43.483438 27.234844 43.671875 27.492187 
Q 43.861719 27.748125 43.861719 28.17 
L 43.861719 30.591562 
Q 43.861719 30.906562 43.896875 31.194844 
Q 43.933438 31.483125 44.023438 31.626562 
L 42.728281 31.626562 
Q 42.691719 31.518281 42.669219 31.405781 
Q 42.646719 31.293281 42.638281 31.176562 
Q 42.331719 31.491562 41.916875 31.618125 
Q 41.503438 31.743281 41.071719 31.743281 
Q 40.738438 31.743281 40.450156 31.661719 
Q 40.163281 31.581562 39.946719 31.411406 
Q 39.731563 31.239844 39.609219 30.979687 
Q 39.488281 30.718125 39.488281 30.358125 
Q 39.488281 29.961562 39.6275 29.705625 
Q 39.766719 29.448281 39.9875 29.296406 
Q 40.208281 29.143125 40.490938 29.067187 
Q 40.775 28.989844 41.063281 28.944844 
Q 41.351562 28.899844 41.63 28.873125 
Q 41.908438 28.845 42.125 28.791562 
Q 42.341563 28.738125 42.466719 28.634062 
Q 42.593281 28.53 42.583438 28.333125 
Q 42.583438 28.125 42.515937 28.004062 
Q 42.448438 27.883125 42.335938 27.815625 
Q 42.223438 27.748125 42.074375 27.725625 
Q 41.926719 27.703125 41.756563 27.703125 
Q 41.378281 27.703125 41.161719 27.864844 
Q 40.946563 28.026562 40.91 28.404844 
z
M 42.583438 29.349844 
Q 42.503281 29.421562 42.380938 29.462344 
Q 42.26 29.503125 42.120781 29.529844 
Q 41.981563 29.556562 41.828281 29.574844 
Q 41.675 29.593125 41.521719 29.619844 
Q 41.378281 29.646562 41.237656 29.691562 
Q 41.098438 29.736562 40.994375 29.813906 
Q 40.891719 29.889844 40.828437 30.006562 
Q 40.766563 30.123281 40.766563 30.303281 
Q 40.766563 30.474844 40.828437 30.591562 
Q 40.891719 30.708281 41 30.775781 
Q 41.108281 30.843281 41.251719 30.871406 
Q 41.396563 30.898125 41.548438 30.898125 
Q 41.926719 30.898125 42.133437 30.771562 
Q 42.341563 30.645 42.44 30.470625 
Q 42.538438 30.294844 42.560938 30.114844 
Q 42.583438 29.934844 42.583438 29.826562 
z
" style="stroke:#ffffff;stroke-linejoin:miter;stroke-width:1.5;"/>
    <path d="M 39.631719 28.404844 
Q 39.658438 27.954844 39.856719 27.658125 
Q 40.055 27.36 40.360156 27.18 
Q 40.666719 27 41.049219 26.924062 
Q 41.431719 26.848125 41.818438 26.848125 
Q 42.17 26.848125 42.53 26.897344 
Q 42.89 26.946562 43.186719 27.091406 
Q 43.483438 27.234844 43.671875 27.492187 
Q 43.861719 27.748125 43.861719 28.17 
L 43.861719 30.591562 
Q 43.861719 30.906562 43.896875 31.194844 
Q 43.933438 31.483125 44.023438 31.626562 
L 42.728281 31.626562 
Q 42.691719 31.518281 42.669219 31.405781 
Q 42.646719 31.293281 42.638281 31.176562 
Q 42.331719 31.491562 41.916875 31.618125 
Q 41.503438 31.743281 41.071719 31.743281 
Q 40.738438 31.743281 40.450156 31.661719 
Q 40.163281 31.581562 39.946719 31.411406 
Q 39.731563 31.239844 39.609219 30.979687 
Q 39.488281 30.718125 39.488281 30.358125 
Q 39.488281 29.961562 39.6275 29.705625 
Q 39.766719 29.448281 39.9875 29.296406 
Q 40.208281 29.143125 40.490938 29.067187 
Q 40.775 28.989844 41.063281 28.944844 
Q 41.351562 28.899844 41.63 28.873125 
Q 41.908438 28.845 42.125 28.791562 
Q 42.341563 28.738125 42.466719 28.634062 
Q 42.593281 28.53 42.583438 28.333125 
Q 42.583438 28.125 42.515937 28.004062 
Q 42.448438 27.883125 42.335938 27.815625 
Q 42.223438 27.748125 42.074375 27.725625 
Q 41.926719 27.703125 41.756563 27.703125 
Q 41.378281 27.703125 41.161719 27.864844 
Q 40.946563 28.026562 40.91 28.404844 
z
M 42.583438 29.349844 
Q 42.503281 29.421562 42.380938 29.462344 
Q 42.26 29.503125 42.120781 29.529844 
Q 41.981563 29.556562 41.828281 29.574844 
Q 41.675 29.593125 41.521719 29.619844 
Q 41.378281 29.646562 41.237656 29.691562 
Q 41.098438 29.736562 40.994375 29.813906 
Q 40.891719 29.889844 40.828437 30.006562 
Q 40.766563 30.123281 40.766563 30.303281 
Q 40.766563 30.474844 40.828437 30.591562 
Q 40.891719 30.708281 41 30.775781 
Q 41.108281 30.843281 41.251719 30.871406 
Q 41.396563 30.898125 41.548438 30.898125 
Q 41.926719 30.898125 42.133437 30.771562 
Q 42.341563 30.645 42.44 30.470625 
Q 42.538438 30.294844 42.560938 30.114844 
Q 42.583438 29.934844 42.583438 29.826562 
z
"/>
   </g>
  </g>
  <g id="axes_2">
   <g id="patch_7">
    <path d="M 156.15 128.7 
L 264.15 128.7 
L 264.15 20.7 
L 156.15 20.7 
z
" style="fill:#ffffff;"/>
   </g>
   <g id="matplotlib.axis_3">
    <g id="xtick_22">
     <g id="line2d_54">
      <path clip-path="url(#pba8a4bf995)" d="M 156.15 128.7 
L 156.15 20.7 
" style="fill:none;stroke:#000000;stroke-linecap:square;stroke-opacity:0.1;stroke-width:0.6;"/>
     </g>
     <g id="line2d_55">
      <g>
       <use style="stroke:#000000;stroke-width:0.6;" x="156.15" xlink:href="#m92e3593e7f" y="128.7"/>
      </g>
     </g>
     <g id="text_15">
      <!-- 0 -->
      <g transform="translate(153.92625 140.4125)scale(0.08 -0.08)">
       <use xlink:href="#HelveticaNeue-48"/>
      </g>
     </g>
    </g>
    <g id="xtick_23">
     <g id="line2d_56">
      <path clip-path="url(#pba8a4bf995)" d="M 183.15 128.7 
L 183.15 20.7 
" style="fill:none;stroke:#000000;stroke-linecap:square;stroke-opacity:0.1;stroke-width:0.6;"/>
     </g>
     <g id="line2d_57">
      <g>
       <use style="stroke:#000000;stroke-width:0.6;" x="183.15" xlink:href="#m92e3593e7f" y="128.7"/>
      </g>
     </g>
     <g id="text_16">
      <!-- 0.25 -->
      <g transform="translate(175.366875 140.4125)scale(0.08 -0.08)">
       <use xlink:href="#HelveticaNeue-48"/>
       <use x="55.599991" xlink:href="#HelveticaNeue-46"/>
       <use x="83.399979" xlink:href="#HelveticaNeue-50"/>
       <use x="138.999969" xlink:href="#HelveticaNeue-53"/>
      </g>
     </g>
    </g>
    <g id="xtick_24">
     <g id="line2d_58">
      <path clip-path="url(#pba8a4bf995)" d="M 210.15 128.7 
L 210.15 20.7 
" style="fill:none;stroke:#000000;stroke-linecap:square;stroke-opacity:0.1;stroke-width:0.6;"/>
     </g>
     <g id="line2d_59">
      <g>
       <use style="stroke:#000000;stroke-width:0.6;" x="210.15" xlink:href="#m92e3593e7f" y="128.7"/>
      </g>
     </g>
     <g id="text_17">
      <!-- 0.5 -->
      <g transform="translate(204.590625 140.4125)scale(0.08 -0.08)">
       <use xlink:href="#HelveticaNeue-48"/>
       <use x="55.599991" xlink:href="#HelveticaNeue-46"/>
       <use x="83.399979" xlink:href="#HelveticaNeue-53"/>
      </g>
     </g>
    </g>
    <g id="xtick_25">
     <g id="line2d_60">
      <path clip-path="url(#pba8a4bf995)" d="M 237.15 128.7 
L 237.15 20.7 
" style="fill:none;stroke:#000000;stroke-linecap:square;stroke-opacity:0.1;stroke-width:0.6;"/>
     </g>
     <g id="line2d_61">
      <g>
       <use style="stroke:#000000;stroke-width:0.6;" x="237.15" xlink:href="#m92e3593e7f" y="128.7"/>
      </g>
     </g>
     <g id="text_18">
      <!-- 0.75 -->
      <g transform="translate(229.366875 140.4125)scale(0.08 -0.08)">
       <use xlink:href="#HelveticaNeue-48"/>
       <use x="55.599991" xlink:href="#HelveticaNeue-46"/>
       <use x="83.399979" xlink:href="#HelveticaNeue-55"/>
       <use x="138.999969" xlink:href="#HelveticaNeue-53"/>
      </g>
     </g>
    </g>
    <g id="xtick_26">
     <g id="line2d_62">
      <path clip-path="url(#pba8a4bf995)" d="M 264.15 128.7 
L 264.15 20.7 
" style="fill:none;stroke:#000000;stroke-linecap:square;stroke-opacity:0.1;stroke-width:0.6;"/>
     </g>
     <g id="line2d_63">
      <g>
       <use style="stroke:#000000;stroke-width:0.6;" x="264.15" xlink:href="#m92e3593e7f" y="128.7"/>
      </g>
     </g>
     <g id="text_19">
      <!-- 1 -->
      <g transform="translate(261.92625 140.4125)scale(0.08 -0.08)">
       <use xlink:href="#HelveticaNeue-49"/>
      </g>
     </g>
    </g>
    <g id="xtick_27">
     <g id="line2d_64">
      <g>
       <use style="stroke:#000000;stroke-width:0.48;" x="161.55" xlink:href="#m7a3e9efd02" y="128.7"/>
      </g>
     </g>
    </g>
    <g id="xtick_28">
     <g id="line2d_65">
      <g>
       <use style="stroke:#000000;stroke-width:0.48;" x="166.95" xlink:href="#m7a3e9efd02" y="128.7"/>
      </g>
     </g>
    </g>
    <g id="xtick_29">
     <g id="line2d_66">
      <g>
       <use style="stroke:#000000;stroke-width:0.48;" x="172.35" xlink:href="#m7a3e9efd02" y="128.7"/>
      </g>
     </g>
    </g>
    <g id="xtick_30">
     <g id="line2d_67">
      <g>
       <use style="stroke:#000000;stroke-width:0.48;" x="177.75" xlink:href="#m7a3e9efd02" y="128.7"/>
      </g>
     </g>
    </g>
    <g id="xtick_31">
     <g id="line2d_68">
      <g>
       <use style="stroke:#000000;stroke-width:0.48;" x="188.55" xlink:href="#m7a3e9efd02" y="128.7"/>
      </g>
     </g>
    </g>
    <g id="xtick_32">
     <g id="line2d_69">
      <g>
       <use style="stroke:#000000;stroke-width:0.48;" x="193.95" xlink:href="#m7a3e9efd02" y="128.7"/>
      </g>
     </g>
    </g>
    <g id="xtick_33">
     <g id="line2d_70">
      <g>
       <use style="stroke:#000000;stroke-width:0.48;" x="199.35" xlink:href="#m7a3e9efd02" y="128.7"/>
      </g>
     </g>
    </g>
    <g id="xtick_34">
     <g id="line2d_71">
      <g>
       <use style="stroke:#000000;stroke-width:0.48;" x="204.75" xlink:href="#m7a3e9efd02" y="128.7"/>
      </g>
     </g>
    </g>
    <g id="xtick_35">
     <g id="line2d_72">
      <g>
       <use style="stroke:#000000;stroke-width:0.48;" x="215.55" xlink:href="#m7a3e9efd02" y="128.7"/>
      </g>
     </g>
    </g>
    <g id="xtick_36">
     <g id="line2d_73">
      <g>
       <use style="stroke:#000000;stroke-width:0.48;" x="220.95" xlink:href="#m7a3e9efd02" y="128.7"/>
      </g>
     </g>
    </g>
    <g id="xtick_37">
     <g id="line2d_74">
      <g>
       <use style="stroke:#000000;stroke-width:0.48;" x="226.35" xlink:href="#m7a3e9efd02" y="128.7"/>
      </g>
     </g>
    </g>
    <g id="xtick_38">
     <g id="line2d_75">
      <g>
       <use style="stroke:#000000;stroke-width:0.48;" x="231.75" xlink:href="#m7a3e9efd02" y="128.7"/>
      </g>
     </g>
    </g>
    <g id="xtick_39">
     <g id="line2d_76">
      <g>
       <use style="stroke:#000000;stroke-width:0.48;" x="242.55" xlink:href="#m7a3e9efd02" y="128.7"/>
      </g>
     </g>
    </g>
    <g id="xtick_40">
     <g id="line2d_77">
      <g>
       <use style="stroke:#000000;stroke-width:0.48;" x="247.95" xlink:href="#m7a3e9efd02" y="128.7"/>
      </g>
     </g>
    </g>
    <g id="xtick_41">
     <g id="line2d_78">
      <g>
       <use style="stroke:#000000;stroke-width:0.48;" x="253.35" xlink:href="#m7a3e9efd02" y="128.7"/>
      </g>
     </g>
    </g>
    <g id="xtick_42">
     <g id="line2d_79">
      <g>
       <use style="stroke:#000000;stroke-width:0.48;" x="258.75" xlink:href="#m7a3e9efd02" y="128.7"/>
      </g>
     </g>
    </g>
   </g>
   <g id="matplotlib.axis_4">
    <g id="ytick_22">
     <g id="line2d_80">
      <path clip-path="url(#pba8a4bf995)" d="M 156.15 128.7 
L 264.15 128.7 
" style="fill:none;stroke:#000000;stroke-linecap:square;stroke-opacity:0.1;stroke-width:0.6;"/>
     </g>
     <g id="line2d_81">
      <g>
       <use style="stroke:#000000;stroke-width:0.6;" x="156.15" xlink:href="#m24e3b31e37" y="128.7"/>
      </g>
     </g>
    </g>
    <g id="ytick_23">
     <g id="line2d_82">
      <path clip-path="url(#pba8a4bf995)" d="M 156.15 107.1 
L 264.15 107.1 
" style="fill:none;stroke:#000000;stroke-linecap:square;stroke-opacity:0.1;stroke-width:0.6;"/>
     </g>
     <g id="line2d_83">
      <g>
       <use style="stroke:#000000;stroke-width:0.6;" x="156.15" xlink:href="#m24e3b31e37" y="107.1"/>
      </g>
     </g>
    </g>
    <g id="ytick_24">
     <g id="line2d_84">
      <path clip-path="url(#pba8a4bf995)" d="M 156.15 85.5 
L 264.15 85.5 
" style="fill:none;stroke:#000000;stroke-linecap:square;stroke-opacity:0.1;stroke-width:0.6;"/>
     </g>
     <g id="line2d_85">
      <g>
       <use style="stroke:#000000;stroke-width:0.6;" x="156.15" xlink:href="#m24e3b31e37" y="85.5"/>
      </g>
     </g>
    </g>
    <g id="ytick_25">
     <g id="line2d_86">
      <path clip-path="url(#pba8a4bf995)" d="M 156.15 63.9 
L 264.15 63.9 
" style="fill:none;stroke:#000000;stroke-linecap:square;stroke-opacity:0.1;stroke-width:0.6;"/>
     </g>
     <g id="line2d_87">
      <g>
       <use style="stroke:#000000;stroke-width:0.6;" x="156.15" xlink:href="#m24e3b31e37" y="63.9"/>
      </g>
     </g>
    </g>
    <g id="ytick_26">
     <g id="line2d_88">
      <path clip-path="url(#pba8a4bf995)" d="M 156.15 42.3 
L 264.15 42.3 
" style="fill:none;stroke:#000000;stroke-linecap:square;stroke-opacity:0.1;stroke-width:0.6;"/>
     </g>
     <g id="line2d_89">
      <g>
       <use style="stroke:#000000;stroke-width:0.6;" x="156.15" xlink:href="#m24e3b31e37" y="42.3"/>
      </g>
     </g>
    </g>
    <g id="ytick_27">
     <g id="line2d_90">
      <path clip-path="url(#pba8a4bf995)" d="M 156.15 20.7 
L 264.15 20.7 
" style="fill:none;stroke:#000000;stroke-linecap:square;stroke-opacity:0.1;stroke-width:0.6;"/>
     </g>
     <g id="line2d_91">
      <g>
       <use style="stroke:#000000;stroke-width:0.6;" x="156.15" xlink:href="#m24e3b31e37" y="20.7"/>
      </g>
     </g>
    </g>
    <g id="ytick_28">
     <g id="line2d_92">
      <g>
       <use style="stroke:#000000;stroke-width:0.48;" x="156.15" xlink:href="#md6056a5a44" y="123.3"/>
      </g>
     </g>
    </g>
    <g id="ytick_29">
     <g id="line2d_93">
      <g>
       <use style="stroke:#000000;stroke-width:0.48;" x="156.15" xlink:href="#md6056a5a44" y="117.9"/>
      </g>
     </g>
    </g>
    <g id="ytick_30">
     <g id="line2d_94">
      <g>
       <use style="stroke:#000000;stroke-width:0.48;" x="156.15" xlink:href="#md6056a5a44" y="112.5"/>
      </g>
     </g>
    </g>
    <g id="ytick_31">
     <g id="line2d_95">
      <g>
       <use style="stroke:#000000;stroke-width:0.48;" x="156.15" xlink:href="#md6056a5a44" y="101.7"/>
      </g>
     </g>
    </g>
    <g id="ytick_32">
     <g id="line2d_96">
      <g>
       <use style="stroke:#000000;stroke-width:0.48;" x="156.15" xlink:href="#md6056a5a44" y="96.3"/>
      </g>
     </g>
    </g>
    <g id="ytick_33">
     <g id="line2d_97">
      <g>
       <use style="stroke:#000000;stroke-width:0.48;" x="156.15" xlink:href="#md6056a5a44" y="90.9"/>
      </g>
     </g>
    </g>
    <g id="ytick_34">
     <g id="line2d_98">
      <g>
       <use style="stroke:#000000;stroke-width:0.48;" x="156.15" xlink:href="#md6056a5a44" y="80.1"/>
      </g>
     </g>
    </g>
    <g id="ytick_35">
     <g id="line2d_99">
      <g>
       <use style="stroke:#000000;stroke-width:0.48;" x="156.15" xlink:href="#md6056a5a44" y="74.7"/>
      </g>
     </g>
    </g>
    <g id="ytick_36">
     <g id="line2d_100">
      <g>
       <use style="stroke:#000000;stroke-width:0.48;" x="156.15" xlink:href="#md6056a5a44" y="69.3"/>
      </g>
     </g>
    </g>
    <g id="ytick_37">
     <g id="line2d_101">
      <g>
       <use style="stroke:#000000;stroke-width:0.48;" x="156.15" xlink:href="#md6056a5a44" y="58.5"/>
      </g>
     </g>
    </g>
    <g id="ytick_38">
     <g id="line2d_102">
      <g>
       <use style="stroke:#000000;stroke-width:0.48;" x="156.15" xlink:href="#md6056a5a44" y="53.1"/>
      </g>
     </g>
    </g>
    <g id="ytick_39">
     <g id="line2d_103">
      <g>
       <use style="stroke:#000000;stroke-width:0.48;" x="156.15" xlink:href="#md6056a5a44" y="47.7"/>
      </g>
     </g>
    </g>
    <g id="ytick_40">
     <g id="line2d_104">
      <g>
       <use style="stroke:#000000;stroke-width:0.48;" x="156.15" xlink:href="#md6056a5a44" y="36.9"/>
      </g>
     </g>
    </g>
    <g id="ytick_41">
     <g id="line2d_105">
      <g>
       <use style="stroke:#000000;stroke-width:0.48;" x="156.15" xlink:href="#md6056a5a44" y="31.5"/>
      </g>
     </g>
    </g>
    <g id="ytick_42">
     <g id="line2d_106">
      <g>
       <use style="stroke:#000000;stroke-width:0.48;" x="156.15" xlink:href="#md6056a5a44" y="26.1"/>
      </g>
     </g>
    </g>
   </g>
   <g id="patch_8">
    <path d="M 156.15 128.7 
L 156.15 20.7 
" style="fill:none;stroke:#000000;stroke-linecap:square;stroke-linejoin:miter;stroke-width:0.6;"/>
   </g>
   <g id="patch_9">
    <path d="M 264.15 128.7 
L 264.15 20.7 
" style="fill:none;stroke:#000000;stroke-linecap:square;stroke-linejoin:miter;stroke-width:0.6;"/>
   </g>
   <g id="patch_10">
    <path d="M 156.15 128.7 
L 264.15 128.7 
" style="fill:none;stroke:#000000;stroke-linecap:square;stroke-linejoin:miter;stroke-width:0.6;"/>
   </g>
   <g id="patch_11">
    <path d="M 156.15 20.7 
L 264.15 20.7 
" style="fill:none;stroke:#000000;stroke-linecap:square;stroke-linejoin:miter;stroke-width:0.6;"/>
   </g>
   <g id="text_20">
    <path d="M 164.546719 29.304844 
Q 164.546719 29.593125 164.483438 29.863125 
Q 164.421562 30.133125 164.286563 30.339844 
Q 164.151563 30.546562 163.949062 30.668906 
Q 163.746563 30.789844 163.458281 30.789844 
Q 163.178438 30.789844 162.971719 30.668906 
Q 162.765 30.546562 162.63 30.339844 
Q 162.495 30.133125 162.431719 29.863125 
Q 162.368437 29.593125 162.368437 29.304844 
Q 162.368437 29.008125 162.431719 28.738125 
Q 162.495 28.468125 162.63 28.261406 
Q 162.765 28.053281 162.971719 27.932344 
Q 163.178438 27.81 163.458281 27.81 
Q 163.746563 27.81 163.949062 27.932344 
Q 164.151563 28.053281 164.286563 28.261406 
Q 164.421562 28.468125 164.483438 28.738125 
Q 164.546719 29.008125 164.546719 29.304844 
z
M 161.136562 25.2 
L 161.136562 31.626562 
L 162.351562 31.626562 
L 162.351562 31.033125 
L 162.368437 31.033125 
Q 162.576562 31.419844 162.981562 31.581562 
Q 163.386562 31.743281 163.898438 31.743281 
Q 164.25 31.743281 164.591719 31.599844 
Q 164.933437 31.455 165.207656 31.158281 
Q 165.483281 30.861562 165.653437 30.398906 
Q 165.825 29.934844 165.825 29.295 
Q 165.825 28.656562 165.653437 28.193906 
Q 165.483281 27.729844 165.207656 27.433125 
Q 164.933437 27.135 164.591719 26.991562 
Q 164.25 26.848125 163.898438 26.848125 
Q 163.466719 26.848125 163.065938 27.014062 
Q 162.666562 27.18 162.431719 27.54 
L 162.413438 27.54 
L 162.413438 25.2 
z
" style="stroke:#ffffff;stroke-linejoin:miter;stroke-width:1.5;"/>
    <path d="M 164.546719 29.304844 
Q 164.546719 29.593125 164.483438 29.863125 
Q 164.421562 30.133125 164.286563 30.339844 
Q 164.151563 30.546562 163.949062 30.668906 
Q 163.746563 30.789844 163.458281 30.789844 
Q 163.178438 30.789844 162.971719 30.668906 
Q 162.765 30.546562 162.63 30.339844 
Q 162.495 30.133125 162.431719 29.863125 
Q 162.368437 29.593125 162.368437 29.304844 
Q 162.368437 29.008125 162.431719 28.738125 
Q 162.495 28.468125 162.63 28.261406 
Q 162.765 28.053281 162.971719 27.932344 
Q 163.178438 27.81 163.458281 27.81 
Q 163.746563 27.81 163.949062 27.932344 
Q 164.151563 28.053281 164.286563 28.261406 
Q 164.421562 28.468125 164.483438 28.738125 
Q 164.546719 29.008125 164.546719 29.304844 
z
M 161.136562 25.2 
L 161.136562 31.626562 
L 162.351562 31.626562 
L 162.351562 31.033125 
L 162.368437 31.033125 
Q 162.576562 31.419844 162.981562 31.581562 
Q 163.386562 31.743281 163.898438 31.743281 
Q 164.25 31.743281 164.591719 31.599844 
Q 164.933437 31.455 165.207656 31.158281 
Q 165.483281 30.861562 165.653437 30.398906 
Q 165.825 29.934844 165.825 29.295 
Q 165.825 28.656562 165.653437 28.193906 
Q 165.483281 27.729844 165.207656 27.433125 
Q 164.933437 27.135 164.591719 26.991562 
Q 164.25 26.848125 163.898438 26.848125 
Q 163.466719 26.848125 163.065938 27.014062 
Q 162.666562 27.18 162.431719 27.54 
L 162.413438 27.54 
L 162.413438 25.2 
z
"/>
   </g>
  </g>
  <g id="axes_3">
   <g id="patch_12">
    <path d="M 92.3 267.3 
L 206.55 267.3 
L 206.55 159.3 
L 92.3 159.3 
z
" style="fill:#ffffff;"/>
   </g>
   <g id="matplotlib.axis_5">
    <g id="xtick_43">
     <g id="line2d_107">
      <path clip-path="url(#p2aa78f4408)" d="M 92.3 267.3 
L 92.3 159.3 
" style="fill:none;stroke:#000000;stroke-linecap:square;stroke-opacity:0.1;stroke-width:0.6;"/>
     </g>
     <g id="line2d_108">
      <g>
       <use style="stroke:#000000;stroke-width:0.6;" x="92.3" xlink:href="#m92e3593e7f" y="267.3"/>
      </g>
     </g>
     <g id="text_21">
      <!-- 0 -->
      <g transform="translate(90.07625 279.0125)scale(0.08 -0.08)">
       <use xlink:href="#HelveticaNeue-48"/>
      </g>
     </g>
    </g>
    <g id="xtick_44">
     <g id="line2d_109">
      <path clip-path="url(#p2aa78f4408)" d="M 121.15101 267.3 
L 121.15101 159.3 
" style="fill:none;stroke:#000000;stroke-linecap:square;stroke-opacity:0.1;stroke-width:0.6;"/>
     </g>
     <g id="line2d_110">
      <g>
       <use style="stroke:#000000;stroke-width:0.6;" x="121.15101" xlink:href="#m92e3593e7f" y="267.3"/>
      </g>
     </g>
     <g id="text_22">
      <!-- 25 -->
      <g transform="translate(116.70351 279.0125)scale(0.08 -0.08)">
       <use xlink:href="#HelveticaNeue-50"/>
       <use x="55.599991" xlink:href="#HelveticaNeue-53"/>
      </g>
     </g>
    </g>
    <g id="xtick_45">
     <g id="line2d_111">
      <path clip-path="url(#p2aa78f4408)" d="M 150.00202 267.3 
L 150.00202 159.3 
" style="fill:none;stroke:#000000;stroke-linecap:square;stroke-opacity:0.1;stroke-width:0.6;"/>
     </g>
     <g id="line2d_112">
      <g>
       <use style="stroke:#000000;stroke-width:0.6;" x="150.00202" xlink:href="#m92e3593e7f" y="267.3"/>
      </g>
     </g>
     <g id="text_23">
      <!-- 50 -->
      <g transform="translate(145.55452 279.0125)scale(0.08 -0.08)">
       <use xlink:href="#HelveticaNeue-53"/>
       <use x="55.599991" xlink:href="#HelveticaNeue-48"/>
      </g>
     </g>
    </g>
    <g id="xtick_46">
     <g id="line2d_113">
      <path clip-path="url(#p2aa78f4408)" d="M 178.85303 267.3 
L 178.85303 159.3 
" style="fill:none;stroke:#000000;stroke-linecap:square;stroke-opacity:0.1;stroke-width:0.6;"/>
     </g>
     <g id="line2d_114">
      <g>
       <use style="stroke:#000000;stroke-width:0.6;" x="178.85303" xlink:href="#m92e3593e7f" y="267.3"/>
      </g>
     </g>
     <g id="text_24">
      <!-- 75 -->
      <g transform="translate(174.40553 279.0125)scale(0.08 -0.08)">
       <use xlink:href="#HelveticaNeue-55"/>
       <use x="55.599991" xlink:href="#HelveticaNeue-53"/>
      </g>
     </g>
    </g>
    <g id="xtick_47">
     <g id="line2d_115">
      <g>
       <use style="stroke:#000000;stroke-width:0.48;" x="98.070202" xlink:href="#m7a3e9efd02" y="267.3"/>
      </g>
     </g>
    </g>
    <g id="xtick_48">
     <g id="line2d_116">
      <g>
       <use style="stroke:#000000;stroke-width:0.48;" x="103.840404" xlink:href="#m7a3e9efd02" y="267.3"/>
      </g>
     </g>
    </g>
    <g id="xtick_49">
     <g id="line2d_117">
      <g>
       <use style="stroke:#000000;stroke-width:0.48;" x="109.610606" xlink:href="#m7a3e9efd02" y="267.3"/>
      </g>
     </g>
    </g>
    <g id="xtick_50">
     <g id="line2d_118">
      <g>
       <use style="stroke:#000000;stroke-width:0.48;" x="115.380808" xlink:href="#m7a3e9efd02" y="267.3"/>
      </g>
     </g>
    </g>
    <g id="xtick_51">
     <g id="line2d_119">
      <g>
       <use style="stroke:#000000;stroke-width:0.48;" x="126.921212" xlink:href="#m7a3e9efd02" y="267.3"/>
      </g>
     </g>
    </g>
    <g id="xtick_52">
     <g id="line2d_120">
      <g>
       <use style="stroke:#000000;stroke-width:0.48;" x="132.691414" xlink:href="#m7a3e9efd02" y="267.3"/>
      </g>
     </g>
    </g>
    <g id="xtick_53">
     <g id="line2d_121">
      <g>
       <use style="stroke:#000000;stroke-width:0.48;" x="138.461616" xlink:href="#m7a3e9efd02" y="267.3"/>
      </g>
     </g>
    </g>
    <g id="xtick_54">
     <g id="line2d_122">
      <g>
       <use style="stroke:#000000;stroke-width:0.48;" x="144.231818" xlink:href="#m7a3e9efd02" y="267.3"/>
      </g>
     </g>
    </g>
    <g id="xtick_55">
     <g id="line2d_123">
      <g>
       <use style="stroke:#000000;stroke-width:0.48;" x="155.772222" xlink:href="#m7a3e9efd02" y="267.3"/>
      </g>
     </g>
    </g>
    <g id="xtick_56">
     <g id="line2d_124">
      <g>
       <use style="stroke:#000000;stroke-width:0.48;" x="161.542424" xlink:href="#m7a3e9efd02" y="267.3"/>
      </g>
     </g>
    </g>
    <g id="xtick_57">
     <g id="line2d_125">
      <g>
       <use style="stroke:#000000;stroke-width:0.48;" x="167.312626" xlink:href="#m7a3e9efd02" y="267.3"/>
      </g>
     </g>
    </g>
    <g id="xtick_58">
     <g id="line2d_126">
      <g>
       <use style="stroke:#000000;stroke-width:0.48;" x="173.082828" xlink:href="#m7a3e9efd02" y="267.3"/>
      </g>
     </g>
    </g>
    <g id="xtick_59">
     <g id="line2d_127">
      <g>
       <use style="stroke:#000000;stroke-width:0.48;" x="184.623232" xlink:href="#m7a3e9efd02" y="267.3"/>
      </g>
     </g>
    </g>
    <g id="xtick_60">
     <g id="line2d_128">
      <g>
       <use style="stroke:#000000;stroke-width:0.48;" x="190.393434" xlink:href="#m7a3e9efd02" y="267.3"/>
      </g>
     </g>
    </g>
    <g id="xtick_61">
     <g id="line2d_129">
      <g>
       <use style="stroke:#000000;stroke-width:0.48;" x="196.163636" xlink:href="#m7a3e9efd02" y="267.3"/>
      </g>
     </g>
    </g>
    <g id="xtick_62">
     <g id="line2d_130">
      <g>
       <use style="stroke:#000000;stroke-width:0.48;" x="201.933838" xlink:href="#m7a3e9efd02" y="267.3"/>
      </g>
     </g>
    </g>
    <g id="text_25">
     <!-- xlabel -->
     <g transform="translate(138.90875 289.30125)scale(0.08 -0.08)">
      <use xlink:href="#HelveticaNeue-120"/>
      <use x="51.799988" xlink:href="#HelveticaNeue-108"/>
      <use x="73.999985" xlink:href="#HelveticaNeue-97"/>
      <use x="127.699982" xlink:href="#HelveticaNeue-98"/>
      <use x="186.999969" xlink:href="#HelveticaNeue-101"/>
      <use x="240.699966" xlink:href="#HelveticaNeue-108"/>
     </g>
    </g>
   </g>
   <g id="matplotlib.axis_6">
    <g id="ytick_43">
     <g id="line2d_131">
      <path clip-path="url(#p2aa78f4408)" d="M 92.3 254.776802 
L 206.55 254.776802 
" style="fill:none;stroke:#000000;stroke-linecap:square;stroke-opacity:0.1;stroke-width:0.6;"/>
     </g>
     <g id="line2d_132">
      <g>
       <use style="stroke:#000000;stroke-width:0.6;" x="92.3" xlink:href="#m24e3b31e37" y="254.776802"/>
      </g>
     </g>
     <g id="text_26">
      <!-- 2 -->
      <defs>
       <path d="M 4.796875 28.703125 
L 4.796875 21.90625 
L 55.203125 21.90625 
L 55.203125 28.703125 
z
" id="HelveticaNeue-8722"/>
      </defs>
      <g transform="translate(77.0525 257.633052)scale(0.08 -0.08)">
       <use xlink:href="#HelveticaNeue-8722"/>
       <use x="59.999985" xlink:href="#HelveticaNeue-50"/>
      </g>
     </g>
    </g>
    <g id="ytick_44">
     <g id="line2d_133">
      <path clip-path="url(#p2aa78f4408)" d="M 92.3 228.776301 
L 206.55 228.776301 
" style="fill:none;stroke:#000000;stroke-linecap:square;stroke-opacity:0.1;stroke-width:0.6;"/>
     </g>
     <g id="line2d_134">
      <g>
       <use style="stroke:#000000;stroke-width:0.6;" x="92.3" xlink:href="#m24e3b31e37" y="228.776301"/>
      </g>
     </g>
     <g id="text_27">
      <!-- 0 -->
      <g transform="translate(81.8525 231.632551)scale(0.08 -0.08)">
       <use xlink:href="#HelveticaNeue-48"/>
      </g>
     </g>
    </g>
    <g id="ytick_45">
     <g id="line2d_135">
      <path clip-path="url(#p2aa78f4408)" d="M 92.3 202.7758 
L 206.55 202.7758 
" style="fill:none;stroke:#000000;stroke-linecap:square;stroke-opacity:0.1;stroke-width:0.6;"/>
     </g>
     <g id="line2d_136">
      <g>
       <use style="stroke:#000000;stroke-width:0.6;" x="92.3" xlink:href="#m24e3b31e37" y="202.7758"/>
      </g>
     </g>
     <g id="text_28">
      <!-- 2 -->
      <g transform="translate(81.8525 205.63205)scale(0.08 -0.08)">
       <use xlink:href="#HelveticaNeue-50"/>
      </g>
     </g>
    </g>
    <g id="ytick_46">
     <g id="line2d_137">
      <path clip-path="url(#p2aa78f4408)" d="M 92.3 176.775299 
L 206.55 176.775299 
" style="fill:none;stroke:#000000;stroke-linecap:square;stroke-opacity:0.1;stroke-width:0.6;"/>
     </g>
     <g id="line2d_138">
      <g>
       <use style="stroke:#000000;stroke-width:0.6;" x="92.3" xlink:href="#m24e3b31e37" y="176.775299"/>
      </g>
     </g>
     <g id="text_29">
      <!-- 4 -->
      <g transform="translate(81.8525 179.631549)scale(0.08 -0.08)">
       <use xlink:href="#HelveticaNeue-52"/>
      </g>
     </g>
    </g>
    <g id="ytick_47">
     <g id="line2d_139">
      <g>
       <use style="stroke:#000000;stroke-width:0.48;" x="92.3" xlink:href="#md6056a5a44" y="261.276927"/>
      </g>
     </g>
    </g>
    <g id="ytick_48">
     <g id="line2d_140">
      <g>
       <use style="stroke:#000000;stroke-width:0.48;" x="92.3" xlink:href="#md6056a5a44" y="248.276677"/>
      </g>
     </g>
    </g>
    <g id="ytick_49">
     <g id="line2d_141">
      <g>
       <use style="stroke:#000000;stroke-width:0.48;" x="92.3" xlink:href="#md6056a5a44" y="241.776552"/>
      </g>
     </g>
    </g>
    <g id="ytick_50">
     <g id="line2d_142">
      <g>
       <use style="stroke:#000000;stroke-width:0.48;" x="92.3" xlink:href="#md6056a5a44" y="235.276426"/>
      </g>
     </g>
    </g>
    <g id="ytick_51">
     <g id="line2d_143">
      <g>
       <use style="stroke:#000000;stroke-width:0.48;" x="92.3" xlink:href="#md6056a5a44" y="222.276176"/>
      </g>
     </g>
    </g>
    <g id="ytick_52">
     <g id="line2d_144">
      <g>
       <use style="stroke:#000000;stroke-width:0.48;" x="92.3" xlink:href="#md6056a5a44" y="215.776051"/>
      </g>
     </g>
    </g>
    <g id="ytick_53">
     <g id="line2d_145">
      <g>
       <use style="stroke:#000000;stroke-width:0.48;" x="92.3" xlink:href="#md6056a5a44" y="209.275926"/>
      </g>
     </g>
    </g>
    <g id="ytick_54">
     <g id="line2d_146">
      <g>
       <use style="stroke:#000000;stroke-width:0.48;" x="92.3" xlink:href="#md6056a5a44" y="196.275675"/>
      </g>
     </g>
    </g>
    <g id="ytick_55">
     <g id="line2d_147">
      <g>
       <use style="stroke:#000000;stroke-width:0.48;" x="92.3" xlink:href="#md6056a5a44" y="189.77555"/>
      </g>
     </g>
    </g>
    <g id="ytick_56">
     <g id="line2d_148">
      <g>
       <use style="stroke:#000000;stroke-width:0.48;" x="92.3" xlink:href="#md6056a5a44" y="183.275425"/>
      </g>
     </g>
    </g>
    <g id="ytick_57">
     <g id="line2d_149">
      <g>
       <use style="stroke:#000000;stroke-width:0.48;" x="92.3" xlink:href="#md6056a5a44" y="170.275174"/>
      </g>
     </g>
    </g>
    <g id="ytick_58">
     <g id="line2d_150">
      <g>
       <use style="stroke:#000000;stroke-width:0.48;" x="92.3" xlink:href="#md6056a5a44" y="163.775049"/>
      </g>
     </g>
    </g>
    <g id="text_30">
     <!-- ylabel -->
     <g transform="translate(72.39625 223.744375)rotate(-90)scale(0.08 -0.08)">
      <use xlink:href="#HelveticaNeue-121"/>
      <use x="49.999985" xlink:href="#HelveticaNeue-108"/>
      <use x="72.199982" xlink:href="#HelveticaNeue-97"/>
      <use x="125.899979" xlink:href="#HelveticaNeue-98"/>
      <use x="185.199966" xlink:href="#HelveticaNeue-101"/>
      <use x="238.899963" xlink:href="#HelveticaNeue-108"/>
     </g>
    </g>
   </g>
   <g id="line2d_151">
    <path clip-path="url(#p2aa78f4408)" d="M 92.3 219.087781 
L 93.45404 216.580754 
L 94.608081 210.839006 
L 95.762121 203.743594 
L 96.916162 196.868281 
L 98.070202 198.035576 
L 99.224242 206.052841 
L 100.378283 209.98535 
L 101.532323 218.894039 
L 102.686364 218.059345 
L 103.840404 224.499188 
L 104.994444 229.343563 
L 106.148485 226.094484 
L 107.302525 233.380656 
L 108.456566 239.839336 
L 109.610606 248.289534 
L 110.764646 236.705386 
L 111.918687 239.258973 
L 113.072727 227.748699 
L 114.226768 226.763429 
L 115.380808 231.944033 
L 116.534848 237.932327 
L 117.688889 230.741631 
L 118.842929 228.015157 
L 119.99697 215.137799 
L 121.15101 210.574331 
L 122.305051 200.951523 
L 123.459091 207.981302 
L 124.613131 209.79361 
L 125.767172 219.903035 
L 126.921212 215.5793 
L 128.075253 223.620078 
L 129.229293 233.331182 
L 130.383333 232.319003 
L 131.537374 230.388293 
L 132.691414 238.466799 
L 133.845455 239.217874 
L 134.999495 235.875303 
L 136.153535 237.317329 
L 137.307576 236.456305 
L 138.461616 229.81393 
L 139.615657 217.126394 
L 140.769697 226.625999 
L 141.923737 218.026155 
L 143.077778 225.42189 
L 144.231818 223.359961 
L 145.385859 226.143543 
L 146.539899 238.076561 
L 147.693939 246.342256 
L 148.84798 249.490616 
L 150.00202 239.775668 
L 151.156061 234.068997 
L 152.310101 235.23803 
L 153.464141 228.508324 
L 154.618182 226.146946 
L 155.772222 222.065978 
L 156.926263 213.433334 
L 158.080303 211.908265 
L 159.234343 223.406548 
L 160.388384 227.936054 
L 161.542424 218.615008 
L 162.696465 230.173896 
L 163.850505 223.446768 
L 165.004545 220.085594 
L 166.158586 214.660095 
L 167.312626 217.760703 
L 168.466667 213.038746 
L 169.620707 214.909964 
L 170.774747 220.936508 
L 171.928788 213.908517 
L 173.082828 210.543416 
L 174.236869 200.839253 
L 175.390909 202.022505 
L 176.544949 202.202922 
L 177.69899 196.060098 
L 178.85303 194.665185 
L 180.007071 200.417212 
L 181.161111 213.308895 
L 182.315152 214.750787 
L 183.469192 219.177032 
L 184.623232 230.271765 
L 185.777273 228.983401 
L 186.931313 234.388475 
L 188.085354 236.446038 
L 189.239394 230.984839 
L 190.393434 241.273148 
L 191.547475 240.944242 
L 192.701515 242.904924 
L 193.855556 255.389342 
L 195.009596 254.581473 
L 196.163636 242.752781 
L 197.317677 253.615438 
L 198.471717 254.426053 
L 199.625758 261.507927 
L 200.779798 265.340009 
L 201.933838 267.145125 
L 203.087879 267.3 
L 204.241919 265.483619 
L 205.39596 252.991569 
L 206.55 261.699997 
" style="fill:none;stroke:#0072b2;stroke-linecap:square;stroke-width:2;"/>
   </g>
   <g id="line2d_152">
    <path clip-path="url(#p2aa78f4408)" d="M 92.3 219.919026 
L 93.45404 218.363646 
L 94.608081 205.95751 
L 95.762121 215.336969 
L 96.916162 216.569563 
L 98.070202 207.950733 
L 99.224242 214.48896 
L 100.378283 222.408884 
L 101.532323 232.10618 
L 102.686364 233.923622 
L 103.840404 241.184966 
L 104.994444 234.318001 
L 106.148485 230.434653 
L 107.302525 242.804216 
L 108.456566 240.207908 
L 109.610606 231.961095 
L 110.764646 234.056252 
L 111.918687 232.461535 
L 113.072727 234.660845 
L 114.226768 235.638769 
L 115.380808 237.809743 
L 116.534848 237.954714 
L 117.688889 231.965472 
L 118.842929 243.736951 
L 119.99697 248.094136 
L 121.15101 250.619668 
L 122.305051 249.656159 
L 123.459091 237.198229 
L 124.613131 228.770161 
L 125.767172 227.135623 
L 126.921212 234.119797 
L 128.075253 246.719967 
L 129.229293 241.670375 
L 130.383333 248.016657 
L 131.537374 242.787914 
L 132.691414 238.580029 
L 133.845455 240.50027 
L 134.999495 236.245105 
L 136.153535 245.085881 
L 137.307576 239.284382 
L 138.461616 248.876579 
L 139.615657 248.788882 
L 140.769697 244.465628 
L 141.923737 234.738557 
L 143.077778 244.213608 
L 144.231818 242.316016 
L 145.385859 252.350308 
L 146.539899 250.753196 
L 147.693939 257.34409 
L 148.84798 248.781591 
L 150.00202 239.379651 
L 151.156061 247.418843 
L 152.310101 257.8601 
L 153.464141 249.014331 
L 154.618182 244.387166 
L 155.772222 238.762247 
L 156.926263 249.854268 
L 158.080303 242.996775 
L 159.234343 242.707883 
L 160.388384 232.101363 
L 161.542424 244.174098 
L 162.696465 242.034815 
L 163.850505 229.575667 
L 165.004545 221.489099 
L 166.158586 214.538802 
L 167.312626 210.308278 
L 168.466667 198.410607 
L 169.620707 209.590949 
L 170.774747 199.139078 
L 171.928788 203.252298 
L 173.082828 202.018992 
L 174.236869 190.183406 
L 175.390909 181.981309 
L 176.544949 181.798169 
L 177.69899 177.84442 
L 178.85303 186.079884 
L 180.007071 186.881885 
L 181.161111 175.942731 
L 182.315152 188.804805 
L 183.469192 178.089988 
L 184.623232 171.982734 
L 185.777273 177.859613 
L 186.931313 174.955234 
L 188.085354 167.475456 
L 189.239394 170.750849 
L 190.393434 179.563285 
L 191.547475 176.544182 
L 192.701515 169.720724 
L 193.855556 169.31824 
L 195.009596 174.19995 
L 196.163636 172.197772 
L 197.317677 169.059434 
L 198.471717 160.015896 
L 199.625758 163.710548 
L 200.779798 164.650888 
L 201.933838 169.859337 
L 203.087879 171.144373 
L 204.241919 165.525468 
L 205.39596 163.435406 
L 206.55 159.3 
" style="fill:none;stroke:#d55e00;stroke-linecap:square;stroke-width:2;"/>
   </g>
   <g id="line2d_153">
    <path clip-path="url(#p2aa78f4408)" d="M 92.3 237.52832 
L 93.45404 229.425016 
L 94.608081 227.44664 
L 95.762121 221.756233 
L 96.916162 222.062312 
L 98.070202 221.991157 
L 99.224242 209.042761 
L 100.378283 196.363878 
L 101.532323 207.18819 
L 102.686364 198.022178 
L 103.840404 192.241299 
L 104.994444 204.536823 
L 106.148485 196.218851 
L 107.302525 206.119499 
L 108.456566 212.963641 
L 109.610606 204.620591 
L 110.764646 200.642229 
L 111.918687 188.662985 
L 113.072727 193.985682 
L 114.226768 193.967049 
L 115.380808 185.140867 
L 116.534848 186.687984 
L 117.688889 189.507653 
L 118.842929 178.074687 
L 119.99697 181.864338 
L 121.15101 191.656847 
L 122.305051 201.903865 
L 123.459091 205.160336 
L 124.613131 208.500735 
L 125.767172 218.525951 
L 126.921212 210.542689 
L 128.075253 218.045229 
L 129.229293 214.948216 
L 130.383333 211.535093 
L 131.537374 222.091883 
L 132.691414 230.335725 
L 133.845455 225.309703 
L 134.999495 235.911076 
L 136.153535 230.266816 
L 137.307576 242.866627 
L 138.461616 233.658327 
L 139.615657 222.206813 
L 140.769697 222.944461 
L 141.923737 228.410161 
L 143.077778 236.261453 
L 144.231818 238.97121 
L 145.385859 226.783525 
L 146.539899 218.790803 
L 147.693939 231.11419 
L 148.84798 219.309654 
L 150.00202 230.041899 
L 151.156061 225.191989 
L 152.310101 215.539504 
L 153.464141 222.432944 
L 154.618182 221.391482 
L 155.772222 217.588945 
L 156.926263 213.963122 
L 158.080303 223.703809 
L 159.234343 231.986325 
L 160.388384 242.546548 
L 161.542424 246.92675 
L 162.696465 243.126223 
L 163.850505 231.247237 
L 165.004545 225.881427 
L 166.158586 218.203761 
L 167.312626 211.245247 
L 168.466667 212.259244 
L 169.620707 202.990098 
L 170.774747 193.195388 
L 171.928788 202.44361 
L 173.082828 195.257183 
L 174.236869 193.326728 
L 175.390909 199.325576 
L 176.544949 198.04467 
L 177.69899 203.846253 
L 178.85303 197.684453 
L 180.007071 199.347755 
L 181.161111 210.340191 
L 182.315152 205.189598 
L 183.469192 209.370142 
L 184.623232 199.814629 
L 185.777273 207.111721 
L 186.931313 209.056883 
L 188.085354 204.533687 
L 189.239394 201.271286 
L 190.393434 198.462881 
L 191.547475 193.403096 
L 192.701515 192.696951 
L 193.855556 201.814333 
L 195.009596 196.928608 
L 196.163636 204.951796 
L 197.317677 207.118526 
L 198.471717 199.127434 
L 199.625758 193.132165 
L 200.779798 202.467032 
L 201.933838 211.131973 
L 203.087879 209.132618 
L 204.241919 199.58538 
L 205.39596 193.944802 
L 206.55 204.429775 
" style="fill:none;stroke:#009e73;stroke-linecap:square;stroke-width:2;"/>
   </g>
   <g id="line2d_154">
    <path clip-path="url(#p2aa78f4408)" d="M 92.3 236.10566 
L 93.45404 228.803262 
L 94.608081 232.920859 
L 95.762121 219.922112 
L 96.916162 208.079557 
L 98.070202 212.582442 
L 99.224242 202.253791 
L 100.378283 198.389527 
L 101.532323 200.248736 
L 102.686364 198.352349 
L 103.840404 192.595493 
L 104.994444 182.850777 
L 106.148485 193.927649 
L 107.302525 202.110878 
L 108.456566 191.662428 
L 109.610606 194.106126 
L 110.764646 205.03449 
L 111.918687 198.983036 
L 113.072727 204.41989 
L 114.226768 200.171707 
L 115.380808 196.883356 
L 116.534848 198.257388 
L 117.688889 203.860712 
L 118.842929 208.467323 
L 119.99697 215.147065 
L 121.15101 209.61508 
L 122.305051 220.018716 
L 123.459091 207.715464 
L 124.613131 210.386505 
L 125.767172 218.961688 
L 126.921212 217.953245 
L 128.075253 221.747913 
L 129.229293 232.541958 
L 130.383333 227.03729 
L 131.537374 229.28119 
L 132.691414 217.43486 
L 133.845455 205.956795 
L 134.999495 195.646186 
L 136.153535 183.824898 
L 137.307576 180.790788 
L 138.461616 181.152581 
L 139.615657 174.023195 
L 140.769697 182.277587 
L 141.923737 184.88616 
L 143.077778 188.189943 
L 144.231818 197.15409 
L 145.385859 203.556974 
L 146.539899 198.027847 
L 147.693939 187.24761 
L 148.84798 187.852194 
L 150.00202 200.078866 
L 151.156061 207.499674 
L 152.310101 206.230732 
L 153.464141 193.400281 
L 154.618182 191.342951 
L 155.772222 185.036374 
L 156.926263 180.111218 
L 158.080303 191.537311 
L 159.234343 190.668359 
L 160.388384 185.013707 
L 161.542424 190.949732 
L 162.696465 186.229962 
L 163.850505 192.342171 
L 165.004545 180.173719 
L 166.158586 183.551374 
L 167.312626 180.803812 
L 168.466667 184.814541 
L 169.620707 196.552499 
L 170.774747 200.591316 
L 171.928788 204.854015 
L 173.082828 211.914097 
L 174.236869 201.895056 
L 175.390909 213.381567 
L 176.544949 201.186033 
L 177.69899 205.162993 
L 178.85303 201.356279 
L 180.007071 189.991454 
L 181.161111 197.168539 
L 182.315152 197.019895 
L 183.469192 195.775575 
L 184.623232 195.950165 
L 185.777273 194.710138 
L 186.931313 186.328065 
L 188.085354 185.094192 
L 189.239394 195.178606 
L 190.393434 207.540563 
L 191.547475 203.901646 
L 192.701515 204.338745 
L 193.855556 201.144943 
L 195.009596 200.008449 
L 196.163636 196.309971 
L 197.317677 197.494946 
L 198.471717 210.392177 
L 199.625758 203.566826 
L 200.779798 207.819262 
L 201.933838 204.697088 
L 203.087879 207.72882 
L 204.241919 217.745241 
L 205.39596 206.851216 
L 206.55 209.629249 
" style="fill:none;stroke:#cc79a7;stroke-linecap:square;stroke-width:2;"/>
   </g>
   <g id="line2d_155">
    <path clip-path="url(#p2aa78f4408)" d="M 92.3 232.680485 
L 93.45404 231.963642 
L 94.608081 239.654854 
L 95.762121 231.217267 
L 96.916162 235.516284 
L 98.070202 228.290222 
L 99.224242 223.627183 
L 100.378283 218.33529 
L 101.532323 218.51509 
L 102.686364 224.369194 
L 103.840404 218.019028 
L 104.994444 227.039746 
L 106.148485 218.109266 
L 107.302525 224.337119 
L 108.456566 217.868132 
L 109.610606 210.325997 
L 110.764646 207.619363 
L 111.918687 198.473201 
L 113.072727 192.378404 
L 114.226768 189.762042 
L 115.380808 181.24654 
L 116.534848 179.391568 
L 117.688889 186.434716 
L 118.842929 195.926071 
L 119.99697 196.68084 
L 121.15101 187.695474 
L 122.305051 197.006795 
L 123.459091 195.16397 
L 124.613131 204.168676 
L 125.767172 215.301724 
L 126.921212 211.304423 
L 128.075253 215.188298 
L 129.229293 214.198852 
L 130.383333 225.251604 
L 131.537374 237.518931 
L 132.691414 237.179492 
L 133.845455 230.964605 
L 134.999495 233.884641 
L 136.153535 227.426464 
L 137.307576 217.238797 
L 138.461616 221.160763 
L 139.615657 221.800086 
L 140.769697 218.151414 
L 141.923737 223.897378 
L 143.077778 224.276238 
L 144.231818 213.02619 
L 145.385859 209.235624 
L 146.539899 219.23907 
L 147.693939 220.990456 
L 148.84798 208.232997 
L 150.00202 212.04642 
L 151.156061 215.5961 
L 152.310101 214.950775 
L 153.464141 213.100567 
L 154.618182 200.597454 
L 155.772222 195.524568 
L 156.926263 184.175452 
L 158.080303 177.722024 
L 159.234343 183.034597 
L 160.388384 186.056808 
L 161.542424 192.871053 
L 162.696465 195.274609 
L 163.850505 204.120994 
L 165.004545 211.287829 
L 166.158586 219.120487 
L 167.312626 215.661369 
L 168.466667 228.303805 
L 169.620707 239.907366 
L 170.774747 234.394588 
L 171.928788 224.272032 
L 173.082828 226.876143 
L 174.236869 224.107554 
L 175.390909 229.33027 
L 176.544949 230.115755 
L 177.69899 225.771251 
L 178.85303 214.695064 
L 180.007071 216.831432 
L 181.161111 226.623208 
L 182.315152 219.91721 
L 183.469192 217.288069 
L 184.623232 210.895465 
L 185.777273 206.636214 
L 186.931313 215.943548 
L 188.085354 217.303196 
L 189.239394 206.411608 
L 190.393434 219.088125 
L 191.547475 210.085442 
L 192.701515 211.124719 
L 193.855556 205.759438 
L 195.009596 213.953397 
L 196.163636 223.3222 
L 197.317677 224.065301 
L 198.471717 234.853352 
L 199.625758 229.990373 
L 200.779798 225.772513 
L 201.933838 220.662606 
L 203.087879 229.951675 
L 204.241919 227.81456 
L 205.39596 218.129824 
L 206.55 230.56556 
" style="fill:none;stroke:#f0e442;stroke-linecap:square;stroke-width:2;"/>
   </g>
   <g id="patch_13">
    <path d="M 92.3 267.3 
L 92.3 159.3 
" style="fill:none;stroke:#000000;stroke-linecap:square;stroke-linejoin:miter;stroke-width:0.6;"/>
   </g>
   <g id="patch_14">
    <path d="M 206.55 267.3 
L 206.55 159.3 
" style="fill:none;stroke:#000000;stroke-linecap:square;stroke-linejoin:miter;stroke-width:0.6;"/>
   </g>
   <g id="patch_15">
    <path d="M 92.3 267.3 
L 206.55 267.3 
" style="fill:none;stroke:#000000;stroke-linecap:square;stroke-linejoin:miter;stroke-width:0.6;"/>
   </g>
   <g id="patch_16">
    <path d="M 92.3 159.3 
L 206.55 159.3 
" style="fill:none;stroke:#000000;stroke-linecap:square;stroke-linejoin:miter;stroke-width:0.6;"/>
   </g>
   <g id="text_31">
    <path d="M 100.713854 167.211563 
L 101.965417 167.211563 
Q 101.938698 166.761563 101.748854 166.433906 
Q 101.560417 166.104844 101.258073 165.884063 
Q 100.957135 165.663281 100.574635 165.556406 
Q 100.192135 165.448125 99.778698 165.448125 
Q 99.211979 165.448125 98.770417 165.636563 
Q 98.328854 165.825 98.022292 166.1625 
Q 97.717135 166.5 97.559635 166.964063 
Q 97.402135 167.428125 97.402135 167.968125 
Q 97.402135 168.489844 97.572292 168.927188 
Q 97.743854 169.363125 98.050417 169.678125 
Q 98.356979 169.993125 98.792917 170.168906 
Q 99.228854 170.343281 99.751979 170.343281 
Q 100.678698 170.343281 101.272135 169.858125 
Q 101.866979 169.371563 101.992135 168.444844 
L 100.758854 168.444844 
Q 100.696979 168.876563 100.449479 169.133906 
Q 100.201979 169.389844 99.742135 169.389844 
Q 99.445417 169.389844 99.238698 169.254844 
Q 99.031979 169.119844 98.909635 168.908906 
Q 98.788698 168.696563 98.733854 168.436406 
Q 98.680417 168.174844 98.680417 167.923125 
Q 98.680417 167.661563 98.733854 167.395781 
Q 98.788698 167.13 98.918073 166.910625 
Q 99.048854 166.689844 99.255573 166.550625 
Q 99.463698 166.41 99.768854 166.41 
Q 100.588698 166.41 100.713854 167.211563 
z
" style="stroke:#ffffff;stroke-linejoin:miter;stroke-width:1.5;"/>
    <path d="M 100.713854 167.211563 
L 101.965417 167.211563 
Q 101.938698 166.761563 101.748854 166.433906 
Q 101.560417 166.104844 101.258073 165.884063 
Q 100.957135 165.663281 100.574635 165.556406 
Q 100.192135 165.448125 99.778698 165.448125 
Q 99.211979 165.448125 98.770417 165.636563 
Q 98.328854 165.825 98.022292 166.1625 
Q 97.717135 166.5 97.559635 166.964063 
Q 97.402135 167.428125 97.402135 167.968125 
Q 97.402135 168.489844 97.572292 168.927188 
Q 97.743854 169.363125 98.050417 169.678125 
Q 98.356979 169.993125 98.792917 170.168906 
Q 99.228854 170.343281 99.751979 170.343281 
Q 100.678698 170.343281 101.272135 169.858125 
Q 101.866979 169.371563 101.992135 168.444844 
L 100.758854 168.444844 
Q 100.696979 168.876563 100.449479 169.133906 
Q 100.201979 169.389844 99.742135 169.389844 
Q 99.445417 169.389844 99.238698 169.254844 
Q 99.031979 169.119844 98.909635 168.908906 
Q 98.788698 168.696563 98.733854 168.436406 
Q 98.680417 168.174844 98.680417 167.923125 
Q 98.680417 167.661563 98.733854 167.395781 
Q 98.788698 167.13 98.918073 166.910625 
Q 99.048854 166.689844 99.255573 166.550625 
Q 99.463698 166.41 99.768854 166.41 
Q 100.588698 166.41 100.713854 167.211563 
z
"/>
   </g>
  </g>
  <g id="text_32">
   <!-- Subplot grid with centered rows -->
   <defs>
    <path d="M 17.59375 23.703125 
L 2.40625 23.703125 
Q 2.296875 17.09375 4.796875 12.296875 
Q 7.296875 7.5 11.546875 4.390625 
Q 15.796875 1.296875 21.34375 -0.140625 
Q 26.90625 -1.59375 32.796875 -1.59375 
Q 40.09375 -1.59375 45.640625 0.09375 
Q 51.203125 1.796875 54.953125 4.84375 
Q 58.703125 7.90625 60.59375 12.09375 
Q 62.5 16.296875 62.5 21.203125 
Q 62.5 27.203125 59.953125 31.046875 
Q 57.40625 34.90625 53.90625 37.203125 
Q 50.40625 39.5 46.84375 40.546875 
Q 43.296875 41.59375 41.296875 42 
Q 34.59375 43.703125 30.4375 44.796875 
Q 26.296875 45.90625 23.9375 47 
Q 21.59375 48.09375 20.796875 49.390625 
Q 20 50.703125 20 52.796875 
Q 20 55.09375 21 56.59375 
Q 22 58.09375 23.546875 59.09375 
Q 25.09375 60.09375 27 60.5 
Q 28.90625 60.90625 30.796875 60.90625 
Q 33.703125 60.90625 36.140625 60.40625 
Q 38.59375 59.90625 40.5 58.703125 
Q 42.40625 57.5 43.546875 55.390625 
Q 44.703125 53.296875 44.90625 50.09375 
L 60.09375 50.09375 
Q 60.09375 56.296875 57.75 60.640625 
Q 55.40625 65 51.40625 67.796875 
Q 47.40625 70.59375 42.25 71.84375 
Q 37.09375 73.09375 31.5 73.09375 
Q 26.703125 73.09375 21.890625 71.796875 
Q 17.09375 70.5 13.296875 67.796875 
Q 9.5 65.09375 7.140625 61.046875 
Q 4.796875 57 4.796875 51.5 
Q 4.796875 46.59375 6.640625 43.140625 
Q 8.5 39.703125 11.5 37.390625 
Q 14.5 35.09375 18.296875 33.640625 
Q 22.09375 32.203125 26.09375 31.203125 
Q 30 30.09375 33.796875 29.1875 
Q 37.59375 28.296875 40.59375 27.09375 
Q 43.59375 25.90625 45.4375 24.09375 
Q 47.296875 22.296875 47.296875 19.40625 
Q 47.296875 16.703125 45.890625 14.953125 
Q 44.5 13.203125 42.390625 12.203125 
Q 40.296875 11.203125 37.890625 10.84375 
Q 35.5 10.5 33.40625 10.5 
Q 30.296875 10.5 27.390625 11.25 
Q 24.5 12 22.34375 13.546875 
Q 20.203125 15.09375 18.890625 17.59375 
Q 17.59375 20.09375 17.59375 23.703125 
z
" id="HelveticaNeue-Bold-83"/>
    <path d="M 53.90625 0 
L 53.90625 51.703125 
L 39.703125 51.703125 
L 39.703125 24.59375 
Q 39.703125 16.703125 37.09375 13.25 
Q 34.5 9.796875 28.703125 9.796875 
Q 23.59375 9.796875 21.59375 12.9375 
Q 19.59375 16.09375 19.59375 22.5 
L 19.59375 51.703125 
L 5.40625 51.703125 
L 5.40625 19.90625 
Q 5.40625 15.09375 6.25 11.140625 
Q 7.09375 7.203125 9.1875 4.453125 
Q 11.296875 1.703125 14.9375 0.203125 
Q 18.59375 -1.296875 24.296875 -1.296875 
Q 28.796875 -1.296875 33.09375 0.703125 
Q 37.40625 2.703125 40.09375 7.203125 
L 40.40625 7.203125 
L 40.40625 0 
z
" id="HelveticaNeue-Bold-117"/>
    <path d="M 43.296875 25.796875 
Q 43.296875 22.59375 42.59375 19.59375 
Q 41.90625 16.59375 40.40625 14.296875 
Q 38.90625 12 36.65625 10.640625 
Q 34.40625 9.296875 31.203125 9.296875 
Q 28.09375 9.296875 25.796875 10.640625 
Q 23.5 12 22 14.296875 
Q 20.5 16.59375 19.796875 19.59375 
Q 19.09375 22.59375 19.09375 25.796875 
Q 19.09375 29.09375 19.796875 32.09375 
Q 20.5 35.09375 22 37.390625 
Q 23.5 39.703125 25.796875 41.046875 
Q 28.09375 42.40625 31.203125 42.40625 
Q 34.40625 42.40625 36.65625 41.046875 
Q 38.90625 39.703125 40.40625 37.390625 
Q 41.90625 35.09375 42.59375 32.09375 
Q 43.296875 29.09375 43.296875 25.796875 
z
M 5.40625 71.40625 
L 5.40625 0 
L 18.90625 0 
L 18.90625 6.59375 
L 19.09375 6.59375 
Q 21.40625 2.296875 25.90625 0.5 
Q 30.40625 -1.296875 36.09375 -1.296875 
Q 40 -1.296875 43.796875 0.296875 
Q 47.59375 1.90625 50.640625 5.203125 
Q 53.703125 8.5 55.59375 13.640625 
Q 57.5 18.796875 57.5 25.90625 
Q 57.5 33 55.59375 38.140625 
Q 53.703125 43.296875 50.640625 46.59375 
Q 47.59375 49.90625 43.796875 51.5 
Q 40 53.09375 36.09375 53.09375 
Q 31.296875 53.09375 26.84375 51.25 
Q 22.40625 49.40625 19.796875 45.40625 
L 19.59375 45.40625 
L 19.59375 71.40625 
z
" id="HelveticaNeue-Bold-98"/>
    <path d="M 31.5 9.296875 
Q 28.09375 9.296875 25.6875 10.6875 
Q 23.296875 12.09375 21.84375 14.34375 
Q 20.40625 16.59375 19.75 19.59375 
Q 19.09375 22.59375 19.09375 25.703125 
Q 19.09375 28.90625 19.6875 31.90625 
Q 20.296875 34.90625 21.75 37.203125 
Q 23.203125 39.5 25.546875 40.953125 
Q 27.90625 42.40625 31.40625 42.40625 
Q 34.796875 42.40625 37.140625 40.953125 
Q 39.5 39.5 41 37.140625 
Q 42.5 34.796875 43.140625 31.796875 
Q 43.796875 28.796875 43.796875 25.703125 
Q 43.796875 22.59375 43.1875 19.59375 
Q 42.59375 16.59375 41.140625 14.34375 
Q 39.703125 12.09375 37.34375 10.6875 
Q 35 9.296875 31.5 9.296875 
z
M 5.40625 51.703125 
L 5.40625 -18.09375 
L 19.59375 -18.09375 
L 19.59375 6.40625 
L 19.796875 6.40625 
Q 22.40625 2.59375 26.453125 0.640625 
Q 30.5 -1.296875 35.296875 -1.296875 
Q 41 -1.296875 45.25 0.890625 
Q 49.5 3.09375 52.34375 6.796875 
Q 55.203125 10.5 56.59375 15.296875 
Q 58 20.09375 58 25.296875 
Q 58 30.796875 56.59375 35.84375 
Q 55.203125 40.90625 52.296875 44.703125 
Q 49.40625 48.5 45 50.796875 
Q 40.59375 53.09375 34.5 53.09375 
Q 29.703125 53.09375 25.703125 51.1875 
Q 21.703125 49.296875 19.09375 45.09375 
L 18.90625 45.09375 
L 18.90625 51.703125 
z
" id="HelveticaNeue-Bold-112"/>
    <path d="M 5.796875 71.40625 
L 5.796875 0 
L 20 0 
L 20 71.40625 
z
" id="HelveticaNeue-Bold-108"/>
    <path d="M 18 25.796875 
Q 18 28.90625 18.59375 31.90625 
Q 19.203125 34.90625 20.640625 37.203125 
Q 22.09375 39.5 24.5 40.953125 
Q 26.90625 42.40625 30.5 42.40625 
Q 34.09375 42.40625 36.546875 40.953125 
Q 39 39.5 40.453125 37.203125 
Q 41.90625 34.90625 42.5 31.90625 
Q 43.09375 28.90625 43.09375 25.796875 
Q 43.09375 22.703125 42.5 19.75 
Q 41.90625 16.796875 40.453125 14.4375 
Q 39 12.09375 36.546875 10.6875 
Q 34.09375 9.296875 30.5 9.296875 
Q 26.90625 9.296875 24.5 10.6875 
Q 22.09375 12.09375 20.640625 14.4375 
Q 19.203125 16.796875 18.59375 19.75 
Q 18 22.703125 18 25.796875 
z
M 3.796875 25.796875 
Q 3.796875 19.59375 5.6875 14.59375 
Q 7.59375 9.59375 11.09375 6.046875 
Q 14.59375 2.5 19.5 0.59375 
Q 24.40625 -1.296875 30.5 -1.296875 
Q 36.59375 -1.296875 41.546875 0.59375 
Q 46.5 2.5 50 6.046875 
Q 53.5 9.59375 55.390625 14.59375 
Q 57.296875 19.59375 57.296875 25.796875 
Q 57.296875 32 55.390625 37.046875 
Q 53.5 42.09375 50 45.640625 
Q 46.5 49.203125 41.546875 51.140625 
Q 36.59375 53.09375 30.5 53.09375 
Q 24.40625 53.09375 19.5 51.140625 
Q 14.59375 49.203125 11.09375 45.640625 
Q 7.59375 42.09375 5.6875 37.046875 
Q 3.796875 32 3.796875 25.796875 
z
" id="HelveticaNeue-Bold-111"/>
    <path d="M 23.40625 51.703125 
L 23.40625 67.203125 
L 9.203125 67.203125 
L 9.203125 51.703125 
L 0.59375 51.703125 
L 0.59375 42.203125 
L 9.203125 42.203125 
L 9.203125 11.703125 
Q 9.203125 7.796875 10.5 5.390625 
Q 11.796875 3 14.046875 1.703125 
Q 16.296875 0.40625 19.25 -0.046875 
Q 22.203125 -0.5 25.5 -0.5 
Q 27.59375 -0.5 29.796875 -0.390625 
Q 32 -0.296875 33.796875 0 
L 33.796875 11 
Q 32.796875 10.796875 31.6875 10.6875 
Q 30.59375 10.59375 29.40625 10.59375 
Q 25.796875 10.59375 24.59375 11.796875 
Q 23.40625 13 23.40625 16.59375 
L 23.40625 42.203125 
L 33.796875 42.203125 
L 33.796875 51.703125 
z
" id="HelveticaNeue-Bold-116"/>
    <path id="HelveticaNeue-Bold-32"/>
    <path d="M 29.5 12.203125 
Q 26.203125 12.203125 24 13.59375 
Q 21.796875 15 20.4375 17.203125 
Q 19.09375 19.40625 18.546875 22.15625 
Q 18 24.90625 18 27.703125 
Q 18 30.59375 18.640625 33.25 
Q 19.296875 35.90625 20.75 37.953125 
Q 22.203125 40 24.34375 41.203125 
Q 26.5 42.40625 29.5 42.40625 
Q 33 42.40625 35.296875 41.09375 
Q 37.59375 39.796875 39 37.59375 
Q 40.40625 35.40625 41 32.546875 
Q 41.59375 29.703125 41.59375 26.5 
Q 41.59375 23.703125 40.84375 21.140625 
Q 40.09375 18.59375 38.59375 16.59375 
Q 37.09375 14.59375 34.796875 13.390625 
Q 32.5 12.203125 29.5 12.203125 
z
M 55.09375 3.296875 
L 55.09375 51.703125 
L 41.59375 51.703125 
L 41.59375 44.796875 
L 41.40625 44.796875 
Q 38.796875 49.296875 34.9375 51.1875 
Q 31.09375 53.09375 26 53.09375 
Q 20.59375 53.09375 16.4375 51 
Q 12.296875 48.90625 9.5 45.34375 
Q 6.703125 41.796875 5.25 37.140625 
Q 3.796875 32.5 3.796875 27.5 
Q 3.796875 22.203125 5.046875 17.453125 
Q 6.296875 12.703125 9 9.140625 
Q 11.703125 5.59375 15.890625 3.546875 
Q 20.09375 1.5 25.90625 1.5 
Q 30.59375 1.5 34.84375 3.453125 
Q 39.09375 5.40625 41.40625 9.5 
L 41.59375 9.5 
L 41.59375 2.703125 
Q 41.703125 -2.796875 38.953125 -6.390625 
Q 36.203125 -10 30.203125 -10 
Q 26.40625 -10 23.5 -8.453125 
Q 20.59375 -6.90625 19.59375 -2.90625 
L 5.5 -2.90625 
Q 5.796875 -7.296875 7.9375 -10.4375 
Q 10.09375 -13.59375 13.34375 -15.59375 
Q 16.59375 -17.59375 20.546875 -18.546875 
Q 24.5 -19.5 28.296875 -19.5 
Q 37.203125 -19.5 42.5 -17.09375 
Q 47.796875 -14.703125 50.59375 -11.25 
Q 53.40625 -7.796875 54.25 -3.796875 
Q 55.09375 0.203125 55.09375 3.296875 
z
" id="HelveticaNeue-Bold-103"/>
    <path d="M 5.40625 51.703125 
L 5.40625 0 
L 19.59375 0 
L 19.59375 23.296875 
Q 19.59375 26.796875 20.296875 29.796875 
Q 21 32.796875 22.640625 35.046875 
Q 24.296875 37.296875 27 38.59375 
Q 29.703125 39.90625 33.59375 39.90625 
Q 34.90625 39.90625 36.296875 39.75 
Q 37.703125 39.59375 38.703125 39.40625 
L 38.703125 52.59375 
Q 37 53.09375 35.59375 53.09375 
Q 32.90625 53.09375 30.40625 52.296875 
Q 27.90625 51.5 25.703125 50.046875 
Q 23.5 48.59375 21.796875 46.546875 
Q 20.09375 44.5 19.09375 42.09375 
L 18.90625 42.09375 
L 18.90625 51.703125 
z
" id="HelveticaNeue-Bold-114"/>
    <path d="M 20 59.703125 
L 20 71.40625 
L 5.796875 71.40625 
L 5.796875 59.703125 
z
M 5.796875 51.703125 
L 5.796875 0 
L 20 0 
L 20 51.703125 
z
" id="HelveticaNeue-Bold-105"/>
    <path d="M 42.09375 26 
Q 42.09375 22.796875 41.5 19.796875 
Q 40.90625 16.796875 39.5 14.4375 
Q 38.09375 12.09375 35.75 10.6875 
Q 33.40625 9.296875 29.90625 9.296875 
Q 26.59375 9.296875 24.25 10.75 
Q 21.90625 12.203125 20.34375 14.546875 
Q 18.796875 16.90625 18.09375 19.90625 
Q 17.40625 22.90625 17.40625 25.90625 
Q 17.40625 29.09375 18.046875 32.046875 
Q 18.703125 35 20.140625 37.296875 
Q 21.59375 39.59375 24 41 
Q 26.40625 42.40625 29.90625 42.40625 
Q 33.40625 42.40625 35.703125 41 
Q 38 39.59375 39.453125 37.34375 
Q 40.90625 35.09375 41.5 32.140625 
Q 42.09375 29.203125 42.09375 26 
z
M 42.296875 6.59375 
L 42.296875 0 
L 55.796875 0 
L 55.796875 71.40625 
L 41.59375 71.40625 
L 41.59375 45.40625 
L 41.40625 45.40625 
Q 39 49.203125 34.84375 51.140625 
Q 30.703125 53.09375 26.09375 53.09375 
Q 20.40625 53.09375 16.09375 50.84375 
Q 11.796875 48.59375 8.9375 44.890625 
Q 6.09375 41.203125 4.640625 36.34375 
Q 3.203125 31.5 3.203125 26.296875 
Q 3.203125 20.90625 4.640625 15.90625 
Q 6.09375 10.90625 8.9375 7.046875 
Q 11.796875 3.203125 16.1875 0.953125 
Q 20.59375 -1.296875 26.40625 -1.296875 
Q 31.5 -1.296875 35.546875 0.546875 
Q 39.59375 2.40625 42.09375 6.59375 
z
" id="HelveticaNeue-Bold-100"/>
    <path d="M 64.5 0 
L 80.796875 51.703125 
L 66.203125 51.703125 
L 56.703125 16.703125 
L 56.5 16.703125 
L 47.703125 51.703125 
L 33.90625 51.703125 
L 25.296875 16.59375 
L 25.09375 16.59375 
L 15.59375 51.703125 
L 0.59375 51.703125 
L 17 0 
L 31.703125 0 
L 40.5 34.703125 
L 40.703125 34.703125 
L 49.90625 0 
z
" id="HelveticaNeue-Bold-119"/>
    <path d="M 5.40625 71.40625 
L 5.40625 0 
L 19.59375 0 
L 19.59375 27.09375 
Q 19.59375 35 22.1875 38.453125 
Q 24.796875 41.90625 30.59375 41.90625 
Q 35.703125 41.90625 37.703125 38.75 
Q 39.703125 35.59375 39.703125 29.203125 
L 39.703125 0 
L 53.90625 0 
L 53.90625 31.796875 
Q 53.90625 36.59375 53.046875 40.546875 
Q 52.203125 44.5 50.09375 47.25 
Q 48 50 44.34375 51.546875 
Q 40.703125 53.09375 35 53.09375 
Q 31 53.09375 26.796875 51.046875 
Q 22.59375 49 19.90625 44.5 
L 19.59375 44.5 
L 19.59375 71.40625 
z
" id="HelveticaNeue-Bold-104"/>
    <path d="M 40.59375 33.5 
L 54.5 33.5 
Q 54.203125 38.5 52.09375 42.140625 
Q 50 45.796875 46.640625 48.25 
Q 43.296875 50.703125 39.046875 51.890625 
Q 34.796875 53.09375 30.203125 53.09375 
Q 23.90625 53.09375 19 51 
Q 14.09375 48.90625 10.6875 45.15625 
Q 7.296875 41.40625 5.546875 36.25 
Q 3.796875 31.09375 3.796875 25.09375 
Q 3.796875 19.296875 5.6875 14.4375 
Q 7.59375 9.59375 11 6.09375 
Q 14.40625 2.59375 19.25 0.640625 
Q 24.09375 -1.296875 29.90625 -1.296875 
Q 40.203125 -1.296875 46.796875 4.09375 
Q 53.40625 9.5 54.796875 19.796875 
L 41.09375 19.796875 
Q 40.40625 15 37.65625 12.140625 
Q 34.90625 9.296875 29.796875 9.296875 
Q 26.5 9.296875 24.203125 10.796875 
Q 21.90625 12.296875 20.546875 14.640625 
Q 19.203125 17 18.59375 19.890625 
Q 18 22.796875 18 25.59375 
Q 18 28.5 18.59375 31.453125 
Q 19.203125 34.40625 20.640625 36.84375 
Q 22.09375 39.296875 24.390625 40.84375 
Q 26.703125 42.40625 30.09375 42.40625 
Q 39.203125 42.40625 40.59375 33.5 
z
" id="HelveticaNeue-Bold-99"/>
    <path d="M 40.203125 31.40625 
L 17.09375 31.40625 
Q 17.203125 32.90625 17.75 34.796875 
Q 18.296875 36.703125 19.640625 38.390625 
Q 21 40.09375 23.25 41.25 
Q 25.5 42.40625 28.90625 42.40625 
Q 34.09375 42.40625 36.640625 39.59375 
Q 39.203125 36.796875 40.203125 31.40625 
z
M 17.09375 22.40625 
L 54.40625 22.40625 
Q 54.796875 28.40625 53.390625 33.90625 
Q 52 39.40625 48.84375 43.703125 
Q 45.703125 48 40.796875 50.546875 
Q 35.90625 53.09375 29.296875 53.09375 
Q 23.40625 53.09375 18.546875 51 
Q 13.703125 48.90625 10.203125 45.25 
Q 6.703125 41.59375 4.796875 36.59375 
Q 2.90625 31.59375 2.90625 25.796875 
Q 2.90625 19.796875 4.75 14.796875 
Q 6.59375 9.796875 10 6.1875 
Q 13.40625 2.59375 18.296875 0.640625 
Q 23.203125 -1.296875 29.296875 -1.296875 
Q 38.09375 -1.296875 44.296875 2.703125 
Q 50.5 6.703125 53.5 16 
L 41 16 
Q 40.296875 13.59375 37.1875 11.4375 
Q 34.09375 9.296875 29.796875 9.296875 
Q 23.796875 9.296875 20.59375 12.390625 
Q 17.40625 15.5 17.09375 22.40625 
z
" id="HelveticaNeue-Bold-101"/>
    <path d="M 5.40625 51.703125 
L 5.40625 0 
L 19.59375 0 
L 19.59375 27.09375 
Q 19.59375 35 22.1875 38.453125 
Q 24.796875 41.90625 30.59375 41.90625 
Q 35.703125 41.90625 37.703125 38.75 
Q 39.703125 35.59375 39.703125 29.203125 
L 39.703125 0 
L 53.90625 0 
L 53.90625 31.796875 
Q 53.90625 36.59375 53.046875 40.546875 
Q 52.203125 44.5 50.09375 47.25 
Q 48 50 44.34375 51.546875 
Q 40.703125 53.09375 35 53.09375 
Q 30.5 53.09375 26.203125 51.046875 
Q 21.90625 49 19.203125 44.5 
L 18.90625 44.5 
L 18.90625 51.703125 
z
" id="HelveticaNeue-Bold-110"/>
    <path d="M 16.40625 16.796875 
L 2.90625 16.796875 
Q 3.09375 11.59375 5.25 8.140625 
Q 7.40625 4.703125 10.75 2.59375 
Q 14.09375 0.5 18.390625 -0.390625 
Q 22.703125 -1.296875 27.203125 -1.296875 
Q 31.59375 -1.296875 35.84375 -0.4375 
Q 40.09375 0.40625 43.390625 2.5 
Q 46.703125 4.59375 48.75 8.046875 
Q 50.796875 11.5 50.796875 16.59375 
Q 50.796875 20.203125 49.390625 22.640625 
Q 48 25.09375 45.703125 26.75 
Q 43.40625 28.40625 40.453125 29.40625 
Q 37.5 30.40625 34.40625 31.09375 
Q 31.40625 31.796875 28.5 32.390625 
Q 25.59375 33 23.34375 33.75 
Q 21.09375 34.5 19.6875 35.703125 
Q 18.296875 36.90625 18.296875 38.796875 
Q 18.296875 40.40625 19.09375 41.34375 
Q 19.90625 42.296875 21.046875 42.796875 
Q 22.203125 43.296875 23.59375 43.4375 
Q 25 43.59375 26.203125 43.59375 
Q 30 43.59375 32.796875 42.140625 
Q 35.59375 40.703125 35.90625 36.59375 
L 49.40625 36.59375 
Q 49 41.40625 46.953125 44.546875 
Q 44.90625 47.703125 41.796875 49.59375 
Q 38.703125 51.5 34.75 52.296875 
Q 30.796875 53.09375 26.59375 53.09375 
Q 22.40625 53.09375 18.40625 52.34375 
Q 14.40625 51.59375 11.203125 49.75 
Q 8 47.90625 6.046875 44.703125 
Q 4.09375 41.5 4.09375 36.5 
Q 4.09375 33.09375 5.5 30.75 
Q 6.90625 28.40625 9.203125 26.84375 
Q 11.5 25.296875 14.453125 24.34375 
Q 17.40625 23.40625 20.5 22.703125 
Q 28.09375 21.09375 32.34375 19.5 
Q 36.59375 17.90625 36.59375 14.703125 
Q 36.59375 12.796875 35.6875 11.546875 
Q 34.796875 10.296875 33.4375 9.546875 
Q 32.09375 8.796875 30.4375 8.4375 
Q 28.796875 8.09375 27.296875 8.09375 
Q 25.203125 8.09375 23.25 8.59375 
Q 21.296875 9.09375 19.796875 10.140625 
Q 18.296875 11.203125 17.34375 12.84375 
Q 16.40625 14.5 16.40625 16.796875 
z
" id="HelveticaNeue-Bold-115"/>
   </defs>
   <g transform="translate(80.688906 13.38875)scale(0.09 -0.09)">
    <use xlink:href="#HelveticaNeue-Bold-83"/>
    <use x="64.899994" xlink:href="#HelveticaNeue-Bold-117"/>
    <use x="124.199982" xlink:href="#HelveticaNeue-Bold-98"/>
    <use x="185.299973" xlink:href="#HelveticaNeue-Bold-112"/>
    <use x="246.399963" xlink:href="#HelveticaNeue-Bold-108"/>
    <use x="272.199951" xlink:href="#HelveticaNeue-Bold-111"/>
    <use x="333.299942" xlink:href="#HelveticaNeue-Bold-116"/>
    <use x="368.499939" xlink:href="#HelveticaNeue-Bold-32"/>
    <use x="396.299927" xlink:href="#HelveticaNeue-Bold-103"/>
    <use x="457.399918" xlink:href="#HelveticaNeue-Bold-114"/>
    <use x="496.299911" xlink:href="#HelveticaNeue-Bold-105"/>
    <use x="522.099899" xlink:href="#HelveticaNeue-Bold-100"/>
    <use x="583.19989" xlink:href="#HelveticaNeue-Bold-32"/>
    <use x="610.999878" xlink:href="#HelveticaNeue-Bold-119"/>
    <use x="692.399872" xlink:href="#HelveticaNeue-Bold-105"/>
    <use x="718.19986" xlink:href="#HelveticaNeue-Bold-116"/>
    <use x="753.399857" xlink:href="#HelveticaNeue-Bold-104"/>
    <use x="812.699844" xlink:href="#HelveticaNeue-Bold-32"/>
    <use x="840.499832" xlink:href="#HelveticaNeue-Bold-99"/>
    <use x="897.899826" xlink:href="#HelveticaNeue-Bold-101"/>
    <use x="955.29982" xlink:href="#HelveticaNeue-Bold-110"/>
    <use x="1014.599808" xlink:href="#HelveticaNeue-Bold-116"/>
    <use x="1049.799805" xlink:href="#HelveticaNeue-Bold-101"/>
    <use x="1107.199799" xlink:href="#HelveticaNeue-Bold-114"/>
    <use x="1146.084167" xlink:href="#HelveticaNeue-Bold-101"/>
    <use x="1203.484161" xlink:href="#HelveticaNeue-Bold-100"/>
    <use x="1264.584152" xlink:href="#HelveticaNeue-Bold-32"/>
    <use x="1292.38414" xlink:href="#HelveticaNeue-Bold-114"/>
    <use x="1331.268509" xlink:href="#HelveticaNeue-Bold-111"/>
    <use x="1392.3685" xlink:href="#HelveticaNeue-Bold-119"/>
    <use x="1473.768494" xlink:href="#HelveticaNeue-Bold-115"/>
   </g>
  </g>
 </g>
 <defs>
  <clipPath id="pc8535aa31b">
   <rect height="108" width="108" x="34.7" y="20.7"/>
  </clipPath>
  <clipPath id="pba8a4bf995">
   <rect height="108" width="108" x="156.15" y="20.7"/>
  </clipPath>
  <clipPath id="p2aa78f4408">
   <rect height="108" width="114.25" x="92.3" y="159.3"/>
  </clipPath>
 </defs>
</svg>
