<?xml version="1.0" encoding="utf-8" standalone="no"?>
<!DOCTYPE svg PUBLIC "-//W3C//DTD SVG 1.1//EN"
  "http://www.w3.org/Graphics/SVG/1.1/DTD/svg11.dtd">
<!-- Created with matplotlib (https://matplotlib.org/) -->
<svg height="180.9pt" version="1.1" viewBox="0 0 369.6 180.9" width="369.6pt" xmlns="http://www.w3.org/2000/svg" xmlns:xlink="http://www.w3.org/1999/xlink">
 <defs>
  <style type="text/css">
*{stroke-linecap:butt;stroke-linejoin:round;}
  </style>
 </defs>
 <g id="figure_1">
  <g id="patch_1">
   <path d="M 0 180.9 
L 369.6 180.9 
L 369.6 0 
L 0 0 
z
" style="fill:#f2f2f2;"/>
  </g>
  <g id="axes_1">
   <g id="patch_2">
    <path d="M 43.6 150.3 
L 173.2 150.3 
L 173.2 20.7 
L 43.6 20.7 
z
" style="fill:#ffffff;"/>
   </g>
   <g id="matplotlib.axis_1">
    <g id="xtick_1">
     <g id="line2d_1">
      <path clip-path="url(#p4ea7c946f5)" d="M 43.6 150.3 
L 43.6 20.7 
" style="fill:none;stroke:#000000;stroke-linecap:square;stroke-opacity:0.1;stroke-width:0.6;"/>
     </g>
     <g id="line2d_2">
      <defs>
       <path d="M 0 0 
L 0 4 
" id="ma73bc1a3b7" style="stroke:#000000;"/>
      </defs>
      <g>
       <use style="stroke:#000000;" x="43.6" xlink:href="#ma73bc1a3b7" y="150.3"/>
      </g>
     </g>
     <g id="text_1">
      <!-- 0.0 -->
      <defs>
       <path d="M 16.296875 35.296875 
Q 16.296875 37.09375 16.34375 39.640625 
Q 16.40625 42.203125 16.703125 44.890625 
Q 17 47.59375 17.703125 50.25 
Q 18.40625 52.90625 19.65625 55 
Q 20.90625 57.09375 22.84375 58.390625 
Q 24.796875 59.703125 27.703125 59.703125 
Q 30.59375 59.703125 32.59375 58.390625 
Q 34.59375 57.09375 35.890625 55 
Q 37.203125 52.90625 37.84375 50.25 
Q 38.5 47.59375 38.84375 44.890625 
Q 39.203125 42.203125 39.25 39.640625 
Q 39.296875 37.09375 39.296875 35.296875 
Q 39.296875 32.296875 39.09375 28.046875 
Q 38.90625 23.796875 37.84375 19.84375 
Q 36.796875 15.90625 34.4375 13.09375 
Q 32.09375 10.296875 27.703125 10.296875 
Q 23.40625 10.296875 21.09375 13.09375 
Q 18.796875 15.90625 17.75 19.84375 
Q 16.703125 23.796875 16.5 28.046875 
Q 16.296875 32.296875 16.296875 35.296875 
z
M 2.09375 35.296875 
Q 2.09375 24.796875 4.140625 17.75 
Q 6.203125 10.703125 9.703125 6.5 
Q 13.203125 2.296875 17.84375 0.5 
Q 22.5 -1.296875 27.703125 -1.296875 
Q 33 -1.296875 37.640625 0.5 
Q 42.296875 2.296875 45.84375 6.5 
Q 49.40625 10.703125 51.453125 17.75 
Q 53.5 24.796875 53.5 35.296875 
Q 53.5 45.5 51.453125 52.453125 
Q 49.40625 59.40625 45.84375 63.59375 
Q 42.296875 67.796875 37.640625 69.59375 
Q 33 71.40625 27.703125 71.40625 
Q 22.5 71.40625 17.84375 69.59375 
Q 13.203125 67.796875 9.703125 63.59375 
Q 6.203125 59.40625 4.140625 52.453125 
Q 2.09375 45.5 2.09375 35.296875 
z
" id="HelveticaNeue-Bold-48"/>
       <path d="M 6 15.40625 
L 6 0 
L 21.703125 0 
L 21.703125 15.40625 
z
" id="HelveticaNeue-Bold-46"/>
      </defs>
      <g transform="translate(38.040625 162.0125)scale(0.08 -0.08)">
       <use xlink:href="#HelveticaNeue-Bold-48"/>
       <use x="55.599991" xlink:href="#HelveticaNeue-Bold-46"/>
       <use x="83.399979" xlink:href="#HelveticaNeue-Bold-48"/>
      </g>
     </g>
    </g>
    <g id="xtick_2">
     <g id="line2d_3">
      <path clip-path="url(#p4ea7c946f5)" d="M 69.52 150.3 
L 69.52 20.7 
" style="fill:none;stroke:#000000;stroke-linecap:square;stroke-opacity:0.1;stroke-width:0.6;"/>
     </g>
     <g id="line2d_4">
      <g>
       <use style="stroke:#000000;" x="69.52" xlink:href="#ma73bc1a3b7" y="150.3"/>
      </g>
     </g>
     <g id="text_2">
      <!-- 0.2 -->
      <defs>
       <path d="M 3.703125 43.09375 
L 17.296875 43.09375 
Q 17.296875 45.90625 17.84375 48.75 
Q 18.40625 51.59375 19.703125 53.9375 
Q 21 56.296875 23.140625 57.75 
Q 25.296875 59.203125 28.40625 59.203125 
Q 33 59.203125 35.953125 56.34375 
Q 38.90625 53.5 38.90625 48.40625 
Q 38.90625 45.203125 37.453125 42.703125 
Q 36 40.203125 33.84375 38.203125 
Q 31.703125 36.203125 29.09375 34.546875 
Q 26.5 32.90625 24.203125 31.296875 
Q 19.703125 28.203125 15.640625 25.203125 
Q 11.59375 22.203125 8.59375 18.640625 
Q 5.59375 15.09375 3.84375 10.59375 
Q 2.09375 6.09375 2.09375 0 
L 53.5 0 
L 53.5 12.203125 
L 20.40625 12.203125 
Q 23 15.796875 26.390625 18.5 
Q 29.796875 21.203125 33.390625 23.546875 
Q 37 25.90625 40.546875 28.296875 
Q 44.09375 30.703125 46.890625 33.640625 
Q 49.703125 36.59375 51.390625 40.390625 
Q 53.09375 44.203125 53.09375 49.5 
Q 53.09375 54.59375 51.140625 58.6875 
Q 49.203125 62.796875 45.890625 65.59375 
Q 42.59375 68.40625 38.25 69.90625 
Q 33.90625 71.40625 29.09375 71.40625 
Q 22.796875 71.40625 17.9375 69.25 
Q 13.09375 67.09375 9.890625 63.25 
Q 6.703125 59.40625 5.09375 54.25 
Q 3.5 49.09375 3.703125 43.09375 
z
" id="HelveticaNeue-Bold-50"/>
      </defs>
      <g transform="translate(63.960625 162.0125)scale(0.08 -0.08)">
       <use xlink:href="#HelveticaNeue-Bold-48"/>
       <use x="55.599991" xlink:href="#HelveticaNeue-Bold-46"/>
       <use x="83.399979" xlink:href="#HelveticaNeue-Bold-50"/>
      </g>
     </g>
    </g>
    <g id="xtick_3">
     <g id="line2d_5">
      <path clip-path="url(#p4ea7c946f5)" d="M 95.44 150.3 
L 95.44 20.7 
" style="fill:none;stroke:#000000;stroke-linecap:square;stroke-opacity:0.1;stroke-width:0.6;"/>
     </g>
     <g id="line2d_6">
      <g>
       <use style="stroke:#000000;" x="95.44" xlink:href="#ma73bc1a3b7" y="150.3"/>
      </g>
     </g>
     <g id="text_3">
      <!-- 0.4 -->
      <defs>
       <path d="M 31.203125 52.203125 
L 31.203125 27.90625 
L 12.796875 27.90625 
L 30.90625 52.203125 
z
M 31.203125 16.203125 
L 31.203125 0 
L 44.703125 0 
L 44.703125 16.203125 
L 54 16.203125 
L 54 27.90625 
L 44.703125 27.90625 
L 44.703125 70 
L 32 70 
L 1.59375 29.203125 
L 1.59375 16.203125 
z
" id="HelveticaNeue-Bold-52"/>
      </defs>
      <g transform="translate(89.880625 162.0125)scale(0.08 -0.08)">
       <use xlink:href="#HelveticaNeue-Bold-48"/>
       <use x="55.599991" xlink:href="#HelveticaNeue-Bold-46"/>
       <use x="83.399979" xlink:href="#HelveticaNeue-Bold-52"/>
      </g>
     </g>
    </g>
    <g id="xtick_4">
     <g id="line2d_7">
      <path clip-path="url(#p4ea7c946f5)" d="M 121.36 150.3 
L 121.36 20.7 
" style="fill:none;stroke:#000000;stroke-linecap:square;stroke-opacity:0.1;stroke-width:0.6;"/>
     </g>
     <g id="line2d_8">
      <g>
       <use style="stroke:#000000;" x="121.36" xlink:href="#ma73bc1a3b7" y="150.3"/>
      </g>
     </g>
     <g id="text_4">
      <!-- 0.6 -->
      <defs>
       <path d="M 28.59375 36.296875 
Q 31.296875 36.296875 33.34375 35.140625 
Q 35.40625 34 36.703125 32.140625 
Q 38 30.296875 38.640625 27.9375 
Q 39.296875 25.59375 39.296875 23.09375 
Q 39.296875 20.703125 38.59375 18.390625 
Q 37.90625 16.09375 36.5 14.296875 
Q 35.09375 12.5 33.140625 11.390625 
Q 31.203125 10.296875 28.59375 10.296875 
Q 25.90625 10.296875 23.796875 11.390625 
Q 21.703125 12.5 20.25 14.34375 
Q 18.796875 16.203125 18.046875 18.546875 
Q 17.296875 20.90625 17.296875 23.296875 
Q 17.296875 25.90625 18 28.25 
Q 18.703125 30.59375 20.09375 32.390625 
Q 21.5 34.203125 23.640625 35.25 
Q 25.796875 36.296875 28.59375 36.296875 
z
M 38.796875 52 
L 52.296875 52 
Q 51.703125 56.703125 49.796875 60.296875 
Q 47.90625 63.90625 44.90625 66.34375 
Q 41.90625 68.796875 38 70.09375 
Q 34.09375 71.40625 29.59375 71.40625 
Q 22.09375 71.40625 16.890625 68.09375 
Q 11.703125 64.796875 8.390625 59.546875 
Q 5.09375 54.296875 3.59375 47.796875 
Q 2.09375 41.296875 2.09375 34.796875 
Q 2.09375 28.09375 3.296875 21.640625 
Q 4.5 15.203125 7.59375 10.09375 
Q 10.703125 5 15.890625 1.84375 
Q 21.09375 -1.296875 29 -1.296875 
Q 34.5 -1.296875 39 0.640625 
Q 43.5 2.59375 46.75 6.046875 
Q 50 9.5 51.75 14.140625 
Q 53.5 18.796875 53.5 24.203125 
Q 53.5 28.40625 52.203125 32.5 
Q 50.90625 36.59375 48.09375 39.796875 
Q 45.09375 43.09375 40.796875 45.046875 
Q 36.5 47 32 47 
Q 26.90625 47 23 45.203125 
Q 19.09375 43.40625 16.203125 39.203125 
L 16 39.40625 
Q 16.09375 42.296875 16.796875 46 
Q 17.5 49.703125 19 52.953125 
Q 20.5 56.203125 23.046875 58.453125 
Q 25.59375 60.703125 29.40625 60.703125 
Q 33.09375 60.703125 35.59375 58.09375 
Q 38.09375 55.5 38.796875 52 
z
" id="HelveticaNeue-Bold-54"/>
      </defs>
      <g transform="translate(115.800625 162.0125)scale(0.08 -0.08)">
       <use xlink:href="#HelveticaNeue-Bold-48"/>
       <use x="55.599991" xlink:href="#HelveticaNeue-Bold-46"/>
       <use x="83.399979" xlink:href="#HelveticaNeue-Bold-54"/>
      </g>
     </g>
    </g>
    <g id="xtick_5">
     <g id="line2d_9">
      <path clip-path="url(#p4ea7c946f5)" d="M 147.28 150.3 
L 147.28 20.7 
" style="fill:none;stroke:#000000;stroke-linecap:square;stroke-opacity:0.1;stroke-width:0.6;"/>
     </g>
     <g id="line2d_10">
      <g>
       <use style="stroke:#000000;" x="147.28" xlink:href="#ma73bc1a3b7" y="150.3"/>
      </g>
     </g>
     <g id="text_5">
      <!-- 0.8 -->
      <defs>
       <path d="M 17.203125 51 
Q 17.203125 53.40625 18.046875 55.203125 
Q 18.90625 57 20.40625 58.203125 
Q 21.90625 59.40625 23.84375 60.046875 
Q 25.796875 60.703125 27.90625 60.703125 
Q 31.203125 60.703125 33.25 59.703125 
Q 35.296875 58.703125 36.4375 57.203125 
Q 37.59375 55.703125 38 54.046875 
Q 38.40625 52.40625 38.40625 51 
Q 38.40625 46.5 35.40625 44.140625 
Q 32.40625 41.796875 27.90625 41.796875 
Q 23.59375 41.796875 20.390625 44.140625 
Q 17.203125 46.5 17.203125 51 
z
M 4.296875 52.296875 
Q 4.296875 47.09375 6.890625 43.1875 
Q 9.5 39.296875 14.59375 37.90625 
L 14.59375 37.703125 
Q 8.296875 36.203125 4.84375 31.703125 
Q 1.40625 27.203125 1.40625 20.5 
Q 1.40625 14.796875 3.65625 10.6875 
Q 5.90625 6.59375 9.65625 3.890625 
Q 13.40625 1.203125 18.15625 -0.046875 
Q 22.90625 -1.296875 28 -1.296875 
Q 32.90625 -1.296875 37.59375 0.046875 
Q 42.296875 1.40625 46 4.09375 
Q 49.703125 6.796875 51.953125 10.890625 
Q 54.203125 15 54.203125 20.59375 
Q 54.203125 27.203125 50.796875 31.75 
Q 47.40625 36.296875 41.09375 37.703125 
L 41.09375 37.90625 
Q 46.203125 39.59375 48.75 43.5 
Q 51.296875 47.40625 51.296875 52.59375 
Q 51.296875 55.203125 50.09375 58.453125 
Q 48.90625 61.703125 46.15625 64.546875 
Q 43.40625 67.40625 38.90625 69.40625 
Q 34.40625 71.40625 27.90625 71.40625 
Q 23.59375 71.40625 19.390625 70.203125 
Q 15.203125 69 11.84375 66.59375 
Q 8.5 64.203125 6.390625 60.59375 
Q 4.296875 57 4.296875 52.296875 
z
M 15.59375 21.203125 
Q 15.59375 26.59375 19.1875 29.4375 
Q 22.796875 32.296875 28 32.296875 
Q 30.5 32.296875 32.640625 31.5 
Q 34.796875 30.703125 36.4375 29.203125 
Q 38.09375 27.703125 39.046875 25.640625 
Q 40 23.59375 40 21.09375 
Q 40 18.5 39.09375 16.296875 
Q 38.203125 14.09375 36.546875 12.546875 
Q 34.90625 11 32.75 10.140625 
Q 30.59375 9.296875 28 9.296875 
Q 25.5 9.296875 23.203125 10.140625 
Q 20.90625 11 19.25 12.546875 
Q 17.59375 14.09375 16.59375 16.296875 
Q 15.59375 18.5 15.59375 21.203125 
z
" id="HelveticaNeue-Bold-56"/>
      </defs>
      <g transform="translate(141.720625 162.0125)scale(0.08 -0.08)">
       <use xlink:href="#HelveticaNeue-Bold-48"/>
       <use x="55.599991" xlink:href="#HelveticaNeue-Bold-46"/>
       <use x="83.399979" xlink:href="#HelveticaNeue-Bold-56"/>
      </g>
     </g>
    </g>
    <g id="xtick_6">
     <g id="line2d_11">
      <path clip-path="url(#p4ea7c946f5)" d="M 173.2 150.3 
L 173.2 20.7 
" style="fill:none;stroke:#000000;stroke-linecap:square;stroke-opacity:0.1;stroke-width:0.6;"/>
     </g>
     <g id="line2d_12">
      <g>
       <use style="stroke:#000000;" x="173.2" xlink:href="#ma73bc1a3b7" y="150.3"/>
      </g>
     </g>
     <g id="text_6">
      <!-- 1.0 -->
      <defs>
       <path d="M 39.203125 0 
L 39.203125 70 
L 27.90625 70 
Q 27.296875 66 25.390625 63.296875 
Q 23.5 60.59375 20.75 58.9375 
Q 18 57.296875 14.546875 56.640625 
Q 11.09375 56 7.40625 56.09375 
L 7.40625 45.40625 
L 25 45.40625 
L 25 0 
z
" id="HelveticaNeue-Bold-49"/>
      </defs>
      <g transform="translate(167.640625 162.0125)scale(0.08 -0.08)">
       <use xlink:href="#HelveticaNeue-Bold-49"/>
       <use x="55.599991" xlink:href="#HelveticaNeue-Bold-46"/>
       <use x="83.399979" xlink:href="#HelveticaNeue-Bold-48"/>
      </g>
     </g>
    </g>
    <g id="xtick_7">
     <g id="line2d_13">
      <defs>
       <path d="M 0 0 
L 0 2 
" id="m04149c13f0" style="stroke:#000000;stroke-width:0.8;"/>
      </defs>
      <g>
       <use style="stroke:#000000;stroke-width:0.8;" x="50.08" xlink:href="#m04149c13f0" y="150.3"/>
      </g>
     </g>
    </g>
    <g id="xtick_8">
     <g id="line2d_14">
      <g>
       <use style="stroke:#000000;stroke-width:0.8;" x="56.56" xlink:href="#m04149c13f0" y="150.3"/>
      </g>
     </g>
    </g>
    <g id="xtick_9">
     <g id="line2d_15">
      <g>
       <use style="stroke:#000000;stroke-width:0.8;" x="63.04" xlink:href="#m04149c13f0" y="150.3"/>
      </g>
     </g>
    </g>
    <g id="xtick_10">
     <g id="line2d_16">
      <g>
       <use style="stroke:#000000;stroke-width:0.8;" x="76" xlink:href="#m04149c13f0" y="150.3"/>
      </g>
     </g>
    </g>
    <g id="xtick_11">
     <g id="line2d_17">
      <g>
       <use style="stroke:#000000;stroke-width:0.8;" x="82.48" xlink:href="#m04149c13f0" y="150.3"/>
      </g>
     </g>
    </g>
    <g id="xtick_12">
     <g id="line2d_18">
      <g>
       <use style="stroke:#000000;stroke-width:0.8;" x="88.96" xlink:href="#m04149c13f0" y="150.3"/>
      </g>
     </g>
    </g>
    <g id="xtick_13">
     <g id="line2d_19">
      <g>
       <use style="stroke:#000000;stroke-width:0.8;" x="101.92" xlink:href="#m04149c13f0" y="150.3"/>
      </g>
     </g>
    </g>
    <g id="xtick_14">
     <g id="line2d_20">
      <g>
       <use style="stroke:#000000;stroke-width:0.8;" x="108.4" xlink:href="#m04149c13f0" y="150.3"/>
      </g>
     </g>
    </g>
    <g id="xtick_15">
     <g id="line2d_21">
      <g>
       <use style="stroke:#000000;stroke-width:0.8;" x="114.88" xlink:href="#m04149c13f0" y="150.3"/>
      </g>
     </g>
    </g>
    <g id="xtick_16">
     <g id="line2d_22">
      <g>
       <use style="stroke:#000000;stroke-width:0.8;" x="127.84" xlink:href="#m04149c13f0" y="150.3"/>
      </g>
     </g>
    </g>
    <g id="xtick_17">
     <g id="line2d_23">
      <g>
       <use style="stroke:#000000;stroke-width:0.8;" x="134.32" xlink:href="#m04149c13f0" y="150.3"/>
      </g>
     </g>
    </g>
    <g id="xtick_18">
     <g id="line2d_24">
      <g>
       <use style="stroke:#000000;stroke-width:0.8;" x="140.8" xlink:href="#m04149c13f0" y="150.3"/>
      </g>
     </g>
    </g>
    <g id="xtick_19">
     <g id="line2d_25">
      <g>
       <use style="stroke:#000000;stroke-width:0.8;" x="153.76" xlink:href="#m04149c13f0" y="150.3"/>
      </g>
     </g>
    </g>
    <g id="xtick_20">
     <g id="line2d_26">
      <g>
       <use style="stroke:#000000;stroke-width:0.8;" x="160.24" xlink:href="#m04149c13f0" y="150.3"/>
      </g>
     </g>
    </g>
    <g id="xtick_21">
     <g id="line2d_27">
      <g>
       <use style="stroke:#000000;stroke-width:0.8;" x="166.72" xlink:href="#m04149c13f0" y="150.3"/>
      </g>
     </g>
    </g>
    <g id="text_7">
     <!-- linear scale -->
     <defs>
      <path d="M 5.796875 71.40625 
L 5.796875 0 
L 20 0 
L 20 71.40625 
z
" id="HelveticaNeue-Bold-108"/>
      <path d="M 20 59.703125 
L 20 71.40625 
L 5.796875 71.40625 
L 5.796875 59.703125 
z
M 5.796875 51.703125 
L 5.796875 0 
L 20 0 
L 20 51.703125 
z
" id="HelveticaNeue-Bold-105"/>
      <path d="M 5.40625 51.703125 
L 5.40625 0 
L 19.59375 0 
L 19.59375 27.09375 
Q 19.59375 35 22.1875 38.453125 
Q 24.796875 41.90625 30.59375 41.90625 
Q 35.703125 41.90625 37.703125 38.75 
Q 39.703125 35.59375 39.703125 29.203125 
L 39.703125 0 
L 53.90625 0 
L 53.90625 31.796875 
Q 53.90625 36.59375 53.046875 40.546875 
Q 52.203125 44.5 50.09375 47.25 
Q 48 50 44.34375 51.546875 
Q 40.703125 53.09375 35 53.09375 
Q 30.5 53.09375 26.203125 51.046875 
Q 21.90625 49 19.203125 44.5 
L 18.90625 44.5 
L 18.90625 51.703125 
z
" id="HelveticaNeue-Bold-110"/>
      <path d="M 40.203125 31.40625 
L 17.09375 31.40625 
Q 17.203125 32.90625 17.75 34.796875 
Q 18.296875 36.703125 19.640625 38.390625 
Q 21 40.09375 23.25 41.25 
Q 25.5 42.40625 28.90625 42.40625 
Q 34.09375 42.40625 36.640625 39.59375 
Q 39.203125 36.796875 40.203125 31.40625 
z
M 17.09375 22.40625 
L 54.40625 22.40625 
Q 54.796875 28.40625 53.390625 33.90625 
Q 52 39.40625 48.84375 43.703125 
Q 45.703125 48 40.796875 50.546875 
Q 35.90625 53.09375 29.296875 53.09375 
Q 23.40625 53.09375 18.546875 51 
Q 13.703125 48.90625 10.203125 45.25 
Q 6.703125 41.59375 4.796875 36.59375 
Q 2.90625 31.59375 2.90625 25.796875 
Q 2.90625 19.796875 4.75 14.796875 
Q 6.59375 9.796875 10 6.1875 
Q 13.40625 2.59375 18.296875 0.640625 
Q 23.203125 -1.296875 29.296875 -1.296875 
Q 38.09375 -1.296875 44.296875 2.703125 
Q 50.5 6.703125 53.5 16 
L 41 16 
Q 40.296875 13.59375 37.1875 11.4375 
Q 34.09375 9.296875 29.796875 9.296875 
Q 23.796875 9.296875 20.59375 12.390625 
Q 17.40625 15.5 17.09375 22.40625 
z
" id="HelveticaNeue-Bold-101"/>
      <path d="M 4.796875 35.796875 
Q 5.09375 40.796875 7.296875 44.09375 
Q 9.5 47.40625 12.890625 49.40625 
Q 16.296875 51.40625 20.546875 52.25 
Q 24.796875 53.09375 29.09375 53.09375 
Q 33 53.09375 37 52.546875 
Q 41 52 44.296875 50.390625 
Q 47.59375 48.796875 49.6875 45.9375 
Q 51.796875 43.09375 51.796875 38.40625 
L 51.796875 11.5 
Q 51.796875 8 52.1875 4.796875 
Q 52.59375 1.59375 53.59375 0 
L 39.203125 0 
Q 38.796875 1.203125 38.546875 2.453125 
Q 38.296875 3.703125 38.203125 5 
Q 34.796875 1.5 30.1875 0.09375 
Q 25.59375 -1.296875 20.796875 -1.296875 
Q 17.09375 -1.296875 13.890625 -0.390625 
Q 10.703125 0.5 8.296875 2.390625 
Q 5.90625 4.296875 4.546875 7.1875 
Q 3.203125 10.09375 3.203125 14.09375 
Q 3.203125 18.5 4.75 21.34375 
Q 6.296875 24.203125 8.75 25.890625 
Q 11.203125 27.59375 14.34375 28.4375 
Q 17.5 29.296875 20.703125 29.796875 
Q 23.90625 30.296875 27 30.59375 
Q 30.09375 30.90625 32.5 31.5 
Q 34.90625 32.09375 36.296875 33.25 
Q 37.703125 34.40625 37.59375 36.59375 
Q 37.59375 38.90625 36.84375 40.25 
Q 36.09375 41.59375 34.84375 42.34375 
Q 33.59375 43.09375 31.9375 43.34375 
Q 30.296875 43.59375 28.40625 43.59375 
Q 24.203125 43.59375 21.796875 41.796875 
Q 19.40625 40 19 35.796875 
z
M 37.59375 25.296875 
Q 36.703125 24.5 35.34375 24.046875 
Q 34 23.59375 32.453125 23.296875 
Q 30.90625 23 29.203125 22.796875 
Q 27.5 22.59375 25.796875 22.296875 
Q 24.203125 22 22.640625 21.5 
Q 21.09375 21 19.9375 20.140625 
Q 18.796875 19.296875 18.09375 18 
Q 17.40625 16.703125 17.40625 14.703125 
Q 17.40625 12.796875 18.09375 11.5 
Q 18.796875 10.203125 20 9.453125 
Q 21.203125 8.703125 22.796875 8.390625 
Q 24.40625 8.09375 26.09375 8.09375 
Q 30.296875 8.09375 32.59375 9.5 
Q 34.90625 10.90625 36 12.84375 
Q 37.09375 14.796875 37.34375 16.796875 
Q 37.59375 18.796875 37.59375 20 
z
" id="HelveticaNeue-Bold-97"/>
      <path d="M 5.40625 51.703125 
L 5.40625 0 
L 19.59375 0 
L 19.59375 23.296875 
Q 19.59375 26.796875 20.296875 29.796875 
Q 21 32.796875 22.640625 35.046875 
Q 24.296875 37.296875 27 38.59375 
Q 29.703125 39.90625 33.59375 39.90625 
Q 34.90625 39.90625 36.296875 39.75 
Q 37.703125 39.59375 38.703125 39.40625 
L 38.703125 52.59375 
Q 37 53.09375 35.59375 53.09375 
Q 32.90625 53.09375 30.40625 52.296875 
Q 27.90625 51.5 25.703125 50.046875 
Q 23.5 48.59375 21.796875 46.546875 
Q 20.09375 44.5 19.09375 42.09375 
L 18.90625 42.09375 
L 18.90625 51.703125 
z
" id="HelveticaNeue-Bold-114"/>
      <path id="HelveticaNeue-Bold-32"/>
      <path d="M 16.40625 16.796875 
L 2.90625 16.796875 
Q 3.09375 11.59375 5.25 8.140625 
Q 7.40625 4.703125 10.75 2.59375 
Q 14.09375 0.5 18.390625 -0.390625 
Q 22.703125 -1.296875 27.203125 -1.296875 
Q 31.59375 -1.296875 35.84375 -0.4375 
Q 40.09375 0.40625 43.390625 2.5 
Q 46.703125 4.59375 48.75 8.046875 
Q 50.796875 11.5 50.796875 16.59375 
Q 50.796875 20.203125 49.390625 22.640625 
Q 48 25.09375 45.703125 26.75 
Q 43.40625 28.40625 40.453125 29.40625 
Q 37.5 30.40625 34.40625 31.09375 
Q 31.40625 31.796875 28.5 32.390625 
Q 25.59375 33 23.34375 33.75 
Q 21.09375 34.5 19.6875 35.703125 
Q 18.296875 36.90625 18.296875 38.796875 
Q 18.296875 40.40625 19.09375 41.34375 
Q 19.90625 42.296875 21.046875 42.796875 
Q 22.203125 43.296875 23.59375 43.4375 
Q 25 43.59375 26.203125 43.59375 
Q 30 43.59375 32.796875 42.140625 
Q 35.59375 40.703125 35.90625 36.59375 
L 49.40625 36.59375 
Q 49 41.40625 46.953125 44.546875 
Q 44.90625 47.703125 41.796875 49.59375 
Q 38.703125 51.5 34.75 52.296875 
Q 30.796875 53.09375 26.59375 53.09375 
Q 22.40625 53.09375 18.40625 52.34375 
Q 14.40625 51.59375 11.203125 49.75 
Q 8 47.90625 6.046875 44.703125 
Q 4.09375 41.5 4.09375 36.5 
Q 4.09375 33.09375 5.5 30.75 
Q 6.90625 28.40625 9.203125 26.84375 
Q 11.5 25.296875 14.453125 24.34375 
Q 17.40625 23.40625 20.5 22.703125 
Q 28.09375 21.09375 32.34375 19.5 
Q 36.59375 17.90625 36.59375 14.703125 
Q 36.59375 12.796875 35.6875 11.546875 
Q 34.796875 10.296875 33.4375 9.546875 
Q 32.09375 8.796875 30.4375 8.4375 
Q 28.796875 8.09375 27.296875 8.09375 
Q 25.203125 8.09375 23.25 8.59375 
Q 21.296875 9.09375 19.796875 10.140625 
Q 18.296875 11.203125 17.34375 12.84375 
Q 16.40625 14.5 16.40625 16.796875 
z
" id="HelveticaNeue-Bold-115"/>
      <path d="M 40.59375 33.5 
L 54.5 33.5 
Q 54.203125 38.5 52.09375 42.140625 
Q 50 45.796875 46.640625 48.25 
Q 43.296875 50.703125 39.046875 51.890625 
Q 34.796875 53.09375 30.203125 53.09375 
Q 23.90625 53.09375 19 51 
Q 14.09375 48.90625 10.6875 45.15625 
Q 7.296875 41.40625 5.546875 36.25 
Q 3.796875 31.09375 3.796875 25.09375 
Q 3.796875 19.296875 5.6875 14.4375 
Q 7.59375 9.59375 11 6.09375 
Q 14.40625 2.59375 19.25 0.640625 
Q 24.09375 -1.296875 29.90625 -1.296875 
Q 40.203125 -1.296875 46.796875 4.09375 
Q 53.40625 9.5 54.796875 19.796875 
L 41.09375 19.796875 
Q 40.40625 15 37.65625 12.140625 
Q 34.90625 9.296875 29.796875 9.296875 
Q 26.5 9.296875 24.203125 10.796875 
Q 21.90625 12.296875 20.546875 14.640625 
Q 19.203125 17 18.59375 19.890625 
Q 18 22.796875 18 25.59375 
Q 18 28.5 18.59375 31.453125 
Q 19.203125 34.40625 20.640625 36.84375 
Q 22.09375 39.296875 24.390625 40.84375 
Q 26.703125 42.40625 30.09375 42.40625 
Q 39.203125 42.40625 40.59375 33.5 
z
" id="HelveticaNeue-Bold-99"/>
     </defs>
     <g transform="translate(86.635 172.1725)scale(0.08 -0.08)">
      <use xlink:href="#HelveticaNeue-Bold-108"/>
      <use x="25.799988" xlink:href="#HelveticaNeue-Bold-105"/>
      <use x="51.599976" xlink:href="#HelveticaNeue-Bold-110"/>
      <use x="110.899963" xlink:href="#HelveticaNeue-Bold-101"/>
      <use x="168.299957" xlink:href="#HelveticaNeue-Bold-97"/>
      <use x="225.699951" xlink:href="#HelveticaNeue-Bold-114"/>
      <use x="264.599945" xlink:href="#HelveticaNeue-Bold-32"/>
      <use x="292.399933" xlink:href="#HelveticaNeue-Bold-115"/>
      <use x="346.09993" xlink:href="#HelveticaNeue-Bold-99"/>
      <use x="403.499924" xlink:href="#HelveticaNeue-Bold-97"/>
      <use x="460.899918" xlink:href="#HelveticaNeue-Bold-108"/>
      <use x="486.699905" xlink:href="#HelveticaNeue-Bold-101"/>
     </g>
    </g>
   </g>
   <g id="matplotlib.axis_2">
    <g id="ytick_1">
     <g id="line2d_28">
      <path clip-path="url(#p4ea7c946f5)" d="M 43.6 150.3 
L 173.2 150.3 
" style="fill:none;stroke:#000000;stroke-linecap:square;stroke-opacity:0.1;stroke-width:0.6;"/>
     </g>
     <g id="line2d_29">
      <defs>
       <path d="M 0 0 
L -4 0 
" id="m13ec1da94b" style="stroke:#000000;"/>
      </defs>
      <g>
       <use style="stroke:#000000;" x="43.6" xlink:href="#m13ec1da94b" y="150.3"/>
      </g>
     </g>
     <g id="text_8">
      <!-- 0.001 -->
      <g transform="translate(17.58625 153.15625)scale(0.08 -0.08)">
       <use xlink:href="#HelveticaNeue-Bold-48"/>
       <use x="55.599991" xlink:href="#HelveticaNeue-Bold-46"/>
       <use x="83.399979" xlink:href="#HelveticaNeue-Bold-48"/>
       <use x="138.999969" xlink:href="#HelveticaNeue-Bold-48"/>
       <use x="194.59996" xlink:href="#HelveticaNeue-Bold-49"/>
      </g>
     </g>
    </g>
    <g id="ytick_2">
     <g id="line2d_30">
      <path clip-path="url(#p4ea7c946f5)" d="M 43.6 128.7 
L 173.2 128.7 
" style="fill:none;stroke:#000000;stroke-linecap:square;stroke-opacity:0.1;stroke-width:0.6;"/>
     </g>
     <g id="line2d_31">
      <g>
       <use style="stroke:#000000;" x="43.6" xlink:href="#m13ec1da94b" y="128.7"/>
      </g>
     </g>
     <g id="text_9">
      <!-- 0.01 -->
      <g transform="translate(22.03375 131.55625)scale(0.08 -0.08)">
       <use xlink:href="#HelveticaNeue-Bold-48"/>
       <use x="55.599991" xlink:href="#HelveticaNeue-Bold-46"/>
       <use x="83.399979" xlink:href="#HelveticaNeue-Bold-48"/>
       <use x="138.999969" xlink:href="#HelveticaNeue-Bold-49"/>
      </g>
     </g>
    </g>
    <g id="ytick_3">
     <g id="line2d_32">
      <path clip-path="url(#p4ea7c946f5)" d="M 43.6 107.1 
L 173.2 107.1 
" style="fill:none;stroke:#000000;stroke-linecap:square;stroke-opacity:0.1;stroke-width:0.6;"/>
     </g>
     <g id="line2d_33">
      <g>
       <use style="stroke:#000000;" x="43.6" xlink:href="#m13ec1da94b" y="107.1"/>
      </g>
     </g>
     <g id="text_10">
      <!-- 0.1 -->
      <g transform="translate(26.48125 109.95625)scale(0.08 -0.08)">
       <use xlink:href="#HelveticaNeue-Bold-48"/>
       <use x="55.599991" xlink:href="#HelveticaNeue-Bold-46"/>
       <use x="83.399979" xlink:href="#HelveticaNeue-Bold-49"/>
      </g>
     </g>
    </g>
    <g id="ytick_4">
     <g id="line2d_34">
      <path clip-path="url(#p4ea7c946f5)" d="M 43.6 85.5 
L 173.2 85.5 
" style="fill:none;stroke:#000000;stroke-linecap:square;stroke-opacity:0.1;stroke-width:0.6;"/>
     </g>
     <g id="line2d_35">
      <g>
       <use style="stroke:#000000;" x="43.6" xlink:href="#m13ec1da94b" y="85.5"/>
      </g>
     </g>
     <g id="text_11">
      <!-- 1 -->
      <g transform="translate(33.1525 88.35625)scale(0.08 -0.08)">
       <use xlink:href="#HelveticaNeue-Bold-49"/>
      </g>
     </g>
    </g>
    <g id="ytick_5">
     <g id="line2d_36">
      <path clip-path="url(#p4ea7c946f5)" d="M 43.6 63.9 
L 173.2 63.9 
" style="fill:none;stroke:#000000;stroke-linecap:square;stroke-opacity:0.1;stroke-width:0.6;"/>
     </g>
     <g id="line2d_37">
      <g>
       <use style="stroke:#000000;" x="43.6" xlink:href="#m13ec1da94b" y="63.9"/>
      </g>
     </g>
     <g id="text_12">
      <!-- 10 -->
      <g transform="translate(28.705 66.75625)scale(0.08 -0.08)">
       <use xlink:href="#HelveticaNeue-Bold-49"/>
       <use x="55.599991" xlink:href="#HelveticaNeue-Bold-48"/>
      </g>
     </g>
    </g>
    <g id="ytick_6">
     <g id="line2d_38">
      <path clip-path="url(#p4ea7c946f5)" d="M 43.6 42.3 
L 173.2 42.3 
" style="fill:none;stroke:#000000;stroke-linecap:square;stroke-opacity:0.1;stroke-width:0.6;"/>
     </g>
     <g id="line2d_39">
      <g>
       <use style="stroke:#000000;" x="43.6" xlink:href="#m13ec1da94b" y="42.3"/>
      </g>
     </g>
     <g id="text_13">
      <!-- 100 -->
      <g transform="translate(24.2575 45.15625)scale(0.08 -0.08)">
       <use xlink:href="#HelveticaNeue-Bold-49"/>
       <use x="55.599991" xlink:href="#HelveticaNeue-Bold-48"/>
       <use x="111.199982" xlink:href="#HelveticaNeue-Bold-48"/>
      </g>
     </g>
    </g>
    <g id="ytick_7">
     <g id="line2d_40">
      <path clip-path="url(#p4ea7c946f5)" d="M 43.6 20.7 
L 173.2 20.7 
" style="fill:none;stroke:#000000;stroke-linecap:square;stroke-opacity:0.1;stroke-width:0.6;"/>
     </g>
     <g id="line2d_41">
      <g>
       <use style="stroke:#000000;" x="43.6" xlink:href="#m13ec1da94b" y="20.7"/>
      </g>
     </g>
     <g id="text_14">
      <!-- 1000 -->
      <g transform="translate(19.81 23.55625)scale(0.08 -0.08)">
       <use xlink:href="#HelveticaNeue-Bold-49"/>
       <use x="55.599991" xlink:href="#HelveticaNeue-Bold-48"/>
       <use x="111.199982" xlink:href="#HelveticaNeue-Bold-48"/>
       <use x="166.799973" xlink:href="#HelveticaNeue-Bold-48"/>
      </g>
     </g>
    </g>
    <g id="ytick_8">
     <g id="line2d_42">
      <defs>
       <path d="M 0 0 
L -2 0 
" id="md79e220bda" style="stroke:#000000;stroke-width:0.8;"/>
      </defs>
      <g>
       <use style="stroke:#000000;stroke-width:0.8;" x="43.6" xlink:href="#md79e220bda" y="143.797752"/>
      </g>
     </g>
    </g>
    <g id="ytick_9">
     <g id="line2d_43">
      <g>
       <use style="stroke:#000000;stroke-width:0.8;" x="43.6" xlink:href="#md79e220bda" y="139.994181"/>
      </g>
     </g>
    </g>
    <g id="ytick_10">
     <g id="line2d_44">
      <g>
       <use style="stroke:#000000;stroke-width:0.8;" x="43.6" xlink:href="#md79e220bda" y="137.295504"/>
      </g>
     </g>
    </g>
    <g id="ytick_11">
     <g id="line2d_45">
      <g>
       <use style="stroke:#000000;stroke-width:0.8;" x="43.6" xlink:href="#md79e220bda" y="135.202248"/>
      </g>
     </g>
    </g>
    <g id="ytick_12">
     <g id="line2d_46">
      <g>
       <use style="stroke:#000000;stroke-width:0.8;" x="43.6" xlink:href="#md79e220bda" y="133.491933"/>
      </g>
     </g>
    </g>
    <g id="ytick_13">
     <g id="line2d_47">
      <g>
       <use style="stroke:#000000;stroke-width:0.8;" x="43.6" xlink:href="#md79e220bda" y="132.045882"/>
      </g>
     </g>
    </g>
    <g id="ytick_14">
     <g id="line2d_48">
      <g>
       <use style="stroke:#000000;stroke-width:0.8;" x="43.6" xlink:href="#md79e220bda" y="130.793256"/>
      </g>
     </g>
    </g>
    <g id="ytick_15">
     <g id="line2d_49">
      <g>
       <use style="stroke:#000000;stroke-width:0.8;" x="43.6" xlink:href="#md79e220bda" y="129.688362"/>
      </g>
     </g>
    </g>
    <g id="ytick_16">
     <g id="line2d_50">
      <g>
       <use style="stroke:#000000;stroke-width:0.8;" x="43.6" xlink:href="#md79e220bda" y="122.197752"/>
      </g>
     </g>
    </g>
    <g id="ytick_17">
     <g id="line2d_51">
      <g>
       <use style="stroke:#000000;stroke-width:0.8;" x="43.6" xlink:href="#md79e220bda" y="118.394181"/>
      </g>
     </g>
    </g>
    <g id="ytick_18">
     <g id="line2d_52">
      <g>
       <use style="stroke:#000000;stroke-width:0.8;" x="43.6" xlink:href="#md79e220bda" y="115.695504"/>
      </g>
     </g>
    </g>
    <g id="ytick_19">
     <g id="line2d_53">
      <g>
       <use style="stroke:#000000;stroke-width:0.8;" x="43.6" xlink:href="#md79e220bda" y="113.602248"/>
      </g>
     </g>
    </g>
    <g id="ytick_20">
     <g id="line2d_54">
      <g>
       <use style="stroke:#000000;stroke-width:0.8;" x="43.6" xlink:href="#md79e220bda" y="111.891933"/>
      </g>
     </g>
    </g>
    <g id="ytick_21">
     <g id="line2d_55">
      <g>
       <use style="stroke:#000000;stroke-width:0.8;" x="43.6" xlink:href="#md79e220bda" y="110.445882"/>
      </g>
     </g>
    </g>
    <g id="ytick_22">
     <g id="line2d_56">
      <g>
       <use style="stroke:#000000;stroke-width:0.8;" x="43.6" xlink:href="#md79e220bda" y="109.193256"/>
      </g>
     </g>
    </g>
    <g id="ytick_23">
     <g id="line2d_57">
      <g>
       <use style="stroke:#000000;stroke-width:0.8;" x="43.6" xlink:href="#md79e220bda" y="108.088362"/>
      </g>
     </g>
    </g>
    <g id="ytick_24">
     <g id="line2d_58">
      <g>
       <use style="stroke:#000000;stroke-width:0.8;" x="43.6" xlink:href="#md79e220bda" y="100.597752"/>
      </g>
     </g>
    </g>
    <g id="ytick_25">
     <g id="line2d_59">
      <g>
       <use style="stroke:#000000;stroke-width:0.8;" x="43.6" xlink:href="#md79e220bda" y="96.794181"/>
      </g>
     </g>
    </g>
    <g id="ytick_26">
     <g id="line2d_60">
      <g>
       <use style="stroke:#000000;stroke-width:0.8;" x="43.6" xlink:href="#md79e220bda" y="94.095504"/>
      </g>
     </g>
    </g>
    <g id="ytick_27">
     <g id="line2d_61">
      <g>
       <use style="stroke:#000000;stroke-width:0.8;" x="43.6" xlink:href="#md79e220bda" y="92.002248"/>
      </g>
     </g>
    </g>
    <g id="ytick_28">
     <g id="line2d_62">
      <g>
       <use style="stroke:#000000;stroke-width:0.8;" x="43.6" xlink:href="#md79e220bda" y="90.291933"/>
      </g>
     </g>
    </g>
    <g id="ytick_29">
     <g id="line2d_63">
      <g>
       <use style="stroke:#000000;stroke-width:0.8;" x="43.6" xlink:href="#md79e220bda" y="88.845882"/>
      </g>
     </g>
    </g>
    <g id="ytick_30">
     <g id="line2d_64">
      <g>
       <use style="stroke:#000000;stroke-width:0.8;" x="43.6" xlink:href="#md79e220bda" y="87.593256"/>
      </g>
     </g>
    </g>
    <g id="ytick_31">
     <g id="line2d_65">
      <g>
       <use style="stroke:#000000;stroke-width:0.8;" x="43.6" xlink:href="#md79e220bda" y="86.488362"/>
      </g>
     </g>
    </g>
    <g id="ytick_32">
     <g id="line2d_66">
      <g>
       <use style="stroke:#000000;stroke-width:0.8;" x="43.6" xlink:href="#md79e220bda" y="78.997752"/>
      </g>
     </g>
    </g>
    <g id="ytick_33">
     <g id="line2d_67">
      <g>
       <use style="stroke:#000000;stroke-width:0.8;" x="43.6" xlink:href="#md79e220bda" y="75.194181"/>
      </g>
     </g>
    </g>
    <g id="ytick_34">
     <g id="line2d_68">
      <g>
       <use style="stroke:#000000;stroke-width:0.8;" x="43.6" xlink:href="#md79e220bda" y="72.495504"/>
      </g>
     </g>
    </g>
    <g id="ytick_35">
     <g id="line2d_69">
      <g>
       <use style="stroke:#000000;stroke-width:0.8;" x="43.6" xlink:href="#md79e220bda" y="70.402248"/>
      </g>
     </g>
    </g>
    <g id="ytick_36">
     <g id="line2d_70">
      <g>
       <use style="stroke:#000000;stroke-width:0.8;" x="43.6" xlink:href="#md79e220bda" y="68.691933"/>
      </g>
     </g>
    </g>
    <g id="ytick_37">
     <g id="line2d_71">
      <g>
       <use style="stroke:#000000;stroke-width:0.8;" x="43.6" xlink:href="#md79e220bda" y="67.245882"/>
      </g>
     </g>
    </g>
    <g id="ytick_38">
     <g id="line2d_72">
      <g>
       <use style="stroke:#000000;stroke-width:0.8;" x="43.6" xlink:href="#md79e220bda" y="65.993256"/>
      </g>
     </g>
    </g>
    <g id="ytick_39">
     <g id="line2d_73">
      <g>
       <use style="stroke:#000000;stroke-width:0.8;" x="43.6" xlink:href="#md79e220bda" y="64.888362"/>
      </g>
     </g>
    </g>
    <g id="ytick_40">
     <g id="line2d_74">
      <g>
       <use style="stroke:#000000;stroke-width:0.8;" x="43.6" xlink:href="#md79e220bda" y="57.397752"/>
      </g>
     </g>
    </g>
    <g id="ytick_41">
     <g id="line2d_75">
      <g>
       <use style="stroke:#000000;stroke-width:0.8;" x="43.6" xlink:href="#md79e220bda" y="53.594181"/>
      </g>
     </g>
    </g>
    <g id="ytick_42">
     <g id="line2d_76">
      <g>
       <use style="stroke:#000000;stroke-width:0.8;" x="43.6" xlink:href="#md79e220bda" y="50.895504"/>
      </g>
     </g>
    </g>
    <g id="ytick_43">
     <g id="line2d_77">
      <g>
       <use style="stroke:#000000;stroke-width:0.8;" x="43.6" xlink:href="#md79e220bda" y="48.802248"/>
      </g>
     </g>
    </g>
    <g id="ytick_44">
     <g id="line2d_78">
      <g>
       <use style="stroke:#000000;stroke-width:0.8;" x="43.6" xlink:href="#md79e220bda" y="47.091933"/>
      </g>
     </g>
    </g>
    <g id="ytick_45">
     <g id="line2d_79">
      <g>
       <use style="stroke:#000000;stroke-width:0.8;" x="43.6" xlink:href="#md79e220bda" y="45.645882"/>
      </g>
     </g>
    </g>
    <g id="ytick_46">
     <g id="line2d_80">
      <g>
       <use style="stroke:#000000;stroke-width:0.8;" x="43.6" xlink:href="#md79e220bda" y="44.393256"/>
      </g>
     </g>
    </g>
    <g id="ytick_47">
     <g id="line2d_81">
      <g>
       <use style="stroke:#000000;stroke-width:0.8;" x="43.6" xlink:href="#md79e220bda" y="43.288362"/>
      </g>
     </g>
    </g>
    <g id="ytick_48">
     <g id="line2d_82">
      <g>
       <use style="stroke:#000000;stroke-width:0.8;" x="43.6" xlink:href="#md79e220bda" y="35.797752"/>
      </g>
     </g>
    </g>
    <g id="ytick_49">
     <g id="line2d_83">
      <g>
       <use style="stroke:#000000;stroke-width:0.8;" x="43.6" xlink:href="#md79e220bda" y="31.994181"/>
      </g>
     </g>
    </g>
    <g id="ytick_50">
     <g id="line2d_84">
      <g>
       <use style="stroke:#000000;stroke-width:0.8;" x="43.6" xlink:href="#md79e220bda" y="29.295504"/>
      </g>
     </g>
    </g>
    <g id="ytick_51">
     <g id="line2d_85">
      <g>
       <use style="stroke:#000000;stroke-width:0.8;" x="43.6" xlink:href="#md79e220bda" y="27.202248"/>
      </g>
     </g>
    </g>
    <g id="ytick_52">
     <g id="line2d_86">
      <g>
       <use style="stroke:#000000;stroke-width:0.8;" x="43.6" xlink:href="#md79e220bda" y="25.491933"/>
      </g>
     </g>
    </g>
    <g id="ytick_53">
     <g id="line2d_87">
      <g>
       <use style="stroke:#000000;stroke-width:0.8;" x="43.6" xlink:href="#md79e220bda" y="24.045882"/>
      </g>
     </g>
    </g>
    <g id="ytick_54">
     <g id="line2d_88">
      <g>
       <use style="stroke:#000000;stroke-width:0.8;" x="43.6" xlink:href="#md79e220bda" y="22.793256"/>
      </g>
     </g>
    </g>
    <g id="ytick_55">
     <g id="line2d_89">
      <g>
       <use style="stroke:#000000;stroke-width:0.8;" x="43.6" xlink:href="#md79e220bda" y="21.688362"/>
      </g>
     </g>
    </g>
    <g id="text_15">
     <!-- log scale -->
     <defs>
      <path d="M 18 25.796875 
Q 18 28.90625 18.59375 31.90625 
Q 19.203125 34.90625 20.640625 37.203125 
Q 22.09375 39.5 24.5 40.953125 
Q 26.90625 42.40625 30.5 42.40625 
Q 34.09375 42.40625 36.546875 40.953125 
Q 39 39.5 40.453125 37.203125 
Q 41.90625 34.90625 42.5 31.90625 
Q 43.09375 28.90625 43.09375 25.796875 
Q 43.09375 22.703125 42.5 19.75 
Q 41.90625 16.796875 40.453125 14.4375 
Q 39 12.09375 36.546875 10.6875 
Q 34.09375 9.296875 30.5 9.296875 
Q 26.90625 9.296875 24.5 10.6875 
Q 22.09375 12.09375 20.640625 14.4375 
Q 19.203125 16.796875 18.59375 19.75 
Q 18 22.703125 18 25.796875 
z
M 3.796875 25.796875 
Q 3.796875 19.59375 5.6875 14.59375 
Q 7.59375 9.59375 11.09375 6.046875 
Q 14.59375 2.5 19.5 0.59375 
Q 24.40625 -1.296875 30.5 -1.296875 
Q 36.59375 -1.296875 41.546875 0.59375 
Q 46.5 2.5 50 6.046875 
Q 53.5 9.59375 55.390625 14.59375 
Q 57.296875 19.59375 57.296875 25.796875 
Q 57.296875 32 55.390625 37.046875 
Q 53.5 42.09375 50 45.640625 
Q 46.5 49.203125 41.546875 51.140625 
Q 36.59375 53.09375 30.5 53.09375 
Q 24.40625 53.09375 19.5 51.140625 
Q 14.59375 49.203125 11.09375 45.640625 
Q 7.59375 42.09375 5.6875 37.046875 
Q 3.796875 32 3.796875 25.796875 
z
" id="HelveticaNeue-Bold-111"/>
      <path d="M 29.5 12.203125 
Q 26.203125 12.203125 24 13.59375 
Q 21.796875 15 20.4375 17.203125 
Q 19.09375 19.40625 18.546875 22.15625 
Q 18 24.90625 18 27.703125 
Q 18 30.59375 18.640625 33.25 
Q 19.296875 35.90625 20.75 37.953125 
Q 22.203125 40 24.34375 41.203125 
Q 26.5 42.40625 29.5 42.40625 
Q 33 42.40625 35.296875 41.09375 
Q 37.59375 39.796875 39 37.59375 
Q 40.40625 35.40625 41 32.546875 
Q 41.59375 29.703125 41.59375 26.5 
Q 41.59375 23.703125 40.84375 21.140625 
Q 40.09375 18.59375 38.59375 16.59375 
Q 37.09375 14.59375 34.796875 13.390625 
Q 32.5 12.203125 29.5 12.203125 
z
M 55.09375 3.296875 
L 55.09375 51.703125 
L 41.59375 51.703125 
L 41.59375 44.796875 
L 41.40625 44.796875 
Q 38.796875 49.296875 34.9375 51.1875 
Q 31.09375 53.09375 26 53.09375 
Q 20.59375 53.09375 16.4375 51 
Q 12.296875 48.90625 9.5 45.34375 
Q 6.703125 41.796875 5.25 37.140625 
Q 3.796875 32.5 3.796875 27.5 
Q 3.796875 22.203125 5.046875 17.453125 
Q 6.296875 12.703125 9 9.140625 
Q 11.703125 5.59375 15.890625 3.546875 
Q 20.09375 1.5 25.90625 1.5 
Q 30.59375 1.5 34.84375 3.453125 
Q 39.09375 5.40625 41.40625 9.5 
L 41.59375 9.5 
L 41.59375 2.703125 
Q 41.703125 -2.796875 38.953125 -6.390625 
Q 36.203125 -10 30.203125 -10 
Q 26.40625 -10 23.5 -8.453125 
Q 20.59375 -6.90625 19.59375 -2.90625 
L 5.5 -2.90625 
Q 5.796875 -7.296875 7.9375 -10.4375 
Q 10.09375 -13.59375 13.34375 -15.59375 
Q 16.59375 -17.59375 20.546875 -18.546875 
Q 24.5 -19.5 28.296875 -19.5 
Q 37.203125 -19.5 42.5 -17.09375 
Q 47.796875 -14.703125 50.59375 -11.25 
Q 53.40625 -7.796875 54.25 -3.796875 
Q 55.09375 0.203125 55.09375 3.296875 
z
" id="HelveticaNeue-Bold-103"/>
     </defs>
     <g transform="translate(13.02625 102.6)rotate(-90)scale(0.08 -0.08)">
      <use xlink:href="#HelveticaNeue-Bold-108"/>
      <use x="25.799988" xlink:href="#HelveticaNeue-Bold-111"/>
      <use x="86.899979" xlink:href="#HelveticaNeue-Bold-103"/>
      <use x="147.999969" xlink:href="#HelveticaNeue-Bold-32"/>
      <use x="175.799957" xlink:href="#HelveticaNeue-Bold-115"/>
      <use x="229.499954" xlink:href="#HelveticaNeue-Bold-99"/>
      <use x="286.899948" xlink:href="#HelveticaNeue-Bold-97"/>
      <use x="344.299942" xlink:href="#HelveticaNeue-Bold-108"/>
      <use x="370.09993" xlink:href="#HelveticaNeue-Bold-101"/>
     </g>
    </g>
   </g>
   <g id="line2d_90">
    <path clip-path="url(#p4ea7c946f5)" d="M 44.247895 181.9 
L 44.251256 70.355226 
L 44.902513 63.852979 
L 45.553769 60.049407 
L 46.205025 57.350731 
L 46.856281 55.257474 
L 48.158794 52.101109 
L 49.461307 49.743588 
L 50.763819 47.861144 
L 52.066332 46.29405 
L 54.020101 44.346235 
L 55.973869 42.734149 
L 58.578894 40.941905 
L 61.18392 39.437769 
L 64.440201 37.843987 
L 68.347739 36.231901 
L 72.255276 34.856649 
L 76.81407 33.471711 
L 82.675377 31.947159 
L 89.18794 30.501109 
L 97.003015 29.016847 
L 105.469347 27.636397 
L 115.889447 26.17625 
L 127.61206 24.766489 
L 141.288442 23.351655 
L 156.918593 21.959363 
L 173.2 20.7 
L 173.2 20.7 
" style="fill:none;stroke:#0072b2;stroke-linecap:square;stroke-width:1.3;"/>
   </g>
   <g id="patch_3">
    <path d="M 43.6 150.3 
L 43.6 20.7 
" style="fill:none;stroke:#000000;stroke-linecap:square;stroke-linejoin:miter;"/>
   </g>
   <g id="patch_4">
    <path d="M 173.2 150.3 
L 173.2 20.7 
" style="fill:none;stroke:#000000;stroke-linecap:square;stroke-linejoin:miter;"/>
   </g>
   <g id="patch_5">
    <path d="M 43.6 150.3 
L 173.2 150.3 
" style="fill:none;stroke:#000000;stroke-linecap:square;stroke-linejoin:miter;"/>
   </g>
   <g id="patch_6">
    <path d="M 43.6 20.7 
L 173.2 20.7 
" style="fill:none;stroke:#000000;stroke-linecap:square;stroke-linejoin:miter;"/>
   </g>
  </g>
  <g id="axes_2">
   <g id="patch_7">
    <path d="M 224.9 150.3 
L 354.5 150.3 
L 354.5 20.7 
L 224.9 20.7 
z
" style="fill:#ffffff;"/>
   </g>
   <g id="matplotlib.axis_3">
    <g id="xtick_22">
     <g id="line2d_91">
      <path clip-path="url(#p3d134add98)" d="M 224.9 150.3 
L 224.9 20.7 
" style="fill:none;stroke:#000000;stroke-linecap:square;stroke-opacity:0.1;stroke-width:0.6;"/>
     </g>
     <g id="line2d_92">
      <g>
       <use style="stroke:#000000;" x="224.9" xlink:href="#ma73bc1a3b7" y="150.3"/>
      </g>
     </g>
     <g id="text_16">
      <!-- 0.01 -->
      <g transform="translate(217.116875 162.0125)scale(0.08 -0.08)">
       <use xlink:href="#HelveticaNeue-Bold-48"/>
       <use x="55.599991" xlink:href="#HelveticaNeue-Bold-46"/>
       <use x="83.399979" xlink:href="#HelveticaNeue-Bold-48"/>
       <use x="138.999969" xlink:href="#HelveticaNeue-Bold-49"/>
      </g>
     </g>
    </g>
    <g id="xtick_23">
     <g id="line2d_93">
      <path clip-path="url(#p3d134add98)" d="M 258.714921 150.3 
L 258.714921 20.7 
" style="fill:none;stroke:#000000;stroke-linecap:square;stroke-opacity:0.1;stroke-width:0.6;"/>
     </g>
     <g id="line2d_94">
      <g>
       <use style="stroke:#000000;" x="258.714921" xlink:href="#ma73bc1a3b7" y="150.3"/>
      </g>
     </g>
     <g id="text_17">
      <!-- 0.1 -->
      <g transform="translate(253.155546 162.0125)scale(0.08 -0.08)">
       <use xlink:href="#HelveticaNeue-Bold-48"/>
       <use x="55.599991" xlink:href="#HelveticaNeue-Bold-46"/>
       <use x="83.399979" xlink:href="#HelveticaNeue-Bold-49"/>
      </g>
     </g>
    </g>
    <g id="xtick_24">
     <g id="line2d_95">
      <path clip-path="url(#p3d134add98)" d="M 289.7 150.3 
L 289.7 20.7 
" style="fill:none;stroke:#000000;stroke-linecap:square;stroke-opacity:0.1;stroke-width:0.6;"/>
     </g>
     <g id="line2d_96">
      <g>
       <use style="stroke:#000000;" x="289.7" xlink:href="#ma73bc1a3b7" y="150.3"/>
      </g>
     </g>
     <g id="text_18">
      <!-- 0.5 -->
      <defs>
       <path d="M 50 58.296875 
L 50 70 
L 10.90625 70 
L 4 31.296875 
L 16.796875 31.296875 
Q 18.90625 34.203125 21.296875 35.546875 
Q 23.703125 36.90625 27.5 36.90625 
Q 30.40625 36.90625 32.59375 35.90625 
Q 34.796875 34.90625 36.390625 33.09375 
Q 38 31.296875 38.796875 28.890625 
Q 39.59375 26.5 39.59375 23.796875 
Q 39.59375 21.203125 38.75 18.75 
Q 37.90625 16.296875 36.34375 14.4375 
Q 34.796875 12.59375 32.546875 11.4375 
Q 30.296875 10.296875 27.5 10.296875 
Q 22.703125 10.296875 19.59375 13.140625 
Q 16.5 16 16 20.796875 
L 1.796875 20.796875 
Q 1.90625 15.296875 4.046875 11.140625 
Q 6.203125 7 9.796875 4.203125 
Q 13.40625 1.40625 18.046875 0.046875 
Q 22.703125 -1.296875 27.796875 -1.296875 
Q 33.09375 -1.40625 37.796875 0.4375 
Q 42.5 2.296875 46.046875 5.6875 
Q 49.59375 9.09375 51.6875 13.75 
Q 53.796875 18.40625 53.796875 23.796875 
Q 53.796875 28.703125 52.34375 33.046875 
Q 50.90625 37.40625 48.15625 40.59375 
Q 45.40625 43.796875 41.40625 45.6875 
Q 37.40625 47.59375 32.203125 47.59375 
Q 28 47.59375 24.703125 46.34375 
Q 21.40625 45.09375 18.5 42.203125 
L 18.296875 42.40625 
L 21.09375 58.296875 
z
" id="HelveticaNeue-Bold-53"/>
      </defs>
      <g transform="translate(284.140625 162.0125)scale(0.08 -0.08)">
       <use xlink:href="#HelveticaNeue-Bold-48"/>
       <use x="55.599991" xlink:href="#HelveticaNeue-Bold-46"/>
       <use x="83.399979" xlink:href="#HelveticaNeue-Bold-53"/>
      </g>
     </g>
    </g>
    <g id="xtick_25">
     <g id="line2d_97">
      <path clip-path="url(#p3d134add98)" d="M 320.685079 150.3 
L 320.685079 20.7 
" style="fill:none;stroke:#000000;stroke-linecap:square;stroke-opacity:0.1;stroke-width:0.6;"/>
     </g>
     <g id="line2d_98">
      <g>
       <use style="stroke:#000000;" x="320.685079" xlink:href="#ma73bc1a3b7" y="150.3"/>
      </g>
     </g>
     <g id="text_19">
      <!-- 0.9 -->
      <defs>
       <path d="M 27 33.703125 
Q 24.296875 33.703125 22.25 34.84375 
Q 20.203125 36 18.890625 37.84375 
Q 17.59375 39.703125 16.9375 42.046875 
Q 16.296875 44.40625 16.296875 46.90625 
Q 16.296875 49.296875 17 51.59375 
Q 17.703125 53.90625 19.09375 55.703125 
Q 20.5 57.5 22.5 58.59375 
Q 24.5 59.703125 27 59.703125 
Q 29.703125 59.703125 31.796875 58.59375 
Q 33.90625 57.5 35.34375 55.640625 
Q 36.796875 53.796875 37.546875 51.4375 
Q 38.296875 49.09375 38.296875 46.703125 
Q 38.296875 44.09375 37.59375 41.75 
Q 36.90625 39.40625 35.5 37.59375 
Q 34.09375 35.796875 32 34.75 
Q 29.90625 33.703125 27 33.703125 
z
M 16.796875 18 
L 3.296875 18 
Q 3.90625 13.40625 5.796875 9.796875 
Q 7.703125 6.203125 10.703125 3.703125 
Q 13.703125 1.203125 17.59375 -0.046875 
Q 21.5 -1.296875 26 -1.296875 
Q 33.5 -1.296875 38.703125 1.953125 
Q 43.90625 5.203125 47.203125 10.453125 
Q 50.5 15.703125 52 22.203125 
Q 53.5 28.703125 53.5 35.203125 
Q 53.5 41.796875 52.296875 48.296875 
Q 51.09375 54.796875 48 59.9375 
Q 44.90625 65.09375 39.75 68.25 
Q 34.59375 71.40625 26.59375 71.40625 
Q 21.09375 71.40625 16.59375 69.40625 
Q 12.09375 67.40625 8.84375 63.953125 
Q 5.59375 60.5 3.84375 55.84375 
Q 2.09375 51.203125 2.09375 45.796875 
Q 2.09375 41.59375 3.390625 37.5 
Q 4.703125 33.40625 7.5 30.203125 
Q 10.5 26.90625 14.796875 24.953125 
Q 19.09375 23 23.59375 23 
Q 28.703125 23 32.59375 24.796875 
Q 36.5 26.59375 39.40625 30.796875 
L 39.59375 30.59375 
Q 39.40625 27.703125 38.75 24 
Q 38.09375 20.296875 36.59375 17.046875 
Q 35.09375 13.796875 32.59375 11.546875 
Q 30.09375 9.296875 26.203125 9.296875 
Q 22.5 9.296875 20 11.890625 
Q 17.5 14.5 16.796875 18 
z
" id="HelveticaNeue-Bold-57"/>
      </defs>
      <g transform="translate(315.125704 162.0125)scale(0.08 -0.08)">
       <use xlink:href="#HelveticaNeue-Bold-48"/>
       <use x="55.599991" xlink:href="#HelveticaNeue-Bold-46"/>
       <use x="83.399979" xlink:href="#HelveticaNeue-Bold-57"/>
      </g>
     </g>
    </g>
    <g id="xtick_26">
     <g id="line2d_99">
      <path clip-path="url(#p3d134add98)" d="M 354.5 150.3 
L 354.5 20.7 
" style="fill:none;stroke:#000000;stroke-linecap:square;stroke-opacity:0.1;stroke-width:0.6;"/>
     </g>
     <g id="line2d_100">
      <g>
       <use style="stroke:#000000;" x="354.5" xlink:href="#ma73bc1a3b7" y="150.3"/>
      </g>
     </g>
     <g id="text_20">
      <!-- 0.99 -->
      <g transform="translate(346.716875 162.0125)scale(0.08 -0.08)">
       <use xlink:href="#HelveticaNeue-Bold-48"/>
       <use x="55.599991" xlink:href="#HelveticaNeue-Bold-46"/>
       <use x="83.399979" xlink:href="#HelveticaNeue-Bold-57"/>
       <use x="138.999969" xlink:href="#HelveticaNeue-Bold-57"/>
      </g>
     </g>
    </g>
    <g id="xtick_27">
     <g id="line2d_101">
      <g>
       <use style="stroke:#000000;stroke-width:0.8;" x="234.817872" xlink:href="#m04149c13f0" y="150.3"/>
      </g>
     </g>
    </g>
    <g id="xtick_28">
     <g id="line2d_102">
      <g>
       <use style="stroke:#000000;stroke-width:0.8;" x="240.680344" xlink:href="#m04149c13f0" y="150.3"/>
      </g>
     </g>
    </g>
    <g id="xtick_29">
     <g id="line2d_103">
      <g>
       <use style="stroke:#000000;stroke-width:0.8;" x="244.883348" xlink:href="#m04149c13f0" y="150.3"/>
      </g>
     </g>
    </g>
    <g id="xtick_30">
     <g id="line2d_104">
      <g>
       <use style="stroke:#000000;stroke-width:0.8;" x="248.177765" xlink:href="#m04149c13f0" y="150.3"/>
      </g>
     </g>
    </g>
    <g id="xtick_31">
     <g id="line2d_105">
      <g>
       <use style="stroke:#000000;stroke-width:0.8;" x="250.898077" xlink:href="#m04149c13f0" y="150.3"/>
      </g>
     </g>
    </g>
    <g id="xtick_32">
     <g id="line2d_106">
      <g>
       <use style="stroke:#000000;stroke-width:0.8;" x="253.222721" xlink:href="#m04149c13f0" y="150.3"/>
      </g>
     </g>
    </g>
    <g id="xtick_33">
     <g id="line2d_107">
      <g>
       <use style="stroke:#000000;stroke-width:0.8;" x="255.258224" xlink:href="#m04149c13f0" y="150.3"/>
      </g>
     </g>
    </g>
    <g id="xtick_34">
     <g id="line2d_108">
      <g>
       <use style="stroke:#000000;stroke-width:0.8;" x="257.073312" xlink:href="#m04149c13f0" y="150.3"/>
      </g>
     </g>
    </g>
    <g id="xtick_35">
     <g id="line2d_109">
      <g>
       <use style="stroke:#000000;stroke-width:0.8;" x="270.150592" xlink:href="#m04149c13f0" y="150.3"/>
      </g>
     </g>
    </g>
    <g id="xtick_36">
     <g id="line2d_110">
      <g>
       <use style="stroke:#000000;stroke-width:0.8;" x="277.751476" xlink:href="#m04149c13f0" y="150.3"/>
      </g>
     </g>
    </g>
    <g id="xtick_37">
     <g id="line2d_111">
      <g>
       <use style="stroke:#000000;stroke-width:0.8;" x="283.982165" xlink:href="#m04149c13f0" y="150.3"/>
      </g>
     </g>
    </g>
    <g id="xtick_38">
     <g id="line2d_112">
      <g>
       <use style="stroke:#000000;stroke-width:0.8;" x="295.417835" xlink:href="#m04149c13f0" y="150.3"/>
      </g>
     </g>
    </g>
    <g id="xtick_39">
     <g id="line2d_113">
      <g>
       <use style="stroke:#000000;stroke-width:0.8;" x="301.648524" xlink:href="#m04149c13f0" y="150.3"/>
      </g>
     </g>
    </g>
    <g id="xtick_40">
     <g id="line2d_114">
      <g>
       <use style="stroke:#000000;stroke-width:0.8;" x="309.249408" xlink:href="#m04149c13f0" y="150.3"/>
      </g>
     </g>
    </g>
    <g id="xtick_41">
     <g id="line2d_115">
      <g>
       <use style="stroke:#000000;stroke-width:0.8;" x="344.582128" xlink:href="#m04149c13f0" y="150.3"/>
      </g>
     </g>
    </g>
    <g id="xtick_42">
     <g id="line2d_116">
      <g>
       <use style="stroke:#000000;stroke-width:0.8;" x="338.719656" xlink:href="#m04149c13f0" y="150.3"/>
      </g>
     </g>
    </g>
    <g id="xtick_43">
     <g id="line2d_117">
      <g>
       <use style="stroke:#000000;stroke-width:0.8;" x="334.516652" xlink:href="#m04149c13f0" y="150.3"/>
      </g>
     </g>
    </g>
    <g id="xtick_44">
     <g id="line2d_118">
      <g>
       <use style="stroke:#000000;stroke-width:0.8;" x="331.222235" xlink:href="#m04149c13f0" y="150.3"/>
      </g>
     </g>
    </g>
    <g id="xtick_45">
     <g id="line2d_119">
      <g>
       <use style="stroke:#000000;stroke-width:0.8;" x="328.501923" xlink:href="#m04149c13f0" y="150.3"/>
      </g>
     </g>
    </g>
    <g id="xtick_46">
     <g id="line2d_120">
      <g>
       <use style="stroke:#000000;stroke-width:0.8;" x="326.177279" xlink:href="#m04149c13f0" y="150.3"/>
      </g>
     </g>
    </g>
    <g id="xtick_47">
     <g id="line2d_121">
      <g>
       <use style="stroke:#000000;stroke-width:0.8;" x="324.141776" xlink:href="#m04149c13f0" y="150.3"/>
      </g>
     </g>
    </g>
    <g id="xtick_48">
     <g id="line2d_122">
      <g>
       <use style="stroke:#000000;stroke-width:0.8;" x="322.326688" xlink:href="#m04149c13f0" y="150.3"/>
      </g>
     </g>
    </g>
    <g id="text_21">
     <!-- logit scale -->
     <defs>
      <path d="M 23.40625 51.703125 
L 23.40625 67.203125 
L 9.203125 67.203125 
L 9.203125 51.703125 
L 0.59375 51.703125 
L 0.59375 42.203125 
L 9.203125 42.203125 
L 9.203125 11.703125 
Q 9.203125 7.796875 10.5 5.390625 
Q 11.796875 3 14.046875 1.703125 
Q 16.296875 0.40625 19.25 -0.046875 
Q 22.203125 -0.5 25.5 -0.5 
Q 27.59375 -0.5 29.796875 -0.390625 
Q 32 -0.296875 33.796875 0 
L 33.796875 11 
Q 32.796875 10.796875 31.6875 10.6875 
Q 30.59375 10.59375 29.40625 10.59375 
Q 25.796875 10.59375 24.59375 11.796875 
Q 23.40625 13 23.40625 16.59375 
L 23.40625 42.203125 
L 33.796875 42.203125 
L 33.796875 51.703125 
z
" id="HelveticaNeue-Bold-116"/>
     </defs>
     <g transform="translate(270.16 172.1725)scale(0.08 -0.08)">
      <use xlink:href="#HelveticaNeue-Bold-108"/>
      <use x="25.799988" xlink:href="#HelveticaNeue-Bold-111"/>
      <use x="86.899979" xlink:href="#HelveticaNeue-Bold-103"/>
      <use x="147.999969" xlink:href="#HelveticaNeue-Bold-105"/>
      <use x="173.799957" xlink:href="#HelveticaNeue-Bold-116"/>
      <use x="208.999954" xlink:href="#HelveticaNeue-Bold-32"/>
      <use x="236.799942" xlink:href="#HelveticaNeue-Bold-115"/>
      <use x="290.499939" xlink:href="#HelveticaNeue-Bold-99"/>
      <use x="347.899933" xlink:href="#HelveticaNeue-Bold-97"/>
      <use x="405.299927" xlink:href="#HelveticaNeue-Bold-108"/>
      <use x="431.099915" xlink:href="#HelveticaNeue-Bold-101"/>
     </g>
    </g>
   </g>
   <g id="matplotlib.axis_4">
    <g id="ytick_56">
     <g id="line2d_123">
      <path clip-path="url(#p3d134add98)" d="M 224.9 150.3 
L 354.5 150.3 
" style="fill:none;stroke:#000000;stroke-linecap:square;stroke-opacity:0.1;stroke-width:0.6;"/>
     </g>
     <g id="line2d_124">
      <g>
       <use style="stroke:#000000;" x="224.9" xlink:href="#m13ec1da94b" y="150.3"/>
      </g>
     </g>
     <g id="text_22">
      <!-- 1000 -->
      <defs>
       <path d="M 4.796875 30.59375 
L 4.796875 19.90625 
L 55.296875 19.90625 
L 55.296875 30.59375 
z
" id="HelveticaNeue-Bold-8722"/>
      </defs>
      <g transform="translate(196.31 153.15625)scale(0.08 -0.08)">
       <use xlink:href="#HelveticaNeue-Bold-8722"/>
       <use x="59.999985" xlink:href="#HelveticaNeue-Bold-49"/>
       <use x="115.599976" xlink:href="#HelveticaNeue-Bold-48"/>
       <use x="171.199966" xlink:href="#HelveticaNeue-Bold-48"/>
       <use x="226.799957" xlink:href="#HelveticaNeue-Bold-48"/>
      </g>
     </g>
    </g>
    <g id="ytick_57">
     <g id="line2d_125">
      <path clip-path="url(#p3d134add98)" d="M 224.9 134.537838 
L 354.5 134.537838 
" style="fill:none;stroke:#000000;stroke-linecap:square;stroke-opacity:0.1;stroke-width:0.6;"/>
     </g>
     <g id="line2d_126">
      <g>
       <use style="stroke:#000000;" x="224.9" xlink:href="#m13ec1da94b" y="134.537838"/>
      </g>
     </g>
     <g id="text_23">
      <!-- 100 -->
      <g transform="translate(200.7575 137.394088)scale(0.08 -0.08)">
       <use xlink:href="#HelveticaNeue-Bold-8722"/>
       <use x="59.999985" xlink:href="#HelveticaNeue-Bold-49"/>
       <use x="115.599976" xlink:href="#HelveticaNeue-Bold-48"/>
       <use x="171.199966" xlink:href="#HelveticaNeue-Bold-48"/>
      </g>
     </g>
    </g>
    <g id="ytick_58">
     <g id="line2d_127">
      <path clip-path="url(#p3d134add98)" d="M 224.9 118.775676 
L 354.5 118.775676 
" style="fill:none;stroke:#000000;stroke-linecap:square;stroke-opacity:0.1;stroke-width:0.6;"/>
     </g>
     <g id="line2d_128">
      <g>
       <use style="stroke:#000000;" x="224.9" xlink:href="#m13ec1da94b" y="118.775676"/>
      </g>
     </g>
     <g id="text_24">
      <!-- 10 -->
      <g transform="translate(205.205 121.631926)scale(0.08 -0.08)">
       <use xlink:href="#HelveticaNeue-Bold-8722"/>
       <use x="59.999985" xlink:href="#HelveticaNeue-Bold-49"/>
       <use x="115.599976" xlink:href="#HelveticaNeue-Bold-48"/>
      </g>
     </g>
    </g>
    <g id="ytick_59">
     <g id="line2d_129">
      <path clip-path="url(#p3d134add98)" d="M 224.9 103.013514 
L 354.5 103.013514 
" style="fill:none;stroke:#000000;stroke-linecap:square;stroke-opacity:0.1;stroke-width:0.6;"/>
     </g>
     <g id="line2d_130">
      <g>
       <use style="stroke:#000000;" x="224.9" xlink:href="#m13ec1da94b" y="103.013514"/>
      </g>
     </g>
     <g id="text_25">
      <!-- 1 -->
      <g transform="translate(209.6525 105.869764)scale(0.08 -0.08)">
       <use xlink:href="#HelveticaNeue-Bold-8722"/>
       <use x="59.999985" xlink:href="#HelveticaNeue-Bold-49"/>
      </g>
     </g>
    </g>
    <g id="ytick_60">
     <g id="line2d_131">
      <path clip-path="url(#p3d134add98)" d="M 224.9 85.5 
L 354.5 85.5 
" style="fill:none;stroke:#000000;stroke-linecap:square;stroke-opacity:0.1;stroke-width:0.6;"/>
     </g>
     <g id="line2d_132">
      <g>
       <use style="stroke:#000000;" x="224.9" xlink:href="#m13ec1da94b" y="85.5"/>
      </g>
     </g>
     <g id="text_26">
      <!-- 0 -->
      <g transform="translate(214.4525 88.35625)scale(0.08 -0.08)">
       <use xlink:href="#HelveticaNeue-Bold-48"/>
      </g>
     </g>
    </g>
    <g id="ytick_61">
     <g id="line2d_133">
      <path clip-path="url(#p3d134add98)" d="M 224.9 67.986486 
L 354.5 67.986486 
" style="fill:none;stroke:#000000;stroke-linecap:square;stroke-opacity:0.1;stroke-width:0.6;"/>
     </g>
     <g id="line2d_134">
      <g>
       <use style="stroke:#000000;" x="224.9" xlink:href="#m13ec1da94b" y="67.986486"/>
      </g>
     </g>
     <g id="text_27">
      <!-- 1 -->
      <g transform="translate(214.4525 70.842736)scale(0.08 -0.08)">
       <use xlink:href="#HelveticaNeue-Bold-49"/>
      </g>
     </g>
    </g>
    <g id="ytick_62">
     <g id="line2d_135">
      <path clip-path="url(#p3d134add98)" d="M 224.9 52.224324 
L 354.5 52.224324 
" style="fill:none;stroke:#000000;stroke-linecap:square;stroke-opacity:0.1;stroke-width:0.6;"/>
     </g>
     <g id="line2d_136">
      <g>
       <use style="stroke:#000000;" x="224.9" xlink:href="#m13ec1da94b" y="52.224324"/>
      </g>
     </g>
     <g id="text_28">
      <!-- 10 -->
      <g transform="translate(210.005 55.080574)scale(0.08 -0.08)">
       <use xlink:href="#HelveticaNeue-Bold-49"/>
       <use x="55.599991" xlink:href="#HelveticaNeue-Bold-48"/>
      </g>
     </g>
    </g>
    <g id="ytick_63">
     <g id="line2d_137">
      <path clip-path="url(#p3d134add98)" d="M 224.9 36.462162 
L 354.5 36.462162 
" style="fill:none;stroke:#000000;stroke-linecap:square;stroke-opacity:0.1;stroke-width:0.6;"/>
     </g>
     <g id="line2d_138">
      <g>
       <use style="stroke:#000000;" x="224.9" xlink:href="#m13ec1da94b" y="36.462162"/>
      </g>
     </g>
     <g id="text_29">
      <!-- 100 -->
      <g transform="translate(205.5575 39.318412)scale(0.08 -0.08)">
       <use xlink:href="#HelveticaNeue-Bold-49"/>
       <use x="55.599991" xlink:href="#HelveticaNeue-Bold-48"/>
       <use x="111.199982" xlink:href="#HelveticaNeue-Bold-48"/>
      </g>
     </g>
    </g>
    <g id="ytick_64">
     <g id="line2d_139">
      <path clip-path="url(#p3d134add98)" d="M 224.9 20.7 
L 354.5 20.7 
" style="fill:none;stroke:#000000;stroke-linecap:square;stroke-opacity:0.1;stroke-width:0.6;"/>
     </g>
     <g id="line2d_140">
      <g>
       <use style="stroke:#000000;" x="224.9" xlink:href="#m13ec1da94b" y="20.7"/>
      </g>
     </g>
     <g id="text_30">
      <!-- 1000 -->
      <g transform="translate(201.11 23.55625)scale(0.08 -0.08)">
       <use xlink:href="#HelveticaNeue-Bold-49"/>
       <use x="55.599991" xlink:href="#HelveticaNeue-Bold-48"/>
       <use x="111.199982" xlink:href="#HelveticaNeue-Bold-48"/>
       <use x="166.799973" xlink:href="#HelveticaNeue-Bold-48"/>
      </g>
     </g>
    </g>
    <g id="text_31">
     <!-- symlog scale -->
     <defs>
      <path d="M 30.90625 -6.40625 
L 52.5 51.703125 
L 37.796875 51.703125 
L 26.5 16.296875 
L 26.296875 16.296875 
L 14.59375 51.703125 
L -0.5 51.703125 
L 17.59375 3.203125 
Q 18.203125 1.703125 18.203125 0 
Q 18.203125 -2.296875 16.84375 -4.1875 
Q 15.5 -6.09375 12.703125 -6.40625 
Q 10.59375 -6.5 8.5 -6.296875 
Q 6.40625 -6.09375 4.40625 -5.90625 
L 4.40625 -17.59375 
Q 6.59375 -17.796875 8.75 -17.9375 
Q 10.90625 -18.09375 13.09375 -18.09375 
Q 20.40625 -18.09375 24.5 -15.390625 
Q 28.59375 -12.703125 30.90625 -6.40625 
z
" id="HelveticaNeue-Bold-121"/>
      <path d="M 5.796875 51.703125 
L 5.796875 0 
L 20 0 
L 20 30 
Q 20 33.796875 21.09375 36.140625 
Q 22.203125 38.5 23.75 39.75 
Q 25.296875 41 26.9375 41.453125 
Q 28.59375 41.90625 29.59375 41.90625 
Q 33 41.90625 34.75 40.75 
Q 36.5 39.59375 37.25 37.6875 
Q 38 35.796875 38.09375 33.546875 
Q 38.203125 31.296875 38.203125 29 
L 38.203125 0 
L 52.40625 0 
L 52.40625 28.796875 
Q 52.40625 31.203125 52.75 33.546875 
Q 53.09375 35.90625 54.140625 37.75 
Q 55.203125 39.59375 57.046875 40.75 
Q 58.90625 41.90625 61.90625 41.90625 
Q 64.90625 41.90625 66.65625 40.90625 
Q 68.40625 39.90625 69.296875 38.203125 
Q 70.203125 36.5 70.390625 34.203125 
Q 70.59375 31.90625 70.59375 29.296875 
L 70.59375 0 
L 84.796875 0 
L 84.796875 34.59375 
Q 84.796875 39.59375 83.390625 43.140625 
Q 82 46.703125 79.5 48.890625 
Q 77 51.09375 73.5 52.09375 
Q 70 53.09375 65.90625 53.09375 
Q 60.5 53.09375 56.546875 50.5 
Q 52.59375 47.90625 50.296875 44.5 
Q 48.203125 49.296875 44.140625 51.1875 
Q 40.09375 53.09375 35.203125 53.09375 
Q 30.09375 53.09375 26.140625 50.890625 
Q 22.203125 48.703125 19.40625 44.703125 
L 19.203125 44.703125 
L 19.203125 51.703125 
z
" id="HelveticaNeue-Bold-109"/>
     </defs>
     <g transform="translate(191.75 110.448125)rotate(-90)scale(0.08 -0.08)">
      <use xlink:href="#HelveticaNeue-Bold-115"/>
      <use x="53.699997" xlink:href="#HelveticaNeue-Bold-121"/>
      <use x="105.599991" xlink:href="#HelveticaNeue-Bold-109"/>
      <use x="196.199982" xlink:href="#HelveticaNeue-Bold-108"/>
      <use x="221.999969" xlink:href="#HelveticaNeue-Bold-111"/>
      <use x="283.09996" xlink:href="#HelveticaNeue-Bold-103"/>
      <use x="344.199951" xlink:href="#HelveticaNeue-Bold-32"/>
      <use x="371.999939" xlink:href="#HelveticaNeue-Bold-115"/>
      <use x="425.699936" xlink:href="#HelveticaNeue-Bold-99"/>
      <use x="483.09993" xlink:href="#HelveticaNeue-Bold-97"/>
      <use x="540.499924" xlink:href="#HelveticaNeue-Bold-108"/>
      <use x="566.299911" xlink:href="#HelveticaNeue-Bold-101"/>
     </g>
    </g>
   </g>
   <g id="line2d_141">
    <path clip-path="url(#p3d134add98)" d="M 224.9 150.3 
L 240.533516 150.019123 
L 249.411098 149.651001 
L 255.983743 149.181417 
L 261.380131 148.589468 
L 266.077166 147.843652 
L 269.896769 147.006528 
L 273.175599 146.052581 
L 275.745737 145.092652 
L 278.117405 143.975811 
L 280.032519 142.847992 
L 281.865384 141.496984 
L 283.344363 140.123309 
L 284.502915 138.783355 
L 285.644371 137.115659 
L 286.491688 135.52888 
L 287.333275 133.45964 
L 287.891915 131.623261 
L 288.449141 129.10603 
L 289.005393 125.082384 
L 289.28329 121.585568 
L 289.561106 114.065105 
L 289.838894 56.934895 
L 290.11671 49.414432 
L 290.672638 43.614323 
L 291.229323 40.520295 
L 292.066725 37.54036 
L 292.908312 35.47112 
L 294.039616 33.42781 
L 295.184955 31.856277 
L 296.642683 30.29375 
L 298.137738 29.022438 
L 299.995611 27.755061 
L 301.943342 26.686075 
L 304.365571 25.619077 
L 307.004944 24.696183 
L 309.946219 23.883059 
L 313.322834 23.156348 
L 317.36593 22.499434 
L 322.535613 21.900078 
L 328.691509 21.42506 
L 336.631139 21.052935 
L 348.782884 20.769146 
L 354.5 20.7 
L 354.5 20.7 
" style="fill:none;stroke:#0072b2;stroke-linecap:square;stroke-width:1.3;"/>
   </g>
   <g id="patch_8">
    <path d="M 224.9 150.3 
L 224.9 20.7 
" style="fill:none;stroke:#000000;stroke-linecap:square;stroke-linejoin:miter;"/>
   </g>
   <g id="patch_9">
    <path d="M 354.5 150.3 
L 354.5 20.7 
" style="fill:none;stroke:#000000;stroke-linecap:square;stroke-linejoin:miter;"/>
   </g>
   <g id="patch_10">
    <path d="M 224.9 150.3 
L 354.5 150.3 
" style="fill:none;stroke:#000000;stroke-linecap:square;stroke-linejoin:miter;"/>
   </g>
   <g id="patch_11">
    <path d="M 224.9 20.7 
L 354.5 20.7 
" style="fill:none;stroke:#000000;stroke-linecap:square;stroke-linejoin:miter;"/>
   </g>
  </g>
  <g id="text_32">
   <!-- Changing the axis scale -->
   <defs>
    <path d="M 54.5 47.40625 
L 69.703125 47.40625 
Q 69 53.59375 66.296875 58.390625 
Q 63.59375 63.203125 59.4375 66.453125 
Q 55.296875 69.703125 50.046875 71.390625 
Q 44.796875 73.09375 38.90625 73.09375 
Q 30.703125 73.09375 24.140625 70.1875 
Q 17.59375 67.296875 13.09375 62.1875 
Q 8.59375 57.09375 6.1875 50.25 
Q 3.796875 43.40625 3.796875 35.40625 
Q 3.796875 27.59375 6.1875 20.84375 
Q 8.59375 14.09375 13.09375 9.09375 
Q 17.59375 4.09375 24.140625 1.25 
Q 30.703125 -1.59375 38.90625 -1.59375 
Q 45.5 -1.59375 51 0.40625 
Q 56.5 2.40625 60.59375 6.203125 
Q 64.703125 10 67.203125 15.390625 
Q 69.703125 20.796875 70.296875 27.5 
L 55.09375 27.5 
Q 54.203125 20.296875 50.140625 15.890625 
Q 46.09375 11.5 38.90625 11.5 
Q 33.59375 11.5 29.890625 13.546875 
Q 26.203125 15.59375 23.890625 19 
Q 21.59375 22.40625 20.546875 26.65625 
Q 19.5 30.90625 19.5 35.40625 
Q 19.5 40.09375 20.546875 44.5 
Q 21.59375 48.90625 23.890625 52.34375 
Q 26.203125 55.796875 29.890625 57.84375 
Q 33.59375 59.90625 38.90625 59.90625 
Q 41.796875 59.90625 44.4375 58.953125 
Q 47.09375 58 49.1875 56.296875 
Q 51.296875 54.59375 52.6875 52.34375 
Q 54.09375 50.09375 54.5 47.40625 
z
" id="HelveticaNeue-Bold-67"/>
    <path d="M 5.40625 71.40625 
L 5.40625 0 
L 19.59375 0 
L 19.59375 27.09375 
Q 19.59375 35 22.1875 38.453125 
Q 24.796875 41.90625 30.59375 41.90625 
Q 35.703125 41.90625 37.703125 38.75 
Q 39.703125 35.59375 39.703125 29.203125 
L 39.703125 0 
L 53.90625 0 
L 53.90625 31.796875 
Q 53.90625 36.59375 53.046875 40.546875 
Q 52.203125 44.5 50.09375 47.25 
Q 48 50 44.34375 51.546875 
Q 40.703125 53.09375 35 53.09375 
Q 31 53.09375 26.796875 51.046875 
Q 22.59375 49 19.90625 44.5 
L 19.59375 44.5 
L 19.59375 71.40625 
z
" id="HelveticaNeue-Bold-104"/>
    <path d="M 18.59375 27.203125 
L 0 0 
L 15.90625 0 
L 26.703125 16.296875 
L 37.5 0 
L 53.703125 0 
L 34.59375 27.5 
L 51.59375 51.703125 
L 35.90625 51.703125 
L 26.90625 38.203125 
L 17.796875 51.703125 
L 1.59375 51.703125 
z
" id="HelveticaNeue-Bold-120"/>
   </defs>
   <g transform="translate(147.975 13.38875)scale(0.09 -0.09)">
    <use xlink:href="#HelveticaNeue-Bold-67"/>
    <use x="74.099991" xlink:href="#HelveticaNeue-Bold-104"/>
    <use x="133.399979" xlink:href="#HelveticaNeue-Bold-97"/>
    <use x="190.799973" xlink:href="#HelveticaNeue-Bold-110"/>
    <use x="250.09996" xlink:href="#HelveticaNeue-Bold-103"/>
    <use x="311.199951" xlink:href="#HelveticaNeue-Bold-105"/>
    <use x="336.999939" xlink:href="#HelveticaNeue-Bold-110"/>
    <use x="396.299927" xlink:href="#HelveticaNeue-Bold-103"/>
    <use x="457.399918" xlink:href="#HelveticaNeue-Bold-32"/>
    <use x="485.199905" xlink:href="#HelveticaNeue-Bold-116"/>
    <use x="520.399902" xlink:href="#HelveticaNeue-Bold-104"/>
    <use x="579.69989" xlink:href="#HelveticaNeue-Bold-101"/>
    <use x="637.099884" xlink:href="#HelveticaNeue-Bold-32"/>
    <use x="664.899872" xlink:href="#HelveticaNeue-Bold-97"/>
    <use x="722.299866" xlink:href="#HelveticaNeue-Bold-120"/>
    <use x="775.999863" xlink:href="#HelveticaNeue-Bold-105"/>
    <use x="801.79985" xlink:href="#HelveticaNeue-Bold-115"/>
    <use x="855.499847" xlink:href="#HelveticaNeue-Bold-32"/>
    <use x="883.299835" xlink:href="#HelveticaNeue-Bold-115"/>
    <use x="936.999832" xlink:href="#HelveticaNeue-Bold-99"/>
    <use x="994.399826" xlink:href="#HelveticaNeue-Bold-97"/>
    <use x="1051.79982" xlink:href="#HelveticaNeue-Bold-108"/>
    <use x="1077.599808" xlink:href="#HelveticaNeue-Bold-101"/>
   </g>
  </g>
 </g>
 <defs>
  <clipPath id="p4ea7c946f5">
   <rect height="129.6" width="129.6" x="43.6" y="20.7"/>
  </clipPath>
  <clipPath id="p3d134add98">
   <rect height="129.6" width="129.6" x="224.9" y="20.7"/>
  </clipPath>
 </defs>
</svg>
