<?xml version="1.0" encoding="utf-8" standalone="no"?>
<!DOCTYPE svg PUBLIC "-//W3C//DTD SVG 1.1//EN"
  "http://www.w3.org/Graphics/SVG/1.1/DTD/svg11.dtd">
<!-- Created with matplotlib (https://matplotlib.org/) -->
<svg height="206.3pt" version="1.1" viewBox="0 0 333.7625 206.3" width="333.7625pt" xmlns="http://www.w3.org/2000/svg" xmlns:xlink="http://www.w3.org/1999/xlink">
 <defs>
  <style type="text/css">
*{stroke-linecap:butt;stroke-linejoin:round;}
  </style>
 </defs>
 <g id="figure_1">
  <g id="patch_1">
   <path d="M 0 206.3 
L 333.7625 206.3 
L 333.7625 0 
L 0 0 
z
" style="fill:#f2f2f2;"/>
  </g>
  <g id="axes_1">
   <g id="patch_2">
    <path d="M 163.8625 113.3 
C 163.8625 103.845047 162.00008 94.482031 158.381826 85.746793 
C 154.763572 77.011555 149.45985 69.073973 142.774188 62.388312 
C 136.088527 55.70265 128.150945 50.398928 119.415707 46.780674 
C 110.680469 43.16242 101.317453 41.3 91.8625 41.3 
C 82.407547 41.3 73.044531 43.16242 64.309293 46.780674 
C 55.574055 50.398928 47.636473 55.70265 40.950812 62.388312 
C 34.26515 69.073973 28.961428 77.011555 25.343174 85.746793 
C 21.72492 94.482031 19.8625 103.845047 19.8625 113.3 
C 19.8625 122.754953 21.72492 132.117969 25.343174 140.853207 
C 28.961428 149.588445 34.26515 157.526027 40.950812 164.211688 
C 47.636473 170.89735 55.574055 176.201072 64.309293 179.819326 
C 73.044531 183.43758 82.407547 185.3 91.8625 185.3 
C 101.317453 185.3 110.680469 183.43758 119.415707 179.819326 
C 128.150945 176.201072 136.088527 170.89735 142.774188 164.211688 
C 149.45985 157.526027 154.763572 149.588445 158.381826 140.853207 
C 162.00008 132.117969 163.8625 122.754953 163.8625 113.3 
M 91.8625 113.3 
C 91.8625 113.3 91.8625 113.3 91.8625 113.3 
C 91.8625 113.3 91.8625 113.3 91.8625 113.3 
C 91.8625 113.3 91.8625 113.3 91.8625 113.3 
C 91.8625 113.3 91.8625 113.3 91.8625 113.3 
C 91.8625 113.3 91.8625 113.3 91.8625 113.3 
C 91.8625 113.3 91.8625 113.3 91.8625 113.3 
C 91.8625 113.3 91.8625 113.3 91.8625 113.3 
C 91.8625 113.3 91.8625 113.3 91.8625 113.3 
C 91.8625 113.3 91.8625 113.3 91.8625 113.3 
C 91.8625 113.3 91.8625 113.3 91.8625 113.3 
C 91.8625 113.3 91.8625 113.3 91.8625 113.3 
C 91.8625 113.3 91.8625 113.3 91.8625 113.3 
C 91.8625 113.3 91.8625 113.3 91.8625 113.3 
C 91.8625 113.3 91.8625 113.3 91.8625 113.3 
C 91.8625 113.3 91.8625 113.3 91.8625 113.3 
C 91.8625 113.3 91.8625 113.3 91.8625 113.3 
M 163.8625 113.3 
z
" style="fill:#ffffff;"/>
   </g>
   <g id="matplotlib.axis_1">
    <g id="xtick_1">
     <g id="line2d_1">
      <path clip-path="url(#pc08fbe7692)" d="M 91.8625 113.3 
L 163.8625 113.3 
" style="fill:none;stroke:#000000;stroke-linecap:square;stroke-opacity:0.1;stroke-width:0.6;"/>
     </g>
     <g id="text_1">
      <!-- 0 -->
      <defs>
       <path d="M 16.296875 35.296875 
Q 16.296875 37.09375 16.34375 39.640625 
Q 16.40625 42.203125 16.703125 44.890625 
Q 17 47.59375 17.703125 50.25 
Q 18.40625 52.90625 19.65625 55 
Q 20.90625 57.09375 22.84375 58.390625 
Q 24.796875 59.703125 27.703125 59.703125 
Q 30.59375 59.703125 32.59375 58.390625 
Q 34.59375 57.09375 35.890625 55 
Q 37.203125 52.90625 37.84375 50.25 
Q 38.5 47.59375 38.84375 44.890625 
Q 39.203125 42.203125 39.25 39.640625 
Q 39.296875 37.09375 39.296875 35.296875 
Q 39.296875 32.296875 39.09375 28.046875 
Q 38.90625 23.796875 37.84375 19.84375 
Q 36.796875 15.90625 34.4375 13.09375 
Q 32.09375 10.296875 27.703125 10.296875 
Q 23.40625 10.296875 21.09375 13.09375 
Q 18.796875 15.90625 17.75 19.84375 
Q 16.703125 23.796875 16.5 28.046875 
Q 16.296875 32.296875 16.296875 35.296875 
z
M 2.09375 35.296875 
Q 2.09375 24.796875 4.140625 17.75 
Q 6.203125 10.703125 9.703125 6.5 
Q 13.203125 2.296875 17.84375 0.5 
Q 22.5 -1.296875 27.703125 -1.296875 
Q 33 -1.296875 37.640625 0.5 
Q 42.296875 2.296875 45.84375 6.5 
Q 49.40625 10.703125 51.453125 17.75 
Q 53.5 24.796875 53.5 35.296875 
Q 53.5 45.5 51.453125 52.453125 
Q 49.40625 59.40625 45.84375 63.59375 
Q 42.296875 67.796875 37.640625 69.59375 
Q 33 71.40625 27.703125 71.40625 
Q 22.5 71.40625 17.84375 69.59375 
Q 13.203125 67.796875 9.703125 63.59375 
Q 6.203125 59.40625 4.140625 52.453125 
Q 2.09375 45.5 2.09375 35.296875 
z
" id="HelveticaNeue-Bold-48"/>
      </defs>
      <g transform="translate(170.360781 115.699062)scale(0.09 -0.09)">
       <use xlink:href="#HelveticaNeue-Bold-48"/>
      </g>
     </g>
    </g>
    <g id="xtick_2">
     <g id="line2d_2">
      <path clip-path="url(#pc08fbe7692)" d="M 91.8625 113.3 
L 142.774188 62.388312 
" style="fill:none;stroke:#000000;stroke-linecap:square;stroke-opacity:0.1;stroke-width:0.6;"/>
     </g>
     <g id="text_2">
      <!-- $\pi/4$ -->
      <defs>
       <path d="M 53.203125 -0.703125 
Q 49.90625 -0.703125 47.703125 0.296875 
Q 45.5 1.296875 44.25 3.046875 
Q 43 4.796875 42.453125 7.1875 
Q 41.90625 9.59375 41.90625 12.296875 
L 41.90625 41 
L 23.5 41 
L 23.5 0 
L 10 0 
L 10 41 
L 3 41 
L 3 51.703125 
L 63.296875 51.703125 
L 63.296875 41 
L 55.40625 41 
L 55.40625 16.796875 
Q 55.40625 15.703125 55.453125 14.640625 
Q 55.5 13.59375 55.890625 12.75 
Q 56.296875 11.90625 57.046875 11.40625 
Q 57.796875 10.90625 59.203125 10.90625 
Q 61.296875 10.90625 63.59375 11.90625 
L 63.59375 1.296875 
Q 61.5 0.296875 58.5 -0.203125 
Q 55.5 -0.703125 53.203125 -0.703125 
z
" id="HelveticaNeue-Bold-960"/>
       <path d="M 26.796875 73.09375 
L -1 -1.59375 
L 10.296875 -1.59375 
L 38.203125 73.09375 
z
" id="HelveticaNeue-Bold-47"/>
       <path d="M 31.203125 52.203125 
L 31.203125 27.90625 
L 12.796875 27.90625 
L 30.90625 52.203125 
z
M 31.203125 16.203125 
L 31.203125 0 
L 44.703125 0 
L 44.703125 16.203125 
L 54 16.203125 
L 54 27.90625 
L 44.703125 27.90625 
L 44.703125 70 
L 32 70 
L 1.59375 29.203125 
L 1.59375 16.203125 
z
" id="HelveticaNeue-Bold-52"/>
      </defs>
      <g transform="translate(141.938149 58.423413)scale(0.09 -0.09)">
       <use transform="translate(0 0.90625)" xlink:href="#HelveticaNeue-Bold-960"/>
       <use transform="translate(66.599991 0.90625)" xlink:href="#HelveticaNeue-Bold-47"/>
       <use transform="translate(103.699982 0.90625)" xlink:href="#HelveticaNeue-Bold-52"/>
      </g>
     </g>
    </g>
    <g id="xtick_3">
     <g id="line2d_3">
      <path clip-path="url(#pc08fbe7692)" d="M 91.8625 113.3 
L 91.8625 41.3 
" style="fill:none;stroke:#000000;stroke-linecap:square;stroke-opacity:0.1;stroke-width:0.6;"/>
     </g>
     <g id="text_3">
      <!-- $\pi/2$ -->
      <defs>
       <path d="M 3.703125 43.09375 
L 17.296875 43.09375 
Q 17.296875 45.90625 17.84375 48.75 
Q 18.40625 51.59375 19.703125 53.9375 
Q 21 56.296875 23.140625 57.75 
Q 25.296875 59.203125 28.40625 59.203125 
Q 33 59.203125 35.953125 56.34375 
Q 38.90625 53.5 38.90625 48.40625 
Q 38.90625 45.203125 37.453125 42.703125 
Q 36 40.203125 33.84375 38.203125 
Q 31.703125 36.203125 29.09375 34.546875 
Q 26.5 32.90625 24.203125 31.296875 
Q 19.703125 28.203125 15.640625 25.203125 
Q 11.59375 22.203125 8.59375 18.640625 
Q 5.59375 15.09375 3.84375 10.59375 
Q 2.09375 6.09375 2.09375 0 
L 53.5 0 
L 53.5 12.203125 
L 20.40625 12.203125 
Q 23 15.796875 26.390625 18.5 
Q 29.796875 21.203125 33.390625 23.546875 
Q 37 25.90625 40.546875 28.296875 
Q 44.09375 30.703125 46.890625 33.640625 
Q 49.703125 36.59375 51.390625 40.390625 
Q 53.09375 44.203125 53.09375 49.5 
Q 53.09375 54.59375 51.140625 58.6875 
Q 49.203125 62.796875 45.890625 65.59375 
Q 42.59375 68.40625 38.25 69.90625 
Q 33.90625 71.40625 29.09375 71.40625 
Q 22.796875 71.40625 17.9375 69.25 
Q 13.09375 67.09375 9.890625 63.25 
Q 6.703125 59.40625 5.09375 54.25 
Q 3.5 49.09375 3.703125 43.09375 
z
" id="HelveticaNeue-Bold-50"/>
      </defs>
      <g transform="translate(84.6625 34.699062)scale(0.09 -0.09)">
       <use transform="translate(0 0.90625)" xlink:href="#HelveticaNeue-Bold-960"/>
       <use transform="translate(66.599991 0.90625)" xlink:href="#HelveticaNeue-Bold-47"/>
       <use transform="translate(103.699982 0.90625)" xlink:href="#HelveticaNeue-Bold-50"/>
      </g>
     </g>
    </g>
    <g id="xtick_4">
     <g id="line2d_4">
      <path clip-path="url(#pc08fbe7692)" d="M 91.8625 113.3 
L 40.950812 62.388312 
" style="fill:none;stroke:#000000;stroke-linecap:square;stroke-opacity:0.1;stroke-width:0.6;"/>
     </g>
     <g id="text_4">
      <!-- $3\pi/4$ -->
      <defs>
       <path d="M 22.796875 41.703125 
L 22.796875 31.703125 
Q 25.40625 31.703125 28.25 31.546875 
Q 31.09375 31.40625 33.5 30.453125 
Q 35.90625 29.5 37.453125 27.390625 
Q 39 25.296875 39 21.296875 
Q 39 16.203125 35.703125 13.25 
Q 32.40625 10.296875 27.59375 10.296875 
Q 24.5 10.296875 22.25 11.390625 
Q 20 12.5 18.5 14.34375 
Q 17 16.203125 16.203125 18.75 
Q 15.40625 21.296875 15.296875 24.09375 
L 1.796875 24.09375 
Q 1.703125 18 3.546875 13.296875 
Q 5.40625 8.59375 8.796875 5.34375 
Q 12.203125 2.09375 17.046875 0.390625 
Q 21.90625 -1.296875 27.796875 -1.296875 
Q 32.90625 -1.296875 37.59375 0.203125 
Q 42.296875 1.703125 45.890625 4.59375 
Q 49.5 7.5 51.640625 11.796875 
Q 53.796875 16.09375 53.796875 21.59375 
Q 53.796875 27.59375 50.5 31.890625 
Q 47.203125 36.203125 41.40625 37.5 
L 41.40625 37.703125 
Q 46.296875 39.09375 48.75 43 
Q 51.203125 46.90625 51.203125 52 
Q 51.203125 56.703125 49.09375 60.296875 
Q 47 63.90625 43.640625 66.40625 
Q 40.296875 68.90625 36.09375 70.15625 
Q 31.90625 71.40625 27.703125 71.40625 
Q 22.296875 71.40625 17.890625 69.65625 
Q 13.5 67.90625 10.34375 64.703125 
Q 7.203125 61.5 5.453125 57.046875 
Q 3.703125 52.59375 3.5 47.203125 
L 17 47.203125 
Q 16.90625 52.59375 19.65625 56.140625 
Q 22.40625 59.703125 27.796875 59.703125 
Q 31.703125 59.703125 34.703125 57.296875 
Q 37.703125 54.90625 37.703125 50.40625 
Q 37.703125 47.40625 36.25 45.59375 
Q 34.796875 43.796875 32.546875 42.84375 
Q 30.296875 41.90625 27.6875 41.703125 
Q 25.09375 41.5 22.796875 41.703125 
z
" id="HelveticaNeue-Bold-51"/>
      </defs>
      <g transform="translate(24.911851 58.423413)scale(0.09 -0.09)">
       <use transform="translate(0 0.90625)" xlink:href="#HelveticaNeue-Bold-51"/>
       <use transform="translate(55.599991 0.90625)" xlink:href="#HelveticaNeue-Bold-960"/>
       <use transform="translate(122.199982 0.90625)" xlink:href="#HelveticaNeue-Bold-47"/>
       <use transform="translate(159.299973 0.90625)" xlink:href="#HelveticaNeue-Bold-52"/>
      </g>
     </g>
    </g>
    <g id="xtick_5">
     <g id="line2d_5">
      <path clip-path="url(#pc08fbe7692)" d="M 91.8625 113.3 
L 19.8625 113.3 
" style="fill:none;stroke:#000000;stroke-linecap:square;stroke-opacity:0.1;stroke-width:0.6;"/>
     </g>
     <g id="text_5">
      <!-- $\pi$ -->
      <g transform="translate(7.8475 115.699062)scale(0.09 -0.09)">
       <use transform="translate(0 0.296875)" xlink:href="#HelveticaNeue-Bold-960"/>
      </g>
     </g>
    </g>
    <g id="xtick_6">
     <g id="line2d_6">
      <path clip-path="url(#pc08fbe7692)" d="M 91.8625 113.3 
L 40.950812 164.211688 
" style="fill:none;stroke:#000000;stroke-linecap:square;stroke-opacity:0.1;stroke-width:0.6;"/>
     </g>
     <g id="text_6">
      <!-- $5\pi/4$ -->
      <defs>
       <path d="M 50 58.296875 
L 50 70 
L 10.90625 70 
L 4 31.296875 
L 16.796875 31.296875 
Q 18.90625 34.203125 21.296875 35.546875 
Q 23.703125 36.90625 27.5 36.90625 
Q 30.40625 36.90625 32.59375 35.90625 
Q 34.796875 34.90625 36.390625 33.09375 
Q 38 31.296875 38.796875 28.890625 
Q 39.59375 26.5 39.59375 23.796875 
Q 39.59375 21.203125 38.75 18.75 
Q 37.90625 16.296875 36.34375 14.4375 
Q 34.796875 12.59375 32.546875 11.4375 
Q 30.296875 10.296875 27.5 10.296875 
Q 22.703125 10.296875 19.59375 13.140625 
Q 16.5 16 16 20.796875 
L 1.796875 20.796875 
Q 1.90625 15.296875 4.046875 11.140625 
Q 6.203125 7 9.796875 4.203125 
Q 13.40625 1.40625 18.046875 0.046875 
Q 22.703125 -1.296875 27.796875 -1.296875 
Q 33.09375 -1.40625 37.796875 0.4375 
Q 42.5 2.296875 46.046875 5.6875 
Q 49.59375 9.09375 51.6875 13.75 
Q 53.796875 18.40625 53.796875 23.796875 
Q 53.796875 28.703125 52.34375 33.046875 
Q 50.90625 37.40625 48.15625 40.59375 
Q 45.40625 43.796875 41.40625 45.6875 
Q 37.40625 47.59375 32.203125 47.59375 
Q 28 47.59375 24.703125 46.34375 
Q 21.40625 45.09375 18.5 42.203125 
L 18.296875 42.40625 
L 21.09375 58.296875 
z
" id="HelveticaNeue-Bold-53"/>
      </defs>
      <g transform="translate(24.911851 172.974712)scale(0.09 -0.09)">
       <use transform="translate(0 0.90625)" xlink:href="#HelveticaNeue-Bold-53"/>
       <use transform="translate(55.599991 0.90625)" xlink:href="#HelveticaNeue-Bold-960"/>
       <use transform="translate(122.199982 0.90625)" xlink:href="#HelveticaNeue-Bold-47"/>
       <use transform="translate(159.299973 0.90625)" xlink:href="#HelveticaNeue-Bold-52"/>
      </g>
     </g>
    </g>
    <g id="xtick_7">
     <g id="line2d_7">
      <path clip-path="url(#pc08fbe7692)" d="M 91.8625 113.3 
L 91.8625 185.3 
" style="fill:none;stroke:#000000;stroke-linecap:square;stroke-opacity:0.1;stroke-width:0.6;"/>
     </g>
     <g id="text_7">
      <!-- $3\pi/2$ -->
      <g transform="translate(82.1875 196.699062)scale(0.09 -0.09)">
       <use transform="translate(0 0.90625)" xlink:href="#HelveticaNeue-Bold-51"/>
       <use transform="translate(55.599991 0.90625)" xlink:href="#HelveticaNeue-Bold-960"/>
       <use transform="translate(122.199982 0.90625)" xlink:href="#HelveticaNeue-Bold-47"/>
       <use transform="translate(159.299973 0.90625)" xlink:href="#HelveticaNeue-Bold-50"/>
      </g>
     </g>
    </g>
    <g id="xtick_8">
     <g id="line2d_8">
      <path clip-path="url(#pc08fbe7692)" d="M 91.8625 113.3 
L 142.774188 164.211688 
" style="fill:none;stroke:#000000;stroke-linecap:square;stroke-opacity:0.1;stroke-width:0.6;"/>
     </g>
     <g id="text_8">
      <!-- $7\pi/4$ -->
      <defs>
       <path d="M 51.703125 57.796875 
L 51.703125 70 
L 3.90625 70 
L 3.90625 56.796875 
L 37.09375 56.796875 
Q 27.09375 44.703125 20.9375 30.203125 
Q 14.796875 15.703125 13.59375 0 
L 28.796875 0 
Q 28.90625 7 30.453125 15.09375 
Q 32 23.203125 34.84375 31.09375 
Q 37.703125 39 41.953125 46 
Q 46.203125 53 51.703125 57.796875 
z
" id="HelveticaNeue-Bold-55"/>
      </defs>
      <g transform="translate(139.463149 172.974712)scale(0.09 -0.09)">
       <use transform="translate(0 0.90625)" xlink:href="#HelveticaNeue-Bold-55"/>
       <use transform="translate(55.599991 0.90625)" xlink:href="#HelveticaNeue-Bold-960"/>
       <use transform="translate(122.199982 0.90625)" xlink:href="#HelveticaNeue-Bold-47"/>
       <use transform="translate(159.299973 0.90625)" xlink:href="#HelveticaNeue-Bold-52"/>
      </g>
     </g>
    </g>
    <g id="xtick_9"/>
    <g id="xtick_10"/>
    <g id="xtick_11"/>
    <g id="xtick_12"/>
    <g id="xtick_13"/>
    <g id="xtick_14"/>
    <g id="xtick_15"/>
    <g id="xtick_16"/>
    <g id="xtick_17"/>
    <g id="xtick_18"/>
    <g id="xtick_19"/>
    <g id="xtick_20"/>
    <g id="xtick_21"/>
    <g id="xtick_22"/>
    <g id="xtick_23"/>
    <g id="xtick_24"/>
    <g id="xtick_25"/>
    <g id="xtick_26"/>
    <g id="xtick_27"/>
    <g id="xtick_28"/>
    <g id="xtick_29"/>
    <g id="xtick_30"/>
    <g id="xtick_31"/>
    <g id="xtick_32"/>
    <g id="xtick_33"/>
   </g>
   <g id="matplotlib.axis_2">
    <g id="ytick_1">
     <g id="line2d_9">
      <path clip-path="url(#pc08fbe7692)" d="M 91.8625 113.3 
L 91.8625 113.3 
" style="fill:none;stroke:#000000;stroke-linecap:square;stroke-opacity:0.1;stroke-width:0.6;"/>
     </g>
     <g id="text_9">
      <!-- 0 -->
      <g transform="translate(91.8625 111.671562)scale(0.09 -0.09)">
       <use xlink:href="#HelveticaNeue-Bold-48"/>
      </g>
     </g>
    </g>
    <g id="ytick_2">
     <g id="line2d_10">
      <path clip-path="url(#pc08fbe7692)" d="M 110.809868 113.3 
L 110.706073 111.319461 
L 110.395823 109.360621 
L 109.882518 107.444941 
L 109.171782 105.593411 
L 108.271402 103.826316 
L 107.191243 102.163016 
L 105.943139 100.621736 
L 104.540764 99.219361 
L 102.999484 97.971257 
L 101.336184 96.891098 
L 99.569089 95.990718 
L 97.717559 95.279982 
L 95.801879 94.766677 
L 93.843039 94.456427 
L 91.8625 94.352632 
L 89.881961 94.456427 
L 87.923121 94.766677 
L 86.007441 95.279982 
L 84.155911 95.990718 
L 82.388816 96.891098 
L 80.725516 97.971257 
L 79.184236 99.219361 
L 77.781861 100.621736 
L 76.533757 102.163016 
L 75.453598 103.826316 
L 74.553218 105.593411 
L 73.842482 107.444941 
L 73.329177 109.360621 
L 73.018927 111.319461 
L 72.915132 113.3 
L 73.018927 115.280539 
L 73.329177 117.239379 
L 73.842482 119.155059 
L 74.553218 121.006589 
L 75.453598 122.773684 
L 76.533757 124.436984 
L 77.781861 125.978264 
L 79.184236 127.380639 
L 80.725516 128.628743 
L 82.388816 129.708902 
L 84.155911 130.609282 
L 86.007441 131.320018 
L 87.923121 131.833323 
L 89.881961 132.143573 
L 91.8625 132.247368 
L 93.843039 132.143573 
L 95.801879 131.833323 
L 97.717559 131.320018 
L 99.569089 130.609282 
L 101.336184 129.708902 
L 102.999484 128.628743 
L 104.540764 127.380639 
L 105.943139 125.978264 
L 107.191243 124.436984 
L 108.271402 122.773684 
L 109.171782 121.006589 
L 109.882518 119.155059 
L 110.395823 117.239379 
L 110.706073 115.280539 
L 110.809868 113.3 
L 110.809868 113.3 
" style="fill:none;stroke:#000000;stroke-linecap:square;stroke-opacity:0.1;stroke-width:0.6;"/>
     </g>
     <g id="text_10">
      <!-- 5 -->
      <g transform="translate(109.367586 104.420719)scale(0.09 -0.09)">
       <use xlink:href="#HelveticaNeue-Bold-53"/>
      </g>
     </g>
    </g>
    <g id="ytick_3">
     <g id="line2d_11">
      <path clip-path="url(#pc08fbe7692)" d="M 129.757237 113.3 
L 129.664927 110.656597 
L 129.388448 108.026072 
L 128.929146 105.421241 
L 128.289259 102.854795 
L 127.471905 100.339237 
L 126.481065 97.886822 
L 125.321567 95.509499 
L 123.999059 93.218849 
L 122.519986 91.026033 
L 120.891553 88.941733 
L 119.121692 86.976104 
L 117.219028 85.138722 
L 115.19283 83.43854 
L 113.052968 81.883839 
L 110.809868 80.482195 
L 108.474459 79.240436 
L 106.058118 78.164612 
L 103.572618 77.259964 
L 101.030067 76.530899 
L 98.442852 75.980969 
L 95.823579 75.612854 
L 93.185007 75.428348 
L 90.539993 75.428348 
L 87.901421 75.612854 
L 85.282148 75.980969 
L 82.694933 76.530899 
L 80.152382 77.259964 
L 77.666882 78.164612 
L 75.250541 79.240436 
L 72.915132 80.482195 
L 70.672032 81.883839 
L 68.53217 83.43854 
L 66.505972 85.138722 
L 64.603308 86.976104 
L 62.833447 88.941733 
L 61.205014 91.026033 
L 59.725941 93.218849 
L 58.403433 95.509499 
L 57.243935 97.886822 
L 56.253095 100.339237 
L 55.435741 102.854795 
L 54.795854 105.421241 
L 54.336552 108.026072 
L 54.060073 110.656597 
L 53.967763 113.3 
L 54.060073 115.943403 
L 54.336552 118.573928 
L 54.795854 121.178759 
L 55.435741 123.745205 
L 56.253095 126.260763 
L 57.243935 128.713178 
L 58.403433 131.090501 
L 59.725941 133.381151 
L 61.205014 135.573967 
L 62.833447 137.658267 
L 64.603308 139.623896 
L 66.505972 141.461278 
L 68.53217 143.16146 
L 70.672032 144.716161 
L 72.915132 146.117805 
L 75.250541 147.359564 
L 77.666882 148.435388 
L 80.152382 149.340036 
L 82.694933 150.069101 
L 85.282148 150.619031 
L 87.901421 150.987146 
L 90.539993 151.171652 
L 93.185007 151.171652 
L 95.823579 150.987146 
L 98.442852 150.619031 
L 101.030067 150.069101 
L 103.572618 149.340036 
L 106.058118 148.435388 
L 108.474459 147.359564 
L 110.809868 146.117805 
L 113.052968 144.716161 
L 115.19283 143.16146 
L 117.219028 141.461278 
L 119.121692 139.623896 
L 120.891553 137.658267 
L 122.519986 135.573967 
L 123.999059 133.381151 
L 125.321567 131.090501 
L 126.481065 128.713178 
L 127.471905 126.260763 
L 128.289259 123.745205 
L 128.929146 121.178759 
L 129.388448 118.573928 
L 129.664927 115.943403 
L 129.757237 113.3 
L 129.757237 113.3 
" style="fill:none;stroke:#000000;stroke-linecap:square;stroke-opacity:0.1;stroke-width:0.6;"/>
     </g>
     <g id="text_11">
      <!-- 10 -->
      <defs>
       <path d="M 39.203125 0 
L 39.203125 70 
L 27.90625 70 
Q 27.296875 66 25.390625 63.296875 
Q 23.5 60.59375 20.75 58.9375 
Q 18 57.296875 14.546875 56.640625 
Q 11.09375 56 7.40625 56.09375 
L 7.40625 45.40625 
L 25 45.40625 
L 25 0 
z
" id="HelveticaNeue-Bold-49"/>
      </defs>
      <g transform="translate(126.872672 97.169875)scale(0.09 -0.09)">
       <use xlink:href="#HelveticaNeue-Bold-49"/>
       <use x="55.599991" xlink:href="#HelveticaNeue-Bold-48"/>
      </g>
     </g>
    </g>
    <g id="ytick_4">
     <g id="line2d_12">
      <path clip-path="url(#pc08fbe7692)" d="M 148.704605 113.3 
L 148.566141 109.334895 
L 148.151422 105.389108 
L 147.462469 101.481862 
L 146.502639 97.632192 
L 145.276607 93.858855 
L 143.790347 90.180233 
L 142.0511 86.614248 
L 140.067339 83.178273 
L 137.848729 79.889049 
L 135.406079 76.762599 
L 132.751289 73.814156 
L 129.897292 71.058084 
L 126.857994 68.50781 
L 123.648202 66.175759 
L 120.283553 64.073293 
L 116.780439 62.210654 
L 113.155927 60.596918 
L 109.427677 59.239945 
L 105.61385 58.146348 
L 101.733028 57.321454 
L 97.804118 56.769282 
L 93.846261 56.492521 
L 89.878739 56.492521 
L 85.920882 56.769282 
L 81.991972 57.321454 
L 78.11115 58.146348 
L 74.297323 59.239945 
L 70.569073 60.596918 
L 66.944561 62.210654 
L 63.441447 64.073293 
L 60.076798 66.175759 
L 56.867006 68.50781 
L 53.827708 71.058084 
L 50.973711 73.814156 
L 48.318921 76.762599 
L 45.876271 79.889049 
L 43.657661 83.178273 
L 41.6739 86.614248 
L 39.934653 90.180233 
L 38.448393 93.858855 
L 37.222361 97.632192 
L 36.262531 101.481862 
L 35.573578 105.389108 
L 35.158859 109.334895 
L 35.020395 113.3 
L 35.158859 117.265105 
L 35.573578 121.210892 
L 36.262531 125.118138 
L 37.222361 128.967808 
L 38.448393 132.741145 
L 39.934653 136.419767 
L 41.6739 139.985752 
L 43.657661 143.421727 
L 45.876271 146.710951 
L 48.318921 149.837401 
L 50.973711 152.785844 
L 53.827708 155.541916 
L 56.867006 158.09219 
L 60.076798 160.424241 
L 63.441447 162.526707 
L 66.944561 164.389346 
L 70.569073 166.003082 
L 74.297323 167.360055 
L 78.11115 168.453652 
L 81.991972 169.278546 
L 85.920882 169.830718 
L 89.878739 170.107479 
L 93.846261 170.107479 
L 97.804118 169.830718 
L 101.733028 169.278546 
L 105.61385 168.453652 
L 109.427677 167.360055 
L 113.155927 166.003082 
L 116.780439 164.389346 
L 120.283553 162.526707 
L 123.648202 160.424241 
L 126.857994 158.09219 
L 129.897292 155.541916 
L 132.751289 152.785844 
L 135.406079 149.837401 
L 137.848729 146.710951 
L 140.067339 143.421727 
L 142.0511 139.985752 
L 143.790347 136.419767 
L 145.276607 132.741145 
L 146.502639 128.967808 
L 147.462469 125.118138 
L 148.151422 121.210892 
L 148.566141 117.265105 
L 148.704605 113.3 
L 148.704605 113.3 
" style="fill:none;stroke:#000000;stroke-linecap:square;stroke-opacity:0.1;stroke-width:0.6;"/>
     </g>
     <g id="text_12">
      <!-- 15 -->
      <g transform="translate(144.377758 89.919031)scale(0.09 -0.09)">
       <use xlink:href="#HelveticaNeue-Bold-49"/>
       <use x="55.599991" xlink:href="#HelveticaNeue-Bold-53"/>
      </g>
     </g>
    </g>
    <g id="ytick_5"/>
    <g id="ytick_6"/>
    <g id="ytick_7"/>
    <g id="ytick_8"/>
    <g id="ytick_9"/>
    <g id="ytick_10"/>
    <g id="ytick_11"/>
    <g id="ytick_12"/>
    <g id="ytick_13"/>
    <g id="ytick_14"/>
    <g id="ytick_15"/>
    <g id="ytick_16"/>
    <g id="ytick_17"/>
    <g id="ytick_18"/>
    <g id="ytick_19"/>
    <g id="ytick_20"/>
   </g>
   <g id="line2d_13">
    <path clip-path="url(#pc08fbe7692)" d="M 98.473222 113.3 
L 111.496035 106.559799 
L 135.130129 79.623453 
L 102.261518 97.383119 
L 101.382692 75.705611 
L 87.682524 62.855192 
L 86.260238 100.528128 
L 55.014346 73.272235 
L 54.026377 92.824114 
L 63.409849 108.552092 
L 63.533778 118.027228 
L 38.871558 141.977264 
L 65.301868 142.152538 
L 78.517085 143.724482 
L 85.609548 188.761904 
L 105.807316 168.366833 
L 112.630629 145.087988 
L 153.843881 161.542045 
L 154.679752 134.86519 
L 184.563908 113.3 
" style="fill:none;stroke:#2b4162;stroke-linecap:square;stroke-width:3;"/>
   </g>
   <g id="line2d_14">
    <path clip-path="url(#pc08fbe7692)" d="M 107.604879 113.3 
L 134.644055 98.613073 
L 119.751353 91.593235 
L 104.116685 94.543573 
L 102.777019 70.199537 
L 90.733584 99.676006 
L 65.138281 52.374918 
L 57.31124 75.767327 
L 51.093146 91.236729 
L 66.975154 109.147037 
L 21.610126 125.023048 
L 60.251677 130.406922 
L 64.952473 142.532082 
L 68.460637 166.650873 
L 87.328097 168.022102 
L 106.938307 172.833015 
L 117.773304 152.959439 
L 146.037771 155.466306 
L 159.263227 136.438699 
L 153.557062 113.3 
" style="fill:none;stroke:#fa9f42;stroke-linecap:square;stroke-width:3;"/>
   </g>
   <g id="line2d_15">
    <path clip-path="url(#pc08fbe7692)" d="M 103.735019 113.3 
L 106.725943 108.197373 
L 106.328363 102.040767 
L 119.637162 70.787715 
L 101.647756 74.658899 
L 88.010326 66.81117 
L 63.200813 47.957935 
L 78.6716 98.970863 
L 66.619761 99.639313 
L 57.17626 107.51189 
L 61.034965 118.444206 
L 48.795978 136.606436 
L 73.576498 133.163893 
L 75.614545 150.341606 
L 85.939555 184.779311 
L 102.179859 154.042328 
L 110.824271 142.323151 
L 156.129587 163.321082 
L 177.571083 142.723794 
L 186.821436 113.3 
" style="fill:none;stroke:#e0e0e2;stroke-linecap:square;stroke-width:3;"/>
   </g>
   <g id="line2d_16">
    <path clip-path="url(#pc08fbe7692)" d="M 142.686485 113.3 
L 141.406472 96.291533 
L 126.484771 86.352405 
L 123.737741 64.511311 
L 104.849261 62.01644 
L 87.150424 56.433698 
L 75.411297 75.795035 
L 71.125734 90.773868 
L 57.937561 94.940741 
L 53.394121 106.880763 
L 31.275343 123.410208 
L 44.706741 138.819421 
L 59.303706 148.668278 
L 81.077034 137.888385 
L 88.091771 158.805931 
L 107.333063 174.391872 
L 128.851572 169.915989 
L 151.127159 159.427536 
L 122.320441 123.756225 
L 151.497248 113.3 
" style="fill:none;stroke:#a21817;stroke-linecap:square;stroke-width:3;"/>
   </g>
   <g id="line2d_17">
    <path clip-path="url(#pc08fbe7692)" d="M 141.892022 113.3 
L 101.989104 109.823532 
L 127.036176 85.923229 
L 96.881307 105.618144 
L 96.278352 95.862196 
L 87.943611 66.006041 
L 86.08544 100.129629 
L 48.8707 66.598456 
L 63.015749 97.688919 
L 49.27686 106.193714 
L 17.863833 125.648194 
L 58.934657 131.119657 
L 42.140305 167.312702 
L 76.57599 148.149733 
L 85.115988 194.718293 
L 102.128132 153.838063 
L 122.016 159.453368 
L 138.448375 149.559242 
L 172.505471 140.984767 
L 177.697516 113.3 
" style="fill:none;stroke:#0b6e4f;stroke-linecap:square;stroke-width:3;"/>
   </g>
   <g id="patch_3">
    <path d="M 163.8625 113.3 
C 163.8625 103.845047 162.00008 94.482031 158.381826 85.746793 
C 154.763572 77.011555 149.45985 69.073973 142.774188 62.388312 
C 136.088527 55.70265 128.150945 50.398928 119.415707 46.780674 
C 110.680469 43.16242 101.317453 41.3 91.8625 41.3 
C 82.407547 41.3 73.044531 43.16242 64.309293 46.780674 
C 55.574055 50.398928 47.636473 55.70265 40.950812 62.388312 
C 34.26515 69.073973 28.961428 77.011555 25.343174 85.746793 
C 21.72492 94.482031 19.8625 103.845047 19.8625 113.3 
C 19.8625 122.754953 21.72492 132.117969 25.343174 140.853207 
C 28.961428 149.588445 34.26515 157.526027 40.950812 164.211688 
C 47.636473 170.89735 55.574055 176.201072 64.309293 179.819326 
C 73.044531 183.43758 82.407547 185.3 91.8625 185.3 
C 101.317453 185.3 110.680469 183.43758 119.415707 179.819326 
C 128.150945 176.201072 136.088527 170.89735 142.774188 164.211688 
C 149.45985 157.526027 154.763572 149.588445 158.381826 140.853207 
C 162.00008 132.117969 163.8625 122.754953 163.8625 113.3 
" style="fill:none;stroke:#000000;stroke-linecap:square;stroke-linejoin:miter;stroke-width:0.6;"/>
   </g>
   <g id="text_13">
    <!-- With labels -->
    <defs>
     <path d="M 72.296875 0 
L 91.40625 71.40625 
L 81.90625 71.40625 
L 67.40625 12 
L 67.203125 12 
L 51.40625 71.40625 
L 41.09375 71.40625 
L 25.09375 12 
L 24.90625 12 
L 10.90625 71.40625 
L 1.203125 71.40625 
L 19.5 0 
L 29.40625 0 
L 45.90625 60 
L 46.09375 60 
L 62.40625 0 
z
" id="HelveticaNeue-87"/>
     <path d="M 15.40625 61 
L 15.40625 71.40625 
L 6.90625 71.40625 
L 6.90625 61 
z
M 6.90625 51.703125 
L 6.90625 0 
L 15.40625 0 
L 15.40625 51.703125 
z
" id="HelveticaNeue-105"/>
     <path d="M 18.203125 51.703125 
L 18.203125 67.203125 
L 9.703125 67.203125 
L 9.703125 51.703125 
L 0.90625 51.703125 
L 0.90625 44.203125 
L 9.703125 44.203125 
L 9.703125 11.296875 
Q 9.703125 7.703125 10.390625 5.5 
Q 11.09375 3.296875 12.546875 2.09375 
Q 14 0.90625 16.34375 0.453125 
Q 18.703125 0 22 0 
L 28.5 0 
L 28.5 7.5 
L 24.59375 7.5 
Q 22.59375 7.5 21.34375 7.640625 
Q 20.09375 7.796875 19.390625 8.296875 
Q 18.703125 8.796875 18.453125 9.6875 
Q 18.203125 10.59375 18.203125 12.09375 
L 18.203125 44.203125 
L 28.5 44.203125 
L 28.5 51.703125 
z
" id="HelveticaNeue-116"/>
     <path d="M 6.40625 71.40625 
L 6.40625 0 
L 14.90625 0 
L 14.90625 29.203125 
Q 14.90625 32.703125 15.84375 35.640625 
Q 16.796875 38.59375 18.6875 40.796875 
Q 20.59375 43 23.4375 44.203125 
Q 26.296875 45.40625 30.203125 45.40625 
Q 35.09375 45.40625 37.890625 42.59375 
Q 40.703125 39.796875 40.703125 35 
L 40.703125 0 
L 49.203125 0 
L 49.203125 34 
Q 49.203125 38.203125 48.34375 41.640625 
Q 47.5 45.09375 45.390625 47.59375 
Q 43.296875 50.09375 39.890625 51.5 
Q 36.5 52.90625 31.40625 52.90625 
Q 29.09375 52.90625 26.640625 52.40625 
Q 24.203125 51.90625 21.953125 50.84375 
Q 19.703125 49.796875 17.890625 48.140625 
Q 16.09375 46.5 15.09375 44.09375 
L 14.90625 44.09375 
L 14.90625 71.40625 
z
" id="HelveticaNeue-104"/>
     <path id="HelveticaNeue-32"/>
     <path d="M 6.90625 71.40625 
L 6.90625 0 
L 15.40625 0 
L 15.40625 71.40625 
z
" id="HelveticaNeue-108"/>
     <path d="M 52.203125 0.203125 
Q 50 -1.09375 46.09375 -1.09375 
Q 42.796875 -1.09375 40.84375 0.75 
Q 38.90625 2.59375 38.90625 6.796875 
Q 35.40625 2.59375 30.75 0.75 
Q 26.09375 -1.09375 20.703125 -1.09375 
Q 17.203125 -1.09375 14.046875 -0.296875 
Q 10.90625 0.5 8.59375 2.203125 
Q 6.296875 3.90625 4.9375 6.65625 
Q 3.59375 9.40625 3.59375 13.296875 
Q 3.59375 17.703125 5.09375 20.5 
Q 6.59375 23.296875 9.046875 25.046875 
Q 11.5 26.796875 14.640625 27.6875 
Q 17.796875 28.59375 21.09375 29.203125 
Q 24.59375 29.90625 27.75 30.25 
Q 30.90625 30.59375 33.296875 31.25 
Q 35.703125 31.90625 37.09375 33.15625 
Q 38.5 34.40625 38.5 36.796875 
Q 38.5 39.59375 37.453125 41.296875 
Q 36.40625 43 34.75 43.890625 
Q 33.09375 44.796875 31.046875 45.09375 
Q 29 45.40625 27 45.40625 
Q 21.59375 45.40625 18 43.34375 
Q 14.40625 41.296875 14.09375 35.59375 
L 5.59375 35.59375 
Q 5.796875 40.40625 7.59375 43.703125 
Q 9.40625 47 12.40625 49.046875 
Q 15.40625 51.09375 19.25 52 
Q 23.09375 52.90625 27.5 52.90625 
Q 31 52.90625 34.453125 52.40625 
Q 37.90625 51.90625 40.703125 50.34375 
Q 43.5 48.796875 45.203125 46 
Q 46.90625 43.203125 46.90625 38.703125 
L 46.90625 12.09375 
Q 46.90625 9.09375 47.25 7.6875 
Q 47.59375 6.296875 49.59375 6.296875 
Q 50.703125 6.296875 52.203125 6.796875 
z
M 38.40625 26.703125 
Q 36.796875 25.5 34.1875 24.953125 
Q 31.59375 24.40625 28.75 24.046875 
Q 25.90625 23.703125 23 23.25 
Q 20.09375 22.796875 17.796875 21.796875 
Q 15.5 20.796875 14.046875 18.9375 
Q 12.59375 17.09375 12.59375 13.90625 
Q 12.59375 11.796875 13.4375 10.34375 
Q 14.296875 8.90625 15.640625 8 
Q 17 7.09375 18.796875 6.6875 
Q 20.59375 6.296875 22.59375 6.296875 
Q 26.796875 6.296875 29.796875 7.4375 
Q 32.796875 8.59375 34.6875 10.34375 
Q 36.59375 12.09375 37.5 14.140625 
Q 38.40625 16.203125 38.40625 18 
z
" id="HelveticaNeue-97"/>
     <path d="M 6.703125 71.40625 
L 6.703125 0 
L 15.203125 0 
L 15.203125 6.90625 
L 15.40625 6.90625 
Q 16.796875 4.59375 18.84375 3.046875 
Q 20.90625 1.5 23.203125 0.59375 
Q 25.5 -0.296875 27.84375 -0.6875 
Q 30.203125 -1.09375 32.09375 -1.09375 
Q 38 -1.09375 42.453125 1 
Q 46.90625 3.09375 49.84375 6.75 
Q 52.796875 10.40625 54.25 15.296875 
Q 55.703125 20.203125 55.703125 25.703125 
Q 55.703125 31.203125 54.203125 36.09375 
Q 52.703125 41 49.75 44.75 
Q 46.796875 48.5 42.34375 50.703125 
Q 37.90625 52.90625 31.90625 52.90625 
Q 26.5 52.90625 22 50.953125 
Q 17.5 49 15.40625 44.703125 
L 15.203125 44.703125 
L 15.203125 71.40625 
z
M 46.703125 26.296875 
Q 46.703125 22.5 45.890625 18.890625 
Q 45.09375 15.296875 43.296875 12.5 
Q 41.5 9.703125 38.546875 8 
Q 35.59375 6.296875 31.203125 6.296875 
Q 26.796875 6.296875 23.6875 7.9375 
Q 20.59375 9.59375 18.640625 12.296875 
Q 16.703125 15 15.796875 18.546875 
Q 14.90625 22.09375 14.90625 25.90625 
Q 14.90625 29.5 15.75 33 
Q 16.59375 36.5 18.5 39.25 
Q 20.40625 42 23.40625 43.703125 
Q 26.40625 45.40625 30.703125 45.40625 
Q 34.796875 45.40625 37.84375 43.796875 
Q 40.90625 42.203125 42.84375 39.5 
Q 44.796875 36.796875 45.75 33.34375 
Q 46.703125 29.90625 46.703125 26.296875 
z
" id="HelveticaNeue-98"/>
     <path d="M 42.296875 30.796875 
L 12.59375 30.796875 
Q 12.796875 33.796875 13.890625 36.4375 
Q 15 39.09375 16.890625 41.09375 
Q 18.796875 43.09375 21.4375 44.25 
Q 24.09375 45.40625 27.40625 45.40625 
Q 30.59375 45.40625 33.25 44.25 
Q 35.90625 43.09375 37.84375 41.140625 
Q 39.796875 39.203125 40.9375 36.5 
Q 42.09375 33.796875 42.296875 30.796875 
z
M 50.5 16.40625 
L 42.09375 16.40625 
Q 41 11.296875 37.546875 8.796875 
Q 34.09375 6.296875 28.703125 6.296875 
Q 24.5 6.296875 21.390625 7.6875 
Q 18.296875 9.09375 16.296875 11.4375 
Q 14.296875 13.796875 13.390625 16.84375 
Q 12.5 19.90625 12.59375 23.296875 
L 51.296875 23.296875 
Q 51.5 28 50.453125 33.203125 
Q 49.40625 38.40625 46.65625 42.796875 
Q 43.90625 47.203125 39.34375 50.046875 
Q 34.796875 52.90625 27.90625 52.90625 
Q 22.59375 52.90625 18.140625 50.90625 
Q 13.703125 48.90625 10.453125 45.296875 
Q 7.203125 41.703125 5.390625 36.796875 
Q 3.59375 31.90625 3.59375 26 
Q 3.796875 20.09375 5.34375 15.09375 
Q 6.90625 10.09375 10 6.5 
Q 13.09375 2.90625 17.640625 0.90625 
Q 22.203125 -1.09375 28.40625 -1.09375 
Q 37.203125 -1.09375 43 3.296875 
Q 48.796875 7.703125 50.5 16.40625 
z
" id="HelveticaNeue-101"/>
     <path d="M 11.59375 16.296875 
L 3.09375 16.296875 
Q 3.296875 11.5 5.09375 8.140625 
Q 6.90625 4.796875 9.90625 2.75 
Q 12.90625 0.703125 16.796875 -0.1875 
Q 20.703125 -1.09375 25 -1.09375 
Q 28.90625 -1.09375 32.84375 -0.34375 
Q 36.796875 0.40625 39.9375 2.296875 
Q 43.09375 4.203125 45.046875 7.296875 
Q 47 10.40625 47 15.09375 
Q 47 18.796875 45.546875 21.296875 
Q 44.09375 23.796875 41.75 25.4375 
Q 39.40625 27.09375 36.34375 28.09375 
Q 33.296875 29.09375 30.09375 29.796875 
Q 27.09375 30.5 24.09375 31.140625 
Q 21.09375 31.796875 18.6875 32.75 
Q 16.296875 33.703125 14.75 35.140625 
Q 13.203125 36.59375 13.203125 38.796875 
Q 13.203125 40.796875 14.203125 42.046875 
Q 15.203125 43.296875 16.796875 44.046875 
Q 18.40625 44.796875 20.34375 45.09375 
Q 22.296875 45.40625 24.203125 45.40625 
Q 26.296875 45.40625 28.34375 44.953125 
Q 30.40625 44.5 32.09375 43.5 
Q 33.796875 42.5 34.890625 40.84375 
Q 36 39.203125 36.203125 36.703125 
L 44.703125 36.703125 
Q 44.40625 41.40625 42.703125 44.546875 
Q 41 47.703125 38.140625 49.546875 
Q 35.296875 51.40625 31.59375 52.15625 
Q 27.90625 52.90625 23.5 52.90625 
Q 20.09375 52.90625 16.640625 52.046875 
Q 13.203125 51.203125 10.453125 49.453125 
Q 7.703125 47.703125 5.953125 44.890625 
Q 4.203125 42.09375 4.203125 38.203125 
Q 4.203125 33.203125 6.703125 30.390625 
Q 9.203125 27.59375 12.953125 26.046875 
Q 16.703125 24.5 21.09375 23.640625 
Q 25.5 22.796875 29.25 21.75 
Q 33 20.703125 35.5 19 
Q 38 17.296875 38 14 
Q 38 11.59375 36.796875 10.046875 
Q 35.59375 8.5 33.75 7.703125 
Q 31.90625 6.90625 29.703125 6.59375 
Q 27.5 6.296875 25.5 6.296875 
Q 22.90625 6.296875 20.453125 6.796875 
Q 18 7.296875 16.046875 8.4375 
Q 14.09375 9.59375 12.890625 11.546875 
Q 11.703125 13.5 11.59375 16.296875 
z
" id="HelveticaNeue-115"/>
    </defs>
    <g transform="translate(72.230625 24.29625)scale(0.08 -0.08)">
     <use xlink:href="#HelveticaNeue-87"/>
     <use x="92.599991" xlink:href="#HelveticaNeue-105"/>
     <use x="114.799988" xlink:href="#HelveticaNeue-116"/>
     <use x="146.299973" xlink:href="#HelveticaNeue-104"/>
     <use x="201.899963" xlink:href="#HelveticaNeue-32"/>
     <use x="229.699951" xlink:href="#HelveticaNeue-108"/>
     <use x="251.899948" xlink:href="#HelveticaNeue-97"/>
     <use x="305.599945" xlink:href="#HelveticaNeue-98"/>
     <use x="364.899933" xlink:href="#HelveticaNeue-101"/>
     <use x="418.59993" xlink:href="#HelveticaNeue-108"/>
     <use x="440.799927" xlink:href="#HelveticaNeue-115"/>
    </g>
   </g>
  </g>
  <g id="axes_2">
   <g id="patch_4">
    <path d="M 326.5625 113.3 
C 326.5625 103.845047 324.70008 94.482031 321.081826 85.746793 
C 317.463572 77.011555 312.15985 69.073973 305.474188 62.388312 
C 298.788527 55.70265 290.850945 50.398928 282.115707 46.780674 
C 273.380469 43.16242 264.017453 41.3 254.5625 41.3 
C 245.107547 41.3 235.744531 43.16242 227.009293 46.780674 
C 218.274055 50.398928 210.336473 55.70265 203.650812 62.388312 
C 196.96515 69.073973 191.661428 77.011555 188.043174 85.746793 
C 184.42492 94.482031 182.5625 103.845047 182.5625 113.3 
C 182.5625 122.754953 184.42492 132.117969 188.043174 140.853207 
C 191.661428 149.588445 196.96515 157.526027 203.650812 164.211688 
C 210.336473 170.89735 218.274055 176.201072 227.009293 179.819326 
C 235.744531 183.43758 245.107547 185.3 254.5625 185.3 
C 264.017453 185.3 273.380469 183.43758 282.115707 179.819326 
C 290.850945 176.201072 298.788527 170.89735 305.474188 164.211688 
C 312.15985 157.526027 317.463572 149.588445 321.081826 140.853207 
C 324.70008 132.117969 326.5625 122.754953 326.5625 113.3 
M 254.5625 113.3 
C 254.5625 113.3 254.5625 113.3 254.5625 113.3 
C 254.5625 113.3 254.5625 113.3 254.5625 113.3 
C 254.5625 113.3 254.5625 113.3 254.5625 113.3 
C 254.5625 113.3 254.5625 113.3 254.5625 113.3 
C 254.5625 113.3 254.5625 113.3 254.5625 113.3 
C 254.5625 113.3 254.5625 113.3 254.5625 113.3 
C 254.5625 113.3 254.5625 113.3 254.5625 113.3 
C 254.5625 113.3 254.5625 113.3 254.5625 113.3 
C 254.5625 113.3 254.5625 113.3 254.5625 113.3 
C 254.5625 113.3 254.5625 113.3 254.5625 113.3 
C 254.5625 113.3 254.5625 113.3 254.5625 113.3 
C 254.5625 113.3 254.5625 113.3 254.5625 113.3 
C 254.5625 113.3 254.5625 113.3 254.5625 113.3 
C 254.5625 113.3 254.5625 113.3 254.5625 113.3 
C 254.5625 113.3 254.5625 113.3 254.5625 113.3 
C 254.5625 113.3 254.5625 113.3 254.5625 113.3 
M 326.5625 113.3 
z
" style="fill:#ffffff;"/>
   </g>
   <g id="matplotlib.axis_3">
    <g id="xtick_34">
     <g id="line2d_18">
      <path clip-path="url(#p05bffb9e1b)" d="M 254.5625 113.3 
L 326.5625 113.3 
" style="fill:none;stroke:#000000;stroke-linecap:square;stroke-opacity:0.1;stroke-width:0.6;"/>
     </g>
    </g>
    <g id="xtick_35">
     <g id="line2d_19">
      <path clip-path="url(#p05bffb9e1b)" d="M 254.5625 113.3 
L 305.474188 62.388312 
" style="fill:none;stroke:#000000;stroke-linecap:square;stroke-opacity:0.1;stroke-width:0.6;"/>
     </g>
    </g>
    <g id="xtick_36">
     <g id="line2d_20">
      <path clip-path="url(#p05bffb9e1b)" d="M 254.5625 113.3 
L 254.5625 41.3 
" style="fill:none;stroke:#000000;stroke-linecap:square;stroke-opacity:0.1;stroke-width:0.6;"/>
     </g>
    </g>
    <g id="xtick_37">
     <g id="line2d_21">
      <path clip-path="url(#p05bffb9e1b)" d="M 254.5625 113.3 
L 203.650812 62.388312 
" style="fill:none;stroke:#000000;stroke-linecap:square;stroke-opacity:0.1;stroke-width:0.6;"/>
     </g>
    </g>
    <g id="xtick_38">
     <g id="line2d_22">
      <path clip-path="url(#p05bffb9e1b)" d="M 254.5625 113.3 
L 182.5625 113.3 
" style="fill:none;stroke:#000000;stroke-linecap:square;stroke-opacity:0.1;stroke-width:0.6;"/>
     </g>
    </g>
    <g id="xtick_39">
     <g id="line2d_23">
      <path clip-path="url(#p05bffb9e1b)" d="M 254.5625 113.3 
L 203.650812 164.211688 
" style="fill:none;stroke:#000000;stroke-linecap:square;stroke-opacity:0.1;stroke-width:0.6;"/>
     </g>
    </g>
    <g id="xtick_40">
     <g id="line2d_24">
      <path clip-path="url(#p05bffb9e1b)" d="M 254.5625 113.3 
L 254.5625 185.3 
" style="fill:none;stroke:#000000;stroke-linecap:square;stroke-opacity:0.1;stroke-width:0.6;"/>
     </g>
    </g>
    <g id="xtick_41">
     <g id="line2d_25">
      <path clip-path="url(#p05bffb9e1b)" d="M 254.5625 113.3 
L 305.474188 164.211688 
" style="fill:none;stroke:#000000;stroke-linecap:square;stroke-opacity:0.1;stroke-width:0.6;"/>
     </g>
    </g>
    <g id="xtick_42"/>
    <g id="xtick_43"/>
    <g id="xtick_44"/>
    <g id="xtick_45"/>
    <g id="xtick_46"/>
    <g id="xtick_47"/>
    <g id="xtick_48"/>
    <g id="xtick_49"/>
    <g id="xtick_50"/>
    <g id="xtick_51"/>
    <g id="xtick_52"/>
    <g id="xtick_53"/>
    <g id="xtick_54"/>
    <g id="xtick_55"/>
    <g id="xtick_56"/>
    <g id="xtick_57"/>
    <g id="xtick_58"/>
    <g id="xtick_59"/>
    <g id="xtick_60"/>
    <g id="xtick_61"/>
    <g id="xtick_62"/>
    <g id="xtick_63"/>
    <g id="xtick_64"/>
    <g id="xtick_65"/>
    <g id="xtick_66"/>
   </g>
   <g id="matplotlib.axis_4">
    <g id="ytick_21">
     <g id="line2d_26">
      <path clip-path="url(#p05bffb9e1b)" d="M 254.5625 113.3 
L 254.5625 113.3 
" style="fill:none;stroke:#000000;stroke-linecap:square;stroke-opacity:0.1;stroke-width:0.6;"/>
     </g>
    </g>
    <g id="ytick_22">
     <g id="line2d_27">
      <path clip-path="url(#p05bffb9e1b)" d="M 273.509868 113.3 
L 273.406073 111.319461 
L 273.095823 109.360621 
L 272.582518 107.444941 
L 271.871782 105.593411 
L 270.971402 103.826316 
L 269.891243 102.163016 
L 268.643139 100.621736 
L 267.240764 99.219361 
L 265.699484 97.971257 
L 264.036184 96.891098 
L 262.269089 95.990718 
L 260.417559 95.279982 
L 258.501879 94.766677 
L 256.543039 94.456427 
L 254.5625 94.352632 
L 252.581961 94.456427 
L 250.623121 94.766677 
L 248.707441 95.279982 
L 246.855911 95.990718 
L 245.088816 96.891098 
L 243.425516 97.971257 
L 241.884236 99.219361 
L 240.481861 100.621736 
L 239.233757 102.163016 
L 238.153598 103.826316 
L 237.253218 105.593411 
L 236.542482 107.444941 
L 236.029177 109.360621 
L 235.718927 111.319461 
L 235.615132 113.3 
L 235.718927 115.280539 
L 236.029177 117.239379 
L 236.542482 119.155059 
L 237.253218 121.006589 
L 238.153598 122.773684 
L 239.233757 124.436984 
L 240.481861 125.978264 
L 241.884236 127.380639 
L 243.425516 128.628743 
L 245.088816 129.708902 
L 246.855911 130.609282 
L 248.707441 131.320018 
L 250.623121 131.833323 
L 252.581961 132.143573 
L 254.5625 132.247368 
L 256.543039 132.143573 
L 258.501879 131.833323 
L 260.417559 131.320018 
L 262.269089 130.609282 
L 264.036184 129.708902 
L 265.699484 128.628743 
L 267.240764 127.380639 
L 268.643139 125.978264 
L 269.891243 124.436984 
L 270.971402 122.773684 
L 271.871782 121.006589 
L 272.582518 119.155059 
L 273.095823 117.239379 
L 273.406073 115.280539 
L 273.509868 113.3 
L 273.509868 113.3 
" style="fill:none;stroke:#000000;stroke-linecap:square;stroke-opacity:0.1;stroke-width:0.6;"/>
     </g>
    </g>
    <g id="ytick_23">
     <g id="line2d_28">
      <path clip-path="url(#p05bffb9e1b)" d="M 292.457237 113.3 
L 292.364927 110.656597 
L 292.088448 108.026072 
L 291.629146 105.421241 
L 290.989259 102.854795 
L 290.171905 100.339237 
L 289.181065 97.886822 
L 288.021567 95.509499 
L 286.699059 93.218849 
L 285.219986 91.026033 
L 283.591553 88.941733 
L 281.821692 86.976104 
L 279.919028 85.138722 
L 277.89283 83.43854 
L 275.752968 81.883839 
L 273.509868 80.482195 
L 271.174459 79.240436 
L 268.758118 78.164612 
L 266.272618 77.259964 
L 263.730067 76.530899 
L 261.142852 75.980969 
L 258.523579 75.612854 
L 255.885007 75.428348 
L 253.239993 75.428348 
L 250.601421 75.612854 
L 247.982148 75.980969 
L 245.394933 76.530899 
L 242.852382 77.259964 
L 240.366882 78.164612 
L 237.950541 79.240436 
L 235.615132 80.482195 
L 233.372032 81.883839 
L 231.23217 83.43854 
L 229.205972 85.138722 
L 227.303308 86.976104 
L 225.533447 88.941733 
L 223.905014 91.026033 
L 222.425941 93.218849 
L 221.103433 95.509499 
L 219.943935 97.886822 
L 218.953095 100.339237 
L 218.135741 102.854795 
L 217.495854 105.421241 
L 217.036552 108.026072 
L 216.760073 110.656597 
L 216.667763 113.3 
L 216.760073 115.943403 
L 217.036552 118.573928 
L 217.495854 121.178759 
L 218.135741 123.745205 
L 218.953095 126.260763 
L 219.943935 128.713178 
L 221.103433 131.090501 
L 222.425941 133.381151 
L 223.905014 135.573967 
L 225.533447 137.658267 
L 227.303308 139.623896 
L 229.205972 141.461278 
L 231.23217 143.16146 
L 233.372032 144.716161 
L 235.615132 146.117805 
L 237.950541 147.359564 
L 240.366882 148.435388 
L 242.852382 149.340036 
L 245.394933 150.069101 
L 247.982148 150.619031 
L 250.601421 150.987146 
L 253.239993 151.171652 
L 255.885007 151.171652 
L 258.523579 150.987146 
L 261.142852 150.619031 
L 263.730067 150.069101 
L 266.272618 149.340036 
L 268.758118 148.435388 
L 271.174459 147.359564 
L 273.509868 146.117805 
L 275.752968 144.716161 
L 277.89283 143.16146 
L 279.919028 141.461278 
L 281.821692 139.623896 
L 283.591553 137.658267 
L 285.219986 135.573967 
L 286.699059 133.381151 
L 288.021567 131.090501 
L 289.181065 128.713178 
L 290.171905 126.260763 
L 290.989259 123.745205 
L 291.629146 121.178759 
L 292.088448 118.573928 
L 292.364927 115.943403 
L 292.457237 113.3 
L 292.457237 113.3 
" style="fill:none;stroke:#000000;stroke-linecap:square;stroke-opacity:0.1;stroke-width:0.6;"/>
     </g>
    </g>
    <g id="ytick_24">
     <g id="line2d_29">
      <path clip-path="url(#p05bffb9e1b)" d="M 311.404605 113.3 
L 311.266141 109.334895 
L 310.851422 105.389108 
L 310.162469 101.481862 
L 309.202639 97.632192 
L 307.976607 93.858855 
L 306.490347 90.180233 
L 304.7511 86.614248 
L 302.767339 83.178273 
L 300.548729 79.889049 
L 298.106079 76.762599 
L 295.451289 73.814156 
L 292.597292 71.058084 
L 289.557994 68.50781 
L 286.348202 66.175759 
L 282.983553 64.073293 
L 279.480439 62.210654 
L 275.855927 60.596918 
L 272.127677 59.239945 
L 268.31385 58.146348 
L 264.433028 57.321454 
L 260.504118 56.769282 
L 256.546261 56.492521 
L 252.578739 56.492521 
L 248.620882 56.769282 
L 244.691972 57.321454 
L 240.81115 58.146348 
L 236.997323 59.239945 
L 233.269073 60.596918 
L 229.644561 62.210654 
L 226.141447 64.073293 
L 222.776798 66.175759 
L 219.567006 68.50781 
L 216.527708 71.058084 
L 213.673711 73.814156 
L 211.018921 76.762599 
L 208.576271 79.889049 
L 206.357661 83.178273 
L 204.3739 86.614248 
L 202.634653 90.180233 
L 201.148393 93.858855 
L 199.922361 97.632192 
L 198.962531 101.481862 
L 198.273578 105.389108 
L 197.858859 109.334895 
L 197.720395 113.3 
L 197.858859 117.265105 
L 198.273578 121.210892 
L 198.962531 125.118138 
L 199.922361 128.967808 
L 201.148393 132.741145 
L 202.634653 136.419767 
L 204.3739 139.985752 
L 206.357661 143.421727 
L 208.576271 146.710951 
L 211.018921 149.837401 
L 213.673711 152.785844 
L 216.527708 155.541916 
L 219.567006 158.09219 
L 222.776798 160.424241 
L 226.141447 162.526707 
L 229.644561 164.389346 
L 233.269073 166.003082 
L 236.997323 167.360055 
L 240.81115 168.453652 
L 244.691972 169.278546 
L 248.620882 169.830718 
L 252.578739 170.107479 
L 256.546261 170.107479 
L 260.504118 169.830718 
L 264.433028 169.278546 
L 268.31385 168.453652 
L 272.127677 167.360055 
L 275.855927 166.003082 
L 279.480439 164.389346 
L 282.983553 162.526707 
L 286.348202 160.424241 
L 289.557994 158.09219 
L 292.597292 155.541916 
L 295.451289 152.785844 
L 298.106079 149.837401 
L 300.548729 146.710951 
L 302.767339 143.421727 
L 304.7511 139.985752 
L 306.490347 136.419767 
L 307.976607 132.741145 
L 309.202639 128.967808 
L 310.162469 125.118138 
L 310.851422 121.210892 
L 311.266141 117.265105 
L 311.404605 113.3 
L 311.404605 113.3 
" style="fill:none;stroke:#000000;stroke-linecap:square;stroke-opacity:0.1;stroke-width:0.6;"/>
     </g>
    </g>
    <g id="ytick_25"/>
    <g id="ytick_26"/>
    <g id="ytick_27"/>
    <g id="ytick_28"/>
    <g id="ytick_29"/>
    <g id="ytick_30"/>
    <g id="ytick_31"/>
    <g id="ytick_32"/>
    <g id="ytick_33"/>
    <g id="ytick_34"/>
    <g id="ytick_35"/>
    <g id="ytick_36"/>
    <g id="ytick_37"/>
    <g id="ytick_38"/>
    <g id="ytick_39"/>
    <g id="ytick_40"/>
   </g>
   <g id="line2d_30">
    <path clip-path="url(#p05bffb9e1b)" d="M 261.173222 113.3 
L 274.196035 106.559799 
L 297.830129 79.623453 
L 264.961518 97.383119 
L 264.082692 75.705611 
L 250.382524 62.855192 
L 248.960238 100.528128 
L 217.714346 73.272235 
L 216.726377 92.824114 
L 226.109849 108.552092 
L 226.233778 118.027228 
L 201.571558 141.977264 
L 228.001868 142.152538 
L 241.217085 143.724482 
L 248.309548 188.761904 
L 268.507316 168.366833 
L 275.330629 145.087988 
L 316.543881 161.542045 
L 317.379752 134.86519 
L 334.7625 122.321343 
" style="fill:none;stroke:#2b4162;stroke-linecap:square;stroke-width:3;"/>
   </g>
   <g id="line2d_31">
    <path clip-path="url(#p05bffb9e1b)" d="M 270.304879 113.3 
L 297.344055 98.613073 
L 282.451353 91.593235 
L 266.816685 94.543573 
L 265.477019 70.199537 
L 253.433584 99.676006 
L 227.838281 52.374918 
L 220.01124 75.767327 
L 213.793146 91.236729 
L 229.675154 109.147037 
L 184.310126 125.023048 
L 222.951677 130.406922 
L 227.652473 142.532082 
L 231.160637 166.650873 
L 250.028097 168.022102 
L 269.638307 172.833015 
L 280.473304 152.959439 
L 308.737771 155.466306 
L 321.963227 136.438699 
L 316.257062 113.3 
" style="fill:none;stroke:#fa9f42;stroke-linecap:square;stroke-width:3;"/>
   </g>
   <g id="line2d_32">
    <path clip-path="url(#p05bffb9e1b)" d="M 266.435019 113.3 
L 269.425943 108.197373 
L 269.028363 102.040767 
L 282.337162 70.787715 
L 264.347756 74.658899 
L 250.710326 66.81117 
L 225.900813 47.957935 
L 241.3716 98.970863 
L 229.319761 99.639313 
L 219.87626 107.51189 
L 223.734965 118.444206 
L 211.495978 136.606436 
L 236.276498 133.163893 
L 238.314545 150.341606 
L 248.639555 184.779311 
L 264.879859 154.042328 
L 273.524271 142.323151 
L 318.829587 163.321082 
L 334.7625 148.01549 
" style="fill:none;stroke:#e0e0e2;stroke-linecap:square;stroke-width:3;"/>
   </g>
   <g id="line2d_33">
    <path clip-path="url(#p05bffb9e1b)" d="M 305.386485 113.3 
L 304.106472 96.291533 
L 289.184771 86.352405 
L 286.437741 64.511311 
L 267.549261 62.01644 
L 249.850424 56.433698 
L 238.111297 75.795035 
L 233.825734 90.773868 
L 220.637561 94.940741 
L 216.094121 106.880763 
L 193.975343 123.410208 
L 207.406741 138.819421 
L 222.003706 148.668278 
L 243.777034 137.888385 
L 250.791771 158.805931 
L 270.033063 174.391872 
L 291.551572 169.915989 
L 313.827159 159.427536 
L 285.020441 123.756225 
L 314.197248 113.3 
" style="fill:none;stroke:#a21817;stroke-linecap:square;stroke-width:3;"/>
   </g>
   <g id="line2d_34">
    <path clip-path="url(#p05bffb9e1b)" d="M 304.592022 113.3 
L 264.689104 109.823532 
L 289.736176 85.923229 
L 259.581307 105.618144 
L 258.978352 95.862196 
L 250.643611 66.006041 
L 248.78544 100.129629 
L 211.5707 66.598456 
L 225.715749 97.688919 
L 211.97686 106.193714 
L 180.563833 125.648194 
L 221.634657 131.119657 
L 204.840305 167.312702 
L 239.27599 148.149733 
L 247.815988 194.718293 
L 264.828132 153.838063 
L 284.716 159.453368 
L 301.148375 149.559242 
L 334.7625 141.096293 
" style="fill:none;stroke:#0b6e4f;stroke-linecap:square;stroke-width:3;"/>
   </g>
   <g id="patch_5">
    <path d="M 326.5625 113.3 
C 326.5625 103.845047 324.70008 94.482031 321.081826 85.746793 
C 317.463572 77.011555 312.15985 69.073973 305.474188 62.388312 
C 298.788527 55.70265 290.850945 50.398928 282.115707 46.780674 
C 273.380469 43.16242 264.017453 41.3 254.5625 41.3 
C 245.107547 41.3 235.744531 43.16242 227.009293 46.780674 
C 218.274055 50.398928 210.336473 55.70265 203.650812 62.388312 
C 196.96515 69.073973 191.661428 77.011555 188.043174 85.746793 
C 184.42492 94.482031 182.5625 103.845047 182.5625 113.3 
C 182.5625 122.754953 184.42492 132.117969 188.043174 140.853207 
C 191.661428 149.588445 196.96515 157.526027 203.650812 164.211688 
C 210.336473 170.89735 218.274055 176.201072 227.009293 179.819326 
C 235.744531 183.43758 245.107547 185.3 254.5625 185.3 
C 264.017453 185.3 273.380469 183.43758 282.115707 179.819326 
C 290.850945 176.201072 298.788527 170.89735 305.474188 164.211688 
C 312.15985 157.526027 317.463572 149.588445 321.081826 140.853207 
C 324.70008 132.117969 326.5625 122.754953 326.5625 113.3 
" style="fill:none;stroke:#000000;stroke-linecap:square;stroke-linejoin:miter;stroke-width:0.6;"/>
   </g>
   <g id="text_14">
    <!-- Without labels -->
    <defs>
     <path d="M 12.59375 25.796875 
Q 12.59375 30.5 13.84375 34.140625 
Q 15.09375 37.796875 17.296875 40.296875 
Q 19.5 42.796875 22.453125 44.09375 
Q 25.40625 45.40625 28.703125 45.40625 
Q 32 45.40625 34.953125 44.09375 
Q 37.90625 42.796875 40.09375 40.296875 
Q 42.296875 37.796875 43.546875 34.140625 
Q 44.796875 30.5 44.796875 25.796875 
Q 44.796875 21.09375 43.546875 17.4375 
Q 42.296875 13.796875 40.09375 11.34375 
Q 37.90625 8.90625 34.953125 7.59375 
Q 32 6.296875 28.703125 6.296875 
Q 25.40625 6.296875 22.453125 7.59375 
Q 19.5 8.90625 17.296875 11.34375 
Q 15.09375 13.796875 13.84375 17.4375 
Q 12.59375 21.09375 12.59375 25.796875 
z
M 3.59375 25.796875 
Q 3.59375 20.09375 5.1875 15.1875 
Q 6.796875 10.296875 10 6.640625 
Q 13.203125 3 17.890625 0.953125 
Q 22.59375 -1.09375 28.703125 -1.09375 
Q 34.90625 -1.09375 39.546875 0.953125 
Q 44.203125 3 47.390625 6.640625 
Q 50.59375 10.296875 52.1875 15.1875 
Q 53.796875 20.09375 53.796875 25.796875 
Q 53.796875 31.5 52.1875 36.453125 
Q 50.59375 41.40625 47.390625 45.046875 
Q 44.203125 48.703125 39.546875 50.796875 
Q 34.90625 52.90625 28.703125 52.90625 
Q 22.59375 52.90625 17.890625 50.796875 
Q 13.203125 48.703125 10 45.046875 
Q 6.796875 41.40625 5.1875 36.453125 
Q 3.59375 31.5 3.59375 25.796875 
z
" id="HelveticaNeue-111"/>
     <path d="M 49.203125 0 
L 49.203125 51.703125 
L 40.703125 51.703125 
L 40.703125 22.5 
Q 40.703125 19 39.75 16.046875 
Q 38.796875 13.09375 36.890625 10.890625 
Q 35 8.703125 32.140625 7.5 
Q 29.296875 6.296875 25.40625 6.296875 
Q 20.5 6.296875 17.703125 9.09375 
Q 14.90625 11.90625 14.90625 16.703125 
L 14.90625 51.703125 
L 6.40625 51.703125 
L 6.40625 17.703125 
Q 6.40625 13.5 7.25 10.046875 
Q 8.09375 6.59375 10.1875 4.09375 
Q 12.296875 1.59375 15.6875 0.25 
Q 19.09375 -1.09375 24.203125 -1.09375 
Q 29.90625 -1.09375 34.09375 1.15625 
Q 38.296875 3.40625 41 8.203125 
L 41.203125 8.203125 
L 41.203125 0 
z
" id="HelveticaNeue-117"/>
    </defs>
    <g transform="translate(229.150625 37.32375)scale(0.08 -0.08)">
     <use xlink:href="#HelveticaNeue-87"/>
     <use x="92.599991" xlink:href="#HelveticaNeue-105"/>
     <use x="114.799988" xlink:href="#HelveticaNeue-116"/>
     <use x="146.299973" xlink:href="#HelveticaNeue-104"/>
     <use x="201.899963" xlink:href="#HelveticaNeue-111"/>
     <use x="259.299957" xlink:href="#HelveticaNeue-117"/>
     <use x="314.899948" xlink:href="#HelveticaNeue-116"/>
     <use x="346.399933" xlink:href="#HelveticaNeue-32"/>
     <use x="374.199921" xlink:href="#HelveticaNeue-108"/>
     <use x="396.399918" xlink:href="#HelveticaNeue-97"/>
     <use x="450.099915" xlink:href="#HelveticaNeue-98"/>
     <use x="509.399902" xlink:href="#HelveticaNeue-101"/>
     <use x="563.099899" xlink:href="#HelveticaNeue-108"/>
     <use x="585.299896" xlink:href="#HelveticaNeue-115"/>
    </g>
   </g>
  </g>
  <g id="text_15">
   <!-- Polar axes demo -->
   <defs>
    <path d="M 22.59375 37.796875 
L 22.59375 59.203125 
L 34.796875 59.203125 
Q 37.5 59.203125 40 58.796875 
Q 42.5 58.40625 44.390625 57.25 
Q 46.296875 56.09375 47.4375 54 
Q 48.59375 51.90625 48.59375 48.5 
Q 48.59375 45.09375 47.4375 43 
Q 46.296875 40.90625 44.390625 39.75 
Q 42.5 38.59375 40 38.1875 
Q 37.5 37.796875 34.796875 37.796875 
z
M 6.90625 71.40625 
L 6.90625 0 
L 22.59375 0 
L 22.59375 25.59375 
L 39.09375 25.59375 
Q 45.796875 25.59375 50.5 27.546875 
Q 55.203125 29.5 58.140625 32.703125 
Q 61.09375 35.90625 62.4375 40.046875 
Q 63.796875 44.203125 63.796875 48.5 
Q 63.796875 52.90625 62.4375 57 
Q 61.09375 61.09375 58.140625 64.296875 
Q 55.203125 67.5 50.5 69.453125 
Q 45.796875 71.40625 39.09375 71.40625 
z
" id="HelveticaNeue-Bold-80"/>
    <path d="M 18 25.796875 
Q 18 28.90625 18.59375 31.90625 
Q 19.203125 34.90625 20.640625 37.203125 
Q 22.09375 39.5 24.5 40.953125 
Q 26.90625 42.40625 30.5 42.40625 
Q 34.09375 42.40625 36.546875 40.953125 
Q 39 39.5 40.453125 37.203125 
Q 41.90625 34.90625 42.5 31.90625 
Q 43.09375 28.90625 43.09375 25.796875 
Q 43.09375 22.703125 42.5 19.75 
Q 41.90625 16.796875 40.453125 14.4375 
Q 39 12.09375 36.546875 10.6875 
Q 34.09375 9.296875 30.5 9.296875 
Q 26.90625 9.296875 24.5 10.6875 
Q 22.09375 12.09375 20.640625 14.4375 
Q 19.203125 16.796875 18.59375 19.75 
Q 18 22.703125 18 25.796875 
z
M 3.796875 25.796875 
Q 3.796875 19.59375 5.6875 14.59375 
Q 7.59375 9.59375 11.09375 6.046875 
Q 14.59375 2.5 19.5 0.59375 
Q 24.40625 -1.296875 30.5 -1.296875 
Q 36.59375 -1.296875 41.546875 0.59375 
Q 46.5 2.5 50 6.046875 
Q 53.5 9.59375 55.390625 14.59375 
Q 57.296875 19.59375 57.296875 25.796875 
Q 57.296875 32 55.390625 37.046875 
Q 53.5 42.09375 50 45.640625 
Q 46.5 49.203125 41.546875 51.140625 
Q 36.59375 53.09375 30.5 53.09375 
Q 24.40625 53.09375 19.5 51.140625 
Q 14.59375 49.203125 11.09375 45.640625 
Q 7.59375 42.09375 5.6875 37.046875 
Q 3.796875 32 3.796875 25.796875 
z
" id="HelveticaNeue-Bold-111"/>
    <path d="M 5.796875 71.40625 
L 5.796875 0 
L 20 0 
L 20 71.40625 
z
" id="HelveticaNeue-Bold-108"/>
    <path d="M 4.796875 35.796875 
Q 5.09375 40.796875 7.296875 44.09375 
Q 9.5 47.40625 12.890625 49.40625 
Q 16.296875 51.40625 20.546875 52.25 
Q 24.796875 53.09375 29.09375 53.09375 
Q 33 53.09375 37 52.546875 
Q 41 52 44.296875 50.390625 
Q 47.59375 48.796875 49.6875 45.9375 
Q 51.796875 43.09375 51.796875 38.40625 
L 51.796875 11.5 
Q 51.796875 8 52.1875 4.796875 
Q 52.59375 1.59375 53.59375 0 
L 39.203125 0 
Q 38.796875 1.203125 38.546875 2.453125 
Q 38.296875 3.703125 38.203125 5 
Q 34.796875 1.5 30.1875 0.09375 
Q 25.59375 -1.296875 20.796875 -1.296875 
Q 17.09375 -1.296875 13.890625 -0.390625 
Q 10.703125 0.5 8.296875 2.390625 
Q 5.90625 4.296875 4.546875 7.1875 
Q 3.203125 10.09375 3.203125 14.09375 
Q 3.203125 18.5 4.75 21.34375 
Q 6.296875 24.203125 8.75 25.890625 
Q 11.203125 27.59375 14.34375 28.4375 
Q 17.5 29.296875 20.703125 29.796875 
Q 23.90625 30.296875 27 30.59375 
Q 30.09375 30.90625 32.5 31.5 
Q 34.90625 32.09375 36.296875 33.25 
Q 37.703125 34.40625 37.59375 36.59375 
Q 37.59375 38.90625 36.84375 40.25 
Q 36.09375 41.59375 34.84375 42.34375 
Q 33.59375 43.09375 31.9375 43.34375 
Q 30.296875 43.59375 28.40625 43.59375 
Q 24.203125 43.59375 21.796875 41.796875 
Q 19.40625 40 19 35.796875 
z
M 37.59375 25.296875 
Q 36.703125 24.5 35.34375 24.046875 
Q 34 23.59375 32.453125 23.296875 
Q 30.90625 23 29.203125 22.796875 
Q 27.5 22.59375 25.796875 22.296875 
Q 24.203125 22 22.640625 21.5 
Q 21.09375 21 19.9375 20.140625 
Q 18.796875 19.296875 18.09375 18 
Q 17.40625 16.703125 17.40625 14.703125 
Q 17.40625 12.796875 18.09375 11.5 
Q 18.796875 10.203125 20 9.453125 
Q 21.203125 8.703125 22.796875 8.390625 
Q 24.40625 8.09375 26.09375 8.09375 
Q 30.296875 8.09375 32.59375 9.5 
Q 34.90625 10.90625 36 12.84375 
Q 37.09375 14.796875 37.34375 16.796875 
Q 37.59375 18.796875 37.59375 20 
z
" id="HelveticaNeue-Bold-97"/>
    <path d="M 5.40625 51.703125 
L 5.40625 0 
L 19.59375 0 
L 19.59375 23.296875 
Q 19.59375 26.796875 20.296875 29.796875 
Q 21 32.796875 22.640625 35.046875 
Q 24.296875 37.296875 27 38.59375 
Q 29.703125 39.90625 33.59375 39.90625 
Q 34.90625 39.90625 36.296875 39.75 
Q 37.703125 39.59375 38.703125 39.40625 
L 38.703125 52.59375 
Q 37 53.09375 35.59375 53.09375 
Q 32.90625 53.09375 30.40625 52.296875 
Q 27.90625 51.5 25.703125 50.046875 
Q 23.5 48.59375 21.796875 46.546875 
Q 20.09375 44.5 19.09375 42.09375 
L 18.90625 42.09375 
L 18.90625 51.703125 
z
" id="HelveticaNeue-Bold-114"/>
    <path id="HelveticaNeue-Bold-32"/>
    <path d="M 18.59375 27.203125 
L 0 0 
L 15.90625 0 
L 26.703125 16.296875 
L 37.5 0 
L 53.703125 0 
L 34.59375 27.5 
L 51.59375 51.703125 
L 35.90625 51.703125 
L 26.90625 38.203125 
L 17.796875 51.703125 
L 1.59375 51.703125 
z
" id="HelveticaNeue-Bold-120"/>
    <path d="M 40.203125 31.40625 
L 17.09375 31.40625 
Q 17.203125 32.90625 17.75 34.796875 
Q 18.296875 36.703125 19.640625 38.390625 
Q 21 40.09375 23.25 41.25 
Q 25.5 42.40625 28.90625 42.40625 
Q 34.09375 42.40625 36.640625 39.59375 
Q 39.203125 36.796875 40.203125 31.40625 
z
M 17.09375 22.40625 
L 54.40625 22.40625 
Q 54.796875 28.40625 53.390625 33.90625 
Q 52 39.40625 48.84375 43.703125 
Q 45.703125 48 40.796875 50.546875 
Q 35.90625 53.09375 29.296875 53.09375 
Q 23.40625 53.09375 18.546875 51 
Q 13.703125 48.90625 10.203125 45.25 
Q 6.703125 41.59375 4.796875 36.59375 
Q 2.90625 31.59375 2.90625 25.796875 
Q 2.90625 19.796875 4.75 14.796875 
Q 6.59375 9.796875 10 6.1875 
Q 13.40625 2.59375 18.296875 0.640625 
Q 23.203125 -1.296875 29.296875 -1.296875 
Q 38.09375 -1.296875 44.296875 2.703125 
Q 50.5 6.703125 53.5 16 
L 41 16 
Q 40.296875 13.59375 37.1875 11.4375 
Q 34.09375 9.296875 29.796875 9.296875 
Q 23.796875 9.296875 20.59375 12.390625 
Q 17.40625 15.5 17.09375 22.40625 
z
" id="HelveticaNeue-Bold-101"/>
    <path d="M 16.40625 16.796875 
L 2.90625 16.796875 
Q 3.09375 11.59375 5.25 8.140625 
Q 7.40625 4.703125 10.75 2.59375 
Q 14.09375 0.5 18.390625 -0.390625 
Q 22.703125 -1.296875 27.203125 -1.296875 
Q 31.59375 -1.296875 35.84375 -0.4375 
Q 40.09375 0.40625 43.390625 2.5 
Q 46.703125 4.59375 48.75 8.046875 
Q 50.796875 11.5 50.796875 16.59375 
Q 50.796875 20.203125 49.390625 22.640625 
Q 48 25.09375 45.703125 26.75 
Q 43.40625 28.40625 40.453125 29.40625 
Q 37.5 30.40625 34.40625 31.09375 
Q 31.40625 31.796875 28.5 32.390625 
Q 25.59375 33 23.34375 33.75 
Q 21.09375 34.5 19.6875 35.703125 
Q 18.296875 36.90625 18.296875 38.796875 
Q 18.296875 40.40625 19.09375 41.34375 
Q 19.90625 42.296875 21.046875 42.796875 
Q 22.203125 43.296875 23.59375 43.4375 
Q 25 43.59375 26.203125 43.59375 
Q 30 43.59375 32.796875 42.140625 
Q 35.59375 40.703125 35.90625 36.59375 
L 49.40625 36.59375 
Q 49 41.40625 46.953125 44.546875 
Q 44.90625 47.703125 41.796875 49.59375 
Q 38.703125 51.5 34.75 52.296875 
Q 30.796875 53.09375 26.59375 53.09375 
Q 22.40625 53.09375 18.40625 52.34375 
Q 14.40625 51.59375 11.203125 49.75 
Q 8 47.90625 6.046875 44.703125 
Q 4.09375 41.5 4.09375 36.5 
Q 4.09375 33.09375 5.5 30.75 
Q 6.90625 28.40625 9.203125 26.84375 
Q 11.5 25.296875 14.453125 24.34375 
Q 17.40625 23.40625 20.5 22.703125 
Q 28.09375 21.09375 32.34375 19.5 
Q 36.59375 17.90625 36.59375 14.703125 
Q 36.59375 12.796875 35.6875 11.546875 
Q 34.796875 10.296875 33.4375 9.546875 
Q 32.09375 8.796875 30.4375 8.4375 
Q 28.796875 8.09375 27.296875 8.09375 
Q 25.203125 8.09375 23.25 8.59375 
Q 21.296875 9.09375 19.796875 10.140625 
Q 18.296875 11.203125 17.34375 12.84375 
Q 16.40625 14.5 16.40625 16.796875 
z
" id="HelveticaNeue-Bold-115"/>
    <path d="M 42.09375 26 
Q 42.09375 22.796875 41.5 19.796875 
Q 40.90625 16.796875 39.5 14.4375 
Q 38.09375 12.09375 35.75 10.6875 
Q 33.40625 9.296875 29.90625 9.296875 
Q 26.59375 9.296875 24.25 10.75 
Q 21.90625 12.203125 20.34375 14.546875 
Q 18.796875 16.90625 18.09375 19.90625 
Q 17.40625 22.90625 17.40625 25.90625 
Q 17.40625 29.09375 18.046875 32.046875 
Q 18.703125 35 20.140625 37.296875 
Q 21.59375 39.59375 24 41 
Q 26.40625 42.40625 29.90625 42.40625 
Q 33.40625 42.40625 35.703125 41 
Q 38 39.59375 39.453125 37.34375 
Q 40.90625 35.09375 41.5 32.140625 
Q 42.09375 29.203125 42.09375 26 
z
M 42.296875 6.59375 
L 42.296875 0 
L 55.796875 0 
L 55.796875 71.40625 
L 41.59375 71.40625 
L 41.59375 45.40625 
L 41.40625 45.40625 
Q 39 49.203125 34.84375 51.140625 
Q 30.703125 53.09375 26.09375 53.09375 
Q 20.40625 53.09375 16.09375 50.84375 
Q 11.796875 48.59375 8.9375 44.890625 
Q 6.09375 41.203125 4.640625 36.34375 
Q 3.203125 31.5 3.203125 26.296875 
Q 3.203125 20.90625 4.640625 15.90625 
Q 6.09375 10.90625 8.9375 7.046875 
Q 11.796875 3.203125 16.1875 0.953125 
Q 20.59375 -1.296875 26.40625 -1.296875 
Q 31.5 -1.296875 35.546875 0.546875 
Q 39.59375 2.40625 42.09375 6.59375 
z
" id="HelveticaNeue-Bold-100"/>
    <path d="M 5.796875 51.703125 
L 5.796875 0 
L 20 0 
L 20 30 
Q 20 33.796875 21.09375 36.140625 
Q 22.203125 38.5 23.75 39.75 
Q 25.296875 41 26.9375 41.453125 
Q 28.59375 41.90625 29.59375 41.90625 
Q 33 41.90625 34.75 40.75 
Q 36.5 39.59375 37.25 37.6875 
Q 38 35.796875 38.09375 33.546875 
Q 38.203125 31.296875 38.203125 29 
L 38.203125 0 
L 52.40625 0 
L 52.40625 28.796875 
Q 52.40625 31.203125 52.75 33.546875 
Q 53.09375 35.90625 54.140625 37.75 
Q 55.203125 39.59375 57.046875 40.75 
Q 58.90625 41.90625 61.90625 41.90625 
Q 64.90625 41.90625 66.65625 40.90625 
Q 68.40625 39.90625 69.296875 38.203125 
Q 70.203125 36.5 70.390625 34.203125 
Q 70.59375 31.90625 70.59375 29.296875 
L 70.59375 0 
L 84.796875 0 
L 84.796875 34.59375 
Q 84.796875 39.59375 83.390625 43.140625 
Q 82 46.703125 79.5 48.890625 
Q 77 51.09375 73.5 52.09375 
Q 70 53.09375 65.90625 53.09375 
Q 60.5 53.09375 56.546875 50.5 
Q 52.59375 47.90625 50.296875 44.5 
Q 48.203125 49.296875 44.140625 51.1875 
Q 40.09375 53.09375 35.203125 53.09375 
Q 30.09375 53.09375 26.140625 50.890625 
Q 22.203125 48.703125 19.40625 44.703125 
L 19.203125 44.703125 
L 19.203125 51.703125 
z
" id="HelveticaNeue-Bold-109"/>
   </defs>
   <g transform="translate(137.306719 14.255313)scale(0.09 -0.09)">
    <use xlink:href="#HelveticaNeue-Bold-80"/>
    <use x="66.699997" xlink:href="#HelveticaNeue-Bold-111"/>
    <use x="127.799988" xlink:href="#HelveticaNeue-Bold-108"/>
    <use x="153.599976" xlink:href="#HelveticaNeue-Bold-97"/>
    <use x="210.999969" xlink:href="#HelveticaNeue-Bold-114"/>
    <use x="249.899963" xlink:href="#HelveticaNeue-Bold-32"/>
    <use x="277.699951" xlink:href="#HelveticaNeue-Bold-97"/>
    <use x="335.099945" xlink:href="#HelveticaNeue-Bold-120"/>
    <use x="388.799942" xlink:href="#HelveticaNeue-Bold-101"/>
    <use x="446.199936" xlink:href="#HelveticaNeue-Bold-115"/>
    <use x="499.899933" xlink:href="#HelveticaNeue-Bold-32"/>
    <use x="527.699921" xlink:href="#HelveticaNeue-Bold-100"/>
    <use x="588.799911" xlink:href="#HelveticaNeue-Bold-101"/>
    <use x="646.199905" xlink:href="#HelveticaNeue-Bold-109"/>
    <use x="736.799896" xlink:href="#HelveticaNeue-Bold-111"/>
   </g>
  </g>
 </g>
 <defs>
  <clipPath id="pc08fbe7692">
   <path d="M 163.8625 113.3 
C 163.8625 103.845047 162.00008 94.482031 158.381826 85.746793 
C 154.763572 77.011555 149.45985 69.073973 142.774188 62.388312 
C 136.088527 55.70265 128.150945 50.398928 119.415707 46.780674 
C 110.680469 43.16242 101.317453 41.3 91.8625 41.3 
C 82.407547 41.3 73.044531 43.16242 64.309293 46.780674 
C 55.574055 50.398928 47.636473 55.70265 40.950812 62.388312 
C 34.26515 69.073973 28.961428 77.011555 25.343174 85.746793 
C 21.72492 94.482031 19.8625 103.845047 19.8625 113.3 
C 19.8625 122.754953 21.72492 132.117969 25.343174 140.853207 
C 28.961428 149.588445 34.26515 157.526027 40.950812 164.211688 
C 47.636473 170.89735 55.574055 176.201072 64.309293 179.819326 
C 73.044531 183.43758 82.407547 185.3 91.8625 185.3 
C 101.317453 185.3 110.680469 183.43758 119.415707 179.819326 
C 128.150945 176.201072 136.088527 170.89735 142.774188 164.211688 
C 149.45985 157.526027 154.763572 149.588445 158.381826 140.853207 
C 162.00008 132.117969 163.8625 122.754953 163.8625 113.3 
M 91.8625 113.3 
C 91.8625 113.3 91.8625 113.3 91.8625 113.3 
C 91.8625 113.3 91.8625 113.3 91.8625 113.3 
C 91.8625 113.3 91.8625 113.3 91.8625 113.3 
C 91.8625 113.3 91.8625 113.3 91.8625 113.3 
C 91.8625 113.3 91.8625 113.3 91.8625 113.3 
C 91.8625 113.3 91.8625 113.3 91.8625 113.3 
C 91.8625 113.3 91.8625 113.3 91.8625 113.3 
C 91.8625 113.3 91.8625 113.3 91.8625 113.3 
C 91.8625 113.3 91.8625 113.3 91.8625 113.3 
C 91.8625 113.3 91.8625 113.3 91.8625 113.3 
C 91.8625 113.3 91.8625 113.3 91.8625 113.3 
C 91.8625 113.3 91.8625 113.3 91.8625 113.3 
C 91.8625 113.3 91.8625 113.3 91.8625 113.3 
C 91.8625 113.3 91.8625 113.3 91.8625 113.3 
C 91.8625 113.3 91.8625 113.3 91.8625 113.3 
C 91.8625 113.3 91.8625 113.3 91.8625 113.3 
M 163.8625 113.3 
z
"/>
  </clipPath>
  <clipPath id="p05bffb9e1b">
   <path d="M 326.5625 113.3 
C 326.5625 103.845047 324.70008 94.482031 321.081826 85.746793 
C 317.463572 77.011555 312.15985 69.073973 305.474188 62.388312 
C 298.788527 55.70265 290.850945 50.398928 282.115707 46.780674 
C 273.380469 43.16242 264.017453 41.3 254.5625 41.3 
C 245.107547 41.3 235.744531 43.16242 227.009293 46.780674 
C 218.274055 50.398928 210.336473 55.70265 203.650812 62.388312 
C 196.96515 69.073973 191.661428 77.011555 188.043174 85.746793 
C 184.42492 94.482031 182.5625 103.845047 182.5625 113.3 
C 182.5625 122.754953 184.42492 132.117969 188.043174 140.853207 
C 191.661428 149.588445 196.96515 157.526027 203.650812 164.211688 
C 210.336473 170.89735 218.274055 176.201072 227.009293 179.819326 
C 235.744531 183.43758 245.107547 185.3 254.5625 185.3 
C 264.017453 185.3 273.380469 183.43758 282.115707 179.819326 
C 290.850945 176.201072 298.788527 170.89735 305.474188 164.211688 
C 312.15985 157.526027 317.463572 149.588445 321.081826 140.853207 
C 324.70008 132.117969 326.5625 122.754953 326.5625 113.3 
M 254.5625 113.3 
C 254.5625 113.3 254.5625 113.3 254.5625 113.3 
C 254.5625 113.3 254.5625 113.3 254.5625 113.3 
C 254.5625 113.3 254.5625 113.3 254.5625 113.3 
C 254.5625 113.3 254.5625 113.3 254.5625 113.3 
C 254.5625 113.3 254.5625 113.3 254.5625 113.3 
C 254.5625 113.3 254.5625 113.3 254.5625 113.3 
C 254.5625 113.3 254.5625 113.3 254.5625 113.3 
C 254.5625 113.3 254.5625 113.3 254.5625 113.3 
C 254.5625 113.3 254.5625 113.3 254.5625 113.3 
C 254.5625 113.3 254.5625 113.3 254.5625 113.3 
C 254.5625 113.3 254.5625 113.3 254.5625 113.3 
C 254.5625 113.3 254.5625 113.3 254.5625 113.3 
C 254.5625 113.3 254.5625 113.3 254.5625 113.3 
C 254.5625 113.3 254.5625 113.3 254.5625 113.3 
C 254.5625 113.3 254.5625 113.3 254.5625 113.3 
C 254.5625 113.3 254.5625 113.3 254.5625 113.3 
M 326.5625 113.3 
z
"/>
  </clipPath>
 </defs>
</svg>
