<?xml version="1.0" encoding="utf-8" standalone="no"?>
<!DOCTYPE svg PUBLIC "-//W3C//DTD SVG 1.1//EN"
  "http://www.w3.org/Graphics/SVG/1.1/DTD/svg11.dtd">
<!-- Created with matplotlib (https://matplotlib.org/) -->
<svg height="325.3pt" version="1.1" viewBox="0 0 302.9 325.3" width="302.9pt" xmlns="http://www.w3.org/2000/svg" xmlns:xlink="http://www.w3.org/1999/xlink">
 <defs>
  <style type="text/css">
*{stroke-linecap:butt;stroke-linejoin:round;}
  </style>
 </defs>
 <g id="figure_1">
  <g id="patch_1">
   <path d="M 0 325.3 
L 302.8875 325.3 
L 302.8875 -0.041563 
L 0 -0.041563 
z
" style="fill:#f2f2f2;"/>
  </g>
  <g id="axes_1">
   <g id="patch_2">
    <path d="M 4 321.3 
L 292 321.3 
L 292 33.3 
L 4 33.3 
z
" style="fill:none;opacity:0;"/>
   </g>
   <g id="QuadMesh_1">
    <path clip-path="url(#p57a4fca9c2)" d="M 4 33.3 
L 32.8 33.3 
L 32.8 62.1 
L 4 62.1 
L 4 33.3 
" style="fill:#921519;stroke:#921519;stroke-width:0.4;"/>
    <path clip-path="url(#p57a4fca9c2)" d="M 32.8 33.3 
L 61.6 33.3 
L 61.6 62.1 
L 32.8 62.1 
L 32.8 33.3 
" style="fill:#6bb4e1;stroke:#6bb4e1;stroke-width:0.4;"/>
    <path clip-path="url(#p57a4fca9c2)" d="M 61.6 33.3 
L 90.4 33.3 
L 90.4 62.1 
L 61.6 62.1 
L 61.6 33.3 
" style="fill:#f2fafd;stroke:#f2fafd;stroke-width:0.4;"/>
    <path clip-path="url(#p57a4fca9c2)" d="M 90.4 33.3 
L 119.2 33.3 
L 119.2 62.1 
L 90.4 62.1 
L 90.4 33.3 
" style="fill:#2e68b0;stroke:#2e68b0;stroke-width:0.4;"/>
    <path clip-path="url(#p57a4fca9c2)" d="M 119.2 33.3 
L 148 33.3 
L 148 62.1 
L 119.2 62.1 
L 119.2 33.3 
" style="fill:#aee0f8;stroke:#aee0f8;stroke-width:0.4;"/>
    <path clip-path="url(#p57a4fca9c2)" d="M 148 33.3 
L 176.8 33.3 
L 176.8 62.1 
L 148 62.1 
L 148 33.3 
" style="fill:#fceb9c;stroke:#fceb9c;stroke-width:0.4;"/>
    <path clip-path="url(#p57a4fca9c2)" d="M 176.8 33.3 
L 205.6 33.3 
L 205.6 62.1 
L 176.8 62.1 
L 176.8 33.3 
" style="fill:#78bde6;stroke:#78bde6;stroke-width:0.4;"/>
    <path clip-path="url(#p57a4fca9c2)" d="M 205.6 33.3 
L 234.4 33.3 
L 234.4 62.1 
L 205.6 62.1 
L 205.6 33.3 
" style="fill:#de3728;stroke:#de3728;stroke-width:0.4;"/>
    <path clip-path="url(#p57a4fca9c2)" d="M 234.4 33.3 
L 263.2 33.3 
L 263.2 62.1 
L 234.4 62.1 
L 234.4 33.3 
" style="fill:#fdc85d;stroke:#fdc85d;stroke-width:0.4;"/>
    <path clip-path="url(#p57a4fca9c2)" d="M 263.2 33.3 
L 292 33.3 
L 292 62.1 
L 263.2 62.1 
L 263.2 33.3 
" style="fill:#b9e4f8;stroke:#b9e4f8;stroke-width:0.4;"/>
    <path clip-path="url(#p57a4fca9c2)" d="M 4 62.1 
L 32.8 62.1 
L 32.8 90.9 
L 4 90.9 
L 4 62.1 
" style="fill:none;"/>
    <path clip-path="url(#p57a4fca9c2)" d="M 32.8 62.1 
L 61.6 62.1 
L 61.6 90.9 
L 32.8 90.9 
L 32.8 62.1 
" style="fill:#921519;stroke:#921519;stroke-width:0.4;"/>
    <path clip-path="url(#p57a4fca9c2)" d="M 61.6 62.1 
L 90.4 62.1 
L 90.4 90.9 
L 61.6 90.9 
L 61.6 62.1 
" style="fill:#fdeeab;stroke:#fdeeab;stroke-width:0.4;"/>
    <path clip-path="url(#p57a4fca9c2)" d="M 90.4 62.1 
L 119.2 62.1 
L 119.2 90.9 
L 90.4 90.9 
L 90.4 62.1 
" style="fill:#f9882d;stroke:#f9882d;stroke-width:0.4;"/>
    <path clip-path="url(#p57a4fca9c2)" d="M 119.2 62.1 
L 148 62.1 
L 148 90.9 
L 119.2 90.9 
L 119.2 62.1 
" style="fill:#fda731;stroke:#fda731;stroke-width:0.4;"/>
    <path clip-path="url(#p57a4fca9c2)" d="M 148 62.1 
L 176.8 62.1 
L 176.8 90.9 
L 148 90.9 
L 148 62.1 
" style="fill:#eef8fd;stroke:#eef8fd;stroke-width:0.4;"/>
    <path clip-path="url(#p57a4fca9c2)" d="M 176.8 62.1 
L 205.6 62.1 
L 205.6 90.9 
L 176.8 90.9 
L 176.8 62.1 
" style="fill:#fdc85d;stroke:#fdc85d;stroke-width:0.4;"/>
    <path clip-path="url(#p57a4fca9c2)" d="M 205.6 62.1 
L 234.4 62.1 
L 234.4 90.9 
L 205.6 90.9 
L 205.6 62.1 
" style="fill:#8dcef0;stroke:#8dcef0;stroke-width:0.4;"/>
    <path clip-path="url(#p57a4fca9c2)" d="M 234.4 62.1 
L 263.2 62.1 
L 263.2 90.9 
L 234.4 90.9 
L 234.4 62.1 
" style="fill:#fef9e3;stroke:#fef9e3;stroke-width:0.4;"/>
    <path clip-path="url(#p57a4fca9c2)" d="M 263.2 62.1 
L 292 62.1 
L 292 90.9 
L 263.2 90.9 
L 263.2 62.1 
" style="fill:#e3f4fb;stroke:#e3f4fb;stroke-width:0.4;"/>
    <path clip-path="url(#p57a4fca9c2)" d="M 4 90.9 
L 32.8 90.9 
L 32.8 119.7 
L 4 119.7 
L 4 90.9 
" style="fill:none;"/>
    <path clip-path="url(#p57a4fca9c2)" d="M 32.8 90.9 
L 61.6 90.9 
L 61.6 119.7 
L 32.8 119.7 
L 32.8 90.9 
" style="fill:none;"/>
    <path clip-path="url(#p57a4fca9c2)" d="M 61.6 90.9 
L 90.4 90.9 
L 90.4 119.7 
L 61.6 119.7 
L 61.6 90.9 
" style="fill:#921519;stroke:#921519;stroke-width:0.4;"/>
    <path clip-path="url(#p57a4fca9c2)" d="M 90.4 90.9 
L 119.2 90.9 
L 119.2 119.7 
L 90.4 119.7 
L 90.4 90.9 
" style="fill:#f9882d;stroke:#f9882d;stroke-width:0.4;"/>
    <path clip-path="url(#p57a4fca9c2)" d="M 119.2 90.9 
L 148 90.9 
L 148 119.7 
L 119.2 119.7 
L 119.2 90.9 
" style="fill:#b91b22;stroke:#b91b22;stroke-width:0.4;"/>
    <path clip-path="url(#p57a4fca9c2)" d="M 148 90.9 
L 176.8 90.9 
L 176.8 119.7 
L 148 119.7 
L 148 90.9 
" style="fill:#b2e2f8;stroke:#b2e2f8;stroke-width:0.4;"/>
    <path clip-path="url(#p57a4fca9c2)" d="M 176.8 90.9 
L 205.6 90.9 
L 205.6 119.7 
L 176.8 119.7 
L 176.8 90.9 
" style="fill:#d11f27;stroke:#d11f27;stroke-width:0.4;"/>
    <path clip-path="url(#p57a4fca9c2)" d="M 205.6 90.9 
L 234.4 90.9 
L 234.4 119.7 
L 205.6 119.7 
L 205.6 90.9 
" style="fill:#85c7ec;stroke:#85c7ec;stroke-width:0.4;"/>
    <path clip-path="url(#p57a4fca9c2)" d="M 234.4 90.9 
L 263.2 90.9 
L 263.2 119.7 
L 234.4 119.7 
L 234.4 90.9 
" style="fill:#63addd;stroke:#63addd;stroke-width:0.4;"/>
    <path clip-path="url(#p57a4fca9c2)" d="M 263.2 90.9 
L 292 90.9 
L 292 119.7 
L 263.2 119.7 
L 263.2 90.9 
" style="fill:#326eb4;stroke:#326eb4;stroke-width:0.4;"/>
    <path clip-path="url(#p57a4fca9c2)" d="M 4 119.7 
L 32.8 119.7 
L 32.8 148.5 
L 4 148.5 
L 4 119.7 
" style="fill:none;"/>
    <path clip-path="url(#p57a4fca9c2)" d="M 32.8 119.7 
L 61.6 119.7 
L 61.6 148.5 
L 32.8 148.5 
L 32.8 119.7 
" style="fill:none;"/>
    <path clip-path="url(#p57a4fca9c2)" d="M 61.6 119.7 
L 90.4 119.7 
L 90.4 148.5 
L 61.6 148.5 
L 61.6 119.7 
" style="fill:none;"/>
    <path clip-path="url(#p57a4fca9c2)" d="M 90.4 119.7 
L 119.2 119.7 
L 119.2 148.5 
L 90.4 148.5 
L 90.4 119.7 
" style="fill:#921519;stroke:#921519;stroke-width:0.4;"/>
    <path clip-path="url(#p57a4fca9c2)" d="M 119.2 119.7 
L 148 119.7 
L 148 148.5 
L 119.2 148.5 
L 119.2 119.7 
" style="fill:#d72828;stroke:#d72828;stroke-width:0.4;"/>
    <path clip-path="url(#p57a4fca9c2)" d="M 148 119.7 
L 176.8 119.7 
L 176.8 148.5 
L 148 148.5 
L 148 119.7 
" style="fill:#4a91cc;stroke:#4a91cc;stroke-width:0.4;"/>
    <path clip-path="url(#p57a4fca9c2)" d="M 176.8 119.7 
L 205.6 119.7 
L 205.6 148.5 
L 176.8 148.5 
L 176.8 119.7 
" style="fill:#c01c24;stroke:#c01c24;stroke-width:0.4;"/>
    <path clip-path="url(#p57a4fca9c2)" d="M 205.6 119.7 
L 234.4 119.7 
L 234.4 148.5 
L 205.6 148.5 
L 205.6 119.7 
" style="fill:#1f4081;stroke:#1f4081;stroke-width:0.4;"/>
    <path clip-path="url(#p57a4fca9c2)" d="M 234.4 119.7 
L 263.2 119.7 
L 263.2 148.5 
L 234.4 148.5 
L 234.4 119.7 
" style="fill:#85c7ec;stroke:#85c7ec;stroke-width:0.4;"/>
    <path clip-path="url(#p57a4fca9c2)" d="M 263.2 119.7 
L 292 119.7 
L 292 148.5 
L 263.2 148.5 
L 263.2 119.7 
" style="fill:#aee0f8;stroke:#aee0f8;stroke-width:0.4;"/>
    <path clip-path="url(#p57a4fca9c2)" d="M 4 148.5 
L 32.8 148.5 
L 32.8 177.3 
L 4 177.3 
L 4 148.5 
" style="fill:none;"/>
    <path clip-path="url(#p57a4fca9c2)" d="M 32.8 148.5 
L 61.6 148.5 
L 61.6 177.3 
L 32.8 177.3 
L 32.8 148.5 
" style="fill:none;"/>
    <path clip-path="url(#p57a4fca9c2)" d="M 61.6 148.5 
L 90.4 148.5 
L 90.4 177.3 
L 61.6 177.3 
L 61.6 148.5 
" style="fill:none;"/>
    <path clip-path="url(#p57a4fca9c2)" d="M 90.4 148.5 
L 119.2 148.5 
L 119.2 177.3 
L 90.4 177.3 
L 90.4 148.5 
" style="fill:none;"/>
    <path clip-path="url(#p57a4fca9c2)" d="M 119.2 148.5 
L 148 148.5 
L 148 177.3 
L 119.2 177.3 
L 119.2 148.5 
" style="fill:#921519;stroke:#921519;stroke-width:0.4;"/>
    <path clip-path="url(#p57a4fca9c2)" d="M 148 148.5 
L 176.8 148.5 
L 176.8 177.3 
L 148 177.3 
L 148 148.5 
" style="fill:#78bde6;stroke:#78bde6;stroke-width:0.4;"/>
    <path clip-path="url(#p57a4fca9c2)" d="M 176.8 148.5 
L 205.6 148.5 
L 205.6 177.3 
L 176.8 177.3 
L 176.8 148.5 
" style="fill:#a6181d;stroke:#a6181d;stroke-width:0.4;"/>
    <path clip-path="url(#p57a4fca9c2)" d="M 205.6 148.5 
L 234.4 148.5 
L 234.4 177.3 
L 205.6 177.3 
L 205.6 148.5 
" style="fill:#3776b9;stroke:#3776b9;stroke-width:0.4;"/>
    <path clip-path="url(#p57a4fca9c2)" d="M 234.4 148.5 
L 263.2 148.5 
L 263.2 177.3 
L 234.4 177.3 
L 234.4 148.5 
" style="fill:#78bde6;stroke:#78bde6;stroke-width:0.4;"/>
    <path clip-path="url(#p57a4fca9c2)" d="M 263.2 148.5 
L 292 148.5 
L 292 177.3 
L 263.2 177.3 
L 263.2 148.5 
" style="fill:#3776b9;stroke:#3776b9;stroke-width:0.4;"/>
    <path clip-path="url(#p57a4fca9c2)" d="M 4 177.3 
L 32.8 177.3 
L 32.8 206.1 
L 4 206.1 
L 4 177.3 
" style="fill:none;"/>
    <path clip-path="url(#p57a4fca9c2)" d="M 32.8 177.3 
L 61.6 177.3 
L 61.6 206.1 
L 32.8 206.1 
L 32.8 177.3 
" style="fill:none;"/>
    <path clip-path="url(#p57a4fca9c2)" d="M 61.6 177.3 
L 90.4 177.3 
L 90.4 206.1 
L 61.6 206.1 
L 61.6 177.3 
" style="fill:none;"/>
    <path clip-path="url(#p57a4fca9c2)" d="M 90.4 177.3 
L 119.2 177.3 
L 119.2 206.1 
L 90.4 206.1 
L 90.4 177.3 
" style="fill:none;"/>
    <path clip-path="url(#p57a4fca9c2)" d="M 119.2 177.3 
L 148 177.3 
L 148 206.1 
L 119.2 206.1 
L 119.2 177.3 
" style="fill:none;"/>
    <path clip-path="url(#p57a4fca9c2)" d="M 148 177.3 
L 176.8 177.3 
L 176.8 206.1 
L 148 206.1 
L 148 177.3 
" style="fill:#921519;stroke:#921519;stroke-width:0.4;"/>
    <path clip-path="url(#p57a4fca9c2)" d="M 176.8 177.3 
L 205.6 177.3 
L 205.6 206.1 
L 176.8 206.1 
L 176.8 177.3 
" style="fill:#91d1f2;stroke:#91d1f2;stroke-width:0.4;"/>
    <path clip-path="url(#p57a4fca9c2)" d="M 205.6 177.3 
L 234.4 177.3 
L 234.4 206.1 
L 205.6 206.1 
L 205.6 177.3 
" style="fill:#fb962f;stroke:#fb962f;stroke-width:0.4;"/>
    <path clip-path="url(#p57a4fca9c2)" d="M 234.4 177.3 
L 263.2 177.3 
L 263.2 206.1 
L 234.4 206.1 
L 234.4 177.3 
" style="fill:#fda731;stroke:#fda731;stroke-width:0.4;"/>
    <path clip-path="url(#p57a4fca9c2)" d="M 263.2 177.3 
L 292 177.3 
L 292 206.1 
L 263.2 206.1 
L 263.2 177.3 
" style="fill:#f9882d;stroke:#f9882d;stroke-width:0.4;"/>
    <path clip-path="url(#p57a4fca9c2)" d="M 4 206.1 
L 32.8 206.1 
L 32.8 234.9 
L 4 234.9 
L 4 206.1 
" style="fill:none;"/>
    <path clip-path="url(#p57a4fca9c2)" d="M 32.8 206.1 
L 61.6 206.1 
L 61.6 234.9 
L 32.8 234.9 
L 32.8 206.1 
" style="fill:none;"/>
    <path clip-path="url(#p57a4fca9c2)" d="M 61.6 206.1 
L 90.4 206.1 
L 90.4 234.9 
L 61.6 234.9 
L 61.6 206.1 
" style="fill:none;"/>
    <path clip-path="url(#p57a4fca9c2)" d="M 90.4 206.1 
L 119.2 206.1 
L 119.2 234.9 
L 90.4 234.9 
L 90.4 206.1 
" style="fill:none;"/>
    <path clip-path="url(#p57a4fca9c2)" d="M 119.2 206.1 
L 148 206.1 
L 148 234.9 
L 119.2 234.9 
L 119.2 206.1 
" style="fill:none;"/>
    <path clip-path="url(#p57a4fca9c2)" d="M 148 206.1 
L 176.8 206.1 
L 176.8 234.9 
L 148 234.9 
L 148 206.1 
" style="fill:none;"/>
    <path clip-path="url(#p57a4fca9c2)" d="M 176.8 206.1 
L 205.6 206.1 
L 205.6 234.9 
L 176.8 234.9 
L 176.8 206.1 
" style="fill:#921519;stroke:#921519;stroke-width:0.4;"/>
    <path clip-path="url(#p57a4fca9c2)" d="M 205.6 206.1 
L 234.4 206.1 
L 234.4 234.9 
L 205.6 234.9 
L 205.6 206.1 
" style="fill:#214a90;stroke:#214a90;stroke-width:0.4;"/>
    <path clip-path="url(#p57a4fca9c2)" d="M 234.4 206.1 
L 263.2 206.1 
L 263.2 234.9 
L 234.4 234.9 
L 234.4 206.1 
" style="fill:#55a2d6;stroke:#55a2d6;stroke-width:0.4;"/>
    <path clip-path="url(#p57a4fca9c2)" d="M 263.2 206.1 
L 292 206.1 
L 292 234.9 
L 263.2 234.9 
L 263.2 206.1 
" style="fill:#6bb4e1;stroke:#6bb4e1;stroke-width:0.4;"/>
    <path clip-path="url(#p57a4fca9c2)" d="M 4 234.9 
L 32.8 234.9 
L 32.8 263.7 
L 4 263.7 
L 4 234.9 
" style="fill:none;"/>
    <path clip-path="url(#p57a4fca9c2)" d="M 32.8 234.9 
L 61.6 234.9 
L 61.6 263.7 
L 32.8 263.7 
L 32.8 234.9 
" style="fill:none;"/>
    <path clip-path="url(#p57a4fca9c2)" d="M 61.6 234.9 
L 90.4 234.9 
L 90.4 263.7 
L 61.6 263.7 
L 61.6 234.9 
" style="fill:none;"/>
    <path clip-path="url(#p57a4fca9c2)" d="M 90.4 234.9 
L 119.2 234.9 
L 119.2 263.7 
L 90.4 263.7 
L 90.4 234.9 
" style="fill:none;"/>
    <path clip-path="url(#p57a4fca9c2)" d="M 119.2 234.9 
L 148 234.9 
L 148 263.7 
L 119.2 263.7 
L 119.2 234.9 
" style="fill:none;"/>
    <path clip-path="url(#p57a4fca9c2)" d="M 148 234.9 
L 176.8 234.9 
L 176.8 263.7 
L 148 263.7 
L 148 234.9 
" style="fill:none;"/>
    <path clip-path="url(#p57a4fca9c2)" d="M 176.8 234.9 
L 205.6 234.9 
L 205.6 263.7 
L 176.8 263.7 
L 176.8 234.9 
" style="fill:none;"/>
    <path clip-path="url(#p57a4fca9c2)" d="M 205.6 234.9 
L 234.4 234.9 
L 234.4 263.7 
L 205.6 263.7 
L 205.6 234.9 
" style="fill:#921519;stroke:#921519;stroke-width:0.4;"/>
    <path clip-path="url(#p57a4fca9c2)" d="M 234.4 234.9 
L 263.2 234.9 
L 263.2 263.7 
L 234.4 263.7 
L 234.4 234.9 
" style="fill:#e84d29;stroke:#e84d29;stroke-width:0.4;"/>
    <path clip-path="url(#p57a4fca9c2)" d="M 263.2 234.9 
L 292 234.9 
L 292 263.7 
L 263.2 263.7 
L 263.2 234.9 
" style="fill:#fdd575;stroke:#fdd575;stroke-width:0.4;"/>
    <path clip-path="url(#p57a4fca9c2)" d="M 4 263.7 
L 32.8 263.7 
L 32.8 292.5 
L 4 292.5 
L 4 263.7 
" style="fill:none;"/>
    <path clip-path="url(#p57a4fca9c2)" d="M 32.8 263.7 
L 61.6 263.7 
L 61.6 292.5 
L 32.8 292.5 
L 32.8 263.7 
" style="fill:none;"/>
    <path clip-path="url(#p57a4fca9c2)" d="M 61.6 263.7 
L 90.4 263.7 
L 90.4 292.5 
L 61.6 292.5 
L 61.6 263.7 
" style="fill:none;"/>
    <path clip-path="url(#p57a4fca9c2)" d="M 90.4 263.7 
L 119.2 263.7 
L 119.2 292.5 
L 90.4 292.5 
L 90.4 263.7 
" style="fill:none;"/>
    <path clip-path="url(#p57a4fca9c2)" d="M 119.2 263.7 
L 148 263.7 
L 148 292.5 
L 119.2 292.5 
L 119.2 263.7 
" style="fill:none;"/>
    <path clip-path="url(#p57a4fca9c2)" d="M 148 263.7 
L 176.8 263.7 
L 176.8 292.5 
L 148 292.5 
L 148 263.7 
" style="fill:none;"/>
    <path clip-path="url(#p57a4fca9c2)" d="M 176.8 263.7 
L 205.6 263.7 
L 205.6 292.5 
L 176.8 292.5 
L 176.8 263.7 
" style="fill:none;"/>
    <path clip-path="url(#p57a4fca9c2)" d="M 205.6 263.7 
L 234.4 263.7 
L 234.4 292.5 
L 205.6 292.5 
L 205.6 263.7 
" style="fill:none;"/>
    <path clip-path="url(#p57a4fca9c2)" d="M 234.4 263.7 
L 263.2 263.7 
L 263.2 292.5 
L 234.4 292.5 
L 234.4 263.7 
" style="fill:#921519;stroke:#921519;stroke-width:0.4;"/>
    <path clip-path="url(#p57a4fca9c2)" d="M 263.2 263.7 
L 292 263.7 
L 292 292.5 
L 263.2 292.5 
L 263.2 263.7 
" style="fill:#fdc455;stroke:#fdc455;stroke-width:0.4;"/>
    <path clip-path="url(#p57a4fca9c2)" d="M 4 292.5 
L 32.8 292.5 
L 32.8 321.3 
L 4 321.3 
L 4 292.5 
" style="fill:none;"/>
    <path clip-path="url(#p57a4fca9c2)" d="M 32.8 292.5 
L 61.6 292.5 
L 61.6 321.3 
L 32.8 321.3 
L 32.8 292.5 
" style="fill:none;"/>
    <path clip-path="url(#p57a4fca9c2)" d="M 61.6 292.5 
L 90.4 292.5 
L 90.4 321.3 
L 61.6 321.3 
L 61.6 292.5 
" style="fill:none;"/>
    <path clip-path="url(#p57a4fca9c2)" d="M 90.4 292.5 
L 119.2 292.5 
L 119.2 321.3 
L 90.4 321.3 
L 90.4 292.5 
" style="fill:none;"/>
    <path clip-path="url(#p57a4fca9c2)" d="M 119.2 292.5 
L 148 292.5 
L 148 321.3 
L 119.2 321.3 
L 119.2 292.5 
" style="fill:none;"/>
    <path clip-path="url(#p57a4fca9c2)" d="M 148 292.5 
L 176.8 292.5 
L 176.8 321.3 
L 148 321.3 
L 148 292.5 
" style="fill:none;"/>
    <path clip-path="url(#p57a4fca9c2)" d="M 176.8 292.5 
L 205.6 292.5 
L 205.6 321.3 
L 176.8 321.3 
L 176.8 292.5 
" style="fill:none;"/>
    <path clip-path="url(#p57a4fca9c2)" d="M 205.6 292.5 
L 234.4 292.5 
L 234.4 321.3 
L 205.6 321.3 
L 205.6 292.5 
" style="fill:none;"/>
    <path clip-path="url(#p57a4fca9c2)" d="M 234.4 292.5 
L 263.2 292.5 
L 263.2 321.3 
L 234.4 321.3 
L 234.4 292.5 
" style="fill:none;"/>
    <path clip-path="url(#p57a4fca9c2)" d="M 263.2 292.5 
L 292 292.5 
L 292 321.3 
L 263.2 321.3 
L 263.2 292.5 
" style="fill:#921519;stroke:#921519;stroke-width:0.4;"/>
   </g>
   <g id="matplotlib.axis_1">
    <g id="xtick_1">
     <g id="line2d_1"/>
     <g id="text_1">
      <!-- a -->
      <defs>
       <path d="M 4.796875 35.796875 
Q 5.09375 40.796875 7.296875 44.09375 
Q 9.5 47.40625 12.890625 49.40625 
Q 16.296875 51.40625 20.546875 52.25 
Q 24.796875 53.09375 29.09375 53.09375 
Q 33 53.09375 37 52.546875 
Q 41 52 44.296875 50.390625 
Q 47.59375 48.796875 49.6875 45.9375 
Q 51.796875 43.09375 51.796875 38.40625 
L 51.796875 11.5 
Q 51.796875 8 52.1875 4.796875 
Q 52.59375 1.59375 53.59375 0 
L 39.203125 0 
Q 38.796875 1.203125 38.546875 2.453125 
Q 38.296875 3.703125 38.203125 5 
Q 34.796875 1.5 30.1875 0.09375 
Q 25.59375 -1.296875 20.796875 -1.296875 
Q 17.09375 -1.296875 13.890625 -0.390625 
Q 10.703125 0.5 8.296875 2.390625 
Q 5.90625 4.296875 4.546875 7.1875 
Q 3.203125 10.09375 3.203125 14.09375 
Q 3.203125 18.5 4.75 21.34375 
Q 6.296875 24.203125 8.75 25.890625 
Q 11.203125 27.59375 14.34375 28.4375 
Q 17.5 29.296875 20.703125 29.796875 
Q 23.90625 30.296875 27 30.59375 
Q 30.09375 30.90625 32.5 31.5 
Q 34.90625 32.09375 36.296875 33.25 
Q 37.703125 34.40625 37.59375 36.59375 
Q 37.59375 38.90625 36.84375 40.25 
Q 36.09375 41.59375 34.84375 42.34375 
Q 33.59375 43.09375 31.9375 43.34375 
Q 30.296875 43.59375 28.40625 43.59375 
Q 24.203125 43.59375 21.796875 41.796875 
Q 19.40625 40 19 35.796875 
z
M 37.59375 25.296875 
Q 36.703125 24.5 35.34375 24.046875 
Q 34 23.59375 32.453125 23.296875 
Q 30.90625 23 29.203125 22.796875 
Q 27.5 22.59375 25.796875 22.296875 
Q 24.203125 22 22.640625 21.5 
Q 21.09375 21 19.9375 20.140625 
Q 18.796875 19.296875 18.09375 18 
Q 17.40625 16.703125 17.40625 14.703125 
Q 17.40625 12.796875 18.09375 11.5 
Q 18.796875 10.203125 20 9.453125 
Q 21.203125 8.703125 22.796875 8.390625 
Q 24.40625 8.09375 26.09375 8.09375 
Q 30.296875 8.09375 32.59375 9.5 
Q 34.90625 10.90625 36 12.84375 
Q 37.09375 14.796875 37.34375 16.796875 
Q 37.59375 18.796875 37.59375 20 
z
" id="HelveticaNeue-Bold-97"/>
      </defs>
      <g transform="translate(16.10375 29.8525)scale(0.08 -0.08)">
       <use xlink:href="#HelveticaNeue-Bold-97"/>
      </g>
     </g>
    </g>
    <g id="xtick_2">
     <g id="line2d_2"/>
     <g id="text_2">
      <!-- b -->
      <defs>
       <path d="M 43.296875 25.796875 
Q 43.296875 22.59375 42.59375 19.59375 
Q 41.90625 16.59375 40.40625 14.296875 
Q 38.90625 12 36.65625 10.640625 
Q 34.40625 9.296875 31.203125 9.296875 
Q 28.09375 9.296875 25.796875 10.640625 
Q 23.5 12 22 14.296875 
Q 20.5 16.59375 19.796875 19.59375 
Q 19.09375 22.59375 19.09375 25.796875 
Q 19.09375 29.09375 19.796875 32.09375 
Q 20.5 35.09375 22 37.390625 
Q 23.5 39.703125 25.796875 41.046875 
Q 28.09375 42.40625 31.203125 42.40625 
Q 34.40625 42.40625 36.65625 41.046875 
Q 38.90625 39.703125 40.40625 37.390625 
Q 41.90625 35.09375 42.59375 32.09375 
Q 43.296875 29.09375 43.296875 25.796875 
z
M 5.40625 71.40625 
L 5.40625 0 
L 18.90625 0 
L 18.90625 6.59375 
L 19.09375 6.59375 
Q 21.40625 2.296875 25.90625 0.5 
Q 30.40625 -1.296875 36.09375 -1.296875 
Q 40 -1.296875 43.796875 0.296875 
Q 47.59375 1.90625 50.640625 5.203125 
Q 53.703125 8.5 55.59375 13.640625 
Q 57.5 18.796875 57.5 25.90625 
Q 57.5 33 55.59375 38.140625 
Q 53.703125 43.296875 50.640625 46.59375 
Q 47.59375 49.90625 43.796875 51.5 
Q 40 53.09375 36.09375 53.09375 
Q 31.296875 53.09375 26.84375 51.25 
Q 22.40625 49.40625 19.796875 45.40625 
L 19.59375 45.40625 
L 19.59375 71.40625 
z
" id="HelveticaNeue-Bold-98"/>
      </defs>
      <g transform="translate(44.75625 29.8525)scale(0.08 -0.08)">
       <use xlink:href="#HelveticaNeue-Bold-98"/>
      </g>
     </g>
    </g>
    <g id="xtick_3">
     <g id="line2d_3"/>
     <g id="text_3">
      <!-- c -->
      <defs>
       <path d="M 40.59375 33.5 
L 54.5 33.5 
Q 54.203125 38.5 52.09375 42.140625 
Q 50 45.796875 46.640625 48.25 
Q 43.296875 50.703125 39.046875 51.890625 
Q 34.796875 53.09375 30.203125 53.09375 
Q 23.90625 53.09375 19 51 
Q 14.09375 48.90625 10.6875 45.15625 
Q 7.296875 41.40625 5.546875 36.25 
Q 3.796875 31.09375 3.796875 25.09375 
Q 3.796875 19.296875 5.6875 14.4375 
Q 7.59375 9.59375 11 6.09375 
Q 14.40625 2.59375 19.25 0.640625 
Q 24.09375 -1.296875 29.90625 -1.296875 
Q 40.203125 -1.296875 46.796875 4.09375 
Q 53.40625 9.5 54.796875 19.796875 
L 41.09375 19.796875 
Q 40.40625 15 37.65625 12.140625 
Q 34.90625 9.296875 29.796875 9.296875 
Q 26.5 9.296875 24.203125 10.796875 
Q 21.90625 12.296875 20.546875 14.640625 
Q 19.203125 17 18.59375 19.890625 
Q 18 22.796875 18 25.59375 
Q 18 28.5 18.59375 31.453125 
Q 19.203125 34.40625 20.640625 36.84375 
Q 22.09375 39.296875 24.390625 40.84375 
Q 26.703125 42.40625 30.09375 42.40625 
Q 39.203125 42.40625 40.59375 33.5 
z
" id="HelveticaNeue-Bold-99"/>
      </defs>
      <g transform="translate(73.70375 29.8525)scale(0.08 -0.08)">
       <use xlink:href="#HelveticaNeue-Bold-99"/>
      </g>
     </g>
    </g>
    <g id="xtick_4">
     <g id="line2d_4"/>
     <g id="text_4">
      <!-- d -->
      <defs>
       <path d="M 42.09375 26 
Q 42.09375 22.796875 41.5 19.796875 
Q 40.90625 16.796875 39.5 14.4375 
Q 38.09375 12.09375 35.75 10.6875 
Q 33.40625 9.296875 29.90625 9.296875 
Q 26.59375 9.296875 24.25 10.75 
Q 21.90625 12.203125 20.34375 14.546875 
Q 18.796875 16.90625 18.09375 19.90625 
Q 17.40625 22.90625 17.40625 25.90625 
Q 17.40625 29.09375 18.046875 32.046875 
Q 18.703125 35 20.140625 37.296875 
Q 21.59375 39.59375 24 41 
Q 26.40625 42.40625 29.90625 42.40625 
Q 33.40625 42.40625 35.703125 41 
Q 38 39.59375 39.453125 37.34375 
Q 40.90625 35.09375 41.5 32.140625 
Q 42.09375 29.203125 42.09375 26 
z
M 42.296875 6.59375 
L 42.296875 0 
L 55.796875 0 
L 55.796875 71.40625 
L 41.59375 71.40625 
L 41.59375 45.40625 
L 41.40625 45.40625 
Q 39 49.203125 34.84375 51.140625 
Q 30.703125 53.09375 26.09375 53.09375 
Q 20.40625 53.09375 16.09375 50.84375 
Q 11.796875 48.59375 8.9375 44.890625 
Q 6.09375 41.203125 4.640625 36.34375 
Q 3.203125 31.5 3.203125 26.296875 
Q 3.203125 20.90625 4.640625 15.90625 
Q 6.09375 10.90625 8.9375 7.046875 
Q 11.796875 3.203125 16.1875 0.953125 
Q 20.59375 -1.296875 26.40625 -1.296875 
Q 31.5 -1.296875 35.546875 0.546875 
Q 39.59375 2.40625 42.09375 6.59375 
z
" id="HelveticaNeue-Bold-100"/>
      </defs>
      <g transform="translate(102.35625 29.8525)scale(0.08 -0.08)">
       <use xlink:href="#HelveticaNeue-Bold-100"/>
      </g>
     </g>
    </g>
    <g id="xtick_5">
     <g id="line2d_5"/>
     <g id="text_5">
      <!-- e -->
      <defs>
       <path d="M 40.203125 31.40625 
L 17.09375 31.40625 
Q 17.203125 32.90625 17.75 34.796875 
Q 18.296875 36.703125 19.640625 38.390625 
Q 21 40.09375 23.25 41.25 
Q 25.5 42.40625 28.90625 42.40625 
Q 34.09375 42.40625 36.640625 39.59375 
Q 39.203125 36.796875 40.203125 31.40625 
z
M 17.09375 22.40625 
L 54.40625 22.40625 
Q 54.796875 28.40625 53.390625 33.90625 
Q 52 39.40625 48.84375 43.703125 
Q 45.703125 48 40.796875 50.546875 
Q 35.90625 53.09375 29.296875 53.09375 
Q 23.40625 53.09375 18.546875 51 
Q 13.703125 48.90625 10.203125 45.25 
Q 6.703125 41.59375 4.796875 36.59375 
Q 2.90625 31.59375 2.90625 25.796875 
Q 2.90625 19.796875 4.75 14.796875 
Q 6.59375 9.796875 10 6.1875 
Q 13.40625 2.59375 18.296875 0.640625 
Q 23.203125 -1.296875 29.296875 -1.296875 
Q 38.09375 -1.296875 44.296875 2.703125 
Q 50.5 6.703125 53.5 16 
L 41 16 
Q 40.296875 13.59375 37.1875 11.4375 
Q 34.09375 9.296875 29.796875 9.296875 
Q 23.796875 9.296875 20.59375 12.390625 
Q 17.40625 15.5 17.09375 22.40625 
z
" id="HelveticaNeue-Bold-101"/>
      </defs>
      <g transform="translate(131.30375 29.8525)scale(0.08 -0.08)">
       <use xlink:href="#HelveticaNeue-Bold-101"/>
      </g>
     </g>
    </g>
    <g id="xtick_6">
     <g id="line2d_6"/>
     <g id="text_6">
      <!-- f -->
      <defs>
       <path d="M 8.5 42.203125 
L 8.5 0 
L 22.703125 0 
L 22.703125 42.203125 
L 32.5 42.203125 
L 32.5 51.703125 
L 22.703125 51.703125 
L 22.703125 54.796875 
Q 22.703125 58 23.953125 59.34375 
Q 25.203125 60.703125 28.09375 60.703125 
Q 30.796875 60.703125 33.296875 60.40625 
L 33.296875 71 
Q 31.5 71.09375 29.59375 71.25 
Q 27.703125 71.40625 25.796875 71.40625 
Q 17.09375 71.40625 12.796875 67 
Q 8.5 62.59375 8.5 55.703125 
L 8.5 51.703125 
L 0 51.703125 
L 0 42.203125 
z
" id="HelveticaNeue-Bold-102"/>
      </defs>
      <g transform="translate(161.068125 29.8525)scale(0.08 -0.08)">
       <use xlink:href="#HelveticaNeue-Bold-102"/>
      </g>
     </g>
    </g>
    <g id="xtick_7">
     <g id="line2d_7"/>
     <g id="text_7">
      <!-- g -->
      <defs>
       <path d="M 29.5 12.203125 
Q 26.203125 12.203125 24 13.59375 
Q 21.796875 15 20.4375 17.203125 
Q 19.09375 19.40625 18.546875 22.15625 
Q 18 24.90625 18 27.703125 
Q 18 30.59375 18.640625 33.25 
Q 19.296875 35.90625 20.75 37.953125 
Q 22.203125 40 24.34375 41.203125 
Q 26.5 42.40625 29.5 42.40625 
Q 33 42.40625 35.296875 41.09375 
Q 37.59375 39.796875 39 37.59375 
Q 40.40625 35.40625 41 32.546875 
Q 41.59375 29.703125 41.59375 26.5 
Q 41.59375 23.703125 40.84375 21.140625 
Q 40.09375 18.59375 38.59375 16.59375 
Q 37.09375 14.59375 34.796875 13.390625 
Q 32.5 12.203125 29.5 12.203125 
z
M 55.09375 3.296875 
L 55.09375 51.703125 
L 41.59375 51.703125 
L 41.59375 44.796875 
L 41.40625 44.796875 
Q 38.796875 49.296875 34.9375 51.1875 
Q 31.09375 53.09375 26 53.09375 
Q 20.59375 53.09375 16.4375 51 
Q 12.296875 48.90625 9.5 45.34375 
Q 6.703125 41.796875 5.25 37.140625 
Q 3.796875 32.5 3.796875 27.5 
Q 3.796875 22.203125 5.046875 17.453125 
Q 6.296875 12.703125 9 9.140625 
Q 11.703125 5.59375 15.890625 3.546875 
Q 20.09375 1.5 25.90625 1.5 
Q 30.59375 1.5 34.84375 3.453125 
Q 39.09375 5.40625 41.40625 9.5 
L 41.59375 9.5 
L 41.59375 2.703125 
Q 41.703125 -2.796875 38.953125 -6.390625 
Q 36.203125 -10 30.203125 -10 
Q 26.40625 -10 23.5 -8.453125 
Q 20.59375 -6.90625 19.59375 -2.90625 
L 5.5 -2.90625 
Q 5.796875 -7.296875 7.9375 -10.4375 
Q 10.09375 -13.59375 13.34375 -15.59375 
Q 16.59375 -17.59375 20.546875 -18.546875 
Q 24.5 -19.5 28.296875 -19.5 
Q 37.203125 -19.5 42.5 -17.09375 
Q 47.796875 -14.703125 50.59375 -11.25 
Q 53.40625 -7.796875 54.25 -3.796875 
Q 55.09375 0.203125 55.09375 3.296875 
z
" id="HelveticaNeue-Bold-103"/>
      </defs>
      <g transform="translate(188.75625 29.74)scale(0.08 -0.08)">
       <use xlink:href="#HelveticaNeue-Bold-103"/>
      </g>
     </g>
    </g>
    <g id="xtick_8">
     <g id="line2d_8"/>
     <g id="text_8">
      <!-- h -->
      <defs>
       <path d="M 5.40625 71.40625 
L 5.40625 0 
L 19.59375 0 
L 19.59375 27.09375 
Q 19.59375 35 22.1875 38.453125 
Q 24.796875 41.90625 30.59375 41.90625 
Q 35.703125 41.90625 37.703125 38.75 
Q 39.703125 35.59375 39.703125 29.203125 
L 39.703125 0 
L 53.90625 0 
L 53.90625 31.796875 
Q 53.90625 36.59375 53.046875 40.546875 
Q 52.203125 44.5 50.09375 47.25 
Q 48 50 44.34375 51.546875 
Q 40.703125 53.09375 35 53.09375 
Q 31 53.09375 26.796875 51.046875 
Q 22.59375 49 19.90625 44.5 
L 19.59375 44.5 
L 19.59375 71.40625 
z
" id="HelveticaNeue-Bold-104"/>
      </defs>
      <g transform="translate(217.628125 29.8525)scale(0.08 -0.08)">
       <use xlink:href="#HelveticaNeue-Bold-104"/>
      </g>
     </g>
    </g>
    <g id="xtick_9">
     <g id="line2d_9"/>
     <g id="text_9">
      <!-- i -->
      <defs>
       <path d="M 20 59.703125 
L 20 71.40625 
L 5.796875 71.40625 
L 5.796875 59.703125 
z
M 5.796875 51.703125 
L 5.796875 0 
L 20 0 
L 20 51.703125 
z
" id="HelveticaNeue-Bold-105"/>
      </defs>
      <g transform="translate(247.768125 29.8525)scale(0.08 -0.08)">
       <use xlink:href="#HelveticaNeue-Bold-105"/>
      </g>
     </g>
    </g>
    <g id="xtick_10">
     <g id="line2d_10"/>
     <g id="text_10">
      <!-- j -->
      <defs>
       <path d="M 20.90625 59.703125 
L 20.90625 71.40625 
L 6.703125 71.40625 
L 6.703125 59.703125 
z
M -1.796875 -6 
L -1.796875 -17.703125 
Q 0.203125 -18.09375 2.703125 -18.09375 
Q 8.09375 -18.09375 11.59375 -17.140625 
Q 15.09375 -16.203125 17.140625 -14.25 
Q 19.203125 -12.296875 20.046875 -9.390625 
Q 20.90625 -6.5 20.90625 -2.5 
L 20.90625 51.703125 
L 6.703125 51.703125 
L 6.703125 -1.796875 
Q 6.703125 -4.703125 5.046875 -5.546875 
Q 3.40625 -6.40625 1.203125 -6.40625 
Q -0.703125 -6.40625 -1.796875 -6 
z
" id="HelveticaNeue-Bold-106"/>
      </defs>
      <g transform="translate(276.488125 29.8525)scale(0.08 -0.08)">
       <use xlink:href="#HelveticaNeue-Bold-106"/>
      </g>
     </g>
    </g>
   </g>
   <g id="matplotlib.axis_2">
    <g id="ytick_1">
     <g id="line2d_11"/>
     <g id="text_11">
      <!-- a -->
      <g transform="translate(294 50.55625)scale(0.08 -0.08)">
       <use xlink:href="#HelveticaNeue-Bold-97"/>
      </g>
     </g>
    </g>
    <g id="ytick_2">
     <g id="line2d_12"/>
     <g id="text_12">
      <!-- b -->
      <g transform="translate(294 79.35625)scale(0.08 -0.08)">
       <use xlink:href="#HelveticaNeue-Bold-98"/>
      </g>
     </g>
    </g>
    <g id="ytick_3">
     <g id="line2d_13"/>
     <g id="text_13">
      <!-- c -->
      <g transform="translate(294 108.15625)scale(0.08 -0.08)">
       <use xlink:href="#HelveticaNeue-Bold-99"/>
      </g>
     </g>
    </g>
    <g id="ytick_4">
     <g id="line2d_14"/>
     <g id="text_14">
      <!-- d -->
      <g transform="translate(294 136.95625)scale(0.08 -0.08)">
       <use xlink:href="#HelveticaNeue-Bold-100"/>
      </g>
     </g>
    </g>
    <g id="ytick_5">
     <g id="line2d_15"/>
     <g id="text_15">
      <!-- e -->
      <g transform="translate(294 165.75625)scale(0.08 -0.08)">
       <use xlink:href="#HelveticaNeue-Bold-101"/>
      </g>
     </g>
    </g>
    <g id="ytick_6">
     <g id="line2d_16"/>
     <g id="text_16">
      <!-- f -->
      <g transform="translate(294 194.55625)scale(0.08 -0.08)">
       <use xlink:href="#HelveticaNeue-Bold-102"/>
      </g>
     </g>
    </g>
    <g id="ytick_7">
     <g id="line2d_17"/>
     <g id="text_17">
      <!-- g -->
      <g transform="translate(294 223.3)scale(0.08 -0.08)">
       <use xlink:href="#HelveticaNeue-Bold-103"/>
      </g>
     </g>
    </g>
    <g id="ytick_8">
     <g id="line2d_18"/>
     <g id="text_18">
      <!-- h -->
      <g transform="translate(294 252.15625)scale(0.08 -0.08)">
       <use xlink:href="#HelveticaNeue-Bold-104"/>
      </g>
     </g>
    </g>
    <g id="ytick_9">
     <g id="line2d_19"/>
     <g id="text_19">
      <!-- i -->
      <g transform="translate(294 280.95625)scale(0.08 -0.08)">
       <use xlink:href="#HelveticaNeue-Bold-105"/>
      </g>
     </g>
    </g>
    <g id="ytick_10">
     <g id="line2d_20"/>
     <g id="text_20">
      <!-- j -->
      <g transform="translate(294 309.75625)scale(0.08 -0.08)">
       <use xlink:href="#HelveticaNeue-Bold-106"/>
      </g>
     </g>
    </g>
   </g>
   <g id="patch_3">
    <path d="M 292 321.3 
L 292 33.3 
" style="fill:none;"/>
   </g>
   <g id="patch_4">
    <path d="M 4 33.3 
L 292 33.3 
" style="fill:none;"/>
   </g>
   <g id="text_21">
    <!-- 1 -->
    <defs>
     <path d="M 39.203125 0 
L 39.203125 70 
L 27.90625 70 
Q 27.296875 66 25.390625 63.296875 
Q 23.5 60.59375 20.75 58.9375 
Q 18 57.296875 14.546875 56.640625 
Q 11.09375 56 7.40625 56.09375 
L 7.40625 45.40625 
L 25 45.40625 
L 25 0 
z
" id="HelveticaNeue-Bold-49"/>
    </defs>
    <g style="fill:#ffffff;" transform="translate(16.17625 49.8325)scale(0.08 -0.08)">
     <use xlink:href="#HelveticaNeue-Bold-49"/>
    </g>
   </g>
   <g id="text_22">
    <!-- −0.54 -->
    <defs>
     <path d="M 4.796875 30.59375 
L 4.796875 19.90625 
L 55.296875 19.90625 
L 55.296875 30.59375 
z
" id="HelveticaNeue-Bold-8722"/>
     <path d="M 16.296875 35.296875 
Q 16.296875 37.09375 16.34375 39.640625 
Q 16.40625 42.203125 16.703125 44.890625 
Q 17 47.59375 17.703125 50.25 
Q 18.40625 52.90625 19.65625 55 
Q 20.90625 57.09375 22.84375 58.390625 
Q 24.796875 59.703125 27.703125 59.703125 
Q 30.59375 59.703125 32.59375 58.390625 
Q 34.59375 57.09375 35.890625 55 
Q 37.203125 52.90625 37.84375 50.25 
Q 38.5 47.59375 38.84375 44.890625 
Q 39.203125 42.203125 39.25 39.640625 
Q 39.296875 37.09375 39.296875 35.296875 
Q 39.296875 32.296875 39.09375 28.046875 
Q 38.90625 23.796875 37.84375 19.84375 
Q 36.796875 15.90625 34.4375 13.09375 
Q 32.09375 10.296875 27.703125 10.296875 
Q 23.40625 10.296875 21.09375 13.09375 
Q 18.796875 15.90625 17.75 19.84375 
Q 16.703125 23.796875 16.5 28.046875 
Q 16.296875 32.296875 16.296875 35.296875 
z
M 2.09375 35.296875 
Q 2.09375 24.796875 4.140625 17.75 
Q 6.203125 10.703125 9.703125 6.5 
Q 13.203125 2.296875 17.84375 0.5 
Q 22.5 -1.296875 27.703125 -1.296875 
Q 33 -1.296875 37.640625 0.5 
Q 42.296875 2.296875 45.84375 6.5 
Q 49.40625 10.703125 51.453125 17.75 
Q 53.5 24.796875 53.5 35.296875 
Q 53.5 45.5 51.453125 52.453125 
Q 49.40625 59.40625 45.84375 63.59375 
Q 42.296875 67.796875 37.640625 69.59375 
Q 33 71.40625 27.703125 71.40625 
Q 22.5 71.40625 17.84375 69.59375 
Q 13.203125 67.796875 9.703125 63.59375 
Q 6.203125 59.40625 4.140625 52.453125 
Q 2.09375 45.5 2.09375 35.296875 
z
" id="HelveticaNeue-Bold-48"/>
     <path d="M 6 15.40625 
L 6 0 
L 21.703125 0 
L 21.703125 15.40625 
z
" id="HelveticaNeue-Bold-46"/>
     <path d="M 50 58.296875 
L 50 70 
L 10.90625 70 
L 4 31.296875 
L 16.796875 31.296875 
Q 18.90625 34.203125 21.296875 35.546875 
Q 23.703125 36.90625 27.5 36.90625 
Q 30.40625 36.90625 32.59375 35.90625 
Q 34.796875 34.90625 36.390625 33.09375 
Q 38 31.296875 38.796875 28.890625 
Q 39.59375 26.5 39.59375 23.796875 
Q 39.59375 21.203125 38.75 18.75 
Q 37.90625 16.296875 36.34375 14.4375 
Q 34.796875 12.59375 32.546875 11.4375 
Q 30.296875 10.296875 27.5 10.296875 
Q 22.703125 10.296875 19.59375 13.140625 
Q 16.5 16 16 20.796875 
L 1.796875 20.796875 
Q 1.90625 15.296875 4.046875 11.140625 
Q 6.203125 7 9.796875 4.203125 
Q 13.40625 1.40625 18.046875 0.046875 
Q 22.703125 -1.296875 27.796875 -1.296875 
Q 33.09375 -1.40625 37.796875 0.4375 
Q 42.5 2.296875 46.046875 5.6875 
Q 49.59375 9.09375 51.6875 13.75 
Q 53.796875 18.40625 53.796875 23.796875 
Q 53.796875 28.703125 52.34375 33.046875 
Q 50.90625 37.40625 48.15625 40.59375 
Q 45.40625 43.796875 41.40625 45.6875 
Q 37.40625 47.59375 32.203125 47.59375 
Q 28 47.59375 24.703125 46.34375 
Q 21.40625 45.09375 18.5 42.203125 
L 18.296875 42.40625 
L 21.09375 58.296875 
z
" id="HelveticaNeue-Bold-53"/>
     <path d="M 31.203125 52.203125 
L 31.203125 27.90625 
L 12.796875 27.90625 
L 30.90625 52.203125 
z
M 31.203125 16.203125 
L 31.203125 0 
L 44.703125 0 
L 44.703125 16.203125 
L 54 16.203125 
L 54 27.90625 
L 44.703125 27.90625 
L 44.703125 70 
L 32 70 
L 1.59375 29.203125 
L 1.59375 16.203125 
z
" id="HelveticaNeue-Bold-52"/>
    </defs>
    <g transform="translate(37.016875 49.8325)scale(0.08 -0.08)">
     <use xlink:href="#HelveticaNeue-Bold-8722"/>
     <use x="59.999985" xlink:href="#HelveticaNeue-Bold-48"/>
     <use x="115.599976" xlink:href="#HelveticaNeue-Bold-46"/>
     <use x="143.399963" xlink:href="#HelveticaNeue-Bold-53"/>
     <use x="198.999954" xlink:href="#HelveticaNeue-Bold-52"/>
    </g>
   </g>
   <g id="text_23">
    <!-- −0.05 -->
    <g transform="translate(65.816875 49.8325)scale(0.08 -0.08)">
     <use xlink:href="#HelveticaNeue-Bold-8722"/>
     <use x="59.999985" xlink:href="#HelveticaNeue-Bold-48"/>
     <use x="115.599976" xlink:href="#HelveticaNeue-Bold-46"/>
     <use x="143.399963" xlink:href="#HelveticaNeue-Bold-48"/>
     <use x="198.999954" xlink:href="#HelveticaNeue-Bold-53"/>
    </g>
   </g>
   <g id="text_24">
    <!-- −0.74 -->
    <defs>
     <path d="M 51.703125 57.796875 
L 51.703125 70 
L 3.90625 70 
L 3.90625 56.796875 
L 37.09375 56.796875 
Q 27.09375 44.703125 20.9375 30.203125 
Q 14.796875 15.703125 13.59375 0 
L 28.796875 0 
Q 28.90625 7 30.453125 15.09375 
Q 32 23.203125 34.84375 31.09375 
Q 37.703125 39 41.953125 46 
Q 46.203125 53 51.703125 57.796875 
z
" id="HelveticaNeue-Bold-55"/>
    </defs>
    <g style="fill:#ffffff;" transform="translate(94.616875 49.8325)scale(0.08 -0.08)">
     <use xlink:href="#HelveticaNeue-Bold-8722"/>
     <use x="59.999985" xlink:href="#HelveticaNeue-Bold-48"/>
     <use x="115.599976" xlink:href="#HelveticaNeue-Bold-46"/>
     <use x="143.399963" xlink:href="#HelveticaNeue-Bold-55"/>
     <use x="198.999954" xlink:href="#HelveticaNeue-Bold-52"/>
    </g>
   </g>
   <g id="text_25">
    <!-- −0.32 -->
    <defs>
     <path d="M 22.796875 41.703125 
L 22.796875 31.703125 
Q 25.40625 31.703125 28.25 31.546875 
Q 31.09375 31.40625 33.5 30.453125 
Q 35.90625 29.5 37.453125 27.390625 
Q 39 25.296875 39 21.296875 
Q 39 16.203125 35.703125 13.25 
Q 32.40625 10.296875 27.59375 10.296875 
Q 24.5 10.296875 22.25 11.390625 
Q 20 12.5 18.5 14.34375 
Q 17 16.203125 16.203125 18.75 
Q 15.40625 21.296875 15.296875 24.09375 
L 1.796875 24.09375 
Q 1.703125 18 3.546875 13.296875 
Q 5.40625 8.59375 8.796875 5.34375 
Q 12.203125 2.09375 17.046875 0.390625 
Q 21.90625 -1.296875 27.796875 -1.296875 
Q 32.90625 -1.296875 37.59375 0.203125 
Q 42.296875 1.703125 45.890625 4.59375 
Q 49.5 7.5 51.640625 11.796875 
Q 53.796875 16.09375 53.796875 21.59375 
Q 53.796875 27.59375 50.5 31.890625 
Q 47.203125 36.203125 41.40625 37.5 
L 41.40625 37.703125 
Q 46.296875 39.09375 48.75 43 
Q 51.203125 46.90625 51.203125 52 
Q 51.203125 56.703125 49.09375 60.296875 
Q 47 63.90625 43.640625 66.40625 
Q 40.296875 68.90625 36.09375 70.15625 
Q 31.90625 71.40625 27.703125 71.40625 
Q 22.296875 71.40625 17.890625 69.65625 
Q 13.5 67.90625 10.34375 64.703125 
Q 7.203125 61.5 5.453125 57.046875 
Q 3.703125 52.59375 3.5 47.203125 
L 17 47.203125 
Q 16.90625 52.59375 19.65625 56.140625 
Q 22.40625 59.703125 27.796875 59.703125 
Q 31.703125 59.703125 34.703125 57.296875 
Q 37.703125 54.90625 37.703125 50.40625 
Q 37.703125 47.40625 36.25 45.59375 
Q 34.796875 43.796875 32.546875 42.84375 
Q 30.296875 41.90625 27.6875 41.703125 
Q 25.09375 41.5 22.796875 41.703125 
z
" id="HelveticaNeue-Bold-51"/>
     <path d="M 3.703125 43.09375 
L 17.296875 43.09375 
Q 17.296875 45.90625 17.84375 48.75 
Q 18.40625 51.59375 19.703125 53.9375 
Q 21 56.296875 23.140625 57.75 
Q 25.296875 59.203125 28.40625 59.203125 
Q 33 59.203125 35.953125 56.34375 
Q 38.90625 53.5 38.90625 48.40625 
Q 38.90625 45.203125 37.453125 42.703125 
Q 36 40.203125 33.84375 38.203125 
Q 31.703125 36.203125 29.09375 34.546875 
Q 26.5 32.90625 24.203125 31.296875 
Q 19.703125 28.203125 15.640625 25.203125 
Q 11.59375 22.203125 8.59375 18.640625 
Q 5.59375 15.09375 3.84375 10.59375 
Q 2.09375 6.09375 2.09375 0 
L 53.5 0 
L 53.5 12.203125 
L 20.40625 12.203125 
Q 23 15.796875 26.390625 18.5 
Q 29.796875 21.203125 33.390625 23.546875 
Q 37 25.90625 40.546875 28.296875 
Q 44.09375 30.703125 46.890625 33.640625 
Q 49.703125 36.59375 51.390625 40.390625 
Q 53.09375 44.203125 53.09375 49.5 
Q 53.09375 54.59375 51.140625 58.6875 
Q 49.203125 62.796875 45.890625 65.59375 
Q 42.59375 68.40625 38.25 69.90625 
Q 33.90625 71.40625 29.09375 71.40625 
Q 22.796875 71.40625 17.9375 69.25 
Q 13.09375 67.09375 9.890625 63.25 
Q 6.703125 59.40625 5.09375 54.25 
Q 3.5 49.09375 3.703125 43.09375 
z
" id="HelveticaNeue-Bold-50"/>
    </defs>
    <g transform="translate(123.416875 49.8325)scale(0.08 -0.08)">
     <use xlink:href="#HelveticaNeue-Bold-8722"/>
     <use x="59.999985" xlink:href="#HelveticaNeue-Bold-48"/>
     <use x="115.599976" xlink:href="#HelveticaNeue-Bold-46"/>
     <use x="143.399963" xlink:href="#HelveticaNeue-Bold-51"/>
     <use x="198.999954" xlink:href="#HelveticaNeue-Bold-50"/>
    </g>
   </g>
   <g id="text_26">
    <!-- 0.19 -->
    <defs>
     <path d="M 27 33.703125 
Q 24.296875 33.703125 22.25 34.84375 
Q 20.203125 36 18.890625 37.84375 
Q 17.59375 39.703125 16.9375 42.046875 
Q 16.296875 44.40625 16.296875 46.90625 
Q 16.296875 49.296875 17 51.59375 
Q 17.703125 53.90625 19.09375 55.703125 
Q 20.5 57.5 22.5 58.59375 
Q 24.5 59.703125 27 59.703125 
Q 29.703125 59.703125 31.796875 58.59375 
Q 33.90625 57.5 35.34375 55.640625 
Q 36.796875 53.796875 37.546875 51.4375 
Q 38.296875 49.09375 38.296875 46.703125 
Q 38.296875 44.09375 37.59375 41.75 
Q 36.90625 39.40625 35.5 37.59375 
Q 34.09375 35.796875 32 34.75 
Q 29.90625 33.703125 27 33.703125 
z
M 16.796875 18 
L 3.296875 18 
Q 3.90625 13.40625 5.796875 9.796875 
Q 7.703125 6.203125 10.703125 3.703125 
Q 13.703125 1.203125 17.59375 -0.046875 
Q 21.5 -1.296875 26 -1.296875 
Q 33.5 -1.296875 38.703125 1.953125 
Q 43.90625 5.203125 47.203125 10.453125 
Q 50.5 15.703125 52 22.203125 
Q 53.5 28.703125 53.5 35.203125 
Q 53.5 41.796875 52.296875 48.296875 
Q 51.09375 54.796875 48 59.9375 
Q 44.90625 65.09375 39.75 68.25 
Q 34.59375 71.40625 26.59375 71.40625 
Q 21.09375 71.40625 16.59375 69.40625 
Q 12.09375 67.40625 8.84375 63.953125 
Q 5.59375 60.5 3.84375 55.84375 
Q 2.09375 51.203125 2.09375 45.796875 
Q 2.09375 41.59375 3.390625 37.5 
Q 4.703125 33.40625 7.5 30.203125 
Q 10.5 26.90625 14.796875 24.953125 
Q 19.09375 23 23.59375 23 
Q 28.703125 23 32.59375 24.796875 
Q 36.5 26.59375 39.40625 30.796875 
L 39.59375 30.59375 
Q 39.40625 27.703125 38.75 24 
Q 38.09375 20.296875 36.59375 17.046875 
Q 35.09375 13.796875 32.59375 11.546875 
Q 30.09375 9.296875 26.203125 9.296875 
Q 22.5 9.296875 20 11.890625 
Q 17.5 14.5 16.796875 18 
z
" id="HelveticaNeue-Bold-57"/>
    </defs>
    <g transform="translate(154.616875 49.8325)scale(0.08 -0.08)">
     <use xlink:href="#HelveticaNeue-Bold-48"/>
     <use x="55.599991" xlink:href="#HelveticaNeue-Bold-46"/>
     <use x="83.399979" xlink:href="#HelveticaNeue-Bold-49"/>
     <use x="138.999969" xlink:href="#HelveticaNeue-Bold-57"/>
    </g>
   </g>
   <g id="text_27">
    <!-- −0.49 -->
    <g transform="translate(181.016875 49.8325)scale(0.08 -0.08)">
     <use xlink:href="#HelveticaNeue-Bold-8722"/>
     <use x="59.999985" xlink:href="#HelveticaNeue-Bold-48"/>
     <use x="115.599976" xlink:href="#HelveticaNeue-Bold-46"/>
     <use x="143.399963" xlink:href="#HelveticaNeue-Bold-52"/>
     <use x="198.999954" xlink:href="#HelveticaNeue-Bold-57"/>
    </g>
   </g>
   <g id="text_28">
    <!-- 0.73 -->
    <g style="fill:#ffffff;" transform="translate(212.216875 49.8325)scale(0.08 -0.08)">
     <use xlink:href="#HelveticaNeue-Bold-48"/>
     <use x="55.599991" xlink:href="#HelveticaNeue-Bold-46"/>
     <use x="83.399979" xlink:href="#HelveticaNeue-Bold-55"/>
     <use x="138.999969" xlink:href="#HelveticaNeue-Bold-51"/>
    </g>
   </g>
   <g id="text_29">
    <!-- 0.31 -->
    <g transform="translate(241.016875 49.8325)scale(0.08 -0.08)">
     <use xlink:href="#HelveticaNeue-Bold-48"/>
     <use x="55.599991" xlink:href="#HelveticaNeue-Bold-46"/>
     <use x="83.399979" xlink:href="#HelveticaNeue-Bold-51"/>
     <use x="138.999969" xlink:href="#HelveticaNeue-Bold-49"/>
    </g>
   </g>
   <g id="text_30">
    <!-- −0.3 -->
    <g transform="translate(269.640625 49.8325)scale(0.08 -0.08)">
     <use xlink:href="#HelveticaNeue-Bold-8722"/>
     <use x="59.999985" xlink:href="#HelveticaNeue-Bold-48"/>
     <use x="115.599976" xlink:href="#HelveticaNeue-Bold-46"/>
     <use x="143.399963" xlink:href="#HelveticaNeue-Bold-51"/>
    </g>
   </g>
   <g id="text_31">
    <!-- 1 -->
    <g style="fill:#ffffff;" transform="translate(44.97625 78.6325)scale(0.08 -0.08)">
     <use xlink:href="#HelveticaNeue-Bold-49"/>
    </g>
   </g>
   <g id="text_32">
    <!-- 0.18 -->
    <defs>
     <path d="M 17.203125 51 
Q 17.203125 53.40625 18.046875 55.203125 
Q 18.90625 57 20.40625 58.203125 
Q 21.90625 59.40625 23.84375 60.046875 
Q 25.796875 60.703125 27.90625 60.703125 
Q 31.203125 60.703125 33.25 59.703125 
Q 35.296875 58.703125 36.4375 57.203125 
Q 37.59375 55.703125 38 54.046875 
Q 38.40625 52.40625 38.40625 51 
Q 38.40625 46.5 35.40625 44.140625 
Q 32.40625 41.796875 27.90625 41.796875 
Q 23.59375 41.796875 20.390625 44.140625 
Q 17.203125 46.5 17.203125 51 
z
M 4.296875 52.296875 
Q 4.296875 47.09375 6.890625 43.1875 
Q 9.5 39.296875 14.59375 37.90625 
L 14.59375 37.703125 
Q 8.296875 36.203125 4.84375 31.703125 
Q 1.40625 27.203125 1.40625 20.5 
Q 1.40625 14.796875 3.65625 10.6875 
Q 5.90625 6.59375 9.65625 3.890625 
Q 13.40625 1.203125 18.15625 -0.046875 
Q 22.90625 -1.296875 28 -1.296875 
Q 32.90625 -1.296875 37.59375 0.046875 
Q 42.296875 1.40625 46 4.09375 
Q 49.703125 6.796875 51.953125 10.890625 
Q 54.203125 15 54.203125 20.59375 
Q 54.203125 27.203125 50.796875 31.75 
Q 47.40625 36.296875 41.09375 37.703125 
L 41.09375 37.90625 
Q 46.203125 39.59375 48.75 43.5 
Q 51.296875 47.40625 51.296875 52.59375 
Q 51.296875 55.203125 50.09375 58.453125 
Q 48.90625 61.703125 46.15625 64.546875 
Q 43.40625 67.40625 38.90625 69.40625 
Q 34.40625 71.40625 27.90625 71.40625 
Q 23.59375 71.40625 19.390625 70.203125 
Q 15.203125 69 11.84375 66.59375 
Q 8.5 64.203125 6.390625 60.59375 
Q 4.296875 57 4.296875 52.296875 
z
M 15.59375 21.203125 
Q 15.59375 26.59375 19.1875 29.4375 
Q 22.796875 32.296875 28 32.296875 
Q 30.5 32.296875 32.640625 31.5 
Q 34.796875 30.703125 36.4375 29.203125 
Q 38.09375 27.703125 39.046875 25.640625 
Q 40 23.59375 40 21.09375 
Q 40 18.5 39.09375 16.296875 
Q 38.203125 14.09375 36.546875 12.546875 
Q 34.90625 11 32.75 10.140625 
Q 30.59375 9.296875 28 9.296875 
Q 25.5 9.296875 23.203125 10.140625 
Q 20.90625 11 19.25 12.546875 
Q 17.59375 14.09375 16.59375 16.296875 
Q 15.59375 18.5 15.59375 21.203125 
z
" id="HelveticaNeue-Bold-56"/>
    </defs>
    <g transform="translate(68.216875 78.6325)scale(0.08 -0.08)">
     <use xlink:href="#HelveticaNeue-Bold-48"/>
     <use x="55.599991" xlink:href="#HelveticaNeue-Bold-46"/>
     <use x="83.399979" xlink:href="#HelveticaNeue-Bold-49"/>
     <use x="138.999969" xlink:href="#HelveticaNeue-Bold-56"/>
    </g>
   </g>
   <g id="text_33">
    <!-- 0.51 -->
    <g transform="translate(97.016875 78.6325)scale(0.08 -0.08)">
     <use xlink:href="#HelveticaNeue-Bold-48"/>
     <use x="55.599991" xlink:href="#HelveticaNeue-Bold-46"/>
     <use x="83.399979" xlink:href="#HelveticaNeue-Bold-53"/>
     <use x="138.999969" xlink:href="#HelveticaNeue-Bold-49"/>
    </g>
   </g>
   <g id="text_34">
    <!-- 0.41 -->
    <g transform="translate(125.816875 78.6325)scale(0.08 -0.08)">
     <use xlink:href="#HelveticaNeue-Bold-48"/>
     <use x="55.599991" xlink:href="#HelveticaNeue-Bold-46"/>
     <use x="83.399979" xlink:href="#HelveticaNeue-Bold-52"/>
     <use x="138.999969" xlink:href="#HelveticaNeue-Bold-49"/>
    </g>
   </g>
   <g id="text_35">
    <!-- −0.08 -->
    <g transform="translate(152.216875 78.6325)scale(0.08 -0.08)">
     <use xlink:href="#HelveticaNeue-Bold-8722"/>
     <use x="59.999985" xlink:href="#HelveticaNeue-Bold-48"/>
     <use x="115.599976" xlink:href="#HelveticaNeue-Bold-46"/>
     <use x="143.399963" xlink:href="#HelveticaNeue-Bold-48"/>
     <use x="198.999954" xlink:href="#HelveticaNeue-Bold-56"/>
    </g>
   </g>
   <g id="text_36">
    <!-- 0.32 -->
    <g transform="translate(183.416875 78.6325)scale(0.08 -0.08)">
     <use xlink:href="#HelveticaNeue-Bold-48"/>
     <use x="55.599991" xlink:href="#HelveticaNeue-Bold-46"/>
     <use x="83.399979" xlink:href="#HelveticaNeue-Bold-51"/>
     <use x="138.999969" xlink:href="#HelveticaNeue-Bold-50"/>
    </g>
   </g>
   <g id="text_37">
    <!-- −0.43 -->
    <g transform="translate(209.816875 78.6325)scale(0.08 -0.08)">
     <use xlink:href="#HelveticaNeue-Bold-8722"/>
     <use x="59.999985" xlink:href="#HelveticaNeue-Bold-48"/>
     <use x="115.599976" xlink:href="#HelveticaNeue-Bold-46"/>
     <use x="143.399963" xlink:href="#HelveticaNeue-Bold-52"/>
     <use x="198.999954" xlink:href="#HelveticaNeue-Bold-51"/>
    </g>
   </g>
   <g id="text_38">
    <!-- 0.05 -->
    <g transform="translate(241.016875 78.6325)scale(0.08 -0.08)">
     <use xlink:href="#HelveticaNeue-Bold-48"/>
     <use x="55.599991" xlink:href="#HelveticaNeue-Bold-46"/>
     <use x="83.399979" xlink:href="#HelveticaNeue-Bold-48"/>
     <use x="138.999969" xlink:href="#HelveticaNeue-Bold-53"/>
    </g>
   </g>
   <g id="text_39">
    <!-- −0.13 -->
    <g transform="translate(267.416875 78.6325)scale(0.08 -0.08)">
     <use xlink:href="#HelveticaNeue-Bold-8722"/>
     <use x="59.999985" xlink:href="#HelveticaNeue-Bold-48"/>
     <use x="115.599976" xlink:href="#HelveticaNeue-Bold-46"/>
     <use x="143.399963" xlink:href="#HelveticaNeue-Bold-49"/>
     <use x="198.999954" xlink:href="#HelveticaNeue-Bold-51"/>
    </g>
   </g>
   <g id="text_40">
    <!-- 1 -->
    <g style="fill:#ffffff;" transform="translate(73.77625 107.4325)scale(0.08 -0.08)">
     <use xlink:href="#HelveticaNeue-Bold-49"/>
    </g>
   </g>
   <g id="text_41">
    <!-- 0.51 -->
    <g transform="translate(97.016875 107.4325)scale(0.08 -0.08)">
     <use xlink:href="#HelveticaNeue-Bold-48"/>
     <use x="55.599991" xlink:href="#HelveticaNeue-Bold-46"/>
     <use x="83.399979" xlink:href="#HelveticaNeue-Bold-53"/>
     <use x="138.999969" xlink:href="#HelveticaNeue-Bold-49"/>
    </g>
   </g>
   <g id="text_42">
    <!-- 0.88 -->
    <g style="fill:#ffffff;" transform="translate(125.816875 107.4325)scale(0.08 -0.08)">
     <use xlink:href="#HelveticaNeue-Bold-48"/>
     <use x="55.599991" xlink:href="#HelveticaNeue-Bold-46"/>
     <use x="83.399979" xlink:href="#HelveticaNeue-Bold-56"/>
     <use x="138.999969" xlink:href="#HelveticaNeue-Bold-56"/>
    </g>
   </g>
   <g id="text_43">
    <!-- −0.32 -->
    <g transform="translate(152.216875 107.4325)scale(0.08 -0.08)">
     <use xlink:href="#HelveticaNeue-Bold-8722"/>
     <use x="59.999985" xlink:href="#HelveticaNeue-Bold-48"/>
     <use x="115.599976" xlink:href="#HelveticaNeue-Bold-46"/>
     <use x="143.399963" xlink:href="#HelveticaNeue-Bold-51"/>
     <use x="198.999954" xlink:href="#HelveticaNeue-Bold-50"/>
    </g>
   </g>
   <g id="text_44">
    <!-- 0.79 -->
    <g style="fill:#ffffff;" transform="translate(183.416875 107.4325)scale(0.08 -0.08)">
     <use xlink:href="#HelveticaNeue-Bold-48"/>
     <use x="55.599991" xlink:href="#HelveticaNeue-Bold-46"/>
     <use x="83.399979" xlink:href="#HelveticaNeue-Bold-55"/>
     <use x="138.999969" xlink:href="#HelveticaNeue-Bold-57"/>
    </g>
   </g>
   <g id="text_45">
    <!-- −0.44 -->
    <g transform="translate(209.816875 107.4325)scale(0.08 -0.08)">
     <use xlink:href="#HelveticaNeue-Bold-8722"/>
     <use x="59.999985" xlink:href="#HelveticaNeue-Bold-48"/>
     <use x="115.599976" xlink:href="#HelveticaNeue-Bold-46"/>
     <use x="143.399963" xlink:href="#HelveticaNeue-Bold-52"/>
     <use x="198.999954" xlink:href="#HelveticaNeue-Bold-52"/>
    </g>
   </g>
   <g id="text_46">
    <!-- −0.54 -->
    <g transform="translate(238.616875 107.4325)scale(0.08 -0.08)">
     <use xlink:href="#HelveticaNeue-Bold-8722"/>
     <use x="59.999985" xlink:href="#HelveticaNeue-Bold-48"/>
     <use x="115.599976" xlink:href="#HelveticaNeue-Bold-46"/>
     <use x="143.399963" xlink:href="#HelveticaNeue-Bold-53"/>
     <use x="198.999954" xlink:href="#HelveticaNeue-Bold-52"/>
    </g>
   </g>
   <g id="text_47">
    <!-- −0.74 -->
    <g style="fill:#ffffff;" transform="translate(267.416875 107.4325)scale(0.08 -0.08)">
     <use xlink:href="#HelveticaNeue-Bold-8722"/>
     <use x="59.999985" xlink:href="#HelveticaNeue-Bold-48"/>
     <use x="115.599976" xlink:href="#HelveticaNeue-Bold-46"/>
     <use x="143.399963" xlink:href="#HelveticaNeue-Bold-55"/>
     <use x="198.999954" xlink:href="#HelveticaNeue-Bold-52"/>
    </g>
   </g>
   <g id="text_48">
    <!-- 1 -->
    <g style="fill:#ffffff;" transform="translate(102.57625 136.2325)scale(0.08 -0.08)">
     <use xlink:href="#HelveticaNeue-Bold-49"/>
    </g>
   </g>
   <g id="text_49">
    <!-- 0.78 -->
    <g style="fill:#ffffff;" transform="translate(125.816875 136.2325)scale(0.08 -0.08)">
     <use xlink:href="#HelveticaNeue-Bold-48"/>
     <use x="55.599991" xlink:href="#HelveticaNeue-Bold-46"/>
     <use x="83.399979" xlink:href="#HelveticaNeue-Bold-55"/>
     <use x="138.999969" xlink:href="#HelveticaNeue-Bold-56"/>
    </g>
   </g>
   <g id="text_50">
    <!-- −0.63 -->
    <defs>
     <path d="M 28.59375 36.296875 
Q 31.296875 36.296875 33.34375 35.140625 
Q 35.40625 34 36.703125 32.140625 
Q 38 30.296875 38.640625 27.9375 
Q 39.296875 25.59375 39.296875 23.09375 
Q 39.296875 20.703125 38.59375 18.390625 
Q 37.90625 16.09375 36.5 14.296875 
Q 35.09375 12.5 33.140625 11.390625 
Q 31.203125 10.296875 28.59375 10.296875 
Q 25.90625 10.296875 23.796875 11.390625 
Q 21.703125 12.5 20.25 14.34375 
Q 18.796875 16.203125 18.046875 18.546875 
Q 17.296875 20.90625 17.296875 23.296875 
Q 17.296875 25.90625 18 28.25 
Q 18.703125 30.59375 20.09375 32.390625 
Q 21.5 34.203125 23.640625 35.25 
Q 25.796875 36.296875 28.59375 36.296875 
z
M 38.796875 52 
L 52.296875 52 
Q 51.703125 56.703125 49.796875 60.296875 
Q 47.90625 63.90625 44.90625 66.34375 
Q 41.90625 68.796875 38 70.09375 
Q 34.09375 71.40625 29.59375 71.40625 
Q 22.09375 71.40625 16.890625 68.09375 
Q 11.703125 64.796875 8.390625 59.546875 
Q 5.09375 54.296875 3.59375 47.796875 
Q 2.09375 41.296875 2.09375 34.796875 
Q 2.09375 28.09375 3.296875 21.640625 
Q 4.5 15.203125 7.59375 10.09375 
Q 10.703125 5 15.890625 1.84375 
Q 21.09375 -1.296875 29 -1.296875 
Q 34.5 -1.296875 39 0.640625 
Q 43.5 2.59375 46.75 6.046875 
Q 50 9.5 51.75 14.140625 
Q 53.5 18.796875 53.5 24.203125 
Q 53.5 28.40625 52.203125 32.5 
Q 50.90625 36.59375 48.09375 39.796875 
Q 45.09375 43.09375 40.796875 45.046875 
Q 36.5 47 32 47 
Q 26.90625 47 23 45.203125 
Q 19.09375 43.40625 16.203125 39.203125 
L 16 39.40625 
Q 16.09375 42.296875 16.796875 46 
Q 17.5 49.703125 19 52.953125 
Q 20.5 56.203125 23.046875 58.453125 
Q 25.59375 60.703125 29.40625 60.703125 
Q 33.09375 60.703125 35.59375 58.09375 
Q 38.09375 55.5 38.796875 52 
z
" id="HelveticaNeue-Bold-54"/>
    </defs>
    <g transform="translate(152.216875 136.2325)scale(0.08 -0.08)">
     <use xlink:href="#HelveticaNeue-Bold-8722"/>
     <use x="59.999985" xlink:href="#HelveticaNeue-Bold-48"/>
     <use x="115.599976" xlink:href="#HelveticaNeue-Bold-46"/>
     <use x="143.399963" xlink:href="#HelveticaNeue-Bold-54"/>
     <use x="198.999954" xlink:href="#HelveticaNeue-Bold-51"/>
    </g>
   </g>
   <g id="text_51">
    <!-- 0.84 -->
    <g style="fill:#ffffff;" transform="translate(183.416875 136.2325)scale(0.08 -0.08)">
     <use xlink:href="#HelveticaNeue-Bold-48"/>
     <use x="55.599991" xlink:href="#HelveticaNeue-Bold-46"/>
     <use x="83.399979" xlink:href="#HelveticaNeue-Bold-56"/>
     <use x="138.999969" xlink:href="#HelveticaNeue-Bold-52"/>
    </g>
   </g>
   <g id="text_52">
    <!-- −0.9 -->
    <g style="fill:#ffffff;" transform="translate(212.040625 136.2325)scale(0.08 -0.08)">
     <use xlink:href="#HelveticaNeue-Bold-8722"/>
     <use x="59.999985" xlink:href="#HelveticaNeue-Bold-48"/>
     <use x="115.599976" xlink:href="#HelveticaNeue-Bold-46"/>
     <use x="143.399963" xlink:href="#HelveticaNeue-Bold-57"/>
    </g>
   </g>
   <g id="text_53">
    <!-- −0.45 -->
    <g transform="translate(238.616875 136.2325)scale(0.08 -0.08)">
     <use xlink:href="#HelveticaNeue-Bold-8722"/>
     <use x="59.999985" xlink:href="#HelveticaNeue-Bold-48"/>
     <use x="115.599976" xlink:href="#HelveticaNeue-Bold-46"/>
     <use x="143.399963" xlink:href="#HelveticaNeue-Bold-52"/>
     <use x="198.999954" xlink:href="#HelveticaNeue-Bold-53"/>
    </g>
   </g>
   <g id="text_54">
    <!-- −0.33 -->
    <g transform="translate(267.416875 136.2325)scale(0.08 -0.08)">
     <use xlink:href="#HelveticaNeue-Bold-8722"/>
     <use x="59.999985" xlink:href="#HelveticaNeue-Bold-48"/>
     <use x="115.599976" xlink:href="#HelveticaNeue-Bold-46"/>
     <use x="143.399963" xlink:href="#HelveticaNeue-Bold-51"/>
     <use x="198.999954" xlink:href="#HelveticaNeue-Bold-51"/>
    </g>
   </g>
   <g id="text_55">
    <!-- 1 -->
    <g style="fill:#ffffff;" transform="translate(131.37625 165.0325)scale(0.08 -0.08)">
     <use xlink:href="#HelveticaNeue-Bold-49"/>
    </g>
   </g>
   <g id="text_56">
    <!-- −0.49 -->
    <g transform="translate(152.216875 165.0325)scale(0.08 -0.08)">
     <use xlink:href="#HelveticaNeue-Bold-8722"/>
     <use x="59.999985" xlink:href="#HelveticaNeue-Bold-48"/>
     <use x="115.599976" xlink:href="#HelveticaNeue-Bold-46"/>
     <use x="143.399963" xlink:href="#HelveticaNeue-Bold-52"/>
     <use x="198.999954" xlink:href="#HelveticaNeue-Bold-57"/>
    </g>
   </g>
   <g id="text_57">
    <!-- 0.93 -->
    <g style="fill:#ffffff;" transform="translate(183.416875 165.0325)scale(0.08 -0.08)">
     <use xlink:href="#HelveticaNeue-Bold-48"/>
     <use x="55.599991" xlink:href="#HelveticaNeue-Bold-46"/>
     <use x="83.399979" xlink:href="#HelveticaNeue-Bold-57"/>
     <use x="138.999969" xlink:href="#HelveticaNeue-Bold-51"/>
    </g>
   </g>
   <g id="text_58">
    <!-- −0.71 -->
    <g style="fill:#ffffff;" transform="translate(209.816875 165.0325)scale(0.08 -0.08)">
     <use xlink:href="#HelveticaNeue-Bold-8722"/>
     <use x="59.999985" xlink:href="#HelveticaNeue-Bold-48"/>
     <use x="115.599976" xlink:href="#HelveticaNeue-Bold-46"/>
     <use x="143.399963" xlink:href="#HelveticaNeue-Bold-55"/>
     <use x="198.999954" xlink:href="#HelveticaNeue-Bold-49"/>
    </g>
   </g>
   <g id="text_59">
    <!-- −0.5 -->
    <g transform="translate(240.840625 165.0325)scale(0.08 -0.08)">
     <use xlink:href="#HelveticaNeue-Bold-8722"/>
     <use x="59.999985" xlink:href="#HelveticaNeue-Bold-48"/>
     <use x="115.599976" xlink:href="#HelveticaNeue-Bold-46"/>
     <use x="143.399963" xlink:href="#HelveticaNeue-Bold-53"/>
    </g>
   </g>
   <g id="text_60">
    <!-- −0.7 -->
    <g style="fill:#ffffff;" transform="translate(269.640625 165.0325)scale(0.08 -0.08)">
     <use xlink:href="#HelveticaNeue-Bold-8722"/>
     <use x="59.999985" xlink:href="#HelveticaNeue-Bold-48"/>
     <use x="115.599976" xlink:href="#HelveticaNeue-Bold-46"/>
     <use x="143.399963" xlink:href="#HelveticaNeue-Bold-55"/>
    </g>
   </g>
   <g id="text_61">
    <!-- 1 -->
    <g style="fill:#ffffff;" transform="translate(160.17625 193.8325)scale(0.08 -0.08)">
     <use xlink:href="#HelveticaNeue-Bold-49"/>
    </g>
   </g>
   <g id="text_62">
    <!-- −0.4 -->
    <g transform="translate(183.240625 193.8325)scale(0.08 -0.08)">
     <use xlink:href="#HelveticaNeue-Bold-8722"/>
     <use x="59.999985" xlink:href="#HelveticaNeue-Bold-48"/>
     <use x="115.599976" xlink:href="#HelveticaNeue-Bold-46"/>
     <use x="143.399963" xlink:href="#HelveticaNeue-Bold-52"/>
    </g>
   </g>
   <g id="text_63">
    <!-- 0.48 -->
    <g transform="translate(212.216875 193.8325)scale(0.08 -0.08)">
     <use xlink:href="#HelveticaNeue-Bold-48"/>
     <use x="55.599991" xlink:href="#HelveticaNeue-Bold-46"/>
     <use x="83.399979" xlink:href="#HelveticaNeue-Bold-52"/>
     <use x="138.999969" xlink:href="#HelveticaNeue-Bold-56"/>
    </g>
   </g>
   <g id="text_64">
    <!-- 0.41 -->
    <g transform="translate(241.016875 193.8325)scale(0.08 -0.08)">
     <use xlink:href="#HelveticaNeue-Bold-48"/>
     <use x="55.599991" xlink:href="#HelveticaNeue-Bold-46"/>
     <use x="83.399979" xlink:href="#HelveticaNeue-Bold-52"/>
     <use x="138.999969" xlink:href="#HelveticaNeue-Bold-49"/>
    </g>
   </g>
   <g id="text_65">
    <!-- 0.52 -->
    <g transform="translate(269.816875 193.8325)scale(0.08 -0.08)">
     <use xlink:href="#HelveticaNeue-Bold-48"/>
     <use x="55.599991" xlink:href="#HelveticaNeue-Bold-46"/>
     <use x="83.399979" xlink:href="#HelveticaNeue-Bold-53"/>
     <use x="138.999969" xlink:href="#HelveticaNeue-Bold-50"/>
    </g>
   </g>
   <g id="text_66">
    <!-- 1 -->
    <g style="fill:#ffffff;" transform="translate(188.97625 222.6325)scale(0.08 -0.08)">
     <use xlink:href="#HelveticaNeue-Bold-49"/>
    </g>
   </g>
   <g id="text_67">
    <!-- −0.84 -->
    <g style="fill:#ffffff;" transform="translate(209.816875 222.6325)scale(0.08 -0.08)">
     <use xlink:href="#HelveticaNeue-Bold-8722"/>
     <use x="59.999985" xlink:href="#HelveticaNeue-Bold-48"/>
     <use x="115.599976" xlink:href="#HelveticaNeue-Bold-46"/>
     <use x="143.399963" xlink:href="#HelveticaNeue-Bold-56"/>
     <use x="198.999954" xlink:href="#HelveticaNeue-Bold-52"/>
    </g>
   </g>
   <g id="text_68">
    <!-- −0.59 -->
    <g transform="translate(238.616875 222.6325)scale(0.08 -0.08)">
     <use xlink:href="#HelveticaNeue-Bold-8722"/>
     <use x="59.999985" xlink:href="#HelveticaNeue-Bold-48"/>
     <use x="115.599976" xlink:href="#HelveticaNeue-Bold-46"/>
     <use x="143.399963" xlink:href="#HelveticaNeue-Bold-53"/>
     <use x="198.999954" xlink:href="#HelveticaNeue-Bold-57"/>
    </g>
   </g>
   <g id="text_69">
    <!-- −0.52 -->
    <g transform="translate(267.416875 222.6325)scale(0.08 -0.08)">
     <use xlink:href="#HelveticaNeue-Bold-8722"/>
     <use x="59.999985" xlink:href="#HelveticaNeue-Bold-48"/>
     <use x="115.599976" xlink:href="#HelveticaNeue-Bold-46"/>
     <use x="143.399963" xlink:href="#HelveticaNeue-Bold-53"/>
     <use x="198.999954" xlink:href="#HelveticaNeue-Bold-50"/>
    </g>
   </g>
   <g id="text_70">
    <!-- 1 -->
    <g style="fill:#ffffff;" transform="translate(217.77625 251.4325)scale(0.08 -0.08)">
     <use xlink:href="#HelveticaNeue-Bold-49"/>
    </g>
   </g>
   <g id="text_71">
    <!-- 0.67 -->
    <g transform="translate(241.016875 251.4325)scale(0.08 -0.08)">
     <use xlink:href="#HelveticaNeue-Bold-48"/>
     <use x="55.599991" xlink:href="#HelveticaNeue-Bold-46"/>
     <use x="83.399979" xlink:href="#HelveticaNeue-Bold-54"/>
     <use x="138.999969" xlink:href="#HelveticaNeue-Bold-55"/>
    </g>
   </g>
   <g id="text_72">
    <!-- 0.27 -->
    <g transform="translate(269.816875 251.4325)scale(0.08 -0.08)">
     <use xlink:href="#HelveticaNeue-Bold-48"/>
     <use x="55.599991" xlink:href="#HelveticaNeue-Bold-46"/>
     <use x="83.399979" xlink:href="#HelveticaNeue-Bold-50"/>
     <use x="138.999969" xlink:href="#HelveticaNeue-Bold-55"/>
    </g>
   </g>
   <g id="text_73">
    <!-- 1 -->
    <g style="fill:#ffffff;" transform="translate(246.57625 280.2325)scale(0.08 -0.08)">
     <use xlink:href="#HelveticaNeue-Bold-49"/>
    </g>
   </g>
   <g id="text_74">
    <!-- 0.33 -->
    <g transform="translate(269.816875 280.2325)scale(0.08 -0.08)">
     <use xlink:href="#HelveticaNeue-Bold-48"/>
     <use x="55.599991" xlink:href="#HelveticaNeue-Bold-46"/>
     <use x="83.399979" xlink:href="#HelveticaNeue-Bold-51"/>
     <use x="138.999969" xlink:href="#HelveticaNeue-Bold-51"/>
    </g>
   </g>
   <g id="text_75">
    <!-- 1 -->
    <g style="fill:#ffffff;" transform="translate(275.37625 309.0325)scale(0.08 -0.08)">
     <use xlink:href="#HelveticaNeue-Bold-49"/>
    </g>
   </g>
   <g id="text_76">
    <!-- Pseudo covariance matrix -->
    <defs>
     <path d="M 17.296875 37.203125 
L 17.296875 63.40625 
L 35.90625 63.40625 
Q 44 63.40625 47.75 60.046875 
Q 51.5 56.703125 51.5 50.296875 
Q 51.5 43.90625 47.75 40.5 
Q 44 37.09375 35.90625 37.203125 
z
M 7.796875 71.40625 
L 7.796875 0 
L 17.296875 0 
L 17.296875 29.203125 
L 39.09375 29.203125 
Q 49.90625 29.09375 55.453125 34.6875 
Q 61 40.296875 61 50.296875 
Q 61 60.296875 55.453125 65.84375 
Q 49.90625 71.40625 39.09375 71.40625 
z
" id="HelveticaNeue-80"/>
     <path d="M 11.59375 16.296875 
L 3.09375 16.296875 
Q 3.296875 11.5 5.09375 8.140625 
Q 6.90625 4.796875 9.90625 2.75 
Q 12.90625 0.703125 16.796875 -0.1875 
Q 20.703125 -1.09375 25 -1.09375 
Q 28.90625 -1.09375 32.84375 -0.34375 
Q 36.796875 0.40625 39.9375 2.296875 
Q 43.09375 4.203125 45.046875 7.296875 
Q 47 10.40625 47 15.09375 
Q 47 18.796875 45.546875 21.296875 
Q 44.09375 23.796875 41.75 25.4375 
Q 39.40625 27.09375 36.34375 28.09375 
Q 33.296875 29.09375 30.09375 29.796875 
Q 27.09375 30.5 24.09375 31.140625 
Q 21.09375 31.796875 18.6875 32.75 
Q 16.296875 33.703125 14.75 35.140625 
Q 13.203125 36.59375 13.203125 38.796875 
Q 13.203125 40.796875 14.203125 42.046875 
Q 15.203125 43.296875 16.796875 44.046875 
Q 18.40625 44.796875 20.34375 45.09375 
Q 22.296875 45.40625 24.203125 45.40625 
Q 26.296875 45.40625 28.34375 44.953125 
Q 30.40625 44.5 32.09375 43.5 
Q 33.796875 42.5 34.890625 40.84375 
Q 36 39.203125 36.203125 36.703125 
L 44.703125 36.703125 
Q 44.40625 41.40625 42.703125 44.546875 
Q 41 47.703125 38.140625 49.546875 
Q 35.296875 51.40625 31.59375 52.15625 
Q 27.90625 52.90625 23.5 52.90625 
Q 20.09375 52.90625 16.640625 52.046875 
Q 13.203125 51.203125 10.453125 49.453125 
Q 7.703125 47.703125 5.953125 44.890625 
Q 4.203125 42.09375 4.203125 38.203125 
Q 4.203125 33.203125 6.703125 30.390625 
Q 9.203125 27.59375 12.953125 26.046875 
Q 16.703125 24.5 21.09375 23.640625 
Q 25.5 22.796875 29.25 21.75 
Q 33 20.703125 35.5 19 
Q 38 17.296875 38 14 
Q 38 11.59375 36.796875 10.046875 
Q 35.59375 8.5 33.75 7.703125 
Q 31.90625 6.90625 29.703125 6.59375 
Q 27.5 6.296875 25.5 6.296875 
Q 22.90625 6.296875 20.453125 6.796875 
Q 18 7.296875 16.046875 8.4375 
Q 14.09375 9.59375 12.890625 11.546875 
Q 11.703125 13.5 11.59375 16.296875 
z
" id="HelveticaNeue-115"/>
     <path d="M 42.296875 30.796875 
L 12.59375 30.796875 
Q 12.796875 33.796875 13.890625 36.4375 
Q 15 39.09375 16.890625 41.09375 
Q 18.796875 43.09375 21.4375 44.25 
Q 24.09375 45.40625 27.40625 45.40625 
Q 30.59375 45.40625 33.25 44.25 
Q 35.90625 43.09375 37.84375 41.140625 
Q 39.796875 39.203125 40.9375 36.5 
Q 42.09375 33.796875 42.296875 30.796875 
z
M 50.5 16.40625 
L 42.09375 16.40625 
Q 41 11.296875 37.546875 8.796875 
Q 34.09375 6.296875 28.703125 6.296875 
Q 24.5 6.296875 21.390625 7.6875 
Q 18.296875 9.09375 16.296875 11.4375 
Q 14.296875 13.796875 13.390625 16.84375 
Q 12.5 19.90625 12.59375 23.296875 
L 51.296875 23.296875 
Q 51.5 28 50.453125 33.203125 
Q 49.40625 38.40625 46.65625 42.796875 
Q 43.90625 47.203125 39.34375 50.046875 
Q 34.796875 52.90625 27.90625 52.90625 
Q 22.59375 52.90625 18.140625 50.90625 
Q 13.703125 48.90625 10.453125 45.296875 
Q 7.203125 41.703125 5.390625 36.796875 
Q 3.59375 31.90625 3.59375 26 
Q 3.796875 20.09375 5.34375 15.09375 
Q 6.90625 10.09375 10 6.5 
Q 13.09375 2.90625 17.640625 0.90625 
Q 22.203125 -1.09375 28.40625 -1.09375 
Q 37.203125 -1.09375 43 3.296875 
Q 48.796875 7.703125 50.5 16.40625 
z
" id="HelveticaNeue-101"/>
     <path d="M 49.203125 0 
L 49.203125 51.703125 
L 40.703125 51.703125 
L 40.703125 22.5 
Q 40.703125 19 39.75 16.046875 
Q 38.796875 13.09375 36.890625 10.890625 
Q 35 8.703125 32.140625 7.5 
Q 29.296875 6.296875 25.40625 6.296875 
Q 20.5 6.296875 17.703125 9.09375 
Q 14.90625 11.90625 14.90625 16.703125 
L 14.90625 51.703125 
L 6.40625 51.703125 
L 6.40625 17.703125 
Q 6.40625 13.5 7.25 10.046875 
Q 8.09375 6.59375 10.1875 4.09375 
Q 12.296875 1.59375 15.6875 0.25 
Q 19.09375 -1.09375 24.203125 -1.09375 
Q 29.90625 -1.09375 34.09375 1.15625 
Q 38.296875 3.40625 41 8.203125 
L 41.203125 8.203125 
L 41.203125 0 
z
" id="HelveticaNeue-117"/>
     <path d="M 12.59375 25.40625 
Q 12.59375 29.203125 13.390625 32.796875 
Q 14.203125 36.40625 16 39.203125 
Q 17.796875 42 20.796875 43.703125 
Q 23.796875 45.40625 28.09375 45.40625 
Q 32.5 45.40625 35.59375 43.75 
Q 38.703125 42.09375 40.640625 39.390625 
Q 42.59375 36.703125 43.5 33.140625 
Q 44.40625 29.59375 44.40625 25.796875 
Q 44.40625 22.203125 43.546875 18.703125 
Q 42.703125 15.203125 40.796875 12.453125 
Q 38.90625 9.703125 35.90625 8 
Q 32.90625 6.296875 28.59375 6.296875 
Q 24.5 6.296875 21.453125 7.890625 
Q 18.40625 9.5 16.453125 12.203125 
Q 14.5 14.90625 13.546875 18.34375 
Q 12.59375 21.796875 12.59375 25.40625 
z
M 52.59375 0 
L 52.59375 71.40625 
L 44.09375 71.40625 
L 44.09375 44.796875 
L 43.90625 44.796875 
Q 42.5 47.09375 40.453125 48.640625 
Q 38.40625 50.203125 36.09375 51.140625 
Q 33.796875 52.09375 31.5 52.5 
Q 29.203125 52.90625 27.203125 52.90625 
Q 21.296875 52.90625 16.84375 50.75 
Q 12.40625 48.59375 9.453125 44.9375 
Q 6.5 41.296875 5.046875 36.390625 
Q 3.59375 31.5 3.59375 26 
Q 3.59375 20.5 5.09375 15.59375 
Q 6.59375 10.703125 9.546875 7 
Q 12.5 3.296875 16.953125 1.09375 
Q 21.40625 -1.09375 27.40625 -1.09375 
Q 32.796875 -1.09375 37.296875 0.796875 
Q 41.796875 2.703125 43.90625 7 
L 44.09375 7 
L 44.09375 0 
z
" id="HelveticaNeue-100"/>
     <path d="M 12.59375 25.796875 
Q 12.59375 30.5 13.84375 34.140625 
Q 15.09375 37.796875 17.296875 40.296875 
Q 19.5 42.796875 22.453125 44.09375 
Q 25.40625 45.40625 28.703125 45.40625 
Q 32 45.40625 34.953125 44.09375 
Q 37.90625 42.796875 40.09375 40.296875 
Q 42.296875 37.796875 43.546875 34.140625 
Q 44.796875 30.5 44.796875 25.796875 
Q 44.796875 21.09375 43.546875 17.4375 
Q 42.296875 13.796875 40.09375 11.34375 
Q 37.90625 8.90625 34.953125 7.59375 
Q 32 6.296875 28.703125 6.296875 
Q 25.40625 6.296875 22.453125 7.59375 
Q 19.5 8.90625 17.296875 11.34375 
Q 15.09375 13.796875 13.84375 17.4375 
Q 12.59375 21.09375 12.59375 25.796875 
z
M 3.59375 25.796875 
Q 3.59375 20.09375 5.1875 15.1875 
Q 6.796875 10.296875 10 6.640625 
Q 13.203125 3 17.890625 0.953125 
Q 22.59375 -1.09375 28.703125 -1.09375 
Q 34.90625 -1.09375 39.546875 0.953125 
Q 44.203125 3 47.390625 6.640625 
Q 50.59375 10.296875 52.1875 15.1875 
Q 53.796875 20.09375 53.796875 25.796875 
Q 53.796875 31.5 52.1875 36.453125 
Q 50.59375 41.40625 47.390625 45.046875 
Q 44.203125 48.703125 39.546875 50.796875 
Q 34.90625 52.90625 28.703125 52.90625 
Q 22.59375 52.90625 17.890625 50.796875 
Q 13.203125 48.703125 10 45.046875 
Q 6.796875 41.40625 5.1875 36.453125 
Q 3.59375 31.5 3.59375 25.796875 
z
" id="HelveticaNeue-111"/>
     <path id="HelveticaNeue-32"/>
     <path d="M 41.5 35.09375 
L 50.296875 35.09375 
Q 49.796875 39.703125 47.890625 43.046875 
Q 46 46.40625 43.046875 48.59375 
Q 40.09375 50.796875 36.25 51.84375 
Q 32.40625 52.90625 28 52.90625 
Q 21.90625 52.90625 17.296875 50.75 
Q 12.703125 48.59375 9.640625 44.84375 
Q 6.59375 41.09375 5.09375 36.046875 
Q 3.59375 31 3.59375 25.203125 
Q 3.59375 19.40625 5.140625 14.546875 
Q 6.703125 9.703125 9.75 6.203125 
Q 12.796875 2.703125 17.34375 0.796875 
Q 21.90625 -1.09375 27.796875 -1.09375 
Q 37.703125 -1.09375 43.453125 4.09375 
Q 49.203125 9.296875 50.59375 18.90625 
L 41.90625 18.90625 
Q 41.09375 12.90625 37.546875 9.59375 
Q 34 6.296875 27.703125 6.296875 
Q 23.703125 6.296875 20.796875 7.890625 
Q 17.90625 9.5 16.09375 12.140625 
Q 14.296875 14.796875 13.4375 18.1875 
Q 12.59375 21.59375 12.59375 25.203125 
Q 12.59375 29.09375 13.390625 32.75 
Q 14.203125 36.40625 16.046875 39.203125 
Q 17.90625 42 21 43.703125 
Q 24.09375 45.40625 28.703125 45.40625 
Q 34.09375 45.40625 37.296875 42.703125 
Q 40.5 40 41.5 35.09375 
z
" id="HelveticaNeue-99"/>
     <path d="M 29.703125 0 
L 48.59375 51.703125 
L 39.703125 51.703125 
L 25.59375 8.59375 
L 25.40625 8.59375 
L 10.90625 51.703125 
L 1.40625 51.703125 
L 20.59375 0 
z
" id="HelveticaNeue-118"/>
     <path d="M 52.203125 0.203125 
Q 50 -1.09375 46.09375 -1.09375 
Q 42.796875 -1.09375 40.84375 0.75 
Q 38.90625 2.59375 38.90625 6.796875 
Q 35.40625 2.59375 30.75 0.75 
Q 26.09375 -1.09375 20.703125 -1.09375 
Q 17.203125 -1.09375 14.046875 -0.296875 
Q 10.90625 0.5 8.59375 2.203125 
Q 6.296875 3.90625 4.9375 6.65625 
Q 3.59375 9.40625 3.59375 13.296875 
Q 3.59375 17.703125 5.09375 20.5 
Q 6.59375 23.296875 9.046875 25.046875 
Q 11.5 26.796875 14.640625 27.6875 
Q 17.796875 28.59375 21.09375 29.203125 
Q 24.59375 29.90625 27.75 30.25 
Q 30.90625 30.59375 33.296875 31.25 
Q 35.703125 31.90625 37.09375 33.15625 
Q 38.5 34.40625 38.5 36.796875 
Q 38.5 39.59375 37.453125 41.296875 
Q 36.40625 43 34.75 43.890625 
Q 33.09375 44.796875 31.046875 45.09375 
Q 29 45.40625 27 45.40625 
Q 21.59375 45.40625 18 43.34375 
Q 14.40625 41.296875 14.09375 35.59375 
L 5.59375 35.59375 
Q 5.796875 40.40625 7.59375 43.703125 
Q 9.40625 47 12.40625 49.046875 
Q 15.40625 51.09375 19.25 52 
Q 23.09375 52.90625 27.5 52.90625 
Q 31 52.90625 34.453125 52.40625 
Q 37.90625 51.90625 40.703125 50.34375 
Q 43.5 48.796875 45.203125 46 
Q 46.90625 43.203125 46.90625 38.703125 
L 46.90625 12.09375 
Q 46.90625 9.09375 47.25 7.6875 
Q 47.59375 6.296875 49.59375 6.296875 
Q 50.703125 6.296875 52.203125 6.796875 
z
M 38.40625 26.703125 
Q 36.796875 25.5 34.1875 24.953125 
Q 31.59375 24.40625 28.75 24.046875 
Q 25.90625 23.703125 23 23.25 
Q 20.09375 22.796875 17.796875 21.796875 
Q 15.5 20.796875 14.046875 18.9375 
Q 12.59375 17.09375 12.59375 13.90625 
Q 12.59375 11.796875 13.4375 10.34375 
Q 14.296875 8.90625 15.640625 8 
Q 17 7.09375 18.796875 6.6875 
Q 20.59375 6.296875 22.59375 6.296875 
Q 26.796875 6.296875 29.796875 7.4375 
Q 32.796875 8.59375 34.6875 10.34375 
Q 36.59375 12.09375 37.5 14.140625 
Q 38.40625 16.203125 38.40625 18 
z
" id="HelveticaNeue-97"/>
     <path d="M 6.09375 51.703125 
L 6.09375 0 
L 14.59375 0 
L 14.59375 23 
Q 14.59375 28 15.59375 31.84375 
Q 16.59375 35.703125 18.796875 38.390625 
Q 21 41.09375 24.59375 42.5 
Q 28.203125 43.90625 33.296875 43.90625 
L 33.296875 52.90625 
Q 26.40625 53.09375 21.90625 50.09375 
Q 17.40625 47.09375 14.296875 40.796875 
L 14.09375 40.796875 
L 14.09375 51.703125 
z
" id="HelveticaNeue-114"/>
     <path d="M 15.40625 61 
L 15.40625 71.40625 
L 6.90625 71.40625 
L 6.90625 61 
z
M 6.90625 51.703125 
L 6.90625 0 
L 15.40625 0 
L 15.40625 51.703125 
z
" id="HelveticaNeue-105"/>
     <path d="M 6.40625 51.703125 
L 6.40625 0 
L 14.90625 0 
L 14.90625 29.203125 
Q 14.90625 32.703125 15.84375 35.640625 
Q 16.796875 38.59375 18.6875 40.796875 
Q 20.59375 43 23.4375 44.203125 
Q 26.296875 45.40625 30.203125 45.40625 
Q 35.09375 45.40625 37.890625 42.59375 
Q 40.703125 39.796875 40.703125 35 
L 40.703125 0 
L 49.203125 0 
L 49.203125 34 
Q 49.203125 38.203125 48.34375 41.640625 
Q 47.5 45.09375 45.390625 47.59375 
Q 43.296875 50.09375 39.890625 51.5 
Q 36.5 52.90625 31.40625 52.90625 
Q 19.90625 52.90625 14.59375 43.5 
L 14.40625 43.5 
L 14.40625 51.703125 
z
" id="HelveticaNeue-110"/>
     <path d="M 6.40625 51.703125 
L 6.40625 0 
L 14.90625 0 
L 14.90625 32.203125 
Q 14.90625 33.703125 15.65625 35.953125 
Q 16.40625 38.203125 18.046875 40.296875 
Q 19.703125 42.40625 22.34375 43.90625 
Q 25 45.40625 28.703125 45.40625 
Q 31.59375 45.40625 33.4375 44.546875 
Q 35.296875 43.703125 36.390625 42.140625 
Q 37.5 40.59375 37.953125 38.5 
Q 38.40625 36.40625 38.40625 33.90625 
L 38.40625 0 
L 46.90625 0 
L 46.90625 32.203125 
Q 46.90625 38.203125 50.5 41.796875 
Q 54.09375 45.40625 60.40625 45.40625 
Q 63.5 45.40625 65.453125 44.5 
Q 67.40625 43.59375 68.5 42.046875 
Q 69.59375 40.5 70 38.390625 
Q 70.40625 36.296875 70.40625 33.90625 
L 70.40625 0 
L 78.90625 0 
L 78.90625 37.90625 
Q 78.90625 41.90625 77.65625 44.75 
Q 76.40625 47.59375 74.15625 49.390625 
Q 71.90625 51.203125 68.75 52.046875 
Q 65.59375 52.90625 61.703125 52.90625 
Q 56.59375 52.90625 52.34375 50.59375 
Q 48.09375 48.296875 45.5 44.09375 
Q 43.90625 48.90625 40 50.90625 
Q 36.09375 52.90625 31.296875 52.90625 
Q 20.40625 52.90625 14.59375 44.09375 
L 14.40625 44.09375 
L 14.40625 51.703125 
z
" id="HelveticaNeue-109"/>
     <path d="M 18.203125 51.703125 
L 18.203125 67.203125 
L 9.703125 67.203125 
L 9.703125 51.703125 
L 0.90625 51.703125 
L 0.90625 44.203125 
L 9.703125 44.203125 
L 9.703125 11.296875 
Q 9.703125 7.703125 10.390625 5.5 
Q 11.09375 3.296875 12.546875 2.09375 
Q 14 0.90625 16.34375 0.453125 
Q 18.703125 0 22 0 
L 28.5 0 
L 28.5 7.5 
L 24.59375 7.5 
Q 22.59375 7.5 21.34375 7.640625 
Q 20.09375 7.796875 19.390625 8.296875 
Q 18.703125 8.796875 18.453125 9.6875 
Q 18.203125 10.59375 18.203125 12.09375 
L 18.203125 44.203125 
L 28.5 44.203125 
L 28.5 51.703125 
z
" id="HelveticaNeue-116"/>
     <path d="M 20.296875 27.203125 
L 0.90625 0 
L 11.203125 0 
L 25.59375 21.40625 
L 40 0 
L 50.90625 0 
L 30.90625 27.90625 
L 48.703125 51.703125 
L 38.5 51.703125 
L 25.59375 33.59375 
L 13.203125 51.703125 
L 2.296875 51.703125 
z
" id="HelveticaNeue-120"/>
    </defs>
    <g transform="translate(95.745859 21.14)scale(0.09 -0.09)">
     <use xlink:href="#HelveticaNeue-80"/>
     <use x="64.799988" xlink:href="#HelveticaNeue-115"/>
     <use x="114.799973" xlink:href="#HelveticaNeue-101"/>
     <use x="168.499969" xlink:href="#HelveticaNeue-117"/>
     <use x="224.09996" xlink:href="#HelveticaNeue-100"/>
     <use x="283.399948" xlink:href="#HelveticaNeue-111"/>
     <use x="340.799942" xlink:href="#HelveticaNeue-32"/>
     <use x="368.59993" xlink:href="#HelveticaNeue-99"/>
     <use x="422.299927" xlink:href="#HelveticaNeue-111"/>
     <use x="479.699921" xlink:href="#HelveticaNeue-118"/>
     <use x="529.699905" xlink:href="#HelveticaNeue-97"/>
     <use x="583.399902" xlink:href="#HelveticaNeue-114"/>
     <use x="616.69989" xlink:href="#HelveticaNeue-105"/>
     <use x="638.899887" xlink:href="#HelveticaNeue-97"/>
     <use x="692.599884" xlink:href="#HelveticaNeue-110"/>
     <use x="748.199875" xlink:href="#HelveticaNeue-99"/>
     <use x="801.899872" xlink:href="#HelveticaNeue-101"/>
     <use x="855.599869" xlink:href="#HelveticaNeue-32"/>
     <use x="883.399857" xlink:href="#HelveticaNeue-109"/>
     <use x="968.699844" xlink:href="#HelveticaNeue-97"/>
     <use x="1022.399841" xlink:href="#HelveticaNeue-116"/>
     <use x="1053.899826" xlink:href="#HelveticaNeue-114"/>
     <use x="1087.199814" xlink:href="#HelveticaNeue-105"/>
     <use x="1109.399811" xlink:href="#HelveticaNeue-120"/>
    </g>
   </g>
  </g>
  <g id="text_77">
   <!-- Heatmap demo -->
   <defs>
    <path d="M 6.90625 71.40625 
L 6.90625 0 
L 22.59375 0 
L 22.59375 30.796875 
L 51.5 30.796875 
L 51.5 0 
L 67.203125 0 
L 67.203125 71.40625 
L 51.5 71.40625 
L 51.5 44 
L 22.59375 44 
L 22.59375 71.40625 
z
" id="HelveticaNeue-Bold-72"/>
    <path d="M 23.40625 51.703125 
L 23.40625 67.203125 
L 9.203125 67.203125 
L 9.203125 51.703125 
L 0.59375 51.703125 
L 0.59375 42.203125 
L 9.203125 42.203125 
L 9.203125 11.703125 
Q 9.203125 7.796875 10.5 5.390625 
Q 11.796875 3 14.046875 1.703125 
Q 16.296875 0.40625 19.25 -0.046875 
Q 22.203125 -0.5 25.5 -0.5 
Q 27.59375 -0.5 29.796875 -0.390625 
Q 32 -0.296875 33.796875 0 
L 33.796875 11 
Q 32.796875 10.796875 31.6875 10.6875 
Q 30.59375 10.59375 29.40625 10.59375 
Q 25.796875 10.59375 24.59375 11.796875 
Q 23.40625 13 23.40625 16.59375 
L 23.40625 42.203125 
L 33.796875 42.203125 
L 33.796875 51.703125 
z
" id="HelveticaNeue-Bold-116"/>
    <path d="M 5.796875 51.703125 
L 5.796875 0 
L 20 0 
L 20 30 
Q 20 33.796875 21.09375 36.140625 
Q 22.203125 38.5 23.75 39.75 
Q 25.296875 41 26.9375 41.453125 
Q 28.59375 41.90625 29.59375 41.90625 
Q 33 41.90625 34.75 40.75 
Q 36.5 39.59375 37.25 37.6875 
Q 38 35.796875 38.09375 33.546875 
Q 38.203125 31.296875 38.203125 29 
L 38.203125 0 
L 52.40625 0 
L 52.40625 28.796875 
Q 52.40625 31.203125 52.75 33.546875 
Q 53.09375 35.90625 54.140625 37.75 
Q 55.203125 39.59375 57.046875 40.75 
Q 58.90625 41.90625 61.90625 41.90625 
Q 64.90625 41.90625 66.65625 40.90625 
Q 68.40625 39.90625 69.296875 38.203125 
Q 70.203125 36.5 70.390625 34.203125 
Q 70.59375 31.90625 70.59375 29.296875 
L 70.59375 0 
L 84.796875 0 
L 84.796875 34.59375 
Q 84.796875 39.59375 83.390625 43.140625 
Q 82 46.703125 79.5 48.890625 
Q 77 51.09375 73.5 52.09375 
Q 70 53.09375 65.90625 53.09375 
Q 60.5 53.09375 56.546875 50.5 
Q 52.59375 47.90625 50.296875 44.5 
Q 48.203125 49.296875 44.140625 51.1875 
Q 40.09375 53.09375 35.203125 53.09375 
Q 30.09375 53.09375 26.140625 50.890625 
Q 22.203125 48.703125 19.40625 44.703125 
L 19.203125 44.703125 
L 19.203125 51.703125 
z
" id="HelveticaNeue-Bold-109"/>
    <path d="M 31.5 9.296875 
Q 28.09375 9.296875 25.6875 10.6875 
Q 23.296875 12.09375 21.84375 14.34375 
Q 20.40625 16.59375 19.75 19.59375 
Q 19.09375 22.59375 19.09375 25.703125 
Q 19.09375 28.90625 19.6875 31.90625 
Q 20.296875 34.90625 21.75 37.203125 
Q 23.203125 39.5 25.546875 40.953125 
Q 27.90625 42.40625 31.40625 42.40625 
Q 34.796875 42.40625 37.140625 40.953125 
Q 39.5 39.5 41 37.140625 
Q 42.5 34.796875 43.140625 31.796875 
Q 43.796875 28.796875 43.796875 25.703125 
Q 43.796875 22.59375 43.1875 19.59375 
Q 42.59375 16.59375 41.140625 14.34375 
Q 39.703125 12.09375 37.34375 10.6875 
Q 35 9.296875 31.5 9.296875 
z
M 5.40625 51.703125 
L 5.40625 -18.09375 
L 19.59375 -18.09375 
L 19.59375 6.40625 
L 19.796875 6.40625 
Q 22.40625 2.59375 26.453125 0.640625 
Q 30.5 -1.296875 35.296875 -1.296875 
Q 41 -1.296875 45.25 0.890625 
Q 49.5 3.09375 52.34375 6.796875 
Q 55.203125 10.5 56.59375 15.296875 
Q 58 20.09375 58 25.296875 
Q 58 30.796875 56.59375 35.84375 
Q 55.203125 40.90625 52.296875 44.703125 
Q 49.40625 48.5 45 50.796875 
Q 40.59375 53.09375 34.5 53.09375 
Q 29.703125 53.09375 25.703125 51.1875 
Q 21.703125 49.296875 19.09375 45.09375 
L 18.90625 45.09375 
L 18.90625 51.703125 
z
" id="HelveticaNeue-Bold-112"/>
    <path id="HelveticaNeue-Bold-32"/>
    <path d="M 18 25.796875 
Q 18 28.90625 18.59375 31.90625 
Q 19.203125 34.90625 20.640625 37.203125 
Q 22.09375 39.5 24.5 40.953125 
Q 26.90625 42.40625 30.5 42.40625 
Q 34.09375 42.40625 36.546875 40.953125 
Q 39 39.5 40.453125 37.203125 
Q 41.90625 34.90625 42.5 31.90625 
Q 43.09375 28.90625 43.09375 25.796875 
Q 43.09375 22.703125 42.5 19.75 
Q 41.90625 16.796875 40.453125 14.4375 
Q 39 12.09375 36.546875 10.6875 
Q 34.09375 9.296875 30.5 9.296875 
Q 26.90625 9.296875 24.5 10.6875 
Q 22.09375 12.09375 20.640625 14.4375 
Q 19.203125 16.796875 18.59375 19.75 
Q 18 22.703125 18 25.796875 
z
M 3.796875 25.796875 
Q 3.796875 19.59375 5.6875 14.59375 
Q 7.59375 9.59375 11.09375 6.046875 
Q 14.59375 2.5 19.5 0.59375 
Q 24.40625 -1.296875 30.5 -1.296875 
Q 36.59375 -1.296875 41.546875 0.59375 
Q 46.5 2.5 50 6.046875 
Q 53.5 9.59375 55.390625 14.59375 
Q 57.296875 19.59375 57.296875 25.796875 
Q 57.296875 32 55.390625 37.046875 
Q 53.5 42.09375 50 45.640625 
Q 46.5 49.203125 41.546875 51.140625 
Q 36.59375 53.09375 30.5 53.09375 
Q 24.40625 53.09375 19.5 51.140625 
Q 14.59375 49.203125 11.09375 45.640625 
Q 7.59375 42.09375 5.6875 37.046875 
Q 3.796875 32 3.796875 25.796875 
z
" id="HelveticaNeue-Bold-111"/>
   </defs>
   <g transform="translate(115.090455 10.344972)scale(0.09 -0.09)">
    <use xlink:href="#HelveticaNeue-Bold-72"/>
    <use x="74.099991" xlink:href="#HelveticaNeue-Bold-101"/>
    <use x="131.499985" xlink:href="#HelveticaNeue-Bold-97"/>
    <use x="188.899979" xlink:href="#HelveticaNeue-Bold-116"/>
    <use x="224.099976" xlink:href="#HelveticaNeue-Bold-109"/>
    <use x="314.699966" xlink:href="#HelveticaNeue-Bold-97"/>
    <use x="372.09996" xlink:href="#HelveticaNeue-Bold-112"/>
    <use x="433.199951" xlink:href="#HelveticaNeue-Bold-32"/>
    <use x="460.999939" xlink:href="#HelveticaNeue-Bold-100"/>
    <use x="522.09993" xlink:href="#HelveticaNeue-Bold-101"/>
    <use x="579.499924" xlink:href="#HelveticaNeue-Bold-109"/>
    <use x="670.099915" xlink:href="#HelveticaNeue-Bold-111"/>
   </g>
  </g>
 </g>
 <defs>
  <clipPath id="p57a4fca9c2">
   <rect height="288" width="288" x="4" y="33.3"/>
  </clipPath>
 </defs>
</svg>
