<?xml version="1.0" encoding="utf-8" standalone="no"?>
<!DOCTYPE svg PUBLIC "-//W3C//DTD SVG 1.1//EN"
  "http://www.w3.org/Graphics/SVG/1.1/DTD/svg11.dtd">
<!-- Created with matplotlib (https://matplotlib.org/) -->
<svg height="195.5pt" version="1.1" viewBox="0 0 340.25 195.5" width="340.25pt" xmlns="http://www.w3.org/2000/svg" xmlns:xlink="http://www.w3.org/1999/xlink">
 <defs>
  <style type="text/css">
*{stroke-linecap:butt;stroke-linejoin:round;}
  </style>
 </defs>
 <g id="figure_1">
  <g id="patch_1">
   <path d="M 0 195.5 
L 340.2875 195.5 
L 340.2875 -0.259063 
L 0 -0.259063 
z
" style="fill:#f2f2f2;"/>
  </g>
  <g id="axes_1">
   <g id="patch_2">
    <path d="M 34.06375 167.9225 
L 178.06375 167.9225 
L 178.06375 23.9225 
L 34.06375 23.9225 
z
" style="fill:#ffffff;"/>
   </g>
   <g id="matplotlib.axis_1">
    <g id="xtick_1">
     <g id="line2d_1">
      <path clip-path="url(#p660a9eb7c7)" d="M 34.06375 167.9225 
L 34.06375 23.9225 
" style="fill:none;stroke:#000000;stroke-linecap:square;stroke-opacity:0.1;stroke-width:0.6;"/>
     </g>
     <g id="line2d_2">
      <defs>
       <path d="M 0 0 
L 0 4 
" id="mb0fb90120e" style="stroke:#000000;stroke-width:0.6;"/>
      </defs>
      <g>
       <use style="stroke:#000000;stroke-width:0.6;" x="34.06375" xlink:href="#mb0fb90120e" y="167.9225"/>
      </g>
     </g>
     <g id="text_1">
      <!-- 0 -->
      <defs>
       <path d="M 13.203125 34.90625 
Q 13.203125 37.5 13.25 40.640625 
Q 13.296875 43.796875 13.75 46.9375 
Q 14.203125 50.09375 15.046875 53.09375 
Q 15.90625 56.09375 17.546875 58.34375 
Q 19.203125 60.59375 21.703125 62 
Q 24.203125 63.40625 27.796875 63.40625 
Q 31.40625 63.40625 33.90625 62 
Q 36.40625 60.59375 38.046875 58.34375 
Q 39.703125 56.09375 40.546875 53.09375 
Q 41.40625 50.09375 41.84375 46.9375 
Q 42.296875 43.796875 42.34375 40.640625 
Q 42.40625 37.5 42.40625 34.90625 
Q 42.40625 30.90625 42.15625 25.953125 
Q 41.90625 21 40.546875 16.640625 
Q 39.203125 12.296875 36.203125 9.296875 
Q 33.203125 6.296875 27.796875 6.296875 
Q 22.40625 6.296875 19.40625 9.296875 
Q 16.40625 12.296875 15.046875 16.640625 
Q 13.703125 21 13.453125 25.953125 
Q 13.203125 30.90625 13.203125 34.90625 
z
M 4.203125 34.796875 
Q 4.203125 30.90625 4.390625 26.703125 
Q 4.59375 22.5 5.390625 18.5 
Q 6.203125 14.5 7.703125 10.953125 
Q 9.203125 7.40625 11.796875 4.703125 
Q 14.40625 2 18.34375 0.453125 
Q 22.296875 -1.09375 27.796875 -1.09375 
Q 33.40625 -1.09375 37.296875 0.453125 
Q 41.203125 2 43.796875 4.703125 
Q 46.40625 7.40625 47.90625 10.953125 
Q 49.40625 14.5 50.203125 18.5 
Q 51 22.5 51.203125 26.703125 
Q 51.40625 30.90625 51.40625 34.796875 
Q 51.40625 38.703125 51.203125 42.890625 
Q 51 47.09375 50.203125 51.09375 
Q 49.40625 55.09375 47.90625 58.6875 
Q 46.40625 62.296875 43.796875 65 
Q 41.203125 67.703125 37.25 69.296875 
Q 33.296875 70.90625 27.796875 70.90625 
Q 22.296875 70.90625 18.34375 69.296875 
Q 14.40625 67.703125 11.796875 65 
Q 9.203125 62.296875 7.703125 58.6875 
Q 6.203125 55.09375 5.390625 51.09375 
Q 4.59375 47.09375 4.390625 42.890625 
Q 4.203125 38.703125 4.203125 34.796875 
z
" id="HelveticaNeue-48"/>
      </defs>
      <g transform="translate(31.84 179.635)scale(0.08 -0.08)">
       <use xlink:href="#HelveticaNeue-48"/>
      </g>
     </g>
    </g>
    <g id="xtick_2">
     <g id="line2d_3">
      <path clip-path="url(#p660a9eb7c7)" d="M 63.154659 167.9225 
L 63.154659 23.9225 
" style="fill:none;stroke:#000000;stroke-linecap:square;stroke-opacity:0.1;stroke-width:0.6;"/>
     </g>
     <g id="line2d_4">
      <g>
       <use style="stroke:#000000;stroke-width:0.6;" x="63.154659" xlink:href="#mb0fb90120e" y="167.9225"/>
      </g>
     </g>
     <g id="text_2">
      <!-- 20 -->
      <defs>
       <path d="M 4.40625 45.796875 
L 12.90625 45.796875 
Q 12.796875 49 13.546875 52.140625 
Q 14.296875 55.296875 16 57.796875 
Q 17.703125 60.296875 20.34375 61.84375 
Q 23 63.40625 26.703125 63.40625 
Q 29.5 63.40625 32 62.5 
Q 34.5 61.59375 36.34375 59.890625 
Q 38.203125 58.203125 39.296875 55.84375 
Q 40.40625 53.5 40.40625 50.59375 
Q 40.40625 46.90625 39.25 44.09375 
Q 38.09375 41.296875 35.84375 38.890625 
Q 33.59375 36.5 30.1875 34.140625 
Q 26.796875 31.796875 22.296875 29 
Q 18.59375 26.796875 15.1875 24.296875 
Q 11.796875 21.796875 9.09375 18.5 
Q 6.40625 15.203125 4.65625 10.75 
Q 2.90625 6.296875 2.40625 0 
L 48.703125 0 
L 48.703125 7.5 
L 12.296875 7.5 
Q 12.90625 10.796875 14.84375 13.34375 
Q 16.796875 15.90625 19.546875 18.09375 
Q 22.296875 20.296875 25.59375 22.25 
Q 28.90625 24.203125 32.203125 26.203125 
Q 35.5 28.296875 38.59375 30.59375 
Q 41.703125 32.90625 44.09375 35.75 
Q 46.5 38.59375 47.953125 42.1875 
Q 49.40625 45.796875 49.40625 50.5 
Q 49.40625 55.5 47.65625 59.296875 
Q 45.90625 63.09375 42.90625 65.640625 
Q 39.90625 68.203125 35.84375 69.546875 
Q 31.796875 70.90625 27.203125 70.90625 
Q 21.59375 70.90625 17.1875 69 
Q 12.796875 67.09375 9.84375 63.75 
Q 6.90625 60.40625 5.5 55.796875 
Q 4.09375 51.203125 4.40625 45.796875 
z
" id="HelveticaNeue-50"/>
      </defs>
      <g transform="translate(58.707159 179.635)scale(0.08 -0.08)">
       <use xlink:href="#HelveticaNeue-50"/>
       <use x="55.599991" xlink:href="#HelveticaNeue-48"/>
      </g>
     </g>
    </g>
    <g id="xtick_3">
     <g id="line2d_5">
      <path clip-path="url(#p660a9eb7c7)" d="M 92.245568 167.9225 
L 92.245568 23.9225 
" style="fill:none;stroke:#000000;stroke-linecap:square;stroke-opacity:0.1;stroke-width:0.6;"/>
     </g>
     <g id="line2d_6">
      <g>
       <use style="stroke:#000000;stroke-width:0.6;" x="92.245568" xlink:href="#mb0fb90120e" y="167.9225"/>
      </g>
     </g>
     <g id="text_3">
      <!-- 40 -->
      <defs>
       <path d="M 33.90625 24.09375 
L 10.09375 24.09375 
L 33.703125 58.796875 
L 33.90625 58.796875 
z
M 41.90625 24.09375 
L 41.90625 70.90625 
L 35.09375 70.90625 
L 2.796875 24.796875 
L 2.796875 16.59375 
L 33.90625 16.59375 
L 33.90625 0 
L 41.90625 0 
L 41.90625 16.59375 
L 51.5 16.59375 
L 51.5 24.09375 
z
" id="HelveticaNeue-52"/>
      </defs>
      <g transform="translate(87.798068 179.635)scale(0.08 -0.08)">
       <use xlink:href="#HelveticaNeue-52"/>
       <use x="55.599991" xlink:href="#HelveticaNeue-48"/>
      </g>
     </g>
    </g>
    <g id="xtick_4">
     <g id="line2d_7">
      <path clip-path="url(#p660a9eb7c7)" d="M 121.336477 167.9225 
L 121.336477 23.9225 
" style="fill:none;stroke:#000000;stroke-linecap:square;stroke-opacity:0.1;stroke-width:0.6;"/>
     </g>
     <g id="line2d_8">
      <g>
       <use style="stroke:#000000;stroke-width:0.6;" x="121.336477" xlink:href="#mb0fb90120e" y="167.9225"/>
      </g>
     </g>
     <g id="text_4">
      <!-- 60 -->
      <defs>
       <path d="M 41.40625 52.796875 
L 49.90625 52.796875 
Q 49.09375 61.59375 43.890625 66.25 
Q 38.703125 70.90625 29.90625 70.90625 
Q 22.296875 70.90625 17.296875 67.703125 
Q 12.296875 64.5 9.296875 59.203125 
Q 6.296875 53.90625 5.046875 47.046875 
Q 3.796875 40.203125 3.796875 32.90625 
Q 3.796875 27.296875 4.640625 21.296875 
Q 5.5 15.296875 8.09375 10.296875 
Q 10.703125 5.296875 15.5 2.09375 
Q 20.296875 -1.09375 28.203125 -1.09375 
Q 34.90625 -1.09375 39.453125 1.15625 
Q 44 3.40625 46.75 6.84375 
Q 49.5 10.296875 50.703125 14.5 
Q 51.90625 18.703125 51.90625 22.59375 
Q 51.90625 27.5 50.40625 31.703125 
Q 48.90625 35.90625 46.15625 39 
Q 43.40625 42.09375 39.34375 43.84375 
Q 35.296875 45.59375 30.203125 45.59375 
Q 24.40625 45.59375 19.953125 43.390625 
Q 15.5 41.203125 12.5 36.296875 
L 12.296875 36.5 
Q 12.40625 40.59375 13.09375 45.296875 
Q 13.796875 50 15.640625 54.046875 
Q 17.5 58.09375 20.796875 60.75 
Q 24.09375 63.40625 29.5 63.40625 
Q 34.59375 63.40625 37.6875 60.5 
Q 40.796875 57.59375 41.40625 52.796875 
z
M 28.59375 38.09375 
Q 32.203125 38.09375 34.890625 36.796875 
Q 37.59375 35.5 39.390625 33.34375 
Q 41.203125 31.203125 42.046875 28.25 
Q 42.90625 25.296875 42.90625 22 
Q 42.90625 18.90625 41.953125 16.046875 
Q 41 13.203125 39.203125 11 
Q 37.40625 8.796875 34.75 7.546875 
Q 32.09375 6.296875 28.59375 6.296875 
Q 25.09375 6.296875 22.34375 7.546875 
Q 19.59375 8.796875 17.75 10.890625 
Q 15.90625 13 14.90625 15.890625 
Q 13.90625 18.796875 13.90625 22.09375 
Q 13.90625 25.40625 14.84375 28.34375 
Q 15.796875 31.296875 17.6875 33.4375 
Q 19.59375 35.59375 22.296875 36.84375 
Q 25 38.09375 28.59375 38.09375 
z
" id="HelveticaNeue-54"/>
      </defs>
      <g transform="translate(116.888977 179.635)scale(0.08 -0.08)">
       <use xlink:href="#HelveticaNeue-54"/>
       <use x="55.599991" xlink:href="#HelveticaNeue-48"/>
      </g>
     </g>
    </g>
    <g id="xtick_5">
     <g id="line2d_9">
      <path clip-path="url(#p660a9eb7c7)" d="M 150.427386 167.9225 
L 150.427386 23.9225 
" style="fill:none;stroke:#000000;stroke-linecap:square;stroke-opacity:0.1;stroke-width:0.6;"/>
     </g>
     <g id="line2d_10">
      <g>
       <use style="stroke:#000000;stroke-width:0.6;" x="150.427386" xlink:href="#mb0fb90120e" y="167.9225"/>
      </g>
     </g>
     <g id="text_5">
      <!-- 80 -->
      <defs>
       <path d="M 15.5 52.5 
Q 15.5 55.203125 16.5 57.203125 
Q 17.5 59.203125 19.140625 60.59375 
Q 20.796875 62 23.09375 62.703125 
Q 25.40625 63.40625 27.90625 63.40625 
Q 33.09375 63.40625 36.4375 60.65625 
Q 39.796875 57.90625 39.796875 52.5 
Q 39.796875 47.09375 36.5 44.09375 
Q 33.203125 41.09375 28.09375 41.09375 
Q 25.5 41.09375 23.203125 41.796875 
Q 20.90625 42.5 19.203125 43.890625 
Q 17.5 45.296875 16.5 47.4375 
Q 15.5 49.59375 15.5 52.5 
z
M 6.5 52.796875 
Q 6.5 48 9.203125 43.953125 
Q 11.90625 39.90625 16.40625 38.09375 
Q 10.40625 36 7.203125 31.34375 
Q 4 26.703125 4 20.40625 
Q 4 15 5.84375 10.953125 
Q 7.703125 6.90625 10.953125 4.203125 
Q 14.203125 1.5 18.59375 0.203125 
Q 23 -1.09375 28.09375 -1.09375 
Q 33 -1.09375 37.296875 0.296875 
Q 41.59375 1.703125 44.75 4.453125 
Q 47.90625 7.203125 49.75 11.203125 
Q 51.59375 15.203125 51.59375 20.40625 
Q 51.59375 27 48.5 31.546875 
Q 45.40625 36.09375 39 38.09375 
Q 43.5 40.09375 46.140625 44.046875 
Q 48.796875 48 48.796875 52.796875 
Q 48.796875 56.203125 47.59375 59.453125 
Q 46.40625 62.703125 43.84375 65.25 
Q 41.296875 67.796875 37.1875 69.34375 
Q 33.09375 70.90625 27.296875 70.90625 
Q 23.203125 70.90625 19.453125 69.703125 
Q 15.703125 68.5 12.796875 66.203125 
Q 9.90625 63.90625 8.203125 60.546875 
Q 6.5 57.203125 6.5 52.796875 
z
M 13 20 
Q 13 23.09375 14.140625 25.59375 
Q 15.296875 28.09375 17.34375 29.890625 
Q 19.40625 31.703125 22.15625 32.640625 
Q 24.90625 33.59375 28 33.59375 
Q 31 33.59375 33.640625 32.546875 
Q 36.296875 31.5 38.296875 29.703125 
Q 40.296875 27.90625 41.4375 25.453125 
Q 42.59375 23 42.59375 20.09375 
Q 42.59375 17.09375 41.546875 14.59375 
Q 40.5 12.09375 38.546875 10.25 
Q 36.59375 8.40625 33.9375 7.34375 
Q 31.296875 6.296875 28.09375 6.296875 
Q 21.5 6.296875 17.25 9.9375 
Q 13 13.59375 13 20 
z
" id="HelveticaNeue-56"/>
      </defs>
      <g transform="translate(145.979886 179.635)scale(0.08 -0.08)">
       <use xlink:href="#HelveticaNeue-56"/>
       <use x="55.599991" xlink:href="#HelveticaNeue-48"/>
      </g>
     </g>
    </g>
    <g id="text_6">
     <!-- x axis -->
     <defs>
      <path d="M 20.296875 27.203125 
L 0.90625 0 
L 11.203125 0 
L 25.59375 21.40625 
L 40 0 
L 50.90625 0 
L 30.90625 27.90625 
L 48.703125 51.703125 
L 38.5 51.703125 
L 25.59375 33.59375 
L 13.203125 51.703125 
L 2.296875 51.703125 
z
" id="HelveticaNeue-120"/>
      <path id="HelveticaNeue-32"/>
      <path d="M 52.203125 0.203125 
Q 50 -1.09375 46.09375 -1.09375 
Q 42.796875 -1.09375 40.84375 0.75 
Q 38.90625 2.59375 38.90625 6.796875 
Q 35.40625 2.59375 30.75 0.75 
Q 26.09375 -1.09375 20.703125 -1.09375 
Q 17.203125 -1.09375 14.046875 -0.296875 
Q 10.90625 0.5 8.59375 2.203125 
Q 6.296875 3.90625 4.9375 6.65625 
Q 3.59375 9.40625 3.59375 13.296875 
Q 3.59375 17.703125 5.09375 20.5 
Q 6.59375 23.296875 9.046875 25.046875 
Q 11.5 26.796875 14.640625 27.6875 
Q 17.796875 28.59375 21.09375 29.203125 
Q 24.59375 29.90625 27.75 30.25 
Q 30.90625 30.59375 33.296875 31.25 
Q 35.703125 31.90625 37.09375 33.15625 
Q 38.5 34.40625 38.5 36.796875 
Q 38.5 39.59375 37.453125 41.296875 
Q 36.40625 43 34.75 43.890625 
Q 33.09375 44.796875 31.046875 45.09375 
Q 29 45.40625 27 45.40625 
Q 21.59375 45.40625 18 43.34375 
Q 14.40625 41.296875 14.09375 35.59375 
L 5.59375 35.59375 
Q 5.796875 40.40625 7.59375 43.703125 
Q 9.40625 47 12.40625 49.046875 
Q 15.40625 51.09375 19.25 52 
Q 23.09375 52.90625 27.5 52.90625 
Q 31 52.90625 34.453125 52.40625 
Q 37.90625 51.90625 40.703125 50.34375 
Q 43.5 48.796875 45.203125 46 
Q 46.90625 43.203125 46.90625 38.703125 
L 46.90625 12.09375 
Q 46.90625 9.09375 47.25 7.6875 
Q 47.59375 6.296875 49.59375 6.296875 
Q 50.703125 6.296875 52.203125 6.796875 
z
M 38.40625 26.703125 
Q 36.796875 25.5 34.1875 24.953125 
Q 31.59375 24.40625 28.75 24.046875 
Q 25.90625 23.703125 23 23.25 
Q 20.09375 22.796875 17.796875 21.796875 
Q 15.5 20.796875 14.046875 18.9375 
Q 12.59375 17.09375 12.59375 13.90625 
Q 12.59375 11.796875 13.4375 10.34375 
Q 14.296875 8.90625 15.640625 8 
Q 17 7.09375 18.796875 6.6875 
Q 20.59375 6.296875 22.59375 6.296875 
Q 26.796875 6.296875 29.796875 7.4375 
Q 32.796875 8.59375 34.6875 10.34375 
Q 36.59375 12.09375 37.5 14.140625 
Q 38.40625 16.203125 38.40625 18 
z
" id="HelveticaNeue-97"/>
      <path d="M 15.40625 61 
L 15.40625 71.40625 
L 6.90625 71.40625 
L 6.90625 61 
z
M 6.90625 51.703125 
L 6.90625 0 
L 15.40625 0 
L 15.40625 51.703125 
z
" id="HelveticaNeue-105"/>
      <path d="M 11.59375 16.296875 
L 3.09375 16.296875 
Q 3.296875 11.5 5.09375 8.140625 
Q 6.90625 4.796875 9.90625 2.75 
Q 12.90625 0.703125 16.796875 -0.1875 
Q 20.703125 -1.09375 25 -1.09375 
Q 28.90625 -1.09375 32.84375 -0.34375 
Q 36.796875 0.40625 39.9375 2.296875 
Q 43.09375 4.203125 45.046875 7.296875 
Q 47 10.40625 47 15.09375 
Q 47 18.796875 45.546875 21.296875 
Q 44.09375 23.796875 41.75 25.4375 
Q 39.40625 27.09375 36.34375 28.09375 
Q 33.296875 29.09375 30.09375 29.796875 
Q 27.09375 30.5 24.09375 31.140625 
Q 21.09375 31.796875 18.6875 32.75 
Q 16.296875 33.703125 14.75 35.140625 
Q 13.203125 36.59375 13.203125 38.796875 
Q 13.203125 40.796875 14.203125 42.046875 
Q 15.203125 43.296875 16.796875 44.046875 
Q 18.40625 44.796875 20.34375 45.09375 
Q 22.296875 45.40625 24.203125 45.40625 
Q 26.296875 45.40625 28.34375 44.953125 
Q 30.40625 44.5 32.09375 43.5 
Q 33.796875 42.5 34.890625 40.84375 
Q 36 39.203125 36.203125 36.703125 
L 44.703125 36.703125 
Q 44.40625 41.40625 42.703125 44.546875 
Q 41 47.703125 38.140625 49.546875 
Q 35.296875 51.40625 31.59375 52.15625 
Q 27.90625 52.90625 23.5 52.90625 
Q 20.09375 52.90625 16.640625 52.046875 
Q 13.203125 51.203125 10.453125 49.453125 
Q 7.703125 47.703125 5.953125 44.890625 
Q 4.203125 42.09375 4.203125 38.203125 
Q 4.203125 33.203125 6.703125 30.390625 
Q 9.203125 27.59375 12.953125 26.046875 
Q 16.703125 24.5 21.09375 23.640625 
Q 25.5 22.796875 29.25 21.75 
Q 33 20.703125 35.5 19 
Q 38 17.296875 38 14 
Q 38 11.59375 36.796875 10.046875 
Q 35.59375 8.5 33.75 7.703125 
Q 31.90625 6.90625 29.703125 6.59375 
Q 27.5 6.296875 25.5 6.296875 
Q 22.90625 6.296875 20.453125 6.796875 
Q 18 7.296875 16.046875 8.4375 
Q 14.09375 9.59375 12.890625 11.546875 
Q 11.703125 13.5 11.59375 16.296875 
z
" id="HelveticaNeue-115"/>
     </defs>
     <g transform="translate(173.771875 189.92375)scale(0.08 -0.08)">
      <use xlink:href="#HelveticaNeue-120"/>
      <use x="51.799988" xlink:href="#HelveticaNeue-32"/>
      <use x="79.599976" xlink:href="#HelveticaNeue-97"/>
      <use x="133.299973" xlink:href="#HelveticaNeue-120"/>
      <use x="185.09996" xlink:href="#HelveticaNeue-105"/>
      <use x="207.299957" xlink:href="#HelveticaNeue-115"/>
     </g>
    </g>
   </g>
   <g id="matplotlib.axis_2">
    <g id="ytick_1">
     <g id="line2d_11">
      <path clip-path="url(#p660a9eb7c7)" d="M 34.06375 164.416576 
L 178.06375 164.416576 
" style="fill:none;stroke:#000000;stroke-linecap:square;stroke-opacity:0.1;stroke-width:0.6;"/>
     </g>
     <g id="line2d_12">
      <defs>
       <path d="M 0 0 
L -4 0 
" id="m3595271a26" style="stroke:#000000;stroke-width:0.6;"/>
      </defs>
      <g>
       <use style="stroke:#000000;stroke-width:0.6;" x="34.06375" xlink:href="#m3595271a26" y="164.416576"/>
      </g>
     </g>
     <g id="text_7">
      <!-- −10 -->
      <defs>
       <path d="M 4.796875 28.703125 
L 4.796875 21.90625 
L 55.203125 21.90625 
L 55.203125 28.703125 
z
" id="HelveticaNeue-8722"/>
       <path d="M 35.59375 0 
L 35.59375 70.90625 
L 29.09375 70.90625 
Q 28.40625 66.90625 26.5 64.296875 
Q 24.59375 61.703125 21.84375 60.203125 
Q 19.09375 58.703125 15.6875 58.140625 
Q 12.296875 57.59375 8.703125 57.59375 
L 8.703125 50.796875 
L 27.09375 50.796875 
L 27.09375 0 
z
" id="HelveticaNeue-49"/>
      </defs>
      <g transform="translate(14.36875 167.272826)scale(0.08 -0.08)">
       <use xlink:href="#HelveticaNeue-8722"/>
       <use x="59.999985" xlink:href="#HelveticaNeue-49"/>
       <use x="115.599976" xlink:href="#HelveticaNeue-48"/>
      </g>
     </g>
    </g>
    <g id="ytick_2">
     <g id="line2d_13">
      <path clip-path="url(#p660a9eb7c7)" d="M 34.06375 148.27565 
L 178.06375 148.27565 
" style="fill:none;stroke:#000000;stroke-linecap:square;stroke-opacity:0.1;stroke-width:0.6;"/>
     </g>
     <g id="line2d_14">
      <g>
       <use style="stroke:#000000;stroke-width:0.6;" x="34.06375" xlink:href="#m3595271a26" y="148.27565"/>
      </g>
     </g>
     <g id="text_8">
      <!-- −8 -->
      <g transform="translate(18.81625 151.1319)scale(0.08 -0.08)">
       <use xlink:href="#HelveticaNeue-8722"/>
       <use x="59.999985" xlink:href="#HelveticaNeue-56"/>
      </g>
     </g>
    </g>
    <g id="ytick_3">
     <g id="line2d_15">
      <path clip-path="url(#p660a9eb7c7)" d="M 34.06375 132.134725 
L 178.06375 132.134725 
" style="fill:none;stroke:#000000;stroke-linecap:square;stroke-opacity:0.1;stroke-width:0.6;"/>
     </g>
     <g id="line2d_16">
      <g>
       <use style="stroke:#000000;stroke-width:0.6;" x="34.06375" xlink:href="#m3595271a26" y="132.134725"/>
      </g>
     </g>
     <g id="text_9">
      <!-- −6 -->
      <g transform="translate(18.81625 134.990975)scale(0.08 -0.08)">
       <use xlink:href="#HelveticaNeue-8722"/>
       <use x="59.999985" xlink:href="#HelveticaNeue-54"/>
      </g>
     </g>
    </g>
    <g id="ytick_4">
     <g id="line2d_17">
      <path clip-path="url(#p660a9eb7c7)" d="M 34.06375 115.993799 
L 178.06375 115.993799 
" style="fill:none;stroke:#000000;stroke-linecap:square;stroke-opacity:0.1;stroke-width:0.6;"/>
     </g>
     <g id="line2d_18">
      <g>
       <use style="stroke:#000000;stroke-width:0.6;" x="34.06375" xlink:href="#m3595271a26" y="115.993799"/>
      </g>
     </g>
     <g id="text_10">
      <!-- −4 -->
      <g transform="translate(18.81625 118.850049)scale(0.08 -0.08)">
       <use xlink:href="#HelveticaNeue-8722"/>
       <use x="59.999985" xlink:href="#HelveticaNeue-52"/>
      </g>
     </g>
    </g>
    <g id="ytick_5">
     <g id="line2d_19">
      <path clip-path="url(#p660a9eb7c7)" d="M 34.06375 99.852874 
L 178.06375 99.852874 
" style="fill:none;stroke:#000000;stroke-linecap:square;stroke-opacity:0.1;stroke-width:0.6;"/>
     </g>
     <g id="line2d_20">
      <g>
       <use style="stroke:#000000;stroke-width:0.6;" x="34.06375" xlink:href="#m3595271a26" y="99.852874"/>
      </g>
     </g>
     <g id="text_11">
      <!-- −2 -->
      <g transform="translate(18.81625 102.709124)scale(0.08 -0.08)">
       <use xlink:href="#HelveticaNeue-8722"/>
       <use x="59.999985" xlink:href="#HelveticaNeue-50"/>
      </g>
     </g>
    </g>
    <g id="ytick_6">
     <g id="line2d_21">
      <path clip-path="url(#p660a9eb7c7)" d="M 34.06375 83.711948 
L 178.06375 83.711948 
" style="fill:none;stroke:#000000;stroke-linecap:square;stroke-opacity:0.1;stroke-width:0.6;"/>
     </g>
     <g id="line2d_22">
      <g>
       <use style="stroke:#000000;stroke-width:0.6;" x="34.06375" xlink:href="#m3595271a26" y="83.711948"/>
      </g>
     </g>
     <g id="text_12">
      <!-- 0 -->
      <g transform="translate(23.61625 86.568198)scale(0.08 -0.08)">
       <use xlink:href="#HelveticaNeue-48"/>
      </g>
     </g>
    </g>
    <g id="ytick_7">
     <g id="line2d_23">
      <path clip-path="url(#p660a9eb7c7)" d="M 34.06375 67.571023 
L 178.06375 67.571023 
" style="fill:none;stroke:#000000;stroke-linecap:square;stroke-opacity:0.1;stroke-width:0.6;"/>
     </g>
     <g id="line2d_24">
      <g>
       <use style="stroke:#000000;stroke-width:0.6;" x="34.06375" xlink:href="#m3595271a26" y="67.571023"/>
      </g>
     </g>
     <g id="text_13">
      <!-- 2 -->
      <g transform="translate(23.61625 70.427273)scale(0.08 -0.08)">
       <use xlink:href="#HelveticaNeue-50"/>
      </g>
     </g>
    </g>
    <g id="ytick_8">
     <g id="line2d_25">
      <path clip-path="url(#p660a9eb7c7)" d="M 34.06375 51.430097 
L 178.06375 51.430097 
" style="fill:none;stroke:#000000;stroke-linecap:square;stroke-opacity:0.1;stroke-width:0.6;"/>
     </g>
     <g id="line2d_26">
      <g>
       <use style="stroke:#000000;stroke-width:0.6;" x="34.06375" xlink:href="#m3595271a26" y="51.430097"/>
      </g>
     </g>
     <g id="text_14">
      <!-- 4 -->
      <g transform="translate(23.61625 54.286347)scale(0.08 -0.08)">
       <use xlink:href="#HelveticaNeue-52"/>
      </g>
     </g>
    </g>
    <g id="ytick_9">
     <g id="line2d_27">
      <path clip-path="url(#p660a9eb7c7)" d="M 34.06375 35.289172 
L 178.06375 35.289172 
" style="fill:none;stroke:#000000;stroke-linecap:square;stroke-opacity:0.1;stroke-width:0.6;"/>
     </g>
     <g id="line2d_28">
      <g>
       <use style="stroke:#000000;stroke-width:0.6;" x="34.06375" xlink:href="#m3595271a26" y="35.289172"/>
      </g>
     </g>
     <g id="text_15">
      <!-- 6 -->
      <g transform="translate(23.61625 38.145422)scale(0.08 -0.08)">
       <use xlink:href="#HelveticaNeue-54"/>
      </g>
     </g>
    </g>
    <g id="ytick_10">
     <g id="line2d_29">
      <defs>
       <path d="M 0 0 
L -2 0 
" id="mb2cd111ba4" style="stroke:#000000;stroke-width:0.48;"/>
      </defs>
      <g>
       <use style="stroke:#000000;stroke-width:0.48;" x="34.06375" xlink:href="#mb2cd111ba4" y="160.381345"/>
      </g>
     </g>
    </g>
    <g id="ytick_11">
     <g id="line2d_30">
      <g>
       <use style="stroke:#000000;stroke-width:0.48;" x="34.06375" xlink:href="#mb2cd111ba4" y="156.346113"/>
      </g>
     </g>
    </g>
    <g id="ytick_12">
     <g id="line2d_31">
      <g>
       <use style="stroke:#000000;stroke-width:0.48;" x="34.06375" xlink:href="#mb2cd111ba4" y="152.310882"/>
      </g>
     </g>
    </g>
    <g id="ytick_13">
     <g id="line2d_32">
      <g>
       <use style="stroke:#000000;stroke-width:0.48;" x="34.06375" xlink:href="#mb2cd111ba4" y="144.240419"/>
      </g>
     </g>
    </g>
    <g id="ytick_14">
     <g id="line2d_33">
      <g>
       <use style="stroke:#000000;stroke-width:0.48;" x="34.06375" xlink:href="#mb2cd111ba4" y="140.205188"/>
      </g>
     </g>
    </g>
    <g id="ytick_15">
     <g id="line2d_34">
      <g>
       <use style="stroke:#000000;stroke-width:0.48;" x="34.06375" xlink:href="#mb2cd111ba4" y="136.169956"/>
      </g>
     </g>
    </g>
    <g id="ytick_16">
     <g id="line2d_35">
      <g>
       <use style="stroke:#000000;stroke-width:0.48;" x="34.06375" xlink:href="#mb2cd111ba4" y="128.099493"/>
      </g>
     </g>
    </g>
    <g id="ytick_17">
     <g id="line2d_36">
      <g>
       <use style="stroke:#000000;stroke-width:0.48;" x="34.06375" xlink:href="#mb2cd111ba4" y="124.064262"/>
      </g>
     </g>
    </g>
    <g id="ytick_18">
     <g id="line2d_37">
      <g>
       <use style="stroke:#000000;stroke-width:0.48;" x="34.06375" xlink:href="#mb2cd111ba4" y="120.029031"/>
      </g>
     </g>
    </g>
    <g id="ytick_19">
     <g id="line2d_38">
      <g>
       <use style="stroke:#000000;stroke-width:0.48;" x="34.06375" xlink:href="#mb2cd111ba4" y="111.958568"/>
      </g>
     </g>
    </g>
    <g id="ytick_20">
     <g id="line2d_39">
      <g>
       <use style="stroke:#000000;stroke-width:0.48;" x="34.06375" xlink:href="#mb2cd111ba4" y="107.923336"/>
      </g>
     </g>
    </g>
    <g id="ytick_21">
     <g id="line2d_40">
      <g>
       <use style="stroke:#000000;stroke-width:0.48;" x="34.06375" xlink:href="#mb2cd111ba4" y="103.888105"/>
      </g>
     </g>
    </g>
    <g id="ytick_22">
     <g id="line2d_41">
      <g>
       <use style="stroke:#000000;stroke-width:0.48;" x="34.06375" xlink:href="#mb2cd111ba4" y="95.817642"/>
      </g>
     </g>
    </g>
    <g id="ytick_23">
     <g id="line2d_42">
      <g>
       <use style="stroke:#000000;stroke-width:0.48;" x="34.06375" xlink:href="#mb2cd111ba4" y="91.782411"/>
      </g>
     </g>
    </g>
    <g id="ytick_24">
     <g id="line2d_43">
      <g>
       <use style="stroke:#000000;stroke-width:0.48;" x="34.06375" xlink:href="#mb2cd111ba4" y="87.74718"/>
      </g>
     </g>
    </g>
    <g id="ytick_25">
     <g id="line2d_44">
      <g>
       <use style="stroke:#000000;stroke-width:0.48;" x="34.06375" xlink:href="#mb2cd111ba4" y="79.676717"/>
      </g>
     </g>
    </g>
    <g id="ytick_26">
     <g id="line2d_45">
      <g>
       <use style="stroke:#000000;stroke-width:0.48;" x="34.06375" xlink:href="#mb2cd111ba4" y="75.641485"/>
      </g>
     </g>
    </g>
    <g id="ytick_27">
     <g id="line2d_46">
      <g>
       <use style="stroke:#000000;stroke-width:0.48;" x="34.06375" xlink:href="#mb2cd111ba4" y="71.606254"/>
      </g>
     </g>
    </g>
    <g id="ytick_28">
     <g id="line2d_47">
      <g>
       <use style="stroke:#000000;stroke-width:0.48;" x="34.06375" xlink:href="#mb2cd111ba4" y="63.535791"/>
      </g>
     </g>
    </g>
    <g id="ytick_29">
     <g id="line2d_48">
      <g>
       <use style="stroke:#000000;stroke-width:0.48;" x="34.06375" xlink:href="#mb2cd111ba4" y="59.50056"/>
      </g>
     </g>
    </g>
    <g id="ytick_30">
     <g id="line2d_49">
      <g>
       <use style="stroke:#000000;stroke-width:0.48;" x="34.06375" xlink:href="#mb2cd111ba4" y="55.465328"/>
      </g>
     </g>
    </g>
    <g id="ytick_31">
     <g id="line2d_50">
      <g>
       <use style="stroke:#000000;stroke-width:0.48;" x="34.06375" xlink:href="#mb2cd111ba4" y="47.394866"/>
      </g>
     </g>
    </g>
    <g id="ytick_32">
     <g id="line2d_51">
      <g>
       <use style="stroke:#000000;stroke-width:0.48;" x="34.06375" xlink:href="#mb2cd111ba4" y="43.359634"/>
      </g>
     </g>
    </g>
    <g id="ytick_33">
     <g id="line2d_52">
      <g>
       <use style="stroke:#000000;stroke-width:0.48;" x="34.06375" xlink:href="#mb2cd111ba4" y="39.324403"/>
      </g>
     </g>
    </g>
    <g id="ytick_34">
     <g id="line2d_53">
      <g>
       <use style="stroke:#000000;stroke-width:0.48;" x="34.06375" xlink:href="#mb2cd111ba4" y="31.25394"/>
      </g>
     </g>
    </g>
    <g id="ytick_35">
     <g id="line2d_54">
      <g>
       <use style="stroke:#000000;stroke-width:0.48;" x="34.06375" xlink:href="#mb2cd111ba4" y="27.218709"/>
      </g>
     </g>
    </g>
    <g id="text_16">
     <!-- y axis -->
     <defs>
      <path d="M 26.703125 -6.90625 
Q 25.203125 -10.703125 23.75 -13.296875 
Q 22.296875 -15.90625 20.546875 -17.546875 
Q 18.796875 -19.203125 16.640625 -19.953125 
Q 14.5 -20.703125 11.703125 -20.703125 
Q 10.203125 -20.703125 8.703125 -20.5 
Q 7.203125 -20.296875 5.796875 -19.796875 
L 5.796875 -12 
Q 6.90625 -12.5 8.34375 -12.84375 
Q 9.796875 -13.203125 10.796875 -13.203125 
Q 13.40625 -13.203125 15.15625 -11.953125 
Q 16.90625 -10.703125 17.796875 -8.40625 
L 21.296875 0.296875 
L 0.796875 51.703125 
L 10.40625 51.703125 
L 25.5 9.40625 
L 25.703125 9.40625 
L 40.203125 51.703125 
L 49.203125 51.703125 
z
" id="HelveticaNeue-121"/>
     </defs>
     <g transform="translate(9.7125 106.1425)rotate(-90)scale(0.08 -0.08)">
      <use xlink:href="#HelveticaNeue-121"/>
      <use x="49.999985" xlink:href="#HelveticaNeue-32"/>
      <use x="77.799973" xlink:href="#HelveticaNeue-97"/>
      <use x="131.499969" xlink:href="#HelveticaNeue-120"/>
      <use x="183.299957" xlink:href="#HelveticaNeue-105"/>
      <use x="205.499954" xlink:href="#HelveticaNeue-115"/>
     </g>
    </g>
   </g>
   <g id="line2d_55">
    <path clip-path="url(#p660a9eb7c7)" d="M 34.06375 88.992138 
L 35.518295 95.714456 
L 36.972841 99.78573 
L 38.427386 102.758542 
L 39.881932 99.785781 
L 41.336477 99.902855 
L 42.791023 97.074926 
L 44.245568 97.409892 
L 45.700114 91.507013 
L 47.154659 93.052996 
L 48.609205 85.371332 
L 50.06375 89.031181 
L 51.518295 82.129208 
L 52.972841 88.877209 
L 54.427386 84.958673 
L 55.881932 86.381304 
L 57.336477 81.382894 
L 58.791023 80.542944 
L 60.245568 81.354927 
L 61.700114 76.885446 
L 63.154659 70.311897 
L 64.609205 71.600914 
L 66.06375 64.402793 
L 67.518295 64.750859 
L 68.972841 71.921412 
L 70.427386 74.051571 
L 71.881932 81.729002 
L 73.336477 74.340832 
L 74.791023 79.740012 
L 76.245568 87.114679 
L 77.700114 93.462402 
L 79.154659 93.919564 
L 80.609205 97.00242 
L 82.06375 94.816101 
L 83.518295 100.606865 
L 84.972841 106.403114 
L 86.427386 101.258498 
L 87.881932 94.421023 
L 89.336477 99.328574 
L 90.791023 105.04373 
L 92.245568 105.068038 
L 93.700114 98.731175 
L 95.154659 95.854772 
L 96.609205 93.064956 
L 98.06375 97.896792 
L 99.518295 91.166344 
L 100.972841 93.78489 
L 102.427386 94.819193 
L 103.881932 92.444511 
L 105.336477 100.40031 
L 106.791023 101.669655 
L 108.245568 102.451913 
L 109.700114 94.431831 
L 111.154659 93.13334 
L 112.609205 96.744302 
L 114.06375 91.984933 
L 115.518295 91.749137 
L 116.972841 84.466249 
L 118.427386 76.911413 
L 119.881932 70.17405 
L 121.336477 67.81544 
L 122.791023 71.79141 
L 124.245568 75.46906 
L 125.700114 75.449139 
L 127.154659 76.950981 
L 128.609205 69.058595 
L 130.06375 61.11054 
L 131.518295 63.443233 
L 132.972841 62.003867 
L 134.427386 64.79697 
L 135.881932 59.061917 
L 137.336477 63.516831 
L 138.791023 61.845577 
L 140.245568 66.282364 
L 141.700114 62.116444 
L 143.154659 67.545305 
L 144.609205 69.288299 
L 146.06375 70.987007 
L 147.518295 79.0193 
L 148.972841 80.619156 
L 150.427386 87.927876 
L 151.881932 91.016629 
L 153.336477 98.075455 
L 154.791023 102.841773 
L 156.245568 110.339763 
L 157.700114 117.889324 
L 159.154659 117.160358 
L 160.609205 111.493787 
L 162.06375 112.379503 
L 163.518295 108.96445 
L 164.972841 108.449849 
L 166.427386 113.689181 
L 167.881932 118.452724 
L 169.336477 112.474772 
L 170.791023 111.767933 
L 172.245568 119.136725 
L 173.700114 118.368615 
L 175.154659 120.715077 
L 176.609205 114.439593 
L 178.06375 112.918622 
" style="fill:none;stroke:#0072b2;stroke-linecap:square;stroke-width:2;"/>
   </g>
   <g id="line2d_56">
    <path clip-path="url(#p660a9eb7c7)" d="M 34.06375 82.815876 
L 35.518295 82.658459 
L 36.972841 80.52694 
L 38.427386 78.612515 
L 39.881932 74.841882 
L 41.336477 77.308137 
L 42.791023 71.045438 
L 44.245568 71.84651 
L 45.700114 73.242465 
L 47.154659 81.165554 
L 48.609205 81.939275 
L 50.06375 76.404653 
L 51.518295 83.609367 
L 52.972841 79.09119 
L 54.427386 76.340567 
L 55.881932 79.614948 
L 57.336477 77.903009 
L 58.791023 84.44873 
L 60.245568 80.090058 
L 61.700114 73.458666 
L 63.154659 80.549692 
L 64.609205 74.384899 
L 66.06375 81.422663 
L 67.518295 81.851668 
L 68.972841 86.311728 
L 70.427386 83.178037 
L 71.881932 87.472315 
L 73.336477 87.485253 
L 74.791023 92.22995 
L 76.245568 85.852096 
L 77.700114 77.908569 
L 79.154659 76.983288 
L 80.609205 84.382157 
L 82.06375 83.178015 
L 83.518295 83.359928 
L 84.972841 83.478759 
L 86.427386 76.044381 
L 87.881932 83.323622 
L 89.336477 86.671412 
L 90.791023 83.282788 
L 92.245568 87.077104 
L 93.700114 91.210201 
L 95.154659 98.323891 
L 96.609205 98.00304 
L 98.06375 95.122918 
L 99.518295 100.526527 
L 100.972841 99.061502 
L 102.427386 105.810195 
L 103.881932 109.760076 
L 105.336477 105.777408 
L 106.791023 111.808179 
L 108.245568 118.719803 
L 109.700114 123.669556 
L 111.154659 121.413866 
L 112.609205 122.935724 
L 114.06375 123.706227 
L 115.518295 126.742298 
L 116.972841 123.800313 
L 118.427386 131.659483 
L 119.881932 133.497713 
L 121.336477 140.860793 
L 122.791023 145.131968 
L 124.245568 149.973266 
L 125.700114 153.607856 
L 127.154659 154.849569 
L 128.609205 161.564038 
L 130.06375 167.9225 
L 131.518295 162.231251 
L 132.972841 155.064432 
L 134.427386 152.526176 
L 135.881932 154.463955 
L 137.336477 146.417925 
L 138.791023 152.739889 
L 140.245568 153.27382 
L 141.700114 160.223966 
L 143.154659 159.208466 
L 144.609205 154.936874 
L 146.06375 162.123982 
L 147.518295 163.890906 
L 148.972841 157.646822 
L 150.427386 162.147776 
L 151.881932 162.847138 
L 153.336477 157.721106 
L 154.791023 149.66089 
L 156.245568 144.198461 
L 157.700114 149.236753 
L 159.154659 142.121518 
L 160.609205 135.110192 
L 162.06375 138.476796 
L 163.518295 131.144929 
L 164.972841 126.387996 
L 166.427386 128.279904 
L 167.881932 127.311516 
L 169.336477 125.982728 
L 170.791023 122.06675 
L 172.245568 124.323672 
L 173.700114 128.939108 
L 175.154659 122.4111 
L 176.609205 130.476086 
L 178.06375 122.479002 
" style="fill:none;stroke:#d55e00;stroke-linecap:square;stroke-width:2;"/>
   </g>
   <g id="line2d_57">
    <path clip-path="url(#p660a9eb7c7)" d="M 34.06375 84.765735 
L 35.518295 87.352451 
L 36.972841 84.20862 
L 38.427386 83.054115 
L 39.881932 89.318748 
L 41.336477 87.931539 
L 42.791023 89.414776 
L 44.245568 94.719559 
L 45.700114 90.561284 
L 47.154659 88.557307 
L 48.609205 94.974135 
L 50.06375 87.08906 
L 51.518295 95.121563 
L 52.972841 88.002713 
L 54.427386 90.678606 
L 55.881932 96.790273 
L 57.336477 90.546144 
L 58.791023 94.076794 
L 60.245568 89.992322 
L 61.700114 94.108264 
L 63.154659 97.612288 
L 64.609205 92.873778 
L 66.06375 100.006425 
L 67.518295 103.737769 
L 68.972841 110.597188 
L 70.427386 106.193924 
L 71.881932 103.997453 
L 73.336477 105.52311 
L 74.791023 104.122762 
L 76.245568 101.159055 
L 77.700114 107.951063 
L 79.154659 112.156063 
L 80.609205 108.762548 
L 82.06375 116.291231 
L 83.518295 115.362159 
L 84.972841 121.824643 
L 86.427386 120.809448 
L 87.881932 119.38198 
L 89.336477 114.403975 
L 90.791023 111.105222 
L 92.245568 117.494474 
L 93.700114 112.57464 
L 95.154659 116.405253 
L 96.609205 123.353257 
L 98.06375 122.574928 
L 99.518295 120.479055 
L 100.972841 113.88246 
L 102.427386 110.46067 
L 103.881932 117.418324 
L 105.336477 115.716612 
L 106.791023 118.867268 
L 108.245568 123.131149 
L 109.700114 125.924592 
L 111.154659 129.958507 
L 112.609205 135.427404 
L 114.06375 135.188794 
L 115.518295 127.35145 
L 116.972841 130.832084 
L 118.427386 127.737213 
L 119.881932 123.286808 
L 121.336477 118.244929 
L 122.791023 116.313097 
L 124.245568 111.488875 
L 125.700114 115.427003 
L 127.154659 121.888741 
L 128.609205 126.818666 
L 130.06375 128.077764 
L 131.518295 132.05851 
L 132.972841 132.988986 
L 134.427386 130.866908 
L 135.881932 127.956997 
L 137.336477 123.578833 
L 138.791023 117.827289 
L 140.245568 119.141468 
L 141.700114 126.177907 
L 143.154659 121.941935 
L 144.609205 115.924856 
L 146.06375 118.545188 
L 147.518295 113.890126 
L 148.972841 120.639673 
L 150.427386 119.749046 
L 151.881932 121.059277 
L 153.336477 122.765136 
L 154.791023 129.56696 
L 156.245568 124.473841 
L 157.700114 125.67389 
L 159.154659 129.931715 
L 160.609205 132.597011 
L 162.06375 139.547152 
L 163.518295 137.69296 
L 164.972841 136.155803 
L 166.427386 142.486079 
L 167.881932 146.97159 
L 169.336477 149.121435 
L 170.791023 156.63729 
L 172.245568 151.797775 
L 173.700114 144.776898 
L 175.154659 146.146702 
L 176.609205 140.828815 
L 178.06375 132.866874 
" style="fill:none;stroke:#009e73;stroke-linecap:square;stroke-width:2;"/>
   </g>
   <g id="line2d_58">
    <path clip-path="url(#p660a9eb7c7)" d="M 34.06375 82.029182 
L 35.518295 78.644087 
L 36.972841 79.977719 
L 38.427386 85.341754 
L 39.881932 78.588325 
L 41.336477 82.549487 
L 42.791023 82.411764 
L 44.245568 83.184908 
L 45.700114 86.477509 
L 47.154659 82.113514 
L 48.609205 82.5676 
L 50.06375 82.080702 
L 51.518295 75.05651 
L 52.972841 72.574967 
L 54.427386 77.747153 
L 55.881932 79.082716 
L 57.336477 80.239481 
L 58.791023 82.500954 
L 60.245568 80.115646 
L 61.700114 81.46151 
L 63.154659 89.09419 
L 64.609205 95.736727 
L 66.06375 88.670559 
L 67.518295 92.604199 
L 68.972841 88.703067 
L 70.427386 84.181226 
L 71.881932 76.91806 
L 73.336477 70.956874 
L 74.791023 76.874432 
L 76.245568 81.476183 
L 77.700114 87.117942 
L 79.154659 82.162487 
L 80.609205 76.830322 
L 82.06375 74.90865 
L 83.518295 68.421801 
L 84.972841 60.593377 
L 86.427386 56.924736 
L 87.881932 55.560445 
L 89.336477 61.528752 
L 90.791023 54.927516 
L 92.245568 56.609134 
L 93.700114 59.486927 
L 95.154659 57.64261 
L 96.609205 50.546622 
L 98.06375 45.601306 
L 99.518295 52.021408 
L 100.972841 56.274404 
L 102.427386 57.602085 
L 103.881932 59.93993 
L 105.336477 54.262594 
L 106.791023 50.297415 
L 108.245568 55.694012 
L 109.700114 59.925568 
L 111.154659 62.19496 
L 112.609205 55.737106 
L 114.06375 50.871237 
L 115.518295 57.840835 
L 116.972841 50.91656 
L 118.427386 50.564576 
L 119.881932 56.321043 
L 121.336477 52.096563 
L 122.791023 46.971227 
L 124.245568 53.59837 
L 125.700114 48.80297 
L 127.154659 43.732556 
L 128.609205 37.605719 
L 130.06375 38.723296 
L 131.518295 38.897941 
L 132.972841 32.83061 
L 134.427386 31.692175 
L 135.881932 35.006571 
L 137.336477 38.225375 
L 138.791023 38.963656 
L 140.245568 31.749125 
L 141.700114 34.179877 
L 143.154659 30.455495 
L 144.609205 26.509262 
L 146.06375 32.25375 
L 147.518295 37.610693 
L 148.972841 29.834632 
L 150.427386 33.869004 
L 151.881932 34.214488 
L 153.336477 39.905136 
L 154.791023 35.536941 
L 156.245568 31.557505 
L 157.700114 23.9225 
L 159.154659 29.474876 
L 160.609205 31.127786 
L 162.06375 38.988388 
L 163.518295 43.098382 
L 164.972841 42.487041 
L 166.427386 44.964026 
L 167.881932 38.336398 
L 169.336477 38.162157 
L 170.791023 32.520765 
L 172.245568 38.991415 
L 173.700114 31.66019 
L 175.154659 35.659392 
L 176.609205 42.033752 
L 178.06375 40.185348 
" style="fill:none;stroke:#cc79a7;stroke-linecap:square;stroke-width:2;"/>
   </g>
   <g id="line2d_59">
    <path clip-path="url(#p660a9eb7c7)" d="M 34.06375 75.859326 
L 35.518295 68.202504 
L 36.972841 73.807163 
L 38.427386 79.574531 
L 39.881932 71.777816 
L 41.336477 65.839247 
L 42.791023 71.950336 
L 44.245568 68.659076 
L 45.700114 73.23624 
L 47.154659 68.243748 
L 48.609205 73.944497 
L 50.06375 67.185325 
L 51.518295 72.623704 
L 52.972841 69.699056 
L 54.427386 77.046392 
L 55.881932 73.613301 
L 57.336477 78.792229 
L 58.791023 81.715927 
L 60.245568 89.035014 
L 61.700114 84.227251 
L 63.154659 89.701459 
L 64.609205 89.292395 
L 66.06375 91.242627 
L 67.518295 91.541002 
L 68.972841 94.327616 
L 70.427386 97.098951 
L 71.881932 98.272355 
L 73.336477 100.425268 
L 74.791023 103.846105 
L 76.245568 100.728507 
L 77.700114 104.378454 
L 79.154659 111.237603 
L 80.609205 118.769722 
L 82.06375 116.310114 
L 83.518295 116.546993 
L 84.972841 111.941875 
L 86.427386 103.96586 
L 87.881932 96.075855 
L 89.336477 101.503783 
L 90.791023 106.443382 
L 92.245568 100.717414 
L 93.700114 96.943296 
L 95.154659 90.317944 
L 96.609205 91.531225 
L 98.06375 96.253973 
L 99.518295 100.726574 
L 100.972841 106.175794 
L 102.427386 109.019495 
L 103.881932 102.550012 
L 105.336477 95.312033 
L 106.791023 101.801265 
L 108.245568 103.406016 
L 109.700114 95.572377 
L 111.154659 95.650974 
L 112.609205 87.896792 
L 114.06375 91.320321 
L 115.518295 90.788979 
L 116.972841 82.752576 
L 118.427386 83.534911 
L 119.881932 77.340983 
L 121.336477 79.726228 
L 122.791023 75.932361 
L 124.245568 70.050589 
L 125.700114 70.964485 
L 127.154659 71.377133 
L 128.609205 66.280204 
L 130.06375 60.756554 
L 131.518295 54.481855 
L 132.972841 61.284582 
L 134.427386 54.196703 
L 135.881932 50.436733 
L 137.336477 46.56411 
L 138.791023 52.735544 
L 140.245568 49.968584 
L 141.700114 49.511638 
L 143.154659 54.494091 
L 144.609205 62.379567 
L 146.06375 67.849892 
L 147.518295 71.223489 
L 148.972841 69.020277 
L 150.427386 67.815461 
L 151.881932 68.779491 
L 153.336477 70.685402 
L 154.791023 70.153031 
L 156.245568 68.44591 
L 157.700114 60.394884 
L 159.154659 54.536636 
L 160.609205 49.792942 
L 162.06375 45.368663 
L 163.518295 39.139114 
L 164.972841 44.982926 
L 166.427386 44.611625 
L 167.881932 45.219343 
L 169.336477 53.08764 
L 170.791023 45.596859 
L 172.245568 51.205794 
L 173.700114 55.741259 
L 175.154659 55.29951 
L 176.609205 49.746392 
L 178.06375 51.09711 
" style="fill:none;stroke:#f0e442;stroke-linecap:square;stroke-width:2;"/>
   </g>
   <g id="patch_3">
    <path d="M 34.06375 167.9225 
L 34.06375 23.9225 
" style="fill:none;stroke:#000000;stroke-linecap:square;stroke-linejoin:miter;stroke-width:0.6;"/>
   </g>
   <g id="patch_4">
    <path d="M 178.06375 167.9225 
L 178.06375 23.9225 
" style="fill:none;stroke:#000000;stroke-linecap:square;stroke-linejoin:miter;stroke-width:0.6;"/>
   </g>
   <g id="patch_5">
    <path d="M 34.06375 167.9225 
L 178.06375 167.9225 
" style="fill:none;stroke:#000000;stroke-linecap:square;stroke-linejoin:miter;stroke-width:0.6;"/>
   </g>
   <g id="patch_6">
    <path d="M 34.06375 23.9225 
L 178.06375 23.9225 
" style="fill:none;stroke:#000000;stroke-linecap:square;stroke-linejoin:miter;stroke-width:0.6;"/>
   </g>
   <g id="text_17">
    <!-- Title -->
    <defs>
     <path d="M 24 63.40625 
L 24 0 
L 33.5 0 
L 33.5 63.40625 
L 57.296875 63.40625 
L 57.296875 71.40625 
L 0.203125 71.40625 
L 0.203125 63.40625 
z
" id="HelveticaNeue-84"/>
     <path d="M 18.203125 51.703125 
L 18.203125 67.203125 
L 9.703125 67.203125 
L 9.703125 51.703125 
L 0.90625 51.703125 
L 0.90625 44.203125 
L 9.703125 44.203125 
L 9.703125 11.296875 
Q 9.703125 7.703125 10.390625 5.5 
Q 11.09375 3.296875 12.546875 2.09375 
Q 14 0.90625 16.34375 0.453125 
Q 18.703125 0 22 0 
L 28.5 0 
L 28.5 7.5 
L 24.59375 7.5 
Q 22.59375 7.5 21.34375 7.640625 
Q 20.09375 7.796875 19.390625 8.296875 
Q 18.703125 8.796875 18.453125 9.6875 
Q 18.203125 10.59375 18.203125 12.09375 
L 18.203125 44.203125 
L 28.5 44.203125 
L 28.5 51.703125 
z
" id="HelveticaNeue-116"/>
     <path d="M 6.90625 71.40625 
L 6.90625 0 
L 15.40625 0 
L 15.40625 71.40625 
z
" id="HelveticaNeue-108"/>
     <path d="M 42.296875 30.796875 
L 12.59375 30.796875 
Q 12.796875 33.796875 13.890625 36.4375 
Q 15 39.09375 16.890625 41.09375 
Q 18.796875 43.09375 21.4375 44.25 
Q 24.09375 45.40625 27.40625 45.40625 
Q 30.59375 45.40625 33.25 44.25 
Q 35.90625 43.09375 37.84375 41.140625 
Q 39.796875 39.203125 40.9375 36.5 
Q 42.09375 33.796875 42.296875 30.796875 
z
M 50.5 16.40625 
L 42.09375 16.40625 
Q 41 11.296875 37.546875 8.796875 
Q 34.09375 6.296875 28.703125 6.296875 
Q 24.5 6.296875 21.390625 7.6875 
Q 18.296875 9.09375 16.296875 11.4375 
Q 14.296875 13.796875 13.390625 16.84375 
Q 12.5 19.90625 12.59375 23.296875 
L 51.296875 23.296875 
Q 51.5 28 50.453125 33.203125 
Q 49.40625 38.40625 46.65625 42.796875 
Q 43.90625 47.203125 39.34375 50.046875 
Q 34.796875 52.90625 27.90625 52.90625 
Q 22.59375 52.90625 18.140625 50.90625 
Q 13.703125 48.90625 10.453125 45.296875 
Q 7.203125 41.703125 5.390625 36.796875 
Q 3.59375 31.90625 3.59375 26 
Q 3.796875 20.09375 5.34375 15.09375 
Q 6.90625 10.09375 10 6.5 
Q 13.09375 2.90625 17.640625 0.90625 
Q 22.203125 -1.09375 28.40625 -1.09375 
Q 37.203125 -1.09375 43 3.296875 
Q 48.796875 7.703125 50.5 16.40625 
z
" id="HelveticaNeue-101"/>
    </defs>
    <g transform="translate(97.648047 20.9225)scale(0.09 -0.09)">
     <use xlink:href="#HelveticaNeue-84"/>
     <use x="57.399994" xlink:href="#HelveticaNeue-105"/>
     <use x="79.599991" xlink:href="#HelveticaNeue-116"/>
     <use x="111.099976" xlink:href="#HelveticaNeue-108"/>
     <use x="133.299973" xlink:href="#HelveticaNeue-101"/>
    </g>
   </g>
  </g>
  <g id="axes_2">
   <g id="patch_7">
    <path d="M 190.06375 167.9225 
L 334.06375 167.9225 
L 334.06375 23.9225 
L 190.06375 23.9225 
z
" style="fill:#ffffff;"/>
   </g>
   <g id="matplotlib.axis_3">
    <g id="xtick_6">
     <g id="line2d_60">
      <path clip-path="url(#p052025b49d)" d="M 190.06375 167.9225 
L 190.06375 23.9225 
" style="fill:none;stroke:#000000;stroke-linecap:square;stroke-opacity:0.1;stroke-width:0.6;"/>
     </g>
     <g id="line2d_61">
      <g>
       <use style="stroke:#000000;stroke-width:0.6;" x="190.06375" xlink:href="#mb0fb90120e" y="167.9225"/>
      </g>
     </g>
     <g id="text_18">
      <!-- 0 -->
      <g transform="translate(187.84 179.635)scale(0.08 -0.08)">
       <use xlink:href="#HelveticaNeue-48"/>
      </g>
     </g>
    </g>
    <g id="xtick_7">
     <g id="line2d_62">
      <path clip-path="url(#p052025b49d)" d="M 218.86375 167.9225 
L 218.86375 23.9225 
" style="fill:none;stroke:#000000;stroke-linecap:square;stroke-opacity:0.1;stroke-width:0.6;"/>
     </g>
     <g id="line2d_63">
      <g>
       <use style="stroke:#000000;stroke-width:0.6;" x="218.86375" xlink:href="#mb0fb90120e" y="167.9225"/>
      </g>
     </g>
     <g id="text_19">
      <!-- 0.2 -->
      <defs>
       <path d="M 8.296875 11.09375 
L 8.296875 0 
L 19.40625 0 
L 19.40625 11.09375 
z
" id="HelveticaNeue-46"/>
      </defs>
      <g transform="translate(213.304375 179.635)scale(0.08 -0.08)">
       <use xlink:href="#HelveticaNeue-48"/>
       <use x="55.599991" xlink:href="#HelveticaNeue-46"/>
       <use x="83.399979" xlink:href="#HelveticaNeue-50"/>
      </g>
     </g>
    </g>
    <g id="xtick_8">
     <g id="line2d_64">
      <path clip-path="url(#p052025b49d)" d="M 247.66375 167.9225 
L 247.66375 23.9225 
" style="fill:none;stroke:#000000;stroke-linecap:square;stroke-opacity:0.1;stroke-width:0.6;"/>
     </g>
     <g id="line2d_65">
      <g>
       <use style="stroke:#000000;stroke-width:0.6;" x="247.66375" xlink:href="#mb0fb90120e" y="167.9225"/>
      </g>
     </g>
     <g id="text_20">
      <!-- 0.4 -->
      <g transform="translate(242.104375 179.635)scale(0.08 -0.08)">
       <use xlink:href="#HelveticaNeue-48"/>
       <use x="55.599991" xlink:href="#HelveticaNeue-46"/>
       <use x="83.399979" xlink:href="#HelveticaNeue-52"/>
      </g>
     </g>
    </g>
    <g id="xtick_9">
     <g id="line2d_66">
      <path clip-path="url(#p052025b49d)" d="M 276.46375 167.9225 
L 276.46375 23.9225 
" style="fill:none;stroke:#000000;stroke-linecap:square;stroke-opacity:0.1;stroke-width:0.6;"/>
     </g>
     <g id="line2d_67">
      <g>
       <use style="stroke:#000000;stroke-width:0.6;" x="276.46375" xlink:href="#mb0fb90120e" y="167.9225"/>
      </g>
     </g>
     <g id="text_21">
      <!-- 0.6 -->
      <g transform="translate(270.904375 179.635)scale(0.08 -0.08)">
       <use xlink:href="#HelveticaNeue-48"/>
       <use x="55.599991" xlink:href="#HelveticaNeue-46"/>
       <use x="83.399979" xlink:href="#HelveticaNeue-54"/>
      </g>
     </g>
    </g>
    <g id="xtick_10">
     <g id="line2d_68">
      <path clip-path="url(#p052025b49d)" d="M 305.26375 167.9225 
L 305.26375 23.9225 
" style="fill:none;stroke:#000000;stroke-linecap:square;stroke-opacity:0.1;stroke-width:0.6;"/>
     </g>
     <g id="line2d_69">
      <g>
       <use style="stroke:#000000;stroke-width:0.6;" x="305.26375" xlink:href="#mb0fb90120e" y="167.9225"/>
      </g>
     </g>
     <g id="text_22">
      <!-- 0.8 -->
      <g transform="translate(299.704375 179.635)scale(0.08 -0.08)">
       <use xlink:href="#HelveticaNeue-48"/>
       <use x="55.599991" xlink:href="#HelveticaNeue-46"/>
       <use x="83.399979" xlink:href="#HelveticaNeue-56"/>
      </g>
     </g>
    </g>
    <g id="xtick_11">
     <g id="line2d_70">
      <path clip-path="url(#p052025b49d)" d="M 334.06375 167.9225 
L 334.06375 23.9225 
" style="fill:none;stroke:#000000;stroke-linecap:square;stroke-opacity:0.1;stroke-width:0.6;"/>
     </g>
     <g id="line2d_71">
      <g>
       <use style="stroke:#000000;stroke-width:0.6;" x="334.06375" xlink:href="#mb0fb90120e" y="167.9225"/>
      </g>
     </g>
     <g id="text_23">
      <!-- 1 -->
      <g transform="translate(331.84 179.635)scale(0.08 -0.08)">
       <use xlink:href="#HelveticaNeue-49"/>
      </g>
     </g>
    </g>
    <g id="xtick_12">
     <g id="line2d_72">
      <defs>
       <path d="M 0 0 
L 0 2 
" id="m43770b7f48" style="stroke:#000000;stroke-width:0.48;"/>
      </defs>
      <g>
       <use style="stroke:#000000;stroke-width:0.48;" x="197.26375" xlink:href="#m43770b7f48" y="167.9225"/>
      </g>
     </g>
    </g>
    <g id="xtick_13">
     <g id="line2d_73">
      <g>
       <use style="stroke:#000000;stroke-width:0.48;" x="204.46375" xlink:href="#m43770b7f48" y="167.9225"/>
      </g>
     </g>
    </g>
    <g id="xtick_14">
     <g id="line2d_74">
      <g>
       <use style="stroke:#000000;stroke-width:0.48;" x="211.66375" xlink:href="#m43770b7f48" y="167.9225"/>
      </g>
     </g>
    </g>
    <g id="xtick_15">
     <g id="line2d_75">
      <g>
       <use style="stroke:#000000;stroke-width:0.48;" x="226.06375" xlink:href="#m43770b7f48" y="167.9225"/>
      </g>
     </g>
    </g>
    <g id="xtick_16">
     <g id="line2d_76">
      <g>
       <use style="stroke:#000000;stroke-width:0.48;" x="233.26375" xlink:href="#m43770b7f48" y="167.9225"/>
      </g>
     </g>
    </g>
    <g id="xtick_17">
     <g id="line2d_77">
      <g>
       <use style="stroke:#000000;stroke-width:0.48;" x="240.46375" xlink:href="#m43770b7f48" y="167.9225"/>
      </g>
     </g>
    </g>
    <g id="xtick_18">
     <g id="line2d_78">
      <g>
       <use style="stroke:#000000;stroke-width:0.48;" x="254.86375" xlink:href="#m43770b7f48" y="167.9225"/>
      </g>
     </g>
    </g>
    <g id="xtick_19">
     <g id="line2d_79">
      <g>
       <use style="stroke:#000000;stroke-width:0.48;" x="262.06375" xlink:href="#m43770b7f48" y="167.9225"/>
      </g>
     </g>
    </g>
    <g id="xtick_20">
     <g id="line2d_80">
      <g>
       <use style="stroke:#000000;stroke-width:0.48;" x="269.26375" xlink:href="#m43770b7f48" y="167.9225"/>
      </g>
     </g>
    </g>
    <g id="xtick_21">
     <g id="line2d_81">
      <g>
       <use style="stroke:#000000;stroke-width:0.48;" x="283.66375" xlink:href="#m43770b7f48" y="167.9225"/>
      </g>
     </g>
    </g>
    <g id="xtick_22">
     <g id="line2d_82">
      <g>
       <use style="stroke:#000000;stroke-width:0.48;" x="290.86375" xlink:href="#m43770b7f48" y="167.9225"/>
      </g>
     </g>
    </g>
    <g id="xtick_23">
     <g id="line2d_83">
      <g>
       <use style="stroke:#000000;stroke-width:0.48;" x="298.06375" xlink:href="#m43770b7f48" y="167.9225"/>
      </g>
     </g>
    </g>
    <g id="xtick_24">
     <g id="line2d_84">
      <g>
       <use style="stroke:#000000;stroke-width:0.48;" x="312.46375" xlink:href="#m43770b7f48" y="167.9225"/>
      </g>
     </g>
    </g>
    <g id="xtick_25">
     <g id="line2d_85">
      <g>
       <use style="stroke:#000000;stroke-width:0.48;" x="319.66375" xlink:href="#m43770b7f48" y="167.9225"/>
      </g>
     </g>
    </g>
    <g id="xtick_26">
     <g id="line2d_86">
      <g>
       <use style="stroke:#000000;stroke-width:0.48;" x="326.86375" xlink:href="#m43770b7f48" y="167.9225"/>
      </g>
     </g>
    </g>
   </g>
   <g id="matplotlib.axis_4">
    <g id="ytick_36">
     <g id="line2d_87">
      <path clip-path="url(#p052025b49d)" d="M 190.06375 164.416576 
L 334.06375 164.416576 
" style="fill:none;stroke:#000000;stroke-linecap:square;stroke-opacity:0.1;stroke-width:0.6;"/>
     </g>
     <g id="line2d_88">
      <g>
       <use style="stroke:#000000;stroke-width:0.6;" x="190.06375" xlink:href="#m3595271a26" y="164.416576"/>
      </g>
     </g>
    </g>
    <g id="ytick_37">
     <g id="line2d_89">
      <path clip-path="url(#p052025b49d)" d="M 190.06375 148.27565 
L 334.06375 148.27565 
" style="fill:none;stroke:#000000;stroke-linecap:square;stroke-opacity:0.1;stroke-width:0.6;"/>
     </g>
     <g id="line2d_90">
      <g>
       <use style="stroke:#000000;stroke-width:0.6;" x="190.06375" xlink:href="#m3595271a26" y="148.27565"/>
      </g>
     </g>
    </g>
    <g id="ytick_38">
     <g id="line2d_91">
      <path clip-path="url(#p052025b49d)" d="M 190.06375 132.134725 
L 334.06375 132.134725 
" style="fill:none;stroke:#000000;stroke-linecap:square;stroke-opacity:0.1;stroke-width:0.6;"/>
     </g>
     <g id="line2d_92">
      <g>
       <use style="stroke:#000000;stroke-width:0.6;" x="190.06375" xlink:href="#m3595271a26" y="132.134725"/>
      </g>
     </g>
    </g>
    <g id="ytick_39">
     <g id="line2d_93">
      <path clip-path="url(#p052025b49d)" d="M 190.06375 115.993799 
L 334.06375 115.993799 
" style="fill:none;stroke:#000000;stroke-linecap:square;stroke-opacity:0.1;stroke-width:0.6;"/>
     </g>
     <g id="line2d_94">
      <g>
       <use style="stroke:#000000;stroke-width:0.6;" x="190.06375" xlink:href="#m3595271a26" y="115.993799"/>
      </g>
     </g>
    </g>
    <g id="ytick_40">
     <g id="line2d_95">
      <path clip-path="url(#p052025b49d)" d="M 190.06375 99.852874 
L 334.06375 99.852874 
" style="fill:none;stroke:#000000;stroke-linecap:square;stroke-opacity:0.1;stroke-width:0.6;"/>
     </g>
     <g id="line2d_96">
      <g>
       <use style="stroke:#000000;stroke-width:0.6;" x="190.06375" xlink:href="#m3595271a26" y="99.852874"/>
      </g>
     </g>
    </g>
    <g id="ytick_41">
     <g id="line2d_97">
      <path clip-path="url(#p052025b49d)" d="M 190.06375 83.711948 
L 334.06375 83.711948 
" style="fill:none;stroke:#000000;stroke-linecap:square;stroke-opacity:0.1;stroke-width:0.6;"/>
     </g>
     <g id="line2d_98">
      <g>
       <use style="stroke:#000000;stroke-width:0.6;" x="190.06375" xlink:href="#m3595271a26" y="83.711948"/>
      </g>
     </g>
    </g>
    <g id="ytick_42">
     <g id="line2d_99">
      <path clip-path="url(#p052025b49d)" d="M 190.06375 67.571023 
L 334.06375 67.571023 
" style="fill:none;stroke:#000000;stroke-linecap:square;stroke-opacity:0.1;stroke-width:0.6;"/>
     </g>
     <g id="line2d_100">
      <g>
       <use style="stroke:#000000;stroke-width:0.6;" x="190.06375" xlink:href="#m3595271a26" y="67.571023"/>
      </g>
     </g>
    </g>
    <g id="ytick_43">
     <g id="line2d_101">
      <path clip-path="url(#p052025b49d)" d="M 190.06375 51.430097 
L 334.06375 51.430097 
" style="fill:none;stroke:#000000;stroke-linecap:square;stroke-opacity:0.1;stroke-width:0.6;"/>
     </g>
     <g id="line2d_102">
      <g>
       <use style="stroke:#000000;stroke-width:0.6;" x="190.06375" xlink:href="#m3595271a26" y="51.430097"/>
      </g>
     </g>
    </g>
    <g id="ytick_44">
     <g id="line2d_103">
      <path clip-path="url(#p052025b49d)" d="M 190.06375 35.289172 
L 334.06375 35.289172 
" style="fill:none;stroke:#000000;stroke-linecap:square;stroke-opacity:0.1;stroke-width:0.6;"/>
     </g>
     <g id="line2d_104">
      <g>
       <use style="stroke:#000000;stroke-width:0.6;" x="190.06375" xlink:href="#m3595271a26" y="35.289172"/>
      </g>
     </g>
    </g>
    <g id="ytick_45">
     <g id="line2d_105">
      <g>
       <use style="stroke:#000000;stroke-width:0.48;" x="190.06375" xlink:href="#mb2cd111ba4" y="160.381345"/>
      </g>
     </g>
    </g>
    <g id="ytick_46">
     <g id="line2d_106">
      <g>
       <use style="stroke:#000000;stroke-width:0.48;" x="190.06375" xlink:href="#mb2cd111ba4" y="156.346113"/>
      </g>
     </g>
    </g>
    <g id="ytick_47">
     <g id="line2d_107">
      <g>
       <use style="stroke:#000000;stroke-width:0.48;" x="190.06375" xlink:href="#mb2cd111ba4" y="152.310882"/>
      </g>
     </g>
    </g>
    <g id="ytick_48">
     <g id="line2d_108">
      <g>
       <use style="stroke:#000000;stroke-width:0.48;" x="190.06375" xlink:href="#mb2cd111ba4" y="144.240419"/>
      </g>
     </g>
    </g>
    <g id="ytick_49">
     <g id="line2d_109">
      <g>
       <use style="stroke:#000000;stroke-width:0.48;" x="190.06375" xlink:href="#mb2cd111ba4" y="140.205188"/>
      </g>
     </g>
    </g>
    <g id="ytick_50">
     <g id="line2d_110">
      <g>
       <use style="stroke:#000000;stroke-width:0.48;" x="190.06375" xlink:href="#mb2cd111ba4" y="136.169956"/>
      </g>
     </g>
    </g>
    <g id="ytick_51">
     <g id="line2d_111">
      <g>
       <use style="stroke:#000000;stroke-width:0.48;" x="190.06375" xlink:href="#mb2cd111ba4" y="128.099493"/>
      </g>
     </g>
    </g>
    <g id="ytick_52">
     <g id="line2d_112">
      <g>
       <use style="stroke:#000000;stroke-width:0.48;" x="190.06375" xlink:href="#mb2cd111ba4" y="124.064262"/>
      </g>
     </g>
    </g>
    <g id="ytick_53">
     <g id="line2d_113">
      <g>
       <use style="stroke:#000000;stroke-width:0.48;" x="190.06375" xlink:href="#mb2cd111ba4" y="120.029031"/>
      </g>
     </g>
    </g>
    <g id="ytick_54">
     <g id="line2d_114">
      <g>
       <use style="stroke:#000000;stroke-width:0.48;" x="190.06375" xlink:href="#mb2cd111ba4" y="111.958568"/>
      </g>
     </g>
    </g>
    <g id="ytick_55">
     <g id="line2d_115">
      <g>
       <use style="stroke:#000000;stroke-width:0.48;" x="190.06375" xlink:href="#mb2cd111ba4" y="107.923336"/>
      </g>
     </g>
    </g>
    <g id="ytick_56">
     <g id="line2d_116">
      <g>
       <use style="stroke:#000000;stroke-width:0.48;" x="190.06375" xlink:href="#mb2cd111ba4" y="103.888105"/>
      </g>
     </g>
    </g>
    <g id="ytick_57">
     <g id="line2d_117">
      <g>
       <use style="stroke:#000000;stroke-width:0.48;" x="190.06375" xlink:href="#mb2cd111ba4" y="95.817642"/>
      </g>
     </g>
    </g>
    <g id="ytick_58">
     <g id="line2d_118">
      <g>
       <use style="stroke:#000000;stroke-width:0.48;" x="190.06375" xlink:href="#mb2cd111ba4" y="91.782411"/>
      </g>
     </g>
    </g>
    <g id="ytick_59">
     <g id="line2d_119">
      <g>
       <use style="stroke:#000000;stroke-width:0.48;" x="190.06375" xlink:href="#mb2cd111ba4" y="87.74718"/>
      </g>
     </g>
    </g>
    <g id="ytick_60">
     <g id="line2d_120">
      <g>
       <use style="stroke:#000000;stroke-width:0.48;" x="190.06375" xlink:href="#mb2cd111ba4" y="79.676717"/>
      </g>
     </g>
    </g>
    <g id="ytick_61">
     <g id="line2d_121">
      <g>
       <use style="stroke:#000000;stroke-width:0.48;" x="190.06375" xlink:href="#mb2cd111ba4" y="75.641485"/>
      </g>
     </g>
    </g>
    <g id="ytick_62">
     <g id="line2d_122">
      <g>
       <use style="stroke:#000000;stroke-width:0.48;" x="190.06375" xlink:href="#mb2cd111ba4" y="71.606254"/>
      </g>
     </g>
    </g>
    <g id="ytick_63">
     <g id="line2d_123">
      <g>
       <use style="stroke:#000000;stroke-width:0.48;" x="190.06375" xlink:href="#mb2cd111ba4" y="63.535791"/>
      </g>
     </g>
    </g>
    <g id="ytick_64">
     <g id="line2d_124">
      <g>
       <use style="stroke:#000000;stroke-width:0.48;" x="190.06375" xlink:href="#mb2cd111ba4" y="59.50056"/>
      </g>
     </g>
    </g>
    <g id="ytick_65">
     <g id="line2d_125">
      <g>
       <use style="stroke:#000000;stroke-width:0.48;" x="190.06375" xlink:href="#mb2cd111ba4" y="55.465328"/>
      </g>
     </g>
    </g>
    <g id="ytick_66">
     <g id="line2d_126">
      <g>
       <use style="stroke:#000000;stroke-width:0.48;" x="190.06375" xlink:href="#mb2cd111ba4" y="47.394866"/>
      </g>
     </g>
    </g>
    <g id="ytick_67">
     <g id="line2d_127">
      <g>
       <use style="stroke:#000000;stroke-width:0.48;" x="190.06375" xlink:href="#mb2cd111ba4" y="43.359634"/>
      </g>
     </g>
    </g>
    <g id="ytick_68">
     <g id="line2d_128">
      <g>
       <use style="stroke:#000000;stroke-width:0.48;" x="190.06375" xlink:href="#mb2cd111ba4" y="39.324403"/>
      </g>
     </g>
    </g>
    <g id="ytick_69">
     <g id="line2d_129">
      <g>
       <use style="stroke:#000000;stroke-width:0.48;" x="190.06375" xlink:href="#mb2cd111ba4" y="31.25394"/>
      </g>
     </g>
    </g>
    <g id="ytick_70">
     <g id="line2d_130">
      <g>
       <use style="stroke:#000000;stroke-width:0.48;" x="190.06375" xlink:href="#mb2cd111ba4" y="27.218709"/>
      </g>
     </g>
    </g>
   </g>
   <g id="patch_8">
    <path d="M 190.06375 167.9225 
L 190.06375 23.9225 
" style="fill:none;stroke:#000000;stroke-linecap:square;stroke-linejoin:miter;stroke-width:0.6;"/>
   </g>
   <g id="patch_9">
    <path d="M 334.06375 167.9225 
L 334.06375 23.9225 
" style="fill:none;stroke:#000000;stroke-linecap:square;stroke-linejoin:miter;stroke-width:0.6;"/>
   </g>
   <g id="patch_10">
    <path d="M 190.06375 167.9225 
L 334.06375 167.9225 
" style="fill:none;stroke:#000000;stroke-linecap:square;stroke-linejoin:miter;stroke-width:0.6;"/>
   </g>
   <g id="patch_11">
    <path d="M 190.06375 23.9225 
L 334.06375 23.9225 
" style="fill:none;stroke:#000000;stroke-linecap:square;stroke-linejoin:miter;stroke-width:0.6;"/>
   </g>
   <g id="text_24">
    <!-- Title -->
    <g transform="translate(253.648047 20.9225)scale(0.09 -0.09)">
     <use xlink:href="#HelveticaNeue-84"/>
     <use x="57.399994" xlink:href="#HelveticaNeue-105"/>
     <use x="79.599991" xlink:href="#HelveticaNeue-116"/>
     <use x="111.099976" xlink:href="#HelveticaNeue-108"/>
     <use x="133.299973" xlink:href="#HelveticaNeue-101"/>
    </g>
   </g>
  </g>
  <g id="text_25">
   <!-- ProPlot API -->
   <defs>
    <path d="M 22.59375 37.796875 
L 22.59375 59.203125 
L 34.796875 59.203125 
Q 37.5 59.203125 40 58.796875 
Q 42.5 58.40625 44.390625 57.25 
Q 46.296875 56.09375 47.4375 54 
Q 48.59375 51.90625 48.59375 48.5 
Q 48.59375 45.09375 47.4375 43 
Q 46.296875 40.90625 44.390625 39.75 
Q 42.5 38.59375 40 38.1875 
Q 37.5 37.796875 34.796875 37.796875 
z
M 6.90625 71.40625 
L 6.90625 0 
L 22.59375 0 
L 22.59375 25.59375 
L 39.09375 25.59375 
Q 45.796875 25.59375 50.5 27.546875 
Q 55.203125 29.5 58.140625 32.703125 
Q 61.09375 35.90625 62.4375 40.046875 
Q 63.796875 44.203125 63.796875 48.5 
Q 63.796875 52.90625 62.4375 57 
Q 61.09375 61.09375 58.140625 64.296875 
Q 55.203125 67.5 50.5 69.453125 
Q 45.796875 71.40625 39.09375 71.40625 
z
" id="HelveticaNeue-Bold-80"/>
    <path d="M 5.40625 51.703125 
L 5.40625 0 
L 19.59375 0 
L 19.59375 23.296875 
Q 19.59375 26.796875 20.296875 29.796875 
Q 21 32.796875 22.640625 35.046875 
Q 24.296875 37.296875 27 38.59375 
Q 29.703125 39.90625 33.59375 39.90625 
Q 34.90625 39.90625 36.296875 39.75 
Q 37.703125 39.59375 38.703125 39.40625 
L 38.703125 52.59375 
Q 37 53.09375 35.59375 53.09375 
Q 32.90625 53.09375 30.40625 52.296875 
Q 27.90625 51.5 25.703125 50.046875 
Q 23.5 48.59375 21.796875 46.546875 
Q 20.09375 44.5 19.09375 42.09375 
L 18.90625 42.09375 
L 18.90625 51.703125 
z
" id="HelveticaNeue-Bold-114"/>
    <path d="M 18 25.796875 
Q 18 28.90625 18.59375 31.90625 
Q 19.203125 34.90625 20.640625 37.203125 
Q 22.09375 39.5 24.5 40.953125 
Q 26.90625 42.40625 30.5 42.40625 
Q 34.09375 42.40625 36.546875 40.953125 
Q 39 39.5 40.453125 37.203125 
Q 41.90625 34.90625 42.5 31.90625 
Q 43.09375 28.90625 43.09375 25.796875 
Q 43.09375 22.703125 42.5 19.75 
Q 41.90625 16.796875 40.453125 14.4375 
Q 39 12.09375 36.546875 10.6875 
Q 34.09375 9.296875 30.5 9.296875 
Q 26.90625 9.296875 24.5 10.6875 
Q 22.09375 12.09375 20.640625 14.4375 
Q 19.203125 16.796875 18.59375 19.75 
Q 18 22.703125 18 25.796875 
z
M 3.796875 25.796875 
Q 3.796875 19.59375 5.6875 14.59375 
Q 7.59375 9.59375 11.09375 6.046875 
Q 14.59375 2.5 19.5 0.59375 
Q 24.40625 -1.296875 30.5 -1.296875 
Q 36.59375 -1.296875 41.546875 0.59375 
Q 46.5 2.5 50 6.046875 
Q 53.5 9.59375 55.390625 14.59375 
Q 57.296875 19.59375 57.296875 25.796875 
Q 57.296875 32 55.390625 37.046875 
Q 53.5 42.09375 50 45.640625 
Q 46.5 49.203125 41.546875 51.140625 
Q 36.59375 53.09375 30.5 53.09375 
Q 24.40625 53.09375 19.5 51.140625 
Q 14.59375 49.203125 11.09375 45.640625 
Q 7.59375 42.09375 5.6875 37.046875 
Q 3.796875 32 3.796875 25.796875 
z
" id="HelveticaNeue-Bold-111"/>
    <path d="M 5.796875 71.40625 
L 5.796875 0 
L 20 0 
L 20 71.40625 
z
" id="HelveticaNeue-Bold-108"/>
    <path d="M 23.40625 51.703125 
L 23.40625 67.203125 
L 9.203125 67.203125 
L 9.203125 51.703125 
L 0.59375 51.703125 
L 0.59375 42.203125 
L 9.203125 42.203125 
L 9.203125 11.703125 
Q 9.203125 7.796875 10.5 5.390625 
Q 11.796875 3 14.046875 1.703125 
Q 16.296875 0.40625 19.25 -0.046875 
Q 22.203125 -0.5 25.5 -0.5 
Q 27.59375 -0.5 29.796875 -0.390625 
Q 32 -0.296875 33.796875 0 
L 33.796875 11 
Q 32.796875 10.796875 31.6875 10.6875 
Q 30.59375 10.59375 29.40625 10.59375 
Q 25.796875 10.59375 24.59375 11.796875 
Q 23.40625 13 23.40625 16.59375 
L 23.40625 42.203125 
L 33.796875 42.203125 
L 33.796875 51.703125 
z
" id="HelveticaNeue-Bold-116"/>
    <path id="HelveticaNeue-Bold-32"/>
    <path d="M 24.90625 27.59375 
L 34.203125 53.796875 
L 34.40625 53.796875 
L 43.40625 27.59375 
z
M 26.40625 71.40625 
L -0.59375 0 
L 15.203125 0 
L 20.796875 15.90625 
L 47.5 15.90625 
L 52.90625 0 
L 69.203125 0 
L 42.5 71.40625 
z
" id="HelveticaNeue-Bold-65"/>
    <path d="M 6.90625 71.40625 
L 6.90625 0 
L 22.59375 0 
L 22.59375 71.40625 
z
" id="HelveticaNeue-Bold-73"/>
   </defs>
   <g transform="translate(159.360982 10.101804)scale(0.09 -0.09)">
    <use xlink:href="#HelveticaNeue-Bold-80"/>
    <use x="66.699997" xlink:href="#HelveticaNeue-Bold-114"/>
    <use x="105.584366" xlink:href="#HelveticaNeue-Bold-111"/>
    <use x="166.684357" xlink:href="#HelveticaNeue-Bold-80"/>
    <use x="233.384354" xlink:href="#HelveticaNeue-Bold-108"/>
    <use x="259.184341" xlink:href="#HelveticaNeue-Bold-111"/>
    <use x="320.284332" xlink:href="#HelveticaNeue-Bold-116"/>
    <use x="355.484329" xlink:href="#HelveticaNeue-Bold-32"/>
    <use x="383.284317" xlink:href="#HelveticaNeue-Bold-65"/>
    <use x="451.784302" xlink:href="#HelveticaNeue-Bold-80"/>
    <use x="518.484299" xlink:href="#HelveticaNeue-Bold-73"/>
   </g>
  </g>
 </g>
 <defs>
  <clipPath id="p660a9eb7c7">
   <rect height="144" width="144" x="34.06375" y="23.9225"/>
  </clipPath>
  <clipPath id="p052025b49d">
   <rect height="144" width="144" x="190.06375" y="23.9225"/>
  </clipPath>
 </defs>
</svg>
