<?xml version="1.0" encoding="utf-8" standalone="no"?>
<!DOCTYPE svg PUBLIC "-//W3C//DTD SVG 1.1//EN"
  "http://www.w3.org/Graphics/SVG/1.1/DTD/svg11.dtd">
<!-- Created with matplotlib (https://matplotlib.org/) -->
<svg height="292.3pt" version="1.1" viewBox="0 0 268 292.3" width="268pt" xmlns="http://www.w3.org/2000/svg" xmlns:xlink="http://www.w3.org/1999/xlink">
 <defs>
  <style type="text/css">
*{stroke-linecap:butt;stroke-linejoin:round;}
  </style>
 </defs>
 <g id="figure_1">
  <g id="patch_1">
   <path d="M 0 292.3 
L 267.935 292.3 
L 267.935 -0.744687 
L 0 -0.744687 
z
" style="fill:#f2f2f2;"/>
  </g>
  <g id="axes_1">
   <g id="patch_2">
    <path d="M 31.4875 125.145 
L 139.4875 125.145 
L 139.4875 17.145 
L 31.4875 17.145 
z
" style="fill:#ffffff;"/>
   </g>
   <g id="matplotlib.axis_1">
    <g id="xtick_1">
     <g id="line2d_1">
      <path clip-path="url(#p7efa81f8c5)" d="M 31.4875 125.145 
L 31.4875 17.145 
" style="fill:none;stroke:#000000;stroke-linecap:square;stroke-opacity:0.1;stroke-width:0.6;"/>
     </g>
     <g id="line2d_2">
      <defs>
       <path d="M 0 0 
L 0 4 
" id="m1059f96e29" style="stroke:#000000;stroke-width:0.6;"/>
      </defs>
      <g>
       <use style="stroke:#000000;stroke-width:0.6;" x="31.4875" xlink:href="#m1059f96e29" y="125.145"/>
      </g>
     </g>
     <g id="text_1">
      <!-- 0 -->
      <defs>
       <path d="M 13.203125 34.90625 
Q 13.203125 37.5 13.25 40.640625 
Q 13.296875 43.796875 13.75 46.9375 
Q 14.203125 50.09375 15.046875 53.09375 
Q 15.90625 56.09375 17.546875 58.34375 
Q 19.203125 60.59375 21.703125 62 
Q 24.203125 63.40625 27.796875 63.40625 
Q 31.40625 63.40625 33.90625 62 
Q 36.40625 60.59375 38.046875 58.34375 
Q 39.703125 56.09375 40.546875 53.09375 
Q 41.40625 50.09375 41.84375 46.9375 
Q 42.296875 43.796875 42.34375 40.640625 
Q 42.40625 37.5 42.40625 34.90625 
Q 42.40625 30.90625 42.15625 25.953125 
Q 41.90625 21 40.546875 16.640625 
Q 39.203125 12.296875 36.203125 9.296875 
Q 33.203125 6.296875 27.796875 6.296875 
Q 22.40625 6.296875 19.40625 9.296875 
Q 16.40625 12.296875 15.046875 16.640625 
Q 13.703125 21 13.453125 25.953125 
Q 13.203125 30.90625 13.203125 34.90625 
z
M 4.203125 34.796875 
Q 4.203125 30.90625 4.390625 26.703125 
Q 4.59375 22.5 5.390625 18.5 
Q 6.203125 14.5 7.703125 10.953125 
Q 9.203125 7.40625 11.796875 4.703125 
Q 14.40625 2 18.34375 0.453125 
Q 22.296875 -1.09375 27.796875 -1.09375 
Q 33.40625 -1.09375 37.296875 0.453125 
Q 41.203125 2 43.796875 4.703125 
Q 46.40625 7.40625 47.90625 10.953125 
Q 49.40625 14.5 50.203125 18.5 
Q 51 22.5 51.203125 26.703125 
Q 51.40625 30.90625 51.40625 34.796875 
Q 51.40625 38.703125 51.203125 42.890625 
Q 51 47.09375 50.203125 51.09375 
Q 49.40625 55.09375 47.90625 58.6875 
Q 46.40625 62.296875 43.796875 65 
Q 41.203125 67.703125 37.25 69.296875 
Q 33.296875 70.90625 27.796875 70.90625 
Q 22.296875 70.90625 18.34375 69.296875 
Q 14.40625 67.703125 11.796875 65 
Q 9.203125 62.296875 7.703125 58.6875 
Q 6.203125 55.09375 5.390625 51.09375 
Q 4.59375 47.09375 4.390625 42.890625 
Q 4.203125 38.703125 4.203125 34.796875 
z
" id="HelveticaNeue-48"/>
      </defs>
      <g transform="translate(29.26375 136.8575)scale(0.08 -0.08)">
       <use xlink:href="#HelveticaNeue-48"/>
      </g>
     </g>
    </g>
    <g id="xtick_2">
     <g id="line2d_3">
      <path clip-path="url(#p7efa81f8c5)" d="M 58.4875 125.145 
L 58.4875 17.145 
" style="fill:none;stroke:#000000;stroke-linecap:square;stroke-opacity:0.1;stroke-width:0.6;"/>
     </g>
     <g id="line2d_4">
      <g>
       <use style="stroke:#000000;stroke-width:0.6;" x="58.4875" xlink:href="#m1059f96e29" y="125.145"/>
      </g>
     </g>
     <g id="text_2">
      <!-- 0.25 -->
      <defs>
       <path d="M 8.296875 11.09375 
L 8.296875 0 
L 19.40625 0 
L 19.40625 11.09375 
z
" id="HelveticaNeue-46"/>
       <path d="M 4.40625 45.796875 
L 12.90625 45.796875 
Q 12.796875 49 13.546875 52.140625 
Q 14.296875 55.296875 16 57.796875 
Q 17.703125 60.296875 20.34375 61.84375 
Q 23 63.40625 26.703125 63.40625 
Q 29.5 63.40625 32 62.5 
Q 34.5 61.59375 36.34375 59.890625 
Q 38.203125 58.203125 39.296875 55.84375 
Q 40.40625 53.5 40.40625 50.59375 
Q 40.40625 46.90625 39.25 44.09375 
Q 38.09375 41.296875 35.84375 38.890625 
Q 33.59375 36.5 30.1875 34.140625 
Q 26.796875 31.796875 22.296875 29 
Q 18.59375 26.796875 15.1875 24.296875 
Q 11.796875 21.796875 9.09375 18.5 
Q 6.40625 15.203125 4.65625 10.75 
Q 2.90625 6.296875 2.40625 0 
L 48.703125 0 
L 48.703125 7.5 
L 12.296875 7.5 
Q 12.90625 10.796875 14.84375 13.34375 
Q 16.796875 15.90625 19.546875 18.09375 
Q 22.296875 20.296875 25.59375 22.25 
Q 28.90625 24.203125 32.203125 26.203125 
Q 35.5 28.296875 38.59375 30.59375 
Q 41.703125 32.90625 44.09375 35.75 
Q 46.5 38.59375 47.953125 42.1875 
Q 49.40625 45.796875 49.40625 50.5 
Q 49.40625 55.5 47.65625 59.296875 
Q 45.90625 63.09375 42.90625 65.640625 
Q 39.90625 68.203125 35.84375 69.546875 
Q 31.796875 70.90625 27.203125 70.90625 
Q 21.59375 70.90625 17.1875 69 
Q 12.796875 67.09375 9.84375 63.75 
Q 6.90625 60.40625 5.5 55.796875 
Q 4.09375 51.203125 4.40625 45.796875 
z
" id="HelveticaNeue-50"/>
       <path d="M 47 62.203125 
L 47 69.703125 
L 12 69.703125 
L 5.40625 32.90625 
L 12.703125 32.5 
Q 15.203125 35.5 18.453125 37.34375 
Q 21.703125 39.203125 25.90625 39.203125 
Q 29.5 39.203125 32.453125 38 
Q 35.40625 36.796875 37.5 34.640625 
Q 39.59375 32.5 40.75 29.546875 
Q 41.90625 26.59375 41.90625 23.09375 
Q 41.90625 18.90625 40.703125 15.75 
Q 39.5 12.59375 37.453125 10.5 
Q 35.40625 8.40625 32.65625 7.34375 
Q 29.90625 6.296875 26.90625 6.296875 
Q 23.703125 6.296875 21.046875 7.25 
Q 18.40625 8.203125 16.453125 9.953125 
Q 14.5 11.703125 13.34375 14.046875 
Q 12.203125 16.40625 12 19.09375 
L 3.5 19.09375 
Q 3.59375 14.296875 5.390625 10.5 
Q 7.203125 6.703125 10.296875 4.140625 
Q 13.40625 1.59375 17.453125 0.25 
Q 21.5 -1.09375 26.09375 -1.09375 
Q 32.296875 -1.09375 36.9375 0.84375 
Q 41.59375 2.796875 44.6875 6.09375 
Q 47.796875 9.40625 49.34375 13.65625 
Q 50.90625 17.90625 50.90625 22.40625 
Q 50.90625 28.5 49.09375 33.046875 
Q 47.296875 37.59375 44.1875 40.640625 
Q 41.09375 43.703125 36.890625 45.203125 
Q 32.703125 46.703125 28 46.703125 
Q 24.40625 46.703125 20.75 45.453125 
Q 17.09375 44.203125 14.796875 41.59375 
L 14.59375 41.796875 
L 18.40625 62.203125 
z
" id="HelveticaNeue-53"/>
      </defs>
      <g transform="translate(50.704375 136.8575)scale(0.08 -0.08)">
       <use xlink:href="#HelveticaNeue-48"/>
       <use x="55.599991" xlink:href="#HelveticaNeue-46"/>
       <use x="83.399979" xlink:href="#HelveticaNeue-50"/>
       <use x="138.999969" xlink:href="#HelveticaNeue-53"/>
      </g>
     </g>
    </g>
    <g id="xtick_3">
     <g id="line2d_5">
      <path clip-path="url(#p7efa81f8c5)" d="M 85.4875 125.145 
L 85.4875 17.145 
" style="fill:none;stroke:#000000;stroke-linecap:square;stroke-opacity:0.1;stroke-width:0.6;"/>
     </g>
     <g id="line2d_6">
      <g>
       <use style="stroke:#000000;stroke-width:0.6;" x="85.4875" xlink:href="#m1059f96e29" y="125.145"/>
      </g>
     </g>
     <g id="text_3">
      <!-- 0.5 -->
      <g transform="translate(79.928125 136.8575)scale(0.08 -0.08)">
       <use xlink:href="#HelveticaNeue-48"/>
       <use x="55.599991" xlink:href="#HelveticaNeue-46"/>
       <use x="83.399979" xlink:href="#HelveticaNeue-53"/>
      </g>
     </g>
    </g>
    <g id="xtick_4">
     <g id="line2d_7">
      <path clip-path="url(#p7efa81f8c5)" d="M 112.4875 125.145 
L 112.4875 17.145 
" style="fill:none;stroke:#000000;stroke-linecap:square;stroke-opacity:0.1;stroke-width:0.6;"/>
     </g>
     <g id="line2d_8">
      <g>
       <use style="stroke:#000000;stroke-width:0.6;" x="112.4875" xlink:href="#m1059f96e29" y="125.145"/>
      </g>
     </g>
     <g id="text_4">
      <!-- 0.75 -->
      <defs>
       <path d="M 50.90625 62.40625 
L 50.90625 69.703125 
L 5 69.703125 
L 5 61.703125 
L 42.203125 61.703125 
Q 36.59375 55.796875 31.75 48.796875 
Q 26.90625 41.796875 23.203125 33.9375 
Q 19.5 26.09375 17.140625 17.546875 
Q 14.796875 9 14.203125 0 
L 23.703125 0 
Q 24.203125 8.296875 26.5 17.09375 
Q 28.796875 25.90625 32.4375 34.203125 
Q 36.09375 42.5 40.796875 49.796875 
Q 45.5 57.09375 50.90625 62.40625 
z
" id="HelveticaNeue-55"/>
      </defs>
      <g transform="translate(104.704375 136.8575)scale(0.08 -0.08)">
       <use xlink:href="#HelveticaNeue-48"/>
       <use x="55.599991" xlink:href="#HelveticaNeue-46"/>
       <use x="83.399979" xlink:href="#HelveticaNeue-55"/>
       <use x="138.999969" xlink:href="#HelveticaNeue-53"/>
      </g>
     </g>
    </g>
    <g id="xtick_5">
     <g id="line2d_9">
      <path clip-path="url(#p7efa81f8c5)" d="M 139.4875 125.145 
L 139.4875 17.145 
" style="fill:none;stroke:#000000;stroke-linecap:square;stroke-opacity:0.1;stroke-width:0.6;"/>
     </g>
     <g id="line2d_10">
      <g>
       <use style="stroke:#000000;stroke-width:0.6;" x="139.4875" xlink:href="#m1059f96e29" y="125.145"/>
      </g>
     </g>
     <g id="text_5">
      <!-- 1 -->
      <defs>
       <path d="M 35.59375 0 
L 35.59375 70.90625 
L 29.09375 70.90625 
Q 28.40625 66.90625 26.5 64.296875 
Q 24.59375 61.703125 21.84375 60.203125 
Q 19.09375 58.703125 15.6875 58.140625 
Q 12.296875 57.59375 8.703125 57.59375 
L 8.703125 50.796875 
L 27.09375 50.796875 
L 27.09375 0 
z
" id="HelveticaNeue-49"/>
      </defs>
      <g transform="translate(137.26375 136.8575)scale(0.08 -0.08)">
       <use xlink:href="#HelveticaNeue-49"/>
      </g>
     </g>
    </g>
    <g id="xtick_6">
     <g id="line2d_11">
      <defs>
       <path d="M 0 0 
L 0 2 
" id="m83a12dc268" style="stroke:#000000;stroke-width:0.48;"/>
      </defs>
      <g>
       <use style="stroke:#000000;stroke-width:0.48;" x="36.8875" xlink:href="#m83a12dc268" y="125.145"/>
      </g>
     </g>
    </g>
    <g id="xtick_7">
     <g id="line2d_12">
      <g>
       <use style="stroke:#000000;stroke-width:0.48;" x="42.2875" xlink:href="#m83a12dc268" y="125.145"/>
      </g>
     </g>
    </g>
    <g id="xtick_8">
     <g id="line2d_13">
      <g>
       <use style="stroke:#000000;stroke-width:0.48;" x="47.6875" xlink:href="#m83a12dc268" y="125.145"/>
      </g>
     </g>
    </g>
    <g id="xtick_9">
     <g id="line2d_14">
      <g>
       <use style="stroke:#000000;stroke-width:0.48;" x="53.0875" xlink:href="#m83a12dc268" y="125.145"/>
      </g>
     </g>
    </g>
    <g id="xtick_10">
     <g id="line2d_15">
      <g>
       <use style="stroke:#000000;stroke-width:0.48;" x="63.8875" xlink:href="#m83a12dc268" y="125.145"/>
      </g>
     </g>
    </g>
    <g id="xtick_11">
     <g id="line2d_16">
      <g>
       <use style="stroke:#000000;stroke-width:0.48;" x="69.2875" xlink:href="#m83a12dc268" y="125.145"/>
      </g>
     </g>
    </g>
    <g id="xtick_12">
     <g id="line2d_17">
      <g>
       <use style="stroke:#000000;stroke-width:0.48;" x="74.6875" xlink:href="#m83a12dc268" y="125.145"/>
      </g>
     </g>
    </g>
    <g id="xtick_13">
     <g id="line2d_18">
      <g>
       <use style="stroke:#000000;stroke-width:0.48;" x="80.0875" xlink:href="#m83a12dc268" y="125.145"/>
      </g>
     </g>
    </g>
    <g id="xtick_14">
     <g id="line2d_19">
      <g>
       <use style="stroke:#000000;stroke-width:0.48;" x="90.8875" xlink:href="#m83a12dc268" y="125.145"/>
      </g>
     </g>
    </g>
    <g id="xtick_15">
     <g id="line2d_20">
      <g>
       <use style="stroke:#000000;stroke-width:0.48;" x="96.2875" xlink:href="#m83a12dc268" y="125.145"/>
      </g>
     </g>
    </g>
    <g id="xtick_16">
     <g id="line2d_21">
      <g>
       <use style="stroke:#000000;stroke-width:0.48;" x="101.6875" xlink:href="#m83a12dc268" y="125.145"/>
      </g>
     </g>
    </g>
    <g id="xtick_17">
     <g id="line2d_22">
      <g>
       <use style="stroke:#000000;stroke-width:0.48;" x="107.0875" xlink:href="#m83a12dc268" y="125.145"/>
      </g>
     </g>
    </g>
    <g id="xtick_18">
     <g id="line2d_23">
      <g>
       <use style="stroke:#000000;stroke-width:0.48;" x="117.8875" xlink:href="#m83a12dc268" y="125.145"/>
      </g>
     </g>
    </g>
    <g id="xtick_19">
     <g id="line2d_24">
      <g>
       <use style="stroke:#000000;stroke-width:0.48;" x="123.2875" xlink:href="#m83a12dc268" y="125.145"/>
      </g>
     </g>
    </g>
    <g id="xtick_20">
     <g id="line2d_25">
      <g>
       <use style="stroke:#000000;stroke-width:0.48;" x="128.6875" xlink:href="#m83a12dc268" y="125.145"/>
      </g>
     </g>
    </g>
    <g id="xtick_21">
     <g id="line2d_26">
      <g>
       <use style="stroke:#000000;stroke-width:0.48;" x="134.0875" xlink:href="#m83a12dc268" y="125.145"/>
      </g>
     </g>
    </g>
    <g id="text_6">
     <!-- xlabel -->
     <defs>
      <path d="M 20.296875 27.203125 
L 0.90625 0 
L 11.203125 0 
L 25.59375 21.40625 
L 40 0 
L 50.90625 0 
L 30.90625 27.90625 
L 48.703125 51.703125 
L 38.5 51.703125 
L 25.59375 33.59375 
L 13.203125 51.703125 
L 2.296875 51.703125 
z
" id="HelveticaNeue-120"/>
      <path d="M 6.90625 71.40625 
L 6.90625 0 
L 15.40625 0 
L 15.40625 71.40625 
z
" id="HelveticaNeue-108"/>
      <path d="M 52.203125 0.203125 
Q 50 -1.09375 46.09375 -1.09375 
Q 42.796875 -1.09375 40.84375 0.75 
Q 38.90625 2.59375 38.90625 6.796875 
Q 35.40625 2.59375 30.75 0.75 
Q 26.09375 -1.09375 20.703125 -1.09375 
Q 17.203125 -1.09375 14.046875 -0.296875 
Q 10.90625 0.5 8.59375 2.203125 
Q 6.296875 3.90625 4.9375 6.65625 
Q 3.59375 9.40625 3.59375 13.296875 
Q 3.59375 17.703125 5.09375 20.5 
Q 6.59375 23.296875 9.046875 25.046875 
Q 11.5 26.796875 14.640625 27.6875 
Q 17.796875 28.59375 21.09375 29.203125 
Q 24.59375 29.90625 27.75 30.25 
Q 30.90625 30.59375 33.296875 31.25 
Q 35.703125 31.90625 37.09375 33.15625 
Q 38.5 34.40625 38.5 36.796875 
Q 38.5 39.59375 37.453125 41.296875 
Q 36.40625 43 34.75 43.890625 
Q 33.09375 44.796875 31.046875 45.09375 
Q 29 45.40625 27 45.40625 
Q 21.59375 45.40625 18 43.34375 
Q 14.40625 41.296875 14.09375 35.59375 
L 5.59375 35.59375 
Q 5.796875 40.40625 7.59375 43.703125 
Q 9.40625 47 12.40625 49.046875 
Q 15.40625 51.09375 19.25 52 
Q 23.09375 52.90625 27.5 52.90625 
Q 31 52.90625 34.453125 52.40625 
Q 37.90625 51.90625 40.703125 50.34375 
Q 43.5 48.796875 45.203125 46 
Q 46.90625 43.203125 46.90625 38.703125 
L 46.90625 12.09375 
Q 46.90625 9.09375 47.25 7.6875 
Q 47.59375 6.296875 49.59375 6.296875 
Q 50.703125 6.296875 52.203125 6.796875 
z
M 38.40625 26.703125 
Q 36.796875 25.5 34.1875 24.953125 
Q 31.59375 24.40625 28.75 24.046875 
Q 25.90625 23.703125 23 23.25 
Q 20.09375 22.796875 17.796875 21.796875 
Q 15.5 20.796875 14.046875 18.9375 
Q 12.59375 17.09375 12.59375 13.90625 
Q 12.59375 11.796875 13.4375 10.34375 
Q 14.296875 8.90625 15.640625 8 
Q 17 7.09375 18.796875 6.6875 
Q 20.59375 6.296875 22.59375 6.296875 
Q 26.796875 6.296875 29.796875 7.4375 
Q 32.796875 8.59375 34.6875 10.34375 
Q 36.59375 12.09375 37.5 14.140625 
Q 38.40625 16.203125 38.40625 18 
z
" id="HelveticaNeue-97"/>
      <path d="M 6.703125 71.40625 
L 6.703125 0 
L 15.203125 0 
L 15.203125 6.90625 
L 15.40625 6.90625 
Q 16.796875 4.59375 18.84375 3.046875 
Q 20.90625 1.5 23.203125 0.59375 
Q 25.5 -0.296875 27.84375 -0.6875 
Q 30.203125 -1.09375 32.09375 -1.09375 
Q 38 -1.09375 42.453125 1 
Q 46.90625 3.09375 49.84375 6.75 
Q 52.796875 10.40625 54.25 15.296875 
Q 55.703125 20.203125 55.703125 25.703125 
Q 55.703125 31.203125 54.203125 36.09375 
Q 52.703125 41 49.75 44.75 
Q 46.796875 48.5 42.34375 50.703125 
Q 37.90625 52.90625 31.90625 52.90625 
Q 26.5 52.90625 22 50.953125 
Q 17.5 49 15.40625 44.703125 
L 15.203125 44.703125 
L 15.203125 71.40625 
z
M 46.703125 26.296875 
Q 46.703125 22.5 45.890625 18.890625 
Q 45.09375 15.296875 43.296875 12.5 
Q 41.5 9.703125 38.546875 8 
Q 35.59375 6.296875 31.203125 6.296875 
Q 26.796875 6.296875 23.6875 7.9375 
Q 20.59375 9.59375 18.640625 12.296875 
Q 16.703125 15 15.796875 18.546875 
Q 14.90625 22.09375 14.90625 25.90625 
Q 14.90625 29.5 15.75 33 
Q 16.59375 36.5 18.5 39.25 
Q 20.40625 42 23.40625 43.703125 
Q 26.40625 45.40625 30.703125 45.40625 
Q 34.796875 45.40625 37.84375 43.796875 
Q 40.90625 42.203125 42.84375 39.5 
Q 44.796875 36.796875 45.75 33.34375 
Q 46.703125 29.90625 46.703125 26.296875 
z
" id="HelveticaNeue-98"/>
      <path d="M 42.296875 30.796875 
L 12.59375 30.796875 
Q 12.796875 33.796875 13.890625 36.4375 
Q 15 39.09375 16.890625 41.09375 
Q 18.796875 43.09375 21.4375 44.25 
Q 24.09375 45.40625 27.40625 45.40625 
Q 30.59375 45.40625 33.25 44.25 
Q 35.90625 43.09375 37.84375 41.140625 
Q 39.796875 39.203125 40.9375 36.5 
Q 42.09375 33.796875 42.296875 30.796875 
z
M 50.5 16.40625 
L 42.09375 16.40625 
Q 41 11.296875 37.546875 8.796875 
Q 34.09375 6.296875 28.703125 6.296875 
Q 24.5 6.296875 21.390625 7.6875 
Q 18.296875 9.09375 16.296875 11.4375 
Q 14.296875 13.796875 13.390625 16.84375 
Q 12.5 19.90625 12.59375 23.296875 
L 51.296875 23.296875 
Q 51.5 28 50.453125 33.203125 
Q 49.40625 38.40625 46.65625 42.796875 
Q 43.90625 47.203125 39.34375 50.046875 
Q 34.796875 52.90625 27.90625 52.90625 
Q 22.59375 52.90625 18.140625 50.90625 
Q 13.703125 48.90625 10.453125 45.296875 
Q 7.203125 41.703125 5.390625 36.796875 
Q 3.59375 31.90625 3.59375 26 
Q 3.796875 20.09375 5.34375 15.09375 
Q 6.90625 10.09375 10 6.5 
Q 13.09375 2.90625 17.640625 0.90625 
Q 22.203125 -1.09375 28.40625 -1.09375 
Q 37.203125 -1.09375 43 3.296875 
Q 48.796875 7.703125 50.5 16.40625 
z
" id="HelveticaNeue-101"/>
     </defs>
     <g transform="translate(136.083125 147.14625)scale(0.08 -0.08)">
      <use xlink:href="#HelveticaNeue-120"/>
      <use x="51.799988" xlink:href="#HelveticaNeue-108"/>
      <use x="73.999985" xlink:href="#HelveticaNeue-97"/>
      <use x="127.699982" xlink:href="#HelveticaNeue-98"/>
      <use x="186.999969" xlink:href="#HelveticaNeue-101"/>
      <use x="240.699966" xlink:href="#HelveticaNeue-108"/>
     </g>
    </g>
   </g>
   <g id="matplotlib.axis_2">
    <g id="ytick_1">
     <g id="line2d_27">
      <path clip-path="url(#p7efa81f8c5)" d="M 31.4875 125.145 
L 139.4875 125.145 
" style="fill:none;stroke:#000000;stroke-linecap:square;stroke-opacity:0.1;stroke-width:0.6;"/>
     </g>
     <g id="line2d_28">
      <defs>
       <path d="M 0 0 
L -4 0 
" id="m8f6874eb3a" style="stroke:#000000;stroke-width:0.6;"/>
      </defs>
      <g>
       <use style="stroke:#000000;stroke-width:0.6;" x="31.4875" xlink:href="#m8f6874eb3a" y="125.145"/>
      </g>
     </g>
     <g id="text_7">
      <!-- 0 -->
      <g transform="translate(21.04 128.00125)scale(0.08 -0.08)">
       <use xlink:href="#HelveticaNeue-48"/>
      </g>
     </g>
    </g>
    <g id="ytick_2">
     <g id="line2d_29">
      <path clip-path="url(#p7efa81f8c5)" d="M 31.4875 103.545 
L 139.4875 103.545 
" style="fill:none;stroke:#000000;stroke-linecap:square;stroke-opacity:0.1;stroke-width:0.6;"/>
     </g>
     <g id="line2d_30">
      <g>
       <use style="stroke:#000000;stroke-width:0.6;" x="31.4875" xlink:href="#m8f6874eb3a" y="103.545"/>
      </g>
     </g>
     <g id="text_8">
      <!-- 0.2 -->
      <g transform="translate(14.36875 106.40125)scale(0.08 -0.08)">
       <use xlink:href="#HelveticaNeue-48"/>
       <use x="55.599991" xlink:href="#HelveticaNeue-46"/>
       <use x="83.399979" xlink:href="#HelveticaNeue-50"/>
      </g>
     </g>
    </g>
    <g id="ytick_3">
     <g id="line2d_31">
      <path clip-path="url(#p7efa81f8c5)" d="M 31.4875 81.945 
L 139.4875 81.945 
" style="fill:none;stroke:#000000;stroke-linecap:square;stroke-opacity:0.1;stroke-width:0.6;"/>
     </g>
     <g id="line2d_32">
      <g>
       <use style="stroke:#000000;stroke-width:0.6;" x="31.4875" xlink:href="#m8f6874eb3a" y="81.945"/>
      </g>
     </g>
     <g id="text_9">
      <!-- 0.4 -->
      <defs>
       <path d="M 33.90625 24.09375 
L 10.09375 24.09375 
L 33.703125 58.796875 
L 33.90625 58.796875 
z
M 41.90625 24.09375 
L 41.90625 70.90625 
L 35.09375 70.90625 
L 2.796875 24.796875 
L 2.796875 16.59375 
L 33.90625 16.59375 
L 33.90625 0 
L 41.90625 0 
L 41.90625 16.59375 
L 51.5 16.59375 
L 51.5 24.09375 
z
" id="HelveticaNeue-52"/>
      </defs>
      <g transform="translate(14.36875 84.80125)scale(0.08 -0.08)">
       <use xlink:href="#HelveticaNeue-48"/>
       <use x="55.599991" xlink:href="#HelveticaNeue-46"/>
       <use x="83.399979" xlink:href="#HelveticaNeue-52"/>
      </g>
     </g>
    </g>
    <g id="ytick_4">
     <g id="line2d_33">
      <path clip-path="url(#p7efa81f8c5)" d="M 31.4875 60.345 
L 139.4875 60.345 
" style="fill:none;stroke:#000000;stroke-linecap:square;stroke-opacity:0.1;stroke-width:0.6;"/>
     </g>
     <g id="line2d_34">
      <g>
       <use style="stroke:#000000;stroke-width:0.6;" x="31.4875" xlink:href="#m8f6874eb3a" y="60.345"/>
      </g>
     </g>
     <g id="text_10">
      <!-- 0.6 -->
      <defs>
       <path d="M 41.40625 52.796875 
L 49.90625 52.796875 
Q 49.09375 61.59375 43.890625 66.25 
Q 38.703125 70.90625 29.90625 70.90625 
Q 22.296875 70.90625 17.296875 67.703125 
Q 12.296875 64.5 9.296875 59.203125 
Q 6.296875 53.90625 5.046875 47.046875 
Q 3.796875 40.203125 3.796875 32.90625 
Q 3.796875 27.296875 4.640625 21.296875 
Q 5.5 15.296875 8.09375 10.296875 
Q 10.703125 5.296875 15.5 2.09375 
Q 20.296875 -1.09375 28.203125 -1.09375 
Q 34.90625 -1.09375 39.453125 1.15625 
Q 44 3.40625 46.75 6.84375 
Q 49.5 10.296875 50.703125 14.5 
Q 51.90625 18.703125 51.90625 22.59375 
Q 51.90625 27.5 50.40625 31.703125 
Q 48.90625 35.90625 46.15625 39 
Q 43.40625 42.09375 39.34375 43.84375 
Q 35.296875 45.59375 30.203125 45.59375 
Q 24.40625 45.59375 19.953125 43.390625 
Q 15.5 41.203125 12.5 36.296875 
L 12.296875 36.5 
Q 12.40625 40.59375 13.09375 45.296875 
Q 13.796875 50 15.640625 54.046875 
Q 17.5 58.09375 20.796875 60.75 
Q 24.09375 63.40625 29.5 63.40625 
Q 34.59375 63.40625 37.6875 60.5 
Q 40.796875 57.59375 41.40625 52.796875 
z
M 28.59375 38.09375 
Q 32.203125 38.09375 34.890625 36.796875 
Q 37.59375 35.5 39.390625 33.34375 
Q 41.203125 31.203125 42.046875 28.25 
Q 42.90625 25.296875 42.90625 22 
Q 42.90625 18.90625 41.953125 16.046875 
Q 41 13.203125 39.203125 11 
Q 37.40625 8.796875 34.75 7.546875 
Q 32.09375 6.296875 28.59375 6.296875 
Q 25.09375 6.296875 22.34375 7.546875 
Q 19.59375 8.796875 17.75 10.890625 
Q 15.90625 13 14.90625 15.890625 
Q 13.90625 18.796875 13.90625 22.09375 
Q 13.90625 25.40625 14.84375 28.34375 
Q 15.796875 31.296875 17.6875 33.4375 
Q 19.59375 35.59375 22.296875 36.84375 
Q 25 38.09375 28.59375 38.09375 
z
" id="HelveticaNeue-54"/>
      </defs>
      <g transform="translate(14.36875 63.20125)scale(0.08 -0.08)">
       <use xlink:href="#HelveticaNeue-48"/>
       <use x="55.599991" xlink:href="#HelveticaNeue-46"/>
       <use x="83.399979" xlink:href="#HelveticaNeue-54"/>
      </g>
     </g>
    </g>
    <g id="ytick_5">
     <g id="line2d_35">
      <path clip-path="url(#p7efa81f8c5)" d="M 31.4875 38.745 
L 139.4875 38.745 
" style="fill:none;stroke:#000000;stroke-linecap:square;stroke-opacity:0.1;stroke-width:0.6;"/>
     </g>
     <g id="line2d_36">
      <g>
       <use style="stroke:#000000;stroke-width:0.6;" x="31.4875" xlink:href="#m8f6874eb3a" y="38.745"/>
      </g>
     </g>
     <g id="text_11">
      <!-- 0.8 -->
      <defs>
       <path d="M 15.5 52.5 
Q 15.5 55.203125 16.5 57.203125 
Q 17.5 59.203125 19.140625 60.59375 
Q 20.796875 62 23.09375 62.703125 
Q 25.40625 63.40625 27.90625 63.40625 
Q 33.09375 63.40625 36.4375 60.65625 
Q 39.796875 57.90625 39.796875 52.5 
Q 39.796875 47.09375 36.5 44.09375 
Q 33.203125 41.09375 28.09375 41.09375 
Q 25.5 41.09375 23.203125 41.796875 
Q 20.90625 42.5 19.203125 43.890625 
Q 17.5 45.296875 16.5 47.4375 
Q 15.5 49.59375 15.5 52.5 
z
M 6.5 52.796875 
Q 6.5 48 9.203125 43.953125 
Q 11.90625 39.90625 16.40625 38.09375 
Q 10.40625 36 7.203125 31.34375 
Q 4 26.703125 4 20.40625 
Q 4 15 5.84375 10.953125 
Q 7.703125 6.90625 10.953125 4.203125 
Q 14.203125 1.5 18.59375 0.203125 
Q 23 -1.09375 28.09375 -1.09375 
Q 33 -1.09375 37.296875 0.296875 
Q 41.59375 1.703125 44.75 4.453125 
Q 47.90625 7.203125 49.75 11.203125 
Q 51.59375 15.203125 51.59375 20.40625 
Q 51.59375 27 48.5 31.546875 
Q 45.40625 36.09375 39 38.09375 
Q 43.5 40.09375 46.140625 44.046875 
Q 48.796875 48 48.796875 52.796875 
Q 48.796875 56.203125 47.59375 59.453125 
Q 46.40625 62.703125 43.84375 65.25 
Q 41.296875 67.796875 37.1875 69.34375 
Q 33.09375 70.90625 27.296875 70.90625 
Q 23.203125 70.90625 19.453125 69.703125 
Q 15.703125 68.5 12.796875 66.203125 
Q 9.90625 63.90625 8.203125 60.546875 
Q 6.5 57.203125 6.5 52.796875 
z
M 13 20 
Q 13 23.09375 14.140625 25.59375 
Q 15.296875 28.09375 17.34375 29.890625 
Q 19.40625 31.703125 22.15625 32.640625 
Q 24.90625 33.59375 28 33.59375 
Q 31 33.59375 33.640625 32.546875 
Q 36.296875 31.5 38.296875 29.703125 
Q 40.296875 27.90625 41.4375 25.453125 
Q 42.59375 23 42.59375 20.09375 
Q 42.59375 17.09375 41.546875 14.59375 
Q 40.5 12.09375 38.546875 10.25 
Q 36.59375 8.40625 33.9375 7.34375 
Q 31.296875 6.296875 28.09375 6.296875 
Q 21.5 6.296875 17.25 9.9375 
Q 13 13.59375 13 20 
z
" id="HelveticaNeue-56"/>
      </defs>
      <g transform="translate(14.36875 41.60125)scale(0.08 -0.08)">
       <use xlink:href="#HelveticaNeue-48"/>
       <use x="55.599991" xlink:href="#HelveticaNeue-46"/>
       <use x="83.399979" xlink:href="#HelveticaNeue-56"/>
      </g>
     </g>
    </g>
    <g id="ytick_6">
     <g id="line2d_37">
      <path clip-path="url(#p7efa81f8c5)" d="M 31.4875 17.145 
L 139.4875 17.145 
" style="fill:none;stroke:#000000;stroke-linecap:square;stroke-opacity:0.1;stroke-width:0.6;"/>
     </g>
     <g id="line2d_38">
      <g>
       <use style="stroke:#000000;stroke-width:0.6;" x="31.4875" xlink:href="#m8f6874eb3a" y="17.145"/>
      </g>
     </g>
     <g id="text_12">
      <!-- 1 -->
      <g transform="translate(21.04 20.00125)scale(0.08 -0.08)">
       <use xlink:href="#HelveticaNeue-49"/>
      </g>
     </g>
    </g>
    <g id="ytick_7">
     <g id="line2d_39">
      <defs>
       <path d="M 0 0 
L -2 0 
" id="m59f14ff634" style="stroke:#000000;stroke-width:0.48;"/>
      </defs>
      <g>
       <use style="stroke:#000000;stroke-width:0.48;" x="31.4875" xlink:href="#m59f14ff634" y="119.745"/>
      </g>
     </g>
    </g>
    <g id="ytick_8">
     <g id="line2d_40">
      <g>
       <use style="stroke:#000000;stroke-width:0.48;" x="31.4875" xlink:href="#m59f14ff634" y="114.345"/>
      </g>
     </g>
    </g>
    <g id="ytick_9">
     <g id="line2d_41">
      <g>
       <use style="stroke:#000000;stroke-width:0.48;" x="31.4875" xlink:href="#m59f14ff634" y="108.945"/>
      </g>
     </g>
    </g>
    <g id="ytick_10">
     <g id="line2d_42">
      <g>
       <use style="stroke:#000000;stroke-width:0.48;" x="31.4875" xlink:href="#m59f14ff634" y="98.145"/>
      </g>
     </g>
    </g>
    <g id="ytick_11">
     <g id="line2d_43">
      <g>
       <use style="stroke:#000000;stroke-width:0.48;" x="31.4875" xlink:href="#m59f14ff634" y="92.745"/>
      </g>
     </g>
    </g>
    <g id="ytick_12">
     <g id="line2d_44">
      <g>
       <use style="stroke:#000000;stroke-width:0.48;" x="31.4875" xlink:href="#m59f14ff634" y="87.345"/>
      </g>
     </g>
    </g>
    <g id="ytick_13">
     <g id="line2d_45">
      <g>
       <use style="stroke:#000000;stroke-width:0.48;" x="31.4875" xlink:href="#m59f14ff634" y="76.545"/>
      </g>
     </g>
    </g>
    <g id="ytick_14">
     <g id="line2d_46">
      <g>
       <use style="stroke:#000000;stroke-width:0.48;" x="31.4875" xlink:href="#m59f14ff634" y="71.145"/>
      </g>
     </g>
    </g>
    <g id="ytick_15">
     <g id="line2d_47">
      <g>
       <use style="stroke:#000000;stroke-width:0.48;" x="31.4875" xlink:href="#m59f14ff634" y="65.745"/>
      </g>
     </g>
    </g>
    <g id="ytick_16">
     <g id="line2d_48">
      <g>
       <use style="stroke:#000000;stroke-width:0.48;" x="31.4875" xlink:href="#m59f14ff634" y="54.945"/>
      </g>
     </g>
    </g>
    <g id="ytick_17">
     <g id="line2d_49">
      <g>
       <use style="stroke:#000000;stroke-width:0.48;" x="31.4875" xlink:href="#m59f14ff634" y="49.545"/>
      </g>
     </g>
    </g>
    <g id="ytick_18">
     <g id="line2d_50">
      <g>
       <use style="stroke:#000000;stroke-width:0.48;" x="31.4875" xlink:href="#m59f14ff634" y="44.145"/>
      </g>
     </g>
    </g>
    <g id="ytick_19">
     <g id="line2d_51">
      <g>
       <use style="stroke:#000000;stroke-width:0.48;" x="31.4875" xlink:href="#m59f14ff634" y="33.345"/>
      </g>
     </g>
    </g>
    <g id="ytick_20">
     <g id="line2d_52">
      <g>
       <use style="stroke:#000000;stroke-width:0.48;" x="31.4875" xlink:href="#m59f14ff634" y="27.945"/>
      </g>
     </g>
    </g>
    <g id="ytick_21">
     <g id="line2d_53">
      <g>
       <use style="stroke:#000000;stroke-width:0.48;" x="31.4875" xlink:href="#m59f14ff634" y="22.545"/>
      </g>
     </g>
    </g>
    <g id="text_13">
     <!-- ylabel -->
     <defs>
      <path d="M 26.703125 -6.90625 
Q 25.203125 -10.703125 23.75 -13.296875 
Q 22.296875 -15.90625 20.546875 -17.546875 
Q 18.796875 -19.203125 16.640625 -19.953125 
Q 14.5 -20.703125 11.703125 -20.703125 
Q 10.203125 -20.703125 8.703125 -20.5 
Q 7.203125 -20.296875 5.796875 -19.796875 
L 5.796875 -12 
Q 6.90625 -12.5 8.34375 -12.84375 
Q 9.796875 -13.203125 10.796875 -13.203125 
Q 13.40625 -13.203125 15.15625 -11.953125 
Q 16.90625 -10.703125 17.796875 -8.40625 
L 21.296875 0.296875 
L 0.796875 51.703125 
L 10.40625 51.703125 
L 25.5 9.40625 
L 25.703125 9.40625 
L 40.203125 51.703125 
L 49.203125 51.703125 
z
" id="HelveticaNeue-121"/>
     </defs>
     <g transform="translate(9.7125 81.589375)rotate(-90)scale(0.08 -0.08)">
      <use xlink:href="#HelveticaNeue-121"/>
      <use x="49.999985" xlink:href="#HelveticaNeue-108"/>
      <use x="72.199982" xlink:href="#HelveticaNeue-97"/>
      <use x="125.899979" xlink:href="#HelveticaNeue-98"/>
      <use x="185.199966" xlink:href="#HelveticaNeue-101"/>
      <use x="238.899963" xlink:href="#HelveticaNeue-108"/>
     </g>
    </g>
   </g>
   <g id="patch_3">
    <path d="M 31.4875 125.145 
L 31.4875 17.145 
" style="fill:none;stroke:#000000;stroke-linecap:square;stroke-linejoin:miter;stroke-width:0.6;"/>
   </g>
   <g id="patch_4">
    <path d="M 139.4875 125.145 
L 139.4875 17.145 
" style="fill:none;stroke:#000000;stroke-linecap:square;stroke-linejoin:miter;stroke-width:0.6;"/>
   </g>
   <g id="patch_5">
    <path d="M 31.4875 125.145 
L 139.4875 125.145 
" style="fill:none;stroke:#000000;stroke-linecap:square;stroke-linejoin:miter;stroke-width:0.6;"/>
   </g>
   <g id="patch_6">
    <path d="M 31.4875 17.145 
L 139.4875 17.145 
" style="fill:none;stroke:#000000;stroke-linecap:square;stroke-linejoin:miter;stroke-width:0.6;"/>
   </g>
   <g id="text_14">
    <path d="M 36.419219 24.849844 
Q 36.445938 24.399844 36.644219 24.103125 
Q 36.8425 23.805 37.147656 23.625 
Q 37.454219 23.445 37.836719 23.369062 
Q 38.219219 23.293125 38.605938 23.293125 
Q 38.9575 23.293125 39.3175 23.342344 
Q 39.6775 23.391562 39.974219 23.536406 
Q 40.270938 23.679844 40.459375 23.937187 
Q 40.649219 24.193125 40.649219 24.615 
L 40.649219 27.036562 
Q 40.649219 27.351562 40.684375 27.639844 
Q 40.720938 27.928125 40.810938 28.071562 
L 39.515781 28.071562 
Q 39.479219 27.963281 39.456719 27.850781 
Q 39.434219 27.738281 39.425781 27.621562 
Q 39.119219 27.936562 38.704375 28.063125 
Q 38.290938 28.188281 37.859219 28.188281 
Q 37.525938 28.188281 37.237656 28.106719 
Q 36.950781 28.026562 36.734219 27.856406 
Q 36.519063 27.684844 36.396719 27.424687 
Q 36.275781 27.163125 36.275781 26.803125 
Q 36.275781 26.406562 36.415 26.150625 
Q 36.554219 25.893281 36.775 25.741406 
Q 36.995781 25.588125 37.278438 25.512187 
Q 37.5625 25.434844 37.850781 25.389844 
Q 38.139063 25.344844 38.4175 25.318125 
Q 38.695938 25.29 38.9125 25.236562 
Q 39.129063 25.183125 39.254219 25.079062 
Q 39.380781 24.975 39.370938 24.778125 
Q 39.370938 24.57 39.303438 24.449062 
Q 39.235938 24.328125 39.123438 24.260625 
Q 39.010938 24.193125 38.861875 24.170625 
Q 38.714219 24.148125 38.544063 24.148125 
Q 38.165781 24.148125 37.949219 24.309844 
Q 37.734063 24.471562 37.6975 24.849844 
z
M 39.370938 25.794844 
Q 39.290781 25.866562 39.168438 25.907344 
Q 39.0475 25.948125 38.908281 25.974844 
Q 38.769063 26.001562 38.615781 26.019844 
Q 38.4625 26.038125 38.309219 26.064844 
Q 38.165781 26.091562 38.025156 26.136562 
Q 37.885938 26.181562 37.781875 26.258906 
Q 37.679219 26.334844 37.615938 26.451562 
Q 37.554063 26.568281 37.554063 26.748281 
Q 37.554063 26.919844 37.615938 27.036562 
Q 37.679219 27.153281 37.7875 27.220781 
Q 37.895781 27.288281 38.039219 27.316406 
Q 38.184063 27.343125 38.335938 27.343125 
Q 38.714219 27.343125 38.920938 27.216562 
Q 39.129063 27.09 39.2275 26.915625 
Q 39.325938 26.739844 39.348438 26.559844 
Q 39.370938 26.379844 39.370938 26.271562 
z
" style="stroke:#ffffff;stroke-linejoin:miter;stroke-width:1.5;"/>
    <path d="M 36.419219 24.849844 
Q 36.445938 24.399844 36.644219 24.103125 
Q 36.8425 23.805 37.147656 23.625 
Q 37.454219 23.445 37.836719 23.369062 
Q 38.219219 23.293125 38.605938 23.293125 
Q 38.9575 23.293125 39.3175 23.342344 
Q 39.6775 23.391562 39.974219 23.536406 
Q 40.270938 23.679844 40.459375 23.937187 
Q 40.649219 24.193125 40.649219 24.615 
L 40.649219 27.036562 
Q 40.649219 27.351562 40.684375 27.639844 
Q 40.720938 27.928125 40.810938 28.071562 
L 39.515781 28.071562 
Q 39.479219 27.963281 39.456719 27.850781 
Q 39.434219 27.738281 39.425781 27.621562 
Q 39.119219 27.936562 38.704375 28.063125 
Q 38.290938 28.188281 37.859219 28.188281 
Q 37.525938 28.188281 37.237656 28.106719 
Q 36.950781 28.026562 36.734219 27.856406 
Q 36.519063 27.684844 36.396719 27.424687 
Q 36.275781 27.163125 36.275781 26.803125 
Q 36.275781 26.406562 36.415 26.150625 
Q 36.554219 25.893281 36.775 25.741406 
Q 36.995781 25.588125 37.278438 25.512187 
Q 37.5625 25.434844 37.850781 25.389844 
Q 38.139063 25.344844 38.4175 25.318125 
Q 38.695938 25.29 38.9125 25.236562 
Q 39.129063 25.183125 39.254219 25.079062 
Q 39.380781 24.975 39.370938 24.778125 
Q 39.370938 24.57 39.303438 24.449062 
Q 39.235938 24.328125 39.123438 24.260625 
Q 39.010938 24.193125 38.861875 24.170625 
Q 38.714219 24.148125 38.544063 24.148125 
Q 38.165781 24.148125 37.949219 24.309844 
Q 37.734063 24.471562 37.6975 24.849844 
z
M 39.370938 25.794844 
Q 39.290781 25.866562 39.168438 25.907344 
Q 39.0475 25.948125 38.908281 25.974844 
Q 38.769063 26.001562 38.615781 26.019844 
Q 38.4625 26.038125 38.309219 26.064844 
Q 38.165781 26.091562 38.025156 26.136562 
Q 37.885938 26.181562 37.781875 26.258906 
Q 37.679219 26.334844 37.615938 26.451562 
Q 37.554063 26.568281 37.554063 26.748281 
Q 37.554063 26.919844 37.615938 27.036562 
Q 37.679219 27.153281 37.7875 27.220781 
Q 37.895781 27.288281 38.039219 27.316406 
Q 38.184063 27.343125 38.335938 27.343125 
Q 38.714219 27.343125 38.920938 27.216562 
Q 39.129063 27.09 39.2275 26.915625 
Q 39.325938 26.739844 39.348438 26.559844 
Q 39.370938 26.379844 39.370938 26.271562 
z
"/>
   </g>
  </g>
  <g id="axes_2">
   <g id="patch_7">
    <path d="M 153.71125 125.145 
L 261.71125 125.145 
L 261.71125 17.145 
L 153.71125 17.145 
z
" style="fill:#ffffff;"/>
   </g>
   <g id="matplotlib.axis_3">
    <g id="xtick_22">
     <g id="line2d_54">
      <path clip-path="url(#pd8e89c151f)" d="M 153.71125 125.145 
L 153.71125 17.145 
" style="fill:none;stroke:#000000;stroke-linecap:square;stroke-opacity:0.1;stroke-width:0.6;"/>
     </g>
     <g id="line2d_55">
      <g>
       <use style="stroke:#000000;stroke-width:0.6;" x="153.71125" xlink:href="#m1059f96e29" y="125.145"/>
      </g>
     </g>
     <g id="text_15">
      <!-- 0 -->
      <g transform="translate(151.4875 136.8575)scale(0.08 -0.08)">
       <use xlink:href="#HelveticaNeue-48"/>
      </g>
     </g>
    </g>
    <g id="xtick_23">
     <g id="line2d_56">
      <path clip-path="url(#pd8e89c151f)" d="M 180.71125 125.145 
L 180.71125 17.145 
" style="fill:none;stroke:#000000;stroke-linecap:square;stroke-opacity:0.1;stroke-width:0.6;"/>
     </g>
     <g id="line2d_57">
      <g>
       <use style="stroke:#000000;stroke-width:0.6;" x="180.71125" xlink:href="#m1059f96e29" y="125.145"/>
      </g>
     </g>
     <g id="text_16">
      <!-- 0.25 -->
      <g transform="translate(172.928125 136.8575)scale(0.08 -0.08)">
       <use xlink:href="#HelveticaNeue-48"/>
       <use x="55.599991" xlink:href="#HelveticaNeue-46"/>
       <use x="83.399979" xlink:href="#HelveticaNeue-50"/>
       <use x="138.999969" xlink:href="#HelveticaNeue-53"/>
      </g>
     </g>
    </g>
    <g id="xtick_24">
     <g id="line2d_58">
      <path clip-path="url(#pd8e89c151f)" d="M 207.71125 125.145 
L 207.71125 17.145 
" style="fill:none;stroke:#000000;stroke-linecap:square;stroke-opacity:0.1;stroke-width:0.6;"/>
     </g>
     <g id="line2d_59">
      <g>
       <use style="stroke:#000000;stroke-width:0.6;" x="207.71125" xlink:href="#m1059f96e29" y="125.145"/>
      </g>
     </g>
     <g id="text_17">
      <!-- 0.5 -->
      <g transform="translate(202.151875 136.8575)scale(0.08 -0.08)">
       <use xlink:href="#HelveticaNeue-48"/>
       <use x="55.599991" xlink:href="#HelveticaNeue-46"/>
       <use x="83.399979" xlink:href="#HelveticaNeue-53"/>
      </g>
     </g>
    </g>
    <g id="xtick_25">
     <g id="line2d_60">
      <path clip-path="url(#pd8e89c151f)" d="M 234.71125 125.145 
L 234.71125 17.145 
" style="fill:none;stroke:#000000;stroke-linecap:square;stroke-opacity:0.1;stroke-width:0.6;"/>
     </g>
     <g id="line2d_61">
      <g>
       <use style="stroke:#000000;stroke-width:0.6;" x="234.71125" xlink:href="#m1059f96e29" y="125.145"/>
      </g>
     </g>
     <g id="text_18">
      <!-- 0.75 -->
      <g transform="translate(226.928125 136.8575)scale(0.08 -0.08)">
       <use xlink:href="#HelveticaNeue-48"/>
       <use x="55.599991" xlink:href="#HelveticaNeue-46"/>
       <use x="83.399979" xlink:href="#HelveticaNeue-55"/>
       <use x="138.999969" xlink:href="#HelveticaNeue-53"/>
      </g>
     </g>
    </g>
    <g id="xtick_26">
     <g id="line2d_62">
      <path clip-path="url(#pd8e89c151f)" d="M 261.71125 125.145 
L 261.71125 17.145 
" style="fill:none;stroke:#000000;stroke-linecap:square;stroke-opacity:0.1;stroke-width:0.6;"/>
     </g>
     <g id="line2d_63">
      <g>
       <use style="stroke:#000000;stroke-width:0.6;" x="261.71125" xlink:href="#m1059f96e29" y="125.145"/>
      </g>
     </g>
     <g id="text_19">
      <!-- 1 -->
      <g transform="translate(259.4875 136.8575)scale(0.08 -0.08)">
       <use xlink:href="#HelveticaNeue-49"/>
      </g>
     </g>
    </g>
    <g id="xtick_27">
     <g id="line2d_64">
      <g>
       <use style="stroke:#000000;stroke-width:0.48;" x="159.11125" xlink:href="#m83a12dc268" y="125.145"/>
      </g>
     </g>
    </g>
    <g id="xtick_28">
     <g id="line2d_65">
      <g>
       <use style="stroke:#000000;stroke-width:0.48;" x="164.51125" xlink:href="#m83a12dc268" y="125.145"/>
      </g>
     </g>
    </g>
    <g id="xtick_29">
     <g id="line2d_66">
      <g>
       <use style="stroke:#000000;stroke-width:0.48;" x="169.91125" xlink:href="#m83a12dc268" y="125.145"/>
      </g>
     </g>
    </g>
    <g id="xtick_30">
     <g id="line2d_67">
      <g>
       <use style="stroke:#000000;stroke-width:0.48;" x="175.31125" xlink:href="#m83a12dc268" y="125.145"/>
      </g>
     </g>
    </g>
    <g id="xtick_31">
     <g id="line2d_68">
      <g>
       <use style="stroke:#000000;stroke-width:0.48;" x="186.11125" xlink:href="#m83a12dc268" y="125.145"/>
      </g>
     </g>
    </g>
    <g id="xtick_32">
     <g id="line2d_69">
      <g>
       <use style="stroke:#000000;stroke-width:0.48;" x="191.51125" xlink:href="#m83a12dc268" y="125.145"/>
      </g>
     </g>
    </g>
    <g id="xtick_33">
     <g id="line2d_70">
      <g>
       <use style="stroke:#000000;stroke-width:0.48;" x="196.91125" xlink:href="#m83a12dc268" y="125.145"/>
      </g>
     </g>
    </g>
    <g id="xtick_34">
     <g id="line2d_71">
      <g>
       <use style="stroke:#000000;stroke-width:0.48;" x="202.31125" xlink:href="#m83a12dc268" y="125.145"/>
      </g>
     </g>
    </g>
    <g id="xtick_35">
     <g id="line2d_72">
      <g>
       <use style="stroke:#000000;stroke-width:0.48;" x="213.11125" xlink:href="#m83a12dc268" y="125.145"/>
      </g>
     </g>
    </g>
    <g id="xtick_36">
     <g id="line2d_73">
      <g>
       <use style="stroke:#000000;stroke-width:0.48;" x="218.51125" xlink:href="#m83a12dc268" y="125.145"/>
      </g>
     </g>
    </g>
    <g id="xtick_37">
     <g id="line2d_74">
      <g>
       <use style="stroke:#000000;stroke-width:0.48;" x="223.91125" xlink:href="#m83a12dc268" y="125.145"/>
      </g>
     </g>
    </g>
    <g id="xtick_38">
     <g id="line2d_75">
      <g>
       <use style="stroke:#000000;stroke-width:0.48;" x="229.31125" xlink:href="#m83a12dc268" y="125.145"/>
      </g>
     </g>
    </g>
    <g id="xtick_39">
     <g id="line2d_76">
      <g>
       <use style="stroke:#000000;stroke-width:0.48;" x="240.11125" xlink:href="#m83a12dc268" y="125.145"/>
      </g>
     </g>
    </g>
    <g id="xtick_40">
     <g id="line2d_77">
      <g>
       <use style="stroke:#000000;stroke-width:0.48;" x="245.51125" xlink:href="#m83a12dc268" y="125.145"/>
      </g>
     </g>
    </g>
    <g id="xtick_41">
     <g id="line2d_78">
      <g>
       <use style="stroke:#000000;stroke-width:0.48;" x="250.91125" xlink:href="#m83a12dc268" y="125.145"/>
      </g>
     </g>
    </g>
    <g id="xtick_42">
     <g id="line2d_79">
      <g>
       <use style="stroke:#000000;stroke-width:0.48;" x="256.31125" xlink:href="#m83a12dc268" y="125.145"/>
      </g>
     </g>
    </g>
   </g>
   <g id="matplotlib.axis_4">
    <g id="ytick_22">
     <g id="line2d_80">
      <path clip-path="url(#pd8e89c151f)" d="M 153.71125 125.145 
L 261.71125 125.145 
" style="fill:none;stroke:#000000;stroke-linecap:square;stroke-opacity:0.1;stroke-width:0.6;"/>
     </g>
     <g id="line2d_81">
      <g>
       <use style="stroke:#000000;stroke-width:0.6;" x="153.71125" xlink:href="#m8f6874eb3a" y="125.145"/>
      </g>
     </g>
    </g>
    <g id="ytick_23">
     <g id="line2d_82">
      <path clip-path="url(#pd8e89c151f)" d="M 153.71125 103.545 
L 261.71125 103.545 
" style="fill:none;stroke:#000000;stroke-linecap:square;stroke-opacity:0.1;stroke-width:0.6;"/>
     </g>
     <g id="line2d_83">
      <g>
       <use style="stroke:#000000;stroke-width:0.6;" x="153.71125" xlink:href="#m8f6874eb3a" y="103.545"/>
      </g>
     </g>
    </g>
    <g id="ytick_24">
     <g id="line2d_84">
      <path clip-path="url(#pd8e89c151f)" d="M 153.71125 81.945 
L 261.71125 81.945 
" style="fill:none;stroke:#000000;stroke-linecap:square;stroke-opacity:0.1;stroke-width:0.6;"/>
     </g>
     <g id="line2d_85">
      <g>
       <use style="stroke:#000000;stroke-width:0.6;" x="153.71125" xlink:href="#m8f6874eb3a" y="81.945"/>
      </g>
     </g>
    </g>
    <g id="ytick_25">
     <g id="line2d_86">
      <path clip-path="url(#pd8e89c151f)" d="M 153.71125 60.345 
L 261.71125 60.345 
" style="fill:none;stroke:#000000;stroke-linecap:square;stroke-opacity:0.1;stroke-width:0.6;"/>
     </g>
     <g id="line2d_87">
      <g>
       <use style="stroke:#000000;stroke-width:0.6;" x="153.71125" xlink:href="#m8f6874eb3a" y="60.345"/>
      </g>
     </g>
    </g>
    <g id="ytick_26">
     <g id="line2d_88">
      <path clip-path="url(#pd8e89c151f)" d="M 153.71125 38.745 
L 261.71125 38.745 
" style="fill:none;stroke:#000000;stroke-linecap:square;stroke-opacity:0.1;stroke-width:0.6;"/>
     </g>
     <g id="line2d_89">
      <g>
       <use style="stroke:#000000;stroke-width:0.6;" x="153.71125" xlink:href="#m8f6874eb3a" y="38.745"/>
      </g>
     </g>
    </g>
    <g id="ytick_27">
     <g id="line2d_90">
      <path clip-path="url(#pd8e89c151f)" d="M 153.71125 17.145 
L 261.71125 17.145 
" style="fill:none;stroke:#000000;stroke-linecap:square;stroke-opacity:0.1;stroke-width:0.6;"/>
     </g>
     <g id="line2d_91">
      <g>
       <use style="stroke:#000000;stroke-width:0.6;" x="153.71125" xlink:href="#m8f6874eb3a" y="17.145"/>
      </g>
     </g>
    </g>
    <g id="ytick_28">
     <g id="line2d_92">
      <g>
       <use style="stroke:#000000;stroke-width:0.48;" x="153.71125" xlink:href="#m59f14ff634" y="119.745"/>
      </g>
     </g>
    </g>
    <g id="ytick_29">
     <g id="line2d_93">
      <g>
       <use style="stroke:#000000;stroke-width:0.48;" x="153.71125" xlink:href="#m59f14ff634" y="114.345"/>
      </g>
     </g>
    </g>
    <g id="ytick_30">
     <g id="line2d_94">
      <g>
       <use style="stroke:#000000;stroke-width:0.48;" x="153.71125" xlink:href="#m59f14ff634" y="108.945"/>
      </g>
     </g>
    </g>
    <g id="ytick_31">
     <g id="line2d_95">
      <g>
       <use style="stroke:#000000;stroke-width:0.48;" x="153.71125" xlink:href="#m59f14ff634" y="98.145"/>
      </g>
     </g>
    </g>
    <g id="ytick_32">
     <g id="line2d_96">
      <g>
       <use style="stroke:#000000;stroke-width:0.48;" x="153.71125" xlink:href="#m59f14ff634" y="92.745"/>
      </g>
     </g>
    </g>
    <g id="ytick_33">
     <g id="line2d_97">
      <g>
       <use style="stroke:#000000;stroke-width:0.48;" x="153.71125" xlink:href="#m59f14ff634" y="87.345"/>
      </g>
     </g>
    </g>
    <g id="ytick_34">
     <g id="line2d_98">
      <g>
       <use style="stroke:#000000;stroke-width:0.48;" x="153.71125" xlink:href="#m59f14ff634" y="76.545"/>
      </g>
     </g>
    </g>
    <g id="ytick_35">
     <g id="line2d_99">
      <g>
       <use style="stroke:#000000;stroke-width:0.48;" x="153.71125" xlink:href="#m59f14ff634" y="71.145"/>
      </g>
     </g>
    </g>
    <g id="ytick_36">
     <g id="line2d_100">
      <g>
       <use style="stroke:#000000;stroke-width:0.48;" x="153.71125" xlink:href="#m59f14ff634" y="65.745"/>
      </g>
     </g>
    </g>
    <g id="ytick_37">
     <g id="line2d_101">
      <g>
       <use style="stroke:#000000;stroke-width:0.48;" x="153.71125" xlink:href="#m59f14ff634" y="54.945"/>
      </g>
     </g>
    </g>
    <g id="ytick_38">
     <g id="line2d_102">
      <g>
       <use style="stroke:#000000;stroke-width:0.48;" x="153.71125" xlink:href="#m59f14ff634" y="49.545"/>
      </g>
     </g>
    </g>
    <g id="ytick_39">
     <g id="line2d_103">
      <g>
       <use style="stroke:#000000;stroke-width:0.48;" x="153.71125" xlink:href="#m59f14ff634" y="44.145"/>
      </g>
     </g>
    </g>
    <g id="ytick_40">
     <g id="line2d_104">
      <g>
       <use style="stroke:#000000;stroke-width:0.48;" x="153.71125" xlink:href="#m59f14ff634" y="33.345"/>
      </g>
     </g>
    </g>
    <g id="ytick_41">
     <g id="line2d_105">
      <g>
       <use style="stroke:#000000;stroke-width:0.48;" x="153.71125" xlink:href="#m59f14ff634" y="27.945"/>
      </g>
     </g>
    </g>
    <g id="ytick_42">
     <g id="line2d_106">
      <g>
       <use style="stroke:#000000;stroke-width:0.48;" x="153.71125" xlink:href="#m59f14ff634" y="22.545"/>
      </g>
     </g>
    </g>
   </g>
   <g id="patch_8">
    <path d="M 153.71125 125.145 
L 153.71125 17.145 
" style="fill:none;stroke:#000000;stroke-linecap:square;stroke-linejoin:miter;stroke-width:0.6;"/>
   </g>
   <g id="patch_9">
    <path d="M 261.71125 125.145 
L 261.71125 17.145 
" style="fill:none;stroke:#000000;stroke-linecap:square;stroke-linejoin:miter;stroke-width:0.6;"/>
   </g>
   <g id="patch_10">
    <path d="M 153.71125 125.145 
L 261.71125 125.145 
" style="fill:none;stroke:#000000;stroke-linecap:square;stroke-linejoin:miter;stroke-width:0.6;"/>
   </g>
   <g id="patch_11">
    <path d="M 153.71125 17.145 
L 261.71125 17.145 
" style="fill:none;stroke:#000000;stroke-linecap:square;stroke-linejoin:miter;stroke-width:0.6;"/>
   </g>
   <g id="text_20">
    <path d="M 162.107969 25.749844 
Q 162.107969 26.038125 162.044688 26.308125 
Q 161.982812 26.578125 161.847813 26.784844 
Q 161.712813 26.991562 161.510312 27.113906 
Q 161.307813 27.234844 161.019531 27.234844 
Q 160.739688 27.234844 160.532969 27.113906 
Q 160.32625 26.991562 160.19125 26.784844 
Q 160.05625 26.578125 159.992969 26.308125 
Q 159.929688 26.038125 159.929688 25.749844 
Q 159.929688 25.453125 159.992969 25.183125 
Q 160.05625 24.913125 160.19125 24.706406 
Q 160.32625 24.498281 160.532969 24.377344 
Q 160.739688 24.255 161.019531 24.255 
Q 161.307813 24.255 161.510312 24.377344 
Q 161.712813 24.498281 161.847813 24.706406 
Q 161.982812 24.913125 162.044688 25.183125 
Q 162.107969 25.453125 162.107969 25.749844 
z
M 158.697812 21.645 
L 158.697812 28.071562 
L 159.912813 28.071562 
L 159.912813 27.478125 
L 159.929688 27.478125 
Q 160.137812 27.864844 160.542812 28.026562 
Q 160.947812 28.188281 161.459688 28.188281 
Q 161.81125 28.188281 162.152969 28.044844 
Q 162.494687 27.9 162.768906 27.603281 
Q 163.044531 27.306562 163.214687 26.843906 
Q 163.38625 26.379844 163.38625 25.74 
Q 163.38625 25.101562 163.214687 24.638906 
Q 163.044531 24.174844 162.768906 23.878125 
Q 162.494687 23.58 162.152969 23.436562 
Q 161.81125 23.293125 161.459688 23.293125 
Q 161.027969 23.293125 160.627188 23.459062 
Q 160.227812 23.625 159.992969 23.985 
L 159.974688 23.985 
L 159.974688 21.645 
z
" style="stroke:#ffffff;stroke-linejoin:miter;stroke-width:1.5;"/>
    <path d="M 162.107969 25.749844 
Q 162.107969 26.038125 162.044688 26.308125 
Q 161.982812 26.578125 161.847813 26.784844 
Q 161.712813 26.991562 161.510312 27.113906 
Q 161.307813 27.234844 161.019531 27.234844 
Q 160.739688 27.234844 160.532969 27.113906 
Q 160.32625 26.991562 160.19125 26.784844 
Q 160.05625 26.578125 159.992969 26.308125 
Q 159.929688 26.038125 159.929688 25.749844 
Q 159.929688 25.453125 159.992969 25.183125 
Q 160.05625 24.913125 160.19125 24.706406 
Q 160.32625 24.498281 160.532969 24.377344 
Q 160.739688 24.255 161.019531 24.255 
Q 161.307813 24.255 161.510312 24.377344 
Q 161.712813 24.498281 161.847813 24.706406 
Q 161.982812 24.913125 162.044688 25.183125 
Q 162.107969 25.453125 162.107969 25.749844 
z
M 158.697812 21.645 
L 158.697812 28.071562 
L 159.912813 28.071562 
L 159.912813 27.478125 
L 159.929688 27.478125 
Q 160.137812 27.864844 160.542812 28.026562 
Q 160.947812 28.188281 161.459688 28.188281 
Q 161.81125 28.188281 162.152969 28.044844 
Q 162.494687 27.9 162.768906 27.603281 
Q 163.044531 27.306562 163.214687 26.843906 
Q 163.38625 26.379844 163.38625 25.74 
Q 163.38625 25.101562 163.214687 24.638906 
Q 163.044531 24.174844 162.768906 23.878125 
Q 162.494687 23.58 162.152969 23.436562 
Q 161.81125 23.293125 161.459688 23.293125 
Q 161.027969 23.293125 160.627188 23.459062 
Q 160.227812 23.625 159.992969 23.985 
L 159.974688 23.985 
L 159.974688 21.645 
z
"/>
   </g>
  </g>
  <g id="axes_3">
   <g id="patch_12">
    <path d="M 91.4875 264.7225 
L 201.71125 264.7225 
L 201.71125 156.7225 
L 91.4875 156.7225 
z
" style="fill:#ffffff;"/>
   </g>
   <g id="matplotlib.axis_5">
    <g id="xtick_43">
     <g id="line2d_107">
      <path clip-path="url(#pa810b4a7ce)" d="M 91.4875 264.7225 
L 91.4875 156.7225 
" style="fill:none;stroke:#000000;stroke-linecap:square;stroke-opacity:0.1;stroke-width:0.6;"/>
     </g>
     <g id="line2d_108">
      <g>
       <use style="stroke:#000000;stroke-width:0.6;" x="91.4875" xlink:href="#m1059f96e29" y="264.7225"/>
      </g>
     </g>
     <g id="text_21">
      <!-- 0 -->
      <g transform="translate(89.26375 276.435)scale(0.08 -0.08)">
       <use xlink:href="#HelveticaNeue-48"/>
      </g>
     </g>
    </g>
    <g id="xtick_44">
     <g id="line2d_109">
      <path clip-path="url(#pa810b4a7ce)" d="M 119.32178 264.7225 
L 119.32178 156.7225 
" style="fill:none;stroke:#000000;stroke-linecap:square;stroke-opacity:0.1;stroke-width:0.6;"/>
     </g>
     <g id="line2d_110">
      <g>
       <use style="stroke:#000000;stroke-width:0.6;" x="119.32178" xlink:href="#m1059f96e29" y="264.7225"/>
      </g>
     </g>
     <g id="text_22">
      <!-- 25 -->
      <g transform="translate(114.87428 276.435)scale(0.08 -0.08)">
       <use xlink:href="#HelveticaNeue-50"/>
       <use x="55.599991" xlink:href="#HelveticaNeue-53"/>
      </g>
     </g>
    </g>
    <g id="xtick_45">
     <g id="line2d_111">
      <path clip-path="url(#pa810b4a7ce)" d="M 147.156061 264.7225 
L 147.156061 156.7225 
" style="fill:none;stroke:#000000;stroke-linecap:square;stroke-opacity:0.1;stroke-width:0.6;"/>
     </g>
     <g id="line2d_112">
      <g>
       <use style="stroke:#000000;stroke-width:0.6;" x="147.156061" xlink:href="#m1059f96e29" y="264.7225"/>
      </g>
     </g>
     <g id="text_23">
      <!-- 50 -->
      <g transform="translate(142.708561 276.435)scale(0.08 -0.08)">
       <use xlink:href="#HelveticaNeue-53"/>
       <use x="55.599991" xlink:href="#HelveticaNeue-48"/>
      </g>
     </g>
    </g>
    <g id="xtick_46">
     <g id="line2d_113">
      <path clip-path="url(#pa810b4a7ce)" d="M 174.990341 264.7225 
L 174.990341 156.7225 
" style="fill:none;stroke:#000000;stroke-linecap:square;stroke-opacity:0.1;stroke-width:0.6;"/>
     </g>
     <g id="line2d_114">
      <g>
       <use style="stroke:#000000;stroke-width:0.6;" x="174.990341" xlink:href="#m1059f96e29" y="264.7225"/>
      </g>
     </g>
     <g id="text_24">
      <!-- 75 -->
      <g transform="translate(170.542841 276.435)scale(0.08 -0.08)">
       <use xlink:href="#HelveticaNeue-55"/>
       <use x="55.599991" xlink:href="#HelveticaNeue-53"/>
      </g>
     </g>
    </g>
    <g id="xtick_47">
     <g id="line2d_115">
      <g>
       <use style="stroke:#000000;stroke-width:0.48;" x="97.054356" xlink:href="#m83a12dc268" y="264.7225"/>
      </g>
     </g>
    </g>
    <g id="xtick_48">
     <g id="line2d_116">
      <g>
       <use style="stroke:#000000;stroke-width:0.48;" x="102.621212" xlink:href="#m83a12dc268" y="264.7225"/>
      </g>
     </g>
    </g>
    <g id="xtick_49">
     <g id="line2d_117">
      <g>
       <use style="stroke:#000000;stroke-width:0.48;" x="108.188068" xlink:href="#m83a12dc268" y="264.7225"/>
      </g>
     </g>
    </g>
    <g id="xtick_50">
     <g id="line2d_118">
      <g>
       <use style="stroke:#000000;stroke-width:0.48;" x="113.754924" xlink:href="#m83a12dc268" y="264.7225"/>
      </g>
     </g>
    </g>
    <g id="xtick_51">
     <g id="line2d_119">
      <g>
       <use style="stroke:#000000;stroke-width:0.48;" x="124.888636" xlink:href="#m83a12dc268" y="264.7225"/>
      </g>
     </g>
    </g>
    <g id="xtick_52">
     <g id="line2d_120">
      <g>
       <use style="stroke:#000000;stroke-width:0.48;" x="130.455492" xlink:href="#m83a12dc268" y="264.7225"/>
      </g>
     </g>
    </g>
    <g id="xtick_53">
     <g id="line2d_121">
      <g>
       <use style="stroke:#000000;stroke-width:0.48;" x="136.022348" xlink:href="#m83a12dc268" y="264.7225"/>
      </g>
     </g>
    </g>
    <g id="xtick_54">
     <g id="line2d_122">
      <g>
       <use style="stroke:#000000;stroke-width:0.48;" x="141.589205" xlink:href="#m83a12dc268" y="264.7225"/>
      </g>
     </g>
    </g>
    <g id="xtick_55">
     <g id="line2d_123">
      <g>
       <use style="stroke:#000000;stroke-width:0.48;" x="152.722917" xlink:href="#m83a12dc268" y="264.7225"/>
      </g>
     </g>
    </g>
    <g id="xtick_56">
     <g id="line2d_124">
      <g>
       <use style="stroke:#000000;stroke-width:0.48;" x="158.289773" xlink:href="#m83a12dc268" y="264.7225"/>
      </g>
     </g>
    </g>
    <g id="xtick_57">
     <g id="line2d_125">
      <g>
       <use style="stroke:#000000;stroke-width:0.48;" x="163.856629" xlink:href="#m83a12dc268" y="264.7225"/>
      </g>
     </g>
    </g>
    <g id="xtick_58">
     <g id="line2d_126">
      <g>
       <use style="stroke:#000000;stroke-width:0.48;" x="169.423485" xlink:href="#m83a12dc268" y="264.7225"/>
      </g>
     </g>
    </g>
    <g id="xtick_59">
     <g id="line2d_127">
      <g>
       <use style="stroke:#000000;stroke-width:0.48;" x="180.557197" xlink:href="#m83a12dc268" y="264.7225"/>
      </g>
     </g>
    </g>
    <g id="xtick_60">
     <g id="line2d_128">
      <g>
       <use style="stroke:#000000;stroke-width:0.48;" x="186.124053" xlink:href="#m83a12dc268" y="264.7225"/>
      </g>
     </g>
    </g>
    <g id="xtick_61">
     <g id="line2d_129">
      <g>
       <use style="stroke:#000000;stroke-width:0.48;" x="191.690909" xlink:href="#m83a12dc268" y="264.7225"/>
      </g>
     </g>
    </g>
    <g id="xtick_62">
     <g id="line2d_130">
      <g>
       <use style="stroke:#000000;stroke-width:0.48;" x="197.257765" xlink:href="#m83a12dc268" y="264.7225"/>
      </g>
     </g>
    </g>
    <g id="text_25">
     <!-- xlabel -->
     <g transform="translate(136.083125 286.72375)scale(0.08 -0.08)">
      <use xlink:href="#HelveticaNeue-120"/>
      <use x="51.799988" xlink:href="#HelveticaNeue-108"/>
      <use x="73.999985" xlink:href="#HelveticaNeue-97"/>
      <use x="127.699982" xlink:href="#HelveticaNeue-98"/>
      <use x="186.999969" xlink:href="#HelveticaNeue-101"/>
      <use x="240.699966" xlink:href="#HelveticaNeue-108"/>
     </g>
    </g>
   </g>
   <g id="matplotlib.axis_6">
    <g id="ytick_43">
     <g id="line2d_131">
      <path clip-path="url(#pa810b4a7ce)" d="M 91.4875 258.765521 
L 201.71125 258.765521 
" style="fill:none;stroke:#000000;stroke-linecap:square;stroke-opacity:0.1;stroke-width:0.6;"/>
     </g>
     <g id="line2d_132">
      <g>
       <use style="stroke:#000000;stroke-width:0.6;" x="91.4875" xlink:href="#m8f6874eb3a" y="258.765521"/>
      </g>
     </g>
     <g id="text_26">
      <!-- 10 -->
      <defs>
       <path d="M 4.796875 28.703125 
L 4.796875 21.90625 
L 55.203125 21.90625 
L 55.203125 28.703125 
z
" id="HelveticaNeue-8722"/>
      </defs>
      <g transform="translate(71.7925 261.621771)scale(0.08 -0.08)">
       <use xlink:href="#HelveticaNeue-8722"/>
       <use x="59.999985" xlink:href="#HelveticaNeue-49"/>
       <use x="115.599976" xlink:href="#HelveticaNeue-48"/>
      </g>
     </g>
    </g>
    <g id="ytick_44">
     <g id="line2d_133">
      <path clip-path="url(#pa810b4a7ce)" d="M 91.4875 234.961671 
L 201.71125 234.961671 
" style="fill:none;stroke:#000000;stroke-linecap:square;stroke-opacity:0.1;stroke-width:0.6;"/>
     </g>
     <g id="line2d_134">
      <g>
       <use style="stroke:#000000;stroke-width:0.6;" x="91.4875" xlink:href="#m8f6874eb3a" y="234.961671"/>
      </g>
     </g>
     <g id="text_27">
      <!-- 5 -->
      <g transform="translate(76.24 237.817921)scale(0.08 -0.08)">
       <use xlink:href="#HelveticaNeue-8722"/>
       <use x="59.999985" xlink:href="#HelveticaNeue-53"/>
      </g>
     </g>
    </g>
    <g id="ytick_45">
     <g id="line2d_135">
      <path clip-path="url(#pa810b4a7ce)" d="M 91.4875 211.157821 
L 201.71125 211.157821 
" style="fill:none;stroke:#000000;stroke-linecap:square;stroke-opacity:0.1;stroke-width:0.6;"/>
     </g>
     <g id="line2d_136">
      <g>
       <use style="stroke:#000000;stroke-width:0.6;" x="91.4875" xlink:href="#m8f6874eb3a" y="211.157821"/>
      </g>
     </g>
     <g id="text_28">
      <!-- 0 -->
      <g transform="translate(81.04 214.014071)scale(0.08 -0.08)">
       <use xlink:href="#HelveticaNeue-48"/>
      </g>
     </g>
    </g>
    <g id="ytick_46">
     <g id="line2d_137">
      <path clip-path="url(#pa810b4a7ce)" d="M 91.4875 187.353971 
L 201.71125 187.353971 
" style="fill:none;stroke:#000000;stroke-linecap:square;stroke-opacity:0.1;stroke-width:0.6;"/>
     </g>
     <g id="line2d_138">
      <g>
       <use style="stroke:#000000;stroke-width:0.6;" x="91.4875" xlink:href="#m8f6874eb3a" y="187.353971"/>
      </g>
     </g>
     <g id="text_29">
      <!-- 5 -->
      <g transform="translate(81.04 190.210221)scale(0.08 -0.08)">
       <use xlink:href="#HelveticaNeue-53"/>
      </g>
     </g>
    </g>
    <g id="ytick_47">
     <g id="line2d_139">
      <path clip-path="url(#pa810b4a7ce)" d="M 91.4875 163.55012 
L 201.71125 163.55012 
" style="fill:none;stroke:#000000;stroke-linecap:square;stroke-opacity:0.1;stroke-width:0.6;"/>
     </g>
     <g id="line2d_140">
      <g>
       <use style="stroke:#000000;stroke-width:0.6;" x="91.4875" xlink:href="#m8f6874eb3a" y="163.55012"/>
      </g>
     </g>
     <g id="text_30">
      <!-- 10 -->
      <g transform="translate(76.5925 166.40637)scale(0.08 -0.08)">
       <use xlink:href="#HelveticaNeue-49"/>
       <use x="55.599991" xlink:href="#HelveticaNeue-48"/>
      </g>
     </g>
    </g>
    <g id="ytick_48">
     <g id="line2d_141">
      <g>
       <use style="stroke:#000000;stroke-width:0.48;" x="91.4875" xlink:href="#m59f14ff634" y="263.526291"/>
      </g>
     </g>
    </g>
    <g id="ytick_49">
     <g id="line2d_142">
      <g>
       <use style="stroke:#000000;stroke-width:0.48;" x="91.4875" xlink:href="#m59f14ff634" y="254.004751"/>
      </g>
     </g>
    </g>
    <g id="ytick_50">
     <g id="line2d_143">
      <g>
       <use style="stroke:#000000;stroke-width:0.48;" x="91.4875" xlink:href="#m59f14ff634" y="249.243981"/>
      </g>
     </g>
    </g>
    <g id="ytick_51">
     <g id="line2d_144">
      <g>
       <use style="stroke:#000000;stroke-width:0.48;" x="91.4875" xlink:href="#m59f14ff634" y="244.483211"/>
      </g>
     </g>
    </g>
    <g id="ytick_52">
     <g id="line2d_145">
      <g>
       <use style="stroke:#000000;stroke-width:0.48;" x="91.4875" xlink:href="#m59f14ff634" y="239.722441"/>
      </g>
     </g>
    </g>
    <g id="ytick_53">
     <g id="line2d_146">
      <g>
       <use style="stroke:#000000;stroke-width:0.48;" x="91.4875" xlink:href="#m59f14ff634" y="230.200901"/>
      </g>
     </g>
    </g>
    <g id="ytick_54">
     <g id="line2d_147">
      <g>
       <use style="stroke:#000000;stroke-width:0.48;" x="91.4875" xlink:href="#m59f14ff634" y="225.440131"/>
      </g>
     </g>
    </g>
    <g id="ytick_55">
     <g id="line2d_148">
      <g>
       <use style="stroke:#000000;stroke-width:0.48;" x="91.4875" xlink:href="#m59f14ff634" y="220.679361"/>
      </g>
     </g>
    </g>
    <g id="ytick_56">
     <g id="line2d_149">
      <g>
       <use style="stroke:#000000;stroke-width:0.48;" x="91.4875" xlink:href="#m59f14ff634" y="215.918591"/>
      </g>
     </g>
    </g>
    <g id="ytick_57">
     <g id="line2d_150">
      <g>
       <use style="stroke:#000000;stroke-width:0.48;" x="91.4875" xlink:href="#m59f14ff634" y="206.397051"/>
      </g>
     </g>
    </g>
    <g id="ytick_58">
     <g id="line2d_151">
      <g>
       <use style="stroke:#000000;stroke-width:0.48;" x="91.4875" xlink:href="#m59f14ff634" y="201.636281"/>
      </g>
     </g>
    </g>
    <g id="ytick_59">
     <g id="line2d_152">
      <g>
       <use style="stroke:#000000;stroke-width:0.48;" x="91.4875" xlink:href="#m59f14ff634" y="196.875511"/>
      </g>
     </g>
    </g>
    <g id="ytick_60">
     <g id="line2d_153">
      <g>
       <use style="stroke:#000000;stroke-width:0.48;" x="91.4875" xlink:href="#m59f14ff634" y="192.114741"/>
      </g>
     </g>
    </g>
    <g id="ytick_61">
     <g id="line2d_154">
      <g>
       <use style="stroke:#000000;stroke-width:0.48;" x="91.4875" xlink:href="#m59f14ff634" y="182.5932"/>
      </g>
     </g>
    </g>
    <g id="ytick_62">
     <g id="line2d_155">
      <g>
       <use style="stroke:#000000;stroke-width:0.48;" x="91.4875" xlink:href="#m59f14ff634" y="177.83243"/>
      </g>
     </g>
    </g>
    <g id="ytick_63">
     <g id="line2d_156">
      <g>
       <use style="stroke:#000000;stroke-width:0.48;" x="91.4875" xlink:href="#m59f14ff634" y="173.07166"/>
      </g>
     </g>
    </g>
    <g id="ytick_64">
     <g id="line2d_157">
      <g>
       <use style="stroke:#000000;stroke-width:0.48;" x="91.4875" xlink:href="#m59f14ff634" y="168.31089"/>
      </g>
     </g>
    </g>
    <g id="ytick_65">
     <g id="line2d_158">
      <g>
       <use style="stroke:#000000;stroke-width:0.48;" x="91.4875" xlink:href="#m59f14ff634" y="158.78935"/>
      </g>
     </g>
    </g>
    <g id="text_31">
     <!-- ylabel -->
     <g transform="translate(67.13625 221.166875)rotate(-90)scale(0.08 -0.08)">
      <use xlink:href="#HelveticaNeue-121"/>
      <use x="49.999985" xlink:href="#HelveticaNeue-108"/>
      <use x="72.199982" xlink:href="#HelveticaNeue-97"/>
      <use x="125.899979" xlink:href="#HelveticaNeue-98"/>
      <use x="185.199966" xlink:href="#HelveticaNeue-101"/>
      <use x="238.899963" xlink:href="#HelveticaNeue-108"/>
     </g>
    </g>
   </g>
   <g id="line2d_159">
    <path clip-path="url(#pa810b4a7ce)" d="M 91.4875 215.760446 
L 92.600871 219.06282 
L 93.714242 216.697564 
L 94.827614 219.927839 
L 95.940985 216.094932 
L 97.054356 216.70839 
L 98.167727 215.994787 
L 99.281098 219.013138 
L 100.39447 220.829043 
L 101.507841 224.848475 
L 102.621212 224.112093 
L 103.734583 219.888089 
L 104.847955 219.546974 
L 105.961326 223.901355 
L 107.074697 224.952424 
L 108.188068 220.63182 
L 109.301439 223.827453 
L 110.414811 226.754965 
L 111.528182 222.524787 
L 112.641553 223.553378 
L 113.754924 227.681682 
L 114.868295 224.004969 
L 115.981667 227.9608 
L 117.095038 230.245674 
L 118.208409 228.273584 
L 119.32178 225.194401 
L 120.435152 228.940195 
L 121.548523 227.967099 
L 122.661894 225.978166 
L 123.775265 223.764579 
L 124.888636 226.596649 
L 126.002008 228.715545 
L 127.115379 229.824041 
L 128.22875 227.022385 
L 129.342121 229.499138 
L 130.455492 231.692097 
L 131.568864 230.740382 
L 132.682235 229.404828 
L 133.795606 227.097875 
L 134.908977 225.669646 
L 136.022348 225.927615 
L 137.13572 221.919214 
L 138.249091 222.375564 
L 139.362462 224.552719 
L 140.475833 222.940749 
L 141.589205 225.427934 
L 142.702576 229.878538 
L 143.815947 230.054138 
L 144.929318 232.647635 
L 146.042689 230.990376 
L 147.156061 235.330109 
L 148.269432 239.686415 
L 149.382803 237.828967 
L 150.496174 233.852718 
L 151.609545 237.526794 
L 152.722917 238.772676 
L 153.836288 243.009412 
L 154.949659 238.401379 
L 156.06303 240.017785 
L 157.176402 237.790264 
L 158.289773 236.417779 
L 159.403144 234.81109 
L 160.516515 235.67078 
L 161.629886 231.491045 
L 162.743258 228.088821 
L 163.856629 228.357055 
L 164.97 226.238452 
L 166.083371 228.788855 
L 167.196742 228.907479 
L 168.310114 231.343939 
L 169.423485 230.06635 
L 170.536856 233.616762 
L 171.650227 232.452506 
L 172.763598 230.039114 
L 173.87697 230.09149 
L 174.990341 228.227463 
L 176.103712 225.928649 
L 177.217083 224.883152 
L 178.330455 227.075956 
L 179.443826 223.545614 
L 180.557197 226.806837 
L 181.670568 227.867721 
L 182.783939 226.479649 
L 183.897311 229.484585 
L 185.010682 231.984439 
L 186.124053 228.105483 
L 187.237424 225.31277 
L 188.350795 221.612295 
L 189.464167 217.337563 
L 190.577538 218.577361 
L 191.690909 214.137882 
L 192.80428 210.74979 
L 193.917652 207.943535 
L 195.031023 212.05648 
L 196.144394 208.746087 
L 197.257765 208.421104 
L 198.371136 206.559506 
L 199.484508 203.302992 
L 200.597879 204.753674 
L 201.71125 200.69194 
" style="fill:none;stroke:#0072b2;stroke-linecap:square;stroke-width:2;"/>
   </g>
   <g id="line2d_160">
    <path clip-path="url(#pa810b4a7ce)" d="M 91.4875 211.101174 
L 92.600871 210.252563 
L 93.714242 212.474839 
L 94.827614 216.049076 
L 95.940985 211.84748 
L 97.054356 207.397923 
L 98.167727 210.332079 
L 99.281098 214.711557 
L 100.39447 218.540308 
L 101.507841 221.331261 
L 102.621212 219.136235 
L 103.734583 221.047045 
L 104.847955 219.261143 
L 105.961326 215.66948 
L 107.074697 212.143189 
L 108.188068 207.41729 
L 109.301439 209.391225 
L 110.414811 205.747953 
L 111.528182 203.184608 
L 112.641553 202.96207 
L 113.754924 205.059423 
L 114.868295 203.539704 
L 115.981667 201.309201 
L 117.095038 199.476277 
L 118.208409 197.431111 
L 119.32178 193.323833 
L 120.435152 195.41559 
L 121.548523 199.965591 
L 122.661894 196.722196 
L 123.775265 196.525634 
L 124.888636 192.081702 
L 126.002008 196.518567 
L 127.115379 193.165957 
L 128.22875 191.05015 
L 129.342121 189.813145 
L 130.455492 188.263776 
L 131.568864 191.299725 
L 132.682235 191.938181 
L 133.795606 195.666321 
L 134.908977 194.878279 
L 136.022348 194.742998 
L 137.13572 199.197309 
L 138.249091 196.519858 
L 139.362462 198.479272 
L 140.475833 195.685107 
L 141.589205 198.900178 
L 142.702576 202.992308 
L 143.815947 202.588719 
L 144.929318 204.799574 
L 146.042689 206.172858 
L 147.156061 205.309652 
L 148.269432 203.028346 
L 149.382803 205.849305 
L 150.496174 203.972214 
L 151.609545 208.606456 
L 152.722917 212.167587 
L 153.836288 216.409397 
L 154.949659 220.916873 
L 156.06303 224.627868 
L 157.176402 229.00993 
L 158.289773 224.324725 
L 159.403144 227.231549 
L 160.516515 226.506693 
L 161.629886 224.226307 
L 162.743258 228.464189 
L 163.856629 225.973059 
L 164.97 230.074812 
L 166.083371 229.953789 
L 167.196742 230.977235 
L 168.310114 234.309533 
L 169.423485 238.320998 
L 170.536856 234.606016 
L 171.650227 233.614678 
L 172.763598 229.236679 
L 173.87697 228.485204 
L 174.990341 227.260186 
L 176.103712 223.081513 
L 177.217083 226.967544 
L 178.330455 227.404386 
L 179.443826 228.148362 
L 180.557197 230.173051 
L 181.670568 233.945587 
L 182.783939 232.212085 
L 183.897311 235.071958 
L 185.010682 236.24375 
L 186.124053 238.441226 
L 187.237424 237.859317 
L 188.350795 238.770719 
L 189.464167 235.982729 
L 190.577538 232.700995 
L 191.690909 234.421099 
L 192.80428 229.886412 
L 193.917652 231.338491 
L 195.031023 231.386263 
L 196.144394 233.590315 
L 197.257765 233.77646 
L 198.371136 231.601537 
L 199.484508 235.234756 
L 200.597879 232.814752 
L 201.71125 236.706154 
" style="fill:none;stroke:#d55e00;stroke-linecap:square;stroke-width:2;"/>
   </g>
   <g id="line2d_161">
    <path clip-path="url(#pa810b4a7ce)" d="M 91.4875 213.512173 
L 92.600871 209.730589 
L 93.714242 205.516724 
L 94.827614 207.293131 
L 95.940985 208.827073 
L 97.054356 204.611391 
L 98.167727 206.518716 
L 99.281098 207.031559 
L 100.39447 210.122763 
L 101.507841 212.15819 
L 102.621212 210.559804 
L 103.734583 209.762368 
L 104.847955 213.207294 
L 105.961326 212.068794 
L 107.074697 215.439951 
L 108.188068 213.802779 
L 109.301439 218.101093 
L 110.414811 219.531692 
L 111.528182 224.182652 
L 112.641553 228.129692 
L 113.754924 224.595716 
L 114.868295 224.609781 
L 115.981667 227.582346 
L 117.095038 225.005643 
L 118.208409 224.997985 
L 119.32178 224.590997 
L 120.435152 227.941181 
L 121.548523 227.929676 
L 122.661894 229.900329 
L 123.775265 233.701935 
L 124.888636 234.785948 
L 126.002008 234.556509 
L 127.115379 235.610174 
L 128.22875 240.318035 
L 129.342121 235.805748 
L 130.455492 240.178259 
L 131.568864 238.840561 
L 132.682235 239.208509 
L 133.795606 238.673011 
L 134.908977 236.08826 
L 136.022348 238.029756 
L 137.13572 242.760113 
L 138.249091 239.183263 
L 139.362462 243.315402 
L 140.475833 240.825477 
L 141.589205 239.959025 
L 142.702576 242.6879 
L 143.815947 241.679845 
L 144.929318 246.026883 
L 146.042689 248.674882 
L 147.156061 249.519409 
L 148.269432 249.778552 
L 149.382803 254.505688 
L 150.496174 252.020916 
L 151.609545 251.899637 
L 152.722917 249.070878 
L 153.836288 248.01783 
L 154.949659 250.838702 
L 156.06303 254.521031 
L 157.176402 250.428971 
L 158.289773 253.276704 
L 159.403144 252.673729 
L 160.516515 251.115119 
L 161.629886 251.049361 
L 162.743258 248.323429 
L 163.856629 252.231325 
L 164.97 253.49483 
L 166.083371 252.91907 
L 167.196742 253.101951 
L 168.310114 255.823836 
L 169.423485 252.69142 
L 170.536856 254.422119 
L 171.650227 258.75918 
L 172.763598 254.705652 
L 173.87697 250.725616 
L 174.990341 247.957203 
L 176.103712 247.12928 
L 177.217083 250.515404 
L 178.330455 252.117183 
L 179.443826 255.373714 
L 180.557197 251.44687 
L 181.670568 247.558945 
L 182.783939 246.223829 
L 183.897311 250.291905 
L 185.010682 252.987864 
L 186.124053 253.54104 
L 187.237424 252.700033 
L 188.350795 252.009023 
L 189.464167 249.927262 
L 190.577538 253.68178 
L 191.690909 257.395579 
L 192.80428 260.32228 
L 193.917652 264.7225 
L 195.031023 260.247992 
L 196.144394 261.530855 
L 197.257765 260.378079 
L 198.371136 260.046479 
L 199.484508 260.814475 
L 200.597879 259.407539 
L 201.71125 258.10255 
" style="fill:none;stroke:#009e73;stroke-linecap:square;stroke-width:2;"/>
   </g>
   <g id="line2d_162">
    <path clip-path="url(#pa810b4a7ce)" d="M 91.4875 206.815129 
L 92.600871 211.421991 
L 93.714242 210.120458 
L 94.827614 206.181545 
L 95.940985 203.097753 
L 97.054356 206.456065 
L 98.167727 202.863209 
L 99.281098 202.465154 
L 100.39447 200.465473 
L 101.507841 198.75592 
L 102.621212 195.475785 
L 103.734583 197.620005 
L 104.847955 199.136788 
L 105.961326 201.224346 
L 107.074697 205.669349 
L 108.188068 204.657551 
L 109.301439 204.496414 
L 110.414811 200.669601 
L 111.528182 202.167485 
L 112.641553 202.310811 
L 113.754924 203.204527 
L 114.868295 204.456718 
L 115.981667 200.258062 
L 117.095038 199.543389 
L 118.208409 195.076119 
L 119.32178 192.113127 
L 120.435152 191.838366 
L 121.548523 187.648411 
L 122.661894 190.616674 
L 123.775265 188.623867 
L 124.888636 189.268503 
L 126.002008 189.719571 
L 127.115379 185.956073 
L 128.22875 182.11273 
L 129.342121 179.230591 
L 130.455492 179.024292 
L 131.568864 178.592158 
L 132.682235 174.392846 
L 133.795606 172.884527 
L 134.908977 169.720429 
L 136.022348 170.113319 
L 137.13572 170.095994 
L 138.249091 169.284568 
L 139.362462 172.226721 
L 140.475833 168.908497 
L 141.589205 170.402041 
L 142.702576 174.789846 
L 143.815947 170.747695 
L 144.929318 170.341784 
L 146.042689 167.88376 
L 147.156061 172.583034 
L 148.269432 177.159375 
L 149.382803 176.289633 
L 150.496174 173.476569 
L 151.609545 173.349607 
L 152.722917 177.173768 
L 153.836288 177.279339 
L 154.949659 173.218886 
L 156.06303 175.931303 
L 157.176402 176.976271 
L 158.289773 172.85924 
L 159.403144 173.337655 
L 160.516515 175.120068 
L 161.629886 174.609879 
L 162.743258 175.034481 
L 163.856629 175.054862 
L 164.97 178.437954 
L 166.083371 180.794495 
L 167.196742 183.453745 
L 168.310114 183.811656 
L 169.423485 182.675895 
L 170.536856 180.215109 
L 171.650227 179.599885 
L 172.763598 175.830149 
L 173.87697 176.23973 
L 174.990341 175.173591 
L 176.103712 172.777786 
L 177.217083 172.065318 
L 178.330455 170.402646 
L 179.443826 173.306122 
L 180.557197 169.673255 
L 181.670568 168.382596 
L 182.783939 167.177404 
L 183.897311 163.762743 
L 185.010682 162.922067 
L 186.124053 161.286579 
L 187.237424 162.193997 
L 188.350795 165.451174 
L 189.464167 164.780859 
L 190.577538 167.920735 
L 191.690909 169.770807 
L 192.80428 170.573588 
L 193.917652 169.197318 
L 195.031023 172.157482 
L 196.144394 169.141016 
L 197.257765 164.586416 
L 198.371136 164.552831 
L 199.484508 165.105718 
L 200.597879 160.681707 
L 201.71125 156.7225 
" style="fill:none;stroke:#cc79a7;stroke-linecap:square;stroke-width:2;"/>
   </g>
   <g id="line2d_163">
    <path clip-path="url(#pa810b4a7ce)" d="M 91.4875 209.318392 
L 92.600871 209.007138 
L 93.714242 209.409163 
L 94.827614 212.862903 
L 95.940985 214.917234 
L 97.054356 215.352086 
L 98.167727 211.514444 
L 99.281098 210.378332 
L 100.39447 209.865138 
L 101.507841 208.617886 
L 102.621212 205.907731 
L 103.734583 201.738501 
L 104.847955 203.438091 
L 105.961326 207.733134 
L 107.074697 211.439794 
L 108.188068 214.482322 
L 109.301439 214.941099 
L 110.414811 218.336355 
L 111.528182 222.688047 
L 112.641553 221.889127 
L 113.754924 226.639316 
L 114.868295 230.70008 
L 115.981667 233.489539 
L 117.095038 236.735327 
L 118.208409 234.384814 
L 119.32178 239.061524 
L 120.435152 243.116709 
L 121.548523 244.968782 
L 122.661894 242.199086 
L 123.775265 246.056551 
L 124.888636 247.613663 
L 126.002008 248.8263 
L 127.115379 249.452014 
L 128.22875 246.163868 
L 129.342121 247.883574 
L 130.455492 246.169895 
L 131.568864 250.617382 
L 132.682235 246.425517 
L 133.795606 247.354522 
L 134.908977 242.682654 
L 136.022348 243.026511 
L 137.13572 244.997139 
L 138.249091 245.896601 
L 139.362462 248.855038 
L 140.475833 244.853777 
L 141.589205 245.956921 
L 142.702576 248.042339 
L 143.815947 246.950315 
L 144.929318 247.620462 
L 146.042689 250.523307 
L 147.156061 252.515327 
L 148.269432 256.016173 
L 149.382803 253.7863 
L 150.496174 255.057947 
L 151.609545 253.396179 
L 152.722917 250.635952 
L 153.836288 246.85858 
L 154.949659 247.954941 
L 156.06303 250.87529 
L 157.176402 251.876661 
L 158.289773 249.374925 
L 159.403144 251.093417 
L 160.516515 249.666243 
L 161.629886 246.472698 
L 162.743258 248.13923 
L 163.856629 248.935351 
L 164.97 247.277898 
L 166.083371 249.300649 
L 167.196742 244.681565 
L 168.310114 246.91532 
L 169.423485 244.793502 
L 170.536856 247.97975 
L 171.650227 250.719215 
L 172.763598 250.714391 
L 173.87697 252.542944 
L 174.990341 250.235616 
L 176.103712 252.49529 
L 177.217083 252.54452 
L 178.330455 250.475056 
L 179.443826 249.739781 
L 180.557197 254.080495 
L 181.670568 255.79496 
L 182.783939 253.381333 
L 183.897311 254.173963 
L 185.010682 257.209133 
L 186.124053 252.571347 
L 187.237424 250.476919 
L 188.350795 246.300105 
L 189.464167 245.987137 
L 190.577538 249.943235 
L 191.690909 254.632152 
L 192.80428 251.415546 
L 193.917652 247.89099 
L 195.031023 243.600863 
L 196.144394 244.929339 
L 197.257765 248.589359 
L 198.371136 244.047831 
L 199.484508 247.401342 
L 200.597879 243.230237 
L 201.71125 240.203096 
" style="fill:none;stroke:#f0e442;stroke-linecap:square;stroke-width:2;"/>
   </g>
   <g id="patch_13">
    <path d="M 91.4875 264.7225 
L 91.4875 156.7225 
" style="fill:none;stroke:#000000;stroke-linecap:square;stroke-linejoin:miter;stroke-width:0.6;"/>
   </g>
   <g id="patch_14">
    <path d="M 201.71125 264.7225 
L 201.71125 156.7225 
" style="fill:none;stroke:#000000;stroke-linecap:square;stroke-linejoin:miter;stroke-width:0.6;"/>
   </g>
   <g id="patch_15">
    <path d="M 91.4875 264.7225 
L 201.71125 264.7225 
" style="fill:none;stroke:#000000;stroke-linecap:square;stroke-linejoin:miter;stroke-width:0.6;"/>
   </g>
   <g id="patch_16">
    <path d="M 91.4875 156.7225 
L 201.71125 156.7225 
" style="fill:none;stroke:#000000;stroke-linecap:square;stroke-linejoin:miter;stroke-width:0.6;"/>
   </g>
   <g id="text_32">
    <path d="M 99.733594 164.634063 
L 100.985156 164.634063 
Q 100.958438 164.184063 100.768594 163.856406 
Q 100.580156 163.527344 100.277813 163.306563 
Q 99.976875 163.085781 99.594375 162.978906 
Q 99.211875 162.870625 98.798438 162.870625 
Q 98.231719 162.870625 97.790156 163.059063 
Q 97.348594 163.2475 97.042031 163.585 
Q 96.736875 163.9225 96.579375 164.386563 
Q 96.421875 164.850625 96.421875 165.390625 
Q 96.421875 165.912344 96.592031 166.349688 
Q 96.763594 166.785625 97.070156 167.100625 
Q 97.376719 167.415625 97.812656 167.591406 
Q 98.248594 167.765781 98.771719 167.765781 
Q 99.698438 167.765781 100.291875 167.280625 
Q 100.886719 166.794063 101.011875 165.867344 
L 99.778594 165.867344 
Q 99.716719 166.299063 99.469219 166.556406 
Q 99.221719 166.812344 98.761875 166.812344 
Q 98.465156 166.812344 98.258438 166.677344 
Q 98.051719 166.542344 97.929375 166.331406 
Q 97.808438 166.119063 97.753594 165.858906 
Q 97.700156 165.597344 97.700156 165.345625 
Q 97.700156 165.084063 97.753594 164.818281 
Q 97.808438 164.5525 97.937813 164.333125 
Q 98.068594 164.112344 98.275313 163.973125 
Q 98.483438 163.8325 98.788594 163.8325 
Q 99.608438 163.8325 99.733594 164.634063 
z
" style="stroke:#ffffff;stroke-linejoin:miter;stroke-width:1.5;"/>
    <path d="M 99.733594 164.634063 
L 100.985156 164.634063 
Q 100.958438 164.184063 100.768594 163.856406 
Q 100.580156 163.527344 100.277813 163.306563 
Q 99.976875 163.085781 99.594375 162.978906 
Q 99.211875 162.870625 98.798438 162.870625 
Q 98.231719 162.870625 97.790156 163.059063 
Q 97.348594 163.2475 97.042031 163.585 
Q 96.736875 163.9225 96.579375 164.386563 
Q 96.421875 164.850625 96.421875 165.390625 
Q 96.421875 165.912344 96.592031 166.349688 
Q 96.763594 166.785625 97.070156 167.100625 
Q 97.376719 167.415625 97.812656 167.591406 
Q 98.248594 167.765781 98.771719 167.765781 
Q 99.698438 167.765781 100.291875 167.280625 
Q 100.886719 166.794063 101.011875 165.867344 
L 99.778594 165.867344 
Q 99.716719 166.299063 99.469219 166.556406 
Q 99.221719 166.812344 98.761875 166.812344 
Q 98.465156 166.812344 98.258438 166.677344 
Q 98.051719 166.542344 97.929375 166.331406 
Q 97.808438 166.119063 97.753594 165.858906 
Q 97.700156 165.597344 97.700156 165.345625 
Q 97.700156 165.084063 97.753594 164.818281 
Q 97.808438 164.5525 97.937813 164.333125 
Q 98.068594 164.112344 98.275313 163.973125 
Q 98.483438 163.8325 98.788594 163.8325 
Q 99.608438 163.8325 99.733594 164.634063 
z
"/>
   </g>
  </g>
  <g id="text_33">
   <!-- Subplot grid with centered rows -->
   <defs>
    <path d="M 17.59375 23.703125 
L 2.40625 23.703125 
Q 2.296875 17.09375 4.796875 12.296875 
Q 7.296875 7.5 11.546875 4.390625 
Q 15.796875 1.296875 21.34375 -0.140625 
Q 26.90625 -1.59375 32.796875 -1.59375 
Q 40.09375 -1.59375 45.640625 0.09375 
Q 51.203125 1.796875 54.953125 4.84375 
Q 58.703125 7.90625 60.59375 12.09375 
Q 62.5 16.296875 62.5 21.203125 
Q 62.5 27.203125 59.953125 31.046875 
Q 57.40625 34.90625 53.90625 37.203125 
Q 50.40625 39.5 46.84375 40.546875 
Q 43.296875 41.59375 41.296875 42 
Q 34.59375 43.703125 30.4375 44.796875 
Q 26.296875 45.90625 23.9375 47 
Q 21.59375 48.09375 20.796875 49.390625 
Q 20 50.703125 20 52.796875 
Q 20 55.09375 21 56.59375 
Q 22 58.09375 23.546875 59.09375 
Q 25.09375 60.09375 27 60.5 
Q 28.90625 60.90625 30.796875 60.90625 
Q 33.703125 60.90625 36.140625 60.40625 
Q 38.59375 59.90625 40.5 58.703125 
Q 42.40625 57.5 43.546875 55.390625 
Q 44.703125 53.296875 44.90625 50.09375 
L 60.09375 50.09375 
Q 60.09375 56.296875 57.75 60.640625 
Q 55.40625 65 51.40625 67.796875 
Q 47.40625 70.59375 42.25 71.84375 
Q 37.09375 73.09375 31.5 73.09375 
Q 26.703125 73.09375 21.890625 71.796875 
Q 17.09375 70.5 13.296875 67.796875 
Q 9.5 65.09375 7.140625 61.046875 
Q 4.796875 57 4.796875 51.5 
Q 4.796875 46.59375 6.640625 43.140625 
Q 8.5 39.703125 11.5 37.390625 
Q 14.5 35.09375 18.296875 33.640625 
Q 22.09375 32.203125 26.09375 31.203125 
Q 30 30.09375 33.796875 29.1875 
Q 37.59375 28.296875 40.59375 27.09375 
Q 43.59375 25.90625 45.4375 24.09375 
Q 47.296875 22.296875 47.296875 19.40625 
Q 47.296875 16.703125 45.890625 14.953125 
Q 44.5 13.203125 42.390625 12.203125 
Q 40.296875 11.203125 37.890625 10.84375 
Q 35.5 10.5 33.40625 10.5 
Q 30.296875 10.5 27.390625 11.25 
Q 24.5 12 22.34375 13.546875 
Q 20.203125 15.09375 18.890625 17.59375 
Q 17.59375 20.09375 17.59375 23.703125 
z
" id="HelveticaNeue-Bold-83"/>
    <path d="M 53.90625 0 
L 53.90625 51.703125 
L 39.703125 51.703125 
L 39.703125 24.59375 
Q 39.703125 16.703125 37.09375 13.25 
Q 34.5 9.796875 28.703125 9.796875 
Q 23.59375 9.796875 21.59375 12.9375 
Q 19.59375 16.09375 19.59375 22.5 
L 19.59375 51.703125 
L 5.40625 51.703125 
L 5.40625 19.90625 
Q 5.40625 15.09375 6.25 11.140625 
Q 7.09375 7.203125 9.1875 4.453125 
Q 11.296875 1.703125 14.9375 0.203125 
Q 18.59375 -1.296875 24.296875 -1.296875 
Q 28.796875 -1.296875 33.09375 0.703125 
Q 37.40625 2.703125 40.09375 7.203125 
L 40.40625 7.203125 
L 40.40625 0 
z
" id="HelveticaNeue-Bold-117"/>
    <path d="M 43.296875 25.796875 
Q 43.296875 22.59375 42.59375 19.59375 
Q 41.90625 16.59375 40.40625 14.296875 
Q 38.90625 12 36.65625 10.640625 
Q 34.40625 9.296875 31.203125 9.296875 
Q 28.09375 9.296875 25.796875 10.640625 
Q 23.5 12 22 14.296875 
Q 20.5 16.59375 19.796875 19.59375 
Q 19.09375 22.59375 19.09375 25.796875 
Q 19.09375 29.09375 19.796875 32.09375 
Q 20.5 35.09375 22 37.390625 
Q 23.5 39.703125 25.796875 41.046875 
Q 28.09375 42.40625 31.203125 42.40625 
Q 34.40625 42.40625 36.65625 41.046875 
Q 38.90625 39.703125 40.40625 37.390625 
Q 41.90625 35.09375 42.59375 32.09375 
Q 43.296875 29.09375 43.296875 25.796875 
z
M 5.40625 71.40625 
L 5.40625 0 
L 18.90625 0 
L 18.90625 6.59375 
L 19.09375 6.59375 
Q 21.40625 2.296875 25.90625 0.5 
Q 30.40625 -1.296875 36.09375 -1.296875 
Q 40 -1.296875 43.796875 0.296875 
Q 47.59375 1.90625 50.640625 5.203125 
Q 53.703125 8.5 55.59375 13.640625 
Q 57.5 18.796875 57.5 25.90625 
Q 57.5 33 55.59375 38.140625 
Q 53.703125 43.296875 50.640625 46.59375 
Q 47.59375 49.90625 43.796875 51.5 
Q 40 53.09375 36.09375 53.09375 
Q 31.296875 53.09375 26.84375 51.25 
Q 22.40625 49.40625 19.796875 45.40625 
L 19.59375 45.40625 
L 19.59375 71.40625 
z
" id="HelveticaNeue-Bold-98"/>
    <path d="M 31.5 9.296875 
Q 28.09375 9.296875 25.6875 10.6875 
Q 23.296875 12.09375 21.84375 14.34375 
Q 20.40625 16.59375 19.75 19.59375 
Q 19.09375 22.59375 19.09375 25.703125 
Q 19.09375 28.90625 19.6875 31.90625 
Q 20.296875 34.90625 21.75 37.203125 
Q 23.203125 39.5 25.546875 40.953125 
Q 27.90625 42.40625 31.40625 42.40625 
Q 34.796875 42.40625 37.140625 40.953125 
Q 39.5 39.5 41 37.140625 
Q 42.5 34.796875 43.140625 31.796875 
Q 43.796875 28.796875 43.796875 25.703125 
Q 43.796875 22.59375 43.1875 19.59375 
Q 42.59375 16.59375 41.140625 14.34375 
Q 39.703125 12.09375 37.34375 10.6875 
Q 35 9.296875 31.5 9.296875 
z
M 5.40625 51.703125 
L 5.40625 -18.09375 
L 19.59375 -18.09375 
L 19.59375 6.40625 
L 19.796875 6.40625 
Q 22.40625 2.59375 26.453125 0.640625 
Q 30.5 -1.296875 35.296875 -1.296875 
Q 41 -1.296875 45.25 0.890625 
Q 49.5 3.09375 52.34375 6.796875 
Q 55.203125 10.5 56.59375 15.296875 
Q 58 20.09375 58 25.296875 
Q 58 30.796875 56.59375 35.84375 
Q 55.203125 40.90625 52.296875 44.703125 
Q 49.40625 48.5 45 50.796875 
Q 40.59375 53.09375 34.5 53.09375 
Q 29.703125 53.09375 25.703125 51.1875 
Q 21.703125 49.296875 19.09375 45.09375 
L 18.90625 45.09375 
L 18.90625 51.703125 
z
" id="HelveticaNeue-Bold-112"/>
    <path d="M 5.796875 71.40625 
L 5.796875 0 
L 20 0 
L 20 71.40625 
z
" id="HelveticaNeue-Bold-108"/>
    <path d="M 18 25.796875 
Q 18 28.90625 18.59375 31.90625 
Q 19.203125 34.90625 20.640625 37.203125 
Q 22.09375 39.5 24.5 40.953125 
Q 26.90625 42.40625 30.5 42.40625 
Q 34.09375 42.40625 36.546875 40.953125 
Q 39 39.5 40.453125 37.203125 
Q 41.90625 34.90625 42.5 31.90625 
Q 43.09375 28.90625 43.09375 25.796875 
Q 43.09375 22.703125 42.5 19.75 
Q 41.90625 16.796875 40.453125 14.4375 
Q 39 12.09375 36.546875 10.6875 
Q 34.09375 9.296875 30.5 9.296875 
Q 26.90625 9.296875 24.5 10.6875 
Q 22.09375 12.09375 20.640625 14.4375 
Q 19.203125 16.796875 18.59375 19.75 
Q 18 22.703125 18 25.796875 
z
M 3.796875 25.796875 
Q 3.796875 19.59375 5.6875 14.59375 
Q 7.59375 9.59375 11.09375 6.046875 
Q 14.59375 2.5 19.5 0.59375 
Q 24.40625 -1.296875 30.5 -1.296875 
Q 36.59375 -1.296875 41.546875 0.59375 
Q 46.5 2.5 50 6.046875 
Q 53.5 9.59375 55.390625 14.59375 
Q 57.296875 19.59375 57.296875 25.796875 
Q 57.296875 32 55.390625 37.046875 
Q 53.5 42.09375 50 45.640625 
Q 46.5 49.203125 41.546875 51.140625 
Q 36.59375 53.09375 30.5 53.09375 
Q 24.40625 53.09375 19.5 51.140625 
Q 14.59375 49.203125 11.09375 45.640625 
Q 7.59375 42.09375 5.6875 37.046875 
Q 3.796875 32 3.796875 25.796875 
z
" id="HelveticaNeue-Bold-111"/>
    <path d="M 23.40625 51.703125 
L 23.40625 67.203125 
L 9.203125 67.203125 
L 9.203125 51.703125 
L 0.59375 51.703125 
L 0.59375 42.203125 
L 9.203125 42.203125 
L 9.203125 11.703125 
Q 9.203125 7.796875 10.5 5.390625 
Q 11.796875 3 14.046875 1.703125 
Q 16.296875 0.40625 19.25 -0.046875 
Q 22.203125 -0.5 25.5 -0.5 
Q 27.59375 -0.5 29.796875 -0.390625 
Q 32 -0.296875 33.796875 0 
L 33.796875 11 
Q 32.796875 10.796875 31.6875 10.6875 
Q 30.59375 10.59375 29.40625 10.59375 
Q 25.796875 10.59375 24.59375 11.796875 
Q 23.40625 13 23.40625 16.59375 
L 23.40625 42.203125 
L 33.796875 42.203125 
L 33.796875 51.703125 
z
" id="HelveticaNeue-Bold-116"/>
    <path id="HelveticaNeue-Bold-32"/>
    <path d="M 29.5 12.203125 
Q 26.203125 12.203125 24 13.59375 
Q 21.796875 15 20.4375 17.203125 
Q 19.09375 19.40625 18.546875 22.15625 
Q 18 24.90625 18 27.703125 
Q 18 30.59375 18.640625 33.25 
Q 19.296875 35.90625 20.75 37.953125 
Q 22.203125 40 24.34375 41.203125 
Q 26.5 42.40625 29.5 42.40625 
Q 33 42.40625 35.296875 41.09375 
Q 37.59375 39.796875 39 37.59375 
Q 40.40625 35.40625 41 32.546875 
Q 41.59375 29.703125 41.59375 26.5 
Q 41.59375 23.703125 40.84375 21.140625 
Q 40.09375 18.59375 38.59375 16.59375 
Q 37.09375 14.59375 34.796875 13.390625 
Q 32.5 12.203125 29.5 12.203125 
z
M 55.09375 3.296875 
L 55.09375 51.703125 
L 41.59375 51.703125 
L 41.59375 44.796875 
L 41.40625 44.796875 
Q 38.796875 49.296875 34.9375 51.1875 
Q 31.09375 53.09375 26 53.09375 
Q 20.59375 53.09375 16.4375 51 
Q 12.296875 48.90625 9.5 45.34375 
Q 6.703125 41.796875 5.25 37.140625 
Q 3.796875 32.5 3.796875 27.5 
Q 3.796875 22.203125 5.046875 17.453125 
Q 6.296875 12.703125 9 9.140625 
Q 11.703125 5.59375 15.890625 3.546875 
Q 20.09375 1.5 25.90625 1.5 
Q 30.59375 1.5 34.84375 3.453125 
Q 39.09375 5.40625 41.40625 9.5 
L 41.59375 9.5 
L 41.59375 2.703125 
Q 41.703125 -2.796875 38.953125 -6.390625 
Q 36.203125 -10 30.203125 -10 
Q 26.40625 -10 23.5 -8.453125 
Q 20.59375 -6.90625 19.59375 -2.90625 
L 5.5 -2.90625 
Q 5.796875 -7.296875 7.9375 -10.4375 
Q 10.09375 -13.59375 13.34375 -15.59375 
Q 16.59375 -17.59375 20.546875 -18.546875 
Q 24.5 -19.5 28.296875 -19.5 
Q 37.203125 -19.5 42.5 -17.09375 
Q 47.796875 -14.703125 50.59375 -11.25 
Q 53.40625 -7.796875 54.25 -3.796875 
Q 55.09375 0.203125 55.09375 3.296875 
z
" id="HelveticaNeue-Bold-103"/>
    <path d="M 5.40625 51.703125 
L 5.40625 0 
L 19.59375 0 
L 19.59375 23.296875 
Q 19.59375 26.796875 20.296875 29.796875 
Q 21 32.796875 22.640625 35.046875 
Q 24.296875 37.296875 27 38.59375 
Q 29.703125 39.90625 33.59375 39.90625 
Q 34.90625 39.90625 36.296875 39.75 
Q 37.703125 39.59375 38.703125 39.40625 
L 38.703125 52.59375 
Q 37 53.09375 35.59375 53.09375 
Q 32.90625 53.09375 30.40625 52.296875 
Q 27.90625 51.5 25.703125 50.046875 
Q 23.5 48.59375 21.796875 46.546875 
Q 20.09375 44.5 19.09375 42.09375 
L 18.90625 42.09375 
L 18.90625 51.703125 
z
" id="HelveticaNeue-Bold-114"/>
    <path d="M 20 59.703125 
L 20 71.40625 
L 5.796875 71.40625 
L 5.796875 59.703125 
z
M 5.796875 51.703125 
L 5.796875 0 
L 20 0 
L 20 51.703125 
z
" id="HelveticaNeue-Bold-105"/>
    <path d="M 42.09375 26 
Q 42.09375 22.796875 41.5 19.796875 
Q 40.90625 16.796875 39.5 14.4375 
Q 38.09375 12.09375 35.75 10.6875 
Q 33.40625 9.296875 29.90625 9.296875 
Q 26.59375 9.296875 24.25 10.75 
Q 21.90625 12.203125 20.34375 14.546875 
Q 18.796875 16.90625 18.09375 19.90625 
Q 17.40625 22.90625 17.40625 25.90625 
Q 17.40625 29.09375 18.046875 32.046875 
Q 18.703125 35 20.140625 37.296875 
Q 21.59375 39.59375 24 41 
Q 26.40625 42.40625 29.90625 42.40625 
Q 33.40625 42.40625 35.703125 41 
Q 38 39.59375 39.453125 37.34375 
Q 40.90625 35.09375 41.5 32.140625 
Q 42.09375 29.203125 42.09375 26 
z
M 42.296875 6.59375 
L 42.296875 0 
L 55.796875 0 
L 55.796875 71.40625 
L 41.59375 71.40625 
L 41.59375 45.40625 
L 41.40625 45.40625 
Q 39 49.203125 34.84375 51.140625 
Q 30.703125 53.09375 26.09375 53.09375 
Q 20.40625 53.09375 16.09375 50.84375 
Q 11.796875 48.59375 8.9375 44.890625 
Q 6.09375 41.203125 4.640625 36.34375 
Q 3.203125 31.5 3.203125 26.296875 
Q 3.203125 20.90625 4.640625 15.90625 
Q 6.09375 10.90625 8.9375 7.046875 
Q 11.796875 3.203125 16.1875 0.953125 
Q 20.59375 -1.296875 26.40625 -1.296875 
Q 31.5 -1.296875 35.546875 0.546875 
Q 39.59375 2.40625 42.09375 6.59375 
z
" id="HelveticaNeue-Bold-100"/>
    <path d="M 64.5 0 
L 80.796875 51.703125 
L 66.203125 51.703125 
L 56.703125 16.703125 
L 56.5 16.703125 
L 47.703125 51.703125 
L 33.90625 51.703125 
L 25.296875 16.59375 
L 25.09375 16.59375 
L 15.59375 51.703125 
L 0.59375 51.703125 
L 17 0 
L 31.703125 0 
L 40.5 34.703125 
L 40.703125 34.703125 
L 49.90625 0 
z
" id="HelveticaNeue-Bold-119"/>
    <path d="M 5.40625 71.40625 
L 5.40625 0 
L 19.59375 0 
L 19.59375 27.09375 
Q 19.59375 35 22.1875 38.453125 
Q 24.796875 41.90625 30.59375 41.90625 
Q 35.703125 41.90625 37.703125 38.75 
Q 39.703125 35.59375 39.703125 29.203125 
L 39.703125 0 
L 53.90625 0 
L 53.90625 31.796875 
Q 53.90625 36.59375 53.046875 40.546875 
Q 52.203125 44.5 50.09375 47.25 
Q 48 50 44.34375 51.546875 
Q 40.703125 53.09375 35 53.09375 
Q 31 53.09375 26.796875 51.046875 
Q 22.59375 49 19.90625 44.5 
L 19.59375 44.5 
L 19.59375 71.40625 
z
" id="HelveticaNeue-Bold-104"/>
    <path d="M 40.59375 33.5 
L 54.5 33.5 
Q 54.203125 38.5 52.09375 42.140625 
Q 50 45.796875 46.640625 48.25 
Q 43.296875 50.703125 39.046875 51.890625 
Q 34.796875 53.09375 30.203125 53.09375 
Q 23.90625 53.09375 19 51 
Q 14.09375 48.90625 10.6875 45.15625 
Q 7.296875 41.40625 5.546875 36.25 
Q 3.796875 31.09375 3.796875 25.09375 
Q 3.796875 19.296875 5.6875 14.4375 
Q 7.59375 9.59375 11 6.09375 
Q 14.40625 2.59375 19.25 0.640625 
Q 24.09375 -1.296875 29.90625 -1.296875 
Q 40.203125 -1.296875 46.796875 4.09375 
Q 53.40625 9.5 54.796875 19.796875 
L 41.09375 19.796875 
Q 40.40625 15 37.65625 12.140625 
Q 34.90625 9.296875 29.796875 9.296875 
Q 26.5 9.296875 24.203125 10.796875 
Q 21.90625 12.296875 20.546875 14.640625 
Q 19.203125 17 18.59375 19.890625 
Q 18 22.796875 18 25.59375 
Q 18 28.5 18.59375 31.453125 
Q 19.203125 34.40625 20.640625 36.84375 
Q 22.09375 39.296875 24.390625 40.84375 
Q 26.703125 42.40625 30.09375 42.40625 
Q 39.203125 42.40625 40.59375 33.5 
z
" id="HelveticaNeue-Bold-99"/>
    <path d="M 40.203125 31.40625 
L 17.09375 31.40625 
Q 17.203125 32.90625 17.75 34.796875 
Q 18.296875 36.703125 19.640625 38.390625 
Q 21 40.09375 23.25 41.25 
Q 25.5 42.40625 28.90625 42.40625 
Q 34.09375 42.40625 36.640625 39.59375 
Q 39.203125 36.796875 40.203125 31.40625 
z
M 17.09375 22.40625 
L 54.40625 22.40625 
Q 54.796875 28.40625 53.390625 33.90625 
Q 52 39.40625 48.84375 43.703125 
Q 45.703125 48 40.796875 50.546875 
Q 35.90625 53.09375 29.296875 53.09375 
Q 23.40625 53.09375 18.546875 51 
Q 13.703125 48.90625 10.203125 45.25 
Q 6.703125 41.59375 4.796875 36.59375 
Q 2.90625 31.59375 2.90625 25.796875 
Q 2.90625 19.796875 4.75 14.796875 
Q 6.59375 9.796875 10 6.1875 
Q 13.40625 2.59375 18.296875 0.640625 
Q 23.203125 -1.296875 29.296875 -1.296875 
Q 38.09375 -1.296875 44.296875 2.703125 
Q 50.5 6.703125 53.5 16 
L 41 16 
Q 40.296875 13.59375 37.1875 11.4375 
Q 34.09375 9.296875 29.796875 9.296875 
Q 23.796875 9.296875 20.59375 12.390625 
Q 17.40625 15.5 17.09375 22.40625 
z
" id="HelveticaNeue-Bold-101"/>
    <path d="M 5.40625 51.703125 
L 5.40625 0 
L 19.59375 0 
L 19.59375 27.09375 
Q 19.59375 35 22.1875 38.453125 
Q 24.796875 41.90625 30.59375 41.90625 
Q 35.703125 41.90625 37.703125 38.75 
Q 39.703125 35.59375 39.703125 29.203125 
L 39.703125 0 
L 53.90625 0 
L 53.90625 31.796875 
Q 53.90625 36.59375 53.046875 40.546875 
Q 52.203125 44.5 50.09375 47.25 
Q 48 50 44.34375 51.546875 
Q 40.703125 53.09375 35 53.09375 
Q 30.5 53.09375 26.203125 51.046875 
Q 21.90625 49 19.203125 44.5 
L 18.90625 44.5 
L 18.90625 51.703125 
z
" id="HelveticaNeue-Bold-110"/>
    <path d="M 16.40625 16.796875 
L 2.90625 16.796875 
Q 3.09375 11.59375 5.25 8.140625 
Q 7.40625 4.703125 10.75 2.59375 
Q 14.09375 0.5 18.390625 -0.390625 
Q 22.703125 -1.296875 27.203125 -1.296875 
Q 31.59375 -1.296875 35.84375 -0.4375 
Q 40.09375 0.40625 43.390625 2.5 
Q 46.703125 4.59375 48.75 8.046875 
Q 50.796875 11.5 50.796875 16.59375 
Q 50.796875 20.203125 49.390625 22.640625 
Q 48 25.09375 45.703125 26.75 
Q 43.40625 28.40625 40.453125 29.40625 
Q 37.5 30.40625 34.40625 31.09375 
Q 31.40625 31.796875 28.5 32.390625 
Q 25.59375 33 23.34375 33.75 
Q 21.09375 34.5 19.6875 35.703125 
Q 18.296875 36.90625 18.296875 38.796875 
Q 18.296875 40.40625 19.09375 41.34375 
Q 19.90625 42.296875 21.046875 42.796875 
Q 22.203125 43.296875 23.59375 43.4375 
Q 25 43.59375 26.203125 43.59375 
Q 30 43.59375 32.796875 42.140625 
Q 35.59375 40.703125 35.90625 36.59375 
L 49.40625 36.59375 
Q 49 41.40625 46.953125 44.546875 
Q 44.90625 47.703125 41.796875 49.59375 
Q 38.703125 51.5 34.75 52.296875 
Q 30.796875 53.09375 26.59375 53.09375 
Q 22.40625 53.09375 18.40625 52.34375 
Q 14.40625 51.59375 11.203125 49.75 
Q 8 47.90625 6.046875 44.703125 
Q 4.09375 41.5 4.09375 36.5 
Q 4.09375 33.09375 5.5 30.75 
Q 6.90625 28.40625 9.203125 26.84375 
Q 11.5 25.296875 14.453125 24.34375 
Q 17.40625 23.40625 20.5 22.703125 
Q 28.09375 21.09375 32.34375 19.5 
Q 36.59375 17.90625 36.59375 14.703125 
Q 36.59375 12.796875 35.6875 11.546875 
Q 34.796875 10.296875 33.4375 9.546875 
Q 32.09375 8.796875 30.4375 8.4375 
Q 28.796875 8.09375 27.296875 8.09375 
Q 25.203125 8.09375 23.25 8.59375 
Q 21.296875 9.09375 19.796875 10.140625 
Q 18.296875 11.203125 17.34375 12.84375 
Q 16.40625 14.5 16.40625 16.796875 
z
" id="HelveticaNeue-Bold-115"/>
   </defs>
   <g transform="translate(77.853344 9.474491)scale(0.09 -0.09)">
    <use xlink:href="#HelveticaNeue-Bold-83"/>
    <use x="64.899994" xlink:href="#HelveticaNeue-Bold-117"/>
    <use x="124.199982" xlink:href="#HelveticaNeue-Bold-98"/>
    <use x="185.299973" xlink:href="#HelveticaNeue-Bold-112"/>
    <use x="246.399963" xlink:href="#HelveticaNeue-Bold-108"/>
    <use x="272.199951" xlink:href="#HelveticaNeue-Bold-111"/>
    <use x="333.299942" xlink:href="#HelveticaNeue-Bold-116"/>
    <use x="368.499939" xlink:href="#HelveticaNeue-Bold-32"/>
    <use x="396.299927" xlink:href="#HelveticaNeue-Bold-103"/>
    <use x="457.399918" xlink:href="#HelveticaNeue-Bold-114"/>
    <use x="496.299911" xlink:href="#HelveticaNeue-Bold-105"/>
    <use x="522.099899" xlink:href="#HelveticaNeue-Bold-100"/>
    <use x="583.19989" xlink:href="#HelveticaNeue-Bold-32"/>
    <use x="610.999878" xlink:href="#HelveticaNeue-Bold-119"/>
    <use x="692.399872" xlink:href="#HelveticaNeue-Bold-105"/>
    <use x="718.19986" xlink:href="#HelveticaNeue-Bold-116"/>
    <use x="753.399857" xlink:href="#HelveticaNeue-Bold-104"/>
    <use x="812.699844" xlink:href="#HelveticaNeue-Bold-32"/>
    <use x="840.499832" xlink:href="#HelveticaNeue-Bold-99"/>
    <use x="897.899826" xlink:href="#HelveticaNeue-Bold-101"/>
    <use x="955.29982" xlink:href="#HelveticaNeue-Bold-110"/>
    <use x="1014.599808" xlink:href="#HelveticaNeue-Bold-116"/>
    <use x="1049.799805" xlink:href="#HelveticaNeue-Bold-101"/>
    <use x="1107.199799" xlink:href="#HelveticaNeue-Bold-114"/>
    <use x="1146.084167" xlink:href="#HelveticaNeue-Bold-101"/>
    <use x="1203.484161" xlink:href="#HelveticaNeue-Bold-100"/>
    <use x="1264.584152" xlink:href="#HelveticaNeue-Bold-32"/>
    <use x="1292.38414" xlink:href="#HelveticaNeue-Bold-114"/>
    <use x="1331.268509" xlink:href="#HelveticaNeue-Bold-111"/>
    <use x="1392.3685" xlink:href="#HelveticaNeue-Bold-119"/>
    <use x="1473.768494" xlink:href="#HelveticaNeue-Bold-115"/>
   </g>
  </g>
 </g>
 <defs>
  <clipPath id="p7efa81f8c5">
   <rect height="108" width="108" x="31.4875" y="17.145"/>
  </clipPath>
  <clipPath id="pd8e89c151f">
   <rect height="108" width="108" x="153.71125" y="17.145"/>
  </clipPath>
  <clipPath id="pa810b4a7ce">
   <rect height="108" width="110.22375" x="91.4875" y="156.7225"/>
  </clipPath>
 </defs>
</svg>
